<svg width="41" height="41" viewBox="0 0 41 41" fill="none" xmlns="http://www.w3.org/2000/svg">
<path d="M20.7114 8H8.71143V20H20.7114V8ZM16.7083 15.9969H12.7052V11.9938H16.7083V15.9969Z" fill="#6addfe"/>
<path d="M32.7112 15.9983V2.00139C32.7112 1.46702 32.505 0.960767 32.13 0.585767C31.755 0.210767 31.2487 0.0045166 30.7144 0.0045166H2.71123C2.17686 0.0045166 1.67061 0.210767 1.29561 0.585767C0.920606 0.960767 0.714355 1.46702 0.714355 2.00139V33.9983C0.714355 35.592 1.34248 37.1201 2.46748 38.2451C3.59248 39.3701 5.1206 39.9983 6.71435 39.9983H34.7175V35.9951C34.1831 35.9951 33.6769 35.7889 33.3019 35.4139C32.9269 35.0389 32.7206 34.5326 32.7206 33.9983V20.0014H36.7237V33.9983H40.7269V15.9983H32.7112ZM28.7081 36.0045H6.71435C6.17998 36.0045 5.67373 35.7983 5.29873 35.4233C4.92373 35.0483 4.71748 34.542 4.71748 34.0076V4.00764H28.7175V36.0045H28.7081Z" fill="#000062"/>
<path d="M24.7146 27.9989H8.71143V32.002H24.7146V27.9989Z" fill="#6addfe"/>
<path d="M24.7146 21.9989H8.71143V26.002H24.7146V21.9989Z" fill="#6addfe"/>
<path d="M40.7175 36.0045H36.7144V40.0076H40.7175V36.0045Z" fill="#6addfe"/>
</svg>
