<svg xmlns="http://www.w3.org/2000/svg" xmlns:xlink="http://www.w3.org/1999/xlink" width="37" height="36" viewBox="0 0 37 36"><defs><linearGradient id="a" x1="0.024" y1="0.056" x2="0.9" y2="1.027" gradientUnits="objectBoundingBox"><stop offset="0" stop-color="#0690d5"/><stop offset="1" stop-color="#00d2ff"/></linearGradient></defs><g transform="translate(-42.617 -64)"><path d="M75.931,89.849H49.64L46.387,92.4V67.7H74.079V64H44.543A1.832,1.832,0,0,0,42.7,65.843V100l8.221-6.464H77.774a1.832,1.832,0,0,0,1.843-1.843V69.538h-3.7V89.849Z" transform="translate(-0.083)" fill="url(#a)"/><path d="M428.543,64H426.7v3.7h3.687V65.843h0V64Z" transform="translate(-350.769)" fill="url(#a)"/><path d="M133.242,112H112v6.069h21.242Zm-16.2,3.61-.506.879-.993-.575v1.144h-1.012v-1.144l-.993.575-.506-.879.993-.575-.993-.575.506-.879.993.575v-1.144h1.012v1.144l.993-.575.506.879-.993.575Zm5.058,0-.506.879-.993-.575v1.144h-1.012v-1.144l-.993.575-.506-.879.993-.575-.993-.575.506-.879.993.575v-1.144H120.6v1.144l.993-.575.506.879-.993.575Zm5.058,0-.506.879-.993-.575v1.144h-1.012v-1.144l-.993.575-.506-.879.993-.575-.993-.575.506-.879.993.575v-1.144h1.012v1.144l.993-.575.506.879-.993.575Zm5.058,0-.506.879-.993-.575v1.144H129.7v-1.144l-.993.575-.506-.879.993-.575-.993-.575.506-.879.993.575v-1.144h1.012v1.144l.993-.575.506.879-.993.575Z" transform="translate(-61.545 -36.47)" fill="url(#a)"/></g></svg>