<?xml version="1.0" encoding="utf-8"?>
<!-- Generator: Adobe Illustrator 24.1.0, SVG Export Plug-In . SVG Version: 6.00 Build 0)  -->
<svg version="1.1" id="Layer_1" xmlns="http://www.w3.org/2000/svg" xmlns:xlink="http://www.w3.org/1999/xlink" x="0px" y="0px"
	 width="46.1px" height="43.3px" viewBox="0 0 46.1 43.3" style="enable-background:new 0 0 46.1 43.3;" xml:space="preserve">
<style type="text/css">
	.st0{clip-path:url(#SVGID_2_);fill:#4040FF;}
	.st1{clip-path:url(#SVGID_2_);fill:#0000FF;}
	.st2{clip-path:url(#SVGID_2_);fill:#8080FF;}
	.st3{clip-path:url(#SVGID_2_);fill:#BFBFFF;}
</style>
<g>
	<defs>
		<rect id="SVGID_1_" y="0" width="46.1" height="43.3"/>
	</defs>
	<clipPath id="SVGID_2_">
		<use xlink:href="#SVGID_1_"  style="overflow:visible;"/>
	</clipPath>
	<path class="st0" d="M32.5,4v4.5h-2.7V4c0-0.7-0.6-1.3-1.4-1.3H17.6c-0.7,0-1.4,0.6-1.4,1.3v4.5h-2.7V4c0-2.2,1.8-4,4-4h10.8
		C30.7,0,32.5,1.8,32.5,4"/>
	<path class="st1" d="M46.1,17.2v24.7c0,0.7-0.6,1.3-1.4,1.3H1.4c-0.7,0-1.4-0.6-1.4-1.3V17.2H46.1z"/>
	<path class="st2" d="M46.1,12.2v5.5c0,2.9-2.4,5.3-5.4,5.3H5.4c-3,0-5.4-2.4-5.4-5.3v-5.5c0-2.2,1.8-4.1,4.1-4.1h38
		C44.3,8.1,46.1,9.9,46.1,12.2"/>
	<path class="st3" d="M14,28.8c-1.7,0-3.2-1.4-3.2-3.1v-5.5c0-0.2,0.2-0.5,0.4-0.5h5.4c0.2,0,0.5,0.2,0.5,0.5v5.5
		C17.2,27.4,15.8,28.8,14,28.8"/>
	<path class="st3" d="M32,28.8c-1.7,0-3.2-1.4-3.2-3.1v-5.5c0-0.2,0.2-0.5,0.5-0.5h5.4c0.2,0,0.5,0.2,0.5,0.5v5.5
		C35.2,27.4,33.8,28.8,32,28.8"/>
</g>
</svg>
