<?xml version="1.0" encoding="utf-8"?>
<!-- Generator: Adobe Illustrator 24.1.0, SVG Export Plug-In . SVG Version: 6.00 Build 0)  -->
<svg version="1.1" id="Layer_1" xmlns="http://www.w3.org/2000/svg" xmlns:xlink="http://www.w3.org/1999/xlink" x="0px" y="0px"
	 width="78px" height="78px" viewBox="0 0 78 78" style="enable-background:new 0 0 78 78;" xml:space="preserve">
<style type="text/css">
	.st0{fill-rule:evenodd;clip-rule:evenodd;fill:#4040FF;}
	.st1{fill-rule:evenodd;clip-rule:evenodd;fill:#0000FF;}
	.st2{opacity:0.6;}
	.st3{fill-rule:evenodd;clip-rule:evenodd;fill:#8080FF;}
</style>
<g>
	<path class="st0" d="M6.6,30.7L6.6,30.7L6.6,30.7l-0.1-0.1l0,0l0,0l0,0v0.1L6.6,30.7L6.6,30.7L6.6,30.7L6.6,30.7z M11.3,39.1
		L11.3,39.1L11.3,39.1L11.3,39.1L11.3,39.1L11.3,39.1L11.3,39.1L11.3,39.1l0,0.1l0,0L11.3,39.1L11.3,39.1L11.3,39.1z M9.4,35.7
		L9.4,35.7l0.1-0.1L9.4,35.7L9.4,35.7l-0.1,0.1l0,0.2l0,0.1l0,0l0,0l0,0l0.1,0.1l0,0l0,0l0,0l0,0l0,0l0,0l0,0l0,0l0-0.1l0-0.1l0,0
		l0,0l0,0l-0.1-0.1l0-0.1L9.4,35.7L9.4,35.7z M10.7,36.7L10.7,36.7L10.7,36.7L10.7,36.7l0-0.1l0,0l0,0L10.7,36.7L10.7,36.7
		L10.7,36.7l-0.1,0.1l0,0l0,0l0,0.1l0,0L10.7,36.7L10.7,36.7L10.7,36.7L10.7,36.7L10.7,36.7L10.7,36.7L10.7,36.7z M10.2,37L10.2,37
		L10.2,37L10.2,37l0.1,0.1l0,0l0,0l0,0l0,0l0.1,0l0,0l0,0l0,0l0,0l0,0l-0.1-0.1L10.2,37L10.2,37L10.2,37l0-0.1l0,0L10,36.8l-0.1,0
		l-0.1,0l0,0.1l0,0l0,0l0,0l0,0l0.1,0l0.1,0l0,0l0,0l0,0l0,0l0,0l0,0L10.2,37L10.2,37L10.2,37L10.2,37L10.2,37z M10.4,36.9
		L10.4,36.9L10.4,36.9L10.4,36.9l0-0.1l-0.1,0l0,0L10.4,36.9L10.4,36.9L10.4,36.9z M11.1,37.3l0-0.1l0,0l0,0l0,0l0-0.1l0,0l0,0h0
		l0,0l0,0.1l0,0l0,0h0l0,0.1l0,0l0,0L11.1,37.3l-0.1,0L11.1,37.3L11.1,37.3L11.1,37.3L11.1,37.3L11.1,37.3L11.1,37.3L11.1,37.3
		L11.1,37.3L11.1,37.3L11.1,37.3z M55.4,29.8L55.4,29.8l0.1-0.1l0,0l0,0l0,0l0,0l0,0l0,0l0,0l0,0l0,0v0l0,0l0,0l0,0l0,0l0,0l0,0
		l0.1,0l0.1,0l0.1,0l0.1,0l0.1,0l0.1,0l0.1,0l-0.4-0.1l-0.1,0l-0.1,0l0,0l0,0l-0.1,0l-0.1,0.1L55.4,29.8L55.4,29.8L55.4,29.8z
		 M2.3,27.2L2.3,27.2L2.3,27.2L2.3,27.2L2.3,27.2L2.3,27.2l-0.2,0l-0.1,0l0,0l0,0l0,0l0.1,0l0,0l0,0l-0.1,0l0,0l0,0l0,0l0,0l0,0l0,0
		l0,0l0,0l0,0.1l0,0.1l0.1,0.1l0.1,0l0.1,0l0.1,0v0L2.3,27.2L2.3,27.2z M9.8,36.7L9.8,36.7L9.8,36.7l-0.1,0l0,0L9.8,36.7L9.8,36.7
		l-0.1,0l0,0l0,0l0,0l0,0l0,0l0,0l0,0l-0.1-0.1l0,0l0,0l0,0l0,0h0l0,0l0,0l0,0l0.1-0.1l0,0l0,0l0,0l0,0l-0.1,0.1l0,0.1l0,0.1l0,0.1
		l0.1,0.1l0,0l0-0.1l0.1,0l0.3,0.1L9.8,36.7L9.8,36.7L9.8,36.7L9.8,36.7L9.8,36.7z M10.8,37.3L10.8,37.3L10.8,37.3l-0.1,0.1l0,0
		l0-0.1L10.8,37.3L10.8,37.3l-0.1-0.1l0,0l-0.1,0l-0.1-0.1l-0.1,0l0,0l-0.1-0.1l0,0l0,0l0,0l0,0.1l0,0l0,0l0,0l0,0v0l0,0l0,0
		l0.1,0.2l0.1,0.1l0.1,0.1l0.1,0.1l0.1,0l0-0.1L10.8,37.3L10.8,37.3L10.8,37.3L10.8,37.3L10.8,37.3z M30.1,68.9l0.2,0.1l0,0l0,0.1
		l0,0.1l0,0.1l0,0.1l0,0.1l0,0l0.1,0l0.1,0l0.1,0l0,0l0,0l0,0l0,0l0,0.1v0.2l0,0.1L30.7,70l0.1,0.2l0,0l0,0l0.1,0.1l0,0l0.1,0.1
		l0,0.1l0,0l0.1,0.1l0,0l0,0l0,0.1l0,0.1l0,0l0,0l0.1,0l0,0.1l0,0.2l0,0.2l0,0.1l0,0.1l0.2,0.2l0,0.1l0,0.1l0,0l0,0.1l0,0l0.2-0.1
		l0.1-0.1l0.1-0.1l0-0.1l0-0.1l0-0.1l0,0l0,0l0.1,0l0.1,0l0.2-0.1l0.1-0.1l0-0.1l0.1-0.2l0-0.1l0-0.1l0-0.1l0,0l0.1,0l0.1,0l0.1,0
		l0-0.1l0-0.1l0-0.1l0-0.1l0.1-0.1l0,0l0,0l0,0l0,0l0,0l0,0l0,0l-0.1,0l0,0l0-0.1l-0.1-0.1l0-0.1l0-0.1l0.1-0.1l0-0.1l0-0.1l0-0.1
		l0-0.1l0-0.1l0-0.1l0.1-0.1l0-0.1l0-0.1l0-0.1l0.1-0.1l0.1,0l0.1,0l0.1,0l0-0.1l0-0.1l-0.1-0.1l-0.2-0.1l0,0l0.2-0.2l0.3-0.3
		l0.3-0.2l0.1,0l0.1,0l0.1,0l0.1,0l0.1,0l0.3,0.1l0.2,0.1l0.2,0.3l0.1,0.1l0.1,0h0.1l0.1,0l0.1,0l0.1,0l0.1,0l0,0v0l0,0.1l0,0l0,0
		l0,0l0,0l0.1,0l0.1-0.1l0-0.1l0.1-0.1l0.1,0l0.1,0l0.1,0.1l0.1,0l0.1,0l0.1-0.1l0.1-0.1l0.1,0l0.1,0l0.2,0l0.1,0L37,68l0.3,0l0.2,0
		l0.2,0.1l0.1,0l0.2-0.1l0.1,0l0.7,0l0.5,0l0.6,0l0.2,0l0.6,0.3l0.2,0.1l0.8,0.1l0.9,0.1l0.7,0.1l0.9,0.1l0.6-0.1l0.8-0.1l0.1,0.1
		l0.2,0.3l0.3,0.4l0.3,0.4l0,0l0.5,0l0.1,0l0.1,0l0.4-0.3l0.4-0.2l0.1-0.1l0.2-0.7l0.2-0.5l0.1-0.1l0.3-0.4l0.5-0.7l0.6-0.7l0.3-0.4
		l0.3-0.3l0.1-0.1l0.5-0.2l0.6-0.3l0.7-0.4l0.6-0.3l0.5-0.3l0.2-0.1l0.3-0.1l0.5-0.1l0.6-0.1l0.6-0.1l0.6-0.1l0.6-0.1l0.6-0.1
		l0.6-0.1l0.6-0.1l0.6-0.1l0.6-0.1l0.6-0.1l0.6-0.1l0.6-0.1l0.6-0.1l0.6-0.1l0.6-0.1l0.6-0.1l0.6-0.1l1-0.4l0.6-0.2l0.6-0.2l0.6-0.2
		l0.6-0.2l0.6-0.2l0.6-0.2l0.6-0.2l0.6-0.2l0.6-0.2l0.6-0.2l0.6-0.2l0.6-0.2l0.6-0.2l0.6-0.2l0.6-0.2l0.5-0.2l0.1-0.4l0-0.1l0.1-0.2
		l0.1-0.3l0.1-0.4l0.2-0.5l0.2-0.6l0.2-0.6l0.4-1.3l0.2-0.6l0.2-0.6l0.2-0.5l0.1-0.4l0.1-0.3l0.1-0.2l0-0.1l0.2-0.5l0-0.1l0-0.1
		l-0.2-0.3l-0.3-0.5l-0.3-0.5l-0.3-0.5L76,48.3l-0.2-0.4l-0.2,0.3l-0.1,0L75,48.2l-0.5-0.1L74,48.1L73.5,48L73,47.9l-0.5-0.1
		l-0.5-0.1l-0.5-0.1l-0.5-0.1l-0.5-0.1l-0.5-0.1l-0.5-0.1l-0.5-0.1l-0.5-0.1l-0.5-0.1l-0.5-0.1l-0.5-0.1l-0.6-0.1l-0.1,0L66.4,47
		l-0.2-0.2L66,46.5l-0.2-0.2L65.6,46l-0.2-0.2l-0.2-0.2l-0.2-0.2L64.9,45l-0.2-0.2l-0.2-0.2l-0.2-0.2l-0.2-0.2l-0.2-0.2l-0.2-0.2
		l-0.2-0.2l-0.2-0.2l-0.2-0.2L63,42.6l-0.1-0.1l0-0.1l0-0.3l0-0.1l0-0.2l-0.2,0l-0.1-0.1l-0.1,0l-0.2,0l-0.1,0l0,0l0,0l0,0l-0.1,0
		l-0.2,0l0,0l0,0l0-0.1l0,0l0,0l0,0l0,0l0,0l0,0l0,0l0,0l0-0.1l0,0l0,0l0-0.1l0,0l0,0l0.2-0.2l0,0l0-0.1l0,0l0.1-0.1h0l0-0.1l0.1,0
		l0.1,0l0.1,0v0l-0.1,0h-0.1l0,0l0-0.1l0,0l-0.1,0l-0.1,0l0,0l0,0l0,0l0,0l-0.1,0.1l-0.1,0.2l0,0l-0.1,0l0,0l0-0.1l0,0l0,0l0,0l0,0
		l0,0l0,0l0,0l0,0l0,0l0,0l0,0l0,0l-0.2,0l0,0l-0.2,0.2l-0.2,0.1l-0.2,0l-0.2,0l-0.2-0.1l-0.2-0.2L60.2,40l-0.1,0.1l-0.1,0l0,0
		l0-0.1l0-0.1l0,0l0-0.2l0-0.2l-0.1-0.1l-0.1-0.1l-0.1-0.3L59.6,39l0-0.1l-0.1-0.1l-0.1-0.1l0,0.1l0,0l0-0.1l0-0.2l0-0.2l0-0.1
		l-0.1-0.1l0-0.1l0,0l0,0l0-0.1l0-0.1l0-0.1l0,0l0-0.1l0-0.1l0-0.1l0-0.1l0,0L59,37.3l0,0l-0.1,0l-0.1,0l0-0.1l0,0l0,0l0,0l0-0.1
		l0,0l0,0l0,0l0,0.1l0,0.1l0,0.1l-0.1-0.1l-0.4-0.5L58,36.3h0l0,0l0,0l0,0l-0.1-0.1l0-0.1l0-0.1l0.1,0l0.1,0l0,0.1l0,0l0.1,0l0,0
		l0,0l0.1,0.2h0l0-0.2l-0.1-0.1l-0.2-0.3l-0.1-0.1l-0.1-0.2l0-0.2l0.1-0.1v0l0-0.1l0-0.1l0-0.1l-0.1,0l0,0l0,0l0,0l0,0l0,0l0,0l0,0
		l0,0l0-0.1l0,0l0,0l0,0.1l0,0.1l-0.1,0l-0.1,0l0-0.1l0-0.1l0-0.1l0-0.1l0,0l0,0l0,0l0,0l0,0l0-0.1l0,0l0,0l0-0.1l0-0.1l0,0l0,0
		l0.1-0.2l0,0l0,0l0,0l0,0l0,0l0,0l0,0.1l0,0h0l0,0l0,0l0,0l0,0l0,0l0,0.1l0,0.1l0,0.1l0.1,0l0-0.1l0-0.2l0-0.2l0-0.1l0,0l0,0l0,0
		l0,0.1l0.1,0l0-0.1l0-0.1l0-0.4l0-0.2L58,33.4l-0.1-0.1l-0.3-0.1l-0.1,0l-0.1-0.1l0-0.1l-0.1-0.3l0-0.1l0-0.2l0,0l0,0l0,0l0,0l0,0
		l0,0l0-0.1l0-0.1l0,0l0,0.1l0,0l0.1,0l0.2,0l0.1,0.1l0.2,0.1l0-0.1l-0.1-0.1l-0.3-0.2L57.5,32l-0.2-0.2l-0.1-0.1l-0.1-0.1l-0.1,0
		l-0.1,0l-0.1,0l-0.1-0.1l-0.2-0.1l0,0l-0.1-0.1l0,0l-0.1,0l0,0l-0.1-0.1l-0.2-0.3l-0.1-0.1l-0.1,0l0,0l0-0.1l0-0.1l0-0.1l0-0.1
		l0-0.1l-0.1,0.1l0,0l0,0l0,0l0,0l0,0l-0.1,0.1l0,0.1l0.1,0.1l-0.1,0l-0.1,0l-0.1,0l-0.1,0l0,0l0-0.1l0,0l0,0l0,0l0,0l0,0.1l0,0l0,0
		l0,0l-0.1,0l0,0l0,0l0,0l0,0l0,0l0-0.1l0,0l0,0l0,0l0,0l-0.1,0l-0.1,0l0,0l0,0.1l0,0l0,0l0,0l0-0.1l-0.1,0l0-0.1l0-0.2l0-0.1l0-0.1
		l0-0.1l0-0.1l-0.1,0l0,0l0,0l0,0l0,0l0,0l0,0l0,0l0-0.1l0,0l0,0l0,0l0,0l0-0.1l0,0l0,0l0,0l0,0l0,0l0,0v0l-0.1,0.1l0,0l0,0l0,0l0,0
		l0,0l0,0l0,0l0,0l-0.1,0l0,0l0.1-0.1h0.1l0,0.1h0l0.1-0.1l0.2,0l0.1-0.1h0l0,0.1l0,0l0,0l0,0l0,0l0-0.1l0,0l0,0l0,0l0,0l0,0
		l-0.1-0.1l-0.1-0.1l-0.1,0l0,0l-0.1,0l0,0l0,0l-0.1,0l0,0l-0.1,0l-0.1,0l-0.1,0l0,0l0,0l0,0l-0.1,0l0.1,0l0,0l-0.1-0.1l-0.1-0.1
		l0,0l-0.1,0l-0.1,0l0,0l0,0l0,0l0,0l0,0l0,0l-0.1,0l0-0.1l0-0.1l0,0l0-0.1h0l0,0.1l0,0l-0.1,0l-0.1,0l0,0l0,0l0.1,0l0,0l0-0.1l0,0
		l0,0l0,0l0,0l0,0l0,0l0-0.1l0,0l0,0l0,0l0,0l0-0.1l0-0.1l0,0l0,0l0,0l0,0l0,0v-0.2l0,0l0,0.1l0,0l0,0l0,0l0,0l0,0l0-0.1l0.1-0.3
		l0-0.1l0,0l0,0.1l0,0L53.1,28l0.1,0l0.1-0.2l0.1-0.1l0,0.1l0,0l0,0l0,0.1l0,0.1l0,0l0,0l0,0l0-0.1l0-0.1l0,0l0,0l0,0l0-0.1l0-0.1
		l0,0l-0.1-0.1l-0.1-0.1l0,0l-0.1,0l-0.1-0.1l-0.1-0.1l0-0.1l0-0.1l0,0l0.1,0l0,0l0,0l0,0l0,0l0,0l0,0l0,0l0,0l-0.1,0l0,0l-0.1,0
		l0,0l-0.1-0.1l-0.1,0l0,0l0,0l0,0l-0.1-0.2l0-0.1l0-0.1l0-0.1l0-0.1l0.1-0.1l0,0l-0.3-0.3l0-0.1l0-0.1l0,0l0-0.1l0-0.1l0,0l0,0
		l0,0.1l0,0l-0.1,0l-0.1,0l0,0l0,0l0,0l0.1,0l0-0.1l0-0.1l0-0.2l0,0l-0.1,0l0,0l-0.1-0.1l-0.6,0l-0.6,0l-0.6,0l-0.6,0l-0.2,0l0-0.1
		l-0.1-0.1l-0.1-0.1l-0.1-0.1l-0.1-0.1l0-0.1l0-0.1l0-0.2l0-0.1l-0.2-0.5L48.2,23h0L48,23l-0.4,0l-0.4,0l-0.4,0l-0.4,0l-0.4,0
		l-0.4,0l-0.4,0l-0.4,0l-0.2,0l-0.2,0l-0.2,0l-0.2,0l-0.4,0l-0.3,0l-0.3,0l-0.3,0l-0.3,0l-0.4,0l-0.4,0l-0.4,0l-0.4,0l-0.4,0l-0.4,0
		l-0.4,0l-0.4,0l-0.3,0l-0.3,0l-0.3,0l-0.3,0l-0.3,0l0,0l0,0l0,0l0,0l-0.3-0.2l-0.3-0.3l-0.3-0.3l-0.3-0.3l-0.3-0.3l-0.4-0.3
		l-0.4-0.3l-0.4-0.3l-0.4-0.3l-0.4-0.3l-0.4-0.3l-0.4-0.3l-0.4-0.3l-0.3-0.3l-0.3-0.3l-0.3-0.3l-0.3-0.3l-0.4-0.3l0,0l-0.3-0.3
		l-0.3-0.3l-0.3-0.3l-0.3-0.3l-0.3-0.3l-0.3-0.3l-0.3-0.3l-0.3-0.3l-0.2-0.2l-0.3-0.2L28.4,14l-0.3-0.2l-0.3-0.2l-0.3-0.2l-0.3-0.2
		l-0.3-0.2l-0.3-0.2l-0.3-0.2l-0.3-0.2l-0.3-0.2L25,12l-0.3-0.2l-0.3-0.2L24,11.4l-0.3-0.2L23.4,11l-0.2-0.1L23,10.8l-1.2-0.2h0
		l-0.3,0l-0.7-0.1l-0.7-0.1l-0.7-0.1L18.7,10l0,0l0,0l-0.1,0.1l-0.4,0.4L18,10.6l-0.4,0.1l-0.8,0.2L16,11.2l-0.8,0.2l-0.8,0.2
		l-0.9,0.3l-0.9,0.3l-0.9,0.3l-0.9,0.3l0.5,0.5l0.5,0.5l0.5,0.5l0.5,0.5l0,0l0,0l0,0l0,0l0.4,0.5l0.4,0.5l0.4,0.5l0.4,0.5l0.2,0.2
		l0,0l0,0l0,0l0,0L14.2,17l-0.4,0.2l-0.4,0.2l-0.1,0.1l0,0.1l-0.1,0.3L13,18.2l-0.1,0.3l-0.2,0.4l-0.1,0.1L12.2,19l-0.5,0.1
		l-0.5,0.1l-0.5,0.1l-0.3,0.1l-0.3,0.1l-0.1,0l-0.1,0.1l-0.2,0.3l-0.2,0.3l-0.2,0.4l-0.2,0.4l-0.3,0.2l-0.4,0.3L8,21.8l-0.4,0.3
		l-0.1,0l-0.1,0l-0.4-0.1l-0.4-0.1L6,22l-0.5-0.1L5,21.8l-0.6-0.1L4,21.6l-0.4-0.1l0,0.1l0,0.1l0,0.1l0,0l0,0l0,0l0,0l0,0l0,0.1
		l0,0.1l0,0.1l-0.1,0l0,0l0,0.1l0,0l0,0.1l0,0.1l-0.1,0.4l0,0.1l0,0.1v0.1l0,0.1l0,0.2l-0.1,0.2l-0.1,0.1v0l0.1,0l0,0.1l0,0.1v0l0,0
		l0,0l-0.1,0.1h0v0L3.2,24l0,0.1l0,0.1l0.1,0.7l0,0.1l0,0l0,0.1l0,0.1l0,0.1l-0.1,0.1l0,0.2l-0.1,0.1l-0.1,0.1l-0.1,0.1l0,0l0,0l0,0
		l0,0l0,0l0,0l0,0l0,0l0,0.2l0,0v0l0,0l0,0l0,0l0,0v0h0l0,0l0,0l0,0l0,0l0,0l0,0l0,0v0l0,0l0,0l0,0l0,0l0,0l0,0l0,0l0,0l0,0l0,0l0,0
		l-0.1,0.1l0,0l0,0l0.1,0l0,0l0,0.1l0,0.1l0,0.1l0,0l0,0l0,0l0,0l0,0l0.1,0l0,0l0-0.1l0-0.1l0,0l0,0l0,0l0,0l0,0v0l-0.1-0.1v0l0,0
		l0,0l0,0l0,0l0,0l0,0l0,0l0,0l0,0l0,0l0,0l0,0l0,0l0,0l0,0l0,0l0,0l0,0l0,0l0,0h0v0h0l0,0l0,0v0l0,0l0,0l0,0l0,0l0,0l0,0l0,0l0.1,0
		l0,0v0l0,0l0,0l0,0l0,0l0,0l0,0l0,0l0,0l0,0l0-0.1l0,0l0,0v0h0v0l0,0l0,0l0,0l0,0l0,0l0,0l0,0l0,0v0h0v0l0,0h0l0,0l0-0.1l0.1,0
		l0.1,0l0,0h0v0h0l0,0l0,0l0,0l0.1,0l0,0l0,0l0,0l0,0l0,0l0,0l0,0l0,0h0l0,0l0,0l0.2,0.1l0,0l0,0l0.1,0l0,0l0,0l0,0l0,0h0v0h0l0,0
		l0.1,0l0,0l0,0.1l0,0l0,0l-0.1,0l-0.1,0l0,0l0,0.1h0v0l0.2,0.1l0.1,0l0,0l0.1,0.1L5,27.5l0,0.1l0,0.1l0,0.1l0,0.1l0,0l0,0l0.1,0
		l0,0L5.3,28l0.1,0.2l0.1,0.1l0.1,0.1l0,0.1l0,0.1l0,0.1l0,0.1l0,0.1l0.1,0.3l0.1,0.1L6,29.5l0.1,0.1l0,0l0.2,0.1l0.3,0.4l0.1,0.1
		l0,0l0,0l0,0.1l0,0l0,0l0,0l0.1,0.2l0.3,0.4l0.2,0.2l0.1,0.1l0,0l0.1,0l0.1,0.2l0.1,0.2L7.7,32l0.1,0.1L8,32.3l0.2,0.2l0.3,0.5
		l0.3,0.7l0.2,0.2L9,34.1l0.2,0.5l0.1,0.1l0.1,0l0.1,0l0.1,0l0.1,0.1l0.1,0.1l0,0.1l0,0.1l0,0.1l0,0.1l-0.1,0.1l0,0.1l0,0.1l0,0.1
		l0,0l0,0l0,0l0,0.1l0,0l0,0L10,36l0,0l0.1,0l0.1,0.1l0,0l0,0l0,0l0,0l0,0l0.1,0l0.1,0.1l0.1,0.2l0,0l0.1,0l0,0l0,0l0.1,0.1l0,0l0,0
		l0,0l0,0l0,0l0,0l0,0L11,37l0,0.1l0.2,0.2l0.1,0.1l-0.1,0l0,0l0.1,0.1l0,0l0,0l0,0.1l0,0l0,0.1l0.1,0.1l0.1,0.1l0.1,0.1l0,0l0,0.1
		l0,0l0,0l0,0l0.1,0.1l0,0.1l0,0.1l0,0.1l0,0.1l0,0.2l0,0.1l0.1,0.2l0,0.1l-0.1,0.2l0,0.2l0,0.1l-0.1,0l-0.1,0l-0.1,0l-0.1,0
		l0.1,0.1l0,0.1l0.1,0l0,0l0,0l0,0l0,0l0,0l0,0l0,0l0,0.1l0.1,0.1l0.2,0.2l0.6,0.9l0,0l0,0l0,0l0,0.1l0,0l0,0l0,0l0.1,0.2l0,0.1
		l0.1,0.1l0,0l0.1,0l0.2,0.1l0.1,0l0-0.1l0,0l0.1,0l0.1,0l0.1,0l0.1,0l0.1,0.1l0.1,0l0.1,0l0,0l0,0l0.1,0.2l0,0l0.1,0l0.1,0l0,0l0,0
		l0-0.1l0-0.1l0,0l0,0l0,0l0,0l0,0l0,0l0,0l0,0l0,0.1l0,0l0,0l0,0l0,0l-0.1,0l0,0l0.2,0.1l0.2,0.2l0.1,0l0.1,0l0,0l0,0l0,0l0,0
		l0.2,0.2l0.1,0l0,0l0.1,0.1l0,0l0.1,0l0.1,0l0.1,0l0.1,0l0.1,0.1l0,0.1l0,0.1l0,0l0.1,0l0,0l0,0l0.1,0.1l0,0l0,0l0,0.1l0,0l0.1,0
		l0,0l0,0l0.1,0.1l0,0.1l0,0.1l0,0.1l0.1,0.2l0.1,0.4l0.1,0.2l0.1,0v0l-0.1,0l0,0l0-0.1h0l0,0l0.1,0l0,0l0,0.1l0,0l0.1,0.1l0,0.1
		l0,0.1l0,0.1l0,0.1l0,0l0,0l0,0l0,0.1l0,0.1l0,0.1l0.1,0l0,0l0,0.1l0,0.1l0,0l0,0l0,0l0,0.1l0,0.1l0.1,0.1l0.1,0l0.1,0l0,0l0,0l0,0
		l0,0l0.1-0.1l0,0.1l0,0.1l0,0l0,0l0.1,0.2l0,0.1l0,0.1l0,0.1l0,0l0.1,0.2l0.1,0.1l0.1,0l0.1,0l0.1,0l0.1,0l0,0.1l0,0l0,0l0,0l0,0
		l0,0l0.1,0.1l0,0l0,0l0,0l0,0l0,0l-0.1,0l-0.1-0.2l-0.1,0l0.1,0.1l0.1,0.3l0.2,0.3l0,0.1l0,0l0,0l0,0l0,0l0,0l0,0l-0.1-0.1l0,0l0,0
		l0.1,0.1l0.2,0.2l0,0l-0.1,0.1l0,0l0,0.1l0.1,0.1l0.1,0.2l0.1,0.1l0,0.1l0,0.5l0,0.2l0.1,0.1l0,0l0-0.1l0,0l0,0l0,0l0,0v0l0,0
		l-0.1,0.1l0,0.1l0,0l0,0l0,0l0,0.2l-0.1,0.1l0,0.1V50l0,0.1l0,0l0,0l0,0.1l0.1-0.1h0l0,0.1l0,0.2l0,0.1l0,0l0,0l0,0l0,0v0.1l0,0
		l0,0.1l0,0.5l0,0l0,0l0,0l0,0l0,0l-0.1-0.1l0-0.1l0,0l-0.1,0l0,0.1l0,0.1l0,0.1l0.1,0.1l0,0l0,0l0,0l0,0l0,0l0,0l0,0.1l0,0l0,0l0,0
		l0,0l0,0l0,0v0l0,0l0,0l0,0l0,0l0-0.1l0,0l0,0.1l0,0.1l0,0l-0.1,0l0,0.1l0,0.1l0,0.1l0,0.1l0,0.1l0.1,0.1l0,0l0,0.1l0,0l0,0l0-0.1
		l0.1,0.1l0,0.1l0,0v0l0.1,0.1l0,0.1l0,0.1l0,0.1l-0.3,0.2l0.1,0.2l0.1,0l0.1,0.2l0,0.1l0,0l0,0l0,0l0,0l0,0.1l0,0.1l0,0l0.1,0.1
		l0,0l0,0l0,0l0,0l0,0l0,0l0,0.1l0,0.1l0,0.1l0.1,0.2l0,0l0,0l0,0l0,0l0,0l0,0l0,0l0,0l0,0l0,0l0,0l0,0l0,0l0,0.1l0.1,0.1l0.1,0.1
		l0.1,0l0-0.1l0,0l0,0.1l0,0l0,0l0,0l0,0l0,0l0,0l0,0l0,0l0,0l0,0l0,0l0,0l0,0l0,0l0,0l0,0.1l0,0.1l0.1,0l0.1,0l0,0l0,0l0,0l0,0l0,0
		l0.1,0l-0.1,0.1l0,0.1l0.1,0.1l0,0l0,0.1l0,0l0.1,0.1l0,0l0.1,0l0,0l0,0l0,0l0,0v0l0.1,0.1l0.2,0.3l0.1,0.1l0.2,0.1l0.1,0.1
		l0.1,0.1l0.1,0l0.1,0l0,0l0,0l0.3,0.2l0.1,0l0,0l0,0l0,0l0,0l0,0l0,0l0,0l0,0l0.1,0l0.2,0.1l0.1,0l0,0l0.1,0l0.1,0l0.1,0l0.1,0
		l0.1,0.1l0,0l0,0l0,0l0.1,0.1l0,0l0,0l0.1,0l0.1,0l0.1,0l0,0.1l0.1,0.1l0.2,0.1l0.1,0l0.1,0l0,0l0.1,0l0,0l0.1,0.1l0,0l0,0l0,0.1
		l0,0l0.1,0.1l0.1,0l0,0l0,0.1l0,0.1l0,0l0,0l0.1,0.1l0.1,0.2l0.1,0l0,0l0,0.1l0,0.1l0.1,0l0-0.1l0,0l0.1,0l0.2,0l0.1,0l0.2,0.2
		l0,0.1l0,0.2l0,0.2l-0.1,0l0,0v0l0.1,0l0.2,0.2l0.1,0l0.3,0.1l0,0l0,0l0,0l0,0l0,0l0,0l0,0l0,0l0,0l0,0.1l0,0l0,0l0,0.1l0,0l0,0
		l0,0l0.1,0.1l0.1,0l0,0l0,0.1l0,0l0.1,0l0,0l0,0l0,0.1l0,0l0,0.1l0,0l0,0l0.1,0.1l0,0.1l0.1,0l0.2,0l0.1,0l0.1,0l0,0.1l0,0.1l0,0.1
		l0,0.1l0,0l0,0l0,0l0,0.1l0,0l0,0l0,0l0.1,0.1l0,0l0,0.1l0.1,0l0,0l0.1,0l0,0l0,0.1l0,0l0,0l0,0l0,0.1L26,63.1l0,0.1l0,0.1l0,0l0,0
		l0,0.1l0.1,0.2l0,0l0,0l0,0l0,0l0,0l0,0l0,0l0,0l0,0l0,0l0.1,0l0,0l0,0l0,0l0,0l0.1,0.1l0,0l0,0l0,0l0,0l0,0l0,0l0,0l0,0l0,0.2l0,0
		l0,0l0,0.1l0,0l0,0l0,0.1l0,0.1l0,0.1l0.1,0l0,0l0,0l0,0.1l0,0l0,0l0,0l0,0l0,0l0,0l0,0l0,0l0,0l0,0l0,0l0,0l0.1,0l0.1,0l0,0.1l0,0
		l0,0l0,0l0,0l0,0l0.1,0.1l0,0.1l0.1,0.1l0.2,0.1l0,0l0,0l0,0l0,0l0,0l0,0l0,0l0,0l0,0.1l0.2,0.2l0.1,0.1l0.1,0.1l0.1,0.1l0,0.1
		l0.1,0l0.1,0.1l0.1,0l0.2,0.2l0,0l0.1,0.2l0,0h0l0,0l0,0l0,0l0.2,0.2l0,0l0,0l0,0l0.1,0l0,0l0,0l0,0.1l0.1,0.1l0,0.1l0,0l0,0l0,0
		l0.4,0.3l0,0l0,0l0,0l0,0l0,0l0,0l0,0l0,0.1l0,0.1l0,0.2l0,0.1l0,0.1L30.1,68.9L30.1,68.9z"/>
	<g>
		<g>
			<path class="st1" d="M9.3,35.2L9.3,35.2l0.1-0.1L9.3,35.2L9.3,35.2l-0.1,0.1l0,0.2l0,0.1l0,0l0,0l0,0l0.1,0.1l0,0l0,0l0,0l0,0
				l0,0l0,0l0,0l0,0l0-0.1l0-0.1l0,0l0,0l0,0l-0.1-0.1l0-0.1L9.3,35.2L9.3,35.2z M9.7,36.2L9.7,36.2L9.7,36.2l-0.1,0l0,0L9.7,36.2
				L9.7,36.2l-0.1,0l0,0l0,0l0,0l0,0l0,0l0,0l0,0L9.3,36l0,0l0,0l0,0l0,0h0l0,0l0,0l0,0l0.1-0.1l0,0l0,0l0,0l0,0L9,35.9L9,36L9,36
				l0,0.1l0.1,0.1l0,0l0-0.1l0.1,0l0.3,0.1L9.7,36.2L9.7,36.2L9.7,36.2L9.7,36.2L9.7,36.2z M10.1,36.5L10.1,36.5L10.1,36.5
				L10.1,36.5l0.1,0.1l0,0l0,0l0,0l0,0l0.1,0l0,0l0,0l0,0l0,0l0,0l-0.1-0.1L10.1,36.5L10.1,36.5L10.1,36.5l0-0.1l0,0l-0.2-0.1
				l-0.1,0l-0.1,0l0,0.1l0,0l0,0l0,0l0,0l0.1,0l0.1,0l0,0l0,0l0,0l0,0l0,0l0,0L10.1,36.5L10.1,36.5L10.1,36.5L10.1,36.5L10.1,36.5z
				 M2.2,26.7L2.2,26.7L2.2,26.7L2.2,26.7L2.2,26.7L2.2,26.7l-0.2,0l-0.1,0l0,0l0,0l0,0l0.1,0l0,0l0,0l-0.1,0l0,0l0,0l0,0l0,0l0,0
				l0,0l0,0l0,0l0,0.1l0,0.1L2,26.8l0.1,0l0.1,0l0.1,0v0L2.2,26.7L2.2,26.7z M6.5,30.2L6.5,30.2L6.5,30.2l-0.1-0.1l0,0l0,0l0,0v0.1
				L6.5,30.2L6.5,30.2L6.5,30.2L6.5,30.2z M10.6,36.9L10.6,36.9L10.6,36.9L10.5,37l0,0l0-0.1L10.6,36.9L10.6,36.9l-0.1-0.1l0,0
				l-0.1,0l-0.1-0.1l-0.1,0l0,0l-0.1-0.1l0,0l0,0l0,0l0,0.1l0,0l0,0l0,0l0,0v0l0,0l0,0l0.1,0.2l0.1,0.1l0.1,0.1l0.1,0.1l0.1,0l0-0.1
				L10.6,36.9L10.6,36.9L10.6,36.9L10.6,36.9L10.6,36.9z M11.1,38.6L11.1,38.6L11.1,38.6L11.1,38.6L11.1,38.6L11.1,38.6L11.1,38.6
				L11.1,38.6l0,0.1l0,0L11.1,38.6L11.1,38.6L11.1,38.6z M12.3,18.4l-0.2,0.1l-0.5,0.1l-0.5,0.1l-0.5,0.1l-0.3,0.1l-0.3,0.1l-0.1,0
				l-0.1,0.1l-0.2,0.3l-0.2,0.3l-0.2,0.4l-0.2,0.4l-0.3,0.2L8.3,21l-0.4,0.3l-0.4,0.3l-0.1,0l-0.1,0l-0.4-0.1l-0.4-0.1l-0.6-0.1
				l-0.5-0.1l-0.5-0.1l-0.6-0.1l-0.4-0.1l-0.4-0.1l0,0.1l0,0.1l0,0.1l0,0l0,0l0,0l0,0l0,0l0,0.1l0,0.1l0,0.1l-0.1,0l0,0l0,0.1l0,0
				l0,0.1l0,0.1l-0.1,0.4l0,0.1l0,0.1v0.1l0,0.1l0,0.2l-0.1,0.2l-0.1,0.1v0l0.1,0l0,0.1l0,0.1v0l0,0l0,0L3,23.3h0v0L3,23.5l0,0.1
				l0,0.1L3,24.4l0,0.1l0,0l0,0.1l0,0.1l0,0.1l-0.1,0.1l0,0.2l-0.1,0.1l-0.1,0.1l-0.1,0.1l0,0l0,0l0,0l0,0l0,0l0,0l0,0l0,0l0,0.2
				l0,0v0l0,0l0,0l0,0l0,0v0h0l0,0l0,0l0,0l0,0l0,0l0,0l0,0v0l0,0l0,0l0,0l0,0l0,0l0,0l0,0l0,0l0,0l0,0l0,0l-0.1,0.1l0,0l0,0l0.1,0
				l0,0l0,0.1l0,0.1l0,0.1l0,0l0,0l0,0l0,0l0,0l0.1,0l0,0l0-0.1l0-0.1l0,0l0,0l0,0l0,0l0,0v0l-0.1-0.1v0l0,0l0,0l0,0l0,0l0,0l0,0
				l0,0l0,0l0,0l0,0l0,0l0,0l0,0l0,0l0,0l0,0l0,0l0,0l0,0l0,0h0v0h0l0,0l0,0v0l0,0l0,0l0,0l0,0l0,0l0,0l0,0l0.1,0l0,0v0l0,0l0,0l0,0
				l0,0l0,0l0,0l0,0l0,0l0,0l0-0.1l0,0l0,0v0h0v0l0,0l0,0l0,0l0,0l0,0l0,0l0,0l0,0v0h0v0l0,0h0l0,0l0-0.1l0.1,0l0.1,0l0,0h0v0h0l0,0
				l0,0l0,0l0.1,0l0,0l0,0l0,0l0,0l0,0l0,0l0,0l0,0h0l0,0l0,0L4,26.2l0,0l0,0l0.1,0l0,0l0,0l0,0l0,0h0v0h0l0,0l0.1,0l0,0l0,0.1l0,0
				l0,0l-0.1,0l-0.1,0l0,0l0,0.1h0v0l0.2,0.1l0.1,0l0,0l0.1,0.1L4.8,27l0,0.1l0,0.1l0,0.1l0,0.1l0,0l0,0l0.1,0l0,0l0.1,0.1l0.1,0.2
				l0.1,0.1L5.4,28l0,0.1l0,0.1l0,0.1l0,0.1l0,0.1l0.1,0.3l0.1,0.1L5.9,29L6,29.1l0,0l0.2,0.1l0.3,0.4l0.1,0.1l0,0l0,0l0,0.1l0,0
				l0,0l0,0l0.1,0.2l0.3,0.4l0.2,0.2l0.1,0.1l0,0l0.1,0l0.1,0.2l0.1,0.2l0.1,0.2l0.1,0.1l0.2,0.2l0.2,0.2l0.3,0.5l0.3,0.7l0.2,0.2
				l0.1,0.1l0.2,0.5l0.1,0.1l0.1,0l0.1,0l0.1,0l0.1,0.1l0.1,0.1l0,0.1l0,0.1l0,0.1l0,0.1l-0.1,0.1l0,0.1l0,0.1l0,0.1l0,0l0,0l0,0
				l0,0.1l0,0l0,0l0.1,0.1l0,0l0.1,0l0.1,0.1l0,0l0,0l0,0l0,0l0,0l0.1,0l0.1,0.1l0.1,0.2l0,0l0.1,0l0,0l0,0l0.1,0.1l0,0l0,0l0,0l0,0
				l0,0l0,0l0,0l0.1,0.2l0,0.1l0.2,0.2l0.1,0.1l-0.1,0l0,0l0.1,0.1l0,0l0,0l0,0.1l0,0l0,0.1l0.1,0.1l0.1,0.1l0.1,0.1l0,0l0,0.1l0,0
				l0,0l0,0l0.1,0.1l0,0.1l0,0.1l0,0.1l0,0.1l0,0.2l0,0.1l0.1,0.2l0,0.1l-0.1,0.2l0,0.2l0,0.1l-0.1,0l-0.1,0l-0.1,0l-0.1,0l0.1,0.1
				l0,0.1l0.1,0l0,0l0,0l0,0l0,0l0,0l0,0l0,0l0,0.1l0.1,0.1l0.2,0.2l0.6,0.9l0,0l0,0l0,0l0,0.1l0,0l0,0l0,0l0.1,0.2l0,0.1l0.1,0.1
				l0,0l0.1,0l0.2,0.1l0.1,0l0-0.1l0,0l0.1,0l0.1,0l0.1,0l0.1,0l0.1,0.1l0.1,0l0.1,0l0,0l0,0l0.1,0.2l0,0l0.1,0l0.1,0l0,0l0,0l0-0.1
				l0-0.1l0,0l0,0l0,0l0,0l0,0l0,0l0,0l0,0l0,0.1l0,0l0,0l0,0l0,0l-0.1,0l0,0l0.2,0.1l0.2,0.2l0.1,0l0.1,0l0,0l0,0l0,0l0,0l0.2,0.2
				l0.1,0l0,0l0.1,0.1l0,0l0.1,0l0.1,0l0.1,0l0.1,0l0.1,0.1l0,0.1l0,0.1l0,0l0.1,0l0,0l0,0l0.1,0.1l0,0l0,0l0,0.1l0,0l0.1,0l0,0l0,0
				l0.1,0.1l0,0.1l0,0.1l0,0.1l0.1,0.2l0.1,0.4l0.1,0.2l0.1,0v0l-0.1,0l0,0l0-0.1h0l0,0l0.1,0l0,0l0,0.1l0,0l0.1,0.1l0,0.1l0,0.1
				l0,0.1l0,0.1l0,0l0,0l0,0l0,0.1l0,0.1l0,0.1l0.1,0l0,0l0,0.1l0,0.1l0,0l0,0l0,0l0,0.1l0,0.1l0.1,0.1l0.1,0l0.1,0l0,0l0,0l0,0l0,0
				l0.1-0.1l0,0.1l0,0.1l0,0l0,0l0.1,0.2l0,0.1l0,0.1l0,0.1l0,0l0.1,0.2l0.1,0.1l0.1,0l0.1,0l0.1,0l0.1,0l0,0.1l0,0l0,0l0,0l0,0l0,0
				l0.1,0.1l0,0l0,0l0,0l0,0l0,0l-0.1,0l-0.1-0.2l-0.1,0l0.1,0.1l0.1,0.3l0.2,0.3l0,0.1l0,0l0,0l0,0l0,0l0,0l0,0L17.7,47l0,0l0,0
				l0.1,0.1l0.2,0.2l0,0l-0.1,0.1l0,0l0,0.1l0.1,0.1l0.1,0.2l0.1,0.1l0,0.1l0,0.5l0,0.2l0.1,0.1l0,0l0-0.1l0,0l0,0l0,0l0,0v0l0,0
				l-0.1,0.1l0,0.1l0,0l0,0l0,0l0,0.2l-0.1,0.1l0,0.1v0.2l0,0.1l0,0l0,0l0,0.1l0.1-0.1h0l0,0.1l0,0.2l0,0.1l0,0l0,0l0,0l0,0v0.1l0,0
				l0,0.1l0,0.5l0,0l0,0l0,0l0,0l0,0l-0.1-0.1l0-0.1l0,0l-0.1,0l0,0.1l0,0.1l0,0.1l0.1,0.1l0,0l0,0l0,0l0,0l0,0l0,0l0,0.1l0,0l0,0
				l0,0l0,0l0,0l0,0v0l0,0l0,0l0,0l0,0l0-0.1l0,0l0,0.1l0,0.1l0,0l-0.1,0l0,0.1l0,0.1l0,0.1l0,0.1l0,0.1l0.1,0.1l0,0l0,0.1l0,0l0,0
				l0-0.1l0.1,0.1l0,0.1l0,0v0l0.1,0.1l0,0.1l0,0.1l0,0.1l-0.3,0.2l0.1,0.2l0.1,0l0.1,0.2l0,0.1l0,0l0,0l0,0l0,0l0,0.1l0,0.1l0,0
				l0.1,0.1l0,0l0,0l0,0l0,0l0,0l0,0l0,0.1l0,0.1l0,0.1l0.1,0.2l0,0l0,0l0,0l0,0l0,0l0,0l0,0l0,0l0,0l0,0l0,0l0,0l0,0l0,0.1l0.1,0.1
				l0.1,0.1l0.1,0l0-0.1l0,0l0,0.1l0,0l0,0l0,0l0,0l0,0l0,0l0,0l0,0l0,0l0,0l0,0l0,0l0,0l0,0l0,0l0,0.1l0,0.1l0.1,0l0.1,0l0,0l0,0
				l0,0l0,0l0,0l0.1,0l-0.1,0.1l0,0.1l0.1,0.1l0,0l0,0.1l0,0l0.1,0.1l0,0l0.1,0l0,0l0,0l0,0l0,0v0l0.1,0.1l0.2,0.3l0.1,0.1l0.2,0.1
				l0.1,0.1l0.1,0.1l0.1,0l0.1,0l0,0l0,0l0.3,0.2l0.1,0l0,0l0,0l0,0l0,0l0,0l0,0l0,0l0,0l0.1,0l0.2,0.1l0.1,0l0,0l0.1,0l0.1,0l0.1,0
				l0.1,0l0.1,0.1l0,0l0,0l0,0L22,57l0,0l0,0l0.1,0l0.1,0l0.1,0l0,0.1l0.1,0.1l0.2,0.1l0.1,0l0.1,0l0,0l0.1,0l0,0l0.1,0.1l0,0l0,0
				l0,0.1l0,0l0.1,0.1l0.1,0l0,0l0,0.1l0,0.1l0,0l0,0l0.1,0.1l0.1,0.2l0.1,0l0,0l0,0.1l0,0.1l0.1,0l0-0.1l0,0l0.1,0l0.2,0l0.1,0
				l0.2,0.2l0,0.1l0,0.2l0,0.2l-0.1,0l0,0v0l0.1,0l0.2,0.2l0.1,0l0.3,0.1l0,0l0,0l0,0l0,0l0,0l0,0l0,0l0,0l0,0l0,0.1l0,0l0,0l0,0.1
				l0,0l0,0l0,0l0.1,0.1l0.1,0l0,0l0,0.1l0,0l0.1,0l0,0l0,0l0,0.1l0,0l0,0.1l0,0l0,0l0.1,0.1l0,0.1l0.1,0l0.2,0l0.1,0l0.1,0l0,0.1
				l0,0.1l0,0.1l0,0.1l0,0l0,0l0,0l0,0.1l0,0l0,0l0,0l0.1,0.1l0,0l0,0.1l0.1,0l0,0l0.1,0l0,0l0,0.1l0,0l0,0l0,0l0,0.1l-0.1,0.2
				l0,0.1l0,0.1l0,0l0,0l0,0.1l0.1,0.2l0,0l0,0l0,0l0,0l0,0l0,0l0,0l0,0l0,0l0,0l0.1,0l0,0l0,0l0,0l0,0l0.1,0.1l0,0l0,0l0,0l0,0l0,0
				l0,0l0,0l0,0l0,0.2l0,0l0,0l0,0.1l0,0l0,0l0,0.1l0,0.1l0,0.1l0.1,0l0,0l0,0l0,0.1l0,0l0,0l0,0l0,0l0,0l0,0l0,0l0,0l0,0l0,0l0,0
				l0,0l0.1,0l0.1,0l0,0.1l0,0l0,0l0,0l0,0l0,0l0.1,0.1l0,0.1l0.1,0.1l0.2,0.1l0,0l0,0l0,0l0,0l0,0l0,0l0,0l0,0l0,0.1l0.2,0.2
				l0.1,0.1l0.1,0.1l0.1,0.1l0,0.1l0.1,0l0.1,0.1l0.1,0l0.2,0.2l0,0l0.1,0.2l0,0h0l0,0l0,0l0,0l0.2,0.2l0,0l0,0l0,0l0.1,0l0,0l0,0
				l0,0.1l0.1,0.1l0,0.1l0,0l0,0l0,0l0.4,0.3l0,0l0,0l0,0l0,0l0,0l0,0l0,0l0,0.1l0,0.1l0,0.2l0,0.1l0,0.1l0.1,0.5l0.1,0l0.2,0.1l0,0
				l0,0.1l0,0.1l0,0.1l0,0.1l0,0.1l0,0l0.1,0l0.1,0l0.1,0l0,0l0,0l0,0l0,0l0,0.1v0.2l0,0.1l-0.1,0.2l0.1,0.2l0,0l0,0l0.1,0.1l0,0
				l0.1,0.1l0,0.1l0,0l0.1,0.1l0,0l0,0l0,0.1l0,0.1l0,0l0,0l0.1,0l0,0.1l0,0.2l0,0.2l0,0.1l0,0.1l0.2,0.2l0,0.1l0,0.1l0,0l0,0.1l0,0
				l0.2-0.1l0.1-0.1l0.1-0.1l0-0.1l0-0.1l0-0.1l0,0l0,0l0.1,0l0.1,0l0.2-0.1l0.1-0.1l0-0.1l0.1-0.2l0-0.1l0-0.1l0-0.1l0,0l0.1,0
				l0.1,0l0.1,0l0-0.1l0-0.1l0-0.1l0-0.1l0.1-0.1l0,0l0,0l0,0l0,0l0,0l0,0l0,0l-0.1,0l0,0l0-0.1l-0.1-0.1l0-0.1l0-0.1l0.1-0.1l0-0.1
				l0-0.1l0-0.1l0-0.1l0-0.1l0-0.1l0.1-0.1l0-0.1l0-0.1l0-0.1l0.1-0.1l0.1,0l0.1,0l0.1,0l0-0.1l0-0.1L33,67.9l-0.2-0.1l0,0l0.2-0.2
				l0.3-0.3l0.3-0.2l0.1,0l0.1,0l0.1,0l0.1,0l0.1,0l0.3,0.1l0.2,0.1l0.2,0.3l0.1,0.1l0.1,0h0.1l0.1,0l0.1,0l0.1,0l0.1,0l0,0v0l0,0.1
				l0,0l0,0l0,0l0,0l0.1,0l0.1-0.1l0-0.1l0.1-0.1l0.1,0l0.1,0l0.1,0.1l0.1,0l0.1,0l0.1-0.1l0.1-0.1l0.1,0l0.1,0l0.2,0l0.1,0l0.3-0.1
				l0.3,0l0.2,0l0.2,0.1l0.1,0l0.2-0.1l0.1,0l0.7,0l0.5,0l0.6,0l0.2,0l0.6,0.3l0.2,0.1l0.8,0.1l0.9,0.1l0.7,0.1l0.9,0.1l0.6-0.1
				l0.8-0.1l0.1,0.1l0.2,0.3l0.3,0.4l0.3,0.4l0,0l0.5,0l0.1,0l0.1,0l0.4-0.3l0.4-0.2l0.1-0.1l0.2-0.7l0.2-0.5l0.1-0.1l0.3-0.4
				l0.5-0.7l0.6-0.7l0.3-0.4l0.3-0.3l0.1-0.1l0.5-0.2l0.6-0.3l0.7-0.4l0.6-0.3l0.5-0.3l0.2-0.1l0.3-0.1l0.5-0.1l0.6-0.1l0.6-0.1
				l0.6-0.1l0.3,0L12.3,18.4z M10.5,36.2L10.5,36.2L10.5,36.2L10.5,36.2l0-0.1l0,0l0,0L10.5,36.2L10.5,36.2L10.5,36.2l-0.1,0.1l0,0
				l0,0l0,0.1l0,0L10.5,36.2L10.5,36.2L10.5,36.2L10.5,36.2L10.5,36.2L10.5,36.2L10.5,36.2z M10.3,36.4L10.3,36.4L10.3,36.4
				L10.3,36.4l0-0.1l-0.1,0l0,0L10.3,36.4L10.3,36.4L10.3,36.4z M10.9,36.8l0-0.1l0,0l0,0l0,0l0-0.1l0,0l0,0h0l0,0l0,0.1l0,0l0,0h0
				l0,0.1l0,0l0,0L10.9,36.8l-0.1,0L10.9,36.8L10.9,36.8L10.9,36.8L10.9,36.8L10.9,36.8L10.9,36.8L10.9,36.8L10.9,36.8L10.9,36.8
				L10.9,36.8z"/>
		</g>
	</g>
	<g class="st2">
		<g>
			<path class="st3" d="M9.4,35.7L9.4,35.7l0.1-0.1L9.4,35.7L9.4,35.7l-0.1,0.1l0,0.2l0,0.1l0,0l0,0l0,0l0.1,0.1l0,0l0,0l0,0l0,0
				l0,0l0,0l0,0l0,0l0-0.1l0-0.1l0,0l0,0l0,0l-0.1-0.1l0-0.1L9.4,35.7L9.4,35.7z M9.8,36.7L9.8,36.7L9.8,36.7l-0.1,0l0,0L9.8,36.7
				L9.8,36.7l-0.1,0l0,0l0,0l0,0l0,0l0,0l0,0l0,0l-0.1-0.1l0,0l0,0l0,0l0,0h0l0,0l0,0l0,0l0.1-0.1l0,0l0,0l0,0l0,0l-0.1,0.1l0,0.1
				l0,0.1l0,0.1l0.1,0.1l0,0l0-0.1l0.1,0l0.3,0.1L9.8,36.7L9.8,36.7L9.8,36.7L9.8,36.7L9.8,36.7z M6.6,30.7L6.6,30.7L6.6,30.7
				l-0.1-0.1l0,0l0,0l0,0v0.1L6.6,30.7L6.6,30.7L6.6,30.7L6.6,30.7z M2.3,27.2L2.3,27.2L2.3,27.2L2.3,27.2L2.3,27.2L2.3,27.2l-0.2,0
				l-0.1,0l0,0l0,0l0,0l0.1,0l0,0l0,0l-0.1,0l0,0l0,0l0,0l0,0l0,0l0,0l0,0l0,0l0,0.1l0,0.1l0.1,0.1l0.1,0l0.1,0l0.1,0v0L2.3,27.2
				L2.3,27.2z M10.2,37L10.2,37L10.2,37L10.2,37l0.1,0.1l0,0l0,0l0,0l0,0l0.1,0l0,0l0,0l0,0l0,0l0,0l-0.1-0.1L10.2,37L10.2,37
				L10.2,37l0-0.1l0,0L10,36.8l-0.1,0l-0.1,0l0,0.1l0,0l0,0l0,0l0,0l0.1,0l0.1,0l0,0l0,0l0,0l0,0l0,0l0,0L10.2,37L10.2,37L10.2,37
				L10.2,37L10.2,37z M10.8,37.3L10.8,37.3L10.8,37.3l-0.1,0.1l0,0l0-0.1L10.8,37.3L10.8,37.3l-0.1-0.1l0,0l-0.1,0l-0.1-0.1l-0.1,0
				l0,0l-0.1-0.1l0,0l0,0l0,0l0,0.1l0,0l0,0l0,0l0,0v0l0,0l0,0l0.1,0.2l0.1,0.1l0.1,0.1l0.1,0.1l0.1,0l0-0.1L10.8,37.3L10.8,37.3
				L10.8,37.3L10.8,37.3L10.8,37.3z M10.4,36.9L10.4,36.9L10.4,36.9L10.4,36.9l0-0.1l-0.1,0l0,0L10.4,36.9L10.4,36.9L10.4,36.9z
				 M37.8,21.6l-0.3-0.3l-0.3-0.3l-0.3-0.3l-0.4-0.3l-0.4-0.3l-0.4-0.3l-0.4-0.3l-0.4-0.3l-0.4-0.3l-0.4-0.3l-0.4-0.3l-0.3-0.3
				l-0.3-0.3l-0.3-0.3l-0.3-0.3l-0.4-0.3l0,0l-0.3-0.3l-0.3-0.3l-0.3-0.3l-0.3-0.3l-0.3-0.3l-0.3-0.3l-0.3-0.3l-0.3-0.3l-0.2-0.2
				l-0.3-0.2L28.4,14l-0.3-0.2l-0.3-0.2l-0.3-0.2l-0.3-0.2l-0.3-0.2l-0.3-0.2l-0.3-0.2l-0.3-0.2l-0.3-0.2L25,12l-0.3-0.2l-0.3-0.2
				L24,11.4l-0.3-0.2L23.4,11l-0.2-0.1L23,10.8l-1.2-0.2h0l-0.3,0l-0.7-0.1l-0.7-0.1l-0.7-0.1L18.7,10l0,0l0,0l-0.1,0.1l-0.4,0.4
				L18,10.6l-0.4,0.1l-0.8,0.2L16,11.2l-0.8,0.2l-0.8,0.2l-0.9,0.3l-0.9,0.3l-0.9,0.3l-0.9,0.3l0.5,0.5l0.5,0.5l0.5,0.5l0.5,0.5l0,0
				l0,0l0,0l0,0l0.4,0.5l0.4,0.5l0.4,0.5l0.4,0.5l0.2,0.2l0,0l0,0l0,0l0,0L14.2,17l-0.4,0.2l-0.4,0.2l-0.1,0.1l0,0.1l-0.1,0.3
				L13,18.2l-0.1,0.3l-0.2,0.4l-0.1,0.1L12.2,19l-0.5,0.1l-0.5,0.1l-0.5,0.1l-0.3,0.1l-0.3,0.1l-0.1,0l-0.1,0.1l-0.2,0.3l-0.2,0.3
				l-0.2,0.4l-0.2,0.4l-0.3,0.2l-0.4,0.3L8,21.8l-0.4,0.3l-0.1,0l-0.1,0l-0.4-0.1l-0.4-0.1L6,22l-0.5-0.1L5,21.8l-0.6-0.1L4,21.6
				l-0.4-0.1l0,0.1l0,0.1l0,0.1l0,0l0,0l0,0l0,0l0,0l0,0.1l0,0.1l0,0.1l-0.1,0l0,0l0,0.1l0,0l0,0.1l0,0.1l-0.1,0.4l0,0.1l0,0.1v0.1
				l0,0.1l0,0.2l-0.1,0.2l-0.1,0.1v0l0.1,0l0,0.1l0,0.1v0l0,0l0,0l-0.1,0.1h0v0L3.2,24l0,0.1l0,0.1l0.1,0.7l0,0.1l0,0l0,0.1l0,0.1
				l0,0.1l-0.1,0.1l0,0.2l-0.1,0.1l-0.1,0.1l-0.1,0.1l0,0l0,0l0,0l0,0l0,0l0,0l0,0l0,0l0,0.2l0,0v0l0,0l0,0l0,0l0,0v0h0l0,0l0,0l0,0
				l0,0l0,0l0,0l0,0v0l0,0l0,0l0,0l0,0l0,0l0,0l0,0l0,0l0,0l0,0l0,0l-0.1,0.1l0,0l0,0l0.1,0l0,0l0,0.1l0,0.1l0,0.1l0,0l0,0l0,0l0,0
				l0,0l0.1,0l0,0l0-0.1l0-0.1l0,0l0,0l0,0l0,0l0,0v0l-0.1-0.1v0l0,0l0,0l0,0l0,0l0,0l0,0l0,0l0,0l0,0l0,0l0,0l0,0l0,0l0,0l0,0l0,0
				l0,0l0,0l0,0l0,0h0v0h0l0,0l0,0v0l0,0l0,0l0,0l0,0l0,0l0,0l0,0l0.1,0l0,0v0l0,0l0,0l0,0l0,0l0,0l0,0l0,0l0,0l0,0l0-0.1l0,0l0,0v0
				h0v0l0,0l0,0l0,0l0,0l0,0l0,0l0,0l0,0v0h0v0l0,0h0l0,0l0-0.1l0.1,0l0.1,0l0,0h0v0h0l0,0l0,0l0,0l0.1,0l0,0l0,0l0,0l0,0l0,0l0,0
				l0,0l0,0h0l0,0l0,0l0.2,0.1l0,0l0,0l0.1,0l0,0l0,0l0,0l0,0h0v0h0l0,0l0.1,0l0,0l0,0.1l0,0l0,0l-0.1,0l-0.1,0l0,0l0,0.1h0v0
				l0.2,0.1l0.1,0l0,0l0.1,0.1L5,27.5l0,0.1l0,0.1l0,0.1l0,0.1l0,0l0,0l0.1,0l0,0L5.3,28l0.1,0.2l0.1,0.1l0.1,0.1l0,0.1l0,0.1l0,0.1
				l0,0.1l0,0.1l0.1,0.3l0.1,0.1L6,29.5l0.1,0.1l0,0l0.2,0.1l0.3,0.4l0.1,0.1l0,0l0,0l0,0.1l0,0l0,0l0,0l0.1,0.2l0.3,0.4l0.2,0.2
				l0.1,0.1l0,0l0.1,0l0.1,0.2l0.1,0.2L7.7,32l0.1,0.1L8,32.3l0.2,0.2l0.3,0.5l0.3,0.7l0.2,0.2L9,34.1l0.2,0.5l0.1,0.1l0.1,0l0.1,0
				l0.1,0l0.1,0.1l0.1,0.1l0,0.1l0,0.1l0,0.1l0,0.1l-0.1,0.1l0,0.1l0,0.1l0,0.1l0,0l0,0l0,0l0,0.1l0,0l0,0L10,36l0,0l0.1,0l0.1,0.1
				l0,0l0,0l0,0l0,0l0,0l0.1,0l0.1,0.1l0.1,0.2l0,0l0.1,0l0,0l0,0l0.1,0.1l0,0l0,0l0,0l0,0l0,0l0,0l0,0L11,37l0,0.1l0.2,0.2l0.1,0.1
				l-0.1,0l0,0l0.1,0.1l0,0l0,0l0,0.1l0,0l0,0.1l0.1,0.1l0.1,0.1l0.1,0.1l0,0l0,0.1l0,0l0,0l0,0l0.1,0.1l0,0.1l0,0.1l0,0.1l0,0.1
				l0,0.2l0,0.1l0.1,0.2l0,0.1l-0.1,0.2l0,0.2l0,0.1l-0.1,0l-0.1,0l-0.1,0l-0.1,0l0.1,0.1l0,0.1l0.1,0l0,0l0,0l0,0l0,0l0,0l0,0l0,0
				l0,0.1l0.1,0.1l0.2,0.2l0.6,0.9l0,0l0,0l0,0l0,0.1l0,0l0,0l0,0l0.1,0.2l0,0.1l0.1,0.1l0,0l0.1,0l0.2,0.1l0.1,0l0-0.1l0,0l0.1,0
				l0.1,0l0.1,0l0.1,0l0.1,0.1l0.1,0l0.1,0l0,0l0,0l0.1,0.2l0,0l0.1,0l0.1,0l0,0l0,0l0-0.1l0-0.1l0,0l0,0l0,0l0,0l0,0l0,0l0,0l0,0
				l0,0.1l0,0l0,0l0,0l0,0l-0.1,0l0,0l0.2,0.1l0.2,0.2l0.1,0l0.1,0l0,0l0,0l0,0l0,0l0.2,0.2l0.1,0l0,0l0.1,0.1l0,0l0.1,0l0.1,0
				l0.1,0l0.1,0l0.1,0.1l0,0.1l0,0.1l0,0l0.1,0l0,0l0,0l0.1,0.1l0,0l0,0l0,0.1l0,0l0.1,0l0,0l0,0l0.1,0.1l0,0.1l0,0.1l0,0.1l0.1,0.2
				l0.1,0.4l0.1,0.2l0.1,0v0l-0.1,0l0,0l0-0.1h0l0,0l0.1,0l0,0l0,0.1l0,0l0.1,0.1l0,0.1l0,0.1l0,0.1l0,0.1l0,0l0,0l0,0l0,0.1l0,0.1
				l0,0.1l0.1,0l0,0l0,0.1l0,0.1l0,0l0,0l0,0l0,0.1l0,0.1l0.1,0.1l0.1,0l0.1,0l0,0l0,0l0,0l0,0l0.1-0.1l0,0.1l0,0.1l0,0l0,0l0.1,0.2
				l0,0.1l0,0.1l0,0.1l0,0l0.1,0.2l0.1,0.1l0.1,0l0.1,0l0.1,0l0.1,0l0,0.1l0,0l0,0l0,0l0,0l0,0l0.1,0.1l0,0l0,0l0,0l0,0l0,0l-0.1,0
				l-0.1-0.2l-0.1,0l0.1,0.1l0.1,0.3l0.2,0.3l0,0.1l0,0l0,0l0,0l0,0l0,0l0,0l-0.1-0.1l0,0l0,0l0.1,0.1l0.2,0.2l0,0l-0.1,0.1l0,0
				l0,0.1l0.1,0.1l0.1,0.2l0.1,0.1l0,0.1l0,0.5l0,0.2l0.1,0.1l0,0l0-0.1l0,0l0,0l0,0l0,0v0l0,0l-0.1,0.1l0,0.1l0,0l0,0l0,0l0,0.2
				l-0.1,0.1l0,0.1V50l0,0.1l0,0l0,0l0,0.1l0.1-0.1h0l0,0.1l0,0.2l0,0.1l0,0l0,0l0,0l0,0v0.1l0,0l0,0.1l0,0.5l0,0l0,0l0,0l0,0l0,0
				l-0.1-0.1l0-0.1l0,0l-0.1,0l0,0.1l0,0.1l0,0.1l0.1,0.1l0,0l0,0l0,0l0,0l0,0l0,0l0,0.1l0,0l0,0l0,0l0,0l0,0l0,0v0l0,0l0,0l0,0l0,0
				l0-0.1l0,0l0,0.1l0,0.1l0,0l-0.1,0l0,0.1l0,0.1l0,0.1l0,0.1l0,0.1l0.1,0.1l0,0l0,0.1l0,0l0,0l0-0.1l0.1,0.1l0,0.1l0,0v0l0.1,0.1
				l0,0.1l0,0.1l0,0.1l-0.3,0.2l0.1,0.2l0.1,0l0.1,0.2l0,0.1l0,0l0,0l0,0l0,0l0,0.1l0,0.1l0,0l0.1,0.1l0,0l0,0l0,0l0,0l0,0l0,0
				l0,0.1l0,0.1l0,0.1l0.1,0.2l0,0l0,0l0,0l0,0l0,0l0,0l0,0l0,0l0,0l0,0l0,0l0,0l0,0l0,0.1l0.1,0.1l0.1,0.1l0.1,0l0-0.1l0,0l0,0.1
				l0,0l0,0l0,0l0,0l0,0l0,0l0,0l0,0l0,0l0,0l0,0l0,0l0,0l0,0l0,0l0,0.1l0,0.1l0.1,0l0.1,0l0,0l0,0l0,0l0,0l0,0l0.1,0l-0.1,0.1
				l0,0.1l0.1,0.1l0,0l0,0.1l0,0l0.1,0.1l0,0l0.1,0l0,0l0,0l0,0l0,0v0l0.1,0.1l0.2,0.3l0.1,0.1l0.2,0.1l0.1,0.1l0.1,0.1l0.1,0l0.1,0
				l0,0l0,0l0.3,0.2l0.1,0l0,0l0,0l0,0l0,0l0,0l0,0l0,0l0,0l0.1,0l0.2,0.1l0.1,0l0,0l0.1,0l0.1,0l0.1,0l0.1,0l0.1,0.1l0,0l0,0l0,0
				l0.1,0.1l0,0l0,0l0.1,0l0.1,0l0.1,0l0,0.1l0.1,0.1l0.2,0.1l0.1,0l0.1,0l0,0l0.1,0l0,0l0.1,0.1l0,0l0,0l0,0.1l0,0l0.1,0.1l0.1,0
				l0,0l0,0.1l0,0.1l0,0l0,0l0.1,0.1l0.1,0.2l0.1,0l0,0l0,0.1l0,0.1l0.1,0l0-0.1l0,0l0.1,0l0.2,0l0.1,0l0.2,0.2l0,0.1l0,0.2l0,0.2
				l-0.1,0l0,0v0l0.1,0l0.2,0.2l0.1,0l0.3,0.1l0,0l0,0l0,0l0,0l0,0l0,0l0,0l0,0l0,0l0,0.1l0,0l0,0l0,0.1l0,0l0,0l0,0l0.1,0.1l0.1,0
				l0,0l0,0.1l0,0l0.1,0l0,0l0,0l0,0.1l0,0l0,0.1l0,0l0,0l0.1,0.1l0,0.1l0.1,0l0.2,0l0.1,0l0.1,0l0,0.1l0,0.1l0,0.1l0,0.1l0,0l0,0
				l0,0l0,0.1l0,0l0,0l0,0l0.1,0.1l0,0l0,0.1l0.1,0l0,0l0.1,0l0,0l0,0.1l0,0l0,0l0,0l0,0.1L26,63.1l0,0.1l0,0.1l0,0l0,0l0,0.1
				l0.1,0.2l0,0l0,0l0,0l0,0l0,0l0,0l0,0l0,0l0,0l0,0l0.1,0l0,0l0,0l0,0l0,0l0.1,0.1l0,0l0,0l0,0l0,0l0,0l0,0l0,0l0,0l0,0.2l0,0l0,0
				l0,0.1l0,0l0,0l0,0.1l0,0.1l0,0.1l0.1,0l0,0l0,0l0,0.1l0,0l0,0l0,0l0,0l0,0l0,0l0,0l0,0l0,0l0,0l0,0l0,0l0.1,0l0.1,0l0,0.1l0,0
				l0,0l0,0l0,0l0,0l0.1,0.1l0,0.1l0.1,0.1l0.2,0.1l0,0l0,0l0,0l0,0l0,0l0,0l0,0l0,0l0,0.1l0.2,0.2l0.1,0.1l0.1,0.1l0.1,0.1l0,0.1
				l0.1,0l0.1,0.1l0.1,0l0.2,0.2l0,0l0.1,0.2l0,0h0l0,0l0,0l0,0l0.2,0.2l0,0l0,0l0,0l0.1,0l0,0l0,0l0,0.1l0.1,0.1l0,0.1l0,0l0,0l0,0
				l0.4,0.3l0,0l0,0l0,0l0,0l0,0l0,0l0,0l0,0.1l0,0.1l0,0.2l0,0.1l0,0.1l0.1,0.5l0.1,0l0.2,0.1l0,0l0,0.1l0,0.1l0,0.1l0,0.1l0,0.1
				l0,0l0.1,0l0.1,0l0.1,0l0,0l0,0l0,0l0,0l0,0.1v0.2l0,0.1L30.7,70l0.1,0.2l0,0l0,0l0.1,0.1l0,0l0.1,0.1l0,0.1l0,0l0.1,0.1l0,0l0,0
				l0,0.1l0,0.1l0,0l0,0l0.1,0l0,0.1l0,0.2l0,0.2l0,0.1l0,0.1l0.2,0.2l0,0.1l0,0.1l0,0l0,0.1l0,0l0.2-0.1l0.1-0.1l0.1-0.1l0-0.1
				l0-0.1l0-0.1l0,0l0,0l0.1,0l0.1,0l0.2-0.1l0.1-0.1l0-0.1l0.1-0.2l0-0.1l0-0.1l0-0.1l0,0l0.1,0l0.1,0l0.1,0l0-0.1l0-0.1l0-0.1
				l0-0.1l0.1-0.1l0,0l0,0l0,0l0,0l0,0l0,0l0,0l-0.1,0l0,0l0-0.1l-0.1-0.1l0-0.1l0-0.1l0.1-0.1l0-0.1l0-0.1l0-0.1l0-0.1l0-0.1l0-0.1
				l0.1-0.1l0-0.1l0-0.1l0-0.1l0.1-0.1l0.1,0l0.1,0l0.1,0l0-0.1l0-0.1l-0.1-0.1l-0.2-0.1l0,0l0.2-0.2l0.3-0.3l0.3-0.2l0.1,0l0.1,0
				l0.1,0l0.1,0l0.1,0l0.3,0.1l0.2,0.1l0.2,0.3l0.1,0.1l0.1,0h0.1l0.1,0l0.1,0l0.1,0l0.1,0l0,0v0l0,0.1l0,0l0,0l0,0l0,0l0.1,0
				l0.1-0.1l0-0.1l0.1-0.1l0.1,0l0.1,0l0.1,0.1l0.1,0l0.1,0l0.1-0.1l0.1-0.1l0.1,0l0.1,0l0.2,0l0.1,0L37,68l0.3,0l0.2,0l0.2,0
				L37.8,21.6L37.8,21.6z M11.3,39.1L11.3,39.1L11.3,39.1L11.3,39.1L11.3,39.1L11.3,39.1L11.3,39.1L11.3,39.1l0,0.1l0,0L11.3,39.1
				L11.3,39.1L11.3,39.1z M10.7,36.7L10.7,36.7L10.7,36.7L10.7,36.7l0-0.1l0,0l0,0L10.7,36.7L10.7,36.7L10.7,36.7l-0.1,0.1l0,0l0,0
				l0,0.1l0,0L10.7,36.7L10.7,36.7L10.7,36.7L10.7,36.7L10.7,36.7L10.7,36.7L10.7,36.7z M11.1,37.3l0-0.1l0,0l0,0l0,0l0-0.1l0,0l0,0
				h0l0,0l0,0.1l0,0l0,0h0l0,0.1l0,0l0,0L11.1,37.3l-0.1,0L11.1,37.3L11.1,37.3L11.1,37.3L11.1,37.3L11.1,37.3L11.1,37.3L11.1,37.3
				L11.1,37.3L11.1,37.3L11.1,37.3z"/>
		</g>
	</g>
</g>
</svg>
