<?xml version="1.0" encoding="utf-8"?>
<!-- Generator: Adobe Illustrator 24.1.0, SVG Export Plug-In . SVG Version: 6.00 Build 0)  -->
<svg version="1.1" id="Layer_1" xmlns="http://www.w3.org/2000/svg" xmlns:xlink="http://www.w3.org/1999/xlink" x="0px" y="0px"
	 width="46.1px" height="46.1px" viewBox="0 0 46.1 46.1" style="enable-background:new 0 0 46.1 46.1;" xml:space="preserve">
<style type="text/css">
	.st0{clip-path:url(#SVGID_2_);fill:#0000FF;}
	.st1{clip-path:url(#SVGID_2_);fill:#CB2944;}
	.st2{clip-path:url(#SVGID_2_);fill:#4040FF;}
	.st3{clip-path:url(#SVGID_2_);fill:#8080FF;}
	.st4{clip-path:url(#SVGID_2_);fill:#21CCAB;}
	.st5{clip-path:url(#SVGID_2_);fill:#BFBFFF;}
</style>
<g>
	<defs>
		<rect id="SVGID_1_" y="0" width="46.1" height="46.1"/>
	</defs>
	<clipPath id="SVGID_2_">
		<use xlink:href="#SVGID_1_"  style="overflow:visible;"/>
	</clipPath>
	<path class="st0" d="M26.7,46.1c0-0.4,0-6.6,0-7.1c0-0.6-0.5-1-1-1c-1.4,0-2.5-1.1-2.5-2.5c0-1.4,1.1-2.5,2.5-2.5h0
		c0.6,0,1-0.5,1-1v-4.4c0-0.5,0.4-0.9,0.9-0.9c0,0,0,0,5.2,0c0.6,0,1,0.5,1,1v0c0,1.4,1.1,2.5,2.5,2.5c1.4,0,2.5-1.1,2.5-2.5
		c0-0.6,0.4-1,1-1c0,0-0.2,0,6.2,0C46.6,37.6,37.6,46.6,26.7,46.1"/>
	<path class="st1" d="M19.4,20.3C19.4,20.3,19.4,20.3,19.4,20.3C19.4,20.3,19.4,20.3,19.4,20.3"/>
	<path class="st2" d="M25.5,19.3c0.6,0,1,0.5,1,1v0c0,1.4,1.1,2.5,2.5,2.5s2.5-1.1,2.5-2.5c0-0.6,0.5-1,1-1c0.5,0,4.2,0,6.3,0v-0.2
		C38.8,8.6,30.2,0,19.6,0h-0.3c0,3.4,0,17.3,0,19.3H25.5z"/>
	<path class="st3" d="M19.4,19.4v-6.2c0-0.6,0.4-1,1-1h0c1.4,0,2.5-1.1,2.5-2.5c0-1.4-1.1-2.5-2.5-2.5c-0.6,0-1-0.5-1-1
		c0-0.8,0-5.4,0-6.2h-0.2C8.6,0,0,8.6,0,19.2v0.2C12.2,19.4,19.4,19.4,19.4,19.4"/>
	<path class="st4" d="M19.4,6.2V3.8C19.4,4.9,19.4,5.9,19.4,6.2"/>
	<path class="st5" d="M18.3,25.6L18.3,25.6c0.6,0,1-0.4,1.1-1c0-2.8,0-4.5,0-5.2h-6.2c-0.6,0-1-0.5-1-1v0c0-1.4-1.1-2.5-2.5-2.5
		s-2.5,1.1-2.5,2.5c0,0.6-0.5,1-1,1c-0.8,0-5.6,0-6.2,0v0.3c0,10.6,8.6,19.2,19.2,19.2h0.2l0-1.7c0-1.6,0-4.4,0-5.5
		c0-0.6-0.5-1-1.1-1c-1.4,0-2.5-1.1-2.5-2.5C15.8,26.7,16.9,25.6,18.3,25.6"/>
</g>
</svg>
