<svg width="41" height="40" viewBox="0 0 41 40" fill="none" xmlns="http://www.w3.org/2000/svg">
<rect width="40" height="40" transform="translate(0.5)" fill="#F7FAFD"/>
<path d="M27.5 24.4058V23.9058H27H22.2384L22.9862 23.3187C24.5926 22.1185 25.6706 21.1361 26.3443 20.1773C27.035 19.1942 27.2899 18.2516 27.2899 17.171C27.2899 13.8112 24.4941 11.5 20.7451 11.5C17.8144 11.5 15.1582 12.8473 13.5883 15.1249L13.3321 15.4967L13.6758 15.7894L16.4532 18.1546L16.8216 18.4683L17.1472 18.1104C18.1845 16.9701 19.4137 16.3493 20.465 16.3493C20.916 16.3493 21.2389 16.4818 21.4422 16.6631C21.641 16.8403 21.7621 17.0953 21.7621 17.4261C21.7621 17.9519 21.5421 18.4015 20.7442 19.0235L13.7454 24.3082L13.5467 24.4583V24.7072V28V28.5H14.0467H27H27.5V28V24.4058Z" fill="#7B87FF" stroke="#000062"/>
</svg>
