<svg width="77" height="77" viewBox="0 0 77 77" fill="none" xmlns="http://www.w3.org/2000/svg">
<g clip-path="url(#clip0_820_20922)">
<path d="M56.8252 46.8084L54.4774 42.7419L21.9644 61.5133L24.3122 65.5798C25.2469 67.1988 26.7812 68.3827 28.5838 68.8657C30.3864 69.3488 32.3071 69.0906 33.9261 68.1559L62.3727 51.7322L60.0249 47.6657C59.482 47.9791 58.8468 48.0665 58.2459 47.9055C57.6451 47.7445 57.1386 47.3512 56.8252 46.8084Z" fill="#F7FAFD"/>
<path d="M14.8503 30.4085L43.2969 13.9849L60.8917 44.4599L64.9487 42.1176L46.1827 9.6141C45.8693 9.07127 45.3629 8.67797 44.762 8.51696C44.1612 8.35596 43.5259 8.44335 42.9831 8.75676L10.47 27.5282C9.92719 27.8416 9.53388 28.348 9.37288 28.9489C9.21188 29.5498 9.29927 30.185 9.61268 30.7278L23.6885 55.1079L27.755 52.7601L14.8503 30.4085Z" fill="#F7FAFD"/>
<path d="M66.1257 44.1551L62.0592 46.5029L64.407 50.5694L68.4735 48.2216L66.1257 44.1551Z" fill="#F7FAFD"/>
</g>
<defs>
<clipPath id="clip0_820_20922">
<rect width="56.3033" height="56.3033" fill="white" transform="translate(0 28.1523) rotate(-30)"/>
</clipPath>
</defs>
</svg>
