<svg width="65" height="61" viewBox="0 0 65 61" fill="none" xmlns="http://www.w3.org/2000/svg">
<path d="M38.0477 2.22438C37.5092 1.15706 35.8902 0.606002 34.7119 1.08902L31.9473 2.22236C31.0748 2.58003 30.7364 3.40015 31.1351 4.19051L35.6688 13.177C36.0676 13.9673 35.7291 14.7874 34.8566 15.1451L19.4135 21.4759C18.2403 21.9569 16.6283 21.4127 16.0835 20.3516L12.2074 12.804C11.6626 11.743 10.0506 11.1988 8.87736 11.6797L6.09729 12.8194C5.2248 13.1771 4.88636 13.9972 5.2851 14.7876L9.8188 23.774C10.2175 24.5644 9.8791 25.3845 9.0066 25.7422L1.46462 28.834C0.57702 29.1978 0.24413 30.0389 0.671286 30.8384L1.53487 32.4548C2.094 33.5013 3.68991 34.0302 4.85174 33.5539L10.8935 31.0771C12.0707 30.5945 13.6882 31.1441 14.228 32.21L19.4166 42.4542C19.8172 43.2452 19.4791 44.0667 18.6056 44.4248L11.0379 47.5271C10.1629 47.8858 9.82536 48.7094 10.2288 49.5014L11.0244 51.0631C11.5664 52.1269 13.1816 52.6742 14.3571 52.1924L20.3682 49.7281C21.5417 49.247 23.1542 49.7917 23.6986 50.8531L27.955 59.1511C28.4994 60.2125 30.1119 60.7572 31.2855 60.2761L34.055 59.1407C34.9318 58.7813 35.2687 57.9552 34.8619 57.1622L29.8913 47.4719C29.4846 46.6789 29.8215 45.8528 30.6983 45.4934L46.2182 39.1311C47.3917 38.65 49.0042 39.1947 49.5486 40.2561L53.805 48.554C54.3495 49.6155 55.9619 50.1601 57.1355 49.679L59.905 48.5437C60.7818 48.1842 61.1187 47.3582 60.712 46.5652L55.7414 36.8748C55.3346 36.0818 55.6715 35.2557 56.5483 34.8963L63.9341 31.8686C64.8091 31.5098 65.1467 30.6862 64.7432 29.8943L63.9476 28.3326C63.4056 27.2688 61.7905 26.7214 60.615 27.2033L54.7895 29.5914C53.6124 30.074 51.9949 29.5244 51.4551 28.4585L46.2665 18.2143C45.8659 17.4233 46.2039 16.6018 47.0774 16.2437L54.4425 13.2244C55.3301 12.8606 55.663 12.0195 55.2359 11.22L54.3723 9.60357C53.8132 8.55704 52.2173 8.02824 51.0554 8.50452L45.1917 10.9083C44.0134 11.3913 42.3944 10.8403 41.856 9.77296L38.0477 2.22438ZM36.6694 20.5104C37.8423 20.0296 39.4537 20.5733 39.9991 21.6338L45.2531 31.8512C45.6611 32.6446 45.3244 33.4716 44.447 33.8313L29.0137 40.1581C27.8408 40.6389 26.2294 40.0952 25.684 39.0347L20.43 28.8173C20.022 28.0239 20.3587 27.1969 21.2361 26.8372L36.6694 20.5104Z" fill="#F7FAFD"/>
</svg>
