<svg width="82" height="81" viewBox="0 0 82 81" fill="none" xmlns="http://www.w3.org/2000/svg">
<g clip-path="url(#clip0_820_20907)">
<path d="M60.0863 18.4901L30.992 16.816L11.7201 38.6625L15.65 48.0729L64.0276 27.8958L60.0977 18.4854L60.0863 18.4901ZM57.2238 25.2153L18.5172 41.3588L17.7662 39.5606L33.1896 22.0784L56.4728 23.417L57.2238 25.2153Z" fill="#F7FAFD"/>
<path d="M60.1722 32.2754L55.3311 34.2946L62.2095 50.7656L66.3931 49.0207L67.0507 48.7464L60.1722 32.2754Z" fill="#F7FAFD"/>
<path d="M65.6212 52.1152L24.4996 69.266L26.4669 73.9767L67.5884 56.826L65.6212 52.1152Z" fill="#F7FAFD"/>
<path d="M48.0743 37.3221L43.2332 39.3412L50.1116 55.8122L54.9528 53.7931L48.0743 37.3221Z" fill="#F7FAFD"/>
<path d="M26.3066 46.401L21.4655 48.4202L28.3439 64.8912L33.1851 62.872L26.3066 46.401Z" fill="#F7FAFD"/>
<path d="M38.4045 41.3543L33.5634 43.3734L40.4418 59.8444L45.283 57.8253L38.4045 41.3543Z" fill="#F7FAFD"/>
<path d="M72.8779 49.0891L68.0367 51.1083L70.004 55.819L74.8452 53.7999L72.8779 49.0891Z" fill="#F7FAFD"/>
<path d="M37.3473 25.2143L32.5061 27.2334L34.4734 31.9441L39.3145 29.925L37.3473 25.2143Z" fill="#F7FAFD"/>
</g>
<defs>
<clipPath id="clip0_820_20907">
<rect width="62.8951" height="61.2123" fill="white" transform="matrix(0.922943 -0.384936 0.385359 0.922767 0 24.2109)"/>
</clipPath>
</defs>
</svg>
