<svg width="85" height="86" viewBox="0 0 85 86" fill="none" xmlns="http://www.w3.org/2000/svg">
<g clip-path="url(#clip0_820_20931)">
<path d="M47.3792 30.9339L29.4961 41.2587L32.0788 45.7321L49.9619 35.4073L47.3792 30.9339Z" fill="#F7FAFD"/>
<path d="M16.3372 33.9521L47.6299 15.8852L66.9851 49.4094L71.4481 46.8328L50.8045 11.0771C50.4597 10.4799 49.9026 10.0473 49.2417 9.87017C48.5807 9.69306 47.8819 9.7892 47.2847 10.134L11.5186 30.7836C10.9214 31.1283 10.4888 31.6854 10.3116 32.3464C10.1345 33.0074 10.2307 33.7062 10.5754 34.3034L33.8017 74.5324C34.1465 75.1296 34.7036 75.5622 35.3646 75.7393C36.0256 75.9165 36.7243 75.8203 37.3215 75.4755L68.6143 57.4087L66.0316 52.9353L36.9807 69.7078L16.3372 33.9521Z" fill="#F7FAFD"/>
<path d="M52.5376 39.8701L34.6545 50.1949L37.2373 54.6683L55.1203 44.3435L52.5376 39.8701Z" fill="#F7FAFD"/>
<path d="M72.7421 49.0743L68.2687 51.657L70.8514 56.1304L75.3248 53.5477L72.7421 49.0743Z" fill="#F7FAFD"/>
</g>
<defs>
<clipPath id="clip0_820_20931">
<rect y="31.4688" width="61.9367" height="61.9367" rx="2" transform="rotate(-30 0 31.4688)" fill="white"/>
</clipPath>
</defs>
</svg>
