<svg width="40" height="41" viewBox="0 0 40 41" fill="none" xmlns="http://www.w3.org/2000/svg">
<rect width="40" height="40" transform="translate(0 0.5)" fill="#F7FAFD"/>
<path d="M13.6322 25.4656L13.2581 25.8718L13.6993 26.2038C15.7681 27.761 17.8645 28.5 20.15 28.5C23.7881 28.5 26.5 26.3132 26.5 23.1522C26.5 21.8869 26.0965 20.7841 25.2754 19.9009C24.7027 19.2694 24.0203 18.8298 23.2305 18.5826L25.8954 16.3156L26.0714 16.1659V15.9348V13V12.5H25.5714H15.0071H14.5071V13V16.3478V16.8478H15.0071H19.2806L16.6551 19.0752L16.4082 19.2847L16.4983 19.5957L17.1412 21.8131L17.2705 22.2591L17.7248 22.1631C18.7504 21.9463 19.4563 21.8478 19.8714 21.8478C20.4982 21.8478 20.8924 21.9662 21.1174 22.1255C21.3135 22.2643 21.4286 22.4664 21.4286 22.8043C21.4286 23.1695 21.2893 23.4417 21.0488 23.6337C20.7966 23.835 20.3923 23.9783 19.8286 23.9783C18.8473 23.9783 17.6311 23.5086 16.7674 22.7718L16.4012 22.4594L16.0751 22.8134L13.6322 25.4656Z" fill="#7B87FF" stroke="#000062"/>
</svg>
