<?xml version="1.0" encoding="utf-8"?>
<!-- Generator: Adobe Illustrator 24.1.0, SVG Export Plug-In . SVG Version: 6.00 Build 0)  -->
<svg version="1.1" id="Layer_1" xmlns="http://www.w3.org/2000/svg" xmlns:xlink="http://www.w3.org/1999/xlink" x="0px" y="0px"
	 width="32px" height="32px" viewBox="0 0 32 32" style="enable-background:new 0 0 32 32;" xml:space="preserve">
<path style="fill:#7B87FF;" d="M13.3,28c0,1.5,1.2,2.7,2.7,2.7s2.7-1.2,2.7-2.7H13.3L13.3,28z"/>
<rect x="14.7" y="10.7" style="fill:#7B87FF;" width="2.7" height="5.3"/>
<rect x="14.7" y="18.7" style="fill:#7B87FF;" width="2.7" height="2.7"/>
<linearGradient id="SVGID_1_" gradientUnits="userSpaceOnUse" x1="6.35" y1="794.95" x2="25.65" y2="775.65" gradientTransform="matrix(1 0 0 1 0 -766)">
	<stop  offset="0" style="stop-color:#000062"/>
	<stop  offset="1" style="stop-color:#363BA7"/>
</linearGradient>
<path style="fill:url(#SVGID_1_);" d="M25.3,22.7v-8c0-4.4-3.2-8.3-7.3-9.1V2h-4v3.6c-4.1,0.8-7.3,4.7-7.3,9.1v8L4,25.3v1.3h24v-1.3
	L25.3,22.7z M22.7,24H9.3v-9.3c0-3.8,3-6.7,6.7-6.7l0,0l0,0l0,0c3.7,0,6.7,2.9,6.7,6.7V24z"/>
</svg>
