<?xml version="1.0" encoding="utf-8"?>
<!-- Generator: Adobe Illustrator 24.1.0, SVG Export Plug-In . SVG Version: 6.00 Build 0)  -->
<svg version="1.1" id="Layer_1" xmlns="http://www.w3.org/2000/svg" xmlns:xlink="http://www.w3.org/1999/xlink" x="0px" y="0px"
	 width="32px" height="32px" viewBox="0 0 32 32" style="enable-background:new 0 0 32 32;" xml:space="preserve">
<linearGradient id="SVGID_1_" gradientUnits="userSpaceOnUse" x1="5.9352" y1="5.3978" x2="26.1359" y2="25.5984" gradientTransform="matrix(1 0 0 -1 0 34)">
	<stop  offset="0" style="stop-color:#000062"/>
	<stop  offset="1" style="stop-color:#363BA7"/>
</linearGradient>
<path style="fill:url(#SVGID_1_);" d="M16,2.7c-5.9,0-10.7,4.8-10.7,10.7c0,2.7,1.1,5.2,2.7,7.1v10.3l8-2.7l8,2.7V20.4
	c1.6-1.9,2.7-4.4,2.7-7.1C26.7,7.5,21.9,2.7,16,2.7z M21.3,26.7L16,25.3l-5.3,1.3v-4.1c1.6,1,3.3,1.5,5.3,1.5s3.7-0.5,5.3-1.5V26.7z
	 M16,21.3c-4.4,0-8-3.6-8-8s3.6-8,8-8s8,3.6,8,8S20.4,21.3,16,21.3z"/>
<polygon style="fill:#7B87FF;" points="21.3,10.9 19.5,9.1 14.8,13.7 12.8,12 10.9,13.9 14.7,17.6 "/>
</svg>
