<?xml version="1.0" encoding="utf-8"?>
<!-- Generator: Adobe Illustrator 24.1.0, SVG Export Plug-In . SVG Version: 6.00 Build 0)  -->
<svg version="1.1" id="Layer_1" xmlns="http://www.w3.org/2000/svg" xmlns:xlink="http://www.w3.org/1999/xlink" x="0px" y="0px"
	 width="32px" height="32px" viewBox="0 0 32 32" style="enable-background:new 0 0 32 32;" xml:space="preserve">
<linearGradient id="SVGID_1_" gradientUnits="userSpaceOnUse" x1="-960.8081" y1="7.2" x2="-939.1462" y2="28.8618" gradientTransform="matrix(-1 0 0 -1 -934.0081 34)">
	<stop  offset="0" style="stop-color:#000062"/>
	<stop  offset="1" style="stop-color:#363BA7"/>
</linearGradient>
<path style="fill:url(#SVGID_1_);" d="M11.3,9.9V2.1h20.2v10l0,0c0,5.5,0,10,0,10s-1.5-1-3.3-2.2l-3.3-2.2h-4.2v3.1h-3.1V13h-14
	v11.1L3.8,24c0.1,0,0.7-0.4,1.3-0.9l1.2-0.7H16v3.1H7.1l-3.3,2.2c-1.8,1.2-3.3,2.2-3.3,2.2s0-4.5,0-10v-10
	C0.5,9.9,11.3,9.9,11.3,9.9z M14.5,7.5v2.3h6.2v4.7h5.1l1.2,0.7c0.6,0.4,1.2,0.8,1.3,0.9l0.2,0.2V5.2h-14
	C14.5,5.2,14.5,7.5,14.5,7.5z"/>
<polygon style="fill:#7B87FF;" points="20.7,23.9 20.7,25.4 17.6,25.4 17.6,22.3 20.7,22.3 "/>
</svg>
