<?xml version="1.0" encoding="utf-8"?>
<!-- Generator: Adobe Illustrator 24.1.0, SVG Export Plug-In . SVG Version: 6.00 Build 0)  -->
<svg version="1.1" id="Layer_1" xmlns="http://www.w3.org/2000/svg" xmlns:xlink="http://www.w3.org/1999/xlink" x="0px" y="0px"
	 width="32px" height="32px" viewBox="0 0 32 32" style="enable-background:new 0 0 32 32;" xml:space="preserve">
<linearGradient id="SVGID_1_" gradientUnits="userSpaceOnUse" x1="25.3596" y1="780.6905" x2="30.694" y2="775.356" gradientTransform="matrix(1 0 0 1 0 -766)">
	<stop  offset="0" style="stop-color:#000062"/>
	<stop  offset="1" style="stop-color:#363BA7"/>
</linearGradient>
<path style="fill:url(#SVGID_1_);" d="M26.7,8h2.7v8h-2.7V8z"/>
<path style="fill:#7B87FF;" d="M29.1,22.6l1.3-0.8l-1.3-2.3l-1.3,0.8c-0.7-0.7-1.5-1.2-2.5-1.4v-1.5h-2.7v1.5
	c-0.9,0.2-1.8,0.7-2.5,1.4l-1.3-0.8l-1.3,2.3l1.3,0.8c-0.3,0.9-0.3,1.9,0,2.9l-1.3,0.8l1.3,2.3l1.3-0.8c0.7,0.7,1.5,1.2,2.5,1.4v1.5
	h2.7v-1.5c1-0.2,1.8-0.8,2.5-1.4l1.3,0.8l1.3-2.3l-1.3-0.8C29.4,24.5,29.4,23.5,29.1,22.6z M25.9,25.9c-0.5,0.5-1.2,0.8-1.9,0.8
	s-1.4-0.3-1.9-0.8s-0.8-1.2-0.8-1.9s0.3-1.4,0.8-1.9s1.2-0.8,1.9-0.8s1.4,0.3,1.9,0.8s0.8,1.2,0.8,1.9S26.4,25.4,25.9,25.9z"/>
<path style="fill:#7B87FF;" d="M29.3,4h-2.7v2.7h2.7V4z"/>
<linearGradient id="SVGID_2_" gradientUnits="userSpaceOnUse" x1="16.05" y1="782" x2="16.05" y2="775.331" gradientTransform="matrix(1 0 0 1 0 -766)">
	<stop  offset="0" style="stop-color:#000062"/>
	<stop  offset="1" style="stop-color:#363BA7"/>
</linearGradient>
<path style="fill:url(#SVGID_2_);" d="M14.7,9.3h2.7V16h-2.7V9.3z"/>
<linearGradient id="SVGID_3_" gradientUnits="userSpaceOnUse" x1="16.05" y1="786" x2="16.05" y2="783.331" gradientTransform="matrix(1 0 0 1 0 -766)">
	<stop  offset="0" style="stop-color:#000062"/>
	<stop  offset="1" style="stop-color:#363BA7"/>
</linearGradient>
<path style="fill:url(#SVGID_3_);" d="M14.7,17.3h2.7V20h-2.7V17.3z"/>
<linearGradient id="SVGID_4_" gradientUnits="userSpaceOnUse" x1="0.7" y1="10.7" x2="22.65" y2="32.65" gradientTransform="matrix(1 0 0 -1 0 34)">
	<stop  offset="0" style="stop-color:#000062"/>
	<stop  offset="1" style="stop-color:#363BA7"/>
</linearGradient>
<polygon style="fill:url(#SVGID_4_);" points="5.4,6.7 25.3,6.7 25.3,4 5.4,4 4,4 2.7,4 2.7,5.3 2.7,6.7 2.7,25.3 8.6,25.3 16,25.3 
	16,22.6 7.7,22.6 5.3,22.7 5.3,6.7 "/>
</svg>
