<?xml version="1.0" encoding="utf-8"?>
<!-- Generator: Adobe Illustrator 24.1.0, SVG Export Plug-In . SVG Version: 6.00 Build 0)  -->
<svg version="1.1" id="Layer_1" xmlns="http://www.w3.org/2000/svg" xmlns:xlink="http://www.w3.org/1999/xlink" x="0px" y="0px"
	 width="32px" height="32px" viewBox="0 0 32 32" style="enable-background:new 0 0 32 32;" xml:space="preserve">
<linearGradient id="SVGID_1_" gradientUnits="userSpaceOnUse" x1="5.6825" y1="6.9825" x2="25.0165" y2="26.3165" gradientTransform="matrix(1 0 0 -1 0 34)">
	<stop  offset="0" style="stop-color:#000062"/>
	<stop  offset="1" style="stop-color:#363BA7"/>
</linearGradient>
<path style="fill:url(#SVGID_1_);" d="M26.7,10.7L26.7,10.7h-4V5.3h-16V8H20v12h-9.1c-0.8-0.8-1.7-1.3-2.9-1.3S5.7,19.2,5.1,20H4
	v-9.3H1.3v12H4c0,2.3,1.7,4,4,4s4-1.7,4-4h8c0,2.3,1.7,4,4,4s4-1.7,4-4h2.7V16L26.7,10.7z M8,24c-0.8,0-1.3-0.7-1.3-1.3
	s0.5-1.3,1.3-1.3s1.3,0.7,1.3,1.3S8.8,24,8,24z M24,24c-0.7,0-1.3-0.7-1.3-1.3s0.7-1.3,1.3-1.3s1.3,0.7,1.3,1.3S24.7,24,24,24z
	 M22.7,16v-3.3H26l2.7,3.3H22.7z"/>
<path style="fill:#7B87FF;" d="M4,5.3H1.3V8H4V5.3z"/>
</svg>
