<svg xmlns="http://www.w3.org/2000/svg" xmlns:xlink="http://www.w3.org/1999/xlink" width="36" height="36" viewBox="0 0 36 36"><defs><clipPath id="a"><rect width="36" height="36" transform="translate(2186 36)" fill="#fff"/></clipPath></defs><g transform="translate(-2186 -36)" clip-path="url(#a)"><g transform="translate(2126 -4.7)"><rect width="12.801" height="3.202" transform="translate(72.002 50.694)" fill="#7b87ff"/><path d="M67.667,71.025A1.6,1.6,0,0,1,68.8,68.3h24V42.7H67.2A3.2,3.2,0,0,0,64,45.895v24a4.788,4.788,0,0,0,4.8,4.8H88v-3.2H68.8A1.563,1.563,0,0,1,67.667,71.025ZM67.2,45.895H89.6v19.2H68a4.1,4.1,0,0,0-.8.082V45.895Z" fill="#14157b"/><rect width="3.202" height="3.202" transform="translate(89.595 71.498)" fill="#7b87ff"/></g></g></svg>