<?xml version="1.0" encoding="utf-8"?>
<!-- Generator: Adobe Illustrator 24.1.0, SVG Export Plug-In . SVG Version: 6.00 Build 0)  -->
<svg version="1.1" id="Layer_1" xmlns="http://www.w3.org/2000/svg" xmlns:xlink="http://www.w3.org/1999/xlink" x="0px" y="0px"
	 width="32px" height="32px" viewBox="0 0 32 32" style="enable-background:new 0 0 32 32;" xml:space="preserve">
<linearGradient id="SVGID_1_" gradientUnits="userSpaceOnUse" x1="2.6626" y1="19.6625" x2="14.281" y2="31.281" gradientTransform="matrix(1 0 0 -1 0 34)">
	<stop  offset="0" style="stop-color:#000062"/>
	<stop  offset="1" style="stop-color:#363BA7"/>
</linearGradient>
<path style="fill:url(#SVGID_1_);" d="M2.7,2.7v5.8l0,0v5.8h11.6V2.7H2.7z M11,8.6L11,8.6v2.5H6v-5h5V8.6z"/>
<linearGradient id="SVGID_2_" gradientUnits="userSpaceOnUse" x1="17.6441" y1="19.644" x2="29.2626" y2="31.2626" gradientTransform="matrix(1 0 0 -1 0 34)">
	<stop  offset="0" style="stop-color:#000062"/>
	<stop  offset="1" style="stop-color:#363BA7"/>
</linearGradient>
<path style="fill:url(#SVGID_2_);" d="M17.7,2.7v5.8l0,0v5.8h11.6V2.7H17.7z M26,8.6L26,8.6v2.5h-5v-5h5V8.6z"/>
<linearGradient id="SVGID_3_" gradientUnits="userSpaceOnUse" x1="16.45" y1="5.95" x2="28.069" y2="17.5689" gradientTransform="matrix(1 0 0 -1 0 34)">
	<stop  offset="0" style="stop-color:#000062"/>
	<stop  offset="1" style="stop-color:#363BA7"/>
</linearGradient>
<polygon style="fill:url(#SVGID_3_);" points="17.7,23.4 17.7,29.3 24.3,29.3 24.3,25.9 21,25.9 21,21 26,21 26,24.3 29.3,24.3 
	29.3,17.7 17.7,17.7 "/>
<linearGradient id="SVGID_4_" gradientUnits="userSpaceOnUse" x1="2.7185" y1="4.7185" x2="14.3185" y2="16.3185" gradientTransform="matrix(1 0 0 -1 0 34)">
	<stop  offset="0" style="stop-color:#000062"/>
	<stop  offset="1" style="stop-color:#363BA7"/>
</linearGradient>
<path style="fill:url(#SVGID_4_);" d="M2.7,17.7v5.8v5.8h11.6V17.7H2.7z M11,23.4L11,23.4v2.5H6v-5h5V23.4z"/>
<polygon style="fill:#7B87FF;" points="25.9,27.6 25.9,29.3 29.3,29.3 29.3,25.9 25.9,25.9 "/>
</svg>
