<?xml version="1.0" encoding="utf-8"?>
<!-- Generator: Adobe Illustrator 24.1.0, SVG Export Plug-In . SVG Version: 6.00 Build 0)  -->
<svg version="1.1" id="Layer_1" xmlns="http://www.w3.org/2000/svg" xmlns:xlink="http://www.w3.org/1999/xlink" x="0px" y="0px"
	 width="32px" height="32px" viewBox="0 0 32 32" style="enable-background:new 0 0 32 32;" xml:space="preserve">
<linearGradient id="SVGID_1_" gradientUnits="userSpaceOnUse" x1="4" y1="6" x2="26" y2="28" gradientTransform="matrix(1 0 0 -1 0 34)">
	<stop  offset="0" style="stop-color:#000062"/>
	<stop  offset="1" style="stop-color:#363BA7"/>
</linearGradient>
<polygon style="fill:url(#SVGID_1_);" points="25.3,8 25.3,25.3 6.7,25.3 6.7,6.7 24,6.7 24,4 6.7,4 4,4 4,6.7 4,25.3 4,25.4 4,28 
	6.7,28 25.3,28 25.4,28 28,28 28,25.3 28,8 "/>
<path style="fill:#7B87FF;" d="M12.7,16c0.4,0.4,0.9,0.8,1.5,1s1.2,0.4,1.8,0.4c1.2,0,2.4-0.5,3.3-1.4s1.4-2.1,1.4-3.3
	s-0.5-2.4-1.4-3.3S17.2,8,16,8c-0.6,0-1.2,0.1-1.8,0.4s-1.1,0.6-1.5,1s-0.8,0.9-1,1.5s-0.4,1.2-0.4,1.8s0.1,1.2,0.4,1.8
	C11.9,15,12.3,15.5,12.7,16L12.7,16z M14.6,11.3c0.4-0.4,0.9-0.6,1.4-0.6s1,0.2,1.4,0.6s0.6,0.9,0.6,1.4s-0.2,1-0.6,1.4
	s-0.9,0.6-1.4,0.6s-1-0.2-1.4-0.6S14,13.2,14,12.7C14,12.1,14.2,11.6,14.6,11.3z"/>
<path style="fill:#7B87FF;" d="M8.3,22.9c0.7,0.5,1.5,1,2.3,1.3l0,0c1.2-1.8,3.2-2.9,5.5-2.9c1.1,0,2.1,0.3,3,0.7
	c0.9,0.5,1.8,1.2,2.4,2c0.8-0.4,1.6-0.8,2.3-1.4c-1.7-2.5-4.5-4.1-7.7-4.1c-1.6,0-3.1,0.4-4.5,1.1C10.3,20.5,9.1,21.6,8.3,22.9
	L8.3,22.9z"/>
<path style="fill:#7B87FF;" d="M25.3,4H28v2.7h-2.7V4z"/>
</svg>
