<svg xmlns="http://www.w3.org/2000/svg" width="36" height="36" viewBox="0 0 36 36"><path d="M113.286,408.643a.643.643,0,1,1-.643-.643A.645.645,0,0,1,113.286,408.643Z" transform="translate(-103 -375.214)" fill="#14157b"/><path d="M19.286,18H7.714V7.714H19.286V1.929A1.924,1.924,0,0,0,17.357,0H16.071V.643a1.924,1.924,0,0,1-1.929,1.929h-9A1.924,1.924,0,0,1,3.214.643V0H1.929A1.924,1.924,0,0,0,0,1.929V34.071A1.924,1.924,0,0,0,1.929,36H17.357a1.924,1.924,0,0,0,1.929-1.929ZM9.643,35.357a1.929,1.929,0,1,1,1.929-1.929A1.924,1.924,0,0,1,9.643,35.357ZM18,30.857H1.286V29.571H18Z" fill="#14157b"/><path d="M56.643,1.286h9a.645.645,0,0,0,.643-.643V0H56V.643A.645.645,0,0,0,56.643,1.286Z" transform="translate(-51.5)" fill="#14157b"/><path d="M139,112H112v7.714h27Zm-20.6,4.588-.643,1.117-1.262-.731v1.454h-1.286v-1.454l-1.262.731-.643-1.117,1.262-.731-1.262-.731.643-1.117,1.262.731v-1.454H116.5v1.454l1.262-.731.643,1.117-1.262.731Zm6.429,0-.643,1.117-1.262-.731v1.454h-1.286v-1.454l-1.262.731-.643-1.117,1.262-.731-1.262-.731.643-1.117,1.262.731v-1.454h1.286v1.454l1.262-.731.643,1.117-1.262.731Zm6.429,0-.643,1.117-1.262-.731v1.454h-1.286v-1.454l-1.262.731-.643-1.117,1.262-.731-1.262-.731.643-1.117,1.262.731v-1.454h1.286v1.454l1.262-.731.643,1.117-1.262.731Zm6.429,0-.643,1.117-1.262-.731v1.454H134.5v-1.454l-1.262.731-.643-1.117,1.262-.731-1.262-.731.643-1.117,1.262.731v-1.454h1.286v1.454l1.262-.731.643,1.117-1.262.731Z" transform="translate(-103 -103)" fill="#7b87ff"/></svg>