<?xml version="1.0" encoding="utf-8"?>
<!-- Generator: Adobe Illustrator 26.0.1, SVG Export Plug-In . SVG Version: 6.00 Build 0)  -->
<svg version="1.1" id="Layer_1" xmlns="http://www.w3.org/2000/svg" xmlns:xlink="http://www.w3.org/1999/xlink" x="0px" y="0px"
	 viewBox="0 0 448 448" style="enable-background:new 0 0 448 448;" xml:space="preserve">
<style type="text/css">
	.st0{fill:#5E1AD5;}
</style>
<path class="st0" d="M128,416c0,4.4-3.6,8-8,8s-8-3.6-8-8s3.6-8,8-8S128,411.6,128,416z"/>
<path class="st0" d="M240,224H96V96h144V24c0-13.3-10.7-24-24-24h-16v8c0,13.3-10.7,24-24,24H64C50.7,32,40,21.3,40,8V0H24
	C10.7,0,0,10.7,0,24v400c0,13.3,10.7,24,24,24h192c13.3,0,24-10.7,24-24V224z M120,440c-13.3,0-24-10.7-24-24s10.7-24,24-24
	s24,10.7,24,24S133.3,440,120,440z M224,384H16v-16h208V384z"/>
<path class="st0" d="M64,16h112c4.4,0,8-3.6,8-8V0H56v8C56,12.4,59.6,16,64,16z"/>
<path class="st0" d="M448,112H112v96h336V112z M191.7,169.1l-8,13.9l-15.7-9.1V192h-16v-18.1l-15.7,9.1l-8-13.9L144,160l-15.7-9.1
	l8-13.9l15.7,9.1V128h16v18.1l15.7-9.1l8,13.9L176,160L191.7,169.1z M271.7,169.1l-8,13.9l-15.7-9.1V192h-16v-18.1l-15.7,9.1
	l-8-13.9L224,160l-15.7-9.1l8-13.9l15.7,9.1V128h16v18.1l15.7-9.1l8,13.9L256,160L271.7,169.1z M351.7,169.1l-8,13.9l-15.7-9.1V192
	h-16v-18.1l-15.7,9.1l-8-13.9L304,160l-15.7-9.1l8-13.9l15.7,9.1V128h16v18.1l15.7-9.1l8,13.9L336,160L351.7,169.1z M431.7,169.1
	l-8,13.9l-15.7-9.1V192h-16v-18.1l-15.7,9.1l-8-13.9L384,160l-15.7-9.1l8-13.9l15.7,9.1V128h16v18.1l15.7-9.1l8,13.9L416,160
	L431.7,169.1z"/>
</svg>
