<?xml version="1.0" encoding="utf-8"?>
<!-- Generator: Adobe Illustrator 26.0.1, SVG Export Plug-In . SVG Version: 6.00 Build 0)  -->
<svg version="1.1" id="Layer_1" xmlns="http://www.w3.org/2000/svg" xmlns:xlink="http://www.w3.org/1999/xlink" x="0px" y="0px"
	 viewBox="0 0 512 512" style="enable-background:new 0 0 512 512;" xml:space="preserve">
<style type="text/css">
	.st0{fill:#5E1AD5;}
</style>
<g>
	<g>
		<path class="st0" d="M391.5,210.8v-60.2c0-75.3-60.2-135.5-135.5-135.5S120.5,75.3,120.5,150.6v60.2c-25.6,0-45.2,19.6-45.2,45.2
			v195.8c0,24.1,19.6,45.2,45.2,45.2h271.1c25.6,0,45.2-21.1,45.2-45.2V256C436.7,230.4,417.1,210.8,391.5,210.8z M150.6,150.6
			c0-58.7,46.7-105.4,105.4-105.4s105.4,46.7,105.4,105.4v60.2H150.6V150.6z M271.1,373.5v33.1c0,9-6,15.1-15.1,15.1
			c-9,0-15.1-6-15.1-15.1v-33.1c-18.1-6-30.1-22.6-30.1-42.2c0-25.6,19.6-45.2,45.2-45.2s45.2,19.6,45.2,45.2
			C301.2,350.9,289.1,367.4,271.1,373.5z"/>
	</g>
</g>
</svg>
