<?xml version="1.0" encoding="utf-8"?>
<!-- Generator: Adobe Illustrator 24.1.0, SVG Export Plug-In . SVG Version: 6.00 Build 0)  -->
<svg version="1.1" id="Layer_1" xmlns="http://www.w3.org/2000/svg" xmlns:xlink="http://www.w3.org/1999/xlink" x="0px" y="0px"
	 width="451.2px" height="512px" viewBox="0 0 451.2 512" enable-background="new 0 0 451.2 512" xml:space="preserve">
<g>
	<path fill="#5E1AD5" d="M298.3,0H44.9v512H316v-60.2H105.1V372h240.9v49.6h60.2V108L298.3,0z M137.2,300h-8.9v36h-17.8v-90h26.7
		c14.9,0.2,26.9,12.4,26.7,27.3C163.8,288,151.9,299.9,137.2,300z M252.7,298.2c0,21-14.1,37.8-42.4,37.8h-28.7l0-89.6h29
		c28.1,0,42.1,17.1,42.1,37.9V298.2z M323.8,264h-35.5v18h28.4v18h-28.4v36h-17.8v-90h53.3V264z M105.1,210V60.2h150.6v90.4h90.4
		V210H105.1z"/>
	<rect x="346.1" y="451.8" fill="#5E1AD5" width="60.2" height="60.2"/>
	<path fill="#5E1AD5" d="M210.6,264.4h-11.2V318h10.9c11.2,0,24.6-3.4,24.6-19.8v-13.9C235,267.9,221.7,264.4,210.6,264.4z"/>
	<path fill="#5E1AD5" d="M137.2,264h-8.9v18h8.9c5-0.1,8.9-4.2,8.8-9.2C146,268,142,264.1,137.2,264z"/>
</g>
</svg>
