<?xml version="1.0" encoding="utf-8"?>
<!-- Generator: Adobe Illustrator 25.4.1, SVG Export Plug-In . SVG Version: 6.00 Build 0)  -->
<svg version="1.1" id="Layer_1" xmlns="http://www.w3.org/2000/svg" xmlns:xlink="http://www.w3.org/1999/xlink" x="0px" y="0px"
	 viewBox="0 0 60 60" enable-background="new 0 0 60 60" xml:space="preserve">
<g>
	<rect x="20.5" y="36.3" fill="#5E1AD5" width="12.6" height="4.2"/>
	<path fill="#5E1AD5" d="M49.3,9.6C48.9,9.2,48.4,9,47.8,9H22.6c-0.6,0-1.1,0.2-1.5,0.6s-0.6,0.9-0.6,1.5v6.3h-6.3
		c-1.2,0-2.1,0.9-2.1,2.1l0,29.4c0,0.3,0.1,0.6,0.2,0.8c0.1,0.3,0.3,0.5,0.5,0.7c0.2,0.2,0.4,0.3,0.7,0.5c0.3,0.1,0.5,0.2,0.8,0.2
		h21v-4.2H16.3V21.6h21v23.1h4.2v-2.1h6.3c0.6,0,1.1-0.2,1.5-0.6c0.4-0.4,0.6-0.9,0.6-1.5V11.1C49.9,10.5,49.7,10,49.3,9.6z
		 M45.7,38.4h-4.2v-21H24.7v-4.2h21V38.4z"/>
	<rect x="20.5" y="27.9" fill="#5E1AD5" width="12.6" height="4.2"/>
	<rect x="37.3" y="46.8" fill="#5E1AD5" width="4.2" height="4.2"/>
</g>
</svg>
