<?xml version="1.0" encoding="utf-8"?>
<!-- Generator: Adobe Illustrator 24.1.0, SVG Export Plug-In . SVG Version: 6.00 Build 0)  -->
<svg version="1.1" id="Layer_1" xmlns="http://www.w3.org/2000/svg" xmlns:xlink="http://www.w3.org/1999/xlink" x="0px" y="0px"
	 width="38px" height="38px" viewBox="0 0 38 38" enable-background="new 0 0 38 38" xml:space="preserve">
<g>
	<path fill="#5E1AD5" d="M10.4,19.9c-2.3,0-4.4,0.9-6,2.5s-2.5,3.8-2.5,6v1.7h3.4v-1.7c0-1.4,0.5-2.7,1.5-3.6c1-1,2.3-1.5,3.6-1.5
		s2.7,0.5,3.6,1.5c1,1,1.5,2.3,1.5,3.6v6.8H19v-6.8c0-2.3-0.9-4.4-2.5-6C14.9,20.8,12.7,19.9,10.4,19.9z"/>
	<path fill="#5E1AD5" d="M28.4,25c1.8,0,3.6-0.7,4.8-2c1.3-1.3,2-3,2-4.8c0-1.8-0.7-3.6-2-4.8c-1.3-1.3-3-2-4.8-2
		c-1.8,0-3.6,0.7-4.8,2c-1.3,1.3-2,3-2,4.8c0,1.8,0.7,3.6,2,4.8C24.9,24.3,26.6,25,28.4,25z M26,15.7c0.6-0.6,1.5-1,2.4-1
		s1.8,0.4,2.4,1c0.6,0.6,1,1.5,1,2.4c0,0.9-0.4,1.8-1,2.4c-0.6,0.6-1.5,1-2.4,1s-1.8-0.4-2.4-1c-0.6-0.6-1-1.5-1-2.4
		C25,17.2,25.3,16.4,26,15.7z"/>
	<path fill="#5E1AD5" d="M35.5,31.5c-0.4-0.9-1-1.8-1.7-2.5c-0.7-0.7-1.6-1.3-2.5-1.7c-0.9-0.4-1.9-0.6-2.9-0.6s-2,0.2-2.9,0.6
		c-0.9,0.4-1.8,1-2.5,1.7c-0.7,0.7-1.3,1.6-1.7,2.5c-0.4,0.9-0.6,1.9-0.6,2.9v0.9h3.4v-0.9c0-1.1,0.4-2.2,1.3-3
		c0.8-0.8,1.9-1.3,3-1.3s2.2,0.4,3,1.3c0.8,0.8,1.3,1.9,1.3,3v0.9h3.4v-0.9C36.1,33.4,35.9,32.4,35.5,31.5z"/>
	<path fill="#5E1AD5" d="M5,15.9c0.7,0.7,1.6,1.3,2.5,1.7c0.9,0.4,1.9,0.6,2.9,0.6c2,0,4-0.8,5.4-2.3s2.3-3.4,2.3-5.4
		s-0.8-4-2.3-5.4s-3.4-2.3-5.4-2.3c-1,0-2,0.2-2.9,0.6S5.7,4.3,5,5S3.7,6.6,3.3,7.5s-0.6,1.9-0.6,2.9s0.2,2,0.6,2.9
		C3.7,14.3,4.3,15.2,5,15.9z M7.4,7.4c0.8-0.8,1.9-1.3,3-1.3s2.2,0.4,3,1.3c0.8,0.8,1.3,1.9,1.3,3s-0.4,2.2-1.3,3
		c-0.8,0.8-1.9,1.3-3,1.3s-2.2-0.4-3-1.3s-1.3-1.9-1.3-3S6.6,8.2,7.4,7.4z"/>
	<polygon fill="#5E1AD5" points="1.9,33.5 1.9,35.3 1.9,35.3 5.3,35.3 5.3,31.8 1.9,31.8 	"/>
</g>
</svg>
