<?xml version="1.0" encoding="utf-8"?>
<!-- Generator: Adobe Illustrator 25.4.1, SVG Export Plug-In . SVG Version: 6.00 Build 0)  -->
<svg version="1.1" id="Layer_1" xmlns="http://www.w3.org/2000/svg" xmlns:xlink="http://www.w3.org/1999/xlink" x="0px" y="0px"
	 viewBox="0 0 512 512" enable-background="new 0 0 512 512" xml:space="preserve">
<path fill-rule="evenodd" clip-rule="evenodd" d="M43.2,202.9c0,75.4,0,136.5,0.5,136.5c0,0,20.7-13.3,45.7-30.3l45.7-30.3h57.4
	v42.5H235V215.1h190.2v151.4l-2.7-1.6c-1.1-0.5-9-5.8-18.1-12.2l-15.9-10.1H255.7v42.5h121.1l45.7,30.3c25,16.5,45.7,30.3,45.7,30.3
	s0.5-61.1,0.5-136.5V172.6H319.5V66.3H43.2V202.9 M277,140.2v31.3h-85v63.8h-70.1l-15.9,10.1c-8.5,5.3-17,11.2-18.1,12.2l-2.1,2.1
	V108.3H277V140.2 M192,363.3v21.3h42.5v-42.5H192V363.3"/>
</svg>
