<?xml version="1.0" encoding="utf-8"?>
<!-- Generator: Adobe Illustrator 25.4.1, SVG Export Plug-In . SVG Version: 6.00 Build 0)  -->
<svg version="1.1" id="Layer_1" xmlns="http://www.w3.org/2000/svg" xmlns:xlink="http://www.w3.org/1999/xlink" x="0px" y="0px"
	 viewBox="0 0 512 512" enable-background="new 0 0 512 512" xml:space="preserve">
<path fill-rule="evenodd" clip-rule="evenodd" d="M185.6,44.8c-38.4,5.9-71.5,34.1-84.3,72C96,132.3,96,136,96,256.5
	s0,124.2,5.3,139.7c8.5,26.1,28.3,48.5,52.3,60.8c22.4,11.2,30.4,12.3,85.9,12.3h43.2v-80.5h-80v26.7h-3.7
	c-11.2,0-24.5-6.4-33.6-15.5c-7.5-7.5-11.7-14.4-14.4-24.5c-2.1-9.1-2.1-230.4,0-238.9c2.1-10.1,6.4-17.1,14.4-24.5
	c10.1-10.1,23.5-15.5,33.6-15.5h3.7v26.7h80V42.7h-44.3C208,42.7,192,43.8,185.6,44.8 M202.7,256v26.7H256v-53.3h-53.3V256
	 M282.7,256v26.7H336v-53.3h-53.3V256 M362.6,256v26.7H416v-53.3h-53.3V256"/>
</svg>
