<?xml version="1.0" encoding="utf-8"?>
<!-- Generator: Adobe Illustrator 25.4.1, SVG Export Plug-In . SVG Version: 6.00 Build 0)  -->
<svg version="1.1" id="Layer_1" xmlns="http://www.w3.org/2000/svg" xmlns:xlink="http://www.w3.org/1999/xlink" x="0px" y="0px"
	 viewBox="0 0 512 512" enable-background="new 0 0 512 512" xml:space="preserve">
<path fill-rule="evenodd" clip-rule="evenodd" d="M382.3,72.7c-43.5,7.4-77.5,43.5-81.7,89.1l-1.1,9.6H76.7v268.5h357.1V172h-88.6
	v-3.2c0-4.8,3.2-17,6.4-22.3c2.1-3.2,5.8-8,8-11.7c11.7-13.3,23.9-18,40.9-18c8,0,11.1,0,17.5,2.7c9.6,3.2,15.9,7.4,23.9,15.4
	c8.5,8.5,14.9,23.9,14.9,35v3.2h44.6l-0.5-6.4c-2.7-30.2-15.9-56.2-39.3-72.7c-13.8-10.1-28.1-17-43-19.1
	C408.8,71.7,391.8,71.7,382.3,72.7 M389.7,305.7v89.1H121.2V216.5h268.5V305.7 M188.1,305.7v22.3h44.6v-44.6h-44.6V305.7
	 M277.2,305.7v22.3h44.6v-44.6h-44.6V305.7"/>
</svg>
