<?xml version="1.0" encoding="utf-8"?>
<!-- Generator: Adobe Illustrator 25.4.1, SVG Export Plug-In . SVG Version: 6.00 Build 0)  -->
<svg version="1.1" id="Layer_1" xmlns="http://www.w3.org/2000/svg" xmlns:xlink="http://www.w3.org/1999/xlink" x="0px" y="0px"
	 viewBox="0 0 512 512" enable-background="new 0 0 512 512" xml:space="preserve">
<path fill-rule="evenodd" clip-rule="evenodd" d="M467.8,271.1c0,1.6-0.5,7.4-1.6,13.3c-1.6,13.3-6.9,35.6-12.7,48.8
	c-24.9,64.2-78.5,111.4-144.9,128.4c-19.1,4.8-31.3,6.4-52.5,6.4c-21.2,0-33.4-1.1-52.5-6.4C121.3,440.9,59.7,373,46.5,289.2
	c-10.6-64.7,10.6-131.6,56.3-179.4c81.2-84.9,215.5-88.1,299.8-6.9c34,31.8,56.3,74.3,63.7,120.5
	C467.8,233.4,468.9,264.8,467.8,271.1 M412.6,224.4c-4.8-21.8-13.8-44-26.5-61.6c-8-11.1-24.9-27.6-36.1-36.1
	c-38.2-27.6-86.5-37.1-132.1-25.5c-19.1,4.8-39.3,13.8-55.7,25.5c-11.1,8-27.6,24.4-35.6,35.6c-19.1,27.1-30.8,61-30.8,93.9
	c0,25.5,6.4,50.4,18.6,74.3c7.4,14.9,16.5,26,28.1,38.2c22.8,22.8,49.4,37.1,81.7,44c9,1.6,14.3,2.1,30.8,2.1s21.2-0.5,30.8-2.1
	c32.4-6.9,60-21.8,83.3-45.1c24.4-24.9,39.3-56.3,44.6-91.8C415.8,263.7,414.7,236.6,412.6,224.4 M336.2,282.3h-26.5v-53.1h53.1
	v53.1H336.2 M282.1,362.4L263.5,381l-62.6-62.6l-62.1-62.6l62.1-62.1c34-34,62.6-62.1,63.1-62.1c1.1,0,36.6,35.6,36.6,36.6
	c0,0.5-19.6,20.2-43.5,44.6l-42.5,43l43.5,43.5c23.9,23.9,43.5,43.5,43.5,44C300.6,343.3,292.7,351.8,282.1,362.4"/>
</svg>
