<?xml version="1.0" encoding="utf-8"?>
<!-- Generator: Adobe Illustrator 25.4.1, SVG Export Plug-In . SVG Version: 6.00 Build 0)  -->
<svg version="1.1" id="Layer_1" xmlns="http://www.w3.org/2000/svg" xmlns:xlink="http://www.w3.org/1999/xlink" x="0px" y="0px"
	 viewBox="0 0 512 512" enable-background="new 0 0 512 512" xml:space="preserve">
<path fill-rule="evenodd" clip-rule="evenodd" d="M229.5,52.3c-4.2,50.9-46.2,92.9-97.1,97.1l-8.5,0.5v53.1l9-0.5
	c34-2.1,62.1-13.3,88.1-32.9l8.5-6.9v226h53.1V163.1l8.5,6.9c26,19.6,54.1,30.8,88.1,32.9l9,0.5v-53.1l-8.5-0.5
	c-17-1.1-36.6-8-50.4-17.5c-10.1-6.4-23.3-20.2-29.7-30.2C289.4,87.8,282,63.4,282,48.5v-4.8h-52L229.5,52.3 M230,441.7v26.5h53.1
	v-53.1H230V441.7"/>
</svg>
