<?xml version="1.0" encoding="utf-8"?>
<!-- Generator: Adobe Illustrator 25.4.1, SVG Export Plug-In . SVG Version: 6.00 Build 0)  -->
<svg version="1.1" id="Layer_1" xmlns="http://www.w3.org/2000/svg" xmlns:xlink="http://www.w3.org/1999/xlink" x="0px" y="0px"
	 viewBox="0 0 512 512" enable-background="new 0 0 512 512" xml:space="preserve">
<path fill-rule="evenodd" clip-rule="evenodd" d="M240.9,467.8c-1.6,0-7.4-0.5-13.3-1.6c-13.3-1.6-35.6-6.9-48.8-12.7
	c-64.2-24.9-111.4-78.5-128.4-144.9c-4.8-19.1-6.4-31.3-6.4-52.5c0-21.2,1.1-33.4,6.4-52.5C71.1,121.3,139,59.7,222.8,46.5
	c64.7-10.6,131.6,10.6,179.4,56.3c84.9,81.2,88.1,215.5,6.9,299.8c-31.8,34-74.3,56.3-120.5,63.7
	C278.6,467.8,247.2,468.9,240.9,467.8 M287.6,412.6c21.8-4.8,44-13.8,61.6-26.5c11.1-8,27.6-24.9,36.1-36.1
	c27.6-38.2,37.1-86.5,25.5-132.1c-4.8-19.1-13.8-39.3-25.5-55.7c-8-11.1-24.4-27.6-35.6-35.6c-27.1-19.1-61-30.8-93.9-30.8
	c-25.5,0-50.4,6.4-74.3,18.6c-14.9,7.4-26,16.5-38.2,28.1c-22.8,22.8-37.1,49.4-44,81.7c-1.6,9-2.1,14.3-2.1,30.8s0.5,21.2,2.1,30.8
	c6.9,32.4,21.8,60,45.1,83.3c24.9,24.4,56.3,39.3,91.8,44.6C248.3,415.8,275.4,414.7,287.6,412.6 M229.7,336.2v-26.5h53.1v53.1
	h-53.1V336.2 M149.6,282.1L131,263.5l62.6-62.6l62.6-62.1l62.1,62.1c34,34,62.1,62.6,62.1,63.1c0,1.1-35.6,36.6-36.6,36.6
	c-0.5,0-20.2-19.6-44.6-43.5l-43-42.5l-43.5,43.5c-23.9,23.9-43.5,43.5-44,43.5C168.7,300.6,160.2,292.7,149.6,282.1"/>
</svg>
