<?xml version="1.0" encoding="utf-8"?>
<!-- Generator: Adobe Illustrator 25.4.1, SVG Export Plug-In . SVG Version: 6.00 Build 0)  -->
<svg version="1.1" id="Layer_1" xmlns="http://www.w3.org/2000/svg" xmlns:xlink="http://www.w3.org/1999/xlink" x="0px" y="0px"
	 viewBox="0 0 512 512" enable-background="new 0 0 512 512" xml:space="preserve">
<path fill-rule="evenodd" clip-rule="evenodd" d="M43.8,256v212.2h424.5V43.8H43.8V256 M421,256v165H91V91h330V256 M238.5,115.9
	c-31.3,5.8-56.8,27.1-69.5,56.2c-3.7,9-5.8,18-7.4,29.2l-0.5,6.9h46.7l1.1-6.9c1.6-12.7,11.7-26.5,22.3-33.4c13.3-8.5,35-8,48.3,0.5
	c26,17,30.2,52,8.5,73.2c-10.1,10.1-20.7,13.8-44,13.8h-11.7v71.1h47.2v-27.1l5.3-1.6c7.4-1.6,21.2-9.6,28.7-14.3
	c16.4-12.7,29.2-32.4,34.5-52c2.7-8.5,3.2-22.3,1.6-32.4c-4.2-41.9-35-74.8-76.4-82.2C264,114.3,247.5,114.3,238.5,115.9
	 M232.1,373.8v23.9h47.2v-47.2h-47.2V373.8"/>
</svg>
