<?xml version="1.0" encoding="utf-8"?>
<!-- Generator: Adobe Illustrator 25.4.1, SVG Export Plug-In . SVG Version: 6.00 Build 0)  -->
<svg version="1.1" id="Layer_1" xmlns="http://www.w3.org/2000/svg" xmlns:xlink="http://www.w3.org/1999/xlink" x="0px" y="0px"
	 viewBox="0 0 512 512" enable-background="new 0 0 512 512" xml:space="preserve">
<path fill-rule="evenodd" clip-rule="evenodd" d="M130.4,58.6c3.5,53.1,20.5,98.3,50.9,138c11.3,14.9,33.3,38.2,48.1,48.8
	c6.4,5.7,12,9.9,12,9.9s-5.7,5.7-12,9.9c-14.9,11.3-36.8,33.3-48.1,48.8c-29.7,41-46.7,84.2-50.9,139.4l-0.7,14.9h84.9v-7.1
	c0-23.3,12.7-62.3,27.6-86.3c9.9-15.6,32.5-38.2,48.1-48.1c23.3-16.3,62.3-28.3,86.3-28.3h7.1v-84.2l-13.4-0.7
	c-62.3-5-118.9-45.3-142.9-104c-7.1-17-14.1-45.3-14.1-58.7v-7.1h-84.9L130.4,58.6"/>
</svg>
