<?xml version="1.0" encoding="utf-8"?>
<!-- Generator: Adobe Illustrator 25.4.1, SVG Export Plug-In . SVG Version: 6.00 Build 0)  -->
<svg version="1.1" id="Layer_1" xmlns="http://www.w3.org/2000/svg" xmlns:xlink="http://www.w3.org/1999/xlink" x="0px" y="0px"
	 viewBox="0 0 512 512" enable-background="new 0 0 512 512" xml:space="preserve">
<path fill-rule="evenodd" clip-rule="evenodd" d="M280.6,89.6v24l9.1,0.5c26.1,1.6,52.8,11.2,73.6,26.7c9.6,6.9,25.1,21.9,32.5,32
	c17.6,24.5,27.2,54.4,27.2,83.7c0,22.9-5.3,45.3-17.1,66.1c-6.9,13.3-14.4,22.9-25.6,34.1c-18.7,18.7-40.5,31.5-66.7,37.9
	c-9.6,2.1-22.4,4.3-29.3,4.3h-4.8v47.5h3.7c7.5,0,25.1-2.1,35.2-4.3c34.7-6.9,66.7-24,92.3-48.5c75.7-73.6,78.4-193.1,5.9-268.8
	C383,89.6,339.2,69.9,289.1,66.1l-10.7-0.5L280.6,89.6 M181.4,103.5l-50.7,33.6h-88v237.9h88l50.7,33.6
	c27.7,18.7,51.2,33.6,51.2,33.6s0.5-84.3,0.5-186.1S232,69.9,232,69.9C231.5,69.9,208.6,84.8,181.4,103.5 M280.6,161.1v24h4.3
	c7.5,0,18.7,2.7,27.2,6.9c14.4,6.9,26.1,18.7,33.1,33.1c9.1,19.7,9.1,42.1,0,61.9c-11.2,22.4-33.1,37.9-57.1,40l-6.9,0.5v47.5
	l7.5-0.5c24.5-2.1,44.3-9.1,63.5-22.9c17.6-12.8,33.6-34.1,41.1-54.9c9.1-26.7,9.1-57.6-0.5-82.7c-13.9-35.7-44.8-63.5-81.1-72.5
	c-6.9-1.6-21.3-4.3-26.7-4.3h-2.7L280.6,161.1 M185.1,305.1v48.5l-19.7-13.3l-19.7-13.3h-27.2H91.2V184.5h26.1h27.2l19.7-13.3
	l19.7-13.3v48.5C185.1,234.1,185.1,277.9,185.1,305.1 M280.6,256v24H328v-47.5h-47.5V256"/>
</svg>
