<?xml version="1.0" encoding="utf-8"?>
<!-- Generator: Adobe Illustrator 25.4.1, SVG Export Plug-In . SVG Version: 6.00 Build 0)  -->
<svg version="1.1" id="Layer_1" xmlns="http://www.w3.org/2000/svg" xmlns:xlink="http://www.w3.org/1999/xlink" x="0px" y="0px"
	 viewBox="0 0 512 512" enable-background="new 0 0 512 512" xml:space="preserve">
<path fill-rule="evenodd" clip-rule="evenodd" d="M236.8,44.3c-36.8,6.9-69.3,34.1-81.1,70.4c-8.5,25.6-6.9,57.1,5.3,80.5
	c7.5,14.9,20.3,30.9,34.1,40c8.5,6.4,24,13.3,34.7,16c8.5,2.1,10.7,2.1,26.7,2.7c16.5,0,18.1,0,26.7-2.7
	c37.3-10.1,66.1-38.4,76.3-76.3c2.1-8.5,2.1-10.7,2.1-26.7s0-18.1-2.1-26.7c-10.7-40-43.7-70.4-84.3-77.3
	C264.5,42.7,246.9,42.7,236.8,44.3 M397.8,66.7v24h46.9v-48h-46.9V66.7 M269.9,91.2c19.7,3.7,37.9,22.4,43.7,42.7
	c1.1,3.7,1.6,9.6,1.6,15.5c0,17.1-5.3,29.3-17.1,41.6c-11.7,11.7-25.1,17.1-41.6,17.1c-16.5,0-29.3-5.3-41.6-17.1
	c-12.3-11.7-17.1-24.5-17.1-41.6c0-10.7,1.1-16.5,6.4-26.7c2.7-6.4,5.3-9.6,10.7-15.5C229.3,92.3,248,86.4,269.9,91.2 M242.1,280
	c-1.6,0-6.9,1.1-11.7,1.6c-25.6,2.1-55.5,13.9-78.9,29.3c-50.1,33.6-80,86.4-84.3,148.2l-0.5,10.1h46.9l0.5-9.1
	c2.1-34.7,17.6-67.7,42.1-92.3c19.7-19.7,43.7-33.1,72-38.4c14.4-2.7,40.5-2.7,54.9,0c19.7,4.8,39.5,12.3,54.9,24
	c10.1,7.5,25.1,22.4,32.5,32c6.4,8.5,14.4,24,18.1,33.6c5.3,13.3,9.1,33.6,9.1,44.8v4.8h47.5l-0.5-10.1
	c-2.7-46.4-20.3-87.5-52.3-120.5c-28.8-30.9-67.2-50.1-107.7-57.1C275.7,280,248,278.9,242.1,280"/>
</svg>
