<?xml version="1.0" encoding="utf-8"?>
<!-- Generator: Adobe Illustrator 25.4.1, SVG Export Plug-In . SVG Version: 6.00 Build 0)  -->
<svg version="1.1" id="Layer_1" xmlns="http://www.w3.org/2000/svg" xmlns:xlink="http://www.w3.org/1999/xlink" x="0px" y="0px"
	 viewBox="0 0 512 512" enable-background="new 0 0 512 512" xml:space="preserve">
<path fill-rule="evenodd" clip-rule="evenodd" d="M93.3,381.2c33-39,33-98.4,0-137.3l-5.7-6.4l37.5-37.5l6,6.7
	c22.6,25.5,34.5,53.3,39,85.6l1.1,10.9l159.8-159.8l37.5,37.5L209.2,340.4l10.9,1.1c32.2,4.5,60,16.5,85.6,39l6.7,6l-37.5,37.5
	l-6.4-5.7c-12.8-11.2-31.5-20.2-48-23.3c-11.7-2.6-30.8-2.2-42.4,0.4c-17.3,2.9-39.8,14.9-50.3,25.5l-3.4,3.4l-36.8-36.8L93.3,381.2
	 M369,106.3l18.7-18.7l37.5,37.5l-37.5,37.5l-37.5-37.5L369,106.3"/>
</svg>
