<?xml version="1.0" encoding="utf-8"?>
<!-- Generator: Adobe Illustrator 25.4.1, SVG Export Plug-In . SVG Version: 6.00 Build 0)  -->
<svg version="1.1" id="Layer_1" xmlns="http://www.w3.org/2000/svg" xmlns:xlink="http://www.w3.org/1999/xlink" x="0px" y="0px"
	 viewBox="0 0 512 512" enable-background="new 0 0 512 512" xml:space="preserve">
<path fill-rule="evenodd" clip-rule="evenodd" d="M229.5,70.3v26.5h53.1V43.8h-53.1V70.3 M229.5,236.4v113L221,343
	c-26-19.6-53.1-30.2-89.1-32.9l-8.5-1.1v53.1h4.8c14.3,0,38.7,8,53.6,17.5c10.1,6.4,23.3,19.6,30.2,29.7c9,14.3,16.4,33.4,17.5,50.4
	l0.5,8.5h52.5v-4.8c0-13.3,6.9-36.1,15.4-50.4c7.4-13.3,22.8-27.6,36.1-36.1c13.3-8,37.1-14.9,49.9-14.9h4.8v-53.1l-8.5,0.5
	c-34,2.7-61.5,12.7-88.1,32.4l-9.6,6.9V123.4h-53.1V236.4"/>
</svg>
