<?xml version="1.0" encoding="utf-8"?>
<!-- Generator: Adobe Illustrator 25.4.1, SVG Export Plug-In . SVG Version: 6.00 Build 0)  -->
<svg version="1.1" id="Layer_1" xmlns="http://www.w3.org/2000/svg" xmlns:xlink="http://www.w3.org/1999/xlink" x="0px" y="0px"
	 viewBox="0 0 512 512" enable-background="new 0 0 512 512" xml:space="preserve">
<path fill-rule="evenodd" clip-rule="evenodd" d="M418.8,99.2l-16.5,16.5l16.5,16.5l16.5,16.5l16.5-16.5l16.5-16.5l-15.9-16.5
	c-9-9-16.5-16.5-17-16.5C435.3,82.8,427.8,90.2,418.8,99.2 M270,248L154.1,363.4l-38.8-38.8c-21.3-21.3-39.3-38.8-39.9-38.8
	c-1.1,0-32.4,31.4-32.4,32.4c0,0.5,25,25.5,55.3,56.3l55.3,55.3l132.3-132.3l132.3-132.3l-16.5-16.5c-9-9-16.5-16.5-17-16.5
	C384.8,132.7,332.7,184.8,270,248"/>
</svg>
