<?xml version="1.0" encoding="utf-8"?>
<!-- Generator: Adobe Illustrator 25.4.1, SVG Export Plug-In . SVG Version: 6.00 Build 0)  -->
<svg version="1.1" id="Layer_1" xmlns="http://www.w3.org/2000/svg" xmlns:xlink="http://www.w3.org/1999/xlink" x="0px" y="0px"
	 viewBox="0 0 512 512" enable-background="new 0 0 512 512" xml:space="preserve">
<path fill-rule="evenodd" clip-rule="evenodd" d="M229.3,69.4V96h53.3V42.7h-53.3V69.4 M182.4,56c-27.2,10.1-53.3,26.7-74.7,47.5
	C71,138.7,48,185.6,44.3,236.8c-0.5,8-1.1,54.4-1.1,122.6v109.8h106.6V335.5H96.6l0.5-51.2c0.5-47.5,0.5-51.7,2.7-60.8
	c6.4-27.7,17.1-50.1,35.2-72c17.1-20.3,36.8-34.1,61.3-44.3c6.4-2.1,11.7-4.8,11.7-4.8c0.5-0.5-14.4-48.5-15.5-49.6
	C191.5,52.8,187.7,53.9,182.4,56 M314.7,59.8c-1.1,4.3-4.8,15.5-7.5,25.1c-2.7,9.1-4.8,17.6-4.8,18.1c0,0.5,3.7,1.6,6.4,2.1
	c8.5,2.7,26.1,11.7,35.2,17.6c28.8,19.2,52.3,50.1,63.5,82.7c6.9,21.3,7.5,24.5,7.5,79.5l0.5,51.2h-53.3v132.8h106.6V358.9
	c0-67.2-0.5-114.1-1.1-122.1C461.3,162.1,415.4,96,348.3,63.5c-10.1-4.8-27.7-11.7-30.4-11.7C317.3,51.8,315.7,55,314.7,59.8"/>
</svg>
