<?xml version="1.0" encoding="utf-8"?>
<!-- Generator: Adobe Illustrator 25.4.1, SVG Export Plug-In . SVG Version: 6.00 Build 0)  -->
<svg version="1.1" id="Layer_1" xmlns="http://www.w3.org/2000/svg" xmlns:xlink="http://www.w3.org/1999/xlink" x="0px" y="0px"
	 viewBox="0 0 512 512" enable-background="new 0 0 512 512" xml:space="preserve">
<path fill-rule="evenodd" clip-rule="evenodd" d="M240.9,44.2c-1.6,0-7.4,0.5-13.3,1.6c-13.3,1.6-35.6,6.9-48.8,12.7
	C114.6,83.5,67.4,137.1,50.4,203.4c-4.8,19.1-6.4,31.3-6.4,52.5s1.1,33.4,6.4,52.5c20.7,82.3,88.6,143.8,172.5,157.1
	c64.7,10.6,131.6-10.6,179.4-56.3c84.9-81.2,88.1-215.5,6.9-299.8c-31.8-34-74.3-56.3-120.5-63.7C278.6,44.2,247.2,43.1,240.9,44.2
	 M287.6,99.4c21.8,4.8,44,13.8,61.6,26.5c11.1,8,27.6,24.9,36.1,36.1c27.6,38.2,37.1,86.5,25.5,132.1c-4.8,19.1-13.8,39.3-25.5,55.7
	c-8,11.1-24.4,27.6-35.6,35.6c-27.1,19.1-61,30.8-93.9,30.8c-25.5,0-50.4-6.4-74.3-18.6c-14.9-7.4-26-16.5-38.2-28.1
	c-22.8-22.8-37.1-49.4-44-81.7c-1.6-9-2.1-14.3-2.1-30.8c0-16.5,0.5-21.2,2.1-30.8c6.9-32.4,21.8-60,45.1-83.3
	c24.9-24.4,56.3-39.3,91.8-44.6C248.3,96.2,275.4,97.3,287.6,99.4 M229.7,175.8v26.5h53.1v-53.1h-53.1V175.8 M149.6,229.9L131,248.5
	l62.6,62.6l62.6,62.1l62.1-62.1c34-34,62.1-62.6,62.1-63.1c0-1.1-35.6-36.6-36.6-36.6c-0.5,0-20.2,19.6-44.6,43.5l-43,42.5
	l-43.5-43.5c-23.9-23.9-43.5-43.5-44-43.5C168.7,211.4,160.2,219.3,149.6,229.9"/>
</svg>
