<?xml version="1.0" encoding="utf-8"?>
<!-- Generator: Adobe Illustrator 25.4.1, SVG Export Plug-In . SVG Version: 6.00 Build 0)  -->
<svg version="1.1" id="Layer_1" xmlns="http://www.w3.org/2000/svg" xmlns:xlink="http://www.w3.org/1999/xlink" x="0px" y="0px"
	 viewBox="0 0 512 512" enable-background="new 0 0 512 512" xml:space="preserve">
<path fill-rule="evenodd" clip-rule="evenodd" d="M43.2,136.9v93.1h185.6V43.8H43.2V136.9 M282.6,136.9v93.1h185.6V43.8H282.6V136.9
	 M175.7,136.9v39.9H96.4V97h79.8v39.9 M415,136.9v39.9h-79.3V97h79.8v39.9 M43.2,375.1v93.1h185.6V282.6H43.2V375.1 M282.6,375.1
	v93.1H389V415h-53.2v-79.3h79.8V389h53.2V282.6H282.6V375.1 M175.7,375.1V415H96.4v-79.3h79.8v39.4 M415,441.6v26.6h53.2V415H415
	V441.6"/>
</svg>
