<?xml version="1.0" encoding="utf-8"?>
<!-- Generator: Adobe Illustrator 25.4.1, SVG Export Plug-In . SVG Version: 6.00 Build 0)  -->
<svg version="1.1" id="Layer_1" xmlns="http://www.w3.org/2000/svg" xmlns:xlink="http://www.w3.org/1999/xlink" x="0px" y="0px"
	 viewBox="0 0 512 512" enable-background="new 0 0 512 512" xml:space="preserve">
<path fill-rule="evenodd" clip-rule="evenodd" d="M244.8,43.7c-17.6,3.7-31.4,11.7-42.6,25c-8.5,10.1-13.3,20.7-15.4,34.1
	c-1.1,7.4-1.1,109.1,0,116.5c4.3,26.6,23.9,49.5,50,56.9c6.4,1.6,9,2.1,20.2,2.1s13.8-0.5,20.2-2.1c22.9-6.9,41-25.5,47.9-48.9
	c2.1-7.4,2.1-8,2.1-66.5c0-59.1,0-59.1-2.1-66.5c-6.4-22.9-25.5-41.5-47.9-48.9C268.2,43.7,252.8,42.6,244.8,43.7 M265.6,91.5
	c5.9,2.1,9,6.4,12.2,11.7l2.1,4.8v104.8l-2.1,4.8c-4.8,9-12.8,13.8-22.9,13.3c-10.1-0.5-18.6-7.4-21.3-17
	c-0.5-2.1-1.1-21.8-0.5-55.9v-52.1l2.7-4.8C242.2,91.5,255.5,87.3,265.6,91.5 M115,216c1.6,18.6,5.3,34.1,11.2,48.9
	c13.3,31.4,37.2,56.4,68.6,71.8c6.9,3.7,23.9,9,31.9,11.2l5.9,1.1v25v25h46.8v-25v-25l6.4-1.1c25-5.3,51.1-19.7,70.8-39.4
	c24.5-25,37.8-55.3,40.4-91l0.5-8h-46.8l-0.5,7.4c-1.1,14.9-6.9,32.5-15.4,44.7c-5.9,8.5-18.1,20.7-26.6,26.1
	c-14.4,10.1-34.6,15.4-52.1,15.4s-37.8-5.9-52.1-15.4c-8.5-5.9-20.7-18.1-26.6-26.6c-8.5-13.3-15.4-34.6-15.4-47.9v-4.3h-47.4
	L115,216 M232.6,444.8v23.9h47.4v-47.4h-47.4V444.8"/>
</svg>
