<?xml version="1.0" encoding="utf-8"?>
<!-- Generator: Adobe Illustrator 25.4.1, SVG Export Plug-In . SVG Version: 6.00 Build 0)  -->
<svg version="1.1" id="Layer_1" xmlns="http://www.w3.org/2000/svg" xmlns:xlink="http://www.w3.org/1999/xlink" x="0px" y="0px"
	 viewBox="0 0 512 512" enable-background="new 0 0 512 512" xml:space="preserve">
<path fill-rule="evenodd" clip-rule="evenodd" d="M200.5,42.4C159.3,45,119.8,63.2,90.4,92.6c-25.1,26.2-41.2,58.3-46.5,95.1
	c-1.6,10.7-1.6,35.8,0,46.5c7.5,50.8,36.9,95.7,81.2,121.8c52.9,31.5,119.7,31.5,172.1,0c4.8-2.7,9.6-5.9,11.2-7.5
	c1.6-1.1,3.2-2.1,3.7-2.1s16.6,16,36.3,35.3c19.2,19.2,35.8,35.3,36.3,35.3c1.1,0,33.7-32.1,33.7-33.7c0-0.5-16-17.1-35.8-36.3
	l-35.8-35.3l5.3-8c13.9-20.3,23-44.9,26.2-70c1.6-10.7,1.6-36.9,0-47c-5.9-37.4-22.4-70.5-49.2-96.2
	C295.1,56.3,249.7,39.7,200.5,42.4 M222.4,91c52.9,5.3,95.7,43.3,107.4,95.7c2.1,11.2,2.7,31.5,1.1,43.3
	c-3.7,23-13.9,44.4-28.3,60.9c-24,27.3-55,41.7-91.4,41.7c-20.3,0-37.4-3.7-55.6-13.4c-15-7.5-31-20.3-40.6-34.2
	c-35.3-47-31.5-114.9,10.2-157.1c23.5-24,49.7-35.3,85-37.4C210.6,89.9,216.5,90.5,222.4,91 M418.5,419.1L402,435.7l17.1,17.1
	l17.1,17.1l16.6-16.6c9.1-9.1,16.6-17.1,16.6-17.6c0-1.1-32.1-33.7-33.7-33.7C435.6,402.6,427.6,410.1,418.5,419.1"/>
</svg>
