<?xml version="1.0" encoding="utf-8"?>
<!-- Generator: Adobe Illustrator 25.4.1, SVG Export Plug-In . SVG Version: 6.00 Build 0)  -->
<svg version="1.1" id="Layer_1" xmlns="http://www.w3.org/2000/svg" xmlns:xlink="http://www.w3.org/1999/xlink" x="0px" y="0px"
	 viewBox="0 0 512 512" enable-background="new 0 0 512 512" xml:space="preserve">
<path fill-rule="evenodd" clip-rule="evenodd" d="M381.6,58.6c-3.5,53.1-20.5,98.3-50.9,138c-11.3,14.9-33.3,38.2-48.1,48.8
	c-6.4,5.7-12,9.9-12,9.9s5.7,5.7,12,9.9c14.9,11.3,36.8,33.3,48.1,48.8c29.7,41,46.7,84.2,50.9,139.4l0.7,14.9h-84.9v-7.1
	c0-23.3-12.7-62.3-27.6-86.3c-9.9-15.6-32.5-38.2-48.1-48.1c-23.3-16.3-62.3-28.3-86.3-28.3h-7.1v-84.2l13.4-0.7
	c62.3-5,118.9-45.3,142.9-104c7.1-17,14.1-45.3,14.1-58.7v-7.1h84.9L381.6,58.6"/>
</svg>
