<?xml version="1.0" encoding="utf-8"?>
<!-- Generator: Adobe Illustrator 25.4.1, SVG Export Plug-In . SVG Version: 6.00 Build 0)  -->
<svg version="1.1" id="Layer_1" xmlns="http://www.w3.org/2000/svg" xmlns:xlink="http://www.w3.org/1999/xlink" x="0px" y="0px"
	 viewBox="0 0 512 512" enable-background="new 0 0 512 512" xml:space="preserve">
<path fill-rule="evenodd" clip-rule="evenodd" d="M373.3,64v21.3h-42.7V128h128.5V85.4h-42.7V42.7h-42.7V64 M206.9,86.4
	c-33.6,6.4-62.4,30.9-73.6,64c-8,23.5-6.4,51.2,4.8,73.1c6.9,13.9,18.7,27.2,30.9,35.7c8,5.9,21.9,11.7,31.5,14.9
	c7.5,2.1,9.6,2.1,24,2.1c14.9,0,16.5,0,24.5-2.1c34.1-9.6,59.2-34.7,68.3-68.3c2.1-7.5,2.1-9.6,2.1-24s0-16.5-2.1-24
	c-9.6-36.3-39.5-64-76.3-70.4C231.5,84.8,215.5,84.8,206.9,86.4 M236.8,128.6c17.6,3.2,34.7,19.7,39.5,38.4
	c1.1,3.2,1.6,8.5,1.6,13.9c0,15.5-4.8,26.7-15.5,37.9c-10.7,10.7-22.4,15.5-37.9,15.5s-26.7-4.8-37.9-15.5
	c-10.7-10.7-15.5-22.4-15.5-37.3c0-9.6,1.1-14.9,5.9-24c2.7-5.9,4.8-8.5,9.6-13.9C200,130.2,216.5,124.8,236.8,128.6 M373.3,170.7
	V192H416v-42.7h-42.7V170.7 M211.7,299.2c-1.1,0-6.4,0.5-10.7,1.1c-23.5,2.7-50.1,12.8-71.5,26.7c-45.3,30.4-72,77.9-76.3,133.3
	l-0.5,9.1h42.7l0.5-8c2.1-31.5,16-60.8,38.4-82.7c18.1-17.6,39.5-29.3,65.1-34.1c13.3-2.7,36.3-2.7,49.6,0
	c18.1,3.7,35.2,11.2,50.1,21.9c9.1,6.4,22.4,19.7,29.3,28.3c5.9,8,13.3,21.9,16.5,30.4c4.8,11.7,8,30.4,8,40.5v3.7h42.7l-0.5-9.1
	c-2.7-42.1-18.7-78.9-46.9-108.2c-26.7-27.2-60.8-44.8-98.1-50.7C241.6,299.2,216.5,298.1,211.7,299.2"/>
</svg>
