<?xml version="1.0" encoding="utf-8"?>
<!-- Generator: Adobe Illustrator 24.1.0, SVG Export Plug-In . SVG Version: 6.00 Build 0)  -->
<svg version="1.1" id="Layer_1" xmlns="http://www.w3.org/2000/svg" xmlns:xlink="http://www.w3.org/1999/xlink" x="0px" y="0px"
	 width="512px" height="512px" viewBox="0 0 512 512" enable-background="new 0 0 512 512" xml:space="preserve">
<path d="M482.6,203.2L482.6,203.2c-1.9-5.8-6.9-10-12.9-10.9l-137.7-20L270.4,47.5c-5.4-10.9-23.3-10.9-28.7,0l-61.6,124.8
	l-137.7,20c-6,0.9-11,5.1-12.9,10.9s-0.3,12.1,4,16.4l99.7,97.2L109.6,454c-1,6,1.4,12.1,6.4,15.6c4.9,3.6,11.5,4.1,16.8,1.2
	L256,406.1l123.2,64.8c2.3,1.2,4.9,1.8,7.4,1.8c3.3,0,6.6-1,9.4-3.1c4.9-3.6,7.4-9.6,6.4-15.6l-23.5-137.2l99.7-97.2
	C482.9,215.4,484.5,209,482.6,203.2z"/>
</svg>
