<?xml version="1.0" encoding="utf-8"?>
<!-- Generator: Adobe Illustrator 25.4.1, SVG Export Plug-In . SVG Version: 6.00 Build 0)  -->
<svg version="1.1" id="Layer_1" xmlns="http://www.w3.org/2000/svg" xmlns:xlink="http://www.w3.org/1999/xlink" x="0px" y="0px"
	 viewBox="0 0 512 512" enable-background="new 0 0 512 512" xml:space="preserve">
<path fill-rule="evenodd" clip-rule="evenodd" d="M43.2,256v212.8h354.3v-47.3H90.6V90.6h330.9V398h47.3V43.2H43.2V256 M278.3,186.9
	c-5.9,1.6-13.8,8-18.1,13.8c-4.8,6.9-6.9,13.3-5.9,21.8l0.5,6.9h-3.7c-1.6,0-6.9-0.5-10.1-1.1c-20.2-3.7-38.3-13.8-53.7-28.7
	l-6.9-6.9l-1.6,2.7c-5.3,13.8-3.2,29.3,7.4,39.4c4.3,4.3,4.3,4.3,1.6,4.3c-2.7,0-5.3-1.1-11.2-3.2c-1.6-0.5-1.6-0.5-1.1,4.3
	c0.5,6.9,5.3,16,10.1,20.7c2.7,2.7,6.9,5.3,10.1,7.4l6.9,3.2l-3.7,0.5c-2.7,0.5-5.9,0.5-8,0c-3.2-0.5-3.2-0.5-2.7,1.6
	c4.3,11.2,14.4,19.7,26.6,21.8l5.3,1.1l-4.3,3.2c-11.2,7.4-24.5,11.7-38.3,11.7c-10.1,0-10.1,0,2.7,5.9
	c29.3,13.8,68.1,12.2,94.7-4.3c29.3-17.6,47.3-47.9,50-84l0.5-9.6l3.7-2.7c3.2-1.6,13.8-13.8,13.3-14.4c0,0-2.7,0.5-4.8,1.1
	c-2.7,1.1-6.9,1.6-9,2.7l-4.8,1.1l4.3-4.3c3.7-3.7,9.6-12.2,9.6-13.8c0-0.5-3.2,0.5-5.9,2.7c-3.7,1.6-8.5,3.7-11.2,4.3
	c-4.8,1.1-4.8,1.1-8-1.6c-5.9-4.8-12.8-8-21.8-8C285.8,185.3,281.5,185.3,278.3,186.9 M421.4,444.8v23.9h47.3v-47.3h-47.3V444.8"/>
</svg>
