<?xml version="1.0" encoding="utf-8"?>
<!-- Generator: Adobe Illustrator 25.4.1, SVG Export Plug-In . SVG Version: 6.00 Build 0)  -->
<svg version="1.1" id="Layer_1" xmlns="http://www.w3.org/2000/svg" xmlns:xlink="http://www.w3.org/1999/xlink" x="0px" y="0px"
	 viewBox="0 0 512 512" enable-background="new 0 0 512 512" xml:space="preserve">
<path fill-rule="evenodd" clip-rule="evenodd" d="M176,109.4l-48.5,32.5H42.7v228.8H127l48.5,32.5c26.7,17.6,48.5,32.5,49.1,32.5
	c0,0,0.5-81.1,0.5-179.2s0-180.2-0.5-180.2C224.5,76.3,202.1,91.2,176,109.4 M270.9,164.8l-16,16l37.3,37.3l37.3,37.3l-37.3,37.3
	l-37.3,37.3l16,16l16,16l37.3-37.3l37.3-37.3l37.3,37.3c20.8,20.3,37.3,37.3,37.9,37.3c1.1,0,31.5-30.4,31.5-31.5
	c0-0.5-16.5-17.6-37.3-37.9l-36.3-37.3l14.9-14.9l14.9-14.9l-2.1-1.6c-4.3-4.8-29.3-29.9-30.4-29.9c-0.5,0-6.9,6.4-15.5,14.4
	l-14.4,14.4l-37.3-37.3c-20.3-20.3-37.3-37.3-37.3-37.3S280,156.3,270.9,164.8 M421.3,164.3l-16,16l16,16l16,16l16-16
	c9.1-9.1,16-16,16-16.5c0-1.1-30.4-31.5-31.5-31.5C437.3,148.8,429.8,156.3,421.3,164.3 M179.2,302.9v46.9L160,336.5l-19.2-13.3
	h-26.1H89.1V187.7h26.1h26.1l19.2-13.3l19.2-13.3V208C179.2,234.7,179.2,277.3,179.2,302.9"/>
</svg>
