<?xml version="1.0" encoding="utf-8"?>
<!-- Generator: Adobe Illustrator 25.4.1, SVG Export Plug-In . SVG Version: 6.00 Build 0)  -->
<svg version="1.1" id="Layer_1" xmlns="http://www.w3.org/2000/svg" xmlns:xlink="http://www.w3.org/1999/xlink" x="0px" y="0px"
	 viewBox="0 0 512 512" enable-background="new 0 0 512 512" xml:space="preserve">
<path fill-rule="evenodd" clip-rule="evenodd" d="M234.8,45.1c-36.6,3.7-72.2,17.5-102.9,39.3c-11.7,8-31.3,26.5-40.3,38.2
	c-26,31.3-42.4,71.1-46.2,112c-0.5,6.9-1.6,52-1.6,122V468h106.1V335.3H96.8v-46.7c0-40.9,0-47.8,2.1-58.4
	c11.7-65.8,60-116.2,126.3-130.5c15.9-3.7,45.6-3.7,61,0c32.9,6.9,60,21.8,82.8,45.6c17,17.5,27.6,34,35.5,56.8
	c8,22.8,10.6,35.5,10.6,91.3v41.9h-53.1v132.1h106.1V359.2c0-64.7-0.5-113.5-1.1-120.4c-1.6-17-4.8-32.9-10.1-49.3
	C425.8,95,333.5,35,234.8,45.1 M229.5,255.8v26.5h53.1v-53.1h-53.1V255.8 M229.5,387.9v79.6h53.1V308.8h-53.1V387.9"/>
</svg>
