<?xml version="1.0" encoding="utf-8"?>
<!-- Generator: Adobe Illustrator 25.4.1, SVG Export Plug-In . SVG Version: 6.00 Build 0)  -->
<svg version="1.1" id="Layer_1" xmlns="http://www.w3.org/2000/svg" xmlns:xlink="http://www.w3.org/1999/xlink" x="0px" y="0px"
	 viewBox="0 0 512 512" enable-background="new 0 0 512 512" xml:space="preserve">
<path fill-rule="evenodd" clip-rule="evenodd" d="M240.8,43.4c-1.6,0-7.5,0.5-13.3,1.6c-13.3,1.6-35.7,6.9-49,12.8
	c-64.4,25-111.3,79.4-128.9,145.4c-4.3,19.2-6.4,31.4-6.4,52.7c0,21.3,1.1,33.6,6.4,52.7c21.3,82.6,88.9,144.3,173.1,157.6
	c65,10.7,132.1-10.7,180-56.5c85.2-81.5,88.4-216.2,6.9-300.9c-32-34.1-74.6-56.5-120.9-63.9C278.6,43.4,247.2,42.4,240.8,43.4
	 M288.2,99.3c21.8,4.8,44.2,13.8,61.8,26.6c11.2,8,27.7,25,36.2,36.2c27.7,38.3,37.3,86.8,25.6,132.6c-4.8,19.2-13.8,39.4-25.6,55.9
	c-8,11.2-24.5,27.7-35.7,35.7c-27.2,19.2-61.2,30.9-94.3,30.9c-25.6,0-50.6-6.4-74.6-18.6c-14.9-7.5-26.1-16.5-38.3-28.2
	c-22.9-22.9-37.3-49.5-44.2-82c-1.6-9.1-2.1-14.4-2.1-30.9c0-16.5,0.5-21.3,2.1-30.9c6.9-32.5,21.8-60.2,45.3-83.6
	c25-24.5,56.5-39.4,92.1-44.7C248.3,95.6,276,96.7,288.2,99.3 M230.2,148.9v26.6h53.3v-53.3h-53.3V148.9 M230.2,216v13.3H123.1v53.3
	h159.8v-79.9h-53.3L230.2,216"/>
</svg>
