<?xml version="1.0" encoding="utf-8"?>
<!-- Generator: Adobe Illustrator 25.4.1, SVG Export Plug-In . SVG Version: 6.00 Build 0)  -->
<svg version="1.1" id="Layer_1" xmlns="http://www.w3.org/2000/svg" xmlns:xlink="http://www.w3.org/1999/xlink" x="0px" y="0px"
	 viewBox="0 0 512 512" enable-background="new 0 0 512 512" xml:space="preserve">
<path fill-rule="evenodd" clip-rule="evenodd" d="M43.8,256v212.2h353.4V421H91V91h330v306.7h47.2V43.8H43.8V256 M327.1,161.6v23.9
	h47.2v-47.2h-47.2V161.6 M240.6,166.3c-21.2,3.7-42.4,16.4-55.2,32.9c-7.4,9-13.3,21.2-17,32.4c-2.7,8-2.7,9.6-2.7,24.9
	s0,17,2.7,24.9c9.6,30.8,31.3,52.5,62.6,62.6c8,2.7,9.6,2.7,24.9,2.7s17,0,24.9-2.7c15.9-4.8,28.7-12.2,39.3-22.8
	c11.1-11.1,18-23.9,22.8-39.3c2.7-8,2.7-9.6,2.7-24.9s0-17-2.7-24.9c-8-25.5-22.8-44-45.6-55.7c-13.8-7.4-22.8-9-38.7-9.6
	C251.2,165.8,243.3,165.8,240.6,166.3 M264.5,213c11.7,1.1,25.5,12.2,30.8,24.4c12.2,26.5-4.2,57.8-33.4,62.1
	c-13.3,1.6-26.5-2.7-36.6-12.2c-21.8-20.7-16.4-57.8,11.1-71.1c6.9-3.2,15.9-5.3,21.2-4.2C259.2,212.5,261.8,213,264.5,213
	 M421,444.4v23.9h47.2V421H421V444.4"/>
</svg>
