<?xml version="1.0" encoding="utf-8"?>
<!-- Generator: Adobe Illustrator 25.4.1, SVG Export Plug-In . SVG Version: 6.00 Build 0)  -->
<svg version="1.1" id="Layer_1" xmlns="http://www.w3.org/2000/svg" xmlns:xlink="http://www.w3.org/1999/xlink" x="0px" y="0px"
	 viewBox="0 0 512 512" enable-background="new 0 0 512 512" xml:space="preserve">
<path fill-rule="evenodd" clip-rule="evenodd" d="M43.8,256v212.2h353.4V421H279.9V279.9h47.2v-47.2h-47.2v-21.8
	c0-28.7-2.7-25.5,25.5-25.5h21.2v-47.2l-25.5,0.5c-23.9,0.5-26,0.5-32.4,2.7c-15.9,5.3-28.7,18-34,34c-1.6,5.3-2.7,8-2.7,32.4
	l-0.5,25.5h-47.2v47.2h47.2v141.1H91V91h330v306.7h47.2V43.8H43.8V256 M421,444.4v23.9h47.2V421H421V444.4"/>
</svg>
