<?xml version="1.0" encoding="utf-8"?>
<!-- Generator: Adobe Illustrator 25.4.1, SVG Export Plug-In . SVG Version: 6.00 Build 0)  -->
<svg version="1.1" id="Layer_1" xmlns="http://www.w3.org/2000/svg" xmlns:xlink="http://www.w3.org/1999/xlink" x="0px" y="0px"
	 viewBox="0 0 512 512" enable-background="new 0 0 512 512" xml:space="preserve">
<path fill-rule="evenodd" clip-rule="evenodd" d="M326.7,95.6v29.3L256.5,169l-70.2,44.1v-13.8v-13.8H43.2v142h142v-13.8v-15.4
	l70.2,44.1l70.2,44.1v29.3v29.3h142v-142h-141v13.8v13.8L267.2,294c-33-21.3-59.6-38.3-59.6-38.8s27.1-17.6,59.6-38.3l59-36.7V194
	v13.8h70.2v-47.3h-22.9v-47.3h47.3v23.4h47.9V66.9h-142V95.6 M421.4,185v23.4h47.3v-47.3h-47.3V185 M138.4,255.7v23.4H90.6v-46.8
	h47.3v23.4 M421.4,373.3v23.4h-47.3v-47.3h47.3V373.3"/>
</svg>
