<?xml version="1.0" encoding="utf-8"?>
<!-- Generator: Adobe Illustrator 25.4.1, SVG Export Plug-In . SVG Version: 6.00 Build 0)  -->
<svg version="1.1" id="Layer_1" xmlns="http://www.w3.org/2000/svg" xmlns:xlink="http://www.w3.org/1999/xlink" x="0px" y="0px"
	 viewBox="0 0 512 512" enable-background="new 0 0 512 512" xml:space="preserve">
<path fill-rule="evenodd" clip-rule="evenodd" d="M236.4,72.9c-35.5,7.4-63.6,32.3-75.6,66.8c-2.3,8.3-5.1,20.7-5.1,27.2v4.1H77.4
	v268.8h357.3V171.6h-78.4l-0.5-8.3c-1.4-22.6-12.4-46.1-29-62.7c-12.4-12.4-28.6-21.2-45.6-26.3C269.1,70.6,247.9,69.7,236.4,72.9
	 M271,117.2c8.8,1.8,17.5,6.9,24.4,14.8c10.1,10.1,14.8,20.7,16.1,35l0.5,4.1H200l0.5-4.1c1.4-13.8,6.9-24.4,16.1-35
	C231.8,117.2,249.8,112.1,271,117.2 M390.9,305.3v89H121.6v-178h268.3L390.9,305.3 M189.4,305.3v22.6h44.7v-44.7h-44.7V305.3
	 M278.8,305.3v22.6h44.7v-44.7h-44.7V305.3"/>
</svg>
