<?xml version="1.0" encoding="utf-8"?>
<!-- Generator: Adobe Illustrator 25.4.1, SVG Export Plug-In . SVG Version: 6.00 Build 0)  -->
<svg version="1.1" id="Layer_1" xmlns="http://www.w3.org/2000/svg" xmlns:xlink="http://www.w3.org/1999/xlink" x="0px" y="0px"
	 viewBox="0 0 512 512" enable-background="new 0 0 512 512" xml:space="preserve">
<path fill-rule="evenodd" clip-rule="evenodd" d="M149.1,131.8c-4.3,51.6-46.3,93.1-97.3,97.3l-8.5,0.5v52.7H48
	c14.4,0,38.8,8,53.7,17.6c10.1,6.4,23.4,19.7,30.3,29.8c9,14.4,16.5,33.5,17.6,50.5l0.5,8.5h53.2l-0.5-9.6
	c-2.1-34-13.3-62.2-33-88.3l-6.9-8.5h226.6v-53.2H162.9l6.9-8.5c19.7-26.1,30.9-54.3,33-88.3l0.5-9h-53.2L149.1,131.8 M415.6,256.3
	v26.6h53.2v-53.2h-53.2V256.3"/>
</svg>
