<?xml version="1.0" encoding="utf-8"?>
<!-- Generator: Adobe Illustrator 25.4.1, SVG Export Plug-In . SVG Version: 6.00 Build 0)  -->
<svg version="1.1" id="Layer_1" xmlns="http://www.w3.org/2000/svg" xmlns:xlink="http://www.w3.org/1999/xlink" x="0px" y="0px"
	 viewBox="0 0 512 512" enable-background="new 0 0 512 512" xml:space="preserve">
<path fill-rule="evenodd" clip-rule="evenodd" d="M44.2,271.1c0,1.6,0.5,7.4,1.6,13.3c1.6,13.3,6.9,35.6,12.7,48.8
	c24.9,64.2,78.5,111.4,144.9,128.4c19.1,4.8,31.3,6.4,52.5,6.4s33.4-1.1,52.5-6.4c82.3-20.7,143.8-88.6,157.1-172.5
	c10.6-64.7-10.6-131.6-56.3-179.4c-81.2-84.9-215.5-88.1-299.8-6.9c-34,31.8-56.3,74.3-63.7,120.5C44.2,233.4,43.1,264.8,44.2,271.1
	 M99.4,224.4c4.8-21.8,13.8-44,26.5-61.6c8-11.1,24.9-27.6,36.1-36.1c38.2-27.6,86.5-37.1,132.1-25.5c19.1,4.8,39.3,13.8,55.7,25.5
	c11.1,8,27.6,24.4,35.6,35.6c19.1,27.1,30.8,61,30.8,93.9c0,25.5-6.4,50.4-18.6,74.3c-7.4,14.9-16.5,26-28.1,38.2
	c-22.8,22.8-49.4,37.1-81.7,44c-9,1.6-14.3,2.1-30.8,2.1c-16.5,0-21.2-0.5-30.8-2.1c-32.4-6.9-60-21.8-83.3-45.1
	c-24.4-24.9-39.3-56.3-44.6-91.8C96.2,263.7,97.3,236.6,99.4,224.4 M175.8,282.3h26.5v-53.1h-53.1v53.1H175.8 M229.9,362.4
	l18.6,18.6l62.6-62.6l62.1-62.6l-62.1-62.1c-34-34-62.6-62.1-63.1-62.1c-1.1,0-36.6,35.6-36.6,36.6c0,0.5,19.6,20.2,43.5,44.6
	l42.5,43l-43.5,43.5c-23.9,23.9-43.5,43.5-43.5,44C211.4,343.3,219.3,351.8,229.9,362.4"/>
</svg>
