<?xml version="1.0" encoding="utf-8"?>
<!-- Generator: Adobe Illustrator 25.4.1, SVG Export Plug-In . SVG Version: 6.00 Build 0)  -->
<svg version="1.1" id="Layer_1" xmlns="http://www.w3.org/2000/svg" xmlns:xlink="http://www.w3.org/1999/xlink" x="0px" y="0px"
	 viewBox="0 0 512 512" enable-background="new 0 0 512 512" xml:space="preserve">
<path fill-rule="evenodd" clip-rule="evenodd" d="M233.3,54.6v11.9l-5.4,1.1c-2.7,0.5-10.2,1.6-17.3,3.2
	C148.1,86.9,98.5,135.5,81.8,198c-4.9,20.5-4.9,23.7-5.9,79.8l-0.5,51.8l-17.8,35.6c-9.2,20.5-17.3,36.1-17.3,36.7
	s96.5,0.5,215.7,0.5s215.7,0,215.7-0.5s-8.1-16.7-17.8-36.7l-17.8-35.6l0-51.8c-0.5-57.2-0.5-58.2-6.5-79.3
	c-15.1-54.5-56.1-99.8-109.5-120.8c-9.7-3.2-29.1-9.2-37.2-9.7l-4.9-0.5V42.7h-44.8V54.6 M282.4,112.8c18.3,3.8,37.2,11.9,51.8,22.7
	c9.7,7,23.7,21,30.7,30.2c9.7,13.5,17.8,30.2,21.6,46.9c3.8,15.1,3.8,21,3.8,75.5v51.8l3.8,8.1c2.2,4.3,3.8,8.6,3.8,8.6
	s-63.6,0.5-142.4,0.5s-142.9,0-142.9-0.5c0,0,1.6-3.8,3.8-8.6l3.8-8.1l0.5-56.1c0.5-54.5,0.5-57.2,2.2-65.3
	c6.5-28,18.9-50.7,38.3-70.1c21-20.5,47.5-33.4,77.7-37.8C248.4,110.1,272.2,110.7,282.4,112.8 M233.3,447.2v22.1h44.8v-44.8h-44.8
	V447.2"/>
</svg>
