<?xml version="1.0" encoding="utf-8"?>
<!-- Generator: Adobe Illustrator 25.4.1, SVG Export Plug-In . SVG Version: 6.00 Build 0)  -->
<svg version="1.1" id="Layer_1" xmlns="http://www.w3.org/2000/svg" xmlns:xlink="http://www.w3.org/1999/xlink" x="0px" y="0px"
	 viewBox="0 0 512 512" enable-background="new 0 0 512 512" xml:space="preserve">
<path fill-rule="evenodd" clip-rule="evenodd" d="M43.8,342.8v-42.5h7.1c12.8,0,41.8-6.4,58.8-14.2c39.7-17,73.7-50.3,90-89.3
	c7.1-17.7,12-36.8,14.2-54.6l0.7-14.2h84.3v7.1c0,23.4,12.8,62.4,27.6,86.5c9.9,15.6,32.6,38.3,48.2,48.2
	c23.4,15.6,62.4,27.6,86.5,27.6h7.1v86.5l-14.2-0.7c-54.6-5-98.5-20.6-139.6-51c-14.9-11.3-38.3-33.3-48.9-48.2
	c-4.3-7.1-9.2-12.8-9.2-12.8s-5.7,5.7-9.9,12c-11.3,14.9-33.3,36.8-48.9,48.2c-41.1,30.5-84.3,46.8-139.6,51l-14.2,0.7L43.8,342.8"
	/>
</svg>
