<?xml version="1.0" encoding="utf-8"?>
<!-- Generator: Adobe Illustrator 25.4.1, SVG Export Plug-In . SVG Version: 6.00 Build 0)  -->
<svg version="1.1" id="Layer_1" xmlns="http://www.w3.org/2000/svg" xmlns:xlink="http://www.w3.org/1999/xlink" x="0px" y="0px"
	 viewBox="0 0 512 512" enable-background="new 0 0 512 512" xml:space="preserve">
<path fill-rule="evenodd" clip-rule="evenodd" d="M43.8,256v212.2h353.4V421H91V91h330v306.7h47.2V43.8H43.8V256 M161.6,184.9v23.9
	h47.2v-47.2h-47.2V184.9 M161.6,303.2v71.1h47.2V232.1h-47.2V303.2 M232.1,303.2v71.1h47.8v-45.6c0-44,0.5-45.6,2.7-49.3
	c7.4-13.8,23.9-14.3,30.8-1.1l3.2,4.8v45.6v45.6h46.2l-0.5-49.3c-0.5-47.2-0.5-49.9-2.7-56.8c-4.2-16.4-11.1-25.5-22.3-30.8
	c-5.3-2.7-8.5-3.7-13.8-3.7c-17-1.1-34.5,4.8-41.9,13.8l-1.1,3.2v-18h-47.8v70.6 M421,444.4v23.9h47.2V421H421V444.4"/>
</svg>
