<?xml version="1.0" encoding="utf-8"?>
<!-- Generator: Adobe Illustrator 25.4.1, SVG Export Plug-In . SVG Version: 6.00 Build 0)  -->
<svg version="1.1" id="Layer_1" xmlns="http://www.w3.org/2000/svg" xmlns:xlink="http://www.w3.org/1999/xlink" x="0px" y="0px"
	 viewBox="0 0 512 512" enable-background="new 0 0 512 512" xml:space="preserve">
<path fill-rule="evenodd" clip-rule="evenodd" d="M309.6,132.1c2.7,35.5,13.3,63.7,32.9,89.1l6.9,8.5H123.9v53.1h226l-6.9,9
	c-19.6,26-30.2,53.6-32.4,87.5l-0.5,8.5h53.1v-4.8c0-12.7,6.9-36.6,14.9-49.9s22.3-28.1,35.5-35.5c14.3-8.5,37.1-15.4,50.4-15.4h4.2
	v-52.5h-8.5c-24.9-2.1-48.3-13.3-66.3-31.3c-10.6-10.6-17.5-20.7-23.3-34c-4.2-10.6-8.5-27.6-8.5-35.5v-4.8h-53.1L309.6,132.1
	 M43.8,256.3v26.5h53.1v-53.1H43.8V256.3"/>
</svg>
