<?xml version="1.0" encoding="utf-8"?>
<!-- Generator: Adobe Illustrator 25.4.1, SVG Export Plug-In . SVG Version: 6.00 Build 0)  -->
<svg version="1.1" id="Layer_1" xmlns="http://www.w3.org/2000/svg" xmlns:xlink="http://www.w3.org/1999/xlink" x="0px" y="0px"
	 viewBox="0 0 512 512" enable-background="new 0 0 512 512" xml:space="preserve">
<path fill-rule="evenodd" clip-rule="evenodd" d="M106.2,256v212h224.2v-49.8H156.1V352h199.9v40.8h49.8V133.5L361.2,89L316.2,44
	H106.2V256 M280.7,130.9v37.6h74.7v48.8H156.1V93.8h125.1v37.1 M192.1,250.2c4.8,2.1,7.4,5.3,10.1,10.1c4.2,8.5,3.7,17.5-3.2,24.9
	c-4.8,5.3-10.1,7.4-17.5,7.4h-6.4v30.2h-14.8v-37.1c0-20.1,0.5-37.1,0.5-37.6c0.5-0.5,6.9-0.5,14.3-0.5
	C185.8,247.5,188.9,248.6,192.1,250.2 M257.9,250.7c7.4,3.2,14.8,9.5,17.5,16.4c1.6,4.8,2.1,6.9,2.1,17.5c0,19.6-4.2,27.6-17,33.9
	c-6.4,3.7-6.4,3.7-24.4,3.7l-17.5,0.5v-37.6c0-20.1,0.5-37.1,0.5-37.6c0.5-0.5,7.4-0.5,16.4,0C249.4,248.6,253.1,249.1,257.9,250.7
	 M337.4,255.5v6.9h-30.2v14.8h24.4V292h-24.4v30.2h-14.3V248h22.3h22.3V255.5 M175.2,270.3v7.4h5.3c4.2,0,5.3-0.5,7.4-2.1
	c2.1-2.1,2.1-3.2,1.6-5.8c-1.1-4.8-3.2-5.8-9-6.4l-5.3-0.5L175.2,270.3 M234,285.7V308l9-0.5c10.6-0.5,15.4-3.2,18-7.4
	c1.6-3.2,1.6-5.3,1.6-14.8c0-9.5,0-11.7-1.6-14.3c-4.2-5.8-6.9-6.9-17.5-6.9l-10.1-0.5v22.3 M355.4,443.1V468h49.8v-49.8h-49.8
	L355.4,443.1"/>
</svg>
