<?xml version="1.0" encoding="utf-8"?>
<!-- Generator: Adobe Illustrator 25.4.1, SVG Export Plug-In . SVG Version: 6.00 Build 0)  -->
<svg version="1.1" id="Layer_1" xmlns="http://www.w3.org/2000/svg" xmlns:xlink="http://www.w3.org/1999/xlink" x="0px" y="0px"
	 viewBox="0 0 512 512" enable-background="new 0 0 512 512" xml:space="preserve">
<path fill-rule="evenodd" clip-rule="evenodd" d="M42.7,256v212.8h346.6v-53.3H96V96.6H416v293.3h53.3V43.2H42.7V256 M148.8,256
	v126.9l4.3-2.1l105.6-63.5C314.1,283.7,360,256.5,360,256c0,0-45.9-27.7-101.3-61.3l-105.1-62.9l-4.3-2.1L148.8,256 M257.1,256
	c0,0.5-12.3,7.5-27.2,17.1l-27.2,16v-66.1l27.2,16C244.8,248.5,257.1,256,257.1,256 M415.4,442.1v26.7h53.3v-53.3h-53.3V442.1"/>
</svg>
