<?xml version="1.0" encoding="utf-8"?>
<!-- Generator: Adobe Illustrator 25.4.1, SVG Export Plug-In . SVG Version: 6.00 Build 0)  -->
<svg version="1.1" id="Layer_1" xmlns="http://www.w3.org/2000/svg" xmlns:xlink="http://www.w3.org/1999/xlink" x="0px" y="0px"
	 viewBox="0 0 512 512" enable-background="new 0 0 512 512" xml:space="preserve">
<path fill-rule="evenodd" clip-rule="evenodd" d="M62.9,62.9L43.8,82l86.6,86.6l86.6,86.6l-86.6,86.6
	c-47.8,47.3-86.1,86.1-86.1,86.6c0,0.5,8.5,9.6,19.1,19.7l19.1,19.1l87.1-87.1l86.1-86.1l87.1,87.1l87.1,87.1l19.1-19.1
	c10.1-10.1,19.1-19.7,19.1-19.7c0-0.5-38.8-39.8-86.6-87.1l-87.1-87.1l56.8-56.8l56.8-56.8l-19.7-19.7l-19.7-20.2L312,158.5
	l-56.3,57.4l-86.6-86.1C121.9,82,82.5,43.8,82.5,43.8C82,43.8,73,52.3,62.9,62.9 M408.7,62.9L389.6,82l19.7,19.7l19.7,19.7
	l19.7-19.7L468.2,82l-19.1-19.1c-10.6-10.6-19.7-19.1-19.7-19.1C428.4,43.8,419.4,52.3,408.7,62.9"/>
</svg>
