<?xml version="1.0" encoding="utf-8"?>
<!-- Generator: Adobe Illustrator 25.4.1, SVG Export Plug-In . SVG Version: 6.00 Build 0)  -->
<svg version="1.1" id="Layer_1" xmlns="http://www.w3.org/2000/svg" xmlns:xlink="http://www.w3.org/1999/xlink" x="0px" y="0px"
	 viewBox="0 0 240 240" enable-background="new 0 0 240 240" xml:space="preserve">
<rect y="-0.4" fill="#F05A28" width="240" height="240"/>
<g>
	<g>
		<path id="Path_54666" fill="#FFFFFF" d="M94.8,184.2c0.3,2.3-1.5,4.4-3.9,4.6c-0.3,0-0.5,0-0.8,0H76.3c-1.5,0-3.1-0.5-4.4-1.8
			c-1-1.5-1.5-3.3-1.5-5.1c0-1.5,0.5-3.1,1.3-4.4h2.8c-0.8,1-1.3,2.3-1.5,3.9c0,3.1,1.3,4.6,3.6,4.6h12.9c1.5,0,2.3-0.8,2.3-2.6
			v-3.1l-0.5-3.9l3.6-0.8V184.2L94.8,184.2z"/>
		<path id="Path_54667" fill="#FFFFFF" d="M82.2,175.8c0,1-0.8,1.8-1.8,1.8s-1.8-0.8-1.8-1.8c0,0,0,0,0-0.3c0-1,0.8-1.8,1.8-1.8
			S82.2,174.7,82.2,175.8"/>
		<path id="Path_54668" fill="#FFFFFF" d="M87.1,175.8c0,1-0.8,1.8-1.8,1.8s-1.8-0.8-1.8-1.8c0,0,0,0,0-0.3c0-1,1-1.8,2.1-1.8
			C86.3,174,87.1,174.7,87.1,175.8"/>
		<path id="Path_54669" fill="#FFFFFF" d="M108.7,193.8c0,1-0.8,1.8-2.1,1.8c-1,0-1.8-0.8-1.8-1.8l0,0c0-1,1-1.8,2.1-1.8
			S108.7,192.7,108.7,193.8"/>
		<path id="Path_54670" fill="#FFFFFF" d="M113.6,193.8c0,1-0.8,1.8-1.8,1.8c-1,0-1.8-0.8-1.8-1.8l0,0c0-1,1-1.8,2.1-1.8
			C112.8,192,113.6,192.7,113.6,193.8"/>
		<path id="Path_54671" fill="#FFFFFF" d="M121.8,176.5l0.5,3.9v3.1c0,1.5-0.8,2.6-2.3,2.6h-4.6c-1.5,0-2.3-0.8-2.3-2.6v-8l-3.6,0.8
			l0.5,4.1v3.1c0,1.5-0.8,2.6-2.3,2.6h-3.6c-1.5,0-2.3-0.8-2.3-2.6v-14.7l-3.3,0.8l0.5,3.9V184c-0.3,2.3,1.5,4.4,3.9,4.6
			c0.3,0,0.5,0,0.8,0h5.1c1.8-1.3,4.1-1.3,5.9,0h6.2c2.3,0.3,4.4-1.5,4.6-3.9c0-0.3,0-0.5,0-0.8v-8.5L121.8,176.5z"/>
		<path id="Path_54672" fill="#FFFFFF" d="M126.4,173.7h-9.3v-2.1h1.5c-0.3-2.1,1.3-4.1,3.3-4.4c0.3,0,0.3,0,0.5,0
			c1,0,2.1,0.3,2.8,1c-0.3,0.5-0.3,1-0.5,1.5c-0.5-0.5-1-0.8-1.8-0.8c-1.3,0-2.1,1-2.1,2.6h1.8l1.8-0.3L126.4,173.7z"/>
		<path id="Path_54673" fill="#FFFFFF" d="M167.3,177.3c-1.5-1-3.6-1.5-5.4-1.5c-3.9,0-7.5,2.6-10.8,7.5v-6.4l-2.8,0.8v5.9
			c0,1.5-0.8,2.6-2.3,2.6h-5.7v-10.8h-4.6c-2.1,0-3.9,0.8-5.4,2.1c-1.3,1.5-2.1,3.3-2.1,5.4c0,1.5,0.5,3.3,1.8,4.4
			c1,1,2.6,1.5,4.1,1.5h2.8c0,2.6-1.8,4.9-4.1,5.7l0.8,1.3c3.3-0.5,6.2-3.3,6.7-6.9h29.3v-7.2C169.6,179.9,168.9,178.1,167.3,177.3z
			 M137.2,186h-2.6c-2.1,0-2.8-1.3-2.8-3.6c0-3.3,1.5-5.1,3.9-5.1h1.5V186z M166.6,186h-14.1c0.8-1.5,1.8-3.1,3.1-4.4
			c1.5-1.8,3.6-2.8,5.9-3.1c3.3,0,5.1,1.3,5.1,3.6V186z"/>
		<path id="Path_54674" fill="#FFFFFF" d="M163.2,170.6c0,1-0.8,1.8-1.8,1.8l0,0c-1,0-1.8-0.8-1.8-1.8l0,0c0-1,1-1.8,2.1-1.8
			C162.4,168.8,163.2,169.6,163.2,170.6"/>
		<g id="Group_11814" transform="translate(0 0.001)">
			<path id="Path_54675" fill="#FFFFFF" d="M72.7,204.1h4.9c5.1,0,7.5,2.6,7.5,7.5c0,4.1-1.5,8.2-7.5,8.2h-4.9V204.1z M76.3,216.9
				h1.3c3.3,0,4.1-2.1,4.1-5.1c0-3.9-1.5-5.1-4.1-5.1h-1.3V216.9L76.3,216.9z"/>
		</g>
		<g id="Group_11815" transform="translate(5.161 0.001)">
			<path id="Path_54676" fill="#FFFFFF" d="M90.6,216.1h-5.4l-1,3.6h-3.3l4.9-15.7h4.9l4.9,15.7h-3.6L90.6,216.1z M89.8,213.3
				l-0.5-2.1c-0.5-2.3-1-3.3-1.3-4.9l0,0c-0.3,1.3-0.5,2.6-1.3,4.6l-0.8,2.3H89.8L89.8,213.3z"/>
		</g>
		<g id="Group_11816" transform="translate(10.683 0)">
			<path id="Path_54677" fill="#FFFFFF" d="M95.9,215.9c0.3-1.5,0.5-2.8,0.8-4.1l1.8-7.7h4.1l1.8,7.7c0.3,1.3,0.5,2.8,0.8,4.1l0,0
				c0.3-1.8,0.5-3.3,0.8-5.1l1.5-6.7h3.3l-4.1,15.7h-4.1l-1.5-6.9c-0.5-1.5-0.8-3.3-1-4.9l0,0c-0.3,1.3-0.5,2.8-0.8,4.1l-1.8,7.7
				h-4.1L89.5,204h3.6l1.5,6.4C95.4,212.3,95.6,214.1,95.9,215.9L95.9,215.9L95.9,215.9z"/>
		</g>
		<g id="Group_11817" transform="translate(19.832 0.001)">
			<rect id="Rectangle_115" x="103.9" y="204.1" fill="#FFFFFF" width="3.3" height="15.7"/>
		</g>
		<g id="Group_11818" transform="translate(21.962 0.001)">
			<path id="Path_54678" fill="#FFFFFF" d="M115.9,214.9v5.1h-3.3v-5.1l-5.4-10.8h3.9l3.3,7.2l0,0l3.3-7.2h3.6L115.9,214.9z"/>
		</g>
		<g id="Group_11819" transform="translate(27.009 0.001)">
			<path id="Path_54679" fill="#FFFFFF" d="M124.9,216.1h-5.4l-1,3.6h-3.3l4.9-15.7h4.9l4.9,15.7h-3.6L124.9,216.1z M124.1,213.3
				l-0.5-2.1c-0.5-2.3-1-3.3-1.3-4.9l0,0c-0.3,1.3-0.5,2.6-1.3,4.6l-0.8,2.3H124.1L124.1,213.3z"/>
		</g>
		<g id="Group_11820" transform="translate(32.364)">
			<path id="Path_54680" fill="#FFFFFF" d="M127.7,206.9h-4.1V204h11.3v2.8H131v12.9h-3.3V206.9z"/>
		</g>
	</g>
</g>
<g>
	<g>
		<g>
			<path id="SVGID_244_" fill="#FFFFFF" d="M67.7,120c2.4-60,81.2-73,81.2-73l-5.8-15.4C50.8,68.2,67.7,120,67.7,120"/>
		</g>
		<g>
			<g>
				<path id="SVGID_2_" fill="#FFFFFF" d="M67.7,120c2.4-60,81.2-73,81.2-73l-5.8-15.4C50.8,68.2,67.7,120,67.7,120"/>
			</g>
			<g>
				<g>
					<defs>
						<path id="SVGID_00000057147164339328404490000010772263859562009741_" d="M67.7,120c2.4-60,81.2-73,81.2-73l-5.8-15.4
							C50.8,68.2,67.7,120,67.7,120"/>
					</defs>
					<clipPath id="SVGID_00000060735411653401098460000000371345027979971242_">
						<use xlink:href="#SVGID_00000057147164339328404490000010772263859562009741_"  overflow="visible"/>
					</clipPath>
					<g id="Group_10990_1_" clip-path="url(#SVGID_00000060735411653401098460000000371345027979971242_)">
						<g id="Group_10758_1_">
							<g id="Group_10757_1_">
								<g>
									<g>
										
											<rect id="SVGID_230_" x="-47.4" y="103.3" transform="matrix(0.7976 -0.6032 0.6032 0.7976 -97.6762 45.0715)" fill="#FFFFFF" width="131.5" height="129.6"/>
									</g>
									<g>
										<g>
											
												<rect id="SVGID_4_" x="-47.4" y="103.3" transform="matrix(0.7976 -0.6032 0.6032 0.7976 -97.6762 45.0715)" fill="#FFFFFF" width="131.5" height="129.6"/>
										</g>
										<g>
											<g>
												<defs>
													
														<rect id="SVGID_00000017483486176496969690000000971464908340653224_" x="-47.4" y="103.3" transform="matrix(0.7976 -0.6032 0.6032 0.7976 -97.6762 45.0715)" width="131.5" height="129.6"/>
												</defs>
												<clipPath id="SVGID_00000051348132241870621360000004713015209257160362_">
													<use xlink:href="#SVGID_00000017483486176496969690000000971464908340653224_"  overflow="visible"/>
												</clipPath>
												<g id="Group_10756_1_" clip-path="url(#SVGID_00000051348132241870621360000004713015209257160362_)">
													<path id="Path_54308_1_" fill="#FFFFFF" d="M110.1,188.1L25.9,76.6h2.4l81.8,108.1V188.1z"/>
												</g>
											</g>
										</g>
									</g>
								</g>
							</g>
						</g>
					</g>
				</g>
			</g>
		</g>
	</g>
	<g>
		<g>
			<path id="SVGID_246_" fill="#FFFFFF" d="M74.7,81.8c22.4-41.5,80.9-54.5,80.9-54.5l-3-7.3C88.9,41.8,74.7,81.8,74.7,81.8"/>
		</g>
	</g>
	<g>
		<g>
			<path id="SVGID_1_" fill="#FFFFFF" d="M67.1,102.4L67.1,102.4c12.4-53,65.4-71.5,65.4-71.5l-2.4-5.1
				C69.5,55.1,67.1,102.1,67.1,102.4"/>
		</g>
	</g>
	<path id="SVGID_379_" fill="#FFFFFF" d="M67.7,105.7L67.7,105.7c7.6-23.9,24.8-43.6,47.6-54.2l-1.5-7.9
		C71.4,60.3,67.7,105.7,67.7,105.7"/>
	<path fill="#FFFFFF" d="M140.7,95.4c-18.8,4.5-42.4,20-59.1,40c-7.3-5.5-10.3-14.8-8.5-23.6c0,0,4.8-26.7,60.9-53L131,47
		c0,0-72.1,33.9-63.3,73c1.5,7.3,6.4,13.6,12.7,17.3C75.9,143,72,149.3,68.6,156c4.2-6.1,9.1-12.1,14.2-17.3
		c26.7,13.3,77.5,0,86.6-17C181.3,100,165.6,89.4,140.7,95.4z M132.5,140.2c-7.3,2.1-14.8,3.3-22.7,3.3c-9.1,0.6-17.9-1.8-25.4-6.7
		c10.9-11.2,26.4-23.9,44.2-28.5c34.2-8.2,39.1,2.4,39.1,2.4S171.9,129,132.5,140.2z"/>
	<path id="SVGID_90_" fill="#FFFFFF" d="M95,81.8l-8.2,5.1l-12.7,17l-2.7,14.2c0,0,2.4,10.3,2.7,10.3s5.5,6.4,5.5,6.4l5.5,3l5.8,2.7
		l6.7,1.8l6.7,0.9c6.4,0.3,12.7,0,19.1-0.9l12.4-2.7l23.6-10l10-9.1l3-7.3l-4.5-2.1c0,0-28.5,31.2-66.9,18.5s-4.5-47.6-4.5-47.6
		L95,81.8z"/>
	<g>
		<path id="SVGID_107_" fill="#FFFFFF" d="M130.4,86c0,3.3,2.7,5.8,6.1,5.8c3.3,0,5.8-2.7,5.8-6.1s-2.7-5.8-5.8-5.8
			C133.1,80.3,130.4,83,130.4,86"/>
	</g>
</g>
</svg>
