<?xml version="1.0" encoding="utf-8"?>
<!-- Generator: Adobe Illustrator 25.4.1, SVG Export Plug-In . SVG Version: 6.00 Build 0)  -->
<svg version="1.1" id="Layer_1" xmlns="http://www.w3.org/2000/svg" xmlns:xlink="http://www.w3.org/1999/xlink" x="0px" y="0px"
	 viewBox="0 0 240 240" enable-background="new 0 0 240 240" xml:space="preserve">
<rect y="-0.4" fill="#74B34A" width="240" height="240"/>
<g id="Group_8385" transform="translate(-270.404 -156.854)">
	<g id="Group_8364" transform="translate(270.404 156.854)">
		<path id="Path_53530" fill="#FFFFFF" d="M160.1,170.2c0,10.4-6.8,15.8-19.4,15.8c-11.3,0-17.1-4.1-18.5-12.6
			c-0.5-2.3-0.5-4.5-0.5-6.8v-5.4c0-13.1,6.3-18.9,20.3-18.9h13.1l-1.8,5.4h-9.5c-9.9,0-13.1,2.3-13.5,13.5v5.9c0,2.3,0,4.5,0.5,6.3
			c0.9,5.4,4.1,7.2,10.8,7.2c8.6,0,10.4-4.1,10.4-11.7v-2.3h-10.4v-5.4h14.9c2.7,0,4.1,0.5,4.1,2.7L160.1,170.2z"/>
		<path id="Path_53531" fill="#FFFFFF" d="M206.1,168c0,11.7-6.8,18-19.4,18h-1.8c-10.8,0-17.1-4.1-18.9-12.6
			c-0.5-1.8-0.5-3.6-0.5-5.4v-7.7c0-12.2,6.3-18.5,19.4-18.5h1.8c10.8,0,17.1,4.5,18.9,13.1c0.5,2.3,0.5,4.1,0.5,5.9V168z
			 M197.1,160.3c0-1.4,0-3.2-0.5-4.5c-0.5-5-5-9-9.9-8.6l0,0h-1.8c-7.2,0-10.8,4.5-10.8,13.1v7.7c0,1.8,0,3.2,0.5,5
			c0.5,5,5,8.6,9.9,8.1h0.5h1.8c7.2,0,10.4-3.6,10.8-12.6L197.1,160.3z"/>
		<g id="Group_8380" transform="translate(10.566 8.298)">
			<path id="SVGID-4" fill="#FFFFFF" d="M82.8,78.6c-2.7-0.9-6.3,1.4-7.7,5s-0.9,8.1,1.8,9c2.7,0.9,6.3-1.4,7.7-5.4
				c0.9-2.3,0.9-5,0-7.7C84.1,79.5,83.7,78.6,82.8,78.6 M73.7,83.1c2.7-6.8,9-10.8,13.5-9s6.3,9,3.2,15.8s-9,10.8-13.5,9
				c-1.4-0.5-2.7-1.8-3.2-3.2C71.5,91.6,71.5,87.1,73.7,83.1 M94,70c-0.5,0-0.9-0.5-1.4-0.5c0,0-9-1.8-16.7,9.5
				c-0.9,1.4-1.4,2.7-1.8,3.6c-0.5,0.9-0.5,1.4-0.9,2.3c-2.3,6.8-0.9,14,3.2,19.4c0.9,0.9,1.8,1.4,2.7,2.3l0,0
				c7.2,2.7,16.2-2.7,20.3-12.6c2.7-5.9,2.7-12.6,0-18.5C98.1,72.7,96.3,71.4,94,70 M95.8,68.7c0,0,13.5,1.4,11.3,20.3
				c-0.9,8.6-6.3,16.2-14,20.3c-4.5,2.3-10.4,1.8-14.4-1.4c0,0,10.8,10.8,22.5,3.2c0,0,17.6-11.3,11.3-31.5
				c-0.5-0.9-0.5-1.8-1.4-2.7C108,71.8,102.1,68.7,95.8,68.7 M113.8,79.5L113.8,79.5L113.8,79.5z M113.8,79.5
				c4.1,8.6,3.2,18.5-2.7,26.1c-2.7,4.1-6.8,7.2-11.7,8.6c8.6-1.8,15.3-8.6,17.1-17.1c1.4-5.9,0.5-11.7-2.7-16.7
				C114.3,79.9,114.3,79.5,113.8,79.5"/>
		</g>
		<path id="Path_53534" fill="#FFFFFF" d="M124.6,87.8L124.6,87.8L124.6,87.8z"/>
		<path fill="#FFFFFF" d="M138.1,115.7c13.1,9.9,30.6,11.3,45,3.6c-8.6,3.6-17.6,4.1-26.6,1.8c-29.7-8.1-34.7-31.5-35.1-33.3
			C123.7,99,129.5,109,138.1,115.7 M121.9,88.2C121.9,88.2,121.9,87.8,121.9,88.2C121.9,87.8,121.9,88.2,121.9,88.2 M121.9,87.8
			L121.9,87.8L121.9,87.8 M121.9,87.8L121.9,87.8 M124.6,87.3c15.3,35.6,53.6,30.2,53.6,30.2c25.7-2.7,27.9-31.1,27.9-31.1
			c-2.3,9.5-9.5,16.7-18.5,18.9c-15.8,3.2-32-1.4-44.1-12.2c-26.1-24.3-8.6-42.3-8.6-42.3C115.5,69.8,124.6,87.3,124.6,87.3
			 M164.6,49.5c-2.3,5,1.4,11.7,8.6,15.3s14.9,2.7,17.1-2.3s-1.8-11.7-8.6-15.3c-2.7-1.4-5.4-2.3-8.6-2.3
			C169.6,44.5,166.4,46.3,164.6,49.5 M167.3,74.3c-12.2-6.3-18.5-18-14.4-26.1c4.1-8.1,17.6-9.9,29.7-3.6s18.5,18,14.4,26.1
			c-3.2,5-9,8.1-14.9,7.2C177.3,77.9,172.3,77,167.3,74.3 M140.3,48.6c-0.5,0.9-0.9,1.4-1.4,2.3c-6.8,13.1,2.3,30.6,20.3,40.1
			c17.6,9,37.4,6.3,44.1-6.8l0,0c0.9-2.3,1.4-4.1,1.4-6.3c0.5-16.2-12.2-27-18.9-31.5c-0.9-0.9-2.3-1.4-3.6-1.8
			c-1.8-1.4-4.1-2.7-6.8-3.2c-4.1-1.4-8.6-1.8-12.6-1.8C154.3,39.1,146.2,42.3,140.3,48.6"/>
		<path id="Path_53537" fill="#FFFFFF" d="M121.4,88.2C121.4,88.2,121.4,87.8,121.4,88.2C121.4,87.8,121.4,88.2,121.4,88.2"/>
		<path id="Path_53538" fill="#FFFFFF" d="M121.4,87.8L121.4,87.8L121.4,87.8"/>
		<path id="Path_53539" fill="#FFFFFF" d="M121.4,87.8L121.4,87.8"/>
		<path id="Path_53540" fill="#FFFFFF" d="M115.1,161.2c0-13.1-6.3-18.9-20.3-18.9H81.8l1.8,5.4H93c9.9,0,13.1,2.3,13.5,13.5v5.9
			c0,2.3,0,4.5-0.5,6.3c-0.9,5.4-4.1,7.2-10.8,7.2H70.5v-34.2c0-2.3-1.8-4.1-4.1-4.1H54.3c-12.6,0-18.9,6.3-19.4,18.5v7.7
			c0,1.8,0,3.6,0.5,5c1.8,8.6,7.7,12.6,18.9,12.6h7.7c-0.5,7.2-3.2,9.9-8.6,10.4l0,0c0,0.5-1.8,5-1.8,5.4l0,0H52
			c12.2-0.5,18-5.4,19.4-15.8h26.1c11.3,0,17.1-4.1,18.5-12.6c0.5-2.3,0.5-4.5,0.5-6.8L115.1,161.2z M61.5,180.6h-7.7
			c-5,0.9-9.5-2.7-10.4-7.2v-0.5c-0.5-1.8-0.5-3.2-0.5-5v-7.7c0-8.6,3.6-13.1,10.4-13.1h5.4c0.9,0,2.3,0.5,2.3,1.4v0.5L61.5,180.6z
			 M86.7,190.9c-1.8,0-3.2,1.4-3.2,3.2c0,1.8,1.4,3.2,3.2,3.2c1.8,0,3.2-1.4,3.2-3.2l0,0C89.9,192.3,88.5,190.9,86.7,190.9
			L86.7,190.9z"/>
	</g>
</g>
</svg>
