<?xml version="1.0" encoding="utf-8"?>
<!-- Generator: Adobe Illustrator 25.4.1, SVG Export Plug-In . SVG Version: 6.00 Build 0)  -->
<svg version="1.1" id="Layer_1" xmlns="http://www.w3.org/2000/svg" xmlns:xlink="http://www.w3.org/1999/xlink" x="0px" y="0px"
	 viewBox="0 0 60 60" enable-background="new 0 0 60 60" xml:space="preserve">
<rect fill="#00A3ED" width="60" height="60"/>
<g>
	<path fill="#FFFFFF" d="M42.1,11.3c0.1,0,0.2,0,0.4,0.1c1.3,0.2,2.4,1.3,2.6,2.6c0,0.2,0.1,0.4,0.1,0.6c0,5.1,0,10.2,0,15.3
		c0,0.1,0,0.2,0,0.4c-0.1,0.4-0.6,0.7-1,0.5c-0.1,0-0.2-0.1-0.3-0.1c-1.7-0.8-3.3-1.5-5-2.3c-0.2-0.1-0.4-0.2-0.6-0.4
		c-0.3-0.3-0.4-0.6-0.5-1.1c0-0.1,0-0.1,0-0.2c0-2.1,0-4.3,0-6.4c0-0.7-0.5-1.4-1.2-1.6c-0.2,0-0.3-0.1-0.5-0.1c-1.9,0-3.8,0-5.8,0
		c-2.1,0-4.2,0-6.3,0c-0.6,0-1,0.2-1.4,0.7c-0.2,0.3-0.3,0.6-0.3,0.9c0,1.6,0,3.1,0,4.7c0,1.3,0.7,2.3,1.9,2.8c1,0.5,2,0.9,2.9,1.3
		c5.8,2.6,11.6,5.2,17.3,7.9c0.1,0,0.1,0,0.2,0.1c0.3,0.2,0.5,0.6,0.4,1s-0.5,0.6-0.9,0.5c-0.6-0.1-1.2-0.3-1.9-0.5
		c-2.4-0.6-4.8-1.2-7.3-1.8c-2.8-0.7-5.5-1.4-8.3-2.1c-2.8-0.7-5.6-1.4-8.3-2.1c-0.3-0.1-0.7-0.2-1-0.3c-1.2-0.3-2.2-1.4-2.3-2.7
		c0-0.2,0-0.3,0-0.5c0-4.7,0-9.4,0-14c0-1.4,0.6-2.3,1.8-3c0.3-0.2,0.7-0.3,1.1-0.3H18"/>
	<path fill="#FFFFFF" d="M13.8,47.3c0-0.1,0-0.3,0.1-0.4c0-0.4,0.1-0.8,0.2-1.2c0.1-0.2,0.2-0.4,0.3-0.6c0.2-0.3,0.6-0.4,0.9-0.2
		c0.3,0.2,0.4,0.6,0.3,0.9v0.1c-0.3,0.4-0.3,0.9-0.3,1.4c0,0.2,0,0.4,0.1,0.5c0.1,0.5,0.5,0.9,1,1c0.3,0.1,0.7,0.1,1,0.1
		c0.4,0,0.7,0,1.1-0.1c0.2-0.1,0.3-0.1,0.5-0.2c0.4-0.3,0.4-0.7,0.1-1c-0.1-0.1-0.2-0.2-0.4-0.2c-0.3-0.1-0.5-0.3-0.8-0.4
		c-0.3-0.2-0.5-0.4-0.4-0.8c0-0.3,0.3-0.4,0.5-0.5c0.1,0,0.2,0,0.4,0.1c0.1,0,0.2,0.1,0.3,0.1c0.4,0.2,0.9,0.3,1.4,0.4
		c0.4,0,0.7,0,1.1,0c0.5,0,1-0.4,1.1-0.9c0-0.1,0-0.2,0-0.3c0-1.6,0-3.1,0-4.7c0-0.1,0-0.2,0-0.3c0.1-0.3,0.4-0.5,0.8-0.5
		c0.3,0,0.6,0.3,0.6,0.7v0.1c0,1.6,0,3.1,0,4.7c0,0.1,0,0.2,0,0.3c0.1,0.5,0.5,0.9,1,0.9c0.2,0,0.5,0,0.7,0c0.7,0,1.1-0.5,1.1-1.2
		c0-0.5,0-0.9,0-1.4c0-0.1,0-0.3,0.1-0.4c0.2-0.3,0.5-0.4,0.8-0.3c0.3,0.1,0.5,0.3,0.5,0.7c0,0.6,0,1.1,0,1.7c0,0.7-0.3,1.3-0.9,1.7
		c-0.4,0.3-0.8,0.5-1.3,0.5c-0.5,0.1-1,0.1-1.5,0s-1-0.3-1.3-0.7c0,0,0,0,0-0.1c0,0-0.1,0-0.1,0.1c-0.3,0.5-0.8,0.7-1.3,0.7
		c-0.3,0-0.6,0-1,0h-0.1c0,0,0,0,0,0.1c0.2,0.7,0,1.3-0.5,1.7c-0.3,0.3-0.8,0.5-1.2,0.7c-0.6,0.2-1.3,0.2-2,0.2
		c-0.5,0-1-0.1-1.4-0.4c-0.9-0.4-1.4-1.2-1.5-2.2C13.8,47.6,13.8,47.5,13.8,47.3"/>
	<g>
		<path fill="#FFFFFF" d="M38.4,46.3c0.2,0,0.3,0,0.5,0c0.1,0,0.1,0,0.1-0.1c0-0.3,0-0.6-0.1-0.8c0-0.1-0.1-0.3-0.2-0.4
			c-0.1-0.2-0.3-0.3-0.5-0.4c-0.2,0-0.3,0-0.5,0c-0.3,0.1-0.6,0.3-0.6,0.6c-0.1,0.6,0.1,1,0.7,1.1C38,46.3,38.2,46.3,38.4,46.3
			 M45,45.6c0-0.2,0-0.4-0.1-0.6c-0.1-0.2-0.2-0.4-0.5-0.4c-0.4-0.1-0.7,0-1,0.3c-0.1,0.2-0.2,0.3-0.3,0.5s-0.2,0.5-0.3,0.7
			c0,0.1,0,0.1,0,0.2c0.4,0.3,0.8,0.4,1.2,0.3c0.3,0,0.6-0.2,0.7-0.5C44.9,45.9,45,45.7,45,45.6 M46.2,45.8L46.2,45.8
			c0,0.4-0.1,0.8-0.3,1.1c-0.3,0.6-0.9,1-1.5,1.1c-0.5,0.1-0.9,0.1-1.4-0.1c-0.3-0.1-0.6-0.3-0.9-0.6c0-0.1-0.1-0.1-0.2,0
			c-0.4,0.3-0.9,0.4-1.5,0.4h-0.1c-0.1,0-0.1,0-0.1,0.1c0,0.2-0.1,0.4-0.1,0.6c-0.2,0.8-0.6,1.4-1.3,1.7c-0.4,0.2-0.8,0.3-1.2,0.3
			c-0.5,0-0.9,0-1.4,0c-0.3-0.1-0.6-0.4-0.5-0.7c0-0.3,0.3-0.6,0.7-0.5c0.3,0.1,0.7,0.1,1,0c0.1,0,0.3,0,0.4-0.1
			c0.5-0.2,0.8-0.5,1-1.1c0-0.1,0.1-0.2,0-0.3c-0.1,0-0.2,0-0.3,0c-0.4,0-0.8,0-1.2-0.1c-0.1,0-0.2-0.1-0.4-0.1
			c-0.6-0.2-0.9-0.6-1.1-1.2c-0.1-0.6-0.1-1.2,0.1-1.8c0.3-0.7,0.7-1.2,1.5-1.3c0.8-0.2,1.7,0.1,2.2,0.9c0.3,0.4,0.4,0.9,0.5,1.4
			c0,0.2,0.1,0.5,0.1,0.7c0,0.1,0,0.1,0.1,0.1c0.2,0,0.3,0,0.5,0c0.2-0.1,0.4-0.2,0.6-0.4c0.1-0.2,0.2-0.4,0.3-0.6
			c0.1-0.3,0.3-0.7,0.4-1c0.1-0.2,0.2-0.4,0.4-0.5c0.5-0.6,1.1-0.7,1.8-0.7c1,0.1,1.6,0.8,1.8,1.7c0,0.1,0,0.3,0.1,0.4"/>
	</g>
	<path fill="#FFFFFF" d="M29.3,43c0-0.9,0-1.7,0-2.6c0-0.1,0-0.1,0-0.2c0-0.4,0.4-0.7,0.7-0.6c0.4,0,0.7,0.3,0.7,0.7v0.1
		c0,1.7,0,3.3,0,5c0,0.1,0,0.2,0,0.3c0.1,0.2,0.2,0.4,0.4,0.5c0.1,0.1,0.3,0.1,0.4,0.1c0.2,0,0.4,0,0.6,0c0.6,0,1.1-0.5,1.1-1.1
		c0-0.5,0-0.9,0-1.4c0-0.1,0-0.2,0-0.3c0.1-0.3,0.5-0.5,0.8-0.5s0.6,0.3,0.6,0.7c0,0.6,0,1.2,0,1.8c-0.1,1.1-0.8,1.9-1.9,2.1
		c-0.7,0.1-1.4,0.1-2,0c-0.2-0.1-0.4-0.1-0.6-0.3c-0.5-0.3-0.7-0.7-0.8-1.3c0-0.2,0-0.4,0-0.7C29.3,44.6,29.3,43.8,29.3,43"/>
	<path fill="#FFFFFF" d="M17,51.8c0,0.4-0.4,0.8-0.9,0.8s-0.8-0.4-0.8-0.8c0-0.5,0.4-0.8,0.8-0.8C16.6,51,17,51.4,17,51.8"/>
	<path fill="#FFFFFF" d="M25.7,49.1c0,0.5-0.4,0.8-0.8,0.8c-0.5,0-0.9-0.4-0.9-0.8c0-0.4,0.4-0.8,0.9-0.8
		C25.3,48.3,25.7,48.7,25.7,49.1"/>
	<path fill="#FFFFFF" d="M17.3,51.8c0-0.5,0.4-0.8,0.8-0.8c0.5,0,0.8,0.4,0.9,0.8c0,0.5-0.4,0.8-0.9,0.8
		C17.7,52.7,17.3,52.3,17.3,51.8"/>
	<path fill="#FFFFFF" d="M33.4,49.2c0,0.5-0.4,0.8-0.8,0.8c-0.5,0-0.8-0.4-0.8-0.8c0-0.5,0.4-0.8,0.8-0.8S33.4,48.7,33.4,49.2"/>
	<path fill="#FFFFFF" d="M26.1,49.1c0-0.5,0.4-0.8,0.8-0.8c0.5,0,0.8,0.4,0.8,0.9c0,0.4-0.4,0.8-0.8,0.8S26.1,49.6,26.1,49.1"/>
</g>
</svg>
