<svg width="75" height="75" viewBox="0 0 75 75" fill="none" xmlns="http://www.w3.org/2000/svg">
<path d="M52.3702 14.0566C52.4946 14.0566 52.619 14.0566 52.8678 14.181C54.4849 14.4298 55.8532 15.7982 56.102 17.4153C56.102 17.6641 56.2264 17.9129 56.2264 18.1617C56.2264 24.5058 56.2264 30.8499 56.2264 37.1941C56.2264 37.3185 56.2264 37.4429 56.2264 37.6917C56.102 38.1892 55.4801 38.5624 54.9825 38.3136C54.8581 38.3136 54.7337 38.1892 54.6093 38.1892C52.4946 37.1941 50.5043 36.3233 48.3896 35.3282C48.1408 35.2038 47.892 35.0794 47.6432 34.8306C47.27 34.4574 47.1456 34.0842 47.0212 33.4622C47.0212 33.3378 47.0212 33.3378 47.0212 33.2134C47.0212 30.6012 47.0212 27.8645 47.0212 25.2522C47.0212 24.3814 46.3992 23.5107 45.5285 23.2619C45.2797 23.2619 45.1553 23.1375 44.9065 23.1375C42.543 23.1375 40.1795 23.1375 37.6916 23.1375C35.0793 23.1375 32.467 23.1375 29.8547 23.1375C29.1084 23.1375 28.6108 23.3863 28.1132 24.0082C27.8644 24.3814 27.74 24.7546 27.74 25.1278C27.74 27.1181 27.74 28.984 27.74 30.9743C27.74 32.5915 28.6108 33.8354 30.1035 34.4574C31.3475 35.0794 32.5914 35.5769 33.711 36.0745C40.9259 39.3088 48.1408 42.5431 55.2313 45.9017C55.3557 45.9017 55.3557 45.9017 55.4801 46.0261C55.8532 46.2749 56.102 46.7725 55.9776 47.2701C55.8532 47.7676 55.3557 48.0164 54.8581 47.892C54.1117 47.7676 53.3654 47.5188 52.4946 47.2701C49.5091 46.5237 46.5236 45.7773 43.4138 45.0309C39.9307 44.1602 36.5721 43.2894 33.089 42.4187C29.606 41.5479 26.1229 40.6771 22.7642 39.8064C22.3911 39.682 21.8935 39.5576 21.5203 39.4332C20.0276 39.06 18.7836 37.6917 18.6592 36.0745C18.6592 35.8257 18.6592 35.7013 18.6592 35.4525C18.6592 29.606 18.6592 23.7594 18.6592 18.0373C18.6592 16.2958 19.4056 15.1762 20.8983 14.3054C21.2715 14.0566 21.7691 13.9323 22.2667 13.9323H22.3911" fill="#00A3ED"/>
<path d="M17.1665 58.8388C17.1665 58.7144 17.1665 58.4656 17.2909 58.3412C17.2909 57.8436 17.4153 57.346 17.5397 56.8485C17.6641 56.5997 17.7884 56.3509 17.9128 56.1021C18.1616 55.7289 18.6592 55.6045 19.0324 55.8533C19.4056 56.1021 19.53 56.5997 19.4056 56.9729V57.0973C19.0324 57.5948 19.0324 58.2168 19.0324 58.8388C19.0324 59.0876 19.0324 59.3364 19.1568 59.4607C19.2812 60.0827 19.7788 60.5803 20.4007 60.7047C20.7739 60.8291 21.2715 60.8291 21.6447 60.8291C22.1423 60.8291 22.5154 60.8291 23.013 60.7047C23.2618 60.5803 23.3862 60.5803 23.635 60.4559C24.1326 60.0827 24.1326 59.5851 23.7594 59.212C23.635 59.0876 23.5106 58.9632 23.2618 58.9632C22.8886 58.8388 22.6398 58.59 22.2667 58.4656C21.8935 58.2168 21.6447 57.968 21.7691 57.4704C21.7691 57.0973 22.1423 56.9729 22.3911 56.8485C22.5154 56.8485 22.6398 56.8485 22.8886 56.9729C23.013 56.9729 23.1374 57.0973 23.2618 57.0973C23.7594 57.346 24.3814 57.4704 25.0033 57.5948C25.5009 57.5948 25.8741 57.5948 26.3717 57.5948C26.9937 57.5948 27.6156 57.0973 27.74 56.4753C27.74 56.3509 27.74 56.2265 27.74 56.1021C27.74 54.1118 27.74 52.2459 27.74 50.2555C27.74 50.1311 27.74 50.0067 27.74 49.8823C27.8644 49.5092 28.2376 49.2604 28.7352 49.2604C29.1084 49.2604 29.4816 49.6336 29.4816 50.1311V50.2555C29.4816 52.2459 29.4816 54.1118 29.4816 56.1021C29.4816 56.2265 29.4816 56.3509 29.4816 56.4753C29.606 57.0973 30.1035 57.5948 30.7255 57.5948C30.9743 57.5948 31.3475 57.5948 31.5963 57.5948C32.467 57.5948 32.9646 56.9729 32.9646 56.1021C32.9646 55.4801 32.9646 54.9825 32.9646 54.3606C32.9646 54.2362 32.9646 53.9874 33.089 53.863C33.3378 53.4898 33.711 53.3654 34.0842 53.4898C34.4573 53.6142 34.7061 53.863 34.7061 54.3606C34.7061 55.1069 34.7061 55.7289 34.7061 56.4753C34.7061 57.346 34.333 58.0924 33.5866 58.59C33.089 58.9632 32.5914 59.212 31.9695 59.212C31.3475 59.3364 30.7255 59.3364 30.1035 59.212C29.4816 59.0876 28.8596 58.8388 28.4864 58.3412C28.4864 58.3412 28.4864 58.3412 28.4864 58.2168C28.4864 58.2168 28.362 58.2168 28.362 58.3412C27.9888 58.9632 27.3668 59.212 26.7449 59.212C26.3717 59.212 25.9985 59.212 25.5009 59.212H25.3765C25.3765 59.212 25.3765 59.212 25.3765 59.3364C25.6253 60.2071 25.3765 60.9535 24.7546 61.4511C24.3814 61.8243 23.7594 62.073 23.2618 62.3218C22.5154 62.5706 21.6447 62.5706 20.7739 62.5706C20.1519 62.5706 19.53 62.4462 19.0324 62.073C17.9128 61.5755 17.2909 60.5803 17.1665 59.3364C17.1665 59.212 17.1665 59.0876 17.1665 58.8388Z" fill="#00A3ED"/>
<path d="M47.7676 57.5948C48.0164 57.5948 48.1408 57.5948 48.3896 57.5948C48.514 57.5948 48.514 57.5948 48.514 57.4704C48.514 57.0972 48.514 56.724 48.3896 56.4752C48.3896 56.3508 48.2652 56.102 48.1408 55.9776C48.0164 55.7288 47.7676 55.6045 47.5188 55.4801C47.27 55.4801 47.1456 55.4801 46.8968 55.4801C46.5236 55.6045 46.1505 55.8532 46.1505 56.2264C46.0261 56.9728 46.2749 57.4704 47.0212 57.5948C47.27 57.5948 47.5188 57.5948 47.7676 57.5948ZM55.9777 56.724C55.9777 56.4752 55.9777 56.2264 55.8533 55.9776C55.7289 55.7288 55.6045 55.4801 55.2313 55.4801C54.7337 55.3557 54.3605 55.4801 53.9873 55.8532C53.8629 56.102 53.7385 56.2264 53.6141 56.4752C53.4898 56.724 53.3654 57.0972 53.241 57.346C53.241 57.4704 53.241 57.4704 53.241 57.5948C53.7385 57.968 54.2361 58.0923 54.7337 57.968C55.1069 57.968 55.4801 57.7192 55.6045 57.346C55.8533 57.0972 55.9777 56.8484 55.9777 56.724ZM57.4704 56.9728C57.4704 57.4704 57.346 57.968 57.0972 58.3411C56.724 59.0875 55.9777 59.5851 55.2313 59.7095C54.6093 59.8339 54.1117 59.8339 53.4898 59.5851C53.1166 59.4607 52.7434 59.2119 52.3702 58.8387C52.3702 58.7143 52.2458 58.7143 52.1214 58.8387C51.6238 59.2119 51.0019 59.3363 50.2555 59.3363H50.1311C50.0067 59.3363 50.0067 59.3363 50.0067 59.4607C50.0067 59.7095 49.8823 59.9583 49.8823 60.2071C49.6335 61.2022 49.1359 61.9486 48.2652 62.3218C47.7676 62.5706 47.27 62.695 46.7724 62.695C46.1505 62.695 45.6529 62.695 45.0309 62.695C44.6577 62.5706 44.2845 62.1974 44.4089 61.8242C44.4089 61.451 44.7821 61.0778 45.2797 61.2022C45.6529 61.3266 46.1505 61.3266 46.5236 61.2022C46.648 61.2022 46.8968 61.2022 47.0212 61.0778C47.6432 60.829 48.0164 60.4559 48.2652 59.7095C48.2652 59.5851 48.3896 59.4607 48.2652 59.3363C48.1408 59.3363 48.0164 59.3363 47.892 59.3363C47.3944 59.3363 46.8968 59.3363 46.3993 59.2119C46.2749 59.2119 46.1505 59.0875 45.9017 59.0875C45.1553 58.8387 44.7821 58.3411 44.5333 57.5948C44.4089 56.8484 44.4089 56.102 44.6577 55.3557C45.0309 54.4849 45.5285 53.8629 46.5236 53.7385C47.5188 53.4897 48.6384 53.8629 49.2603 54.8581C49.6335 55.3557 49.7579 55.9776 49.8823 56.5996C49.8823 56.8484 50.0067 57.2216 50.0067 57.4704C50.0067 57.5948 50.0067 57.5948 50.1311 57.5948C50.3799 57.5948 50.5043 57.5948 50.7531 57.5948C51.0019 57.4704 51.2507 57.346 51.4994 57.0972C51.6238 56.8484 51.7482 56.5996 51.8726 56.3508C51.997 55.9776 52.2458 55.4801 52.3702 55.1069C52.4946 54.8581 52.619 54.6093 52.8678 54.4849C53.4898 53.7385 54.2361 53.6141 55.1069 53.6141C56.3508 53.7385 57.0972 54.6093 57.346 55.7288C57.346 55.8532 57.346 56.102 57.4704 56.2264" fill="#00A3ED"/>
<path d="M36.4477 53.4897C36.4477 52.3702 36.4477 51.375 36.4477 50.2555C36.4477 50.1311 36.4477 50.1311 36.4477 50.0067C36.4477 49.5091 36.9452 49.1359 37.3184 49.2603C37.816 49.2603 38.1892 49.6335 38.1892 50.1311V50.2555C38.1892 52.3702 38.1892 54.3605 38.1892 56.4752C38.1892 56.5996 38.1892 56.724 38.1892 56.8484C38.3136 57.0972 38.438 57.346 38.6868 57.4704C38.8112 57.5948 39.06 57.5948 39.1843 57.5948C39.4331 57.5948 39.6819 57.5948 39.9307 57.5948C40.6771 57.5948 41.2991 56.9728 41.2991 56.2264C41.2991 55.6045 41.2991 55.1069 41.2991 54.4849C41.2991 54.3605 41.2991 54.2361 41.2991 54.1117C41.4235 53.7385 41.921 53.4897 42.2942 53.4897C42.6674 53.4897 43.0406 53.8629 43.0406 54.3605C43.0406 55.1069 43.0406 55.8532 43.0406 56.5996C42.9162 57.968 42.0454 58.9631 40.6771 59.2119C39.8063 59.3363 38.9356 59.3363 38.1892 59.2119C37.9404 59.0875 37.6916 59.0875 37.4428 58.8387C36.8208 58.4655 36.5721 57.968 36.4477 57.2216C36.4477 56.9728 36.4477 56.724 36.4477 56.3508C36.4477 55.4801 36.4477 54.4849 36.4477 53.4897Z" fill="#00A3ED"/>
<path d="M21.1471 64.4364C21.1471 64.934 20.6495 65.4316 20.0276 65.4316C19.4056 65.4316 19.0324 64.934 19.0324 64.4364C19.0324 63.8145 19.53 63.4413 20.0276 63.4413C20.6495 63.4413 21.1471 63.9389 21.1471 64.4364Z" fill="#00A3ED"/>
<path d="M31.9695 61.0778C31.9695 61.6998 31.4719 62.073 30.9743 62.073C30.3523 62.073 29.8548 61.5754 29.8548 61.0778C29.8548 60.5802 30.3523 60.0826 30.9743 60.0826C31.4719 60.0826 31.9695 60.5802 31.9695 61.0778Z" fill="#00A3ED"/>
<path d="M21.5203 64.4364C21.5203 63.8145 22.0179 63.4413 22.5155 63.4413C23.1374 63.4413 23.5106 63.9389 23.635 64.4364C23.635 65.0584 23.1374 65.4316 22.5155 65.4316C22.0179 65.556 21.5203 65.0584 21.5203 64.4364Z" fill="#00A3ED"/>
<path d="M41.5479 61.2022C41.5479 61.8242 41.0503 62.1973 40.5527 62.1973C39.9307 62.1973 39.5575 61.6998 39.5575 61.2022C39.5575 60.5802 40.0551 60.207 40.5527 60.207C41.0503 60.207 41.5479 60.5802 41.5479 61.2022Z" fill="#00A3ED"/>
<path d="M32.467 61.0778C32.467 60.4558 32.9646 60.0826 33.4622 60.0826C34.0842 60.0826 34.4574 60.5802 34.4574 61.2022C34.4574 61.6998 33.9598 62.1974 33.4622 62.1974C32.9646 62.1974 32.467 61.6998 32.467 61.0778Z" fill="#00A3ED"/>
</svg>
