<?xml version="1.0" encoding="utf-8"?>
<!-- Generator: Adobe Illustrator 25.4.1, SVG Export Plug-In . SVG Version: 6.00 Build 0)  -->
<svg version="1.1" id="Layer_1" xmlns="http://www.w3.org/2000/svg" xmlns:xlink="http://www.w3.org/1999/xlink" x="0px" y="0px"
	 viewBox="0 0 240 240" enable-background="new 0 0 240 240" xml:space="preserve">
<rect y="-0.4" fill="#001136" width="240" height="240"/>
<g>
	<g>
		<path fill="#FFFFFF" d="M158.9,110.4c-1.4,2.4-3.4,4.2-5.9,5.4c-2.2,1.3-4.8,1.9-7.4,1.9h-20.5c-0.5,0-0.7,0-0.7-0.7V71.8
			c0-0.4,0-0.7,0.6-0.7h19c3.4,0,6.7,1.1,9.3,3.3c2.4,2,3.8,4.8,4.1,7.9c0.2,1.4,0.2,2.8,0,4.2c0,0.5,0,0.5,0.5,0.5h29.9
			c0.4,0,0.5,0,0.4-0.4c-0.1-0.4,0-0.7,0-1V69.5c0-0.5,0-0.7,0.7-0.7h26.6c0.6,0,0.7,0.2,0.7,0.7v47.8c0,0.5-0.2,0.6-0.7,0.6h-31.8
			c-0.4,0-0.7,0-1.1,0c-1.8,0-3.5,0.4-5.1,1c-4.5,1.1-9.3,0.4-13.4-1.9c-2.4-1.3-4.1-3.4-5-6L158.9,110.4 M86.1,109.3
			c-0.2,0.2-0.4,0.4-0.5,0.7c-3,5.3-8.6,8.6-14.7,8.5c-2.2,0.1-4.3-0.2-6.4-0.9c-0.2-0.1-0.5-0.1-0.7,0H24.6c-0.5,0-0.7,0-0.7-0.7
			V72.6c0-0.6,0-1.4,0.2-1.8c0.2-0.4,1.1,0,1.8,0h18.6c6.8,0.3,12.5,5.3,13.6,12c0.5,2.7,0.3,5.4-0.6,8v0.4c0.7-0.6,1.1-1.3,1.7-1.8
			c2.8-2.5,6.5-3.9,10.3-3.9c2.8-0.2,5.7,0.3,8.4,1.5c3.2,1.6,5.7,4.4,7.1,7.8l0.4,0.8v0.1c1.2-3.9,3.9-7.1,7.6-8.8
			c3.8-1.5,7.9-1.6,11.7-0.4V69.3c0-0.7,0.2-0.8,0.8-0.8h12.6c0.5,0,0.7,0,0.7,0.7V117c0,0.5,0,0.6-0.6,0.6h-15.1
			c-1.4,0-2.8,0.4-4.2,0.3c-5.6,0.1-10.7-3.3-12.8-8.5v-0.2"/>
		<path fill="#BA013E" d="M151,92.6c1.3,0.6,2.5,1.3,3.6,2.2c2.6,2.2,3.9,5.6,3.4,9c-0.5,5.8-5,10.4-10.8,11.1
			c-0.7,0.1-1.4,0.1-2.1,0H128c-0.5,0-0.7-0.1-0.7-0.7V74.7c0-0.6,0-0.8,0.7-0.8h14.9c1.6,0,3.1,0.2,4.7,0.7
			c3.7,1.1,6.4,4.4,6.7,8.2c0.5,3.2-0.5,6.4-2.8,8.8l-0.7,0.7 M160.9,98.6v-7.9c0-0.9,0-0.9,0.9-0.9h6.8c0.5,0,0.7,0.2,0.7,0.7v14
			c-0.1,2.5,2,4.5,4.5,4.6c0.1,0,0.1,0,0.2,0c2.5,0,4.6-2,4.6-4.5V90.7c0-0.5,0-0.7,0.7-0.7h6.9c0.4,0,0.6,0,0.6,0.6v15.7
			c-0.1,3.4-2,6.5-5,8.1c-5.3,3.1-12,2.8-16.9-0.9c-2.4-1.8-3.8-4.6-3.8-7.6v-7.3 M205,93.5v-21c0-0.5,0.1-0.7,0.7-0.7h7
			c0.5,0,0.6,0.2,0.6,0.7v41.7c0,0.6-0.1,0.7-0.7,0.7h-6.8c-0.7,0-0.7-0.2-0.7-0.8V93.2L205,93.5z M191.1,93.5V72.6
			c0-0.7,0.2-0.8,0.8-0.8h6.9c0.4,0,0.7,0,0.7,0.6v42.1c0,0.5-0.2,0.7-0.7,0.7h-7c-0.5,0-0.7-0.2-0.7-0.7L191.1,93.5 M57.7,114.9
			h-10c-0.2,0-0.5-0.1-0.6-0.4l-8.4-12.8c-0.2-0.2-0.2-0.5-0.2-0.8v-8.8c0-0.4,0-0.6,0.6-0.6c1,0.1,2.1,0,3.1-0.2
			c2.8-0.5,4.7-3.3,4.2-6.2c-0.1-0.7-0.4-1.3-0.8-1.9c-1-1.5-2.7-2.5-4.5-2.4h-4.8c-0.5,0-0.6,0.2-0.6,0.6v32.8c0,0.5,0,0.7-0.7,0.7
			h-7.3c-0.5,0-0.7-0.2-0.7-0.7V74.2c0-0.5,0.1-0.7,0.7-0.7h15.6c6.2,0.1,11.4,4.9,12,11.1c0.5,5.7-3.1,11.1-8.7,12.7
			c-0.6,0.2-0.7,0.3-0.3,0.8l11.1,15.8l0.5,0.8 M107.8,91.7V72c0-0.7,0.2-0.8,0.8-0.8h6.8c0.5,0,0.7,0,0.7,0.7v42.2
			c0,0.5,0,0.7-0.7,0.7h-7c-0.4,0-0.6,0-0.6-0.6v-2.5h-0.2c-4.7,4.5-12,4.3-16.5-0.4c-0.7-0.7-1.2-1.4-1.6-2.2
			c-3.8-6.2-2.4-14.3,3.4-18.8c4.3-3.1,10.1-2.8,14.1,0.5L107.8,91.7"/>
		<path fill="#BA013E" d="M74.2,103.8h-8.4c-0.5,0-0.7,0-0.7,0.7c0.3,2.7,2.6,4.7,5.3,4.7c2.1,0.1,4.1-0.9,5.2-2.8
			c0.2-0.3,0.4-0.4,0.7-0.2l5.8,2.8c0.4,0.2,0.4,0.4,0.2,0.7c-1.8,3-4.8,5-8.2,5.7c-7.4,2.1-15.1-2.1-17.2-9.4
			c-2.1-7.4,2.1-15.1,9.4-17.2c4.6-1.3,9.5-0.2,13.1,2.9c2.2,2.1,3.6,4.9,3.8,7.9c0.1,1.2,0.1,2.4,0,3.6c0,0.5-0.1,0.7-0.7,0.7H74.2
			"/>
		<path fill="#FFFFFF" d="M136.1,94.5V82.1c0-1.1,0-0.9,1-0.9h4.8c2.4,0.1,4.3,2,4.2,4.4c-0.1,2.4-2,4.3-4.4,4.2h-2.4
			c-0.8,0-0.7,0-0.7,0.6v6.2c0,0.4,0,0.6,0.6,0.6h5.1c2.9,0.4,4.9,3,4.5,5.9c-0.3,2.5-2.3,4.4-4.8,4.6h-7.6c-0.5,0-0.4-0.4-0.4-0.7
			V94.3"/>
		<path fill="#FFFFFF" d="M107.9,101.8c0.2,3.3-2.3,6.2-5.6,6.6c-2.3,0.2-4.5-0.9-5.6-3c-1.7-2.9-1.1-6.6,1.4-8.8
			c2.5-2.1,6.1-1.7,8.2,0.7c0.5,0.6,0.8,1.3,1.1,2c0.1,0.4,0.2,0.7,0.3,1.1c0.1,0.4,0.1,0.8,0,1.3"/>
		<path fill="#FFFFFF" d="M70.1,99h-4.5c-0.4,0-0.5,0-0.5-0.5c0.3-2.7,2.8-4.7,5.5-4.5c2.4,0.2,4.2,2.1,4.5,4.5
			c0,0.5-0.1,0.5-0.5,0.5H70.1"/>
	</g>
	<g>
		<path fill="#FFFFFF" d="M110.9,158.2c-0.6-0.1-1,0.3-1.2,0.8c-0.9,2.2-2.3,4.2-4.1,5.8c-5.7,5.1-14.1,5.9-20.7,1.8
			c-1.2-0.7-2.3-1.7-3.3-2.7c0.6-0.4,1.3-0.2,1.8-0.5v-0.1c0.1,0,0.3-0.1,0.4-0.2l0.4-0.7c0.2,0.5,0.6,0.9,1.1,0.9s1,0,1.4-0.1
			c0.8-0.3,1.7-0.4,2.5-0.3c0.3,0,0.6,0,0.9-0.1l0,0c0.2-0.1,0.4-0.1,0.6-0.3c0.1-0.1,0.4-0.1,0.6,0c0.9,0.7,2,1,3.2,0.9
			c0.3,0,0.5-0.1,0.7-0.3c0.1-0.1,0.2-0.2,0.3-0.4c0.1-0.3,0.3-0.4,0.5-0.6c0.2-0.1,0.4-0.3,0.5-0.5c0.2-0.4,0-0.9-0.5-1.1
			c-0.3-0.2-0.6-0.4-0.9-0.7c-0.2-0.3-0.4-0.6-0.6-0.9c-0.1-0.3-0.4-0.6-0.6-0.9c-0.2-0.3-0.4-0.5-0.5-0.9c-0.4-1.1-0.7-2.3-0.9-3.4
			c0-0.1,0-0.3,0-0.4c-0.1-1-0.5-2-1.1-2.8l-0.9-1.1c0,0,0,0,0,0c0,0-0.1,0-0.1,0l0-0.1c-0.9-1.2-2-2.3-3.3-3.3
			c-0.1-0.1-0.3-0.2-0.4-0.3l-0.2-0.2c-0.1-0.1-0.2-0.2-0.3-0.3l-0.6-0.4l-0.6-0.4l-0.4-0.2c-0.3-0.2-0.7-0.3-1.1-0.4
			c-0.5-0.1-1.1-0.1-1.6,0.1c-0.5,0.1-1,0.3-1.4,0.6c-0.7,0.5-1.4,0.9-2.2,1.2c-1.3,0.3-2.5,0.9-3.4,1.9h-0.1
			c-0.1,0.1-0.1,0.1-0.3,0.1c-0.3,0.1-0.7-0.1-0.8-0.4c-1.5-3.8-3-7.5-4.5-11.2c-0.2-0.6-0.6-1.1-1.2-1.4c-1.3-0.7-2.9-0.3-3.6,1
			c-1.5,2.5-3,5-4.5,7.4c-0.1,0.3-0.3,0.7-0.5,0.7c-0.2,0.1-0.6-0.3-0.8-0.4s-0.3-0.1-0.4,0.1c-0.5,0.8-0.7,1.8-0.4,2.7
			c0,0.2,0,0.4-0.1,0.6l-3.6,5.9l-0.6,1l-0.1-0.2l-7.7-12l-4-6.1c-0.6-0.9-1.7-1.4-2.8-1.2c-1,0.1-1.8,0.8-2.1,1.7l-12.8,30.4
			c-0.5,1.3,0.1,2.8,1.3,3.3c1.3,0.6,2.9,0.1,3.5-1.3l9.4-22l1.7-3.9l0.2,0.4l9.3,14.6c0.6,1,1.3,2,1.9,3c0.4,0.8,1.3,1.3,2.2,1.3
			c0.9,0,1.7-0.5,2.2-1.3l3-4.9c0.3-0.5,0.3-0.5,0.8-0.2c1,0.6,2.2,0.9,3.3,0.7c0.3,0,0.4,0,0.4,0.3c0,0.7,0.2,1.3,0.4,1.9
			c0.1,0.2,0,0.3-0.1,0.3c-0.4,0.1-0.9,0.3-1.4,0.2c-0.3,0-0.7,0.2-0.9,0.5c-0.2,0.3-0.3,0.7-0.4,1c0,0.3-0.2,0.4-0.4,0.6
			c-0.3-0.6-1.1-0.8-1.7-0.6c-0.5,0.2-1,0.6-1.3,1c-0.1,0.1-0.1,0.3-0.3,0.3c-0.5,0.1-0.9,0.5-1,1.1c-0.1,0.4-0.2,0.9-0.4,1.3
			c-0.2,0.4-0.1,0.9,0.2,1.2c0.5,0.3,1.1,0.5,1.7,0.4c0.3-0.1,0.7-0.1,1,0c1.4,0.3,1.8,0.1,2.6-1.1c0.1-0.2,0.1-0.2,0.3-0.2
			c0.9,0.2,1.9-0.1,2.5-0.8c0.4-0.5,1.2-0.7,1.8-0.6c0.6,0.2,1.3,0.2,2,0c1.3-0.6,2.7-1.2,3.2-2.8c0-0.1,0.1-0.1,0.1-0.2
			c0-0.1,0.1-0.2,0.3-0.2c1-0.1,2-0.2,3-0.2c0.4,0,0.6,0.1,0.6,0.5h-0.3c-0.9,0.2-1,0.6-0.7,1.4c0.2,0.4,0.4,0.9,0.7,1.3
			c0.2,0.4,0.6,0.6,1,0.6c0.2,0,0.4,0.1,0.4,0.3c0.3,0.6,0.8,1,1.5,1.2c0.6,0.1,1.2,0.4,1.5,0.9c0.3,0.2,0.5,0.5,0.7,0.7
			c4.5,3.8,10.3,5.5,16.2,4.8c4.9-0.5,9.3-2.9,12.4-6.7c1.2-1.5,2.2-3.2,3-4.9c0-0.1,0.1-0.2,0.1-0.3
			C111.9,158.8,111.5,158.3,110.9,158.2z M69.7,150.1l-0.8,0.1c-1.2,0.1-2.3,0.6-3.3,1.3c-0.6,0.4-1.3,1-1.9,1.3
			c-0.4,0.3-1,0.4-1.5,0.4c-0.6,0-1.1-0.4-1.2-1c0-0.3,0.1-0.5,0.2-0.7c0.2-0.4,0.5-0.7,0.9-1c0.6-0.4,1.1-0.9,1.6-1.4
			c0.6-0.6,0.8-1.5,0.6-2.3c-0.1-0.1-0.1-0.3,0-0.4l2.3-3.8l1.1,2.3c0.7,1.5,1.5,3.1,2.2,4.6C70.1,149.9,70.1,150,69.7,150.1z"/>
		<path fill="#FFFFFF" d="M141.6,151.4c1.2,0.6,2.3,1.4,3.2,2.5c1.7,2.1,2.5,4.8,2.2,7.5c-0.1,1.7-0.7,3.5-1.5,5
			c-1.4,2.5-3.9,4.2-6.8,4.5c-0.8,0.1-1.6,0.1-2.5,0.1h-8c-1.7,0-3.4-0.3-5-1c-2.6-1.2-4.7-3.3-5.8-5.9c-2.2-5.1-4.3-10.3-6.5-15.3
			c-1-2.4-2.3-4.7-4-6.7c-3.1-3.8-7.8-5.9-12.7-5.7c-4.5,0-8.9,1.8-12,5c-0.4,0.4-0.8,0.9-1.2,1.4c-0.1,0.2-0.3,0.3-0.5,0.4
			c-0.4,0.2-0.8,0.1-1.1-0.1c-0.3-0.2-0.4-0.6-0.3-0.9c0.1-0.3,0.2-0.5,0.4-0.7c2.9-3.7,7.1-6.1,11.8-6.8c5-0.9,10.1,0.1,14.4,2.8
			c3.3,2.1,5.9,5.1,7.6,8.6c2.8,5.4,5.4,10.9,8.1,16.3c1.1,2.5,3.6,4.1,6.3,4h8.7c2,0,3.9-0.9,4.9-2.6c1.9-2.9,1-6.8-2-8.7
			c-0.6-0.4-1.4-0.7-2.1-0.9c-0.6-0.1-1.2-0.1-1.7-0.1h-13c-1.3-0.1-2.3-1.3-2.2-2.6c0.1-1.2,1-2.1,2.2-2.2h13.7
			c1.7,0.1,3.3-0.6,4.4-2c1.1-1.5,1.3-3.5,0.4-5.1c-0.7-1.7-2.3-2.8-4.1-2.9c-1-0.1-2,0-2.9,0H114c-0.9,0.1-1.6-0.4-2-1.1
			c-0.5-0.7-0.5-1.7,0-2.5c0.4-0.7,1.1-1.1,1.8-1h21.6c2.9-0.1,5.7,1,7.9,3c1,0.9,1.7,2.1,2.1,3.4c0.6,1.7,0.7,3.5,0.4,5.3
			C145.3,148.7,143.8,150.7,141.6,151.4 M185.6,152.3v-11.4c0-1.1,0.2-2.2,0.7-3.2c1-1.7,2.7-2.8,4.6-3c0.6,0,1.3,0,1.9,0h8.7
			c1.2,0,2.3,1,2.3,2.2c0,0,0,0,0,0.1c0.1,1.2-0.9,2.3-2.1,2.3c-0.1,0-0.1,0-0.2,0h-9.4c-0.9,0-1.7,0.7-1.7,1.7c0,0.1,0,0.1,0,0.2
			v7.8c0,0.3,0,0.4,0.4,0.4h15.9c1.3,0,2.3,1,2.4,2.2c0.1,1.2-0.7,2.4-1.9,2.7c-0.2,0-0.4,0-0.6,0H191c-0.4,0-0.4,0-0.4,0.4v9.1
			c-0.1,0.9,0.5,1.8,1.3,2c0.7,0.3,1.6,0.4,2.3,0.3h18.6c0.9-0.1,1.7,0.4,2.2,1.2c0.5,0.8,0.5,1.7,0,2.5c-0.4,0.7-1.1,1.1-1.9,1.1
			h-18.8c-2.1,0.1-4.1-0.5-5.8-1.6c-1.8-1.2-2.9-3.2-2.9-5.3L185.6,152.3 M165.2,150.2v13c-0.1,1.4,0.9,2.7,2.3,2.9c0,0,0.1,0,0.1,0
			c0.6,0.1,1.2,0.1,1.9,0.1h11.1c1.2,0,2.2,0.9,2.3,2c0.3,1.3-0.6,2.5-1.9,2.8c-0.2,0-0.4,0-0.6,0h-11.5c-2,0.1-3.9-0.4-5.6-1.5
			c-2.2-1.3-3.4-3.7-3.2-6.2v-26.2c-0.1-1.2,0.7-2.3,1.9-2.5c1.3-0.3,2.6,0.4,3,1.8c0,0.2,0.1,0.4,0.1,0.6L165.2,150.2 M155.7,152.8
			v15.5c0,0.4,0,0.9-0.1,1.3c-0.5,1.1-1.7,1.7-2.8,1.5c-1.1-0.2-1.9-1.2-1.9-2.3v-31.8c0-1.4,1.1-2.5,2.5-2.5c1.3,0,2.5,1.1,2.5,2.5
			L155.7,152.8L155.7,152.8z"/>
		<path fill="#1C3260" d="M83.5,163.5l0.4-0.3c0.1-0.1,0.3-0.1,0.5,0c2.7,1.1,5.7,1.3,8.6,0.5l1.3-0.3c0.1,0,0.2,0,0.4,0
			c0.3,0,0.6-0.1,0.8-0.3c0.2-0.2,0.5-0.3,0.8-0.4c1-0.4,1.9-0.9,2.8-1.5c0.5-0.3,1-0.7,1.5-1.2c-0.2,0-0.4,0-0.6,0
			c-0.4,0-0.6-0.3-0.4-0.7c0.1-0.2,0.2-0.3,0.3-0.4c0.4-0.4,0.8-0.7,1.2-1c0.4-0.3,0.6-0.5,0.9-0.7c0.3-0.2,0.7-0.7,1-1
			c0.4-0.4,0.8-0.9,1.1-1.3c0.3-0.4,0.5-0.7,0.7-1.2c0.2-0.3,0.4-0.6,0.5-0.9c0.1-0.3,0.3-0.6,0.4-0.9c0-0.2,0.1-0.4,0.4-0.5
			c0.1,0,0.2,0,0.2,0.1c0,0.1,0,0.3,0,0.4c-0.2,0.6-0.4,1.2-0.7,1.7c0-0.1,0.1-0.4,0.3-0.4c0.2,0.1,0,0.3,0,0.5
			c-0.1,0.2-0.2,0.4-0.3,0.6c-0.1,0.2-0.3,0.4-0.4,0.6l-0.7,0.9c-0.3,0.3-0.6,0.7-0.9,1c-0.5,0.6-0.8,1.3-0.7,2.1
			c0.3,0,0.5-0.3,0.7-0.4l0.8-0.5c0.3-0.1,0.5-0.3,0.7-0.6c0.2-0.3,0.4-0.6,0.6-0.9c0.1-0.1,0.2-0.3,0.3-0.4
			c0.1-0.2,0.2-0.4,0.4-0.6c0.2-0.4,0.3-0.8,0.2-1.2c0-0.7-0.1-1.5-0.2-2.3c0-0.2,0-0.3,0.2-0.4c0.2,0,0.4,0.1,0.5,0.2
			c1.2,0.8,1.9,2.2,1.9,3.6c0,0.5,0,1.1-0.2,1.6c0,0.1,0,0.3-0.1,0.5c-0.1,0.1,0,0.2,0,0.3c-0.2,0.1-0.3,0.4-0.3,0.6
			c-0.1,0-0.2,0.2-0.2,0.3c-0.3,0.8-0.7,1.5-1.2,2.2c-1.4,2.3-3.4,4.1-5.7,5.4c-1.2,0.6-2.3,1.1-3.6,1.5c-0.3,0.1-0.6,0.1-0.9,0
			c4.1-1,7.7-3.5,10.1-7c-0.5,0.2-0.7,0.6-1,0.9c-0.3,0.3-0.4,0.6-0.6,0.8c-0.2,0.2-0.2,0.5-0.5,0.2c0,0-0.2,0-0.3,0.1
			c-0.9,0.5-1.7,1.1-2.5,1.7c-0.2,0-0.4,0.2-0.6,0.3c-0.4,0.3-0.8,0.5-1.2,0.7c-1.6,0.9-3.4,1.5-5.2,1.8h-0.3
			c-0.8,0.1-1.6,0.2-2.5,0.2c-1.3,0.1-2.5-0.1-3.8-0.4c-0.4-0.2-0.9-0.4-1.4-0.6c0.6,0.2,1.1,0.3,1.7,0.3l-2-0.7
			c0.4-0.2,0.9,0,1.3,0c1.4,0.2,2.8,0.3,4.2,0.2c1.2-0.1,2.4-0.3,3.5-0.6c0.1,0,0.3,0,0.6-0.1c-0.3,0.1-0.4,0.1-0.6,0.2
			c-2,0.6-4.1,0.8-6.2,0.5c-0.2,0-0.3,0-0.4-0.2c-0.7-0.1-1.5-0.2-2.2-0.4c-1-0.3-2-0.7-2.8-1.3l-0.2-0.2l-0.1-0.2
			c0.1-0.1,0.2,0,0.3,0c-0.1-0.1-0.3-0.2-0.4-0.2"/>
		<path fill="#DA8D21" d="M84.7,144.5c-0.9-0.4-1.8-0.5-2.7-0.4c0.6-0.9,1.4-1.7,2.2-2.3l0.2-0.1c0.1,0,0.2,0,0.3-0.1
			c-0.1,0-0.1,0-0.2,0v-0.1c1.2-1,2.6-1.8,4.2-2.2c2.2-0.9,4.6-1.3,7-1.2c1.4,0.1,2.7,0.3,4,0.8c0.1,0,0.1,0.1,0.2,0.1
			c0.6,0.2,1.2,0.5,1.8,0.8c1.8,0.9,3.3,2.2,4.6,3.7c2.6,3.2,3.8,7.3,3.2,11.3c0,0.5-0.1,1-0.3,1.5c0,0-0.1-0.1-0.1-0.2
			c0-0.5,0.1-1,0.1-1.5c0-2.5-1-4.9-2.8-6.5c-1.4-1.3-3-2.2-4.9-2.6c-0.4,0-0.7-0.1-1-0.4c0,0,0-0.1,0-0.2c0.2-0.1,0.4-0.1,0.6,0
			c2,0.3,3.9,1.2,5.5,2.5c0.1,0.1,0.3,0.3,0.5,0.4c-0.2-0.3-0.5-0.6-0.8-0.9c-0.1-0.1-0.2-0.2-0.3-0.3c-0.1-0.1-0.1-0.1,0-0.3
			c0.1-0.1,0.1,0,0.2,0h0.2c-0.4-0.5-0.9-0.9-1.5-1.2c-1.6-0.9-3.2-1.6-4.9-2.1c-0.2,0-0.6,0-0.5-0.3c0-0.3,0.4-0.2,0.6-0.1
			c0.7,0,1.5,0.2,2.1,0.5c1.7,0.8,3.4,1.9,4.9,3.1c0.3,0.3,0.6,0.6,0.8,0.9c-0.1-0.1-0.2-0.3-0.3-0.4c-1.1-1.5-2.6-2.7-4.3-3.3
			c-2-0.8-4.1-1.2-6.3-1.3c-2.1-0.1-4.3,0-6.4,0.4c-1.5,0.2-2.9,0.7-4.2,1.3c-0.4,0.2-0.8,0.4-1.1,0.7c-0.1,0.1-0.3,0.2-0.5,0.2"/>
		<path fill="#4980C4" d="M95.8,165.5c-1,0.3-1.9,0.6-2.9,0.6c-0.8,0-1.5,0.1-2.3,0.2c-0.9,0-1.7-0.1-2.6-0.4h0.9l2.4,0.1
			c1.3,0.1,2.5-0.1,3.8-0.4C95.3,165.6,95.5,165.5,95.8,165.5C96,165.4,95.9,165.5,95.8,165.5"/>
		<path fill="#467CBD" d="M94.6,167.2c1.6-0.3,3.2-0.8,4.8-1.6c0.3-0.1,0.5-0.4,0.8-0.4c0.3,0,0.2,0,0.2,0.1c-1.7,1-3.5,1.7-5.5,1.9
			L94.6,167.2"/>
		<path fill="#243F77" d="M107,160.8l1-1.9c0.1-0.2,0.1-0.6,0.4-0.6c-0.3,0.8-0.6,1.5-1.1,2.2C107.3,160.6,107.1,160.8,107,160.8"/>
		<path fill="#4274B5" d="M100.4,165.5c0-0.1-0.1-0.1-0.1-0.1l0,0l1.2-0.7c0.1,0,0.1,0,0.1,0.1C101.1,165,100.7,165.2,100.4,165.5"
			/>
		<path fill="#CC8821" d="M101.6,139.7c-0.6-0.1-1.3-0.4-1.8-0.7C100.4,139.1,101,139.4,101.6,139.7"/>
		<path fill="#ECC02D" d="M109,156v0.2c0,0.3-0.1,0.5-0.2,0.7c0.1-0.6,0.1-1.2,0.1-1.7c0.2,0,0.1,0.2,0.1,0.3
			C109,155.6,109,155.8,109,156"/>
		<path fill="#243D75" d="M108.4,158.2c-0.1-0.3,0-0.4,0.3-0.6L108.4,158.2"/>
		<path fill="#345C98" d="M101.5,164.7L101.5,164.7c0.1-0.2,0.2-0.4,0.5-0.3L101.5,164.7"/>
		<path fill="#BC7F22" d="M84.3,141.7c-0.1,0-0.1,0-0.2,0c0-0.2,0.1-0.3,0.3-0.3c0.1-0.1,0,0,0,0.1
			C84.4,141.6,84.4,141.6,84.3,141.7"/>
		<path fill="#977C2E" d="M108.7,156.9c0,0.1-0.1,0.3-0.2,0.4v-0.4"/>
		<path fill="#BA013E" d="M91.7,158.8c0.5,0.7,0.9,1.4,1.2,2.2c0.3,0.5,0.7,0.9,1.3,1.1c0.2,0.1,0.6,0.1,0.4,0.4
			c-0.1,0.3-0.4,0.1-0.6,0.1c-0.8-0.1-1.6-0.4-2.2-1c-0.5-0.5-0.6-0.5-1.1,0c-0.4,0.4-1.1,0.6-1.7,0.5c-0.5-0.1-1,0-1.5,0.2
			c-0.4,0.2-0.9,0.3-1.4,0.4c-0.4,0-0.7,0-0.9-0.3c-0.2-0.4-0.3-0.8-0.1-1.2c0-0.1,0.1-0.1,0.1-0.2c0.3-0.4,0.3-0.4-0.2-0.4
			c-0.2,0-0.2-0.1-0.2-0.2c0-0.3,0.1-0.5,0.4-0.6c0.4-0.3,0.7-0.8,0.9-1.3c0-0.2,0.4-0.5,0.3-0.6c-0.1-0.1-0.5,0-0.7,0
			c-0.5,0-1,0.1-1.4,0.3c-0.1,0-0.3,0-0.5,0c-0.2,0-0.4,0-0.5-0.1s0-0.3,0.1-0.4c0.4-0.7,0.6-1.4,0.4-2.2c0-0.1,0-0.3-0.2-0.3
			s-0.2,0.1-0.2,0.3c-0.1,0.6-0.2,1.2-0.4,1.7c-0.1,0.4-0.5,0.7-0.9,0.7h-0.4c-0.6,0.1-0.6,0.3-0.4,0.8c0.3,0.5,0.6,1.2,1,1.7
			c0.3,0.4,0.3,0.9,0.1,1.4c0,0.2-0.1,0.4-0.2,0.7c0.7-0.3,1-1.1,0.8-1.8c-0.3-0.6-0.6-1.2-0.9-1.9c-0.1-0.3,0-0.4,0.2-0.4
			c0.4,0,0.7,0.1,0.9,0.5c0.2,0.5,0.4,1,0.7,1.4c0.3,0.4,0.3,0.9,0,1.3c-0.2,0.3-0.3,0.6-0.5,0.9c-0.2,0.4-0.7,0.7-1.2,0.7
			c-0.4,0-0.7,0.1-1,0.3c-0.8,0.4-1.6,0.7-2.5,0.9c-0.4,0.1-0.9,0-1.2-0.3c-0.3-0.2-0.4-0.5-0.6-0.8c-0.1-0.3-0.4-0.5-0.7-0.4
			c-0.3,0-0.5-0.1-0.6-0.3c-0.1-0.3-0.4-0.6-0.5-0.9c-0.2-0.3,0-0.5,0.3-0.6c0.3,0,0.7-0.1,1.1-0.1c0.4,0,0.8,0.2,1,0.5
			c0.2,0.3,0.4,0.6,0.6,1c0.3,0.4,0.8,0.6,1.3,0.4c0.2,0,0.4-0.1,0.6-0.2c0.9-0.4,1-0.9,0.5-1.7c-0.2-0.3-0.5-0.6-0.9-0.9l-0.6-0.4
			c-0.7-0.4-1.2-1-1.3-1.7c0-0.1-0.1-0.3-0.3-0.3c-0.2,0-0.2,0.2-0.1,0.4c0.2,0.7,0,1-0.8,0.9c-1.4-0.1-2.8-0.1-4.2,0.1
			c-0.2,0-0.3,0-0.5,0c-0.6,0-1.2-0.4-1.2-1c0-0.1,0-0.1,0-0.2c0-0.6,0.1-1.2,0.2-1.7c0-0.2,0-0.3-0.2-0.4c-0.2,0-0.3,0-0.4,0.3
			c-0.1,0.6-0.2,1.2-0.3,1.8c-0.1,1-0.9,2-1.9,2.3c-0.8,0.3-1.6,0.5-2.5,0.5c-1.1,0-2.2,0.3-3.1,1c-0.3,0.2-0.5,0.5-0.6,0.9v0.3
			c0,0,0.1,0,0.2-0.1c1-1.1,2.6-1.6,4.1-1.5c0.4,0,0.9,0,1.3,0c1-0.2,1.9-0.8,2.3-1.7c0-0.1,0.1-0.2,0.2-0.4
			c0.1-0.1,0.1-0.3,0.3-0.2c0.2,0.1,0.4,0.2,0.2,0.4c-0.4,0.8-0.6,1.8-1.6,2.1c-0.9,0.7-2.2,0.9-3.2,0.6c-0.7-0.2-1.4,0-1.8,0.6
			c-0.4,0.3-0.8,0.6-1.3,0.8c-0.3,0.1-0.5,0.1-0.8,0c-0.4-0.1-0.8,0-1,0.4l0,0l-0.1,0.2c-0.3,0.7-1.1,1.1-1.8,0.8
			c-0.7-0.1-0.7-0.1-0.5-0.9c0.1-0.4,0.2-0.9,0.8-1c0.2,0,0.4-0.3,0.5-0.4c0.2-0.3,0.4-0.6,0.8-0.7c0.6-0.3,1-0.8,1.2-1.4
			c0-0.1,0.1-0.3,0.2-0.5c0.1-0.3,0.4-0.5,0.7-0.5c0.7,0,1.3-0.2,1.8-0.6c0.3-0.1,0.4-0.5,0.3-0.8c0,0,0,0,0-0.1
			c-0.4-0.8-0.6-1.7-0.5-2.7c0-0.4-0.1-0.5-0.5-0.4c-0.9,0.3-1.8,0.3-2.7,0c-1.5-0.6-2.3-2.3-1.7-3.8c0.1-0.4,0.4-0.7,0.6-1
			c0.6-0.6,1.2-1.2,1.9-1.7c0.2-0.1,0.4-0.3,0.3-0.6c-0.1-0.3-0.4-0.3-0.6-0.3c-0.7,0.1-1.5-0.1-2-0.6c-0.6-0.5-0.9-1.3-0.7-2.1
			c0-0.3,0.2-0.4,0.4-0.2c0.7,0.6,1.6,0.9,2.5,1c0.3,0,0.7,0.1,1,0.3c0.8,0.4,1.1,1.5,0.7,2.3c0,0,0,0.1-0.1,0.1
			c-0.3,0.4-0.6,0.7-1,1c-0.5,0.4-0.9,0.8-1.4,1.2c-0.7,0.6-0.9,1.6-0.4,2.5c0.5,0.8,1.5,1.2,2.3,1c1-0.3,2-0.7,2.8-1.5
			c0.8-0.7,1.8-1.3,2.9-1.5c0.4,0,0.9,0,1.3-0.1c0.7-0.1,1.5-0.5,2-1c0.7-0.8,1.8-1.3,2.9-1.2c0.4,0,0.8-0.1,1.1-0.5
			c0.7-0.8,1.7-1.3,2.7-1.6c0.9-0.2,1.7-0.6,2.4-1c1.3-0.9,3-0.9,4.2,0.1c1.2,0.9,2.3,1.9,3.4,2.9c1,1,2,2.2,2.8,3.4
			c0.3,0.6,0.5,1.3,0.6,2c0.2,1.5,0.6,2.9,1.1,4.2c0,0.1,0.1,0.2,0.1,0.2c0.5,0.4,0.9,1,1.2,1.6c0.3,0.5,0.7,0.9,1.3,1.2
			c0.1,0,0.2,0,0.2,0.2c0,0.2-0.2,0.1-0.3,0.1c-0.9,0-1.7-0.5-2.1-1.3c-0.2-0.4-0.5-0.8-0.9-1.1c-0.2-0.2-0.4-0.3-0.6-0.3"/>
		<path fill="#F2D231" d="M109,156c-0.2-0.2,0-0.5-0.1-0.7c-0.1-1.5-0.8-2.8-2-3.5l-0.2-0.1c-0.1-0.1-0.3,0-0.4-0.2H106
			c-0.3,0-0.6-0.1-0.9-0.1c-0.2,0-0.5-0.1-0.7-0.1l-0.6-0.1c-0.6,0-1.1,0-1.7-0.1c-0.8,0-1.6,0.1-2.3,0.3c-1.2,0.3-2.4,0.7-3.6,1.1
			c-0.2,0.1-0.4,0.1-0.7,0.1c-0.2,0-0.4,0-0.4-0.2c-0.1-0.2,0-0.4,0.2-0.5c0.3-0.2,0.6-0.3,0.9-0.4c0.9-0.4,1.7-0.6,2.7-0.9
			c0.8-0.2,1.6-0.4,2.5-0.4c0.4-0.1,0.8-0.2,1.2-0.4c-0.3-0.1-0.5-0.1-0.8,0c-0.9,0.1-1.7,0.2-2.5,0.4c-0.1,0-0.3,0-0.4,0
			c-0.2,0-0.4,0-0.4-0.3c0-0.3-0.3-0.2-0.2-0.4h-0.1c-0.4,0.3-1,0.4-1.5,0.4h-1.9c-0.2,0-0.4,0-0.4-0.2s0.1-0.4,0.3-0.5l0.3-0.2
			c0.7-0.4,1.6-0.7,2.4-0.9c0.2,0,0.4-0.1,0.7,0.1c0.2,0.2,0.3,0,0.4,0c0.5-0.1,1.1-0.3,1.6-0.4c0.1,0,0.3,0,0.4,0
			c0,0,0.3,0.1,0-0.1c-0.3-0.3,0.1-0.2,0.2-0.2c0.1,0,0.5-0.1,0.8-0.2c-0.2-0.2-0.5-0.3-0.7-0.2c-2,0.3-3.9,0.7-5.8,1.3
			c-1.3,0.4-2.6,0.9-3.8,1.4c-0.1,0.1-0.3,0.1-0.5,0.1c-1-1.3-2.1-2.5-3.4-3.4c0.1-0.2,0.3-0.2,0.4-0.3c2.3-0.7,4.8-1.3,7.3-1.5
			c1-0.1,2.1-0.1,3.2,0c0,0,0-0.1,0,0c-1.2-0.1-2.3-0.1-3.4,0c-2.4,0.1-4.8,0.5-7.1,1.3c-0.2,0.1-0.4,0.1-0.7,0.1l-0.2-0.1
			c0-0.3,0.3-0.4,0.6-0.4c1.3-0.6,2.6-1,3.9-1.3h0.3c0.2,0,0.4-0.1,0.7-0.1h-0.3c-0.1,0-0.3,0.1-0.5,0.1c-1.2,0.3-2.4,0.6-3.5,1
			c-0.3,0.1-0.6,0.3-1,0.4c-0.1,0.1-0.3,0.1-0.5,0.1l-0.6-0.4c0-0.1,0-0.2,0.1-0.3h-0.6l-0.3-0.2c0.8-0.7,1.7-1.2,2.7-1.5
			c1.7-0.6,3.4-0.9,5.1-1.1c1.2-0.1,2.3-0.2,3.5-0.1c3,0,5.9,0.7,8.6,2c1.5,0.8,2.6,2,3.4,3.4c0,0,0.1,0.1,0,0.3
			c-0.5-0.6-1.1-1.2-1.7-1.7c-0.9-0.7-1.9-1.4-2.9-1.9c-0.4-0.2-0.8-0.4-1.2-0.7c-0.5-0.3-1.1-0.5-1.7-0.6c-0.3-0.1-0.7-0.1-1,0
			c0,0.1,0.2,0.1,0.3,0.1c2,0.6,3.9,1.4,5.7,2.5c0.4,0.2,0.7,0.5,1,0.9c0.1,0,0.2,0.1,0.3,0.3l-0.5-0.2l0.8,0.9
			c0.2,0.2,0.4,0.4,0.3,0.6c-0.1,0.2-0.4-0.1-0.5-0.3c-1-0.9-2.2-1.6-3.5-2.1c-0.9-0.3-1.8-0.5-2.7-0.6c-0.2,0-0.4-0.1-0.7-0.1
			c0.2,0,0.4,0.1,0.6,0.2c1,0.3,1.9,0.5,2.8,0.9c1.2,0.5,2.3,1.2,3.2,2.2c1.3,1.2,2.2,2.7,2.6,4.4C109.2,153.6,109.2,154.8,109,156"
			/>
		<path fill="#487FC2" d="M95.1,160.1c1.1-0.4,2.2-0.9,3.2-1.5c0.2,0.1,0.3,0.4,0.3,0.7c0,0.2,0,0.4,0,0.7c-0.1,0.5,0.1,1,0.4,1.4
			c-1.1,0.8-2.4,1.4-3.6,1.9c0-0.1,0.2-0.3,0.2-0.4s0.2-0.4,0.4-0.5c0.1-0.1,0.3-0.1,0.4-0.3c0.3-0.3,0.3-0.7,0-0.9
			c0,0-0.1-0.1-0.1-0.1C95.9,160.6,95.4,160.5,95.1,160.1"/>
		<path fill="#DA8D21" d="M86.6,145.8c1.3-0.5,2.7-0.9,4.1-1.1c2.2-0.4,4.4-0.5,6.7-0.4c0.3,0,0.5,0.1,0.8,0.2h-0.9
			c-1.6,0-3.2,0.1-4.8,0.4c-1.7,0.3-3.4,0.7-5,1.2h-0.3L86.6,145.8"/>
		<path fill="#BA013E" d="M79.1,160.6c0.3,0,0.4,0,0.5,0.3c0,0.2,0.1,0.3,0.2,0.5c0.2,0.3,0.1,0.5-0.2,0.7c-0.3,0.1-0.9,0.2-1-0.1
			c-0.1-0.4-0.4-0.7-0.7-1c-0.2-0.1,0-0.3,0.2-0.3L79.1,160.6"/>
		<path fill="#BC1042" d="M57.4,164.9l-0.7-0.2c-0.1,0-0.1-0.2,0-0.3c0.1-0.3,0.2-0.6,0.2-0.9c0-0.1,0-0.3,0.1-0.4
			c0.1-0.2,0.3-0.4,0.6-0.3c0.3,0.1,0.6,0.3,0.4,0.7c-0.1,0.4-0.2,0.8-0.4,1.2c0,0.1,0,0.2-0.3,0.2"/>
		<path fill="#4B83C7" d="M94.3,163.5c-1,0-2.1,0-3.1-0.1c-0.4,0-0.8,0-0.9-0.6c0.3-0.1,0.6-0.5,0.9-0.5s0.6,0.4,0.9,0.5
			c0.8,0.4,1.6,0.6,2.5,0.6L94.3,163.5"/>
		<path fill="#BC1042" d="M58.7,162.6c-0.3,0-0.5-0.1-0.6-0.3c-0.1-0.2,0-0.4,0.2-0.6c0.3-0.1,0.5-0.4,0.8-0.5
			c0.1-0.1,0.4-0.1,0.5,0c0,0,0,0,0,0c0.1,0.1,0.1,0.3,0,0.4c0,0,0,0,0,0c-0.1,0.3-0.4,0.5-0.6,0.7C59,162.5,58.8,162.6,58.7,162.6"
			/>
		<path fill="#DA8F22" d="M86.1,145.4c1.4-0.7,3-1.3,4.5-1.5l0.5-0.1c0.1,0,0.1,0,0,0.1c-1.5,0.4-2.9,0.9-4.3,1.5
			c-0.2,0-0.3,0.1-0.5,0.3c-0.1,0-0.3-0.1-0.3-0.3"/>
		<path fill="#E9CD31" d="M92.5,153.4c0.6-0.4,1.3-0.6,2.1-0.8l-2,1.2L92.5,153.4z"/>
		<path fill="#F2D233" d="M85.1,158.4c-0.2,0.3-0.3,0.4-0.5,0.6s-0.1,0.3-0.2,0.2c-0.2-0.1-0.3-0.3-0.3-0.6c0-0.2,0.2-0.1,0.3-0.1
			C84.4,158.5,84.8,158.4,85.1,158.4"/>
		<path fill="#DB9224" d="M85,144.7c0.2-0.2,0.5,0,0.8-0.1c0,0.2-0.2,0.3-0.3,0.4L85,144.7"/>
		<path fill="#4479BD" d="M99,161.3c-0.1-0.2-0.3,0-0.4,0c-0.1,0,0.1-0.2,0-0.3c-0.3-0.6-0.3-1.2-0.1-1.8l-0.2-0.5l1.2-0.9
			c0.2-0.1,0.4-0.1,0.4,0.1c0,0.3,0,0.7,0,1.1c0,0,0,0.1-0.1,0.1l-0.2,0.3c-0.1,0.1-0.2,0.3-0.1,0.4c0.1,0.2,0.3,0.1,0.4,0.1
			l0.9-0.1C100.2,160.4,99.6,160.9,99,161.3"/>
		<path fill="#4274B5" d="M99.9,159c0.1-0.1,0.1-0.3,0-0.4c-0.1-0.1-0.1-0.4,0-0.6c0.1-0.3,0-0.4-0.3-0.4l0.3-0.3v-0.1
			c0,0-0.7,0.3-0.9,0c-0.2-0.3,0.2-0.5,0.4-0.7c0.5-0.4,1-0.9,1.5-1.3c0.2,0,0.1,0.1,0.1,0.2c0,0.4,0.1,0.8,0.2,1.2
			c0.1,0.4,0.1,0.9,0,1.4l-1.2,1"/>
		<path fill="#3F6FAD" d="M101,158c-0.2-0.6,0.1-1.1-0.2-1.7c-0.1-0.2,0-0.6,0-0.9v-0.2l0.9-0.9c0.3-0.1,0.3,0.2,0.4,0.4
			c0,0.1,0,0.2-0.1,0.3c-0.1,0.2-0.3,0.4-0.4,0.7c0,0.3,0,0.5,0,0.7c0.2,0,0.3-0.1,0.4,0c0.1,0.1,0.1,0.3,0,0.5
			c0,0.1-0.1,0.3-0.2,0.4L101,158"/>
		<path fill="#2D5086" d="M105.2,157.4c-0.2,0.3-0.4,0.4-0.7,0.6c-0.2-0.2-0.1-0.5-0.1-0.7c0-0.2,0-0.4-0.1-0.6
			c-0.2-0.3-0.2-0.7,0-0.9c0.2-0.3,0.4-0.6,0.7-0.9c0.1,0,0.1,0.1,0.1,0.2c0,0.6,0.1,1.2,0.1,1.7C105.3,157,105.2,157.2,105.2,157.4
			"/>
		<path fill="#335992" d="M104.4,155.7c-0.1,0.3,0,0.7,0.1,1c0,0.4,0,0.8,0,1.3l-0.9,0.5c-0.1-0.1-0.1-0.3-0.1-0.4
			c0-0.4-0.1-0.9-0.1-1.4C103.6,156.4,103.9,156.1,104.4,155.7"/>
		<path fill="#37619E" d="M103.4,156.8c0.3,0,0.1,0.3,0.1,0.4c0.1,0.4,0.1,0.9,0.1,1.4l-0.6,0.5c-0.1,0.1-0.3,0.1-0.4,0
			c-0.1-0.1,0-0.2,0-0.3c0-0.1,0.2-0.4,0-0.7c-0.2-0.3,0-0.2,0-0.3l0.7-1"/>
		<path fill="#29497F" d="M104.4,150.9c0.2,0.1,0.5,0,0.7,0.1c0.3,0.5,0.3,1.2,0.1,1.7c-0.1,0.3-0.3,0.7-0.5,0.9
			c-0.2,0-0.1-0.3-0.3-0.4c0-0.1,0-0.1,0-0.2c0-0.6-0.1-1.1-0.1-1.7C104.4,151.2,104.4,151,104.4,150.9"/>
		<path fill="#213B6E" d="M105.7,153.7l0.1-0.5c-0.2,0.2-0.3,0.5-0.5,0.6l0.7-2c0.1,0,0.1,0,0.1,0.1c0,0,0,0,0,0
			c0.2,1.1,0.3,2.3,0.2,3.4c0,0,0,0.1,0,0.1c-0.1,0.2-0.2,0.4-0.3,0.6c-0.2-0.4-0.3-0.7-0.2-1.2
			C105.9,154.6,105.9,154.2,105.7,153.7"/>
		<path fill="#28477D" d="M105.2,157.4l-0.2-2.5c0-0.2,0.3-0.4,0.3-0.6c0.1-0.2,0.2,0,0.2,0.2c0.1,0.7,0.2,1.3,0.2,2L105.2,157.4"/>
		<path fill="#1F3667" d="M106.4,155.5c0-0.8-0.1-1.6-0.2-2.3c0-0.4-0.1-0.9-0.1-1.3l0.1-0.4c0.1,0,0.3,0.1,0.4,0.2
			c-0.1,0-0.1,0-0.1,0.2c0,0.9,0.1,1.7,0.2,2.5C106.8,154.7,106.7,155.2,106.4,155.5"/>
		<path fill="#243F76" d="M105.8,156.5c-0.2-0.6-0.3-1.3-0.3-2c0-0.1,0-0.2-0.1-0.2l0.3-0.6c0.3,0.1,0.2,0.4,0.2,0.7
			c0,0.6,0,1.1,0.1,1.7C106.1,156.2,105.9,156.4,105.8,156.5"/>
		<path fill="#264276" d="M105.3,152.8l-0.1-1.7c0.3,0,0.6,0.1,0.9,0.3C105.7,151.8,105.6,152.3,105.3,152.8"/>
		<path fill="#3B69A3" d="M101.9,157.3c0-0.3,0.2-0.6,0.2-0.9c-0.1-0.3,0.4-0.5,0.7-0.6s0.2,0.2,0.1,0.4
			C102.6,156.6,102.3,156.9,101.9,157.3"/>
		<path fill="#2D5088" d="M104.6,153.3c0.2,0,0,0.3,0.2,0.4c-0.2,0.4-0.4,0.8-0.8,1.2c-0.1,0-0.2,0-0.2-0.1
			C103.9,154.2,104.2,153.7,104.6,153.3"/>
		<path fill="#345C98" d="M103.8,154.8l0.2,0.1c-0.4,0.4-0.6,1-1.1,1.3l-0.1-0.3c0.1-0.4,0.5-0.5,0.7-0.8
			C103.7,154.8,103.6,154.8,103.8,154.8"/>
		<path fill="#3E6EAB" d="M95.8,165.5L95.8,165.5l0.6-0.2C96.3,165.4,96.1,165.5,95.8,165.5"/>
		<path fill="#162243" d="M91.8,139.3c-1.1,0.4-2.3,0.6-3.4,0.9c-1,0.3-1.9,0.6-2.9,1c-0.1,0-0.3,0.1-0.4,0c2-1.1,4.2-1.7,6.5-2
			c0.1,0,0.2-0.1,0.3,0"/>
		<path fill="#76592A" d="M97.6,138.6l-0.7-0.1C97.1,138.4,97.4,138.4,97.6,138.6"/>
		<path fill="#A06F23" d="M97.2,138.7h-0.9C96.6,138.6,96.9,138.6,97.2,138.7z"/>
		<path fill="#E2A527" d="M100.3,144.9l-0.6-0.2c0.2,0,0.4,0,0.7,0.1"/>
		<path fill="#483F34" d="M84.3,141.7l0.1-0.1c0.2,0,0.3-0.2,0.5-0.2C84.8,141.5,84.6,141.6,84.3,141.7"/>
		<path fill="#3C3936" d="M98,138.6c0.2,0,0.5,0,0.7,0.1C98.5,138.8,98.2,138.7,98,138.6L98,138.6z"/>
		<path fill="#423D34" d="M91.8,139.3h-0.3C91.6,139.2,91.7,139.2,91.8,139.3H92H91.8"/>
		<path fill="#4E4232" d="M99.1,138.8l0.4,0.1c-0.2,0.1-0.3,0-0.4,0"/>
		<path fill="#AC7722" d="M97.2,138.7h0.4C97.4,138.8,97.3,138.8,97.2,138.7z"/>
		<path fill="#413D34" d="M99.1,138.8c-0.1,0-0.3,0-0.3-0.1L99.1,138.8"/>
		<path fill="#3A3939" d="M97.6,138.6c0.1,0,0.3,0,0.4,0.1L97.6,138.6"/>
		<path fill="#FDFBFB" d="M91.3,156.4c0,0.2,0,0.4-0.1,0.6c0,0.1-0.1,0.3-0.3,0.3c-0.2,0-0.2-0.2-0.2-0.3c0-0.5-0.2-0.9-0.6-1.3
			c-0.3-0.3-0.5-0.3-0.9,0l-0.2,0.2c0,0-0.1,0.1-0.2,0.1c-0.1,0-0.1-0.1-0.1-0.2c0-0.1,0-0.3,0-0.4l0.5-1c0.1-0.3,0.4-0.4,0.6-0.2
			c0.7,0.6,1.2,1.4,1.3,2.3"/>
		<path fill="#FBFBFB" d="M84.5,150.6c0,0.3,0,0.5-0.1,0.8c0,0.1,0,0.2-0.2,0.2c-0.2,0-0.1-0.1-0.2-0.2l-0.3-1
			c-0.1-0.3-0.2-0.6-0.4-0.8c-0.1-0.2-0.3-0.4,0-0.6c0.3-0.2,0.5,0,0.6,0.2C84.4,149.5,84.6,150.1,84.5,150.6"/>
		<path fill="#FAF9F9" d="M89.1,160.6c-0.3,0-0.4,0-0.5-0.1s0-0.3,0.1-0.4c0.1-0.2,0.3-0.3,0.4-0.4c0.2-0.1,0.4-0.2,0.6-0.1
			c0.2,0.1,0.1,0.3,0.1,0.5c0,0.2-0.1,0.4-0.4,0.5L89.1,160.6"/>
		<path fill="#2F538B" d="M104.4,150.9c0,0.7,0.1,1.3,0.2,1.9c0,0,0,0.2-0.1,0.2c0,0.3-0.3,0.4-0.5,0.4l0,0
			c-0.1-0.1-0.2-0.3-0.2-0.5c0-0.5-0.1-1-0.1-1.5l0.2-0.6c0.2,0,0.4,0,0.6,0"/>
		<path fill="#E2A527" d="M103.5,144.9c0.3,0,0.5,0.3,0.8,0.4C103.9,145.2,103.8,145,103.5,144.9"/>
		<path fill="#E6AD29" d="M91.2,143.9c0.3-0.1,0.6-0.1,0.9-0.1L91.2,143.9"/>
		<path fill="#E3A828" d="M101.3,144c-0.3,0-0.5-0.1-0.7-0.2C100.8,143.8,101.1,143.9,101.3,144"/>
		<path fill="#494E37" d="M98.2,149.1c0.1-0.1,0.3-0.1,0.4-0.2C98.6,149.1,98.4,149.1,98.2,149.1"/>
		<path fill="#7A742D" d="M99.9,148.1c-0.1,0-0.2,0-0.3,0C99.7,148,99.7,148,99.9,148.1"/>
		<path fill="#335995" d="M103.7,151.4c0,0,0.2,0,0.2,0.2c0,0.6,0,1.2,0.2,1.8c-0.1,0.3-0.5,0.4-0.8,0.3c-0.1,0-0.1-0.1-0.1-0.1
			c-0.1-0.2-0.2-0.4-0.4-0.5L103.7,151.4"/>
		<path fill="#3A66A1" d="M102.7,153.1c0.4-0.1,0.4,0.2,0.4,0.4c-0.1,0.5-0.5,1-1,1.2c-0.1-0.1-0.1-0.4-0.3-0.4L102.7,153.1"/>
		<path fill="#C2AD2D" d="M96.2,150.1c0.3-0.2,0.6-0.3,0.9-0.2C96.8,150.1,96.5,150.2,96.2,150.1"/>
		<path fill="#2D5083" d="M99.7,157.2l0.3-0.2C100,157.2,99.9,157.3,99.7,157.2L99.7,157.2"/>
		<path fill="#122046" d="M102,154.7l1-1.2c0.3,0.3,0.6,0.1,0.9,0c0.2-0.1,0.4-0.2,0.5-0.3c0,0,0,0.1,0,0.2l-0.7,1.5
			c-0.3,0.4-0.6,0.8-1,1.1c-0.3,0.1-0.6,0.3-0.8,0.5c-0.1,0-0.1,0.1-0.2,0.1c-0.1,0.1-0.3,0.2-0.4,0.1c-0.1-0.1,0-0.2,0-0.3v-0.2
			c-0.2-0.6,0.3-0.9,0.5-1.4"/>
	</g>
</g>
</svg>
