<?xml version="1.0" encoding="utf-8"?>
<!-- Generator: Adobe Illustrator 25.4.1, SVG Export Plug-In . SVG Version: 6.00 Build 0)  -->
<svg version="1.1" id="Layer_1" xmlns="http://www.w3.org/2000/svg" xmlns:xlink="http://www.w3.org/1999/xlink" x="0px" y="0px"
	 viewBox="0 0 60 60" enable-background="new 0 0 60 60" xml:space="preserve">
<rect fill="#00A84F" width="60" height="60"/>
<g>
	<path id="Path_53542" fill="#FFFFFF" d="M11.9,36.9c-1.1-0.3-1.5-0.3-1.5-0.7c0-0.4,0.5-0.7,1.3-0.7c0.5-0.1,1,0.1,1.3,0.4
		c0.2,0.2,0.5,0.4,0.8,0.4h1.5c-0.3-1.7-1.9-2.8-3.5-2.5c-2.1,0-3.4,1-3.4,2.6c0,1.4,0.9,1.9,3.1,2.4c1.2,0.3,1.8,0.3,1.8,0.9
		c0,0.4-0.4,0.6-1.3,0.6c-1,0-1.5-0.2-1.7-0.6c-0.2-0.3-0.4-0.4-0.7-0.4H8c0.4,1.8,2.1,3,3.9,2.8c1.9,0,3.5-0.9,3.5-2.6
		C15.4,37.9,14.1,37.4,11.9,36.9"/>
	<path id="Path_53543" fill="#FFFFFF" d="M49.3,33.8c-1.1,0-2.1,0.6-2.6,1.5c-0.4-0.9-1.4-1.5-2.4-1.5c-0.9,0-1.8,0.4-2.3,1.2v-1h-1
		c-0.6,0-1.1,0.5-1.1,1.1v6.8h0.7c0.8,0,1.4-0.6,1.4-1.4v0v-2.8c0-1.2,0.6-2,1.6-2c1,0,1.4,0.6,1.4,1.6v4.5h2v-4.1
		c0-1.2,0.6-2,1.6-2c1,0,1.4,0.6,1.4,1.6v4.5h2v-5c0.2-1.5-0.8-2.8-2.3-3C49.6,33.8,49.4,33.8,49.3,33.8"/>
	<path id="Path_53544" fill="#FFFFFF" d="M23.5,34h-1v1.1c-0.6-0.8-1.5-1.3-2.5-1.3c-2.3,0.3-3.9,2.4-3.5,4.7
		c0.3,1.8,1.7,3.3,3.6,3.5c1,0,1.9-0.4,2.5-1.2c0,0.6,0.5,1.1,1.1,1.1h1v-6.8C24.5,34.5,24,34,23.5,34 M20.5,40.1
		c-1.2-0.1-2.1-1.1-2-2.3c0.1-1.1,0.9-1.9,2-2c1.2,0.1,2.1,1.1,2,2.3C22.4,39.2,21.5,40,20.5,40.1"/>
	<path id="Path_53545" fill="#FFFFFF" d="M37.4,34h-1v1.1c-0.6-0.8-1.5-1.3-2.5-1.3c-2.3,0.3-3.9,2.4-3.5,4.7
		c0.3,1.8,1.7,3.3,3.6,3.5c1,0,1.9-0.4,2.5-1.2c0,0.6,0.5,1.1,1.1,1.1h1v-6.8C38.4,34.5,38,34,37.4,34 M34.4,40.1
		c-1.2-0.1-2.1-1.1-2-2.3c0.1-1.1,0.9-1.9,2-2c1.2,0.1,2.1,1.1,2,2.3C36.3,39.2,35.4,40,34.4,40.1"/>
	<path id="Path_53546" fill="#FFFFFF" d="M28.8,39.8h-0.2c-0.4,0-0.7-0.3-0.7-0.7l0,0v-7.4h-1c-0.6,0-1.1,0.5-1.1,1.1v6.7
		c0,1.3,1.1,2.4,2.4,2.4l0,0h1.9v-0.7C30.2,40.4,29.6,39.8,28.8,39.8L28.8,39.8"/>
	<path id="Path_53547" fill="#FFFFFF" d="M23.5,25.1c-0.6,0-1.1-0.5-1.1-1.1v-5.1h1c0.6,0,1.1,0.5,1.1,1.1v5.1H23.5z"/>
	<path id="Path_53548" fill="#FFFFFF" d="M51.3,20c-0.8,0-1.4,0.6-1.4,1.4v0v3.3c0,1-0.4,1.6-1.4,1.6c-1.1,0-1.6-0.7-1.6-2V21h-2
		v3.7c0,1-0.4,1.6-1.4,1.6c-1.1,0-1.6-0.7-1.6-2v-2.2h-2.1v2.4c0,1-0.4,1.6-1.4,1.6h-9c-0.8,0.1-1.5-0.4-1.6-1.2c0,0,0-0.1,0-0.1
		v-6.8h-1c-0.6,0-1.1,0.5-1.1,1.1v6.3c0,0.4-0.3,0.7-0.7,0.7l0,0h-4c-0.8,0-1.4,0.6-1.4,1.4v0v0.7h5.8c0.8,0,1.6-0.5,2.1-1.2
		c0.6,0.8,1.5,1.2,2.4,1.2h8.7c1,0.1,2-0.5,2.4-1.5c0.5,1,1.5,1.6,2.7,1.6c1.1,0.1,2.2-0.6,2.7-1.6c0.5,1,1.5,1.6,2.6,1.6
		c1.5,0.1,2.8-1,3-2.5c0-0.2,0-0.4,0-0.6V20H51.3z"/>
	<path id="Path_53549" fill="#FFFFFF" d="M18.3,21.3c-0.7-0.8-1.8-1.2-2.9-1.2c-2.2,0-3.9,1.8-3.9,3.9c0,0.1,0,0.1,0,0.2v0.2
		c0,1-0.8,1.7-1.7,1.7H8.3v0.6c0,0.8,0.6,1.4,1.4,1.4l0,0h0.4c0.9,0,1.8-0.4,2.4-1c0.7,0.8,1.8,1.2,2.8,1.2c2.2,0,4-1.7,4-3.9
		c0-0.1,0-0.1,0-0.2C19.4,23.1,19,22,18.3,21.3 M15.5,26.2c-1.1-0.1-2-1.1-1.9-2.2c0.1-1,0.9-1.8,1.9-1.9c1.1,0.1,2,1.1,1.9,2.2
		C17.3,25.3,16.5,26.2,15.5,26.2"/>
</g>
</svg>
