<svg width="74" height="38" viewBox="0 0 74 38" fill="none" xmlns="http://www.w3.org/2000/svg">
<path d="M11.987 37.0799C15.8229 37.0799 19.0194 35.8013 21.0972 33.8834C22.6955 32.2851 23.6544 30.2073 23.6544 27.8099C23.6544 25.5724 22.8553 23.6544 21.4168 22.216C19.9784 20.7775 17.7408 19.6587 15.0238 19.0194L10.5486 18.2203C8.63067 17.9006 7.67171 16.9417 7.67171 15.6631C7.67171 14.0648 9.26998 12.7862 11.8272 12.7862C13.4255 12.7862 14.8639 13.2657 15.8229 14.2246C16.4622 14.8639 16.7819 15.6631 16.9417 16.622L23.3348 15.1836C23.1749 13.2657 22.3758 11.6674 20.9374 10.3888C18.8596 8.31102 15.6631 7.0324 11.8272 7.0324C8.31102 7.0324 5.2743 8.15119 3.35637 10.0691C1.59827 11.6674 0.639309 13.905 0.639309 16.3024C0.639309 18.3801 1.27862 20.2981 2.71706 21.5767C4.15551 23.0151 6.07343 23.9741 8.7905 24.6134L13.2657 25.5724C15.5032 26.0518 16.4622 26.851 16.4622 28.2894C16.4622 30.0475 14.8639 31.1663 12.1469 31.1663C10.2289 31.1663 8.63067 30.527 7.67171 29.4082C7.0324 28.7689 6.55292 27.8099 6.55292 26.6911L0 28.1296C0.159827 30.0475 1.11879 31.8056 2.55724 33.2441C4.47516 35.6415 7.99136 37.0799 11.987 37.0799ZM60.7343 37.0799C65.0497 37.0799 68.2462 35.4816 70.4838 33.4039C72.2419 31.6458 73.3607 29.7279 74 27.4903L67.2873 25.2527C66.9676 26.2117 66.4881 27.3305 65.5292 28.2894C64.4104 29.2484 62.9719 30.0475 60.7343 30.0475C58.8164 30.0475 56.8985 29.2484 55.6199 27.9698C54.3413 26.5313 53.5421 24.6134 53.5421 22.0562C53.5421 19.4989 54.3413 17.4212 55.6199 16.1425C56.8985 14.8639 58.8164 14.0648 60.7343 14.0648C62.8121 14.0648 64.2505 14.7041 65.3693 15.8229C66.1685 16.622 66.8078 17.7408 67.1274 18.8596L74 16.622C73.5205 14.5443 72.4017 12.6264 70.8035 10.8683C68.5659 8.63067 65.2095 7.0324 60.7343 7.0324C56.5788 7.0324 52.9028 8.63067 50.1857 11.1879C47.6285 13.905 45.8704 17.7408 45.8704 22.0562C45.8704 26.5313 47.6285 30.2073 50.1857 32.9244C52.9028 35.4816 56.5788 37.0799 60.7343 37.0799ZM37.3996 37.0799C40.4363 37.0799 42.514 36.1209 43.473 35.3218V29.0886C42.8337 29.568 41.3953 30.2073 39.6372 30.2073C38.3585 30.2073 37.3996 29.8877 36.7603 29.2484C36.121 28.6091 35.9611 27.6501 35.9611 26.3715V0H28.2894V7.83153H43.6328V15.1836H28.2894V28.2894C28.2894 31.0065 29.0886 33.0842 30.527 34.5227C32.1253 36.2808 34.5227 37.0799 37.3996 37.0799Z" fill="#502C84"/>
</svg>
