<?xml version="1.0" encoding="utf-8"?>
<!-- Generator: Adobe Illustrator 25.4.1, SVG Export Plug-In . SVG Version: 6.00 Build 0)  -->
<svg version="1.1" id="Layer_1" xmlns="http://www.w3.org/2000/svg" xmlns:xlink="http://www.w3.org/1999/xlink" x="0px" y="0px"
	 viewBox="0 0 60 60" enable-background="new 0 0 60 60" xml:space="preserve">
<rect fill="#502C84" width="60" height="60"/>
<g>
	<path fill="#FFFFFF" d="M14.4,41.6c2.4,0,4.4-0.8,5.7-2c1-1,1.6-2.3,1.6-3.8c0-1.4-0.5-2.6-1.4-3.5c-0.9-0.9-2.3-1.6-4-2l-2.8-0.5
		c-1.2-0.2-1.8-0.8-1.8-1.6c0-1,1-1.8,2.6-1.8c1,0,1.9,0.3,2.5,0.9c0.4,0.4,0.6,0.9,0.7,1.5l4-0.9c-0.1-1.2-0.6-2.2-1.5-3
		c-1.3-1.3-3.3-2.1-5.7-2.1c-2.2,0-4.1,0.7-5.3,1.9c-1.1,1-1.7,2.4-1.7,3.9c0,1.3,0.4,2.5,1.3,3.3c0.9,0.9,2.1,1.5,3.8,1.9l2.8,0.6
		c1.4,0.3,2,0.8,2,1.7c0,1.1-1,1.8-2.7,1.8c-1.2,0-2.2-0.4-2.8-1.1c-0.4-0.4-0.7-1-0.7-1.7L6.9,36c0.1,1.2,0.7,2.3,1.6,3.2
		C9.7,40.7,11.9,41.6,14.4,41.6 M44.9,41.6c2.7,0,4.7-1,6.1-2.3c1.1-1.1,1.8-2.3,2.2-3.7L49,34.2c-0.2,0.6-0.5,1.3-1.1,1.9
		c-0.7,0.6-1.6,1.1-3,1.1c-1.2,0-2.4-0.5-3.2-1.3c-0.8-0.9-1.3-2.1-1.3-3.7c0-1.6,0.5-2.9,1.3-3.7c0.8-0.8,2-1.3,3.2-1.3
		c1.3,0,2.2,0.4,2.9,1.1c0.5,0.5,0.9,1.2,1.1,1.9l4.3-1.4c-0.3-1.3-1-2.5-2-3.6c-1.4-1.4-3.5-2.4-6.3-2.4c-2.6,0-4.9,1-6.6,2.6
		c-1.6,1.7-2.7,4.1-2.7,6.8c0,2.8,1.1,5.1,2.7,6.8C40,40.6,42.3,41.6,44.9,41.6 M30.3,41.6c1.9,0,3.2-0.6,3.8-1.1v-3.9
		c-0.4,0.3-1.3,0.7-2.4,0.7c-0.8,0-1.4-0.2-1.8-0.6c-0.4-0.4-0.5-1-0.5-1.8V18.4h-4.8v4.9h9.6v4.6h-9.6v8.2c0,1.7,0.5,3,1.4,3.9
		C27,41.1,28.5,41.6,30.3,41.6"/>
</g>
</svg>
