<?xml version="1.0" encoding="utf-8"?>
<!-- Generator: Adobe Illustrator 25.4.1, SVG Export Plug-In . SVG Version: 6.00 Build 0)  -->
<svg version="1.1" id="Layer_1" xmlns="http://www.w3.org/2000/svg" xmlns:xlink="http://www.w3.org/1999/xlink" x="0px" y="0px"
	 viewBox="0 0 240 240" enable-background="new 0 0 240 240" xml:space="preserve">
<rect y="-0.4" fill="#E31E23" width="240" height="240"/>
<g>
	<path fill="#FFFFFF" d="M88.9,100.2c0,0.1,0,0.2,0,0.2c0.1,0,0.1,0,0.1,0.1c-0.1,0-0.1,0.1-0.1,0.2s0.1,0.1,0.1,0.2h-0.1v0.1
		c-0.1,0.1-0.1,0.1-0.1,0.2s0,0.3-0.1,0.4s-0.2,0.2-0.3,0.3c0,0.1,0,0.1-0.1,0.1s-0.1,0-0.1,0c-0.1,0.1,0,0.1,0,0.2s0,0.1-0.1,0.1
		c-0.1,0.1-0.1,0.2-0.1,0.3c-0.1,0-0.2,0.2-0.2,0.2c-0.1,0.2-0.1,0.1-0.3,0.2c-0.1,0-0.2,0-0.2,0.1s0.1,0.2,0.1,0.3
		c0,0-0.1,0-0.1,0.1c0,0,0,0.1-0.1,0.1c-0.1,0.1-0.2,0.3-0.4,0.3c-0.1,0-0.1,0-0.2,0.1s-0.2,0.1-0.1,0.2c-0.1,0-0.2,0-0.1,0.1
		c-0.1,0.1-0.3,0.1-0.3,0.2c0,0-0.4,0.2-0.4,0.3c-0.1,0-0.1,0.1-0.1,0.2c-0.1,0.1-0.1,0.1-0.2,0.1c0,0,0,0,0,0.1
		c-0.1,0-0.1,0.1-0.2,0.1s-0.2,0-0.3,0.1c0,0,0,0.1-0.1,0.1c0,0-0.1,0-0.1,0.1c0,0-0.1,0.1-0.2,0.1s-0.1,0.1-0.2,0.2h-0.1l-0.1,0.1
		c-0.1,0-0.2,0-0.2,0.1c-0.1,0.1-0.1,0.1-0.2,0.2c0,0.2-0.5,0-0.4,0.3c-0.1,0-0.2,0.1-0.3,0.1c0,0.1-0.2,0.1-0.1,0.2
		c-0.1,0-0.2,0-0.2,0v-0.1c-0.1,0-0.2,0.1-0.3,0.1c0,0,0,0.1-0.1,0.2c0,0.1-0.1,0-0.2,0s-0.2,0.1-0.3,0.1c-0.1,0-0.2-0.1-0.3-0.1
		V107c-0.1,0-0.1,0-0.2,0.1h-0.2c-0.1,0-0.1,0-0.2,0l-0.1-0.1c-0.1,0-0.2,0.1-0.3,0.1l-0.1-0.1l0.1-0.1c-0.1-0.1-0.2-0.1-0.3-0.1H80
		c-0.1,0-0.1,0-0.1-0.1c-0.1-0.1-0.2-0.1-0.2-0.2c-0.1-0.1-0.1-0.2-0.1-0.4c-0.1,0-0.1-0.1-0.2-0.1c-0.1-0.1,0-0.2-0.1-0.2
		c0,0,0,0,0,0.1h-0.1v-0.1c0-0.1-0.1-0.3-0.1-0.4s0-0.2,0-0.3c0-0.1-0.1-0.1-0.1-0.2s0-0.1,0.1-0.2c0-0.1,0-0.2,0-0.2v-0.1
		c0,0-0.1,0-0.1-0.1c0,0-0.1-0.1,0-0.2c0-0.1,0.1-0.2,0.1-0.4s0-0.3,0-0.4l0.1-0.1c0,0,0-0.1,0.1-0.2c0-0.1,0.1-0.2,0.2-0.3
		s0-0.2,0-0.3c0,0,0.1,0,0.1-0.1s0-0.1,0-0.1c0-0.1,0.1-0.1,0.2-0.2s0.1-0.2,0.1-0.3c0.1-0.1,0.1-0.2,0.1-0.3c0-0.1,0-0.2,0-0.3
		c0-0.1,0.2-0.1,0.2-0.2c0.1-0.1,0.1-0.1,0.2-0.2c0.1-0.3,0.3-0.5,0.5-0.7l0.4-0.3c0.1-0.1,0.2-0.2,0.3-0.3s0.3-0.2,0.4-0.3
		c0.1-0.1,0.3-0.2,0.4-0.4l0.8-0.7c0.1-0.1,0.2-0.1,0.3-0.2c0.1-0.1,0.2-0.1,0.3-0.2c0.1-0.1,0.3-0.2,0.4-0.3c0.1,0,0.2-0.1,0.3-0.1
		c0.1,0,0.2-0.1,0.3-0.2c0.2-0.1,0.3-0.1,0.5-0.2c0.1,0,0.3,0,0.3,0v-0.1h0.2c0.1,0,0.2-0.1,0.3-0.1s0.2,0,0.3,0
		c0.2,0,0.3-0.1,0.5,0c0,0,0,0.1,0.1,0.1s0-0.1,0.1-0.1s0.2,0,0.3,0.1h0.1c0,0,0,0,0.1,0.1s0.2,0.1,0.3,0.1V97
		c0.2-0.1,0.2,0.1,0.3,0.2l0.1,0.2c0,0.1,0,0.1,0,0.2l0.1,0.1v0.1c0,0,0,0.1,0.1,0.1c0,0,0,0.1,0.1,0.2c0,0.1,0,0.1,0,0.2
		c0.2,0.1,0.2,0.2,0.2,0.4c0,0.1,0.1,0.3,0.2,0.3c0,0.1,0,0.2,0,0.3c0,0.2,0.2,0.5,0,0.7C88.9,100.1,88.9,100.1,88.9,100.2z"/>
	<path fill="#FFFFFF" d="M56.3,187.2c0.1-0.1,0.1-0.2,0.1-0.4c0.1-0.1,0-0.3,0.1-0.4l0.1-0.1c0-0.1,0-0.1,0-0.2c0-0.1,0-0.3,0.1-0.4
		c0-0.1,0.1-0.1,0.1-0.1c0-0.1,0-0.1,0-0.2c0-0.1,0.1-0.2,0.1-0.4c0-0.1,0-0.1,0-0.2v-0.2c0-0.2,0.1-0.4,0.2-0.6
		c0-0.1,0-0.1,0.1-0.1c0-0.1-0.1,0-0.1-0.1s0-0.1,0-0.2c0-0.1,0-0.3,0.1-0.4c0.1-0.1,0.1-0.2,0-0.4v-0.4c0-0.1,0.1-0.1,0.1-0.1
		s0-0.1,0-0.2c0-0.1,0-0.2,0-0.4c0-0.1,0-0.2,0.1-0.4c0-0.1,0.1-0.3,0.1-0.4c0-0.1,0-0.2,0.1-0.4c0-0.1,0-0.2,0-0.3s0.1-0.3,0.1-0.4
		c0-0.1,0-0.1,0-0.2c0-0.1,0-0.1,0-0.2c0-0.1,0-0.1,0-0.2V179c0-0.1,0.1-0.2,0.1-0.4c0-0.1,0.1-0.3,0.1-0.4c0-0.1,0.1-0.1,0-0.2
		c0,0,0,0,0-0.1c0,0,0,0,0-0.1s0-0.1-0.1-0.2c0-0.1,0.1-0.1,0.1-0.1s0-0.1,0-0.2c0-0.1,0-0.3,0.1-0.4c0-0.1,0-0.1,0-0.2v-0.2
		c0-0.1,0-0.1,0-0.2v-0.2c0,0,0-0.1,0.1-0.1c0,0,0-0.1,0-0.2s0-0.1,0.1-0.1s-0.1,0-0.1-0.1v-0.1c0-0.1,0-0.2,0-0.3s0-0.1,0-0.2
		c0-0.1,0-0.1,0.1-0.2c0,0,0-0.1,0-0.2s0.1,0,0.1-0.1s0-0.3,0-0.4c0-0.1,0-0.3,0-0.4c0-0.1,0.1-0.2,0-0.4s0-0.2,0.1-0.4v-0.1
		c0,0,0,0,0-0.1s0-0.1,0-0.2v-0.2c0-0.1,0-0.2,0.1-0.3c0-0.1,0-0.1,0-0.2c0-0.1,0-0.3,0-0.4c0-0.1,0.1-0.3,0-0.4c0-0.1,0-0.1,0-0.2
		c0-0.1,0-0.1,0.1-0.1c0-0.1,0-0.1,0-0.2v-0.2c0-0.1,0-0.1,0-0.2v0.9c-0.1,0,0-0.2,0-0.2c0-0.1,0-0.3,0-0.4l0.1-0.1c0,0,0,0,0-0.1
		l0,0l0,0V170v-0.2c0-0.1,0-0.2,0-0.4c0-0.1,0-0.1,0-0.2c0-0.1,0-0.1,0.1-0.1c0-0.1,0.1-0.3,0-0.4c0-0.1,0.1-0.2,0-0.4
		c0-0.1,0-0.2,0.1-0.4l0,0c0.1-0.1,0-0.2,0-0.3s0-0.1,0.1-0.2c0-0.1,0-0.3,0-0.4c0-0.1,0-0.1,0-0.2c0-0.1,0-0.1,0.1-0.2s0,0,0-0.1
		v-0.1c0-0.1,0-0.1,0-0.2v-0.4c0-0.1,0-0.1,0-0.2c0,0,0.1-0.1,0-0.1c0-0.1,0-0.2,0.1-0.3s0-0.3,0-0.4s0-0.3,0-0.4c0-0.1,0-0.1,0-0.2
		v-0.1h0.1l-0.1-0.1l0.1-0.1c0-0.1,0-0.3,0-0.4c0-0.1,0-0.3,0-0.4c0-0.1,0-0.2,0-0.3c0.1-0.1,0.1-0.3,0.1-0.4c0-0.1,0-0.1,0-0.2
		c0-0.1,0-0.1,0-0.2c0-0.1,0-0.3,0-0.4c0-0.1,0.1-0.1,0.1-0.1v-0.2c0-0.1,0-0.3,0.1-0.4c0-0.1,0-0.3,0-0.4v-0.1h0.1c0,0,0,0-0.1-0.1
		v-0.1c0-0.1,0.1-0.2,0.1-0.3s0-0.1,0-0.2c0-0.1,0-0.1,0-0.2c0-0.1,0.1-0.2,0-0.4c0-0.1,0-0.1,0-0.2c0-0.1,0-0.1,0-0.2
		c0-0.1,0-0.1,0-0.2c0-0.1,0-0.1,0-0.2s-0.1-0.1,0-0.2h0.1c-0.1-0.1,0-0.3,0-0.3s0-0.1,0-0.2c0-0.1,0-0.2,0-0.2V157
		c0-0.1,0.1-0.2,0.1-0.3s0-0.3,0-0.4c0-0.1,0-0.1,0-0.2c0-0.1,0-0.1,0-0.2c0-0.1,0.1-0.1,0.1-0.2c0-0.1,0-0.1,0-0.2
		c0,0,0.1,0,0.1-0.1v-0.1c0,0,0,0,0-0.1v-0.1c0,0,0,0,0.1,0c0-0.1,0-0.1,0-0.1v-0.1v-0.1l0.1-0.1v-0.5c0-0.1,0-0.2,0-0.3
		c0,0-0.1,0,0-0.1s0.1,0,0.1,0v-0.1c0,0,0,0,0-0.1c-0.1,0,0.1-0.2,0.2-0.1c0,0-0.1,0,0,0.1h0.1c0.1,0,0.2,0,0.2,0s0.1,0,0.2-0.1
		v-0.1c0,0,0,0,0-0.1s0.2-0.1,0.2-0.2c0-0.1,0-0.1-0.1-0.2c0-0.1-0.1-0.1-0.1-0.1v-0.1c0,0-0.1,0-0.1-0.1s0-0.1-0.1-0.1
		s-0.1,0-0.2-0.1c-0.2-0.1-0.2-0.2-0.2-0.3s0-0.1,0-0.2c0-0.1,0-0.1,0.1-0.2c0-0.1,0-0.1,0-0.1s-0.1-0.1,0-0.2
		c0-0.1,0.1-0.1,0.1-0.2c0-0.1,0-0.1,0-0.1c0-0.1,0.1-0.2,0.1-0.3c0.1-0.1,0.1-0.2,0.1-0.4c0-0.1,0-0.3,0-0.4c0-0.1,0-0.2,0-0.4
		c0-0.1,0.1-0.2,0.1-0.4c0-0.1,0-0.2,0-0.3s0-0.2,0-0.4c0-0.1,0-0.1,0.1-0.1c0,0,0-0.1,0-0.2c0-0.1-0.1-0.2-0.1-0.3c0,0,0,0,0-0.1
		v-0.1c0,0,0,0,0-0.1s0-0.1,0-0.1l0.1-0.1c0-0.1,0-0.1,0-0.2c0-0.2,0.3-0.1,0.2-0.3l0,0c-0.1,0,0-0.1,0-0.1s0.1,0,0.1-0.1
		s0-0.2,0.1-0.3c0,0,0,0,0.1,0s0,0,0-0.1l0.1-0.1c0.1,0,0.2,0,0.2-0.1s0-0.2,0.1-0.3s0.2-0.1,0.1-0.2s-0.1-0.2-0.1-0.3s0-0.2,0-0.2
		V145c0,0,0,0,0.1,0l0,0c0,0,0,0,0-0.1H63c0,0,0.1,0,0.1-0.1s0.1-0.2,0-0.3c0-0.1,0-0.2,0-0.3s0-0.2,0.1-0.3c0-0.1,0.1-0.1,0.1-0.2
		v-0.2c0-0.1,0-0.1,0-0.2c0-0.1-0.1-0.1-0.1-0.1s0.1-0.1,0.1-0.2s0-0.1,0-0.1s0,0,0-0.1v-0.1c0,0,0,0,0-0.1l0,0l0,0l0,0v-0.1v-0.1
		c-0.1-0.1-0.1,0-0.2,0.1c-0.1,0-0.2-0.1-0.3-0.1c-0.1-0.1-0.1-0.2,0-0.3V142c0-0.1,0-0.1-0.1-0.1v-0.1h0.1c0,0,0,0,0-0.1
		s0.1-0.2,0-0.3v-0.1c0-0.1,0-0.1,0-0.2v-0.2c0-0.1,0-0.1,0-0.2v-0.1l0.1-0.1v-0.1v-0.2v-0.1c0,0,0,0,0-0.1v-0.1
		c0-0.1,0-0.1,0.1-0.1s0.1-0.1,0.1-0.1c0-0.1,0-0.1,0.1-0.2c0-0.1,0-0.1,0-0.2c0-0.1,0-0.1,0-0.2c0-0.1,0-0.1,0.1-0.1
		c0-0.1,0-0.2,0-0.3s0-0.2,0-0.3h0.1l0.1-0.1c0-0.1,0-0.2,0-0.3s0-0.2,0-0.4c0-0.1,0-0.1,0-0.1v-0.2c0-0.1,0-0.1,0.1-0.2V137
		c0-0.1,0-0.1,0.1-0.1h0.1c0.1-0.1-0.2-0.1-0.2-0.2c0,0,0-0.1,0-0.2s0,0,0.1,0v-0.1c0-0.1,0.1-0.1,0-0.1c0-0.1,0-0.1-0.1-0.2
		l-0.1-0.1c0,0,0-0.1,0-0.2c0-0.1,0-0.1,0-0.2c0,0,0,0,0-0.1v-0.1c0-0.1,0.1-0.2,0.1-0.2l0,0c0,0,0-0.1,0.1-0.1h0.1L64,136
		c0.1-0.2,0.2-0.4,0.1-0.6c0-0.1,0-0.3,0-0.4s-0.1,0-0.1-0.1s0-0.2,0.1-0.3v-0.1c0-0.1,0-0.2,0.1-0.3c0-0.1,0.1-0.1,0.1-0.2
		s-0.1-0.1-0.1-0.2s0-0.2,0.1-0.3s0-0.2-0.1-0.3c0-0.2,0.1-0.4,0.2-0.6c0.1-0.1,0.1-0.2,0.2-0.3v-0.1c0,0,0,0,0.1,0c0,0,0-0.1,0-0.2
		c0-0.1,0-0.2,0-0.3v-0.1c0-0.1,0-0.1,0.1-0.2v-0.1c0-0.1,0-0.1,0-0.2c0-0.1,0.1-0.1,0.1-0.1c0-0.1,0-0.1,0-0.2v-0.1l0,0l0,0
		c0,0,0,0-0.1,0v-0.2c0,0,0-0.1,0-0.2c0-0.1,0-0.1,0.1-0.1V130c0-0.1,0-0.1,0-0.2l0,0l0,0v-0.1H65c0,0,0,0,0-0.1h0.1h0.1
		c0,0,0,0,0-0.1c0,0,0.1,0,0.1-0.1s0-0.1,0.1-0.1s0.1,0,0.1-0.1c0.1-0.1,0.1-0.2,0.1-0.3s0-0.1,0-0.1l0.1-0.1c0-0.1,0-0.3,0-0.4
		c0-0.1,0.1-0.2,0.1-0.4c0-0.1,0-0.2,0-0.3c0,0,0-0.1,0-0.2s0-0.1,0-0.1l-0.1-0.1v-0.1c0-0.1-0.1-0.1-0.1-0.2s0-0.2,0-0.2
		c0-0.5,0.1-0.9,0.3-1.4c0-0.1,0-0.2,0-0.3c0,0,0-0.1,0.1-0.1h0.2c0.2,0,0.2-0.1,0.3-0.2c0.1-0.1,0.1-0.2,0.1-0.3
		c0-0.1,0.1-0.2,0-0.3c0,0-0.1,0-0.1-0.1h-0.1v-0.1c0-0.2,0.1-0.2,0.2-0.2s0.1-0.2,0.1-0.3s-0.1-0.1-0.1-0.2c0,0-0.1-0.1-0.1-0.2
		s0-0.2,0.1-0.3c0.1-0.1,0.1-0.1,0.1-0.3c0-0.1,0-0.1,0.1-0.1v-0.2c0-0.1-0.2-0.1-0.2-0.2s0-0.2,0.1-0.3c0-0.1,0-0.2,0.1-0.3
		c0-0.1,0-0.2,0.1-0.3c0-0.1,0.1-0.3,0.1-0.4s0.1-0.1,0.1-0.2s0-0.1,0-0.2c0.1-0.1,0.1-0.1,0.1-0.2c0-0.2,0-0.3,0-0.5
		c0-0.1,0-0.1,0-0.2c0,0,0,0,0-0.1c0,0,0,0,0-0.1s0.1-0.1,0.1-0.1c0-0.1,0-0.2,0-0.2c0-0.1,0-0.2,0.1-0.3c0-0.1,0.1-0.2,0.1-0.3
		c0-0.1,0-0.2,0-0.3c0-0.1,0-0.2,0-0.3c0-0.1,0-0.2,0-0.3c0.1-0.1,0.1-0.2,0.1-0.3l0.1-0.3v-0.3v-0.1c0,0,0.1,0,0.1-0.1s0-0.2,0-0.3
		v-0.1v-0.2l0.1-0.3c0.1-0.2,0.1-0.5,0.2-0.7c0-0.1,0.1-0.2,0.1-0.3c0-0.1,0-0.3,0.1-0.3c0-0.1-0.1-0.1-0.1-0.2s0.1-0.1,0.1-0.1
		s-0.1,0-0.1-0.1c0,0,0-0.1,0.1-0.1c0-0.2,0-0.3,0-0.5c0-0.1,0.1-0.1,0.1-0.2s0-0.1,0-0.2l0.1-0.1c0,0,0-0.1,0-0.2s0-0.2,0.1-0.4
		c0-0.1,0.1-0.1,0.1-0.1s0-0.1,0-0.2s0-0.2,0-0.2s0,0,0.1,0v-0.1c0-0.1,0-0.3,0.1-0.4v-0.2c0,0,0.1,0,0.1-0.1s0-0.2,0-0.3v-0.1
		c0,0,0-0.1,0-0.2s0.1-0.1,0.1-0.1c0-0.1,0-0.1,0.1-0.2c0-0.1,0.1-0.1,0.1-0.1c-0.1,0,0-0.1,0-0.1c0-0.1,0-0.1,0-0.1
		c0-0.1,0.1-0.2,0.1-0.3c0-0.1,0-0.2,0.1-0.3c0-0.1,0-0.2,0.1-0.3c0,0,0.1,0,0.1-0.1v-0.2c0-0.1,0-0.1,0.1-0.2v-0.2
		c0-0.1,0-0.1,0.1-0.1c0-0.1,0-0.1,0-0.2s0-0.1,0.1-0.2c0.1,0,0.1-0.1,0.1-0.1s0,0,0-0.1s0-0.2,0.1-0.2c0-0.1,0.1-0.1,0.1-0.1
		l0.1-0.1h0.1v-0.3c0-0.1,0.1-0.2,0.2-0.2l0,0c0-0.1,0-0.2,0.1-0.2v-0.1v-0.1c0.1-0.2,0-0.4,0.1-0.5l0.2-0.2c0-0.1,0.1-0.2,0.1-0.3
		c0-0.1,0-0.3,0.1-0.3c0.1-0.2,0.3-0.2,0.4-0.4c0-0.1,0-0.1,0-0.2s0-0.1,0.1-0.1v0.2c0-0.1,0-0.2,0-0.3c0-0.1,0.2-0.2,0.2-0.3
		c0-0.1,0-0.1,0-0.2v-0.1l0,0l0,0c0.4,0.2,0.4,0,0.4-0.1s0.1-0.2,0.1-0.3c0-0.1,0-0.3,0.1-0.4s0.1-0.2,0.2-0.3
		c0-0.1,0.1-0.2,0.2-0.2s0.1,0,0.2,0l0.1-0.1c0.1-0.1,0.1-0.2,0.2-0.3c0-0.1,0-0.1,0.1-0.2c0,0,0-0.1,0-0.2c0,0,0.1-0.1,0.1-0.2
		s0-0.1,0.1-0.1c0-0.1,0.1-0.2,0.1-0.2c0-0.1,0.1-0.1,0.1-0.2v-0.1c0-0.1,0.1-0.2,0.1-0.3s-0.1-0.2,0-0.4c0-0.1,0.1-0.2,0.1-0.3
		s0-0.1-0.1-0.1c0,0-0.1-0.1-0.1-0.2s0-0.2,0.1-0.4c0-0.1,0-0.3,0-0.4s0.1,0,0.1-0.1s0-0.1,0-0.2s0.1-0.2,0.1-0.4c0-0.1,0-0.2,0-0.4
		v-0.2c0-0.1,0-0.1,0.1-0.2c0-0.1,0-0.1,0-0.2c0,0-0.1-0.1,0-0.1c0-0.1,0.1-0.1,0.1-0.1s0-0.1,0.1-0.2c0-0.1,0.1-0.2,0-0.3
		c0-0.1-0.1-0.2,0-0.3s0.1-0.1,0.2-0.2c0-0.1,0-0.1-0.1-0.2c0-0.1,0-0.2,0-0.3c0.1-0.2,0.2-0.5,0.3-0.7c0.1-0.2,0.2-0.5,0.3-0.7
		c0.2-0.2,0.3-0.5,0.4-0.8c0-0.1,0-0.1,0-0.2s0-0.1,0-0.2c0-0.2,0.1-0.3,0.2-0.5s0.2-0.4,0.2-0.7c0-0.1,0.1-0.2,0.1-0.4
		c0-0.1,0-0.3,0-0.4s0.1-0.2,0.1-0.4c0-0.1,0-0.1,0-0.2s0.1-0.1,0.2-0.1s0.2-0.1,0.2-0.3c0-0.2,0.1-0.4,0.2-0.6
		c0.1-0.1,0.1,0,0.2-0.1s0.1-0.1,0.1-0.2s0-0.2,0.1-0.2c-0.1-0.1-0.2-0.2-0.3-0.4c0-0.1-0.1-0.3,0-0.5c0-0.1,0.1-0.1,0.1-0.1
		c0-0.1,0-0.1,0.1-0.2s0.1-0.2,0.2-0.4c0-0.1,0.1-0.3,0.1-0.4s0-0.2,0-0.2s0.1-0.1,0.1-0.2c0,0,0.1-0.1,0.2-0.2S77,86,77,85.9
		s0-0.2,0-0.2s-0.1-0.1-0.1-0.2s0-0.3,0.1-0.4s0.2-0.2,0.2-0.3c0-0.1,0.2-0.4,0-0.4c0-0.1,0.1-0.2,0.1-0.3c0-0.1,0.1-0.1,0.1-0.2
		s0-0.1,0.1-0.1s0-0.1-0.1-0.1s-0.1-0.1-0.1-0.2s0-0.3,0.1-0.4c0-0.2,0.1-0.3,0.2-0.5c0,0,0,0,0.1-0.1v-0.1c0,0,0.1-0.1,0.1-0.2
		s0-0.3,0.1-0.4c0-0.1,0.1-0.2,0.1-0.4c0.1-0.1,0.1-0.2,0.2-0.3c0.1-0.1,0.2-0.2,0.2-0.3c0-0.1,0-0.1,0-0.2s0.1-0.1,0.1-0.1
		c0-0.1,0-0.1,0-0.2s0-0.1,0.1-0.2c0-0.1,0.1-0.1,0.2-0.1c0.1-0.1,0-0.2,0-0.2l-0.1-0.1c0-0.1,0.1-0.1,0.1-0.2s0-0.1,0.1-0.2
		c0,0,0.1,0,0.2-0.1c0.1,0,0-0.1,0-0.2s0-0.1,0.1-0.1s0.1-0.1,0.1-0.1c0-0.1,0-0.1,0-0.2s0-0.3,0-0.4s0-0.2,0-0.3
		c0-0.1,0.1-0.1,0.1-0.2s0-0.1,0-0.2l0.1-0.1c0-0.1,0-0.2,0-0.3c0-0.1,0.1-0.2,0.1-0.2s0-0.1,0.1-0.2c0-0.1,0.1-0.2,0.2-0.3
		c0,0,0-0.1,0.1-0.1h0.1c0,0,0-0.1,0.1-0.1l0,0v-0.1V76v-0.1c0,0,0,0,0-0.1c0,0,0,0,0-0.1c0,0,0,0,0-0.1s0-0.1,0-0.2l0,0l0,0
		c0,0,0.1,0,0.1-0.1c0,0,0-0.1,0-0.2v-0.4v-0.1l0.1-0.1c0.1-0.1,0.1-0.2,0.1-0.3c0-0.1,0-0.1,0-0.2s0.1-0.2,0.2-0.3c0,0,0,0,0-0.1
		c0,0,0,0,0-0.1V74c0-0.1,0-0.1,0-0.2s0.1-0.2,0.1-0.3l0.1-0.1c0-0.1,0.1-0.2,0.2-0.3c0-0.1,0-0.1,0-0.2s0.1-0.2,0.1-0.4
		c0-0.1,0.2-0.2,0.1-0.3c0.1-0.3,0.4-0.4,0.5-0.7c0-0.1,0.1-0.3,0.2-0.4c0-0.1,0.1-0.1,0.1-0.2S82,70.8,82,70.7
		c0.1,0,0.2-0.3,0.3-0.4c0.1-0.2,0.1-0.3,0.1-0.5c0-0.1,0.1-0.1,0.2-0.2l0.1-0.1c0,0,0.1,0,0.1-0.1c0,0,0-0.1,0.1-0.1
		c0,0,0.1,0,0.1-0.1s0-0.2,0-0.3c0-0.1,0.1-0.2,0.1-0.2c0-0.1-0.1-0.1-0.1-0.3c0-0.1,0-0.2,0-0.3c0-0.1,0.2-0.1,0-0.2
		c0-0.1,0.1-0.3,0.2-0.4c0.1-0.2,0.1-0.3,0.2-0.5s0.2-0.4,0.2-0.6c0-0.1,0.1-0.1,0.1-0.2s0-0.2,0.1-0.3c0.1-0.2,0.2-0.3,0.3-0.5
		v-0.1c0,0,0.1,0,0.1-0.1c0.1-0.1,0-0.2,0-0.3c0.2,0,0.1-0.2,0.2-0.3v-0.1c0-0.1,0.1-0.1,0.1-0.1c0.1-0.2,0.2-0.3,0.2-0.5
		c0-0.1,0.1,0,0.1-0.1s-0.1-0.1,0-0.1c0-0.1,0.1,0,0.1-0.1v-0.1c0-0.1,0-0.3,0.1-0.3v-0.1c0.2,0,0.3-0.6,0.3-0.7
		c0.2-0.5,0.4-0.9,0.6-1.4c0.1-0.3,0.2-0.5,0.4-0.8c0,0,0,0-0.1,0c0-0.1,0-0.2,0.1-0.2c0.1-0.1,0.1-0.1,0.1-0.2
		c0-0.2,0.1-0.3,0.2-0.5c0,0,0-0.1,0.1-0.1c0,0,0.1,0,0.1-0.1s0-0.2,0.1-0.3c0.1-0.2,0.1-0.3,0.2-0.5s0.2-0.4,0.3-0.6l0.1-0.1v-0.1
		c0-0.1,0.1-0.2,0.1-0.3s0-0.1,0-0.2c0,0,0.1,0,0.1-0.1c0.1-0.1,0.1-0.2,0.1-0.3s0.1-0.2,0.1-0.3c0.1-0.1,0.1-0.3,0.2-0.4
		c0.1-0.1,0-0.1,0.1-0.2c0.1-0.1,0.1-0.3,0.2-0.4c0.1-0.2,0.2-0.3,0.3-0.4c0.1-0.1,0.1-0.1,0.2-0.2c0.1-0.1,0.1-0.1,0.2-0.1
		c0-0.1-0.1-0.7,0.2-0.6c0-0.1,0-0.2,0.1-0.3c0-0.1,0.2-0.1,0.2-0.2c-0.2-0.1,0.1-0.3,0.2-0.4l0,0c0,0,0.1-0.1,0.2-0.1s0-0.1,0-0.2
		c0-0.1,0.2-0.2,0.2-0.3c0.1-0.1,0.1-0.3,0.3-0.4c0.1-0.1,0.1-0.1,0.1-0.2c0-0.2,0.1-0.3,0.2-0.4c0.2-0.3,0.4-0.5,0.6-0.8
		c0,0,0.1-0.1,0.1-0.2h0.1c0.1-0.1,0.1-0.1,0.1-0.2c0-0.1,0.1-0.2,0.1-0.3c0.1-0.1,0.1-0.2,0.2-0.3c0-0.1,0.1-0.1,0.2-0.2
		s0.1-0.2,0.2-0.3c0-0.1,0.1-0.1,0.2-0.2c0.1,0,0.2-0.1,0.2-0.1c0-0.1,0-0.1,0.1-0.1c0-0.1,0-0.1,0-0.1l0.1-0.1l0.1-0.1
		c0-0.1,0-0.1,0.1-0.1s0.1-0.1,0.2-0.1c0-0.1,0-0.1,0-0.1c0.1-0.1,0.1,0,0.2-0.1c0-0.1,0-0.1,0.1-0.1c0,0,0.1,0,0.1-0.1
		c0,0,0,0,0-0.1l0,0c0,0,0,0,0.1,0c0.1-0.1,0.2-0.2,0.2-0.4c0.1,0,0.2,0,0.4,0c0.1,0,0-0.2,0.1-0.3c0,0,0.1,0,0.1-0.1l0.1-0.1v-0.1
		c0-0.1-0.1-0.1,0-0.1l0.1-0.1c0.1,0,0.1,0,0.1,0.1s0,0.1-0.1,0.1c0,0,0,0,0,0.1c0,0,0,0.1,0.1,0.1c0,0.1,0.2,0,0.2-0.1
		s0-0.1,0.1-0.1l0.1-0.1c0.1-0.1,0-0.2,0-0.3s0-0.1,0-0.2c0-0.1,0.2,0,0.2-0.1s0-0.1,0-0.2c0-0.1,0.1,0,0.1,0.1s-0.1,0.1,0,0.1
		s0.1,0,0.2,0s0,0,0.1,0v-0.2c0,0,0,0,0.1,0s0-0.1,0-0.2c0-0.1,0.1,0,0.1-0.1h0.1h0.1c0,0,0.1,0,0.1,0.1c0,0,0,0,0,0.1h0.1v-0.1h0.1
		c0.1,0,0,0,0.1-0.1s0.1-0.1,0.1-0.1v-0.2l0.1-0.1c0.1,0,0.1,0.1,0.1,0s0-0.2,0.1-0.2v-0.1c0-0.1,0.1-0.2,0-0.3c0-0.1-0.1-0.2,0-0.3
		c0-0.1,0.1-0.2,0.2-0.2h0.1l0,0l0,0c0.1,0,0.1,0.1,0.1,0s-0.1-0.2-0.1-0.3l0.1-0.1l0.1-0.1c0,0,0-0.1,0-0.2c0,0,0,0,0-0.1
		c0,0,0,0,0.1,0s0-0.1,0.1-0.1l0.1-0.1V43c0,0,0,0,0-0.1l0.1-0.1c0.1-0.1,0.1-0.1,0.2-0.2c0.1-0.1,0.1-0.2,0.2-0.3v-0.1
		c0.1-0.1,0.1-0.1,0.1-0.2h0.1v-0.1c0-0.1,0.1-0.2,0.1-0.3s0-0.2,0.1-0.3s0.1-0.1,0.1-0.1c0-0.1,0-0.1,0.1-0.1v-0.2
		c0-0.1,0-0.1,0-0.1c0-0.1,0.1-0.2,0.1-0.3s0-0.2,0.1-0.4c0-0.1,0-0.1,0.1-0.2c0-0.1,0-0.1,0-0.2c0,0,0,0-0.1,0c0,0-0.1,0-0.1-0.1
		l0.1-0.1c0-0.1,0-0.2,0-0.4v-0.7c0-0.1,0-0.2,0-0.3s-0.1-0.2-0.1-0.3s0-0.1,0-0.2c0-0.1,0-0.1,0-0.2c0-0.1,0-0.2,0-0.4
		c0-0.1-0.1-0.2-0.1-0.3s0-0.1,0-0.2c0-0.1-0.1-0.1-0.1-0.2s0-0.1,0-0.2c0-0.1-0.1-0.2-0.1-0.3s0-0.1-0.1-0.2c0-0.1,0-0.1,0-0.2
		c0-0.1-0.1-0.2-0.2-0.3c0-0.1,0-0.1,0-0.2c0,0-0.1,0-0.1-0.1s0-0.1,0-0.2c-0.1-0.1-0.2-0.3-0.2-0.4c0-0.1,0-0.1-0.1-0.1L98.1,34
		c-0.1-0.2-0.3-0.4-0.4-0.6c-0.1-0.1-0.2-0.1-0.3-0.2c0,0,0-0.1-0.1-0.1s0,0-0.1,0c0,0,0-0.1-0.1-0.1H97l0,0.8c0,0-0.1,0-0.1-0.1
		c0,0,0,0,0-0.1c-0.1,0-0.1,0-0.2-0.1c0-0.1,0-0.1,0-0.1h-0.2l-0.1-0.1c-0.1-0.1-0.1-0.1-0.2-0.2c-0.1,0-0.1,0-0.2-0.1
		c-0.1,0,0-0.1-0.1-0.1s-0.2-0.1-0.3-0.1c-0.1-0.1-0.3-0.1-0.4-0.2c-0.1,0-0.2-0.1-0.3-0.1c-0.1,0-0.2-0.1-0.4-0.1
		c-0.1,0-0.1,0-0.2,0h-0.1c0,0-0.1,0-0.1-0.1c-0.1-0.1-0.2-0.2-0.3-0.2s-0.3,0-0.4,0L93.1,32c-0.2,0-0.3,0-0.4,0s-0.3,0-0.4,0
		s-0.1,0-0.2,0s-0.1,0-0.2-0.1c-0.1,0-0.1,0.1-0.2,0.1s-0.1-0.1-0.2-0.1c-0.2,0-0.3,0-0.5,0.1c-0.2,0-0.3,0-0.5,0.1
		c-0.2,0-0.3,0.1-0.4,0.2s-0.3,0-0.5,0.1c-0.1,0.1-0.3,0.1-0.4,0.2c-0.7,0.3-1.3,0.8-1.8,1.2c-0.2,0.1-0.3,0.3-0.5,0.5
		c0,0,0,0.1-0.1,0.1s-0.1,0-0.2,0c-0.1,0.1-0.1,0.2-0.1,0.3c-0.1,0.1-0.3,0.1-0.3,0.3h-0.1c0,0.1-0.1,0.1-0.2,0.2
		c-0.1,0.1-0.1,0.2-0.2,0.3c-0.1,0.2-0.3,0.3-0.4,0.5s-0.3,0.3-0.4,0.5c-0.2,0.3-0.4,0.6-0.6,0.9c-0.1,0.2-0.2,0.4-0.2,0.6
		c-0.3,0.1-0.4,0.6-0.6,0.8c-0.2,0.3-0.3,0.6-0.5,0.9c-0.3,0.6-0.5,1.2-0.8,1.8c-0.1,0.4-0.2,0.7-0.4,1c-0.2,0.3-0.3,0.6-0.4,1
		s-0.2,0.8-0.4,1.2c-0.1,0.4-0.3,0.8-0.4,1.1c-0.3,0.7-0.6,1.3-0.8,2c-0.1,0.4-0.3,0.7-0.4,1.1c-0.1,0.4-0.2,0.7-0.4,1
		c-0.3,0.7-0.5,1.4-0.7,2.1c-0.1,0.2-0.2,0.4-0.3,0.7c-0.1,0.3-0.2,0.6-0.3,0.8c-0.2,0.5-0.4,1.1-0.6,1.6c-0.2,0.6-0.5,1.2-0.7,1.8
		c-0.3,0.8-0.6,1.5-0.8,2.3c-0.1,0.3-0.3,0.6-0.4,0.9c-0.1,0.4-0.2,0.7-0.4,1c-0.2,0.4-0.3,0.8-0.5,1.2c-0.2,0.5-0.3,1-0.5,1.5
		c-0.2,0.6-0.5,1-0.7,1.6c-0.2,0.7-0.5,1.4-0.8,2.1c-0.7,1.7-1.2,3.4-1.8,5.1c0,0.2-0.1,0.3-0.2,0.5c-0.1,0.1-0.1,0.3-0.2,0.4
		s-0.2,0.3-0.3,0.4c-0.1,0.2-0.2,0.3-0.2,0.5c-0.1,0.4-0.2,0.7-0.3,1.1c-0.1,0.5-0.2,1-0.5,1.4c-0.1,0.3-0.1,0.5-0.2,0.8
		c-0.3,0.5-0.5,0.9-0.7,1.4c-0.1,0.3-0.3,0.6-0.4,0.9s-0.2,0.7-0.3,1c-0.1,0.3-0.3,0.6-0.2,0.8c-0.2,0.2-0.3,0.7-0.3,0.9
		c-0.1,0.4-0.1,0.7-0.2,1c-0.2,0.3-0.5,0.7-0.5,1c0,0.4,0,0.7,0,1.1c0,0.3-0.2,0.3-0.3,0.5c-0.1,0.2-0.2,0.4-0.2,0.7
		c0,0.2,0,0.5-0.1,0.7s-0.2,0.5-0.3,0.7c-0.3,0.9-0.5,1.8-0.8,2.7c-0.1,0.5-0.2,0.9-0.3,1.4s-0.4,0.9-0.5,1.4
		c-0.3,0.9-0.5,1.9-0.7,2.8c-0.1,0.3-0.2,0.7-0.2,1c0,0.2,0,0.3,0,0.5s-0.2,0.4-0.3,0.6c0,0.3-0.1,0.5-0.1,0.8
		c-0.2,0.4-0.3,0.9-0.5,1.3c-0.2,1-0.6,1.9-0.8,2.8c-0.2,0.8-0.5,1.5-0.6,2.2c-0.1,0.3,0,0.7-0.1,1c-0.1,0.4-0.2,0.8-0.3,1.1
		c-0.1,0.3-0.1,0.5-0.2,0.8c0,0.1,0,0.3-0.1,0.4c0,0.1-0.2,0.2-0.2,0.3c0,0.2-0.1,0.4-0.1,0.7c-0.1,0.2-0.1,0.4-0.1,0.6
		c-0.1,0.5-0.2,0.9-0.3,1.4c-0.2,0.7-0.4,1.4-0.6,2.1c-0.1,0.4-0.2,0.8-0.2,1.1c-0.2,0.7-0.3,1.4-0.4,2.1c-0.1,0.4-0.2,0.8-0.3,1.1
		c-0.1,0.4-0.2,0.7-0.2,1.1c-0.1,0.3-0.3,0.8-0.1,1c-0.2,0.3-0.2,0.6-0.3,1c0,0.3,0,0.6-0.1,0.9c-0.1,0.5-0.3,1-0.4,1.6
		c-0.1,0.4-0.1,0.9-0.3,1.3c-0.1,0.3-0.1,0.7-0.2,1c-0.1,0.5-0.2,1.1-0.2,1.6c-0.1,1.1-0.4,2.1-0.6,3.2c-0.1,0.5-0.2,0.9-0.2,1.4
		c0,0.7-0.3,1.4-0.4,2.1c0,0.3-0.1,0.5-0.2,0.8c-0.1,0.5-0.1,1.1-0.2,1.6c-0.1,1-0.3,2-0.6,3c-0.1,0.4-0.1,0.7-0.2,1.1
		c-0.1,1.3-0.4,2.7-0.6,4c-0.1,0.7-0.2,1.3-0.3,1.9c0,0.3,0,0.7-0.1,1c0,0.2-0.1,0.5,0,0.7c0,0.1-0.1,0.2-0.1,0.2c0,0.1,0,0.2,0,0.3
		c0,0.4-0.1,0.8-0.2,1.2h-0.1c-0.1,0.1-0.1,0.3,0,0.4c-0.1,0.1-0.1,0.3-0.2,0.4c-0.2,0.1-0.2-0.2-0.2-0.3c-0.2-0.2-0.2-0.2-0.5-0.1
		c0-0.1-0.1-0.2-0.1-0.4c-0.1-0.2,0-0.1,0-0.3c0.1-0.3,0.1-0.6,0-0.8c0-0.2-0.1-0.2-0.1-0.3s0.1-0.2,0.1-0.3c0-0.4-0.3-0.3-0.6-0.5
		c0-0.1,0.1-0.2,0.1-0.3s-0.1-0.2-0.1-0.4v-0.8c0-0.2,0-0.5,0-0.7c-0.1-0.2-0.2-0.4-0.2-0.7c-0.1-0.2-0.1-0.5-0.2-0.7
		c0-0.1,0.1-0.2,0.1-0.3s-0.1-0.3,0-0.4c0.1-0.3,0.2-0.3,0.1-0.6c-0.2-0.7,0-0.5,0-0.8c0-0.2-0.1-0.4-0.2-0.6
		c-0.1-0.1-0.2-0.1-0.2-0.2c-0.2-0.1-0.1-0.1-0.1-0.3c0-0.1-0.1-0.1,0-0.2c0.1,0,0.2,0,0.2-0.1h-0.1c-0.1,0,0,0-0.1,0.1
		c-0.2,0.2-0.3-0.1-0.2-0.2c0-0.1,0.1-0.1,0.1-0.2c0-0.1-0.1-0.1,0-0.2s0.3-0.2,0.3-0.3h-0.1c-0.1,0,0,0-0.1,0.1
		c-0.1,0-0.1,0.1-0.2,0.1c0,0.2-0.2,0.1-0.2,0s0-0.1,0-0.2s0-0.1,0-0.2v-0.4c0-0.1,0-0.2,0-0.3c0.1-0.1,0.1-0.1,0.1-0.2
		c0-0.1,0-0.2-0.1-0.2c-0.2-0.1-0.1-0.1,0-0.2c0.1-0.1,0.1-0.2,0.1-0.3s0.1-0.2,0.1-0.2c0-0.1,0-0.2,0.1-0.3s0.1,0,0.1-0.1l0.1-0.1
		c0-0.1,0.1-0.2,0.1-0.2c0-0.2,0-0.3,0-0.5c-0.1-0.1-0.1-0.2-0.2-0.3c-0.1-0.1,0-0.3-0.1-0.4c0-0.1-0.1-0.1-0.2-0.2
		c0-0.1,0-0.2,0-0.3c0,0-0.2-0.1-0.1-0.2c0-0.1-0.1-0.1-0.1-0.2s0-0.2-0.1-0.3s-0.1-0.1-0.1-0.2s0-0.2,0-0.3c0-0.2-0.1-0.4-0.1-0.6
		v-0.7c0-0.2,0-0.4,0-0.6c0-0.1-0.1-0.1-0.1-0.2c-0.1-0.1,0-0.1-0.1-0.3c0-0.1-0.1-0.1-0.1-0.2c-0.1-0.1-0.1-0.2-0.1-0.3
		c0-0.2,0-0.4-0.1-0.5c0.1-0.1,0.1-0.1,0-0.2s0-0.2-0.1-0.3c0-0.1,0-0.2-0.1-0.3c0-0.1-0.2-0.1,0-0.2c0.1-0.1,0.2,0,0.3-0.1
		s0.1-0.2,0.1-0.2c-0.1-0.2-0.2-0.3-0.3-0.4c-0.1-0.1-0.2-0.3-0.2-0.5c0-0.1,0-0.3,0.1-0.4c0-0.1,0-0.3-0.1-0.4v-0.4
		c0-0.1-0.1-0.2-0.1-0.3s0-0.2-0.1-0.4c-0.1-0.1-0.2-0.2-0.2-0.2c-0.1-0.2-0.2-0.4-0.2-0.7c0-0.1,0-0.1,0.1-0.2
		c-0.1-0.1-0.2,0-0.2-0.1c0-0.2,0.1-0.1,0-0.2c-0.1,0-0.1,0-0.1-0.1v-0.2c0-0.1,0-0.2,0-0.3c0.1-0.1,0.2-0.1,0.1-0.3
		s-0.2-0.1-0.3-0.2c-0.2,0-0.2,0-0.2-0.2c0-0.1,0-0.2,0-0.4c0-0.1,0-0.2,0-0.4c0-0.1-0.1-0.2-0.1-0.3c0-0.2,0-0.3,0.1-0.5
		c0-0.1,0-0.2,0-0.2c-0.1-0.1-0.1,0-0.2-0.1c0-0.4-0.1-0.8-0.2-1.2c0-0.2,0-0.1,0.1-0.2s0-0.2-0.1-0.3c-0.1-0.2-0.2-0.4-0.2-0.6
		c0-0.1,0-0.3-0.1-0.4c0-0.1-0.1-0.3-0.1-0.4s0-0.1,0.1-0.2s0.2-0.1,0.1-0.2c0-0.1-0.1,0-0.2-0.1c-0.1,0-0.1-0.1-0.1-0.1
		c0-0.1,0-0.1,0.1-0.2s0-0.1-0.1-0.1c-0.1-0.1-0.1-0.3,0-0.4c0-0.1,0.1-0.1,0-0.2c0-0.1,0-0.1,0-0.1s-0.1,0-0.1-0.1v-0.2
		c0-0.1,0-0.1,0-0.2v-0.1l-0.1-0.1c0,0,0.1-0.2,0-0.1c-0.1-0.1,0-0.1,0.1-0.2c0-0.1-0.1-0.1-0.1-0.1s-0.1-0.1-0.1-0.2
		c0-0.2,0-0.2,0.2-0.3c0.1,0,0.1,0,0.1-0.1s-0.1-0.1-0.1-0.2s0-0.1,0-0.2s0-0.2-0.1-0.2c0-0.1,0-0.1,0-0.2s-0.2-0.1-0.1-0.2
		s0.1,0,0.2-0.1c0-0.1-0.1-0.1-0.1-0.1c0-0.1,0.1-0.1,0.1-0.1c0-0.1-0.1-0.1-0.1-0.1c-0.1,0-0.3,0-0.3-0.1c-0.1-0.1-0.1-0.3,0-0.4
		s0.2-0.1,0.2-0.3c0-0.1,0-0.1-0.1-0.1s-0.1-0.1-0.1-0.2s-0.1-0.4,0-0.4s0.1,0,0.2-0.1c0-0.1-0.1-0.1-0.2-0.1
		c-0.1,0.1-0.2,0.1-0.3,0.1c0,0-0.1-0.1-0.1-0.2s0.1-0.1,0.1-0.1s0.1-0.1,0.1-0.2s-0.1-0.1-0.1-0.1s-0.2-0.3-0.1-0.4
		c0.1,0,0.1,0.1,0.1,0s0-0.1,0-0.2s0-0.1-0.1-0.1s-0.1-0.1-0.1-0.2c-0.1-0.1-0.1-0.3-0.1-0.5c0-0.1,0-0.1,0.1-0.2s0.1-0.1,0.1-0.2
		s-0.2-0.3-0.2-0.4c-0.1-0.1-0.1-0.3-0.1-0.4V110c0-0.1,0-0.1,0-0.2s0-0.1,0-0.2s-0.1-0.1,0-0.2c0-0.1,0.1-0.1,0-0.2
		c-0.1-0.2-0.1-0.4-0.1-0.6c0-0.1,0-0.3-0.1-0.4c0-0.1-0.1-0.3-0.1-0.4s-0.1-0.3-0.1-0.4v-0.2c0-0.1,0-0.2,0-0.2c0-0.2,0-0.3,0-0.5
		c0-0.1,0-0.1,0-0.2s-0.1-0.1-0.1-0.2s0-0.3,0-0.4v-0.1c0,0-0.1,0-0.1-0.1c0,0,0.1-0.1,0-0.2s-0.1-0.3-0.1-0.4c0-0.2,0-0.3-0.1-0.5
		v-0.2c0-0.1,0-0.1,0-0.2s0-0.2,0-0.3v-0.1l-0.1-0.1v-0.1v-0.1c0-0.1,0-0.2,0-0.3c0-0.1,0-0.2-0.1-0.4c0-0.1,0-0.1,0-0.2
		s0-0.1,0-0.2s-0.1-0.3,0-0.5c0-0.1-0.1-0.3-0.1-0.4s0-0.2,0-0.3c0-0.1,0-0.2-0.1-0.2c0-0.1-0.1-0.3-0.1-0.5c0-0.1,0-0.1,0-0.2
		s-0.1-0.1-0.1-0.2c-0.1-0.3-0.1-0.6-0.2-0.9c0-0.1,0-0.3-0.1-0.4c0-0.1-0.1-0.3-0.1-0.4c-0.1-0.3-0.2-0.6-0.3-0.8
		c0-0.1-0.1-0.2-0.2-0.3c0,0,0-0.1-0.1-0.2c0-0.1,0-0.1-0.1-0.1c0-0.1,0-0.1-0.1-0.2s-0.1-0.2-0.2-0.4c0-0.1-0.1-0.1-0.1-0.1
		s-0.1-0.1-0.1-0.2l0.7,1.1c-0.1-0.1-0.1-0.2-0.2-0.2c-0.1-0.1-0.2-0.1-0.3-0.2s-0.1-0.2-0.2-0.2c-0.1-0.1-0.1-0.1-0.2-0.2
		c-0.2-0.1-0.3-0.2-0.5-0.3l-0.2-0.1c-0.1-0.1-0.3-0.1-0.5-0.2c-0.1,0-0.1-0.1-0.2-0.1c-0.2,0-0.4,0-0.6-0.1c-0.2,0-0.3,0-0.5,0
		c-0.1,0-0.1-0.1-0.2,0c-0.1,0-0.1,0-0.2,0c-0.1,0-0.3,0-0.4,0c-0.1,0-0.3,0-0.4,0.1c-0.1,0-0.3,0.1-0.4,0.1c-0.1,0-0.1,0-0.2,0.1
		c-0.1,0-0.1,0.1-0.1,0.1c-0.1,0-0.2,0-0.2,0l0,0c-0.1,0.1-0.3,0.1-0.4,0.2l-0.3,0.2c-0.2,0.1-0.4,0.3-0.6,0.4
		c-0.2,0.2-0.3,0.3-0.5,0.5s-0.4,0.5-0.5,0.8c-0.2,0.3-0.4,0.7-0.5,1c-0.1,0.4-0.3,0.8-0.4,1.2l-0.1,0.3c0,0.1-0.1,0.2-0.1,0.3
		c0,0.2-0.1,0.4-0.2,0.6l-0.1,0.2c0,0.1,0,0.1-0.1,0.2s-0.1,0.3-0.2,0.4c0,0.1-0.1,0.1-0.1,0.2s0.1,0.1,0,0.2c0,0-0.1,0-0.1,0.1v0.1
		c-0.1,0.5-0.3,0.9-0.4,1.3c0,0.1-0.1,0.2-0.1,0.3c0,0.1,0,0.2-0.1,0.3c0,0.2-0.1,0.4-0.2,0.6s-0.1,0.3-0.2,0.5
		c-0.2,0.7-0.3,1.4-0.6,2.1c-0.1,0.2-0.2,0.4-0.3,0.6c-0.1,0.2-0.2,0.4-0.2,0.7c0,0.3-0.1,0.5-0.2,0.8c0,0.2-0.1,0.4-0.3,0.6
		c-0.2,0.3-0.3,0.6-0.3,0.9c-0.1,0.2-0.2,0.5-0.3,0.7c0,0.2-0.1,0.4,0,0.6c0,0.3-0.1,0.5-0.2,0.8c-0.1,0.5-0.3,0.9-0.5,1.4
		c-0.2,0.4-0.3,0.8-0.4,1.2c0,0.2-0.1,0.4-0.3,0.6c-0.1,0.2-0.2,0.4-0.2,0.6c0.1,0.1-0.1,0.4-0.2,0.6c0,0.3,0,0.5-0.1,0.8
		c-0.2,0.5-0.3,0.9-0.5,1.4c-0.1,0.4-0.5,0.7-0.6,1.1c-0.1,0.2-0.2,0.5-0.2,0.8s0,0.5-0.1,0.8s-0.2,0.6-0.4,0.9
		c-0.1,0.1-0.7,0.4-0.3,0.5c-0.2,0.2-0.4,0.3-0.2,0.6c-0.1-0.1-0.2,0.4-0.2,0.4c0,0.2,0,0.5-0.1,0.7c-0.2,0.6-0.5,1.1-0.7,1.7
		c-0.2,0.7-0.6,1.3-0.8,2h0.1c0,0.2-0.1,0.4-0.2,0.6c-0.1,0.2-0.2,0.4-0.3,0.6c0,0.1,0,0.2,0,0.4c-0.1,0.1-0.1,0.2-0.2,0.3
		c-0.1,0.2-0.1,0.4-0.2,0.6c0.1,0.1-0.1,0.3-0.1,0.5s-0.1,0.4-0.1,0.6c-0.1,0.3-0.3,0.7-0.4,1.1c-0.1,0.4-0.3,0.7-0.4,1.1
		c-0.3,0.8-0.4,1.6-0.4,2.4c0,0.4,0.2,0.8,0.4,1.2c0.4,0.6,0.9,1.1,1.4,1.5c0.3,0.2,0.6,0.3,0.9,0.3c0.2,0,0.3,0.1,0.4,0.2
		c0.2,0,0.3,0,0.4,0s0.3,0,0.5,0c0.1,0,0.2-0.1,0.4-0.1c0.1,0,0.3-0.1,0.5-0.1c0.1,0,0.2,0,0.2,0s0.1-0.1,0.2-0.1s0.1,0,0.2,0
		s0.1-0.1,0.1-0.1c0.1-0.1,0.3-0.1,0.4-0.2c0.3-0.1,0.5-0.3,0.8-0.5c0.1-0.1,0.2-0.2,0.3-0.4c0.1,0,0.1-0.1,0.2-0.1
		c0-0.1,0-0.2,0.1-0.2c0.1-0.1,0.4,0.1,0.4,0c0.1-0.1,0-0.1-0.1-0.2c-0.1-0.2,0-0.4,0.1-0.6c0.1-0.2,0.1-0.2,0.2-0.3
		s0.1-0.2,0.1-0.3s-0.1-0.2,0-0.2c0,0,0.1,0,0.1-0.2c0.1-0.1,0.1,0,0.2-0.2c0-0.1,0-0.2,0-0.3s0.1-0.1,0.2-0.2c0.1-0.1,0-0.2,0-0.3
		c0-0.2,0.2-0.3,0.3-0.5c0.1-0.1,0.2-0.1,0.1-0.2c0-0.1-0.2-0.1-0.1-0.2s0.3-0.2,0.4-0.4c0-0.1,0-0.2,0.1-0.3s0.2-0.1,0.2-0.2
		s-0.1-0.2,0-0.3c0-0.1,0.1-0.2,0.1-0.3c0-0.2,0.1-0.4,0.2-0.5s0.1-0.2,0.3-0.3c0.1,0,0.3,0,0.3-0.1s-0.2,0-0.3-0.1
		c-0.1,0,0-0.2,0-0.3s0.1-0.1,0.1-0.1s0.1-0.1,0.1-0.2v-0.2c0-0.1,0.1,0,0.1-0.1c0.1,0,0-0.1,0-0.1v-0.1h0.1c0.1-0.1,0,0,0-0.1
		c0,0,0-0.1,0-0.2l0.1-0.1v-0.1l0,0c0,0,0.1,0,0.1-0.1c-0.1-0.1,0-0.2,0-0.2s0.2-0.1,0.2-0.2c0,0,0-0.1,0-0.2c0,0-0.1,0-0.1-0.1
		c0,0,0,0,0-0.1s0,0,0-0.1v-0.1c0-0.1,0.1,0,0.1-0.1v-0.1c0,0,0.1,0,0.1-0.1s0.1-0.1,0-0.1h-0.1h-0.1v-0.2c0-0.1,0-0.2,0.1-0.1
		c0,0,0,0,0,0.1h0.1c0,0,0.1,0.1,0.1,0c0.1,0,0.1-0.1,0-0.1c0,0-0.1,0-0.1-0.1l0.1-0.1c0,0,0-0.1,0-0.2c0-0.1,0-0.1,0-0.2
		c0-0.1,0-0.1,0-0.1s0-0.1,0-0.2l0.1-0.1l0.1-0.1c0,0,0-0.1-0.1-0.1c-0.2,0,0-0.1,0-0.2c0-0.1,0-0.3,0.1-0.3c0.1-0.1,0.1,0,0.2,0
		s0-0.1,0-0.1c0-0.1,0.1-0.2,0.1-0.3v-0.1c0,0,0.1,0,0.2,0c0.1,0,0.1-0.1,0.1-0.2c0,0-0.1,0-0.1-0.1s0-0.1,0-0.2s0-0.3,0.1-0.3h0.1
		V126c0-0.1,0-0.2,0-0.2c0.1,0,0-0.1,0.1-0.1c0,0,0,0,0.1,0c0,0,0,0,0.1-0.1c0,0,0,0,0.1,0s0.1,0,0.1,0s0-0.1,0-0.2h-0.1
		c0,0-0.1,0,0-0.1s0-0.1,0-0.1c0-0.1,0-0.1,0.1-0.1s0.1,0,0.1-0.1s-0.1-0.1-0.1-0.1c0-0.1,0.2-0.1,0.3-0.1s0.2-0.2,0.1-0.3
		c-0.1-0.1-0.1,0-0.1-0.1c0,0,0-0.1,0-0.2c0-0.2,0.1,0,0.2,0c0.1,0,0-0.2,0-0.2s0.1,0,0.1-0.1v-0.1c0-0.1,0.1-0.2,0.1-0.3
		c0,0,0,0.1-0.1,0.1s0-0.1,0-0.1s-0.1-0.1-0.1-0.2s0-0.1,0-0.2c0.1-0.1,0.2,0.1,0.2,0.1s0.1,0,0.1-0.1s0-0.1,0.1-0.1s0.2-0.1,0.3,0
		s0,0.1,0.1,0.1s0.1,0,0.1-0.1s-0.2,0-0.2-0.2c0-0.1,0.1,0,0-0.1h-0.1v0.1c-0.1-0.1,0-0.1,0-0.2s0-0.1,0-0.1s0.1,0,0.1-0.1
		c-0.1,0,0-0.1,0-0.2c0.1,0,0.3,0.3,0.4,0.1v-0.1c0,0,0.1,0,0.1-0.1c0,0,0-0.1,0-0.2h0.1c0,0,0,0,0.1-0.1c0,0,0.1-0.1,0-0.2v-0.1
		l0,0c0,0,0,0,0.1-0.1v-0.1l0.1-0.1c0-0.1,0-0.1,0.1-0.1V121l0,0l0,0v-0.1c0-0.1,0-0.1,0-0.2s0.1-0.1,0.1-0.2v-0.2c0,0,0,0,0-0.1
		c0.1,0,0.2-0.1,0.2-0.2c0.1,0,0.2,0,0.3,0c0,0,0,0.1,0.1,0.1s0.1,0,0.1,0s0.1,0,0.2,0s0.1,0,0.2,0c0,0,0.1,0,0.1,0.1
		c0.1,0,0.1,0,0.1,0.1s0.1,0.2,0.1,0.2s0.1,0,0.2,0c0,0,0.1-0.1,0.1,0s-0.1,0.1-0.1,0.1v0.3c0,0,0,0,0,0.1c0,0,0,0.1,0,0.2
		s-0.1,0.2-0.1,0.3l0.1,0.1l0.1,0.1c0.1,0.1,0.1-0.1,0.2-0.2c0.1-0.1,0.2-0.1,0.3-0.1s0.2,0.1,0.2,0.2c0.1,0.1,0,0.2-0.1,0.2
		c0,0-0.1,0-0.1,0.1s0,0.1,0,0.1v0.2c0,0,0,0.1,0,0.2c0,0-0.2,0.1-0.1,0.2c0.1,0.1,0.3,0.1,0.3,0.2s0,0-0.1,0.1v0.1c0,0,0,0-0.1,0
		c0,0-0.1,0-0.1,0.1s0,0.1,0,0.1c0-0.1,0.1,0.1,0.1,0.1s0,0.1,0,0.2s-0.1,0.2-0.1,0.3s0.2,0.1,0.2,0.2s0,0.2,0,0.3
		c-0.1,0.2-0.1,0.5,0.1,0.7c0.1,0.1,0.1,0.2,0.2,0.3h0.1c0,0,0,0.1,0,0.2l0.1,0.1c0,0-0.1,0.1,0,0.2H39c0,0,0,0,0.1,0.2
		c0,0.2,0.1,0.4,0.1,0.6s-0.1,0.3-0.2,0.5c0.1,0.1,0.2-0.1,0.2-0.2c0,0.2,0.1,0.4,0.1,0.7c0,0.1,0.1,0.1,0.1,0.2s0,0.2,0,0.3
		c0,0.2,0,0.4,0.1,0.6c0,0.2,0.1,0.3,0.1,0.5c0,0.1,0,0.3,0,0.5c0,0.1,0.1,0.2,0.1,0.3c0.1,0.2,0.1,0.4,0.1,0.6
		c0.1,0.2,0.1,0.4,0.1,0.7c0,0.1,0,0.2,0,0.3s0.1,0.1,0.1,0.2c0,0-0.1,0-0.1,0.1v0.1c0,0.1,0,0.2,0,0.2c0,0.2,0,0.3,0.1,0.5l0.1,0.5
		c0,0.1,0,0.3,0.1,0.4c0,0.1,0.1,0.3,0.1,0.4c0,0.1,0.1,0.2,0.1,0.3c0,0.2,0,0.4,0,0.6v0.1l-0.4,0c0,0.1,0,0.2,0,0.3
		c0,0.2,0,0.4,0,0.7c0,0.1-0.1,0.2,0.1,0.2c0,0.1-0.1,0.1-0.1,0.2c0.1,0,0,0.5,0.2,0.4c0,0.1,0,0.1,0.1,0.2c0.1,0.1,0.1,0.1,0.1,0.2
		c0,0.1,0,0.2,0,0.4c0,0.3,0.1,0.5,0.1,0.8s0,0.4,0.1,0.6l0.1,0.3c0,0.1-0.1,0.2-0.1,0.2c0.1,0.1,0.1,0.2,0.1,0.3s0.1,0.2,0.1,0.3
		c0,0.2,0.1,0.4,0.1,0.6c0.1,0.4,0.2,0.8,0.2,1.3v0.3c0,0.1,0.1,0.2,0.1,0.3s0,0.2,0,0.3s0.1,0.2,0.1,0.3c0,0.2,0,0.4,0.1,0.6
		c0,0.1,0,0.2,0.1,0.3c0.1,0.2,0.1,0.4,0.1,0.6c0,0.1,0,0.2,0.1,0.3v0.2c0,0,0,0.1,0.1,0.1c0,0.1,0,0.2,0,0.3c0,0.2,0,0.4,0.1,0.7
		c0,0.1,0,0.2,0.1,0.3s0.1,0.2,0.1,0.3c0,0.2,0,0.4,0,0.6c0,0.1,0.1,0.2,0.1,0.2s-0.1,0.1,0,0.2v0.1v0.1c0,0.1,0,0.2,0,0.3
		c0.1,0.2,0.1,0.4,0.1,0.6c0,0.2,0,0.4,0.1,0.6c0,0.2,0,0.3,0.1,0.5c0,0.1,0,0.2,0,0.3s0,0.2,0.1,0.4c0,0.1,0,0.2,0.1,0.4
		c0,0.1,0,0.3,0,0.5s0.1,0.3,0.2,0.5c0,0.1,0.1,0.2,0,0.3c0,0.1-0.1,0.2-0.1,0.3s0.2,0.2,0.2,0.3s0,0.2,0,0.3s0,0.2,0.1,0.3
		c0,0,0,0.1,0,0.2s0,0.1,0,0.1c0,0.1,0,0.2,0.1,0.2s-0.1,0.1-0.1,0.2s0,0.1,0.1,0.1c0.1,0.1,0.1,0.3,0.1,0.4c0,0.1,0,0.1,0,0.2
		s0.1,0.1,0.1,0.1c0.1,0.1,0,0.3,0,0.4c0,0.1,0.1,0.3,0.1,0.4c0,0.1,0,0.1,0,0.2c0,0.1,0,0.1,0,0.1s0,0,0.1,0c0.1,0.1,0,0.1,0,0.2
		c0,0.1,0,0.1,0.1,0.2c0,0.1,0,0.3,0,0.4h0.1v0.1c-0.1,0,0,0.1,0,0.1c0,0.1,0,0.1,0,0.2c0,0.1,0,0.2,0,0.2v0.2c0,0.1,0,0.2,0,0.3
		l0.1,0.1v0.2c0,0.1,0,0.3,0,0.4c0,0.1,0,0.3,0,0.4c0,0.1,0.1,0.1,0.1,0.1s0,0.1,0,0.2s0,0.2,0,0.2s0,0.1,0,0.2c0,0.1,0,0.3,0,0.4
		v0.1c0,0,0,0,0,0.1s0.1,0.1,0.1,0.1c0,0.1,0,0.1,0,0.2c0,0.1,0,0.1,0,0.2v0.2c0,0.1,0,0.1,0.1,0.1c0,0.1,0,0.2,0,0.3s0,0.2,0.1,0.3
		v0.1v0.1c0,0.1,0,0.2,0.1,0.3s-0.1,0.1,0,0.2s0,0.1,0,0.1v0.1c0,0.1,0,0.5,0.1,0.5v0.3l0,0l0,0c0,0.1,0,0.1,0,0.2s0,0.1,0,0.2
		c0.1,0.1,0.1,0.2,0.1,0.3s0,0.1,0,0.2c0,0.1,0.1,0.1,0.1,0.2c0,0,0,0.1-0.1,0.1c0,0,0,0.1,0,0.2c0.1,0,0.1,0.2,0.1,0.3
		s0,0.2-0.1,0.3s-0.1,0.1-0.1,0.3c0,0.1,0,0.2,0,0.3s-0.1,0.1-0.1,0.2s0,0.2,0,0.2c0,0.1-0.1,0.2,0,0.3c0.1,0,0.1,0.1,0.2,0.1
		s0.1,0.1,0.2,0.1c0.1,0.1,0.2,0.2,0.2,0.3s0,0.1,0,0.2c0,0.1,0,0.1,0,0.2s0,0.1,0,0.2c0,0.1,0,0.1-0.1,0.1c0,0.1-0.1,0.2-0.2,0.3
		l-0.1,0.1l-0.1,0.1c0,0.1,0.1,0,0,0.1c0,0-0.1,0-0.1,0.1c0,0,0.1,0,0.1-0.1l0,0c0.1,0,0.1,0,0.1,0s0.1,0,0.1-0.1c0.1,0,0.1,0,0.2,0
		c0,0,0.1,0,0.1,0.1s0,0.1,0.1,0.2c0.1,0.1,0.1,0.2,0.1,0.3s0,0.2,0,0.4s0.1,0.2,0.1,0.4c0,0.1,0,0.2,0.1,0.4c0,0.1,0,0.1,0.1,0.2
		c0,0.1,0,0.1,0,0.2v0.1c0,0,0,0,0,0.1v0.1v0.3c0,0,0,0.1,0,0.2s-0.1,0-0.1,0.1c0,0,0.1,0.1,0.1,0.2s0,0.1,0.1,0.2
		c0,0.1,0.1,0.1,0.1,0.2s0,0.1,0,0.2s0.1,0.1,0.1,0.2c0,0.1,0,0.1,0,0.2s0.1,0.1,0.1,0.2v0.2c0,0.2,0,0.3,0.1,0.5v0.2
		c0,0.1-0.1,0.1-0.1,0.1s-0.1,0.3,0,0.4c0,0,0.1,0,0.1,0.1s0,0.1,0.1,0.2c0.1,0.1,0.1,0.2,0.1,0.3s0,0.3,0,0.4c0,0.1,0,0.1,0,0.2
		v0.2l0.1,0.1c0,0.2,0,0.3,0.1,0.5c0,0.1,0.1,0.3,0.1,0.4c0,0.1,0,0.2,0,0.4c0,0.1,0,0.1,0,0.2v0.2v0.1h0.1c0,0,0,0.1,0,0.2
		s0,0.1,0,0.1v0.1c0,0.1,0,0.1,0,0.2c-0.1,0.1-0.1,0,0,0.1l0.1,0.1c0,0,0,0.1,0,0.2c0,0.1,0,0.1,0.1,0.1c0.1,0.2,0.1,0.4,0.1,0.6
		c0,0.2,0.1,0.4,0.1,0.6c0,0.1,0,0.2,0,0.3s0,0.2,0,0.3c0.1,0.1,0,0.2,0,0.3v0.2c0,0.1,0.1,0.1,0.1,0.2c0,0.1,0,0.2,0,0.2
		c0,0.1,0.1,0.1,0.1,0.2c0,0.1,0.1,0.3,0.1,0.4c0,0.1,0,0.3,0.1,0.4c-0.1,0.1,0,0.1,0,0.2c0.1,0.1,0,0.2,0,0.3s0.1,0.2,0.1,0.2
		c0,0.1,0,0.1,0,0.2c0,0,0,0,0.1,0.1c0,0-0.1,0-0.1,0.1c0,0,0,0,0,0.1c0,0,0,0,0,0.1v0.1c0,0.1,0,0.1-0.1,0.2
		c-0.1,0.1,0.1,0.1,0.1,0.2c0,0.1,0,0.1,0,0.2c0,0,0,0,0.1,0v0.2c0,0.1,0,0.2,0.1,0.3c0,0.1,0.1,0.1,0.1,0.1s-0.1,0.1,0,0.1
		s0.1,0.2,0.1,0.3s0.1,0.1,0.1,0.2v0.1c0,0-0.1,0-0.1,0.1s0.1,0.1,0.1,0.1c0,0.1,0.1,0.2,0,0.4c0,0.1,0,0.1,0,0.2
		c0.1,0.1,0.1,0.1,0.1,0.2c0,0.1,0,0.2,0,0.2c0,0.1,0,0.2,0,0.2s0,0,0,0.1c0,0,0,0,0,0.1c0,0,0,0.1,0.1,0.1c0,0.1,0.1,0.2,0.1,0.4
		v0.2c0,0,0.1,0.1,0.1,0.2c0,0.1,0,0.1,0,0.2c0,0.1,0.1,0.2,0.1,0.3s0,0.1,0,0.1c0,0.1,0,0.1,0,0.1s0,0,0,0.1s0.1,0.2,0.1,0.4
		s0,0.1,0,0.2s0.1,0.2,0.1,0.3s0,0.1,0.1,0.1s0.1,0.1,0.1,0.2c0.1,0.1,0.1,0.2,0.1,0.3l0.1,0.1c0.1,0.1,0.1,0.2,0.2,0.3l0.1,0.1
		c0,0.1,0,0.1,0,0.1s0,0,0.1,0c0,0,0,0.1,0.1,0.2s0.1,0.1,0.1,0.1c0.1,0.1,0.1,0.1,0.2,0.1c0,0,0.2,0,0.2,0.1v0.1c0,0,0.1,0,0.1,0.1
		c0.1,0,0.2,0,0.3,0.1s0.2,0.1,0.4,0.2c0.1,0,0.1,0,0.2,0.1c0.1,0.1,0.2,0,0.3,0.1c0.1,0,0.2,0.1,0.4,0.1c0.1,0,0.1-0.1,0.2-0.1h0.2
		c0.1,0,0.3,0,0.4,0c0.1,0,0.1,0,0.2-0.1c0.1,0,0.2,0,0.2,0c0.1,0,0.3,0,0.4-0.1c0.1,0,0.7-0.2,0.7-0.2l0,0c-0.1,0-0.1-0.1,0-0.1
		s0.1,0,0.2,0c0.1,0,0-0.1,0.1-0.1s0.1-0.1,0.2-0.1c0.1,0,0.1,0,0.2-0.1l0.1-0.1c0.1-0.1,0.2-0.2,0.3-0.2s0.2-0.1,0.2-0.2
		c0-0.1,0.1-0.1,0.1-0.1c0-0.1,0.1-0.1,0.1-0.1l0.1-0.2c0-0.1,0.1,0,0.1-0.1s0-0.1,0.1-0.1s0.1-0.1,0.1-0.2s0-0.1,0.1-0.2
		c0.1,0,0-0.1,0-0.1l0.1-0.1C56.3,187.4,56.3,187.3,56.3,187.2z"/>
	<path fill="#FFFFFF" d="M85.1,121.9c-0.4,0-0.4-0.3-0.6-0.5c-0.1-0.1-0.2-0.6,0.1-0.6c0,0,0,0,0-0.1c-0.1-0.1-0.1-0.1-0.1-0.3
		s-0.1-0.3-0.2-0.5c0-0.3-0.1-0.5-0.3-0.8c-0.1-0.2-0.2-0.3-0.4-0.4c-0.3-0.3-0.4-0.4-0.4-0.4c-0.2,0-0.3-0.1-0.5-0.1
		s-0.5,0-0.7-0.1c-0.4,0-0.8,0.1-1.1,0.2c-0.7,0.2-1.4,0.5-2,0.9c-0.2,0.1-0.4,0.3-0.6,0.4s-0.4,0.1-0.5,0.3l0.1,0.1
		c-0.1,0-0.2,0.1-0.3,0.1c-0.1,0.1-0.2,0.1-0.2,0.2c-0.1,0.1-0.4,0.3-0.4,0.5c-0.3,0.1-0.5,0.5-0.7,0.7c-0.2,0.3-0.4,0.6-0.6,0.9
		c-0.3,0.7-0.6,1.3-0.8,2c-0.1,0.2-0.2,0.5-0.3,0.8c-0.1,0.2,0,0.8-0.2,0.8c0,0,0,0,0,0.1c0.2,0.4,0,0.7-0.1,1.1s-0.1,0.9-0.1,1.3
		c0,0.5-0.1,0.9-0.1,1.4c0,0.4-0.1,0.8-0.2,1.2c0,0.3-0.2,1.3,0,1.4c0.1,0.2-0.1,0.2-0.1,0.4s0,0.4,0.1,0.5c0,0.3-0.1,0.7-0.1,1
		c0,0.2,0,0.3-0.1,0.5c0,0.1,0,0.3,0,0.4c0.1,0.7,0,1.5-0.2,2.2c0,0.2,0,0.5,0,0.8s-0.1,0.6,0.1,0.8l0,0c-0.1,0.3,0,0.6-0.1,0.9
		c-0.5-0.4-0.1,0.7-0.1,0.8c0,0.2-0.1,0.4-0.1,0.6s0.1,0.4,0.1,0.6c0,0.4-0.1,0.8-0.2,1.1s-0.1,0.8-0.2,1.2c0,0.1,0,0.2,0,0.3h0.1
		c0,0.3,0,0.7,0,1c0,0.7-0.1,1.4-0.1,2.1c0,0.2,0,0.4-0.1,0.6c0,0.2,0,0.4,0,0.6c0,0.2,0,0.4,0,0.6c0,0.2,0,0.3,0,0.5
		c0,0.4-0.1,0.8-0.1,1.2v2.6c0,0.2,0.1,0.6,0,0.8c0.2,0.2,0,0.4,0,0.6c0.1,0.2,0.1,0.3,0.2,0.5s0.1,0.3,0.2,0.5
		c0,0.2,0.2,0.3,0.2,0.4c0.1,0.1,0.1,0.2,0.2,0.2c0.1,0.1,0.1,0.1,0.2,0.1l0.5,0.2c0.4,0.1,0.7,0.2,1.1,0.2c0.1,0,0.2,0,0.3,0
		c0.1,0,0.2-0.1,0.3-0.1c0.2,0,0.4,0,0.6-0.1c0.1,0,0.1-0.1,0.2-0.2s0.2-0.1,0.2-0.1c0.2-0.1,0.3-0.2,0.5-0.2
		c0.3-0.2,0.5-0.3,0.8-0.5c0.2-0.1,0.3-0.2,0.5-0.3c0.1-0.1,0.2-0.3,0.4-0.4c0.2-0.1,0.3-0.2,0.5-0.3c0.3-0.2,0.5-0.4,0.7-0.7
		c0.2-0.2,0.1-0.4,0.3-0.3c0.1,0.1,0.4,0.1,0.5-0.1s0-0.5,0.2-0.6c0,0.2,0.2,0.3,0.3,0.3c0-0.1,0.2,0,0.2,0c0.1,0,0.1-0.1,0.1-0.2
		c0-0.2,0.1-0.4,0.1-0.4c0-0.5-0.3-0.2-0.6-0.2c-0.2,0-0.1,0.1-0.1-0.1c0-0.2,0-0.3,0-0.5c0.1-0.2,0.2-0.4,0.3-0.6
		c0.1-0.2-0.1-0.5,0-0.7c0.1-0.1,0.1-0.2,0.1-0.3s0-0.2,0-0.4s0-0.4,0.1-0.7c0.1-0.1,0.1-0.2,0.1-0.3s-0.1-0.1-0.1-0.3l0,0
		c0.1,0,0.1-0.2,0.1-0.3c0.1-0.1,0.1-0.3,0.1-0.4c0-0.1,0-0.3,0.1-0.4c0-0.1,0.2-0.3,0-0.3c-0.1-0.3,0.1-0.7-0.2-0.9
		c0.1-0.2,0.2-0.4,0.1-0.7c0-0.1,0-0.2-0.1-0.4c0-0.1-0.1,0,0-0.1s0.1-0.2,0.1-0.4c0-0.1,0.1-0.1,0.1-0.2c0-0.1,0-0.1,0-0.2
		c0-0.1,0-0.1,0-0.2l0,0c0-0.2,0-0.5,0-0.7c0-0.1,0-0.1,0.1-0.2s0-0.2,0.1-0.3c0-0.2,0-0.4,0-0.7c0-0.1,0-0.2,0.1-0.3
		c0-0.1,0-0.2,0-0.3c0-0.2,0.1-0.5,0.1-0.7s0.1-0.4,0.1-0.6c0-0.2,0-0.4,0-0.6c0-0.2,0.2-0.3,0.2-0.5s-0.1-0.5,0-0.6H83
		c0-0.1,0-0.2,0-0.3s0.1-0.2,0.1-0.3c0.1-0.2,0.1-0.4,0.1-0.6c0-0.2,0-0.4,0-0.6c0-0.2,0-0.4,0-0.6c0-0.2-0.1-0.5,0-0.6l0.1-0.1
		c0.2-0.2,0.1-0.5,0.1-0.8c0-0.1,0-0.2,0-0.3s0.2-0.1,0.2-0.2c0.1-0.1,0-0.3,0-0.5V134c0-0.2,0-0.4,0-0.6c0.1-0.2,0.1-0.4,0.1-0.6
		c0-0.4-0.1-0.8-0.1-1.2c0-0.2,0-0.4,0-0.6c0-0.2,0.2-0.3,0.2-0.4s0.1-0.4,0.1-0.6s0.1-0.4,0.2-0.6c0-0.2-0.1-0.4,0-0.6
		c0-0.1,0.1-0.1,0.2-0.2s0-0.2,0-0.3c0-0.2,0-0.3,0.1-0.5s0.1-0.4,0.1-0.6c0-0.1,0-0.1,0-0.2s-0.1-0.1-0.1-0.2s0-0.3,0.1-0.4
		c0.1-0.2,0.2-0.5,0.3-0.7c0-0.1,0.2-0.3,0.1-0.4c0-0.2-0.2-0.2-0.2-0.4c0-0.2,0-0.3,0.1-0.5c0.1-0.1,0.2-0.2,0.2-0.3
		s-0.1-0.1-0.1-0.1c-0.1-0.1-0.2-0.3-0.3-0.5c-0.1-0.2-0.2-0.5-0.3-0.7c-0.1-0.3,0-0.5,0.1-0.8C84.6,122,85.1,122.1,85.1,121.9
		L85.1,121.9z"/>
	<path fill="#FFFFFF" d="M98.9,110.3C99,110.2,98.8,110.2,98.9,110.3L98.9,110.3c-0.4,0-0.6,0-0.9,0.1c-0.2,0.1-0.5,0.2-0.7,0.3
		c-0.1,0-0.2,0.1-0.2,0.1c-0.1,0.1-0.2,0.1-0.3,0.1c-0.1,0-0.2,0.1-0.3,0.1c-0.1,0-0.2,0.1-0.3,0.1l-0.2,0.2
		c-0.1,0.1-0.2,0.1-0.2,0.2c0,0-0.1,0-0.1,0.1l-0.1,0.1c-0.3,0.2-0.6,0.5-0.8,0.7l-0.4,0.4c-0.1,0.1-0.2,0.3-0.3,0.4
		c0,0,0,0.1-0.1,0.1l-0.1,0.1c-0.1,0.1-0.1,0.1-0.1,0.2c-0.1,0.2-0.2,0.3-0.2,0.5c-0.1,0.2-0.1,0.4-0.2,0.6s-0.2,0.4-0.2,0.6
		c0,0.1-0.1,0.2,0,0.3c-0.2,0.1-0.2,0.4-0.2,0.6c0,0.3-0.1,0.5-0.2,0.8c-0.1,0.4-0.2,0.8-0.2,1.2c0,0.4,0,0.7-0.1,1.1
		c0,0.2,0,0.4,0,0.6c0,0.1,0,0.2,0,0.3c-0.1,0.1-0.1,0.2-0.1,0.3c0.1,0,0.1,0.3,0.1,0.3c0,0.1,0,0.3,0,0.4c0,0.3,0,0.7-0.1,1
		c0,0.4-0.1,0.8-0.1,1.2c0,0.1,0,0.2,0,0.3c0,0.1,0,0.2,0,0.3c0,0.2-0.1,0.4-0.1,0.6s0,0.5,0,0.7s0,0.4,0,0.7c0,0.2,0,0.4,0,0.7
		c0,0.2,0,0.4-0.1,0.6c0,0.2-0.1,0.5-0.1,0.7v0.3c0,0.1-0.1,0.2,0,0.3c-0.1,0.1-0.1,0.3-0.1,0.5c0,0.1,0,0.3,0,0.4
		c0,0.1,0,0.1,0,0.2c0,0.1,0,0.1,0,0.1c0,0.1,0,0.1,0,0.2s-0.1,0.2-0.1,0.3c-0.1,0.2-0.1,0.4-0.2,0.6c-0.2,0-0.2,0.5,0,0.6
		c0,0.1,0.1,0.2,0,0.3c0.1,0.1-0.2,0.3,0,0.3c0,0.1-0.2,0.8,0,0.8v0.3c0,0-0.2,0.1-0.2,0.2s0.1,0.2,0.1,0.3c0.1,0.2-0.1,0.4,0,0.6
		c0.1,0.1,0.1,0.1,0.1,0.2c0,0.1,0,0.1,0,0.2s0,0.1-0.1,0.1s0,0.2-0.1,0.3c0,0.1-0.1,0.2-0.1,0.3s0,0.2,0,0.3s0,0.2,0,0.3
		s0,0.2,0,0.3s-0.1,0.2-0.1,0.3s0,0.1,0.1,0.2c0,0.1,0.1,0.2,0.1,0.3c0.1,0.2,0.1,0.4,0,0.7v0.1c0,0.2,0.1,0.3-0.1,0.5
		c-0.1,0.1-0.1,0.1,0,0.2c0,0.1,0.1,0.3,0.1,0.4c0,0.2-0.1,0.4-0.1,0.6c0,0.2,0,0.4,0,0.7c0,0.2-0.2,0.3-0.2,0.5c0,0.1,0,0.2,0,0.3
		s-0.1,0.2,0,0.3s0.1,0.2,0.1,0.4c0,0.1,0,0.2,0,0.3c0,0.2,0,0.4,0,0.6c0,0.2,0,0.4,0,0.7c0,0.2,0,0.4,0,0.7c0,0.2,0,0.5,0,0.7
		s0,0.5,0,0.6c0.1,0.1,0.1,0.1,0.1,0.2c0,0.1,0,0.2,0,0.3s0.1,0.2,0.1,0.3s0,0.1,0,0.2s0.1,0,0.1,0.1s0,0.1,0,0.2
		c0,0.1,0.1,0.1,0.1,0.2c0.1,0.1,0.1,0.2,0.2,0.3l0.1,0.1l0.1,0.1v0.1c0,0,0,0,0.1,0c0,0.1,0.1,0.1,0.2,0.1c0,0,0,0,0.1,0v0.2
		c0.1,0,0.2,0.1,0.3,0.2c0.1,0,0.2,0.1,0.3,0.1c0.1-0.2,0.4,0,0.5,0c0.2,0,0.4,0,0.6,0h0.1l0.1-0.1c0,0,0.2,0,0.3,0
		c0.2,0,0.3-0.1,0.5-0.2c0.1,0,0.3,0,0.4-0.1c0.1,0,0.2,0,0.2,0c0-0.2,0.4-0.1,0.6-0.2c0.1-0.1,0.3-0.2,0.5-0.3
		c0.1,0,0.1-0.1,0.2-0.2h0.1l0.1-0.1h0.1c0,0,0-0.1,0.1-0.1s0.2-0.1,0.2-0.1c0.1,0,0.1-0.1,0.2-0.1s0.1-0.1,0.2-0.2
		c0.1-0.1,0.1-0.1,0.2-0.2s0.1-0.1,0.2-0.2s0.2,0,0.3,0s0-0.2,0.1-0.3c0-0.1,0.1-0.1,0.1-0.2c0.2-0.2,0.4-0.3,0.6-0.6
		c0.1-0.1,0.1-0.1,0.1-0.2c0-0.1,0.1-0.1,0.2-0.2c0.1-0.1,0.2-0.3,0.3-0.5c0.1-0.2,0.2-0.3,0.3-0.5l0.2-0.5c0-0.1,0.1-0.5,0.2-0.5
		c0-0.1,0-0.1,0-0.2c0-0.1,0-0.1,0.1-0.2c0-0.1,0.1-0.3,0.1-0.4c0-0.3,0.1-0.5,0.1-0.7s0-0.5,0.1-0.7c0-0.2,0-0.4,0-0.6
		c0-0.1,0-0.2,0-0.3s0-0.2,0.1-0.2c0-0.2,0-0.4,0-0.6c0.1,0,0.2-0.2,0.2-0.3s0-0.3,0-0.4c0-0.1-0.1-0.3-0.1-0.4
		c0-0.1,0.1-0.1,0.1-0.1c0-0.1,0-0.1-0.1-0.1c0-0.2,0-0.4,0-0.6c0-0.2,0-0.4,0-0.6V135c0-0.1,0.1-0.2,0.1-0.3s-0.2-0.2,0-0.2
		c0-0.1,0-0.2,0-0.3s0-0.2,0-0.3v-0.6c0-0.2,0-0.4,0-0.7c0-0.2,0-0.4,0-0.7c0-0.1,0-0.2,0.1-0.3c-0.1-0.1-0.1-0.2-0.1-0.3
		c0.2,0,0.1-0.3,0.1-0.5s0-0.4,0-0.6c0-0.2,0.2-0.3,0.2-0.5c0-0.1-0.1-0.1-0.1-0.2c0-0.1,0-0.2,0-0.3c0-0.2,0-0.4,0-0.6
		c0-0.2,0.1-0.3,0.1-0.5h-0.1l0.1-0.1c-0.1,0-0.1-0.1-0.1-0.1h0.1c0-0.1,0-0.2,0-0.3c0-0.1,0.1-0.2,0.1-0.3c-0.1-0.1-0.1-0.2,0-0.3
		c0-0.1,0-0.1,0.1-0.2c0-0.1,0.1-0.1,0.1-0.2c0.2-0.1,0.1-0.3-0.1-0.3c0-0.1,0.2-0.1,0.2-0.1c0.1-0.1,0-0.1,0.2-0.1c0,0,0,0,0.1,0
		l0.1-0.1c0-0.1-0.1-0.2-0.1-0.3s0-0.2,0-0.3c0-0.1-0.1-0.2,0-0.3c0-0.1,0.1-0.2,0.1-0.3c0-0.1,0-0.2,0-0.3c0-0.2,0.2-0.2,0.3-0.3
		s0-0.2,0-0.3c0-0.1,0-0.2,0-0.3c0-0.1,0-0.2,0.1-0.3c0.1-0.2,0.2,0,0.2-0.1c-0.1-0.1-0.2-0.1-0.2-0.1c0-0.1,0-0.2,0.1-0.3
		c0.1-0.2,0.3-0.1,0.4-0.3c-0.1-0.1-0.1-0.2-0.1-0.3c0-0.1,0-0.3,0.1-0.4c0-0.1,0.1-0.2,0.2-0.3c0.1-0.1,0.1-0.3,0.2-0.3
		c0.1-0.1,0-0.2,0.1-0.3c0-0.1,0.1-0.2,0.2-0.3c0.1-0.2,0.2-0.3,0.4-0.5c0.1-0.1,0.2-0.3,0.4-0.4c0.1-0.1,0.2-0.3,0.3-0.5
		c0.1-0.2,0.2-0.3,0.3-0.5c0.1-0.1,0.2-0.1,0.2-0.3c0.1,0,0-0.1,0.1-0.1c0,0,0.1,0,0.2,0l0,0l0,0c0.1,0,0.2-0.1,0.2-0.1
		c0.1,0,0.1-0.1,0.2-0.2s0.1,0,0.1-0.1s0-0.1,0.1-0.2s0.1,0,0.2,0s0.1-0.1,0.1-0.1c0.1,0,0.1-0.1,0.1-0.1c0-0.1,0.1,0,0.2-0.1l0,0
		l0,0c0.1-0.1,0.2-0.1,0.3-0.2c0.1,0,0.3-0.2,0.3-0.3c0.1,0,0.3-0.1,0.4-0.2s0.3-0.2,0.4-0.4c0.1-0.1,0.1-0.1,0.2-0.2l0.1-0.1
		c0,0,0.1,0,0.1-0.1c0,0,0.1-0.1,0.2-0.2c0.1,0,0.1-0.1,0.2-0.1c0.2-0.1,0.3-0.2,0.5-0.3c0.1-0.1,0.2-0.2,0.3-0.3h0.1l0.1-0.1
		c0,0,0.1-0.1,0.2-0.1c0.2-0.1,0.3-0.6,0.6-0.7c0.1-0.2,0.1-0.3,0.2-0.4c0-0.1,0.1-0.2,0.1-0.2s0.1-0.1,0.2-0.1
		c0-0.1,0.1-0.1,0.1-0.2s0.1-0.1,0.1-0.2c0.1-0.2,0.1-0.3,0.1-0.5c-0.2,0.1,0-0.5,0-0.7c0-0.1,0-0.2,0-0.3c0-0.1,0.1-0.2,0.1-0.4
		c-0.1-0.1-0.1-0.2-0.1-0.3c0-0.1,0.1-0.1,0.1-0.2l0,0c0-0.1-0.1-0.2-0.1-0.2l-0.1-0.1v-0.1h-0.1v-0.1c0,0,0,0,0-0.1
		c0,0-0.1,0-0.1-0.1c-0.1-0.1-0.1-0.1-0.1-0.2s0-0.1,0-0.1l-0.1-0.1c0-0.1,0-0.1,0-0.3c-0.1-0.1-0.1-0.1-0.2-0.2s-0.1-0.1-0.1-0.2
		l-0.1-0.1v-0.1c-0.1-0.1-0.1-0.1-0.2-0.2c-0.1-0.2-0.2-0.2-0.4-0.3c-0.1,0-0.1-0.1-0.2-0.2s-0.2-0.1-0.3-0.1
		c-0.2-0.1-0.4-0.1-0.6-0.2h-0.1h-0.2c-0.1,0-0.2,0-0.3,0c-0.1,0-0.2,0-0.3,0.1c-0.1,0-0.2,0.1-0.3,0.1c-0.1,0-0.2,0-0.2,0.1
		c0,0-0.1,0-0.1,0.1c0,0,0,0-0.1,0v0.1c-0.1,0.1-0.2,0.1-0.3,0.1c-0.1,0-0.2-0.1-0.2-0.1s-0.1,0.1,0,0.1l0,0v0.1
		c-0.1,0-0.1,0.1-0.2,0.1c0,0-0.1-0.1-0.1-0.2l0,0v0.1c-0.1,0-0.1,0.1-0.2,0.1c0,0.1,0.1,0.1,0.1,0.1c-0.1,0.1-0.2,0.1-0.3,0.2
		c0,0,0-0.1-0.1-0.1s-0.1,0-0.1,0s-0.1,0-0.2,0s-0.2,0.1-0.2,0.1c-0.1,0-0.2,0-0.2,0.1c-0.2,0-0.1,0.2-0.3,0.3c-0.1,0.1-0.3,0-0.4,0
		c0,0.1-0.1,0.1-0.1,0.1v0.1c-0.2,0-0.4-0.1-0.3,0.2c0.1,0,0.1-0.1,0.2-0.1s0,0.1,0,0.1c-0.2,0-0.3,0.1-0.5,0.1s-0.4,0.1-0.5,0.1
		s-0.2,0.2-0.3,0.3c-0.2,0.1-0.4,0.1-0.6,0.2s-0.4,0.2-0.6,0.3c-0.1,0-0.2,0-0.2,0.1c-0.1,0.1-0.2,0-0.3,0c-0.1,0-0.4,0-0.4,0.1
		c-0.3,0-0.7,0-1,0.1c-0.2,0-0.3,0-0.5,0.1C99.3,110.2,99.2,110.3,98.9,110.3C99,110.3,99,110.3,98.9,110.3L98.9,110.3z"/>
	<path fill="#FFFFFF" d="M154.9,72.8c0,0.1,0.1,0.3,0.1,0.4c0.1,0.1,0.1,0.3,0.1,0.4s0,0.1,0,0.2l0.1,0.1c0.1,0.3,0.3,0.4,0.6,0.6
		c0.1,0.1,0.2,0.2,0.3,0.2s0.3,0,0.4,0.1c0.2,0.1,0.5,0.2,0.8,0.2c0.2,0.1,0.4,0,0.6,0.1s0.2,0,0.4-0.1c0.1,0,0.1,0,0.2,0
		c0.1,0,0.1,0,0.1,0.1c0.1,0.1,0.3,0.1,0.4,0c0.1,0,0.1-0.1,0.1-0.1c0.2,0,0.4-0.1,0.6-0.3c0.1-0.1,0.2-0.2,0.3-0.3
		c0.1-0.1,0.3,0,0.4-0.1c0.1-0.1,0.1-0.1,0.1-0.2s0.1-0.1,0.2-0.1c0.1-0.1,0.3-0.2,0.4-0.3c0.3-0.2,0.5-0.4,0.7-0.6
		c0.1-0.1,0.2-0.2,0.2-0.4c0.1-0.1,0.1-0.2,0.2-0.3c0.1-0.1,0.1-0.2,0.2-0.3c0.1-0.1,0.3-0.3,0.4-0.4c0.1-0.1,0.2-0.3,0.3-0.5
		c0.1-0.1,0.2-0.1,0.4-0.2c0.1-0.1,0-0.1,0-0.2s0-0.1,0.1-0.2s0.1-0.1,0.1-0.2l0.1-0.2c0.1,0,0.1-0.1,0.1-0.2s0-0.1,0-0.2l0.1-0.1
		v-0.2c0-0.1,0-0.2,0-0.3c0-0.1,0.1-0.3,0.1-0.4s0.2-0.2,0.2-0.3v-0.1c0-0.1,0,0-0.1-0.1v-0.1c0-0.1,0-0.1-0.1-0.2c0,0,0,0,0-0.1
		s0.1,0,0-0.1c-0.1,0-0.1-0.3-0.1-0.4v-0.3c0-0.1-0.1-0.1-0.2-0.2L164,67c-0.1-0.1-0.1-0.1-0.1-0.2l-0.1-0.1c0-0.1-0.1-0.2-0.1-0.2
		c0-0.1,0-0.1-0.1-0.2s-0.1-0.1-0.1-0.1c-0.1-0.1-0.1,0-0.2,0c-0.1,0-0.3,0.1-0.4,0.1c-0.1,0-0.2,0-0.2-0.1c-0.1,0-0.1,0-0.2-0.1
		c-0.1,0-0.1-0.1-0.2-0.1c-0.1,0-0.1,0-0.2,0h-0.3c-0.1,0-0.2,0-0.3,0s-0.2,0-0.2,0c-0.1,0-0.3,0-0.4,0h-0.1h-0.1
		c-0.1,0-0.1,0-0.2,0.1c-0.1,0-0.3,0.1-0.4,0.1c-0.1,0-0.2,0.1-0.4,0.1c-0.1,0-0.1,0-0.2,0c-0.1,0-0.1,0.1-0.2,0.1
		c-0.1,0-0.2,0-0.4,0.1l-0.1,0.1c-0.1,0-0.2,0.1-0.3,0.2c-0.1,0-0.1,0-0.2,0.1c-0.1,0.1,0,0.1-0.1,0.1s-0.1,0-0.1,0.1l-0.1,0.1h-0.1
		l-0.1,0.1l-0.1,0.1c0,0,0,0-0.1,0h-0.1c0,0,0,0-0.1,0.1s-0.1,0-0.2,0.1c-0.1,0,0,0.1-0.1,0.2s-0.2,0.1-0.3,0.2c0,0-0.1,0.1-0.1,0.2
		c0,0-0.1,0-0.2,0.1l-0.1,0.1c0,0.1,0,0.1-0.1,0.1s-0.2,0-0.2,0.1v0.1l-0.1,0.1c-0.1,0.1-0.1,0.2-0.2,0.3c0,0.1,0,0.1-0.1,0.2
		c-0.1,0-0.1,0.1-0.2,0.1c0,0-0.1,0.1-0.1,0.2s0,0.1-0.1,0.2s-0.2,0.3-0.3,0.4c0,0.1-0.1,0.1-0.1,0.2c0,0-0.1,0.5-0.2,0.4V71v0.1
		c0,0-0.1,0-0.1,0.1v0.2c0,0.1-0.1,0.2,0,0.3c0,0.1-0.1,0.2-0.1,0.2c0,0.1,0,0.1,0,0.2s0,0.3,0,0.4
		C154.8,72.7,154.9,72.7,154.9,72.8L154.9,72.8z"/>
	<path fill="#FFFFFF" d="M149.3,117.7l0.2,0.6c0,0.1,0.1,0.3,0.2,0.4c0.1,0.1,0.3,0.3,0.5,0.4c0.1,0.1,0.3,0.1,0.3,0.3
		c0.2,0,0.4,0.1,0.6,0.1c0.2,0,0.4,0.1,0.7,0.1c0.2,0,0.5,0,0.7,0c0.1-0.1,0.9-0.3,0.9-0.3c0.2-0.1,0.9-0.5,1-0.6
		c0.2-0.1,0.4-0.2,0.6-0.3c0.1,0,0.1,0,0.1,0c0-0.1,0-0.1,0.1-0.1s0.2,0,0.3-0.1s0.3-0.3,0.5-0.4c0.1,0,0.2,0,0.3-0.1s0-0.1,0.1-0.1
		c0,0,0.1,0,0.2-0.1c0.2-0.1,0.3-0.3,0.4-0.4c0.1-0.2,0.3-0.3,0.5-0.5s0.4-0.4,0.6-0.7c0.1-0.2,0.1-0.3,0.3-0.5
		c0.1-0.1,0.1-0.2,0.1-0.4c0-0.2,0.1-0.1,0.3-0.2c0.1-0.1,0.2-0.3,0.2-0.4s0.1-0.3,0.1-0.5c-0.1,0.1-0.2-0.1-0.1-0.1h0.1
		c0-0.1,0-0.2,0-0.2s0-0.1,0-0.2s0.1-0.2,0.2-0.2c0,0,0.1,0,0-0.1s-0.1,0-0.1-0.1v-0.2c0,0,0.1-0.2,0-0.3c-0.1-0.1-0.1-0.1-0.2-0.2
		c-0.1-0.1-0.1-0.2-0.1-0.3c0-0.2,0-0.5,0.1-0.7c0-0.2,0-0.5,0-0.7c0-0.1,0-0.2,0-0.3c0,0,0.1,0,0.1-0.1v-0.1V110l0.1-0.1
		c0-0.1-0.2-0.1,0-0.2c-0.1-0.1,0-0.4,0.1-0.6c0-0.1,0-0.2,0-0.4c0-0.4,0-0.7,0-1.1c0-0.2,0-0.5,0-0.7c0,0,0.1-0.1,0-0.2l-0.1-0.1
		l0.1-0.1v-0.1c0-0.1,0.1-0.2,0.1-0.3V106v-0.1l0,0h0.1c0.1,0.1,0.3,0.2,0.4,0.3c0,0,0.1,0.1,0.1,0s0-0.1,0-0.2s0-0.1,0-0.2
		s0-0.2,0-0.1c-0.1,0,0,0.1-0.1,0.1s-0.1,0-0.2-0.1v-0.1c0,0,0.1-0.2,0-0.2s-0.1,0,0,0l0,0l0,0c0.1-0.1,0-0.1-0.1-0.1H159
		c-0.1,0,0-0.1,0-0.1s0-0.1,0-0.2l0.1-0.1l0.1,0.1c0,0.1,0,0.1-0.1,0.1c0,0.1,0.1,0,0.1,0s0,0.1,0.1,0.1s0.1,0,0.1,0.1
		c0,0,0,0,0,0.1c0,0,0,0,0.1,0l0,0h0.1c0,0,0,0,0-0.1s0-0.1,0.1-0.2c0-0.1,0.1-0.1,0.1-0.1c0-0.1,0-0.1-0.1-0.1s0-0.1-0.1-0.2
		l-0.1-0.1c-0.1,0-0.2-0.1-0.3-0.1l-0.1-0.1v-0.2v-0.1c0,0,0-0.1,0-0.2s-0.1-0.2-0.1-0.3c0-0.1,0-0.1,0.1-0.2c0-0.1,0.1,0,0.1-0.1
		c0,0,0-0.1-0.1-0.1c-0.1-0.1-0.1-0.3-0.1-0.4s0.1-0.1,0.2-0.1s0.1,0.1,0.1,0c0.1,0,0-0.1,0-0.1l0.1-0.1c0-0.1-0.1-0.1-0.1-0.1
		c0-0.1,0.1-0.2,0.2-0.2c0.1,0,0.1,0.1,0.1,0v-0.1c0-0.1-0.1-0.1-0.2-0.2c0-0.1,0-0.2,0.1-0.3l0.1-0.1v-0.2c-0.1,0-0.1-0.1-0.1-0.1
		c0-0.1-0.1-0.1-0.1-0.2s0-0.1,0.1-0.1s0.2,0,0.1-0.1s-0.2-0.1-0.2-0.2s0-0.1,0-0.1s-0.1,0-0.1-0.1s0-0.3,0-0.4s0.1-0.1,0.1-0.1
		v-0.1c0,0,0-0.1,0.1-0.1l0.2-0.1c0-0.1,0-0.1,0-0.2l-0.1,0.1l-0.1,0.1c0-0.1,0-0.1,0-0.1v-0.1c0-0.1,0-0.1,0-0.2s0.1-0.1,0.1-0.2
		c0,0,0.1,0,0.1-0.1s0-0.1-0.1-0.1h-0.1c0,0,0,0,0-0.1c0,0-0.1,0-0.1-0.1s0-0.2,0-0.3c0-0.1,0-0.1,0-0.2c0,0,0.1,0,0.1-0.1
		s0-0.1,0-0.2c0,0,0.1,0,0.1-0.1s-0.1-0.1-0.2-0.1c-0.1,0,0-0.2,0.1-0.2s0.1,0,0.2-0.1c0,0,0,0,0-0.1c0,0,0-0.1,0.1-0.1h-0.1l0,0
		l0,0l-0.1-0.1v-0.1c0,0,0.1-0.3,0-0.3s0.1-0.2,0.1-0.3l0.1-0.3l0,0l0,0c0,0,0,0,0-0.1l-0.1-0.1l-0.1-0.1l0,0l0,0c0,0,0,0,0-0.1
		c0,0,0,0,0-0.1c0,0,0,0,0-0.1c0,0,0.1,0,0.1-0.1s0,0-0.1,0l0,0l0,0c0,0,0,0.1-0.1,0c0,0,0,0,0-0.1c0,0,0.1,0,0,0h-0.1h0.1l0.1-0.1
		c0,0,0,0,0.1-0.1c0,0,0-0.1,0,0l0,0h-0.1l0,0l0,0v-1c0,0,0,0,0-0.1v-0.1c0,0,0,0,0-0.1s0,0,0-0.1c0,0,0,0,0-0.1v-0.1v-0.2
		c0-0.1,0-0.2,0-0.3l0,0l0,0c0,0,0,0,0.1,0s0.1,0,0.1,0s0,0,0-0.1c0,0,0.1,0,0-0.1c0,0,0,0-0.1,0s0,0,0-0.1l-0.1-0.1l-0.1-0.1
		c0,0,0-0.1,0.1-0.1h0.1c0,0,0,0,0,0.1l0.1-0.1c0,0,0-0.1,0-0.2V92c0-0.1-0.1,0-0.1-0.1c0,0,0-0.1-0.1-0.1c0,0-0.1,0,0-0.1
		c0,0,0,0,0.1,0s0,0,0.1,0c0,0.1,0,0,0.1,0s0,0,0,0.1h0.1l0,0c0,0-0.1-0.1,0-0.1s0.1,0,0.1-0.1v-0.1c0,0,0.1,0,0.1-0.1h-0.1l0,0H160
		h-0.3l0,0l0,0v-0.1c0,0,0,0,0.1,0s0,0,0-0.1l0.1-0.1L160,91c0,0,0,0,0-0.1c0,0,0.1,0,0.1-0.1H160c0-0.1,0-0.1,0-0.2v-0.1
		c0,0,0,0,0-0.1c0,0,0,0,0.1,0c0,0,0,0,0.1,0s0.1-0.1,0-0.1h-0.1v-0.1l0,0v-0.1c0,0,0,0,0-0.1c0,0,0.1,0,0.1-0.1s0.1,0,0.1-0.1
		c0,0,0-0.1-0.1-0.1v-0.1v-0.1l0,0l0,0v-0.1c0,0,0,0-0.1,0l0,0l0,0c0,0,0,0,0-0.1l0.1-0.2c0,0,0,0,0.1,0s0.1,0,0,0h-0.1l0,0l0,0
		c0,0,0,0,0-0.1v-0.1c0,0,0,0,0-0.1l0,0l0,0l0.1-0.1l0.2-0.2c0,0,0.1-0.1,0-0.1l-0.1-0.1c0,0,0,0-0.1,0v-0.1v-0.1h0.1h0.1l0,0l0,0
		c0,0,0,0,0.1,0s0-0.1,0-0.1l0,0c0,0,0,0,0-0.1c-0.1,0-0.1-0.1-0.1-0.1c0-0.1,0.1-0.1,0.1-0.1l0.1-0.1v-0.2c0,0,0.1,0,0.1-0.1v-0.1
		v-0.1c0,0,0,0-0.1,0s0-0.2,0-0.2V87l0.1-0.1c0,0,0-0.1,0-0.2v-0.1c0,0,0,0-0.1,0c0,0,0,0,0-0.1c0,0,0,0,0-0.1v-0.1v-0.1
		c0,0,0,0.1-0.1,0.1s0,0,0,0l0,0l0,0c0-0.1-0.1-0.1-0.1-0.1v-0.1v-0.2c0,0,0,0,0-0.1c0,0,0,0-0.1,0l0.1-0.1c0,0,0,0,0-0.1
		c0,0,0,0,0-0.1h-0.1h-0.1c0,0,0,0-0.1,0c0,0,0,0,0,0.1c0,0,0,0,0-0.1c0,0-0.1-0.1,0-0.1s0,0,0,0l0,0v-0.1c0,0,0,0,0.1,0s0,0,0,0
		s0,0,0-0.1v-0.1c0,0,0,0-0.1,0l0,0l0,0c0,0,0,0,0.1,0c0-0.1,0-0.1,0-0.2c0,0,0,0,0-0.1c0,0,0-0.1-0.1-0.1s0,0,0,0s0-0.1,0-0.2
		c0,0-0.1-0.1,0-0.2v-0.1c0,0,0,0-0.1,0c0,0,0,0,0-0.1c0,0,0,0-0.1,0l-0.1-0.1l-0.1-0.1l-0.1-0.1c0-0.1-0.1,0-0.1-0.1
		c-0.1,0-0.1,0-0.2,0s-0.1-0.1-0.1-0.1s-0.1-0.1-0.2-0.1c-0.1,0-0.2,0-0.3,0h-0.1c0,0-0.1,0-0.1,0.1c0,0-0.1,0-0.2,0
		c-0.1,0-0.1,0-0.2,0h-0.5c0,0,0,0.1-0.1,0.1s0-0.1-0.1-0.1h-0.1c0,0-0.1,0-0.1,0.1c0,0-0.1,0.1-0.2,0.1h-0.2c-0.1,0-0.1,0-0.2,0
		c0,0-0.1,0-0.1,0.1c0,0-0.1,0-0.2,0c-0.1,0-0.2,0-0.2,0.1s0,0,0,0.1h-0.1l-0.1,0.1c0,0-0.1,0.1-0.2,0.1l-0.3,0.1
		c0,0-0.3,0.2-0.3,0.3l-0.1,0.1c-0.1,0.1-0.3,0.2-0.4,0.4c0,0-0.1,0-0.1,0.1c0,0,0,0.1-0.1,0.1s-0.1,0.1-0.2,0.1c0,0,0,0,0,0.1
		s-0.1,0-0.1,0.1s-0.3,0.3-0.3,0.3c-0.1,0.1-0.2,0.2-0.3,0.3c0,0.1-0.1,0.2-0.1,0.3c0,0,0,0-0.1,0c0,0-0.2,0.2-0.1,0.2h-0.1
		c0,0.1,0,0.2-0.1,0.2c0,0-0.3,0.3-0.3,0.4s0,0.1,0,0.1s-0.2,0.3-0.1,0.3c0,0,0,0,0,0.1s-0.1,0.1-0.1,0.1l0,0c0,0,0,0,0,0.1
		c0,0,0,0,0,0.1s-0.1,0-0.1,0c0,0.1,0,0,0,0.1c0,0,0,0,0,0.1v0.2c0,0,0,0.1-0.1,0.1c0,0.1-0.1,0.1-0.1,0.2V89c0,0,0,0-0.1,0
		c-0.1,0.1-0.1,0.2-0.1,0.3l-0.1,0.5l0,0c0,0.1-0.1,0.1-0.1,0.2s0,0.2,0,0.4c0,0,0,0-0.1,0s0,0,0,0v0.1c0,0,0,0-0.1,0s0.1,0,0.1,0.1
		s0,0-0.1,0s0,0.1,0,0.2s0,0.3,0,0.4s-0.1,0.2-0.1,0.3c0,0.1,0.1,0.1,0.1,0.1v0.3l0,0l0,0c0,0.1,0,0.2-0.1,0.3
		c0,0.1-0.1,0.2-0.1,0.3v0.3c0,0,0,0-0.1,0s0,0,0,0s0,0,0.1,0c0,0,0,0-0.1,0s0,0.1,0,0.2v0.1h0.1v0.1c0,0,0,0-0.1,0
		c0,0.1,0,0.2,0,0.2s0,0.1,0,0.2v0.2c0,0,0,0,0,0.1c0,0,0,0.1-0.1,0.1l0,0l0,0v0.2c0,0.1,0,0.5,0,0.5V95c0,0-0.1,0.2,0,0.2v0.1v0.2
		h-0.1c0,0,0,0,0,0.1c0,0,0,0.1,0,0.2s0,0.3,0,0.4s0,0.2-0.1,0.3v0.2v0.2c0,0-0.1,0.1,0,0.1c0,0,0,0,0.1,0l0,0c0,0,0,0-0.1,0
		s0,0.1,0,0.2c0,0,0,0,0.1,0s0,0,0,0h-0.1H151c0,0,0,0,0,0.1v0.1v0.1v0.1c0,0.1,0.1,0.1,0.1,0.2s-0.1,0-0.1,0l0,0l0,0
		c0.1,0,0,0.1,0.1,0.1c0,0,0,0.1,0.1,0.1c0,0.1,0,0.2,0,0.4l-0.1,0.2c0,0,0,0.3,0,0.4c0,0,0,0,0,0.1v0.1v0.4c0,0.1,0,0.2-0.1,0.2
		s0,0-0.1,0c0,0,0.1,0.1,0.1,0.2v0.1c0,0,0,0-0.1,0c0,0,0,0.1,0,0.2s0,0.2,0,0.3c0,0.1,0,0.2-0.1,0.3v0.4c0,0,0.1,0.1,0,0.1
		c0,0-0.1,0-0.1,0.1l0.1,0.1c0,0-0.1,0-0.1,0.1v0.1c0,0,0,0,0.1,0l0.1,0.1h-0.1l0,0c0,0.2,0,0.4,0,0.6l-0.1,0.3c0,0-0.1,0.1,0,0.2
		l0.1,0.1l-0.1,0.1v0.1h0.1c0,0,0,0,0,0.1c0,0,0,0-0.1,0s-0.1,0-0.1,0c0,0.2,0,0.3,0,0.3c0,0.1,0,0.5-0.1,0.6s-0.1,0.1-0.1,0.1
		c0,0.1,0,0.1,0.1,0.2c0,0.1,0,0.1,0,0.2c-0.1,0.2-0.1,0.3-0.1,0.5c0,0.1,0,0.6-0.1,0.7c0,0.1,0,0.2,0,0.3c0,0.1-0.1,0.3-0.1,0.4
		c0,0.2-0.1,0.4-0.1,0.6c0,0.1,0,0.1-0.1,0.2c0,0.1,0,0.1,0,0.1c0,0.1,0,0.1,0,0.2c0,0-0.1,0.6-0.1,0.7s0,0.2,0,0.2l-0.1,0.1
		c0,0,0,0,0,0.1s0,0.2,0,0.2c0,0.1-0.1,0.1-0.1,0.2c0.1,0,0.1,0.1,0,0.1s0,0,0,0l0,0l0,0v0.2v0.3c0,0.4-0.1,0.7-0.1,1
		c-0.1,0.2-0.1,0.5-0.1,0.7s0,0.5,0,0.7s-0.1,0.4-0.1,0.6s0,0.5,0,0.7c0,0.1-0.1,0.2-0.1,0.3v0.3c0,0.1-0.1,1-0.1,1.1
		c0,0.2,0,0.5,0,0.7c0,0.1,0,0.2,0,0.3C149.2,117.1,149.2,117.4,149.3,117.7z"/>
	<path fill="#FFFFFF" d="M218.1,98.5c0-0.1,0-0.2,0-0.3c-0.1,0-0.2,0.2-0.3,0s0.2-0.2,0.2-0.3s0-0.1,0-0.1c0-0.2,0-0.2,0.2-0.2
		c0.1,0,0,0,0-0.1s0-0.1,0-0.1c0-0.1,0,0-0.1-0.1c-0.1,0-0.2-0.1-0.2-0.2s0.1-0.1,0.1-0.2s-0.1-0.1-0.2-0.2v-0.1l-0.1-0.1
		c0-0.1-0.1-0.2-0.1-0.3c-0.2,0-0.1-0.2-0.1-0.2c0-0.1-0.1-0.1-0.2-0.2c-0.1-0.1-0.2-0.1-0.1-0.2c0-0.2,0-0.1-0.1-0.2
		s-0.1-0.1-0.1-0.2s-0.1-0.2-0.2-0.2c-0.1,0-0.1-0.1-0.1-0.1l-0.1-0.1c-0.1,0,0.1-0.1-0.1-0.1s-0.1-0.1-0.2-0.2s-0.2-0.1-0.3-0.1
		c0,0.1,0.1,0.1,0.1,0.2c-0.1,0-0.3,0-0.4-0.1c0-0.1,0-0.2-0.2-0.3c-0.1,0.2-0.1,0-0.2,0c0,0.1,0.1,0.1,0.1,0.2
		c-0.2,0.1-0.2,0-0.4,0c-0.1,0-0.3,0-0.4,0c-0.1,0-0.3-0.1-0.4-0.1c-0.1,0-0.2-0.1-0.4-0.1s-0.2-0.1-0.4-0.1S213.1,94,213,94
		c-0.3,0-0.6,0.1-0.9,0.1c-0.1,0-0.1,0-0.2,0c-0.1,0-0.2,0-0.3,0l-0.1-0.1l-0.1,0.1c-0.1,0-0.2,0-0.3,0.1c-0.2,0.1-0.4,0.1-0.6,0.1
		c-0.2,0-0.4,0.1-0.6,0.2c-0.1,0-0.2,0-0.2,0.1c-0.4,0.1-0.7,0.3-1,0.4c-0.2,0.1-0.3,0.2-0.5,0.3c-0.1,0-0.1,0.1-0.2,0.2
		c-0.1,0,0,0.1-0.1,0.1s-0.1-0.1-0.1-0.1s-0.2,0.2-0.3,0.2c0,0,0,0-0.1,0c0,0.1-0.3,0.2-0.4,0.3c-0.2,0.1-0.3,0.2-0.4,0.3
		c-0.2,0.1-0.3,0.2-0.4,0.3c-0.2,0.1-0.4,0.2-0.6,0.4c-0.1,0-0.1,0-0.2,0.1c-0.1,0.1-0.1,0.1-0.1,0.1s-0.2,0-0.2,0.1
		s-0.3,0.1-0.2,0.2h-0.1c-0.1,0.1-0.3,0.1-0.4,0.2c0,0.1-0.1,0.1-0.2,0.1c-0.1,0-0.1,0-0.2,0.1c-0.1,0-0.2,0.1-0.4,0.2v0.1
		c0,0,0,0-0.1,0s-0.2,0-0.2,0.1s-0.1,0.1-0.2,0.1H203v0.1h-0.1c-0.1,0.1-0.2,0.1-0.3,0.1c-0.1,0.1-0.2,0.1-0.2,0.1
		c-0.2,0.1-0.4,0.1-0.5,0.2c-0.2,0.1-0.3,0.2-0.5,0.3c-0.1,0-0.2,0-0.2,0.1s-0.4,0.2-0.5,0.2c-0.2,0.1-0.4,0.1-0.6,0.2
		c-0.4,0.2-0.7,0.3-1.1,0.3c-0.1,0-0.3,0-0.4,0c-0.1,0-0.2-0.1-0.3-0.1v-0.1c-0.2,0-0.3-0.1-0.4-0.2c-0.2-0.2-0.1-0.3-0.2-0.4
		c-0.1-0.1-0.3-0.1-0.4-0.1c-0.1,0.1-0.2,0-0.2-0.1l0.1-0.1v-0.1c0-0.2-0.1-0.1-0.2-0.1c-0.1,0-0.1-0.2-0.1-0.3h0.1v-0.1
		c0-0.1,0-0.1,0-0.2c-0.1,0-0.1-0.2-0.2-0.2c0,0.1-0.1,0.1-0.2,0.1s-0.1-0.1-0.1-0.2h0.1c0-0.1-0.1,0-0.1-0.1c0,0-0.1-0.1,0-0.2
		c0.2,0,0.3-0.2,0.4-0.4c0-0.1,0-0.2,0-0.3h-0.1c0,0,0-0.1-0.1-0.1s-0.2,0.1-0.3,0s0-0.2,0-0.3c-0.3,0,0.1-0.3,0.1-0.4
		c-0.1,0-0.2-0.1-0.3-0.1s-0.2,0-0.2-0.1l0.1-0.1v-0.1c-0.1-0.1-0.1-0.1,0-0.2c0-0.1,0.1-0.2,0.1-0.3c0-0.2-0.1-0.1-0.1-0.3
		c0-0.1,0-0.2,0.1-0.3c0.1-0.1,0.1,0.1,0.2,0.1c0.1,0,0.1-0.2,0.1-0.3c0-0.2-0.1-0.1-0.2-0.1c-0.2,0-0.3-0.3-0.2-0.4s0.2,0,0.3-0.1
		s-0.1-0.1-0.2-0.1c-0.1,0-0.1-0.1,0-0.2s0.2,0.1,0.3,0v-0.1v-0.1c0-0.1,0.1-0.2-0.1-0.2s0,0.1-0.1,0.2s-0.2,0.1-0.2,0
		c0,0,0.1,0,0.1-0.1s0-0.1,0-0.1c0-0.1,0-0.2,0-0.3c0-0.1-0.1-0.2,0.1-0.2c0.1,0,0.1,0.2,0.2,0.1c0-0.2,0.1-0.3,0-0.5v-0.2
		c0-0.1-0.1-0.1-0.1-0.2s0-0.1,0.1-0.2c0-0.1,0.1-0.1,0.1-0.2s0-0.2,0.1-0.1v0.2l0.1-0.1c0-0.1,0-0.1,0-0.1s-0.1,0-0.1-0.1l-0.1-0.2
		c-0.1-0.1,0-0.1-0.1-0.1s-0.1-0.1-0.1-0.2c0-0.2,0.2-0.1,0.2-0.2s0.2-0.2,0-0.3c-0.1,0-0.2-0.1-0.4-0.1c-0.1-0.1-0.1-0.1-0.1-0.2
		c0,0,0-0.1,0-0.2s0.1-0.1,0.1-0.2c0,0-0.1-0.1-0.1-0.2c0.1-0.1,0.2,0,0.3-0.1c0-0.1-0.1-0.1-0.2-0.2s-0.1-0.1-0.1-0.3v-0.1l0.1-0.1
		c0-0.1,0,0-0.1-0.1c0,0-0.1-0.1,0-0.1c0.1-0.1,0.2,0,0.3,0s0.1-0.1,0-0.2c0-0.1,0-0.2-0.1-0.2s-0.2,0-0.2-0.2c0-0.1,0-0.3,0-0.4
		c0-0.2,0-0.5,0-0.7s0-0.5,0-0.7s0-0.5,0-0.8s0-0.5,0-0.8c0-0.1,0.1-0.2,0.1-0.3l-0.1-0.1c0-0.2,0-0.3,0.1-0.5c0.1-0.1,0.2,0,0.3,0
		s0.3,0.1,0.2-0.1c-0.1-0.1-0.2-0.1-0.3-0.2v-0.1c0,0-0.1,0.1-0.2,0c-0.1-0.1,0-0.3,0-0.4c0-0.2,0-0.1,0.2-0.2
		c0.1,0,0.2-0.1,0.3-0.2c0.1-0.2,0-0.2-0.2-0.2s-0.2-0.1-0.3-0.2c0-0.2,0-0.5,0-0.7c0.1,0,0.2,0.1,0.2,0c0.1,0,0.1-0.1,0.2,0
		c0.1,0,0.1,0.1,0.2,0v0l0.1-0.1c-0.2-0.1-0.2-0.1-0.2-0.3c0-0.1,0-0.2-0.1-0.3c-0.1-0.1-0.2-0.1-0.1-0.3c0-0.1,0.1,0,0.1-0.1
		s0-0.1-0.1-0.2c0,0,0.2,0,0.1-0.1c-0.1-0.1-0.2,0-0.2-0.1s0.1-0.1,0.2-0.1c0-0.1,0-0.2,0-0.2c-0.1-0.1-0.1-0.1-0.1-0.2
		s0-0.2,0.2-0.2s0.1,0.1,0.2,0.1c0.1,0,0.1-0.1,0.1-0.2c-0.2,0.2-0.1-0.1-0.3-0.1c-0.1-0.2-0.1-0.4,0-0.6c0.1-0.1,0-0.1,0-0.3
		c0-0.1,0-0.1,0-0.1s0.1-0.1,0-0.1c-0.1-0.1-0.3,0.2-0.4,0.3c0,0-0.1,0.2-0.2,0.1c-0.1,0,0-0.2,0-0.3s0.1-0.1,0.1-0.1
		c0-0.1,0-0.2,0-0.2c-0.1-0.1-0.1-0.1-0.1-0.2v-0.4c0-0.2,0-0.4,0.1-0.7c0-0.1,0.1-0.2,0.1-0.2h0.1h0.1l0.1-0.1c0,0,0.1,0,0.2,0
		s0.1-0.1,0-0.1c0-0.1-0.1,0-0.1,0c-0.1-0.1-0.1,0-0.1-0.1s-0.1-0.1-0.1-0.2s0-0.3,0-0.4s0.2,0,0.1-0.2c0-0.1,0.2-0.1,0.1-0.1
		c-0.1-0.1-0.2,0-0.3,0s-0.1-0.3-0.2-0.4c-0.1-0.1-0.1-0.1-0.2-0.2c0-0.2,0-0.5,0-0.7c0.1,0,0.3,0.1,0.4,0c-0.1-0.2-0.1-0.4-0.3-0.4
		c-0.1,0-0.3,0-0.3-0.1s0-0.2,0-0.3c0-0.2-0.2-0.4-0.1-0.6c0-0.1,0.1-0.2,0.1-0.3c-0.1-0.1-0.1,0.2-0.2,0.1c0-0.2-0.1-0.3-0.1-0.5
		c0-0.1,0-0.2-0.1-0.2c-0.1-0.1-0.1-0.1-0.2-0.2c-0.1-0.1-0.1-0.1-0.1-0.2s0.1-0.2,0.1-0.2c0-0.3-0.2,0-0.3,0.1
		c-0.2,0-0.3-0.3-0.4-0.4c-0.1-0.1-0.2-0.2-0.3-0.2s-0.2-0.2-0.2-0.2c-0.4-0.2-0.8-0.3-1.2-0.5c-0.2-0.1-0.4-0.1-0.6-0.1
		c-0.2,0-0.5-0.1-0.8-0.1h-0.7c-0.2,0-0.5,0.1-0.7,0.1c-0.1,0-0.2,0-0.2,0.1h-0.1c-0.1,0-0.1,0-0.2,0.1c-0.1,0-0.2,0-0.3,0.1
		c-0.1,0-0.2,0.1-0.3,0.1c-0.2,0-0.4,0.1-0.6,0.2c-0.1,0.1-0.2,0.1-0.3,0.2s-0.3,0.1-0.4,0.2c-0.2,0.1-0.4,0.2-0.6,0.3
		c-0.4,0.2-0.7,0.4-1,0.6c-0.2,0.1-0.4,0.2-0.5,0.3c-0.2,0.1-0.3,0.2-0.5,0.3c-0.1,0.1,0,0.2-0.1,0.3c-0.1,0.1-0.2,0.2-0.3,0.2
		c-0.2,0.1-0.3,0.3-0.5,0.5c-0.1,0.2-0.2,0.3-0.3,0.4l-0.2,0.2c-0.1,0.1-0.2,0.1-0.3,0.2c-0.2,0.3-0.6,0.5-0.8,0.8c0,0,0,0,0,0.1
		c-0.1,0-0.1,0.1-0.2,0.2c-0.1,0.1-0.1,0-0.2,0.1s-0.1,0.3-0.2,0.4c-0.1,0.1-0.3,0.2-0.4,0.3c-0.1,0.1-0.1,0.1-0.2,0.1
		c-0.1,0.1-0.1,0.1-0.2,0.2c-0.1,0.1-0.3,0.3-0.5,0.3c-0.2,0.1-0.4,0.2-0.5,0.3c-0.1,0-0.2,0.1-0.3,0.1s-0.2,0.1-0.3,0.2
		s-0.2,0.1-0.3,0.1s-0.2,0-0.3,0c-0.2,0-0.3,0.1-0.6,0c-0.1,0-0.2,0-0.3-0.1s-0.2-0.1-0.3-0.1s-0.3,0-0.4,0c-0.1,0-0.1-0.1-0.2-0.2
		c0-0.1-0.1-0.2-0.2-0.2c-0.1,0-0.1,0.1-0.3,0s-0.4-0.1-0.7,0c-0.1,0-0.2,0.1-0.3,0.1c-0.1,0.1-0.1,0.1-0.2,0.2
		c-0.2,0.1-0.5,0-0.7,0c-0.2-0.1-0.5-0.1-0.7-0.1c-0.5,0-0.9,0.1-1.4,0.2c-0.2,0-0.4,0.1-0.6,0.2l-0.3,0.1c-0.1,0-0.1,0-0.2,0
		c-0.2,0.1-0.4,0.3-0.6,0.3c-0.2,0.1-0.4,0.2-0.6,0.3c-0.1,0.1-0.2,0.1-0.3,0.2c0,0,0,0.1-0.1,0.1s-0.1,0-0.2,0
		c-0.1,0,0,0.1-0.1,0.1c0,0-0.1,0-0.2,0.1c-0.1,0-0.1,0.2-0.3,0.3c-0.2,0.1-0.3,0.4-0.5,0.6c-0.1,0.1-0.2,0.3-0.3,0.5
		s-0.2,0.3-0.3,0.5s-0.2,0.3-0.3,0.5s-0.2,0.4-0.3,0.6s-0.1,0.4-0.2,0.6c-0.2,0.4-0.3,0.8-0.4,1.2c0,0.2-0.1,0.5-0.1,0.7
		s0,0.5,0,0.7c-0.1,0.5-0.1,0.9-0.1,1.4c0,0.4,0,0.8-0.1,1.1c0,0.3-0.1,0.6,0,0.9c0,0.3-0.1,0.6-0.1,0.8c0,0.3,0,0.5,0,0.8
		c0,0.1,0,0.1,0,0.2s0.1,0.1,0.1,0.2s0,0.1,0,0.2s0,0.1,0,0.2c0,0.3,0,0.6-0.1,0.8c0,0.3,0,0.6,0,0.9s0,0.6,0,0.9v0.2c0,0,0,0,0,0.1
		c0,0.2-0.1,0.2-0.1,0.4c0,0.1,0,0.3,0,0.4s0,0.3,0,0.5s0,0.3,0,0.5c-0.1,0.1,0,0.2,0,0.3c-0.1,0.1-0.1,0.4-0.1,0.5s0,0.2,0,0.3
		c0,0.1-0.1,0.2-0.1,0.4l0.1,0.1c0,0-0.1,0.1-0.1,0.2c0,0.2,0,0.4,0,0.5s0,0.3,0,0.4c0,0.3,0,0.6,0,0.9s0,0.6,0,0.9
		c0,0.1,0,0.2,0,0.2c0,0.1,0,0.2,0,0.2c0,0.2,0,0.4,0,0.6s0,0.4,0,0.6c0,0.1,0,0.2,0,0.3c0,0.1-0.1,0.2-0.1,0.3c0,0,0,0,0.1,0
		l-0.1,0.1c0.1,0.1,0,0.4,0,0.5s0.1,0.4-0.1,0.5c0,0,0,0,0.1,0v0.5c0,0.1-0.1,0.2,0,0.3c0.2,0,0,0.2,0,0.3c0,0.1,0,0.3,0,0.4
		c0,0.3,0,0.6,0,0.9c0,0.1,0,0.3,0,0.4s-0.1,0.3-0.1,0.4c0,0,0.1,0.1,0.1,0.2v0.2c0,0.1,0,0.3,0,0.4c0,0.2,0,0.3,0,0.5
		c0,0.1,0,0.2,0,0.3c0,0.1,0,0.2,0.1,0.3c0,0.1,0,0.1-0.1,0.1c0,0.2,0,0.3,0,0.5c0,0.1,0,0.2,0,0.3v0.4c0,0.3,0.1,0.6,0.1,0.8
		c0,0,0.1,0,0.1,0.1v0.1c0,0,0.1,0.1,0.1,0.2s0.1,0.3,0.1,0.4c0.1,0.3,0.3,0.4,0.5,0.6s0.5,0.3,0.8,0.4c0.1,0,0.3,0.1,0.4,0.1
		c0.1,0,0.1,0,0.2,0c0.1,0,0.1,0,0.2,0c0.3,0,0.5,0.1,0.8,0c0.3,0,0.6-0.1,0.9-0.2c0.3-0.1,0.5-0.2,0.8-0.3c0.1,0,0.2-0.1,0.3-0.2
		s0.2-0.1,0.4-0.1c0.1,0,0.2-0.2,0.3-0.2s0.1,0,0.2,0c0.1,0,0.1-0.1,0.2-0.1c0.2-0.1,0.3-0.1,0.5-0.2c0.1,0,0.1-0.1,0.2-0.2
		c0.1-0.1,0.2-0.1,0.3-0.2c0.1,0,0.1-0.1,0.1-0.1c0.1,0,0.1,0,0.2-0.1c0.1-0.1,0-0.1,0.1-0.2l0.1-0.1c0.1-0.1,0.2-0.2,0.2-0.3l0,0
		c0.1,0.1,0.4,0,0.3-0.1h-0.1c-0.2-0.2,0.3-0.2,0.4-0.3c0-0.1,0-0.3,0-0.4s0-0.1,0-0.2s0-0.1,0-0.2c0,0,0,0,0.1,0
		c0-0.1,0-0.1,0.1-0.1c0.1-0.1,0.1,0,0.2-0.1c0.2-0.1-0.1-0.1-0.1-0.2c0,0,0.1-0.1,0.1-0.2s0-0.1,0-0.2c0,0,0.1,0,0.1-0.1
		s0-0.1,0-0.2c0.4,0,0.1-0.1,0.2-0.3c0-0.1,0.2-0.1,0.2-0.2s0.1-0.1,0.2-0.1c0.1-0.2-0.1-0.1,0-0.2c0-0.2,0.1-0.1,0.3-0.1
		c0-0.2,0-0.3,0-0.5s-0.1-0.2-0.2-0.3c-0.1-0.1-0.1-0.3-0.1-0.4c0-0.2-0.2-0.3-0.1-0.5c0.2-0.1,0.1,0.4,0.3,0.4s0.1-0.1,0-0.2
		s-0.1-0.2-0.1-0.3c0-0.1,0-0.1,0-0.1s-0.1,0-0.1-0.1s0.1-0.2,0.2-0.3c0-0.1,0.1-0.2,0.1-0.3c0,0,0-0.1-0.1-0.1s0-0.1,0-0.1
		c0.1-0.1,0.3-0.2,0.3-0.4c0-0.1,0-0.2-0.1-0.3c0,0-0.2,0.1-0.1-0.1c-0.1,0-0.5,0.1-0.4-0.2c0.1-0.1,0.3,0,0.4-0.1v-0.2
		c0-0.1-0.1,0-0.1-0.1c-0.2-0.1-0.1-0.1-0.2-0.3c0-0.1-0.2-0.2,0-0.3c0.1,0,0.1,0,0.1-0.1s-0.1-0.2-0.1-0.2c0-0.1,0.2-0.1,0.3-0.2
		s0.2-0.3,0.2-0.4h-0.1l0,0l0,0l0,0l0,0c-0.1,0-0.1,0.1-0.2,0.2c-0.1,0.1-0.2,0-0.2-0.1s0.2-0.2,0.2-0.2s-0.2,0-0.2-0.2
		c0-0.1,0.1-0.2,0.1-0.3v-0.3c0-0.2,0-0.5,0-0.7v-0.6c0-0.2-0.1-0.4,0-0.5c0-0.1,0-0.1,0-0.2v-0.2c0-0.1,0-0.1,0.1-0.1s0.2,0,0.2,0
		c0-0.1-0.1-0.1-0.1-0.3c-0.1,0-0.1-0.1-0.1-0.1s-0.1,0-0.1-0.1c-0.1-0.2,0.1-0.2,0.1-0.4c-0.3,0,0.2-0.3,0.2-0.3
		c0.1-0.1,0-0.1-0.1-0.2c0-0.1,0-0.1,0-0.2s-0.1-0.4,0.1-0.2c0.1,0.1,0,0.3,0,0.4c0.1,0,0.2,0,0.3,0c0.1-0.1,0.2-0.1,0.3-0.1
		c0.2-0.1,0.1-0.1,0-0.2c0,0-0.2,0-0.2-0.1c-0.1-0.1,0.1-0.1,0.1-0.2s0-0.2,0-0.3c0-0.1-0.1-0.1-0.1-0.2s0.1,0,0.2-0.1
		c-0.1-0.1-0.1-0.2-0.1-0.3l0.1-0.1l-0.1-0.1c-0.2-0.1-0.3-0.2-0.4-0.4c-0.1-0.1-0.1,0-0.1-0.2c0-0.1,0.1-0.2,0.1-0.2s0,0-0.1,0
		s0-0.2,0-0.3c0.1,0,0.2,0,0.3,0.1c0.1,0,0.2-0.1,0.1-0.1c0-0.2-0.1-0.2-0.2-0.3c0.1-0.1,0.6,0,0.4-0.3c-0.1,0-0.2,0-0.1-0.1
		s0.2,0,0.2,0c0.3,0,0.1-0.3,0.3-0.4s0-0.2,0-0.4l-0.1-0.2c-0.1-0.1-0.2-0.1-0.2-0.2c0.1-0.1,0.1-0.1,0.1-0.2s-0.1-0.1-0.1-0.2
		s0-0.2,0-0.3c0-0.1-0.1-0.1-0.1-0.2c0-0.2,0.1-0.3,0.3-0.3c0.1,0,0.4,0.1,0.5-0.1c-0.1-0.1-0.1-0.2-0.2-0.2c-0.1,0-0.2,0-0.3,0
		c0.1-0.1,0.4,0,0.4-0.2c0-0.1-0.1-0.1-0.1-0.2s0.1-0.1,0.1-0.2c0,0,0.2,0,0.2-0.1s-0.2-0.1-0.2-0.1c-0.2,0-0.4-0.1-0.3-0.3l0.1-0.1
		h0.1c0.1-0.1-0.1-0.1-0.1-0.2s0.5,0,0.2,0.2c0,0,0.1,0,0.2,0c0.1,0,0.1,0,0.1-0.1s0.2-0.2,0.2-0.3c-0.1-0.1-0.3,0-0.3-0.1
		s0.1-0.3,0.2-0.3c0.1,0,0.2-0.1,0.2-0.2s-0.1-0.2-0.1-0.3c0-0.1,0.1-0.1,0.1-0.1s0-0.1,0-0.2V86c0-0.1,0-0.2,0-0.3
		c0-0.1-0.1-0.1,0-0.3c0,0,0-0.1,0.1-0.1s0.2,0.1,0.2,0c0,0,0-0.1,0-0.2s0-0.1,0-0.1h0.1c0.1-0.1,0-0.2,0.1-0.3
		c0-0.1,0.1-0.2,0.1-0.3c0.1-0.2,0.1-0.4,0.1-0.6c0-0.1-0.1-0.2,0.1-0.2c0.1-0.1,0.2-0.1,0.3-0.1c0.2-0.1,0.3-0.2,0.5-0.3
		c0.1-0.2,0.2-0.4,0.1-0.6c0-0.1-0.2-0.2-0.2-0.2s0.1-0.1,0.2,0c0,0,0,0.1,0.1,0.1c0.1,0.1,0.1,0,0.2,0c0.1-0.1,0.2-0.2,0.3-0.3
		c0.2-0.2,0.3-0.3,0.5-0.5c0.1-0.1,0.2-0.1,0.2-0.2s0.2-0.1,0.2-0.2c0.2-0.1,0.1-0.4,0.2-0.6c0.2,0,0.3-0.1,0.4-0.2
		c0.1-0.1,0-0.1,0-0.2s0.1-0.1,0.1-0.2s0.1-0.1,0.2-0.2c0.1-0.1,0.2-0.1,0.2-0.2c0.1-0.1,0.2-0.1,0.3-0.1c0.3,0,0.3-0.3,0.5-0.5
		c0.1-0.1,0.1-0.1,0.2-0.1c0.1,0,0.2-0.1,0.3-0.1c0.1-0.1,0.1-0.2,0.2-0.2c0.1-0.1,0.2,0,0.3-0.1s0.3-0.2,0.5-0.3c0.2,0,0.4,0,0.5,0
		c0.1-0.1,0.2-0.1,0.3-0.1s0.1,0,0.2,0c0.1,0,0,0.1,0.1,0.1c0,0,0.1-0.1,0.1,0s0.1,0.1,0.1,0.1c0.2,0,0.4,0,0.6,0
		c0.4,0.1,0.8,0.3,1,0.7c0.1,0.1,0.1,0.2,0.2,0.3c0,0.1,0,0.2,0.1,0.2l0.1,0.1c0,0.1,0,0,0,0.1s0,0.2,0,0.3c0,0.5,0.1,0.9,0.1,1.4
		s0,1,0,1.5c0,0.2,0,0.4,0,0.7c0,0.1,0,0.2,0,0.3c0,0-0.1,0-0.1,0.1s0.1,0,0.1,0.1l0,0l0,0c0,0.2,0,0.4,0,0.6s0,0.4,0,0.7
		c0,0.5-0.1,0.9-0.1,1.4c0,0.1,0,0.2,0,0.2c0,0.2,0,0.4-0.1,0.6c0,0.1,0,0.2,0,0.3s-0.1,0-0.1,0s0,0.1,0,0.2s-0.1,0.2,0,0.3h0.1
		c0,0.1,0.1,0.2,0,0.3c0,0.1-0.1,0.1-0.2,0.2c-0.1,0.1-0.1,0.2-0.1,0.4l0.1,0.1c0,0.1,0,0.1,0,0.2s0,0.3,0.1,0.4c0,0,0.1,0,0.1,0.1
		s0,0.1,0,0.2c0,0.2-0.1,0.4-0.2,0.6c0,0.1-0.1,0.2-0.1,0.3c0,0.1,0,0.2,0,0.3c0,0.3-0.1,0.6-0.1,0.8c-0.1,0.2,0.1,0.3,0.1,0.5
		s0.1,0.4,0.1,0.6s0,0.5-0.1,0.7c0,0.2-0.1,0.4,0,0.7c0,0.2,0,0.5,0,0.8c0,0.1,0,0.2,0,0.3v0.1c0,0.1-0.1,0.1-0.1,0.1
		c-0.1,0.2,0,0.3-0.1,0.4s-0.2,0.3-0.1,0.5c0,0.1,0.1,0.2,0.1,0.3c0,0.1,0,0.2,0,0.3c0,0.1-0.1,0.2,0,0.3c0,0.1,0.1,0.2,0.1,0.3
		c0,0.2,0,0.4,0,0.7c-0.1,0.4-0.1,0.9,0,1.3c0,0.2,0,0.5,0,0.7s0.1,0.4,0.1,0.6c0,0.1,0,0.2,0,0.3c0,0.1,0.1,0.2,0.1,0.3
		s0.1,0.1,0.2,0.2c0,0.1,0.1,0.2,0.1,0.3c0,0.1,0.1,0.2,0.1,0.3c0,0.1,0.2,0.2,0.2,0.3c0.1,0.2,0.2,0.3,0.4,0.4
		c0.1,0,0.2,0.1,0.3,0.2c0.1,0,0.1,0.1,0.2,0.2c0.2,0.1,0.4,0.2,0.6,0.3c0.1,0,0.2,0,0.2,0.3c0,0.1-0.1,0.2-0.2,0.3
		c-0.1,0-0.2,0.1-0.2,0.2c-0.1,0.1-0.2,0.2-0.4,0.3c-0.1,0-0.1,0-0.2,0.1c-0.2,0.1-0.4,0.3-0.7,0.4c-0.1,0.1-0.3,0.2-0.4,0.3
		c-0.1,0.1-0.3,0.2-0.5,0.3c-0.1,0.1-0.2,0.1-0.3,0.1c-0.1,0.1-0.1,0.1-0.2,0.2c-0.1,0.1-0.2,0.1-0.2,0.1c-0.1,0-0.2,0.1-0.3,0.2
		l-0.7,0.4c-0.4,0.2-0.7,0.3-1,0.5c-0.8,0.5-1.5,0.9-2.3,1.4c-0.2,0.1-0.4,0.2-0.6,0.3s-0.2,0.1-0.3,0.2c-0.1,0-0.2,0.1-0.2,0.1
		c-0.3,0.2-0.7,0.4-1.1,0.6c-0.2,0.1-0.3,0.2-0.5,0.3l0,0l0,0c-0.1,0-0.2,0.1-0.3,0.1s-0.2,0.1-0.3,0.1c-0.2,0.2-0.5,0.3-0.7,0.4
		c-0.1,0-0.1,0-0.2,0.1c-0.1,0.1-0.2,0.1-0.4,0.2s-0.2,0.2-0.3,0.2c-0.1,0.1-0.3,0-0.3,0.1c-0.4,0.2-0.7,0.4-1.1,0.7
		c-0.4,0.2-0.7,0.3-1,0.6c-0.1,0.1-0.1,0.2-0.2,0.2s-0.1,0-0.1,0l-0.1,0.1c-0.1,0.1-0.2,0.1-0.3,0.1c-0.1,0.1-0.1,0.1-0.2,0.1
		c-0.4,0.2-0.8,0.4-1.1,0.6c-0.4,0.2-0.8,0.4-1.1,0.6c-0.2,0.1-0.4,0.2-0.6,0.4c-0.2,0.1-0.3,0.2-0.5,0.3c-0.3,0.1-0.7,0.3-1,0.5
		c-0.2,0.1-0.3,0.2-0.5,0.2c-0.2,0.1-0.3,0.3-0.4,0.3c-0.1,0-0.2,0.1-0.2,0.2c-0.1,0-0.2,0-0.3,0c-0.2,0.1-0.3,0.3-0.5,0.4
		c-0.4,0.2-0.8,0.5-1.1,0.7c-0.1,0.1-0.3,0.2-0.4,0.3c-0.1,0.1-0.2,0.1-0.3,0.1s-0.1,0.1-0.2,0.2c-0.1,0.1-0.2,0.1-0.3,0.1
		s-0.1,0.1-0.2,0.2s-0.1,0.1-0.2,0.1c-0.1,0.1-0.2,0.1-0.3,0.2c-0.1,0-0.2,0-0.3,0.1s-0.1,0.2-0.2,0.2h-0.1l-0.1,0.1l-0.1,0.1h-0.1
		c0,0,0,0.1-0.1,0.1s-0.1,0-0.1,0c-0.2,0.1-0.3,0.2-0.4,0.3c-0.1,0.1-0.1,0.1-0.3,0.1c-0.1,0-0.2,0.1-0.3,0.1s-0.1,0.1-0.2,0.1
		c-0.1,0-0.1-0.1-0.2-0.1c-0.1,0-0.2,0.1-0.3,0.2v0.1c0,0.1-0.1,0.1-0.1,0.1c-0.1,0.1-0.3,0.3-0.4,0.4c-0.1,0-0.1-0.1-0.2,0
		c-0.1,0.1-0.1,0.1-0.1,0.2c-0.1,0.1-0.3,0.2-0.5,0.3c-0.2,0.1-0.4,0.1-0.6,0.3c-0.2,0.1-0.4,0.1-0.6,0.2c-0.2,0.1-0.4,0.2-0.6,0.3
		c-0.2,0.1-0.3,0.1-0.5,0.3c-0.1,0.1-0.2,0.2-0.3,0.2s-0.1,0.1-0.1,0.1c-0.1,0.1-0.3,0.2-0.5,0.3c-0.2,0.1-0.3,0.3-0.5,0.4
		c-0.1,0.1-0.3,0.1-0.4,0.2c-0.2,0-0.3,0.1-0.4,0.2l-0.5,0.4c-0.2,0.1-0.3,0.2-0.5,0.3c-0.2,0.1-0.3,0.2-0.5,0.3
		c-0.1,0.1-0.2,0.2-0.3,0.2s-0.2,0.1-0.3,0.1c-0.1,0.1-0.2,0.2-0.3,0.2s-0.4,0.2-0.4,0.3c0,0,0,0,0.1,0.1c-0.5,0.2-1,0.5-1.4,0.8
		c-0.5,0.3-0.9,0.6-1.4,0.9c-0.8,0.5-1.7,1-2.5,1.6c-0.5,0.3-1.1,0.6-1.6,1c-0.1,0.1-0.2,0.2-0.3,0.2c-0.1,0.1-0.2,0-0.3,0.1
		c-0.2,0-0.1,0.1-0.2,0.2c-0.1,0.1-0.2,0.1-0.3,0.2c-0.2,0.1-0.3,0.2-0.5,0.3s-0.4,0.2-0.6,0.3c-0.1,0.1-0.2,0.1-0.3,0.2
		c-0.1,0.1-0.1,0.1-0.2,0.1c-0.1,0.1-0.3,0.2-0.5,0.3c-0.1,0.1-0.2,0.1-0.3,0.1s-0.1,0-0.2,0.1c-0.1,0.1-0.1,0.1-0.2,0.1
		c-0.1,0.1-0.2,0.1-0.2,0.2l-0.1,0.1c0,0-0.1,0-0.2,0.1c0,0-0.1,0.1-0.2,0.2h-0.1l-0.1,0.1c-0.1,0.1-0.1,0.1-0.2,0.2
		c-0.1,0-0.5,0.2-0.5,0.2l0,0c0-0.2,0-0.3-0.1-0.5c0.1-0.1,0.1-0.1,0.1-0.2s-0.1-0.1,0-0.3c0.1-0.1,0.1-0.2,0.1-0.3s-0.1-0.1,0-0.2
		c0.1-0.2,0.1-0.4,0-0.6c-0.1-0.2-0.1-0.4,0-0.6c0-0.2,0-0.4-0.1-0.5c0-0.2,0-0.4,0.1-0.6c0.1-0.2,0-0.4,0.1-0.6
		c0.1-0.1,0.1-0.2,0.1-0.3V129l-0.1-0.1c0-0.1,0.1-0.1,0.1-0.2c0.1-0.1,0-0.2,0-0.2c0-0.1,0.1-0.1,0-0.2c0,0-0.1,0-0.1-0.1v-0.1
		c0-0.2-0.2-0.2-0.1-0.4c0.1-0.1,0.1-0.3,0.1-0.5c-0.3,0.1,0-0.2,0-0.3c-0.2,0-0.1-0.5-0.1-0.6h0.2c0-0.1-0.1-0.1-0.2-0.2
		c-0.1-0.1,0-0.1,0.1-0.2s0.2-0.3,0.2-0.5c0-0.1-0.1-0.1-0.1-0.3c0-0.1,0-0.1,0.1-0.2v-0.1c0-0.1,0-0.1,0-0.1c-0.1-0.1,0-0.1,0-0.2
		s-0.2-0.1-0.2-0.3c0-0.1,0-0.3,0-0.4s0-0.3,0-0.4v-0.2l0.1-0.1c0-0.1-0.1,0-0.1-0.1s0-0.1,0-0.2s0.1-0.3,0.1-0.4
		c0-0.3,0.1-0.6,0.1-0.8c0-0.1,0-0.2,0-0.3c0-0.1,0.1-0.2,0.1-0.2c0.1,0,0.2-0.1,0.2-0.1c-0.1-0.1-0.2,0-0.2-0.1s0-0.3,0-0.3
		c0-0.2,0-0.4,0-0.6s0-0.4,0.1-0.6s0.2-0.4,0.2-0.6c-0.2,0-0.1-0.2,0-0.2c0-0.1,0.1-0.3,0-0.4c0-0.3,0.1-0.6,0.1-0.9s0-0.6,0.1-0.9
		c0-0.1,0-0.3,0-0.4v-1c0,0,0.1-0.2,0.1-0.1l0,0c-0.2-0.1,0-0.3,0-0.4c0-0.2,0-0.4,0-0.6s0-0.4,0-0.6c0-0.1-0.1-0.5,0.1-0.5
		c0-0.7,0.1-1.3,0.2-2c0-0.6,0-1.2,0.1-1.8c0-0.2,0.1-0.3,0.1-0.5V108c0-0.3,0-0.6,0-0.9c0-0.1,0-0.3,0-0.4s0.1-0.1,0-0.2
		c0-0.1-0.1-0.1-0.1-0.1c0-0.1,0.1-0.2,0.2-0.3c0-0.1-0.1-0.2-0.1-0.3c0-0.1,0.1-0.2,0.1-0.4s0-0.3,0-0.4c0-0.3,0-0.5,0-0.8
		c0.1,0,0.6-0.2,0.3-0.3c0,0.1-0.1,0.2-0.2,0.1c-0.1-0.1,0-0.2,0-0.3s-0.1-0.3,0-0.4c0,0,0.1,0,0.1,0.1c0.1-0.2-0.1-0.2-0.1-0.4
		c0-0.1,0-0.2,0.1-0.2l0,0c0.1-0.1,0.1,0.1,0.2,0.1c0-0.1,0-0.2,0-0.3c-0.1-0.1-0.1-0.1,0-0.2c0,0,0.1,0,0.1-0.1v-0.1
		c0-0.1,0.1-0.2,0.1-0.3c0-0.1-0.1-0.2-0.1-0.3c0-0.1,0-0.2,0-0.3c0-0.1,0-0.2-0.1-0.3c-0.1-0.1-0.2-0.1-0.1-0.2s0.4-0.2,0.2-0.5
		c0-0.1-0.1-0.2-0.2-0.3s0.1-0.1,0.1-0.2c0.1-0.1-0.1-0.1-0.1-0.2s0-0.2,0-0.3c0-0.2-0.1-0.5,0.1-0.6c0.2-0.1,0.3-0.1,0.2-0.3
		c0-0.1-0.1-0.2-0.1-0.3c0-0.1,0.1-0.2-0.1-0.3c0-0.1-0.1-0.3,0-0.3c0.1-0.1,0.2,0,0.2-0.1s0.1-0.1,0.1-0.2
		c-0.1-0.1-0.2-0.1-0.2-0.2s-0.1-0.3-0.1-0.5c0-0.1,0-0.2,0-0.3c0-0.1,0.1-0.1,0.1-0.2c-0.1,0-0.1-0.1-0.1-0.2s0-0.2-0.1-0.3
		c0-0.1,0-0.2,0.1-0.3c0-0.1,0-0.2,0-0.3c0-0.1,0-0.2,0-0.3c0.1-0.1,0.2-0.1,0.1-0.2c-0.1-0.1-0.2-0.1-0.2-0.2s0.2,0,0.3-0.1
		c0,0,0,0,0.1-0.1c-0.1-0.1-0.2,0-0.3-0.1s-0.1-0.1,0-0.2c0.1-0.2,0-0.4-0.2-0.5c-0.1-0.1-0.1-0.1-0.2-0.2c0-0.1-0.1-0.2-0.2-0.2
		c-0.1-0.1-0.2-0.3-0.4-0.4c-0.3-0.4-0.7-0.5-1.1-0.6c-0.2-0.1-0.5-0.2-0.8-0.2s-0.5,0-0.8,0c-0.5-0.1-1,0-1.4,0.1
		c-0.2,0.1-0.3,0.2-0.5,0.2c-0.1,0-0.2,0.1-0.3,0.1s-0.3,0-0.3,0s0,0.1,0,0.2c-0.1,0-0.3,0.2-0.3,0.1c-0.1,0-0.1,0-0.1,0.1
		c-0.2,0-0.2,0.2-0.4,0.3c-0.1,0.1-0.3,0.2-0.4,0.3c-0.1,0.1-0.2,0.2-0.3,0.3c-0.1,0.1-0.3,0.3-0.3,0.4H135c0,0.1,0,0.1,0,0.1
		c-0.1,0.1-0.1,0.1-0.2,0.2c0,0.1,0,0.1,0,0.1l-0.1,0.1c-0.1,0.2-0.2,0.4-0.3,0.6c0,0.1,0,0.2-0.1,0.3l-0.1,0.3c0,0.2,0,0.4,0,0.6
		c-0.1,0.2-0.1,0.4-0.1,0.7c0,0.2,0,0.3,0,0.5c0,0.1-0.1,0.2-0.1,0.3c0,0.2,0,0.5-0.1,0.7c-0.1,0.3-0.1,0.5-0.1,0.8v0.5
		c0,0.2,0,0.3,0,0.5s0,0.4-0.1,0.6l-0.1,0.1c0,0.1,0,0.1,0,0.1c0,0.1,0,0.1,0,0.2c-0.1,0.2,0,0.5,0,0.7c0,0.1,0,0.2,0,0.3
		s-0.1,0.2-0.1,0.3s0.1,0.1,0.1,0.1c0,0.1,0,0.1,0,0.1c0,0.1,0,0.2,0,0.3c0,0.2,0,0.5,0,0.8c0,0.2,0,0.4,0,0.7
		c0,0.2-0.1,0.4-0.1,0.6c0,0.1,0,0.2,0,0.3c0,0.1,0,0.2-0.1,0.3c0,0.3,0,0.5,0,0.8c0,0.1,0,0.2-0.1,0.3c0,0.1,0,0.2,0,0.3
		c0,0.1,0,0.2,0,0.4s0,0.2,0,0.4c0,0.2,0,0.4,0,0.6s0,0.4,0,0.6s0,0.3-0.1,0.5c0,0.1,0.1,0.4,0,0.5s-0.2-0.1-0.3,0.1
		c0,0.1-0.1,0.2-0.1,0.3c0,0.1,0.1,0,0.2,0.1c0,0.2,0,0.4,0,0.7v0.1c0,0-0.1,0-0.1,0.1s0,0.2,0,0.3c0,0.2,0,0.5,0,0.8
		c0,0.2-0.1,0.5-0.1,0.7s-0.1,0.5-0.1,0.8c0,0.1,0,0.3,0,0.4l-0.1,0.1c0,0.1,0,0.1,0,0.2c0,0.2-0.1,0.4-0.1,0.7
		c0,0.2-0.1,0.4-0.1,0.6s-0.1,0.4-0.1,0.5c0,0.2,0,0.4,0,0.6h-0.1c0,0.2,0,0.4,0,0.6s0,0.4,0,0.6c-0.1,0.3-0.1,0.7-0.1,1
		c0,0.1,0,0.2,0,0.3c0,0.1-0.1,0.1-0.1,0.2c-0.1,0.2-0.1,0.5-0.1,0.8c0,0.2-0.1,0.4-0.1,0.7c0,0.4-0.1,0.9-0.2,1.3
		c0,0.1,0,0.2,0,0.3c0,0.1,0,0.2-0.1,0.3c-0.1,0.2-0.1,0.4-0.1,0.7c-0.1,0.8-0.5,1.5-0.9,2.2c-0.1,0.1-0.2,0.2-0.3,0.4
		c-0.2,0.3-0.4,0.5-0.6,0.7c-0.1,0.1-0.2,0.2-0.3,0.3h-0.1c0,0.1-0.1,0.1-0.2,0.2c0,0,0,0.1-0.1,0.1s-0.1,0-0.1,0.1
		c-0.1,0.1-0.2,0.1-0.3,0.2c-0.1,0-0.1,0.1-0.2,0.2c-0.1,0.1-0.2,0.1-0.2,0.1c-0.1,0-0.2,0.1-0.3,0.2c-0.1,0-0.2,0.1-0.3,0.1
		c-0.1,0-0.2,0.1-0.3,0.2c-0.3,0.1-0.7,0.2-1,0.2c-0.2,0-0.4,0.1-0.6,0c-0.1,0-0.2,0-0.3,0c-0.1,0-0.2-0.1-0.3-0.1
		c-0.1-0.1-0.3-0.1-0.4-0.1c-0.1-0.1-0.2-0.1-0.3-0.2c-0.2-0.1-0.4-0.3-0.5-0.5s-0.3-0.4-0.3-0.6c0-0.1,0-0.2-0.1-0.4
		c-0.1-0.1-0.1-0.1-0.2-0.2c-0.2-0.4-0.3-0.8-0.3-1.3c-0.1-0.4-0.1-0.8,0-1.2c0-0.1,0.1-0.2,0.1-0.2s-0.2-0.1-0.2-0.2
		s0.1-0.2,0.1-0.2c0.1-0.3,0-0.3-0.1-0.5c0-0.1-0.1-0.2-0.1-0.3c0-0.1,0-0.2,0-0.3c0-0.1,0.1-0.1,0.2-0.2c0.1-0.2,0.1-0.4,0.1-0.6
		s0-0.4,0-0.7c0-0.4,0-0.9,0.1-1.3c0.1-0.2,0.1-0.4,0.1-0.7c0-0.1,0-0.3,0-0.4s0.1-0.2,0.1-0.3c0-0.2,0-0.3,0-0.5
		c0-0.1,0.1-0.1,0.1-0.2s0-0.2,0-0.3c0.1,0,0.2-0.4,0.2-0.6s-0.1-0.4-0.1-0.7c-0.2,0-0.1-0.2-0.2-0.3l-0.1-0.1c0-0.1,0-0.1,0-0.1
		c0-0.1,0-0.2,0-0.4c0-0.2-0.1-0.3,0-0.4c0.2,0,0-0.8,0-0.9s0.1-0.2,0.1-0.3c0.1-0.2,0.2-0.3,0.3-0.5c0-0.1,0-0.2,0-0.3
		c0-0.1,0-0.2,0.1-0.3c0-0.1,0-0.2,0.1-0.3s0.1-0.2,0.1-0.3c0.1-0.2,0.1-0.4,0.2-0.7c0-0.3,0.1-0.5,0.2-0.8c0.1-0.2,0.2-0.4,0.3-0.6
		c0.1-0.2,0.5-0.3,0.5-0.6s0.2-0.5,0.2-0.8c0-0.2,0-0.7,0.3-0.7c0-0.1,0.1-0.3,0.2-0.3c0.1-0.1,0-0.2,0-0.3c0.2,0,0.1-0.3,0.2-0.4
		c0-0.1,0.2-0.3,0.3-0.1c0.1-0.1,0.1-0.2,0.2-0.3l0,0c0-0.1,0-0.3,0.1-0.4c-0.2-0.1,0-0.2,0.1-0.3s0.1-0.3,0.2-0.3l0,0
		c0.2-0.2,0.3-0.1,0.4-0.4h0.1c0-0.2,0.1-0.5,0.2-0.7c0.1-0.1,0.4-0.5,0.4-0.5s0,0,0-0.1h0.1v-0.1c0.1-0.1,0.2-0.1,0.3-0.1
		c0.1-0.1,0.1-0.2,0.2-0.2c0-0.1,0.2,0,0.2-0.2c0.1,0,0.2-0.3,0.2-0.4s0.1-0.1,0.1-0.2c0.1-0.1,0.1-0.1,0.1-0.2c0.1,0,0.2,0,0.2-0.1
		c-0.1,0,0-0.1,0-0.2c0.1-0.1,0-0.1,0-0.2s0.1-0.1,0.2-0.2c0.1-0.1,0.3-0.2,0.3-0.3c-0.1,0,0-0.4,0-0.5s0.1-0.1,0.1-0.2s0-0.2,0-0.2
		c0-0.1,0.2-0.4,0.3-0.6c0-0.1,0-0.2-0.1-0.3l0,0c0-0.1,0.1-0.1,0.1-0.1c0-0.1,0-0.4,0.1-0.4c0.1-0.2,0.1-0.4,0-0.6
		c0-0.1-0.1-0.2-0.1-0.3c0-0.1,0-0.2-0.1-0.3c0,0,0,0-0.1,0c-0.1-0.1,0-0.2,0-0.3c0-0.1-0.1-0.2-0.1-0.2c-0.1,0-0.1-0.1-0.2-0.2
		c-0.1-0.1-0.1-0.2-0.2-0.2c-0.1,0-0.2-0.1-0.3-0.1s-0.2,0-0.3-0.1c-0.1,0-0.2-0.1-0.3-0.1s-0.1,0-0.2,0c-0.1,0-0.2-0.1-0.3-0.1
		s-0.2,0-0.3,0c-0.1,0-0.2,0-0.3,0.1c-0.1,0-0.2,0-0.3,0c-0.1,0-0.2,0-0.3,0.1c-0.1,0.1-0.1,0.1-0.2,0.1c-0.2,0-0.4,0.1-0.6,0.1
		s-0.4,0.1-0.5,0.2c-0.1,0-0.2,0.1-0.3,0.1c-0.1,0-0.2,0.1-0.2,0.1c-0.1,0-0.2,0-0.3,0.1c-0.1,0-0.2,0.1-0.3,0.1
		c-0.2,0-0.3,0.1-0.5,0.2c0,0.1-0.1,0.1-0.2,0.1c0,0.1-0.2,0.1-0.2,0.2c-0.1,0.1-0.1,0.1-0.2,0.2s0,0-0.1,0.1c0,0-0.1,0-0.1,0.1
		c0,0-0.1,0.3-0.2,0.1c-0.1,0-0.1,0.1-0.1,0.1s-0.1,0-0.2,0.1c-0.1,0-0.3,0.2-0.3,0.3c-0.3,0.1-0.6,0.4-0.9,0.6s-0.6,0.4-0.8,0.7
		c-0.1,0.1-0.2,0.2-0.4,0.3c-0.1,0.1-0.1,0.1-0.2,0.2c0,0.1-0.1,0.2-0.1,0.3c0,0.1-0.1,0-0.1,0l-0.1,0.1c0,0-0.1,0.1-0.2,0.2
		s-0.2,0.2-0.3,0.4c0,0.1-0.1,0.1-0.1,0.2s-0.1,0-0.1,0.1c-0.1,0.1-0.1,0.2-0.2,0.3c-0.2,0.2-0.3,0.4-0.4,0.6c0,0-0.3,0.3-0.3,0.4
		c-0.1,0.1-0.1,0.1-0.1,0.2c-0.1,0,0,0.1-0.1,0.1c0,0.1-0.1,0.1-0.1,0.1l-0.2,0.3c-0.1,0.1-0.2,0.2-0.3,0.3
		c-0.1,0.1-0.1,0.2-0.1,0.4h-0.1c-0.1,0,0,0.2-0.1,0.2c0,0.1-0.1,0.2-0.2,0.2c0,0.1-0.1,0.2-0.1,0.2v0.1l-0.1,0.1v0.1l-0.1,0.1
		c0,0.1-0.1,0.2-0.1,0.2c0,0.1-0.1,0.2-0.1,0.2l-0.1,0.2c0,0.1-0.1,0.2-0.1,0.3c-0.1,0.1-0.1,0.1-0.1,0.2c-0.1,0.2-0.1,0.4-0.2,0.6
		c0,0.1-0.1,0.2-0.1,0.3c0,0.1-0.1,0.1-0.1,0.2s0,0.2-0.1,0.3c-0.1,0.1-0.1,0.1-0.2,0.2c0,0.1,0,0.2-0.1,0.2c0,0.1-0.1,0.2-0.1,0.4
		c-0.1,0.1-0.1,0.3-0.1,0.4c0,0.2-0.1,0.3-0.2,0.5c0,0.2-0.1,0.4-0.2,0.6s-0.1,0.4-0.1,0.6c-0.1,0.2-0.1,0.4-0.1,0.6
		c-0.1,0.4-0.1,0.7-0.2,1l-0.1,0.5c0,0.1-0.1,0.2-0.1,0.3c0,0.1,0.2,0.2,0.1,0.2c0,0.2-0.1,0.4-0.1,0.6c0,0.1,0,0.2,0,0.3
		c0,0.2,0,0.3,0,0.5c0,0.1-0.1,0.3-0.2,0.4c0,0.1,0,0.2,0,0.3v0.2c0,0-0.1,0,0,0.1c0.1,0,0,0.2,0,0.3c0,0.1-0.1,0-0.1,0.1
		s0,0.1,0,0.1c0,0.2,0,0.4,0,0.7c0,0.4,0,0.8-0.1,1.3c0,0.4-0.1,0.9,0,1.3v0.4c0,0.2-0.1,0.2-0.1,0.3c-0.1,0.1-0.1,0.3-0.1,0.4
		c-0.1,0.1-0.1,0.2-0.1,0.4c0,0.1,0,0.3,0,0.4s-0.1,0.3,0,0.4c0.2,0.1-0.1,0.6,0,0.8c0,0.1,0.1,0.2,0.2,0.3c0.1,0.1,0.1,0.3,0.1,0.4
		c0,0.6-0.1,1.1,0,1.7c0,0.4,0,0.9,0,1.3c0,0.1,0,0.3,0,0.4c0,0.3,0,0.6,0,0.8c-0.1,0.5,0,1,0,1.6c0,0.2,0,0.4,0,0.6c0,0,0,0-0.1,0
		c0.1,0.1,0.1,0.3,0.1,0.5s0.1,0.3,0.1,0.5s0,0.3,0,0.5c0.1,0.3,0.2,0.7,0.2,1v0.3c0,0.1,0.1,0.2,0.1,0.3c0.1,0.2,0.1,0.4,0.1,0.5
		c0.1,0.2,0.3,0.4,0.2,0.5c0.1,0.1,0.1,0.2,0.1,0.3s0.1,0.2,0.2,0.3s0,0.3,0.1,0.4c0.1,0.1,0.2,0.1,0.3,0.3c0.1,0.2,0.3,0.4,0.5,0.6
		c0.2,0.2,0.4,0.3,0.5,0.5c0,0.1,0.1,0.1,0.1,0.2c0,0,0-0.1,0.1-0.1c0.3,0.2,0.5,0.4,0.8,0.6c0.2,0.1,0.4,0.2,0.6,0.2
		c0.1,0,0.2,0.1,0.2,0.2c0,0.1,0,0.2,0.2,0.2c0-0.1,0-0.1,0-0.1c0.1,0,0.2,0,0.3,0.1c0.1,0.1,0.2,0.1,0.3,0.1c0.1,0,0.3,0,0.4,0
		c0.1,0.1,0.2,0.1,0.3,0.1c0.1,0,0.2,0.1,0.3,0.1c0.1,0,0.2,0,0.4,0s0.2,0,0.3,0s0.2,0,0.4,0v0.1h0.1c0,0,0,0,0-0.1
		c0.2-0.1,0.5,0.1,0.7,0v-0.1c0.1,0,0.3,0,0.4,0s0.2,0,0.4-0.1c0.3,0,0.5-0.1,0.8-0.1c0.2-0.1,0.5-0.1,0.8-0.2
		c0.1-0.1,0.2,0,0.3-0.1h0.1v-0.1c0.1-0.1,0.1,0,0.2,0c0,0,0,0.1,0.1,0.1h0.2c0.1,0,0.2,0.1,0.3,0.1c0.1,0,0.2-0.1,0.3-0.1
		s0.4,0.2,0.4,0c-0.1,0-0.4,0.1-0.3-0.1c0-0.1,0.3-0.1,0.4-0.1s0.3-0.2,0.4-0.2s0.3,0.2,0.3,0c-0.1,0-0.1-0.1-0.1-0.2
		c0.1,0,0.2,0,0.2-0.1c0.1-0.1,0-0.1,0.1-0.2c0.1,0,0.4,0,0.6,0c0.1,0,0.3-0.1,0.5-0.1c0.1,0,0.4,0,0.4-0.2h0.2c0,0,0-0.1,0.1-0.1
		c0.1-0.1,0.2,0,0.4-0.1s0-0.1,0.1-0.1s0.1-0.1,0.2-0.1c0.1-0.1,0.1-0.2,0.2-0.3s0.3,0,0.4-0.1c0.1-0.1,0-0.2,0.2-0.3
		c0.1-0.1,0.2-0.1,0.3-0.2c0.1-0.1,0.2-0.1,0.3-0.2c0.1-0.1,0.2-0.1,0.4-0.2c0-0.1,0.1-0.2,0.2-0.3c0.1-0.1,0.2-0.1,0.3-0.1h0.1
		c0.3,0,0.2,0.5,0.2,0.7c0,0.3,0,0.5,0.1,0.8c0,0.1,0,0.1,0,0.2v0.1c-0.1,0.1-0.1,0.2,0,0.4c0,0.1,0.1,0,0.1,0.1
		c0,0-0.1,0.1-0.1,0.2c0,0.1,0,0.3,0,0.4c0,0.1,0.1,0.2,0.1,0.3s-0.1,0.1-0.2,0.1c0,0.1,0,0.2,0,0.3c0.1,0.1,0,0.1,0.1,0.1
		c0,0.1,0,0.2,0,0.2c0,0.1,0,0.1,0,0.2c0,0.1,0.1,0,0,0.2c0,0.1,0,0.1-0.1,0.1c0,0,0,0.1,0,0.2c0,0.1,0,0.2,0,0.3
		c0.1,0.1,0,0.2,0,0.3s0.1,0.1,0,0.2v0.1l0,0v0.1c-0.1,0-0.3,0.1-0.4,0.2c-0.1,0.1-0.2,0.2-0.3,0.2l-0.3,0.2
		c-0.1,0.1-0.2,0.1-0.3,0.2c-0.2,0.1-0.3,0.3-0.5,0.5l-0.6,0.4c-0.2,0.1-0.3,0.2-0.5,0.3c-0.1,0.1-0.4,0.2-0.5,0.4
		c-0.1,0-0.1,0-0.1,0.1l0,0c-0.5,0.3-1,0.6-1.4,0.9c-0.2,0.1-0.3,0.3-0.5,0.4l-0.3,0.2c-0.1,0.1-0.2,0.1-0.3,0.2l-0.1,0.1
		c0,0-0.1,0.1-0.2,0.1c-0.1,0.1-0.2,0.2-0.3,0.2c-0.4,0.3-0.7,0.5-1.1,0.8s-0.8,0.7-1.2,0.9c-0.5,0.3-0.9,0.8-1.4,1
		c0,0.1-0.1,0.2-0.2,0.2s-0.2,0.1-0.2,0.2c-0.2,0.1-0.3,0.2-0.5,0.3c-0.1,0-0.2,0.1-0.3,0.2c-0.1,0.1-0.1,0.2-0.2,0.3
		s-0.2,0-0.3,0.1c-0.1,0.1-0.1,0.2-0.2,0.2s-0.1,0.1-0.2,0.2c-0.1,0.1-0.2,0.1-0.3,0.1c0,0.2-0.2,0.2-0.3,0.3s-0.2,0.2-0.3,0.3
		c-0.1,0.1-0.3,0.1-0.4,0.2c-0.1,0.1-0.2,0.2-0.3,0.2c0,0.1-0.2,0.2-0.3,0.2c-0.1,0.1-0.1,0.2-0.2,0.3s-0.2,0.1-0.3,0.1
		c-0.1,0-0.2,0.2-0.3,0.2c-0.1,0.1-0.2,0.1-0.3,0.2c-0.1,0-0.2,0.1-0.3,0.2c-0.2,0.2-0.4,0.3-0.5,0.4c-0.2,0.2-0.5,0.4-0.8,0.6
		c-0.2,0.1-0.5,0.4-0.7,0.5v0.1c-0.1,0.1-0.1,0.1-0.2,0.1s-0.1,0.1-0.2,0.2c-0.1,0-0.1,0.1-0.2,0.1c-0.1,0.1-0.1,0.1-0.2,0.2
		s-0.3,0.1-0.4,0.2c-0.1,0.1-0.3,0.2-0.4,0.3c0,0.1-0.1,0.1-0.2,0.2c-0.1,0.1-0.1,0.2-0.2,0.2s-0.2,0.1-0.3,0.1c0,0,0,0.1-0.1,0.1
		h-0.1c-0.1,0.1-0.3,0.2-0.4,0.3s-0.1,0.1-0.2,0.2c-0.1,0-0.2,0.1-0.2,0.2c-0.2,0-0.4,0.2-0.5,0.3s-0.1,0.1-0.2,0.1
		s-0.2,0.1-0.2,0.1c-0.1,0.1-0.1,0.2-0.2,0.2v-0.1c-0.1,0-0.1,0.2-0.2,0.2s-0.2,0.1-0.3,0.2c-0.2,0.1-0.3,0.2-0.5,0.3
		s-0.3,0.2-0.5,0.3c-0.1,0.1-0.2,0.1-0.3,0.1c-0.1,0.1-0.1,0.1-0.2,0.2v0.1c-0.2,0.1-0.4,0.3-0.6,0.4l-0.3,0.2
		c-0.1,0.1-0.1,0.2-0.2,0.3s-0.2,0.2-0.3,0.2c-0.1,0.1-0.2,0.1-0.2,0.2c-0.1,0.1-0.2,0.1-0.4,0.2s-0.1,0.2-0.3,0.3
		c-0.2,0.1-0.4,0.2-0.6,0.4c-0.1,0.2-0.3,0.3-0.4,0.4c-0.1,0.2-0.4,0.2-0.5,0.4c-0.2,0.1-0.3,0.2-0.5,0.4c-0.2,0.1-0.2,0.4-0.4,0.5
		s-0.3,0.3-0.5,0.4c-0.4,0.3-0.8,0.6-1.1,0.9c-0.4,0.3-0.7,0.6-1.1,0.9c-0.2,0.2-0.5,0.3-0.6,0.5c-0.1,0.1-0.1,0.2-0.3,0.3
		c-0.1,0-0.2,0.1-0.3,0.2c-0.3,0.3-0.6,0.6-0.9,0.8c-0.3,0.3-0.6,0.5-0.9,0.7c-0.2,0.2-0.4,0.4-0.7,0.5c0.1,0.3-0.6,0.3-0.5,0.6
		c-0.1,0-0.1-0.1-0.2-0.1c0,0.3-0.5,0.5-0.7,0.7s-0.3,0.2-0.4,0.4s-0.3,0.2-0.5,0.2c0,0.1-0.1,0.2-0.2,0.3s-0.2,0.2-0.2,0.3
		c-0.1,0.2-0.3,0.4-0.5,0.5c-0.4,0.3-0.8,0.7-1.1,1c-0.1,0.1-0.2,0.1-0.4,0.2c-0.1,0.1-0.1,0.3-0.2,0.4c-0.2-0.1-0.2,0.1-0.2,0.1
		c-0.1,0.1-0.2,0.1-0.3,0.2c-0.2,0.2-0.3,0.3-0.5,0.4c-0.4,0.3-0.7,0.7-1.1,0.9c-0.5,0.3-0.8,0.8-1.3,1.1c-0.1,0.1-0.3,0.1-0.3,0.2
		c-0.1,0.1-0.1,0.2-0.2,0.3s-0.2,0.1-0.3,0.2c-0.1,0.1-0.2,0.1-0.3,0.2c-0.2,0.2-0.4,0.3-0.6,0.5c-0.1,0-0.1,0.1-0.1,0.2
		c-0.2,0.1-0.4,0.3-0.6,0.5c-0.1,0.1-0.5,0.3-0.5,0.4c-0.2,0.1-0.4,0.3-0.6,0.5c-0.1,0.1-0.2,0.1-0.3,0.2s-0.1,0.2-0.2,0.3
		c-0.2,0.2-0.4,0.3-0.6,0.5s-0.4,0.3-0.6,0.5c-0.4,0.3-0.8,0.6-1.1,0.9c-0.2,0.2-0.3,0.3-0.5,0.4c-0.1,0.1-0.3,0.2-0.4,0.3
		s-0.3,0.2-0.4,0.3c0,0,0,0.1,0,0.2c0,0-0.1,0-0.2,0.1c-0.2,0.1-0.4,0.3-0.5,0.5c-0.1,0.1-0.2,0.2-0.3,0.3c-0.1,0.1-0.2,0.1-0.3,0.2
		c-0.1,0.1-0.2,0.2-0.3,0.3s-0.2,0.1-0.3,0.2s-0.1,0.2-0.2,0.3l-0.1,0.1c0,0-0.1,0.1-0.2,0.1c-0.2,0.1-0.3,0.3-0.5,0.4
		c-0.4,0.3-0.7,0.7-1,1c-0.1,0.2-0.4,0.3-0.5,0.5c-0.2,0.2-0.4,0.4-0.5,0.5c-0.4,0.3-0.7,0.6-1,0.9c-0.3,0.4-0.8,0.7-1.1,1
		c-0.1,0.1-0.2,0.2-0.3,0.2s-0.1,0.2-0.2,0.3c-0.2,0.1-0.3,0.3-0.5,0.4c-0.2,0.1-0.3,0.3-0.4,0.5c-0.2,0.2-0.3,0.3-0.5,0.4l-0.9,0.8
		c-0.3,0.3-0.6,0.7-0.9,0.9c-0.4,0.4-0.8,0.8-1.1,1.1c-0.2,0.2-0.4,0.4-0.6,0.6c-0.2,0.1-0.3,0.3-0.5,0.5c-0.3,0.4-0.6,0.8-0.9,1.1
		c-0.2,0.3-0.5,0.6-0.7,0.9c-0.1,0.2-0.3,0.4-0.5,0.6c-0.1,0.2-0.2,0.4-0.4,0.6c-0.1,0.2-0.3,0.4-0.3,0.6c0.1,0.1,0,0.2-0.1,0.3
		c0.1,0.1-0.1,0.6-0.2,0.7c-0.1,0.4,0.2,0.5,0.2,0.8c0,0.1,0,0.3,0,0.4c0,0.1,0.1,0.2,0.1,0.4c0.1,0.2,0.1,0.4,0.2,0.5l0.1,0.3
		c0.1,0.2,0.2,0.4,0.3,0.6c0.1,0.1,0.1,0.1,0.2,0.2s0.1,0.3,0.2,0.4c0.1,0.1,0.2,0.2,0.4,0.3c0.2,0.1,0.2,0.4,0.4,0.4
		c0.4,0.1,0.7,0.4,1,0.6c0.1,0,0.2,0.1,0.3,0.1c0.1,0.1,0.2,0.1,0.3,0.1c0.1,0,0.2,0,0.3,0.1c0.1,0,0.2,0.1,0.3,0.1
		c0.2,0,0.4,0.1,0.7,0.1h0.1l0.1,0.1c0.1,0,0.2-0.1,0.3-0.1c0.1,0,0.2,0.1,0.3,0.1c0.1-0.1,0.2-0.1,0.3-0.1c0.1,0,0.2,0.1,0.3,0.1
		c0.1,0,0.2-0.1,0.3-0.1c0.2,0,0.5,0,0.7,0c0.1,0,0.1-0.1,0.2-0.2s0.1-0.1,0.1-0.1s0-0.1,0.1-0.1s0.2,0,0.3,0c0.1,0,0.1,0,0.2-0.1
		s0.1-0.1,0.2-0.1c0.1-0.1,0.1-0.1,0.2-0.2c0-0.2,0.2-0.2,0.3-0.2s0.2-0.2,0.2-0.2c0.1-0.1,0.2-0.1,0.3-0.2c0.1-0.1,0.1-0.1,0.2-0.2
		c0.1-0.1,0.2-0.3,0.3-0.4c0.1-0.1,0.1-0.1,0.2-0.2c0.1-0.1,0.1-0.1,0.2-0.1c0.1-0.1,0.1-0.1,0.2-0.2c0.1-0.1,0.1-0.1,0.2-0.2
		c0.2-0.1,0.3-0.3,0.5-0.4c0.3-0.2,0.5-0.4,0.7-0.6c0,0,0.1,0,0.1-0.1s0-0.1,0.1-0.1c0.1-0.1,0.2-0.3,0.3-0.4
		c0.1-0.1,0.2-0.3,0.3-0.4s0.2-0.3,0.4-0.3c0.3-0.1,0.3-0.3,0.5-0.4c0.1-0.1,0.1-0.1,0.2-0.1c0.1-0.1,0.1-0.2,0.2-0.3
		s0.1-0.2,0.1-0.2c0-0.1,0.1-0.1,0.2-0.2c0.1-0.1,0.1-0.1,0.2-0.2c0.1-0.1,0.1-0.2,0.2-0.2s0.2,0,0.3-0.1c0.1-0.1,0.1-0.1,0.2-0.2
		c0.1-0.1,0.2-0.1,0.3-0.2s0-0.2,0.1-0.3s0.1-0.1,0.2-0.2c0.1-0.1,0.1-0.2,0.2-0.2c0.1-0.1,0.3-0.3,0.4-0.5c0.1-0.1,0.1-0.2,0.2-0.3
		s0.1-0.3,0.2-0.4c0.1,0,0.1-0.1,0.2-0.2l0.1-0.1h0.1v-0.1c0,0,0-0.1,0.1-0.1s0.1,0,0.2,0c0,0,0.1-0.2,0.2-0.2
		c0.1-0.1,0.1-0.1,0.2-0.2c0-0.1,0.1-0.2,0.2-0.2c0.2-0.1,0.3-0.2,0.4-0.4c0.1-0.1,0.3-0.2,0.4-0.3c0-0.1,0.3-0.3,0.4-0.4
		c0.1,0,0.1-0.1,0.2-0.2c0-0.1,0.1-0.2,0.1-0.2c0.1-0.1,0.3-0.2,0.4-0.3s0.2-0.3,0.3-0.4c0.1-0.1,0.2-0.2,0.3-0.3
		c0.1-0.1,0.1-0.1,0.2-0.2s0.1-0.1,0.2-0.1c0.1-0.1,0.1-0.3,0.3-0.4h0.1c0.1-0.1,0.1-0.1,0.2-0.2c0.1-0.1,0.1-0.1,0.2-0.2
		c0.1-0.1,0.2-0.3,0.4-0.4c0.2-0.1,0.2-0.3,0.3-0.4c0.1,0,0.1-0.1,0.2-0.1c0-0.1,0.1-0.2,0.1-0.3c0.1-0.1,0.2-0.3,0.3-0.4
		c0.2-0.1,0.3-0.2,0.5-0.3c0.4-0.2,0.5-0.6,0.7-0.9c0.2-0.3,0.4-0.6,0.8-0.7c0.1,0,0.2-0.1,0.2-0.2c0.1-0.1,0.2-0.2,0.3-0.4
		s0.1-0.2,0.2-0.3s0.2-0.1,0.3-0.2c0.1-0.1,0.1-0.3,0.3-0.4c0.1-0.1,0.3-0.1,0.3-0.2s0-0.1,0-0.1s0-0.1,0.1-0.1
		c0.1-0.1,0.1-0.1,0.2-0.1c0.1-0.1,0.2-0.2,0.2-0.3s0.1-0.2,0.2-0.3s0.2-0.2,0.3-0.2c0.2-0.2,0.3-0.3,0.4-0.5
		c0.2-0.2,0.5-0.2,0.7-0.6c0.1-0.1,0.2-0.2,0.4-0.3c0.1-0.1,0.3-0.2,0.4-0.2c0.1-0.1,0.2-0.2,0.4-0.3c0-0.1,0.1-0.1,0.2-0.2
		c0.1,0,0.1-0.1,0.2-0.2c0.1-0.2,0.2-0.3,0.3-0.4c0.1-0.1,0.1-0.1,0.2-0.1c0.1-0.1,0.1-0.1,0.2-0.2c0.1-0.1,0.3-0.2,0.4-0.4
		c0.1-0.1,0.2-0.1,0.3-0.2c0-0.1,0-0.1,0.1-0.2c0.1-0.1,0.2-0.3,0.3-0.4c0.1-0.1,0.3-0.2,0.4-0.4c0.1-0.1,0-0.1,0.2-0.2
		c0.1,0,0.2-0.1,0.2-0.2c0.1-0.1,0.2-0.3,0.4-0.4c0.1-0.1,0.2-0.1,0.2-0.2s0.1-0.2,0.1-0.2c0.1-0.1,0.3-0.2,0.4-0.3s0.1-0.1,0.2-0.2
		c0.1-0.1,0.2,0,0.3-0.1c0.1-0.1,0.1-0.1,0.1-0.2c0-0.1,0.1-0.1,0.2-0.2c0.1,0,0.2-0.1,0.3-0.2c0.1-0.1,0.1-0.2,0.2-0.2
		c0.1-0.1,0.3-0.2,0.4-0.3s0.1-0.1,0.2-0.2c0.1-0.1,0.1-0.1,0.2-0.2c0.1-0.1,0.2-0.1,0.3-0.2c0.1-0.1,0.2-0.2,0.3-0.3l0,0
		c0.1-0.1,0.3-0.2,0.4-0.3c0.2-0.3,0.6-0.4,0.8-0.6c0.1-0.1,0.3-0.2,0.4-0.4c0.2-0.1,0.3-0.2,0.5-0.4c0.1-0.1,0.1-0.1,0.2-0.2
		c0.1-0.1,0.2-0.1,0.2-0.2c0.2-0.1,0.3-0.3,0.5-0.4l0.5-0.4c0.3-0.3,0.6-0.5,0.9-0.7c0.1-0.1,0.1-0.2,0.2-0.3
		c0.2-0.1,0.4-0.2,0.6-0.4s0.4-0.4,0.6-0.6c0.3-0.2,0.6-0.5,0.8-0.7c0.2-0.1,0.3-0.3,0.5-0.4h0.1c0,0,0-0.1,0.1-0.1
		c0.1-0.1,0.2-0.1,0.3-0.2c0.2-0.1,0.3-0.3,0.5-0.4c0.1-0.1,0.3-0.2,0.5-0.3s0.3-0.3,0.5-0.4c0.1-0.1,0.2-0.1,0.4-0.2
		c0.1-0.1,0.2-0.2,0.3-0.3c0.1-0.1,0.2-0.1,0.2-0.2c0,0,0-0.1,0.1-0.1s0.1,0,0.1-0.1l0.2-0.2c0.2-0.1,0.3-0.3,0.5-0.4
		c0.1,0,0.2-0.1,0.2-0.2c0,0,0-0.1,0.1-0.1s0.1,0,0.2,0s0.1-0.2,0.2-0.2c0.1-0.1,0.2-0.2,0.3-0.2c0.2-0.1,0.3-0.2,0.5-0.4
		c0.1-0.1,0.3-0.3,0.4-0.4c0.1-0.1,0.1-0.1,0.2-0.2c0.1-0.1,0.1-0.1,0.2-0.1s0.1-0.2,0.2-0.2s0.1-0.1,0.2-0.2l0.1-0.1h0.2
		c0.1-0.1,0-0.2,0.1-0.3s0.1,0,0.1-0.1l0.1-0.1c0.1-0.1,0.1-0.1,0.2-0.2c0.2-0.1,0.3-0.3,0.5-0.4c0.3-0.3,0.6-0.5,0.9-0.8
		c0.1-0.1,0.2-0.1,0.2-0.2s0.1-0.1,0.2-0.2l0.4-0.3c0.2-0.1,0.3-0.2,0.4-0.4s0.3-0.2,0.5-0.3l0,0c0.1-0.1,0.1-0.1,0.2-0.2
		c0.1,0,0.2,0,0.2-0.1c0,0,0-0.1,0.1-0.1l0,0l0,0c0.1,0,0.2-0.2,0.2-0.2l0.5-0.4c0,0,0-0.1,0.1-0.1h0.1c0.1,0,0.1-0.1,0.2-0.2
		c0.1-0.1,0.1-0.1,0.2-0.2c0.2-0.1,0.3-0.2,0.4-0.3s0.3-0.2,0.4-0.4c0.1,0,0.1-0.2,0.2-0.2s0.1,0,0.2,0s0.1-0.1,0.1-0.1
		c0.1-0.1,0.2-0.1,0.2-0.2c0,0,0-0.1,0.1-0.1s0.1,0,0.1,0c0-0.1,0.2-0.1,0.2-0.2c0.1-0.1,0.1-0.1,0.2-0.1c0.1-0.1,0.1-0.1,0.2-0.2
		c0-0.1,0.2-0.1,0.2-0.2s0.2-0.1,0.2-0.1c0.1,0,0.1-0.2,0.2-0.2s0.2-0.1,0.3-0.2c0.1-0.1,0.2-0.1,0.3-0.2c0.1-0.1,0.2-0.2,0.3-0.2
		c0.1-0.1,0.2-0.2,0.4-0.3c0.1-0.1,0.2-0.1,0.3-0.2c0,0,0.1-0.4,0.2-0.2c0.1,0,0.3-0.2,0.4-0.3c0.2-0.1,0.3-0.2,0.5-0.4
		s0.4-0.2,0.5-0.4c0.1-0.1,0.1-0.2,0.2-0.2c0.1-0.1,0.1-0.1,0.3-0.1c0.1,0,0.1-0.1,0.2-0.2c0.1-0.1,0.1-0.1,0.2-0.2
		c0.2-0.1,0.3-0.2,0.4-0.3c0.1-0.1,0.2-0.2,0.4-0.3c0.1-0.1,0.3-0.2,0.5-0.3c0.1,0,0.2-0.2,0.3-0.2c0.1-0.1,0.3-0.2,0.4-0.3
		c0.2-0.1,0.3-0.2,0.5-0.3c0.1-0.1,0.3-0.2,0.5-0.3c0.1,0,0.2-0.1,0.2-0.2c0.1-0.1,0.2-0.1,0.3-0.1c0.1-0.1,0.3-0.2,0.4-0.3
		c0.1-0.1,0.2-0.1,0.4-0.2c0.1,0,0.2-0.1,0.3-0.1h0.1c0,0,0-0.1,0.1-0.1c0.1-0.1,0.3-0.1,0.4-0.2l0,0c0,0.1,0,0.2,0,0.3
		s0.1,0.1,0,0.3c0,0.1,0,0.2,0,0.3s0,0.1,0,0.2v0.3c0,0.2,0,0.4,0,0.6c0,0.1-0.1,0.2-0.1,0.3s0.1,0.2,0.1,0.3c0,0.4-0.1,0.8,0,1.3
		c0,0.2,0,0.4,0,0.7c0,0.2,0.1,0.5,0,0.7c0,0,0,0-0.1,0c-0.1,0.1,0,0.3,0,0.5c0,0.1,0,0.2,0,0.3c0,0.2,0,0.4,0,0.6
		c0,0.1-0.1,0.2,0,0.3c0,0.2,0,0.4,0,0.6c0,0.2,0,0.5,0,0.7c0,0.1,0,0.2,0,0.3c0,0,0,0.1-0.1,0.1c0,0.1,0,0.1,0,0.1v1.9
		c0,0.2,0,0.4,0,0.6c0,0.1,0,0.2,0,0.3s0,0.2,0,0.3c0,0.2,0,0.5,0,0.7s0,0.4,0,0.7s0.1,0.4,0,0.6l0,0c-0.1,0.3-0.1,0.7,0,1
		c0,0.1,0,0.2,0,0.3s-0.1,0.1-0.1,0.3c0,0.1,0,0.2,0.1,0.3c0,0.1,0,0.2,0,0.3s0.1,0.2,0,0.3l-0.1,0.1v0.1c0,0.2,0,0.5,0,0.7
		c0,0.1,0,0.2,0.1,0.3v0.7c0,0.1-0.1,0.2-0.1,0.3s0,0.2,0.1,0.3s0,0.2,0,0.3s-0.1,0.3,0,0.5c0,0.2,0,0.4,0,0.7v0.5
		c0,0.2,0,0.3,0,0.5s0,0.3,0,0.5l0,0l0,0c-0.1,0-0.1,0.1-0.1,0.1c0.1,0,0,0.2,0.1,0.3c0,0,0,0.1,0,0.2s-0.1,0.1-0.1,0.2
		c0,0.1,0.1,0,0.1,0.1s0,0.1-0.1,0.2c0,0.2,0,0.5,0,0.7c-0.1,0-0.2-0.1-0.2,0s0,0.2,0,0.3s0.1,0.2,0.1,0.3s0,0.2,0.1,0.3
		c0,0.1,0,0.2,0,0.3c-0.1,0.1-0.1,0.2-0.1,0.3c0,0.2,0.1,0.4,0.1,0.6c0,0.1-0.1,0.3-0.1,0.5s0,0.3,0,0.5s-0.1,0.4-0.1,0.6
		c0,0.2,0,0.4,0,0.7c0,0.1,0,0.2,0,0.3s0,0.2,0.1,0.3c0.1,0.3,0.1,0.7,0.1,1v0.5c0,0.1,0,0.3-0.1,0.4c0,0.1,0,0.2,0,0.3
		c0,0.2,0,0.4,0,0.7c0,0.2,0,0.4,0,0.6c0,0.2,0,0.4,0,0.7c0,0.1,0,0.2,0,0.4c0,0.1,0,0.2-0.1,0.2c0,0.1,0,0.2,0.1,0.3
		c0,0.1,0,0.2,0,0.3c0,0.2,0,0.4-0.1,0.6c0,0.1-0.1,0.3,0,0.4c0,0.1,0.1,0.2,0,0.3c0,0.2-0.1,0.4-0.1,0.6v0.7c0,0.2,0,0.4,0,0.7
		c0,0.2,0,0.4,0,0.6v0.3c0,0.1,0.1,0.1,0.1,0.2c0,0.2-0.1,0.3-0.1,0.5s0,0.2,0,0.3s-0.1,0.1-0.1,0.2c0,0.1,0,0.2,0,0.3s0,0.2,0,0.3
		c0,0.2,0,0.4-0.1,0.7c0,0.2,0,0.4,0,0.6c0,0.2,0,0.3,0,0.5v0.6c0,0.1,0,0.2,0,0.3s-0.1,0.2-0.1,0.3c0.1,0.1,0,0.5,0,0.6
		c0,0.2,0,0.4,0,0.7c0,0.1,0,0.2,0,0.3s-0.1,0.2-0.1,0.3s0.1,0.2,0,0.3v0.1v0.1c0,0.3,0,0.6-0.1,0.8c0,0.2,0,0.4,0,0.6
		c0,0.1,0,0.2,0,0.3s0.1,0.2,0,0.3c0,0.1-0.1,0.2-0.1,0.3c0,0.3,0,0.6-0.1,0.9c0.1,0,0.1,0.2,0.1,0.3l-0.1,0.1
		c0,0.1,0.1,0.2,0.1,0.2c0,0.1,0,0.3,0,0.4c0,0.2,0,0.3,0,0.5c-0.1,0,0,0.5,0.1,0.6v0.3v0.1c0,0,0,0,0,0.1c0,0,0,0,0,0.1
		s0,0.1,0,0.2l0.1,0.1c0,0.1,0,0.2,0,0.4c0,0.1,0,0.2,0.1,0.3c0,0.1,0,0.2,0,0.3c0,0,0.1,0,0.1,0.1c0,0,0,0.1,0,0.2
		c0,0.1,0.1,0.2,0.1,0.3c0.1,0.2,0.1,0.4,0.1,0.6h0.1c0,0.1,0,0.2,0,0.3s0,0.2,0.1,0.2c0.1,0.2,0.1,0.4,0.2,0.6
		c0,0.1,0.1,0.2,0.1,0.4v0.1l0.1,0.1c0.1,0.2,0.1,0.4,0.2,0.5c0.1,0.1,0.2,0.2,0.3,0.3s0.2,0.1,0.3,0.2s0.1,0.2,0.2,0.3
		c0.2,0.2,0.3,0.3,0.5,0.4c0.2,0.1,0.3,0.2,0.5,0.3s0.3,0.2,0.5,0.2c0.4,0.2,0.8,0.3,1.2,0.4c0.2,0,0.5,0.1,0.7,0.1c0.4,0,0.7,0,1,0
		c0.4,0,0.7,0,1.1-0.1c0.1,0,0.2-0.1,0.3-0.1s0.2,0,0.3,0s0.1-0.1,0.2-0.2c0.1,0,0.2-0.1,0.3-0.1c0.5-0.3,0.9-0.6,1.4-0.9
		c0.1-0.1,0.1-0.1,0.2-0.2l0.2-0.2c0.1-0.2,0.2-0.3,0.4-0.5c0.1-0.1,0.1-0.1,0.1-0.2c0-0.1,0-0.2,0.1-0.3s0.1-0.3,0.2-0.4
		c0-0.1,0.1-0.1,0.1-0.2c0,0,0-0.1,0.1-0.1c0-0.1,0-0.1,0-0.1s0.2,0,0.3,0s0-0.1,0-0.1h0.1c0.1,0,0.1-0.1,0.1-0.2s0.2,0,0.2-0.1
		c-0.2-0.1-0.3-0.1-0.5-0.2l-0.1-0.1h-0.1c-0.1-0.1-0.1-0.2,0-0.3c0-0.1,0.1-0.1,0.1-0.2c0,0,0-0.2,0.1-0.2s0.5,0.1,0.4-0.1
		c-0.1,0-0.1-0.1-0.1-0.1s-0.2,0-0.2-0.1c0.1,0,0.1,0,0.2,0c0-0.1,0.1-0.1,0-0.2c-0.1-0.1-0.2-0.2,0.1-0.3c0.1,0,0.2-0.2,0.3-0.2
		c0.1-0.1,0.1-0.2,0-0.3c0,0.1-0.1,0.2-0.1,0.2c-0.1,0,0-0.1,0-0.2c0-0.1-0.2,0-0.3,0s-0.1-0.1-0.2-0.1c-0.1,0,0,0.1,0,0.1
		c-0.1,0-0.1,0-0.2-0.1l0,0c0-0.1,0.1-0.1,0.1-0.1c0-0.1-0.2-0.1-0.1-0.2c0-0.1,0.2-0.2,0.1-0.3c0,0.1-0.1,0.2-0.2,0.2
		c0.1,0,0.1-0.1,0.1-0.2l0,0c-0.1,0.1-0.1-0.1-0.1-0.1s-0.2,0-0.3-0.1c0,0,0.1,0,0.1-0.1c-0.1,0-0.1-0.1-0.1-0.2
		c0-0.1-0.1-0.1,0-0.2h0.1c0,0,0-0.1,0.1-0.1s0.2,0.1,0.2,0c-0.2,0,0-0.2-0.1-0.3l-0.1-0.1c-0.1,0-0.1,0-0.1,0
		c-0.1,0.1-0.2,0.1-0.3,0c0-0.1,0-0.1,0-0.2c0-0.1-0.1-0.1-0.1-0.1s0,0,0.1,0v-0.1c0.2,0,0.1,0.1,0.1,0.1c0,0.1,0.1,0.1,0.2,0.1
		c0.1,0,0.2,0.1,0.3,0s0-0.2,0-0.2c0.1,0,0.3,0,0.2-0.1c0-0.1-0.2-0.1-0.1-0.2c0,0-0.1,0-0.1-0.1c0.1-0.1,0.1,0,0.2,0
		c0.1,0,0.1-0.1,0.1-0.1c-0.2,0-0.1-0.2,0.1-0.2c0.2,0,0,0.2,0,0.3c0.1,0,0.2-0.1,0.2-0.3l0,0c-0.1-0.1-0.1-0.1-0.2-0.1
		s-0.2,0-0.2-0.1c-0.2,0-0.2-0.2-0.3-0.3c-0.2-0.2-0.3,0.2-0.4,0c0.1-0.1,0.2-0.4,0.4-0.2c0,0,0,0.2,0.1,0.2s0.2-0.1,0.2-0.2
		c-0.1,0-0.1-0.1-0.1-0.2c-0.1,0-0.2,0-0.1-0.1c-0.1,0-0.1-0.1-0.2-0.1c-0.1-0.1-0.1,0.1-0.1,0.2c-0.1-0.1-0.1-0.3,0-0.4
		c0-0.1,0.1,0,0-0.1c0-0.1-0.1-0.1-0.2-0.1c-0.1,0.2,0.2,0.4-0.1,0.5c-0.1,0-0.5-0.1-0.5-0.2c0-0.1-0.1-0.2-0.1-0.3s0.2-0.1,0.1-0.2
		c0-0.1-0.1-0.1-0.1-0.1v-0.2v-0.1c0-0.1,0.1,0,0.1-0.1s0.1-0.1,0.1-0.2s-0.1,0.1-0.1-0.1h0.1c0-0.1,0,0-0.1-0.1s-0.1-0.1-0.1-0.1
		c0.1-0.1,0.3,0,0.4,0c0.1,0,0.2-0.1,0.3-0.2l0,0c0,0,0,0-0.1,0c0,0-0.2-0.2-0.3-0.2c-0.2,0-0.1,0.2-0.2,0.2c0,0-0.1,0-0.1-0.1l0,0
		c-0.3-0.1,0-0.2,0.1-0.3h0.4c0.1,0,0.2,0,0.3-0.1c-0.1-0.1-0.2-0.1-0.2-0.2c0-0.1,0.2-0.2,0.2-0.2l0.1-0.1c0-0.1,0-0.1,0-0.1
		s0.2-0.1,0.2-0.2c0-0.1-0.2-0.1-0.2-0.2c0-0.1,0.2-0.1,0.1-0.2l-0.1,0.1c-0.1,0,0-0.1,0-0.1c-0.1-0.1-0.1,0.1-0.2,0V193h-0.1
		c0-0.1,0.1-0.1,0.1-0.2c0.1-0.1-0.1,0-0.1-0.2v-0.1h-0.1c-0.1,0-0.1-0.1-0.1-0.2s0-0.2,0-0.2c0-0.1,0-0.2-0.1-0.2h-0.1v-0.1
		c0,0-0.1,0-0.1-0.1s0-0.1,0.1-0.1s0,0.1,0.1,0.1s0.1,0,0.1-0.1s0,0-0.1-0.1c0,0,0-0.1,0-0.2c0-0.1,0.1,0,0.1-0.1s0-0.1,0-0.1
		c0-0.1,0-0.1,0-0.1s-0.1,0-0.1-0.1c0,0,0-0.1-0.1-0.1s-0.1,0-0.1,0v-0.1c0,0,0,0,0-0.1s0-0.2-0.1-0.2l-0.1,0.1c0,0-0.1,0-0.1,0.1
		s0.1,0.1,0,0.2c0,0-0.1,0-0.2,0c0,0,0-0.1-0.1-0.1c0,0-0.1-0.1-0.2-0.2h-0.1v-0.1v-0.1l0,0c0,0,0,0,0-0.1c0,0-0.1,0-0.2-0.1
		c-0.1-0.1,0-0.1,0.1-0.1v-0.1l0.1-0.1v-0.1v-0.1c0,0,0.1-0.1,0.2-0.2c0-0.1,0-0.2,0-0.3c-0.1-0.1-0.2-0.1-0.2-0.3
		c0-0.3,0.5-0.3,0.4,0c-0.2,0,0,0.3,0,0.1v-0.1c0,0,0.1,0,0.1-0.1s0-0.1,0-0.2c0,0,0-0.1,0-0.2s0-0.1,0-0.2c0,0,0.1-0.1,0.1-0.2
		c-0.1,0-0.2,0-0.3,0c-0.1-0.2,0.4-0.2,0.2-0.4c-0.1-0.1-0.5-0.1-0.3-0.3c0.1-0.1,0.2-0.1,0.2-0.2c0,0,0-0.1,0-0.2h-0.1
		c-0.1,0-0.2,0-0.3-0.1s0-0.2,0-0.3s0-0.1,0-0.2l0.1-0.1c0,0,0,0,0.1,0s0.1,0,0.1,0c0.2-0.1-0.1-0.2-0.4-0.2c-0.1,0-0.2,0.1-0.2,0
		s0-0.2,0.1-0.2c0.3-0.1-0.1-0.4,0.1-0.6c0,0,0.1,0,0.1-0.1v-0.1h0.1c0.1,0,0.1-0.1,0.1-0.1l0.1-0.1c0-0.2-0.3-0.1-0.4,0h-0.1
		c0.1-0.1,0.1-0.2,0-0.3c-0.1,0.1-0.2,0.1-0.3,0c0-0.1,0.1-0.2,0.1-0.3c-0.1-0.1-0.3-0.2-0.3-0.3s0.2-0.2,0.2-0.3
		c0.1-0.2,0.1-0.3,0.1-0.5c-0.1-0.1-0.1-0.1-0.2-0.2v-0.1l-0.1-0.1c-0.1-0.3,0.2-0.2,0.4-0.2c0.1,0,0.2-0.1,0.2-0.2
		c0-0.1-0.1-0.1-0.2-0.1h-0.1c-0.1-0.1,0-0.1,0-0.1c0-0.1,0-0.2,0-0.3c0,0,0-0.1,0-0.2c0-0.1,0.1,0,0.1-0.1c0,0-0.1-0.2-0.2-0.1
		c-0.1,0.1,0,0.1,0,0.2c0,0.1-0.1,0.1-0.2,0.2c-0.1,0-0.2-0.1-0.2,0c-0.1-0.1,0-0.1,0-0.2c0-0.1-0.1-0.1-0.1-0.1
		c0-0.2,0.2-0.1,0.2-0.2s-0.2-0.2-0.2-0.3s0.1-0.2,0.1-0.3c0-0.2,0.5,0,0.6-0.1s0-0.2-0.1-0.2s-0.2,0-0.2-0.2c0-0.1,0.1-0.2,0-0.3
		c-0.1,0-0.2,0-0.3-0.1c0-0.1,0.1-0.2,0-0.3v-0.1c0,0-0.1,0-0.1-0.1c-0.2,0,0-0.1,0.1-0.2c0.1,0,0-0.1,0-0.1s0.1,0,0.1-0.1
		s0-0.2,0.1-0.3s0.2,0,0.3,0s0.2-0.2,0.3-0.4c-0.1-0.1-0.1,0.2-0.1,0.2s-0.2,0.1-0.2,0s0.1-0.1,0.2-0.2c0.1-0.1,0-0.2,0.1-0.3
		c0,0,0.1,0,0.1-0.1c-0.1-0.1-0.1,0.1-0.1,0.1c0,0.1-0.1,0.2-0.2,0.1c-0.1-0.1,0.1-0.1,0-0.2c0-0.1-0.1-0.1-0.2-0.1
		c0-0.1,0.1,0,0.2-0.1c0.1-0.1-0.1-0.2-0.1-0.3s0.1-0.1,0.1-0.1c0-0.1,0-0.1-0.1,0s0,0.1,0,0.1l-0.1,0.1h-0.1c0,0,0-0.1,0-0.2
		c0-0.1,0-0.1,0-0.1l0.1-0.1c0-0.1-0.1-0.1-0.2-0.2c0-0.1,0-0.1,0-0.2l-0.1-0.1c-0.1-0.1,0-0.2,0-0.2c0.1-0.1,0.1-0.1,0.1-0.1
		l0.1-0.1c0.1-0.1,0.1-0.2,0.2-0.3c0-0.1,0-0.2-0.1-0.3c-0.1,0-0.1,0-0.1-0.1c0,0,0-0.1,0.1-0.1l0,0c0.1,0,0.1,0,0.2,0
		c0.1-0.1,0-0.1,0-0.1c-0.1,0-0.2,0-0.3,0s-0.2,0.1-0.2-0.1c0-0.1,0.2,0,0.3,0s0.1,0,0.2,0c0.1,0,0,0,0.1-0.1c0.1,0,0.2-0.1,0.2-0.1
		s0-0.1,0-0.2c0,0-0.1,0-0.1-0.1s0.1-0.2,0.1-0.3l0,0l0,0v-0.1c0,0-0.1,0-0.1-0.1c0,0-0.2-0.1-0.2-0.2s0.2,0,0.3,0s0.2-0.1,0.1-0.2
		s-0.2-0.1-0.3-0.1l-0.1-0.1v-0.1c0-0.1-0.1-0.1-0.2-0.2c0-0.1,0-0.1,0.1-0.1l0.1-0.1c0,0,0.2,0,0.3,0.1l0.1,0.1V173v-0.1v-0.1
		c0,0,0-0.1-0.1-0.2l-0.1-0.1c-0.1-0.1-0.2,0.2-0.3,0.1c0-0.1,0.2,0,0.2-0.2c0-0.1-0.2-0.1-0.2,0s0,0.1,0,0.1s0-0.1-0.1-0.1
		s-0.1,0-0.1-0.1l0.1-0.1c-0.1-0.1,0.1-0.1,0.2-0.2s0.1-0.1,0-0.1s-0.1,0-0.2,0c-0.1,0,0-0.2-0.1-0.3c0,0-0.1,0-0.1-0.1
		s0-0.1,0.1-0.1s0.1-0.1,0.1-0.1v-0.1v-0.1c0,0,0-0.1,0-0.2c0-0.1,0.1-0.1,0.1-0.1c0.1-0.1,0.2-0.1,0.3-0.1s0.2,0,0.3-0.1v-0.1H142
		c-0.1,0-0.1,0-0.1-0.1l-0.1-0.1c0-0.2,0.1-0.1,0.2-0.2c0.1-0.1,0-0.1,0-0.1s-0.1,0-0.1-0.1c0,0-0.1,0-0.1-0.1c0,0,0-0.1,0.1-0.1
		s0.1-0.1,0.1-0.2c-0.1,0-0.1,0.1-0.1,0.1h-0.1c0,0,0,0,0-0.1c0,0,0-0.1,0.1-0.1c0,0,0-0.1,0-0.2c0-0.1,0.1-0.2,0.1-0.2
		s0.1-0.1,0-0.1l-0.1,0.1c0,0-0.1,0.3-0.2,0.2c-0.1-0.1,0-0.2,0.1-0.3c0-0.1,0.1-0.2,0.2-0.3c0.1-0.1,0.1-0.2,0-0.2h-0.1
		c-0.1-0.1,0-0.1,0.1-0.1s0-0.1,0-0.1h-0.1c0,0,0,0-0.1-0.1s0-0.1,0.1-0.1s0.1-0.1,0.1-0.2v-0.1v-0.1v-0.1v-0.1c0-0.1,0-0.1,0-0.1
		v-0.1c0-0.1,0-0.2,0-0.2s0,0-0.1,0c0,0-0.1,0-0.1-0.1c-0.1,0-0.1-0.1-0.2-0.2v-0.1v-0.1h0.1c0,0,0.1,0,0.1-0.1s0-0.2-0.1-0.2
		c0,0,0,0-0.1,0c0,0-0.1,0-0.1,0.1c0,0-0.1,0.1-0.1,0v-0.1c0-0.1,0.1,0,0.2-0.1v0.9c0,0,0,0,0.1,0s0.1-0.2,0.1-0.3s0-0.2,0-0.3
		s0.1-0.2,0-0.2h-0.1v-0.1h0.1l0.1-0.1v-0.4v-0.1V165c0,0,0-0.1,0.1-0.1v-0.1v-0.3v-0.1h0.1v-0.1l0,0l0,0l0,0v-0.1
		c0-0.1,0-0.1-0.1-0.1h-0.1c0-0.1,0,0,0.1,0c0,0,0.1,0,0.1-0.1c0,0,0,0,0-0.1c0,0,0,0,0-0.1l0,0l0,0v-0.1c0-0.1,0-0.2,0-0.2
		c0-0.1,0-0.2,0-0.3c0,0,0,0,0-0.1V163v-0.4l0,0c0,0,0,0,0-0.1v-0.2c0-0.1,0-0.1,0.1-0.1s0.1,0,0.1,0c0-0.1-0.1,0-0.1,0v-0.1h-0.1
		c0,0,0,0,0-0.1v-0.1v-0.1v-0.1c0-0.1,0-0.2,0-0.2H142c0-0.1,0-0.2,0-0.2c0-0.1,0.1-0.1,0-0.2h-0.1c0,0-0.1,0-0.1,0.1h-0.1
		c0,0-0.1,0-0.1-0.1l0,0h0.1V161v-0.1h0.1v-0.1c0-0.1,0-0.1-0.1-0.1s0.1-0.1,0.2-0.1c0.1,0,0.2,0,0.2,0v-0.1c0,0,0,0-0.1-0.1h-0.1
		v-0.1c0,0,0-0.1,0-0.2c0-0.1,0,0,0.1,0c0,0,0,0,0-0.1v-0.1c0,0,0,0-0.1,0s-0.1-0.1-0.1-0.1s0-0.1-0.1-0.1s0,0,0,0.1
		c-0.1,0-0.2,0-0.1-0.1c0,0,0.1,0,0.1-0.1s0-0.1,0-0.1c0-0.1,0-0.1,0.1-0.2c0-0.1,0.1-0.1,0.1-0.2V159h-0.1c0,0-0.1-0.1-0.1-0.2
		v-0.1v-0.1c0-0.1,0-0.2,0-0.3s0-0.2,0-0.3s0-0.1,0-0.1c0-0.1,0-0.1,0-0.1c0-0.1,0-0.2,0-0.3s0-0.2,0-0.2c0-0.1-0.1-0.1,0-0.2V157
		c0,0,0,0,0.1-0.1c0,0,0.1-0.1,0-0.1c0,0-0.1,0-0.1-0.1c0,0,0,0,0-0.1v-0.1c0-0.1,0.1-0.1,0.1-0.2c0-0.1,0-0.2,0-0.2h-0.1V156v-0.1
		c0,0,0.1,0,0.1-0.1c0,0,0-0.1,0.1-0.2s0-0.1,0.1-0.1c0,0,0.1-0.1,0-0.2s-0.1,0-0.1-0.1s0-0.1,0-0.2c0-0.1,0.1-0.1,0.1-0.1
		c0-0.1-0.2-0.1-0.2-0.2c-0.1-0.1,0-0.3,0-0.4c0-0.1,0-0.1,0.1-0.1s0.1,0,0.1-0.1s0-0.1,0-0.2v-0.1c0,0,0,0,0.1-0.1
		c0-0.1,0.1-0.2,0-0.3c0-0.1-0.1-0.1-0.1-0.1s0-0.1-0.1-0.1c-0.1-0.1-0.1-0.2-0.1-0.3s0-0.1,0-0.1l-0.1-0.1c0-0.1,0-0.2,0.1-0.3
		c0.1,0,0.1,0,0.2,0c0,0,0,0.1,0,0.2c0.1,0,0.1,0,0.2,0c0,0,0,0,0-0.1s-0.1-0.1-0.1-0.2c0-0.1,0.1-0.1,0.1-0.1c0-0.1,0-0.1,0-0.1
		l0,0c0,0,0,0-0.1,0s-0.2,0-0.2-0.1s0.1-0.2,0.1-0.3c0,0-0.1,0-0.1-0.1v-0.2c0,0,0.1,0,0.1-0.1c0,0,0-0.1,0-0.2
		c0-0.1,0.1-0.1,0.1-0.1l-0.1-0.1c0-0.1,0.1-0.1,0.1-0.1c0-0.1,0-0.1,0-0.2c0-0.1,0-0.1,0.1-0.1s0.1-0.1,0.1-0.2V150
		c0-0.1,0-0.2,0-0.3s-0.1,0-0.1-0.1s0-0.1,0-0.1s0-0.1-0.1-0.1H142c-0.1,0-0.1,0-0.1-0.1s0-0.1,0.1-0.1s0.1-0.2,0.1-0.3
		s0-0.1,0.1-0.1v-0.1c0-0.1,0-0.2,0-0.3s0.1-0.2,0.1-0.2c0-0.1,0-0.1-0.1-0.1s0,0.1-0.1,0.1s-0.3-0.1-0.3-0.1l0,0l0,0v-0.3l0.1-0.1
		c0.1,0,0.1-0.1,0.1-0.1l0.1-0.1c0.1-0.1,0-0.1,0.1-0.1s0.1-0.1,0.1-0.1v-0.1c0-0.1,0-0.1-0.1-0.1c0,0-0.1,0-0.1,0.1
		c-0.1,0-0.1-0.1-0.1-0.2c0-0.1,0-0.1,0-0.1s0-0.1,0.1-0.1s0-0.1,0-0.1s0,0,0-0.1s0-0.1,0-0.2c0-0.1-0.1-0.1-0.1-0.1
		c0-0.1,0-0.1,0-0.2c0-0.1,0.1-0.2,0.1-0.3s0-0.2,0-0.2s-0.1,0-0.1-0.1v-0.1c0-0.1,0.1,0,0.1,0s0.1,0,0.1-0.1c0,0,0-0.1,0-0.2
		c0-0.1,0-0.1,0-0.1s-0.3,0-0.2-0.1c0-0.1,0.1-0.1,0.1-0.2v-0.2c0-0.1,0-0.1,0.1-0.2c0.1-0.1,0.1-0.1,0-0.2s-0.1,0-0.1-0.1v-0.1l0,0
		c0,0-0.1-0.1,0-0.2c0-0.1,0.1-0.1,0.2-0.2c0.1-0.1,0.2-0.2,0.2-0.3l0,0c0-0.1,0.1-0.1,0.1-0.2c0.1,0.1,0.1,0.1,0.2,0.1
		c0-0.1,0.1-0.1,0.1-0.2c0.1,0,0.2,0,0.3-0.1s0-0.1,0.1-0.2c0.1-0.1,0.3,0,0.4-0.1l0.1-0.1l0.1-0.1c0.1-0.1,0.1-0.2,0.2-0.2
		c0.1-0.1,0.1-0.1,0.1-0.2l0,0c0,0,0,0,0.1,0s0.1-0.1,0.1-0.1l0.1-0.1l0.1-0.1l0.1-0.1h0.1c-0.1-0.1,0-0.2,0.1-0.2s0.1,0,0.1,0
		c0-0.1,0-0.1,0-0.1s0,0,0.1,0s0,0,0-0.1c0,0,0.1,0,0.1-0.1c0,0,0,0,0.1,0h0.1c0,0,0,0,0-0.1c0,0,0,0,0.1,0s0.1-0.1,0.2-0.1v0.1
		l0.1-0.1c0-0.1,0.1-0.1,0.2-0.1s0.2-0.2,0.3-0.2c0,0.1,0.1,0,0.1,0v-0.1c0.1-0.1,0.1-0.1,0.2-0.2h0.1l0.1-0.1l0.1-0.1l0.1-0.1
		l0.1-0.1l0.1-0.1h0.1c0.1-0.1,0.4-0.5,0.5-0.4c0.1-0.1,0.2-0.2,0.4-0.3c0-0.1,0.1-0.1,0.2-0.1s0.2-0.1,0.2-0.2
		c0.1-0.1,0.3-0.2,0.5-0.3c0.1,0,0.1-0.1,0.2-0.2c0.1-0.1,0.1-0.1,0.2-0.2c0.2-0.1,0.3-0.2,0.5-0.3s0.3-0.2,0.5-0.3
		c0.1,0,0.2-0.1,0.3-0.1s0.3,0,0.3-0.1v-0.1c0,0,0-0.1,0.1-0.1s0.2-0.1,0.3-0.1c0.1-0.1,0.2-0.1,0.3,0c0.1,0,0.3,0,0.3-0.1l-0.1-0.1
		c0-0.1,0.1-0.1,0.2-0.2c0.1,0,0.1-0.1,0.2-0.1c0.1,0,0.2-0.1,0.2-0.2c0,0,0.1,0,0.1-0.1l0.1-0.1c0,0,0.2,0,0.3-0.1s0.1-0.1,0.2-0.2
		c0.2-0.1,0.4-0.1,0.6-0.2c0,0,0,0,0-0.1c0.2-0.1,0.4-0.2,0.6-0.3c0,0,0.1,0,0.1-0.1s0-0.1,0.1-0.1s0.2,0,0.3-0.2
		c0.1,0,0.4-0.3,0.4-0.2c0.1-0.1,0.3-0.2,0.4-0.3c0.2-0.1,0.3-0.2,0.5-0.3c0.1,0,0.1-0.1,0.2-0.2c0.1,0,0.1-0.1,0.2-0.2
		c0.1-0.1,0.3-0.2,0.5-0.3s0.4-0.2,0.6-0.3c0.1-0.1,0.3-0.1,0.5-0.2l0.2-0.2c0.1-0.1,0.1-0.1,0.2-0.2c0.1,0,0.1,0,0.1,0
		c0.1,0,0-0.1,0.1-0.1s0.1,0,0.2,0s0.1-0.1,0.1-0.1c0.1-0.1,0.1-0.1,0.2-0.2c0.2-0.1,0.4-0.2,0.5-0.3c0.3-0.2,0.7-0.4,1-0.6
		c0.2-0.1,0.2-0.2,0.4-0.3s0.4-0.2,0.6-0.3c0.4-0.2,0.7-0.4,1-0.7c0.2-0.1,0.4-0.2,0.6-0.3c0.2-0.1,0.4-0.2,0.5-0.3
		c0.2-0.1,0.4-0.2,0.6-0.3c0.2-0.1,0.4-0.2,0.5-0.3s0.3-0.2,0.4-0.3c0.2-0.1,0.4-0.1,0.5-0.3c0.1-0.1,0.1-0.2,0.2-0.2
		c0.1,0,0.2-0.1,0.3-0.1c0.1-0.1,0.2-0.1,0.2-0.2c0.1,0,0.2-0.1,0.3-0.1s0.1-0.1,0.2-0.1c0.1,0,0.2-0.1,0.3-0.1
		c0.2-0.1,0.3-0.2,0.5-0.3c0.1,0,0.2-0.1,0.3-0.2c0.1,0,0.2-0.1,0.3-0.1s0.2-0.1,0.2-0.1h0.1c0,0,0-0.1,0.1-0.1c0,0,0.2,0,0.3-0.1
		c0.1,0,0.2-0.1,0.2-0.1c0.1-0.1,0.2-0.2,0.4-0.3c0.2-0.1,0.4-0.2,0.6-0.3c0.1-0.1,0.1-0.1,0.2-0.2l0.3-0.1c0.2-0.1,0.4-0.2,0.6-0.3
		c0.3-0.2,0.7-0.4,1-0.5c0.1,0,0.1-0.1,0.2-0.2c0.1-0.1,0.4-0.2,0.5-0.3c0.1-0.1,0.1-0.1,0.2-0.1c0.2-0.1,0.3-0.2,0.5-0.3
		c0.2-0.1,0.3-0.2,0.5-0.3c0.1,0,0.1,0,0.2-0.1c0.1-0.1,0.1-0.1,0.2-0.1c0.1,0,0.4-0.1,0.4-0.2c0.1,0,0.1,0,0.2-0.1
		c0.1,0,0.1-0.1,0.1-0.1c0.1,0,0.3-0.2,0.3-0.2c0.1,0,0.1,0,0.2,0c0.1,0,0.2-0.1,0.2-0.2l0.1-0.1c0.1-0.1,0.1-0.1,0.2-0.1l0.2-0.2
		c0.1,0,0.2-0.1,0.3-0.1c0.2-0.1,0.3-0.2,0.5-0.3c0.1-0.1,0.1-0.2,0.2-0.2s0.5-0.2,0.5-0.2c0.1-0.1,0.1-0.1,0.2-0.1
		c0.2-0.1,0.4-0.2,0.6-0.3c0.1-0.1,0.2-0.1,0.3-0.2c0-0.1,0.1-0.2,0.2-0.2c0.1,0,0.3-0.1,0.5-0.1c0.1-0.1,0.3-0.2,0.4-0.3
		s0.1-0.1,0.2-0.1c0.1,0,0.2-0.1,0.2-0.1c0.1-0.1,0.3-0.2,0.5-0.2c0.1,0,0.2-0.1,0.2-0.1c0.1-0.1,0.1-0.2,0.1-0.2c0.1,0,0.2,0,0.4,0
		c0.1,0,0-0.1,0.1-0.1c0,0,0.1,0,0.2,0c0.2-0.1,0.4-0.2,0.6-0.3c0.2-0.1,0.3-0.2,0.5-0.3c0.1,0,0.1-0.1,0.2-0.2c0,0,0.1,0,0.2-0.1
		l0.1-0.1c0.2-0.1,0.5-0.2,0.7-0.3c0.2-0.1,0.4-0.2,0.6-0.3c0.2-0.1,0.3-0.2,0.5-0.2c0.2-0.1,0.4-0.1,0.5-0.3
		c0.2-0.2,0.5-0.3,0.7-0.4c0.1-0.1,0.2-0.2,0.4-0.3c0.1,0,0.2,0,0.2-0.1c0,0,0-0.1,0.1-0.1c0.1-0.1,0.2-0.1,0.3-0.1
		c0-0.1,0.1-0.1,0.2-0.1c0.2-0.1,0.4-0.2,0.6-0.3l0.2-0.1c0.1-0.1,0.1,0,0.2-0.2c0.1,0,0.2,0,0.3,0v-0.1h0.1
		c0.2-0.1,0.3-0.2,0.5-0.3c0.1,0,0.2,0,0.2-0.1c0.1,0,0.1-0.1,0.2-0.2c0.1-0.1,0.3-0.2,0.4-0.3l0,0c0.1,0,0.1-0.1,0.2-0.2
		c0.1-0.1,0.2,0,0.3-0.1s0.4-0.2,0.5-0.3c0.1,0,0.2-0.1,0.3-0.2s0.3-0.1,0.5-0.2c0.1-0.1,0.2-0.2,0.3-0.2s0.2-0.1,0.3-0.1
		c0.2-0.1,0.4-0.2,0.5-0.2c0.2-0.2,0.4-0.3,0.7-0.4c0.2-0.1,0.4-0.2,0.6-0.3c0.1-0.1,0.2-0.1,0.3-0.2s0.1-0.1,0.2-0.1
		c0.1,0,0.1,0,0.1,0v-0.1c0.1-0.1,0.4-0.1,0.5-0.2s0.1-0.1,0.2-0.1c0.1,0,0.1-0.1,0.2-0.1c0.2-0.1,0.4-0.1,0.6-0.2
		c0.2-0.1,0.4-0.2,0.6-0.3c0.2-0.1,0.3-0.2,0.5-0.2c0.2-0.1,0.3-0.1,0.5-0.2s0.3-0.2,0.5-0.2c0.1,0,0.1-0.1,0.2-0.2
		c0.1,0,0.2,0.1,0.3,0c-0.1-0.1,0.1-0.1,0.2-0.2c0.1,0,0.1-0.1,0.3-0.1c0.2-0.1,0.3-0.2,0.5-0.2s0.4-0.1,0.6-0.2
		c0.1-0.1,0.2-0.1,0.3-0.2s0.2,0,0.3-0.1l0.4-0.2c0.1-0.1,0.3-0.1,0.4-0.1c0.1-0.1,0.3-0.1,0.4-0.2c0.2-0.1,0.3,0,0.4-0.1
		c0.1-0.1,0.3-0.2,0.5-0.2c0.1-0.1,0.3-0.1,0.4-0.2c0.4-0.1,0.9-0.3,1.3-0.5c0.2-0.1,0.4-0.1,0.6-0.2c0.2-0.1,1.1-0.3,1.4-0.4
		c0.4-0.2,0.9-0.3,1.3-0.4c0.2-0.1,0.4-0.2,0.7-0.2c0.2-0.1,0.5-0.1,0.7-0.2l1.3-0.4c0.2-0.1,0.4-0.1,0.7-0.2s0.6-0.2,0.9-0.4
		c0.3-0.2,0.7-0.3,1-0.4c0.2-0.1,0.3-0.1,0.4-0.2c0.2-0.1,0.8-0.5,1-0.6s0.4-0.2,0.5-0.3c0.3-0.3,0.6-0.5,1-0.7l0.2-0.1
		c0-0.1,0.1-0.2,0.2-0.3s0.3-0.1,0.2-0.3c0.1,0,0.2-0.1,0.2-0.2c0.1-0.1,0.2-0.1,0.3-0.2c0.1-0.2,0.3-0.4,0.4-0.6
		c0.1-0.2,0.2-0.2,0.3-0.4l0.1-0.3c0-0.1,0.1-0.2,0.1-0.2c0-0.1,0-0.1,0.1-0.1s0.1,0,0.1,0s0.1,0.3,0.2,0.1c0.1-0.1-0.1-0.2-0.1-0.3
		c0-0.1,0.1-0.1,0.1-0.2s0-0.1,0-0.2c0.1,0,0.2-0.1,0.2-0.2l0,0c-0.1-0.1,0.1-0.5,0.2-0.3v0.1l0.1-0.1c0-0.1,0-0.2,0-0.3
		c0-0.1,0.1-0.1,0.1-0.2s0-0.2,0-0.3c0-0.1,0.3-0.1,0.3-0.1c0.1,0,0.2-0.1,0.2-0.2C218.3,98.6,218.2,98.6,218.1,98.5z"/>
</g>
</svg>
