<?xml version="1.0" encoding="utf-8"?>
<!-- Generator: Adobe Illustrator 25.4.1, SVG Export Plug-In . SVG Version: 6.00 Build 0)  -->
<svg version="1.1" id="Layer_1" xmlns="http://www.w3.org/2000/svg" xmlns:xlink="http://www.w3.org/1999/xlink" x="0px" y="0px"
	 viewBox="0 0 240 240" enable-background="new 0 0 240 240" xml:space="preserve">
<rect y="-0.4" fill="#93C01F" width="240" height="240"/>
<g>
	<g>
		<path fill="#FFFFFF" d="M150.5,149.2c0-1.5-0.6-2.9-1.6-3.9s-2.5-1.6-3.9-1.6c-1.5,0-2.9,0.6-4,1.6c-1,1-1.6,2.5-1.6,4
			s0.6,2.9,1.6,4c1,1,2.5,1.6,4,1.6s2.9-0.6,3.9-1.6C149.9,152.1,150.5,150.7,150.5,149.2"/>
		<path fill="#FFFFFF" d="M149.6,204.7v-37.6c0-0.6,0-1.2-0.1-1.9c-0.2-1.7-0.9-3.3-2.1-4.5c-0.2-0.2-0.4-0.4-0.6-0.6
			c-1.7-1.3-3.8-1.9-5.9-1.8c-0.2,0-0.5,0-0.7,0v37.6c0,0.6,0,1.2,0.1,1.9c0.2,1.7,0.9,3.3,2.1,4.5c0.2,0.2,0.4,0.4,0.6,0.5
			c1.7,1.3,3.8,1.9,5.9,1.9C149.2,204.7,149.4,204.7,149.6,204.7"/>
		<path fill="#FFFFFF" d="M122.2,186.5v9.5c0,0.6,0,1.2,0.1,1.9c0.2,1.7,0.9,3.3,2.1,4.5c0.2,0.2,0.4,0.4,0.6,0.6
			c1.7,1.3,3.8,1.9,5.9,1.8c0.2,0,0.4,0,0.7,0v-20.2c0-1.5-0.1-3-0.2-4.4c-0.4-5.5-2.6-10.6-6.4-14.7c-4.8-4.9-11.5-7.6-18.4-7.4
			h-0.4c-6.5-0.1-12.7,2.4-17.2,7c-4.5,4.6-7,10.9-6.8,17.3c0,1.6,0.1,3.1,0.4,4.7c0.7,5,3.2,9.6,7,12.9c3.8,3.3,8.8,5.1,13.8,5
			c2.9,0.1,5.9-0.6,8.5-1.9c3.9-1.9,6.3-5.8,6.4-10.1c0-2.7-0.9-5.2-2.4-7.4c-0.2,0.9-0.4,1.8-0.7,2.7c-0.7,2.2-2,4.2-3.7,5.8
			c-2,1.5-4.4,2.3-6.9,2.3c-3.8,0.1-7.3-1.7-9.6-4.7c-1.9-2.7-2.9-6.1-2.8-9.4c-0.1-3.8,1.1-7.5,3.6-10.4c2.8-3.1,6.8-4.8,11-4.7
			c3.9-0.1,7.7,1.4,10.5,4.1c1.3,1.3,2.4,2.9,3.1,4.7C121.7,179.2,122.3,182.8,122.2,186.5"/>
		<path fill="#FFFFFF" d="M47.3,195.7c-0.1,0-0.1,0-0.2,0c-0.1,0-0.2,0-0.2-0.1c-0.1-0.1-0.1-0.2-0.1-0.3s0-0.1,0.1-0.2
			c0.1-0.1,0.2-0.2,0.3-0.3l25.1-20.2L73,174c1.4-1.1,2.7-2.4,3.9-3.9c1-1.3,1.6-2.9,1.5-4.6c0-1.8-0.8-3.5-2.1-4.6
			c-0.7-0.6-1.5-1-2.4-1.3c-1.7-0.5-3.4-0.7-5.2-0.7H35.8c0,0.2,0,0.3,0,0.5c0,0.7,0.1,1.4,0.2,2.1c0.2,0.9,0.5,1.8,1,2.7
			c0.6,0.8,1.3,1.4,2.1,1.9c1.6,0.8,3.3,1.2,5.1,1.1h21.5c0.1,0,0.2,0,0.3,0c0.1,0,0.1,0,0.2,0.1c0.1,0,0.1,0.1,0.1,0.2v0.1
			c0,0.1-0.1,0.1-0.1,0.2c-0.1,0.1-0.1,0.1-0.2,0.2l-25.2,20.3l-0.6,0.5c-1.5,1.1-2.8,2.4-4,3.9c-1.1,1.3-1.6,3-1.6,4.6
			c0,1.8,0.8,3.5,2.1,4.6c0.7,0.6,1.5,1,2.4,1.3c1.7,0.5,3.4,0.7,5.2,0.7h34.2v-0.3c0-0.7-0.1-1.4-0.2-2.1c-0.2-1.4-0.9-2.8-1.9-3.8
			c-0.9-0.8-1.9-1.4-3.1-1.6c-1.6-0.4-3.2-0.5-4.9-0.5H47.3"/>
		<path fill="#FFFFFF" d="M196,192.3c-0.1,0-0.1,0-0.2-0.1l-0.1-0.1l-22-28.7c-0.8-1.1-1.7-2.1-2.7-3c-1.4-1.3-3.3-2-5.3-2
			c-1.9-0.1-3.8,0.7-5.2,2.1c-0.3,0.4-0.6,0.7-0.9,1.2c-0.8,1.6-1.2,3.3-1.2,5.1v29.1c0,0.6,0,1.2,0.1,1.9c0.2,1.7,0.9,3.3,2.1,4.5
			c0.2,0.2,0.4,0.4,0.6,0.6c1.7,1.3,3.7,1.9,5.8,1.8c0.2,0,0.4,0,0.5,0v-33.4c0,0,0,0,0-0.1s0-0.1,0.1-0.2c0-0.1,0.1-0.1,0.2-0.1
			c0.1,0,0.1,0,0.2,0.1l0.1,0.1l22,28.7c0.8,1.1,1.7,2.1,2.7,3c1.4,1.3,3.3,2,5.3,2c1.9,0.1,3.8-0.7,5.2-2.1
			c0.3-0.4,0.6-0.7,0.9-1.2c0.8-1.6,1.2-3.3,1.2-5.1v-29.1c0-0.6,0-1.2-0.1-1.9c-0.2-1.7-0.9-3.3-2.1-4.5c-0.2-0.2-0.4-0.4-0.6-0.6
			c-1.7-1.3-3.7-1.9-5.8-1.8c-0.2,0-0.4,0-0.5,0v33.4c0,0,0,0,0,0.1s0,0.1-0.1,0.2C196.1,192.2,196.1,192.3,196,192.3"/>
	</g>
	<g>
		<path fill="#FFFFFF" d="M87,93.3c0,4.9-4,8.8-8.8,8.8c-4.9,0-8.8-4-8.8-8.8s4-8.8,8.8-8.8C83.1,84.5,87,88.5,87,93.3z"/>
		<path fill="#FFFFFF" d="M137.6,124.7c0,4.9-4,8.8-8.8,8.8c-4.9,0-8.8-4-8.8-8.8c0-4.9,4-8.8,8.8-8.8
			C133.6,115.9,137.6,119.8,137.6,124.7z"/>
		<path fill="#FFFFFF" d="M158.7,124.7c0,4.9-4,8.8-8.8,8.8c-4.9,0-8.8-4-8.8-8.8c0-4.9,4-8.8,8.8-8.8
			C154.8,115.9,158.7,119.8,158.7,124.7z"/>
		<path fill="#FFFFFF" d="M201.4,43.9c0,4.9-4,8.8-8.8,8.8c-4.9,0-8.8-4-8.8-8.8c0-4.9,4-8.8,8.8-8.8
			C197.4,35.1,201.4,39.1,201.4,43.9z"/>
		<path fill="#FFFFFF" d="M157,71.7v7.6c0,8.3-6.8,15.1-15.3,15.1h-24.1l0.1-36c-7.5,0-15.1,2.2-15.1,13.3v16.8
			c0,16.9-8.4,30.6-24.2,30.6c-15.3,0-24.2-11.5-24.2-25.8c0-11.9,8.9-21.5,19.9-21.5c9.8,0,16.9,7.5,18.2,17.3
			c1.8-2.8,4-7.4,4-12.7c0-10.2-10.3-18.5-22.9-18.5c-20.5,0-35,16.1-35,36c0,21.9,15.9,39.6,40.1,39.6c16.3,0,30.3-9.9,36.2-24
			h26.4c17.2,0,31.1-13.8,31.1-30.8V58.4C164.6,58.4,157,60.6,157,71.7z"/>
		<path fill="#FFFFFF" d="M186.5,71.7v19.5c0,10.1-6,19.1-15.7,25.5c-7.8,5.1-3.6,15.3-2.7,17.4c20.1-8,33.5-21.8,33.5-42.8V58.4
			C194.1,58.4,186.5,60.6,186.5,71.7z"/>
	</g>
</g>
</svg>
