<?xml version="1.0" encoding="utf-8"?>
<!-- Generator: Adobe Illustrator 24.1.1, SVG Export Plug-In . SVG Version: 6.00 Build 0)  -->
<svg version="1.1" id="Layer_1" xmlns="http://www.w3.org/2000/svg" xmlns:xlink="http://www.w3.org/1999/xlink" x="0px" y="0px"
	 viewBox="0 0 32 32" style="enable-background:new 0 0 32 32;" xml:space="preserve">
<style type="text/css">
	.st0{fill:#7B87FF;}
	.st1{fill:url(#SVGID_1_);}
	.st2{fill:url(#SVGID_2_);}
</style>
<path class="st0" d="M20,13.3h2.7v9.3H20V13.3z"/>
<path class="st0" d="M29.3,5.3V4h-2.7v2.7h2.7V5.3L29.3,5.3z"/>
<linearGradient id="SVGID_1_" gradientUnits="userSpaceOnUse" x1="16.05" y1="11.338" x2="16.05" y2="24.669" gradientTransform="matrix(1 0 0 -1 0 34)">
	<stop  offset="0" style="stop-color:#424F9A"/>
	<stop  offset="1" style="stop-color:#5E1AD5"/>
</linearGradient>
<path class="st1" d="M14.7,9.3h2.7v13.3h-2.7V9.3z"/>
<path class="st0" d="M9.3,17.3H12v5.3H9.3V17.3z"/>
<linearGradient id="SVGID_2_" gradientUnits="userSpaceOnUse" x1="3.3501" y1="28.6497" x2="26.6499" y2="5.3499">
	<stop  offset="0" style="stop-color:#424F9A"/>
	<stop  offset="1" style="stop-color:#5E1AD5"/>
</linearGradient>
<polygon class="st2" points="26.6,8 26.7,25.3 5.4,25.3 5.4,25.3 5.3,25.3 5.3,6.7 5.4,6.7 25.3,6.7 25.3,4 5.4,4 4,4 2.7,4 
	2.7,5.3 2.7,6.7 2.7,25.3 2.7,26.6 2.7,28 4,28 4,28 28,28 28,28 29.3,28 29.3,26.7 29.3,25.3 29.3,8 "/>
</svg>
