<?xml version="1.0" encoding="utf-8"?>
<!-- Generator: Adobe Illustrator 24.1.1, SVG Export Plug-In . SVG Version: 6.00 Build 0)  -->
<svg version="1.1" id="Layer_1" xmlns="http://www.w3.org/2000/svg" xmlns:xlink="http://www.w3.org/1999/xlink" x="0px" y="0px"
	 viewBox="0 0 32 32" style="enable-background:new 0 0 32 32;" xml:space="preserve">
<style type="text/css">
	.st0{fill:url(#SVGID_1_);}
	.st1{fill:url(#SVGID_2_);}
	.st2{fill:#7B87FF;}
</style>
<linearGradient id="SVGID_1_" gradientUnits="userSpaceOnUse" x1="6.63" y1="15.9995" x2="25.368" y2="15.9995">
	<stop  offset="0" style="stop-color:#424F9A"/>
	<stop  offset="1" style="stop-color:#5E1AD5"/>
</linearGradient>
<path class="st0" d="M6.6,2.7V16l0,0v13.3h18.7V2.7H6.6z M22.2,16L22.2,16v10.1H9.8V5.9h12.5V16z"/>
<linearGradient id="SVGID_2_" gradientUnits="userSpaceOnUse" x1="11.306" y1="13.662" x2="14.456" y2="13.662">
	<stop  offset="0" style="stop-color:#424F9A"/>
	<stop  offset="1" style="stop-color:#5E1AD5"/>
</linearGradient>
<polygon class="st1" points="11.3,13.7 11.3,15.2 14.5,15.2 14.5,12.1 11.3,12.1 "/>
<polygon class="st2" points="11.3,18.3 11.3,19.9 20.7,19.9 20.7,16.7 11.3,16.7 "/>
<polygon class="st2" points="11.3,23 11.3,24.6 17.5,24.6 17.5,21.4 11.3,21.4 11.3,23 "/>
</svg>
