<?xml version="1.0" encoding="utf-8"?>
<!-- Generator: Adobe Illustrator 24.1.1, SVG Export Plug-In . SVG Version: 6.00 Build 0)  -->
<svg version="1.1" id="Layer_1" xmlns="http://www.w3.org/2000/svg" xmlns:xlink="http://www.w3.org/1999/xlink" x="0px" y="0px"
	 viewBox="0 0 32 32" style="enable-background:new 0 0 32 32;" xml:space="preserve">
<style type="text/css">
	.st0{fill:url(#SVGID_1_);}
	.st1{fill:url(#SVGID_2_);}
	.st2{fill:url(#SVGID_3_);}
	.st3{fill:url(#SVGID_4_);}
	.st4{fill:#7B87FF;}
</style>
<linearGradient id="SVGID_1_" gradientUnits="userSpaceOnUse" x1="2.6908" y1="14.3657" x2="14.3092" y2="2.7472">
	<stop  offset="0" style="stop-color:#424F9A"/>
	<stop  offset="1" style="stop-color:#5E1AD5"/>
</linearGradient>
<path class="st0" d="M2.7,2.7v5.8v0v5.8h11.6V2.7H2.7z M11,8.6L11,8.6l0,2.5H6v-5h5V8.6z"/>
<linearGradient id="SVGID_2_" gradientUnits="userSpaceOnUse" x1="17.6538" y1="14.3657" x2="29.2723" y2="2.7472">
	<stop  offset="0" style="stop-color:#424F9A"/>
	<stop  offset="1" style="stop-color:#5E1AD5"/>
</linearGradient>
<path class="st1" d="M17.7,2.7v5.8v0v5.8h11.6V2.7H17.7z M26,8.6L26,8.6l0,2.5h-5v-5h5V8.6z"/>
<linearGradient id="SVGID_3_" gradientUnits="userSpaceOnUse" x1="16.4352" y1="28.0352" x2="28.0542" y2="16.4163">
	<stop  offset="0" style="stop-color:#424F9A"/>
	<stop  offset="1" style="stop-color:#5E1AD5"/>
</linearGradient>
<polygon class="st2" points="17.7,23.4 17.7,29.3 24.3,29.3 24.3,25.9 21,25.9 21,21 26,21 26,24.3 29.3,24.3 29.3,17.7 17.7,17.7 
	17.7,23.4 "/>
<linearGradient id="SVGID_4_" gradientUnits="userSpaceOnUse" x1="2.7" y1="29.263" x2="14.3" y2="17.663">
	<stop  offset="0" style="stop-color:#424F9A"/>
	<stop  offset="1" style="stop-color:#5E1AD5"/>
</linearGradient>
<path class="st3" d="M2.7,17.7v5.8v5.8h11.6V17.7H2.7z M11,23.4L11,23.4l0,2.5H6v-5h5V23.4z"/>
<polygon class="st4" points="25.9,27.6 25.9,29.3 29.3,29.3 29.3,25.9 25.9,25.9 25.9,27.6 "/>
</svg>
