<?xml version="1.0" encoding="utf-8"?>
<!-- Generator: Adobe Illustrator 24.1.1, SVG Export Plug-In . SVG Version: 6.00 Build 0)  -->
<svg version="1.1" id="Layer_1" xmlns="http://www.w3.org/2000/svg" xmlns:xlink="http://www.w3.org/1999/xlink" x="0px" y="0px"
	 viewBox="0 0 32 32" style="enable-background:new 0 0 32 32;" xml:space="preserve">
<style type="text/css">
	.st0{fill:#7B87FF;}
	.st1{fill:url(#SVGID_1_);}
</style>
<path class="st0" d="M14.7,20h2.7v2.7h-2.7V20z"/>
<path class="st0" d="M14.7,9.3h2.7v8h-2.7V9.3z"/>
<linearGradient id="SVGID_1_" gradientUnits="userSpaceOnUse" x1="6.666" y1="15.999" x2="25.333" y2="15.999">
	<stop  offset="0" style="stop-color:#424F9A"/>
	<stop  offset="1" style="stop-color:#5E1AD5"/>
</linearGradient>
<path class="st1" d="M25.3,1.3h-2.4c-0.1,0-0.1,0-0.3,0h-16V28c0,0,0,0,0,0.1l0,0v2.5h2.5c0,0,0,0,0.1,0h16V4c0-0.1,0-0.1,0-0.3l0,0
	L25.3,1.3L25.3,1.3z M22.7,4v1.3H9.3V4H22.7z M22.7,8v16H9.3V8H22.7z M9.3,28v-1.3h13.3V28H9.3z"/>
</svg>
