<?xml version="1.0" encoding="utf-8"?>
<!-- Generator: Adobe Illustrator 24.1.1, SVG Export Plug-In . SVG Version: 6.00 Build 0)  -->
<svg version="1.1" id="Layer_1" xmlns="http://www.w3.org/2000/svg" xmlns:xlink="http://www.w3.org/1999/xlink" x="0px" y="0px"
	 viewBox="0 0 32 32" style="enable-background:new 0 0 32 32;" xml:space="preserve">
<style type="text/css">
	.st0{fill:url(#SVGID_1_);}
	.st1{fill:#7B87FF;}
</style>
<linearGradient id="SVGID_1_" gradientUnits="userSpaceOnUse" x1="3.325" y1="26.025" x2="26.675" y2="2.675">
	<stop  offset="0" style="stop-color:#424F9A"/>
	<stop  offset="1" style="stop-color:#5E1AD5"/>
</linearGradient>
<polygon class="st0" points="28,6.7 28,21.2 28,21.3 4,21.3 4,5.3 26.7,5.3 26.7,2.7 4,2.7 4,2.7 4,2.7 1.3,2.7 1.3,5.4 1.3,5.5 
	1.3,21.2 1.3,21.4 1.3,24 4,24 4,24 4,24 13.3,24 13.3,26.7 10.6,26.7 10.6,29.4 21.3,29.4 21.3,26.7 18.6,26.7 18.6,24 28,24 
	30.7,24 30.7,21.3 30.7,21.2 30.7,6.7 "/>
<path class="st1" d="M28,2.7h2.7v2.7H28V2.7z"/>
</svg>
