<?xml version="1.0" encoding="utf-8"?>
<!-- Generator: Adobe Illustrator 24.1.1, SVG Export Plug-In . SVG Version: 6.00 Build 0)  -->
<svg version="1.1" id="Layer_1" xmlns="http://www.w3.org/2000/svg" xmlns:xlink="http://www.w3.org/1999/xlink" x="0px" y="0px"
	 viewBox="0 0 32 32" style="enable-background:new 0 0 32 32;" xml:space="preserve">
<style type="text/css">
	.st0{fill:url(#SVGID_1_);}
	.st1{fill:#0690d5;}
</style>
<linearGradient id="SVGID_1_" gradientUnits="userSpaceOnUse" x1="4.3898" y1="28.9398" x2="26.9438" y2="6.3858">
	<stop  offset="0" style="stop-color:#0690d5"/>
	<stop  offset="1" style="stop-color:#00d2ff"/>
</linearGradient>
<path class="st0" d="M26.7,18.7H5.3V9.3h20V6.7h-2.7v-4c0-0.4-0.1-0.7-0.4-0.9s-0.6-0.4-0.9-0.4H10.7c-0.4,0-0.7,0.1-0.9,0.4
	S9.3,2.3,9.3,2.7v4H4c-0.4,0-0.7,0.1-0.9,0.4S2.7,7.6,2.7,8v18.7c0,0.4,0.1,0.7,0.4,0.9S3.6,28,4,28h24c0.4,0,0.7-0.1,0.9-0.4
	s0.4-0.6,0.4-0.9v-16h-2.7L26.7,18.7L26.7,18.7z M12,4h8v2.7h-8C12,6.7,12,4,12,4z M26.7,25.3H5.3v-4h21.3L26.7,25.3L26.7,25.3z"/>
<path class="st1" d="M29.3,8V6.7h-2.7v2.7h2.7V8L29.3,8z"/>
<path class="st1" d="M14.7,14.7h2.7v2.7h-2.7V14.7z"/>
</svg>
