<?xml version="1.0" encoding="utf-8"?>
<!-- Generator: Adobe Illustrator 24.1.1, SVG Export Plug-In . SVG Version: 6.00 Build 0)  -->
<svg version="1.1" id="Layer_1" xmlns="http://www.w3.org/2000/svg" xmlns:xlink="http://www.w3.org/1999/xlink" x="0px" y="0px"
	 viewBox="0 0 32 32" style="enable-background:new 0 0 32 32;" xml:space="preserve">
<style type="text/css">
	.st0{fill:#0690d5;}
	.st1{fill:url(#SVGID_1_);}
	.st2{fill:url(#SVGID_2_);}
</style>
<path class="st0" d="M21.7,20.3h2.8v2.8h-2.8V20.3z"/>
<linearGradient id="SVGID_1_" gradientUnits="userSpaceOnUse" x1="21.6839" y1="11.7351" x2="24.5297" y2="8.8893">
	<stop  offset="0" style="stop-color:#0690d5"/>
	<stop  offset="1" style="stop-color:#00d2ff"/>
</linearGradient>
<path class="st1" d="M21.7,8.9h2.8v2.8h-2.8V8.9z"/>
<path class="st0" d="M21.7,14.6h2.8v2.8h-2.8V14.6z"/>
<path class="st0" d="M16,8.9h2.8v2.8H16V8.9z"/>
<linearGradient id="SVGID_2_" gradientUnits="userSpaceOnUse" x1="3.4861" y1="29.653" x2="29.6655" y2="3.4736">
	<stop  offset="0" style="stop-color:#0690d5"/>
	<stop  offset="1" style="stop-color:#00d2ff"/>
</linearGradient>
<path class="st2" d="M18.8,25.9v-9.3c0-0.2,0-0.4-0.1-0.6c-0.1-0.2-0.2-0.3-0.4-0.5l-7.1-6.2c-0.3-0.2-0.6-0.4-0.9-0.4V6h17.1v18.5
	h2.8V4.6c0-0.4-0.1-0.7-0.4-1c-0.3-0.3-0.6-0.4-1-0.4H8.9c-0.4,0-0.7,0.1-1,0.4s-0.4,0.6-0.4,1v6.5l-5.2,4.5
	c-0.2,0.1-0.3,0.3-0.4,0.5c-0.1,0.2-0.1,0.4-0.1,0.6v10.7c0,0.4,0.1,0.7,0.4,1s0.6,0.4,1,0.4H26v-2.8L18.8,25.9L18.8,25.9z M16,25.9
	h-4.3v-5.7H8.9v5.7H4.6v-8.6l5.7-5l5.7,5L16,25.9L16,25.9z"/>
<path class="st0" d="M27.4,25.9h2.8v2.8h-2.8V25.9z"/>
</svg>
