<?xml version="1.0" encoding="utf-8"?>
<!-- Generator: Adobe Illustrator 24.1.1, SVG Export Plug-In . SVG Version: 6.00 Build 0)  -->
<svg version="1.1" id="Layer_1" xmlns="http://www.w3.org/2000/svg" xmlns:xlink="http://www.w3.org/1999/xlink" x="0px" y="0px"
	 viewBox="0 0 32 32" style="enable-background:new 0 0 32 32;" xml:space="preserve">
<style type="text/css">
	.st0{fill:#0690D5;}
	.st1{fill:url(#SVGID_1_);}
	.st2{fill:url(#SVGID_2_);}
</style>
<path class="st0" d="M9.3,20H12v2.7H9.3V20z"/>
<linearGradient id="SVGID_1_" gradientUnits="userSpaceOnUse" x1="9.331" y1="16.0035" x2="12" y2="16.0035">
	<stop  offset="0" style="stop-color:#0690D5"/>
	<stop  offset="1" style="stop-color:#00D2FF"/>
</linearGradient>
<path class="st1" d="M9.3,14.7H12v2.7H9.3V14.7z"/>
<linearGradient id="SVGID_2_" gradientUnits="userSpaceOnUse" x1="2.8617" y1="28.1938" x2="25.8062" y2="5.2492">
	<stop  offset="0" style="stop-color:#0690D5"/>
	<stop  offset="1" style="stop-color:#00D2FF"/>
</linearGradient>
<path class="st2" d="M28,24V12h-2.7V5.3c0-0.4-0.1-0.7-0.4-0.9S24.4,4,24,4H5.3C5,4,4.6,4.1,4.4,4.4S4,5,4,5.3v20H2.7V28h22.7v-2.7
	h-2.7v-8H20v8h-2.7V14.7h8V24L28,24L28,24z M22.7,12h-8v13.3h-8V6.7h16V12L22.7,12z"/>
<path class="st0" d="M9.3,9.3H12V12H9.3V9.3z"/>
<path class="st0" d="M26.7,25.3V28h2.7v-2.7H26.7z"/>
</svg>
