<?xml version="1.0" encoding="utf-8"?>
<!-- Generator: Adobe Illustrator 24.1.1, SVG Export Plug-In . SVG Version: 6.00 Build 0)  -->
<svg version="1.1" id="Layer_1" xmlns="http://www.w3.org/2000/svg" xmlns:xlink="http://www.w3.org/1999/xlink" x="0px" y="0px"
	 viewBox="0 0 32 32" style="enable-background:new 0 0 32 32;" xml:space="preserve">
<style type="text/css">
	.st0{fill:url(#SVGID_1_);}
	.st1{fill:#0690d5;}
	.st2{fill:url(#SVGID_2_);}
</style>
<linearGradient id="SVGID_1_" gradientUnits="userSpaceOnUse" x1="3.7243" y1="28.2732" x2="26.6653" y2="5.3322">
	<stop  offset="0" style="stop-color:#0690d5"/>
	<stop  offset="1" style="stop-color:#00d2ff"/>
</linearGradient>
<path class="st0" d="M26.7,25.3H5.3V6.7h20V4H4C3.6,4,3.3,4.1,3.1,4.4S2.7,5,2.7,5.3v21.3c0,0.4,0.1,0.7,0.4,0.9S3.6,28,4,28h24
	c0.4,0,0.7-0.1,0.9-0.4s0.4-0.6,0.4-0.9V8h-2.7L26.7,25.3L26.7,25.3z"/>
<path class="st1" d="M20,13.3h2.7v9.3H20V13.3z"/>
<path class="st1" d="M29.3,5.3V4h-2.7v2.7h2.7V5.3L29.3,5.3z"/>
<linearGradient id="SVGID_2_" gradientUnits="userSpaceOnUse" x1="16.0035" y1="22.662" x2="16.0035" y2="9.331">
	<stop  offset="0" style="stop-color:#0690d5"/>
	<stop  offset="1" style="stop-color:#00d2ff"/>
</linearGradient>
<path class="st2" d="M14.7,9.3h2.7v13.3h-2.7V9.3z"/>
<path class="st1" d="M9.3,17.3H12v5.3H9.3V17.3z"/>
</svg>
