<?xml version="1.0" encoding="utf-8"?>
<!-- Generator: Adobe Illustrator 24.1.1, SVG Export Plug-In . SVG Version: 6.00 Build 0)  -->
<svg version="1.1" id="Layer_1" xmlns="http://www.w3.org/2000/svg" xmlns:xlink="http://www.w3.org/1999/xlink" x="0px" y="0px"
	 viewBox="0 0 32 32" style="enable-background:new 0 0 32 32;" xml:space="preserve">
<style type="text/css">
	.st0{fill:#0690d5;}
	.st1{fill:url(#SVGID_1_);}
	.st2{fill:url(#SVGID_2_);}
</style>
<path class="st0" d="M20,13.3h2.7V16H20V13.3z"/>
<linearGradient id="SVGID_1_" gradientUnits="userSpaceOnUse" x1="1.6668" y1="28.9998" x2="25.9988" y2="4.6678">
	<stop  offset="0" style="stop-color:#0690d5"/>
	<stop  offset="1" style="stop-color:#00d2ff"/>
</linearGradient>
<path class="st1" d="M26.7,22.7h-19l-2.3,1.8V6.7h20V4H4C3.6,4,3.3,4.1,3.1,4.4S2.7,5,2.7,5.3V30l5.9-4.7H28c0.4,0,0.7-0.1,0.9-0.4
	s0.4-0.6,0.4-0.9V8h-2.7L26.7,22.7L26.7,22.7z"/>
<linearGradient id="SVGID_2_" gradientUnits="userSpaceOnUse" x1="14.669" y1="16" x2="17.338" y2="13.331">
	<stop  offset="0" style="stop-color:#0690d5"/>
	<stop  offset="1" style="stop-color:#00d2ff"/>
</linearGradient>
<path class="st2" d="M14.7,13.3h2.7V16h-2.7V13.3z"/>
<path class="st0" d="M9.3,13.3H12V16H9.3V13.3z"/>
<path class="st0" d="M28,4L28,4h-1.3v2.7h2.7V4L28,4z"/>
</svg>
