<?xml version="1.0" encoding="utf-8"?>
<!-- Generator: Adobe Illustrator 24.1.1, SVG Export Plug-In . SVG Version: 6.00 Build 0)  -->
<svg version="1.1" id="Layer_1" xmlns="http://www.w3.org/2000/svg" xmlns:xlink="http://www.w3.org/1999/xlink" x="0px" y="0px"
	 viewBox="0 0 32 32" style="enable-background:new 0 0 32 32;" xml:space="preserve">
<style type="text/css">
	.st0{fill:url(#SVGID_1_);}
	.st1{fill:url(#SVGID_2_);}
	.st2{fill:#0690d5;}
	.st3{fill:url(#SVGID_3_);}
	.st4{fill:url(#SVGID_4_);}
</style>
<linearGradient id="SVGID_1_" gradientUnits="userSpaceOnUse" x1="25.3363" y1="14.6672" x2="30.6708" y2="9.3327">
	<stop  offset="0" style="stop-color:#0690d5"/>
	<stop  offset="1" style="stop-color:#00d2ff"/>
</linearGradient>
<path class="st0" d="M26.7,8h2.7v8h-2.7V8z"/>
<linearGradient id="SVGID_2_" gradientUnits="userSpaceOnUse" x1="0.8608" y1="23.5262" x2="22.8595" y2="1.5275">
	<stop  offset="0" style="stop-color:#0690d5"/>
	<stop  offset="1" style="stop-color:#00d2ff"/>
</linearGradient>
<path class="st1" d="M5.3,22.7v-16h20V4H4C3.6,4,3.3,4.1,3.1,4.4S2.7,5,2.7,5.3v20l5.9,0H16v-2.7H7.7L5.3,22.7z"/>
<path class="st2" d="M29.1,22.6l1.3-0.8l-1.3-2.3l-1.3,0.8c-0.7-0.7-1.5-1.2-2.5-1.4v-1.5h-2.7v1.5c-0.9,0.2-1.8,0.7-2.5,1.4
	l-1.3-0.8l-1.3,2.3l1.3,0.8c-0.3,0.9-0.3,1.9,0,2.9l-1.3,0.8l1.3,2.3l1.3-0.8c0.7,0.7,1.5,1.2,2.5,1.4v1.5h2.7v-1.5
	c1-0.2,1.8-0.8,2.5-1.4l1.3,0.8l1.3-2.3l-1.3-0.8C29.4,24.5,29.4,23.5,29.1,22.6z M25.9,25.9c-0.5,0.5-1.2,0.8-1.9,0.8
	s-1.4-0.3-1.9-0.8s-0.8-1.2-0.8-1.9s0.3-1.4,0.8-1.9s1.2-0.8,1.9-0.8s1.4,0.3,1.9,0.8s0.8,1.2,0.8,1.9S26.4,25.4,25.9,25.9z"/>
<path class="st2" d="M29.3,4h-2.7v2.7h2.7V4z"/>
<linearGradient id="SVGID_3_" gradientUnits="userSpaceOnUse" x1="16.0035" y1="16" x2="16.0035" y2="9.331">
	<stop  offset="0" style="stop-color:#0690d5"/>
	<stop  offset="1" style="stop-color:#00d2ff"/>
</linearGradient>
<path class="st3" d="M14.7,9.3h2.7V16h-2.7C14.7,16,14.7,9.3,14.7,9.3z"/>
<linearGradient id="SVGID_4_" gradientUnits="userSpaceOnUse" x1="16.0035" y1="20" x2="16.0035" y2="17.331">
	<stop  offset="0" style="stop-color:#0690d5"/>
	<stop  offset="1" style="stop-color:#00d2ff"/>
</linearGradient>
<path class="st4" d="M14.7,17.3h2.7V20h-2.7V17.3z"/>
</svg>
