<?xml version="1.0" encoding="utf-8"?>
<!-- Generator: Adobe Illustrator 24.1.1, SVG Export Plug-In . SVG Version: 6.00 Build 0)  -->
<svg version="1.1" id="Layer_1" xmlns="http://www.w3.org/2000/svg" xmlns:xlink="http://www.w3.org/1999/xlink" x="0px" y="0px"
	 viewBox="0 0 32 32" style="enable-background:new 0 0 32 32;" xml:space="preserve">
<style type="text/css">
	.st0{fill:url(#SVGID_1_);}
	.st1{fill:#0690d5;}
</style>
<linearGradient id="SVGID_1_" gradientUnits="userSpaceOnUse" x1="2.668" y1="17" x2="29.331" y2="17" gradientTransform="matrix(1 0 0 -1 0 34)">
	<stop  offset="0" style="stop-color:#0690d5"/>
	<stop  offset="1" style="stop-color:#00d2ff"/>
</linearGradient>
<path class="st0" d="M26.7,22.7h-19l-2.3,1.8V6.7h20V4H4C3.6,4,3.3,4.1,3.1,4.4S2.7,5,2.7,5.3V30l5.9-4.7H28c0.4,0,0.7-0.1,0.9-0.4
	s0.4-0.6,0.4-0.9V8h-2.7L26.7,22.7L26.7,22.7z"/>
<path class="st1" d="M14.7,9.3h2.7V16h-2.7V9.3z"/>
<path class="st1" d="M14.7,17.3h2.7V20h-2.7V17.3z"/>
<path class="st1" d="M28,4L28,4h-1.3v2.7h2.7V4H28z"/>
</svg>
