<?xml version="1.0" encoding="utf-8"?>
<!-- Generator: Adobe Illustrator 24.1.1, SVG Export Plug-In . SVG Version: 6.00 Build 0)  -->
<svg version="1.1" id="Layer_1" xmlns="http://www.w3.org/2000/svg" xmlns:xlink="http://www.w3.org/1999/xlink" x="0px" y="0px"
	 viewBox="0 0 32 32" style="enable-background:new 0 0 32 32;" xml:space="preserve">
<style type="text/css">
	.st0{fill:#0690D5;}
	.st1{fill:url(#SVGID_1_);}
	.st2{fill:url(#SVGID_2_);}
</style>
<path class="st0" d="M9.3,20h8v2.7h-8C9.3,22.7,9.3,20,9.3,20z"/>
<linearGradient id="SVGID_1_" gradientUnits="userSpaceOnUse" x1="4" y1="16" x2="28" y2="16">
	<stop  offset="0" style="stop-color:#0690D5"/>
	<stop  offset="1" style="stop-color:#00D2FF"/>
</linearGradient>
<path class="st1" d="M27.6,3.1c-0.3-0.3-0.6-0.4-0.9-0.4h-16c-0.4,0-0.7,0.1-0.9,0.4S9.3,3.6,9.3,4v4h-4C4.6,8,4,8.6,4,9.3V28
	c0,0.2,0,0.4,0.1,0.5c0.1,0.2,0.2,0.3,0.3,0.4c0.1,0.1,0.3,0.2,0.4,0.3s0.3,0.1,0.5,0.1h13.3v-2.7h-12v-16H20v14.7h2.7V24h4
	c0.4,0,0.7-0.1,0.9-0.4S28,23,28,22.7V4C28,3.6,27.9,3.3,27.6,3.1L27.6,3.1z M25.3,21.3h-2.7V8H12V5.3h13.3V21.3z"/>
<linearGradient id="SVGID_2_" gradientUnits="userSpaceOnUse" x1="9.331" y1="17.95" x2="17.331" y2="17.95" gradientTransform="matrix(1 0 0 -1 0 34)">
	<stop  offset="0" style="stop-color:#0690D5"/>
	<stop  offset="1" style="stop-color:#00D2FF"/>
</linearGradient>
<path class="st2" d="M9.3,14.7h8v2.7h-8C9.3,17.3,9.3,14.7,9.3,14.7z"/>
<path class="st0" d="M20,26.7h2.7v2.7H20V26.7z"/>
</svg>
