<?xml version="1.0" encoding="utf-8"?>
<!-- Generator: Adobe Illustrator 24.1.1, SVG Export Plug-In . SVG Version: 6.00 Build 0)  -->
<svg version="1.1" id="Layer_1" xmlns="http://www.w3.org/2000/svg" xmlns:xlink="http://www.w3.org/1999/xlink" x="0px" y="0px"
	 viewBox="0 0 32 32" style="enable-background:new 0 0 32 32;" xml:space="preserve">
<style type="text/css">
	.st0{fill:url(#SVGID_1_);}
	.st1{fill:#0690d5;}
</style>
<linearGradient id="SVGID_1_" gradientUnits="userSpaceOnUse" x1="2.7385" y1="29.2635" x2="29.2665" y2="2.7355">
	<stop  offset="0" style="stop-color:#0690d5"/>
	<stop  offset="1" style="stop-color:#00d2ff"/>
</linearGradient>
<path class="st0" d="M2.7,2.7V16v0v13.3h26.5V2.7H2.7z M26.3,16L26.3,16v10.3H5.7V5.7h20.6V16z"/>
<path class="st1" d="M14.9,7.2c-2,0.4-3.6,1.7-4.3,3.5c-0.2,0.6-0.4,1.1-0.5,1.8l0,0.4H13l0.1-0.4c0.1-0.8,0.7-1.7,1.4-2.1
	c0.8-0.5,2.2-0.5,3,0c1.6,1.1,1.9,3.3,0.5,4.6c-0.6,0.6-1.3,0.9-2.8,0.9h-0.7v4.4h2.9v-1.7l0.3-0.1c0.5-0.1,1.3-0.6,1.8-0.9
	c1-0.8,1.8-2,2.2-3.3c0.2-0.5,0.2-1.4,0.1-2c-0.3-2.6-2.2-4.7-4.8-5.1C16.5,7.1,15.5,7.1,14.9,7.2L14.9,7.2z"/>
<polygon class="st1" points="14.5,23.4 14.5,24.9 17.5,24.9 17.5,21.9 14.5,21.9 "/>
</svg>
