<?xml version="1.0" encoding="utf-8"?>
<!-- Generator: Adobe Illustrator 24.1.1, SVG Export Plug-In . SVG Version: 6.00 Build 0)  -->
<svg version="1.1" id="Layer_1" xmlns="http://www.w3.org/2000/svg" xmlns:xlink="http://www.w3.org/1999/xlink" x="0px" y="0px"
	 viewBox="0 0 32 32" style="enable-background:new 0 0 32 32;" xml:space="preserve">
<style type="text/css">
	.st0{fill:#0690d5;}
	.st1{fill:url(#SVGID_1_);}
	.st2{fill:url(#SVGID_2_);}
</style>
<path class="st0" d="M10.7,14.7h2.7v8h-2.7V14.7z"/>
<path class="st0" d="M10.7,9.3h2.7V12h-2.7V9.3z"/>
<linearGradient id="SVGID_1_" gradientUnits="userSpaceOnUse" x1="16" y1="23.3335" x2="30.667" y2="23.3335">
	<stop  offset="0" style="stop-color:#0690d5"/>
	<stop  offset="1" style="stop-color:#00d2ff"/>
</linearGradient>
<path class="st1" d="M27.1,25.2c0.5-0.9,0.9-2,0.9-3.2c0-3.3-2.7-6-6-6s-6,2.7-6,6s2.7,6,6,6c1.2,0,2.3-0.4,3.2-0.9l3.6,3.6l1.9-1.9
	C30.7,28.8,27.1,25.2,27.1,25.2z M22,25.3c-1.9,0-3.3-1.5-3.3-3.3s1.5-3.3,3.3-3.3s3.3,1.5,3.3,3.3S23.9,25.3,22,25.3z"/>
<linearGradient id="SVGID_2_" gradientUnits="userSpaceOnUse" x1="4" y1="16" x2="20" y2="16">
	<stop  offset="0" style="stop-color:#0690d5"/>
	<stop  offset="1" style="stop-color:#00d2ff"/>
</linearGradient>
<path class="st2" d="M17.3,4H4v24h9.3v-2.7H6.7V6.7h10.7v6.7H20V4H17.3z"/>
</svg>
