<?xml version="1.0" encoding="utf-8"?>
<!-- Generator: Adobe Illustrator 24.1.1, SVG Export Plug-In . SVG Version: 6.00 Build 0)  -->
<svg version="1.1" id="Layer_1" xmlns="http://www.w3.org/2000/svg" xmlns:xlink="http://www.w3.org/1999/xlink" x="0px" y="0px"
	 viewBox="0 0 32 32" style="enable-background:new 0 0 32 32;" xml:space="preserve">
<style type="text/css">
	.st0{fill:url(#SVGID_1_);}
	.st1{fill:#0690d5;}
</style>
<linearGradient id="SVGID_1_" gradientUnits="userSpaceOnUse" x1="3.999" y1="15.999" x2="29.332" y2="15.999">
	<stop  offset="0" style="stop-color:#0690d5"/>
	<stop  offset="1" style="stop-color:#00d2ff"/>
</linearGradient>
<path class="st0" d="M29.3,25.3V12c0-0.4-0.1-0.7-0.4-0.9s-0.6-0.4-0.9-0.4h-2.7V4c0-0.4-0.1-0.7-0.4-0.9S24.4,2.7,24,2.7H5.3
	C5,2.7,4.6,2.8,4.4,3.1S4,3.6,4,4v21.3c0,0.4,0.1,0.7,0.4,0.9s0.6,0.4,0.9,0.4H16V28c0,0.4,0.1,0.7,0.4,0.9s0.6,0.4,0.9,0.4h8v-2.7
	h-6.7V13.3h8v12L29.3,25.3L29.3,25.3z M22.7,10.7h-5.3c-0.4,0-0.7,0.1-0.9,0.4S16,11.6,16,12v12H6.7V5.3h16
	C22.7,5.3,22.7,10.7,22.7,10.7z"/>
<path class="st1" d="M26.7,26.7h2.7v2.7h-2.7V26.7z"/>
</svg>
