<?xml version="1.0" encoding="utf-8"?>
<!-- Generator: Adobe Illustrator 24.1.1, SVG Export Plug-In . SVG Version: 6.00 Build 0)  -->
<svg version="1.1" id="Layer_1" xmlns="http://www.w3.org/2000/svg" xmlns:xlink="http://www.w3.org/1999/xlink" x="0px" y="0px"
	 viewBox="0 0 32 32" style="enable-background:new 0 0 32 32;" xml:space="preserve">
<style type="text/css">
	.st0{fill:#0690d5;}
	.st1{fill:url(#SVGID_1_);}
</style>
<path class="st0" d="M29.3,8V6.7h-2.7v2.7h2.7V8L29.3,8z"/>
<rect x="14.7" y="14.7" class="st0" width="2.7" height="4"/>
<linearGradient id="SVGID_1_" gradientUnits="userSpaceOnUse" x1="4.0315" y1="27.9185" x2="27.254" y2="4.696" gradientTransform="matrix(1 0 0 -1 0 34)">
	<stop  offset="0" style="stop-color:#0690d5"/>
	<stop  offset="1" style="stop-color:#00d2ff"/>
</linearGradient>
<path class="st1" d="M26.7,10.7v4H20V12h-8v2.7H5.3V9.3h20V6.7h-2.7v-4c0-0.4-0.1-0.7-0.4-0.9s-0.6-0.4-0.9-0.4H10.7
	c-0.4,0-0.7,0.1-0.9,0.4S9.3,2.3,9.3,2.7v4H4c-0.4,0-0.7,0.1-0.9,0.4S2.7,7.6,2.7,8v18.7c0,0.4,0.1,0.7,0.4,0.9S3.6,28,4,28h24
	c0.4,0,0.7-0.1,0.9-0.4s0.4-0.6,0.4-0.9v-16C29.3,10.7,26.7,10.7,26.7,10.7z M12,4h8v2.7h-8V4z M14.7,14.7h2.7v4h-2.7V14.7z
	 M26.7,25.3L26.7,25.3H5.3v-8H12v4h8v-4h6.7V25.3z"/>
</svg>
