<?xml version="1.0" encoding="utf-8"?>
<!-- Generator: Adobe Illustrator 24.1.1, SVG Export Plug-In . SVG Version: 6.00 Build 0)  -->
<svg version="1.1" id="Layer_1" xmlns="http://www.w3.org/2000/svg" xmlns:xlink="http://www.w3.org/1999/xlink" x="0px" y="0px"
	 viewBox="0 0 32 32" style="enable-background:new 0 0 32 32;" xml:space="preserve">
<style type="text/css">
	.st0{fill:url(#SVGID_1_);}
	.st1{fill:#0690d5;}
</style>
<linearGradient id="SVGID_1_" gradientUnits="userSpaceOnUse" x1="2.9177" y1="27.4747" x2="27.4759" y2="2.9166">
	<stop  offset="0" style="stop-color:#0690d5"/>
	<stop  offset="1" style="stop-color:#00d2ff"/>
</linearGradient>
<path class="st0" d="M26.7,2.7H5.3C5,2.7,4.6,2.8,4.4,3.1C4.1,3.3,4,3.6,4,4v24c0,0.4,0.1,0.7,0.4,0.9s0.6,0.4,0.9,0.4H24v-2.7H6.7
	V5.3h18.7v20H28V4C28,3.3,27.4,2.7,26.7,2.7L26.7,2.7z"/>
<path class="st1" d="M25.3,29.3H28v-2.7h-2.7V29.3z"/>
<path class="st1" d="M15.1,17.5l-3.3-3.3l-1.9,1.9l5.2,5.2l4.7-4.7l-1.9-1.9L15.1,17.5z"/>
<path class="st1" d="M22.6,13.7l-1.9-1.9l-0.9,0.9l-0.9,0.9l1.9,1.9l0.9-0.9C21.7,14.7,22.6,13.7,22.6,13.7z"/>
</svg>
