<svg xmlns="http://www.w3.org/2000/svg" xmlns:xlink="http://www.w3.org/1999/xlink" width="36" height="36" viewBox="0 0 36 36"><defs><clipPath id="a"><rect width="36" height="36" transform="translate(2186 36)" fill="#fff"/></clipPath><linearGradient id="b" x1="0.002" y1="0.5" x2="1.004" y2="0.5" gradientUnits="objectBoundingBox"><stop offset="0" stop-color="#424f9a"/><stop offset="1" stop-color="#5e1ad5"/></linearGradient></defs><g transform="translate(-2186 -36)" clip-path="url(#a)"><g transform="translate(2145.3 -25)"><path d="M71.5,86.406H48.716L45.9,88.619V67.2h24V64H44.3a1.588,1.588,0,0,0-1.6,1.6V95.2l7.126-5.6H73.1A1.588,1.588,0,0,0,74.7,88V68.8H71.5V86.406Z" fill="url(#b)"/><rect width="3.203" height="8.004" transform="translate(57.102 70.398)" fill="#7b87ff"/><rect width="3.203" height="3.203" transform="translate(57.102 80)" fill="#7b87ff"/><path d="M428.3,64h-1.6v3.2h3.2V65.6h0V64Z" transform="translate(-355.195)" fill="#7b87ff"/></g></g></svg>