<?xml version="1.0" encoding="utf-8"?>
<!-- Generator: Adobe Illustrator 24.1.1, SVG Export Plug-In . SVG Version: 6.00 Build 0)  -->
<svg version="1.1" id="Layer_1" xmlns="http://www.w3.org/2000/svg" xmlns:xlink="http://www.w3.org/1999/xlink" x="0px" y="0px"
	 viewBox="0 0 32 32" style="enable-background:new 0 0 32 32;" xml:space="preserve">
<style type="text/css">
	.st0{fill:#7B87FF;}
	.st1{fill:url(#SVGID_1_);}
	.st2{fill:url(#SVGID_2_);}
</style>
<path class="st0" d="M28.8,19.9l-5.7,5.7l-2.8-2.9l-1.9,2l4.7,4.7l7.6-7.6L28.8,19.9z"/>
<linearGradient id="SVGID_1_" gradientUnits="userSpaceOnUse" x1="8" y1="25.3335" x2="16.133" y2="25.3335">
	<stop  offset="0" style="stop-color:#000062"/>
	<stop  offset="1" style="stop-color:#0000FF"/>
</linearGradient>
<path class="st1" d="M8,24v2.7h8.1c0-0.4-0.1-0.9-0.1-1.3s0-0.9,0.1-1.3L8,24L8,24z"/>
<linearGradient id="SVGID_2_" gradientUnits="userSpaceOnUse" x1="2.667" y1="13.334" x2="29.334" y2="13.334">
	<stop  offset="0" style="stop-color:#000062"/>
	<stop  offset="1" style="stop-color:#0000FF"/>
</linearGradient>
<path class="st2" d="M26.7,10.7v5.5c0.9,0.1,1.9,0.4,2.7,0.8V5.3H2.7v16h2.7V10.7L16,17.3L26.7,10.7L26.7,10.7z M26.7,8L16,14.7
	L5.3,8H26.7L26.7,8z"/>
<path class="st0" d="M2.7,26.7h2.7V24H2.7V26.7z"/>
</svg>
