<?xml version="1.0" encoding="utf-8"?>
<!-- Generator: Adobe Illustrator 24.1.1, SVG Export Plug-In . SVG Version: 6.00 Build 0)  -->
<svg version="1.1" id="Layer_1" xmlns="http://www.w3.org/2000/svg" xmlns:xlink="http://www.w3.org/1999/xlink" x="0px" y="0px"
	 viewBox="0 0 32 32" style="enable-background:new 0 0 32 32;" xml:space="preserve">
<style type="text/css">
	.st0{fill:url(#SVGID_1_);}
	.st1{fill:#7B87FF;}
</style>
<linearGradient id="SVGID_1_" gradientUnits="userSpaceOnUse" x1="7.02" y1="22.939" x2="24.9795" y2="4.9795">
	<stop  offset="0" style="stop-color:#000062"/>
	<stop  offset="1" style="stop-color:#0000FF"/>
</linearGradient>
<path class="st0" d="M16,2.7l-10.7,4v8.1c0,6.7,4.5,13.1,10.7,14.5c6.1-1.5,10.7-7.9,10.7-14.5V6.7C26.7,6.7,16,2.7,16,2.7z
	 M24,14.8c0,5.3-3.5,10.3-8,11.7c-4.5-1.5-8-6.4-8-11.7V8.5l8-3.1l8,3.1C24,8.5,24,14.8,24,14.8z"/>
<path class="st1" d="M15.2,18.7h2.1l2,2.7L16.7,24c-1.7-1.3-3.1-3.2-3.6-5.3c-0.3-0.8-0.4-1.7-0.4-2.7s0.1-1.9,0.4-2.7
	c0.7-2.1,1.9-4,3.6-5.3l2.7,2.7l-2,2.7h-2.1c-0.3,0.8-0.5,1.7-0.5,2.7S14.8,17.9,15.2,18.7L15.2,18.7z"/>
</svg>
