<?xml version="1.0" encoding="utf-8"?>
<!-- Generator: Adobe Illustrator 24.1.1, SVG Export Plug-In . SVG Version: 6.00 Build 0)  -->
<svg version="1.1" id="Layer_1" xmlns="http://www.w3.org/2000/svg" xmlns:xlink="http://www.w3.org/1999/xlink" x="0px" y="0px"
	 viewBox="0 0 32 32" style="enable-background:new 0 0 32 32;" xml:space="preserve">
<style type="text/css">
	.st0{fill:#7B87FF;}
	.st1{fill:url(#SVGID_1_);}
	.st2{fill:url(#SVGID_2_);}
	.st3{fill:url(#SVGID_3_);}
</style>
<path class="st0" d="M17.3,24V13.3h-6.7V16h4v8H17.3z"/>
<path class="st0" d="M10.7,17.3h2.7V20h-2.7V17.3z"/>
<linearGradient id="SVGID_1_" gradientUnits="userSpaceOnUse" x1="18.7" y1="18" x2="21.4" y2="20.7" gradientTransform="matrix(1 0 0 -1 0 34)">
	<stop  offset="0" style="stop-color:#000062"/>
	<stop  offset="1" style="stop-color:#0000FF"/>
</linearGradient>
<path class="st1" d="M18.7,13.3h2.7V16h-2.7V13.3z"/>
<linearGradient id="SVGID_2_" gradientUnits="userSpaceOnUse" x1="4.975" y1="28.975" x2="25.675" y2="8.275">
	<stop  offset="0" style="stop-color:#000062"/>
	<stop  offset="1" style="stop-color:#0000FF"/>
</linearGradient>
<path class="st2" d="M26.3,8.9L20,2.7H9.3v2.7h9.6l5.1,5.1v16.2H8v-0.1V6.7H5.3v19.9V28v1.3h1.3H8h16.1h1.2h1.3V28v-1.9V9.9
	C26.7,9.5,26.5,9.2,26.3,8.9z"/>
<path class="st0" d="M18.7,21.3h2.7V24h-2.7V21.3z"/>
<linearGradient id="SVGID_3_" gradientUnits="userSpaceOnUse" x1="18.669" y1="46.031" x2="21.338" y2="43.362" gradientTransform="matrix(1 0 0 1 0 -26)">
	<stop  offset="0" style="stop-color:#000062"/>
	<stop  offset="1" style="stop-color:#0000FF"/>
</linearGradient>
<path class="st3" d="M18.7,17.3h2.7V20h-2.7V17.3z"/>
<path class="st0" d="M8,2.7H5.3v2.7H8V2.7z"/>
</svg>
