<?xml version="1.0" encoding="utf-8"?>
<!-- Generator: Adobe Illustrator 24.1.1, SVG Export Plug-In . SVG Version: 6.00 Build 0)  -->
<svg version="1.1" id="Layer_1" xmlns="http://www.w3.org/2000/svg" xmlns:xlink="http://www.w3.org/1999/xlink" x="0px" y="0px"
	 viewBox="0 0 32 32" style="enable-background:new 0 0 32 32;" xml:space="preserve">
<style type="text/css">
	.st0{fill:url(#SVGID_1_);}
	.st1{fill:#7B87FF;}
</style>
<linearGradient id="SVGID_1_" gradientUnits="userSpaceOnUse" x1="2.3477" y1="27.6477" x2="27.6477" y2="2.3477">
	<stop  offset="0" style="stop-color:#000062"/>
	<stop  offset="1" style="stop-color:#0000FF"/>
</linearGradient>
<polygon class="st0" points="26.7,2.7 25.4,2.7 6.7,2.7 5.3,2.7 4,2.7 4,5.5 4,5.5 4,26.5 4,28 4,29.3 5.3,29.3 6.7,29.3 24,29.3 
	24,26.6 6.7,26.6 6.7,5.3 25.4,5.3 25.4,5.5 25.4,5.5 25.4,25.3 28,25.3 28,5.5 28,4 28,2.7 "/>
<path class="st1" d="M25.3,29.3H28v-2.7h-2.7V29.3z"/>
<path class="st1" d="M15.1,17.5l-3.3-3.3l-1.9,1.9l5.2,5.2l4.7-4.7l-1.9-1.9L15.1,17.5z"/>
<path class="st1" d="M22.6,13.7l-1.9-1.9l-0.9,0.9l-0.9,0.9l1.9,1.9l0.9-0.9C21.7,14.7,22.6,13.7,22.6,13.7z"/>
</svg>
