<?xml version="1.0" encoding="utf-8"?>
<!-- Generator: Adobe Illustrator 24.1.1, SVG Export Plug-In . SVG Version: 6.00 Build 0)  -->
<svg version="1.1" id="Layer_1" xmlns="http://www.w3.org/2000/svg" xmlns:xlink="http://www.w3.org/1999/xlink" x="0px" y="0px"
	 viewBox="0 0 32 32" style="enable-background:new 0 0 32 32;" xml:space="preserve">
<style type="text/css">
	.st0{fill:url(#SVGID_1_);}
	.st1{fill:#7B87FF;}
	.st2{fill:url(#SVGID_2_);}
</style>
<linearGradient id="SVGID_1_" gradientUnits="userSpaceOnUse" x1="6.111" y1="21.9965" x2="15.999" y2="21.9965">
	<stop  offset="0" style="stop-color:#000062"/>
	<stop  offset="1" style="stop-color:#0000FF"/>
</linearGradient>
<path class="st0" d="M6.1,25.3h3c0.3-0.6,0.8-1.2,1.3-1.7c1.5-1.5,3.5-2.3,5.7-2.3v-2.7c-2.8,0-5.5,1.1-7.5,3.1
	C7.4,22.8,6.6,24,6.1,25.3L6.1,25.3z"/>
<path class="st1" d="M28.5,22.9l1.3-0.8l-1.3-2.3l-1.3,0.8c-0.5-0.5-1.2-0.9-1.9-1.1V18h-2.7v1.5c-0.7,0.2-1.3,0.6-1.9,1.1l-1.3-0.8
	l-1.3,2.3l1.3,0.8c-0.2,0.7-0.2,1.5,0,2.2l-1.3,0.8l1.3,2.3l1.3-0.8c0.5,0.5,1.2,0.9,1.9,1.1V30h2.7v-1.5c0.7-0.2,1.3-0.6,1.9-1.1
	l1.3,0.8l1.3-2.3l-1.3-0.8C28.7,24.4,28.7,23.6,28.5,22.9L28.5,22.9z M25.4,25.4C25,25.8,24.5,26,24,26s-1-0.2-1.4-0.6
	S22,24.5,22,24s0.2-1,0.6-1.4S23.5,22,24,22c0.5,0,1,0.2,1.4,0.6S26,23.5,26,24C26,24.5,25.8,25,25.4,25.4z"/>
<linearGradient id="SVGID_2_" gradientUnits="userSpaceOnUse" x1="8" y1="9.331" x2="24" y2="9.331">
	<stop  offset="0" style="stop-color:#000062"/>
	<stop  offset="1" style="stop-color:#0000FF"/>
</linearGradient>
<path class="st2" d="M24,9.3c0-4.4-3.6-8-8-8s-8,3.6-8,8s3.6,8,8,8S24,13.8,24,9.3z M16,14.7c-2.9,0-5.3-2.4-5.3-5.3S13.1,4,16,4
	s5.3,2.4,5.3,5.3S18.9,14.7,16,14.7z"/>
<path class="st1" d="M5.3,29.3L5.3,29.3L5.3,29.3L5.3,29.3H8v-2.7H5.3L5.3,29.3z"/>
</svg>
