<?xml version="1.0" encoding="utf-8"?>
<!-- Generator: Adobe Illustrator 24.1.1, SVG Export Plug-In . SVG Version: 6.00 Build 0)  -->
<svg version="1.1" id="Layer_1" xmlns="http://www.w3.org/2000/svg" xmlns:xlink="http://www.w3.org/1999/xlink" x="0px" y="0px"
	 viewBox="0 0 32 32" style="enable-background:new 0 0 32 32;" xml:space="preserve">
<style type="text/css">
	.st0{fill:url(#SVGID_1_);}
	.st1{fill:url(#SVGID_2_);}
	.st2{fill:url(#SVGID_3_);}
	.st3{fill:url(#SVGID_4_);}
	.st4{fill:#7B87FF;}
</style>
<linearGradient id="SVGID_1_" gradientUnits="userSpaceOnUse" x1="5.9758" y1="27.3078" x2="14.6883" y2="18.5952">
	<stop  offset="0" style="stop-color:#000062"/>
	<stop  offset="1" style="stop-color:#0000FF"/>
</linearGradient>
<path class="st0" d="M9.3,16c-1.8,0-3.5,0.7-4.7,2s-2,2.9-2,4.7V24h2.7v-1.3c0-1.1,0.4-2.1,1.2-2.8s1.8-1.2,2.8-1.2
	c1.1,0,2.1,0.4,2.8,1.2s1.2,1.8,1.2,2.8V28H16v-5.3c0-1.8-0.7-3.5-1.9-4.7C12.8,16.7,11.1,16,9.3,16L9.3,16z"/>
<linearGradient id="SVGID_2_" gradientUnits="userSpaceOnUse" x1="19.562" y1="18.437" x2="27.1" y2="10.899">
	<stop  offset="0" style="stop-color:#000062"/>
	<stop  offset="1" style="stop-color:#0000FF"/>
</linearGradient>
<path class="st1" d="M23.3,20c1.4,0,2.8-0.6,3.8-1.6s1.6-2.4,1.6-3.8c0-1.4-0.6-2.8-1.6-3.8s-2.4-1.6-3.8-1.6
	c-1.4,0-2.8,0.6-3.8,1.6S18,13.3,18,14.7s0.6,2.8,1.6,3.8S21.9,20,23.3,20z M21.5,12.8c0.5-0.5,1.2-0.8,1.9-0.8s1.4,0.3,1.9,0.8
	S26,14,26,14.7s-0.3,1.4-0.8,1.9s-1.2,0.8-1.9,0.8s-1.4-0.3-1.9-0.8s-0.8-1.2-0.8-1.9S21,13.3,21.5,12.8z"/>
<linearGradient id="SVGID_3_" gradientUnits="userSpaceOnUse" x1="19.552" y1="30.21" x2="27.1215" y2="22.6405">
	<stop  offset="0" style="stop-color:#000062"/>
	<stop  offset="1" style="stop-color:#0000FF"/>
</linearGradient>
<path class="st2" d="M28.9,25c-0.3-0.7-0.7-1.4-1.3-1.9s-1.2-1-1.9-1.3s-1.5-0.5-2.3-0.5s-1.6,0.2-2.3,0.5s-1.4,0.7-1.9,1.3
	s-1,1.2-1.3,1.9s-0.5,1.5-0.5,2.3V28H20v-0.7c0-0.9,0.4-1.7,1-2.4s1.5-1,2.4-1s1.7,0.4,2.4,1s1,1.5,1,2.4V28h2.7v-0.7
	C29.3,26.5,29.2,25.8,28.9,25L28.9,25z"/>
<linearGradient id="SVGID_4_" gradientUnits="userSpaceOnUse" x1="5.0924" y1="12.9046" x2="13.5775" y2="4.4195">
	<stop  offset="0" style="stop-color:#000062"/>
	<stop  offset="1" style="stop-color:#0000FF"/>
</linearGradient>
<path class="st3" d="M5.1,12.9c0.6,0.6,1.2,1,1.9,1.3s1.5,0.5,2.3,0.5c1.6,0,3.1-0.6,4.2-1.8s1.8-2.6,1.8-4.2s-0.6-3.1-1.8-4.2
	s-2.6-1.8-4.2-1.8C8.5,2.7,7.8,2.8,7,3.1S5.7,3.9,5.1,4.4s-1,1.2-1.3,1.9S3.3,7.9,3.3,8.7s0.2,1.6,0.5,2.3
	C4.1,11.7,4.5,12.3,5.1,12.9z M7,6.3c0.6-0.6,1.5-1,2.4-1s1.7,0.3,2.4,1s1,1.5,1,2.4s-0.4,1.7-1,2.4s-1.5,1-2.4,1S7.6,11.7,7,11
	S6,9.6,6,8.7S6.3,6.9,7,6.3z"/>
<path class="st4" d="M2.7,26.7V28h2.7v-2.7H2.7L2.7,26.7z"/>
</svg>
