<?xml version="1.0" standalone="no"?>
<!DOCTYPE svg PUBLIC "-//W3C//DTD SVG 1.1//EN" "http://www.w3.org/Graphics/SVG/1.1/DTD/svg11.dtd" >
<svg xmlns="http://www.w3.org/2000/svg">
<metadata>Generated by IcoMoon</metadata>
<defs>
<font id="mutasil" horiz-adv-x="512">
<font-face units-per-em="512" ascent="435.2" descent="-76.8" />
<missing-glyph horiz-adv-x="512" />
<glyph unicode="&#x20;" horiz-adv-x="256" d="" />
<glyph unicode="&#xe900;" glyph-name="icon-01" d="M106.7 170.667v-211.8h224v49.8h-174.8v324h123.9v-74.7h74.6v-224h49.8v259.5l-44.5 44.5-43.9 44.5h-209.1v-211.8zM355.5-16.233v-24.9h49.8v49.8h-49.8v-24.9z" />
<glyph unicode="&#xe901;" glyph-name="icon-02" d="M91.3 358.567v-23.8h-47.1v-46.6h140.8v47.2h-46.6v47.1h-47.1v-23.9zM232.2 229.467v-153h-46.6v-46.6h140.8v46.6h-46.6v306h-46.6l-1-153zM373.5 299.867v-82.6h-46.6v-46.6h140.8v46.6h-46.6v165.2h-46.6l-1-82.6zM91.3 111.867v-153h46.6v306h-46.6v-153zM373.5 53.167v-94.2h46.6v187.9h-46.6v-93.7zM232.2-17.233v-23.8h46.6v46.6h-46.6v-22.8z" />
<glyph unicode="&#xe902;" glyph-name="icon-03" d="M42.7 170.667v-213.3h426.6v320.5h-373.3v53.3h293.3v52.8h-346.6v-213.3zM416 357.267v-26.6h53.3v53.3h-53.3v-26.7zM416 117.367v-107.2h-320v213.8h320.5v-106.7zM309.3 117.367v-26.7h53.3v53.3h-53.3v-26.6z" />
<glyph unicode="&#xe903;" glyph-name="icon-04" d="M96 357.267v-26.6h-53.3v-373.3h426.6v373.3h-53.3v53.3h-53.3v-53.3h-213.3v53.3h-53.4v-26.7zM416 250.667v-26.7h-320v53.3h320.5v-26.6zM416 90.667v-80h-320v160h320.5v-80zM176 90.667v-26.7h53.3v53.3h-53.3v-26.6zM282.7 90.667v-26.7h53.3v53.3h-53.3v-26.6z" />
<glyph unicode="&#xe904;" glyph-name="icon-05" d="M42.7 170.667v-213.3h426.6v426.6h-426.6v-213.3zM416 170.667v-160h-320v320h320.5l-0.5-160zM122.7 170.667v-133.3h133.3v266.6h-133.3v-133.3z" />
<glyph unicode="&#xe905;" glyph-name="icon-06" d="M233.3 372.067v-11.9l-5.4-1.1c-2.7-0.5-10.2-1.6-17.3-3.2-62.5-16.1-112.1-64.7-128.8-127.2-4.9-20.5-4.9-23.7-5.9-79.8l-0.5-51.8-17.8-35.6c-9.2-20.5-17.3-36.1-17.3-36.7s96.5-0.5 215.7-0.5 215.7 0 215.7 0.5-8.1 16.7-17.8 36.7l-17.8 35.6v51.8c-0.5 57.2-0.5 58.2-6.5 79.3-15.1 54.5-56.1 99.8-109.5 120.8-9.7 3.2-29.1 9.2-37.2 9.7l-4.9 0.5v24.8h-44.8v-11.9zM282.4 313.867c18.3-3.8 37.2-11.9 51.8-22.7 9.7-7 23.7-21 30.7-30.2 9.7-13.5 17.8-30.2 21.6-46.9 3.8-15.1 3.8-21 3.8-75.5v-51.8l3.8-8.1c2.2-4.3 3.8-8.6 3.8-8.6s-63.6-0.5-142.4-0.5-142.9 0-142.9 0.5c0 0 1.6 3.8 3.8 8.6l3.8 8.1 0.5 56.1c0.5 54.5 0.5 57.2 2.2 65.3 6.5 28 18.9 50.7 38.3 70.1 21 20.5 47.5 33.4 77.7 37.8 9.5 0.5 33.3-0.1 43.5-2.2zM233.3-20.533v-22.1h44.8v44.8h-44.8v-22.7z" />
<glyph unicode="&#xe906;" glyph-name="icon-07" d="M185.6 381.867c-38.4-5.9-71.5-34.1-84.3-72-5.3-15.5-5.3-19.2-5.3-139.7s0-124.2 5.3-139.7c8.5-26.1 28.3-48.5 52.3-60.8 22.4-11.2 30.4-12.3 85.9-12.3h43.2v80.5h-80v-26.7h-3.7c-11.2 0-24.5 6.4-33.6 15.5-7.5 7.5-11.7 14.4-14.4 24.5-2.1 9.1-2.1 230.4 0 238.9 2.1 10.1 6.4 17.1 14.4 24.5 10.1 10.1 23.5 15.5 33.6 15.5h3.7v-26.7h80v80.6h-44.3c-30.4 0-46.4-1.1-52.8-2.1zM202.7 170.667v-26.7h53.3v53.3h-53.3v-26.6zM282.7 170.667v-26.7h53.3v53.3h-53.3v-26.6zM362.6 170.667v-26.7h53.4v53.3h-53.3v-26.6z" />
<glyph unicode="&#xe907;" glyph-name="icon-08" d="M229.3 357.267v-26.6h53.3v53.3h-53.3v-26.7zM182.4 370.667c-27.2-10.1-53.3-26.7-74.7-47.5-36.7-35.2-59.7-82.1-63.4-133.3-0.5-8-1.1-54.4-1.1-122.6v-109.8h106.6v133.7h-53.2l0.5 51.2c0.5 47.5 0.5 51.7 2.7 60.8 6.4 27.7 17.1 50.1 35.2 72 17.1 20.3 36.8 34.1 61.3 44.3 6.4 2.1 11.7 4.8 11.7 4.8 0.5 0.5-14.4 48.5-15.5 49.6-1 0-4.8-1.1-10.1-3.2zM314.7 366.867c-1.1-4.3-4.8-15.5-7.5-25.1-2.7-9.1-4.8-17.6-4.8-18.1s3.7-1.6 6.4-2.1c8.5-2.7 26.1-11.7 35.2-17.6 28.8-19.2 52.3-50.1 63.5-82.7 6.9-21.3 7.5-24.5 7.5-79.5l0.5-51.2h-53.3v-132.8h106.6v110c0 67.2-0.5 114.1-1.1 122.1-6.4 74.7-52.3 140.8-119.4 173.3-10.1 4.8-27.7 11.7-30.4 11.7-0.6 0-2.2-3.2-3.2-8z" />
<glyph unicode="&#xe908;" glyph-name="icon-09" d="M236.8 382.367c-36.8-6.9-69.3-34.1-81.1-70.4-8.5-25.6-6.9-57.1 5.3-80.5 7.5-14.9 20.3-30.9 34.1-40 8.5-6.4 24-13.3 34.7-16 8.5-2.1 10.7-2.1 26.7-2.7 16.5 0 18.1 0 26.7 2.7 37.3 10.1 66.1 38.4 76.3 76.3 2.1 8.5 2.1 10.7 2.1 26.7s0 18.1-2.1 26.7c-10.7 40-43.7 70.4-84.3 77.3-10.7 1.5-28.3 1.5-38.4-0.1zM397.8 359.967v-24h46.9v48h-46.9v-24zM269.9 335.467c19.7-3.7 37.9-22.4 43.7-42.7 1.1-3.7 1.6-9.6 1.6-15.5 0-17.1-5.3-29.3-17.1-41.6-11.7-11.7-25.1-17.1-41.6-17.1s-29.3 5.3-41.6 17.1c-12.3 11.7-17.1 24.5-17.1 41.6 0 10.7 1.1 16.5 6.4 26.7 2.7 6.4 5.3 9.6 10.7 15.5 14.4 14.9 33.1 20.8 55 16zM242.1 146.667c-1.6 0-6.9-1.1-11.7-1.6-25.6-2.1-55.5-13.9-78.9-29.3-50.1-33.6-80-86.4-84.3-148.2l-0.5-10.1h46.9l0.5 9.1c2.1 34.7 17.6 67.7 42.1 92.3 19.7 19.7 43.7 33.1 72 38.4 14.4 2.7 40.5 2.7 54.9 0 19.7-4.8 39.5-12.3 54.9-24 10.1-7.5 25.1-22.4 32.5-32 6.4-8.5 14.4-24 18.1-33.6 5.3-13.3 9.1-33.6 9.1-44.8v-4.8h47.5l-0.5 10.1c-2.7 46.4-20.3 87.5-52.3 120.5-28.8 30.9-67.2 50.1-107.7 57.1-9 0.9-36.7 2-42.6 0.9z" />
<glyph unicode="&#xe909;" glyph-name="icon-10" d="M373.3 362.667v-21.3h-42.7v-42.7h128.5v42.6h-42.7v42.7h-42.7v-21.3zM206.9 340.267c-33.6-6.4-62.4-30.9-73.6-64-8-23.5-6.4-51.2 4.8-73.1 6.9-13.9 18.7-27.2 30.9-35.7 8-5.9 21.9-11.7 31.5-14.9 7.5-2.1 9.6-2.1 24-2.1 14.9 0 16.5 0 24.5 2.1 34.1 9.6 59.2 34.7 68.3 68.3 2.1 7.5 2.1 9.6 2.1 24s0 16.5-2.1 24c-9.6 36.3-39.5 64-76.3 70.4-9.5 2.6-25.5 2.6-34.1 1zM236.8 298.067c17.6-3.2 34.7-19.7 39.5-38.4 1.1-3.2 1.6-8.5 1.6-13.9 0-15.5-4.8-26.7-15.5-37.9-10.7-10.7-22.4-15.5-37.9-15.5s-26.7 4.8-37.9 15.5c-10.7 10.7-15.5 22.4-15.5 37.3 0 9.6 1.1 14.9 5.9 24 2.7 5.9 4.8 8.5 9.6 13.9 13.4 13.4 29.9 18.8 50.2 15zM373.3 255.967v-21.3h42.7v42.7h-42.7v-21.4zM211.7 127.467c-1.1 0-6.4-0.5-10.7-1.1-23.5-2.7-50.1-12.8-71.5-26.7-45.3-30.4-72-77.9-76.3-133.3l-0.5-9.1h42.7l0.5 8c2.1 31.5 16 60.8 38.4 82.7 18.1 17.6 39.5 29.3 65.1 34.1 13.3 2.7 36.3 2.7 49.6 0 18.1-3.7 35.2-11.2 50.1-21.9 9.1-6.4 22.4-19.7 29.3-28.3 5.9-8 13.3-21.9 16.5-30.4 4.8-11.7 8-30.4 8-40.5v-3.7h42.7l-0.5 9.1c-2.7 42.1-18.7 78.9-46.9 108.2-26.7 27.2-60.8 44.8-98.1 50.7-8.5 2.2-33.6 3.3-38.4 2.2z" />
<glyph unicode="&#xe90a;" glyph-name="icon-11" d="M200.5 384.267c-41.2-2.6-80.7-20.8-110.1-50.2-25.1-26.2-41.2-58.3-46.5-95.1-1.6-10.7-1.6-35.8 0-46.5 7.5-50.8 36.9-95.7 81.2-121.8 52.9-31.5 119.7-31.5 172.1 0 4.8 2.7 9.6 5.9 11.2 7.5 1.6 1.1 3.2 2.1 3.7 2.1s16.6-16 36.3-35.3c19.2-19.2 35.8-35.3 36.3-35.3 1.1 0 33.7 32.1 33.7 33.7 0 0.5-16 17.1-35.8 36.3l-35.8 35.3 5.3 8c13.9 20.3 23 44.9 26.2 70 1.6 10.7 1.6 36.9 0 47-5.9 37.4-22.4 70.5-49.2 96.2-34 34.2-79.4 50.8-128.6 48.1zM222.4 335.667c52.9-5.3 95.7-43.3 107.4-95.7 2.1-11.2 2.7-31.5 1.1-43.3-3.7-23-13.9-44.4-28.3-60.9-24-27.3-55-41.7-91.4-41.7-20.3 0-37.4 3.7-55.6 13.4-15 7.5-31 20.3-40.6 34.2-35.3 47-31.5 114.9 10.2 157.1 23.5 24 49.7 35.3 85 37.4 0.4 0.6 6.3 0 12.2-0.5zM418.5 7.567l-16.5-16.6 34.2-34.2 16.6 16.6c9.1 9.1 16.6 17.1 16.6 17.6 0 1.1-32.1 33.7-33.7 33.7-0.1-0.6-8.1-8.1-17.2-17.1z" />
<glyph unicode="&#xe90b;" glyph-name="icon-12" d="M155.8 314.067l-98.1-70.4v-285.2h322.5v49.6h-273v210.5l73.6 52.2c40.5 29.3 74.1 52.2 75.2 52.2 0.5 0 34.7-24 75.2-52.2l73.6-52.2v-186.1h49.6v211.2l-98.6 70.4c-55 38.9-99.8 69.8-100.3 69.8-0.6 0.5-45.3-30.9-99.7-69.8zM404.7-17.533v-25.1h49.6v49.6h-49.6v-24.5z" />
<glyph unicode="&#xe90c;" glyph-name="icon-13" d="M42.7 170.667v-212.8h346.6v53.3h-293.3v318.9h320v-293.3h53.3v346.7h-426.6v-212.8zM148.8 170.667v-126.9l4.3 2.1 105.6 63.5c55.4 33.6 101.3 60.8 101.3 61.3 0 0-45.9 27.7-101.3 61.3l-105.1 62.9-4.3 2.1-0.5-126.3zM257.1 170.667c0-0.5-12.3-7.5-27.2-17.1l-27.2-16v66.1l27.2-16c14.9-9.5 27.2-17 27.2-17zM415.4-15.433v-26.7h53.3v53.3h-53.3v-26.6z" />
<glyph unicode="&#xe90d;" glyph-name="icon-14" d="M176 317.267l-48.5-32.5h-84.8v-228.8h84.3l48.5-32.5c26.7-17.6 48.5-32.5 49.1-32.5 0 0 0.5 81.1 0.5 179.2s0 180.2-0.5 180.2c-0.1 0-22.5-14.9-48.6-33.1zM270.9 261.867l-16-16 74.6-74.6-74.6-74.6 32-32 74.6 74.6 37.3-37.3c20.8-20.3 37.3-37.3 37.9-37.3 1.1 0 31.5 30.4 31.5 31.5 0 0.5-16.5 17.6-37.3 37.9l-36.3 37.3 29.8 29.8-2.1 1.6c-4.3 4.8-29.3 29.9-30.4 29.9-0.5 0-6.9-6.4-15.5-14.4l-14.4-14.4-37.3 37.3c-20.3 20.3-37.3 37.3-37.3 37.3s-7.4-8.1-16.5-16.6zM421.3 262.367l-16-16 32-32 16 16c9.1 9.1 16 16 16 16.5 0 1.1-30.4 31.5-31.5 31.5-0.5-0.5-8-8-16.5-16zM179.2 123.767v-46.9l-38.4 26.6h-51.7v135.5h52.2l38.4 26.6v-46.9c-0.5-26.7-0.5-69.3-0.5-94.9z" />
<glyph unicode="&#xe90e;" glyph-name="icon-15" d="M280.6 337.067v-24l9.1-0.5c26.1-1.6 52.8-11.2 73.6-26.7 9.6-6.9 25.1-21.9 32.5-32 17.6-24.5 27.2-54.4 27.2-83.7 0-22.9-5.3-45.3-17.1-66.1-6.9-13.3-14.4-22.9-25.6-34.1-18.7-18.7-40.5-31.5-66.7-37.9-9.6-2.1-22.4-4.3-29.3-4.3h-4.8v-47.5h3.7c7.5 0 25.1 2.1 35.2 4.3 34.7 6.9 66.7 24 92.3 48.5 75.7 73.6 78.4 193.1 5.9 268.8-33.6 35.2-77.4 54.9-127.5 58.7l-10.7 0.5 2.2-24zM181.4 323.167l-50.7-33.6h-88v-237.9h88l50.7-33.6c27.7-18.7 51.2-33.6 51.2-33.6s0.5 84.3 0.5 186.1-1.1 186.2-1.1 186.2c-0.5 0-23.4-14.9-50.6-33.6zM280.6 265.567v-24h4.3c7.5 0 18.7-2.7 27.2-6.9 14.4-6.9 26.1-18.7 33.1-33.1 9.1-19.7 9.1-42.1 0-61.9-11.2-22.4-33.1-37.9-57.1-40l-6.9-0.5v-47.5l7.5 0.5c24.5 2.1 44.3 9.1 63.5 22.9 17.6 12.8 33.6 34.1 41.1 54.9 9.1 26.7 9.1 57.6-0.5 82.7-13.9 35.7-44.8 63.5-81.1 72.5-6.9 1.6-21.3 4.3-26.7 4.3h-2.7l-1.7-23.9zM185.1 121.567v-48.5l-39.4 26.6h-54.5v142.5h53.3l39.4 26.6v-48.5c1.2-27.7 1.2-71.5 1.2-98.7zM280.6 170.667v-24h47.4v47.5h-47.5v-23.5z" />
<glyph unicode="&#xe90f;" glyph-name="icon-16" d="M244.8 382.967c-17.6-3.7-31.4-11.7-42.6-25-8.5-10.1-13.3-20.7-15.4-34.1-1.1-7.4-1.1-109.1 0-116.5 4.3-26.6 23.9-49.5 50-56.9 6.4-1.6 9-2.1 20.2-2.1s13.8 0.5 20.2 2.1c22.9 6.9 41 25.5 47.9 48.9 2.1 7.4 2.1 8 2.1 66.5 0 59.1 0 59.1-2.1 66.5-6.4 22.9-25.5 41.5-47.9 48.9-9 1.7-24.4 2.8-32.4 1.7zM265.6 335.167c5.9-2.1 9-6.4 12.2-11.7l2.1-4.8v-104.8l-2.1-4.8c-4.8-9-12.8-13.8-22.9-13.3s-18.6 7.4-21.3 17c-0.5 2.1-1.1 21.8-0.5 55.9v52.1l2.7 4.8c6.4 9.6 19.7 13.8 29.8 9.6zM115 210.667c1.6-18.6 5.3-34.1 11.2-48.9 13.3-31.4 37.2-56.4 68.6-71.8 6.9-3.7 23.9-9 31.9-11.2l5.9-1.1v-50h46.8v50l6.4 1.1c25 5.3 51.1 19.7 70.8 39.4 24.5 25 37.8 55.3 40.4 91l0.5 8h-46.8l-0.5-7.4c-1.1-14.9-6.9-32.5-15.4-44.7-5.9-8.5-18.1-20.7-26.6-26.1-14.4-10.1-34.6-15.4-52.1-15.4s-37.8 5.9-52.1 15.4c-8.5 5.9-20.7 18.1-26.6 26.6-8.5 13.3-15.4 34.6-15.4 47.9v4.3h-47.4l0.4-7.1zM232.6-18.133v-23.9h47.4v47.4h-47.4v-23.5z" />
<glyph unicode="&#xe910;" glyph-name="icon-17" d="M43.2 170.667v-212.2h345.8v53.2h-292.6v318h319.2v-292.6h53.2v345.8h-425.6v-212.2zM229.4 250.467v-26.6h53.2v53.2h-53.2v-26.6zM229.4 130.767v-66.5h53.2v133h-53.2v-66.5zM415-14.933v-26.6h53.2v53.2h-53.2v-26.6z" />
<glyph unicode="&#xe911;" glyph-name="icon-18" d="M155.5 195.567v-187.3h-49.9v249.9h-49.4v-299.8h399.5v49.9h-49.9v324.8h-49.8v-324.7h-49.9v124.6h-50.4v-124.7h-49.9v374.6h-49.8l-0.5-187.3zM255.7 183.367v-24.9h49.9v49.9h-49.9v-25z" />
<glyph unicode="&#xe912;" glyph-name="icon-19" d="M244.9 382.467c-19.1-1.6-32.4-4.8-47.2-10.6-55.8-20.7-96.7-71.6-105.7-131.1-1.6-11.1-1.6-38.7 0-47.2 1.6-11.7 5.8-25.5 9-34 11.1-28.1 30.8-55.2 53.1-71.6l6.4-4.8v-124.7h117.8v47.2h-69.5v103l-8 4.8c-40.9 23.4-64.2 63.7-62.6 108.8 1.1 31.3 12.7 56.8 34.5 78.5 17.5 17.5 36.1 27.1 60.5 32.4 11.1 2.1 34 2.1 45.1 0 47.2-10.6 82.8-45.6 93.4-93.4 2.1-11.7 2.1-36.1-0.5-47.8-7.4-33.4-28.1-60.5-60-79.1l-8-4.8v-79.6h47.2v53.1l6.4 4.8c32.4 24.9 56.3 65.3 63.2 107.7 1.6 9 1.6 37.2 0 47.2-9.6 58.9-48.8 109.3-103.5 130-11.1 4.2-23.4 7.4-34 9-8.5 2.2-30.7 3.3-37.6 2.2zM303.2-17.733v-23.9h47.2v47.3h-47.2v-23.4z" />
<glyph unicode="&#xe913;" glyph-name="icon-20" d="M43.2 289.767v-93.1h185.6v186.2h-185.6v-93.1zM282.6 289.767v-93.1h185.6v186.2h-185.6v-93.1zM175.7 289.767v-39.9h-79.3v79.8h79.8v-39.9zM415 289.767v-39.9h-79.3v79.8h79.8v-39.9zM43.2 51.567v-93.1h185.6v185.6h-185.6v-92.5zM282.6 51.567v-93.1h106.4v53.2h-53.2v79.3h79.8v-53.3h53.2v106.4h-186.2v-92.5zM175.7 51.567v-39.9h-79.3v79.3h79.8v-39.4zM415-14.933v-26.6h53.2v53.2h-53.2v-26.6z" />
<glyph unicode="&#xe914;" glyph-name="icon-21" d="M185.7 359.567v-23.9h-71.1v-377.2h211.7v47.2h-164.5v283.3h188.4v-259.5h47.2v306.2h-70.6v47.2h-141.1v-23.3zM350.2-17.133v-23.9h47.2v47.7h-47.2v-23.8z" />
<glyph unicode="&#xe915;" glyph-name="icon-22" d="M43.2 170.667v-185.6h345.8v53.2h-292.6v212.2h319.2v-185.6h53.2v238.2h-239.9v53.2h-185.7v-185.6zM415 11.667v-26.6h53.2v53.2h-53.2v-26.6z" />
<glyph unicode="&#xe916;" glyph-name="icon-23" d="M106.1 170.667v-212.2h299.8v424.4h-299.8v-212.2zM356 170.667v-161.8h-200.5v323.6h199.5v-161.8zM230.8 58.667v-24.9h49.9v49.9h-49.9v-25z" />
<glyph unicode="&#xe917;" glyph-name="icon-24" d="M106.1 170.667v-212.2h299.8v424.4h-299.8v-212.2zM355.5 170.667v-161.8h-199.5v323.6h199.5v-161.8zM180.9 207.767v-24.9h50.4v50.4h-50.4v-25.5zM180.9 133.567v-24.9h149.6v50.4h-149.6v-25.5zM180.9 58.167v-24.9h99.8v50.4h-99.8v-25.5z" />
<glyph unicode="&#xe918;" glyph-name="icon-25" d="M382.3 353.967c-43.5-7.4-77.5-43.5-81.7-89.1l-1.1-9.6h-222.8v-268.5h357.1v267.9h-88.6v3.2c0 4.8 3.2 17 6.4 22.3 2.1 3.2 5.8 8 8 11.7 11.7 13.3 23.9 18 40.9 18 8 0 11.1 0 17.5-2.7 9.6-3.2 15.9-7.4 23.9-15.4 8.5-8.5 14.9-23.9 14.9-35v-3.2h44.6l-0.5 6.4c-2.7 30.2-15.9 56.2-39.3 72.7-13.8 10.1-28.1 17-43 19.1-9.8 3.2-26.8 3.2-36.3 2.2zM389.7 120.967v-89.1h-268.5v178.3h268.5v-89.2zM188.1 120.967v-22.3h44.6v44.6h-44.6v-22.3zM277.2 120.967v-22.3h44.6v44.6h-44.6v-22.3z" />
<glyph unicode="&#xe919;" glyph-name="icon-26" d="M236.4 353.767c-35.5-7.4-63.6-32.3-75.6-66.8-2.3-8.3-5.1-20.7-5.1-27.2v-4.1h-78.3v-268.8h357.3v268.2h-78.4l-0.5 8.3c-1.4 22.6-12.4 46.1-29 62.7-12.4 12.4-28.6 21.2-45.6 26.3-12.1 3.7-33.3 4.6-44.8 1.4zM271 309.467c8.8-1.8 17.5-6.9 24.4-14.8 10.1-10.1 14.8-20.7 16.1-35l0.5-4.1h-112l0.5 4.1c1.4 13.8 6.9 24.4 16.1 35 15.2 14.8 33.2 19.9 54.4 14.8zM390.9 121.367v-89h-269.3v178h268.3l1-89zM189.4 121.367v-22.6h44.7v44.7h-44.7v-22.1zM278.8 121.367v-22.6h44.7v44.7h-44.7v-22.1z" />
<glyph unicode="&#xe91a;" glyph-name="icon-27" d="M43.2 170.667c0-108.5 0-196.8 0.5-196.8 0 0 26.1 17 57.4 37.8l56.4 37.8h230.9v53.2h-246.8l-19.6-13.4c-11.2-6.9-20.7-13.8-22.3-14.9l-3.2-2.1v242.5h319.2v-185.6h53.2v238.3h-425.7v-196.8zM415 75.467v-26.6h53.2v53.2h-53.2v-26.6z" />
<glyph unicode="&#xe91b;" glyph-name="icon-28" d="M240.8 383.267c-1.6 0-7.5-0.5-13.3-1.6-13.3-1.6-35.7-6.9-49-12.8-64.4-25-111.3-79.4-128.9-145.4-4.3-19.2-6.4-31.4-6.4-52.7s1.1-33.6 6.4-52.7c21.3-82.6 88.9-144.3 173.1-157.6 65-10.7 132.1 10.7 180 56.5 85.2 81.5 88.4 216.2 6.9 300.9-32 34.1-74.6 56.5-120.9 63.9-10.1 1.5-41.5 2.5-47.9 1.5zM288.2 327.367c21.8-4.8 44.2-13.8 61.8-26.6 11.2-8 27.7-25 36.2-36.2 27.7-38.3 37.3-86.8 25.6-132.6-4.8-19.2-13.8-39.4-25.6-55.9-8-11.2-24.5-27.7-35.7-35.7-27.2-19.2-61.2-30.9-94.3-30.9-25.6 0-50.6 6.4-74.6 18.6-14.9 7.5-26.1 16.5-38.3 28.2-22.9 22.9-37.3 49.5-44.2 82-1.6 9.1-2.1 14.4-2.1 30.9s0.5 21.3 2.1 30.9c6.9 32.5 21.8 60.2 45.3 83.6 25 24.5 56.5 39.4 92.1 44.7 11.8 2.7 39.5 1.6 51.7-1zM230.2 277.767v-26.6h53.3v53.3h-53.3v-26.7zM230.2 210.667v-13.3h-107.1v-53.3h159.8v79.9h-53.3l0.6-13.3z" />
<glyph unicode="&#xe91c;" glyph-name="icon-29" d="M62.9 363.767l-19.1-19.1 173.2-173.2-86.6-86.6c-47.8-47.3-86.1-86.1-86.1-86.6s8.5-9.6 19.1-19.7l19.1-19.1 173.2 173.2 174.2-174.2 19.1 19.1c10.1 10.1 19.1 19.7 19.1 19.7 0 0.5-38.8 39.8-86.6 87.1l-87.1 87.1 113.6 113.6-19.7 19.7-19.7 20.2-56.6-56.8-56.3-57.4-86.6 86.1c-47.2 47.8-86.6 86-86.6 86-0.5 0-9.5-8.5-19.6-19.1zM408.7 363.767l-19.1-19.1 39.4-39.4 19.7 19.7 19.5 19.7-19.1 19.1c-10.6 10.6-19.7 19.1-19.7 19.1-1 0-10-8.5-20.7-19.1z" />
<glyph unicode="&#xe91d;" glyph-name="icon-30" d="M418.8 327.467l-16.5-16.5 33-33 33 33-15.9 16.5c-9 9-16.5 16.5-17 16.5-0.1-0.1-7.6-7.5-16.6-16.5zM270 178.667l-115.9-115.4-38.8 38.8c-21.3 21.3-39.3 38.8-39.9 38.8-1.1 0-32.4-31.4-32.4-32.4 0-0.5 25-25.5 55.3-56.3l55.3-55.3 264.6 264.6-16.5 16.5c-9 9-16.5 16.5-17 16.5 0.1-0.5-52-52.6-114.7-115.8z" />
<glyph unicode="&#xe91e;" glyph-name="icon-31" d="M229.4 290.367v-93.1h-186.2v-53.2h186.2v-105.9h53.2v105.4h186.2v53.2h-186.2v186.1h-53.2v-92.5zM229.4-14.933v-26.6h53.2v53.2h-53.2v-26.6z" />
<glyph unicode="&#xe91f;" glyph-name="icon-32" d="M43.2 170.367v-26.1h346.8v52.7h-346.8v-26.6zM416.1 170.367v-26.1h52.7v52.7h-52.7v-26.6z" />
<glyph unicode="&#xe920;" glyph-name="icon-33" d="M43.8 276.767v-26.5h53.1v53.1h-53.1v-26.6zM123.4 276.767v-26.5h344.9v53.1h-344.9v-26.6zM43.8 170.667v-26.5h53.1v53.1h-53.1v-26.6zM123.4 170.667v-26.5h344.9v53.1h-344.9v-26.6zM43.8 64.567v-26.5h53.1v53.1h-53.1v-26.6zM123.4 64.567v-26.5h344.9v53.1h-344.9v-26.6z" />
<glyph unicode="&#xe921;" glyph-name="icon-34" d="M96.64 170.667v-32h64v64h-64.64l0.64-32zM224 170.667v-32h64v64h-64v-32zM352 170.667v-32h64v64h-64v-32z" />
<glyph unicode="&#xe922;" glyph-name="icon-35" d="M43.2 277.567v-26.6h425.5v53.2h-425.5v-26.6zM43.2 170.667v-26.6h425.5v53.2h-425.5v-26.6zM43.2 63.767v-26.6h425.5v53.7h-425.5v-27.1z" />
<glyph unicode="&#xe923;" glyph-name="icon-36" d="M208.5 359.567v-23.9h-118v-47.3h23.9v-329.9h212v47.2h-164.7v283.2h188.6v-259.8h47.3v259.8h23.9v47.3h-118.5v46.7h-94.6v-23.3zM349.8-17.633v-23.9h47.2v47.8h-47.3v-23.9z" />
<glyph unicode="&#xe924;" glyph-name="icon-37" d="M229.5 374.367c-4.2-50.9-46.2-92.9-97.1-97.1l-8.5-0.5v-53.1l9 0.5c34 2.1 62.1 13.3 88.1 32.9l8.5 6.9v-226h53.1v225.6l8.5-6.9c26-19.6 54.1-30.8 88.1-32.9l9-0.5v53.1l-8.5 0.5c-17 1.1-36.6 8-50.4 17.5-10.1 6.4-23.3 20.2-29.7 30.2-10.2 14.3-17.6 38.7-17.6 53.6v4.8h-52l-0.5-8.6zM230-15.033v-26.5h53.1v53.1h-53.1v-26.6z" />
<glyph unicode="&#xe925;" glyph-name="icon-38" d="M149.1 294.867c-4.3-51.6-46.3-93.1-97.3-97.3l-8.5-0.5v-52.7h4.7c14.4 0 38.8-8 53.7-17.6 10.1-6.4 23.4-19.7 30.3-29.8 9-14.4 16.5-33.5 17.6-50.5l0.5-8.5h53.2l-0.5 9.6c-2.1 34-13.3 62.2-33 88.3l-6.9 8.5h226.6v53.2h-226.6l6.9 8.5c19.7 26.1 30.9 54.3 33 88.3l0.5 9h-53.2l-1-8.5zM415.6 170.367v-26.6h53.2v53.2h-53.2v-26.6z" />
<glyph unicode="&#xe926;" glyph-name="icon-39" d="M229.5 356.367v-26.5h53.1v53h-53.1v-26.5zM229.5 190.267v-113l-8.5 6.4c-26 19.6-53.1 30.2-89.1 32.9l-8.5 1.1v-53.1h4.8c14.3 0 38.7-8 53.6-17.5 10.1-6.4 23.3-19.6 30.2-29.7 9-14.3 16.4-33.4 17.5-50.4l0.5-8.5h52.5v4.8c0 13.3 6.9 36.1 15.4 50.4 7.4 13.3 22.8 27.6 36.1 36.1 13.3 8 37.1 14.9 49.9 14.9h4.8v53.1l-8.5-0.5c-34-2.7-61.5-12.7-88.1-32.4l-9.6-6.9v225.3h-53.1v-113z" />
<glyph unicode="&#xe927;" glyph-name="icon-40" d="M309.6 294.567c2.7-35.5 13.3-63.7 32.9-89.1l6.9-8.5h-225.5v-53.1h226l-6.9-9c-19.6-26-30.2-53.6-32.4-87.5l-0.5-8.5h53.1v4.8c0 12.7 6.9 36.6 14.9 49.9s22.3 28.1 35.5 35.5c14.3 8.5 37.1 15.4 50.4 15.4h4.2v52.5h-8.5c-24.9 2.1-48.3 13.3-66.3 31.3-10.6 10.6-17.5 20.7-23.3 34-4.2 10.6-8.5 27.6-8.5 35.5v4.8h-53.1l1.1-8zM43.8 170.367v-26.5h53.1v53.1h-53.1v-26.6z" />
<glyph unicode="&#xe928;" glyph-name="icon-41" d="M93.3 295.967c33-39 33-98.4 0-137.3l-5.7-6.4 37.5-37.5 6 6.7c22.6 25.5 34.5 53.3 39 85.6l1.1 10.9 159.8-159.8 37.5 37.5-159.3 159.5 10.9 1.1c32.2 4.5 60 16.5 85.6 39l6.7 6-37.5 37.5-6.4-5.7c-12.8-11.2-31.5-20.2-48-23.3-11.7-2.6-30.8-2.2-42.4 0.4-17.3 2.9-39.8 14.9-50.3 25.5l-3.4 3.4-36.8-36.8 5.7-6.3zM369 20.967l18.7-18.7 37.5 37.5-37.5 37.5-37.5-37.5 18.8-18.8z" />
<glyph unicode="&#xe929;" glyph-name="icon-42" d="M419.5 295.967c-33-39-33-98.4 0-137.3l5.7-6.4-37.6-37.6-6 6.7c-22.6 25.5-34.5 53.3-39 85.6l-1.1 10.9-159.8-159.8-37.6 37.6 159.5 159.5-10.9 1.1c-32.2 4.5-60 16.5-85.6 39l-6.7 6 37.6 37.6 6.4-5.7c12.8-11.2 31.5-20.2 48-23.3 11.7-2.6 30.8-2.2 42.4 0.4 17.3 2.9 39.8 14.9 50.3 25.5l3.4 3.4 36.8-36.8-5.8-6.4zM143.8 20.967l-18.7-18.7-37.5 37.5 37.5 37.5 37.5-37.5-18.8-18.8z" />
<glyph unicode="&#xe92a;" glyph-name="icon-43" d="M93.3 45.467c33 39 33 98.4 0 137.3l-5.7 6.4 37.5 37.5 6-6.7c22.6-25.5 34.5-53.3 39-85.6l1.1-10.9 159.8 159.8 37.5-37.5-159.3-159.5 10.9-1.1c32.2-4.5 60-16.5 85.6-39l6.7-6-37.5-37.5-6.4 5.7c-12.8 11.2-31.5 20.2-48 23.3-11.7 2.6-30.8 2.2-42.4-0.4-17.3-2.9-39.8-14.9-50.3-25.5l-3.4-3.4-36.8 36.8 5.7 6.3zM369 320.367l18.7 18.7 37.5-37.5-37.5-37.5-37.5 37.5 18.8 18.8z" />
<glyph unicode="&#xe92b;" glyph-name="icon-44" d="M419.5 45.467c-33 39-33 98.4 0 137.3l5.7 6.4-37.6 37.5-6-6.7c-22.6-25.5-34.5-53.3-39-85.6l-1.1-10.9-159.8 159.8-37.5-37.5 159.5-159.5-10.9-1.1c-32.2-4.5-60-16.5-85.6-39l-6.7-6 37.5-37.5 6.4 5.7c12.8 11.2 31.5 20.2 48 23.3 11.7 2.6 30.8 2.2 42.4-0.4 17.3-2.9 39.8-14.9 50.3-25.5l3.4-3.4 36.8 36.8-5.8 6.3zM143.8 320.367l-18.7 18.7-37.5-37.5 37.5-37.5 37.5 37.5-18.8 18.8z" />
<glyph unicode="&#xe92c;" glyph-name="icon-45" d="M240.9 382.467c-1.6 0-7.4-0.5-13.3-1.6-13.3-1.6-35.6-6.9-48.8-12.7-64.2-25-111.4-78.6-128.4-144.9-4.8-19.1-6.4-31.3-6.4-52.5s1.1-33.4 6.4-52.5c20.7-82.3 88.6-143.8 172.5-157.1 64.7-10.6 131.6 10.6 179.4 56.3 84.9 81.2 88.1 215.5 6.9 299.8-31.8 34-74.3 56.3-120.5 63.7-10.1 1.5-41.5 2.6-47.8 1.5zM287.6 327.267c21.8-4.8 44-13.8 61.6-26.5 11.1-8 27.6-24.9 36.1-36.1 27.6-38.2 37.1-86.5 25.5-132.1-4.8-19.1-13.8-39.3-25.5-55.7-8-11.1-24.4-27.6-35.6-35.6-27.1-19.1-61-30.8-93.9-30.8-25.5 0-50.4 6.4-74.3 18.6-14.9 7.4-26 16.5-38.2 28.1-22.8 22.8-37.1 49.4-44 81.7-1.6 9-2.1 14.3-2.1 30.8s0.5 21.2 2.1 30.8c6.9 32.4 21.8 60 45.1 83.3 24.9 24.4 56.3 39.3 91.8 44.6 12.1 2.1 39.2 1 51.4-1.1zM229.7 250.867v-26.5h53.1v53.1h-53.1v-26.6zM149.6 196.767l-18.6-18.6 62.6-62.6 62.6-62.1 62.1 62.1c34 34 62.1 62.6 62.1 63.1 0 1.1-35.6 36.6-36.6 36.6-0.5 0-20.2-19.6-44.6-43.5l-43-42.5-43.5 43.5c-23.9 23.9-43.5 43.5-44 43.5 0-1-8.5-8.9-19.1-19.5z" />
<glyph unicode="&#xe92d;" glyph-name="icon-46" d="M240.9-41.133c-1.6 0-7.4 0.5-13.3 1.6-13.3 1.6-35.6 6.9-48.8 12.7-64.2 24.9-111.4 78.5-128.4 144.9-4.8 19.1-6.4 31.3-6.4 52.5s1.1 33.4 6.4 52.5c20.7 82.3 88.6 143.9 172.4 157.1 64.7 10.6 131.6-10.6 179.4-56.3 84.9-81.2 88.1-215.5 6.9-299.8-31.8-34-74.3-56.3-120.5-63.7-10-1.5-41.4-2.6-47.7-1.5zM287.6 14.067c21.8 4.8 44 13.8 61.6 26.5 11.1 8 27.6 24.9 36.1 36.1 27.6 38.2 37.1 86.5 25.5 132.1-4.8 19.1-13.8 39.3-25.5 55.7-8 11.1-24.4 27.6-35.6 35.6-27.1 19.1-61 30.8-93.9 30.8-25.5 0-50.4-6.4-74.3-18.6-14.9-7.4-26-16.5-38.2-28.1-22.8-22.8-37.1-49.4-44-81.7-1.6-9-2.1-14.3-2.1-30.8s0.5-21.2 2.1-30.8c6.9-32.4 21.8-60 45.1-83.3 24.9-24.4 56.3-39.3 91.8-44.6 12.1-2.1 39.2-1 51.4 1.1zM229.7 90.467v26.5h53.1v-53.1h-53.1v26.6zM149.6 144.567l-18.6 18.6 62.6 62.6 62.6 62.1 62.1-62.1c34-34 62.1-62.6 62.1-63.1 0-1.1-35.6-36.6-36.6-36.6-0.5 0-20.2 19.6-44.6 43.5l-43 42.5-43.5-43.5c-23.9-23.9-43.5-43.5-44-43.5 0 1-8.5 8.9-19.1 19.5z" />
<glyph unicode="&#xe92e;" glyph-name="icon-47" d="M467.8 155.567c0-1.6-0.5-7.4-1.6-13.3-1.6-13.3-6.9-35.6-12.7-48.8-24.9-64.2-78.5-111.4-144.9-128.4-19.1-4.8-31.3-6.4-52.5-6.4s-33.4 1.1-52.5 6.4c-82.3 20.7-143.9 88.6-157.1 172.4-10.6 64.7 10.6 131.6 56.3 179.4 81.2 84.9 215.5 88.1 299.8 6.9 34-31.8 56.3-74.3 63.7-120.5 1.5-10 2.6-41.4 1.5-47.7zM412.6 202.267c-4.8 21.8-13.8 44-26.5 61.6-8 11.1-24.9 27.6-36.1 36.1-38.2 27.6-86.5 37.1-132.1 25.5-19.1-4.8-39.3-13.8-55.7-25.5-11.1-8-27.6-24.4-35.6-35.6-19.1-27.1-30.8-61-30.8-93.9 0-25.5 6.4-50.4 18.6-74.3 7.4-14.9 16.5-26 28.1-38.2 22.8-22.8 49.4-37.1 81.7-44 9-1.6 14.3-2.1 30.8-2.1s21.2 0.5 30.8 2.1c32.4 6.9 60 21.8 83.3 45.1 24.4 24.9 39.3 56.3 44.6 91.8 2.1 12.1 1 39.2-1.1 51.4zM336.2 144.367h-26.5v53.1h53.1v-53.1h-26.6zM282.1 64.267l-18.6-18.6-62.6 62.6-62.1 62.6 62.1 62.1c34 34 62.6 62.1 63.1 62.1 1.1 0 36.6-35.6 36.6-36.6 0-0.5-19.6-20.2-43.5-44.6l-42.5-43 43.5-43.5c23.9-23.9 43.5-43.5 43.5-44-1 0-8.9-8.5-19.5-19.1z" />
<glyph unicode="&#xe92f;" glyph-name="icon-48" d="M44.2 155.567c0-1.6 0.5-7.4 1.6-13.3 1.6-13.3 6.9-35.6 12.7-48.8 24.9-64.2 78.5-111.4 144.9-128.4 19.1-4.8 31.3-6.4 52.5-6.4s33.4 1.1 52.5 6.4c82.3 20.7 143.8 88.6 157.1 172.5 10.6 64.7-10.6 131.6-56.3 179.4-81.2 84.9-215.5 88.1-299.8 6.9-34-31.8-56.3-74.3-63.7-120.5-1.5-10.1-2.6-41.5-1.5-47.8zM99.4 202.267c4.8 21.8 13.8 44 26.5 61.6 8 11.1 24.9 27.6 36.1 36.1 38.2 27.6 86.5 37.1 132.1 25.5 19.1-4.8 39.3-13.8 55.7-25.5 11.1-8 27.6-24.4 35.6-35.6 19.1-27.1 30.8-61 30.8-93.9 0-25.5-6.4-50.4-18.6-74.3-7.4-14.9-16.5-26-28.1-38.2-22.8-22.8-49.4-37.1-81.7-44-9-1.6-14.3-2.1-30.8-2.1s-21.2 0.5-30.8 2.1c-32.4 6.9-60 21.8-83.3 45.1-24.4 24.9-39.3 56.3-44.6 91.8-2.1 12.1-1 39.2 1.1 51.4zM175.8 144.367h26.5v53.1h-53.1v-53.1h26.6zM229.9 64.267l18.6-18.6 62.6 62.6 62.1 62.6-62.1 62.1c-34 34-62.6 62.1-63.1 62.1-1.1 0-36.6-35.6-36.6-36.6 0-0.5 19.6-20.2 43.5-44.6l42.5-43-43.5-43.5c-23.9-23.9-43.5-43.5-43.5-44 1 0 8.9-8.5 19.5-19.1z" />
<glyph unicode="&#xe930;" glyph-name="icon-49" d="M130.4 368.067c3.5-53.1 20.5-98.3 50.9-138 11.3-14.9 33.3-38.2 48.1-48.8 6.4-5.7 12-9.9 12-9.9s-5.7-5.7-12-9.9c-14.9-11.3-36.8-33.3-48.1-48.8-29.7-41-46.7-84.2-50.9-139.4l-0.7-14.9h84.9v7.1c0 23.3 12.7 62.3 27.6 86.3 9.9 15.6 32.5 38.2 48.1 48.1 23.3 16.3 62.3 28.3 86.3 28.3h7.1v84.2l-13.4 0.7c-62.3 5-118.9 45.3-142.9 104-7.1 17-14.1 45.3-14.1 58.7v7.1h-84.9l2-14.8z" />
<glyph unicode="&#xe931;" glyph-name="icon-50" d="M381.6 368.067c-3.5-53.1-20.5-98.3-50.9-138-11.3-14.9-33.3-38.2-48.1-48.8-6.4-5.7-12-9.9-12-9.9s5.7-5.7 12-9.9c14.9-11.3 36.8-33.3 48.1-48.8 29.7-41 46.7-84.2 50.9-139.4l0.7-14.9h-84.9v7.1c0 23.3-12.7 62.3-27.6 86.3-9.9 15.6-32.5 38.2-48.1 48.1-23.3 16.3-62.3 28.3-86.3 28.3h-7.1v84.2l13.4 0.7c62.3 5 118.9 45.3 142.9 104 7.1 17 14.1 45.3 14.1 58.7v7.1h84.9l-2-14.8z" />
<glyph unicode="&#xe932;" glyph-name="icon-51" d="M43.8 257.467v-42.5h7.1c12.8 0 41.8-6.4 58.8-14.2 39.7-17 73.7-50.3 90-89.3 7.1-17.7 12-36.8 14.2-54.6l0.7-14.2h84.3v7.1c0 23.4 12.8 62.4 27.6 86.5 9.9 15.6 32.6 38.3 48.2 48.2 23.4 15.6 62.4 27.6 86.5 27.6h7.1v86.5l-14.2-0.7c-54.6-5-98.5-20.6-139.6-51-14.9-11.3-38.3-33.3-48.9-48.2-4.3-7.1-9.2-12.8-9.2-12.8s-5.7 5.7-9.9 12c-11.3 14.9-33.3 36.8-48.9 48.2-41.1 30.5-84.3 46.8-139.6 51l-14.2 0.7v-40.3z" />
<glyph unicode="&#xe933;" glyph-name="icon-52" d="M43.8 83.867v42.5h7.1c12.8 0 41.8 6.4 58.8 14.2 39.7 17 73.7 50.3 90 89.3 7.1 17.7 12 36.8 14.2 54.6l0.7 14.2h84.3v-7.1c0-23.4 12.8-62.4 27.6-86.5 9.9-15.6 32.6-38.3 48.2-48.2 23.4-15.6 62.4-27.6 86.5-27.6h7.1v-86.5l-14.2 0.7c-54.6 5-98.5 20.6-139.6 51-14.9 11.3-38.3 33.3-48.9 48.2-4.3 7.1-9.2 12.8-9.2 12.8s-5.7-5.7-9.9-12c-11.3-14.9-33.3-36.8-48.9-48.2-41.1-30.5-84.3-46.8-139.6-51l-14.2-0.7v40.3z" />
<glyph unicode="&#xe934;" glyph-name="icon-53" d="M234.8 381.567c-36.6-3.7-72.2-17.5-102.9-39.3-11.7-8-31.3-26.5-40.3-38.2-26-31.3-42.4-71.1-46.2-112-0.5-6.9-1.6-52-1.6-122v-111.4h106.1v132.7h-53.1v46.7c0 40.9 0 47.8 2.1 58.4 11.7 65.8 60 116.2 126.3 130.5 15.9 3.7 45.6 3.7 61 0 32.9-6.9 60-21.8 82.8-45.6 17-17.5 27.6-34 35.5-56.8 8-22.8 10.6-35.5 10.6-91.3v-41.9h-53.1v-132.1h106.1v108.2c0 64.7-0.5 113.5-1.1 120.4-1.6 17-4.8 32.9-10.1 49.3-31.1 94.5-123.4 154.5-222.1 144.4zM229.5 170.867v-26.5h53.1v53.1h-53.1v-26.6zM229.5 38.767v-79.6h53.1v158.7h-53.1v-79.1z" />
<glyph unicode="&#xe935;" glyph-name="icon-54" d="M326.7 331.067v-29.3l-140.4-88.2v27.6h-143.1v-142h142v29.2l140.4-88.2v-58.6h142v142h-141v-27.6l-59.4 36.7c-33 21.3-59.6 38.3-59.6 38.8s27.1 17.6 59.6 38.3l59 36.7v-27.6h70.2v47.3h-22.9v47.3h47.3v-23.4h47.9v69.7h-142v-28.7zM421.4 241.667v-23.4h47.3v47.3h-47.3v-23.9zM138.4 170.967v-23.4h-47.8v46.8h47.3v-23.4zM421.4 53.367v-23.4h-47.3v47.3h47.3v-23.9z" />
<glyph unicode="&#xe936;" glyph-name="icon-55" d="M43.2 223.767c0-75.4 0-136.5 0.5-136.5 0 0 20.7 13.3 45.7 30.3l45.7 30.3h57.4v-42.5h42.5v106.2h190.2v-151.4l-2.7 1.6c-1.1 0.5-9 5.8-18.1 12.2l-15.9 10.1h-132.8v-42.5h121.1l45.7-30.3c25-16.5 45.7-30.3 45.7-30.3s0.5 61.1 0.5 136.5v136.6h-149.2v106.3h-276.3v-136.6zM277 286.467v-31.3h-85v-63.8h-70.1l-15.9-10.1c-8.5-5.3-17-11.2-18.1-12.2l-2.1-2.1v151.4h191.2v-31.9zM192 63.367v-21.3h42.5v42.5h-42.5v-21.2z" />
<glyph unicode="&#xe937;" glyph-name="icon-56" d="M43.8 170.667v-212.2h424.5v424.4h-424.5v-212.2zM421 170.667v-165h-330v330h330v-165zM238.5 310.767c-31.3-5.8-56.8-27.1-69.5-56.2-3.7-9-5.8-18-7.4-29.2l-0.5-6.9h46.7l1.1 6.9c1.6 12.7 11.7 26.5 22.3 33.4 13.3 8.5 35 8 48.3-0.5 26-17 30.2-52 8.5-73.2-10.1-10.1-20.7-13.8-44-13.8h-11.7v-71.1h47.2v27.1l5.3 1.6c7.4 1.6 21.2 9.6 28.7 14.3 16.4 12.7 29.2 32.4 34.5 52 2.7 8.5 3.2 22.3 1.6 32.4-4.2 41.9-35 74.8-76.4 82.2-9.2 2.6-25.7 2.6-34.7 1zM232.1 52.867v-23.9h47.2v47.2h-47.2v-23.3z" />
<glyph unicode="&#xe938;" glyph-name="icon-57" d="M43.8 170.667v-212.2h353.4v47.2h-306.2v330h330v-306.7h47.2v353.9h-424.4v-212.2zM327.1 265.067v-23.9h47.2v47.2h-47.2v-23.3zM240.6 260.367c-21.2-3.7-42.4-16.4-55.2-32.9-7.4-9-13.3-21.2-17-32.4-2.7-8-2.7-9.6-2.7-24.9s0-17 2.7-24.9c9.6-30.8 31.3-52.5 62.6-62.6 8-2.7 9.6-2.7 24.9-2.7s17 0 24.9 2.7c15.9 4.8 28.7 12.2 39.3 22.8 11.1 11.1 18 23.9 22.8 39.3 2.7 8 2.7 9.6 2.7 24.9s0 17-2.7 24.9c-8 25.5-22.8 44-45.6 55.7-13.8 7.4-22.8 9-38.7 9.6-7.4 1-15.3 1-18 0.5zM264.5 213.667c11.7-1.1 25.5-12.2 30.8-24.4 12.2-26.5-4.2-57.8-33.4-62.1-13.3-1.6-26.5 2.7-36.6 12.2-21.8 20.7-16.4 57.8 11.1 71.1 6.9 3.2 15.9 5.3 21.2 4.2 1.6-0.5 4.2-1 6.9-1zM421-17.733v-23.9h47.2v47.3h-47.2v-23.4z" />
<glyph unicode="&#xe939;" glyph-name="icon-58" d="M43.8 170.667v-212.2h353.4v47.2h-117.3v141.1h47.2v47.2h-47.2v21.8c0 28.7-2.7 25.5 25.5 25.5h21.2v47.2l-25.5-0.5c-23.9-0.5-26-0.5-32.4-2.7-15.9-5.3-28.7-18-34-34-1.6-5.3-2.7-8-2.7-32.4l-0.5-25.5h-47.2v-47.2h47.2v-141.1h-140.5v330.6h330v-306.7h47.2v353.9h-424.4v-212.2zM421-17.733v-23.9h47.2v47.3h-47.2v-23.4z" />
<glyph unicode="&#xe93a;" glyph-name="icon-59" d="M43.2 170.667v-212.8h354.3v47.3h-306.9v330.9h330.9v-307.4h47.3v354.8h-425.6v-212.8zM278.3 239.767c-5.9-1.6-13.8-8-18.1-13.8-4.8-6.9-6.9-13.3-5.9-21.8l0.5-6.9h-3.7c-1.6 0-6.9 0.5-10.1 1.1-20.2 3.7-38.3 13.8-53.7 28.7l-6.9 6.9-1.6-2.7c-5.3-13.8-3.2-29.3 7.4-39.4 4.3-4.3 4.3-4.3 1.6-4.3s-5.3 1.1-11.2 3.2c-1.6 0.5-1.6 0.5-1.1-4.3 0.5-6.9 5.3-16 10.1-20.7 2.7-2.7 6.9-5.3 10.1-7.4l6.9-3.2-3.7-0.5c-2.7-0.5-5.9-0.5-8 0-3.2 0.5-3.2 0.5-2.7-1.6 4.3-11.2 14.4-19.7 26.6-21.8l5.3-1.1-4.3-3.2c-11.2-7.4-24.5-11.7-38.3-11.7-10.1 0-10.1 0 2.7-5.9 29.3-13.8 68.1-12.2 94.7 4.3 29.3 17.6 47.3 47.9 50 84l0.5 9.6 3.7 2.7c3.2 1.6 13.8 13.8 13.3 14.4 0 0-2.7-0.5-4.8-1.1-2.7-1.1-6.9-1.6-9-2.7l-4.8-1.1 4.3 4.3c3.7 3.7 9.6 12.2 9.6 13.8 0 0.5-3.2-0.5-5.9-2.7-3.7-1.6-8.5-3.7-11.2-4.3-4.8-1.1-4.8-1.1-8 1.6-5.9 4.8-12.8 8-21.8 8-5 1.2-9.3 1.2-12.5-0.4zM421.4-18.133v-23.9h47.3v47.3h-47.3v-23.4z" />
<glyph unicode="&#xe93b;" glyph-name="icon-60" d="M43.8 170.667v-212.2h353.4v47.2h-306.2v330h330v-306.7h47.2v353.9h-424.4v-212.2zM161.6 241.767v-23.9h47.2v47.2h-47.2v-23.3zM161.6 123.467v-71.1h47.2v142.2h-47.2v-71.1zM232.1 123.467v-71.1h47.8v45.6c0 44 0.5 45.6 2.7 49.3 7.4 13.8 23.9 14.3 30.8 1.1l3.2-4.8v-91.2h46.2l-0.5 49.3c-0.5 47.2-0.5 49.9-2.7 56.8-4.2 16.4-11.1 25.5-22.3 30.8-5.3 2.7-8.5 3.7-13.8 3.7-17 1.1-34.5-4.8-41.9-13.8l-1.1-3.2v18h-47.8v-70.6zM421-17.733v-23.9h47.2v47.3h-47.2v-23.4z" />
<glyph unicode="&#xe93c;" glyph-name="icon-61" d="M106.2 170.667v-212h224.2v49.8h-174.3v66.2h199.9v-40.8h49.8v259.3l-44.6 44.5-45 45h-210v-212zM280.7 295.767v-37.6h74.7v-48.8h-199.3v123.5h125.1v-37.1zM192.1 176.467c4.8-2.1 7.4-5.3 10.1-10.1 4.2-8.5 3.7-17.5-3.2-24.9-4.8-5.3-10.1-7.4-17.5-7.4h-6.4v-30.2h-14.8v37.1c0 20.1 0.5 37.1 0.5 37.6 0.5 0.5 6.9 0.5 14.3 0.5 10.7 0.1 13.8-1 17-2.6zM257.9 175.967c7.4-3.2 14.8-9.5 17.5-16.4 1.6-4.8 2.1-6.9 2.1-17.5 0-19.6-4.2-27.6-17-33.9-6.4-3.7-6.4-3.7-24.4-3.7l-17.5-0.5v37.6c0 20.1 0.5 37.1 0.5 37.6 0.5 0.5 7.4 0.5 16.4 0 13.9-1.1 17.6-1.6 22.4-3.2zM337.4 171.167v-6.9h-30.2v-14.8h24.4v-14.8h-24.4v-30.2h-14.3v74.2h44.6v-7.5zM175.2 156.367v-7.4h5.3c4.2 0 5.3 0.5 7.4 2.1 2.1 2.1 2.1 3.2 1.6 5.8-1.1 4.8-3.2 5.8-9 6.4l-5.3 0.5v-7.4zM234 140.967v-22.3l9 0.5c10.6 0.5 15.4 3.2 18 7.4 1.6 3.2 1.6 5.3 1.6 14.8s0 11.7-1.6 14.3c-4.2 5.8-6.9 6.9-17.5 6.9l-10.1 0.5v-22.3zM355.4-16.433v-24.9h49.8v49.8h-49.8v-24.9z" />
<glyph unicode="&#xe93d;" glyph-name="icon-62" d="M154.7 298.867l-34.7 34.6-27.2-27.2 34.6-34.6 27.3 27.2zM43.4 189.467h58v-38.6h-58v38.6zM236.7 381.767h38.6v-57h-38.6v57zM392 333.567l27.2-27.2-34.6-34.6-27.2 27.2 34.6 34.6zM357.3 41.467l34.6-34.8 27.2 27.2-34.8 34.6-27-27zM410.6 189.467h58v-38.6h-58v38.6zM256 286.067c-64 0-115.9-52-115.9-115.9 0-64 52-115.9 115.9-115.9s115.9 52 115.9 115.9c0 64-51.9 115.9-115.9 115.9zM256 92.867c-42.7 0-77.3 34.6-77.3 77.3s34.6 77.3 77.3 77.3 77.3-34.6 77.3-77.3c0-42.7-34.6-77.3-77.3-77.3zM236.7 15.567h38.6v-57h-38.6v57zM92.7 34.167l27.2-27.2 34.6 34.8-27.2 27.2-34.6-34.8z" />
<glyph unicode="&#xe93e;" glyph-name="buildings-bank" d="M469.3 277.367l-213.3 106.6-213.3-106.6v-85.3h426.7v85.3h-0.1zM426.7 234.667h-341.4v16.3l170.7 85.3 170.7-85.3v-16.3zM426.7 170.667h-42.7v-149.3h42.7zM42.7-0.033h362.7v-42.7h-362.7v42.7zM277.3 170.667h42.7v-149.3h-42.7v149.3zM85.3 170.667h42.7v-149.3h-42.7v149.3zM192 170.667h42.7v-149.3h-42.7v149.3zM426.7-0.033h42.7v-42.7h-42.7v42.7zM234.7 298.667h42.7v-42.7h-42.7v42.7z" />
<glyph unicode="&#xe93f;" glyph-name="buildings-building" d="M277.3 191.967h64v-42.7h-64v42.7zM277.3 106.667h64v-42.7h-64v42.7zM426.7 383.967h-362.7v-384h-42.7v-42.7h405.3v43.1h-21.3v-0.4h-298.6v341.4h298.7v-320h42.6v362.6zM277.3 277.367h64v-42.7h-64v42.7zM170.7 277.367h64v-42.7h-64v42.7zM170.7 106.667h64v-42.7h-64v42.7zM170.7 191.967h64v-42.7h-64v42.7zM448-0.033v-42.6h42.7v42.6z" />
<glyph unicode="&#xe940;" glyph-name="buildings-building1" d="M149.3 277.367h85.3v-42.7h-85.3v42.7zM149.3 191.967h85.3v-42.7h-85.3v42.7zM405.3 21.367h-85.3v341.3h-256v-341.3h-42.7v-42.7h405.3v42.7h-21.3zM277.4 21.367h-170.7v298.6h170.7v-298.6zM448 21.367v-42.7h42.7v42.7zM426.7 234.667h-64v-42.7h42.7v-149.3h42.6v192z" />
<glyph unicode="&#xe941;" glyph-name="buildings-factory" d="M213.3 405.367v-194.4l-149.3 66.4v-298.7h320v42.7h-277.3v190.3l149.3-66.4v188.2l149.3-81.5v-209.7h42.7v235.1zM405.3-21.733h42.7v42.7h-42.7z" />
<glyph unicode="&#xe942;" glyph-name="buildings-goverment" d="M448-21.333h42.7v42.7h-42.7zM426.7 298.667v64h-341.3v-64h-64v-42.7h21.3v-234.7h-21.4v-42.6h405.3v42.7h-64v149.3h-42.6v-149.3h-42.7v149.3h-42.7v-149.3h-42.6v149.3h-42.7v-149.3h-64v234.6h341.3v-213.3h42.7v213.3h21.3v42.7h-63.9zM384 298.667h-256v21.3h256v-21.3z" />
<glyph unicode="&#xe943;" glyph-name="buildings-home" d="M341.3 106.667h42.7v-42.7h-42.7v42.7zM341.3 277.367h42.7v-42.7h-42.7v42.7zM341.3 191.967h42.7v-42.7h-42.7v42.7zM256 277.367h42.7v-42.7h-42.7v42.7zM426.7 21.367h42.7v-42.7h-42.7v42.7zM448.1 362.667h-320.1v-118.2l-78-68c-2.3-2-4.1-4.5-5.4-7.2-1.3-2.8-1.9-5.8-1.9-8.8v-181.6h363.3v42.7h-107.3v138.7c0 3-0.7 6.1-1.9 8.8-1.3 2.8-3.1 5.2-5.4 7.2l-106.7 93c-4 3.5-9 5.3-14 5.3v45.4h256v-277.3h42.7v320h-21.3zM255.9 150.567v-129.2h-63.9v85.3h-42.7v-85.3h-64v129.2l85.3 74.4 85.3-74.4z" />
<glyph unicode="&#xe944;" glyph-name="buildings-home0" d="M384-21.333h42.6v42.7h-42.6zM490.6 191.967l-220.2 200.3c-3.9 3.6-9 5.6-14.4 5.6s-10.4-2-14.4-5.6l-220.3-200.3h64v-213.3h277.3v42.7h-234.6v210l128 116.3 128-116.4v-188.6h42.6v149.3h64zM426.6 42.667h0.1v-21.3h-0.1v21.3z" />
<glyph unicode="&#xe945;" glyph-name="buildings-home1" d="M384-21.333h42.6v42.7h-42.6zM426.6 42.667h0.1v-21.3h-0.1v21.3zM490.6 191.967l-220.2 200.3c-3.9 3.6-9 5.6-14.4 5.6s-10.4-2-14.4-5.6l-220.3-200.3h64v-213.3h277.3v42.7h-234.6v210l128 116.3 128-116.4v-188.6h42.6v149.3h64zM170.7 106.667h170.7v-42.7h-170.7v42.7z" />
<glyph unicode="&#xe946;" glyph-name="buildings-home2" d="M426.6 42.667h0.1v-21.3h-0.1v21.3zM384-21.333h42.6v42.7h-42.6zM490.6 191.967l-220.2 200.3c-3.9 3.6-9 5.6-14.4 5.6s-10.4-2-14.4-5.6l-220.3-200.3h64v-213.3h277.3v42.7h-85.3v128h-42.7v-128h-106.6v210l128 116.3 128-116.4v-188.6h42.6v149.3h64z" />
<glyph unicode="&#xe947;" glyph-name="buildings-home3" d="M445.8 233.567c-1.4 2.9-3.5 5.5-6.1 7.5l-170.6 132.7c-3.7 2.9-8.4 4.5-13.1 4.5s-9.4-1.6-13.1-4.5l-170.7-132.7c-2.6-2-4.6-4.6-6.1-7.5-1.4-2.9-2.2-6.1-2.2-9.4v-245.5h320.1v42.7h-106.7v128h-42.7v-128h-128v192.4l149.4 116.2 149.3-116.1v-171.2h42.7v181.5c0 3.3-0.7 6.5-2.2 9.4zM405.3-21.333h42.7v42.7h-42.7z" />
<glyph unicode="&#xe948;" glyph-name="buildings-home4" d="M445.8 233.567c-1.4 2.9-3.5 5.5-6.1 7.5l-170.6 132.7c-3.7 2.9-8.4 4.5-13.1 4.5s-9.4-1.6-13.1-4.5l-170.7-132.7c-2.6-2-4.6-4.6-6.1-7.5-1.4-2.9-2.2-6.1-2.2-9.4v-245.5h320.1v42.7h-277.3v192.4l149.3 116.2 149.3-116.1v-171.2h42.7v181.5c0 3.3-0.7 6.5-2.2 9.4zM149.3 106.667h213.3v-42.7h-213.3v42.7zM405.3-21.333h42.7v42.7h-42.7z" />
<glyph unicode="&#xe949;" glyph-name="buildings-home5" d="M426.6 42.667h0.1v-21.3h-0.1v21.3zM490.6 191.967l-220.2 200.3c-3.9 3.6-9 5.6-14.4 5.6s-10.4-2-14.4-5.6l-220.3-200.3h64v-213.3h277.3v42.7h-234.6v210l128 116.3 128-116.4v-188.6h42.6v149.3h64zM384-21.333h42.6v42.7h-42.6zM218.3 197.667c-10-10-15.6-23.6-15.6-37.7s5.6-27.7 15.6-37.7 23.6-15.6 37.7-15.6 27.7 5.6 37.7 15.6 15.6 23.6 15.6 37.7c0 14.1-5.6 27.7-15.6 37.7s-23.6 15.6-37.7 15.6c-14.1 0-27.7-5.6-37.7-15.6z" />
<glyph unicode="&#xe94a;" glyph-name="buildings-home6" d="M384-21.333h42.6v42.7h-42.6zM426.6 42.667h0.1v-21.3h-0.1v21.3zM490.6 191.967l-220.2 200.3c-3.9 3.6-9 5.6-14.4 5.6s-10.4-2-14.4-5.6l-220.3-200.3h64v-213.3h277.3v42.7h-234.6v210l128 116.3 128-116.4v-188.6h42.6v149.3h64zM192 85.367h128v128h-128v-128zM234.7 170.667h42.7v-42.7h-42.7v42.7z" />
<glyph unicode="&#xe94b;" glyph-name="buildings-home7" d="M445.8 233.567c-1.4 2.9-3.5 5.5-6.1 7.5l-170.6 132.7c-3.7 2.9-8.4 4.5-13.1 4.5s-9.4-1.6-13.1-4.5l-170.7-132.7c-2.6-2-4.6-4.6-6.1-7.5-1.4-2.9-2.2-6.1-2.2-9.4v-245.5h320.1v42.7h-277.3v192.4l149.3 116.2 149.3-116.1v-171.2h42.7v181.5c0 3.3-0.7 6.5-2.2 9.4zM405.3-21.333h42.7v42.7h-42.7z" />
<glyph unicode="&#xe94c;" glyph-name="buildings-home8" d="M256 106.667c-17 0-33.3 6.7-45.3 18.7s-18.7 28.3-18.7 45.3h-42.7c0-28.3 11.2-55.4 31.2-75.4s47.1-31.2 75.4-31.2 55.4 11.2 75.4 31.2 31.2 47.1 31.2 75.4h-42.5c0-17-6.7-33.3-18.7-45.3s-28.3-18.7-45.3-18.7zM445.9 237.267c-1.4 2.9-3.4 5.5-6 7.5l-170.7 134.6c-3.8 3-8.4 4.6-13.2 4.6s-9.5-1.6-13.2-4.6l-170.7-134.7c-2.5-2-4.6-4.5-6-7.4s-2.1-6.1-2.1-9.3v-228c0-0.2 0-0.4 0-0.7v-20.6h320v42.7h-277.3v196.3l149.3 117.8 149.3-117.8v-175h42.7v185.3c0 3.2-0.7 6.4-2.1 9.3zM405.3-21.333h42.7v42.7h-42.7z" />
<glyph unicode="&#xe94d;" glyph-name="buildings-home9" d="M256 95.967c-14.1 0-27.7 5.6-37.7 15.6s-15.6 23.6-15.6 37.7h-42.7c0-25.5 10.1-49.9 28.1-67.9s42.4-28.1 67.9-28.1 49.9 10.1 67.9 28.1 28.1 42.4 28.1 67.9h-42.7c0-14.1-5.6-27.7-15.6-37.7-10-9.9-23.6-15.6-37.7-15.6zM384-21.333h42.6v42.7h-42.6zM426.6 42.667h0.1v-21.3h-0.1v21.3zM490.6 191.967l-220.2 200.3c-3.9 3.6-9 5.6-14.4 5.6s-10.4-2-14.4-5.6l-220.3-200.3h64v-213.3h277.3v42.7h-234.6v210l128 116.3 128-116.4v-188.6h42.6v149.3h64z" />
<glyph unicode="&#xe94e;" glyph-name="buildings-home10" d="M277.3 63.967h42.7c0 39.6-15.7 77.6-43.7 105.6s-66 43.7-105.6 43.7v-42.6c28.3 0 55.4-11.2 75.4-31.2s31.2-47.2 31.2-75.5zM426.6 42.667h0.1v-21.3h-0.1v21.3zM384-21.333h42.6v42.7h-42.6zM490.6 191.967l-220.2 200.3c-3.9 3.6-9 5.6-14.4 5.6s-10.4-2-14.4-5.6l-220.3-200.3h64v-213.3h277.3v42.7h-234.6v210l128 116.3 128-116.4v-188.6h42.6v149.3h64zM170.7 63.967h64c0 17-6.7 33.3-18.7 45.3s-28.3 18.7-45.3 18.7v-64z" />
<glyph unicode="&#xe94f;" glyph-name="buildings-hospital" d="M341.3-0.033v128h-170.6v-128h-64v341.4h298.7v-320h42.6v362.6h-384v-384h-42.7v-42.7h405.3v42.7h-85.3zM298.7-0.033h-85.3v85.3h85.3v-85.3zM277.3 170.667v42.7h42.7v42.6h-42.7v42.7h-42.6v-42.7h-42.7v-42.6h42.7v-42.7zM448-0.033h42.7v-42.7h-42.7v42.7z" />
<glyph unicode="&#xe950;" glyph-name="buildings-hotel" d="M149.3 106.667h42.7v-42.7h-42.7v42.7zM149.3 191.967h42.7v-42.7h-42.7v42.7zM362.7 149.367h-42.7v-128h-42.7v170.6h128v-149.3h42.7v192h-42.7v106.7c0 0.4 0 0.9-0.1 1.3v20h-341.2v-341.3h-21.3v-42.7h362.7v42.7h-42.7v128zM234.7 21.367h-128v298.6h256v-85.3h-128v-213.3zM149.3 277.367h42.7v-42.7h-42.7v42.7zM426.7 21.367v-42.7h42.6v42.7z" />
<glyph unicode="&#xe951;" glyph-name="buildings-house" d="M328.3 215.867l-21.1-12.2c-8.4 7.9-18.6 13.9-30 17.3v24.4h-42.7v-24.4c-11.2-3.3-21.5-9.3-30-17.3l-21.1 12.2-21.3-36.9 21.1-12.2c-2.7-11.4-2.7-23.2 0-34.6l-21.1-12.2 21.3-36.9 21.1 12.2c8.5-8 18.7-14 30-17.3v-24.4h42.7v24.4c11.2 3.3 21.5 9.3 30 17.3l21.1-12.2 21.3 36.9-21.1 12.2c2.7 11.4 2.7 23.2 0 34.6l21.1 12.2-21.3 36.9zM286.5 136.867c-1.7-4-4.1-7.5-7.2-10.5s-6.8-5.3-10.8-6.9c-4-1.5-8.3-2.2-12.6-2.1-8.3 0.3-16.1 3.8-21.9 9.8-5.7 6-9 13.9-9 22.2s3.2 16.2 9 22.2 13.6 9.5 21.9 9.8c4.3 0.2 8.6-0.6 12.6-2.1s7.7-3.9 10.8-6.9 5.6-6.6 7.2-10.5c1.7-4 2.5-8.2 2.5-12.5 0.1-4.3-0.8-8.5-2.5-12.5zM384-21.333h42.6v42.7h-42.6zM426.6 42.667h0.1v-21.3h-0.1v21.3zM490.6 191.967l-220.2 200.3c-3.9 3.6-9 5.6-14.4 5.6s-10.4-2-14.4-5.6l-220.3-200.3h64v-213.3h277.3v42.7h-234.6v210l128 116.3 128-116.4v-188.6h42.6v149.3h64z" />
<glyph unicode="&#xe952;" glyph-name="buildings-pagoda" d="M78 253.867c13.7-12.4 31.5-19.2 50-19.2l260.1 0.1c17.7 1 34.6 8.2 47.4 20.5 12.9 12.3 20.9 28.7 22.8 46.4-10.3-3-21.1-3.8-31.6-2.2-10.6 1.5-20.7 5.3-29.7 11.1s-16.6 13.4-22.4 22.4-9.6 19.1-11.1 29.7h-214.9c-1.5-10.6-5.3-20.7-11.1-29.7s-13.4-16.6-22.4-22.4-19.1-9.6-29.7-11.1c-10.6-1.6-21.4-0.8-31.7 2.2 1.9-18.4 10.6-35.4 24.3-47.8zM147.4 281.267c13.3 10.5 24.1 23.7 31.8 38.7h153.6l3.1-5.8c8.5-14.5 20-27 33.7-36.7l0.3-0.2h-227.8l5.3 4zM490.2 189.567c-14.7-8.3-32.1-10.5-48.4-6-16.3 4.4-30.1 15.1-38.6 29.8h-294.4c-8.4-14.6-22.3-25.3-38.6-29.8-16.3-4.4-33.7-2.3-48.4 6.1-1.7-15.5 1.4-31.1 9-44.7s19.2-24.5 33.2-31.1v-135.2h149.3v42.7l0.1 3.2c0.8 10.7 5.6 20.8 13.5 28.1s18.3 11.4 29 11.4l3.2-0.1c10.7-0.8 20.8-5.6 28.1-13.5s11.4-18.3 11.4-29v-42.8h85.4v42.7h-42.7l-0.1 4.3c-1 20.8-9.6 40.4-24.2 55.3-14.5 14.9-34 23.9-54.7 25.5l-4.8 0.2-4.4-0.1c-44.2-2.1-79-35.9-82.2-78.9l-0.2-4.8v-1.5h-64v119.5l-12.6 6 2 0.8c11.8 5.2 22.5 12.4 31.7 21.4l1.6 1.7h253l1.6-1.7c9.2-9 19.9-16.2 31.7-21.4l2-0.9-12.5-6v-98.5h42.8v-21.3h-42.7v-42.7h42.7v135.6c14 6.7 25.6 17.6 33.2 31.1 7.6 13.6 10.7 29.2 9 44.6z" />
<glyph unicode="&#xe953;" glyph-name="buildings-pagoda1" d="M426.7 21.367v-0.1h-21.4v-42.6h42.7v42.6h-9.1zM350.5 282.567c-38.9 22.9-68.5 58.8-83.5 101.4v0h-21.9c-15.1-42.6-44.7-78.5-83.6-101.4s-84.6-31.4-129.2-24c1.7-20.3 9.8-39.5 23.2-54.9s31.3-26.1 51.1-30.6v-151.7h-42.6v-42.7h320v42.7h-234.7v149.3h213.3v-128h42.7v130.4c19.9 4.5 37.8 15.3 51.1 30.6 13.4 15.4 21.5 34.6 23.2 54.9-44.5-7.4-90.2 1.1-129.1 24zM390.1 213.367h-268.2l-14.4 4.1 7.6 1.6c55.6 12.4 104.8 44.7 138.5 90.8l2.3 3.3 2.3-3.3c35.1-48.2 87.3-81.1 145.8-92.3h0.2l-14.1-4.2z" />
<glyph unicode="&#xe954;" glyph-name="buildings-shop" d="M477 273.467l-57.6 99.9c-1.9 3.2-4.6 5.9-7.8 7.8s-6.9 2.9-10.7 2.9h-289.7c-3.7 0-7.4-1-10.7-2.9-3.2-1.9-5.9-4.6-7.8-7.8l-57.9-100.2c-8.7-14.5-13.5-31.5-13.5-49.2 0-15.8 3.9-31.3 11.3-45.3 7.4-13.9 18.2-25.8 31.3-34.6v-144.2h-21.2v-42.7h362.7v42.8h-298.7v128.6c14.7-1.6 29.5 0.1 43.4 5.1s26.4 13.2 36.6 23.9c9-9.4 19.7-16.8 31.6-21.9s24.7-7.7 37.7-7.7c13 0 25.8 2.6 37.7 7.7s22.7 12.5 31.6 21.9c10.2-10.7 22.7-18.8 36.6-23.9 13.9-5 28.7-6.8 43.4-5.1v0-107.2h42.7v122.8c20.5 13.7 35 34.8 40.4 58.8 5.4 24.1 1.3 49.3-11.4 70.5zM445.8 209.367c-2-7.1-5.5-13.6-10.2-19.3s-10.5-10.3-17.1-13.6c-6.6-3.3-13.8-5.2-21.1-5.6s-14.7 0.8-21.6 3.4c-6.9 2.6-13.2 6.6-18.4 11.7s-9.4 11.3-12.2 18.1c-7.2 17.9-32.4 17.9-39.6 0-4-9.9-10.8-18.4-19.6-24.4s-19.3-9.2-29.9-9.2-21.1 3.2-29.9 9.2c-8.8 6-15.7 14.5-19.6 24.4-7.2 17.9-32.4 17.9-39.6 0-6.9-11.6-17.9-20.1-30.8-23.9s-26.7-2.6-38.8 3.4c-12 6-21.4 16.3-26.2 28.8-4.8 12.6-4.6 26.5 0.4 38.9l51.9 89.9h265l51.7-89.5c3.8-6.3 6.3-13.3 7.2-20.6 1-7.2 0.4-14.6-1.6-21.7zM426.7-0.033h42.7v-42.7h-42.7v42.7z" />
<glyph unicode="&#xe955;" glyph-name="buildings-shop1" d="M64 362.667h384v-42.7h-384v42.7zM128 127.967h170.7v-64h-170.7v64zM448 298.667h-384l-21.3-106.7v-42.7h21.3v-149.3c0-5.7 2.2-11.1 6.2-15.1s9.4-6.2 15.1-6.2h298.7v42.7h-277.3v128h298.7v-106.7h42.6v106.7h21.3v42.7l-21.3 106.6zM86.2 191.967l12.8 64h314l12.8-64h-339.6zM405.3-21.333h42.7v42.7h-42.7z" />
<glyph unicode="&#xe956;" glyph-name="buildings-shop2" d="M405.3-0.033h42.7v-42.7h-42.7v42.7zM448 383.967h-405.3v-149.3c0-20.8 7.6-40.9 21.3-56.4v-199.6c0-5.7 2.2-11.1 6.2-15.1s9.4-6.2 15.1-6.2h298.7v42.7h-277.3v152c15.3-4 31.3-3.6 46.4 1s28.6 13.3 39 25.2c8-9.1 17.8-16.4 28.9-21.4 11-5 23-7.5 35.1-7.5s24.1 2.6 35.1 7.5c11 5 20.9 12.3 28.9 21.4 10.4-11.8 23.9-20.5 39-25.1s31.1-5 46.4-1.1v-130.7h42.5v156.9c13.3 15.1 21.3 34.8 21.3 56.4v149.3h-21.3zM414.2 204.467c-8-8-18.9-12.5-30.2-12.5s-22.2 4.5-30.2 12.5-12.5 18.9-12.5 30.2c0 5.7-2.2 11.1-6.2 15.1s-9.4 6.2-15.1 6.2-11.1-2.2-15.1-6.2-6.2-9.4-6.2-15.1c0-11.3-4.5-22.2-12.5-30.2s-18.9-12.5-30.2-12.5c-11.3 0-22.2 4.5-30.2 12.5s-12.5 18.9-12.5 30.2c0 5.7-2.2 11.1-6.2 15.1s-9.4 6.2-15.1 6.2c-5.7 0-11.1-2.2-15.1-6.2s-6.2-9.4-6.2-15.1c0-11.3-4.5-22.2-12.5-30.2s-18.9-12.5-30.2-12.5c-11.3 0-22.2 4.5-30.2 12.5s-12.5 18.9-12.5 30.2v106.7h341.3v-106.7h0.1c0-11.3-4.5-22.2-12.5-30.2z" />
<glyph unicode="&#xe957;" glyph-name="business-Ad" d="M405.3 85.267v0 170.7h-42.7v-42.7h-21.3c-17 0-33.3-6.7-45.3-18.7s-18.7-28.3-18.7-45.3 6.7-33.3 18.7-45.3 28.3-18.7 45.3-18.7h64zM325 135.667c-3.5 4.2-5.3 9.5-4.9 14.9 0.3 5.4 2.7 10.5 6.7 14.3 4 3.7 9.2 5.8 14.6 5.8h21.3v-42.7h-21.3l-2.6 0.2c-5.4 0.6-10.3 3.3-13.8 7.5zM144.1 106.667h70.2l8.5-21.3h46l-68.2 170.7h-42.7l-68.3-170.7h46l8.5 21.3zM179.2 194.467l18-45.1h-36.1l18.1 45.1zM42.7-21.333h42.6v42.7h-42.6zM448 362.667h-405.3v-320h42.7v277.3h341.3v-298.7h-320v-42.6h362.6v384z" />
<glyph unicode="&#xe958;" glyph-name="business-at" d="M256 383.967c-117.8 0-213.3-95.5-213.3-213.3s95.5-213.3 213.3-213.3c17.7 0 35.1 2.2 52.1 6.4v44.4c-20.8-6.7-42.7-9.3-64.8-7.7-37.9 2.8-73.8 18.3-102 43.8-28.2 25.6-47 59.8-53.5 97.3s-0.3 76.1 17.7 109.6c17.9 33.5 46.6 60.1 81.4 75.5s73.7 18.7 110.6 9.5c36.9-9.2 69.6-30.6 93.1-60.5 23.4-30 36.1-66.9 36.1-105v-32c0-8.5-3.4-16.6-9.4-22.6s-14.1-9.4-22.6-9.4c-8.5 0-16.6 3.4-22.6 9.4s-9.4 14.1-9.4 22.6v117.3h-42.7c-16.4 12.3-36.1 19.6-56.6 21.1-20.5 1.4-41-3.1-58.9-13-18-9.9-32.7-24.8-42.4-42.9s-14-38.6-12.4-59.1 9.2-40 21.7-56.3c12.5-16.3 29.4-28.6 48.8-35.5 19.3-6.9 40.3-8.1 60.3-3.4s38.2 15.1 52.4 29.9c9-13.2 21.9-23.2 37-28.5s31.4-5.6 46.7-0.9c15.3 4.7 28.6 14.2 38.1 27s14.6 28.4 14.6 44.4v32c0 117.7-95.5 213.2-213.3 213.2zM301.3 125.367c-12-12-28.3-18.7-45.3-18.7s-33.3 6.7-45.3 18.7c-12 12-18.7 28.3-18.7 45.3s6.7 33.3 18.7 45.3c12 12 28.3 18.7 45.3 18.7s33.3-6.7 45.3-18.7c12-12 18.7-28.3 18.7-45.3s-6.7-33.3-18.7-45.3zM329.4 10.667h42.7v-42.7h-42.7v42.7z" />
<glyph unicode="&#xe959;" glyph-name="business-attachment" d="M405.3 138.667c0-36.8-14.6-72-40.6-98.1s-61.3-40.6-98.1-40.6c-36.8 0-72 14.6-98.1 40.6-26 26-40.6 61.3-40.6 98.1v117.3c0 22.6 9 44.3 25 60.3s37.7 25 60.3 25c22.6 0 44.3-9 60.3-25s25-37.7 25-60.3v-117.3c0-8.5-3.4-16.6-9.4-22.6s-14.1-9.4-22.6-9.4c-8.5 0-16.6 3.4-22.6 9.4s-9.4 14.1-9.4 22.6v117.3h-42.5v-117.3c0-19.8 7.9-38.8 21.9-52.8s33-21.9 52.8-21.9c19.8 0 38.8 7.9 52.8 21.9s21.9 33 21.9 52.8v117.3c0 33.9-13.5 66.5-37.5 90.5s-56.6 37.5-90.5 37.5c-33.9 0-66.5-13.5-90.5-37.5s-37.5-56.6-37.5-90.5v-117.3c0-48.1 19.1-94.2 53.1-128.2s80.1-53.1 128.2-53.1 94.2 19.1 128.2 53.1 53.1 80.1 53.1 128.2v139h-42.7v-139zM405.3 341.667v-42.7h42.7v42.7z" />
<glyph unicode="&#xe95a;" glyph-name="business-barchart" d="M192-21.333h128v384h-128v-384zM234.7 319.967h42.7v-298.7h-42.7v298.7zM426.7 21.367h-42.7v192h21.3v42.6h-64v-277.3h128v213.3h-42.6zM42.7-21.333h128v170.7h-128v-170.7zM85.3 106.667h42.7v-85.3h-42.7v85.3zM469.3 255.967h-42.6v-42.6h42.6v42.6z" />
<glyph unicode="&#xe95b;" glyph-name="business-barchart1" d="M426.7 21.367h-341.4v298.6h320v42.7h-341.3c-5.7 0-11.1-2.2-15.1-6.2s-6.2-9.4-6.2-15.1v-341.3c0-5.7 2.2-11.1 6.2-15.1s9.4-6.2 15.1-6.2h384c5.7 0 11.1 2.2 15.1 6.2s6.2 9.4 6.2 15.1v298.6h-42.7v-277.3zM320 213.367h42.7v-149.3h-42.7v149.3zM469.3 341.367v21.3h-42.6v-42.7h42.6v21.4zM234.7 277.367h42.7v-213.3h-42.7v213.3zM149.3 149.367h42.7v-85.3h-42.7v85.3z" />
<glyph unicode="&#xe95c;" glyph-name="business-briefcase" d="M426.6 255.967v-64h-63.9v42.7h-42.7v-42.7h-128v42.7h-42.7v-42.7h-64v85.3h320v42.7h-42.7v85.3h-213.2v-85.3h-106.7v-341.3h426.6v277.3h-42.7zM320 319.967h-128v42.7h128v-42.7zM426.4 21.567v-0.2h-341.1v128h341.3v-127.8h-0.2zM469.3 298.667v21.3h-42.6v-42.6h42.6z" />
<glyph unicode="&#xe95d;" glyph-name="business-briefcase1" d="M469.3 298.667v21.3h-42.6v-42.6h42.6zM426.6 256.067v-234.5h-0.2v-0.2h-63.7v256h42.7v42.7h-42.7v64c0 0.7 0 1.4-0.1 2.1v19.1h-19.1c-0.7 0.1-1.4 0.1-2.1 0.1h-170.7c-0.7 0-1.4 0-2.1-0.1h-19.2v-85.2h-85.4c-0.7 0-1.4 0-2.1-0.1h-19.2v-341.3h42.7v0.1l383.9-0.1v277.4h-42.7zM149.3 21.367h-64v256h64v-256zM320 21.367h-128v256h128v-256zM320 319.967h-128v42.7h128v-42.7z" />
<glyph unicode="&#xe95e;" glyph-name="business-briefcase2" d="M469.3 298.667v21.3h-42.6v-42.6h42.6zM426.6 255.967v-64h-106.6v42.7h-128v-42.7h-106.7v85.3h320v42.7h-42.7v85.3h-213.2v-85.3h-106.7v-341.3h426.6v277.3h-42.7zM320 319.967h-128v42.7h128v-42.7zM234.7 191.967h42.7v-64h-42.7v64zM426.4 21.567v-0.2h-341.1v128h106.7v-64h128v64h106.7v-127.8h-0.3z" />
<glyph unicode="&#xe95f;" glyph-name="business-briefcase3" d="M469.3 298.667v21.3h-42.6v-42.6h42.6zM426.6 256.067v-106.7h-42.6v128h21.3v42.7h-42.7v85.2h-19.2c-0.7 0.1-1.4 0.1-2.1 0.1h-170.6c-0.7 0-1.4 0-2.1-0.1h-19.2v-85.2h-85.4c-0.7 0-1.4 0-2.1-0.1h-19.2v-341.3h42.7v0.1l383.9-0.1v277.4h-42.7zM128 21.367h-42.7v85.3h42.7v-85.3zM128 149.367h-42.7v128h42.7v-128zM320 362.667v-42.7h-128v42.7h128zM170.6 277.367h170.7v-128h-64v21.3h-42.7v-21.3h-64v128zM341.4 21.367h-170.7v85.3h64v-21.3h42.7v21.3h64v-85.3zM426.4 21.567v-0.2h-42.4v85.3h42.7v-85.1h-0.3z" />
<glyph unicode="&#xe960;" glyph-name="business-briefcase4" d="M426.6 256.067v-128.1h-341.3v149.4h320v42.7h-42.7v85.2h-19.2c-0.7 0.1-1.4 0.1-2.1 0.1h-170.6c-0.7 0-1.4 0-2.1-0.1h-19.2v-85.2h-85.4c-0.7 0-1.4 0-2.1-0.1h-19.2v-341.3h42.7v0.1l383.9-0.1v277.4h-42.7zM320 319.967h-128v42.7h128v-42.7zM426.4 21.567v-0.2h-341.1v64h341.3v-63.8h-0.2zM469.3 298.667v21.3h-42.6v-42.6h42.6zM234.7 191.967h42.7v-42.7h-42.7v42.7z" />
<glyph unicode="&#xe961;" glyph-name="business-bubble" d="M341.334 85.333c35.349 0 64-28.65 64-64s-28.651-64-64-64-64 28.651-64 64 28.651 64 64 64zM128 170.667c47.147 0 85.334-38.187 85.334-85.334s-38.186-85.333-85.334-85.333-85.334 38.187-85.334 85.333 38.187 85.334 85.334 85.334zM341.334 42.667c-11.776 0-21.334-9.558-21.334-21.334s9.558-21.333 21.334-21.333 21.334 9.558 21.334 21.333-9.558 21.334-21.334 21.334zM128 128c-23.573 0-42.666-19.093-42.666-42.666s19.093-42.667 42.666-42.667 42.666 19.094 42.666 42.667-19.094 42.666-42.666 42.666zM309.334 384c64.81 0 117.334-52.522 117.334-117.334s-52.522-117.334-117.334-117.334-117.334 52.523-117.334 117.334 52.523 117.334 117.334 117.334zM309.334 341.333c-41.238 0-74.666-33.43-74.666-74.667s33.43-74.666 74.666-74.666 74.666 33.429 74.666 74.666-33.43 74.667-74.666 74.667z" />
<glyph unicode="&#xe962;" glyph-name="business-calendar" d="M234.7 149.367h42.7v-42.7h-42.7v42.7zM341.3 149.367h42.7v-42.7h-42.7v42.7zM128 149.367h42.7v-42.7h-42.7v42.7zM426.7 362.667h42.7v-42.7h-42.7v42.7zM426.7 298.667v-64h-341.4v85.3h64v-42.7h42.7v42.7h128v-42.7h42.7v42.7h42.7v42.7h-42.7v42.7h-42.7v-42.7h-128v42.7h-42.7v-42.7h-106.6v-383.9h426.6v319.9h-42.6zM85.3 191.967h341.3v-170.6h-341.3v170.6z" />
<glyph unicode="&#xe963;" glyph-name="business-calendar1" d="M426.7 255.967h-341.4v64h64v-21.3h42.7v21.3h128v-21.3h42.7v21.3h42.7v42.7h-42.7v42.7h-42.7v-42.7h-128v42.7h-42.7v-42.7h-106.6v-383.9h426.6v319.9h-42.6v-42.7zM426.6 21.367h-341.3v192h341.3v-192zM350.9 158.967l-30.1 30.1-75.4-75.4-45.3 45.3-30.2-30.2 75.4-75.4zM426.7 362.667h42.7v-42.7h-42.7v42.7z" />
<glyph unicode="&#xe964;" glyph-name="business-calendar2" d="M426.7 362.667h42.7v-42.7h-42.7v42.7zM426.7 234.667h-341.4v85.3h64v-42.7h42.7v42.7h128v-42.7h42.7v42.7h42.7v42.7h-42.7v42.7h-42.7v-42.7h-128v42.7h-42.7v-42.7h-106.6v-383.9h426.6v319.9h-42.6v-64zM85.3 21.367v170.6h341.3v-170.6h-341.3z" />
<glyph unicode="&#xe965;" glyph-name="business-calendar3" d="M469.3 341.367c0 0.2 0 0.4 0 0.7v20.5h-19.5c-0.6 0.1-1.2 0.1-1.8 0.1h-85.3v42.7h-42.7v-42.7h-128v42.7h-42.7v-42.7h-85.3c-0.6 0-1.2 0-1.8-0.1h-19.5v-20.6c0-0.2 0-0.4 0-0.7v-341.3c0-0.2 0-0.4 0-0.7v-20.6h426.6v20.7c0 0.2 0 0.4 0 0.7v341.3zM85.3 319.967h64v-42.7h42.7v42.7h128v-42.7h42.7v42.7h63.8v-0.3h0.2v-85h-341.4v85.3zM85.4 21.367v0 0l-0.1 170.7h341.3v-170.5h-0.2v-0.2h-341zM213.3 127.967h170.7v-42.7h-170.7v42.7zM128 127.967h42.7v-42.7h-42.7v42.7z" />
<glyph unicode="&#xe966;" glyph-name="business-cloud" d="M362.669-21.333h-213.333c-30.225-0.019-59.481 10.658-82.588 30.142-23.108 19.481-38.575 46.513-43.665 76.305-5.090 29.794 0.528 60.426 15.858 86.474s39.383 45.832 67.899 55.847c-0.966 20.189 2.176 40.363 9.237 59.302s17.892 36.246 31.838 50.876c13.946 14.63 30.717 26.276 49.296 34.233s38.581 12.060 58.792 12.060 40.214-4.103 58.793-12.060 35.349-19.603 49.297-34.233c13.945-14.63 24.776-31.938 31.838-50.876 7.059-18.938 10.202-39.113 9.235-59.302 28.517-10.016 52.57-29.799 67.899-55.847s20.947-56.68 15.857-86.474c-5.090-29.792-20.557-56.824-43.665-76.305-23.106-19.483-52.363-30.161-82.588-30.142zM362.669 234.668c0.007 14.229-2.835 28.315-8.358 41.43-5.521 13.114-13.611 24.991-23.791 34.932-10.183 9.94-22.248 17.743-35.493 22.95-13.241 5.206-27.392 7.709-41.617 7.364s-28.237-3.534-41.212-9.378c-12.974-5.844-24.648-14.224-34.334-24.647s-17.189-22.679-22.066-36.047c-4.877-13.367-7.031-27.575-6.334-41.787l1.494-31.745-29.952-10.538c-18.976-6.709-34.971-19.91-45.16-37.267s-13.92-37.758-10.531-57.598 13.678-37.846 29.052-50.835c15.374-12.992 34.843-20.135 54.97-20.166h213.333c15.71 0.006 31.111 4.347 44.51 12.546s24.275 19.936 31.43 33.922c7.155 13.984 10.31 29.673 9.12 45.336s-6.681 30.694-15.87 43.437c-9.186 12.742-21.711 22.701-36.197 28.778-14.486 6.080-30.368 8.041-45.897 5.673-15.529-2.37-30.101-8.982-42.114-19.104-12.010-10.122-20.997-23.365-25.965-38.267l-40.49 13.504c8.507 25.487 24.817 47.65 46.618 63.353 21.8 15.706 47.987 24.156 74.854 24.156z" />
<glyph unicode="&#xe967;" glyph-name="business-copyright" d="M256 384c117.76 0 213.333-95.574 213.333-213.333s-95.573-213.333-213.333-213.333-213.333 95.573-213.333 213.333 95.573 213.334 213.333 213.334zM256 341.333c-94.293 0-170.667-76.374-170.667-170.666s76.374-170.667 170.667-170.667 170.667 76.374 170.667 170.667-76.374 170.666-170.667 170.666zM256 277.333c38.827 0 72.81-20.757 91.478-51.797l-36.565-21.952c-5.753 9.595-13.925 17.513-23.693 22.966s-20.798 8.25-31.985 8.112-22.142-3.207-31.774-8.9-17.602-13.811-23.118-23.545-8.382-20.744-8.315-31.931c0.067-11.19 3.065-22.163 8.697-31.832s13.699-17.69 23.398-23.269c9.698-5.577 20.691-8.514 31.879-8.519 11.053-0.007 21.92 2.85 31.541 8.294 9.619 5.444 17.664 13.288 23.349 22.767l36.587-21.93c-11.99-20.024-30.216-35.563-51.885-44.231-21.668-8.67-45.583-9.993-68.075-3.763-22.492 6.227-42.32 19.663-56.443 38.245-14.123 18.579-21.761 41.28-21.742 64.619 0 58.88 47.786 106.666 106.667 106.666z" />
<glyph unicode="&#xe968;" glyph-name="business-creativecommon" d="M256 384c117.824 0 213.333-95.509 213.333-213.333s-95.51-213.333-213.333-213.333-213.333 95.51-213.333 213.333 95.51 213.334 213.333 213.334zM256 341.333c-45.263 0-88.673-17.981-120.68-49.987s-49.987-75.416-49.987-120.679c0-45.263 17.981-88.674 49.987-120.681 32.006-32.005 75.416-49.986 120.68-49.986s88.674 17.982 120.68 49.986c32.005 32.007 49.986 75.418 49.986 120.681s-17.982 88.673-49.986 120.68c-32.007 32.006-75.418 49.987-120.68 49.987zM192 256c23.573 0 44.906-9.558 60.352-25.024l-30.166-30.166c-5.965 5.971-13.566 10.037-21.841 11.689-8.276 1.65-16.856 0.809-24.655-2.417s-14.464-8.694-19.156-15.708c-4.691-7.014-7.197-15.264-7.2-23.703s2.497-16.689 7.183-23.708c4.686-7.019 11.349-12.49 19.144-15.721 7.796-3.232 16.375-4.079 24.653-2.437 8.278 1.645 15.881 5.707 21.85 11.673l30.166-30.144c-11.938-11.921-27.141-20.034-43.688-23.319s-33.697-1.594-49.283 4.862-28.91 17.385-38.288 31.407-14.391 30.511-14.405 47.381c0 47.104 38.23 85.334 85.333 85.334zM341.334 256c23.574 0 44.906-9.558 60.352-25.024l-30.166-30.166c-5.965 5.971-13.566 10.037-21.841 11.689-8.277 1.65-16.858 0.809-24.655-2.417s-14.464-8.694-19.155-15.708-7.198-15.264-7.2-23.703c-0.005-8.44 2.496-16.689 7.183-23.708s11.349-12.49 19.144-15.721c7.795-3.232 16.375-4.079 24.653-2.437 8.277 1.645 15.88 5.707 21.849 11.673l30.166-30.144c-11.938-11.921-27.14-20.034-43.688-23.319-16.546-3.286-33.696-1.594-49.282 4.862s-28.911 17.385-38.289 31.407-14.392 30.511-14.404 47.381c0 47.104 38.23 85.334 85.334 85.334z" />
<glyph unicode="&#xe969;" glyph-name="business-creativecommonsnd" d="M256 384c117.824 0 213.333-95.509 213.333-213.333s-95.51-213.333-213.333-213.333-213.333 95.51-213.333 213.333 95.51 213.334 213.333 213.334zM256 341.333c-45.263 0-88.673-17.981-120.68-49.987s-49.987-75.416-49.987-120.679c0-45.263 17.981-88.674 49.987-120.681 32.006-32.005 75.416-49.986 120.68-49.986s88.674 17.982 120.68 49.986c32.005 32.007 49.986 75.418 49.986 120.681s-17.982 88.673-49.986 120.68c-32.007 32.006-75.418 49.987-120.68 49.987zM341.334 149.333v-42.666h-170.667v42.666zM341.334 234.667v-42.666h-170.667v42.666z" />
<glyph unicode="&#xe96a;" glyph-name="business-creativecommonssa" d="M256 384c117.76 0 213.333-95.574 213.333-213.333s-95.573-213.333-213.333-213.333-213.333 95.573-213.333 213.333 95.573 213.334 213.333 213.334zM256 341.333c-94.186 0-170.667-76.48-170.667-170.666s76.48-170.667 170.667-170.667 170.667 76.48 170.667 170.667-76.48 170.666-170.667 170.666zM256 298.667c58.901 0 106.666-57.301 106.666-128s-47.766-128-106.666-128c-46.442 0-85.952 35.626-100.587 85.333l45.162-0.021c11.050-25.494 31.744-42.645 55.424-42.645 35.349 0 64 38.187 64 85.333s-28.651 85.334-64 85.334c-23.68 0-44.374-17.173-55.446-42.666h34.112l-53.334-64-53.334 64h27.392c14.656 49.707 54.166 85.333 100.608 85.333z" />
<glyph unicode="&#xe96b;" glyph-name="business-creativecommonszero" d="M256 384c117.76 0 213.333-95.574 213.333-213.333s-95.573-213.333-213.333-213.333-213.333 95.573-213.333 213.333 95.573 213.334 213.333 213.334zM256 341.333c-94.186 0-170.667-76.48-170.667-170.666s76.48-170.667 170.667-170.667 170.667 76.48 170.667 170.667-76.48 170.666-170.667 170.666zM256 298.667c58.901 0 106.666-57.301 106.666-128s-47.766-128-106.666-128-106.666 57.301-106.666 128 47.766 128 106.666 128zM305.6 224.597l-75.99-131.69c8.042-4.864 16.982-7.574 26.389-7.574 35.349 0 64 38.187 64 85.334 0 20.458-5.397 39.232-14.4 53.93zM256 256c-35.35 0-64-38.186-64-85.333 0-20.459 5.398-39.232 14.4-53.931l75.989 131.691c-7.932 4.903-17.065 7.524-26.389 7.573z" />
<glyph unicode="&#xe96c;" glyph-name="business-customerservice" d="M425.344 256h22.656c11.315 0 22.168-4.495 30.169-12.497s12.497-18.854 12.497-30.169v-85.334c0-11.317-4.495-22.169-12.497-30.169-8.002-8.002-18.855-12.497-30.169-12.497h-22.656c-5.201-41.243-25.274-79.173-56.454-106.666-31.178-27.495-71.32-42.667-112.889-42.667v42.667c33.947 0 66.505 13.485 90.509 37.489 24.007 24.007 37.491 56.563 37.491 90.511v127.999c0 33.947-13.485 66.505-37.491 90.509-24.005 24.005-56.561 37.49-90.509 37.49s-66.505-13.486-90.51-37.49-37.49-56.562-37.49-90.509v-149.333h-64c-11.316 0-22.169 4.495-30.17 12.497-8.002 8-12.497 18.853-12.497 30.17v85.333c0 11.315 4.495 22.168 12.497 30.169s18.854 12.497 30.17 12.497h22.656c5.206 41.239 25.281 79.162 56.46 106.652s71.318 42.658 112.884 42.658 81.704-15.168 112.883-42.658 51.255-65.413 56.461-106.652zM64 213.333v-85.334h21.334v85.334zM426.666 213.333v-85.334h21.334v85.334zM165.547 89.92l22.613 36.182c20.333-12.738 43.849-19.473 67.84-19.435 23.991-0.038 47.507 6.697 67.84 19.435l22.613-36.182c-27.108-16.986-58.464-25.969-90.454-25.92-31.989-0.049-63.344 8.935-90.454 25.92z" />
<glyph unicode="&#xe96d;" glyph-name="business-customerservice1" d="M469.3 170.667c0 117.8-95.5 213.3-213.3 213.3s-213.3-95.5-213.3-213.3v-106.7c0-11.3 4.5-22.2 12.5-30.2s18.9-12.5 30.2-12.5h64c11.3 0 22.2 4.5 30.2 12.5s12.5 18.9 12.5 30.2v85.3c0 11.3-4.5 22.2-12.5 30.2s-18.9 12.5-30.2 12.5h-62.7c5.2 41.2 25.3 79.2 56.5 106.7s71.3 42.7 112.9 42.7 81.7-15.2 112.9-42.7c31.2-27.5 51.3-65.4 56.5-106.7h-62.7c-11.3 0-22.2-4.5-30.2-12.5s-12.6-18.8-12.6-30.1v-85.3c0-11.3 4.5-22.2 12.5-30.2s18.9-12.5 30.2-12.5h52.6c-6.3-10.9-15-20.3-25.4-27.5s-22.2-12-34.7-14l13.6-40.8c28.5 6.3 54 22.1 72.3 44.8s28.3 51 28.3 80.2l-0.1 106.6zM149.3 149.367v-85.3h-64v85.3h64zM426.7 63.967h-64v85.3h64v-85.3zM234.7 127.967h42.7v-42.7h-42.7v42.7z" />
<glyph unicode="&#xe96e;" glyph-name="business-flag" d="M106.7 362.667h-42.7v-42.7h42.7zM426.7 319.967h-128l-15.4 30.9c-1.8 3.5-4.5 6.5-7.9 8.6s-7.2 3.2-11.2 3.2h-136.2v-42.6h123l21.3-42.7h133v-192h-101.6l-21.3 42.7h-175.7v170.6h-42.7v-341.3h42.7v128h149.3l15.4-30.9c1.8-3.5 4.5-6.5 7.9-8.6s7.2-3.2 11.2-3.2h157.4v277.3h-21.2z" />
<glyph unicode="&#xe96f;" glyph-name="business-global" d="M256-42.667c-117.824 0-213.333 95.51-213.333 213.334s95.51 213.333 213.333 213.333 213.333-95.51 213.333-213.333-95.51-213.333-213.333-213.333zM207.147 7.104c-21.048 44.644-33.24 92.945-35.904 142.23h-84.587c4.151-32.83 17.748-63.749 39.138-88.996s49.652-43.742 81.353-53.233zM213.974 149.333c3.221-52.032 18.090-100.906 42.026-144.042 24.582 44.275 38.942 93.493 42.026 144.043zM425.344 149.333h-84.587c-2.664-49.284-14.856-97.585-35.904-142.229 31.702 9.491 59.964 27.985 81.353 53.233 21.391 25.248 34.986 56.167 39.138 88.997zM86.656 192h84.587c2.664 49.285 14.857 97.585 35.904 142.229-31.701-9.491-59.964-27.984-81.353-53.233s-34.986-56.167-39.138-88.997zM213.994 192h84.011c-3.077 50.547-17.43 99.764-42.005 144.042-24.583-44.276-38.942-93.494-42.026-144.042zM304.853 334.229c21.048-44.644 33.24-92.945 35.904-142.229h84.587c-4.151 32.83-17.747 63.748-39.138 88.997-21.389 25.249-49.651 43.742-81.353 53.233z" />
<glyph unicode="&#xe970;" glyph-name="business-heart" d="M67.436 331.327c24.748 24.752 57.942 39.23 92.92 40.528s69.154-10.68 95.666-33.531c26.491 22.813 60.621 34.777 95.558 33.498 34.935-1.278 68.098-15.706 92.851-40.393s39.266-57.814 40.635-92.746c1.372-34.933-10.505-69.094-33.248-95.643l-165.654-166.187c-7.61-7.614-17.817-12.068-28.574-12.474-10.758-0.403-21.272 3.274-29.431 10.298l-2.346 2.154-165.631 166.208c-22.731 26.526-34.611 60.657-33.267 95.564s15.816 68.023 40.52 92.723zM97.601 301.162c-17.445-17.45-27.501-40.948-28.082-65.616s8.361-48.612 24.967-66.863l3.115-3.285 158.399-158.4 113.13 113.152-75.413 75.414-22.613-22.613c-5.942-5.946-12.997-10.663-20.762-13.88-7.763-3.219-16.088-4.877-24.49-4.879-16.976-0.005-33.258 6.735-45.264 18.737-12.006 12-18.754 28.278-18.757 45.254s6.736 33.257 18.736 45.263l44.842 44.864c-17.845 14.242-40.183 21.66-63.003 20.921s-44.632-9.585-61.519-24.953zM278.635 240.831c4.002 4 9.427 6.246 15.082 6.246 5.658 0 11.082-2.246 15.082-6.246l90.496-90.495 15.104 15.062c17.738 17.723 27.838 41.685 28.137 66.76s-9.224 49.27-26.534 67.413-41.033 28.793-66.093 29.673c-25.060 0.88-49.47-8.082-68.010-24.967l-3.264-3.115-67.882-67.882c-3.697-3.696-5.91-8.619-6.216-13.839s1.314-10.368 4.553-14.47l1.664-1.856c3.696-3.699 8.62-5.911 13.838-6.216 5.218-0.307 10.368 1.312 14.47 4.553l1.856 1.664z" />
<glyph unicode="&#xe971;" glyph-name="business-inbox" d="M234.7 213.367v-85.4h-64l85.3-85.3 85.3 85.3h-64v85.4zM469.2 42.667v234.7l-42.5 85.3h-341.4l-42.7-85.4v-277.2c0-0.7 0-1.4 0.1-2.1v-19.3h42.7v0.1h319.8v42.6h-320v213.3h341.3v-192h42.7zM90.4 277.367l21.3 42.7h288.6l21.3-42.7h-331.2zM426.7 21.367h42.7v-42.7h-42.7v42.7z" />
<glyph unicode="&#xe972;" glyph-name="business-inbox1" d="M469.2 42.667v277.1h0.1v42.9h-426.6v-384h42.7v0.1h319.9v42.6h-320v106.6h72.9c8.3-19 22-35.2 39.3-46.6 17.4-11.4 37.7-17.4 58.4-17.4s41.1 6.1 58.4 17.4c17.4 11.4 31 27.6 39.3 46.6h72.9v-85.3h42.7zM320 170.667c0-17-6.7-33.3-18.7-45.3s-28.3-18.7-45.3-18.7-33.3 6.7-45.3 18.7-18.7 28.3-18.7 45.3h-106.7v149.3l341.3-0.2v-149.1h-106.6zM426.7 21.367h42.7v-42.7h-42.7v42.7z" />
<glyph unicode="&#xe973;" glyph-name="business-linechart" d="M277.3 204.467l64-64 121.8 121.8-30.2 30.1-91.6-91.5-64 64-121.7-121.8 30.1-30.1zM106.7 362.667h-42.7v-384h320v42.7h-277.3zM448 21.367h-42.7v-42.7h42.7v42.7z" />
<glyph unicode="&#xe974;" glyph-name="business-mail" d="M257.5 120.867l169.1 151.5v-122.9h42.7v213.2h-19.2c-0.7 0.1-1.4 0.1-2.1 0.1h-384c-0.7 0-1.4 0-2.1-0.1h-19.2v-320h42.7v230l172.1-151.8zM416 319.967l-158.7-142.1-161.1 142.1h319.8zM448 42.667v64h-42.7v-64h-64v-42.7h64v-64h42.7v64h64v42.7zM106.7 21.367h192v-42.7h-192v42.7zM42.7 21.367h42.7v-42.7h-42.7v42.7z" />
<glyph unicode="&#xe975;" glyph-name="business-mail1" d="M480.8 93.067l-75.5-75.4-45.2 45.3-30.2-30.2 75.4-75.4 105.6 105.6zM257.5 120.867l169.1 151.5v-144.3h42.7v234.6h-426.6v-320h42.7v230l172.1-151.8zM416 319.967l-158.7-142.1-161.1 142.1h319.8zM106.7 21.367h192v-42.7h-192v42.7zM42.7 21.367h42.7v-42.7h-42.7v42.7z" />
<glyph unicode="&#xe976;" glyph-name="business-mail2" d="M257.5 120.867l169.1 151.5v-144.3h42.7v234.6h-426.6v-320h42.7v230l172.1-151.8zM416 319.967l-158.7-142.1-161.1 142.1h319.8zM106.7 21.367h213.3v-42.7h-213.3v42.7zM502.1 66.567l-30.2 30.2-45.2-45.3-45.3 45.3-30.2-30.2 45.3-45.2-45.3-45.3 30.2-30.2 45.3 45.3 45.2-45.3 30.2 30.2-45.3 45.3zM42.7 21.367h42.7v-42.7h-42.7v42.7z" />
<glyph unicode="&#xe977;" glyph-name="business-mail3" d="M257.5 120.867l169.1 151.5v-101.7h42.7v192h-426.6v-320h42.7v230l172.1-151.8zM416 319.967l-158.7-142.1-161.1 142.1h319.8zM426.7 42.667v85.3h-42.7v-85.3h-64l85.3-85.3 85.4 85.3zM106.7 21.367h170.7v-42.7h-170.7v42.7zM42.7 21.367h42.7v-42.7h-42.7v42.7z" />
<glyph unicode="&#xe978;" glyph-name="business-mail4" d="M106.7 21.367v-42.7h142.3c-6.4 13.5-10.8 27.9-12.9 42.7h-129.4zM459.4 118.067c-20 20-47.1 31.2-75.4 31.2s-55.4-11.2-75.4-31.2-31.2-47.1-31.2-75.4 11.2-55.4 31.2-75.4 47.1-31.2 75.4-31.2 55.4 11.2 75.4 31.2 31.2 47.1 31.2 75.4c0.1 28.3-11.2 55.4-31.2 75.4zM320.8 53.467c2.2 13.1 8.5 25.1 17.8 34.5 9.4 9.4 21.4 15.6 34.5 17.8s26.5 0.4 38.4-5.4l-85.3-85.3c-5.7 11.9-7.6 25.4-5.4 38.4zM447.1 31.867c-2.2-13.1-8.5-25.1-17.8-34.5-9.4-9.4-21.4-15.6-34.5-17.8s-26.5-0.4-38.4 5.4l85.4 85.3c5.7-12 7.6-25.4 5.3-38.4zM426.7 185.767c15.2-4.5 29.6-11.5 42.7-20.6v176.2c0 0.7 0 1.4-0.1 2.1v19.2h-426.6v-320h42.7v230.1l172.2-151.9 169.1 151.5v-86.6zM257.3 177.867l-161.1 142.1h319.8l-158.7-142.1zM42.7 21.367h42.7v-42.7h-42.7v42.7z" />
<glyph unicode="&#xe979;" glyph-name="business-mail5" d="M42.7 21.367h42.7v-42.7h-42.7v42.7zM448 362.667h-405.3v-320h42.7v230.1l172.2-151.9 169.1 151.5v-250.9h-320v-42.8h341.3c5.7 0 11.1 2.2 15.1 6.2s6.2 9.4 6.2 15.1v362.7h-21.3zM257.3 177.867l-161.1 142.1h319.8l-158.7-142.1z" />
<glyph unicode="&#xe97a;" glyph-name="business-mail6" d="M257.5 120.867l169.1 151.5v-122.9h42.7v213.2h-19.2c-0.7 0.1-1.4 0.1-2.1 0.1h-384c-0.7 0-1.4 0-2.1-0.1h-19.2v-320h42.7v230l172.1-151.8zM416 319.967l-158.7-142.1-161.1 142.1h319.8zM489.6 33.067l21.6 12.5-21.3 36.9-21.6-12.5c-5.9 5.1-12.8 9.1-20.3 11.7v25h-42.7v-25c-7.5-2.7-14.3-6.7-20.3-11.7l-21.6 12.5-21.3-36.9 21.6-12.5c-1.4-7.7-1.4-15.7 0-23.4l-21.6-12.5 21.3-36.9 21.6 12.5c6-5.1 12.8-9.1 20.3-11.7v-25h42.7v25c7.4 2.6 14.3 6.6 20.3 11.7l21.6-12.5 21.3 36.9-21.6 12.5c1.4 7.7 1.4 15.6 0 23.4zM441.8 6.267c-4-4-9.4-6.2-15.1-6.2s-11.1 2.2-15.1 6.2-6.2 9.4-6.2 15.1 2.2 11.1 6.2 15.1 9.4 6.2 15.1 6.2 11.1-2.2 15.1-6.2 6.2-9.4 6.2-15.1-2.2-11.1-6.2-15.1zM106.7 21.367h192v-42.7h-192v42.7zM42.7 21.367h42.7v-42.7h-42.7v42.7z" />
<glyph unicode="&#xe97b;" glyph-name="business-medal" d="M256.002 245.333l45.142-108.544 117.163-9.386-89.259-76.459 27.264-114.346-100.31 61.269-100.31-61.269 27.264 114.346-89.258 76.459 117.162 9.386zM256.002 134.251l-15.766-37.909-40.875-3.264 31.147-26.688-9.536-39.914 35.030 21.398 35.008-21.398-9.514 39.894 31.125 26.71-40.853 3.264zM170.668 384v-192h-42.666v192zM384.002 384v-192h-42.666v192zM277.336 384v-106.666h-42.666v106.666z" />
<glyph unicode="&#xe97c;" glyph-name="business-piechart" d="M234.667 415.083c7.040 0.618 14.144 0.917 21.333 0.917 135.488 0 245.333-109.845 245.333-245.333 0-7.19-0.298-14.293-0.918-21.334h-32.128c-10.709-107.798-101.675-192-212.288-192-117.824 0-213.333 95.51-213.333 213.334 0 110.613 84.203 201.578 192 212.267v32.17zM234.667 149.333v190.678c-43.035-5.476-82.371-27.133-110.012-60.57s-41.513-76.144-38.796-119.44c2.716-43.298 21.818-83.936 53.421-113.655s73.338-46.291 116.72-46.345c41.57 0 81.711 15.173 112.889 42.667 31.181 27.495 51.254 65.423 56.454 106.666zM457.558 192c-4.892 46.125-25.45 89.178-58.248 121.976s-75.851 53.358-121.976 58.248v-180.224z" />
<glyph unicode="&#xe97d;" glyph-name="business-piechart1" d="M256-42.667c-117.824 0-213.333 95.51-213.333 213.334 0 95.531 62.784 176.384 149.333 203.562v-45.312c-36.673-14.892-67.034-42.063-85.886-76.867s-25.028-75.076-17.468-113.928c7.56-38.855 28.385-73.873 58.912-99.067s68.861-39.002 108.442-39.055c34.001 0 67.228 10.154 95.419 29.159 28.194 19.004 50.074 45.993 62.831 77.509h45.312c-27.178-86.549-108.032-149.333-203.563-149.333zM468.267 149.333h-233.6v233.6c7.018 0.704 14.144 1.067 21.333 1.067 117.824 0 213.333-95.51 213.333-213.333 0-7.19-0.363-14.315-1.067-21.334zM277.334 340.011v-148.011h148.011c-4.749 37.597-21.869 72.547-48.666 99.344s-61.747 43.918-99.345 48.666z" />
<glyph unicode="&#xe97e;" glyph-name="business-printer" d="M469.2 213.367h-42.5v-149.3h-42.7v44.7h-256v-44.7h-42.7v170.6h320v42.7h-21.3v106.6h-256v-106.6h-85.3v-256h85.3v-64h255.9v64h85.5v42.7h-0.2v149.3zM341.4 277.367h-170.7v64h170.7v-64zM341.4 63.967v-64h-170.7v64h170.7zM106.7 213.367h64v-42.7h-64v42.7zM426.7 277.367h42.7v-42.7h-42.7v42.7z" />
<glyph unicode="&#xe97f;" glyph-name="business-profile" d="M128 106.667h256v-42.7h-256v42.7zM128 277.367v-128h128v128h-128zM213.3 191.967h-42.7v42.7h42.7v-42.7zM298.7 277.367h85.3v-42.7h-85.3v42.7zM298.7 191.967h85.3v-42.7h-85.3v42.7zM42.7 21.367h42.7v-42.7h-42.7v42.7zM448.2 362.667h-405.5v-320h42.7v277.3h341.3v-298.7h-320v-42.6h362.6v384z" />
<glyph unicode="&#xe980;" glyph-name="business-projector" d="M170.7 149.367h42.7v-42.7h-42.7v42.7zM106.7 149.367h42.7v-42.7h-42.7v42.7zM64 319.967h-42.7v-42.6h42.7zM490.6 281.567v38.4h-32.6c-23.4 26.2-57.4 42.7-95.3 42.7-18 0-35.8-3.8-52.3-11.1-16.4-7.4-31.1-18.1-43.1-31.5h-182v-42.7h156.6c-9.5-26.8-9.8-56-0.8-83 8.9-27 26.6-50.2 50.2-66.1 23.6-15.8 51.8-23.3 80.2-21.4 28.4 2 55.3 13.4 76.4 32.3v-75.3h-383.9v192h-42.7v-234.5h21.3v-42.7h42.7v42.7h341.3v-42.7h42.7v42.7h21.3v260.2zM423 174.367c-16-16-37.7-25-60.3-25s-44.3 9-60.3 25-25 37.7-25 60.3c0 22.6 9 44.3 25 60.3s37.7 25 60.3 25c22.6 0 44.3-9 60.3-25s25-37.7 25-60.3c0-22.6-9-44.3-25-60.3z" />
<glyph unicode="&#xe981;" glyph-name="business-projector1" d="M128 106.667h42.7v-42.7h-42.7v42.7zM85.3 362.667h-42.6v-42.7h42.6zM469.9 362.667h-363.2v-42.7h320v-106.7h-24c-4.7 18.3-15.4 34.5-30.4 46.1s-33.3 17.9-52.3 17.9-37.3-6.3-52.3-17.9-25.6-27.8-30.4-46.1h-152v85.4h-42.6v-320h426.6v345.6h0.6v38.4zM289.8 222.167c8 8 18.9 12.5 30.2 12.5s22.2-4.5 30.2-12.5 12.5-18.9 12.5-30.2c0-11.3-4.5-22.2-12.5-30.2s-18.9-12.5-30.2-12.5c-11.3 0-22.2 4.5-30.2 12.5s-12.5 18.9-12.5 30.2c0 11.3 4.5 22.2 12.5 30.2zM85.3 21.367v149.3h152c4.7-18.3 15.4-34.5 30.4-46.1s33.3-17.9 52.3-17.9 37.3 6.3 52.3 17.9c15 11.6 25.6 27.8 30.4 46.1h24v-149.3h-341.4z" />
<glyph unicode="&#xe982;" glyph-name="business-reply" d="M234.667 0l-213.333 170.667 213.333 170.666v-106.666c117.824 0 213.333-95.51 213.333-213.333 0-5.824-0.214-11.584-0.683-17.28-31.211 59.178-92.374 100.074-163.307 102.506l-6.678 0.106h-42.666zM192 149.333h86.058l7.402-0.149c27.413-0.918 53.846-6.613 78.421-16.341-31.296 36.224-77.589 59.158-129.216 59.158h-42.666v60.566l-102.358-81.898 102.358-81.899z" />
<glyph unicode="&#xe983;" glyph-name="business-send" d="M41.025 226.773c-10.88 4.374-10.752 10.88 0.725 14.698l407.168 135.723c11.286 3.754 17.75-2.56 14.592-13.611l-116.352-407.167c-3.2-11.286-10.134-11.798-15.296-1.494l-97.195 194.411zM145.345 231.039l120.234-48.106 64.853-129.75 75.648 264.746-260.757-86.891z" />
<glyph unicode="&#xe984;" glyph-name="business-sendmail" d="M0 106.667h170.7v-42.7h-170.7v42.7zM0 213.367h106.7v-42.7h-106.7v42.7zM469.3 342.867v19.8h-426.6v-53.3l213.3-192 170.7 153.6v-228.3h42.7v298.7c0 0.5-0.1 1-0.1 1.5zM256 174.767l-161.4 145.2h322.8l-161.4-145.2zM426.7-21.333h42.6v42.7h-42.6zM42.7 21.367v-42.7h362.7v42.7h-320z" />
<glyph unicode="&#xe985;" glyph-name="business-slideshow" d="M213.3 138.667l106.7 64-106.7 64zM85.3 362.667h-42.6v-42.7h42.6zM448 362.667h-341.3v-42.7h320v-234.7h-341.4v213.4h-42.6v-256h192v-42.7h-85.3v-42.7h213.3v42.7h-85.3v42.7h191.9v320z" />
<glyph unicode="&#xe986;" glyph-name="business-slideshow1" d="M213.3 106.667l106.7 64-106.7 64zM85.3 362.667h-42.6v-42.7h42.6zM448 362.667h-110.3c-8.8 24.9-32.5 42.7-60.4 42.7h-42.7c-13.2 0-26.2-4.1-37-11.7s-19-18.4-23.4-30.9h-67.6v-42.7h67.6c4.4-12.5 12.6-23.3 23.4-30.9s23.7-11.7 37-11.7h42.7c13.2 0 26.2 4.1 37 11.7s19 18.4 23.4 30.9h89v-298.7h-341.4v277.3h-42.6v-320h426.6v384h-21.3zM292.4 326.267c-4-4-9.4-6.2-15.1-6.2h-42.7c-5.7 0-11.1 2.2-15.1 6.2s-6.2 9.4-6.2 15.1 2.2 11.1 6.2 15.1 9.4 6.2 15.1 6.2h42.7c5.7 0 11.1-2.2 15.1-6.2s6.2-9.4 6.2-15.1-2.2-11.1-6.2-15.1z" />
<glyph unicode="&#xe987;" glyph-name="business-slideshow2" d="M277.3 127.967h106.7v-42.7h-106.7v42.7zM277.3 213.367h106.7v-42.7h-106.7v42.7zM106.7 362.667h362.7v-42.7h-362.7v42.7zM91.1 298.667h-48.4v-320h192v-42.7h42.7v42.7h191.9v320h-378.2zM426.6 21.367h-341.3v234.6h341.3v-234.6zM146.7 104.067c9-9 20.4-15 32.8-17.5s25.3-1.2 37 3.6 21.7 13 28.7 23.6c7 10.5 10.8 22.9 10.8 35.6h-64v64c-12.7 0-25-3.8-35.6-10.8-10.5-7-18.7-17-23.6-28.7-4.8-11.7-6.1-24.6-3.6-37s8.6-23.8 17.5-32.8zM85.3 362.667h-42.6v-42.7h42.6z" />
<glyph unicode="&#xe988;" glyph-name="business-unarchive" d="M469.2 42.667v234.7l-42.5 85.3h-341.4l-42.7-85.4v-298.6l362.6 0.1v42.6h-320v213.3h341.3v-192h42.7zM90.4 277.367l21.3 42.7h288.6l21.3-42.7h-331.2zM277.3 42.667v85.3h64l-85.3 85.4-85.3-85.4h64v-85.3zM426.7 21.367h42.7v-42.7h-42.7v42.7z" />
<glyph unicode="&#xe989;" glyph-name="business-voicemail" d="M304.147 106.667c-16.969 20.567-26.425 46.302-26.812 72.964-0.386 26.661 8.318 52.659 24.683 73.71s39.411 35.903 65.342 42.106c25.933 6.203 53.205 3.388 77.325-7.981s43.646-30.613 55.365-54.565c11.721-23.951 14.931-51.179 9.107-77.199s-20.337-49.28-41.147-65.95c-20.813-16.668-46.68-25.752-73.344-25.754h-277.334c-26.664 0.002-52.532 9.086-73.344 25.754-20.811 16.67-35.325 39.929-41.149 65.95s-2.612 53.248 9.107 77.199c11.72 23.951 31.246 43.196 55.365 54.565s51.391 14.183 77.323 7.981c25.933-6.203 48.979-21.053 65.343-42.106 16.363-21.052 25.069-47.050 24.683-73.71-0.388-26.662-9.843-52.397-26.812-72.964zM117.331 106.667c19.803 0 38.794 7.865 52.797 21.869s21.869 32.994 21.869 52.798-7.867 38.794-21.869 52.797c-14.002 14.003-32.995 21.87-52.797 21.87s-38.794-7.867-52.797-21.87c-14.003-14.003-21.87-32.994-21.87-52.797s7.867-38.794 21.87-52.798c14.002-14.003 32.995-21.869 52.797-21.869zM394.664 106.667c19.801 0 38.794 7.865 52.798 21.869 14.001 14.003 21.869 32.994 21.869 52.798s-7.868 38.794-21.869 52.797c-14.003 14.003-32.996 21.87-52.798 21.87-19.803 0-38.794-7.867-52.798-21.87s-21.869-32.994-21.869-52.797 7.865-38.794 21.869-52.798 32.994-21.869 52.798-21.869z" />
<glyph unicode="&#xe98a;" glyph-name="communication-chat" d="M419.3 312.667c-32 32-75.4 50-120.7 50h-85.3c-23.5 0-68.7 0-106.7 0v-42.7c29.8 0 82.9 0 106.7 0h85.3c16.8 0 33.5-3.3 49-9.7s29.6-15.9 41.5-27.7c11.9-11.9 21.3-26 27.7-41.5s9.7-32.2 9.7-49-3.3-33.5-9.7-49c-6.4-15.5-15.9-29.6-27.7-41.5-11.9-11.9-26-21.3-41.5-27.7s-32.2-9.7-49-9.7h-42.6v-52.9c-118.1 53.5-170.7 103.7-170.7 180.7 0 23.7 0 76.9 0 106.7h-42.6c0-38 0-83.1 0-106.7 0-138.7 149.3-202.7 256-245.3v74.7c45.3 0 88.7 18 120.7 50s50 75.4 50 120.7c-0.1 45.2-18 88.6-50.1 120.6zM85.3 362.667h-21.3c-13.1 0-21.3 0-21.3 0s0-8.3 0-21.3v-21.3h42.7v42.6z" />
<glyph unicode="&#xe98b;" glyph-name="communication-chat1" d="M286.1 63.967l-30.1-42.9-30.1 42.9h-140.6v234.7h-42.6v-277.3h161l52.3-74.7 52.3 74.7h97.1v42.6zM405.4 21.367h21.3v-0.1h-21.3v0.1zM426.7 63.967v-42.6h42.6v42.7h-42.6zM85.3 362.667h-42.6v-42.7h42.6zM448.1 362.667h-341.4v-42.7h320v-234.6h42.7v277.3z" />
<glyph unicode="&#xe98c;" glyph-name="communication-chat2" d="M256 383.967c-34.4 0-99.9 0-149.3 0v-42.3c46.9 0.6 156.8 1.5 182.6-3.6 33.1-6.6 63.5-22.8 87.4-46.7s40.1-54.3 46.7-87.4c6.6-33.1 3.2-67.4-9.7-98.6s-34.8-57.8-62.9-76.6c-28.1-18.8-61.1-28.8-94.8-28.8-28-0.1-55.6 6.8-80.3 20l-13.9 7.5-62.9-14 14 62.9-7.4 13.9c-13.1 24.5-20.1 51.9-20.1 80.3 0 25.4 0 109.5 0 149.3h-42.7c0-49.7 0-115.7 0-149.3-0.1-35 8.6-69.6 25.1-100.5l-25.1-112.7 112.9 25.1c30.9-16.5 65.4-25.1 100.5-25.1 117.8 0 213.3 95.5 213.3 213.3s-95.6 213.3-213.4 213.3zM85.3 383.967h-21.3c-13.2 0-21.3 0-21.3 0s0-1.6 0-4.4v-38.3h42.7v42.7z" />
<glyph unicode="&#xe98d;" glyph-name="communication-chat3" d="M85.3 362.667h-42.6v-42.7h42.6zM448 362.667h-341.3v-42.7h320v-256h-303.8l-37.6-29.5v264.2h-42.6v-352l95 74.7h331.6v341.3z" />
<glyph unicode="&#xe98e;" glyph-name="communication-chat4" d="M331.4 258.567l-90.5-90.5-52.8 52.8-30.2-30.1 83-83 120.7 120.6zM85.3 362.667h-42.6v-42.7h42.6zM448 362.667h-341.3v-42.7h320v-256h-303.8l-37.6-29.5v264.2h-42.6v-352l95 74.7h331.6v341.3z" />
<glyph unicode="&#xe98f;" glyph-name="communication-chat5" d="M203.2 108.967l52.8 52.9 52.8-52.8 30.2 30.1-52.8 52.8 52.8 52.8-30.2 30.2-52.8-52.8-52.8 52.8-30.2-30.2 52.8-52.8-52.8-52.8zM85.3 362.667h-42.6v-42.7h42.6zM448 362.667h-341.3v-42.7h320v-256h-303.8l-37.6-29.5v264.2h-42.6v-352l95 74.7h331.6v341.3z" />
<glyph unicode="&#xe990;" glyph-name="communication-chat6" d="M234.7 277.367v-85.4h-64l85.3-85.3 85.3 85.3h-64v85.4zM85.3 362.667h-42.6v-42.7h42.6zM448 362.667h-341.3v-42.7h320v-256h-303.8l-37.6-29.5v264.2h-42.6v-352l95 74.7h331.6v341.3z" />
<glyph unicode="&#xe991;" glyph-name="communication-chat7" d="M192 255.967v-42.6h-42.7v-42.7h42.7v-42.7h42.7v42.7h42.6v42.7h-42.6v42.6zM320 277.367h42.7v-170.7h-42.7v170.7zM85.3 362.667h-42.6v-42.7h42.6zM448 362.667h-341.3v-42.7h320v-256h-303.8l-37.6-29.5v264.2h-42.6v-352l95 74.7h331.6v341.3z" />
<glyph unicode="&#xe992;" glyph-name="communication-chat8" d="M341.3 191.967l-85.3 85.4v-64h-85.3v-42.7h85.3v-64zM85.3 362.667h-42.6v-42.7h42.6zM448 362.667h-341.3v-42.7h320v-256h-303.8l-37.6-29.5v264.2h-42.6v-352l95 74.7h331.6v341.3z" />
<glyph unicode="&#xe993;" glyph-name="communication-chat9" d="M327.8 184.867c4.7 4.3 8.2 9.6 10.6 15.5 2.4 5.8 3.7 12.1 3.7 18.4s-1.2 12.5-3.7 18.4c-2.4 5.8-5.9 11.1-10.4 15.6s-9.7 8-15.6 10.4c-5.8 2.4-12.1 3.7-18.4 3.7s-12.5-1.2-18.4-3.7c-5.8-2.4-11.1-5.9-15.6-10.4l-3.8-3.8-3.8 3.8c-9 9-21.2 14.1-33.9 14.1-6.3 0-12.5-1.2-18.4-3.7-5.8-2.4-11.1-5.9-15.6-10.4s-8-9.7-10.4-15.6c-2.4-5.8-3.7-12.1-3.7-18.4 0-12.7 5.1-24.9 14.1-33.9l71.6-71.7 71.7 71.7zM85.3 362.667h-42.6v-42.7h42.6zM448 362.667h-341.3v-42.7h320v-256h-303.8l-37.6-29.5v264.2h-42.6v-352l95 74.7h331.6v341.3z" />
<glyph unicode="&#xe994;" glyph-name="communication-chat10" d="M106.7 362.667h192v-42.7h-192v42.7zM426.6 63.967h-303.7l-37.6-29.5v264.2h-42.6v-352l95 74.7h331.6v192h-42.7zM448 362.667v64h-42.7v-64h-64v-42.7h64v-64h42.7v64h64v42.7zM85.3 362.667h-42.6v-42.7h42.6z" />
<glyph unicode="&#xe995;" glyph-name="communication-chat11" d="M405.3 319.967v42.7h21.3v-42.7h42.7v42.7h-21.3c0 0 0 0 0 0h-294.1l42.6-42.6 208.8-0.1zM469.3 47.267v251.4h-42.6v-208.7zM59.9 396.967l-30.2-30.2 15.4-15.4c-1.6-3-2.5-6.4-2.5-10v-394.7l95 74.7h237.4l77-77 30.2 30.2-422.3 422.4zM122.9 63.967l-37.6-29.5v276.7l247.1-247.2h-209.5z" />
<glyph unicode="&#xe996;" glyph-name="communication-chat12" d="M320 234.667h42.7v-128h-42.7v128zM234.7 277.367h42.7v-170.7h-42.7v170.7zM149.3 191.967h42.7v-85.3h-42.7v85.3zM469.3 362.667h-42.6v-42.7h42.6zM469.3 54.167v244.5h-42.7v-234.7h-303.7l-37.6-29.5v285.5h320v42.7h-362.6v-416l95 74.7h331.6v32.8z" />
<glyph unicode="&#xe997;" glyph-name="communication-chat13" d="M340.5 253.867l-9.5 14.7c-38.1-16.5-64.3-50-64.3-87.3 0-21.2 5.9-34.3 16.9-46 6.9-7.4 17.9-12.6 29.3-12.6 20.6 0 37.3 16.7 37.3 37.3 0 19.6-15.2 35.4-34.4 37.2-3.5 0.3-6.9 0.2-10.2-0.2 0 6.7-0.7 37.6 34.9 56.9zM233.9 253.867l-9.5 14.7c-38.1-16.5-64.3-50-64.3-87.3 0-21.2 5.9-34.3 16.9-46 6.9-7.4 17.9-12.6 29.3-12.6 20.6 0 37.3 16.7 37.3 37.3 0 19.6-15.2 35.4-34.4 37.2-3.5 0.3-6.9 0.2-10.2-0.2-0.1 6.7-0.7 37.6 34.9 56.9zM469.3 362.667h-42.6v-42.7h42.6zM469.3 54.167v244.5h-42.7v-234.7h-303.7l-37.6-29.5v285.5h320v42.7h-362.6v-416l95 74.7h331.6v32.8z" />
<glyph unicode="&#xe998;" glyph-name="communication-chat14" d="M426.7 298.667h42.7v-128h-42.7v128zM85.3 34.467v285.5h320v42.7h-362.6v-416l95 74.7h118.3v42.7h-133.1zM466.3 19.867c4.1 14.9 4.1 30.7-0.1 45.6l20.8 12-21.3 36.9-20.8-12c-10.7 10.9-24.3 18.9-39.6 22.8v24h-42.7v-24c-15-3.9-28.7-11.8-39.6-22.8l-20.8 12-21.2-36.8 20.8-12c-4.1-15-4.1-30.7 0-45.7l-20.8-12 21.3-36.9 20.8 12c10.9-11.1 24.5-19 39.6-22.8v-24h42.7v24c15.2 3.9 28.9 12 39.6 22.8l20.8-12 21.3 36.9-20.8 12zM414.2 12.467c-8-8-18.9-12.5-30.2-12.5s-22.2 4.5-30.2 12.5-12.5 18.9-12.5 30.2c0 11.3 4.5 22.2 12.5 30.2s18.9 12.5 30.2 12.5c11.3 0 22.2-4.5 30.2-12.5s12.5-18.9 12.5-30.2c0-11.3-4.5-22.2-12.5-30.2zM469.3 362.667h-42.6v-42.7h42.6z" />
<glyph unicode="&#xe999;" glyph-name="communication-chat15" d="M256 106.667c-17 0-33.3 6.7-45.3 18.7s-18.7 28.3-18.7 45.3h-42.7c0-28.3 11.2-55.4 31.2-75.4s47.1-31.2 75.4-31.2 55.4 11.2 75.4 31.2c20 20 31.2 47.1 31.2 75.4h-42.5c0-17-6.7-33.3-18.7-45.3s-28.3-18.7-45.3-18.7zM426.7 170.667c0-94.3-76.4-170.7-170.7-170.7-28.5 0-55.8 6.9-80.3 20l-13.9 7.4-62.9-14 14 62.8-7.5 14c-13.1 24.5-20.1 51.9-20.1 80.3 0 94.3 76.4 170.7 170.7 170.7v0c41.2 0 113.5 0 149.3 0v42.8c-48 0-111.7 0-149.3 0v0c-117.8 0-213.3-95.5-213.3-213.3 0-36.3 9.1-70.5 25.1-100.5l-25.1-112.8 112.9 25.1c29.9-16 64.1-25.1 100.4-25.1 117.8 0 213.3 95.5 213.3 213.3 0 30.2 0 98.2 0 149.3h-42.7c0.1-39.1 0.1-120.8 0.1-149.3zM448 383.967h-21.3v-42.7h42.7v41.9c0 0.6 0 0.8 0 0.8s-8.2 0-21.4 0z" />
<glyph unicode="&#xe99a;" glyph-name="communication-chat16" d="M195.7 88.967c16-16 37.7-25 60.3-25s44.3 9 60.3 25c16 16 25 37.7 25 60.3h-170.6c0-22.6 9-44.3 25-60.3zM426.7 170.667c0-94.3-76.4-170.7-170.7-170.7-28.5 0-55.8 6.9-80.3 20l-13.9 7.4-62.9-14 14 62.8-7.5 14c-13.1 24.5-20.1 51.9-20.1 80.3 0 94.3 76.4 170.7 170.7 170.7v0c41.2 0 113.5 0 149.3 0v42.8c-48 0-111.7 0-149.3 0v0c-117.8 0-213.3-95.5-213.3-213.3 0-36.3 9.1-70.5 25.1-100.5l-25.1-112.8 112.9 25.1c29.9-16 64.1-25.1 100.4-25.1 117.8 0 213.3 95.5 213.3 213.3 0 30.2 0 98.2 0 149.3h-42.7c0.1-39.1 0.1-120.8 0.1-149.3zM448 383.967h-21.3v-42.7h42.7v41.9c0 0.6 0 0.8 0 0.8s-8.2 0-21.4 0z" />
<glyph unicode="&#xe99b;" glyph-name="communication-chat17" d="M426.6 63.967h-303.7l-37.6-29.5v285.5h320v42.7h-362.6v-416l95 74.7h331.6v277.7h-42.7zM256 149.367c-17 0-33.3 6.7-45.3 18.7s-18.7 28.3-18.7 45.3h-42.7c0-28.3 11.2-55.4 31.2-75.4s47.1-31.2 75.4-31.2 55.4 11.2 75.4 31.2 31.2 47.1 31.2 75.4h-42.5c0-17-6.7-33.3-18.7-45.3s-28.3-18.7-45.3-18.7zM426.7 363.067h42.7v-42.7h-42.7v42.7z" />
<glyph unicode="&#xe99c;" glyph-name="communication-chat18" d="M426.6 63.967h-303.7l-37.6-29.5v285.5h320v42.7h-362.6v-416l95 74.7h331.6v277.7h-42.7zM277.3 106.667v85.3h64l-85.3 85.4-85.3-85.4h64v-85.3zM426.7 363.067h42.7v-42.7h-42.7v42.7z" />
<glyph unicode="&#xe99d;" glyph-name="communication-chat19" d="M320 234.667h42.7v-128h-42.7v128zM413.7 105.367c-12.9-31.2-34.8-57.8-62.9-76.6s-61.1-28.8-94.8-28.8h-110.3l19.8 19.8-30.2 30.2c-31.8 31.8-50 74.8-50 120.7 0 33.8 10 66.8 28.8 94.8 18.8 28.1 45.4 49.9 76.6 62.9 25 10.3 161.4 12.5 214.6 12.9v42.7c-48.4 0-112.7 0-149.3 0-117.8 0-213.3-95.5-213.3-213.3 0-28 5.5-55.8 16.2-81.7s26.5-49.4 46.3-69.2l-62.5-62.5h213.3c117.8 0 213.3 95.5 213.3 213.3 0 31.2 0 98.6 0 149.3h-42.8c-0.4-53.1-2.5-189.5-12.8-214.5zM234.7 298.667h42.7v-256h-42.7v256zM149.3 234.667h42.7v-128h-42.7v128zM448 383.967h-21.3v-42.7h42.7v21.4c0 13.2 0 21.3 0 21.3s-8.2 0-21.4 0z" />
<glyph unicode="&#xe99e;" glyph-name="communication-chat20" d="M341.3 362.667h-170.6c-16.5 0-124.5 0-127.9 0-0.1 0-0.1 0-0.1 0s0 0 0-0.1c0-3.4 0-111.2 0-127.8v-128.3c0-70.4 57.3-127.9 128-127.9h298.7v256.2c-0.1 70.4-57.4 127.9-128.1 127.9zM426.7 21.367h-256c-22.6 0-44.3 9-60.3 25s-25 37.6-25.1 60.2v128.2c0 7.3 0 41.1 0 63.9h-42.6v21.3h42.7v42.7h21.3v-42.7c22.8 0 56.7 0 64 0h170.7c22.6 0 44.3-9 60.3-25s25-37.6 25.1-60.2v-213.4zM170.7 191.967h42.7v-42.7h-42.7v42.7zM298.7 191.967h42.7v-42.7h-42.7v42.7z" />
<glyph unicode="&#xe99f;" glyph-name="communication-chat21" d="M384 319.967h-42.7v-170.7h-239.7l-37.6-29.5v221.6h256v42.6h-298.6v-352l95 74.7h267.6zM341.3 383.967h42.7v-42.7h-42.7v42.7zM469.3 255.967h-42.6v-221.5l-37.6 29.5h-218.4v-42.6h203.6l95-74.7v276.5z" />
<glyph unicode="&#xe9a0;" glyph-name="communication-chat22" d="M323.5 192.067c6.1 12.8 8.3 27 6.6 41.1-1.7 14-7.4 27.3-16.4 38.2s-20.9 19.1-34.3 23.5c-13.4 4.4-27.8 5-41.6 1.6-13.7-3.4-26.2-10.7-36-20.9s-16.4-23-19.2-36.9l41.9-8.4c1.2 5.9 4 11.4 8.2 15.8s9.5 7.5 15.4 9c5.9 1.5 12.1 1.2 17.8-0.7 5.8-1.9 10.8-5.4 14.7-10.1 3.8-4.7 6.3-10.4 7-16.4s-0.2-12.1-2.8-17.6-6.7-10.1-11.8-13.3c-5.1-3.2-11.1-5-17.1-5h-21.3v-42.7h21.4c14.1 0 28 4 40 11.6 11.9 7.6 21.5 18.4 27.5 31.2zM426.6 298.667v-234.7h-303.7l-37.6-29.5v285.5h320v42.7h-362.6v-416l95 74.7h331.6v277.3zM234.7 127.967h42.7v-42.7h-42.7v42.7zM469.3 341.367v21.3h-42.6v-42.7h42.6z" />
<glyph unicode="&#xe9a1;" glyph-name="communication-chat-history" d="M256 383.967v0c-33.6 0-99.6 0-149.3 0v-42.7c37.1 0 113.1 0 149.3 0v0c94.3 0 170.7-76.4 170.7-170.7s-76.4-170.6-170.7-170.6c-28.5 0-55.8 6.9-80.3 20l-13.9 7.4-62.9-14 14 62.8-7.5 14c-13.1 24.5-20.1 51.9-20.1 80.3 0 33.6 0 111.5 0 149.3h-42.6c0-49.4 0-115 0-149.3 0-36.3 9.1-70.5 25.1-100.5l-25.1-112.6 112.9 25.1c29.9-16 64.1-25.1 100.4-25.1 117.8 0 213.3 95.5 213.3 213.3s-95.5 213.3-213.3 213.3zM234.7 277.367v-149.4h128v42.7h-85.4v106.7zM85.3 383.967h-21.3c-13.2 0-21.3 0-21.3 0s0-8.1 0-21.3v-21.3h42.7v42.6z" />
<glyph unicode="&#xe9a2;" glyph-name="communication-feedback" d="M426.6 298.667v-234.7h-303.7l-37.6-29.5v285.5h320v42.7h-362.6v-416l95 74.7h331.6v277.3zM234.7 277.367h42.7v-106.7h-42.7v106.7zM234.7 149.367h42.7v-42.7h-42.7v42.7zM469.3 341.367v21.3h-42.6v-42.7h42.6z" />
<glyph unicode="&#xe9a3;" glyph-name="communication-message" d="M85.3 383.967h320v-42.7h-320v42.7zM21.3 319.967h42.7v-213.3h-42.7v213.3zM21.3 362.667v-21.3h42.7v42.6h-42.7zM490.5 263.667v32.8h-383.8v-275.1h132.2l59.7-74.7 59.7 74.7h132.2v242.3zM337.9 63.967l-39.2-49-39.2 49h-110.2v189.8h298.7v-189.8h-110.1z" />
<glyph unicode="&#xe9a4;" glyph-name="communication-message1" d="M320 213.367h42.7v-42.7h-42.7v42.7zM426.6 298.667v-234.7h-303.7l-37.6-29.5v285.5h320v42.7h-362.6v-416l95 74.7h331.6v277.3zM234.7 213.367h42.7v-42.7h-42.7v42.7zM149.3 213.367h42.7v-42.7h-42.7v42.7zM469.3 341.367v21.3h-42.6v-42.7h42.6z" />
<glyph unicode="&#xe9a5;" glyph-name="communication-message2" d="M426.6 298.667v-234.7h-303.7l-37.6-29.5v285.5h320v42.7h-362.6v-416l95 74.7h331.6v277.3zM170.7 213.367h170.7v-42.7h-170.7v42.7zM469.3 341.367v21.3h-42.6v-42.7h42.6z" />
<glyph unicode="&#xe9a6;" glyph-name="communication-private-chat" d="M426.7 170.667c0-94.3-76.4-170.7-170.7-170.7-28.5 0-55.8 6.9-80.3 20l-13.9 7.4-62.9-14 14 62.8-7.5 14c-13.1 24.5-20.1 51.9-20.1 80.3 0 94.3 76.4 170.7 170.7 170.7v0c41.2 0 113.5 0 149.3 0v42.8c-48 0-111.7 0-149.3 0v0c-117.8 0-213.3-95.5-213.3-213.3 0-36.3 9.1-70.5 25.1-100.5l-25.1-112.8 112.9 25.1c29.9-16 64.1-25.1 100.4-25.1 117.8 0 213.3 95.5 213.3 213.3 0 30.2 0 98.2 0 149.3h-42.7c0.1-39.1 0.1-120.8 0.1-149.3zM256 277.367c-35.3 0-64-28.7-64-64v-21.3h-21.3v-106.7h170.7v106.6h-21.4v21.3c0 35.4-28.7 64.1-64 64.1zM234.7 213.367c0 11.7 9.6 21.3 21.3 21.3s21.3-9.6 21.3-21.3v-21.3h-42.7v21.3zM298.7 127.967h-85.3v21.3h85.3v-21.3zM448 383.967h-21.3v-42.7h42.7v41.9c0 0.6 0 0.8 0 0.8s-8.2 0-21.4 0z" />
<glyph unicode="&#xe9a7;" glyph-name="communication-video-chat" d="M426.6 298.667v-234.7h-303.7l-37.6-29.5v285.5h320v42.7h-362.6v-416l95 74.7h331.6v277.3zM149.3 255.967v-128h149.4v48l64-48v128l-64-48v48zM469.3 341.367v21.3h-42.6v-42.7h42.6z" />
<glyph unicode="&#xe9a8;" glyph-name="development-braces" d="M85.334 42.667v78.933c0 8.486-3.371 16.627-9.373 22.628s-14.141 9.372-22.627 9.372h-10.666v34.133h10.666c4.202 0 8.364 0.827 12.246 2.436s7.41 3.966 10.382 6.935c2.972 2.971 5.329 6.5 6.936 10.383s2.436 8.043 2.436 12.245v78.933c0 16.974 6.743 33.252 18.745 45.255s28.281 18.745 45.255 18.745h21.333v-42.666h-21.334c-5.658 0-11.084-2.248-15.085-6.248s-6.249-9.427-6.249-15.085v-87.466c0.002-8.982-2.83-17.734-8.093-25.013-5.263-7.277-12.689-12.708-21.219-15.52 8.531-2.812 15.956-8.243 21.219-15.52 5.263-7.279 8.095-16.032 8.093-25.014v-87.466c0-5.658 2.247-11.085 6.248-15.085s9.427-6.248 15.085-6.248h21.333v-42.667h-21.334c-16.974 0-33.252 6.744-45.255 18.745s-18.745 28.282-18.745 45.255zM426.666 121.6v-78.933c0-16.973-6.743-33.253-18.745-45.255s-28.281-18.745-45.255-18.745h-21.334v42.666h21.334c5.658 0 11.085 2.249 15.085 6.249s6.248 9.427 6.248 15.085v87.466c-0.002 8.981 2.831 17.735 8.094 25.014 5.263 7.277 12.687 12.709 21.218 15.52-8.531 2.812-15.955 8.243-21.218 15.52-5.263 7.279-8.096 16.032-8.094 25.013v87.467c0 5.658-2.248 11.084-6.248 15.085s-9.427 6.248-15.085 6.248h-21.334v42.667h21.334c16.973 0 33.252-6.743 45.255-18.745s18.745-28.281 18.745-45.255v-78.934c0-8.487 3.37-16.627 9.372-22.629s14.142-9.371 22.628-9.371h10.666v-34.133h-10.666c-8.486 0-16.627-3.37-22.628-9.372s-9.372-14.142-9.372-22.628z" />
<glyph unicode="&#xe9a9;" glyph-name="development-bracket" d="M192 362.667v-42.666h-64v-298.666h64v-42.667h-106.666v384zM320 362.667h106.666v-384h-106.666v42.666h64v298.666h-64z" />
<glyph unicode="&#xe9aa;" glyph-name="development-branch" d="M151.572 102.187c13.945-5.528 25.506-15.776 32.665-28.958 7.16-13.18 9.464-28.457 6.511-43.163s-10.977-27.909-22.672-37.303-26.316-14.385-41.313-14.099c-14.998 0.284-29.419 5.826-40.748 15.659s-18.845 23.33-21.238 38.138 0.49 29.986 8.145 42.886 19.597 22.701 33.742 27.695v135.254c-14.24 5.032-26.242 14.938-33.885 27.964s-10.435 28.335-7.882 43.221c2.553 14.886 10.287 28.389 21.834 38.125s26.163 15.075 41.267 15.075c15.103 0 29.72-5.34 41.267-15.075s19.28-23.239 21.833-38.125c2.553-14.886-0.238-30.195-7.881-43.221s-19.645-22.931-33.885-27.964v-67.627c17.834 13.398 39.978 21.334 64 21.334h85.333c14.041 0 27.69 4.614 38.85 13.133s19.211 20.471 22.91 34.014c-14.012 5.548-25.617 15.863-32.772 29.126s-9.404 28.627-6.346 43.384 11.224 27.964 23.059 37.293 26.584 14.185 41.647 13.71 29.476-6.248 40.702-16.304 18.543-23.749 20.666-38.671-1.086-30.112-9.063-42.899c-7.976-12.787-20.209-22.35-34.543-27.006-4.296-24.762-17.195-47.211-36.425-63.392-19.228-16.182-43.552-25.054-68.685-25.056h-85.332c-14.040 0-27.69-4.615-38.85-13.133s-19.209-20.47-22.91-34.014zM127.999 64c-5.658 0-11.084-2.246-15.085-6.248-4.001-4-6.249-9.427-6.249-15.085s2.248-11.085 6.249-15.085 9.427-6.249 15.085-6.249c5.658 0 11.084 2.249 15.085 6.249s6.249 9.427 6.249 15.085-2.248 11.085-6.249 15.085c-4 4.002-9.427 6.248-15.085 6.248zM127.999 320.001c-5.658 0-11.084-2.248-15.085-6.249s-6.249-9.427-6.249-15.085c0-5.658 2.248-11.084 6.249-15.085s9.427-6.248 15.085-6.248c5.658 0 11.084 2.247 15.085 6.248s6.249 9.427 6.249 15.085c0 5.658-2.248 11.084-6.249 15.085s-9.427 6.249-15.085 6.249zM383.998 320.001c-5.658 0-11.082-2.248-15.085-6.249-4-4-6.248-9.427-6.248-15.085s2.248-11.084 6.248-15.085c4.002-4 9.427-6.248 15.085-6.248 5.659 0 11.085 2.247 15.087 6.248 4 4.001 6.247 9.427 6.247 15.085s-2.247 11.084-6.247 15.085c-4.002 4.001-9.427 6.249-15.087 6.249z" />
<glyph unicode="&#xe9ab;" glyph-name="development-bug" d="M192 127.967h64v-42.7h-64v42.7zM192 213.367h128v-42.7h-128v42.7zM448 255.967h-57c-13.1 27.5-34.2 50.3-60.6 65.5l22.4 22.4-30.2 30.2-35.9-35.9c-20.2 4.2-41.1 4.2-61.4 0v0l-35.9 35.9-30.2-30.1 22.4-22.4c-26.4-15.2-47.5-38-60.6-65.5h-57v-42.7h44.2c-1-7-1.5-14.1-1.5-21.3v-21.4h-42.7v-42.7h42.7v-21.3c0-7.1 0.5-14.3 1.5-21.3h-44.2v-42.7h57c12.1-25.5 31.2-47.1 55.1-62.3s51.6-23.1 79.9-23.1 56 8 79.9 23.1c23.9 15.1 43 36.7 55.1 62.3h57v42.7h-44.2c1 7 1.5 14.1 1.5 21.3v21.3h42.7v42.7h-42.7v21.3c0 7.3-0.5 14.4-1.5 21.3h44.2v42.7zM362.7 106.667c0-28.3-11.2-55.4-31.2-75.4s-47.1-31.2-75.4-31.2-55.4 11.2-75.4 31.2c-20 20-31.2 47.1-31.2 75.4v85.3c0 28.3 11.2 55.4 31.2 75.4s47.1 31.2 75.4 31.2c28.3 0 55.4-11.2 75.4-31.2s31.2-47.1 31.2-75.4v-85.3zM277.3 127.967h42.7v-42.7h-42.7v42.7z" />
<glyph unicode="&#xe9ac;" glyph-name="development-bug1" d="M341.3 383.967c0 0-62.7 0-85.3 0s-85.3 0-85.3 0 0-62.7 0-85.3h170.7c-0.1 22.6-0.1 85.3-0.1 85.3zM469.3 106.667v42.7h-64v21.3c0 13.7-1.9 27-5.3 39.6l47.2 27.3-21.3 36.9-43.1-24.9c-1.4 2.2-2.8 4.3-4.2 6.4h-245.2c-1.5-2.1-2.9-4.2-4.2-6.4l-43.1 24.9-21.3-36.9 47.2-27.3c-3.5-12.6-5.3-25.9-5.3-39.6v-21.3h-64v-42.7h64c0-19.7 3.9-39.2 11.4-57.4v0l-53.3-30.8 21.3-36.9 53.9 31.1c14-17.3 31.7-31.2 51.7-40.8s42-14.5 64.3-14.5c22.2 0 44.2 4.9 64.3 14.5s37.8 23.5 51.7 40.8l53.9-31.1 21.3 36.9-53.3 30.8c7.4 17.7 11.4 37.1 11.4 57.4h64zM362.7 106.667c0-24.6-8.5-48.4-24-67.5-15.5-19-37.2-32.1-61.3-37.1v62.4h-42.7v-62.4c-24.1 4.9-45.7 18-61.3 37.1-15.5 19-24 42.9-24 67.5v64c0 14.7 3 29.2 8.9 42.7h195.6c5.9-13.5 8.9-28 8.9-42.7v-64zM235.2 128.567h42.7v-42.7h-42.7v42.7z" />
<glyph unicode="&#xe9ad;" glyph-name="development-code" d="M239.9 63.967l77.6 213.4h-45.4l-77.6-213.4zM190.9 125.467l-45.2 45.2 45.2 45.2-30.1 30.2-75.5-75.4 75.5-75.4zM426.7-21.333h42.6v42.7h-42.6zM448 362.667h-405.3v-384h77.3v0.1h285.3v42.7h-320v298.5h341.3v-149.2l-75.4 75.3-30.1-30.2 45.2-45.2-45.2-45.2 30.1-30.2 75.4 75.3v-127.9h42.7v320z" />
<glyph unicode="&#xe9ae;" glyph-name="development-code1" d="M490.666 170.667l-150.848-150.848-30.166 30.166 120.683 120.683-120.683 120.682 30.166 30.166zM81.664 170.667l120.682-120.683-30.166-30.166-150.848 150.848 150.848 150.847 30.166-30.166z" />
<glyph unicode="&#xe9af;" glyph-name="development-code2" d="M512 170.667l-120.683-120.683-30.166 30.165 90.517 90.518-90.517 90.517 30.166 30.165zM60.331 170.667l90.518-90.518-30.166-30.165-120.683 120.683 120.683 120.682 30.144-30.165zM208.81-21.333h-45.398l139.776 384h45.397z" />
<glyph unicode="&#xe9b0;" glyph-name="development-command" d="M213.333 256h85.333v32c0 14.767 4.38 29.204 12.584 41.483 8.202 12.279 19.865 21.849 33.509 27.5 13.645 5.651 28.657 7.13 43.14 4.249 14.486-2.881 27.789-9.993 38.231-20.435s17.553-23.746 20.435-38.231c2.88-14.484 1.401-29.496-4.25-43.14s-15.221-25.305-27.501-33.51c-12.279-8.204-26.716-12.583-41.483-12.583h-32v-85.333h32c14.767 0 29.203-4.38 41.483-12.585 12.279-8.202 21.849-19.865 27.501-33.508 5.651-13.645 7.13-28.657 4.25-43.14-2.882-14.486-9.993-27.789-20.435-38.231s-23.746-17.553-38.231-20.435c-14.483-2.88-29.495-1.401-43.14 4.25-13.642 5.651-25.305 15.221-33.509 27.501-8.205 12.279-12.584 26.716-12.584 41.483v32h-85.334v-32c0-14.767-4.379-29.203-12.584-41.483s-19.866-21.849-33.51-27.501c-13.643-5.651-28.656-7.13-43.141-4.25-14.484 2.882-27.788 9.993-38.231 20.435s-17.553 23.746-20.435 38.231c-2.881 14.483-1.402 29.495 4.249 43.14 5.651 13.642 15.222 25.305 27.501 33.509 12.279 8.205 26.715 12.584 41.483 12.584h32v85.334h-32c-14.767 0-29.203 4.379-41.483 12.584s-21.849 19.866-27.501 33.51c-5.651 13.643-7.13 28.656-4.249 43.14s9.993 27.788 20.435 38.231c10.442 10.442 23.746 17.553 38.231 20.435s29.496 1.402 43.141-4.249c13.643-5.652 25.305-15.222 33.51-27.501s12.584-26.715 12.584-41.483zM170.667 256v32c0 6.329-1.876 12.516-5.393 17.778s-8.514 9.364-14.361 11.786-12.281 3.055-18.488 1.821c-6.207-1.235-11.909-4.282-16.385-8.758s-7.523-10.177-8.758-16.385c-1.234-6.207-0.601-12.642 1.821-18.488s6.523-10.845 11.786-14.361c5.263-3.516 11.449-5.393 17.778-5.393zM170.667 85.333h-32c-6.329 0-12.516-1.877-17.778-5.393s-9.364-8.514-11.786-14.361-3.055-12.282-1.821-18.488c1.235-6.208 4.282-11.91 8.758-16.386 4.475-4.474 10.177-7.522 16.384-8.758s12.642-0.601 18.488 1.822c5.847 2.422 10.845 6.524 14.361 11.784 3.516 5.263 5.393 11.45 5.393 17.779zM341.334 256h32c6.329 0 12.517 1.877 17.779 5.393 5.261 3.517 9.363 8.514 11.784 14.361 2.423 5.848 3.057 12.282 1.822 18.489s-4.284 11.909-8.757 16.385c-4.476 4.475-10.178 7.523-16.386 8.758-6.206 1.234-12.64 0.601-18.488-1.821s-10.846-6.523-14.361-11.786c-3.515-5.262-5.393-11.449-5.393-17.778zM341.334 85.333v-32c0-6.329 1.877-12.516 5.393-17.779 3.515-5.261 8.514-9.363 14.361-11.784 5.848-2.423 12.281-3.057 18.488-1.822 6.208 1.235 11.911 4.284 16.386 8.758 4.474 4.476 7.522 10.178 8.757 16.386 1.235 6.206 0.601 12.64-1.822 18.488-2.421 5.847-6.524 10.846-11.784 14.361-5.263 3.515-11.45 5.393-17.779 5.393zM213.333 213.333v-85.334h85.333v85.334z" />
<glyph unicode="&#xe9b1;" glyph-name="development-commit" d="M308.3 238.067c-15 11.6-33.3 17.9-52.3 17.9s-37.3-6.3-52.3-17.9c-15-11.6-25.6-27.8-30.4-46.1h-109.3v-42.7h109.4c4.7-18.3 15.4-34.5 30.4-46.1s33.3-17.9 52.3-17.9 37.3 6.3 52.3 17.9c15 11.6 25.6 27.8 30.4 46.1h45.2v42.7h-45.3c-4.8 18.3-15.5 34.6-30.4 46.1zM286.2 140.467c-8-8-18.9-12.5-30.2-12.5s-22.2 4.5-30.2 12.5c-8 8-12.5 18.9-12.5 30.2s4.5 22.2 12.5 30.2 18.9 12.5 30.2 12.5 22.2-4.5 30.2-12.5 12.5-18.9 12.5-30.2c0-11.3-4.5-22.2-12.5-30.2zM448 191.967v0h-42.7v-42.6h42.7v42.6z" />
<glyph unicode="&#xe9b2;" glyph-name="development-commit1" d="M149.3 319.967h42.7v-42.7h-42.7v42.7zM116 30.667c-6 6-9.4 14.1-9.4 22.6s3.4 16.6 9.4 22.6 14.1 9.4 22.6 9.4h32v42.7h-32c-3.6 0-7.1-0.2-10.7-0.7v214.1h256v42.6h-255.9c-0.4 0-0.7 0-1.1 0v0h-62.9v-405.4h149.4v42.7h-74.7c-8.5 0.1-16.7 3.4-22.7 9.4zM405.2 127.967h-21.2v-42.7h21.3v-64h-64v-42.6h29.3v-0.1h77.3v341.4h-42.7zM149.3 255.967h42.7v-42.7h-42.7v42.7zM277.3 170.667l-85.3-106.7h64v-128h42.7v128h64zM405.3 383.967h42.7v-42.7h-42.7v42.7z" />
<glyph unicode="&#xe9b3;" glyph-name="development-css" d="M59.733 128h43.52l-11.626-58.133 122.538-45.952 154.176 51.413 23.339 116.672h-319.147l8.534 42.667h319.147l17.067 85.333h-319.147l8.534 42.667h362.666l-64-320-192-64-170.667 64z" />
<glyph unicode="&#xe9b4;" glyph-name="development-cursor" d="M328.277 138.709l54.442-149.632-100.224-36.48-54.464 149.632-83.178-52.16 34.56 341.76 246.122-239.616-97.238-13.504zM328.043 14.592l-57.92 159.147 63.147 8.746-120.319 117.12-16.853-167.040 53.972 33.856 57.92-159.147z" />
<glyph unicode="&#xe9b5;" glyph-name="development-git" d="M448 319.967h-42.7v-192h-266.6c-3.6 0-7.1-0.2-10.7-0.7v214.1h256v42.6h-256c-0.4 0-0.7 0-1.1 0v0h-62.9v-405.4h85.4v-53.3l64 42.7 64-42.7v53.4h93.2v-0.1h77.3v19.3c0.1 0.7 0.1 1.4 0.1 2.1v320zM277.3 21.367v42.7h-128v-42.7h-10.7c-8.5 0-16.6 3.4-22.6 9.4s-9.4 14.1-9.4 22.6 3.4 16.6 9.4 22.6 14.1 9.4 22.6 9.4h266.7v-64h-128zM149.3 319.967h42.7v-42.7h-42.7v42.7zM149.3 255.967h42.7v-42.7h-42.7v42.7zM149.3 191.967h42.7v-42.7h-42.7v42.7zM405.3 383.967h42.7v-42.7h-42.7v42.7z" />
<glyph unicode="&#xe9b6;" glyph-name="development-html5" d="M256 38.869l-98.56 26.794-6.998 75.606h48.427l3.37-39.339 53.76-14.229 53.76 14.229 5.546 61.142h-166.827l-13.547 142.464h242.133l-4.842-47.147h-184.022l4.352-48.128h175.296l-13.312-144.597zM64 384h384l-34.624-384-157.376-42.666-157.376 42.666zM110.677 341.333l27.776-307.925 117.547-31.872 117.546 31.872 27.776 307.925z" />
<glyph unicode="&#xe9b7;" glyph-name="development-merge" d="M151.572 239.147c3.701-13.543 11.75-25.494 22.91-34.013s24.81-13.133 38.85-13.133h85.332c25.133-0.002 49.457-8.875 68.685-25.056 19.23-16.181 32.128-38.63 36.425-63.392 14.479-4.723 26.801-14.456 34.75-27.446 7.951-12.99 11.010-28.39 8.627-43.433-2.381-15.042-10.048-28.742-21.623-38.641-11.574-9.899-26.298-15.347-41.529-15.366-14.899-0.013-29.337 5.175-40.824 14.669-11.483 9.493-19.298 22.697-22.091 37.333s-0.392 29.79 6.791 42.844c7.181 13.056 18.695 23.198 32.55 28.674-3.699 13.543-11.75 25.493-22.91 34.014-11.159 8.519-24.808 13.133-38.85 13.133h-85.332c-23.085-0.034-45.553 7.454-64 21.334v-67.626c14.24-5.033 26.242-14.938 33.885-27.964s10.435-28.335 7.881-43.221c-2.553-14.886-10.286-28.39-21.833-38.125s-26.163-15.074-41.267-15.074c-15.103 0-29.72 5.339-41.267 15.074s-19.28 23.239-21.834 38.125c-2.553 14.887 0.239 30.195 7.882 43.221s19.645 22.931 33.885 27.964v135.253c-14.144 4.994-26.087 14.796-33.742 27.696s-10.538 28.078-8.145 42.886c2.392 14.808 9.909 28.306 21.238 38.138s25.75 15.374 40.748 15.659 29.619-4.705 41.313-14.1 19.718-22.597 22.672-37.304 0.649-29.983-6.511-43.164c-7.16-13.181-18.721-23.43-32.665-28.958zM127.999 277.333c5.658 0 11.084 2.248 15.085 6.249s6.249 9.427 6.249 15.085-2.248 11.084-6.249 15.085c-4 4.001-9.427 6.249-15.085 6.249s-11.084-2.248-15.085-6.249c-4.001-4.001-6.249-9.427-6.249-15.085s2.248-11.084 6.249-15.085c4.001-4 9.427-6.249 15.085-6.249zM127.999 21.333c5.658 0 11.084 2.247 15.085 6.249 4.001 4 6.249 9.427 6.249 15.085s-2.248 11.085-6.249 15.085c-4 4-9.427 6.248-15.085 6.248s-11.084-2.248-15.085-6.248-6.249-9.427-6.249-15.085 2.248-11.085 6.249-15.085c4.001-4.002 9.427-6.249 15.085-6.249zM383.998 21.333c5.659 0 11.085 2.247 15.087 6.249 4 4 6.247 9.427 6.247 15.085s-2.247 11.085-6.247 15.085c-4.002 4-9.427 6.248-15.087 6.248-5.658 0-11.082-2.248-15.085-6.248-4-4-6.248-9.427-6.248-15.085s2.248-11.085 6.248-15.085c4.002-4.002 9.427-6.249 15.085-6.249z" />
</font>
</defs>
</svg>
