<?xml version="1.0" encoding="utf-8"?>
<!-- Generator: Adobe Illustrator 24.1.0, SVG Export Plug-In . SVG Version: 6.00 Build 0)  -->
<svg version="1.1" id="Layer_1" xmlns="http://www.w3.org/2000/svg" xmlns:xlink="http://www.w3.org/1999/xlink" x="0px" y="0px"
	 width="72px" height="72px" viewBox="0 0 72 72" enable-background="new 0 0 72 72" xml:space="preserve">
<g>
	<rect x="20" y="45.6" fill="#5E1AD5" width="6.4" height="6.4"/>
	<rect x="20" y="32.8" fill="#5E1AD5" width="6.4" height="6.4"/>
	<path fill="#5E1AD5" d="M64.8,55.2V26.4h-6.4v-16c0-0.9-0.3-1.7-0.9-2.3c-0.6-0.6-1.4-0.9-2.3-0.9H10.4c-0.9,0-1.7,0.3-2.3,0.9
		c-0.6,0.6-0.9,1.4-0.9,2.3v48H4v6.4h54.4v-6.4H52V39.2h-6.4v19.2h-6.4V32.8h19.2v22.4H64.8z M52,26.4H32.8v32H13.6V13.6H52V26.4z"
		/>
	<rect x="20" y="20" fill="#5E1AD5" width="6.4" height="6.4"/>
	<polygon fill="#5E1AD5" points="61.6,58.4 61.6,64.8 64.8,64.8 68,64.8 68,64.8 68,58.4 	"/>
</g>
</svg>
