<?xml version="1.0" encoding="utf-8"?>
<!-- Generator: Adobe Illustrator 24.1.0, SVG Export Plug-In . SVG Version: 6.00 Build 0)  -->
<svg version="1.1" id="Layer_1" xmlns="http://www.w3.org/2000/svg" xmlns:xlink="http://www.w3.org/1999/xlink" x="0px" y="0px"
	 width="38px" height="38px" viewBox="0 0 38 38" enable-background="new 0 0 38 38" xml:space="preserve">
<g>
	<path fill="#5E1AD5" d="M30.8,5.9h-3.6v14.5H6.8l-3.2,2.5V4.1h21.7V0.4H1.8C1.3,0.4,0.9,0.6,0.5,1S0,1.8,0,2.3v28.1L8.1,24h22.7
		V5.9z"/>
	<path fill="#5E1AD5" d="M37.5,11.8c-0.3-0.3-0.8-0.5-1.3-0.5h-1.8v18.8l-3.2-2.5H12.7v1.8c0,0.5,0.2,0.9,0.5,1.3s0.8,0.5,1.3,0.5
		h15.5l8.1,6.3V13.1C38,12.6,37.8,12.2,37.5,11.8z"/>
	<rect x="27.1" y="0.4" fill="#5E1AD5" width="3.6" height="3.6"/>
</g>
</svg>
