<?xml version="1.0" encoding="utf-8"?>
<!-- Generator: Adobe Illustrator 24.1.0, SVG Export Plug-In . SVG Version: 6.00 Build 0)  -->
<svg version="1.1" id="Layer_1" xmlns="http://www.w3.org/2000/svg" xmlns:xlink="http://www.w3.org/1999/xlink" x="0px" y="0px"
	 width="38px" height="38px" viewBox="0 0 38 38" enable-background="new 0 0 38 38" xml:space="preserve">
<g id="Group_2191" transform="translate(-7863.486 13225.98)">
	<rect x="7880.4" y="-13198.5" fill="#5E1AD5" width="4.2" height="4.2"/>
	<path fill="#5E1AD5" d="M7901.5-13188h-38v-38h38V-13188z M7867.7-13192.2h29.6v-29.6h-29.6V-13192.2z"/>
	<path fill="#5E1AD5" d="M7884.6-13200.7h-4.2v-6.4h2.1c2.3,0,4.2-1.9,4.2-4.2s-1.9-4.2-4.2-4.2c-1.1,0-2.2,0.4-3,1.2
		c-0.8,0.8-1.2,1.9-1.2,3h-4.2c0-2.3,0.9-4.4,2.5-6c1.6-1.6,3.7-2.5,6-2.5c4.7,0,8.4,3.8,8.4,8.4c0,3.9-2.7,7.2-6.3,8.2V-13200.7z"
		/>
</g>
</svg>
