<?xml version="1.0" encoding="utf-8"?>
<!-- Generator: Adobe Illustrator 24.1.0, SVG Export Plug-In . SVG Version: 6.00 Build 0)  -->
<svg version="1.1" id="Layer_1" xmlns="http://www.w3.org/2000/svg" xmlns:xlink="http://www.w3.org/1999/xlink" x="0px" y="0px"
	 width="60px" height="60px" viewBox="0 0 60 60" style="enable-background:new 0 0 60 60;" xml:space="preserve">
<path style="fill:#5E1AD5;" d="M33.6,57.8h-7c-2.2,0-4.2-1.4-5-3.5H1.8c-1,0-1.7-0.8-1.8-1.7c0,0,0,0,0,0V10.3c0-1,0.8-1.7,1.7-1.8
	c0,0,0,0,0,0H9c1,0,1.7,0.8,1.8,1.7c0,0,0,0,0,0v33.5h15.8c1.3,0,2.5,0.4,3.5,1.3c1-0.9,2.2-1.3,3.5-1.3h15.8V10.3
	c0-1,0.8-1.7,1.7-1.8c0,0,0,0,0,0h7.1c1,0,1.7,0.8,1.8,1.7c0,0,0,0,0,0v42.2c0,1-0.8,1.7-1.7,1.8c0,0,0,0,0,0H38.5
	C37.8,56.4,35.8,57.8,33.6,57.8z"/>
<path style="fill:#8080FF;" d="M51.1,5h-14c-2.8,0-5.4,1.3-7.1,3.5c-1.1,1.5-1.8,3.3-1.8,5.2v27c-3-2.5-6.7-3.9-10.5-4.1V6.8
	C17.7,5.8,17,5,16,5c0,0,0,0-0.1,0h-7C8,5,7.2,5.8,7.2,6.7c0,0,0,0,0,0.1v38.7c0,1,0.7,1.7,1.7,1.8c0,0,0,0,0.1,0h17.6
	c1,0,1.7,0.7,1.8,1.7c0,0,0,0,0,0.1c0,1,0.8,1.8,1.8,1.8c1,0,1.8-0.8,1.8-1.8c0-1,0.7-1.7,1.7-1.8c0,0,0,0,0.1,0h17.6
	c1,0,1.7-0.7,1.8-1.7c0,0,0,0,0-0.1V6.8C52.8,5.8,52.1,5,51.1,5C51.1,5,51.1,5,51.1,5L51.1,5z"/>
<path style="fill:#BFBFFF;" d="M16,1.5c-1,0-1.7,0.8-1.7,1.8V42c0,1,0.8,1.8,1.8,1.8c0,0,0,0,0,0c9.2,0,12.3,5.8,12.4,6
	c0.3,0.6,0.9,1,1.6,1v-42C30,4.5,21.7,1.5,16,1.5z"/>
</svg>
