<?xml version="1.0" encoding="utf-8"?>
<!-- Generator: Adobe Illustrator 24.1.0, SVG Export Plug-In . SVG Version: 6.00 Build 0)  -->
<!DOCTYPE svg PUBLIC "-//W3C//DTD SVG 1.1//EN" "http://www.w3.org/Graphics/SVG/1.1/DTD/svg11.dtd" [
	<!ENTITY st0 "fill:#5E1AD5;">
	<!ENTITY st1 "fill:#8080FF;">
	<!ENTITY st2 "fill:#4040FF;">
	<!ENTITY st3 "fill:#BFBFFF;">
	<!ENTITY st4 "fill:#FFFFFF;">
]>
<svg version="1.1" id="Layer_1" xmlns="http://www.w3.org/2000/svg" xmlns:xlink="http://www.w3.org/1999/xlink" x="0px" y="0px"
	 width="38px" height="38px" viewBox="0 0 38 38" style="enable-background:new 0 0 38 38;" xml:space="preserve">
<g>
	<path style="&st0;" d="M19.8,0.3c-0.4-0.4-1.1-0.4-1.6,0c-3.9,3.9-17.3,17.4-17.8,18l8.2,11.2h20.9l8.2-11.2
		C26.9,7.5,30.5,11.2,19.8,0.3z"/>
	<path style="&st1;" d="M0.4,18.3L0.4,18.3c-0.2,0.2-0.3,0.5-0.3,0.8v17.8c0,0.3,0.1,0.6,0.3,0.8l1-0.3L9.8,29l0.2-1L0.4,18.3z"/>
	<path style="&st1;" d="M37.9,36.9V19.2c0-0.3-0.1-0.7-0.3-0.9l0,0L27.9,28l0,0l0.2,0.9l8.4,8.4l1.1,0.3
		C37.8,37.5,37.9,37.2,37.9,36.9L37.9,36.9z"/>
	<path style="&st2;" d="M27.9,28H10.1l-9.7,9.7C0.6,37.9,0.9,38,1.2,38h35.6c0.3,0,0.6-0.1,0.8-0.3L27.9,28z"/>
	<path style="&st3;" d="M10.1,28h17.8l3.3-3.3V10.2c0-0.6-0.5-1.1-1.1-1.1H7.9c-0.6,0-1.1,0.5-1.1,1.1l0,0v14.4L10.1,28z"/>
	<path style="&st4;" d="M12.3,15.7h13.4c0.6,0,1.1-0.5,1.1-1.1s-0.5-1.1-1.1-1.1H12.3c-0.6,0-1.1,0.5-1.1,1.1S11.7,15.7,12.3,15.7z"
		/>
	<path style="&st4;" d="M25.7,18H12.3c-0.6,0-1.1,0.5-1.1,1.1c0,0.6,0.5,1.1,1.1,1.1h13.4c0.6,0,1.1-0.5,1.1-1.1
		C26.8,18.5,26.3,18,25.7,18z"/>
	<path style="&st4;" d="M25.7,22.4H12.3c-0.6,0-1.1,0.5-1.1,1.1c0,0.6,0.5,1.1,1.1,1.1h13.4c0.6,0,1.1-0.5,1.1-1.1
		C26.8,22.9,26.3,22.4,25.7,22.4z"/>
</g>
</svg>
