<?xml version="1.0" encoding="utf-8"?>
<!-- Generator: Adobe Illustrator 24.1.1, SVG Export Plug-In . SVG Version: 6.00 Build 0)  -->
<svg version="1.1" id="Layer_1" xmlns="http://www.w3.org/2000/svg" xmlns:xlink="http://www.w3.org/1999/xlink" x="0px" y="0px"
	 viewBox="0 0 164 164" style="enable-background:new 0 0 164 164;" xml:space="preserve">
<style type="text/css">
	.st0{fill:#BFBFFF;}
	.st1{fill:#5E1AD5;}
	.st2{fill:#8080FF;}
</style>
<g>
	<path class="st0" d="M146.5,81.9c0,35.7-28.9,64.6-64.6,64.6c-35.7,0-64.6-28.9-64.6-64.6c0-35.6,28.8-64.4,64.4-64.6
		c35.7,0,64.6,28.9,64.6,64.6H146.5z"/>
	<path class="st0" d="M146.5,81.9c0,35.7-28.9,64.6-64.6,64.6V17.4C117.6,17.4,146.5,46.3,146.5,81.9z"/>
	<path class="st1" d="M127.6,36.3c-25.3-25.2-66.1-25.1-91.3,0.1s-25.1,66.1,0.1,91.3c25.2,25.1,66,25.1,91.1,0
		c25.3-25.2,25.3-66,0.1-91.3C127.7,36.4,127.7,36.4,127.6,36.3z M133.6,58h-21c-1.2-9.4-3.3-18.7-6.5-27.6
		C118.3,36,128,45.8,133.8,58H133.6z M57.9,30.3c-3.2,8.9-5.4,18.2-6.5,27.6H30.2C35.8,45.8,45.6,36,57.9,30.3L57.9,30.3z
		 M96.3,137.3c-3.5,0.9-7,1.5-10.6,1.7v-32.9h19.2C103.6,116.9,100.7,127.4,96.3,137.3z M106,133.8c3.2-8.9,5.5-18.2,6.7-27.6h21.1
		c-5.7,12.2-15.5,21.9-27.6,27.6H106z M85.7,98.6V71.9c0-2.1-1.7-3.8-3.8-3.8c-2.1,0-3.8,1.7-3.8,3.8v26.6H63.6
		c-2.1,0-3.8,1.7-3.8,3.8c0,2.1,1.7,3.8,3.8,3.8l0,0h14.5V139c-3.6-0.2-7.1-0.8-10.6-1.7c-3.7-8.2-6.3-16.9-7.7-25.8
		c-0.3-2.1-2.2-3.5-4.3-3.2s-3.5,2.2-3.2,4.3c0,0,0,0.1,0,0.1c1.2,7.1,3.1,14.2,5.6,21c-12.2-5.7-21.9-15.5-27.6-27.6h13.2
		c2.1,0,3.8-1.7,3.8-3.8c0-2.1-1.7-3.8-3.8-3.8H27.2c-3.2-10.8-3.2-22.2,0-33h23.2c-0.8,8.9-0.9,17.9-0.4,26.9
		c0.1,2.1,1.9,3.7,4,3.6c2.1-0.1,3.7-1.9,3.6-4c-0.5-8.8-0.3-17.6,0.5-26.4h13.7c2.1,0,3.8-1.7,3.8-3.8S73.8,58,71.8,58l0,0H58.9
		c1.3-10.8,4.2-21.3,8.6-31.2c3.5-0.9,7-1.5,10.6-1.7v26.5c0,2.1,1.7,3.8,3.8,3.8c2.1,0,3.8-1.7,3.8-3.8V25.1
		c3.6,0.2,7.1,0.8,10.6,1.7c4.4,9.9,7.3,20.4,8.6,31.2H92c-2.1,0-3.8,1.7-3.8,3.8s1.7,3.8,3.8,3.8h13.7c0.5,5.4,0.8,10.9,0.8,16.5
		c0,2.1,1.7,3.8,3.8,3.8c2.1,0,3.8-1.7,3.8-3.8c0-5.6-0.3-11.2-0.7-16.5h23.2c3.2,10.8,3.2,22.2,0,33H85.7z"/>
	<path class="st2" d="M53.5,88.4c-7.8,0-14,6.3-14,14s6.3,14,14,14s14-6.3,14-14S61.2,88.4,53.5,88.4z"/>
	<path class="st2" d="M95.8,61.8c0,7.8-6.3,14-14,14s-14-6.3-14-14s6.3-14,14-14S95.8,54,95.8,61.8z"/>
	<path class="st2" d="M110.3,78.3c-7.8,0-14,6.3-14,14c0,7.8,6.3,14,14,14c7.8,0,14-6.3,14-14S118,78.3,110.3,78.3z"/>
</g>
</svg>
