<?xml version="1.0" encoding="utf-8"?>
<!-- Generator: Adobe Illustrator 24.1.0, SVG Export Plug-In . SVG Version: 6.00 Build 0)  -->
<svg version="1.1" id="Layer_1" xmlns="http://www.w3.org/2000/svg" xmlns:xlink="http://www.w3.org/1999/xlink" x="0px" y="0px"
	 width="39px" height="39px" viewBox="0 0 39 39" style="enable-background:new 0 0 39 39;" xml:space="preserve">
<g style="opacity:0.5;">
	<g>
		<path style="fill:#FFFFFF;" d="M19.5,21.8c4.2,0,7.6-3.4,7.6-7.7s-3.4-7.7-7.6-7.7c-4.2,0-7.6,3.4-7.6,7.7S15.3,21.8,19.5,21.8z
			 M19.5,9.8c2.4,0,4.3,2,4.3,4.4c0,2.4-1.9,4.4-4.3,4.4c-2.4,0-4.3-2-4.3-4.4C15.2,11.8,17.1,9.8,19.5,9.8z M32,30
			c-2.6-4.5-7.3-7.3-12.5-7.3c-5.1,0-9.9,2.8-12.5,7.3c-0.2,0.4-0.3,0.8-0.1,1.3c0.1,0.4,0.4,0.8,0.8,1c0.2,0.1,0.5,0.2,0.8,0.2
			c0.6,0,1.2-0.3,1.4-0.8c2-3.5,5.6-5.6,9.6-5.6c4,0,7.7,2.2,9.6,5.7c0.3,0.5,0.8,0.8,1.4,0.8c0.3,0,0.6-0.1,0.8-0.2
			C32.2,31.8,32.4,30.8,32,30z"/>
	</g>
</g>
</svg>
