<?xml version="1.0" encoding="utf-8"?>
<!-- Generator: Adobe Illustrator 24.1.0, SVG Export Plug-In . SVG Version: 6.00 Build 0)  -->
<svg version="1.1" id="Layer_1" xmlns="http://www.w3.org/2000/svg" xmlns:xlink="http://www.w3.org/1999/xlink" x="0px" y="0px"
	 viewBox="0 0 164 164" style="enable-background:new 0 0 164 164;" xml:space="preserve">
<style type="text/css">
	.st0{fill:#61C4F2;}
	.st1{fill:#7F92FF;}
	.st2{fill:#263357;}
</style>
<g>
	<g>
		<path class="st0" d="M136.05,85.46c-0.47,0-0.94-0.19-1.28-0.56c-0.65-0.71-0.61-1.81,0.1-2.47c4.13-3.81,6.5-9.23,6.5-14.85
			c0-5.6-2.36-11-6.46-14.81c-0.71-0.66-0.75-1.76-0.09-2.47c0.66-0.71,1.76-0.75,2.47-0.09c4.82,4.47,7.58,10.8,7.58,17.37
			c0,6.59-2.78,12.94-7.62,17.41C136.9,85.31,136.47,85.46,136.05,85.46z"/>
	</g>
	<g>
		<path class="st0" d="M143.14,92.56c-0.46,0-0.92-0.18-1.27-0.55c-0.66-0.7-0.63-1.8,0.07-2.47c6.1-5.77,9.45-13.57,9.45-21.96
			c0-8.34-3.32-16.11-9.35-21.87c-0.7-0.67-0.72-1.77-0.06-2.47c0.67-0.7,1.77-0.72,2.47-0.06c6.73,6.43,10.43,15.09,10.43,24.39
			c0,9.36-3.75,18.06-10.54,24.5C144.01,92.4,143.58,92.56,143.14,92.56z"/>
	</g>
	<g>
		<path class="st0" d="M27.95,85.46c-0.42,0-0.85-0.15-1.18-0.46c-4.84-4.47-7.62-10.82-7.62-17.41c0-6.57,2.76-12.9,7.58-17.37
			c0.71-0.65,1.81-0.61,2.47,0.09c0.66,0.71,0.61,1.81-0.09,2.47c-4.11,3.81-6.46,9.21-6.46,14.81c0,5.62,2.37,11.03,6.5,14.85
			c0.71,0.65,0.75,1.76,0.1,2.47C28.89,85.27,28.42,85.46,27.95,85.46z"/>
	</g>
	<g>
		<path class="st0" d="M20.86,92.56c-0.43,0-0.86-0.16-1.2-0.48c-6.8-6.44-10.55-15.14-10.55-24.5c0-9.3,3.71-17.96,10.43-24.39
			c0.7-0.66,1.8-0.64,2.47,0.06s0.64,1.8-0.06,2.47c-6.03,5.76-9.35,13.53-9.35,21.87c0,8.39,3.36,16.19,9.45,21.96
			c0.7,0.66,0.73,1.77,0.07,2.47C21.78,92.38,21.32,92.56,20.86,92.56z"/>
	</g>
	<path class="st1" d="M99.31,33.83c-5.98-3.98-13.16-6.3-20.88-6.3c-20.87,0-37.79,16.92-37.79,37.79
		c0,10.76,4.51,20.47,11.73,27.35c5.98,3.98,13.16,6.3,20.88,6.3c20.87,0,37.79-16.92,37.79-37.79
		C111.04,50.41,106.54,40.71,99.31,33.83z M72.86,66.29c-3.21,0-5.82-2.6-5.82-5.82c0-3.21,2.6-5.82,5.82-5.82
		c3.21,0,5.82,2.6,5.82,5.82C78.68,63.69,76.07,66.29,72.86,66.29z"/>
	<rect x="41.45" y="112.83" class="st0" width="62.83" height="30.25"/>
	<circle class="st0" cx="126.38" cy="68.62" r="6.98"/>
	<g>
		<path class="st2" d="M73.44,100.03c-22.13,0-40.14-18.01-40.14-40.14s18.01-40.14,40.14-40.14s40.14,18.01,40.14,40.14
			C113.58,82.03,95.58,100.03,73.44,100.03z M73.44,23.24c-20.21,0-36.65,16.44-36.65,36.65s16.44,36.65,36.65,36.65
			s36.65-16.44,36.65-36.65C110.09,39.68,93.65,23.24,73.44,23.24z"/>
	</g>
	<g>
		<path class="st2" d="M72.86,67.46c-3.85,0-6.98-3.13-6.98-6.98s3.13-6.98,6.98-6.98c3.85,0,6.98,3.13,6.98,6.98
			S76.71,67.46,72.86,67.46z M72.86,56.98c-1.92,0-3.49,1.57-3.49,3.49s1.57,3.49,3.49,3.49s3.49-1.57,3.49-3.49
			S74.79,56.98,72.86,56.98z"/>
	</g>
	<g>
		<path class="st2" d="M125.8,77.93c-4.81,0-8.73-3.91-8.73-8.73c0-4.81,3.91-8.73,8.73-8.73c4.81,0,8.73,3.91,8.73,8.73
			C134.53,74.01,130.61,77.93,125.8,77.93z M125.8,63.97c-2.89,0-5.24,2.35-5.24,5.24s2.35,5.24,5.24,5.24s5.24-2.35,5.24-5.24
			C131.04,66.31,128.69,63.97,125.8,63.97z"/>
	</g>
	<g>
		<path class="st2" d="M103.69,144.25H42.03c-0.96,0-1.75-0.78-1.75-1.75v-29.09c0-0.96,0.78-1.75,1.75-1.75h61.67
			c0.96,0,1.75,0.78,1.75,1.75v19.78c0,0.96-0.78,1.75-1.75,1.75c-0.96,0-1.75-0.78-1.75-1.75v-18.03H43.77v25.6h59.92
			c0.96,0,1.75,0.78,1.75,1.75S104.66,144.25,103.69,144.25z"/>
	</g>
	<g>
		<path class="st2" d="M57.15,114c-0.96,0-1.75-0.78-1.75-1.75V95.96c0-0.96,0.78-1.75,1.75-1.75c0.96,0,1.75,0.78,1.75,1.75v16.29
			C58.9,113.22,58.12,114,57.15,114z"/>
	</g>
	<g>
		<path class="st2" d="M88.57,114c-0.96,0-1.75-0.78-1.75-1.75v-10.47c0-0.96,0.78-1.75,1.75-1.75c0.96,0,1.75,0.78,1.75,1.75v10.47
			C90.31,113.22,89.53,114,88.57,114z"/>
	</g>
	<g>
		<path class="st2" d="M104.97,130.64c-0.46,0-0.93-0.18-1.27-0.55c-0.66-0.7-0.63-1.81,0.07-2.47l20.29-19.15V77.35
			c0-0.96,0.78-1.75,1.75-1.75c0.96,0,1.75,0.78,1.75,1.75v31.88c0,0.48-0.2,0.94-0.55,1.27l-20.83,19.67
			C105.83,130.49,105.4,130.64,104.97,130.64z"/>
	</g>
	<g>
		<path class="st2" d="M83.91,124.47H64.13c-0.96,0-1.75-0.78-1.75-1.75c0-0.96,0.78-1.75,1.75-1.75h19.78
			c0.96,0,1.75,0.78,1.75,1.75C85.66,123.69,84.88,124.47,83.91,124.47z"/>
	</g>
	<g>
		<path class="st2" d="M88.57,133.78H58.32c-0.96,0-1.75-0.78-1.75-1.75s0.78-1.75,1.75-1.75h30.25c0.96,0,1.75,0.78,1.75,1.75
			S89.53,133.78,88.57,133.78z"/>
	</g>
</g>
</svg>
