<?xml version="1.0" encoding="utf-8"?>
<!-- Generator: Adobe Illustrator 24.1.0, SVG Export Plug-In . SVG Version: 6.00 Build 0)  -->
<svg version="1.1" id="Layer_1" xmlns="http://www.w3.org/2000/svg" xmlns:xlink="http://www.w3.org/1999/xlink" x="0px" y="0px"
	 viewBox="0 0 164 164" style="enable-background:new 0 0 164 164;" xml:space="preserve">
<style type="text/css">
	.st0{fill:#61C4F2;}
	.st1{fill:#263357;}
	.st2{fill:#FFFFFF;}
	.st3{fill:#7F92FF;}
</style>
<g>
	<path class="st0" d="M86.77,117.42v10.9c-1.36,5.45-9.54,4.09-9.54,0v-10.9C77.23,117.42,86.77,117.42,86.77,117.42z"/>
	<g>
		<path class="st1" d="M118.79,151.55c-1.17,0-2.12-0.95-2.12-2.12v-4.7H48.69v4.7c0,1.17-0.95,2.12-2.12,2.12s-2.12-0.95-2.12-2.12
			v-6.81c0-1.17,0.95-2.12,2.12-2.12h72.21c1.17,0,2.12,0.95,2.12,2.12v6.81C120.9,150.61,119.95,151.55,118.79,151.55z"/>
	</g>
	<g>
		<path class="st1" d="M81.99,134.51c-1.42,0-2.82-0.4-4.05-1.21c-2.15-1.39-3.43-3.75-3.43-6.29v-10.27c0-1.13,0.92-2.04,2.04-2.04
			c1.13,0,2.04,0.92,2.04,2.04v10.27c0,1.15,0.59,2.22,1.57,2.86c0.58,0.38,1.81,0.91,3.42,0.19c1.09-0.49,1.82-1.71,1.82-3.05
			v-10.28c0-1.13,0.92-2.04,2.04-2.04c1.13,0,2.04,0.92,2.04,2.04v10.28c0,2.97-1.67,5.63-4.25,6.78
			C84.18,134.27,83.07,134.51,81.99,134.51z"/>
	</g>
	<g>
		<path class="st1" d="M59.2,144.31c-0.39,0-0.78-0.11-1.13-0.34c-0.94-0.63-1.19-1.9-0.57-2.84c2.21-3.31,3.38-7.18,3.38-11.17
			v-13.22c0-1.13,0.92-2.04,2.04-2.04c1.13,0,2.04,0.92,2.04,2.04v13.22c0,4.8-1.41,9.45-4.07,13.44
			C60.51,143.99,59.86,144.31,59.2,144.31z"/>
	</g>
	<g>
		<path class="st1" d="M104.8,144.31c-0.66,0-1.31-0.32-1.7-0.91c-2.66-3.99-4.07-8.64-4.07-13.44v-13.22
			c0-1.13,0.92-2.04,2.04-2.04c1.13,0,2.04,0.92,2.04,2.04v13.22c0,3.99,1.17,7.86,3.38,11.17c0.63,0.94,0.37,2.21-0.57,2.84
			C105.58,144.2,105.19,144.31,104.8,144.31z"/>
	</g>
	<g>
		<path class="st1" d="M145.21,117.42H18.79c-5.33,0-9.67-4.34-9.67-9.67V19.46c0-5.33,4.34-9.67,9.67-9.67h126.43
			c5.33,0,9.67,4.34,9.67,9.67v88.28C154.89,113.08,150.55,117.42,145.21,117.42z M18.79,13.88c-3.08,0-5.59,2.51-5.59,5.59v88.28
			c0,3.08,2.51,5.59,5.59,5.59h126.43c3.08,0,5.59-2.51,5.59-5.59V19.46c0-3.08-2.51-5.59-5.59-5.59H18.79V13.88z"/>
	</g>
	<g>
		<path class="st1" d="M150.12,154.21H67.01c-1.13,0-2.04-0.92-2.04-2.04c0-1.13,0.92-2.04,2.04-2.04h83.11
			c1.13,0,2.04,0.92,2.04,2.04C152.16,153.29,151.25,154.21,150.12,154.21z"/>
	</g>
	<g>
		<path class="st1" d="M54.75,154.21H12.52c-1.13,0-2.04-0.92-2.04-2.04c0-1.13,0.92-2.04,2.04-2.04h42.23
			c1.13,0,2.04,0.92,2.04,2.04C56.8,153.29,55.88,154.21,54.75,154.21z"/>
	</g>
	<g>
		<path class="st2" d="M121.51,53.39h-20.44c-1.13,0-2.04-0.92-2.04-2.04s0.92-2.04,2.04-2.04h20.44c1.13,0,2.04,0.92,2.04,2.04
			S122.64,53.39,121.51,53.39z"/>
	</g>
	<g>
		<path class="st2" d="M117.42,65.65h-16.35c-1.13,0-2.04-0.92-2.04-2.04c0-1.13,0.92-2.04,2.04-2.04h16.35
			c1.13,0,2.04,0.92,2.04,2.04C119.47,64.74,118.55,65.65,117.42,65.65z"/>
	</g>
	<g>
		<g>
			<path class="st0" d="M118.25,64.32c-0.31,0-0.63-0.13-0.86-0.38c-0.44-0.47-0.41-1.22,0.07-1.65c2.77-2.56,4.36-6.19,4.36-9.96
				c0-3.75-1.58-7.38-4.33-9.93c-0.47-0.44-0.5-1.18-0.06-1.65s1.18-0.5,1.65-0.06c3.23,3,5.08,7.24,5.08,11.65
				c0,4.42-1.86,8.68-5.11,11.68C118.82,64.22,118.53,64.32,118.25,64.32z"/>
		</g>
		<g>
			<path class="st0" d="M123.01,69.08c-0.31,0-0.62-0.12-0.85-0.37c-0.45-0.47-0.42-1.21,0.04-1.65c4.09-3.87,6.34-9.1,6.34-14.73
				c0-5.59-2.23-10.8-6.27-14.67c-0.47-0.45-0.48-1.19-0.04-1.66c0.45-0.47,1.19-0.48,1.66-0.04c4.51,4.31,7,10.12,7,16.36
				c0,6.28-2.51,12.11-7.07,16.43C123.59,68.98,123.3,69.08,123.01,69.08z"/>
		</g>
		<g>
			<path class="st0" d="M45.75,64.32c-0.28,0-0.57-0.1-0.79-0.31c-3.25-3-5.11-7.26-5.11-11.68c0-4.4,1.85-8.65,5.08-11.65
				c0.47-0.44,1.21-0.41,1.65,0.06c0.44,0.47,0.41,1.21-0.06,1.65c-2.75,2.56-4.33,6.18-4.33,9.93c0,3.77,1.59,7.4,4.36,9.96
				c0.47,0.44,0.5,1.18,0.07,1.65C46.38,64.2,46.07,64.32,45.75,64.32z"/>
		</g>
		<g>
			<path class="st0" d="M40.99,69.08c-0.29,0-0.58-0.11-0.8-0.32c-4.56-4.32-7.07-10.15-7.07-16.43c0-6.24,2.49-12.05,7-16.36
				c0.47-0.45,1.21-0.43,1.66,0.04s0.43,1.21-0.04,1.66c-4.05,3.86-6.27,9.07-6.27,14.67c0,5.63,2.25,10.86,6.34,14.73
				c0.47,0.45,0.49,1.19,0.05,1.66C41.61,68.96,41.3,69.08,40.99,69.08z"/>
		</g>
		<path class="st3" d="M93.61,29.69c-4.01-2.67-8.83-4.22-14.01-4.22c-14,0-25.34,11.35-25.34,25.34c0,7.22,3.02,13.73,7.87,18.34
			c4.01,2.67,8.83,4.22,14.01,4.22c14,0,25.34-11.35,25.34-25.34C101.48,40.81,98.46,34.31,93.61,29.69z M75.87,51.46
			c-2.16,0-3.9-1.75-3.9-3.9s1.75-3.9,3.9-3.9s3.9,1.75,3.9,3.9S78.03,51.46,75.87,51.46z"/>
		<rect x="54.8" y="82.68" class="st0" width="42.14" height="20.29"/>
		<circle class="st0" cx="111.77" cy="53.03" r="4.68"/>
		<g>
			<path class="st1" d="M76.26,74.1c-14.85,0-26.92-12.08-26.92-26.92c0-14.85,12.08-26.92,26.92-26.92
				c14.85,0,26.92,12.08,26.92,26.92S91.11,74.1,76.26,74.1z M76.26,22.59c-13.55,0-24.58,11.03-24.58,24.58
				s11.03,24.58,24.58,24.58s24.58-11.03,24.58-24.58C100.84,33.62,89.81,22.59,76.26,22.59z"/>
		</g>
		<g>
			<path class="st1" d="M75.87,52.25c-2.58,0-4.68-2.1-4.68-4.68s2.1-4.68,4.68-4.68s4.68,2.1,4.68,4.68S78.45,52.25,75.87,52.25z
				 M75.87,45.22c-1.29,0-2.34,1.05-2.34,2.34s1.05,2.34,2.34,2.34c1.29,0,2.34-1.05,2.34-2.34S77.16,45.22,75.87,45.22z"/>
		</g>
		<g>
			<path class="st1" d="M111.38,59.27c-3.23,0-5.85-2.63-5.85-5.85c0-3.23,2.63-5.85,5.85-5.85c3.23,0,5.85,2.63,5.85,5.85
				C117.23,56.64,114.6,59.27,111.38,59.27z M111.38,49.9c-1.94,0-3.51,1.58-3.51,3.51c0,1.94,1.58,3.51,3.51,3.51
				c1.94,0,3.51-1.58,3.51-3.51C114.89,51.48,113.31,49.9,111.38,49.9z"/>
		</g>
		<g>
			<path class="st1" d="M96.55,103.75H55.19c-0.65,0-1.17-0.52-1.17-1.17V83.07c0-0.65,0.52-1.17,1.17-1.17h41.36
				c0.65,0,1.17,0.52,1.17,1.17v13.27c0,0.65-0.52,1.17-1.17,1.17s-1.17-0.52-1.17-1.17v-12.1H56.36v17.17h40.19
				c0.65,0,1.17,0.52,1.17,1.17C97.72,103.23,97.2,103.75,96.55,103.75z"/>
		</g>
		<g>
			<path class="st1" d="M65.34,83.46c-0.65,0-1.17-0.52-1.17-1.17V71.36c0-0.65,0.52-1.17,1.17-1.17s1.17,0.52,1.17,1.17v10.93
				C66.51,82.94,65.98,83.46,65.34,83.46z"/>
		</g>
		<g>
			<path class="st1" d="M86.41,83.46c-0.65,0-1.17-0.52-1.17-1.17v-7.02c0-0.65,0.52-1.17,1.17-1.17s1.17,0.52,1.17,1.17v7.02
				C87.58,82.94,87.05,83.46,86.41,83.46z"/>
		</g>
		<g>
			<path class="st1" d="M97.41,94.62c-0.31,0-0.62-0.12-0.85-0.37c-0.44-0.47-0.42-1.21,0.05-1.66l13.61-12.85V58.88
				c0-0.65,0.52-1.17,1.17-1.17s1.17,0.52,1.17,1.17v21.38c0,0.32-0.13,0.63-0.37,0.85l-13.98,13.2
				C97.98,94.52,97.69,94.62,97.41,94.62z"/>
		</g>
		<g>
			<path class="st1" d="M83.28,90.48H70.02c-0.65,0-1.17-0.52-1.17-1.17s0.52-1.17,1.17-1.17h13.27c0.65,0,1.17,0.52,1.17,1.17
				C84.45,89.96,83.93,90.48,83.28,90.48z"/>
		</g>
		<g>
			<path class="st1" d="M86.41,96.73H66.12c-0.65,0-1.17-0.52-1.17-1.17s0.52-1.17,1.17-1.17h20.29c0.65,0,1.17,0.52,1.17,1.17
				C87.58,96.2,87.05,96.73,86.41,96.73z"/>
		</g>
	</g>
</g>
</svg>
