<?xml version="1.0" encoding="utf-8"?>
<!-- Generator: Adobe Illustrator 24.1.0, SVG Export Plug-In . SVG Version: 6.00 Build 0)  -->
<svg version="1.1" id="Layer_1" xmlns="http://www.w3.org/2000/svg" xmlns:xlink="http://www.w3.org/1999/xlink" x="0px" y="0px"
	 viewBox="0 0 164 164" style="enable-background:new 0 0 164 164;" xml:space="preserve">
<style type="text/css">
	.st0{fill:#61C4F2;}
	.st1{fill:#263357;}
	.st2{fill:#7f92ff;}
</style>
<g>
	<g>
		<g>
			<path class="st0" d="M111.08,31.24h-72c-4.59,0-8.31-3.72-8.31-8.31c0-4.59,3.72-8.31,8.31-8.31h72l-4.28,4.37l1.01,7.91
				L111.08,31.24z"/>
		</g>
	</g>
	<g>
		<g>
			<path class="st1" d="M113.66,33.78H35.18c-11.97,0-17.91-14.54-9.5-22.95c4.56-4.56,10.46-3.93,9.51-3.93
				c18.64,0.01,68.44,0.03,82.17,0.03c2.53,0,2.53,3.83,0,3.83c-19.73,0-82.52-0.03-82.18-0.03c-5.31,0-9.61,4.3-9.61,9.61
				c0,5.3,4.31,9.61,9.61,9.61h78.47c1.06,0,1.91,0.86,1.91,1.91S114.72,33.78,113.66,33.78z"/>
		</g>
	</g>
	<g>
		<g>
			<path class="st1" d="M142.28,128.22c0,2.84,4.29,2.84,4.29,0C146.57,125.39,142.28,125.39,142.28,128.22z"/>
		</g>
	</g>
	<g>
		<g>
			<g>
				<path class="st2" d="M111.12,108.88c-4.47,0-8.11,3.64-8.11,8.11c0,4.47,3.64,8.11,8.11,8.11c4.47,0,8.11-3.64,8.11-8.11
					C119.23,112.52,115.59,108.88,111.12,108.88z"/>
			</g>
		</g>
		<g>
			<g>
				<path class="st2" d="M126.73,114.96c1.29-1.99,0.42-4.67-1.79-5.51c-1.37-0.52-2.31-1.81-2.38-3.28
					c-0.13-2.37-2.4-4.02-4.68-3.41c-1.34,0.37-2.89-0.06-3.86-1.25c-1.49-1.85-4.3-1.85-5.78,0c-0.93,1.14-2.44,1.64-3.86,1.25
					c-2.2-0.61-4.56,0.97-4.68,3.41c-0.07,1.47-1.01,2.76-2.38,3.28c-2.22,0.85-3.08,3.52-1.79,5.51c0.8,1.23,0.8,2.82,0,4.05
					c-1.29,1.99-0.42,4.66,1.79,5.5c1.37,0.53,2.31,1.81,2.38,3.29c0.13,2.36,2.4,4.02,4.68,3.4c1.51-0.39,2.98,0.17,3.86,1.26
					c1.49,1.84,4.3,1.84,5.78,0c0.93-1.14,2.44-1.64,3.86-1.26c2.28,0.63,4.56-1.04,4.68-3.4c0.07-1.48,1.01-2.76,2.38-3.29
					c2.22-0.85,3.08-3.51,1.79-5.5C125.93,117.78,125.93,116.18,126.73,114.96z M111.12,128.69c-6.46,0-11.71-5.25-11.71-11.71
					c0-6.46,5.25-11.71,11.71-11.71s11.71,5.25,11.71,11.71C122.83,123.44,117.58,128.69,111.12,128.69z"/>
			</g>
		</g>
		<g>
			<g>
				<path class="st2" d="M117.09,134.68c-0.05-0.01-0.09,0-0.12,0.04c-2.93,3.63-8.46,3.62-11.39,0c-0.03-0.04-0.08-0.05-0.12-0.04
					c-1.05,0.28-2.12,0.32-3.15,0.14v22.44l8.74-8.74l8.74,8.74h0.54v-22.44C119.26,135.01,118.16,134.97,117.09,134.68z"/>
			</g>
		</g>
	</g>
	<g>
		<g>
			<path class="st1" d="M119.19,51.57H54.12c-1.05,0-1.9-0.85-1.9-1.9c0-1.05,0.85-1.9,1.9-1.9h65.08c1.05,0,1.9,0.85,1.9,1.9
				C121.09,50.72,120.24,51.57,119.19,51.57z"/>
		</g>
	</g>
	<g>
		<g>
			<path class="st1" d="M104.1,63.16H65.08c-1.05,0-1.9-0.85-1.9-1.9c0-1.05,0.85-1.9,1.9-1.9h39.02c1.05,0,1.9,0.85,1.9,1.9
				C106,62.31,105.15,63.16,104.1,63.16z"/>
		</g>
	</g>
	<g>
		<g>
			<path class="st1" d="M57.02,63.16h-2.9c-1.05,0-1.9-0.85-1.9-1.9c0-1.05,0.85-1.9,1.9-1.9h2.9c1.05,0,1.9,0.85,1.9,1.9
				C58.92,62.31,58.07,63.16,57.02,63.16z"/>
		</g>
	</g>
	<g>
		<g>
			<path class="st1" d="M117.28,76.47h-3.52c-1.05,0-1.9-0.85-1.9-1.9c0-1.05,0.85-1.9,1.9-1.9h3.52c1.05,0,1.9,0.85,1.9,1.9
				C119.18,75.62,118.33,76.47,117.28,76.47z"/>
		</g>
	</g>
	<g>
		<g>
			<path class="st1" d="M105.25,76.47H54.12c-1.05,0-1.9-0.85-1.9-1.9c0-1.05,0.85-1.9,1.9-1.9h51.13c1.05,0,1.9,0.85,1.9,1.9
				C107.15,75.62,106.3,76.47,105.25,76.47z"/>
		</g>
	</g>
	<g>
		<g>
			<path class="st1" d="M118.38,89.7H54.12c-1.05,0-1.9-0.85-1.9-1.9s0.85-1.9,1.9-1.9h64.26c1.05,0,1.9,0.85,1.9,1.9
				S119.43,89.7,118.38,89.7z"/>
		</g>
	</g>
	<g>
		<g>
			<path class="st1" d="M81.2,103.47h-2.87c-1.06,0-1.91-0.86-1.91-1.91c0-1.06,0.86-1.91,1.91-1.91h2.87
				c1.06,0,1.91,0.86,1.91,1.91C83.11,102.61,82.25,103.47,81.2,103.47z M68.76,103.47h-2.87c-1.06,0-1.91-0.86-1.91-1.91
				c0-1.06,0.86-1.91,1.91-1.91h2.87c1.06,0,1.91,0.86,1.91,1.91C70.67,102.61,69.81,103.47,68.76,103.47z M56.32,103.47h-2.87
				c-2.53,0-2.53-3.83,0-3.83h2.87c1.06,0,1.91,0.86,1.91,1.91C58.23,102.61,57.37,103.47,56.32,103.47z"/>
		</g>
	</g>
	<g>
		<g>
			<path class="st1" d="M86.95,115.65h-33.5c-2.51,0-2.51-3.8,0-3.8h33.5c1.05,0,1.9,0.85,1.9,1.9
				C88.85,114.8,88,115.65,86.95,115.65z"/>
		</g>
	</g>
	<g>
		<g>
			<path class="st1" d="M144.45,120.38c-1.06,0-1.91-0.86-1.91-1.91l-0.03-87.99c0-1.06,0.86-1.91,1.91-1.91
				c1.06,0,1.91,0.86,1.91,1.91l0.03,87.99C146.37,119.52,145.51,120.38,144.45,120.38L144.45,120.38z"/>
		</g>
	</g>
	<g>
		<g>
			<path class="st1" d="M135.19,145.65c-2.99,0-4.59-1.13-5.88-2.04c-1.1-0.78-1.89-1.34-3.67-1.34c-1.06,0-1.91-0.86-1.91-1.91
				c0-1.06,0.86-1.91,1.91-1.91c4.34,0,5.67,2.33,7.63,3.07c0-0.11-0.04-111.4-0.03-111.51c0.04-0.6,0.99-14.71-10.75-18.94
				c-10.43-3.03-19.3,9.12-11.6,16.76c4.24,4.21,10.23,2.19,11.62-2.5c0.78-2.63-0.73-5.4-3.36-6.17c-1.01-0.3-1.59-1.36-1.29-2.38
				c1.19-4.05,10.66,1.73,8.32,9.63c-1.04,3.53-3.91,6.3-7.48,7.21c-9.54,2.44-17.97-8.98-13.07-18.52c3.59-7,11.74-9.79,18.11-7.67
				c14,5.01,13.41,21.36,13.33,22.77l0.03,113.52c0,0.51-0.2,1-0.56,1.35C136.19,145.44,135.7,145.65,135.19,145.65z"/>
		</g>
	</g>
	<g>
		<g>
			<path class="st1" d="M97,145.65c-3,0-4.59-1.13-5.88-2.04c-1.1-0.78-1.89-1.34-3.67-1.34c-1.78,0-2.57,0.56-3.67,1.34
				c-3.84,2.71-7.79,2.8-11.76,0c-1.1-0.78-1.89-1.34-3.67-1.34c-1.78,0-2.58,0.56-3.68,1.34c-3.82,2.69-7.77,2.82-11.77,0
				c-1.1-0.78-1.9-1.34-3.68-1.34c-3.89,0-4.13,3.37-9.57,3.37c-1.21,0-2.29-0.65-2.29-1.95V32.67c0-2.53,3.83-2.53,3.83,0v108.96
				c0.83-0.23,1.42-0.64,2.15-1.15c3.83-2.7,7.79-2.81,11.77,0c1.1,0.78,1.9,1.34,3.68,1.34c3.89,0,4.12-3.37,9.56-3.37
				c5.4,0,5.7,3.37,9.55,3.37c3.88,0,4.12-3.37,9.55-3.37c5.4,0,5.71,3.37,9.55,3.37c1.06,0,1.91,0.86,1.91,1.91
				C98.91,144.79,98.05,145.65,97,145.65z"/>
		</g>
	</g>
	<g>
		<g>
			<path class="st1" d="M17.47,118.47l-0.04-62.52c0-0.27,0.01-0.55,0.05-0.83c0.03-0.21,0.07-0.44,0.12-0.65
				c0,0,0.01-0.09,0.04-0.17c0.11-0.4,0.26-0.8,0.46-1.19c0.03-0.09,0.07-0.18,0.12-0.27l2.95-5.33c1.08-1.95,3.9-2.07,5.1-0.12
				l3.53,5.19c0.01,0.02,0.02,0.04,0.04,0.06c0.02,0.03,0.04,0.06,0.05,0.09c0.55,0.97,0.85,2.04,0.86,3.12l0.01,62.63
				c0,2.53-3.83,2.53-3.83,0l-0.01-62.61c0-0.39-0.11-0.8-0.32-1.18l-2.77-4.08l-2.15,3.87c-0.03,0.08-0.07,0.15-0.11,0.22
				c-0.1,0.18-0.18,0.36-0.23,0.55c-0.01,0.04-0.02,0.09-0.03,0.13c-0.01,0.06-0.03,0.14-0.04,0.22c-0.02,0.11-0.02,0.22-0.02,0.33
				l0.04,62.55c0,1.06-0.86,1.91-1.91,1.91C18.32,120.38,17.47,119.52,17.47,118.47z M22.99,49.37C22.99,49.37,23,49.37,22.99,49.37
				C23,49.37,22.99,49.37,22.99,49.37z"/>
		</g>
	</g>
	<g>
		<g>
			<path class="st1" d="M23.82,49.61c-1.06,0-1.91-0.86-1.91-1.91v-4.17c0-2.53,3.83-2.53,3.83,0v4.17
				C25.73,48.75,24.88,49.61,23.82,49.61z"/>
		</g>
	</g>
	<g>
		<g>
			<path class="st1" d="M28.3,120.38h-8.92c-2.53,0-2.53-3.83,0-3.83h8.92c1.06,0,1.91,0.86,1.91,1.91S29.36,120.38,28.3,120.38z"/>
		</g>
	</g>
	<g>
		<g>
			<path class="st2" d="M24.21,142.71L24.21,142.71c-3.3,0-5.98-2.68-5.98-5.98v-12.68h11.96v12.68
				C30.19,140.03,27.51,142.71,24.21,142.71z"/>
		</g>
	</g>
</g>
</svg>
