<?xml version="1.0" encoding="utf-8"?>
<!-- Generator: Adobe Illustrator 24.1.0, SVG Export Plug-In . SVG Version: 6.00 Build 0)  -->
<svg version="1.1" id="Layer_1" xmlns="http://www.w3.org/2000/svg" xmlns:xlink="http://www.w3.org/1999/xlink" x="0px" y="0px"
	 viewBox="0 0 164 164" style="enable-background:new 0 0 164 164;" xml:space="preserve">
<style type="text/css">
	.st0{fill:#61C4F2;}
	.st1{fill:#263357;}
	.st2{fill:#7F92FF;}
</style>
<g>
	<g>
		<path class="st0" d="M144,62.99c0,11.87-12.72,19.93-22.89,19.93c-8.35,0-69.22,0-78.01,0c-23.39,0-15.56-24.79-16.96-23.74
			C4.52,75.29,30.38,98.6,30.38,98.6s9.43,0.71,22.67,1.34v0.64c7.98,0.23,47.98,0.35,56.06,0.25v-0.48
			c6.16-0.35,11.74-0.91,16.24-1.74C152.9,93.52,144,62.99,144,62.99z"/>
	</g>
	<g>
		<path class="st1" d="M47.9,21.9c-1.5,2.6-5.45,0.33-3.94-2.28c0.63-1.09,2.02-1.46,3.11-0.83C48.16,19.42,48.53,20.81,47.9,21.9z"
			/>
	</g>
	<g>
		<path class="st1" d="M97.21,59.92c-2.6-1.5-0.33-5.45,2.28-3.94C102.08,57.49,99.81,61.43,97.21,59.92z"/>
	</g>
	<g>
		<path class="st1" d="M136.76,108.55c-2.6-1.5-0.33-5.45,2.28-3.94C141.63,106.12,139.36,110.06,136.76,108.55z"/>
	</g>
	<g>
		<path class="st1" d="M67.16,63.95c-2.6-1.5-0.33-5.45,2.28-3.94C72.04,61.52,69.77,65.46,67.16,63.95z"/>
	</g>
	<g>
		<path class="st1" d="M21.03,107.72C-3.88,92.24-2.4,50.73,28.65,40.06c1.18-5.59,3.81-10.77,7.65-15.06
			c1.85-2.08,5,0.73,3.14,2.81c-3.6,4.02-5.98,8.94-6.88,14.23c-0.13,0.79-0.7,1.43-1.46,1.66c-28.37,8.65-30.31,46.49-7.85,60.45
			C25.62,105.61,23.39,109.19,21.03,107.72z"/>
	</g>
	<g>
		<path class="st1" d="M143.74,99.37c19.19-17.08,15.46-48.43-7.58-60.29c-0.58-0.3-0.99-0.86-1.11-1.5
			c-1.07-5.99-3.72-11.64-7.67-16.33c-1.79-2.13,1.44-4.84,3.23-2.71c4.19,4.99,7.08,10.95,8.39,17.29
			c24.91,13.61,28.64,47.92,7.54,66.7C144.46,104.37,141.66,101.22,143.74,99.37z"/>
	</g>
	<g>
		<path class="st1" d="M119.65,101.33H38.79c-13.51,0-23.7-11.39-23.7-26.51c0-13.57,10.87-24.68,24.46-25.3
			c-1.52-11.57,6.78-22.49,18.67-23.9c2.8-0.3,3.24,3.86,0.5,4.19C50.1,30.83,43.6,38.16,43.6,46.87c0,3.94,1.28,4.75,0.14,6.13
			c-0.83,1-1.76,0.72-2.98,0.72c-12.02,0-21.44,9.27-21.44,21.11c0,12.71,8.38,22.29,19.48,22.29h80.86
			c13.77,0,24.98-11.32,24.98-25.23c0-11.43-7.95-21.76-18.9-24.6c-1.03-0.22-2.51-1.18-2.51-3.78c0-16.02-13.03-29.06-29.05-29.06
			c-13.61,0-25.25,9.25-28.3,22.5c-0.62,2.7-4.73,1.77-4.11-0.95c3.5-15.17,16.83-25.77,32.41-25.77c18.3,0,33.2,14.86,33.27,33.15
			c12.65,3.58,21.41,15.19,21.41,28.5C148.84,88.12,135.75,101.33,119.65,101.33z M126.28,43.12L126.28,43.12L126.28,43.12z
			 M126.28,43.12C126.28,43.12,126.28,43.12,126.28,43.12C126.28,43.12,126.28,43.12,126.28,43.12z"/>
	</g>
	<g>
		<path class="st1" d="M81.48,148.8v-47.76c0-2.78,4.2-2.78,4.2,0v47.76C85.68,151.58,81.48,151.59,81.48,148.8z"/>
	</g>
	<g>
		<path class="st2" d="M83.58,159.77c-3.63,0-6.58-2.95-6.58-6.58c0-3.63,2.95-6.58,6.58-6.58c3.63,0,6.58,2.95,6.58,6.58
			C90.16,156.82,87.22,159.77,83.58,159.77z"/>
	</g>
	<g>
		<path class="st1" d="M112.09,144.33h-8.77c-6,0-10.87-4.88-10.87-10.87v-32.41c0-2.78,4.2-2.78,4.2,0v32.41
			c0,3.68,2.99,6.67,6.67,6.67h8.77c1.16,0,2.1,0.94,2.1,2.1C114.19,143.39,113.25,144.33,112.09,144.33z"/>
	</g>
	<g>
		<path class="st1" d="M129.64,128.98h-15.35c-6,0-10.87-4.88-10.87-10.87v-17.06c0-2.78,4.2-2.78,4.2,0v17.06
			c0,3.68,2.99,6.67,6.67,6.67h15.35c1.16,0,2.1,0.94,2.1,2.1S130.8,128.98,129.64,128.98z"/>
	</g>
	<g>
		<circle class="st2" cx="112.09" cy="142.22" r="6.58"/>
	</g>
	<g>
		<path class="st2" d="M134.02,133.45c-3.63,0-6.58-2.95-6.58-6.58s2.95-6.58,6.58-6.58s6.58,2.95,6.58,6.58
			S137.66,133.45,134.02,133.45z"/>
	</g>
	<g>
		<path class="st1" d="M63.85,144.33h-8.77c-2.78,0-2.78-4.2,0-4.2h8.77c3.68,0,6.67-2.99,6.67-6.67v-32.41c0-2.78,4.2-2.78,4.2,0
			v32.41C74.72,139.45,69.84,144.33,63.85,144.33z"/>
	</g>
	<g>
		<path class="st1" d="M52.88,128.98H37.53c-2.78,0-2.78-4.2,0-4.2h15.35c3.68,0,6.67-2.99,6.67-6.67v-17.06c0-2.78,4.2-2.78,4.2,0
			v17.06C63.75,124.1,58.88,128.98,52.88,128.98z"/>
	</g>
	<g>
		<path class="st2" d="M55.07,148.8c3.63,0,6.58-2.95,6.58-6.58c0-3.63-2.95-6.58-6.58-6.58c-3.63,0-6.58,2.95-6.58,6.58
			C48.49,145.86,51.44,148.8,55.07,148.8z"/>
	</g>
	<g>
		<path class="st2" d="M33.14,133.45c3.63,0,6.58-2.95,6.58-6.58s-2.95-6.58-6.58-6.58c-3.63,0-6.58,2.95-6.58,6.58
			S29.51,133.45,33.14,133.45z"/>
	</g>
	<g>
		<path class="st1" d="M63.42,54.94c-2.46-6.36-2.86-13.3-1.3-19.76c0.65-2.71,4.75-1.73,4.1,0.98c-1.34,5.59-1.02,11.67,1.14,17.26
			C68.36,56.02,64.43,57.55,63.42,54.94z"/>
	</g>
	<g>
		<path class="st1" d="M100.63,50.1c10.8-8.39,26.62-8.96,38.13-0.45c2.24,1.65-0.26,5.05-2.5,3.39
			c-9.94-7.34-23.67-6.89-33.04,0.39C101.01,55.14,98.43,51.81,100.63,50.1z"/>
	</g>
</g>
</svg>
