<?xml version="1.0" encoding="utf-8"?>
<!-- Generator: Adobe Illustrator 24.1.0, SVG Export Plug-In . SVG Version: 6.00 Build 0)  -->
<svg version="1.1" id="Layer_1" xmlns="http://www.w3.org/2000/svg" xmlns:xlink="http://www.w3.org/1999/xlink" x="0px" y="0px"
	 viewBox="0 0 164 164" style="enable-background:new 0 0 164 164;" xml:space="preserve">
<style type="text/css">
	.st0{fill:#61C4F2;}
	.st1{fill:#263357;}
	.st2{fill:#7f92ff;}
</style>
<g>
	<path class="st0" d="M137.34,58.37c0-19.06-16.39-31.76-36.75-31.76c-17.23,0-31.76,11.18-35.83,26.16
		c-6.59-3.05-14.34-4.21-22.7-1.68c-10.25,3.1-18.37,10.96-20.82,20.78c-1.08,4.33-1.07,8.55-0.21,12.48h44.85
		c6.23-13.98,20.23-23.73,36.52-23.73s30.29,9.75,36.52,23.73h16.04c0.7-1.82,1.14-3.74,1.14-5.77
		C156.11,69.05,147.52,58.37,137.34,58.37z"/>
	<g>
		<path class="st1" d="M154.86,86.85h-8.12c-1.03,0-1.87-0.84-1.87-1.87s0.84-1.87,1.87-1.87h6.76c0.49-1.68,0.73-3.28,0.73-4.86
			c0-10.11-8.23-18.34-18.34-18.34c-1.03,0-1.87-0.84-1.87-1.87c0-21.26-17.29-38.55-38.55-38.55c-17.61,0-32.95,11.97-37.32,29.11
			c-0.14,0.55-0.52,1-1.03,1.24c-0.51,0.24-1.1,0.23-1.61-0.02c-7.27-3.6-14.76-4.33-22.27-2.19c-12.45,3.55-21.56,13.94-23.2,26.47
			c-0.39,3.01-0.36,6.04,0.1,9.02h47.91c1.03,0,1.87,0.84,1.87,1.87s-0.84,1.87-1.87,1.87H8.58c-0.89,0-1.66-0.63-1.84-1.5
			c-0.79-3.87-0.93-7.82-0.42-11.75c1.83-14.01,12-25.63,25.89-29.59c7.73-2.2,15.43-1.7,22.92,1.5
			c5.48-17.64,21.76-29.78,40.34-29.78c22.72,0,41.31,18.01,42.26,40.5c11.32,0.94,20.25,10.45,20.25,22.01
			c0,2.41-0.44,4.82-1.36,7.37C156.35,86.36,155.65,86.85,154.86,86.85z"/>
	</g>
	<g>
		<path class="st1" d="M46.82,127.77c-1.03,0-1.87-0.84-1.87-1.87v-2.74c0-1.03,0.84-1.87,1.87-1.87c1.03,0,1.87,0.84,1.87,1.87
			v2.74C48.69,126.93,47.85,127.77,46.82,127.77z M46.82,115.88c-1.03,0-1.87-0.84-1.87-1.87v-2.74c0-1.03,0.84-1.87,1.87-1.87
			c1.03,0,1.87,0.84,1.87,1.87V114C48.69,115.04,47.85,115.88,46.82,115.88z M46.82,103.99c-1.03,0-1.87-0.84-1.87-1.87v-2.74
			c0-1.03,0.84-1.87,1.87-1.87c1.03,0,1.87,0.84,1.87,1.87v2.74C48.69,103.15,47.85,103.99,46.82,103.99z M46.82,92.1
			c-1.03,0-1.87-0.84-1.87-1.87v-2.74c0-1.03,0.84-1.87,1.87-1.87c1.03,0,1.87,0.84,1.87,1.87v2.74
			C48.69,91.26,47.85,92.1,46.82,92.1z"/>
	</g>
	<g>
		<path class="st1" d="M46.82,148.06c-5.85,0-10.62-4.76-10.62-10.62s4.76-10.62,10.62-10.62c5.85,0,10.62,4.76,10.62,10.62
			S52.67,148.06,46.82,148.06z M46.82,130.57c-3.79,0-6.87,3.08-6.87,6.87c0,3.79,3.08,6.87,6.87,6.87c3.79,0,6.87-3.08,6.87-6.87
			C53.69,133.65,50.6,130.57,46.82,130.57z"/>
	</g>
	<g>
		<path class="st1" d="M21.84,103.09c-1.03,0-1.87-0.84-1.87-1.87v-1.85c0-1.03,0.84-1.87,1.87-1.87c1.03,0,1.87,0.84,1.87,1.87
			v1.85C23.71,102.25,22.87,103.09,21.84,103.09z M21.84,92.1c-1.03,0-1.87-0.84-1.87-1.87v-2.74c0-1.03,0.84-1.87,1.87-1.87
			c1.03,0,1.87,0.84,1.87,1.87v2.74C23.71,91.26,22.87,92.1,21.84,92.1z"/>
	</g>
	<g>
		<path class="st1" d="M21.84,123.08c-5.85,0-10.62-4.76-10.62-10.62s4.76-10.62,10.62-10.62c5.85,0,10.62,4.76,10.62,10.62
			S27.69,123.08,21.84,123.08z M21.84,105.59c-3.79,0-6.87,3.08-6.87,6.87c0,3.79,3.08,6.87,6.87,6.87c3.79,0,6.87-3.08,6.87-6.87
			C28.71,108.67,25.62,105.59,21.84,105.59z"/>
	</g>
	<g>
		<g>
			<g>
				<path class="st1" d="M130.2,148.26c-6.76,0-13.08-2.42-18.09-6.59c-25.84,6.06-50.46-13.5-50.46-39.93
					c0-22.62,18.4-41.02,41.02-41.02c35.28,0,54.01,41.77,30.74,68.21c-0.36,1.75-0.42,3.49-0.16,5.19c0,0,0,0.01,0,0.02
					c0.72,4.88,3.76,7.93,5.04,9.02c0.69,0.59,1,1.51,0.79,2.4c-0.2,0.88-0.88,1.58-1.76,1.81
					C135.67,147.79,133.19,148.26,130.2,148.26z M114.39,137.2c4.62,4.22,10.77,6.61,17.5,6.13c-1.51-2.09-2.93-4.91-3.45-8.49
					c-0.36-2.35-0.3-7.36,0.93-8.71c21.12-23.25,4.59-60.55-26.71-60.55c-19.94,0-36.15,16.22-36.15,36.15
					c0,1.52,0.1,2.97,0.28,4.32c2.51,21.42,23.59,36.41,45.32,30.58C112.91,136.43,113.77,136.63,114.39,137.2z"/>
			</g>
		</g>
		<g>
			<g>
				<g>
					<path class="st1" d="M77.92,101.05c0.42-25.45,23.59-38.63,27.04-37.05c32.35,14.88,31.52,61.18-1.23,74.97
						C100.48,140.34,77.5,126.84,77.92,101.05z M103.9,68.89c-12.63,5.77-20.88,18.31-21.11,32.24
						c-0.23,13.94,7.61,26.74,20.04,32.91C130.39,121.47,131.12,82.4,103.9,68.89z"/>
				</g>
			</g>
			<g>
				<g>
					<path class="st1" d="M103.47,95.27c-11.66-0.19-22.71-5.37-30.33-14.2c-2.1-2.44,1.58-5.62,3.69-3.18
						c6.83,7.92,16.81,12.52,27.32,12.52c10.44,0,20.32-4.49,27.2-12.39c0.88-1.02,2.42-1.12,3.43-0.24
						c1.01,0.88,1.12,2.42,0.24,3.43C127.21,90.18,115.79,95.47,103.47,95.27z"/>
				</g>
			</g>
			<g>
				<g>
					<path class="st1" d="M127.87,129.02c-14.43-15.16-38.16-14.66-52.13-0.12c-0.93,0.97-2.47,1-3.44,0.07
						c-0.97-0.93-1-2.47-0.07-3.44c16.02-16.67,42.93-16.92,59.17,0.14c0.93,0.97,0.89,2.51-0.08,3.44
						C130.34,130.03,128.8,130,127.87,129.02z"/>
				</g>
			</g>
			<g>
				<g>
					<path class="st2" d="M130.27,88.55c-0.06,3.7-3.11,6.66-6.82,6.6c-3.7-0.06-6.66-3.11-6.6-6.82c0.06-3.7,3.11-6.66,6.82-6.6
						C127.38,81.8,130.33,84.85,130.27,88.55z"/>
				</g>
				<g>
					<path class="st1" d="M123.41,97.58c-8.12-0.13-12.02-10.07-6.2-15.7c3.49-3.38,9.29-3.53,12.92,0.21
						c1.7,1.75,2.61,4.06,2.57,6.5C132.62,93.37,128.8,97.58,123.41,97.58z M120.59,85.37c-2.72,2.64-0.9,7.29,2.91,7.35
						c2.12,0.11,4.31-1.69,4.35-4.21c0.04-2.37-1.85-4.31-4.21-4.35C122.63,84.12,121.46,84.52,120.59,85.37z"/>
				</g>
			</g>
			<g>
				<g>
					<path class="st0" d="M91.13,118.63c-0.06,3.7-3.11,6.66-6.82,6.6c-3.7-0.06-6.66-3.11-6.6-6.82c0.06-3.7,3.11-6.66,6.82-6.6
						C88.24,111.87,91.2,114.92,91.13,118.63z"/>
				</g>
				<g>
					<path class="st1" d="M84.28,127.65c-5.04-0.08-9.07-4.22-8.98-9.28c0.08-4.99,4.16-8.99,9.13-8.99c0.05,0,0.1,0,0.15,0
						c5.04,0.08,9.07,4.25,8.98,9.28l0,0C93.48,123.44,89.67,127.65,84.28,127.65z M80.15,118.45c-0.04,2.37,1.85,4.31,4.21,4.35
						c5.58,0.2,5.86-8.46,0.14-8.56C82.38,114.13,80.19,115.93,80.15,118.45z"/>
				</g>
			</g>
			<g>
				<g>
					<path class="st1" d="M100.47,138.78V64.65c0-1.34,1.09-2.43,2.43-2.43s2.43,1.09,2.43,2.43v74.13
						C105.34,142,100.47,142,100.47,138.78z"/>
				</g>
			</g>
		</g>
	</g>
</g>
</svg>
