<?xml version="1.0" encoding="utf-8"?>
<!-- Generator: Adobe Illustrator 24.1.0, SVG Export Plug-In . SVG Version: 6.00 Build 0)  -->
<svg version="1.1" id="Layer_1" xmlns="http://www.w3.org/2000/svg" xmlns:xlink="http://www.w3.org/1999/xlink" x="0px" y="0px"
	 viewBox="0 0 164 164" style="enable-background:new 0 0 164 164;" xml:space="preserve">
<style type="text/css">
	.st0{fill:#263357;}
	.st1{fill:#7f92ff;}
	.st2{fill:#61C4F2;}
</style>
<g>
	<g>
		<path class="st0" d="M29.24,73.01c-0.99,0-1.8-0.81-1.8-1.8V24.44c0-0.99,0.81-1.8,1.8-1.8h89.93c0.99,0,1.8,0.81,1.8,1.8v39.57
			c0,0.99-0.81,1.8-1.8,1.8c-0.99,0-1.8-0.81-1.8-1.8V26.24H31.04v44.97C31.04,72.2,30.23,73.01,29.24,73.01z"/>
	</g>
	<path class="st1" d="M67.01,109.52c0-4.78,0.73-9.4,2.08-13.73h-17.1c-3.61,0-6.56-2.95-6.56-6.56v-4.66
		c0-3.07-2.49-5.57-5.57-5.57H17.42c-3.07,0-5.57,2.49-5.57,5.57v59.61c0,3.07,2.49,5.57,5.57,5.57h69.89
		c0.91,0,1.25-1.17,0.49-1.67C75.28,139.83,67.01,125.65,67.01,109.52z"/>
	<g>
		<path class="st0" d="M88,150.95H16.82c-4.06,0-7.37-3.3-7.37-7.37V83.97c0-4.06,3.3-7.37,7.37-7.37h22.44
			c4.06,0,7.37,3.3,7.37,7.37v7.06c0,0.72,2.76,2.36,4.76,2.36h16.23c0.99,0,1.8,0.81,1.8,1.8s-0.81,1.8-1.8,1.8H51.38
			c-2.95,0-8.36-2.26-8.36-5.96v-7.06c0-2.08-1.69-3.77-3.77-3.77H16.82c-2.08,0-3.77,1.69-3.77,3.77v59.61
			c0,2.08,1.69,3.77,3.77,3.77H88c0.99,0,1.8,0.81,1.8,1.8C89.79,150.14,88.99,150.95,88,150.95z"/>
	</g>
	<g>
		<path class="st0" d="M113.15,150.95c-20.89,0-38.88-15.82-41.11-37.04c-2.38-22.68,14.13-43.08,36.81-45.47
			c22.69-2.37,43.08,14.13,45.47,36.81c2.38,22.68-14.13,43.08-36.81,45.47C116.04,150.87,114.59,150.95,113.15,150.95z
			 M113.21,71.81c-1.31,0-2.64,0.07-3.98,0.21c-20.71,2.18-35.79,20.8-33.61,41.51c2.18,20.71,20.81,35.79,41.51,33.61
			c20.71-2.18,35.79-20.8,33.61-41.51C148.7,86.26,132.27,71.81,113.21,71.81z"/>
	</g>
	<g>
		<path class="st2" d="M19.65,73.01c-0.99,0-1.8-0.81-1.8-1.8V14.85c0-0.99,0.81-1.8,1.8-1.8h92.33c0.99,0,1.8,0.81,1.8,1.8
			s-0.81,1.8-1.8,1.8H21.44v54.56C21.44,72.2,20.64,73.01,19.65,73.01z"/>
	</g>
	<g>
		<path class="st1" d="M119.31,118.36h-10.26V84.85h10.26V118.36z M119.31,136h-10.26V127h10.26V136z"/>
	</g>
	<g>
		<path class="st0" d="M105.98,50.17H42.43c-0.99,0-1.8-0.81-1.8-1.8v-9.59c0-0.99,0.81-1.8,1.8-1.8h63.55c0.99,0,1.8,0.81,1.8,1.8
			v9.59C107.78,49.36,106.98,50.17,105.98,50.17z M44.23,46.57h59.96v-6H44.23V46.57z"/>
	</g>
	<g>
		<path class="st0" d="M105.98,60.96H42.43c-0.99,0-1.8-0.81-1.8-1.8c0-0.99,0.81-1.8,1.8-1.8h63.55c0.99,0,1.8,0.81,1.8,1.8
			C107.78,60.15,106.98,60.96,105.98,60.96z"/>
	</g>
	<g>
		<path class="st0" d="M85.6,71.75H42.43c-0.99,0-1.8-0.81-1.8-1.8c0-0.99,0.81-1.8,1.8-1.8H85.6c0.99,0,1.8,0.81,1.8,1.8
			C87.4,70.95,86.59,71.75,85.6,71.75z"/>
	</g>
</g>
</svg>
