<?xml version="1.0" encoding="utf-8"?>
<!-- Generator: Adobe Illustrator 24.1.0, SVG Export Plug-In . SVG Version: 6.00 Build 0)  -->
<svg version="1.1" id="Layer_1" xmlns="http://www.w3.org/2000/svg" xmlns:xlink="http://www.w3.org/1999/xlink" x="0px" y="0px"
	 viewBox="0 0 164 164" style="enable-background:new 0 0 164 164;" xml:space="preserve">
<style type="text/css">
	.st0{fill:#7f92ff;}
	.st1{fill:#61C4F2;}
	.st2{fill:#263357;}
</style>
<g>
	<path class="st0" d="M52.15,45.24H26.9c-4.53,0-8.2,3.67-8.2,8.2l-2.14,32.6c0,2.24,1.81,4.05,4.05,4.05h31.89l6.66-40.89
		C58.07,45.97,55.75,45.24,52.15,45.24z M39.53,74.31c-3.92,0-7.1-3.18-7.1-7.1s3.18-7.1,7.1-7.1s7.1,3.18,7.1,7.1
		S43.45,74.31,39.53,74.31z"/>
	<path class="st1" d="M147.86,119.08c4.96,3.15,8.26,8.69,8.26,15c0,9.81-7.95,17.75-17.75,17.75c-9.81,0-17.75-7.95-17.75-17.75
		L147.86,119.08z"/>
	<g>
		<path class="st2" d="M138.36,153.7c-10.82,0-19.62-8.8-19.62-19.62c0-1.03,0.84-1.87,1.87-1.87c1.03,0,1.87,0.84,1.87,1.87
			c0,8.76,7.13,15.89,15.89,15.89c8.76,0,15.89-7.13,15.89-15.89c0-5.47-2.76-10.49-7.39-13.42c-0.87-0.55-1.13-1.71-0.58-2.58
			c0.55-0.87,1.71-1.13,2.58-0.58c5.71,3.62,9.12,9.82,9.12,16.58C157.99,144.9,149.18,153.7,138.36,153.7z"/>
	</g>
	<g>
		<path class="st2" d="M114.88,138.98c-0.22,0-0.43-0.04-0.64-0.11c-0.52-0.19-0.92-0.59-1.11-1.11c-0.99-2.69-1.49-5.52-1.49-8.41
			c0-13.43,10.93-24.36,24.36-24.36c7.37,0,14.26,3.28,18.91,9c0.35,0.43,0.49,0.98,0.39,1.52c-0.1,0.54-0.44,1.01-0.91,1.28
			l-38.57,21.94C115.52,138.9,115.2,138.98,114.88,138.98z M136,108.73c-11.37,0-20.62,9.25-20.62,20.62c0,1.7,0.2,3.37,0.61,4.99
			l34.53-19.64C146.66,110.88,141.48,108.73,136,108.73z"/>
	</g>
	<path class="st1" d="M61.43,134.95c0,9.81-7.95,17.75-17.75,17.75s-17.75-7.95-17.75-17.75H61.43z"/>
	<g>
		<path class="st2" d="M43.67,153.7c-10.82,0-19.62-8.8-19.62-19.62c0-1.03,0.84-1.87,1.87-1.87s1.87,0.84,1.87,1.87
			c0,8.76,7.13,15.89,15.89,15.89s15.89-7.13,15.89-15.89c0-1.03,0.84-1.87,1.87-1.87s1.87,0.84,1.87,1.87
			C63.3,144.9,54.49,153.7,43.67,153.7z"/>
	</g>
	<g>
		<path class="st2" d="M107.56,134.95H16.6c-1.03,0-1.87-0.84-1.87-1.87s0.84-1.87,1.87-1.87h90.95c1.03,0,1.87,0.84,1.87,1.87
			S108.59,134.95,107.56,134.95z"/>
	</g>
	<g>
		<path class="st2" d="M62.72,118.05c-0.6,0-1.19-0.29-1.55-0.82c-3.76-5.55-10.34-8.15-18.5-7.33c-1.78,0.18-3.48,0.5-5.07,0.95
			c-0.99,0.28-2.03-0.29-2.31-1.28c-0.28-0.99,0.29-2.03,1.28-2.31c1.8-0.51,3.72-0.87,5.72-1.07c9.59-0.96,17.4,2.22,21.97,8.95
			c0.58,0.85,0.36,2.02-0.5,2.6C63.45,117.95,63.08,118.05,62.72,118.05z"/>
	</g>
	<g>
		<path class="st2" d="M102.85,122.49H82.73c-0.09,0-0.17-0.01-0.26-0.02c-5.49-0.77-7.87-3.89-8.9-6.37
			c-2.44-5.88,0.13-14.18,2.93-17.91c0.62-0.82,1.79-0.99,2.62-0.37c0.82,0.62,0.99,1.79,0.37,2.62c-1.94,2.58-4.42,9.55-2.47,14.23
			c0.96,2.3,2.87,3.64,5.84,4.08h19.99c0.48-0.04,2.64-1.21,5.26-4.66c1.5-1.98,6.29-9.05,4.74-16.78
			c-2.06-10.33-4.68-19.9-4.7-19.99c-0.27-1,0.31-2.02,1.31-2.3c1-0.28,2.03,0.31,2.3,1.31c0.03,0.1,2.68,9.8,4.76,20.25
			c1.97,9.83-4.18,18.28-6.11,20.63C109.4,118.45,105.86,122.49,102.85,122.49z"/>
	</g>
	<g>
		<path class="st2" d="M131.26,107.54c-0.82,0-1.58-0.55-1.8-1.38l-8.29-30.78c-0.22-0.82,0.14-1.68,0.87-2.1
			c0.73-0.42,1.66-0.3,2.26,0.3c2.01,2.01,3.3,2.35,4.11,2.28l1.93-12.56c-6.8-1.32-12.38,1.41-12.44,1.44
			c-0.92,0.46-2.05,0.09-2.51-0.84c-0.46-0.92-0.09-2.05,0.84-2.51c0.32-0.16,7.86-3.85,16.74-1.31c0.91,0.26,1.48,1.15,1.33,2.08
			l-2.37,15.39c-0.09,0.6-0.47,1.12-1.01,1.39c-1.55,0.77-3.17,0.87-4.84,0.29l6.99,25.96c0.27,1-0.32,2.02-1.32,2.29
			C131.59,107.52,131.42,107.54,131.26,107.54z"/>
	</g>
	<g>
		<path class="st2" d="M83.76,100.07H34.05c-1.03,0-1.87-0.84-1.87-1.87v-7.48c0-1.03,0.84-1.87,1.87-1.87s1.87,0.84,1.87,1.87v5.61
			h45.92c-0.11-2.06-0.4-4.51-0.93-5.58c-0.46-0.92-0.09-2.05,0.84-2.51c0.92-0.46,2.05-0.09,2.51,0.84
			c1.34,2.69,1.38,8.47,1.38,9.12C85.63,99.23,84.79,100.07,83.76,100.07z"/>
	</g>
	<g>
		<path class="st2" d="M99.31,113.46c-0.08,0-0.16,0-0.24-0.02c-1.02-0.13-1.75-1.07-1.61-2.09c0.8-6.19,2.59-23.45,1.22-28.9
			c-0.25-1-2.42-3.32-17.13-3.32c-1.03,0-1.87-0.84-1.87-1.87c0-1.03,0.84-1.87,1.87-1.87c9.5,0,19.4,0.73,20.75,6.15
			c1.81,7.24-1.02,29.35-1.14,30.28C101.03,112.77,100.23,113.46,99.31,113.46z"/>
	</g>
	<g>
		<path class="st2" d="M88.65,122.12c-0.84,0-1.6-0.57-1.81-1.42c-0.83-3.37,0.15-6.37,2.91-8.92c0.35-0.32,0.8-0.5,1.27-0.5h8.29
			c2.05,0,10.12,2.45,10.12,5.61c0,1.03-0.84,1.87-1.87,1.87c-0.81,0-1.49-0.51-1.76-1.23c-0.93-0.82-4.86-2.51-6.5-2.51h-7.52
			c-1.73,1.85-1.65,3.45-1.32,4.79c0.25,1-0.37,2.01-1.37,2.26C88.95,122.1,88.8,122.12,88.65,122.12z"/>
	</g>
	<g>
		<path class="st2" d="M88.18,41.12c-0.96,0-1.93-0.14-2.8-0.37c-1-0.26-1.59-1.29-1.33-2.28c0.26-1,1.29-1.59,2.28-1.33
			c1.43,0.38,3.27,0.35,3.58-0.25c0.65-1.26,0.96-2.02,1.39-3.77c0.63-2.58,0.91-5.23,0.84-7.9c-0.03-1.03,0.78-1.89,1.81-1.92
			c1.07-0.04,1.89,0.78,1.92,1.81c0.09,3-0.23,5.99-0.94,8.9c-0.52,2.13-0.95,3.14-1.7,4.59C92.27,40.46,90.24,41.12,88.18,41.12z"
			/>
	</g>
	<g>
		<path class="st2" d="M81.5,32.78c-0.11,0-0.23-0.01-0.34-0.03l-3.23-0.6c-1.01-0.19-1.69-1.16-1.5-2.18
			c0.19-1.02,1.16-1.69,2.18-1.5L80,28.73l0.43-2.33c0.03-0.14,0.07-0.27,0.12-0.4l0.69-1.6c0.87-2.03,3.25-3,5.29-2.15
			c0.57,0.24,1.16,0.41,1.75,0.53c2.46,0.47,4.62,0.25,5.23,0.03c0.97-0.36,2.04,0.14,2.4,1.11c0.36,0.97-0.14,2.04-1.11,2.4
			c-1.31,0.48-4.13,0.73-7.22,0.13c-0.85-0.16-1.69-0.41-2.49-0.75c-0.16-0.07-0.35,0-0.42,0.17l-0.6,1.4l-0.73,3.96
			c-0.09,0.49-0.37,0.92-0.78,1.2C82.24,32.67,81.87,32.78,81.5,32.78z"/>
	</g>
	<g>
		<path class="st2" d="M77.51,37.71c-0.18,0-0.37-0.03-0.55-0.08c-0.99-0.3-1.54-1.35-1.24-2.33c0.15-0.51,0.57-2.06,0.63-3.17
			c0.05-1.03,0.9-1.82,1.96-1.77c1.03,0.05,1.82,0.93,1.77,1.96c-0.09,1.8-0.76,3.98-0.79,4.08C79.04,37.19,78.3,37.71,77.51,37.71z
			"/>
	</g>
	<g>
		<path class="st2" d="M90.5,26.85c-0.05,0-0.09,0-0.14,0c-1.03-0.01-1.86-0.86-1.85-1.89c0.01-1.02,0.84-1.85,1.86-1.85
			c0.02-0.01,0.08,0,0.11,0c0.45,0,2.02-0.05,3.35-0.68c0.4-0.19,0.82-0.5,1.07-0.74c-0.35-0.71-0.22-1.6,0.38-2.18
			c0.74-0.71,1.93-0.69,2.64,0.05c0.71,0.74,1.01,1.68,0.83,2.65c-0.38,2.1-2.83,3.37-3.32,3.6C93.49,26.74,91.42,26.85,90.5,26.85z
			"/>
	</g>
	<path class="st1" d="M77.29,35.62c0,0-5.36,0.89-10.84,13.01c-3.25,7.18-4.43,29.01-4.43,29.01h18.94l4.73-18.94l7.1,4.73
		l13.02,4.73l2.37-5.92l-14.2-7.1l-7.1-13.02L77.29,35.62z"/>
	<g>
		<path class="st2" d="M91.02,112.28c-0.99,0-1.81-0.77-1.87-1.77l-1.07-19.23c-4.05,0.58-13.34,1.49-23.44-0.34
			c-2.5-0.5-4.38-1.84-5.46-3.88c-1.5-2.82-1.4-6.92,0.24-11.03c0.35-3.88,1.01-7.32,1.65-10.66c0.61-3.17,1.18-6.17,1.46-9.34
			c1.07-12.53,9.08-18.16,13.38-21.19l0.67-0.47c0.84-0.6,2.01-0.4,2.61,0.44c0.6,0.84,0.4,2.01-0.44,2.61l-0.69,0.49
			c-4.07,2.86-10.88,7.65-11.8,18.45c-0.29,3.36-0.88,6.45-1.51,9.73c-0.64,3.32-1.29,6.76-1.62,10.56
			c-0.02,0.19-0.06,0.38-0.14,0.56c-1.29,3.09-1.49,6.27-0.51,8.11c0.56,1.05,1.49,1.69,2.86,1.96c12.49,2.27,24.01,0.02,24.12,0
			c0.53-0.1,1.08,0.02,1.51,0.36c0.43,0.33,0.69,0.83,0.72,1.37l1.18,21.31c0.06,1.03-0.73,1.91-1.76,1.97
			C91.09,112.27,91.05,112.28,91.02,112.28z"/>
	</g>
	<g>
		<path class="st2" d="M108.17,64.9c-0.28,0-0.57-0.06-0.84-0.2l-13.9-7.05c-0.26-0.13-0.48-0.32-0.65-0.55
			c-0.83-1.11-8.12-10.88-9.35-13.33c-0.16-0.32-0.22-0.67-0.19-1.02l0.37-3.77c0.1-1.03,1.01-1.79,2.04-1.68
			c1.03,0.1,1.78,1.01,1.68,2.04l-0.31,3.19c1.26,2.12,5.55,8.03,8.49,11.97l13.51,6.85c0.92,0.47,1.29,1.59,0.82,2.51
			C109.5,64.53,108.85,64.9,108.17,64.9z"/>
	</g>
	<g>
		<path class="st2" d="M105.22,70.85c-0.23,0-0.47-0.04-0.7-0.14l-12.35-5c-0.2-0.08-0.39-0.2-0.55-0.35L76.2,51.41
			c-0.77-0.69-0.82-1.87-0.13-2.64c0.69-0.77,1.88-0.83,2.64-0.13l15.18,13.73l12.04,4.88c0.96,0.39,1.42,1.48,1.03,2.43
			C106.66,70.41,105.96,70.85,105.22,70.85z"/>
	</g>
	<g>
		<path class="st2" d="M81.55,79.13c-0.09,0-0.19-0.01-0.29-0.02c-1.02-0.16-1.72-1.11-1.56-2.13l2.37-15.39
			c0.16-1.02,1.1-1.71,2.13-1.56c1.02,0.16,1.72,1.11,1.56,2.13L83.4,77.55C83.25,78.47,82.46,79.13,81.55,79.13z"/>
	</g>
	<g>
		<path class="st2" d="M113.28,73.37c-0.5,0-1.01-0.08-1.52-0.24c-0.28-0.09-0.54-0.25-0.76-0.46c-0.68-0.68-4.04-1.97-5.15-1.93
			c-0.87,0.31-1.84-0.05-2.28-0.88c-0.49-0.91-0.14-2.04,0.77-2.53c1.95-1.05,6.91,0.92,8.81,2.29c0.51,0.05,1.04-0.24,1.54-0.86
			c1.02-1.25,1.19-2.89,1-3.25c-0.08-0.08-0.12-0.13-0.19-0.23c-0.15-0.2-1.78-2.19-6.04-0.49c-0.96,0.38-2.05-0.08-2.43-1.04
			c-0.38-0.96,0.08-2.05,1.04-2.43c6.55-2.62,9.75,0.87,10.41,1.71c1.63,1.79,1.12,4.95-0.26,7.19
			C116.99,72.25,115.18,73.37,113.28,73.37z"/>
	</g>
	<g>
		<path class="st2" d="M53.98,91.34H20.62c-3.26,0-5.92-2.66-5.92-5.92l2.14-32.72c0-5.43,4.51-9.95,10.07-9.95h25.25
			c3.54,0,6.86,1.89,8.66,4.94c0.53,0.89,0.23,2.03-0.65,2.56c-0.89,0.53-2.03,0.24-2.56-0.65c-1.14-1.92-3.23-3.11-5.45-3.11H26.9
			c-3.49,0-6.33,2.84-6.33,6.33l-2.14,32.72c0,1.08,0.98,2.06,2.19,2.06h33.37c1.03,0,1.87,0.84,1.87,1.87
			C55.85,90.51,55.01,91.34,53.98,91.34z"/>
	</g>
	<g>
		<path class="st2" d="M56.7,46.49H22.36c-0.88,0-1.63-0.61-1.82-1.46l-2.21-9.97c-0.12-0.55,0.01-1.13,0.37-1.57
			c0.35-0.44,0.89-0.7,1.46-0.7h38.76c0.57,0,1.1,0.26,1.46,0.7c0.36,0.44,0.49,1.02,0.37,1.57l-2.21,9.97
			C58.33,45.88,57.57,46.49,56.7,46.49z M23.86,42.75H55.2l1.38-6.23h-34.1L23.86,42.75z"/>
	</g>
	<g>
		<path class="st2" d="M154.9,153.64H16.6c-1.03,0-1.87-0.84-1.87-1.87c0-1.03,0.84-1.87,1.87-1.87h138.3
			c1.03,0,1.87,0.84,1.87,1.87C156.77,152.8,155.94,153.64,154.9,153.64z"/>
	</g>
	<g>
		<path class="st2" d="M78.6,33.12c-0.4,0-0.8-0.13-1.14-0.39c-3.1-2.39-4.88-6.01-4.88-9.92c0-6.9,5.62-12.52,12.52-12.52
			c6.91,0,12.52,5.62,12.52,12.52c0,1.03-0.84,1.87-1.87,1.87s-1.87-0.84-1.87-1.87c0-4.84-3.94-8.78-8.78-8.78
			s-8.78,3.94-8.78,8.78c0,2.74,1.25,5.28,3.42,6.96c0.82,0.63,0.97,1.8,0.34,2.62C79.71,32.88,79.16,33.12,78.6,33.12z"/>
	</g>
	<g>
		<path class="st0" d="M36.54,124.98H7.88c-1.03,0-1.87-0.84-1.87-1.87s0.84-1.87,1.87-1.87h28.66c1.03,0,1.87,0.84,1.87,1.87
			S37.57,124.98,36.54,124.98z"/>
	</g>
	<g>
		<path class="st0" d="M27.82,115.02H14.11c-1.03,0-1.87-0.84-1.87-1.87c0-1.03,0.84-1.87,1.87-1.87h13.71
			c1.03,0,1.87,0.84,1.87,1.87C29.69,114.18,28.85,115.02,27.82,115.02z"/>
	</g>
</g>
</svg>
