<?xml version="1.0" encoding="utf-8"?>
<!-- Generator: Adobe Illustrator 24.1.0, SVG Export Plug-In . SVG Version: 6.00 Build 0)  -->
<svg version="1.1" id="Layer_1" xmlns="http://www.w3.org/2000/svg" xmlns:xlink="http://www.w3.org/1999/xlink" x="0px" y="0px"
	 viewBox="0 0 164 164" style="enable-background:new 0 0 164 164;" xml:space="preserve">
<style type="text/css">
	.st0{fill:#61C4F2;}
	.st1{fill-rule:evenodd;clip-rule:evenodd;fill:#7f92ff;}
	.st2{fill:#263357;}
</style>
<g>
	<g>
		<g>
			<g>
				<path class="st0" d="M125.71,99.97c4.7,0,9.17,0.94,13.26,2.62l-14.39-31.51h-18.07c-6.4,0-58.6,0-64.82,0l-33.68,71.2
					l46.2-15.73l37.6,16.17C86.71,120.82,103.33,99.97,125.71,99.97z M75.3,85.78c0-5.61,4.55-10.16,10.16-10.16
					c5.61,0,10.16,4.55,10.16,10.16c0,5.61-4.55,10.16-10.16,10.16C79.85,95.94,75.3,91.39,75.3,85.78z"/>
			</g>
		</g>
	</g>
	<g>
		<g>
			<g>
				<path class="st1" d="M112.72,37.51c0-36.83-55.27-36.78-55.27,0c0,17.3,27.64,48.27,27.64,48.27S112.72,54.77,112.72,37.51z
					 M74.77,37.87c0-5.7,4.62-10.32,10.32-10.32c5.7,0,10.32,4.62,10.32,10.32s-4.62,10.32-10.32,10.32
					C79.39,48.19,74.77,43.57,74.77,37.87z"/>
			</g>
		</g>
	</g>
	<g>
		<g>
			<g>
				<path class="st2" d="M118.07,55.83c-1.01-0.45-1.46-1.63-1.01-2.64c2.67-6,4.03-11.28,4.03-15.69c0-13.46-6.06-16.64-2.55-18.34
					c1-0.48,2.19-0.07,2.67,0.93c2.57,5.32,3.88,11.17,3.88,17.41c0,4.97-1.47,10.8-4.38,17.31
					C120.26,55.82,119.08,56.28,118.07,55.83z M49.46,54.82c-2.9-6.52-4.38-12.34-4.38-17.31c0-6.24,1.31-12.09,3.88-17.41
					c0.48-0.99,1.68-1.41,2.67-0.93c0.99,0.48,1.41,1.68,0.93,2.67c-2.31,4.77-3.48,10.04-3.48,15.67c0,4.41,1.36,9.69,4.03,15.69
					c0.45,1.01,0,2.19-1.01,2.64C51.09,56.28,49.91,55.82,49.46,54.82z"/>
			</g>
		</g>
	</g>
	<g>
		<g>
			<g>
				<path class="st2" d="M127.26,61.06c-1.01-0.45-1.46-1.63-1.01-2.64c3.48-7.77,5.25-14.81,5.25-20.91
					c0-7.49-1.56-14.53-4.64-20.92c-0.48-1-0.06-2.19,0.93-2.67c0.99-0.48,2.19-0.06,2.67,0.93c3.34,6.94,5.04,14.56,5.04,22.66
					c0,6.67-1.88,14.26-5.6,22.55C129.45,61.06,128.27,61.51,127.26,61.06z M40.27,60.05c-6.77-15.01-7.97-29.83-0.56-45.21
					c0.48-1,1.68-1.41,2.67-0.93c1,0.48,1.41,1.67,0.93,2.67c-3.08,6.39-4.64,13.43-4.64,20.92c0,6.15,1.76,13.18,5.25,20.91
					c0.45,1.01,0.01,2.19-1,2.65C41.89,61.51,40.72,61.05,40.27,60.05z"/>
			</g>
		</g>
	</g>
	<g>
		<g>
			<g>
				<path class="st2" d="M85.08,87.78c-0.57,0-1.11-0.24-1.49-0.67c-1.15-1.29-28.14-31.75-28.14-49.6c0-39.53,59.27-39.5,59.27,0
					c0,17.82-27,48.31-28.14,49.6C86.2,87.54,85.65,87.78,85.08,87.78z M59.45,37.51c0,14.09,19.95,38.54,25.64,45.21
					c5.68-6.69,25.64-31.16,25.64-45.21C110.72,3.31,59.45,3.34,59.45,37.51z M85.08,50.19c-6.79,0-12.32-5.53-12.32-12.32
					c0-6.79,5.53-12.32,12.32-12.32S97.4,31.08,97.4,37.87C97.4,44.67,91.88,50.19,85.08,50.19z M85.08,29.56
					c-4.59,0-8.32,3.73-8.32,8.32c0,4.59,3.73,8.32,8.32,8.32c4.59,0,8.32-3.73,8.32-8.32C93.4,33.29,89.67,29.56,85.08,29.56z"/>
			</g>
		</g>
	</g>
	<g>
		<g>
			<g>
				<path class="st2" d="M149.27,151.11c2.64,0,2.65-4,0-4C146.63,147.11,146.62,151.11,149.27,151.11z"/>
			</g>
		</g>
	</g>
	<g>
		<g>
			<g>
				<path class="st2" d="M93.33,155.97l-39.59-17.03l-23.78,8.09c-2.5,0.85-3.79-2.93-1.29-3.79c26.63-9.06,24.94-8.71,25.94-8.29
					l39.44,16.96c27.07-13.87,25.26-13.17,26.28-12.92l21.38,5.17c1.07,0.26,1.73,1.34,1.47,2.42c-0.26,1.07-1.34,1.74-2.41,1.47
					l-20.65-5l-25.08,12.85C94.5,156.18,93.88,156.2,93.33,155.97z"/>
			</g>
		</g>
	</g>
	<g>
		<g>
			<g>
				<path class="st2" d="M92.98,145.4l-38.84-16.7C5.27,145.33,7.79,145.03,6.53,143.61c-0.54-0.6-0.66-1.46-0.32-2.19
					C42.43,64.87,39.86,69.08,41.7,69.08h23.31c2.64,0,2.65,4,0,4H42.97l-31.12,65.78c45.01-15.32,42.15-14.58,43.16-14.15
					l38.68,16.63c26.15-13.4,24.41-12.74,25.44-12.49l33.33,8.06l-29.15-63.85h-18.91c-1.1,0-2-0.9-2-2s0.9-2,2-2
					c21.67,0,21.28-0.44,22.02,1.17c33.76,73.94,32.27,69.46,31.12,70.86c-0.49,0.59-1.27,0.85-2.01,0.67l-36.61-8.86l-24.23,12.42
					C94.15,145.62,93.52,145.64,92.98,145.4z"/>
			</g>
		</g>
	</g>
	<g>
		<g>
			<g>
				<path class="st2" d="M116.68,131.11l-9.16-59.73c-0.17-1.09,0.58-2.11,1.67-2.28c1.08-0.16,2.11,0.58,2.28,1.67l9.16,59.73
					c0.17,1.09-0.58,2.11-1.67,2.28C117.86,132.95,116.85,132.2,116.68,131.11z"/>
			</g>
		</g>
	</g>
	<g>
		<g>
			<g>
				<path class="st2" d="M52.26,126.17l8.21-41.31c0.22-1.08,1.27-1.78,2.35-1.57c1.08,0.22,1.79,1.27,1.57,2.35l-8.21,41.31
					C55.67,129.54,51.75,128.76,52.26,126.17z"/>
			</g>
		</g>
	</g>
	<g>
		<g>
			<g>
				<path class="st2" d="M94.28,124.48c-0.63-0.91-0.4-2.15,0.5-2.78l2.47-1.71c2.16-1.51,4.46,1.78,2.28,3.29l-2.47,1.71
					C96.16,125.61,94.91,125.39,94.28,124.48z M86.92,120.44l-2.28-1.96c-0.84-0.72-0.93-1.98-0.21-2.82
					c0.72-0.84,1.98-0.93,2.82-0.21l2.28,1.96c0.84,0.72,0.93,1.98,0.21,2.82C89.03,121.06,87.76,121.16,86.92,120.44z
					 M20.22,114.38l2.65-1.4c2.34-1.23,4.21,2.3,1.87,3.54l-2.65,1.4C19.75,119.15,17.88,115.61,20.22,114.38z M104.96,117.08
					c-0.63-0.91-0.4-2.15,0.5-2.78l2.47-1.71c2.17-1.51,4.45,1.78,2.28,3.29l-2.47,1.71C106.84,118.21,105.59,117.98,104.96,117.08z
					 M132.32,116.64l-2.88-0.85c-1.06-0.31-1.66-1.43-1.35-2.49c0.31-1.06,1.43-1.67,2.49-1.35l2.88,0.85
					C136,113.56,134.85,117.39,132.32,116.64z M119.86,112.94l-2.88-0.85c-1.06-0.31-1.66-1.43-1.35-2.49
					c0.31-1.06,1.43-1.66,2.49-1.35l2.88,0.85c1.06,0.31,1.66,1.43,1.35,2.49C122.03,112.65,120.91,113.25,119.86,112.94z
					 M77.06,111.97l-2.28-1.95c-0.84-0.72-0.93-1.98-0.21-2.82c0.72-0.84,1.98-0.93,2.82-0.21l2.28,1.95
					c0.84,0.72,0.93,1.98,0.21,2.82C79.16,112.6,77.9,112.7,77.06,111.97z M31.71,108.31l2.65-1.4c2.33-1.23,4.21,2.3,1.87,3.54
					l-2.65,1.4C31.24,113.08,29.37,109.55,31.71,108.31z M43.21,102.24l2.65-1.4c0.98-0.52,2.19-0.14,2.7,0.83
					c0.52,0.98,0.14,2.19-0.83,2.7l-2.65,1.4C42.74,107.01,40.87,103.48,43.21,102.24z M67.2,103.51l-2.28-1.95
					c-0.84-0.72-0.93-1.98-0.21-2.82c0.72-0.84,1.98-0.93,2.82-0.21l2.28,1.95c0.84,0.72,0.93,1.98,0.21,2.82
					C69.3,104.13,68.03,104.23,67.2,103.51z M53.87,98.88c-0.52-0.98-0.14-2.19,0.84-2.7l2.65-1.4c2.34-1.23,4.21,2.3,1.87,3.54
					l-2.65,1.4C55.6,100.23,54.39,99.85,53.87,98.88z"/>
			</g>
		</g>
	</g>
	<g>
		<g>
			<g>
				<path class="st2" d="M85.46,97.88c-6.09,0-11.05-4.96-11.05-11.05c0-3.01,1.19-5.82,3.34-7.92c0.79-0.77,2.06-0.75,2.83,0.04
					c0.77,0.79,0.75,2.06-0.04,2.83c-4.51,4.39-1.4,12.1,4.92,12.1c3.89,0,7.05-3.16,7.05-7.05c0-1.98-0.8-3.82-2.25-5.17
					c-0.81-0.75-0.86-2.02-0.11-2.83c0.75-0.81,2.02-0.86,2.83-0.11c2.25,2.08,3.53,5.04,3.53,8.1
					C96.51,92.92,91.55,97.88,85.46,97.88z"/>
			</g>
		</g>
	</g>
</g>
</svg>
