<?xml version="1.0" encoding="utf-8"?>
<!-- Generator: Adobe Illustrator 24.1.0, SVG Export Plug-In . SVG Version: 6.00 Build 0)  -->
<svg version="1.1" id="Layer_1" xmlns="http://www.w3.org/2000/svg" xmlns:xlink="http://www.w3.org/1999/xlink" x="0px" y="0px"
	 viewBox="0 0 164 164" style="enable-background:new 0 0 164 164;" xml:space="preserve">
<style type="text/css">
	.st0{fill:#61C4F2;}
	.st1{fill:#7f92ff;}
	.st2{fill:#263357;}
</style>
<g>
	<path class="st0" d="M105.46,59.07l1.13,1.93c0.59,1.01,1.47,1.84,2.51,2.37l2,1.02l-1.93,1.13c-1.01,0.59-1.84,1.47-2.37,2.51
		l-1.02,2l-1.13-1.93c-0.59-1.01-1.47-1.84-2.51-2.37l-2-1.02l1.93-1.13c1.01-0.59,1.84-1.47,2.37-2.51L105.46,59.07z"/>
	<path class="st1" d="M105.31,93.85l2.19,3.74c1.15,1.96,2.83,3.55,4.86,4.59l3.86,1.97l-3.74,2.19c-1.96,1.15-3.55,2.83-4.59,4.86
		l-1.97,3.86l-2.19-3.74c-1.15-1.96-2.83-3.55-4.86-4.59l-3.86-1.97l3.74-2.19c1.96-1.15,3.55-2.83,4.59-4.86L105.31,93.85z"/>
	<path class="st0" d="M136.83,74.79l1.63,2.79c0.85,1.46,2.11,2.65,3.62,3.42l2.88,1.47l-2.79,1.63c-1.46,0.85-2.65,2.11-3.42,3.62
		l-1.47,2.88l-1.63-2.79c-0.85-1.46-2.11-2.65-3.62-3.42l-2.88-1.47l2.79-1.63c1.46-0.85,2.65-2.11,3.42-3.62L136.83,74.79z"/>
	<g>
		<path class="st0" d="M96.07,49.68c-0.19,0-0.38-0.03-0.57-0.09c-0.95-0.32-1.46-1.34-1.15-2.29c1.6-4.82,0.62-10.03-2.62-13.93
			c-3.25-3.92-8.4-5.88-13.47-5.1c-0.98,0.14-1.92-0.53-2.07-1.52c-0.15-0.99,0.53-1.92,1.52-2.07c6.29-0.97,12.74,1.47,16.81,6.37
			c4.05,4.88,5.27,11.38,3.27,17.4C97.54,49.2,96.83,49.68,96.07,49.68z"/>
	</g>
	<g>
		<path class="st0" d="M105.25,50.37c-0.19,0-0.38-0.03-0.58-0.09c-0.95-0.32-1.46-1.35-1.15-2.3c2.44-7.3,0.97-15.19-3.95-21.11
			c-4.98-6-12.58-8.89-20.28-7.72c-1,0.14-1.92-0.53-2.07-1.52c-0.15-0.99,0.53-1.92,1.52-2.07c8.98-1.35,17.81,2,23.62,8.99
			c5.72,6.89,7.44,16.08,4.6,24.58C106.72,49.89,106.01,50.37,105.25,50.37z"/>
	</g>
	<path class="st1" d="M77.16,86.65C66.28,92.7,46.28,89,36.22,74.69c-10.06-14.31-7.42-33.99,3.46-42.45L77.16,86.65z"/>
	<path class="st0" d="M132.18,133.81c-0.73,0-1.43,0.12-2.08,0.34c-0.93-3.67-4.24-6.38-8.2-6.38c-4.67,0-8.46,3.79-8.46,8.46
		c-3.34,0-6.05,2.71-6.05,6.05c0,3.34,2.71,6.05,6.05,6.05c2.65,0,15.55,0,18.14,0c3.67,0,7.25-4.19,7.25-7.86
		C138.83,136.78,135.85,133.81,132.18,133.81z"/>
	<path class="st0" d="M94.09,149.53c-3,0-13.72,0-17.53,0H49.39c-2.24-1.89-3.66-4.7-3.66-7.86c0-4.18,2.5-7.78,6.09-9.38
		c0.46-5.25,4.86-9.36,10.23-9.36c0.59,0,1.16,0.06,1.72,0.16c2.99-3.77,7.6-6.2,12.79-6.2c8.02,0,13.47,5.79,14.84,13.43
		c0.48-0.07,0.98-0.13,1.48-0.13c5.34,0,9.67,4.33,9.67,9.67C102.55,145.19,99.43,149.53,94.09,149.53z"/>
	<g>
		<path class="st2" d="M152.73,150.73H11.27c-1,0-1.81-0.81-1.81-1.81s0.81-1.81,1.81-1.81h141.47c1,0,1.81,0.81,1.81,1.81
			S153.73,150.73,152.73,150.73z"/>
	</g>
	<g>
		<path class="st2" d="M20.94,148.32c-0.17,0-0.34-0.02-0.5-0.07c-0.96-0.28-1.52-1.28-1.24-2.25l17.33-60.06
			c0.28-0.96,1.28-1.52,2.25-1.24c0.96,0.28,1.52,1.28,1.24,2.25l-17.33,60.06C22.45,147.8,21.73,148.32,20.94,148.32z"/>
	</g>
	<g>
		<path class="st2" d="M64.47,148.32c-0.79,0-1.51-0.52-1.74-1.31L47.42,93.95c-0.28-0.96,0.28-1.97,1.24-2.25
			c0.96-0.28,1.97,0.28,2.25,1.24L66.21,146c0.28,0.96-0.28,1.97-1.24,2.25C64.8,148.29,64.63,148.32,64.47,148.32z"/>
	</g>
	<g>
		<path class="st2" d="M62.05,143.48c-0.26,0-0.53-0.06-0.78-0.18l-33.72-16.16c-0.59-0.28-0.98-0.86-1.02-1.51
			c-0.04-0.65,0.27-1.28,0.81-1.64l22.85-15.05L35.6,98.4c-0.81-0.59-0.99-1.72-0.41-2.53c0.59-0.81,1.72-0.99,2.53-0.41
			l16.72,12.09c0.48,0.35,0.76,0.91,0.75,1.51c-0.01,0.6-0.32,1.15-0.82,1.48l-22.37,14.73l30.83,14.77
			c0.9,0.43,1.28,1.52,0.85,2.42C63.37,143.1,62.73,143.48,62.05,143.48z"/>
	</g>
	<g>
		<path class="st2" d="M64.46,91.14c-11.42,0-22.68-5.37-29.73-15.4c-5.57-7.93-7.72-17.55-6.05-27.09
			c1.67-9.54,6.95-17.87,14.88-23.44c0.39-0.28,0.88-0.38,1.35-0.3c0.47,0.08,0.89,0.35,1.17,0.74l39.63,56.39
			c0.28,0.39,0.38,0.88,0.3,1.35c-0.08,0.47-0.35,0.9-0.74,1.17C78.94,89.01,71.67,91.14,64.46,91.14z M44.19,29.25
			c-6.33,4.98-10.54,12.02-11.93,20.01c-1.5,8.59,0.44,17.25,5.45,24.38c10,14.23,29.38,18.03,43.97,8.94L44.19,29.25z"/>
	</g>
	<g>
		<path class="st2" d="M79.59,50.38c-1.9,0-3.78-0.89-4.95-2.57c-0.93-1.32-1.29-2.92-1.01-4.51c0.28-1.59,1.16-2.98,2.48-3.91
			c2.73-1.91,6.5-1.26,8.42,1.47c1.92,2.73,1.26,6.5-1.47,8.42C82,50.02,80.79,50.38,79.59,50.38z M79.58,41.92
			c-0.48,0-0.96,0.14-1.39,0.44c-1.09,0.77-1.35,2.28-0.59,3.37c0.37,0.53,0.93,0.88,1.56,0.99c0.64,0.11,1.28-0.03,1.81-0.4
			c0.53-0.37,0.88-0.93,0.99-1.56c0.11-0.64-0.03-1.28-0.4-1.81C81.09,42.27,80.34,41.92,79.58,41.92z"/>
	</g>
	<g>
		<path class="st2" d="M69.57,61.93c-0.28,0-0.56-0.06-0.83-0.2c-0.89-0.46-1.24-1.55-0.78-2.44l5.41-10.51L61,49.57
			c-1.03,0.05-1.86-0.7-1.92-1.7c-0.06-1,0.7-1.86,1.7-1.92l15.56-0.99c0.65-0.05,1.27,0.27,1.63,0.82c0.36,0.55,0.39,1.24,0.1,1.82
			l-6.87,13.36C70.86,61.58,70.23,61.93,69.57,61.93z"/>
	</g>
	<g>
		<path class="st2" d="M77.34,87.97c-0.57,0-1.13-0.27-1.48-0.77L49.51,50.04c-0.58-0.82-0.39-1.95,0.43-2.53
			c0.82-0.58,1.95-0.39,2.53,0.43l26.35,37.17c0.58,0.82,0.39,1.95-0.43,2.53C78.07,87.86,77.7,87.97,77.34,87.97z"/>
	</g>
	<g>
		<path class="st2" d="M43.96,40.9c-0.57,0-1.13-0.27-1.48-0.77l-4-5.65c-0.58-0.82-0.39-1.95,0.43-2.53
			c0.81-0.58,1.95-0.39,2.53,0.43l4,5.65c0.58,0.82,0.39,1.95-0.43,2.53C44.69,40.79,44.33,40.9,43.96,40.9z"/>
	</g>
	<g>
		<path class="st2" d="M74.14,149.53c-0.15,0-0.29-0.02-0.44-0.05c-0.97-0.24-1.56-1.23-1.32-2.2l4.84-19.35
			c0.24-0.97,1.22-1.56,2.2-1.32c0.97,0.24,1.56,1.23,1.32,2.2l-4.84,19.35C75.69,148.98,74.95,149.53,74.14,149.53z"/>
	</g>
	<g>
		<path class="st2" d="M83.81,149.53c-0.46,0-0.93-0.18-1.28-0.53c-0.71-0.71-0.71-1.86,0-2.56l8.46-8.46
			c0.71-0.71,1.86-0.71,2.56,0c0.71,0.71,0.71,1.86,0,2.56l-8.46,8.46C84.74,149.35,84.28,149.53,83.81,149.53z"/>
	</g>
	<g>
		<path class="st2" d="M122.51,149.53c-0.14,0-0.28-0.02-0.42-0.05c-0.56-0.13-1.02-0.52-1.24-1.05l-3.63-8.46
			c-0.39-0.92,0.03-1.99,0.95-2.38c0.92-0.39,1.99,0.03,2.38,0.95l2.67,6.23l5.39-4.49c0.77-0.64,1.91-0.54,2.55,0.23
			c0.64,0.77,0.54,1.91-0.23,2.55l-7.25,6.05C123.34,149.38,122.93,149.53,122.51,149.53z"/>
	</g>
</g>
</svg>
