<?xml version="1.0" encoding="utf-8"?>
<!-- Generator: Adobe Illustrator 24.1.0, SVG Export Plug-In . SVG Version: 6.00 Build 0)  -->
<svg version="1.1" id="Layer_1" xmlns="http://www.w3.org/2000/svg" xmlns:xlink="http://www.w3.org/1999/xlink" x="0px" y="0px"
	 viewBox="0 0 164 164" style="enable-background:new 0 0 164 164;" xml:space="preserve">
<style type="text/css">
	.st0{fill:#61C4F2;}
	.st1{fill:#263357;}
	.st2{fill:#7F92FF;}
	.st3{fill:#FFFFFF;}
</style>
<g>
	<path class="st0" d="M153.53,124.97l-1.25-7.47l-14.95-8.72l-21.18-17.44H97.48v46.09h26.16c0,0,6.23-6.23,12.46-3.74
		c4.17,1.67,5.76,7,5.76,7l7.95-2.02c-0.91-4.54-2.36-7.56-4.98-11.21L153.53,124.97z M129.86,113.76l-24.33-4.69
		c-1.05-0.17-1.83-1.08-1.83-2.15V98.5c0-1.2,0.97-2.17,2.17-2.17h7.01c0.5,0,0.99,0.18,1.37,0.51l16.85,15.68
		C131.6,112.95,130.51,113.87,129.86,113.76z"/>
	<rect x="10.28" y="115.01" class="st0" width="85.95" height="9.96"/>
	<g>
		<path class="st1" d="M147.92,153.62H15.89c-1.03,0-1.87-0.84-1.87-1.87c0-1.03,0.84-1.87,1.87-1.87h132.03
			c1.03,0,1.87,0.84,1.87,1.87C149.79,152.78,148.95,153.62,147.92,153.62z"/>
	</g>
	<g>
		<path class="st1" d="M45.4,152.89c-5.84,0-10.59-4.75-10.59-10.59c0-5.84,4.75-10.59,10.59-10.59s10.59,4.75,10.59,10.59
			C55.98,148.14,51.23,152.89,45.4,152.89z M45.4,135.45c-3.78,0-6.85,3.07-6.85,6.85s3.07,6.85,6.85,6.85s6.85-3.07,6.85-6.85
			S49.17,135.45,45.4,135.45z"/>
	</g>
	<g>
		<path class="st1" d="M132.59,152.89c-5.84,0-10.59-4.75-10.59-10.59c0-5.84,4.75-10.59,10.59-10.59c5.84,0,10.59,4.75,10.59,10.59
			C143.17,148.14,138.42,152.89,132.59,152.89z M132.59,135.45c-3.78,0-6.85,3.07-6.85,6.85s3.07,6.85,6.85,6.85
			c3.78,0,6.85-3.07,6.85-6.85S136.36,135.45,132.59,135.45z"/>
	</g>
	<g>
		<path class="st1" d="M149.69,139.98c-0.59,0-0.99-0.11-1.09-0.14c-0.77-0.25-1.3-0.97-1.3-1.78c0-3.26-2.29-7.75-4.43-9.89
			c-0.5-0.5-0.68-1.24-0.45-1.91c0.22-0.67,0.81-1.16,1.51-1.26l8.19-1.17c-0.19-1.62-0.44-3.2-0.76-4.54
			c-0.34-1.46-5.62-4.11-8.77-5.7c-2.69-1.35-5.23-2.63-6.99-3.92c-1.61-1.18-4.2-3.59-7.21-6.38c-3.88-3.6-11.09-10.29-12.98-10.69
			h-16.7v43.6h18.06c1.03,0,1.87,0.84,1.87,1.87s-0.84,1.87-1.87,1.87H96.85c-1.03,0-1.87-0.84-1.87-1.87V90.72
			c0-1.03,0.84-1.87,1.87-1.87h18.68c2.61,0.17,6.67,3.58,15.4,11.69c2.8,2.6,5.44,5.05,6.88,6.11c1.5,1.11,4.02,2.37,6.45,3.59
			c5.36,2.69,9.99,5.02,10.73,8.18c0.75,3.19,2.53,16.1-0.48,19.19C152.59,139.59,150.79,139.98,149.69,139.98z M147.67,128.23
			c1.45,2.22,2.69,4.99,3.16,7.62c0.29-0.18,0.64-0.45,1.01-0.84c0.58-0.77,0.76-3.9,0.58-7.46L147.67,128.23z"/>
	</g>
	<g>
		<path class="st1" d="M130.84,115.9c-0.14,0-0.27-0.01-0.41-0.03c-1.02-0.16-1.71-1.12-1.55-2.14c0.02-0.12,0.05-0.24,0.09-0.36
			l-16.57-14.5c-0.04-0.03-0.09-0.05-0.14-0.05h-5.76c-0.17,0-0.31,0.14-0.31,0.31v8.43c0,0.15,0.11,0.28,0.26,0.3
			c1.02,0.16,1.71,1.12,1.55,2.14c-0.16,1.02-1.12,1.72-2.14,1.55c-1.97-0.31-3.41-1.99-3.41-3.99v-8.43c0-2.23,1.81-4.04,4.04-4.04
			h5.76c0.96,0,1.88,0.35,2.6,0.98l17.63,15.43c0.86,0.75,1.11,1.94,0.62,2.97C132.69,115.35,131.81,115.9,130.84,115.9z"/>
	</g>
	<g>
		<path class="st1" d="M105.57,118.75h-2.49c-1.03,0-1.87-0.84-1.87-1.87c0-1.03,0.84-1.87,1.87-1.87h2.49
			c1.03,0,1.87,0.84,1.87,1.87C107.44,117.91,106.6,118.75,105.57,118.75z"/>
	</g>
	<g>
		<path class="st1" d="M96.85,127.46H9.66c-1.03,0-1.87-0.84-1.87-1.87V70.79c0-1.03,0.84-1.87,1.87-1.87h6.23
			c1.03,0,1.87,0.84,1.87,1.87s-0.84,1.87-1.87,1.87h-4.36v51.07h83.45V72.66H83.15c-1.03,0-1.87-0.84-1.87-1.87
			s0.84-1.87,1.87-1.87h13.7c1.03,0,1.87,0.84,1.87,1.87v54.81C98.72,126.63,97.88,127.46,96.85,127.46z"/>
	</g>
	<g>
		<path class="st1" d="M63.22,139.92H54.5c-1.03,0-1.87-0.84-1.87-1.87s0.84-1.87,1.87-1.87h6.85v-1.87c0-1.03,0.84-1.87,1.87-1.87
			h32.39c1.03,0,1.87,0.84,1.87,1.87s-0.84,1.87-1.87,1.87H65.09v1.87C65.09,139.08,64.25,139.92,63.22,139.92z"/>
	</g>
	<g>
		<path class="st1" d="M35.82,141.17h-6.23c-1.03,0-1.87-0.84-1.87-1.87v-3.11H14.64c-1.03,0-1.87-0.84-1.87-1.87
			s0.84-1.87,1.87-1.87h14.95c1.03,0,1.87,0.84,1.87,1.87v3.11h4.36c1.03,0,1.87,0.84,1.87,1.87S36.85,141.17,35.82,141.17z"/>
	</g>
	<g>
		<path class="st1" d="M88.13,116.25H12.15c-1.03,0-1.87-0.84-1.87-1.87c0-1.03,0.84-1.87,1.87-1.87h75.98
			c1.03,0,1.87,0.84,1.87,1.87C90,115.42,89.16,116.25,88.13,116.25z"/>
	</g>
	<circle class="st1" cx="45.4" cy="142.3" r="3.11"/>
	<circle class="st1" cx="132.59" cy="142.3" r="3.11"/>
	<g>
		<path class="st1" d="M136.71,97.57c-1.03,0-1.87-0.84-1.87-1.87V14.12H47.65v20.55c0,1.03-0.84,1.87-1.87,1.87
			c-1.03,0-1.87-0.84-1.87-1.87V12.25c0-1.03,0.84-1.87,1.87-1.87h90.93c1.03,0,1.87,0.84,1.87,1.87V95.7
			C138.58,96.73,137.74,97.57,136.71,97.57z"/>
	</g>
	<circle class="st2" cx="48.9" cy="68.92" r="27.4"/>
	<g>
		<path class="st1" d="M48.9,97.57c-15.8,0-28.65-12.85-28.65-28.65S33.1,40.27,48.9,40.27s28.65,12.85,28.65,28.65
			S64.69,97.57,48.9,97.57z M48.9,44.01c-13.74,0-24.91,11.18-24.91,24.91S35.16,93.83,48.9,93.83s24.91-11.18,24.91-24.91
			S62.63,44.01,48.9,44.01z"/>
	</g>
	<g>
		<path class="st1" d="M120.52,47.75H78.17c-1.03,0-1.87-0.84-1.87-1.87c0-1.03,0.84-1.87,1.87-1.87h42.35
			c1.03,0,1.87,0.84,1.87,1.87C122.39,46.91,121.55,47.75,120.52,47.75z"/>
	</g>
	<g>
		<path class="st1" d="M120.52,61.45H89.38c-1.03,0-1.87-0.84-1.87-1.87s0.84-1.87,1.87-1.87h31.14c1.03,0,1.87,0.84,1.87,1.87
			S121.55,61.45,120.52,61.45z"/>
	</g>
	<g>
		<path class="st1" d="M96.85,35.29H61.98c-1.03,0-1.87-0.84-1.87-1.87V24.7c0-1.03,0.84-1.87,1.87-1.87h34.88
			c1.03,0,1.87,0.84,1.87,1.87v8.72C98.72,34.45,97.88,35.29,96.85,35.29z M63.84,31.55h31.14v-4.98H63.84V31.55z"/>
	</g>
	<g>
		<path class="st1" d="M120.52,35.29h-11.21c-1.03,0-1.87-0.84-1.87-1.87V24.7c0-1.03,0.84-1.87,1.87-1.87h11.21
			c1.03,0,1.87,0.84,1.87,1.87v8.72C122.39,34.45,121.55,35.29,120.52,35.29z M111.18,31.55h7.47v-4.98h-7.47V31.55z"/>
	</g>
	<g>
		<path class="st3" d="M52.13,73.92h-6.47V52.8h6.47V73.92z M52.13,85.04h-6.47v-5.67h6.47V85.04z"/>
	</g>
</g>
</svg>
