<?xml version="1.0" encoding="utf-8"?>
<!-- Generator: Adobe Illustrator 24.1.0, SVG Export Plug-In . SVG Version: 6.00 Build 0)  -->
<svg version="1.1" id="Layer_1" xmlns="http://www.w3.org/2000/svg" xmlns:xlink="http://www.w3.org/1999/xlink" x="0px" y="0px"
	 viewBox="0 0 164 164" style="enable-background:new 0 0 164 164;" xml:space="preserve">
<style type="text/css">
	.st0{fill:#7F92FF;}
	.st1{fill:#263357;}
	.st2{fill:#61C4F2;}
	.st3{fill:#FFFFFF;}
</style>
<g>
	<g>
		<g>
			<g>
				<path class="st0" d="M86.71,21.74H39.05c-6.29,0-11.38,5.1-11.38,11.38v3.61h54.59C82.56,31.3,84.15,26.2,86.71,21.74z"/>
			</g>
		</g>
	</g>
	<g>
		<g>
			<g>
				<path class="st1" d="M60.82,10.62c-2.77,0-2.78,4.2,0,4.2C63.59,14.81,63.59,10.62,60.82,10.62z"/>
			</g>
		</g>
	</g>
	<g>
		<g>
			<g>
				<g>
					<path class="st0" d="M27.67,126.23v16.8c0,6.29,5.1,11.38,11.38,11.38h56.21c6.29,0,11.38-5.1,11.38-11.38
						c0-10.46,0-6.76,0-16.8H27.67z M67.67,145.06c-2.97,0-5.39-2.41-5.39-5.39c0-2.97,2.41-5.39,5.39-5.39
						c2.97,0,5.39,2.41,5.39,5.39C73.05,142.65,70.64,145.06,67.67,145.06z"/>
				</g>
			</g>
		</g>
	</g>
	<g>
		<g>
			<g>
				<path class="st1" d="M104.03,128.74H30.8c-1.1,0-2-0.9-2-2s0.9-2,2-2h73.24C106.68,124.74,106.68,128.74,104.03,128.74z"/>
			</g>
		</g>
	</g>
	<g>
		<g>
			<g>
				<path class="st1" d="M81.82,37.32h-52.5c-2.64,0-2.65-4,0-4h52.5c1.1,0,2,0.9,2,2S82.92,37.32,81.82,37.32z"/>
			</g>
		</g>
	</g>
	<g>
		<g>
			<g>
				<g>
					<path class="st1" d="M16.67,85.12V33.12c0-12.34,10.04-22.38,22.38-22.38h12.76c2.64,0,2.65,4,0,4H39.05
						c-10.14,0-18.38,8.25-18.38,18.38v51.99C20.67,87.76,16.67,87.76,16.67,85.12z"/>
				</g>
			</g>
		</g>
		<g>
			<g>
				<g>
					<path class="st1" d="M95.26,156.41H39.05c-7.38,0-13.38-6-13.38-13.38V33.12c0-7.38,6-13.38,13.38-13.38h46.27c1.1,0,2,0.9,2,2
						s-0.9,2-2,2H39.05c-5.17,0-9.38,4.21-9.38,9.38v109.91c0,5.17,4.21,9.38,9.38,9.38h56.21c5.17,0,9.38-4.21,9.38-9.38V77.62
						c0-2.64,4-2.65,4,0v65.41C108.64,150.41,102.64,156.41,95.26,156.41z"/>
				</g>
			</g>
		</g>
		<g>
			<g>
				<g>
					<path class="st1" d="M67.67,147.06c-4.07,0-7.39-3.31-7.39-7.39c0-4.07,3.31-7.39,7.39-7.39s7.39,3.31,7.39,7.39
						C75.05,143.74,71.74,147.06,67.67,147.06z M64.28,139.67c0,4.47,6.77,4.47,6.77,0C71.05,135.2,64.28,135.2,64.28,139.67z"/>
				</g>
			</g>
		</g>
	</g>
	<g>
		<g>
			<g>
				<path class="st2" d="M97.07,70.51c1.74-4.15,1.55-7.68,0.66-11.58c-16.14-18.39-2.49-43.7,18.96-43.34
					c15.72,0.27,27.17,14.56,24.92,29.06c-1.7,12.59-12.58,22.37-25.79,22.15c-3.82-0.07-6.3-0.89-8.83-1.62
					C105.1,66.84,102.24,69.76,97.07,70.51z"/>
			</g>
		</g>
	</g>
	<g>
		<g>
			<g>
				<path class="st1" d="M95.53,73.86c-2.27,0-4.16-0.35-5.42-0.68c-0.72-0.19-1.28-0.76-1.45-1.49c-0.17-0.73,0.08-1.49,0.65-1.97
					c0.95-0.81,3.21-3.07,3.74-6.69c0,0,0-0.01,0-0.01c0.19-1.24,0.15-2.52-0.11-3.81c-17.55-20-3.42-51.62,23.31-51.62
					c17.13,0,31.07,13.94,31.07,31.07c0,19.76-18.4,34.83-38.13,30.25C105.42,72.03,100.65,73.86,95.53,73.86z M94.56,69.84
					c4.8,0.27,9.32-1.45,12.77-4.6c1.52-1.38,2.53,0.48,8.94,0.48c15.09,0,27.07-12.29,27.07-27.07c0-14.92-12.14-27.07-27.07-27.07
					S89.2,23.73,89.2,38.65c0,11.88,7.23,17.89,7.53,19.13c0.48,1.95,0.58,3.91,0.28,5.83C96.63,66.2,95.64,68.27,94.56,69.84z"/>
			</g>
		</g>
	</g>
	<g>
		<g>
			<g>
				<path class="st1" d="M89.36,87.37H68.29c-0.97,0-1.75,0.9-1.75,2s0.78,2,1.75,2h21.07c0.97,0,1.75-0.9,1.75-2
					S90.33,87.37,89.36,87.37z"/>
			</g>
		</g>
	</g>
	<g>
		<g>
			<g>
				<path class="st1" d="M81.24,78.26H68.29c-0.97,0-1.75,0.9-1.75,2s0.78,2,1.75,2h12.95c0.97,0,1.75-0.9,1.75-2
					S82.2,78.26,81.24,78.26z"/>
			</g>
		</g>
	</g>
	<g>
		<g>
			<g>
				<path class="st1" d="M85.56,103.06h-3c-2.64,0-2.65-4,0-4h3c1.1,0,2,0.9,2,2S86.66,103.06,85.56,103.06z M72.56,103.06h-3
					c-1.1,0-2-0.9-2-2s0.9-2,2-2h3C75.2,99.06,75.2,103.06,72.56,103.06z M59.56,103.06h-3c-1.1,0-2-0.9-2-2s0.9-2,2-2h3
					c1.1,0,2,0.9,2,2S60.66,103.06,59.56,103.06z M46.56,103.06h-3c-1.1,0-2-0.9-2-2s0.9-2,2-2h3c1.1,0,2,0.9,2,2
					S47.66,103.06,46.56,103.06z"/>
			</g>
		</g>
	</g>
	<g>
		<g>
			<g>
				<path class="st1" d="M75.31,113.06h-32c-1.1,0-2-0.9-2-2s0.9-2,2-2h32c1.1,0,2,0.9,2,2S76.41,113.06,75.31,113.06z"/>
			</g>
		</g>
	</g>
	<g>
		<path class="st0" d="M40.02,87.22c0-8.15-0.41-9.67,1.61-11.69c2.02-2.02,3.55-1.6,11.69-1.6c3.02,0,5.48,2.46,5.48,5.49l0,7.81
			c0,3.03-2.45,5.48-5.49,5.48l0,0l-7.81,0C42.47,92.7,40.02,90.24,40.02,87.22z M53.32,77.08c-11.76-0.01-10.14-1.62-10.15,10.14
			c0,1.28,1.04,2.33,2.33,2.33l7.81,0c1.28,0,2.33-1.04,2.33-2.33c0-8.39,0.22-8.56-0.68-9.46C54.53,77.33,53.94,77.08,53.32,77.08z
			 M53.31,91.13L53.31,91.13L53.31,91.13z"/>
	</g>
	<g>
		<path class="st1" d="M45.32,83.22c-1.53-1.42,0.61-3.73,2.14-2.32l3.29,3.04l6.83-7.66c1.39-1.55,3.74,0.54,2.35,2.1
			c-8.66,9.71-8.1,9.34-9,9.38C50.06,87.81,50.11,87.65,45.32,83.22z"/>
	</g>
	<path class="st3" d="M109.12,54.23c-4.38,0-7.94-3.52-7.94-7.84V35.06c0-4.32,3.56-7.84,7.94-7.84h9.09c1.2,0,2.17,0.97,2.17,2.17
		c0,1.2-0.97,2.17-2.17,2.17h-9.09c-1.99,0-3.6,1.57-3.6,3.5v11.34c0,1.93,1.61,3.5,3.6,3.5h11.55c1.99,0,3.6-1.57,3.6-3.5
		c0-1.2,0.97-2.17,2.17-2.17c1.2,0,2.17,0.97,2.17,2.17c0,4.32-3.56,7.84-7.94,7.84H109.12z"/>
	<path class="st3" d="M118.5,45.56c-0.55,0-1.08-0.21-1.48-0.58l-6.86-6.4c-0.42-0.4-0.67-0.93-0.69-1.51
		c-0.02-0.58,0.19-1.13,0.58-1.56c0.42-0.45,0.98-0.69,1.59-0.69c0.55,0,1.08,0.21,1.48,0.58l5.22,4.87l10.23-11.65
		c0.41-0.47,1.01-0.74,1.63-0.74c0.53,0,1.04,0.19,1.43,0.54c0.9,0.79,0.99,2.17,0.2,3.07l-11.7,13.33
		c-0.38,0.44-0.94,0.71-1.52,0.74L118.5,45.56z"/>
	<g id="gear-5-icon_27_">
		<path class="st2" d="M63.65,66.32c-0.26,0-0.52,0-0.78-0.02c-2.43,2.54-1.69,2.35-5.58,0.61c-1.11-0.5-0.77-1.58-0.63-3.39
			c-0.19-0.18-0.36-0.37-0.53-0.57c-1.93,0.04-2.92,0.29-3.35-0.82c-1.55-4.05-1.7-3.3,0.92-5.54c0-0.26,0-0.52,0.02-0.78
			c-1.37-1.31-2.28-1.86-1.79-2.95c1.76-3.94,1.13-3.54,4.57-3.27c0.18-0.19,0.37-0.37,0.57-0.54c-0.05-1.91-0.29-2.93,0.82-3.35
			c4.04-1.54,3.31-1.69,5.54,0.92c0.26-0.01,0.52,0,0.78,0.02c1.32-1.38,1.87-2.28,2.95-1.79c3.95,1.77,3.54,1.13,3.26,4.57
			c0.19,0.18,0.36,0.37,0.53,0.57c1.93-0.05,2.92-0.3,3.35,0.82c1.54,4.03,1.7,3.3-0.92,5.54c0,0.26,0,0.52-0.02,0.78
			c1.37,1.31,2.28,1.86,1.79,2.94c-1.76,3.94-1.13,3.54-4.57,3.27c-0.18,0.19-0.37,0.36-0.57,0.54c0.08,3.5,0.47,2.86-3.51,4.38
			C65.36,68.7,64.83,67.7,63.65,66.32z M66.42,65.42l0.93-0.35c-0.04-1.76-0.2-2.36,0.5-2.88c2.22-1.67,0.58-1.7,4.06-1.43l0.4-0.9
			c-1.27-1.21-1.81-1.52-1.69-2.39c0.39-2.72-0.79-1.61,1.86-3.87l-0.35-0.93c-3.55,0.08-2.01,0-3.97-1.65
			c-0.67-0.57-0.47-1.17-0.33-2.9l-0.9-0.4c-1.22,1.27-1.52,1.81-2.39,1.69c-2.73-0.38-1.61,0.79-3.88-1.86l-0.93,0.35
			c0.04,1.68,0.21,2.35-0.5,2.88c-2.21,1.66-0.56,1.7-4.05,1.43l-0.4,0.91c1.23,1.17,1.81,1.52,1.68,2.38
			c-0.39,2.75,0.78,1.63-1.86,3.88l0.35,0.93c1.85-0.04,2.36-0.2,2.87,0.49c1.68,2.22,1.7,0.6,1.43,4.06l0.9,0.4
			c2.44-2.55,1.47-1.43,3.97-1.64C64.99,63.53,65.27,64.07,66.42,65.42z M58.61,58.36c-1.04-2.72,0.32-5.77,3.05-6.81
			c2.71-1.04,5.77,0.31,6.81,3.05c1.04,2.72-0.32,5.77-3.05,6.81C62.7,62.45,59.65,61.09,58.61,58.36z M61.12,57.4
			c0.51,1.33,2,2.01,3.34,1.49h0c2.16-0.82,2.22-3.85,0.13-4.78C62.51,53.18,60.29,55.24,61.12,57.4z"/>
	</g>
</g>
</svg>
