<?xml version="1.0" encoding="utf-8"?>
<!-- Generator: Adobe Illustrator 24.1.0, SVG Export Plug-In . SVG Version: 6.00 Build 0)  -->
<svg version="1.1" id="Layer_1" xmlns="http://www.w3.org/2000/svg" xmlns:xlink="http://www.w3.org/1999/xlink" x="0px" y="0px"
	 viewBox="0 0 164 164" style="enable-background:new 0 0 164 164;" xml:space="preserve">
<style type="text/css">
	.st0{fill:#263357;}
	.st1{fill:#7F92FF;}
	.st2{fill:#61C4F2;}
</style>
<g>
	<g>
		<path class="st0" d="M53.27,87.32c-2.79,0-2.8-4.23,0-4.23C56.06,83.1,56.06,87.32,53.27,87.32z"/>
	</g>
	<g>
		<path class="st0" d="M108.91,13.78c-2.79,0-2.8-4.23,0-4.23C111.7,9.55,111.71,13.78,108.91,13.78z"/>
	</g>
	<g>
		<g>
			<path class="st0" d="M45.27,82.24c-18.25-19.06-18.14-49.19,0.59-68.08c1.93-1.95,4.9,0.98,2.96,2.93
				c-17.14,17.29-17.24,44.83-0.54,62.27C50.18,81.35,47.17,84.23,45.27,82.24z"/>
		</g>
		<g>
			<path class="st0" d="M112.42,79.71c16.76-17.14,16.97-44.22,0.75-61.62c-1.88-2.01,1.17-4.85,3.04-2.84
				c17.72,19,17.53,48.61-0.82,67.37C113.46,84.59,110.49,81.67,112.42,79.71z"/>
		</g>
		<g>
			<path class="st0" d="M80.51,87.95c-21.75,0-39.44-17.69-39.44-39.44S58.76,9.06,80.51,9.06c21.75,0,39.44,17.69,39.44,39.44
				S102.26,87.95,80.51,87.95z M80.51,13.22c-19.45,0-35.28,15.83-35.28,35.28s15.83,35.28,35.28,35.28s35.28-15.83,35.28-35.28
				S99.96,13.22,80.51,13.22z"/>
		</g>
		<g>
			<path class="st0" d="M56.85,48.51c0-24.55,22.13-37.48,25.25-36.11c31.39,13.82,31.32,58.42,0,72.21
				C79.27,85.86,56.85,73.46,56.85,48.51z M81.25,16.59c-26.96,12.72-26.92,51.13,0,63.83C108.21,67.71,108.17,29.29,81.25,16.59z"
				/>
		</g>
		<g>
			<path class="st0" d="M78.43,82.71V11.14c0-2.75,4.16-2.75,4.16,0v71.56C82.59,85.46,78.43,85.46,78.43,82.71z"/>
		</g>
		<g>
			<path class="st0" d="M51.82,29.02c-0.76-0.86-0.69-2.17,0.17-2.94c0.86-0.77,2.17-0.69,2.94,0.17
				c14.28,16.02,39.45,15.69,53.3-0.75c1.77-2.11,4.96,0.58,3.18,2.68C95.92,46.56,67.79,46.93,51.82,29.02z"/>
		</g>
		<g>
			<path class="st0" d="M51.64,72.53c14.97-16.1,40.9-17.15,56.98-0.8c1.93,1.96-1.04,4.88-2.97,2.92
				c-14.37-14.61-37.56-13.7-50.97,0.72C52.81,77.38,49.76,74.55,51.64,72.53z"/>
		</g>
		<g>
			<path class="st1" d="M107.13,35.56c0,3.59-2.91,6.51-6.51,6.51c-3.59,0-6.51-2.91-6.51-6.51c0-3.59,2.91-6.51,6.51-6.51
				C104.22,29.05,107.13,31.96,107.13,35.56z"/>
			<path class="st0" d="M100.63,44.14c-4.73,0-8.58-3.85-8.58-8.58c0-4.73,3.85-8.58,8.58-8.58c4.73,0,8.58,3.85,8.58,8.58
				C109.21,40.29,105.36,44.14,100.63,44.14z M100.63,31.13c-2.44,0-4.43,1.99-4.43,4.43c0,2.44,1.99,4.43,4.43,4.43
				c2.44,0,4.43-1.99,4.43-4.43C105.06,33.11,103.07,31.13,100.63,31.13z"/>
		</g>
		<g>
			<path class="st2" d="M69.66,65.35c0,3.59-2.91,6.51-6.51,6.51c-3.59,0-6.51-2.91-6.51-6.51c0-3.59,2.91-6.51,6.51-6.51
				C66.74,58.84,69.66,61.75,69.66,65.35z"/>
			<path class="st0" d="M63.15,73.93c-4.73,0-8.58-3.85-8.58-8.58c0-4.73,3.85-8.58,8.58-8.58c4.73,0,8.58,3.85,8.58,8.58
				C71.73,70.08,67.88,73.93,63.15,73.93z M63.15,60.92c-2.44,0-4.43,1.99-4.43,4.43c0,2.44,1.99,4.43,4.43,4.43
				c2.44,0,4.43-1.99,4.43-4.43C67.58,62.9,65.59,60.92,63.15,60.92z"/>
		</g>
		<g>
			<g>
				<path class="st1" d="M58.18,114.94L61.01,100h4.31l-4.66,21h-4.36l-3.42-14.05L49.47,121h-4.36l-4.66-21h4.31l2.84,14.91
					L51.07,100h3.66L58.18,114.94z"/>
			</g>
			<g>
				<path class="st1" d="M87.01,114.94L89.84,100h4.31l-4.66,21h-4.36l-3.42-14.05L78.3,121h-4.36l-4.66-21h4.31l2.84,14.91
					L79.9,100h3.66L87.01,114.94z"/>
			</g>
			<g>
				<path class="st1" d="M116.4,114.94l2.83-14.94h4.31l-4.66,21h-4.36l-3.42-14.05L107.69,121h-4.36l-4.66-21h4.31l2.84,14.91
					l3.46-14.91h3.66L116.4,114.94z"/>
			</g>
		</g>
	</g>
	<g>
		<path class="st2" d="M9.38,137.25V44.97c0-3.83,3.11-6.94,6.94-6.94h11.99l-0.6,8.67H17.56l0.73,90.54H9.38z"/>
	</g>
	<g>
		<path class="st2" d="M154.78,137.25V44.97c0-3.83-3.11-6.94-6.94-6.94h-14.37l0.73,8.67h11.68v90.54H154.78z"/>
	</g>
	<g>
		<path class="st2" d="M82.2,144.53H13.08c-4.02,0-7.29-3.26-7.29-7.29v-1.04h65.93c1.59,2.74,3.02,2.08,16.95,2.08
			c1.54,0,2.86-0.84,3.59-2.08h65.93v1.04c0,4.02-3.26,7.29-7.29,7.29H81.8H82.2z"/>
	</g>
	<g>
		<path class="st0" d="M151.96,135.71V43.89c0-1.89-1.54-3.43-3.43-3.43h-13.64c-2.75,0-2.75-4.16,0-4.16h13.64
			c4.19,0,7.59,3.41,7.59,7.59v91.82C156.12,138.46,151.96,138.47,151.96,135.71z"/>
	</g>
	<g>
		<path class="st0" d="M7.88,135.71V43.89c0-4.19,3.41-7.59,7.59-7.59h10.94c2.75,0,2.75,4.16,0,4.16H15.47
			c-1.89,0-3.43,1.54-3.43,3.43v91.82C12.04,138.46,7.88,138.47,7.88,135.71z"/>
	</g>
	<g>
		<path class="st0" d="M143.63,136.2V48.78h-7.98c-2.75,0-2.75-4.16,0-4.16h9.5c1.46,0,2.64,1.18,2.64,2.64v88.94
			C147.8,138.95,143.63,138.96,143.63,136.2z M145.16,48.78h0.01H145.16z"/>
	</g>
	<g>
		<path class="st0" d="M16.2,136.2V47.26c0-1.46,1.18-2.64,2.64-2.64h7.02c2.75,0,2.75,4.16,0,4.16h-5.5v87.42
			C20.37,138.95,16.2,138.96,16.2,136.2z"/>
	</g>
	<g>
		<path class="st0" d="M150.92,146.61H13.08c-4.74,0-9.37-3.42-9.37-10.41c0-1.15,0.93-2.08,2.08-2.08h65.94
			c2.01,0,1.6,2.08,3.59,2.08c14.25,0,14.33,0.37,15.16-1.05c0.87-1.5-3.11-1.03,67.73-1.03c1.15,0,2.08,0.93,2.08,2.08v1.04
			C160.29,142.41,156.08,146.61,150.92,146.61z M150.92,142.45c2.51,0,4.62-1.79,5.1-4.16h-62.7c-2.42,2.69-4.07,2.08-18,2.08
			c-1.78,0-3.46-0.78-4.63-2.08H7.98c0.48,2.37,2.59,4.16,5.1,4.16C19.25,142.45,145.03,142.45,150.92,142.45z"/>
	</g>
	<g>
		<path class="st0" d="M140.93,154.94c-2.75,0-2.75-4.16,0-4.16C143.68,150.78,143.68,154.94,140.93,154.94z"/>
	</g>
	<g>
		<path class="st0" d="M133.23,154.94H27.07c-2.75,0-2.75-4.16,0-4.16h106.15c1.15,0,2.08,0.93,2.08,2.08
			S134.38,154.94,133.23,154.94z"/>
	</g>
</g>
</svg>
