<?xml version="1.0" encoding="utf-8"?>
<!-- Generator: Adobe Illustrator 24.1.1, SVG Export Plug-In . SVG Version: 6.00 Build 0)  -->
<svg version="1.1" id="Layer_1" xmlns="http://www.w3.org/2000/svg" xmlns:xlink="http://www.w3.org/1999/xlink" x="0px" y="0px"
	 viewBox="0 0 480 480" style="enable-background:new 0 0 480 480;" xml:space="preserve">
<style type="text/css">
	.st0{fill:#FFFFFF;}
	.st1{fill:#61C4F2;}
	.st2{fill:#7F92FF;}
	.st3{fill:#E0E0E2;}
	.st4{fill:#C6C5CA;}
	.st5{fill:#5EAFCD;}
	.st6{fill:#263357;}
</style>
<path class="st0" d="M136,288v16c0,2.7,0.3,5.4,1,8c3.6,14.1,16.4,24,31,24h144c14.6,0,27.3-9.9,31-24c0.7-2.6,1.1-5.3,1-8v-16
	c0-8.8,7.2-16,16-16h16V120h-48c-8.8,0-16-7.2-16-16V56H72c-17.7,0-32,14.3-32,32v184h80C128.8,272,136,279.2,136,288z M72,104
	c0-8.8,7.2-16,16-16C79.2,88,72,95.2,72,104z"/>
<path class="st1" d="M376,120v152h64V72h-48c-8.8,0-16-7.2-16-16V8H136c-17.7,0-32,14.3-32,32v16h208L376,120z"/>
<path class="st2" d="M376,272h-16c-8.8,0-16,7.2-16,16v16c0,2.7-0.3,5.4-1,8c-3.6,14.1-16.4,24-31,24H168c-14.6,0-27.3-9.9-31-24
	c-0.7-2.6-1.1-5.3-1-8v-16c0-8.8-7.2-16-16-16H8v168c0,17.7,14.3,32,32,32h400c17.7,0,32-14.3,32-32V272H376z M304,400H176
	c-8.8,0-16-7.2-16-16s7.2-16,16-16h128c8.8,0,16,7.2,16,16S312.8,400,304,400z M440,424c0,8.8-7.2,16-16,16
	C432.8,440,440,432.8,440,424z"/>
<path class="st3" d="M304,368H176c-8.8,0-16,7.2-16,16s7.2,16,16,16h128c8.8,0,16-7.2,16-16S312.8,368,304,368z"/>
<path class="st4" d="M312,104c0,8.8,7.2,16,16,16h48l-64-64V104z"/>
<path class="st5" d="M392,72h48L376,8v48C376,64.8,383.2,72,392,72z"/>
<g>
	<path class="st6" d="M472,264h-24V72c0-0.2-0.1-0.3-0.1-0.5c0-0.7-0.2-1.4-0.4-2.1c-0.1-0.3-0.2-0.5-0.3-0.8
		c-0.4-0.8-0.9-1.6-1.5-2.3l-64-64c-0.7-0.6-1.4-1.2-2.3-1.5c-0.2-0.1-0.5-0.2-0.7-0.3c-0.7-0.2-1.4-0.4-2.2-0.4
		C376.4,0.1,376.2,0,376,0H136c-22.1,0-40,17.9-40,40v8H72c-22.1,0-40,17.9-40,40v176H8c-4.4,0-8,3.6-8,8v168c0,22.1,17.9,40,40,40
		h400c22.1,0,40-17.9,40-40V272C480,267.6,476.4,264,472,264z M420.7,64H392c-4.4,0-8-3.6-8-8V27.3L420.7,64z M112,40
		c0-13.3,10.7-24,24-24h232v40c0,13.3,10.7,24,24,24h40v184h-48V120c0-0.2-0.1-0.3-0.1-0.5c0-0.7-0.2-1.4-0.4-2.1
		c-0.1-0.3-0.2-0.5-0.3-0.8c-0.4-0.8-0.9-1.6-1.5-2.3l-64-64c-0.7-0.6-1.4-1.2-2.3-1.5c-0.2-0.1-0.5-0.2-0.7-0.2
		c-0.7-0.3-1.5-0.4-2.2-0.4c-0.2-0.1-0.3-0.1-0.5-0.1H112V40z M320,75.3l36.7,36.7H328c-4.4,0-8-3.6-8-8V75.3z M48,88
		c0-13.3,10.7-24,24-24h232v40c0,13.3,10.7,24,24,24h40v136h-8c-13.3,0-24,10.7-24,24v16c0,2-0.3,4.1-0.8,6
		c-2.7,10.6-12.3,18-23.2,18H168c-11,0-20.6-7.5-23.3-18.2c-0.5-1.9-0.8-3.9-0.7-5.8v-16c0-13.3-10.7-24-24-24H48V88z M464,440
		c0,13.3-10.7,24-24,24H40c-13.3,0-24-10.7-24-24V280h104c4.4,0,8,3.6,8,8v16c0,3.4,0.4,6.7,1.3,10c4.5,17.7,20.5,30.1,38.7,30h144
		c18.2,0.1,34.1-12.2,38.7-29.8c0.9-3.3,1.4-6.7,1.3-10.2v-16c0-4.4,3.6-8,8-8h104V440z"/>
	<path class="st6" d="M304,360H176c-13.3,0-24,10.7-24,24s10.7,24,24,24h128c13.3,0,24-10.7,24-24S317.3,360,304,360z M304,392H176
		c-4.4,0-8-3.6-8-8s3.6-8,8-8h128c4.4,0,8,3.6,8,8S308.4,392,304,392z"/>
	<path class="st6" d="M152,112h112c4.4,0,8-3.6,8-8s-3.6-8-8-8H152c-4.4,0-8,3.6-8,8S147.6,112,152,112z"/>
	<path class="st6" d="M96,152c0,4.4,3.6,8,8,8h208c4.4,0,8-3.6,8-8s-3.6-8-8-8H104C99.6,144,96,147.6,96,152z"/>
	<path class="st6" d="M312,192H104c-4.4,0-8,3.6-8,8s3.6,8,8,8h208c4.4,0,8-3.6,8-8S316.4,192,312,192z"/>
	<path class="st6" d="M320,248c0-4.4-3.6-8-8-8H104c-4.4,0-8,3.6-8,8s3.6,8,8,8h208C316.4,256,320,252.4,320,248z"/>
	<path class="st6" d="M312,288H168c-4.4,0-8,3.6-8,8s3.6,8,8,8h144c4.4,0,8-3.6,8-8S316.4,288,312,288z"/>
	<path class="st6" d="M112,88c0-4.4-3.6-8-8-8H88c-13.3,0-24,10.7-24,24v16c0,4.4,3.6,8,8,8s8-3.6,8-8v-16c0-4.4,3.6-8,8-8h16
		C108.4,96,112,92.4,112,88z"/>
	<path class="st6" d="M432,392v32c0,4.4-3.6,8-8,8h-32c-4.4,0-8,3.6-8,8s3.6,8,8,8h32c13.3,0,24-10.7,24-24v-32c0-4.4-3.6-8-8-8
		S432,387.6,432,392z"/>
</g>
</svg>
