<?xml version="1.0" encoding="utf-8"?>
<!-- Generator: Adobe Illustrator 24.1.0, SVG Export Plug-In . SVG Version: 6.00 Build 0)  -->
<svg version="1.1" id="Layer_1" xmlns="http://www.w3.org/2000/svg" xmlns:xlink="http://www.w3.org/1999/xlink" x="0px" y="0px"
	 viewBox="0 0 164 164" style="enable-background:new 0 0 164 164;" xml:space="preserve">
<style type="text/css">
	.st0{fill:#7f92ff;}
	.st1{fill:#61C4F2;}
	.st2{fill:#263357;}
</style>
<g>
	<polygon class="st0" points="120.06,143.73 106.98,143.73 109.35,122.32 109.35,115.18 117.68,115.18 117.68,122.32 	"/>
	<path class="st1" d="M128.98,52.75c3.39,1.2,5.27,2.29,6.74,6.84c1.61,5,0.5,10.41,0,14.27l-9.81-8.92
		c-10.41,6.24-24.38,6.44-31.42,4.46l-4.46,5.45c-0.73-1.45-1.18-11.91,0.59-17.64c2.58-8.33,14.29-13.45,20.91-13.51
		C117.41,43.64,124.12,44.92,128.98,52.75z"/>
	<g>
		<path class="st2" d="M133.65,85.02c-0.12,0-0.24-0.01-0.36-0.03c-0.97-0.19-1.58-1.16-1.39-2.12c0.27-1.4,1.22-2.06,1.85-2.51
			c0.71-0.5,1.32-0.93,1.76-2.74c0.72-2.98,0.1-3.84,0.02-3.93c-0.63-0.76-0.52-1.89,0.24-2.51c0.76-0.63,1.88-0.52,2.51,0.24
			c1.23,1.49,1.46,3.85,0.69,7.03c-0.75,3.12-2.27,4.19-3.18,4.83c-0.16,0.11-0.38,0.27-0.43,0.33
			C135.2,84.45,134.48,85.02,133.65,85.02z"/>
	</g>
	<g>
		<path class="st2" d="M92.75,84.99c-0.83,0-1.58-0.59-1.75-1.44c-0.02-0.01-0.24-0.16-0.4-0.28c-0.91-0.64-2.43-1.71-3.18-4.83
			c-1.1-4.59,0.09-6.67,1.28-7.61c0.78-0.61,1.9-0.47,2.51,0.3c0.61,0.78,0.47,1.9-0.3,2.51c-0.21,0.17-0.67,1.25-0.02,3.97
			c0.44,1.81,1.05,2.24,1.76,2.74c0.63,0.44,1.57,1.11,1.85,2.51c0.19,0.97-0.44,1.9-1.41,2.09C92.98,84.98,92.86,84.99,92.75,84.99
			z"/>
	</g>
	<g>
		<path class="st2" d="M113.2,107.34c-10.79,0-20.13-10.04-22.21-23.86c-0.15-0.97,0.52-1.88,1.5-2.03c0.98-0.15,1.88,0.52,2.03,1.5
			c1.82,12.07,9.67,20.83,18.68,20.83s16.87-8.76,18.68-20.83c0.15-0.97,1.05-1.65,2.03-1.5c0.97,0.15,1.64,1.06,1.5,2.03
			C133.33,97.3,123.99,107.34,113.2,107.34z"/>
	</g>
	<g>
		<path class="st2" d="M113.2,99.18c-2.2,0-4.42-0.81-6.45-2.34c-0.79-0.59-0.94-1.71-0.34-2.5c0.59-0.78,1.71-0.94,2.5-0.34
			c2.83,2.15,5.75,2.15,8.58,0c0.79-0.59,1.9-0.44,2.5,0.34c0.6,0.79,0.44,1.9-0.34,2.5C117.62,98.37,115.4,99.18,113.2,99.18z"/>
	</g>
	<g>
		<path class="st2" d="M125.25,86.6h-5.62c-2.36,0-4.29-1.92-4.29-4.29v-3.24c0-2.36,1.92-4.29,4.29-4.29h5.62
			c2.36,0,4.29,1.92,4.29,4.29v3.24C129.53,84.68,127.61,86.6,125.25,86.6z M119.63,78.28c-0.44,0-0.8,0.36-0.8,0.8v3.24
			c0,0.44,0.36,0.8,0.8,0.8h5.62c0.44,0,0.8-0.36,0.8-0.8v-3.24c0-0.44-0.36-0.8-0.8-0.8H119.63z"/>
	</g>
	<g>
		<path class="st2" d="M107.41,86.6h-5.62c-2.36,0-4.29-1.92-4.29-4.29v-3.24c0-2.36,1.92-4.29,4.29-4.29h5.62
			c2.36,0,4.29,1.92,4.29,4.29v3.24C111.69,84.68,109.77,86.6,107.41,86.6z M101.79,78.28c-0.44,0-0.8,0.36-0.8,0.8v3.24
			c0,0.44,0.36,0.8,0.8,0.8h5.62c0.44,0,0.8-0.36,0.8-0.8v-3.24c0-0.44-0.36-0.8-0.8-0.8H101.79z"/>
	</g>
	<g>
		<path class="st2" d="M116.02,82.33c-0.34,0-0.68-0.1-0.98-0.29c-1.39-0.92-2.53-0.93-3.79-0.04c-0.8,0.57-1.92,0.38-2.49-0.42
			c-0.57-0.8-0.38-1.92,0.42-2.49c2.47-1.76,5.18-1.77,7.81-0.04c0.82,0.54,1.05,1.65,0.51,2.47
			C117.17,82.05,116.6,82.33,116.02,82.33z"/>
	</g>
	<g>
		<path class="st2" d="M152.76,144.92H74.27c-0.99,0-1.78-0.8-1.78-1.78v-14.22c0-11.16,9.19-20.01,24.58-23.69
			c0.79-0.18,1.6,0.18,1.98,0.89c0.15,0.27,3.87,6.75,14.47,6.75c10.59,0,14.3-6.48,14.45-6.76c0.39-0.7,1.21-1.07,1.98-0.88
			c15.4,3.67,24.6,12.53,24.6,23.69v14.22C154.55,144.12,153.75,144.92,152.76,144.92z M76.05,141.35h74.93v-12.43
			c0-9.12-7.7-16.51-20.66-19.92c-1.79,2.37-6.78,7.44-16.8,7.44c-10.02,0-15.02-5.06-16.82-7.43
			c-12.96,3.41-20.65,10.8-20.65,19.92V141.35z"/>
	</g>
	<g>
		<path class="st2" d="M89.73,77.13c-0.2,0-0.4-0.03-0.59-0.1c-0.72-0.25-1.19-0.93-1.19-1.68v-9.51c0-11.94,6.34-20.37,17.41-23.14
			c8.73-2.19,20.23,0.11,24.85,8.55c7.79,2.46,7.73,10.49,7.69,14.87l0,9.24c0,0.74-0.46,1.4-1.15,1.67
			c-0.69,0.26-1.47,0.07-1.97-0.48l-8.54-9.6c-9.5,5.32-22.71,6.45-31.08,4.49l-4.04,5.05C90.78,76.89,90.26,77.13,89.73,77.13z
			 M126.6,62.86c0.5,0,0.98,0.21,1.33,0.6l6.4,7.2l0-4.57c0.04-5.54-0.36-10.24-5.79-11.6c-0.51-0.13-0.94-0.48-1.17-0.96
			c-3.4-7.07-13.43-9.3-21.15-7.37c-5.49,1.37-14.7,5.75-14.7,19.68v4.43l1.58-1.98c0.45-0.56,1.19-0.8,1.88-0.6
			c7.89,2.26,21.52,1.17,30.68-4.56C125.94,62.94,126.27,62.86,126.6,62.86z"/>
	</g>
	<g>
		<path class="st2" d="M67.13,145.15h-55.9c-0.99,0-1.78-0.8-1.78-1.78V30.15c0-0.98,0.8-1.78,1.78-1.78H104
			c0.98,0,1.78,0.8,1.78,1.78v4.76c0,0.98-0.8,1.78-1.78,1.78c-0.98,0-1.78-0.8-1.78-1.78v-2.97h-89.2v109.65h54.11
			c0.99,0,1.78,0.8,1.78,1.78C68.92,144.35,68.12,145.15,67.13,145.15z"/>
	</g>
	<g>
		<path class="st1" d="M115.89,36.69c-0.98,0-1.78-0.8-1.78-1.78V22.42H27.89c-0.99,0-1.78-0.8-1.78-1.78s0.8-1.78,1.78-1.78h89.79
			v16.06C117.68,35.89,116.88,36.69,115.89,36.69z"/>
	</g>
	<g>
		<path class="st2" d="M31.46,118.75h-7.14c-0.99,0-1.78-0.8-1.78-1.78c0-0.98,0.8-1.78,1.78-1.78h7.14c0.99,0,1.78,0.8,1.78,1.78
			C33.24,117.95,32.44,118.75,31.46,118.75z"/>
	</g>
	<g>
		<path class="st2" d="M31.46,106.86h-7.14c-0.99,0-1.78-0.8-1.78-1.78s0.8-1.78,1.78-1.78h7.14c0.99,0,1.78,0.8,1.78,1.78
			S32.44,106.86,31.46,106.86z"/>
	</g>
	<g>
		<path class="st2" d="M68.32,118.75H40.97c-0.99,0-1.78-0.8-1.78-1.78c0-0.98,0.8-1.78,1.78-1.78h27.35c0.99,0,1.78,0.8,1.78,1.78
			C70.11,117.95,69.31,118.75,68.32,118.75z"/>
	</g>
	<g>
		<path class="st2" d="M77.84,106.86H40.97c-0.99,0-1.78-0.8-1.78-1.78s0.8-1.78,1.78-1.78h36.87c0.99,0,1.78,0.8,1.78,1.78
			S78.82,106.86,77.84,106.86z"/>
	</g>
	<g>
		<path class="st2" d="M31.46,130.65h-7.14c-0.99,0-1.78-0.8-1.78-1.78s0.8-1.78,1.78-1.78h7.14c0.99,0,1.78,0.8,1.78,1.78
			S32.44,130.65,31.46,130.65z"/>
	</g>
	<g>
		<path class="st2" d="M65.94,130.65H40.97c-0.99,0-1.78-0.8-1.78-1.78s0.8-1.78,1.78-1.78h24.98c0.99,0,1.78,0.8,1.78,1.78
			S66.93,130.65,65.94,130.65z"/>
	</g>
	<g>
		<path class="st1" d="M52.86,90.21c-0.99,0-1.78-0.8-1.78-1.78V45.61c0-0.98,0.8-1.78,1.78-1.78c0.99,0,1.78,0.8,1.78,1.78v42.81
			C54.65,89.41,53.85,90.21,52.86,90.21z"/>
	</g>
	<g>
		<path class="st1" d="M74.22,60.36c-4.05,0-7.61-0.86-10.6-2.56c-1.36-0.77-2.39-1.6-3.3-2.33c-1.32-1.06-2.37-1.89-4.09-2.34
			c-0.79-0.21-1.64-0.31-2.49-0.29c-0.94,0.05-1.8-0.77-1.81-1.75c-0.02-0.99,0.77-1.8,1.76-1.81c1.17-0.02,2.33,0.12,3.44,0.4
			c2.46,0.64,3.96,1.84,5.42,3c0.85,0.68,1.72,1.37,2.84,2.01c2.68,1.52,5.99,2.22,9.84,2.07c0.98-0.07,1.81,0.73,1.85,1.71
			c0.04,0.98-0.73,1.81-1.71,1.85C74.97,60.35,74.59,60.36,74.22,60.36z"/>
	</g>
	<g>
		<path class="st1" d="M70.24,79.63c-2.66,0-5.22-1.13-7.02-3.09c-1.83-1.99-2.7-4.58-2.46-7.29l0.06-0.65l0.46-0.46
			c0.52-0.52,0.52-0.52,8.97-0.53l9.34,0l0.14,1.63c0.24,2.71-0.63,5.3-2.46,7.29C75.46,78.5,72.9,79.63,70.24,79.63z M64.38,71.18
			c0.2,1.09,0.7,2.1,1.47,2.94c1.13,1.23,2.73,1.93,4.39,1.93c1.67,0,3.27-0.71,4.39-1.93c0.77-0.84,1.27-1.85,1.47-2.94
			C72.23,71.18,67.08,71.18,64.38,71.18z"/>
	</g>
	<g>
		<path class="st1" d="M77.93,71.21c-0.55,0-1.1-0.26-1.45-0.74l-6.23-8.62l-6.23,8.62c-0.58,0.8-1.69,0.98-2.49,0.4
			c-0.8-0.58-0.98-1.69-0.4-2.49l7.17-9.91c0.45-0.62,1.18-1,1.95-1s1.5,0.37,1.96,1l7.17,9.91c0.58,0.8,0.4,1.91-0.4,2.49
			C78.66,71.1,78.29,71.21,77.93,71.21z"/>
	</g>
	<g>
		<path class="st1" d="M31.62,60.36c-0.37,0-0.75-0.01-1.13-0.02c-0.98-0.04-1.75-0.87-1.71-1.85c0.04-0.98,0.88-1.74,1.85-1.71
			c3.85,0.14,7.16-0.55,9.84-2.07c1.12-0.64,1.99-1.33,2.84-2.01c1.46-1.16,2.96-2.37,5.42-3c1.11-0.29,2.26-0.42,3.44-0.4
			c0.99,0.02,1.77,0.83,1.76,1.81c-0.02,0.98-0.83,1.79-1.81,1.75c-0.85-0.01-1.69,0.08-2.49,0.29c-1.72,0.45-2.76,1.28-4.09,2.34
			c-0.91,0.73-1.94,1.55-3.3,2.32C39.23,59.5,35.67,60.36,31.62,60.36z"/>
	</g>
	<g>
		<path class="st1" d="M35.6,79.63c-2.66,0-5.23-1.13-7.03-3.09c-1.82-1.99-2.7-4.58-2.46-7.29l0.14-1.63l9.34,0
			c8.52,0,8.52,0,9.05,0.61l0.38,0.44l0.05,0.58c0.23,2.67-0.66,5.32-2.46,7.29C40.82,78.5,38.26,79.63,35.6,79.63z M29.74,71.18
			c0.2,1.09,0.7,2.1,1.46,2.94c1.13,1.23,2.73,1.93,4.39,1.93c1.67,0,3.27-0.71,4.39-1.93c0.77-0.84,1.27-1.85,1.47-2.94
			C38.76,71.18,33.6,71.18,29.74,71.18z"/>
	</g>
	<g>
		<path class="st1" d="M43.26,71.21c-0.55,0-1.1-0.26-1.45-0.74l-6.23-8.62l-6.23,8.62c-0.58,0.8-1.69,0.98-2.49,0.4
			c-0.8-0.58-0.98-1.69-0.4-2.49l7.17-9.91c0.45-0.62,1.18-1,1.95-1c0.77,0,1.5,0.37,1.96,1l7.17,9.91c0.58,0.8,0.4,1.91-0.4,2.49
			C43.99,71.1,43.63,71.21,43.26,71.21z"/>
	</g>
	<g>
		<path class="st1" d="M62.97,91.4H42.75c-0.99,0-1.78-0.8-1.78-1.78s0.8-1.78,1.78-1.78h20.22c0.99,0,1.78,0.8,1.78,1.78
			S63.96,91.4,62.97,91.4z"/>
	</g>
	<g>
		<path class="st2" d="M118.27,124.7h-9.51c-0.98,0-1.78-0.8-1.78-1.78v-8.33c0-0.98,0.8-1.78,1.78-1.78c0.98,0,1.78,0.8,1.78,1.78
			v6.54h5.95v-6.54c0-0.98,0.8-1.78,1.78-1.78c0.98,0,1.78,0.8,1.78,1.78v8.33C120.06,123.9,119.26,124.7,118.27,124.7z"/>
	</g>
	<g>
		<path class="st2" d="M120.65,144.92c-0.89,0-1.66-0.67-1.77-1.58l-2.38-20.22c-0.12-0.98,0.58-1.86,1.56-1.98
			c0.96-0.13,1.87,0.58,1.98,1.56l2.38,20.22c0.12,0.98-0.58,1.86-1.56,1.98C120.79,144.91,120.72,144.92,120.65,144.92z"/>
	</g>
	<g>
		<path class="st2" d="M106.38,144.92c-0.07,0-0.14,0-0.21-0.01c-0.98-0.12-1.68-1-1.56-1.98l2.38-20.22c0.11-0.98,1-1.7,1.98-1.56
			c0.98,0.12,1.68,1,1.56,1.98l-2.38,20.22C108.05,144.25,107.27,144.92,106.38,144.92z"/>
	</g>
</g>
</svg>
