<?xml version="1.0" encoding="utf-8"?>
<!-- Generator: Adobe Illustrator 24.1.0, SVG Export Plug-In . SVG Version: 6.00 Build 0)  -->
<svg version="1.1" id="Layer_1" xmlns="http://www.w3.org/2000/svg" xmlns:xlink="http://www.w3.org/1999/xlink" x="0px" y="0px"
	 viewBox="0 0 164 164" style="enable-background:new 0 0 164 164;" xml:space="preserve">
<style type="text/css">
	.st0{fill:#7F92FF;}
	.st1{fill:#61C4F2;}
	.st2{fill:#FFFFFF;}
	.st3{fill:#263357;}
</style>
<g>
	<g>
		<path class="st0" d="M37.18,80.96c0-2.35,0.18-4.66,0.53-6.91c-2.64-0.87-5.46-1.35-8.39-1.35c-14.77,0-26.74,11.97-26.74,26.74
			s11.97,26.74,26.74,26.74c9.39,0,17.65-4.84,22.42-12.17C42.79,105.83,37.18,94.05,37.18,80.96z"/>
	</g>
	<g>
		<g>
			<path class="st1" d="M134.68,72.7c-2.93,0-5.75,0.48-8.39,1.35c0.35,2.25,0.53,4.56,0.53,6.91c0,13.09-5.61,24.87-14.56,33.06
				c4.77,7.32,13.03,12.17,22.42,12.17c14.77,0,26.74-11.97,26.74-26.74S149.45,72.7,134.68,72.7z"/>
		</g>
	</g>
	<g>
		<g>
			<path class="st0" d="M61.2,27.91c-0.8,0-1.55-0.5-1.83-1.31c-0.34-1.01,0.19-2.1,1.2-2.45c1.45-0.49,2.93-0.92,4.41-1.27
				c1.04-0.25,2.08,0.4,2.32,1.43c0.24,1.04-0.4,2.08-1.43,2.32c-1.36,0.32-2.72,0.71-4.05,1.17C61.62,27.88,61.41,27.91,61.2,27.91
				z"/>
		</g>
	</g>
	<path class="st2" d="M132.14,99.86c0,1.51,1.22,2.73,2.73,2.73c1.51,0,2.73-1.22,2.73-2.73c0-1.51-1.22-2.73-2.73-2.73
		C133.36,97.13,132.14,98.35,132.14,99.86z"/>
	<circle class="st2" cx="29.14" cy="99.86" r="2.73"/>
	<g>
		<path class="st0" d="M85.69,76.62l-3.33-15.83c-0.09-0.37-0.62-0.37-0.71,0l-3.85,15.82L85.69,76.62z"/>
	</g>
	<g>
		<g>
			<path class="st0" d="M27.74,63.64c-0.22,0-0.44-0.04-0.65-0.11c-1-0.36-1.52-1.46-1.16-2.47c4.8-13.36,14.18-24.74,26.41-32.04
				c0.92-0.55,2.1-0.25,2.64,0.67c0.55,0.91,0.25,2.1-0.67,2.64c-11.46,6.85-20.26,17.51-24.76,30.04
				C29.27,63.15,28.53,63.64,27.74,63.64z"/>
		</g>
	</g>
	<g>
		<g>
			<g>
				<path class="st1" d="M147.31,139.13c-0.84,0-1.61-0.55-1.85-1.4c-0.29-1.02,0.3-2.09,1.32-2.39c1.34-0.38,2.65-0.86,3.9-1.42
					c0.97-0.43,2.11,0,2.55,0.97c0.43,0.97,0,2.11-0.97,2.55c-1.41,0.63-2.9,1.17-4.41,1.6
					C147.67,139.1,147.49,139.13,147.31,139.13z"/>
			</g>
		</g>
	</g>
	<g>
		<g>
			<g>
				<path class="st1" d="M134.68,141.16c-9.77,0-19.27-3.45-26.75-9.71c-0.82-0.68-0.93-1.9-0.24-2.72c0.68-0.82,1.9-0.93,2.72-0.24
					c6.79,5.68,15.41,8.81,24.28,8.81c1.24,0,2.5-0.06,3.73-0.18c1.06-0.1,2,0.67,2.11,1.73c0.1,1.06-0.67,2-1.73,2.11
					C137.43,141.1,136.05,141.16,134.68,141.16z"/>
			</g>
		</g>
	</g>
	<g>
		<g>
			<g>
				<path class="st1" d="M112.44,104.76c-0.41,0-0.83-0.13-1.18-0.4c-0.84-0.65-1-1.86-0.35-2.71c4.49-5.8,6.58-12.44,6.58-20.87
					c0-19.57-15.92-35.5-35.5-35.5S46.5,61.2,46.5,80.77c0,7.48,2.3,14.64,6.65,20.69c0.62,0.87,0.42,2.07-0.44,2.69
					c-0.87,0.62-2.07,0.42-2.69-0.44c-4.83-6.71-7.38-14.65-7.38-22.95c0-21.7,17.65-39.35,39.35-39.35
					c21.7,0,39.35,17.65,39.35,39.35c0,9.34-2.35,16.72-7.38,23.23C113.59,104.5,113.02,104.76,112.44,104.76z"/>
			</g>
		</g>
	</g>
	<g>
		<path class="st3" d="M136.97,82.96v-4.82c0-1.07-0.86-1.93-1.93-1.93s-1.93,0.86-1.93,1.93v4.82c0,1.07,0.86,1.93,1.93,1.93
			S136.97,84.03,136.97,82.96z"/>
		<path class="st3" d="M123.69,111.29l-2.98,4.1c-0.63,0.86-0.44,2.07,0.43,2.69c0.34,0.25,0.74,0.37,1.13,0.37
			c0.6,0,1.18-0.28,1.56-0.8l2.98-4.1c0.63-0.86,0.44-2.07-0.43-2.69C125.52,110.24,124.32,110.43,123.69,111.29z"/>
		<path class="st3" d="M133.11,115.75v4.82c0,1.07,0.86,1.93,1.93,1.93s1.93-0.86,1.93-1.93v-4.82c0-1.07-0.86-1.93-1.93-1.93
			S133.11,114.69,133.11,115.75z"/>
		<path class="st3" d="M145.75,117.97c0.38,0.52,0.97,0.79,1.56,0.79c0.39,0,0.79-0.12,1.13-0.37c0.86-0.63,1.05-1.83,0.43-2.69
			l-2.98-4.1c-0.63-0.86-1.83-1.05-2.69-0.43c-0.86,0.63-1.05,1.83-0.43,2.69L145.75,117.97z"/>
		<path class="st3" d="M154.52,107.92c0.2,0.06,0.4,0.09,0.6,0.09c0.81,0,1.57-0.52,1.83-1.33c0.33-1.01-0.23-2.1-1.24-2.43
			l-4.82-1.57c-1.02-0.33-2.1,0.23-2.43,1.24c-0.33,1.01,0.23,2.1,1.24,2.43L154.52,107.92z"/>
		<path class="st3" d="M148.46,94.97c0.27,0.82,1.02,1.33,1.83,1.33c0.2,0,0.4-0.03,0.6-0.1l4.82-1.57
			c1.01-0.33,1.57-1.42,1.24-2.43c-0.33-1.01-1.41-1.57-2.43-1.24l-4.82,1.57C148.69,92.87,148.13,93.96,148.46,94.97z"/>
		<path class="st3" d="M143.2,87.73c0.34,0.25,0.74,0.37,1.13,0.37c0.6,0,1.18-0.28,1.56-0.79l2.98-4.1
			c0.63-0.86,0.44-2.07-0.43-2.69c-0.86-0.63-2.07-0.43-2.69,0.43l-2.98,4.1C142.14,85.89,142.34,87.1,143.2,87.73z"/>
		<path class="st3" d="M142.17,90l-6.52,5.28c-0.25-0.04-0.51-0.08-0.78-0.08c-2.57,0-4.66,2.09-4.66,4.66
			c0,2.57,2.09,4.66,4.66,4.66c2.57,0,4.66-2.09,4.66-4.66c0-0.67-0.15-1.3-0.4-1.87l3.38-7.73C142.59,90.05,142.34,89.86,142.17,90
			z M134.86,100.66c-0.44,0-0.8-0.36-0.8-0.8c0-0.44,0.36-0.8,0.8-0.8c0.44,0,0.8,0.36,0.8,0.8
			C135.66,100.3,135.31,100.66,134.86,100.66z"/>
		<path class="st3" d="M30.89,82.96v-4.82c0-1.07-0.86-1.93-1.93-1.93c-1.07,0-1.93,0.86-1.93,1.93v4.82c0,1.07,0.86,1.93,1.93,1.93
			C30.03,84.89,30.89,84.03,30.89,82.96z"/>
		<path class="st3" d="M41.73,118.46c0.39,0,0.79-0.12,1.13-0.37c0.86-0.63,1.05-1.83,0.43-2.69l-2.98-4.1
			c-0.63-0.86-1.83-1.05-2.69-0.43c-0.86,0.63-1.05,1.83-0.43,2.69l2.98,4.1C40.55,118.18,41.13,118.46,41.73,118.46z"/>
		<path class="st3" d="M27.04,115.75v4.82c0,1.07,0.86,1.93,1.93,1.93c1.07,0,1.93-0.86,1.93-1.93v-4.82c0-1.07-0.86-1.93-1.93-1.93
			C27.9,113.82,27.04,114.69,27.04,115.75z"/>
		<path class="st3" d="M15.55,118.4c0.34,0.25,0.74,0.37,1.13,0.37c0.6,0,1.18-0.28,1.56-0.79l2.98-4.1
			c0.63-0.86,0.44-2.07-0.43-2.69c-0.86-0.63-2.07-0.44-2.69,0.43l-2.98,4.1C14.5,116.56,14.69,117.77,15.55,118.4z"/>
		<path class="st3" d="M7.05,106.69c0.27,0.82,1.02,1.33,1.83,1.33c0.2,0,0.4-0.03,0.6-0.09l4.82-1.57
			c1.01-0.33,1.57-1.42,1.24-2.43c-0.33-1.01-1.41-1.57-2.43-1.24l-4.82,1.57C7.27,104.58,6.72,105.67,7.05,106.69z"/>
		<path class="st3" d="M9.48,90.97c-1.01-0.33-2.1,0.22-2.43,1.24c-0.33,1.01,0.23,2.1,1.24,2.43l4.82,1.57
			c0.2,0.06,0.4,0.1,0.6,0.1c0.81,0,1.57-0.52,1.83-1.33c0.33-1.01-0.23-2.1-1.24-2.43L9.48,90.97z"/>
		<path class="st3" d="M18.11,87.3c0.38,0.52,0.97,0.79,1.56,0.79c0.39,0,0.79-0.12,1.13-0.37c0.86-0.63,1.05-1.83,0.43-2.69
			l-2.98-4.1c-0.63-0.86-1.83-1.05-2.69-0.43c-0.86,0.63-1.05,1.83-0.43,2.69L18.11,87.3z"/>
		<path class="st3" d="M29.14,95.2c-0.27,0-0.52,0.04-0.78,0.08L21.83,90c-0.18-0.14-0.43,0.05-0.34,0.26l3.38,7.73
			c-0.25,0.57-0.4,1.2-0.4,1.87c0,2.57,2.09,4.66,4.66,4.66s4.66-2.09,4.66-4.66C33.79,97.29,31.7,95.2,29.14,95.2z M29.14,100.66
			c-0.44,0-0.8-0.36-0.8-0.8c0-0.44,0.36-0.8,0.8-0.8c0.44,0,0.8,0.36,0.8,0.8C29.94,100.3,29.58,100.66,29.14,100.66z"/>
		<path class="st3" d="M112.32,59.21C100.1,42.4,76.49,38.66,59.68,50.88c-8.14,5.92-13.49,14.65-15.07,24.59
			c-1.57,9.94,0.82,19.9,6.73,28.05c0.63,0.86,1.83,1.05,2.69,0.43c0.86-0.63,1.05-1.83,0.43-2.69c-1.7-2.33-3.07-4.84-4.1-7.45
			l6.84-2.22c1.01-0.33,1.57-1.42,1.24-2.43c-0.33-1.01-1.42-1.56-2.43-1.24l-6.86,2.23c-1.22-4.53-1.49-9.29-0.73-14.06
			c0.17-1.06,0.39-2.11,0.65-3.14l6.83,2.22c0.2,0.06,0.4,0.09,0.6,0.09c0.81,0,1.57-0.52,1.83-1.33c0.33-1.01-0.23-2.1-1.24-2.43
			l-6.85-2.23c2.07-5.43,5.5-10.22,10.05-13.96l4.22,5.81c0.38,0.52,0.97,0.79,1.56,0.79c0.39,0,0.79-0.12,1.13-0.37
			c0.86-0.63,1.05-1.83,0.43-2.69L63.4,53c5.14-3.35,10.9-5.11,16.68-5.4v6.43c0,1.07,0.86,1.93,1.93,1.93s1.93-0.86,1.93-1.93
			v-6.42c5.76,0.36,11.4,2.2,16.33,5.39l-3.97,5.46c-0.63,0.86-0.44,2.07,0.43,2.69c0.34,0.25,0.74,0.37,1.13,0.37
			c0.6,0,1.18-0.28,1.56-0.79l3.96-5.45c2.15,1.77,4.11,3.84,5.82,6.2c1.78,2.44,3.17,5.06,4.21,7.77l-6.42,2.09
			c-1.01,0.33-1.57,1.42-1.24,2.43c0.26,0.82,1.02,1.33,1.83,1.33c0.2,0,0.4-0.03,0.6-0.09l6.41-2.08
			c1.47,5.65,1.44,11.57-0.08,17.21l-6.43-2.09c-1.01-0.33-2.1,0.23-2.43,1.24c-0.33,1.01,0.23,2.1,1.24,2.43l6.41,2.08
			c-1.06,2.67-2.46,5.25-4.23,7.65c-0.63,0.86-0.45,2.06,0.41,2.7c0.34,0.25,0.75,0.38,1.14,0.38c0.59,0,1.18-0.27,1.55-0.78
			C121.96,90.46,122.02,72.57,112.32,59.21z"/>
		<path class="st3" d="M88.19,81.65c0-3.58-2.92-6.5-6.5-6.5c-3.58,0-6.5,2.92-6.5,6.5c0,3.58,2.92,6.5,6.5,6.5
			C85.28,88.15,88.19,85.23,88.19,81.65z M79.05,81.65c0-1.46,1.19-2.64,2.64-2.64c1.46,0,2.64,1.19,2.64,2.64
			c0,1.46-1.19,2.64-2.64,2.64C80.24,84.29,79.05,83.11,79.05,81.65z"/>
		<path class="st3" d="M99.36,101.29H64.65c-1.07,0-1.93,0.86-1.93,1.93s0.86,1.93,1.93,1.93h34.72c1.07,0,1.93-0.86,1.93-1.93
			S100.43,101.29,99.36,101.29z"/>
		<path class="st3" d="M88.75,111.9h-13.5c-1.07,0-1.93,0.86-1.93,1.93c0,1.07,0.86,1.93,1.93,1.93h13.5c1.07,0,1.93-0.86,1.93-1.93
			C90.68,112.76,89.82,111.9,88.75,111.9z"/>
		<path class="st3" d="M161.62,88.81c-0.42-0.98-1.55-1.43-2.53-1.01c-0.98,0.42-1.43,1.55-1.01,2.53
			c5.54,12.9-0.46,27.9-13.36,33.44c-11.01,4.73-23.96,0.97-30.8-8.69c9.12-8.54,14.83-20.67,14.83-34.12c0-1.78-0.11-3.54-0.3-5.27
			c7.9-2.01,16.22-0.15,22.55,5.12c0.36,0.3,0.8,0.45,1.23,0.45c0.55,0,1.1-0.24,1.48-0.69c0.68-0.82,0.57-2.03-0.25-2.72
			c-7.19-5.99-16.62-8.15-25.61-5.98C123.62,50.43,104.67,34.21,82,34.21c-22.35,0-41.08,15.77-45.67,36.77
			c-2.29-0.56-4.64-0.86-7.01-0.86C13.15,70.13,0,83.28,0,99.45c0,16.17,13.15,29.32,29.32,29.32c1.07,0,1.93-0.86,1.93-1.93
			c0-1.07-0.86-1.93-1.93-1.93c-14.04,0-25.46-11.42-25.46-25.46c0-14.04,11.42-25.46,25.46-25.46c2.15,0,4.27,0.28,6.35,0.82
			c-0.27,2.02-0.42,4.07-0.42,6.16c0,13.25,5.55,25.23,14.44,33.74c-2.34,3.13-5.37,5.69-8.83,7.45c-0.95,0.48-1.33,1.64-0.84,2.59
			c0.34,0.67,1.02,1.05,1.72,1.05c0.29,0,0.59-0.07,0.87-0.21c3.89-1.98,7.31-4.84,9.98-8.33c8.04,6.53,18.28,10.45,29.42,10.45
			c10.94,0,21-3.78,28.97-10.1c5.6,7.69,14.59,12.05,23.82,12.05c3.85,0,7.75-0.76,11.45-2.35C161.1,120.94,168,103.67,161.62,88.81
			z M39.1,80.96c0-23.65,19.24-42.9,42.9-42.9c23.65,0,42.9,19.24,42.9,42.9c0,23.65-19.24,42.9-42.9,42.9
			C58.35,123.86,39.1,104.62,39.1,80.96z"/>
	</g>
</g>
</svg>
