<?xml version="1.0" encoding="utf-8"?>
<!-- Generator: Adobe Illustrator 24.1.0, SVG Export Plug-In . SVG Version: 6.00 Build 0)  -->
<svg version="1.1" id="Layer_1" xmlns="http://www.w3.org/2000/svg" xmlns:xlink="http://www.w3.org/1999/xlink" x="0px" y="0px"
	 viewBox="0 0 164 164" style="enable-background:new 0 0 164 164;" xml:space="preserve">
<style type="text/css">
	.st0{fill:#61C4F2;}
	.st1{fill:#7F92FF;}
	.st2{fill:#263357;}
</style>
<g>
	<g>
		<path class="st0" d="M16.51,3.87v131.54l20.56-21.1c-6.65-8.73-10.6-19.62-10.6-31.44c0-12.28,4.27-23.55,11.39-32.44V25.22
			h101.07v98.22h-28.06c-8.89,7.12-20.17,11.39-32.44,11.39c-10.44,0-20.15-3.09-28.29-8.39L30.97,144.8h129.32V3.87H16.51z"/>
		<path class="st1" d="M48.15,127.62l-27.92,27.92c-3.28,3.28-8.64,3.28-11.92,0c-3.28-3.28-3.28-8.64,0-11.92l27.92-27.92
			C39.19,120.57,43.27,124.65,48.15,127.62z"/>
		<g>
			<path class="st2" d="M14.27,160.13c-2.83,0-5.48-1.1-7.47-3.08c-1.99-1.99-3.08-4.64-3.08-7.47s1.1-5.48,3.08-7.47l27.92-27.92
				c0.83-0.83,2.19-0.83,3.02,0c0.83,0.83,0.83,2.19,0,3.02L9.82,145.12c-1.18,1.18-1.83,2.76-1.83,4.45c0,1.69,0.65,3.27,1.83,4.45
				c1.18,1.18,2.76,1.83,4.45,1.83c1.69,0,3.27-0.65,4.45-1.83l27.92-27.92c0.83-0.83,2.19-0.83,3.02,0c0.83,0.83,0.83,2.19,0,3.02
				l-27.92,27.92C19.75,159.03,17.1,160.13,14.27,160.13z"/>
		</g>
		<g>
			<path class="st2" d="M77.77,136.97c-9.91,0-19.56-2.71-27.89-7.84c-7.24-4.41-13.4-10.57-17.81-17.82
				c-5.13-8.33-7.84-17.97-7.84-27.88c0-29.52,24.02-53.54,53.55-53.54s53.55,24.02,53.55,53.54
				C131.32,112.95,107.3,136.97,77.77,136.97z M77.77,34.15c-27.17,0-49.28,22.1-49.28,49.27c0,9.12,2.49,17.99,7.21,25.66
				c4.06,6.68,9.73,12.35,16.4,16.4c7.68,4.72,16.55,7.22,25.66,7.22c27.17,0,49.27-22.1,49.28-49.28
				C127.05,56.26,104.94,34.15,77.77,34.15z"/>
		</g>
		<rect x="57.79" y="57.96" class="st2" width="7.12" height="51.25"/>
		<rect x="89.11" y="57.96" class="st2" width="7.12" height="51.25"/>
		<rect x="47.83" y="57.96" class="st2" width="2.85" height="51.25"/>
		<rect x="70.6" y="57.96" class="st2" width="2.85" height="51.25"/>
		<rect x="79.15" y="57.96" class="st2" width="2.85" height="51.25"/>
		<rect x="104.77" y="57.96" class="st2" width="2.85" height="51.25"/>
		<g>
			<path class="st2" d="M151.03,137.68h-27.05c-1.18,0-2.14-0.96-2.14-2.14c0-1.18,0.96-2.14,2.14-2.14h24.91V15.26h-121v36.3
				c0,1.18-0.96,2.14-2.14,2.14c-1.18,0-2.14-0.96-2.14-2.14V13.12c0-1.18,0.96-2.14,2.14-2.14h125.27c1.18,0,2.14,0.96,2.14,2.14
				v122.42C153.17,136.72,152.21,137.68,151.03,137.68z"/>
		</g>
		<path class="st2" d="M113.31,132.28c1.25,0,2.26,1.01,2.26,2.26s-1.01,2.26-2.26,2.26c-1.25,0-2.26-1.01-2.26-2.26
			S112.06,132.28,113.31,132.28z"/>
	</g>
</g>
</svg>
