<?xml version="1.0" encoding="utf-8"?>
<!-- Generator: Adobe Illustrator 24.1.0, SVG Export Plug-In . SVG Version: 6.00 Build 0)  -->
<svg version="1.1" id="Layer_1" xmlns="http://www.w3.org/2000/svg" xmlns:xlink="http://www.w3.org/1999/xlink" x="0px" y="0px"
	 viewBox="0 0 164 164" style="enable-background:new 0 0 164 164;" xml:space="preserve">
<style type="text/css">
	.st0{fill:#7F92FF;}
	.st1{fill:#61C4F2;}
	.st2{fill:#263357;}
</style>
<g>
	<g>
		<path class="st0" d="M43.8,68c0-7.5-11.9-9.5-10.7-27.1c0.4-6.6,2.9-12,6.6-16c-7.4,3.1-13.2,9.9-13.9,19.6
			c-1,15.2,9.2,16.9,9.2,23.4v7.8c0,2.6,2.1,4.8,4.8,4.8H45C43.5,78.5,43.8,77.6,43.8,68z"/>
	</g>
	<g>
		<path class="st1" d="M121.9,56.9L121.9,56.9C120,42.7,101.7,38,93.3,49.7c-7.9-3.8-17.1,1.8-17.5,10.5c-6.1-2-12.7,2.6-12.7,9.3
			c0,0.9,0.1,1.4,0.1,1.4c0.7,4.7,4.7,8.4,9.7,8.4h12.6c21.4,0,16.8,0,38.5,0c4.8,0.4,11.4-4.2,11.4-11.3
			C135.4,60.9,129,55.5,121.9,56.9z"/>
	</g>
	<g>
		<g>
			<path class="st1" d="M159.1,101.1c-3.9-6.1-9.9-16.3-9.9-22.7c0-2.9,0.1-2.5,0.1-4.4c0-28.1-26.4-50.4-56.9-42.2
				c28.1-2.3,49.7,20.3,48,46.5V80c0,6.3,6,16.6,9.9,22.7c1.4,2.1,0.2,4.1-2.7,4.9l-7.2,1.5v19.8c0,2.6-1.3,4.9-3.3,6.4h4.2
				c4.4,0,7.9-3.5,7.9-7.9v-19.8l7.2-1.5C159.3,105.3,160.5,103.3,159.1,101.1z"/>
		</g>
	</g>
	<g>
		<path class="st2" d="M114.5,153.6l2.2-18.1c0.1-1,1-1.7,2-1.7h22c3.3,0,5.9-2.7,5.9-5.9V108c0-0.9,0.7-1.7,1.6-1.9
			c7-1.5,9.8-1.7,8.7-3.5c-4.6-7-10.6-17.3-10.2-25.5c2.1-33.7-33.9-55.4-63.7-39.3c-2.3,1.2-4.2-2.2-1.9-3.5
			c7.1-3.9,15.1-5.8,23.8-5.8c26.2,0,47.4,22.1,45.8,48.7v1.6c0,4.3,3.5,12.2,9.6,21.6c2,3,0.7,6.7-3.8,7.9c-0.1,0-5.7,1.2-5.8,1.2
			v18.2c0,5.4-4.4,9.9-9.9,9.9h-20.2l-2,16.4C118.1,156.7,114.2,156.2,114.5,153.6z"/>
	</g>
	<g>
		<path class="st2" d="M67.2,153.6l6-45.8c-2.8-2.7-5.5-6.2-7.9-10.1c-0.6-0.9-0.3-2.1,0.7-2.7c3-1.8,3,3.7,10.6,10.5
			c1.1,1,1.1-2.2-5.5,48.5C70.8,156.7,66.9,156.2,67.2,153.6z"/>
	</g>
	<g>
		<g>
			<path class="st2" d="M49.6,83.1H39.1c-3.7,0-6.7-3-6.7-6.7c0-1.3,0-2.5,0-3.5c0.1-5.2,0-6.2-1.5-7.9c-7.6-7.2-9.8-18.1-5.7-27.9
				c9.5-22.8,42.7-19.3,47.7,4.6c0.5,2.5-3.3,3.3-3.8,0.8c-4.2-20.1-32.2-23.3-40.3-3.9c-3.5,8.3-1.5,17.6,4.9,23.6
				c6,5.6-0.7,17,5.5,17h10.4c1.1,0,1.9,0.9,1.9,1.9C51.5,82.3,50.6,83.1,49.6,83.1z"/>
		</g>
		<g>
			<path class="st2" d="M45.5,54h-4.6c-3.6,0-6.6-3-6.6-6.6s3-6.6,6.6-6.6c3.6,0,6.6,3,6.6,6.6V52C47.5,53.1,46.6,54,45.5,54z
				 M38.2,47.4c0,1.5,1.2,2.7,2.7,2.7h2.7v-2.7C43.6,43.8,38.2,43.8,38.2,47.4z"/>
		</g>
		<g>
			<path class="st2" d="M43.6,73.8V52c0-2.6,3.9-2.6,3.9,0v21.8C47.5,76.4,43.6,76.4,43.6,73.8z"/>
		</g>
		<g>
			<path class="st2" d="M55.7,54h-4.6c-1.1,0-2-0.9-2-2v-4.6c0-3.6,3-6.6,6.6-6.6c3.6,0,6.6,3,6.6,6.6S59.4,54,55.7,54z M53,50h2.7
				c1.5,0,2.7-1.2,2.7-2.7c0-3.5-5.3-3.5-5.3,0V50z"/>
		</g>
		<g>
			<path class="st2" d="M55.7,54H41.9c-2.6,0-2.6-3.9,0-3.9h13.8c1.1,0,2,0.9,2,2C57.7,53.1,56.8,54,55.7,54z"/>
		</g>
		<g>
			<path class="st2" d="M55.8,88.6H36.3c-2.5,0-2.5-3.7,0-3.7h19.6c1,0,1.9,0.8,1.9,1.9C57.7,87.8,56.8,88.6,55.8,88.6z"/>
		</g>
		<g>
			<path class="st2" d="M58.5,94.2H38.1c-2.5,0-2.5-3.7,0-3.7h20.4c1,0,1.9,0.8,1.9,1.9S59.5,94.2,58.5,94.2z"/>
		</g>
		<g>
			<path class="st2" d="M48.3,105.3c-3.6,0-6.5-2.9-6.5-6.5v-0.9c0-1,0.8-1.9,1.9-1.9h9.3c1,0,1.9,0.8,1.9,1.9v0.9
				C54.8,102.4,51.9,105.3,48.3,105.3z M45.7,99.7c0.9,2.4,4.3,2.4,5.2,0H45.7z"/>
		</g>
		<g>
			<path class="st2" d="M45.4,15.7V8.9c0-2.6,3.9-2.6,3.9,0v6.8C49.3,18.2,45.4,18.2,45.4,15.7z"/>
		</g>
		<g>
			<path class="st2" d="M26,24.8l-4.3-5.2c-0.7-0.8-0.6-2,0.2-2.7c0.8-0.7,2-0.6,2.7,0.2l4.3,5.2c0.7,0.8,0.6,2-0.2,2.7
				C27.9,25.7,26.7,25.6,26,24.8z"/>
		</g>
		<g>
			<path class="st2" d="M17,44.3l-6.7-1.2c-1.1-0.2-1.8-1.2-1.6-2.3C9,39.8,10,39.1,11,39.3l6.7,1.2c1.1,0.2,1.8,1.2,1.6,2.3
				C19.1,43.8,18.1,44.5,17,44.3z"/>
		</g>
		<g>
			<path class="st2" d="M14.9,65l5.9-3.4c2.2-1.3,4.2,2.1,1.9,3.4l-5.9,3.4C14.6,69.7,12.6,66.3,14.9,65z"/>
		</g>
		<g>
			<path class="st2" d="M66.2,21.1l4.4-5.2c1.7-2,4.6,0.5,3,2.5l-4.4,5.2C67.5,25.6,64.5,23.1,66.2,21.1z"/>
		</g>
	</g>
	<g>
		<path class="st0" d="M104.1,80.7c-6.6,0-10.6,0-17,0l-4.8,17.4h9.5v19.7l17.4-27.6H98.2L104.1,80.7z"/>
	</g>
	<g>
		<path class="st2" d="M89.9,118.2v-17.8c-8,0-8.3,0.2-9.1-0.8c-0.8-1.1-0.7-0.2,4.4-19.1c0.7-2.5,4.4-1.5,3.8,1l-4.1,15h7
			c1.1,0,1.9,0.9,1.9,1.9v13l12-19c-7.9,0-8.5,0.3-9.3-1c-0.7-1.3-0.3-1.3,5.9-11.5c1.3-2.2,4.7-0.1,3.3,2l-4,6.5c8,0,8.6-0.3,9.3,1
			c0.8,1.4,1.3-0.1-17.5,29.6C92.4,120.9,89.9,120.1,89.9,118.2z"/>
	</g>
	<g>
		<path class="st2" d="M121.9,82.9H63.4c-7.2,0-13.1-5.9-13.1-13.1c0-7.9,6.9-14,14.8-13c1.8-9.8,11.9-15.3,21-12
			c10.7-12.8,31.2-7.6,34.9,8.4c8.6-0.5,15.8,6.4,15.8,14.9C136.8,76.7,129.3,83.2,121.9,82.9z M63.4,79h58.5c6.2,0,11.1-5,11.1-11
			c0-6.1-4.9-11-11-11c-2.1,0-2.6,0.6-3.6-0.1c-0.4-0.3-0.7-0.8-0.8-1.3c-1.9-14.5-20.6-19.3-29.2-7.3c-1.5,2.1-2.8-0.6-7.6-0.6
			c-6.5,0-11.8,5.1-12,11.5c0,0.6-0.3,1.2-0.8,1.5c-1.3,0.9-1.8-0.2-4.5-0.2c-6,0-10.1,5.6-9.2,10.5C55.2,76.2,59.2,79,63.4,79z"/>
	</g>
	<g>
		<path class="st0" d="M55.9,143.1c1.8-0.2,3.7-0.5,5.5-0.9c2.5-0.6,3.3,3.2,0.8,3.8c-1.9,0.4-3.9,0.7-5.9,0.9
			C53.7,147.2,53.3,143.4,55.9,143.1z M46.6,147c-2-0.2-4-0.5-5.9-0.9c-2.5-0.6-1.7-4.3,0.8-3.8c1.8,0.4,3.6,0.7,5.5,0.9
			c1.1,0.1,1.8,1.1,1.7,2.1C48.6,146.3,47.7,147.1,46.6,147z M31.6,143c-1.8-0.8-3.6-1.7-5.3-2.7c-2.2-1.3-0.2-4.6,2-3.3
			c1.6,0.9,3.2,1.8,4.9,2.5c1,0.4,1.4,1.6,1,2.6C33.7,143,32.6,143.5,31.6,143z M18.5,134.6c-1.5-1.3-2.9-2.8-4.2-4.3
			c-1.7-1.9,1.2-4.5,2.9-2.6c1.2,1.4,2.5,2.7,3.9,3.9c0.8,0.7,0.9,1.9,0.2,2.7C20.5,135.3,19.3,135.3,18.5,134.6z M8.7,122.6
			c-1-1.7-1.9-3.5-2.7-5.4c-1-2.4,2.5-3.9,3.6-1.5c0.7,1.7,1.6,3.3,2.5,4.9c0.5,0.9,0.2,2.1-0.7,2.6C10.4,123.8,9.2,123.5,8.7,122.6
			z M3.1,108.1c-0.4-1.9-0.7-3.9-0.9-5.9c-0.2-2.6,3.6-2.9,3.9-0.3c0.2,1.8,0.4,3.7,0.8,5.5c0.2,1-0.4,2.1-1.5,2.3
			C4.3,109.8,3.3,109.1,3.1,108.1z M2.2,92.5c0.2-2,0.5-4,1-5.9C3.8,84.1,7.6,85,7,87.5c-0.4,1.8-0.7,3.6-0.9,5.5
			C5.8,95.5,2,95.1,2.2,92.5z M6.2,77.5c0.5-1.1,1-2.2,1.6-3.2c1.2-2.3,4.6-0.4,3.4,1.8c-0.5,1-1,2-1.4,3
			C8.7,81.4,5.2,79.8,6.2,77.5z"/>
	</g>
</g>
</svg>
