<?xml version="1.0" encoding="utf-8"?>
<!-- Generator: Adobe Illustrator 24.1.0, SVG Export Plug-In . SVG Version: 6.00 Build 0)  -->
<svg version="1.1" id="Layer_1" xmlns="http://www.w3.org/2000/svg" xmlns:xlink="http://www.w3.org/1999/xlink" x="0px" y="0px"
	 viewBox="0 0 164 164" style="enable-background:new 0 0 164 164;" xml:space="preserve">
<style type="text/css">
	.st0{fill:#61C4F2;}
	.st1{fill:#263357;}
	.st2{fill:#7f92ff;}
</style>
<g>
	<path class="st0" d="M27.61,121.95c0,0,9.3-1.85,20.04,2.44c10.74,4.29,26.64,12.65,31.02,13.73c7.83,1.93,15.32-2.15,19.83-3.86
		c8.03-3.05,14.6-4.61,17.6-5.29c3.78-0.85,4.58,4.88,0.71,5.9c-9.28,2.44-29.46,12.02-35.5,10.98
		c-5.9-1.02-30.41-13.83-38.75-15.87c-8.82-2.15-14.04-1.22-14.04-1.22L27.61,121.95z"/>
	<path class="st0" d="M93.72,18.41v28.72l-11.61-4.75l-11.84,4.75V19.64H44.36v71.01c5.51-1.92,8.75-2.57,13.58-0.66
		c9.23,3.64,19.56,13.86,29.62,22.97V55.43h41.96V18.41H93.72z"/>
	<g>
		<path class="st1" d="M31.4,55.43c-1.02,0-1.85-0.83-1.85-1.85V17.79c0-1.02,0.83-1.85,1.85-1.85h97.5c1.02,0,1.85,0.83,1.85,1.85
			v28.39c0,1.02-0.83,1.85-1.85,1.85c-1.02,0-1.85-0.83-1.85-1.85V19.64h-93.8v33.94C33.25,54.6,32.42,55.43,31.4,55.43z"/>
	</g>
	<g>
		<path class="st1" d="M154.82,119.61h-53.07c-1.02,0-1.85-0.83-1.85-1.85s0.83-1.85,1.85-1.85h51.22V57.9H88.79v38.88
			c0,1.02-0.83,1.85-1.85,1.85c-1.02,0-1.85-0.83-1.85-1.85V56.05c0-1.02,0.83-1.85,1.85-1.85h67.88c1.02,0,1.85,0.83,1.85,1.85
			v61.71C156.67,118.78,155.84,119.61,154.82,119.61z"/>
	</g>
	<g>
		<path class="st1" d="M110.39,85.29c-0.35,0-0.7-0.1-1-0.29c-0.53-0.34-0.85-0.93-0.85-1.56V57.28c0-1.02,0.83-1.85,1.85-1.85
			c1.02,0,1.85,0.83,1.85,1.85v23.28l7.99-3.65c0.49-0.23,1.06-0.22,1.55,0.01l7.74,3.61V57.28c0-1.02,0.83-1.85,1.85-1.85
			s1.85,0.83,1.85,1.85v26.16c0,0.63-0.32,1.22-0.86,1.56c-0.53,0.34-1.2,0.38-1.78,0.12l-9.6-4.48l-9.83,4.49
			C110.91,85.23,110.65,85.29,110.39,85.29z"/>
	</g>
	<g>
		<path class="st1" d="M70.89,48.41c-0.37,0-0.73-0.11-1.04-0.32c-0.51-0.34-0.81-0.92-0.81-1.53v-26.3c0-1.02,0.83-1.85,1.85-1.85
			c1.02,0,1.85,0.83,1.85,1.85v23.58l9.31-3.69c0.44-0.18,0.94-0.17,1.38,0l9.06,3.66V20.26c0-1.02,0.83-1.85,1.85-1.85
			s1.85,0.83,1.85,1.85v26.3c0,0.62-0.31,1.19-0.82,1.53c-0.51,0.35-1.16,0.41-1.73,0.18l-10.92-4.41l-11.15,4.42
			C71.35,48.37,71.12,48.41,70.89,48.41z"/>
	</g>
	
		<rect x="16.76" y="93.09" transform="matrix(0.9969 -0.0782 0.0782 0.9969 -8.7683 2.0348)" class="st2" width="9.68" height="39.81"/>
	<g>
		<path class="st1" d="M83.11,126.4c-2.12,0-4.17-0.74-5.72-2.08c-0.77-0.67-0.86-1.84-0.19-2.61c0.67-0.77,1.84-0.86,2.61-0.19
			c0.98,0.85,2.36,1.27,3.73,1.16c1.39-0.11,2.68-0.75,3.53-1.74c1-1.16,1.03-2.41,0.88-3.25c-0.22-1.22-0.97-2.46-2.06-3.41
			c-1.89-1.63-4.04-3.51-6.27-5.47c-7.22-6.32-17.11-14.98-19.43-15.91c-4.16-1.65-6.27-2.1-10.62-1.48
			c-1.2,0.17-3.32,0.72-5.78,1.36c-4.71,1.22-11.16,2.9-16.64,3.32c-0.99,0.1-1.91-0.68-1.99-1.7c-0.08-1.02,0.68-1.91,1.7-1.99
			c5.15-0.4,11.42-2.03,15.99-3.21c2.67-0.69,4.78-1.24,6.19-1.44c5.21-0.74,7.95-0.11,12.51,1.71c2.7,1.08,9.87,7.26,20.5,16.56
			c2.23,1.95,4.37,3.82,6.25,5.45c1.75,1.51,2.92,3.49,3.29,5.56c0.41,2.31-0.2,4.55-1.72,6.32c-1.49,1.73-3.69,2.83-6.05,3.01
			C83.59,126.39,83.35,126.4,83.11,126.4z"/>
	</g>
	<g>
		<path class="st1" d="M82.61,148.06c-3.17,0-7.57-1.08-17.19-5.73l-4.29-2.08c-9.1-4.43-16.29-7.92-20.43-8.71
			c-1.76-0.33-5.34-0.6-10.35-0.76c-1.02-0.03-1.82-0.89-1.79-1.91c0.03-1.02,0.85-1.86,1.91-1.79c5.27,0.17,8.94,0.45,10.91,0.83
			c4.63,0.88,12.01,4.47,21.36,9.01l4.28,2.08c12.33,5.96,15.22,5.53,17.55,5.19c0.94-0.14,6.19-2.13,10.83-3.89
			c3.42-1.3,7.29-2.77,10.82-4.04c2.55-0.92,4.82-1.47,6.64-1.91c2.23-0.54,4.15-1,4.62-1.74c0.28-0.43,0.36-0.84,0.26-1.28
			c-0.16-0.71-0.8-1.5-1.66-2.04c-7.29-4.59-14.64-3.26-21.74-1.97c-2.38,0.43-4.62,0.84-6.81,1.01c-4.99,0.38-8.47-2.58-10.14-4.01
			c-1.79-1.53-4.59-3.4-8.13-5.77c-1.57-1.05-3.29-2.2-5.16-3.48c-0.84-0.58-1.06-1.73-0.48-2.57c0.58-0.84,1.73-1.06,2.57-0.48
			c1.86,1.27,3.57,2.42,5.13,3.46c3.64,2.44,6.51,4.36,8.47,6.04c1.39,1.19,3.96,3.41,7.45,3.13c2-0.16,4.16-0.55,6.44-0.96
			c7.44-1.35,15.86-2.88,24.37,2.48c1.72,1.09,2.93,2.68,3.31,4.37c0.31,1.41,0.05,2.83-0.76,4.09c-1.28,1.99-3.75,2.58-6.87,3.33
			c-1.82,0.44-3.89,0.94-6.25,1.79c-3.5,1.26-7.36,2.73-10.76,4.02c-6.75,2.56-10.33,3.91-11.6,4.09
			C84.32,147.97,83.51,148.06,82.61,148.06z"/>
	</g>
	<g>
		<path class="st1" d="M18.82,134.49c-0.96,0-1.77-0.74-1.84-1.71c-0.08-1.02,0.68-1.91,1.7-1.99l7.81-0.61l-2.82-35.99l-7.81,0.61
			c-1.01,0.1-1.91-0.68-1.99-1.7c-0.08-1.02,0.68-1.91,1.7-1.99l9.65-0.76c0.99-0.1,1.91,0.68,1.99,1.7l3.11,39.68
			c0.04,0.49-0.12,0.97-0.44,1.35c-0.32,0.37-0.77,0.6-1.26,0.64l-9.65,0.76C18.92,134.49,18.87,134.49,18.82,134.49z"/>
	</g>
	<g>
		<path class="st2" d="M37.57,67.77H19.06c-1.02,0-1.85-0.83-1.85-1.85c0-1.02,0.83-1.85,1.85-1.85h18.51
			c1.02,0,1.85,0.83,1.85,1.85C39.42,66.94,38.59,67.77,37.57,67.77z"/>
	</g>
	<g>
		<path class="st2" d="M37.57,80.11H9.18c-1.02,0-1.85-0.83-1.85-1.85c0-1.02,0.83-1.85,1.85-1.85h28.39c1.02,0,1.85,0.83,1.85,1.85
			C39.42,79.28,38.59,80.11,37.57,80.11z"/>
	</g>
</g>
</svg>
