<?xml version="1.0" encoding="utf-8"?>
<!-- Generator: Adobe Illustrator 24.1.0, SVG Export Plug-In . SVG Version: 6.00 Build 0)  -->
<svg version="1.1" id="Layer_1" xmlns="http://www.w3.org/2000/svg" xmlns:xlink="http://www.w3.org/1999/xlink" x="0px" y="0px"
	 viewBox="0 0 164 164" style="enable-background:new 0 0 164 164;" xml:space="preserve">
<style type="text/css">
	.st0{fill:#7F92FF;}
	.st1{fill:#263357;}
	.st2{fill:#61C4F2;}
</style>
<g>
	<path class="st0" d="M111.03,40.57c0-1.4-1.14-2.54-2.54-2.54c-1.4,0-2.54,1.14-2.54,2.54c0,1.4,1.14,2.54,2.54,2.54
		C109.9,43.11,111.03,41.97,111.03,40.57z"/>
	<g>
		<path class="st1" d="M106.79,108.22H92.05c-1.11,0-2.01-0.9-2.01-2.01s0.9-2.01,2.01-2.01h14.74c1.11,0,2.01,0.9,2.01,2.01
			S107.9,108.22,106.79,108.22z"/>
	</g>
	<g>
		<path class="st1" d="M81.33,108.22H46.49c-1.11,0-2.01-0.9-2.01-2.01s0.9-2.01,2.01-2.01h34.84c1.11,0,2.01,0.9,2.01,2.01
			S82.44,108.22,81.33,108.22z"/>
	</g>
	<g>
		<path class="st1" d="M98.75,120.28H46.49c-1.11,0-2.01-0.9-2.01-2.01c0-1.11,0.9-2.01,2.01-2.01h52.26c1.11,0,2.01,0.9,2.01,2.01
			C100.76,119.38,99.86,120.28,98.75,120.28z"/>
	</g>
	<rect x="122.2" y="74.72" class="st0" width="14.74" height="66.99"/>
	<g>
		<path class="st1" d="M134.93,151.17h-10.72c-1.15,0-2.09-0.94-2.09-2.09v-8.04c0-1.15,0.94-2.09,2.09-2.09h10.72
			c1.15,0,2.09,0.94,2.09,2.09v8.04C137.01,150.24,136.08,151.17,134.93,151.17z M126.3,147h6.54v-3.86h-6.54V147z"/>
	</g>
	<g>
		<path class="st1" d="M134.93,76.06h-10.72c-0.64,0-1.24-0.3-1.62-0.82c-0.38-0.51-0.49-1.18-0.3-1.79l5.36-17.42
			c0.26-0.84,1.04-1.42,1.92-1.42c0.88,0,1.66,0.58,1.92,1.42l5.36,17.42c0.19,0.61,0.07,1.27-0.3,1.79
			C136.16,75.76,135.56,76.06,134.93,76.06z M126.93,72.04h5.28l-2.64-8.57L126.93,72.04z"/>
	</g>
	<g>
		<path class="st1" d="M129.57,59.98c-1.11,0-2.01-0.9-2.01-2.01v-9.38c0-1.11,0.9-2.01,2.01-2.01s2.01,0.9,2.01,2.01v9.38
			C131.58,59.08,130.68,59.98,129.57,59.98z"/>
	</g>
	<g>
		<path class="st0" d="M53.79,81.9c-0.35,0-0.71-0.09-1.03-0.29c-0.95-0.57-1.26-1.81-0.69-2.76l12.88-21.46
			c0.28-0.46,0.73-0.8,1.26-0.92c0.53-0.12,1.08-0.03,1.54,0.25l20.88,13.14l13.98-23.96c0.56-0.96,1.79-1.28,2.75-0.72
			c0.96,0.56,1.28,1.79,0.72,2.75L91.04,73.68c-0.27,0.47-0.73,0.81-1.26,0.94c-0.53,0.13-1.09,0.04-1.55-0.25l-20.9-13.15
			l-11.82,19.7C55.14,81.55,54.48,81.9,53.79,81.9z"/>
	</g>
	<g>
		<path class="st1" d="M113.49,89.46H46.49c-1.11,0-2.01-0.9-2.01-2.01v-46.9c0-1.11,0.9-2.01,2.01-2.01s2.01,0.9,2.01,2.01v44.89
			h64.99c1.11,0,2.01,0.9,2.01,2.01S114.6,89.46,113.49,89.46z"/>
	</g>
	<path class="st2" d="M116.84,148.41H27.06c-4.77,0-9.38-1.93-9.38-6.7v-5.36h93.79C111.39,141.34,112.21,145.85,116.84,148.41z"/>
	<path class="st2" d="M146.32,30.5v-5.93c0-4.6-1.92-8.5-6.51-9.17c-0.46-0.08-0.92-0.11-1.41-0.11c-5.24,0-9.5,4.18-9.5,9.26v5.94
		H146.32z"/>
	<g>
		<path class="st1" d="M146.99,30.5h-17.42c-1.11,0-2.01-0.9-2.01-2.01v-4.4c0-6.21,5.16-11.27,11.51-11.27
			c0.63,0,1.2,0.04,1.74,0.14c5.11,0.74,8.18,4.91,8.18,11.15v4.38C148.99,29.6,148.09,30.5,146.99,30.5z M131.58,26.48h13.4v-2.37
			c0-2.42-0.62-6.58-4.79-7.18c-0.37-0.06-0.72-0.09-1.12-0.09c-4.13,0-7.49,3.25-7.49,7.25V26.48z"/>
	</g>
	<g>
		<path class="st1" d="M118.39,150.79c-0.23,0-0.45-0.04-0.68-0.12c-4.53-1.62-7.58-5.88-7.58-10.59v-3.06
			c0-1.11,0.9-2.01,2.01-2.01c1.11,0,2.01,0.9,2.01,2.01v3.06c0,3.02,1.97,5.75,4.91,6.8c1.05,0.37,1.59,1.53,1.21,2.57
			C119.99,150.28,119.22,150.79,118.39,150.79z"/>
	</g>
	<g>
		<path class="st1" d="M129.57,42.56c-1.11,0-2.01-0.9-2.01-2.01V28.49c0-1.11,0.9-2.01,2.01-2.01s2.01,0.9,2.01,2.01v12.06
			C131.58,41.66,130.68,42.56,129.57,42.56z"/>
	</g>
	<path class="st1" d="M144.94,80.32c-1.18,0-2.13-0.95-2.13-2.13c0-1.18,0.95-2.13,2.13-2.13c1.18,0,2.13,0.95,2.13,2.13
		C147.07,79.37,146.12,80.32,144.94,80.32z"/>
	<g>
		<path class="st1" d="M118.85,151.1h-93.2c-5.87,0-10.64-4.77-10.64-10.64v-3.43c0-1.11,0.9-2.01,2.01-2.01h84.41
			c1.11,0,2.01,0.9,2.01,2.01s-0.9,2.01-2.01,2.01h-82.4v1.42c0,3.65,2.97,6.62,6.62,6.62h93.2c1.11,0,2.01,0.9,2.01,2.01
			C120.86,150.19,119.96,151.1,118.85,151.1z"/>
	</g>
	<g>
		<path class="st1" d="M26.39,137.7c-1.11,0-2.01-0.9-2.01-2.01V23.4c0-5.69,4.63-10.31,10.31-10.31h100.23
			c1.11,0,2.01,0.9,2.01,2.01s-0.9,2.01-2.01,2.01H34.7c-3.47,0-6.29,2.82-6.29,6.29v112.29C28.4,136.8,27.5,137.7,26.39,137.7z"/>
	</g>
	<g>
		<path class="st1" d="M144.31,140.38c-1.11,0-2.01-0.9-2.01-2.01V90.13c0-1.11,0.9-2.01,2.01-2.01s2.01,0.9,2.01,2.01v48.24
			C146.32,139.48,145.41,140.38,144.31,140.38z"/>
	</g>
</g>
</svg>
