<?xml version="1.0" encoding="utf-8"?>
<!-- Generator: Adobe Illustrator 24.1.0, SVG Export Plug-In . SVG Version: 6.00 Build 0)  -->
<svg version="1.1" id="Layer_1" xmlns="http://www.w3.org/2000/svg" xmlns:xlink="http://www.w3.org/1999/xlink" x="0px" y="0px"
	 viewBox="0 0 164 164" style="enable-background:new 0 0 164 164;" xml:space="preserve">
<style type="text/css">
	.st0{fill:#61C4F2;}
	.st1{fill:#263357;}
</style>
<g>
	<polygon class="st0" points="126.9,6.7 126.9,18.5 32.7,18.5 32.7,129.7 16.5,129.7 16.5,6.7 	"/>
	<g>
		<path class="st1" d="M129,160.2c9.6,0,20-8.8,20-23V17.8c0-1.2-1-2.2-2.2-2.2H32c-1.2,0-2.2,1-2.2,2.2v121.2c0,1.2,1,2.2,2.2,2.2
			c1.2,0,2.2-1,2.2-2.2V20h110.3v117.2c0,11.5-8.1,18.6-15.6,18.6c-10.4,0-17.7-8.4-17.7-20.4c0-1.2-1-2.2-2.2-2.2H77.6
			c-1.2,0-2.2,1-2.2,2.2c0,1.2,1,2.2,2.2,2.2h29.3C107.8,150.9,116.8,160.2,129,160.2z"/>
	</g>
	<g>
		<path class="st1" d="M61.4,159.7h61.8c1.2,0,2.2-1,2.2-2.2c0-1.2-1-2.2-2.2-2.2H61.4c-1.2,0-2.2,1-2.2,2.2
			C59.2,158.7,60.2,159.7,61.4,159.7z"/>
	</g>
	<g>
		<path class="st1" d="M17.3,117.6c1.2,0,2.2-1,2.2-2.2V8.2h106.7c1.2,0,2.2-1,2.2-2.2s-1-2.2-2.2-2.2l-108.9,0
			c-1.2,0-2.2,1-2.2,2.2v109.4C15.1,116.6,16.1,117.6,17.3,117.6z"/>
	</g>
	<g>
		<path class="st1" d="M59.9,49.4h69.1c1.2,0,2.2-1,2.2-2.2s-1-2.2-2.2-2.2H59.9c-1.2,0-2.2,1-2.2,2.2S58.7,49.4,59.9,49.4z"/>
	</g>
	<g>
		<path class="st1" d="M74.6,70H82c1.2,0,2.2-1,2.2-2.2s-1-2.2-2.2-2.2h-7.4c-1.2,0-2.2,1-2.2,2.2S73.4,70,74.6,70z"/>
	</g>
	<g>
		<path class="st1" d="M92.3,70h36.8c1.2,0,2.2-1,2.2-2.2s-1-2.2-2.2-2.2H92.3c-1.2,0-2.2,1-2.2,2.2S91.1,70,92.3,70z"/>
	</g>
	<g>
		<path class="st1" d="M99.7,90.6h29.4c1.2,0,2.2-1,2.2-2.2s-1-2.2-2.2-2.2H99.7c-1.2,0-2.2,1-2.2,2.2S98.4,90.6,99.7,90.6z"/>
	</g>
</g>
</svg>
