<?xml version="1.0" encoding="utf-8"?>
<!-- Generator: Adobe Illustrator 24.1.1, SVG Export Plug-In . SVG Version: 6.00 Build 0)  -->
<svg version="1.1" id="Layer_1" xmlns="http://www.w3.org/2000/svg" xmlns:xlink="http://www.w3.org/1999/xlink" x="0px" y="0px"
	 viewBox="0 0 164 164" style="enable-background:new 0 0 164 164;" xml:space="preserve">
<style type="text/css">
	.st0{fill:#61C4F2;}
	.st1{fill:#263357;}
	.st2{fill:#7F92FF;}
</style>
<g>
	<g>
		<g>
			<path class="st0" d="M141.1,37h-16.2V17.3h9.8c3.5,0,6.4,2.9,6.4,6.4V37z"/>
		</g>
	</g>
	<g>
		<g>
			<path class="st1" d="M62.9,5.5c0-1.3-1.1-2.4-2.4-2.4c-1.3,0-2.4,1.1-2.4,2.4C58,8.7,62.9,8.7,62.9,5.5z"/>
		</g>
	</g>
	<g>
		<g>
			<path class="st2" d="M151,66.8c-7.3,1.5-14.9,0-21.1-4.2c-6.2,4.2-13.8,5.7-21.1,4.2c-7,14.5-6.4,30.3,0.5,40.7
				c1.2,1.8,8.4,12.4,20.6,15.5c0,0,0,0,0,0c8.3-2,15.9-8.4,20.6-15.5C157.4,97.1,158,81.3,151,66.8z"/>
		</g>
	</g>
	<g>
		<g>
			<path class="st1" d="M128,130.8c-0.1,0-4-1.2-4.1-1.3c-11.5-4.4-18.7-13.7-21.2-17.6c-8.6-12.9-9-32-1-48.6l1.9-4
				c1.7-3.4,6.3,1.4,14.7-0.4c4.5-0.9,6.9-2.8,10.4-5.2c1.6-1.1,2.8,0.1,5.8,2.2c2.1,1.5,4.6,2.5,7.1,3c2.6,0.5,5.2,0.5,7.8,0
				l4.4-0.9c1-0.2,2.1,0.3,2.5,1.3l1.9,4c8,16.6,7.6,35.7-1,48.6c-6.1,9.2-15.3,15.7-21.3,17.6l-4,1.2
				C130.6,131.2,129.3,131.2,128,130.8z M125.4,125.2l3.9,1.2c1.6,0.5,14.8-3.1,24.1-17c7.7-11.6,8-28.9,0.7-44.1l-1.2-2.4l-2.6,0.5
				c-8.5,1.7-14.6-1.1-20.4-5c-8.6,5.8-13.7,6.4-23,4.5l-1.2,2.4c-7.3,15.2-7,32.5,0.7,44.1C108.8,112.8,115.2,121.2,125.4,125.2z"
				/>
		</g>
	</g>
	<g>
		<g>
			<path class="st1" d="M117.7,95.5c-2.2-2.2,1.1-5.4,3.3-3.3l5.8,5.8l13-17.6c0.8-1,2.2-1.2,3.2-0.5c1,0.8,1.2,2.2,0.5,3.2
				c-15.7,21.2-14.8,20.6-16.3,20.7C125.9,104,126.1,103.9,117.7,95.5z"/>
		</g>
	</g>
	<g>
		<g>
			<path class="st0" d="M98.5,145.6v-6.2c-7.5,0-84.5,0-96.2,0v6.2c0,7.2,5.9,13,13,13l0,0c0,0,96.1,0,96.2,0
				C104.3,158.6,98.5,152.8,98.5,145.6z"/>
		</g>
	</g>
	<g>
		<g>
			<path class="st1" d="M142.7,38.7h-15.3c-1.3,0-2.3-1-2.3-2.3c0-1.3,1-2.3,2.3-2.3h13v-9.2c0-3.3-2.5-6.2-5.8-6.7
				c-3.9-0.7-7.8,2.4-7.8,6.7v6.5c0,1.3-1,2.3-2.3,2.3c-1.3,0-2.3-1-2.3-2.3v-6.5c0-6.3,5.1-11.4,11.4-11.4c0.7,0,1.2,0,1.8,0.1
				c5.5,0.8,9.7,5.7,9.7,11.3v11.5C145,37.7,144,38.7,142.7,38.7z"/>
		</g>
	</g>
	<g>
		<g>
			<path class="st1" d="M7.7,93.6V24.9C7.7,12.8,17.5,3,29.6,3h20.9c1.3,0,2.3,1,2.3,2.3s-1,2.3-2.3,2.3H29.6
				c-9.5,0-17.2,7.7-17.2,17.2v68.8C12.4,96.7,7.7,96.7,7.7,93.6z"/>
		</g>
	</g>
	<g>
		<g>
			<path class="st1" d="M18.2,138.3c0-9.9-0.1-50.6-0.1-113.5c0-6.3,5.1-11.4,11.4-11.4h104c1.3,0,2.3,1,2.3,2.3s-1,2.3-2.3,2.3
				c-3.7,0-6.8,3-6.8,6.8v23.6c0,1.3-1,2.3-2.3,2.3c-1.3,0-2.3-1-2.3-2.3c0-25.5-0.7-26.5,2.2-30.4H29.6c-3.7,0-6.8,3-6.8,6.8
				c0,66,0.1,47.5,0.1,113.5C22.8,141.4,18.2,141.4,18.2,138.3z"/>
		</g>
	</g>
	<g>
		<g>
			<path class="st1" d="M109.2,158.6c0-1.3,1-2.3,2.3-2.3c5.9,0,10.7-4.8,10.7-10.7v-9.7c0-1.3,1-2.3,2.3-2.3c1.3,0,2.3,1,2.3,2.3
				v9.7C126.8,159.7,109.2,164.3,109.2,158.6z"/>
		</g>
	</g>
	<g>
		<g>
			<path class="st1" d="M111.5,160.9H15.3c-8.5,0-15.3-6.9-15.3-15.3v-6.2c0-1.3,1-2.3,2.3-2.3h96.2c1.3,0,2.3,1,2.3,2.3v6.2
				c0,5.9,4.8,10.7,10.7,10.7c1.3,0,2.3,1,2.3,2.3l0,0v0C113.8,159.9,112.8,160.9,111.5,160.9z M100.5,156.3
				c-4.9-5-4.4-10.4-4.4-14.6H4.6v3.9c0,5.9,4.8,10.7,10.6,10.7C15.3,156.3,100.5,156.3,100.5,156.3z"/>
		</g>
	</g>
	<g>
		<g>
			<path class="st2" d="M50.9,49H34.2V32.3h16.7V49z M38.8,44.4h7.5v-7.5h-7.5V44.4z"/>
		</g>
	</g>
	<g>
		<g>
			<path class="st2" d="M87.9,49H71.1V32.3h16.7V49z M75.8,44.4h7.5v-7.5h-7.5V44.4z"/>
		</g>
	</g>
	<g>
		<g>
			<path class="st1" d="M50.9,83.7H34.2V67h16.7V83.7z M38.8,79.1h7.5v-7.5h-7.5V79.1z"/>
		</g>
	</g>
	<g>
		<g>
			<path class="st1" d="M87.9,83.7H71.1V67h16.7V83.7z M75.8,79.1h7.5v-7.5h-7.5V79.1z"/>
		</g>
	</g>
	<g>
		<g>
			<path class="st1" d="M85.6,99.9H34.6c-3.1,0-3.1-4.6,0-4.6h50.9c1.3,0,2.3,1,2.3,2.3S86.8,99.9,85.6,99.9z"/>
		</g>
	</g>
	<g>
		<g>
			<path class="st1" d="M65.9,113.1H34.6c-3,0-3-4.5,0-4.5h31.3c1.2,0,2.3,1,2.3,2.3S67.1,113.1,65.9,113.1z"/>
		</g>
	</g>
	<g>
		<g>
			<path class="st1" d="M85.6,126.5H34.6c-3.1,0-3.1-4.6,0-4.6h50.9c1.3,0,2.3,1,2.3,2.3C87.9,125.5,86.8,126.5,85.6,126.5z"/>
		</g>
	</g>
	<g>
		<g>
			<path class="st1" d="M84.4,112.6h-8.1c-3,0-3-4.5,0-4.5h8.1c1.2,0,2.3,1,2.3,2.3C86.7,111.5,85.6,112.6,84.4,112.6z"/>
		</g>
	</g>
	<g>
		<g>
			<rect x="68.3" y="55.2" class="st1" width="16.6" height="4.6"/>
		</g>
	</g>
	<g>
		<g>
			<rect x="57.7" y="33.3" class="st2" width="4.6" height="16.6"/>
		</g>
	</g>
	<g>
		<g>
			<rect x="57.7" y="69.4" class="st1" width="4.6" height="12.3"/>
		</g>
	</g>
	<g>
		<g>
			<rect x="35" y="55.2" class="st1" width="6.8" height="4.6"/>
		</g>
	</g>
	<g>
		<g>
			<rect x="49.4" y="55.2" class="st1" width="6.8" height="4.6"/>
		</g>
	</g>
</g>
</svg>
