<?xml version="1.0" encoding="utf-8"?>
<!-- Generator: Adobe Illustrator 24.1.0, SVG Export Plug-In . SVG Version: 6.00 Build 0)  -->
<svg version="1.1" id="Layer_1" xmlns="http://www.w3.org/2000/svg" xmlns:xlink="http://www.w3.org/1999/xlink" x="0px" y="0px"
	 viewBox="0 0 164 164" style="enable-background:new 0 0 164 164;" xml:space="preserve">
<style type="text/css">
	.st0{fill:#61C4F2;}
	.st1{fill:#7F92FF;}
	.st2{fill:#263357;}
	.st3{fill:#FFFFFF;}
</style>
<g>
	<path class="st0" d="M98.21,142.27h-0.13l-4.92-1.53c-14.99-5.81-24.43-18.22-27.8-23.3c-11.41-17.17-11.73-42.91-0.84-65.58
		l0.44-0.92l0.99,0.21c2.75,0.56,5.6,0.85,8.44,0.85s5.69-0.29,8.44-0.85c5.46-1.11,10.8-3.36,15.4-6.5l0.8-0.54l0.8,0.54
		c4.61,3.14,9.94,5.39,15.41,6.5c2.75,0.56,5.6,0.85,8.44,0.85s5.69-0.29,8.45-0.85l0.99-0.2l0.44,0.92
		c10.89,22.67,10.55,48.42-0.84,65.58c-3.38,5.08-12.82,17.49-27.81,23.3l-5.81,1.81L98.21,142.27z"/>
	<path class="st1" d="M93.52,152.78h-59.3c-6.39,0-11.58-5.18-11.58-11.58v-1.54H71.2L93.52,152.78z"/>
	<path class="st1" d="M104.26,11.01H34.22c-6.39,0-11.58,5.18-11.58,11.58v1.54h93.2V22.6C115.83,16.2,110.65,11.01,104.26,11.01z"
		/>
	<g>
		<path class="st2" d="M69.24,154.09H33.79c-7.6,0-13.77-6.18-13.77-13.77V23.48c0-7.6,6.18-13.77,13.77-13.77h70.89
			c7.6,0,13.77,6.18,13.77,13.77v10.51c0,1.09-0.88,1.96-1.96,1.96c-1.09,0-1.96-0.88-1.96-1.96V23.48c0-5.43-4.42-9.83-9.83-9.83
			h-70.9c-5.43,0-9.83,4.42-9.83,9.83v116.84c0,5.43,4.42,9.83,9.83,9.83h35.45c1.09,0,1.96,0.88,1.96,1.96
			C71.2,153.2,70.32,154.09,69.24,154.09z"/>
	</g>
	<g>
		<path class="st2" d="M130.93,154.09H14.11c-1.09,0-1.96-0.88-1.96-1.96s0.88-1.96,1.96-1.96h116.82c1.09,0,1.96,0.88,1.96,1.96
			S132.02,154.09,130.93,154.09z"/>
	</g>
	<path class="st2" d="M140.59,150.12c-1.15,0-2.09,0.94-2.09,2.09c0,1.15,0.94,2.09,2.09,2.09c1.15,0,2.09-0.94,2.09-2.09
		C142.68,151.06,141.74,150.12,140.59,150.12z"/>
	<g>
		<path class="st2" d="M99.1,153.1c-0.8,0-1.62-0.11-2.4-0.33c-0.14-0.01-0.27-0.04-0.41-0.08l-6.37-1.98
			c-18.09-6.91-29.24-21.52-33.2-27.48C43.28,103,42.68,73.11,55.18,47.07l3.1-6.46c0.39-0.81,1.29-1.25,2.17-1.08l7.03,1.43
			c4.31,0.88,8.87,0.88,13.17,0c4.28-0.87,8.43-2.63,12.03-5.08l5.18-3.53c0.33-0.22,0.71-0.35,1.11-0.35h0.14
			c0.39,0,0.79,0.12,1.11,0.35l5.18,3.53c3.6,2.45,7.76,4.21,12.03,5.08c4.31,0.88,8.87,0.88,13.17,0l7.03-1.43
			c0.87-0.18,1.78,0.26,2.17,1.08l3.1,6.46c12.5,26.04,11.9,55.92-1.53,76.15c-3.96,5.96-15.11,20.57-33.08,27.44l-6.49,2.02
			C100.9,152.96,100,153.1,99.1,153.1z M97.2,148.85c0.13,0.01,0.26,0.04,0.39,0.07c0.99,0.31,2.03,0.31,3.02,0l6.37-1.98
			c16.79-6.42,27.34-20.26,31.09-25.9c12.68-19.1,13.17-47.46,1.26-72.27l-2.43-5.08l-5.52,1.12c-4.83,0.98-9.93,0.98-14.75,0
			c-4.78-0.97-9.43-2.94-13.46-5.68l-4.14-2.83l-4.14,2.83c-4.02,2.74-8.68,4.71-13.46,5.68c-4.82,0.98-9.92,0.98-14.75,0
			l-5.52-1.12l-2.43,5.08C46.83,73.59,47.33,101.96,60,121.04c3.75,5.65,14.3,19.48,31.2,25.95L97.2,148.85z"/>
	</g>
	<g>
		<path class="st3" d="M105.67,104.06H93.52v-39.7h12.16V104.06z M105.67,124.96H93.52V114.3h12.16V124.96z"/>
	</g>
</g>
</svg>
