<?xml version="1.0" encoding="utf-8"?>
<!-- Generator: Adobe Illustrator 24.1.0, SVG Export Plug-In . SVG Version: 6.00 Build 0)  -->
<svg version="1.1" id="Layer_1" xmlns="http://www.w3.org/2000/svg" xmlns:xlink="http://www.w3.org/1999/xlink" x="0px" y="0px"
	 viewBox="0 0 164 164" style="enable-background:new 0 0 164 164;" xml:space="preserve">
<style type="text/css">
	.st0{fill:#7F92FF;}
	.st1{fill:#263357;}
	.st2{fill:#61C4F2;}
	.st3{fill:#FFFFFF;}
</style>
<g>
	<g>
		<path class="st0" d="M62.86,53.73c-2.63-8.95-3.58-10.49-2.01-13.37c1.57-2.88,3.38-2.91,12.33-5.54c3.32-0.97,6.82,0.93,7.8,4.25
			l2.52,8.59c0.98,3.33-0.92,6.82-4.25,7.8l0,0l-8.59,2.52C67.33,58.96,63.83,57.05,62.86,53.73z M74.2,38.29
			c-12.92,3.8-11.67,1.5-7.87,14.42c0.42,1.41,1.9,2.23,3.31,1.81L78.22,52c1.41-0.41,2.22-1.9,1.81-3.31
			c-2.71-9.22-2.52-9.48-3.8-10.18C75.6,38.17,74.88,38.09,74.2,38.29z M78.73,53.73L78.73,53.73L78.73,53.73z"/>
	</g>
	<g>
		<path class="st1" d="M67.39,47.62c-2.14-1.06-0.54-4.3,1.6-3.24l4.6,2.27l5.03-10.63c1.02-2.16,4.29-0.62,3.27,1.55
			C75.51,51.04,76,50.46,75.03,50.79C74.08,51.13,74.09,50.93,67.39,47.62z"/>
	</g>
	<g>
		<rect x="34.17" y="96.8" class="st2" width="94.87" height="49.96"/>
	</g>
	<g>
		<path class="st1" d="M136.43,157.25c-2.47,0.26-2.87-3.48-0.39-3.74C138.51,153.25,138.9,156.99,136.43,157.25z"/>
	</g>
	<g>
		<path class="st1" d="M132.54,48.92c-0.96-0.53-0.1,1.67-11.14-37.73c-0.27-0.97,0.29-1.98,1.25-2.26l7.09-2.1
			c2.34-0.69,3.38,2.84,1.04,3.53l-5.35,1.58l9.26,33.06l14.08-4.16c2.33-0.69,3.38,2.84,1.04,3.53l-15.87,4.69
			C133.48,49.21,132.97,49.16,132.54,48.92z"/>
	</g>
	<g>
		<path class="st1" d="M71.46,21.99c5.69-5.07,2.43-3.02,16.93-10.27c4.4-2.59,7.06-1.49,20.57,0.6c5.58,0.86,9.18,0.37,14.49-0.1
			c2.38-0.24,2.74,3.42,0.32,3.63c-11.62,1.02-9.71,0.94-28.48-1.96c-3.03-0.47-3.38,0.14-17.16,7.03l-4.25,3.79
			C72.09,26.31,69.66,23.59,71.46,21.99z"/>
	</g>
	<g>
		<path class="st1" d="M85.27,49.95c-4.34-3.68-1.95-11.24,3.9-12.17c7.8-1.49,5.26-0.78,11.14-3.1c0.79-0.31,1.24-1.17,1.04-2
			c-0.53-2.21-6.46-1.62-8.42-1.52c-2.38,0.14-2.61-3.52-0.18-3.64l4.36-0.22c1.07-0.07,6.8,0.36,7.79,4.53
			c0.62,2.58-0.78,5.26-3.26,6.23l-4.95,1.94c-0.25,0.1-6.63,1.3-6.9,1.35c-2.75,0.44-4.18,4.09-2.17,5.8
			c1.27,1.08,2.05,0.62,9.73-0.87c0.09-0.02,0.18-0.03,0.27-0.03c21.72-0.87,18.93,0.15,31.15-7.8c2.01-1.31,4.01,1.74,1.99,3.05
			c-6.13,3.99-10.4,7.48-18.44,7.8c-17.29,0.69-12.52,0.21-21.72,2C88.69,51.64,86.74,51.2,85.27,49.95z"/>
	</g>
	<g>
		<path class="st1" d="M129.04,148.58H29.97c-1.01,0-1.82-0.82-1.82-1.82V92.94c0-1.01,0.82-1.82,1.82-1.82h99.07
			c1.01,0,1.82,0.82,1.82,1.82v53.82C130.86,147.76,130.05,148.58,129.04,148.58z M31.8,144.94h95.42V94.76H31.8V144.94z"/>
	</g>
	<g>
		<path class="st1" d="M112.94,84.35H47.27c-2.41,0-2.41-3.64,0-3.64h65.66c1.01,0,1.82,0.82,1.82,1.82S113.94,84.35,112.94,84.35z"
			/>
	</g>
	<g>
		<path class="st1" d="M121.41,104.78h-2.73c-2.41,0-2.41-3.64,0-3.64h2.73C123.82,101.13,123.82,104.78,121.41,104.78z
			 M109.57,104.78h-2.73c-2.41,0-2.41-3.64,0-3.64h2.73c1.01,0,1.82,0.82,1.82,1.82C111.39,103.96,110.58,104.78,109.57,104.78z
			 M97.73,104.78H95c-2.41,0-2.41-3.64,0-3.64h2.73C100.14,101.13,100.14,104.78,97.73,104.78z M85.89,104.78h-2.73
			c-2.41,0-2.41-3.64,0-3.64h2.73c1.01,0,1.82,0.82,1.82,1.82C87.72,103.96,86.9,104.78,85.89,104.78z M74.05,104.78h-2.73
			c-2.41,0-2.41-3.64,0-3.64h2.73C76.46,101.13,76.46,104.78,74.05,104.78z M62.21,104.78h-2.73c-2.41,0-2.41-3.64,0-3.64h2.73
			c1.01,0,1.82,0.82,1.82,1.82C64.04,103.96,63.22,104.78,62.21,104.78z M50.38,104.78h-2.73c-2.41,0-2.41-3.64,0-3.64h2.73
			c1.01,0,1.82,0.82,1.82,1.82C52.2,103.96,51.38,104.78,50.38,104.78z M38.54,104.78H35.8c-2.41,0-2.41-3.64,0-3.64h2.73
			c1.01,0,1.82,0.82,1.82,1.82C40.36,103.96,39.54,104.78,38.54,104.78z"/>
	</g>
	<g>
		<path class="st1" d="M121.41,138.81h-2.73c-2.41,0-2.41-3.64,0-3.64h2.73c1.01,0,1.82,0.82,1.82,1.82S122.42,138.81,121.41,138.81
			z M109.57,138.81h-2.73c-2.41,0-2.41-3.64,0-3.64h2.73c1.01,0,1.82,0.82,1.82,1.82S110.58,138.81,109.57,138.81z M97.73,138.81H95
			c-2.41,0-2.41-3.64,0-3.64h2.73c1.01,0,1.82,0.82,1.82,1.82S98.74,138.81,97.73,138.81z M85.89,138.81h-2.73
			c-2.41,0-2.41-3.64,0-3.64h2.73c1.01,0,1.82,0.82,1.82,1.82S86.9,138.81,85.89,138.81z M74.05,138.81h-2.73
			c-2.41,0-2.41-3.64,0-3.64h2.73c1.01,0,1.82,0.82,1.82,1.82S75.06,138.81,74.05,138.81z M62.21,138.81h-2.73
			c-2.41,0-2.41-3.64,0-3.64h2.73c1.01,0,1.82,0.82,1.82,1.82S63.22,138.81,62.21,138.81z M50.38,138.81h-2.73
			c-2.41,0-2.41-3.64,0-3.64h2.73c1.01,0,1.82,0.82,1.82,1.82S51.38,138.81,50.38,138.81z M38.54,138.81H35.8
			c-2.41,0-2.41-3.64,0-3.64h2.73c1.01,0,1.82,0.82,1.82,1.82S39.54,138.81,38.54,138.81z"/>
	</g>
	<g>
		<path class="st1" d="M129.31,94.76c-106.39,0-100.03,0.38-100.84-0.78c-0.75-1.08-0.79-0.12,7.4-22.04
			c0.59-1.59,1.16-1.18,13.4-1.18c2.41,0,2.41,3.64,0,3.64H38.84L32.6,91.12h94.01l-6.79-16.72h-10.43c-2.41,0-2.41-3.64,0-3.64
			c12.25,0,12.73-0.38,13.34,1.14c8.9,21.91,8.84,20.96,8.1,22.07C130.49,94.46,129.92,94.76,129.31,94.76z"/>
	</g>
	<g>
		<path class="st1" d="M53.44,77.51l-11.23-41.9c-0.26-0.98,0.32-1.97,1.29-2.23l47.05-12.56c0.98-0.26,1.97,0.32,2.23,1.29
			l3.04,11.28c0.63,2.32-2.89,3.28-3.52,0.95l-2.57-9.52L46.2,36.43l10.75,40.13c0.26,0.97-0.32,1.97-1.29,2.23
			C54.71,79.06,53.7,78.49,53.44,77.51z"/>
	</g>
	<g>
		<path class="st1" d="M103.94,77.51l-6.22-23.07c-0.63-2.32,2.89-3.28,3.52-0.95l6.22,23.07c0.26,0.97-0.31,1.97-1.28,2.23
			C105.22,79.06,104.2,78.5,103.94,77.51z"/>
	</g>
	<g>
		<g>
			<path class="st3" d="M61.57,126.35h-2.71l-5.75-13.88h2.92l4.17,10.76l4.19-10.76h2.92L61.57,126.35z"/>
		</g>
		<g>
			<path class="st3" d="M75.41,126.61c-9.68,0-9.33-14.41,0-14.41C84.85,112.19,84.9,126.61,75.41,126.61z M75.41,124.22
				c6.11,0,6.01-9.65,0-9.65C69.36,114.56,69.3,124.22,75.41,124.22z"/>
		</g>
		<g>
			<path class="st3" d="M87.17,114.84h-4.38v-2.37c3.99,0,7.36,0,11.37,0v2.37h-4.38v11.45h-2.61V114.84z"/>
		</g>
		<g>
			<path class="st3" d="M106.05,126.29H95.7c0-4.6,0-9.22,0-13.82h10.35V115h-7.76v3.18h7.48v2.43h-7.48v3.12h7.76V126.29z"/>
		</g>
	</g>
	<g>
		<path class="st1" d="M141.16,39.57c-3.28,0.34-3.81-4.62-0.52-4.96C143.92,34.26,144.44,39.22,141.16,39.57z"/>
	</g>
	<g>
		<path class="st1" d="M67.59,63.58l18.09-4.83c2.33-0.62,3.27,2.9,0.94,3.52L68.53,67.1C66.2,67.72,65.26,64.2,67.59,63.58z"/>
	</g>
	<g>
		<path class="st1" d="M69.99,71.46l18.09-4.83c2.33-0.62,3.27,2.9,0.94,3.52l-18.09,4.83C68.61,75.6,67.67,72.08,69.99,71.46z"/>
	</g>
	<g>
		<path class="st1" d="M129.04,156.78H28.96c-1.01,0-1.82-0.82-1.82-1.82s0.82-1.82,1.82-1.82h100.08
			C131.45,153.13,131.45,156.78,129.04,156.78z"/>
	</g>
	<g>
		<path class="st1" d="M29.97,148.58H14.67c-2.41,0-2.41-3.64,0-3.64h15.31c1.01,0,1.82,0.82,1.82,1.82
			C31.8,147.76,30.98,148.58,29.97,148.58z"/>
	</g>
	<g>
		<path class="st1" d="M147.58,148.58h-18.27c-2.41,0-2.41-3.64,0-3.64h18.27c1.01,0,1.82,0.82,1.82,1.82
			C149.4,147.76,148.59,148.58,147.58,148.58z"/>
	</g>
</g>
</svg>
