<?xml version="1.0" encoding="utf-8"?>
<!-- Generator: Adobe Illustrator 24.1.1, SVG Export Plug-In . SVG Version: 6.00 Build 0)  -->
<svg version="1.1" id="Layer_1" xmlns="http://www.w3.org/2000/svg" xmlns:xlink="http://www.w3.org/1999/xlink" x="0px" y="0px"
	 viewBox="0 0 32 32" style="enable-background:new 0 0 32 32;" xml:space="preserve">
<style type="text/css">
	.st0{fill:#7B87FF;}
	.st1{fill:url(#SVGID_1_);}
	.st2{fill:url(#SVGID_2_);}
</style>
<path class="st0" d="M21.7,20.3h2.8v2.8h-2.8V20.3z"/>
<linearGradient id="SVGID_1_" gradientUnits="userSpaceOnUse" x1="21.6744" y1="22.2744" x2="24.5202" y2="25.1202" gradientTransform="matrix(1 0 0 -1 0 34)">
	<stop  offset="0" style="stop-color:#424F9A"/>
	<stop  offset="1" style="stop-color:#5E1AD5"/>
</linearGradient>
<path class="st1" d="M21.7,8.9h2.8v2.8h-2.8V8.9z"/>
<path class="st0" d="M21.7,14.6h2.8v2.8h-2.8V14.6z"/>
<path class="st0" d="M16,8.9h2.8v2.8H16V8.9z"/>
<path class="st0" d="M27.4,25.9h2.8v2.8h-2.8V25.9z"/>
<linearGradient id="SVGID_2_" gradientUnits="userSpaceOnUse" x1="2.875" y1="29.875" x2="29.875" y2="2.875">
	<stop  offset="0" style="stop-color:#424F9A"/>
	<stop  offset="1" style="stop-color:#5E1AD5"/>
</linearGradient>
<path class="st2" d="M28.8,3.2h-3.5H12.4H8.9H7.5v1.4V6v5.1l-5.2,4.5c-0.2,0.1-0.3,0.3-0.4,0.5c-0.1,0.2-0.1,0.4-0.1,0.6v9.2v1.5
	v1.4h1.4h2.3H26V26l-7.2-0.1v-9.3c0-0.2,0-0.4-0.1-0.6c-0.1-0.2-0.2-0.3-0.4-0.5l-7.1-6.2c-0.3-0.2-0.6-0.4-0.9-0.4V6h2.1h12.8h2.1
	v18.5h2.8V6V4.6V3.2H28.8z M16,17.3v8.6h-4.3v-5.7H8.9v5.7H5.5H4.6v-8.6l5.7-5L16,17.3z"/>
</svg>
