<?xml version="1.0" encoding="utf-8"?>
<!-- Generator: Adobe Illustrator 24.1.1, SVG Export Plug-In . SVG Version: 6.00 Build 0)  -->
<svg version="1.1" id="Layer_1" xmlns="http://www.w3.org/2000/svg" xmlns:xlink="http://www.w3.org/1999/xlink" x="0px" y="0px"
	 viewBox="0 0 32 32" style="enable-background:new 0 0 32 32;" xml:space="preserve">
<style type="text/css">
	.st0{fill:url(#SVGID_1_);}
	.st1{fill:#7B87FF;}
</style>
<linearGradient id="SVGID_1_" gradientUnits="userSpaceOnUse" x1="6.525" y1="8.475" x2="28.225" y2="30.175" gradientTransform="matrix(1 0 0 -1 0 34)">
	<stop  offset="0" style="stop-color:#424F9A"/>
	<stop  offset="1" style="stop-color:#5E1AD5"/>
</linearGradient>
<path class="st0" d="M20,6.8L20,6.8L12,4L4,6.7V23h2.7V8.7l4-1.3V23l-1.3,0.5v2.8l2.7-1.1l8,2.8l8-2.7V3.7L20,6.8z M18.7,24.7
	l-5.3-1.9V7.3l5.3,1.9V24.7z M25.3,23.3L25.3,23.3l-4,1.3V9.2l4-1.6V23.3z"/>
<path class="st1" d="M4,28.3h2.7v-2.7H4V28.3z"/>
<polygon class="st1" points="18.7,24.7 13.3,22.8 13.3,7.3 18.7,9.2 "/>
</svg>
