<?xml version="1.0" encoding="utf-8"?>
<!-- Generator: Adobe Illustrator 24.1.1, SVG Export Plug-In . SVG Version: 6.00 Build 0)  -->
<svg version="1.1" id="Layer_1" xmlns="http://www.w3.org/2000/svg" xmlns:xlink="http://www.w3.org/1999/xlink" x="0px" y="0px"
	 viewBox="0 0 32 32" style="enable-background:new 0 0 32 32;" xml:space="preserve">
<style type="text/css">
	.st0{fill:url(#SVGID_1_);}
	.st1{fill:#7B87FF;}
</style>
<linearGradient id="SVGID_1_" gradientUnits="userSpaceOnUse" x1="6.1936" y1="28.7958" x2="25.743" y2="9.2465">
	<stop  offset="0" style="stop-color:#424F9A"/>
	<stop  offset="1" style="stop-color:#5E1AD5"/>
</linearGradient>
<path class="st0" d="M28.4,22.8l-1.1-2.2v-3.2c0-3.6,0-3.6-0.4-5C25.9,9,23.3,6.2,20,4.9c-0.6-0.2-1.8-0.6-2.3-0.6l-0.3,0V2.7h-2.8
	v0.7l0,0v0.7l-0.3,0.1c-0.2,0-0.6,0.1-1.1,0.2c-3.9,1-7,4-8,7.9c-0.3,1.3-0.3,1.5-0.4,5l0,3.2l-1.1,2.2c-0.6,1.3-1.1,2.3-1.1,2.3
	c0,0,6,0,13.5,0s13.5,0,13.5,0C29.5,25.1,29,24.1,28.4,22.8z M16,22.3c-4.9,0-8.9,0-8.9,0c0,0,0.1-0.2,0.2-0.5l0.2-0.5l0-3.5
	c0-3.4,0-3.6,0.1-4.1c0.4-1.8,1.2-3.2,2.4-4.4c1.3-1.3,3-2.1,4.9-2.4c0.6,0,2.1,0,2.7,0.1l0,0c1.1,0.2,2.3,0.7,3.2,1.4
	c0.6,0.4,1.5,1.3,1.9,1.9c0.6,0.8,1.1,1.9,1.3,2.9c0.2,0.9,0.2,1.3,0.2,4.7v3.2l0.2,0.5c0.1,0.3,0.2,0.5,0.2,0.5S20.9,22.3,16,22.3z
	"/>
<polygon class="st1" points="14.6,28 14.6,29.3 17.4,29.3 17.4,26.5 14.6,26.5 "/>
</svg>
