<?xml version="1.0" encoding="utf-8"?>
<!-- Generator: Adobe Illustrator 24.1.1, SVG Export Plug-In . SVG Version: 6.00 Build 0)  -->
<svg version="1.1" id="Layer_1" xmlns="http://www.w3.org/2000/svg" xmlns:xlink="http://www.w3.org/1999/xlink" x="0px" y="0px"
	 viewBox="0 0 32 32" style="enable-background:new 0 0 32 32;" xml:space="preserve">
<style type="text/css">
	.st0{fill:#7B87FF;}
	.st1{fill:url(#SVGID_1_);}
</style>
<path class="st0" d="M29.3,8V6.7h-2.7v2.7h2.7V8L29.3,8z"/>
<rect x="14.7" y="14.7" class="st0" width="2.7" height="4"/>
<linearGradient id="SVGID_1_" gradientUnits="userSpaceOnUse" x1="3.6439" y1="5.6926" x2="27.6424" y2="29.6911">
	<stop  offset="0" style="stop-color:#424F9A"/>
	<stop  offset="1" style="stop-color:#5E1AD5"/>
</linearGradient>
<path class="st1" d="M26.7,10.7v4H20V12h-8v2.7H5.3V9.5h0.1V9.3h19.9V6.7h-2.7v-3h0V1.4h-1.3H20h-8.1h-1.2H9.3v2.3h0v3H4
	c0,0,0,0,0,0H2.7V8v1.5v15.7v1.5V28H4h1H27h1h1.3v-1.3v-1.5V10.7H26.7z M12,4h8v2.7h-8V4z M14.7,14.7h2.7v4h-2.7V14.7z M26.7,25.3
	H5.3v-8H12v4h8v-4h6.7V25.3z"/>
</svg>
