<?xml version="1.0" standalone="no"?>
<!DOCTYPE svg PUBLIC "-//W3C//DTD SVG 1.1//EN" "http://www.w3.org/Graphics/SVG/1.1/DTD/svg11.dtd" >
<svg xmlns="http://www.w3.org/2000/svg" xmlns:xlink="http://www.w3.org/1999/xlink" version="1.1">
<metadata>
Created by FontForge 20170924 at Tue Mar  5 17:28:13 2019
 By www-data
Copyright \251 2014 by Jonathan Hill. All rights reserved.
</metadata>
<defs>
<font id="LoewNextArabic-ExtraBold" horiz-adv-x="0" >
  <font-face 
    font-family="Loew Next Arabic ExtraBold"
    font-weight="800"
    font-stretch="normal"
    units-per-em="1000"
    panose-1="2 11 8 4 3 3 2 2 2 4"
    ascent="750"
    descent="-250"
    x-height="500"
    cap-height="700"
    bbox="-200 -500 1563 1058"
    underline-thickness="50"
    underline-position="-100"
    stemh="150"
    stemv="142"
    unicode-range="U+0020-FEFC"
  />
<missing-glyph horiz-adv-x="500" 
d="M50 30v600h400v-600h-400zM120 100h260v460h-260v-460z" />
    <glyph glyph-name="f_f" unicode="ff" horiz-adv-x="808" 
d="M399 690l-20 -97c-21 8 -43 12 -68 12c-40 0 -69 -24 -69 -71v-34h254v37c0 119 74 173 181 173c41 0 83 -7 126 -20l-20 -97c-21 8 -44 12 -68 12c-40 0 -69 -24 -69 -71v-34h135v-116h-135v-384h-150v384h-254v-384h-150v384h-69v116h69v37c0 119 74 173 181 173
c41 0 83 -7 126 -20z" />
    <glyph glyph-name="f_f_i" unicode="ffi" horiz-adv-x="1106" 
d="M399 690l-20 -97c-21 8 -43 12 -68 12c-40 0 -69 -24 -69 -71v-34h254v37c0 119 74 173 181 173c41 0 83 -7 126 -20l-20 -97c-21 8 -44 12 -68 12c-40 0 -69 -24 -69 -71v-34h388v-500h-148v384h-240v-384h-150v384h-254v-384h-150v384h-69v116h69v37
c0 119 74 173 181 173c41 0 83 -7 126 -20zM1039 625c0 -39 -36 -71 -79 -71c-44 0 -80 32 -80 71s36 71 80 71c43 0 79 -32 79 -71z" />
    <glyph glyph-name="f_f_l" unicode="ffl" horiz-adv-x="1095" 
d="M399 690l-20 -97c-21 8 -43 12 -68 12c-40 0 -69 -24 -69 -71v-34h254v37c0 119 74 173 181 173c32 0 61 -3 88 -10h264v-700h-149v593h-97c-21 8 -44 12 -68 12c-40 0 -69 -24 -69 -71v-34h135v-116h-135v-384h-150v384h-254v-384h-150v384h-69v116h69v37
c0 119 74 173 181 173c41 0 83 -7 126 -20z" />
    <glyph glyph-name="fi" unicode="fi" horiz-adv-x="702" 
d="M399 690l-20 -97c-21 8 -43 12 -68 12c-40 0 -69 -24 -69 -71v-34h388v-500h-148v384h-240v-384h-150v384h-69v116h69v37c0 119 74 173 181 173c41 0 83 -7 126 -20zM635 625c0 -39 -36 -71 -79 -71c-44 0 -80 32 -80 71s36 71 80 71c43 0 79 -32 79 -71z" />
    <glyph glyph-name="fl" unicode="fl" horiz-adv-x="691" 
d="M361 700h264v-700h-149v593h-97c-21 8 -43 12 -68 12c-40 0 -69 -24 -69 -71v-34h135v-116h-135v-384h-150v384h-69v116h69v37c0 119 74 173 181 173c32 0 61 -3 88 -10z" />
    <glyph glyph-name="uniFEFB" unicode="&#xfedf;&#xfe8e;" horiz-adv-x="744" arabic-form="isolated" 
d="M514 730h142v-613c-57 -67 -163 -117 -282 -117h-324v150h181l-105 455h142l108 -455c52 0 103 10 138 31v549z" />
    <glyph glyph-name="uniFEFC" unicode="&#xfee0;&#xfe8e;" horiz-adv-x="797" arabic-form="final" 
d="M797 150h16v-148c0 -1 -5 -2 -16 -2h-1c-77 0 -147 20 -210 59c-59 -36 -133 -59 -212 -59h-324v150h181l-105 455h142l108 -455c52 0 103 10 138 31v549h142v-549c35 -21 88 -31 141 -31z" />
    <glyph glyph-name="uniFEF7" unicode="&#xfedf;&#xfe84;" horiz-adv-x="744" arabic-form="isolated" 
d="M514 730h142v-613c-57 -67 -163 -117 -282 -117h-324v150h181l-105 455h142l108 -455c52 0 103 10 138 31v549zM225 760h61v-86h-217v86h48c-15 17 -22 36 -22 59c0 51 38 91 97 91c35 0 66 -16 86 -36l-48 -49c-7 7 -17 11 -30 11c-21 0 -35 -14 -35 -35
c0 -24 20 -41 60 -41z" />
    <glyph glyph-name="uniFEF8" unicode="&#xfee0;&#xfe84;" horiz-adv-x="797" arabic-form="final" 
d="M284 760v-86h-216v86h48c-15 17 -22 36 -22 59c0 51 39 91 96 91c35 0 67 -16 86 -36l-47 -49c-9 7 -19 11 -31 11c-21 0 -34 -14 -34 -35c0 -24 19 -41 59 -41h61zM797 150h16v-148c0 -1 -5 -2 -16 -2h-1c-79 0 -152 23 -209 59c-60 -36 -134 -59 -213 -59h-324v150h181
l-105 455h142l108 -455c52 0 103 10 138 31v549h142v-549c35 -21 89 -31 141 -31z" />
    <glyph glyph-name="uniFEF9" unicode="&#xfedf;&#xfe88;" horiz-adv-x="744" arabic-form="isolated" 
d="M514 730h142v-613c-57 -67 -163 -117 -282 -117h-324v150h181l-105 455h142l108 -455c52 0 103 10 138 31v549zM278 -216h61v-85h-217v85h48c-15 17 -22 36 -22 59c0 52 38 92 97 92c35 0 66 -16 86 -36l-48 -50c-8 8 -18 12 -30 12c-21 0 -35 -15 -35 -35
c0 -24 20 -42 60 -42z" />
    <glyph glyph-name="uniFEFA" unicode="&#xfee0;&#xfe88;" horiz-adv-x="797" arabic-form="final" 
d="M797 150h16v-148c0 -1 -5 -2 -16 -2h-1c-77 0 -147 20 -210 59c-59 -36 -133 -59 -212 -59h-324v150h181l-105 455h142l108 -455c52 0 103 10 138 31v549h142v-549c35 -21 88 -31 141 -31zM278 -216h61v-85h-217v85h48c-15 17 -22 36 -22 59c0 52 38 92 97 92
c35 0 66 -16 86 -36l-48 -50c-8 8 -18 12 -30 12c-21 0 -35 -15 -35 -35c0 -24 20 -42 60 -42z" />
    <glyph glyph-name="uniFEF5" unicode="&#xfedf;&#xfe82;" horiz-adv-x="744" arabic-form="isolated" 
d="M514 730h142v-613c-57 -67 -163 -117 -282 -117h-324v150h181l-105 455h142l108 -455c52 0 103 10 138 31v549zM291 783l46 -9c-3 -67 -23 -101 -90 -98l-96 3c-31 1 -45 -5 -54 -24l-45 9c1 67 22 102 93 98l92 -4c33 -1 46 6 54 25z" />
    <glyph glyph-name="uniFEF6" unicode="&#xfee0;&#xfe82;" horiz-adv-x="797" arabic-form="final" 
d="M797 150h16v-148c0 -1 -5 -2 -16 -2h-1c-77 0 -147 20 -210 59c-59 -36 -133 -59 -212 -59h-324v150h181l-105 455h142l108 -455c52 0 103 10 138 31v549h142v-549c35 -21 88 -31 141 -31zM291 783l46 -9c-3 -67 -23 -101 -90 -98l-96 3c-31 1 -45 -5 -54 -24l-45 9
c1 67 22 102 93 98l92 -4c33 -1 46 6 54 25z" />
    <glyph glyph-name="uni06440671" unicode="&#xfedf;&#xfb51;" horiz-adv-x="744" 
d="M514 730h142v-613c-57 -67 -163 -117 -282 -117h-324v150h181l-105 455h142l108 -455c52 0 103 10 138 31v549zM358 776v-102h-300v78h48c35 80 91 119 154 119c61 0 98 -35 98 -95zM177 752h106v16c0 21 -12 35 -37 35c-28 0 -51 -17 -69 -51z" />
    <glyph glyph-name="uni06440671.fina" unicode="&#xfee0;&#xfb51;" horiz-adv-x="797" 
d="M797 150h16v-148c0 -1 -5 -2 -16 -2h-1c-77 0 -147 20 -210 59c-59 -36 -133 -59 -212 -59h-324v150h181l-105 455h142l108 -455c52 0 103 10 138 31v549h142v-549c35 -21 88 -31 141 -31zM358 776v-102h-300v78h48c35 80 91 119 154 119c61 0 98 -35 98 -95zM177 752
h106v16c0 21 -12 35 -37 35c-28 0 -51 -17 -69 -51z" />
    <glyph glyph-name="uniFDF2" unicode="&#x627;&#xfedf;&#xfee0;&#xfeea;" horiz-adv-x="1650" arabic-form="isolated" 
d="M866 1010v-164h-60v164h60zM706 699v86h59v-73c0 -15 9 -22 21 -22s22 7 22 22v88h55v-65c0 -16 10 -25 23 -25s22 10 22 25v85h58v-101c0 -45 -33 -64 -70 -64c-20 0 -40 6 -51 17c-12 -25 -39 -37 -66 -37c-37 0 -73 16 -73 64zM1409 730h141v-730h-141v730zM1098 177
v485h142v-562c-51 -63 -127 -100 -222 -100c-67 0 -124 17 -171 51c-49 -34 -123 -51 -220 -51h-234c-183 0 -293 104 -293 254c0 155 104 256 273 256c85 0 170 -26 221 -54v-306h78c36 0 78 10 103 30v377h142v-380c21 -21 52 -31 91 -31c40 0 70 10 90 31zM453 150v207
c-25 13 -60 20 -89 20c-72 0 -121 -40 -121 -116c0 -72 48 -111 124 -111h86z" />
    <glyph glyph-name="uniFE8E" unicode="&#x627;" horiz-adv-x="370" arabic-form="final" 
d="M370 150h16v-148c0 -1 -5 -2 -16 -2h-1c-88 0 -169 21 -225 52c-43 24 -56 48 -56 100v578h142v-553c36 -17 88 -27 140 -27z" />
    <glyph glyph-name="uniFE84" unicode="&#x623;" horiz-adv-x="370" arabic-form="final" 
d="M370 150h16v-148c0 -1 -5 -2 -16 -2h-1c-88 0 -169 21 -225 52c-43 24 -56 48 -56 100v578h142v-553c36 -17 88 -27 140 -27zM206 886h61v-86h-217v86h48c-15 17 -22 36 -22 59c0 51 38 91 97 91c35 0 66 -16 86 -36l-48 -49c-7 7 -17 11 -30 11c-21 0 -35 -14 -35 -35
c0 -24 20 -41 60 -41z" />
    <glyph glyph-name="uniFE88" unicode="&#x625;" horiz-adv-x="370" arabic-form="final" 
d="M370 150h16v-148c0 -1 -5 -2 -16 -2h-1c-88 0 -169 21 -225 52c-43 24 -56 48 -56 100v578h142v-553c36 -17 88 -27 140 -27zM224 -216h61v-85h-217v85h48c-15 17 -22 36 -22 59c0 52 38 92 97 92c35 0 66 -16 86 -36l-48 -50c-8 8 -18 12 -30 12c-21 0 -35 -15 -35 -35
c0 -24 20 -42 60 -42z" />
    <glyph glyph-name="uniFE82" unicode="&#x622;" horiz-adv-x="370" arabic-form="final" 
d="M370 150h16v-148c0 -1 -5 -2 -16 -2h-1c-88 0 -169 21 -225 52c-43 24 -56 48 -56 100v578h142v-553c36 -17 88 -27 140 -27zM253 909l46 -9c-3 -67 -23 -101 -90 -98l-96 3c-31 1 -45 -5 -54 -24l-45 9c1 67 22 102 93 98l92 -4c33 -1 46 6 54 25z" />
    <glyph glyph-name="uniFB51" unicode="&#x671;" horiz-adv-x="370" arabic-form="final" 
d="M370 150h16v-148c0 -1 -5 -2 -16 -2h-1c-88 0 -169 21 -225 52c-43 24 -56 48 -56 100v578h142v-553c36 -17 88 -27 140 -27zM299 902v-102h-300v78h48c35 80 91 119 154 119c61 0 98 -35 98 -95zM118 878h106v16c0 21 -12 35 -37 35c-28 0 -51 -17 -69 -51z" />
    <glyph glyph-name="uni066E.init" unicode="&#x66e;" horiz-adv-x="362" 
d="M282 508v-422c-56 -49 -164 -86 -281 -86h-1c-11 0 -16 1 -16 2v148h16c53 0 108 9 140 22v336h142z" />
    <glyph glyph-name="uni066E.medi" unicode="&#x66e;" horiz-adv-x="422" 
d="M422 150h16v-148c0 -1 -5 -2 -16 -2h-1c-76 0 -146 19 -210 56c-64 -37 -134 -56 -210 -56h-1c-11 0 -16 1 -16 2v148h16c57 0 103 9 140 27v331h142v-331c37 -18 83 -27 140 -27z" />
    <glyph glyph-name="uni066E.fina" unicode="&#x66e;" horiz-adv-x="1236" 
d="M1236 150h16v-148c0 -1 -5 -2 -16 -2h-1c-79 0 -152 21 -209 56c-65 -37 -155 -56 -268 -56h-389c-192 0 -299 70 -299 249c0 54 10 114 31 179l131 -23c-13 -43 -20 -81 -20 -113c0 -97 56 -142 165 -142h409c73 0 137 14 168 31v327h143v-331c35 -17 87 -27 139 -27z
" />
    <glyph glyph-name="uniFE90" unicode="&#x628;" horiz-adv-x="1236" arabic-form="final" 
d="M1236 150h16v-148c0 -1 -5 -2 -16 -2h-1c-79 0 -152 21 -209 56c-65 -37 -155 -56 -268 -56h-389c-192 0 -299 70 -299 249c0 54 10 114 31 179l131 -23c-13 -43 -20 -81 -20 -113c0 -97 56 -142 165 -142h409c73 0 137 14 168 31v327h143v-331c35 -17 87 -27 139 -27z
M517 -145c0 45 35 80 80 80c44 0 80 -35 80 -80s-36 -80 -80 -80c-45 0 -80 35 -80 80z" />
    <glyph glyph-name="uniFE92" unicode="&#x628;" horiz-adv-x="422" arabic-form="medial" 
d="M422 150h16v-148c0 -1 -5 -2 -16 -2h-1c-76 0 -146 19 -210 56c-64 -37 -134 -56 -210 -56h-1c-11 0 -16 1 -16 2v148h16c57 0 103 9 140 27v331h142v-331c37 -18 83 -27 140 -27zM133 -145c0 45 35 80 80 80c44 0 80 -35 80 -80s-36 -80 -80 -80c-45 0 -80 35 -80 80z
" />
    <glyph glyph-name="uniFE91" unicode="&#x628;" horiz-adv-x="362" arabic-form="initial" 
d="M282 508v-422c-56 -49 -164 -86 -281 -86h-1c-11 0 -16 1 -16 2v148h16c53 0 108 9 140 22v336h142zM95 -145c0 45 35 80 80 80c44 0 80 -35 80 -80s-36 -80 -80 -80c-45 0 -80 35 -80 80z" />
    <glyph glyph-name="uniFB57" unicode="&#x67e;" horiz-adv-x="1236" arabic-form="final" 
d="M1236 150h16v-148c0 -1 -5 -2 -16 -2h-1c-79 0 -152 21 -209 56c-65 -37 -155 -56 -268 -56h-389c-192 0 -299 70 -299 249c0 54 10 114 31 179l131 -23c-13 -43 -20 -81 -20 -113c0 -97 56 -142 165 -142h409c73 0 137 14 168 31v327h143v-331c35 -17 87 -27 139 -27z
M436 -135c0 39 31 70 71 70c39 0 69 -31 69 -70s-30 -70 -69 -70c-40 0 -71 31 -71 70zM618 -136c0 40 32 71 71 71s69 -31 69 -71c0 -39 -30 -70 -69 -70s-71 31 -71 70zM527 -282c0 40 31 71 70 71s69 -31 69 -71c0 -39 -30 -70 -69 -70s-70 31 -70 70z" />
    <glyph glyph-name="uniFB59" unicode="&#x67e;" horiz-adv-x="422" arabic-form="medial" 
d="M422 150h16v-148c0 -1 -5 -2 -16 -2h-1c-76 0 -146 19 -210 56c-64 -37 -134 -56 -210 -56h-1c-11 0 -16 1 -16 2v148h16c57 0 103 9 140 27v331h142v-331c37 -18 83 -27 140 -27zM52 -135c0 39 31 70 71 70c39 0 69 -31 69 -70s-30 -70 -69 -70c-40 0 -71 31 -71 70z
M234 -136c0 40 32 71 71 71s69 -31 69 -71c0 -39 -30 -70 -69 -70s-71 31 -71 70zM143 -282c0 40 31 71 70 71s69 -31 69 -71c0 -39 -30 -70 -69 -70s-70 31 -70 70z" />
    <glyph glyph-name="uniFB58" unicode="&#x67e;" horiz-adv-x="362" arabic-form="initial" 
d="M282 508v-422c-56 -49 -164 -86 -281 -86h-1c-11 0 -16 1 -16 2v148h16c53 0 108 9 140 22v336h142zM14 -135c0 39 31 70 71 70c39 0 69 -31 69 -70s-30 -70 -69 -70c-40 0 -71 31 -71 70zM196 -136c0 40 32 71 71 71s69 -31 69 -71c0 -39 -30 -70 -69 -70s-71 31 -71 70
zM105 -282c0 40 31 71 70 71s69 -31 69 -71c0 -39 -30 -70 -69 -70s-70 31 -70 70z" />
    <glyph glyph-name="uniFBE9" unicode="&#x649;" horiz-adv-x="422" arabic-form="medial" 
d="M422 150h16v-148c0 -1 -5 -2 -16 -2h-1c-76 0 -146 19 -210 56c-64 -37 -134 -56 -210 -56h-1c-11 0 -16 1 -16 2v148h16c57 0 103 9 140 27v331h142v-331c37 -18 83 -27 140 -27z" />
    <glyph glyph-name="uniFBE8" unicode="&#x649;" horiz-adv-x="362" arabic-form="initial" 
d="M282 508v-422c-56 -49 -164 -86 -281 -86h-1c-11 0 -16 1 -16 2v148h16c53 0 108 9 140 22v336h142z" />
    <glyph glyph-name="uniFE96" unicode="&#x62a;" horiz-adv-x="1236" arabic-form="final" 
d="M1236 150h16v-148c0 -1 -5 -2 -16 -2h-1c-79 0 -152 21 -209 56c-65 -37 -155 -56 -268 -56h-389c-192 0 -299 70 -299 249c0 54 10 114 31 179l131 -23c-13 -43 -20 -81 -20 -113c0 -97 56 -142 165 -142h409c73 0 137 14 168 31v327h143v-331c35 -17 87 -27 139 -27z
M403 565c0 44 35 79 80 79c43 0 78 -35 78 -79s-35 -80 -78 -80c-45 0 -80 36 -80 80zM603 565c0 44 35 79 80 79c44 0 79 -35 79 -79s-35 -80 -79 -80c-45 0 -80 36 -80 80z" />
    <glyph glyph-name="uniFE98" unicode="&#x62a;" horiz-adv-x="422" arabic-form="medial" 
d="M422 150h16v-148c0 -1 -5 -2 -16 -2h-1c-76 0 -146 19 -210 56c-64 -37 -134 -56 -210 -56h-1c-11 0 -16 1 -16 2v148h16c57 0 103 9 140 27v331h142v-331c37 -18 83 -27 140 -27zM34 671c0 44 35 79 80 79c43 0 78 -35 78 -79s-35 -80 -78 -80c-45 0 -80 36 -80 80z
M234 671c0 44 35 79 80 79c44 0 79 -35 79 -79s-35 -80 -79 -80c-45 0 -80 36 -80 80z" />
    <glyph glyph-name="uniFE97" unicode="&#x62a;" horiz-adv-x="362" arabic-form="initial" 
d="M282 508v-422c-56 -49 -164 -86 -281 -86h-1c-11 0 -16 1 -16 2v148h16c53 0 108 9 140 22v336h142zM30 671c0 44 35 79 80 79c43 0 78 -35 78 -79s-35 -80 -78 -80c-45 0 -80 36 -80 80zM230 671c0 44 35 79 80 79c44 0 79 -35 79 -79s-35 -80 -79 -80
c-45 0 -80 36 -80 80z" />
    <glyph glyph-name="uniFE9A" unicode="&#x62b;" horiz-adv-x="1236" arabic-form="final" 
d="M1236 150h16v-148c0 -1 -5 -2 -16 -2h-1c-79 0 -152 21 -209 56c-65 -37 -155 -56 -268 -56h-389c-192 0 -299 70 -299 249c0 54 10 114 31 179l131 -23c-13 -43 -20 -81 -20 -113c0 -97 56 -142 165 -142h409c73 0 137 14 168 31v327h143v-331c35 -17 87 -27 139 -27z
M512 701c0 40 31 71 70 71s69 -31 69 -71c0 -39 -30 -70 -69 -70s-70 31 -70 70zM421 555c0 39 31 70 71 70c39 0 69 -31 69 -70s-30 -70 -69 -70c-40 0 -71 31 -71 70zM603 555c0 40 31 70 71 70c39 0 69 -30 69 -70c0 -39 -30 -70 -69 -70s-71 31 -71 70z" />
    <glyph glyph-name="uniFE9C" unicode="&#x62b;" horiz-adv-x="422" arabic-form="medial" 
d="M422 150h16v-148c0 -1 -5 -2 -16 -2h-1c-76 0 -146 19 -210 56c-64 -37 -134 -56 -210 -56h-1c-11 0 -16 1 -16 2v148h16c57 0 103 9 140 27v331h142v-331c37 -18 83 -27 140 -27zM143 807c0 40 31 71 70 71s69 -31 69 -71c0 -39 -30 -70 -69 -70s-70 31 -70 70zM52 661
c0 39 31 70 71 70c39 0 69 -31 69 -70s-30 -70 -69 -70c-40 0 -71 31 -71 70zM234 661c0 40 31 70 71 70c39 0 69 -30 69 -70c0 -39 -30 -70 -69 -70s-71 31 -71 70z" />
    <glyph glyph-name="uniFE9B" unicode="&#x62b;" horiz-adv-x="362" arabic-form="initial" 
d="M282 508v-422c-56 -49 -164 -86 -281 -86h-1c-11 0 -16 1 -16 2v148h16c53 0 108 9 140 22v336h142zM139 807c0 40 31 71 70 71s69 -31 69 -71c0 -39 -30 -70 -69 -70s-70 31 -70 70zM48 661c0 39 31 70 71 70c39 0 69 -31 69 -70s-30 -70 -69 -70c-40 0 -71 31 -71 70z
M230 661c0 40 31 70 71 70c39 0 69 -30 69 -70c0 -39 -30 -70 -69 -70s-71 31 -71 70z" />
    <glyph glyph-name="uniFB67" unicode="&#x679;" horiz-adv-x="1236" arabic-form="final" 
d="M1236 150h16v-148c0 -1 -5 -2 -16 -2h-1c-79 0 -152 21 -209 56c-65 -37 -155 -56 -268 -56h-389c-192 0 -299 70 -299 249c0 54 10 114 31 179l131 -23c-13 -43 -20 -81 -20 -113c0 -97 56 -142 165 -142h409c73 0 137 14 168 31v327h143v-331c35 -17 87 -27 139 -27z
M714 601v-106h-289v78h22v179h72v-94c35 29 70 43 105 43c57 0 90 -40 90 -100zM519 573h120v19c0 27 -12 41 -36 41c-23 0 -51 -15 -84 -46v-14z" />
    <glyph glyph-name="uniFB69" unicode="&#x679;" horiz-adv-x="422" arabic-form="medial" 
d="M422 150h16v-148c0 -1 -5 -2 -16 -2h-1c-76 0 -146 19 -210 56c-64 -37 -134 -56 -210 -56h-1c-11 0 -16 1 -16 2v148h16c57 0 103 9 140 27v331h142v-331c37 -18 83 -27 140 -27zM345 707v-106h-289v78h22v179h72v-94c35 29 70 43 105 43c57 0 90 -40 90 -100zM150 679
h120v19c0 27 -12 41 -36 41c-23 0 -51 -15 -84 -46v-14z" />
    <glyph glyph-name="uniFB68" unicode="&#x679;" horiz-adv-x="362" arabic-form="initial" 
d="M282 508v-422c-56 -49 -164 -86 -281 -86h-1c-11 0 -16 1 -16 2v148h16c53 0 108 9 140 22v336h142zM341 707v-106h-289v78h22v179h72v-94c35 29 70 43 105 43c57 0 90 -40 90 -100zM146 679h120v19c0 27 -12 41 -36 41c-23 0 -51 -15 -84 -46v-14z" />
    <glyph glyph-name="uniFE9E" unicode="&#x62c;" horiz-adv-x="732" arabic-form="final" 
d="M748 150v-148c0 -1 -5 -2 -16 -2h-436c-67 0 -113 -35 -113 -92s45 -92 114 -92h151v-150h-119c-188 0 -299 87 -299 239c0 155 105 243 286 243h165c-29 33 -44 65 -63 125c-11 37 -20 64 -29 83c-17 37 -46 59 -99 59c-40 0 -76 -12 -123 -41l-76 99
c65 51 136 76 211 76c143 0 200 -66 243 -219c21 -75 40 -128 77 -165c11 -12 28 -15 56 -15h70zM448 -136c0 44 35 79 80 79c43 0 79 -35 79 -79s-36 -80 -79 -80c-45 0 -80 36 -80 80z" />
    <glyph glyph-name="uniFEA0" unicode="&#x62c;" horiz-adv-x="663" arabic-form="medial" 
d="M679 150v-148c0 -1 -5 -2 -15 -2h-664c-11 0 -16 1 -16 2v148h428c-29 33 -44 64 -61 123c-11 37 -20 64 -29 83c-17 37 -47 59 -100 59c-40 0 -75 -12 -122 -41l-78 99c66 51 137 76 212 76c143 0 199 -64 244 -218c21 -75 39 -124 72 -161c12 -15 29 -20 68 -20h61z
M207 -145c0 45 35 80 80 80c44 0 80 -35 80 -80s-36 -80 -80 -80c-45 0 -80 35 -80 80z" />
    <glyph glyph-name="uniFE9F" unicode="&#x62c;" horiz-adv-x="656" arabic-form="initial" 
d="M608 129l-39 -129h-569c-11 0 -16 1 -16 2v148h429c-29 32 -42 65 -61 122c-32 107 -46 138 -129 143c-40 0 -76 -12 -123 -41l-78 99c66 51 137 76 213 76c142 0 200 -66 243 -217c11 -37 22 -67 31 -91c19 -48 51 -95 99 -112zM208 -145c0 45 35 80 80 80
c44 0 80 -35 80 -80s-36 -80 -80 -80c-45 0 -80 35 -80 80z" />
    <glyph glyph-name="uniFB7B" unicode="&#x686;" horiz-adv-x="732" arabic-form="final" 
d="M748 150v-148c0 -1 -5 -2 -16 -2h-442c-64 0 -107 -34 -107 -91c0 -60 42 -96 109 -96h62v-150h-28c-185 0 -296 89 -296 242s114 243 295 243h156c-29 33 -44 65 -63 125c-11 37 -20 64 -29 83c-17 37 -46 59 -99 59c-40 0 -76 -12 -123 -41l-76 99c65 51 136 76 211 76
c143 0 200 -66 243 -219c21 -75 40 -128 77 -165c11 -12 28 -15 56 -15h70zM436 -199c-40 0 -71 31 -71 70s31 70 71 70c39 0 69 -31 69 -70s-30 -70 -69 -70zM687 -130c0 -39 -30 -70 -69 -70s-71 31 -71 70c0 40 32 71 71 71s69 -31 69 -71zM595 -276
c0 -39 -30 -70 -69 -70s-70 31 -70 70c0 40 31 71 70 71s69 -31 69 -71z" />
    <glyph glyph-name="uniFB7D" unicode="&#x686;" horiz-adv-x="663" arabic-form="medial" 
d="M679 150v-148c0 -1 -5 -2 -15 -2h-664c-11 0 -16 1 -16 2v148h428c-29 33 -44 64 -61 123c-11 37 -20 64 -29 83c-17 37 -47 59 -100 59c-40 0 -75 -12 -122 -41l-78 99c66 51 137 76 212 76c143 0 199 -64 244 -218c21 -75 39 -124 72 -161c12 -15 29 -20 68 -20h61z
M125 -135c0 39 31 70 71 70c39 0 69 -31 69 -70s-30 -70 -69 -70c-40 0 -71 31 -71 70zM307 -136c0 40 32 71 71 71s69 -31 69 -71c0 -39 -30 -70 -69 -70s-71 31 -71 70zM216 -282c0 40 31 71 70 71s69 -31 69 -71c0 -39 -30 -70 -69 -70s-70 31 -70 70z" />
    <glyph glyph-name="uniFB7C" unicode="&#x686;" horiz-adv-x="656" arabic-form="initial" 
d="M608 129l-39 -129h-569c-11 0 -16 1 -16 2v148h429c-29 32 -42 65 -61 122c-32 107 -46 138 -129 143c-40 0 -76 -12 -123 -41l-78 99c66 51 137 76 213 76c142 0 200 -66 243 -217c11 -37 22 -67 31 -91c19 -48 51 -95 99 -112zM127 -135c0 39 31 70 71 70
c39 0 69 -31 69 -70s-30 -70 -69 -70c-40 0 -71 31 -71 70zM309 -136c0 40 32 71 71 71s69 -31 69 -71c0 -39 -30 -70 -69 -70s-71 31 -71 70zM218 -282c0 40 31 71 70 71s69 -31 69 -71c0 -39 -30 -70 -69 -70s-70 31 -70 70z" />
    <glyph glyph-name="uniFEA2" unicode="&#x62d;" horiz-adv-x="732" arabic-form="final" 
d="M748 150v-148c0 -1 -5 -2 -16 -2h-436c-67 0 -113 -35 -113 -92s45 -92 114 -92h151v-150h-119c-188 0 -299 87 -299 239c0 155 105 243 286 243h165c-29 33 -44 65 -63 125c-11 37 -20 64 -29 83c-17 37 -46 59 -99 59c-40 0 -76 -12 -123 -41l-76 99
c65 51 136 76 211 76c143 0 200 -66 243 -219c21 -75 40 -128 77 -165c11 -12 28 -15 56 -15h70z" />
    <glyph glyph-name="uniFEA4" unicode="&#x62d;" horiz-adv-x="663" arabic-form="medial" 
d="M679 150v-148c0 -1 -5 -2 -15 -2h-664c-11 0 -16 1 -16 2v148h428c-29 33 -44 64 -61 123c-11 37 -20 64 -29 83c-17 37 -47 59 -100 59c-40 0 -75 -12 -122 -41l-78 99c66 51 137 76 212 76c143 0 199 -64 244 -218c21 -75 39 -124 72 -161c12 -15 29 -20 68 -20h61z
" />
    <glyph glyph-name="uniFEA3" unicode="&#x62d;" horiz-adv-x="656" arabic-form="initial" 
d="M608 129l-39 -129h-569c-11 0 -16 1 -16 2v148h429c-29 32 -42 65 -61 122c-32 107 -46 138 -129 143c-40 0 -76 -12 -123 -41l-78 99c66 51 137 76 213 76c142 0 200 -66 243 -217c11 -37 22 -67 31 -91c19 -48 51 -95 99 -112z" />
    <glyph glyph-name="uniFEA6" unicode="&#x62e;" horiz-adv-x="732" arabic-form="final" 
d="M748 150v-148c0 -1 -5 -2 -16 -2h-436c-67 0 -113 -35 -113 -92s45 -92 114 -92h151v-150h-119c-188 0 -299 87 -299 239c0 155 105 243 286 243h165c-29 33 -44 65 -63 125c-11 37 -20 64 -29 83c-17 37 -46 59 -99 59c-40 0 -76 -12 -123 -41l-76 99
c65 51 136 76 211 76c143 0 200 -66 243 -219c21 -75 40 -128 77 -165c11 -12 28 -15 56 -15h70zM235 695c0 45 36 80 81 80c44 0 79 -35 79 -80c0 -44 -35 -80 -79 -80c-45 0 -81 36 -81 80z" />
    <glyph glyph-name="uniFEA8" unicode="&#x62e;" horiz-adv-x="663" arabic-form="medial" 
d="M679 150v-148c0 -1 -5 -2 -15 -2h-664c-11 0 -16 1 -16 2v148h428c-29 33 -44 64 -61 123c-11 37 -20 64 -29 83c-17 37 -47 59 -100 59c-40 0 -75 -12 -122 -41l-78 99c66 51 137 76 212 76c143 0 199 -64 244 -218c21 -75 39 -124 72 -161c12 -15 29 -20 68 -20h61z
M164 695c0 45 36 80 81 80c44 0 79 -35 79 -80c0 -44 -35 -80 -79 -80c-45 0 -81 36 -81 80z" />
    <glyph glyph-name="uniFEA7" unicode="&#x62e;" horiz-adv-x="656" arabic-form="initial" 
d="M608 129l-39 -129h-569c-11 0 -16 1 -16 2v148h429c-29 32 -42 65 -61 122c-32 107 -46 138 -129 143c-40 0 -76 -12 -123 -41l-78 99c66 51 137 76 213 76c142 0 200 -66 243 -217c11 -37 22 -67 31 -91c19 -48 51 -95 99 -112zM165 695c0 45 36 80 81 80
c44 0 79 -35 79 -80c0 -44 -35 -80 -79 -80c-45 0 -81 36 -81 80z" />
    <glyph glyph-name="uniFEAA" unicode="&#x62f;" horiz-adv-x="641" arabic-form="final" 
d="M657 150v-148c0 -1 -5 -2 -16 -2h-596v150h328v124c0 76 -37 100 -121 100h-119v142h86c225 0 296 -59 296 -235v-131h142z" />
    <glyph glyph-name="uniFEAC" unicode="&#x630;" horiz-adv-x="641" arabic-form="final" 
d="M657 150v-148c0 -1 -5 -2 -16 -2h-596v150h328v124c0 76 -37 100 -121 100h-119v142h86c225 0 296 -59 296 -235v-131h142zM145 678c0 45 36 80 81 80c44 0 79 -35 79 -80c0 -44 -35 -80 -79 -80c-45 0 -81 36 -81 80z" />
    <glyph glyph-name="uniFB89" unicode="&#x688;" horiz-adv-x="641" arabic-form="final" 
d="M657 150v-148c0 -1 -5 -2 -16 -2h-596v150h328v124c0 76 -37 100 -121 100h-119v142h86c225 0 296 -59 296 -235v-131h142zM358 714v-106h-289v78h22v179h72v-94c35 29 70 43 105 43c57 0 90 -40 90 -100zM163 686h120v19c0 27 -12 41 -36 41c-23 0 -51 -15 -84 -46v-14z
" />
    <glyph glyph-name="uniFEAE" unicode="&#x631;" horiz-adv-x="441" arabic-form="final" 
d="M441 150h16v-148c0 -1 -5 -2 -16 -2h-1c-47 0 -94 8 -141 25c-5 -199 -111 -287 -282 -287c-20 0 -44 2 -72 5l27 144c9 -1 22 -1 40 -1c107 0 145 47 145 150v456h142v-312c36 -20 89 -30 142 -30z" />
    <glyph glyph-name="uniFEB0" unicode="&#x632;" horiz-adv-x="441" arabic-form="final" 
d="M441 150h16v-148c0 -1 -5 -2 -16 -2h-1c-47 0 -94 8 -141 25c-5 -199 -111 -287 -282 -287c-20 0 -44 2 -72 5l27 144c9 -1 22 -1 40 -1c107 0 145 47 145 150v456h142v-312c36 -20 89 -30 142 -30zM149 660c0 45 36 80 81 80c44 0 79 -35 79 -80c0 -44 -35 -80 -79 -80
c-45 0 -81 36 -81 80z" />
    <glyph glyph-name="uniFB8D" unicode="&#x691;" horiz-adv-x="441" arabic-form="final" 
d="M441 150h16v-148c0 -1 -5 -2 -16 -2h-1c-47 0 -94 8 -141 25c-5 -199 -111 -287 -282 -287c-20 0 -44 2 -72 5l27 144c9 -1 22 -1 40 -1c107 0 145 47 145 150v456h142v-312c36 -20 89 -30 142 -30zM362 696v-106h-289v78h22v179h72v-94c35 29 70 43 105 43
c57 0 90 -40 90 -100zM167 668h120v19c0 27 -12 41 -36 41c-23 0 -51 -15 -84 -46v-14z" />
    <glyph glyph-name="uniFB8B" unicode="&#x698;" horiz-adv-x="441" arabic-form="final" 
d="M441 150h16v-148c0 -1 -5 -2 -16 -2h-1c-47 0 -94 8 -141 25c-5 -199 -111 -287 -282 -287c-20 0 -44 2 -72 5l27 144c9 -1 22 -1 40 -1c107 0 145 47 145 150v456h142v-312c36 -20 89 -30 142 -30zM160 796c0 40 31 71 70 71s69 -31 69 -71c0 -39 -30 -70 -69 -70
s-70 31 -70 70zM69 650c0 39 31 70 71 70c39 0 69 -31 69 -70s-30 -70 -69 -70c-40 0 -71 31 -71 70zM251 650c0 40 31 70 71 70c39 0 69 -30 69 -70c0 -39 -30 -70 -69 -70s-71 31 -71 70z" />
    <glyph glyph-name="uniFEB2" unicode="&#x633;" horiz-adv-x="1547" arabic-form="final" 
d="M1547 150h16v-148c0 -1 -5 -2 -16 -2h-1c-67 0 -128 17 -182 50c-48 -33 -107 -54 -166 -54c-57 0 -110 18 -158 53c-45 -35 -97 -53 -155 -53c-51 0 -94 15 -131 44v-207c-87 -51 -201 -95 -332 -95c-219 0 -354 129 -354 331c0 49 7 99 21 152l130 -25
c-9 -32 -13 -65 -13 -98c0 -136 82 -211 231 -211c64 0 126 13 187 39v461h143v-216c27 -17 57 -25 89 -25c31 0 60 8 88 24v217h143v-217c28 -16 58 -24 89 -24s61 8 88 25v261h143v-255c37 -18 84 -27 140 -27z" />
    <glyph glyph-name="uniFEB4" unicode="&#x633;" horiz-adv-x="1062" arabic-form="medial" 
d="M1062 150h16v-148c0 -1 -5 -2 -16 -2h-1c-69 0 -134 16 -193 48c-51 -32 -109 -48 -175 -48c-57 0 -110 17 -159 51c-49 -34 -102 -51 -161 -51c-65 0 -124 21 -165 52c-51 -31 -123 -52 -207 -52h-1c-11 0 -16 1 -16 2v148h16c51 0 101 11 140 27v210h142v-212
c28 -17 58 -25 89 -25s61 8 89 24v213h142v-213c29 -16 58 -24 89 -24c32 0 62 8 89 25v257h142v-255c37 -18 84 -27 140 -27z" />
    <glyph glyph-name="uniFEB3" unicode="&#x633;" horiz-adv-x="1002" arabic-form="initial" 
d="M780 497h142v-404c-55 -59 -137 -93 -229 -93c-57 0 -110 17 -159 51c-49 -34 -102 -51 -161 -51c-65 0 -124 21 -165 52c-51 -31 -123 -52 -207 -52h-1c-11 0 -16 1 -16 2v148h16c51 0 101 11 140 27v210h142v-212c28 -17 58 -25 89 -25s61 8 89 24v213h142v-213
c29 -16 58 -24 89 -24c32 0 62 8 89 25v322z" />
    <glyph glyph-name="uniFEB6" unicode="&#x634;" horiz-adv-x="1547" arabic-form="final" 
d="M1547 150h16v-148c0 -1 -5 -2 -16 -2h-1c-67 0 -128 17 -182 50c-48 -33 -107 -54 -166 -54c-57 0 -110 18 -158 53c-45 -35 -97 -53 -155 -53c-51 0 -94 15 -131 44v-207c-87 -51 -201 -95 -332 -95c-219 0 -354 129 -354 331c0 49 7 99 21 152l130 -25
c-9 -32 -13 -65 -13 -98c0 -136 82 -211 231 -211c64 0 126 13 187 39v461h143v-216c27 -17 57 -25 89 -25c31 0 60 8 88 24v217h143v-217c28 -16 58 -24 89 -24s61 8 88 25v261h143v-255c37 -18 84 -27 140 -27zM945 701c0 40 31 71 70 71s69 -31 69 -71
c0 -39 -30 -70 -69 -70s-70 31 -70 70zM854 555c0 39 31 70 71 70c39 0 69 -31 69 -70s-30 -70 -69 -70c-40 0 -71 31 -71 70zM1036 555c0 40 31 70 71 70c39 0 69 -30 69 -70c0 -39 -30 -70 -69 -70s-71 31 -71 70z" />
    <glyph glyph-name="uniFEB8" unicode="&#x634;" horiz-adv-x="1062" arabic-form="medial" 
d="M1062 150h16v-148c0 -1 -5 -2 -16 -2h-1c-69 0 -134 16 -193 48c-51 -32 -109 -48 -175 -48c-57 0 -110 17 -159 51c-49 -34 -102 -51 -161 -51c-65 0 -124 21 -165 52c-51 -31 -123 -52 -207 -52h-1c-11 0 -16 1 -16 2v148h16c51 0 101 11 140 27v210h142v-212
c28 -17 58 -25 89 -25s61 8 89 24v213h142v-213c29 -16 58 -24 89 -24c32 0 62 8 89 25v257h142v-255c37 -18 84 -27 140 -27zM461 701c0 40 31 71 70 71s69 -31 69 -71c0 -39 -30 -70 -69 -70s-70 31 -70 70zM370 555c0 39 31 70 71 70c39 0 69 -31 69 -70s-30 -70 -69 -70
c-40 0 -71 31 -71 70zM552 555c0 40 31 70 71 70c39 0 69 -30 69 -70c0 -39 -30 -70 -69 -70s-71 31 -71 70z" />
    <glyph glyph-name="uniFEB7" unicode="&#x634;" horiz-adv-x="1002" arabic-form="initial" 
d="M780 497h142v-404c-55 -59 -137 -93 -229 -93c-57 0 -110 17 -159 51c-49 -34 -102 -51 -161 -51c-65 0 -124 21 -165 52c-51 -31 -123 -52 -207 -52h-1c-11 0 -16 1 -16 2v148h16c51 0 101 11 140 27v210h142v-212c28 -17 58 -25 89 -25s61 8 89 24v213h142v-213
c29 -16 58 -24 89 -24c32 0 62 8 89 25v322zM461 701c0 40 31 71 70 71s69 -31 69 -71c0 -39 -30 -70 -69 -70s-70 31 -70 70zM370 555c0 39 31 70 71 70c39 0 69 -31 69 -70s-30 -70 -69 -70c-40 0 -71 31 -71 70zM552 555c0 40 31 70 71 70c39 0 69 -30 69 -70
c0 -39 -30 -70 -69 -70s-71 31 -71 70z" />
    <glyph glyph-name="uniFEBA" unicode="&#x635;" horiz-adv-x="1490" arabic-form="final" 
d="M1506 150v-148c0 -1 -5 -2 -16 -2h-723v-158c-93 -57 -211 -104 -344 -104c-221 0 -355 128 -355 332c0 48 7 98 21 151l130 -25c-9 -32 -13 -65 -13 -98c0 -136 82 -211 231 -211c64 0 126 13 187 39v549h143v-109c119 123 221 183 338 183c147 0 254 -96 254 -281v-118
h147zM767 150h450v93c0 45 -10 84 -30 116c-20 33 -55 49 -105 49c-93 0 -188 -65 -315 -212v-46z" />
    <glyph glyph-name="uniFEBC" unicode="&#x635;" horiz-adv-x="1005" arabic-form="medial" 
d="M1021 150v-148c0 -1 -5 -2 -16 -2h-1005c-11 0 -16 1 -16 2v148h156v325h142v-110c119 124 219 184 338 184c147 0 255 -96 255 -281v-118h146zM282 150h450v93c0 47 -10 86 -30 117c-19 32 -54 48 -103 48c-95 0 -190 -65 -317 -213v-45z" />
    <glyph glyph-name="uniFEBB" unicode="&#x635;" horiz-adv-x="952" arabic-form="initial" 
d="M875 268v-268h-875c-11 0 -16 1 -16 2v148h156v325h142v-110c119 124 219 184 338 184c147 0 255 -96 255 -281zM282 150h450v93c0 47 -10 86 -30 117c-19 32 -54 48 -103 48c-95 0 -190 -65 -317 -213v-45z" />
    <glyph glyph-name="uniFEBE" unicode="&#x636;" horiz-adv-x="1490" arabic-form="final" 
d="M1506 150v-148c0 -1 -5 -2 -16 -2h-723v-158c-93 -57 -211 -104 -344 -104c-221 0 -355 128 -355 332c0 48 7 98 21 151l130 -25c-9 -32 -13 -65 -13 -98c0 -136 82 -211 231 -211c64 0 126 13 187 39v549h143v-109c119 123 221 183 338 183c147 0 254 -96 254 -281v-118
h147zM767 150h450v93c0 45 -10 84 -30 116c-20 33 -55 49 -105 49c-93 0 -188 -65 -315 -212v-46zM832 705c0 45 36 80 81 80c44 0 79 -35 79 -80c0 -44 -35 -80 -79 -80c-45 0 -81 36 -81 80z" />
    <glyph glyph-name="uniFEC0" unicode="&#x636;" horiz-adv-x="1005" arabic-form="medial" 
d="M1021 150v-148c0 -1 -5 -2 -16 -2h-1005c-11 0 -16 1 -16 2v148h156v325h142v-110c119 124 219 184 338 184c147 0 255 -96 255 -281v-118h146zM282 150h450v93c0 47 -10 86 -30 117c-19 32 -54 48 -103 48c-95 0 -190 -65 -317 -213v-45zM313 705c0 45 36 80 81 80
c44 0 79 -35 79 -80c0 -44 -35 -80 -79 -80c-45 0 -81 36 -81 80z" />
    <glyph glyph-name="uniFEBF" unicode="&#x636;" horiz-adv-x="952" arabic-form="initial" 
d="M875 268v-268h-875c-11 0 -16 1 -16 2v148h156v325h142v-110c119 124 219 184 338 184c147 0 255 -96 255 -281zM282 150h450v93c0 47 -10 86 -30 117c-19 32 -54 48 -103 48c-95 0 -190 -65 -317 -213v-45zM313 705c0 45 36 80 81 80c44 0 79 -35 79 -80
c0 -44 -35 -80 -79 -80c-45 0 -81 36 -81 80z" />
    <glyph glyph-name="uniFEC2" unicode="&#x637;" horiz-adv-x="1007" arabic-form="final" 
d="M1023 150v-148c0 -1 -5 -2 -16 -2h-966v150h100v572h143v-356c119 123 221 183 338 183c147 0 254 -96 254 -281v-118h147zM284 150h450v93c0 45 -10 84 -30 116c-20 33 -55 49 -105 49c-93 0 -188 -65 -315 -212v-46z" />
    <glyph glyph-name="uniFEC4" unicode="&#x637;" horiz-adv-x="1005" arabic-form="medial" 
d="M1021 150v-148c0 -1 -5 -2 -16 -2h-1005c-11 0 -16 1 -16 2v148h156v572h142v-357c119 124 219 184 338 184c147 0 255 -96 255 -281v-118h146zM282 150h450v93c0 46 -10 85 -30 117s-55 48 -104 48c-93 0 -189 -65 -316 -213v-45z" />
    <glyph glyph-name="uniFEC3" unicode="&#x637;" horiz-adv-x="952" arabic-form="initial" 
d="M875 268v-268h-875c-11 0 -16 1 -16 2v148h156v572h142v-357c119 124 219 184 338 184c147 0 255 -96 255 -281zM282 150h450v93c0 46 -10 85 -30 117s-55 48 -104 48c-93 0 -189 -65 -316 -213v-45z" />
    <glyph glyph-name="uniFEC6" unicode="&#x638;" horiz-adv-x="1007" arabic-form="final" 
d="M1023 150v-148c0 -1 -5 -2 -16 -2h-966v150h100v572h143v-356c119 123 221 183 338 183c147 0 254 -96 254 -281v-118h147zM284 150h450v93c0 45 -10 84 -30 116c-20 33 -55 49 -105 49c-93 0 -188 -65 -315 -212v-46zM423 720c0 45 36 80 81 80c44 0 79 -35 79 -80
c0 -44 -35 -80 -79 -80c-45 0 -81 36 -81 80z" />
    <glyph glyph-name="uniFEC8" unicode="&#x638;" horiz-adv-x="1005" arabic-form="medial" 
d="M1021 150v-148c0 -1 -5 -2 -16 -2h-1005c-11 0 -16 1 -16 2v148h156v572h142v-357c119 124 219 184 338 184c147 0 255 -96 255 -281v-118h146zM282 150h450v93c0 46 -10 85 -30 117s-55 48 -104 48c-93 0 -189 -65 -316 -213v-45zM425 720c0 45 36 80 81 80
c44 0 79 -35 79 -80c0 -44 -35 -80 -79 -80c-45 0 -81 36 -81 80z" />
    <glyph glyph-name="uniFEC7" unicode="&#x638;" horiz-adv-x="952" arabic-form="initial" 
d="M875 268v-268h-875c-11 0 -16 1 -16 2v148h156v572h142v-357c119 124 219 184 338 184c147 0 255 -96 255 -281zM282 150h450v93c0 46 -10 85 -30 117s-55 48 -104 48c-93 0 -189 -65 -316 -213v-45zM425 720c0 45 36 80 81 80c44 0 79 -35 79 -80c0 -44 -35 -80 -79 -80
c-45 0 -81 36 -81 80z" />
    <glyph glyph-name="uniFECA" unicode="&#x639;" horiz-adv-x="767" arabic-form="final" 
d="M783 150v-148c0 -1 -5 -2 -16 -2h-469c-75 0 -119 -34 -119 -91c0 -59 44 -93 120 -93h151v-150h-118c-197 0 -302 88 -302 235c0 124 85 204 234 231l-159 246l24 111c87 41 175 61 262 61c153 0 255 -65 255 -193c0 -83 -43 -160 -110 -207h247zM386 410
c-37 0 -76 -9 -117 -27l110 -209c71 28 122 84 122 145c0 57 -43 91 -115 91z" />
    <glyph glyph-name="uniFECC" unicode="&#x639;" horiz-adv-x="681" arabic-form="medial" 
d="M689 150v-150h-697v150h208l-146 226l24 112c87 41 175 61 262 61c153 0 255 -66 255 -194c0 -81 -43 -157 -107 -205h201zM335 409c-37 0 -76 -9 -118 -27l111 -210c72 29 122 83 122 146c0 57 -43 91 -115 91z" />
    <glyph glyph-name="uniFECB" unicode="&#x639;" horiz-adv-x="666" arabic-form="initial" 
d="M412 150h199v-150h-611c-11 0 -16 1 -16 2v148h172c-41 43 -64 99 -64 163c0 143 116 236 267 236c83 0 158 -29 211 -80l-96 -99c-25 27 -63 43 -107 43c-77 0 -129 -49 -129 -125c0 -84 65 -138 174 -138z" />
    <glyph glyph-name="uniFECE" unicode="&#x63a;" horiz-adv-x="767" arabic-form="final" 
d="M783 150v-148c0 -1 -5 -2 -16 -2h-469c-75 0 -119 -34 -119 -91c0 -59 44 -93 120 -93h151v-150h-118c-197 0 -302 88 -302 235c0 124 85 204 234 231l-159 246l24 111c87 41 175 61 262 61c153 0 255 -65 255 -193c0 -83 -43 -160 -110 -207h247zM386 410
c-37 0 -76 -9 -117 -27l110 -209c71 28 122 84 122 145c0 57 -43 91 -115 91zM327 705c0 45 36 80 81 80c44 0 79 -35 79 -80c0 -44 -35 -80 -79 -80c-45 0 -81 36 -81 80z" />
    <glyph glyph-name="uniFED0" unicode="&#x63a;" horiz-adv-x="681" arabic-form="medial" 
d="M689 150v-150h-697v150h208l-146 226l24 112c87 41 175 61 262 61c153 0 255 -66 255 -194c0 -81 -43 -157 -107 -205h201zM335 409c-37 0 -76 -9 -118 -27l111 -210c72 29 122 83 122 146c0 57 -43 91 -115 91zM257 705c0 45 36 80 81 80c44 0 79 -35 79 -80
c0 -44 -35 -80 -79 -80c-45 0 -81 36 -81 80z" />
    <glyph glyph-name="uniFECF" unicode="&#x63a;" horiz-adv-x="666" arabic-form="initial" 
d="M412 150h199v-150h-611c-11 0 -16 1 -16 2v148h172c-41 43 -64 99 -64 163c0 143 116 236 267 236c83 0 158 -29 211 -80l-96 -99c-25 27 -63 43 -107 43c-77 0 -129 -49 -129 -125c0 -84 65 -138 174 -138zM275 705c0 45 36 80 81 80c44 0 79 -35 79 -80
c0 -44 -35 -80 -79 -80c-45 0 -81 36 -81 80z" />
    <glyph glyph-name="uniFED2" unicode="&#x641;" horiz-adv-x="1320" arabic-form="final" 
d="M1336 150v-148c0 -1 -5 -2 -16 -2h-951c-192 0 -299 70 -299 249c0 54 10 114 31 179l131 -23c-13 -43 -20 -81 -20 -113c0 -97 56 -142 165 -142h433c-73 42 -110 104 -110 187c0 139 113 221 263 221c75 0 148 -19 220 -58v-350h153zM844 317c0 -81 76 -130 197 -143
v227c-26 12 -54 18 -84 18c-69 0 -113 -39 -113 -102zM881 712c0 45 36 80 81 80c44 0 79 -35 79 -80c0 -44 -35 -80 -79 -80c-45 0 -81 36 -81 80z" />
    <glyph glyph-name="uniFED4" unicode="&#x641;" horiz-adv-x="702" arabic-form="medial" 
d="M518 150h184v-150h-702v150h184c-59 51 -89 113 -89 185c0 135 106 226 256 226c152 0 256 -90 256 -226c0 -72 -30 -134 -89 -185zM239 313c0 -65 50 -117 113 -142c61 25 111 77 111 142s-46 109 -111 109c-67 0 -113 -44 -113 -109zM270 715c0 45 36 80 81 80
c44 0 79 -35 79 -80c0 -44 -35 -80 -79 -80c-45 0 -81 36 -81 80z" />
    <glyph glyph-name="uniFED3" unicode="&#x641;" horiz-adv-x="659" arabic-form="initial" 
d="M579 500v-434c-69 -39 -193 -66 -337 -66h-242c-11 0 -16 1 -16 2v148h230c-79 41 -118 104 -118 187c0 140 114 221 262 221c75 0 149 -19 221 -58zM239 318c0 -83 77 -129 197 -138v221c-26 12 -54 18 -83 18c-69 0 -114 -38 -114 -101zM275 712c0 45 36 80 81 80
c44 0 79 -35 79 -80c0 -44 -35 -80 -79 -80c-45 0 -81 36 -81 80z" />
    <glyph glyph-name="uniFB6B" unicode="&#x6a4;" horiz-adv-x="1320" arabic-form="final" 
d="M1336 150v-148c0 -1 -5 -2 -16 -2h-951c-192 0 -299 70 -299 249c0 54 10 114 31 179l131 -23c-13 -43 -20 -81 -20 -113c0 -97 56 -142 165 -142h433c-73 42 -110 104 -110 187c0 139 113 221 263 221c75 0 148 -19 220 -58v-350h153zM844 317c0 -81 76 -130 197 -143
v227c-26 12 -54 18 -84 18c-69 0 -113 -39 -113 -102zM892 848c0 40 31 71 70 71s69 -31 69 -71c0 -39 -30 -70 -69 -70s-70 31 -70 70zM801 702c0 39 31 70 71 70c39 0 69 -31 69 -70s-30 -70 -69 -70c-40 0 -71 31 -71 70zM983 702c0 40 31 70 71 70c39 0 69 -30 69 -70
c0 -39 -30 -70 -69 -70s-71 31 -71 70z" />
    <glyph glyph-name="uniFB6D" unicode="&#x6a4;" horiz-adv-x="702" arabic-form="medial" 
d="M518 150h184v-150h-702v150h184c-59 51 -89 113 -89 185c0 135 106 226 256 226c152 0 256 -90 256 -226c0 -72 -30 -134 -89 -185zM239 313c0 -65 50 -117 113 -142c61 25 111 77 111 142s-46 109 -111 109c-67 0 -113 -44 -113 -109zM281 851c0 40 31 71 70 71
s69 -31 69 -71c0 -39 -30 -70 -69 -70s-70 31 -70 70zM190 705c0 39 31 70 71 70c39 0 69 -31 69 -70s-30 -70 -69 -70c-40 0 -71 31 -71 70zM372 705c0 40 31 70 71 70c39 0 69 -30 69 -70c0 -39 -30 -70 -69 -70s-71 31 -71 70z" />
    <glyph glyph-name="uniFB6C" unicode="&#x6a4;" horiz-adv-x="659" arabic-form="initial" 
d="M579 500v-434c-69 -39 -193 -66 -337 -66h-242c-11 0 -16 1 -16 2v148h230c-79 41 -118 104 -118 187c0 140 114 221 262 221c75 0 149 -19 221 -58zM239 318c0 -83 77 -129 197 -138v221c-26 12 -54 18 -83 18c-69 0 -114 -38 -114 -101zM286 848c0 40 31 71 70 71
s69 -31 69 -71c0 -39 -30 -70 -69 -70s-70 31 -70 70zM195 702c0 39 31 70 71 70c39 0 69 -31 69 -70s-30 -70 -69 -70c-40 0 -71 31 -71 70zM377 702c0 40 31 70 71 70c39 0 69 -30 69 -70c0 -39 -30 -70 -69 -70s-71 31 -71 70z" />
    <glyph glyph-name="uni06A1.init" unicode="&#x6a1;" horiz-adv-x="659" 
d="M579 500v-434c-69 -39 -193 -66 -337 -66h-242c-11 0 -16 1 -16 2v148h230c-79 41 -118 104 -118 187c0 140 114 221 262 221c75 0 149 -19 221 -58zM239 318c0 -83 77 -129 197 -138v221c-26 12 -54 18 -83 18c-69 0 -114 -38 -114 -101z" />
    <glyph glyph-name="uni06A1.medi" unicode="&#x6a1;" horiz-adv-x="702" 
d="M518 150h184v-150h-702v150h184c-59 51 -89 113 -89 185c0 135 106 226 256 226c152 0 256 -90 256 -226c0 -72 -30 -134 -89 -185zM239 313c0 -65 50 -117 113 -142c61 25 111 77 111 142s-46 109 -111 109c-67 0 -113 -44 -113 -109z" />
    <glyph glyph-name="uni06A1.fina" unicode="&#x6a1;" horiz-adv-x="1320" 
d="M1336 150v-148c0 -1 -5 -2 -16 -2h-951c-192 0 -299 70 -299 249c0 54 10 114 31 179l131 -23c-13 -43 -20 -81 -20 -113c0 -97 56 -142 165 -142h433c-73 42 -110 104 -110 187c0 139 113 221 263 221c75 0 148 -19 220 -58v-350h153zM844 317c0 -81 76 -130 197 -143
v227c-26 12 -54 18 -84 18c-69 0 -113 -39 -113 -102z" />
    <glyph glyph-name="uni066F.fina" unicode="&#x66f;" horiz-adv-x="957" 
d="M973 150v-148c0 -2 -5 -3 -16 -3h-136v-158c-43 -30 -98 -55 -165 -74c-66 -19 -135 -29 -208 -29c-241 0 -380 131 -380 331c0 49 7 100 22 151l129 -25c-9 -32 -13 -64 -13 -96c0 -141 92 -212 259 -212c69 0 140 12 214 37v81h-64c-189 0 -295 93 -295 241
c0 150 104 252 277 252c76 0 151 -18 224 -54v-294h152zM591 150h88v194c-29 13 -59 20 -91 20c-75 0 -125 -39 -125 -108c0 -67 51 -106 128 -106z" />
    <glyph glyph-name="uniFED6" unicode="&#x642;" horiz-adv-x="957" arabic-form="final" 
d="M973 150v-148c0 -2 -5 -3 -16 -3h-136v-158c-43 -30 -98 -55 -165 -74c-66 -19 -135 -29 -208 -29c-241 0 -380 131 -380 331c0 49 7 100 22 151l129 -25c-9 -32 -13 -64 -13 -96c0 -141 92 -212 259 -212c69 0 140 12 214 37v81h-64c-189 0 -295 93 -295 241
c0 150 104 252 277 252c76 0 151 -18 224 -54v-294h152zM591 150h88v194c-29 13 -59 20 -91 20c-75 0 -125 -39 -125 -108c0 -67 51 -106 128 -106zM419 652c0 44 35 79 80 79c43 0 78 -35 78 -79s-35 -80 -78 -80c-45 0 -80 36 -80 80zM619 652c0 44 35 79 80 79
c44 0 79 -35 79 -79s-35 -80 -79 -80c-45 0 -80 36 -80 80z" />
    <glyph glyph-name="uniFED8" unicode="&#x642;" horiz-adv-x="702" arabic-form="medial" 
d="M518 150h184v-150h-702v150h184c-59 51 -89 113 -89 185c0 135 106 226 256 226c152 0 256 -90 256 -226c0 -72 -30 -134 -89 -185zM239 313c0 -65 50 -117 113 -142c61 25 111 77 111 142s-46 109 -111 109c-67 0 -113 -44 -113 -109zM172 715c0 44 35 79 80 79
c43 0 78 -35 78 -79s-35 -80 -78 -80c-45 0 -80 36 -80 80zM372 715c0 44 35 79 80 79c44 0 79 -35 79 -79s-35 -80 -79 -80c-45 0 -80 36 -80 80z" />
    <glyph glyph-name="uniFED7" unicode="&#x642;" horiz-adv-x="659" arabic-form="initial" 
d="M579 500v-434c-69 -39 -193 -66 -337 -66h-242c-11 0 -16 1 -16 2v148h230c-79 41 -118 104 -118 187c0 140 114 221 262 221c75 0 149 -19 221 -58zM239 318c0 -83 77 -129 197 -138v221c-26 12 -54 18 -83 18c-69 0 -114 -38 -114 -101zM177 712c0 44 35 79 80 79
c43 0 78 -35 78 -79s-35 -80 -78 -80c-45 0 -80 36 -80 80zM377 712c0 44 35 79 80 79c44 0 79 -35 79 -79s-35 -80 -79 -80c-45 0 -80 36 -80 80z" />
    <glyph glyph-name="uniFEDA" unicode="&#x643;" horiz-adv-x="1168" arabic-form="final" 
d="M1168 150h16v-148c0 -1 -5 -2 -16 -2h-1c-79 0 -152 21 -209 56c-68 -37 -157 -56 -268 -56h-321c-192 0 -299 70 -299 249c0 54 10 114 31 179l131 -23c-13 -43 -20 -81 -20 -113c0 -97 56 -142 165 -142h339c75 0 138 12 170 31v549h142v-553c37 -18 84 -27 140 -27z
M654 440v-85h-216v85h48c-15 17 -22 36 -22 59c0 52 39 92 96 92c35 0 66 -16 86 -36l-48 -50c-8 8 -18 12 -30 12c-21 0 -35 -15 -35 -35c0 -24 20 -42 60 -42h61z" />
    <glyph glyph-name="uniFEDC" unicode="&#x643;" horiz-adv-x="639" arabic-form="medial" 
d="M639 150h16v-148c0 -1 -5 -2 -16 -2h-1c-59 0 -114 14 -165 41c-77 -27 -174 -41 -259 -41h-214c-11 0 -16 1 -16 2v148h245c67 0 130 14 167 31v31c-4 72 -27 87 -175 128l-128 35l-30 112l364 276l72 -91l-264 -198l58 -16c181 -54 240 -89 246 -242v-43
c25 -15 63 -23 100 -23z" />
    <glyph glyph-name="uniFEDB" unicode="&#x643;" horiz-adv-x="611" arabic-form="initial" 
d="M539 216v-146c-40 -23 -90 -40 -150 -52c-59 -12 -118 -18 -175 -18h-214c-11 0 -16 1 -16 2v148h245c67 0 130 14 167 31v31c-5 72 -26 85 -175 128l-128 35l-30 112l364 276l72 -91l-264 -198l58 -16c181 -54 240 -89 246 -242z" />
    <glyph glyph-name="uniFB8F" unicode="&#x6a9;" horiz-adv-x="1150" arabic-form="final" 
d="M1150 150h16v-148c0 -1 -5 -2 -16 -2h-1c-59 0 -113 13 -163 40c-76 -27 -173 -40 -261 -40h-356c-192 0 -299 70 -299 249c0 54 10 114 31 179l131 -23c-13 -43 -20 -81 -20 -113c0 -97 56 -142 165 -142h363c68 0 131 12 167 29v31c-4 71 -31 86 -160 124l-143 39
l-30 112l364 276l72 -91l-264 -198l73 -21c175 -51 227 -94 231 -239v-40c23 -15 56 -22 100 -22z" />
    <glyph glyph-name="uniFB91" unicode="&#x6a9;" horiz-adv-x="639" arabic-form="medial" 
d="M639 150h16v-148c0 -1 -5 -2 -16 -2h-1c-59 0 -114 14 -165 41c-77 -27 -174 -41 -259 -41h-214c-11 0 -16 1 -16 2v148h245c67 0 130 14 167 31v31c-4 72 -27 87 -175 128l-128 35l-30 112l364 276l72 -91l-264 -198l58 -16c181 -54 240 -89 246 -242v-43
c25 -15 63 -23 100 -23z" />
    <glyph glyph-name="uniFB90" unicode="&#x6a9;" horiz-adv-x="611" arabic-form="initial" 
d="M539 216v-146c-40 -23 -90 -40 -150 -52c-59 -12 -118 -18 -175 -18h-214c-11 0 -16 1 -16 2v148h245c67 0 130 14 167 31v31c-5 72 -26 85 -175 128l-128 35l-30 112l364 276l72 -91l-264 -198l58 -16c181 -54 240 -89 246 -242z" />
    <glyph glyph-name="uniFB93" unicode="&#x6af;" horiz-adv-x="1150" arabic-form="final" 
d="M868 772l-309 -232l-17 64l288 217zM1150 150h16v-148c0 -1 -5 -2 -16 -2h-1c-58 0 -112 13 -162 40c-77 -27 -175 -40 -262 -40h-356c-192 0 -299 70 -299 249c0 54 10 114 31 179l131 -23c-13 -43 -20 -81 -20 -113c0 -97 56 -142 165 -142h363c68 0 131 12 167 29v31
c-4 71 -31 86 -160 124l-143 39l-30 112l364 276l72 -91l-264 -198l73 -21c175 -51 227 -94 231 -239v-41c27 -14 61 -21 100 -21z" />
    <glyph glyph-name="uniFB95" unicode="&#x6af;" horiz-adv-x="639" arabic-form="medial" 
d="M357 772l-308 -232l-18 64l288 217zM639 150h16v-148c0 -1 -5 -2 -16 -2h-1c-59 0 -114 14 -165 41c-77 -27 -174 -41 -259 -41h-214c-11 0 -16 1 -16 2v148h245c67 0 130 14 167 31v31c-4 72 -27 87 -175 128l-128 35l-30 112l364 276l72 -91l-264 -198l58 -16
c181 -54 240 -89 246 -242v-43c25 -15 63 -23 100 -23z" />
    <glyph glyph-name="uniFB94" unicode="&#x6af;" horiz-adv-x="611" arabic-form="initial" 
d="M357 772l-308 -232l-18 64l288 217zM539 216v-146c-40 -23 -90 -40 -150 -52c-59 -12 -118 -18 -175 -18h-214c-11 0 -16 1 -16 2v148h245c67 0 130 14 167 31v31c-5 72 -26 85 -175 128l-128 35l-30 112l364 276l72 -91l-264 -198l58 -16c181 -54 240 -89 246 -242z" />
    <glyph glyph-name="uniFEDE" unicode="&#x644;" horiz-adv-x="903" arabic-form="final" 
d="M903 150h16v-148c0 -1 -5 -2 -16 -2h-1c-49 0 -95 8 -140 24v-187c-39 -25 -90 -48 -151 -68c-61 -21 -125 -31 -192 -31c-219 0 -351 124 -351 332c0 50 7 101 21 153l130 -24c-9 -33 -13 -66 -13 -99c0 -143 80 -213 227 -213c63 0 125 13 187 39v804h142v-236h1v-317
c35 -17 87 -27 140 -27z" />
    <glyph glyph-name="uniFEE0" unicode="&#x644;" horiz-adv-x="422" arabic-form="medial" 
d="M422 150h16v-148c0 -1 -5 -2 -16 -2h-1c-76 0 -146 19 -210 56c-64 -37 -134 -56 -210 -56h-1c-11 0 -16 1 -16 2v148h16c57 0 103 9 140 27v553h142v-553c37 -18 83 -27 140 -27z" />
    <glyph glyph-name="uniFEDF" unicode="&#x644;" horiz-adv-x="370" arabic-form="initial" 
d="M140 730h142v-613c-57 -67 -162 -117 -281 -117h-1c-11 0 -16 1 -16 2v148h16c51 0 104 10 140 27v553z" />
    <glyph glyph-name="uniFEE2" unicode="&#x645;" horiz-adv-x="800" arabic-form="final" 
d="M800 150h16v-148c0 -1 -5 -2 -16 -2h-1c-61 0 -116 13 -167 39c-47 -56 -118 -89 -199 -89c-47 0 -90 11 -127 32c-29 16 -54 37 -74 63c-43 0 -65 -21 -65 -63c0 -94 8 -202 23 -323h-139c-15 124 -23 233 -23 327c0 113 55 160 156 160c-5 19 -7 40 -7 64
c0 149 109 260 256 260c149 0 257 -110 257 -260c0 -13 -1 -27 -3 -41c33 -13 71 -19 113 -19zM547 210c0 69 -44 120 -115 120c-68 0 -113 -51 -113 -120s45 -120 113 -120c71 0 115 51 115 120z" />
    <glyph glyph-name="uniFEE4" unicode="&#x645;" horiz-adv-x="735" arabic-form="medial" 
d="M735 150h16v-148c0 -1 -5 -2 -16 -2h-1c-63 0 -118 13 -167 40c-47 -57 -119 -90 -200 -90s-152 33 -199 90c-49 -27 -104 -40 -167 -40h-1c-11 0 -16 1 -16 2v148h16c45 0 83 6 114 19c-2 13 -3 27 -3 41c0 149 109 260 256 260c149 0 257 -110 257 -260
c0 -14 -1 -28 -3 -41c31 -13 69 -19 114 -19zM481 210c0 69 -44 120 -115 120c-68 0 -113 -51 -113 -120s45 -120 113 -120c71 0 115 51 115 120z" />
    <glyph glyph-name="uniFEE3" unicode="&#x645;" horiz-adv-x="682" arabic-form="initial" 
d="M630 210c0 -150 -108 -260 -257 -260c-81 0 -152 33 -199 90c-52 -27 -110 -40 -173 -40h-1c-11 0 -16 1 -16 2v148h16c47 0 87 7 120 20c-2 13 -3 27 -3 40c0 149 109 260 256 260c149 0 257 -110 257 -260zM487 210c0 69 -44 120 -115 120c-68 0 -113 -51 -113 -120
s45 -120 113 -120c71 0 115 51 115 120z" />
    <glyph glyph-name="uniFEE6" unicode="&#x646;" horiz-adv-x="895" arabic-form="final" 
d="M900 150h16v-148c0 -1 -5 -2 -16 -2h-1c-53 0 -100 10 -143 30v-197c-111 -63 -223 -95 -337 -95c-219 0 -351 129 -351 331c0 49 7 99 21 152l130 -25c-9 -32 -13 -65 -13 -98c0 -136 82 -211 231 -211c64 0 126 13 187 39v461h136v-185c0 -17 8 -28 25 -33
c32 -13 70 -19 115 -19zM315 410c0 45 36 80 81 80c44 0 79 -35 79 -80c0 -44 -35 -80 -79 -80c-45 0 -81 36 -81 80z" />
    <glyph glyph-name="uniFEE8" unicode="&#x646;" horiz-adv-x="422" arabic-form="medial" 
d="M422 150h16v-148c0 -1 -5 -2 -16 -2h-1c-76 0 -146 19 -210 56c-64 -37 -134 -56 -210 -56h-1c-11 0 -16 1 -16 2v148h16c57 0 103 9 140 27v331h142v-331c37 -18 83 -27 140 -27zM132 671c0 45 36 80 81 80c44 0 79 -35 79 -80c0 -44 -35 -80 -79 -80
c-45 0 -81 36 -81 80z" />
    <glyph glyph-name="uniFEE7" unicode="&#x646;" horiz-adv-x="362" arabic-form="initial" 
d="M282 508v-422c-56 -49 -164 -86 -281 -86h-1c-11 0 -16 1 -16 2v148h16c53 0 108 9 140 22v336h142zM128 671c0 45 36 80 81 80c44 0 79 -35 79 -80c0 -44 -35 -80 -79 -80c-45 0 -81 36 -81 80z" />
    <glyph glyph-name="uniFB9F" unicode="&#x6ba;" horiz-adv-x="900" arabic-form="final" 
d="M900 150h16v-148c0 -1 -5 -2 -16 -2h-1c-53 0 -100 10 -143 30v-197c-111 -63 -223 -95 -337 -95c-219 0 -351 129 -351 331c0 49 7 99 21 152l130 -25c-9 -32 -13 -65 -13 -98c0 -136 82 -211 231 -211c64 0 126 13 187 39v461h136v-185c0 -17 8 -28 25 -33
c32 -13 70 -19 115 -19z" />
    <glyph glyph-name="uniFEEA" unicode="&#x647;" horiz-adv-x="690" arabic-form="final" 
d="M706 150v-148c0 -1 -5 -2 -16 -2h-341c-183 0 -296 104 -296 254c0 155 105 256 276 256c87 0 172 -26 223 -54v-306h154zM324 150h86v205c-27 13 -57 20 -92 20c-72 0 -123 -39 -123 -114c0 -72 50 -111 129 -111z" />
    <glyph glyph-name="uniFEEC" unicode="&#x647;" horiz-adv-x="865" arabic-form="medial" 
d="M881 150v-148c0 -1 -5 -2 -16 -2h-865c-11 0 -16 1 -16 2v148h156c-31 35 -47 78 -47 129c0 119 96 192 210 192c118 0 211 -74 211 -192c0 -51 -16 -95 -47 -130l140 -1v110c0 101 -27 174 -82 220c-54 46 -125 69 -212 69c-44 0 -86 -4 -125 -13v132c41 7 84 10 129 10
c133 0 238 -35 316 -104s117 -177 117 -322v-100h131zM220 256c0 -57 29 -96 84 -105c55 9 83 48 83 105c0 55 -34 90 -83 90s-84 -35 -84 -90z" />
    <glyph glyph-name="uniFEEB" unicode="&#x647;" horiz-adv-x="817" arabic-form="initial" 
d="M750 250v-250h-750c-11 0 -16 1 -16 2v148h156c-31 35 -47 78 -47 129c0 119 96 192 210 192c118 0 211 -74 211 -192c0 -51 -16 -95 -47 -130l140 -1v110c0 101 -27 174 -82 220c-54 46 -125 69 -212 69c-44 0 -86 -4 -125 -13v132c41 7 84 10 129 10
c133 0 238 -35 316 -104s117 -177 117 -322zM220 256c0 -57 29 -96 84 -105c55 9 83 48 83 105c0 55 -34 90 -83 90s-84 -35 -84 -90z" />
    <glyph glyph-name="uniFBA7" unicode="&#x6c1;" horiz-adv-x="636" arabic-form="final" 
d="M636 150h16v-148c0 -1 -5 -2 -16 -2c-141 5 -163 24 -259 198l-36 70c-32 -3 -50 -21 -75 -86l-71 -182l-135 45l89 225c21 55 46 92 74 112s65 30 110 30h87l110 -206c31 -44 58 -56 106 -56z" />
    <glyph glyph-name="uniFBA9" unicode="&#x6c1;" horiz-adv-x="694" arabic-form="medial" 
d="M710 150v-148c0 -1 -5 -2 -16 -2h-25c-73 0 -97 -32 -97 -96v-218h-86c-211 0 -341 139 -351 338c-43 -16 -87 -24 -134 -24h-1c-11 0 -16 1 -16 2v148h16c55 0 99 9 134 28v132h142v-230c0 -140 42 -220 153 -239v97c0 127 76 212 213 212h68z" />
    <glyph glyph-name="uniFBA8" unicode="&#x6c1;" horiz-adv-x="362" arabic-form="initial" 
d="M140 492h142v-395c-56 -57 -158 -97 -281 -97h-1c-11 0 -16 1 -16 2v148h16c51 0 104 10 140 26v316zM243 -135h12l-8 -86h-14c-75 0 -122 36 -122 97c0 44 25 86 80 110l18 -24c-19 -17 -29 -35 -29 -54c0 -28 22 -43 63 -43z" />
    <glyph glyph-name="uni06C2.fina" unicode="&#x6c2;" horiz-adv-x="636" 
d="M636 150h16v-148c0 -1 -5 -2 -16 -2c-141 5 -163 24 -259 198l-36 70c-32 -3 -50 -21 -75 -86l-71 -182l-135 45l89 225c21 55 46 92 74 112s65 30 110 30h87l110 -206c31 -44 58 -56 106 -56zM376 576h61v-86h-217v86h48c-15 17 -22 36 -22 59c0 51 38 91 97 91
c35 0 66 -16 86 -36l-48 -49c-7 7 -17 11 -30 11c-21 0 -35 -14 -35 -35c0 -24 20 -41 60 -41z" />
    <glyph glyph-name="uniFBAB" unicode="&#x6be;" horiz-adv-x="934" arabic-form="final" 
d="M950 150v-148c0 -1 -5 -2 -16 -2h-873c-11 0 -16 1 -16 2v148h155c-31 35 -46 78 -46 129c0 121 93 192 210 192c118 0 211 -74 211 -192c0 -51 -16 -95 -47 -130l140 -1v110c0 101 -27 174 -82 220c-54 46 -125 69 -212 69c-44 0 -86 -4 -125 -13v132c40 7 83 10 129 10
c132 0 237 -35 315 -104s117 -177 117 -322v-100h140zM281 256c0 -57 28 -96 83 -105c55 9 83 48 83 105c0 55 -34 90 -83 90s-83 -35 -83 -90z" />
    <glyph glyph-name="uniFBAD" unicode="&#x6be;" horiz-adv-x="865" arabic-form="medial" 
d="M881 150v-148c0 -1 -5 -2 -16 -2h-865c-11 0 -16 1 -16 2v148h156c-31 35 -47 78 -47 129c0 119 96 192 210 192c118 0 211 -74 211 -192c0 -51 -16 -95 -47 -130l140 -1v110c0 101 -27 174 -82 220c-54 46 -125 69 -212 69c-44 0 -86 -4 -125 -13v132c41 7 84 10 129 10
c133 0 238 -35 316 -104s117 -177 117 -322v-100h131zM220 256c0 -57 29 -96 84 -105c55 9 83 48 83 105c0 55 -34 90 -83 90s-84 -35 -84 -90z" />
    <glyph glyph-name="uniFBAC" unicode="&#x6be;" horiz-adv-x="817" arabic-form="initial" 
d="M750 250v-250h-750c-11 0 -16 1 -16 2v148h156c-31 35 -47 78 -47 129c0 119 96 192 210 192c118 0 211 -74 211 -192c0 -51 -16 -95 -47 -130l140 -1v110c0 101 -27 174 -82 220c-54 46 -125 69 -212 69c-44 0 -86 -4 -125 -13v132c41 7 84 10 129 10
c133 0 238 -35 316 -104s117 -177 117 -322zM220 256c0 -57 29 -96 84 -105c55 9 83 48 83 105c0 55 -34 90 -83 90s-84 -35 -84 -90z" />
    <glyph glyph-name="uniFE94" unicode="&#x629;" horiz-adv-x="690" arabic-form="final" 
d="M706 150v-148c0 -1 -5 -2 -16 -2h-341c-183 0 -296 104 -296 254c0 155 105 256 276 256c87 0 172 -26 223 -54v-306h154zM324 150h86v205c-27 13 -57 20 -92 20c-72 0 -123 -39 -123 -114c0 -72 50 -111 129 -111zM150 665c0 44 35 79 80 79c43 0 78 -35 78 -79
s-35 -80 -78 -80c-45 0 -80 36 -80 80zM350 665c0 44 35 79 80 79c44 0 79 -35 79 -79s-35 -80 -79 -80c-45 0 -80 36 -80 80z" />
    <glyph glyph-name="uni06C3.fina" unicode="&#x6c3;" horiz-adv-x="636" 
d="M636 150h16v-148c0 -1 -5 -2 -16 -2c-141 5 -163 24 -259 198l-36 70c-32 -3 -50 -21 -75 -86l-71 -182l-135 45l89 225c21 55 46 92 74 112s65 30 110 30h87l110 -206c31 -44 58 -56 106 -56zM150 565c0 44 35 79 80 79c43 0 78 -35 78 -79s-35 -80 -78 -80
c-45 0 -80 36 -80 80zM350 565c0 44 35 79 80 79c44 0 79 -35 79 -79s-35 -80 -79 -80c-45 0 -80 36 -80 80z" />
    <glyph glyph-name="uniFEEE" unicode="&#x648;" horiz-adv-x="693" arabic-form="final" 
d="M709 150v-148c0 -1 -5 -2 -16 -2h-140c-15 -183 -128 -262 -301 -262c-62 0 -123 9 -182 28l25 136c44 -13 104 -26 161 -26c107 0 151 41 155 124h-64c-190 0 -294 102 -294 246c0 150 105 252 276 252c75 0 150 -18 225 -54v-294h155zM324 150h87v194
c-29 13 -59 20 -90 20c-73 0 -125 -38 -125 -107c0 -68 51 -107 128 -107z" />
    <glyph glyph-name="uniFE86" unicode="&#x624;" horiz-adv-x="693" arabic-form="final" 
d="M709 150v-148c0 -1 -5 -2 -16 -2h-140c-15 -183 -128 -262 -301 -262c-62 0 -123 9 -182 28l25 136c44 -13 104 -26 161 -26c107 0 151 41 155 124h-64c-190 0 -294 102 -294 246c0 150 105 252 276 252c75 0 150 -18 225 -54v-294h155zM324 150h87v194
c-29 13 -59 20 -90 20c-73 0 -125 -38 -125 -107c0 -68 51 -107 128 -107zM376 661h61v-86h-217v86h48c-15 17 -22 36 -22 59c0 51 38 91 97 91c35 0 66 -16 86 -36l-48 -49c-7 7 -17 11 -30 11c-21 0 -35 -14 -35 -35c0 -24 20 -41 60 -41z" />
    <glyph glyph-name="uniFEF0" unicode="&#x649;" horiz-adv-x="1166" arabic-form="final" 
d="M1166 150h16v-148c0 -1 -5 -2 -16 -2c-157 0 -218 37 -258 170l-34 117h-94c-45 0 -72 -20 -72 -56c0 -7 2 -17 5 -29l103 -349c-45 -28 -104 -54 -177 -78c-72 -25 -143 -37 -214 -37c-221 0 -357 127 -357 330c0 49 7 100 21 152l130 -24c-9 -32 -13 -64 -13 -97
c0 -137 83 -212 232 -212c35 0 74 4 115 12s75 17 101 28l-80 261c-8 27 -12 53 -12 76c0 101 78 162 187 162h228l54 -190c20 -66 42 -86 135 -86z" />
    <glyph glyph-name="uniFEF2" unicode="&#x64a;" horiz-adv-x="1166" arabic-form="final" 
d="M1166 150h16v-148c0 -1 -5 -2 -16 -2c-157 0 -218 37 -258 170l-34 117h-94c-45 0 -72 -20 -72 -56c0 -7 2 -17 5 -29l103 -349c-45 -28 -104 -54 -177 -78c-72 -25 -143 -37 -214 -37c-221 0 -357 127 -357 330c0 49 7 100 21 152l130 -24c-9 -32 -13 -64 -13 -97
c0 -137 83 -212 232 -212c35 0 74 4 115 12s75 17 101 28l-80 261c-8 27 -12 53 -12 76c0 101 78 162 187 162h228l54 -190c20 -66 42 -86 135 -86zM237 -420c0 44 35 79 80 79c43 0 78 -35 78 -79s-35 -80 -78 -80c-45 0 -80 36 -80 80zM437 -420c0 44 35 79 80 79
c44 0 79 -35 79 -79s-35 -80 -79 -80c-45 0 -80 36 -80 80z" />
    <glyph glyph-name="uniFEF4" unicode="&#x64a;" horiz-adv-x="422" arabic-form="medial" 
d="M422 150h16v-148c0 -1 -5 -2 -16 -2h-1c-76 0 -146 19 -210 56c-64 -37 -134 -56 -210 -56h-1c-11 0 -16 1 -16 2v148h16c57 0 103 9 140 27v331h142v-331c37 -18 83 -27 140 -27zM34 -144c0 44 35 79 80 79c43 0 78 -35 78 -79s-35 -80 -78 -80c-45 0 -80 36 -80 80z
M234 -144c0 44 35 79 80 79c44 0 79 -35 79 -79s-35 -80 -79 -80c-45 0 -80 36 -80 80z" />
    <glyph glyph-name="uniFEF3" unicode="&#x64a;" horiz-adv-x="362" arabic-form="initial" 
d="M282 508v-422c-56 -49 -164 -86 -281 -86h-1c-11 0 -16 1 -16 2v148h16c53 0 108 9 140 22v336h142zM-4 -144c0 44 35 79 80 79c43 0 78 -35 78 -79s-35 -80 -78 -80c-45 0 -80 36 -80 80zM196 -144c0 44 35 79 80 79c44 0 79 -35 79 -79s-35 -80 -79 -80
c-45 0 -80 36 -80 80z" />
    <glyph glyph-name="uniFE8A" unicode="&#x626;" horiz-adv-x="1166" arabic-form="final" 
d="M1166 150h16v-148c0 -1 -5 -2 -16 -2c-157 0 -218 37 -258 170l-34 117h-94c-45 0 -72 -20 -72 -56c0 -7 2 -17 5 -29l103 -349c-45 -28 -104 -54 -177 -78c-72 -25 -143 -37 -214 -37c-221 0 -357 127 -357 330c0 49 7 100 21 152l130 -24c-9 -32 -13 -64 -13 -97
c0 -137 83 -212 232 -212c35 0 74 4 115 12s75 17 101 28l-80 261c-8 27 -12 53 -12 76c0 101 78 162 187 162h228l54 -190c20 -66 42 -86 135 -86zM243 395h61v-86h-217v86h48c-15 17 -22 36 -22 59c0 51 38 91 97 91c35 0 66 -16 86 -36l-48 -49c-7 7 -17 11 -30 11
c-21 0 -35 -14 -35 -35c0 -24 20 -41 60 -41z" />
    <glyph glyph-name="uniFE8C" unicode="&#x626;" horiz-adv-x="422" arabic-form="medial" 
d="M422 150h16v-148c0 -1 -5 -2 -16 -2h-1c-76 0 -146 19 -210 56c-64 -37 -134 -56 -210 -56h-1c-11 0 -16 1 -16 2v148h16c57 0 103 9 140 27v331h142v-331c37 -18 83 -27 140 -27zM260 682h61v-86h-217v86h48c-15 17 -22 36 -22 59c0 51 38 91 97 91c35 0 66 -16 86 -36
l-48 -49c-7 7 -17 11 -30 11c-21 0 -35 -14 -35 -35c0 -24 20 -41 60 -41z" />
    <glyph glyph-name="uniFE8B" unicode="&#x626;" horiz-adv-x="362" arabic-form="initial" 
d="M282 508v-422c-56 -49 -164 -86 -281 -86h-1c-11 0 -16 1 -16 2v148h16c53 0 108 9 140 22v336h142zM256 682h61v-86h-217v86h48c-15 17 -22 36 -22 59c0 51 38 91 97 91c35 0 66 -16 86 -36l-48 -49c-7 7 -17 11 -30 11c-21 0 -35 -14 -35 -35c0 -24 20 -41 60 -41z" />
    <glyph glyph-name="uniFBFD" unicode="&#x6cc;" horiz-adv-x="1166" arabic-form="final" 
d="M1166 150h16v-148c0 -1 -5 -2 -16 -2c-157 0 -218 37 -258 170l-34 117h-94c-45 0 -72 -20 -72 -56c0 -7 2 -17 5 -29l103 -349c-45 -28 -104 -54 -177 -78c-72 -25 -143 -37 -214 -37c-221 0 -357 127 -357 330c0 49 7 100 21 152l130 -24c-9 -32 -13 -64 -13 -97
c0 -137 83 -212 232 -212c35 0 74 4 115 12s75 17 101 28l-80 261c-8 27 -12 53 -12 76c0 101 78 162 187 162h228l54 -190c20 -66 42 -86 135 -86z" />
    <glyph glyph-name="uniFBFF" unicode="&#x6cc;" horiz-adv-x="422" arabic-form="medial" 
d="M422 150h16v-148c0 -1 -5 -2 -16 -2h-1c-76 0 -146 19 -210 56c-64 -37 -134 -56 -210 -56h-1c-11 0 -16 1 -16 2v148h16c57 0 103 9 140 27v331h142v-331c37 -18 83 -27 140 -27zM34 -144c0 44 35 79 80 79c43 0 78 -35 78 -79s-35 -80 -78 -80c-45 0 -80 36 -80 80z
M234 -144c0 44 35 79 80 79c44 0 79 -35 79 -79s-35 -80 -79 -80c-45 0 -80 36 -80 80z" />
    <glyph glyph-name="uniFBFE" unicode="&#x6cc;" horiz-adv-x="362" arabic-form="initial" 
d="M282 508v-422c-56 -49 -164 -86 -281 -86h-1c-11 0 -16 1 -16 2v148h16c53 0 108 9 140 22v336h142zM-4 -144c0 44 35 79 80 79c43 0 78 -35 78 -79s-35 -80 -78 -80c-45 0 -80 36 -80 80zM196 -144c0 44 35 79 80 79c44 0 79 -35 79 -79s-35 -80 -79 -80
c-45 0 -80 36 -80 80z" />
    <glyph glyph-name="uniFBAF" unicode="&#x6d2;" horiz-adv-x="808" arabic-form="final" 
d="M824 150v-148c0 -1 -5 -2 -16 -2h-540c-37 0 -56 -13 -56 -40c0 -26 19 -39 56 -39h269v-148h-232c-156 0 -235 69 -235 190c0 123 79 187 235 187h519z" />
    <glyph glyph-name="uniFBB1" unicode="&#x6d3;" horiz-adv-x="808" arabic-form="final" 
d="M824 150v-148c0 -1 -5 -2 -16 -2h-540c-37 0 -56 -13 -56 -40c0 -26 19 -39 56 -39h269v-148h-232c-156 0 -235 69 -235 190c0 123 79 187 235 187h519zM355 326h61v-86h-217v86h48c-15 17 -22 36 -22 59c0 51 38 91 97 91c35 0 66 -16 86 -36l-48 -49
c-7 7 -17 11 -30 11c-21 0 -35 -14 -35 -35c0 -24 20 -41 60 -41z" />
    <glyph glyph-name=".notdef" horiz-adv-x="500" 
d="M50 30v600h400v-600h-400zM120 100h260v460h-260v-460z" />
    <glyph glyph-name="space" unicode=" " horiz-adv-x="250" 
 />
    <glyph glyph-name="A" unicode="A" horiz-adv-x="839" 
d="M626 0l-53 138h-306l-53 -138h-185l285 700h209l288 -700h-185zM317 268h205l-103 267z" />
    <glyph glyph-name="Aacute" unicode="&#xc1;" horiz-adv-x="839" 
d="M626 0l-53 138h-306l-53 -138h-185l285 700h209l288 -700h-185zM317 268h205l-103 267zM601 923l-144 -168h-129l118 168h155z" />
    <glyph glyph-name="Abreve" unicode="&#x102;" horiz-adv-x="839" 
d="M626 0l-53 138h-306l-53 -138h-185l285 700h209l288 -700h-185zM317 268h205l-103 267zM420 765c-102 0 -184 67 -186 161h99c1 -44 36 -69 87 -69c49 0 85 25 86 69h99c-2 -94 -82 -161 -185 -161z" />
    <glyph glyph-name="Acircumflex" unicode="&#xc2;" horiz-adv-x="839" 
d="M626 0l-53 138h-306l-53 -138h-185l285 700h209l288 -700h-185zM317 268h205l-103 267zM498 923l122 -168h-124l-77 88l-76 -88h-124l122 168h157z" />
    <glyph glyph-name="Adieresis" unicode="&#xc4;" horiz-adv-x="839" 
d="M626 0l-53 138h-306l-53 -138h-185l285 700h209l288 -700h-185zM317 268h205l-103 267zM375 848c0 -37 -27 -65 -64 -65s-65 28 -65 65s28 64 65 64s64 -27 64 -64zM592 848c0 -37 -28 -65 -65 -65s-64 28 -64 65s27 64 64 64s65 -27 65 -64z" />
    <glyph glyph-name="Agrave" unicode="&#xc0;" horiz-adv-x="839" 
d="M626 0l-53 138h-306l-53 -138h-185l285 700h209l288 -700h-185zM317 268h205l-103 267zM392 923l118 -168h-129l-144 168h155z" />
    <glyph glyph-name="Amacron" unicode="&#x100;" horiz-adv-x="839" 
d="M626 0l-53 138h-306l-53 -138h-185l285 700h209l288 -700h-185zM317 268h205l-103 267zM585 894v-92h-331v92h331z" />
    <glyph glyph-name="Aogonek" unicode="&#x104;" horiz-adv-x="839" 
d="M820 -117l19 -68c-26 -13 -58 -20 -95 -20c-71 0 -115 34 -115 93c0 30 12 63 36 99l9 13h-48l-53 138h-306l-53 -138h-185l285 700h209l288 -700h-54l-9 -13c-17 -24 -26 -45 -26 -63c0 -32 24 -51 55 -51c15 0 30 3 43 10zM317 268h205l-103 267z" />
    <glyph glyph-name="Aring" unicode="&#xc5;" horiz-adv-x="839" 
d="M626 0l-53 138h-306l-53 -138h-185l285 700h209l288 -700h-185zM317 268h205l-103 267zM552 867c0 -71 -61 -130 -133 -130s-133 59 -133 130s61 130 133 130s133 -59 133 -130zM360 867c0 -32 27 -58 59 -58s59 26 59 58c0 31 -27 57 -59 57s-59 -26 -59 -57z" />
    <glyph glyph-name="Atilde" unicode="&#xc3;" horiz-adv-x="839" 
d="M626 0l-53 138h-306l-53 -138h-185l285 700h209l288 -700h-185zM317 268h205l-103 267zM333 920c28 0 49 -7 90 -26c37 -17 56 -24 73 -24c23 0 38 15 45 44l65 -9c-3 -76 -33 -136 -100 -136c-28 0 -47 8 -98 29c-30 14 -52 21 -65 21c-22 0 -37 -14 -45 -43l-65 8
c3 77 33 136 100 136z" />
    <glyph glyph-name="AE" unicode="&#xc6;" horiz-adv-x="1052" 
d="M629 142h382v-142h-542v138h-193l-64 -138h-183l335 700h640v-142h-375v-137h346v-133h-346v-146zM335 266h134v291z" />
    <glyph glyph-name="B" unicode="B" horiz-adv-x="747" 
d="M704 191c0 -55 -19 -100 -57 -137c-38 -36 -99 -54 -183 -54h-381v700h362c145 0 229 -61 229 -177c0 -76 -39 -129 -108 -156c96 -27 138 -95 138 -176zM242 569v-156h157c69 0 109 27 109 78s-38 78 -109 78h-157zM539 215c0 48 -34 84 -114 84h-183v-167h183
c80 0 114 36 114 83z" />
    <glyph glyph-name="C" unicode="C" horiz-adv-x="767" 
d="M725 563l-135 -81c-39 48 -96 79 -160 79c-115 0 -203 -94 -203 -211c0 -116 88 -210 203 -210c64 0 120 30 160 79l135 -81c-67 -92 -176 -148 -296 -148c-198 -4 -372 166 -368 360c-4 194 170 364 368 360c120 0 229 -56 296 -147z" />
    <glyph glyph-name="Cacute" unicode="&#x106;" horiz-adv-x="767" 
d="M725 563l-135 -81c-39 48 -96 79 -160 79c-115 0 -203 -94 -203 -211c0 -116 88 -210 203 -210c64 0 120 30 160 79l135 -81c-67 -92 -176 -148 -296 -148c-198 -4 -372 166 -368 360c-4 194 170 364 368 360c120 0 229 -56 296 -147zM600 923l-144 -168h-129l118 168
h155z" />
    <glyph glyph-name="Ccaron" unicode="&#x10c;" horiz-adv-x="767" 
d="M725 563l-135 -81c-39 48 -96 79 -160 79c-115 0 -203 -94 -203 -211c0 -116 88 -210 203 -210c64 0 120 30 160 79l135 -81c-67 -92 -176 -148 -296 -148c-198 -4 -372 166 -368 360c-4 194 170 364 368 360c120 0 229 -56 296 -147zM618 923l-122 -168h-157l-122 168
h124l76 -89l77 89h124z" />
    <glyph glyph-name="Ccedilla" unicode="&#xc7;" horiz-adv-x="767" 
d="M590 219l135 -81c-65 -88 -169 -144 -285 -148l-15 -32h9c59 0 96 -36 96 -89c0 -61 -52 -96 -121 -96c-41 0 -77 9 -108 26l20 51c20 -10 43 -15 70 -15c32 0 53 20 53 44c0 23 -15 36 -39 36c-13 0 -24 -3 -33 -10l-26 26l30 63c-176 21 -317 180 -315 356
c-4 194 170 364 368 360c120 0 229 -56 296 -147l-135 -81c-39 48 -96 79 -160 79c-115 0 -203 -94 -203 -211c0 -116 88 -210 203 -210c64 0 120 30 160 79z" />
    <glyph glyph-name="Ccircumflex" unicode="&#x108;" horiz-adv-x="767" 
d="M725 563l-135 -81c-39 48 -96 79 -160 79c-115 0 -203 -94 -203 -211c0 -116 88 -210 203 -210c64 0 120 30 160 79l135 -81c-67 -92 -176 -148 -296 -148c-198 -4 -372 166 -368 360c-4 194 170 364 368 360c120 0 229 -56 296 -147zM496 923l122 -168h-124l-77 88
l-76 -88h-124l122 168h157z" />
    <glyph glyph-name="Cdotaccent" unicode="&#x10a;" horiz-adv-x="767" 
d="M725 563l-135 -81c-39 48 -96 79 -160 79c-115 0 -203 -94 -203 -211c0 -116 88 -210 203 -210c64 0 120 30 160 79l135 -81c-67 -92 -176 -148 -296 -148c-198 -4 -372 166 -368 360c-4 194 170 364 368 360c120 0 229 -56 296 -147zM482 848c0 -37 -28 -64 -64 -64
c-39 0 -66 27 -66 64c0 36 29 64 66 64c36 0 64 -28 64 -64z" />
    <glyph glyph-name="D" unicode="D" horiz-adv-x="809" 
d="M748 350c4 -195 -171 -353 -373 -350h-292v700h292c202 3 377 -155 373 -350zM369 558h-127v-415h127c119 0 216 92 216 207c0 117 -97 208 -216 208z" />
    <glyph glyph-name="Eth" unicode="&#xd0;" horiz-adv-x="809" 
d="M748 350c4 -195 -171 -353 -373 -350h-292v288h-61v125h61v287h292c202 3 377 -155 373 -350zM585 350c0 117 -97 208 -216 208h-127v-145h149v-125h-149v-145h127c119 0 216 92 216 207z" />
    <glyph glyph-name="Dcaron" unicode="&#x10e;" horiz-adv-x="809" 
d="M748 350c4 -195 -171 -353 -373 -350h-292v700h292c202 3 377 -155 373 -350zM369 558h-127v-415h127c119 0 216 92 216 207c0 117 -97 208 -216 208zM560 923l-122 -168h-157l-122 168h124l76 -89l77 89h124z" />
    <glyph glyph-name="Dcroat" unicode="&#x110;" horiz-adv-x="809" 
d="M748 350c4 -195 -171 -353 -373 -350h-292v288h-61v125h61v287h292c202 3 377 -155 373 -350zM585 350c0 117 -97 208 -216 208h-127v-145h149v-125h-149v-145h127c119 0 216 92 216 207z" />
    <glyph glyph-name="E" unicode="E" horiz-adv-x="690" 
d="M642 700v-141h-400v-137h371v-135h-371v-145h407v-142h-566v700h559z" />
    <glyph glyph-name="Eacute" unicode="&#xc9;" horiz-adv-x="690" 
d="M642 700v-141h-400v-137h371v-135h-371v-145h407v-142h-566v700h559zM542 923l-144 -168h-129l118 168h155z" />
    <glyph glyph-name="Ebreve" unicode="&#x114;" horiz-adv-x="690" 
d="M642 700v-141h-400v-137h371v-135h-371v-145h407v-142h-566v700h559zM361 765c-102 0 -184 67 -186 161h99c1 -44 36 -69 87 -69c49 0 85 25 86 69h99c-2 -94 -82 -161 -185 -161z" />
    <glyph glyph-name="Ecaron" unicode="&#x11a;" horiz-adv-x="690" 
d="M642 700v-141h-400v-137h371v-135h-371v-145h407v-142h-566v700h559zM561 923l-122 -168h-157l-122 168h124l76 -89l77 89h124z" />
    <glyph glyph-name="Ecircumflex" unicode="&#xca;" horiz-adv-x="690" 
d="M642 700v-141h-400v-137h371v-135h-371v-145h407v-142h-566v700h559zM439 923l122 -168h-124l-77 88l-76 -88h-124l122 168h157z" />
    <glyph glyph-name="Edieresis" unicode="&#xcb;" horiz-adv-x="690" 
d="M642 700v-141h-400v-137h371v-135h-371v-145h407v-142h-566v700h559zM316 848c0 -37 -27 -65 -64 -65s-65 28 -65 65s28 64 65 64s64 -27 64 -64zM533 848c0 -37 -28 -65 -65 -65s-64 28 -64 65s27 64 64 64s65 -27 65 -64z" />
    <glyph glyph-name="Edotaccent" unicode="&#x116;" horiz-adv-x="690" 
d="M642 700v-141h-400v-137h371v-135h-371v-145h407v-142h-566v700h559zM425 848c0 -37 -28 -64 -64 -64c-39 0 -66 27 -66 64c0 36 29 64 66 64c36 0 64 -28 64 -64z" />
    <glyph glyph-name="Egrave" unicode="&#xc8;" horiz-adv-x="690" 
d="M642 700v-141h-400v-137h371v-135h-371v-145h407v-142h-566v700h559zM333 923l118 -168h-129l-144 168h155z" />
    <glyph glyph-name="Emacron" unicode="&#x112;" horiz-adv-x="690" 
d="M642 700v-141h-400v-137h371v-135h-371v-145h407v-142h-566v700h559zM526 894v-92h-331v92h331z" />
    <glyph glyph-name="Eogonek" unicode="&#x118;" horiz-adv-x="690" 
d="M665 -117l19 -68c-26 -13 -58 -20 -95 -20c-71 0 -116 34 -116 93c0 30 12 63 36 99l10 13h-436v700h559v-141h-400v-137h371v-135h-371v-145h407v-142h-47l-9 -13c-18 -26 -27 -47 -27 -63c0 -32 24 -51 56 -51c15 0 29 3 43 10z" />
    <glyph glyph-name="F" unicode="F" horiz-adv-x="660" 
d="M619 700v-142h-377v-163h342v-137h-342v-258h-159v700h536z" />
    <glyph glyph-name="G" unicode="G" horiz-adv-x="816" 
d="M714 610l-104 -109c-47 41 -106 63 -166 63c-117 0 -217 -88 -217 -214c0 -117 89 -210 208 -210c60 0 111 14 153 42v93h-144v121h296v-299c-84 -68 -192 -107 -305 -107c-203 -4 -378 166 -374 360c-4 217 183 362 383 360c99 0 195 -36 270 -100z" />
    <glyph glyph-name="Gbreve" unicode="&#x11e;" horiz-adv-x="816" 
d="M714 610l-104 -109c-47 41 -106 63 -166 63c-117 0 -217 -88 -217 -214c0 -117 89 -210 208 -210c60 0 111 14 153 42v93h-144v121h296v-299c-84 -68 -192 -107 -305 -107c-203 -4 -378 166 -374 360c-4 217 183 362 383 360c99 0 195 -36 270 -100zM425 765
c-102 0 -184 67 -186 161h99c1 -44 36 -69 87 -69c49 0 85 25 86 69h99c-2 -94 -82 -161 -185 -161z" />
    <glyph glyph-name="Gcircumflex" unicode="&#x11c;" horiz-adv-x="816" 
d="M714 610l-104 -109c-47 41 -106 63 -166 63c-117 0 -217 -88 -217 -214c0 -117 89 -210 208 -210c60 0 111 14 153 42v93h-144v121h296v-299c-84 -68 -192 -107 -305 -107c-203 -4 -378 166 -374 360c-4 217 183 362 383 360c99 0 195 -36 270 -100zM503 923l122 -168
h-124l-77 88l-76 -88h-124l122 168h157z" />
    <glyph glyph-name="uni0122" unicode="&#x122;" horiz-adv-x="816" 
d="M714 610l-104 -109c-47 41 -106 63 -166 63c-117 0 -217 -88 -217 -214c0 -117 89 -210 208 -210c60 0 111 14 153 42v93h-144v121h296v-299c-84 -68 -192 -107 -305 -107c-203 -4 -378 166 -374 360c-4 217 183 362 383 360c99 0 195 -36 270 -100zM508 -112
c0 -11 -3 -20 -10 -29l-94 -134l-37 17l39 94c-24 9 -39 29 -39 52c0 33 31 58 71 58c39 0 70 -25 70 -58z" />
    <glyph glyph-name="Gdotaccent" unicode="&#x120;" horiz-adv-x="816" 
d="M714 610l-104 -109c-47 41 -106 63 -166 63c-117 0 -217 -88 -217 -214c0 -117 89 -210 208 -210c60 0 111 14 153 42v93h-144v121h296v-299c-84 -68 -192 -107 -305 -107c-203 -4 -378 166 -374 360c-4 217 183 362 383 360c99 0 195 -36 270 -100zM489 848
c0 -37 -28 -64 -64 -64c-39 0 -66 27 -66 64c0 36 29 64 66 64c36 0 64 -28 64 -64z" />
    <glyph glyph-name="H" unicode="H" horiz-adv-x="814" 
d="M731 700v-700h-159v281h-330v-281h-159v700h159v-276h330v276h159z" />
    <glyph glyph-name="Hbar" unicode="&#x126;" horiz-adv-x="814" 
d="M798 625v-110h-67v-515h-159v281h-330v-281h-159v515h-66v110h66v75h159v-75h330v75h159v-75h67zM572 424v91h-330v-91h330z" />
    <glyph glyph-name="Hcircumflex" unicode="&#x124;" horiz-adv-x="814" 
d="M731 700v-700h-159v281h-330v-281h-159v700h159v-276h330v276h159zM497 923l122 -168h-124l-77 88l-76 -88h-124l122 168h157z" />
    <glyph glyph-name="I" unicode="I" horiz-adv-x="325" 
d="M242 700v-700h-159v700h159z" />
    <glyph glyph-name="IJ" unicode="&#x132;" horiz-adv-x="941" 
d="M242 700v-700h-159v700h159zM859 700v-421c0 -205 -96 -289 -268 -289c-113 0 -193 33 -240 112l128 83c24 -33 59 -49 104 -49c73 0 117 48 117 143v421h159z" />
    <glyph glyph-name="Iacute" unicode="&#xcd;" horiz-adv-x="325" 
d="M242 700v-700h-159v700h159zM349 923l-144 -168h-129l118 168h155z" />
    <glyph glyph-name="Icircumflex" unicode="&#xce;" horiz-adv-x="325" 
d="M242 700v-700h-159v700h159zM246 923l122 -168h-124l-77 88l-76 -88h-124l122 168h157z" />
    <glyph glyph-name="Idieresis" unicode="&#xcf;" horiz-adv-x="325" 
d="M242 700v-700h-159v700h159zM123 848c0 -37 -27 -65 -64 -65s-65 28 -65 65s28 64 65 64s64 -27 64 -64zM340 848c0 -37 -28 -65 -65 -65s-64 28 -64 65s27 64 64 64s65 -27 65 -64z" />
    <glyph glyph-name="Idot" unicode="&#x130;" horiz-adv-x="325" 
d="M242 700v-700h-159v700h159zM232 848c0 -37 -28 -64 -64 -64c-39 0 -66 27 -66 64c0 36 29 64 66 64c36 0 64 -28 64 -64z" />
    <glyph glyph-name="Igrave" unicode="&#xcc;" horiz-adv-x="325" 
d="M242 700v-700h-159v700h159zM140 923l118 -168h-129l-144 168h155z" />
    <glyph glyph-name="Imacron" unicode="&#x12a;" horiz-adv-x="325" 
d="M242 700v-700h-159v700h159zM333 894v-92h-331v92h331z" />
    <glyph glyph-name="Iogonek" unicode="&#x12e;" horiz-adv-x="325" 
d="M275 -117l19 -68c-26 -13 -58 -20 -95 -20c-71 0 -115 34 -115 93c0 31 12 64 36 99l9 13h-46v700h159v-700h-30l-9 -13c-17 -27 -26 -48 -26 -63c0 -32 24 -51 55 -51c15 0 30 3 43 10z" />
    <glyph glyph-name="Itilde" unicode="&#x128;" horiz-adv-x="325" 
d="M242 700v-700h-159v700h159zM81 920c28 0 49 -7 90 -26c37 -17 56 -24 73 -24c23 0 38 15 45 44l65 -9c-3 -76 -33 -136 -100 -136c-28 0 -47 8 -98 29c-30 14 -52 21 -65 21c-22 0 -37 -14 -45 -43l-65 8c3 77 33 136 100 136z" />
    <glyph glyph-name="J" unicode="J" horiz-adv-x="616" 
d="M534 700v-421c0 -205 -96 -289 -268 -289c-113 0 -193 33 -240 112l128 83c24 -33 59 -49 104 -49c73 0 117 48 117 143v421h159z" />
    <glyph glyph-name="Jcircumflex" unicode="&#x134;" horiz-adv-x="616" 
d="M534 700v-421c0 -205 -96 -289 -268 -289c-113 0 -193 33 -240 112l128 83c24 -33 59 -49 104 -49c73 0 117 48 117 143v421h159zM533 923l122 -168h-124l-77 88l-76 -88h-124l122 168h157z" />
    <glyph glyph-name="K" unicode="K" horiz-adv-x="764" 
d="M536 0l-172 292l-122 -138v-154h-159v700h159v-318l272 318h212l-254 -287l264 -413h-200z" />
    <glyph glyph-name="uni0136" unicode="&#x136;" horiz-adv-x="764" 
d="M536 0l-172 292l-122 -138v-154h-159v700h159v-318l272 318h212l-254 -287l264 -413h-200zM461 -112c0 -11 -3 -20 -10 -29l-94 -134l-37 17l39 94c-24 9 -39 29 -39 52c0 33 31 58 71 58c39 0 70 -25 70 -58z" />
    <glyph glyph-name="L" unicode="L" horiz-adv-x="627" 
d="M242 700v-557h356v-143h-515v700h159z" />
    <glyph glyph-name="Lacute" unicode="&#x139;" horiz-adv-x="627" 
d="M242 700v-557h356v-143h-515v700h159zM353 923l-144 -168h-129l118 168h155z" />
    <glyph glyph-name="Lcaron" unicode="&#x13d;" horiz-adv-x="627" 
d="M242 700v-557h356v-143h-515v700h159zM565 652c0 -11 -4 -24 -12 -38l-110 -175l-44 20l49 128c-27 11 -44 37 -44 65c0 40 36 73 80 73s81 -33 81 -73z" />
    <glyph glyph-name="uni013B" unicode="&#x13b;" horiz-adv-x="627" 
d="M242 700v-557h356v-143h-515v700h159zM418 -112c0 -11 -3 -20 -10 -29l-94 -134l-37 17l39 94c-24 9 -39 29 -39 52c0 33 31 58 71 58c39 0 70 -25 70 -58z" />
    <glyph glyph-name="Ldot" unicode="&#x13f;" horiz-adv-x="627" 
d="M242 700v-557h356v-143h-515v700h159zM546 374c0 -41 -36 -73 -81 -73c-44 0 -80 32 -80 73c0 40 36 73 80 73c45 0 81 -33 81 -73z" />
    <glyph glyph-name="Lslash" unicode="&#x141;" horiz-adv-x="627" 
d="M242 143h356v-143h-515v256l-61 -33v148l61 33v296h159v-210l137 74v-147l-137 -74v-200z" />
    <glyph glyph-name="M" unicode="M" horiz-adv-x="1010" 
d="M719 700h209v-700h-158v489l-238 -401h-56l-238 401v-489h-155v700h209l213 -355z" />
    <glyph glyph-name="N" unicode="N" horiz-adv-x="814" 
d="M575 700h156v-700h-165l-326 450v-450h-157v700h166l326 -449v449z" />
    <glyph glyph-name="Nacute" unicode="&#x143;" horiz-adv-x="814" 
d="M575 700h156v-700h-165l-326 450v-450h-157v700h166l326 -449v449zM605 923l-144 -168h-129l118 168h155z" />
    <glyph glyph-name="Ncaron" unicode="&#x147;" horiz-adv-x="814" 
d="M575 700h156v-700h-165l-326 450v-450h-157v700h166l326 -449v449zM624 923l-122 -168h-157l-122 168h124l76 -89l77 89h124z" />
    <glyph glyph-name="uni0145" unicode="&#x145;" horiz-adv-x="814" 
d="M575 700h156v-700h-165l-326 450v-450h-157v700h166l326 -449v449zM499 -112c0 -11 -3 -20 -10 -29l-94 -134l-37 17l39 94c-24 9 -39 29 -39 52c0 33 31 58 71 58c39 0 70 -25 70 -58z" />
    <glyph glyph-name="Eng" unicode="&#x14a;" horiz-adv-x="814" 
d="M575 700h156v-654c0 -204 -91 -282 -263 -282c-112 0 -191 33 -238 110l125 81c24 -32 59 -48 104 -48c61 0 98 29 111 86l-330 452v-445h-157v700h166l326 -446v446z" />
    <glyph glyph-name="Ntilde" unicode="&#xd1;" horiz-adv-x="814" 
d="M575 700h156v-700h-165l-326 450v-450h-157v700h166l326 -449v449zM337 920c28 0 49 -7 90 -26c37 -17 56 -24 73 -24c23 0 38 15 45 44l65 -9c-3 -76 -33 -136 -100 -136c-28 0 -47 8 -98 29c-30 14 -52 21 -65 21c-22 0 -37 -14 -45 -43l-65 8c3 77 33 136 100 136z
" />
    <glyph glyph-name="O" unicode="O" horiz-adv-x="868" 
d="M807 350c4 -194 -172 -364 -372 -360c-203 -4 -378 166 -374 360c-4 194 171 364 374 360c200 4 376 -166 372 -360zM227 350c0 -117 89 -210 208 -210c117 0 207 94 207 210c0 117 -90 211 -207 211c-119 0 -208 -94 -208 -211z" />
    <glyph glyph-name="Oacute" unicode="&#xd3;" horiz-adv-x="868" 
d="M807 350c4 -194 -172 -364 -372 -360c-203 -4 -378 166 -374 360c-4 194 171 364 374 360c200 4 376 -166 372 -360zM227 350c0 -117 89 -210 208 -210c117 0 207 94 207 210c0 117 -90 211 -207 211c-119 0 -208 -94 -208 -211zM617 923l-144 -168h-129l118 168h155z
" />
    <glyph glyph-name="Ocircumflex" unicode="&#xd4;" horiz-adv-x="868" 
d="M807 350c4 -194 -172 -364 -372 -360c-203 -4 -378 166 -374 360c-4 194 171 364 374 360c200 4 376 -166 372 -360zM227 350c0 -117 89 -210 208 -210c117 0 207 94 207 210c0 117 -90 211 -207 211c-119 0 -208 -94 -208 -211zM514 923l122 -168h-124l-77 88l-76 -88
h-124l122 168h157z" />
    <glyph glyph-name="Odieresis" unicode="&#xd6;" horiz-adv-x="868" 
d="M807 350c4 -194 -172 -364 -372 -360c-203 -4 -378 166 -374 360c-4 194 171 364 374 360c200 4 376 -166 372 -360zM227 350c0 -117 89 -210 208 -210c117 0 207 94 207 210c0 117 -90 211 -207 211c-119 0 -208 -94 -208 -211zM391 848c0 -37 -27 -65 -64 -65
s-65 28 -65 65s28 64 65 64s64 -27 64 -64zM608 848c0 -37 -28 -65 -65 -65s-64 28 -64 65s27 64 64 64s65 -27 65 -64z" />
    <glyph glyph-name="Ograve" unicode="&#xd2;" horiz-adv-x="868" 
d="M807 350c4 -194 -172 -364 -372 -360c-203 -4 -378 166 -374 360c-4 194 171 364 374 360c200 4 376 -166 372 -360zM227 350c0 -117 89 -210 208 -210c117 0 207 94 207 210c0 117 -90 211 -207 211c-119 0 -208 -94 -208 -211zM408 923l118 -168h-129l-144 168h155z
" />
    <glyph glyph-name="Ohungarumlaut" unicode="&#x150;" horiz-adv-x="868" 
d="M807 350c4 -194 -172 -364 -372 -360c-203 -4 -378 166 -374 360c-4 194 171 364 374 360c200 4 376 -166 372 -360zM227 350c0 -117 89 -210 208 -210c117 0 207 94 207 210c0 117 -90 211 -207 211c-119 0 -208 -94 -208 -211zM540 923l-144 -168h-129l117 168h156z
M773 923l-144 -168h-128l118 168h154z" />
    <glyph glyph-name="Omacron" unicode="&#x14c;" horiz-adv-x="868" 
d="M807 350c4 -194 -172 -364 -372 -360c-203 -4 -378 166 -374 360c-4 194 171 364 374 360c200 4 376 -166 372 -360zM227 350c0 -117 89 -210 208 -210c117 0 207 94 207 210c0 117 -90 211 -207 211c-119 0 -208 -94 -208 -211zM601 894v-92h-331v92h331z" />
    <glyph glyph-name="Oslash" unicode="&#xd8;" horiz-adv-x="868" 
d="M807 350c4 -194 -172 -364 -372 -360c-35 0 -70 5 -104 14l-26 -54h-127l49 101c-101 65 -166 176 -166 299c-4 194 171 364 374 360c35 0 69 -5 102 -14l26 54h127l-48 -101c101 -65 165 -176 165 -299zM295 193l176 365c-12 2 -24 3 -36 3c-119 0 -208 -94 -208 -211
c0 -63 25 -118 68 -157zM642 350c0 63 -25 119 -68 158l-176 -365c12 -2 24 -3 37 -3c117 0 207 94 207 210z" />
    <glyph glyph-name="Otilde" unicode="&#xd5;" horiz-adv-x="868" 
d="M807 350c4 -194 -172 -364 -372 -360c-203 -4 -378 166 -374 360c-4 194 171 364 374 360c200 4 376 -166 372 -360zM227 350c0 -117 89 -210 208 -210c117 0 207 94 207 210c0 117 -90 211 -207 211c-119 0 -208 -94 -208 -211zM349 920c28 0 49 -7 90 -26
c37 -17 56 -24 73 -24c23 0 38 15 45 44l65 -9c-3 -76 -33 -136 -100 -136c-28 0 -47 8 -98 29c-30 14 -52 21 -65 21c-22 0 -37 -14 -45 -43l-65 8c3 77 33 136 100 136z" />
    <glyph glyph-name="OE" unicode="&#x152;" horiz-adv-x="1226" 
d="M803 142h382v-142h-541v58c-60 -45 -130 -68 -209 -68c-203 -4 -378 166 -374 360c-4 194 171 364 374 360c79 0 149 -23 209 -68v58h534v-142h-375v-137h347v-133h-347v-146zM642 350c0 117 -90 211 -207 211c-120 0 -209 -94 -209 -211s89 -210 209 -210
c117 0 207 94 207 210z" />
    <glyph glyph-name="P" unicode="P" horiz-adv-x="737" 
d="M83 700h299c208 0 304 -77 304 -246c0 -168 -95 -248 -290 -248h-154v-206h-159v700zM380 562h-138v-218h139c99 0 143 33 143 108c0 76 -44 110 -144 110z" />
    <glyph glyph-name="Thorn" unicode="&#xde;" horiz-adv-x="737" 
d="M242 700v-88h140c208 0 304 -78 304 -246c0 -169 -95 -248 -302 -248h-142v-118h-159v700h159zM380 474h-138v-218h139c99 0 143 33 143 109c0 75 -44 109 -144 109z" />
    <glyph glyph-name="Q" unicode="Q" horiz-adv-x="868" 
d="M836 22l-95 -88l-110 110c-61 -36 -126 -54 -196 -54c-203 -4 -378 166 -374 360c-4 194 171 364 374 360c200 4 376 -166 372 -360c0 -81 -28 -160 -79 -221zM518 157l-92 92l94 87l94 -93c19 32 28 68 28 107c0 117 -90 211 -207 211c-119 0 -208 -94 -208 -211
s89 -210 208 -210c29 0 57 6 83 17z" />
    <glyph glyph-name="R" unicode="R" horiz-adv-x="752" 
d="M726 0h-186l-145 222h-153v-222h-159v700h310c220 0 311 -71 311 -234c0 -115 -46 -188 -142 -221zM242 562v-207h159c99 0 137 30 137 103c0 75 -38 104 -137 104h-159z" />
    <glyph glyph-name="Racute" unicode="&#x154;" horiz-adv-x="752" 
d="M726 0h-186l-145 222h-153v-222h-159v700h310c220 0 311 -71 311 -234c0 -115 -46 -188 -142 -221zM242 562v-207h159c99 0 137 30 137 103c0 75 -38 104 -137 104h-159zM567 923l-144 -168h-129l118 168h155z" />
    <glyph glyph-name="Rcaron" unicode="&#x158;" horiz-adv-x="752" 
d="M726 0h-186l-145 222h-153v-222h-159v700h310c220 0 311 -71 311 -234c0 -115 -46 -188 -142 -221zM242 562v-207h159c99 0 137 30 137 103c0 75 -38 104 -137 104h-159zM585 923l-122 -168h-157l-122 168h124l76 -89l77 89h124z" />
    <glyph glyph-name="uni0156" unicode="&#x156;" horiz-adv-x="752" 
d="M726 0h-186l-145 222h-153v-222h-159v700h310c220 0 311 -71 311 -234c0 -115 -46 -188 -142 -221zM242 562v-207h159c99 0 137 30 137 103c0 75 -38 104 -137 104h-159zM462 -112c0 -11 -3 -20 -10 -29l-94 -134l-37 17l39 94c-24 9 -39 29 -39 52c0 33 31 58 71 58
c39 0 70 -25 70 -58z" />
    <glyph glyph-name="S" unicode="S" horiz-adv-x="708" 
d="M649 634l-68 -125c-77 40 -171 65 -236 65c-61 0 -101 -22 -101 -66c0 -29 15 -41 111 -67l70 -19c159 -45 235 -82 240 -211c0 -141 -113 -221 -296 -221c-119 0 -235 34 -327 95l72 120c84 -49 187 -77 268 -77c71 0 114 22 114 74c0 35 -19 49 -110 71l-74 19
c-163 40 -237 81 -240 204c0 71 26 124 79 160s122 54 207 54c104 0 211 -28 291 -76z" />
    <glyph glyph-name="Sacute" unicode="&#x15a;" horiz-adv-x="708" 
d="M649 634l-68 -125c-77 40 -171 65 -236 65c-61 0 -101 -22 -101 -66c0 -29 15 -41 111 -67l70 -19c159 -45 235 -82 240 -211c0 -141 -113 -221 -296 -221c-119 0 -235 34 -327 95l72 120c84 -49 187 -77 268 -77c71 0 114 22 114 74c0 35 -19 49 -110 71l-74 19
c-163 40 -237 81 -240 204c0 71 26 124 79 160s122 54 207 54c104 0 211 -28 291 -76zM540 923l-144 -168h-129l118 168h155z" />
    <glyph glyph-name="Scaron" unicode="&#x160;" horiz-adv-x="708" 
d="M649 634l-68 -125c-77 40 -171 65 -236 65c-61 0 -101 -22 -101 -66c0 -29 15 -41 111 -67l70 -19c159 -45 235 -82 240 -211c0 -141 -113 -221 -296 -221c-119 0 -235 34 -327 95l72 120c84 -49 187 -77 268 -77c71 0 114 22 114 74c0 35 -19 49 -110 71l-74 19
c-163 40 -237 81 -240 204c0 71 26 124 79 160s122 54 207 54c104 0 211 -28 291 -76zM559 923l-122 -168h-157l-122 168h124l76 -89l77 89h124z" />
    <glyph glyph-name="Scedilla" unicode="&#x15e;" horiz-adv-x="708" 
d="M399 -9l-15 -33h9c59 0 96 -36 96 -89c0 -61 -52 -96 -121 -96c-41 0 -77 9 -108 26l20 51c20 -10 43 -15 70 -15c32 0 53 20 53 44c0 23 -15 36 -39 36c-13 0 -24 -3 -33 -10l-26 26l28 60c-107 7 -208 38 -291 94l72 120c84 -49 187 -77 268 -77c71 0 114 22 114 74
c0 35 -19 49 -110 71l-74 19c-163 40 -237 81 -240 204c0 71 26 124 79 160s122 54 207 54c104 0 211 -28 291 -76l-68 -125c-77 40 -171 65 -236 65c-61 0 -101 -22 -101 -66c0 -29 15 -41 111 -67l70 -19c159 -45 235 -82 240 -211c0 -133 -101 -212 -266 -220z" />
    <glyph glyph-name="Scircumflex" unicode="&#x15c;" horiz-adv-x="708" 
d="M649 634l-68 -125c-77 40 -171 65 -236 65c-61 0 -101 -22 -101 -66c0 -29 15 -41 111 -67l70 -19c159 -45 235 -82 240 -211c0 -141 -113 -221 -296 -221c-119 0 -235 34 -327 95l72 120c84 -49 187 -77 268 -77c71 0 114 22 114 74c0 35 -19 49 -110 71l-74 19
c-163 40 -237 81 -240 204c0 71 26 124 79 160s122 54 207 54c104 0 211 -28 291 -76zM437 923l122 -168h-124l-77 88l-76 -88h-124l122 168h157z" />
    <glyph glyph-name="uni0218" unicode="&#x218;" horiz-adv-x="708" 
d="M649 634l-68 -125c-77 40 -171 65 -236 65c-61 0 -101 -22 -101 -66c0 -29 15 -41 111 -67l70 -19c159 -45 235 -82 240 -211c0 -141 -113 -221 -296 -221c-119 0 -235 34 -327 95l72 120c84 -49 187 -77 268 -77c71 0 114 22 114 74c0 35 -19 49 -110 71l-74 19
c-163 40 -237 81 -240 204c0 71 26 124 79 160s122 54 207 54c104 0 211 -28 291 -76zM449 -112c0 -11 -3 -20 -10 -29l-94 -134l-37 17l39 94c-24 9 -39 29 -39 52c0 33 31 58 71 58c39 0 70 -25 70 -58z" />
    <glyph glyph-name="uni1E9E" unicode="&#x1e9e;" horiz-adv-x="793" 
d="M750 206c0 -137 -90 -216 -247 -216c-62 0 -123 14 -183 42l55 122c35 -21 72 -32 112 -32c65 0 103 30 103 82c0 41 -23 60 -98 83l-45 13v85l81 146c-32 24 -78 38 -127 38c-97 0 -159 -52 -159 -135v-434h-159v441c0 171 118 269 325 269c131 0 230 -40 309 -123
l-113 -202c107 -39 146 -87 146 -179z" />
    <glyph glyph-name="T" unicode="T" horiz-adv-x="643" 
d="M615 700v-137h-213v-563h-160v563h-213v137h586z" />
    <glyph glyph-name="Tbar" unicode="&#x166;" horiz-adv-x="643" 
d="M615 563h-213v-178h101v-110h-101v-275h-160v275h-101v110h101v178h-213v137h586v-137z" />
    <glyph glyph-name="Tcaron" unicode="&#x164;" horiz-adv-x="643" 
d="M615 700v-137h-213v-563h-160v563h-213v137h586zM517 923l-122 -168h-157l-122 168h124l76 -89l77 89h124z" />
    <glyph glyph-name="uni021A" unicode="&#x21a;" horiz-adv-x="643" 
d="M615 700v-137h-213v-563h-160v563h-213v137h586zM392 -112c0 -11 -3 -20 -10 -29l-94 -134l-37 17l39 94c-24 9 -39 29 -39 52c0 33 31 58 71 58c39 0 70 -25 70 -58z" />
    <glyph glyph-name="U" unicode="U" horiz-adv-x="799" 
d="M717 700v-381c0 -213 -112 -329 -317 -329c-204 0 -317 117 -317 329v381h159v-381c0 -119 57 -183 158 -183s158 64 158 183v381h159z" />
    <glyph glyph-name="Uacute" unicode="&#xda;" horiz-adv-x="799" 
d="M717 700v-381c0 -213 -112 -329 -317 -329c-204 0 -317 117 -317 329v381h159v-381c0 -119 57 -183 158 -183s158 64 158 183v381h159zM581 923l-144 -168h-129l118 168h155z" />
    <glyph glyph-name="Ubreve" unicode="&#x16c;" horiz-adv-x="799" 
d="M717 700v-381c0 -213 -112 -329 -317 -329c-204 0 -317 117 -317 329v381h159v-381c0 -119 57 -183 158 -183s158 64 158 183v381h159zM400 765c-102 0 -184 67 -186 161h99c1 -44 36 -69 87 -69c49 0 85 25 86 69h99c-2 -94 -82 -161 -185 -161z" />
    <glyph glyph-name="Ucircumflex" unicode="&#xdb;" horiz-adv-x="799" 
d="M717 700v-381c0 -213 -112 -329 -317 -329c-204 0 -317 117 -317 329v381h159v-381c0 -119 57 -183 158 -183s158 64 158 183v381h159zM478 923l122 -168h-124l-77 88l-76 -88h-124l122 168h157z" />
    <glyph glyph-name="Udieresis" unicode="&#xdc;" horiz-adv-x="799" 
d="M717 700v-381c0 -213 -112 -329 -317 -329c-204 0 -317 117 -317 329v381h159v-381c0 -119 57 -183 158 -183s158 64 158 183v381h159zM355 848c0 -37 -27 -65 -64 -65s-65 28 -65 65s28 64 65 64s64 -27 64 -64zM572 848c0 -37 -28 -65 -65 -65s-64 28 -64 65
s27 64 64 64s65 -27 65 -64z" />
    <glyph glyph-name="Ugrave" unicode="&#xd9;" horiz-adv-x="799" 
d="M717 700v-381c0 -213 -112 -329 -317 -329c-204 0 -317 117 -317 329v381h159v-381c0 -119 57 -183 158 -183s158 64 158 183v381h159zM372 923l118 -168h-129l-144 168h155z" />
    <glyph glyph-name="Uhungarumlaut" unicode="&#x170;" horiz-adv-x="799" 
d="M717 700v-381c0 -213 -112 -329 -317 -329c-204 0 -317 117 -317 329v381h159v-381c0 -119 57 -183 158 -183s158 64 158 183v381h159zM504 923l-144 -168h-129l117 168h156zM737 923l-144 -168h-128l118 168h154z" />
    <glyph glyph-name="Umacron" unicode="&#x16a;" horiz-adv-x="799" 
d="M717 700v-381c0 -213 -112 -329 -317 -329c-204 0 -317 117 -317 329v381h159v-381c0 -119 57 -183 158 -183s158 64 158 183v381h159zM565 894v-92h-331v92h331z" />
    <glyph glyph-name="Uogonek" unicode="&#x172;" horiz-adv-x="799" 
d="M558 700h159v-381c0 -201 -100 -316 -283 -328l-3 -4c-18 -26 -27 -47 -27 -63c0 -32 24 -51 56 -51c15 0 29 3 43 10l19 -68c-26 -13 -58 -20 -95 -20c-71 0 -116 34 -116 93c0 30 12 63 36 99l4 5c-173 19 -268 134 -268 327v381h159v-381c0 -119 57 -183 158 -183
s158 64 158 183v381z" />
    <glyph glyph-name="Uring" unicode="&#x16e;" horiz-adv-x="799" 
d="M717 700v-381c0 -213 -112 -329 -317 -329c-204 0 -317 117 -317 329v381h159v-381c0 -119 57 -183 158 -183s158 64 158 183v381h159zM532 867c0 -71 -61 -130 -133 -130s-133 59 -133 130s61 130 133 130s133 -59 133 -130zM340 867c0 -32 27 -58 59 -58s59 26 59 58
c0 31 -27 57 -59 57s-59 -26 -59 -57z" />
    <glyph glyph-name="Utilde" unicode="&#x168;" horiz-adv-x="799" 
d="M717 700v-381c0 -213 -112 -329 -317 -329c-204 0 -317 117 -317 329v381h159v-381c0 -119 57 -183 158 -183s158 64 158 183v381h159zM313 920c28 0 49 -7 90 -26c37 -17 56 -24 73 -24c23 0 38 15 45 44l65 -9c-3 -76 -33 -136 -100 -136c-28 0 -47 8 -98 29
c-30 14 -52 21 -65 21c-22 0 -37 -14 -45 -43l-65 8c3 77 33 136 100 136z" />
    <glyph glyph-name="V" unicode="V" horiz-adv-x="817" 
d="M604 700h185l-277 -700h-209l-274 700h185l194 -531z" />
    <glyph glyph-name="W" unicode="W" horiz-adv-x="1138" 
d="M933 700h176l-232 -700h-164l-143 455l-144 -455h-165l-232 700h176l146 -464l140 464h157l139 -463z" />
    <glyph glyph-name="Wacute" unicode="&#x1e82;" horiz-adv-x="1138" 
d="M933 700h176l-232 -700h-164l-143 455l-144 -455h-165l-232 700h176l146 -464l140 464h157l139 -463zM753 923l-144 -168h-129l118 168h155z" />
    <glyph glyph-name="Wcircumflex" unicode="&#x174;" horiz-adv-x="1138" 
d="M933 700h176l-232 -700h-164l-143 455l-144 -455h-165l-232 700h176l146 -464l140 464h157l139 -463zM649 923l122 -168h-124l-77 88l-76 -88h-124l122 168h157z" />
    <glyph glyph-name="Wdieresis" unicode="&#x1e84;" horiz-adv-x="1138" 
d="M933 700h176l-232 -700h-164l-143 455l-144 -455h-165l-232 700h176l146 -464l140 464h157l139 -463zM526 848c0 -37 -27 -65 -64 -65s-65 28 -65 65s28 64 65 64s64 -27 64 -64zM743 848c0 -37 -28 -65 -65 -65s-64 28 -64 65s27 64 64 64s65 -27 65 -64z" />
    <glyph glyph-name="Wgrave" unicode="&#x1e80;" horiz-adv-x="1138" 
d="M933 700h176l-232 -700h-164l-143 455l-144 -455h-165l-232 700h176l146 -464l140 464h157l139 -463zM543 923l118 -168h-129l-144 168h155z" />
    <glyph glyph-name="X" unicode="X" horiz-adv-x="772" 
d="M743 0h-195l-164 233l-164 -233h-191l255 357l-245 343h196l153 -218l153 218h192l-244 -343z" />
    <glyph glyph-name="Y" unicode="Y" horiz-adv-x="785" 
d="M568 700h189l-284 -455v-245h-160v243l-284 457h190l174 -291z" />
    <glyph glyph-name="Yacute" unicode="&#xdd;" horiz-adv-x="785" 
d="M568 700h189l-284 -455v-245h-160v243l-284 457h190l174 -291zM575 923l-144 -168h-129l118 168h155z" />
    <glyph glyph-name="Ycircumflex" unicode="&#x176;" horiz-adv-x="785" 
d="M568 700h189l-284 -455v-245h-160v243l-284 457h190l174 -291zM472 923l122 -168h-124l-77 88l-76 -88h-124l122 168h157z" />
    <glyph glyph-name="Ydieresis" unicode="&#x178;" horiz-adv-x="785" 
d="M568 700h189l-284 -455v-245h-160v243l-284 457h190l174 -291zM349 848c0 -37 -27 -65 -64 -65s-65 28 -65 65s28 64 65 64s64 -27 64 -64zM566 848c0 -37 -28 -65 -65 -65s-64 28 -64 65s27 64 64 64s65 -27 65 -64z" />
    <glyph glyph-name="Ygrave" unicode="&#x1ef2;" horiz-adv-x="785" 
d="M568 700h189l-284 -455v-245h-160v243l-284 457h190l174 -291zM366 923l118 -168h-129l-144 168h155z" />
    <glyph glyph-name="Z" unicode="Z" horiz-adv-x="689" 
d="M636 700v-113l-367 -446h378v-141h-605v116l358 443h-336v141h572z" />
    <glyph glyph-name="Zacute" unicode="&#x179;" horiz-adv-x="689" 
d="M636 700v-113l-367 -446h378v-141h-605v116l358 443h-336v141h572zM527 923l-144 -168h-129l118 168h155z" />
    <glyph glyph-name="Zcaron" unicode="&#x17d;" horiz-adv-x="689" 
d="M636 700v-113l-367 -446h378v-141h-605v116l358 443h-336v141h572zM545 923l-122 -168h-157l-122 168h124l76 -89l77 89h124z" />
    <glyph glyph-name="Zdotaccent" unicode="&#x17b;" horiz-adv-x="689" 
d="M636 700v-113l-367 -446h378v-141h-605v116l358 443h-336v141h572zM409 848c0 -37 -28 -64 -64 -64c-39 0 -66 27 -66 64c0 36 29 64 66 64c36 0 64 -28 64 -64z" />
    <glyph glyph-name="a" unicode="a" horiz-adv-x="594" 
d="M537 323v-323h-148v56c-50 -44 -106 -66 -169 -66c-109 0 -178 64 -178 157c0 96 72 153 189 153h158v9c0 55 -36 84 -104 84c-51 0 -103 -16 -154 -48l-45 100c73 43 157 65 238 65c136 0 213 -67 213 -187zM389 123v103h-111c-57 0 -89 -24 -89 -68s31 -69 87 -69
c38 0 76 11 113 34z" />
    <glyph glyph-name="a.ss01" horiz-adv-x="648" 
d="M435 500h149v-500h-149v58c-40 -44 -96 -68 -159 -68c-130 -3 -234 113 -231 260c-3 147 101 263 231 260c64 0 119 -23 159 -67v57zM435 179v143c-25 39 -69 62 -116 62c-75 0 -128 -58 -128 -134s53 -133 128 -133c47 0 91 23 116 62z" />
    <glyph glyph-name="aacute" unicode="&#xe1;" horiz-adv-x="594" 
d="M537 323v-323h-148v56c-50 -44 -106 -66 -169 -66c-109 0 -178 64 -178 157c0 96 72 153 189 153h158v9c0 55 -36 84 -104 84c-51 0 -103 -16 -154 -48l-45 100c73 43 157 65 238 65c136 0 213 -67 213 -187zM389 123v103h-111c-57 0 -89 -24 -89 -68s31 -69 87 -69
c38 0 76 11 113 34zM501 723l-144 -168h-129l118 168h155z" />
    <glyph glyph-name="aacute.ss01" horiz-adv-x="648" 
d="M435 500h149v-500h-149v58c-40 -44 -96 -68 -159 -68c-130 -3 -234 113 -231 260c-3 147 101 263 231 260c64 0 119 -23 159 -67v57zM435 179v143c-25 39 -69 62 -116 62c-75 0 -128 -58 -128 -134s53 -133 128 -133c47 0 91 23 116 62zM513 723l-144 -168h-129l118 168
h155z" />
    <glyph glyph-name="abreve" unicode="&#x103;" horiz-adv-x="594" 
d="M537 323v-323h-148v56c-50 -44 -106 -66 -169 -66c-109 0 -178 64 -178 157c0 96 72 153 189 153h158v9c0 55 -36 84 -104 84c-51 0 -103 -16 -154 -48l-45 100c73 43 157 65 238 65c136 0 213 -67 213 -187zM389 123v103h-111c-57 0 -89 -24 -89 -68s31 -69 87 -69
c38 0 76 11 113 34zM320 565c-102 0 -184 67 -186 161h99c1 -44 36 -69 87 -69c49 0 85 25 86 69h99c-2 -94 -82 -161 -185 -161z" />
    <glyph glyph-name="abreve.ss01" horiz-adv-x="648" 
d="M435 500h149v-500h-149v58c-40 -44 -96 -68 -159 -68c-130 -3 -234 113 -231 260c-3 147 101 263 231 260c64 0 119 -23 159 -67v57zM435 179v143c-25 39 -69 62 -116 62c-75 0 -128 -58 -128 -134s53 -133 128 -133c47 0 91 23 116 62zM332 565c-102 0 -184 67 -186 161
h99c1 -44 36 -69 87 -69c49 0 85 25 86 69h99c-2 -94 -82 -161 -185 -161z" />
    <glyph glyph-name="acircumflex" unicode="&#xe2;" horiz-adv-x="594" 
d="M537 323v-323h-148v56c-50 -44 -106 -66 -169 -66c-109 0 -178 64 -178 157c0 96 72 153 189 153h158v9c0 55 -36 84 -104 84c-51 0 -103 -16 -154 -48l-45 100c73 43 157 65 238 65c136 0 213 -67 213 -187zM389 123v103h-111c-57 0 -89 -24 -89 -68s31 -69 87 -69
c38 0 76 11 113 34zM398 723l122 -168h-124l-77 88l-76 -88h-124l122 168h157z" />
    <glyph glyph-name="acircumflex.ss01" horiz-adv-x="648" 
d="M435 500h149v-500h-149v58c-40 -44 -96 -68 -159 -68c-130 -3 -234 113 -231 260c-3 147 101 263 231 260c64 0 119 -23 159 -67v57zM435 179v143c-25 39 -69 62 -116 62c-75 0 -128 -58 -128 -134s53 -133 128 -133c47 0 91 23 116 62zM410 723l122 -168h-124l-77 88
l-76 -88h-124l122 168h157z" />
    <glyph glyph-name="adieresis" unicode="&#xe4;" horiz-adv-x="594" 
d="M537 323v-323h-148v56c-50 -44 -106 -66 -169 -66c-109 0 -178 64 -178 157c0 96 72 153 189 153h158v9c0 55 -36 84 -104 84c-51 0 -103 -16 -154 -48l-45 100c73 43 157 65 238 65c136 0 213 -67 213 -187zM389 123v103h-111c-57 0 -89 -24 -89 -68s31 -69 87 -69
c38 0 76 11 113 34zM275 648c0 -37 -27 -65 -64 -65s-65 28 -65 65s28 64 65 64s64 -27 64 -64zM492 648c0 -37 -28 -65 -65 -65s-64 28 -64 65s27 64 64 64s65 -27 65 -64z" />
    <glyph glyph-name="adieresis.ss01" horiz-adv-x="648" 
d="M435 500h149v-500h-149v58c-40 -44 -96 -68 -159 -68c-130 -3 -234 113 -231 260c-3 147 101 263 231 260c64 0 119 -23 159 -67v57zM435 179v143c-25 39 -69 62 -116 62c-75 0 -128 -58 -128 -134s53 -133 128 -133c47 0 91 23 116 62zM287 648c0 -37 -27 -65 -64 -65
s-65 28 -65 65s28 64 65 64s64 -27 64 -64zM504 648c0 -37 -28 -65 -65 -65s-64 28 -64 65s27 64 64 64s65 -27 65 -64z" />
    <glyph glyph-name="agrave" unicode="&#xe0;" horiz-adv-x="594" 
d="M537 323v-323h-148v56c-50 -44 -106 -66 -169 -66c-109 0 -178 64 -178 157c0 96 72 153 189 153h158v9c0 55 -36 84 -104 84c-51 0 -103 -16 -154 -48l-45 100c73 43 157 65 238 65c136 0 213 -67 213 -187zM389 123v103h-111c-57 0 -89 -24 -89 -68s31 -69 87 -69
c38 0 76 11 113 34zM292 723l118 -168h-129l-144 168h155z" />
    <glyph glyph-name="agrave.ss01" horiz-adv-x="648" 
d="M435 500h149v-500h-149v58c-40 -44 -96 -68 -159 -68c-130 -3 -234 113 -231 260c-3 147 101 263 231 260c64 0 119 -23 159 -67v57zM435 179v143c-25 39 -69 62 -116 62c-75 0 -128 -58 -128 -134s53 -133 128 -133c47 0 91 23 116 62zM304 723l118 -168h-129l-144 168
h155z" />
    <glyph glyph-name="amacron" unicode="&#x101;" horiz-adv-x="594" 
d="M537 323v-323h-148v56c-50 -44 -106 -66 -169 -66c-109 0 -178 64 -178 157c0 96 72 153 189 153h158v9c0 55 -36 84 -104 84c-51 0 -103 -16 -154 -48l-45 100c73 43 157 65 238 65c136 0 213 -67 213 -187zM389 123v103h-111c-57 0 -89 -24 -89 -68s31 -69 87 -69
c38 0 76 11 113 34zM485 694v-92h-331v92h331z" />
    <glyph glyph-name="amacron.ss01" horiz-adv-x="648" 
d="M435 500h149v-500h-149v58c-40 -44 -96 -68 -159 -68c-130 -3 -234 113 -231 260c-3 147 101 263 231 260c64 0 119 -23 159 -67v57zM435 179v143c-25 39 -69 62 -116 62c-75 0 -128 -58 -128 -134s53 -133 128 -133c47 0 91 23 116 62zM497 694v-92h-331v92h331z" />
    <glyph glyph-name="aogonek" unicode="&#x105;" horiz-adv-x="594" 
d="M569 -117l19 -68c-26 -13 -58 -20 -95 -20c-71 0 -116 34 -116 93c0 30 12 63 36 99l10 13h-34v56c-50 -44 -106 -66 -169 -66c-109 0 -178 64 -178 157c0 96 72 153 189 153h158v9c0 55 -36 84 -104 84c-51 0 -103 -16 -154 -48l-45 100c73 43 157 65 238 65
c136 0 213 -67 213 -187v-323h-31l-9 -13c-18 -26 -27 -47 -27 -63c0 -32 24 -51 56 -51c15 0 29 3 43 10zM389 123v103h-111c-57 0 -89 -24 -89 -68s31 -69 87 -69c38 0 76 11 113 34z" />
    <glyph glyph-name="aogonek.ss01" horiz-adv-x="648" 
d="M612 -117l19 -68c-26 -13 -58 -20 -95 -20c-71 0 -115 34 -115 93c0 31 12 64 36 99l9 13h-31v58c-40 -44 -96 -68 -159 -68c-130 -3 -234 113 -231 260c-3 147 101 263 231 260c64 0 119 -23 159 -67v57h149v-500h-35l-9 -13c-17 -27 -26 -48 -26 -63
c0 -32 24 -51 55 -51c15 0 30 3 43 10zM435 179v143c-25 39 -69 62 -116 62c-75 0 -128 -58 -128 -134s53 -133 128 -133c47 0 91 23 116 62z" />
    <glyph glyph-name="aring" unicode="&#xe5;" horiz-adv-x="594" 
d="M537 323v-323h-148v56c-50 -44 -106 -66 -169 -66c-109 0 -178 64 -178 157c0 96 72 153 189 153h158v9c0 55 -36 84 -104 84c-51 0 -103 -16 -154 -48l-45 100c73 43 157 65 238 65c136 0 213 -67 213 -187zM389 123v103h-111c-57 0 -89 -24 -89 -68s31 -69 87 -69
c38 0 76 11 113 34zM452 667c0 -71 -61 -130 -133 -130s-133 59 -133 130s61 130 133 130s133 -59 133 -130zM260 667c0 -32 27 -58 59 -58s59 26 59 58c0 31 -27 57 -59 57s-59 -26 -59 -57z" />
    <glyph glyph-name="aring.ss01" horiz-adv-x="648" 
d="M435 500h149v-500h-149v58c-40 -44 -96 -68 -159 -68c-130 -3 -234 113 -231 260c-3 147 101 263 231 260c64 0 119 -23 159 -67v57zM435 179v143c-25 39 -69 62 -116 62c-75 0 -128 -58 -128 -134s53 -133 128 -133c47 0 91 23 116 62zM464 667
c0 -71 -61 -130 -133 -130s-133 59 -133 130s61 130 133 130s133 -59 133 -130zM272 667c0 -32 27 -58 59 -58s59 26 59 58c0 31 -27 57 -59 57s-59 -26 -59 -57z" />
    <glyph glyph-name="atilde" unicode="&#xe3;" horiz-adv-x="594" 
d="M537 323v-323h-148v56c-50 -44 -106 -66 -169 -66c-109 0 -178 64 -178 157c0 96 72 153 189 153h158v9c0 55 -36 84 -104 84c-51 0 -103 -16 -154 -48l-45 100c73 43 157 65 238 65c136 0 213 -67 213 -187zM389 123v103h-111c-57 0 -89 -24 -89 -68s31 -69 87 -69
c38 0 76 11 113 34zM233 720c28 0 49 -7 90 -26c37 -17 56 -24 73 -24c23 0 38 15 45 44l65 -9c-3 -76 -33 -136 -100 -136c-28 0 -47 8 -98 29c-30 14 -52 21 -65 21c-22 0 -37 -14 -45 -43l-65 8c3 77 33 136 100 136z" />
    <glyph glyph-name="atilde.ss01" horiz-adv-x="648" 
d="M435 500h149v-500h-149v58c-40 -44 -96 -68 -159 -68c-130 -3 -234 113 -231 260c-3 147 101 263 231 260c64 0 119 -23 159 -67v57zM435 179v143c-25 39 -69 62 -116 62c-75 0 -128 -58 -128 -134s53 -133 128 -133c47 0 91 23 116 62zM245 720c28 0 49 -7 90 -26
c37 -17 56 -24 73 -24c23 0 38 15 45 44l65 -9c-3 -76 -33 -136 -100 -136c-28 0 -47 8 -98 29c-30 14 -52 21 -65 21c-22 0 -37 -14 -45 -43l-65 8c3 77 33 136 100 136z" />
    <glyph glyph-name="ae" unicode="&#xe6;" horiz-adv-x="962" 
d="M922 250v-41h-383c12 -68 57 -106 129 -106c53 0 101 17 133 46l81 -73c-59 -55 -138 -86 -223 -86c-84 0 -157 34 -208 91c-63 -61 -134 -91 -214 -91c-124 0 -195 62 -195 157c0 96 72 153 189 153h158v9c0 55 -36 84 -104 84c-51 0 -103 -16 -154 -48l-45 100
c73 43 157 65 238 65c73 0 128 -18 163 -55c49 37 105 55 169 55c157 0 266 -112 266 -260zM538 290h239c0 63 -50 110 -119 110c-65 0 -109 -39 -120 -110zM415 137c-13 26 -22 56 -25 89h-112c-57 0 -89 -24 -89 -68s31 -69 94 -69c40 0 91 17 132 48z" />
    <glyph glyph-name="ae.ss01" horiz-adv-x="1009" 
d="M969 250v-41h-383c12 -68 57 -106 130 -106c53 0 100 17 132 46l85 -73c-53 -55 -125 -86 -204 -86c-54 0 -103 16 -146 49v-39h-148v59c-40 -44 -98 -69 -161 -69c-132 0 -229 111 -229 260s97 260 229 260c63 0 121 -25 161 -69v59h148v-38c43 32 91 48 145 48
c141 0 241 -113 241 -260zM585 290h240c0 63 -51 110 -120 110c-65 0 -109 -39 -120 -110zM435 179v142c-24 39 -66 63 -113 63c-37 0 -69 -13 -94 -39c-25 -25 -37 -57 -37 -95s12 -70 37 -95s57 -38 94 -38c47 0 89 23 113 62z" />
    <glyph glyph-name="ae.ss02" horiz-adv-x="961" 
d="M800 149l81 -73c-57 -55 -137 -86 -222 -86s-159 34 -208 90c-63 -60 -134 -90 -214 -90c-124 0 -195 62 -195 157c0 96 72 153 189 153h158v9c0 55 -36 84 -104 84c-51 0 -103 -16 -154 -48l-45 100c73 43 157 65 238 65c72 0 126 -18 163 -55c47 37 103 55 168 55
c153 0 260 -105 266 -248l-365 -104c23 -37 60 -55 112 -55c55 0 99 15 132 46zM534 251v-4l240 68c-11 49 -58 85 -117 85c-79 0 -123 -53 -123 -149zM415 137c-13 26 -22 56 -25 89h-112c-57 0 -89 -24 -89 -68s31 -69 94 -69c40 0 91 17 132 48z" />
    <glyph glyph-name="ae.ss03" horiz-adv-x="1010" 
d="M849 149l84 -73c-52 -55 -126 -86 -203 -86c-55 0 -104 17 -147 50v-40h-148v59c-40 -44 -98 -69 -161 -69c-132 0 -229 111 -229 260s97 260 229 260c63 0 121 -25 161 -69v59h148v-39c42 33 91 49 146 49c136 0 236 -105 240 -248l-364 -104c23 -37 60 -55 111 -55
c53 0 101 17 133 46zM583 251v-4l239 68c-11 49 -57 85 -116 85c-77 0 -123 -54 -123 -149zM435 179v142c-24 39 -66 63 -113 63c-37 0 -69 -13 -94 -39c-25 -25 -37 -57 -37 -95s12 -70 37 -95s57 -38 94 -38c47 0 89 23 113 62z" />
    <glyph glyph-name="b" unicode="b" horiz-adv-x="650" 
d="M606 250c0 -149 -100 -260 -231 -260c-64 0 -120 25 -160 68v-58h-149v700h149v-257c40 43 96 67 160 67c131 0 231 -111 231 -260zM459 250c0 76 -53 134 -125 134c-51 0 -95 -23 -119 -62v-143c24 -39 68 -62 119 -62c72 0 125 57 125 133z" />
    <glyph glyph-name="c" unicode="c" horiz-adv-x="577" 
d="M536 402l-113 -63c-27 30 -62 45 -105 45c-70 0 -128 -58 -128 -134s58 -133 128 -133c45 0 81 16 107 47l114 -63c-51 -68 -134 -111 -223 -111c-147 -3 -274 119 -271 260c-3 141 124 263 271 260c88 0 169 -40 220 -108z" />
    <glyph glyph-name="cacute" unicode="&#x107;" horiz-adv-x="577" 
d="M536 402l-113 -63c-27 30 -62 45 -105 45c-70 0 -128 -58 -128 -134s58 -133 128 -133c45 0 81 16 107 47l114 -63c-51 -68 -134 -111 -223 -111c-147 -3 -274 119 -271 260c-3 141 124 263 271 260c88 0 169 -40 220 -108zM489 723l-144 -168h-129l118 168h155z" />
    <glyph glyph-name="ccaron" unicode="&#x10d;" horiz-adv-x="577" 
d="M536 402l-113 -63c-27 30 -62 45 -105 45c-70 0 -128 -58 -128 -134s58 -133 128 -133c45 0 81 16 107 47l114 -63c-51 -68 -134 -111 -223 -111c-147 -3 -274 119 -271 260c-3 141 124 263 271 260c88 0 169 -40 220 -108zM508 723l-122 -168h-157l-122 168h124l76 -89
l77 89h124z" />
    <glyph glyph-name="ccedilla" unicode="&#xe7;" horiz-adv-x="577" 
d="M328 -10l-15 -32h9c59 0 96 -36 96 -89c0 -61 -52 -96 -121 -96c-41 0 -77 9 -108 26l20 51c20 -10 43 -15 70 -15c32 0 53 20 53 44c0 23 -15 36 -39 36c-13 0 -24 -3 -33 -10l-26 26l30 64c-125 22 -219 130 -219 255c-3 141 124 263 271 260c88 0 169 -40 220 -108
l-113 -63c-27 30 -62 45 -105 45c-70 0 -128 -58 -128 -134s58 -133 128 -133c45 0 81 16 107 47l114 -63c-48 -65 -127 -107 -211 -111z" />
    <glyph glyph-name="ccircumflex" unicode="&#x109;" horiz-adv-x="577" 
d="M536 402l-113 -63c-27 30 -62 45 -105 45c-70 0 -128 -58 -128 -134s58 -133 128 -133c45 0 81 16 107 47l114 -63c-51 -68 -134 -111 -223 -111c-147 -3 -274 119 -271 260c-3 141 124 263 271 260c88 0 169 -40 220 -108zM386 723l122 -168h-124l-77 88l-76 -88h-124
l122 168h157z" />
    <glyph glyph-name="cdotaccent" unicode="&#x10b;" horiz-adv-x="577" 
d="M536 402l-113 -63c-27 30 -62 45 -105 45c-70 0 -128 -58 -128 -134s58 -133 128 -133c45 0 81 16 107 47l114 -63c-51 -68 -134 -111 -223 -111c-147 -3 -274 119 -271 260c-3 141 124 263 271 260c88 0 169 -40 220 -108zM372 648c0 -37 -28 -64 -64 -64
c-39 0 -66 27 -66 64c0 36 29 64 66 64c36 0 64 -28 64 -64z" />
    <glyph glyph-name="d" unicode="d" horiz-adv-x="648" 
d="M435 700h149v-700h-149v58c-39 -43 -95 -68 -159 -68c-130 -3 -234 113 -231 260c-3 147 101 263 231 260c64 0 120 -24 159 -67v257zM435 178v145c-24 37 -68 61 -119 61c-35 0 -65 -13 -89 -39s-36 -58 -36 -95c0 -76 53 -133 125 -133c51 0 95 24 119 61z" />
    <glyph glyph-name="eth" unicode="&#xf0;" horiz-adv-x="654" 
d="M599 294c0 -170 -113 -304 -282 -304c-167 0 -272 92 -272 230c0 135 100 226 249 226c53 0 100 -11 142 -33c-11 38 -28 71 -53 99l-49 -46l-58 50l45 43c-31 17 -70 30 -117 41l24 110c75 -11 138 -31 188 -62l65 61l58 -51l-60 -56c77 -73 120 -177 120 -308zM452 286
c-36 36 -82 54 -138 54c-73 0 -121 -46 -121 -118c0 -73 48 -118 131 -118c81 0 128 71 128 182z" />
    <glyph glyph-name="dcaron" unicode="&#x10f;" horiz-adv-x="817" 
d="M435 700h149v-700h-149v58c-39 -43 -95 -68 -159 -68c-130 -3 -234 113 -231 260c-3 147 101 263 231 260c64 0 120 -24 159 -67v257zM435 178v145c-24 37 -68 61 -119 61c-35 0 -65 -13 -89 -39s-36 -58 -36 -95c0 -76 53 -133 125 -133c51 0 95 24 119 61zM815 652
c0 -11 -4 -24 -12 -38l-110 -175l-44 20l49 128c-27 11 -44 37 -44 65c0 40 36 73 80 73s81 -33 81 -73z" />
    <glyph glyph-name="dslash" unicode="&#x111;" horiz-adv-x="648" 
d="M656 646v-98h-72v-548h-149v58c-39 -43 -95 -68 -159 -68c-130 -3 -234 113 -231 260c-3 147 101 263 231 260c64 0 120 -24 159 -67v105h-108v98h108v54h149v-54h72zM435 178v145c-24 37 -68 61 -119 61c-35 0 -65 -13 -89 -39s-36 -58 -36 -95c0 -76 53 -133 125 -133
c51 0 95 24 119 61z" />
    <glyph glyph-name="e" unicode="e" horiz-adv-x="617" 
d="M577 250v-41h-383c12 -68 57 -106 130 -106c53 0 100 17 132 46l81 -73c-57 -55 -137 -86 -222 -86c-154 -2 -273 118 -270 261c-3 143 114 261 266 259c157 0 266 -112 266 -260zM193 291h240c0 63 -51 109 -120 109c-65 0 -109 -40 -120 -109z" />
    <glyph glyph-name="e.ss01" horiz-adv-x="617" 
d="M456 149l81 -73c-57 -55 -137 -86 -222 -86c-154 -2 -273 118 -270 261c-3 143 114 261 266 259c153 0 260 -105 266 -248l-365 -104c23 -37 60 -55 112 -55c55 0 99 15 132 46zM190 251v-4l240 68c-11 49 -58 85 -117 85c-79 0 -123 -53 -123 -149z" />
    <glyph glyph-name="eacute" unicode="&#xe9;" horiz-adv-x="617" 
d="M577 250v-41h-383c12 -68 57 -106 130 -106c53 0 100 17 132 46l81 -73c-57 -55 -137 -86 -222 -86c-154 -2 -273 118 -270 261c-3 143 114 261 266 259c157 0 266 -112 266 -260zM193 291h240c0 63 -51 109 -120 109c-65 0 -109 -40 -120 -109zM499 723l-144 -168h-129
l118 168h155z" />
    <glyph glyph-name="eacute.ss01" horiz-adv-x="617" 
d="M456 149l81 -73c-57 -55 -137 -86 -222 -86c-154 -2 -273 118 -270 261c-3 143 114 261 266 259c153 0 260 -105 266 -248l-365 -104c23 -37 60 -55 112 -55c55 0 99 15 132 46zM190 251v-4l240 68c-11 49 -58 85 -117 85c-79 0 -123 -53 -123 -149zM499 723l-144 -168
h-129l118 168h155z" />
    <glyph glyph-name="ebreve" unicode="&#x115;" horiz-adv-x="617" 
d="M577 250v-41h-383c12 -68 57 -106 130 -106c53 0 100 17 132 46l81 -73c-57 -55 -137 -86 -222 -86c-154 -2 -273 118 -270 261c-3 143 114 261 266 259c157 0 266 -112 266 -260zM193 291h240c0 63 -51 109 -120 109c-65 0 -109 -40 -120 -109zM318 565
c-102 0 -184 67 -186 161h99c1 -44 36 -69 87 -69c49 0 85 25 86 69h99c-2 -94 -82 -161 -185 -161z" />
    <glyph glyph-name="ebreve.ss01" horiz-adv-x="617" 
d="M456 149l81 -73c-57 -55 -137 -86 -222 -86c-154 -2 -273 118 -270 261c-3 143 114 261 266 259c153 0 260 -105 266 -248l-365 -104c23 -37 60 -55 112 -55c55 0 99 15 132 46zM190 251v-4l240 68c-11 49 -58 85 -117 85c-79 0 -123 -53 -123 -149zM318 565
c-102 0 -184 67 -186 161h99c1 -44 36 -69 87 -69c49 0 85 25 86 69h99c-2 -94 -82 -161 -185 -161z" />
    <glyph glyph-name="ecaron" unicode="&#x11b;" horiz-adv-x="617" 
d="M577 250v-41h-383c12 -68 57 -106 130 -106c53 0 100 17 132 46l81 -73c-57 -55 -137 -86 -222 -86c-154 -2 -273 118 -270 261c-3 143 114 261 266 259c157 0 266 -112 266 -260zM193 291h240c0 63 -51 109 -120 109c-65 0 -109 -40 -120 -109zM518 723l-122 -168h-157
l-122 168h124l76 -89l77 89h124z" />
    <glyph glyph-name="ecaron.ss01" horiz-adv-x="617" 
d="M456 149l81 -73c-57 -55 -137 -86 -222 -86c-154 -2 -273 118 -270 261c-3 143 114 261 266 259c153 0 260 -105 266 -248l-365 -104c23 -37 60 -55 112 -55c55 0 99 15 132 46zM190 251v-4l240 68c-11 49 -58 85 -117 85c-79 0 -123 -53 -123 -149zM518 723l-122 -168
h-157l-122 168h124l76 -89l77 89h124z" />
    <glyph glyph-name="ecircumflex" unicode="&#xea;" horiz-adv-x="617" 
d="M577 250v-41h-383c12 -68 57 -106 130 -106c53 0 100 17 132 46l81 -73c-57 -55 -137 -86 -222 -86c-154 -2 -273 118 -270 261c-3 143 114 261 266 259c157 0 266 -112 266 -260zM193 291h240c0 63 -51 109 -120 109c-65 0 -109 -40 -120 -109zM396 723l122 -168h-124
l-77 88l-76 -88h-124l122 168h157z" />
    <glyph glyph-name="ecircumflex.ss01" horiz-adv-x="617" 
d="M456 149l81 -73c-57 -55 -137 -86 -222 -86c-154 -2 -273 118 -270 261c-3 143 114 261 266 259c153 0 260 -105 266 -248l-365 -104c23 -37 60 -55 112 -55c55 0 99 15 132 46zM190 251v-4l240 68c-11 49 -58 85 -117 85c-79 0 -123 -53 -123 -149zM396 723l122 -168
h-124l-77 88l-76 -88h-124l122 168h157z" />
    <glyph glyph-name="edieresis" unicode="&#xeb;" horiz-adv-x="617" 
d="M577 250v-41h-383c12 -68 57 -106 130 -106c53 0 100 17 132 46l81 -73c-57 -55 -137 -86 -222 -86c-154 -2 -273 118 -270 261c-3 143 114 261 266 259c157 0 266 -112 266 -260zM193 291h240c0 63 -51 109 -120 109c-65 0 -109 -40 -120 -109zM273 648
c0 -37 -27 -65 -64 -65s-65 28 -65 65s28 64 65 64s64 -27 64 -64zM490 648c0 -37 -28 -65 -65 -65s-64 28 -64 65s27 64 64 64s65 -27 65 -64z" />
    <glyph glyph-name="edieresis.ss01" horiz-adv-x="617" 
d="M456 149l81 -73c-57 -55 -137 -86 -222 -86c-154 -2 -273 118 -270 261c-3 143 114 261 266 259c153 0 260 -105 266 -248l-365 -104c23 -37 60 -55 112 -55c55 0 99 15 132 46zM190 251v-4l240 68c-11 49 -58 85 -117 85c-79 0 -123 -53 -123 -149zM273 648
c0 -37 -27 -65 -64 -65s-65 28 -65 65s28 64 65 64s64 -27 64 -64zM490 648c0 -37 -28 -65 -65 -65s-64 28 -64 65s27 64 64 64s65 -27 65 -64z" />
    <glyph glyph-name="egrave" unicode="&#xe8;" horiz-adv-x="617" 
d="M577 250v-41h-383c12 -68 57 -106 130 -106c53 0 100 17 132 46l81 -73c-57 -55 -137 -86 -222 -86c-154 -2 -273 118 -270 261c-3 143 114 261 266 259c157 0 266 -112 266 -260zM193 291h240c0 63 -51 109 -120 109c-65 0 -109 -40 -120 -109zM290 723l118 -168h-129
l-144 168h155z" />
    <glyph glyph-name="egrave.ss01" horiz-adv-x="617" 
d="M456 149l81 -73c-57 -55 -137 -86 -222 -86c-154 -2 -273 118 -270 261c-3 143 114 261 266 259c153 0 260 -105 266 -248l-365 -104c23 -37 60 -55 112 -55c55 0 99 15 132 46zM190 251v-4l240 68c-11 49 -58 85 -117 85c-79 0 -123 -53 -123 -149zM290 723l118 -168
h-129l-144 168h155z" />
    <glyph glyph-name="eogonek" unicode="&#x119;" horiz-adv-x="617" 
d="M577 250v-41h-383c12 -68 57 -106 130 -106c53 0 100 17 132 46l81 -73c-19 -17 -40 -33 -64 -46l-16 -23c-21 -29 -36 -62 -36 -83c0 -32 24 -51 56 -51c15 0 29 3 43 10l19 -68c-26 -13 -58 -20 -95 -20c-71 0 -116 34 -116 93c0 30 12 63 36 99l5 7
c-16 -3 -34 -4 -54 -4c-154 -2 -273 118 -270 261c-3 143 114 261 266 259c157 0 266 -112 266 -260zM193 291h240c0 63 -51 109 -120 109c-65 0 -109 -40 -120 -109z" />
    <glyph glyph-name="eogonek.ss01" horiz-adv-x="617" 
d="M520 -117l19 -68c-26 -13 -58 -20 -95 -20c-71 0 -116 34 -116 93c0 30 12 63 36 99l5 7c-16 -3 -34 -4 -54 -4c-154 -2 -273 118 -270 261c-3 143 114 261 266 259c153 0 260 -105 266 -248l-365 -104c23 -37 60 -55 112 -55c55 0 99 15 132 46l81 -73
c-19 -17 -40 -33 -64 -46l-16 -23c-21 -29 -36 -62 -36 -83c0 -32 24 -51 56 -51c15 0 29 3 43 10zM190 251v-4l240 68c-11 49 -58 85 -117 85c-79 0 -123 -53 -123 -149z" />
    <glyph glyph-name="f" unicode="f" horiz-adv-x="404" 
d="M242 534v-34h135v-116h-135v-384h-150v384h-69v116h69v37c0 119 74 173 181 173c41 0 83 -7 126 -20l-20 -97c-21 8 -43 12 -68 12c-40 0 -69 -24 -69 -71z" />
    <glyph glyph-name="g" unicode="g" horiz-adv-x="648" 
d="M435 500h149v-468c0 -81 -24 -141 -73 -180c-48 -39 -111 -59 -189 -59c-103 0 -191 21 -265 64l45 100c58 -33 123 -50 195 -50c83 0 138 40 138 125v29c-39 -43 -95 -67 -159 -67c-130 -3 -234 113 -231 258c-3 145 101 260 231 258c64 0 120 -24 159 -67v57zM435 180
v145c-24 37 -68 60 -119 60c-72 0 -125 -57 -125 -133s53 -133 125 -133c51 0 95 24 119 61z" />
    <glyph glyph-name="g.ss01" horiz-adv-x="657" 
d="M630 -86c0 -97 -116 -161 -299 -161c-185 0 -301 64 -301 161c0 52 32 95 91 123c-31 17 -47 40 -47 64c0 27 18 52 54 77c-51 35 -79 84 -79 140c0 111 111 192 267 192c34 0 64 -3 91 -10h207v-83l-62 -6c20 -29 30 -60 30 -93c0 -111 -113 -191 -266 -191
c-32 0 -63 4 -94 11c-14 -11 -21 -22 -21 -34c0 -13 13 -28 32 -35c28 5 61 7 98 7c183 0 299 -62 299 -162zM201 318c0 -51 46 -85 115 -85c68 0 115 34 115 85s-47 86 -115 86c-69 0 -115 -34 -115 -86zM479 -86c0 40 -56 64 -148 64c-93 0 -150 -24 -150 -64
c0 -39 57 -63 150 -63c92 0 148 24 148 63z" />
    <glyph glyph-name="gbreve" unicode="&#x11f;" horiz-adv-x="648" 
d="M435 500h149v-468c0 -81 -24 -141 -73 -180c-48 -39 -111 -59 -189 -59c-103 0 -191 21 -265 64l45 100c58 -33 123 -50 195 -50c83 0 138 40 138 125v29c-39 -43 -95 -67 -159 -67c-130 -3 -234 113 -231 258c-3 145 101 260 231 258c64 0 120 -24 159 -67v57zM435 180
v145c-24 37 -68 60 -119 60c-72 0 -125 -57 -125 -133s53 -133 125 -133c51 0 95 24 119 61zM344 565c-102 0 -184 67 -186 161h99c1 -44 36 -69 87 -69c49 0 85 25 86 69h99c-2 -94 -82 -161 -185 -161z" />
    <glyph glyph-name="gbreve.ss01" horiz-adv-x="657" 
d="M630 -86c0 -97 -116 -161 -299 -161c-185 0 -301 64 -301 161c0 52 32 95 91 123c-31 17 -47 40 -47 64c0 27 18 52 54 77c-51 35 -79 84 -79 140c0 111 111 192 267 192c34 0 64 -3 91 -10h207v-83l-62 -6c20 -29 30 -60 30 -93c0 -111 -113 -191 -266 -191
c-32 0 -63 4 -94 11c-14 -11 -21 -22 -21 -34c0 -13 13 -28 32 -35c28 5 61 7 98 7c183 0 299 -62 299 -162zM201 318c0 -51 46 -85 115 -85c68 0 115 34 115 85s-47 86 -115 86c-69 0 -115 -34 -115 -86zM479 -86c0 40 -56 64 -148 64c-93 0 -150 -24 -150 -64
c0 -39 57 -63 150 -63c92 0 148 24 148 63zM324 565c-102 0 -184 67 -186 161h99c1 -44 36 -69 87 -69c49 0 85 25 86 69h99c-2 -94 -82 -161 -185 -161z" />
    <glyph glyph-name="gcircumflex" unicode="&#x11d;" horiz-adv-x="648" 
d="M435 500h149v-468c0 -81 -24 -141 -73 -180c-48 -39 -111 -59 -189 -59c-103 0 -191 21 -265 64l45 100c58 -33 123 -50 195 -50c83 0 138 40 138 125v29c-39 -43 -95 -67 -159 -67c-130 -3 -234 113 -231 258c-3 145 101 260 231 258c64 0 120 -24 159 -67v57zM435 180
v145c-24 37 -68 60 -119 60c-72 0 -125 -57 -125 -133s53 -133 125 -133c51 0 95 24 119 61zM422 723l122 -168h-124l-77 88l-76 -88h-124l122 168h157z" />
    <glyph glyph-name="gcircumflex.ss01" horiz-adv-x="657" 
d="M630 -86c0 -97 -116 -161 -299 -161c-185 0 -301 64 -301 161c0 52 32 95 91 123c-31 17 -47 40 -47 64c0 27 18 52 54 77c-51 35 -79 84 -79 140c0 111 111 192 267 192c34 0 64 -3 91 -10h207v-83l-62 -6c20 -29 30 -60 30 -93c0 -111 -113 -191 -266 -191
c-32 0 -63 4 -94 11c-14 -11 -21 -22 -21 -34c0 -13 13 -28 32 -35c28 5 61 7 98 7c183 0 299 -62 299 -162zM201 318c0 -51 46 -85 115 -85c68 0 115 34 115 85s-47 86 -115 86c-69 0 -115 -34 -115 -86zM479 -86c0 40 -56 64 -148 64c-93 0 -150 -24 -150 -64
c0 -39 57 -63 150 -63c92 0 148 24 148 63zM402 723l122 -168h-124l-77 88l-76 -88h-124l122 168h157z" />
    <glyph glyph-name="uni0123" unicode="&#x123;" horiz-adv-x="648" 
d="M435 500h149v-468c0 -81 -24 -141 -73 -180c-48 -39 -111 -59 -189 -59c-103 0 -191 21 -265 64l45 100c58 -33 123 -50 195 -50c83 0 138 40 138 125v29c-39 -43 -95 -67 -159 -67c-130 -3 -234 113 -231 258c-3 145 101 260 231 258c64 0 120 -24 159 -67v57zM435 180
v145c-24 37 -68 60 -119 60c-72 0 -125 -57 -125 -133s53 -133 125 -133c51 0 95 24 119 61zM274 604c0 11 3 20 10 29l94 134l37 -17l-39 -93c24 -11 39 -30 39 -53c0 -32 -31 -57 -70 -57c-40 0 -71 25 -71 57z" />
    <glyph glyph-name="uni0123.ss01" horiz-adv-x="657" 
d="M630 -86c0 -97 -116 -161 -299 -161c-185 0 -301 64 -301 161c0 52 32 95 91 123c-31 17 -47 40 -47 64c0 27 18 52 54 77c-51 35 -79 84 -79 140c0 111 111 192 267 192c34 0 64 -3 91 -10h207v-83l-62 -6c20 -29 30 -60 30 -93c0 -111 -113 -191 -266 -191
c-32 0 -63 4 -94 11c-14 -11 -21 -22 -21 -34c0 -13 13 -28 32 -35c28 5 61 7 98 7c183 0 299 -62 299 -162zM201 318c0 -51 46 -85 115 -85c68 0 115 34 115 85s-47 86 -115 86c-69 0 -115 -34 -115 -86zM479 -86c0 40 -56 64 -148 64c-93 0 -150 -24 -150 -64
c0 -39 57 -63 150 -63c92 0 148 24 148 63zM254 604c0 11 3 20 10 29l94 134l37 -17l-39 -93c24 -11 39 -30 39 -53c0 -32 -31 -57 -70 -57c-40 0 -71 25 -71 57z" />
    <glyph glyph-name="gdotaccent" unicode="&#x121;" horiz-adv-x="648" 
d="M435 500h149v-468c0 -81 -24 -141 -73 -180c-48 -39 -111 -59 -189 -59c-103 0 -191 21 -265 64l45 100c58 -33 123 -50 195 -50c83 0 138 40 138 125v29c-39 -43 -95 -67 -159 -67c-130 -3 -234 113 -231 258c-3 145 101 260 231 258c64 0 120 -24 159 -67v57zM435 180
v145c-24 37 -68 60 -119 60c-72 0 -125 -57 -125 -133s53 -133 125 -133c51 0 95 24 119 61zM408 648c0 -37 -28 -64 -64 -64c-39 0 -66 27 -66 64c0 36 29 64 66 64c36 0 64 -28 64 -64z" />
    <glyph glyph-name="gdotaccent.ss01" horiz-adv-x="657" 
d="M630 -86c0 -97 -116 -161 -299 -161c-185 0 -301 64 -301 161c0 52 32 95 91 123c-31 17 -47 40 -47 64c0 27 18 52 54 77c-51 35 -79 84 -79 140c0 111 111 192 267 192c34 0 64 -3 91 -10h207v-83l-62 -6c20 -29 30 -60 30 -93c0 -111 -113 -191 -266 -191
c-32 0 -63 4 -94 11c-14 -11 -21 -22 -21 -34c0 -13 13 -28 32 -35c28 5 61 7 98 7c183 0 299 -62 299 -162zM201 318c0 -51 46 -85 115 -85c68 0 115 34 115 85s-47 86 -115 86c-69 0 -115 -34 -115 -86zM479 -86c0 40 -56 64 -148 64c-93 0 -150 -24 -150 -64
c0 -39 57 -63 150 -63c92 0 148 24 148 63zM388 648c0 -37 -28 -64 -64 -64c-39 0 -66 27 -66 64c0 36 29 64 66 64c36 0 64 -28 64 -64z" />
    <glyph glyph-name="h" unicode="h" horiz-adv-x="645" 
d="M588 339v-339h-148v295c0 59 -34 94 -94 94c-45 0 -92 -18 -131 -51v-338h-149v700h149v-258c59 43 129 68 196 68c109 0 177 -64 177 -171z" />
    <glyph glyph-name="hbar" unicode="&#x127;" horiz-adv-x="645" 
d="M588 339v-339h-148v295c0 59 -34 94 -94 94c-45 0 -92 -18 -131 -51v-338h-149v548h-65v98h65v54h149v-54h144v-98h-144v-106c59 43 129 68 196 68c109 0 177 -64 177 -171z" />
    <glyph glyph-name="hcircumflex" unicode="&#x125;" horiz-adv-x="645" 
d="M588 339v-339h-148v295c0 59 -34 94 -94 94c-45 0 -92 -18 -131 -51v-338h-149v700h149v-258c59 43 129 68 196 68c109 0 177 -64 177 -171zM227 923l122 -168h-124l-77 88l-76 -88h-124l122 168h157z" />
    <glyph glyph-name="i" unicode="i" horiz-adv-x="294" 
d="M227 625c0 -39 -36 -71 -80 -71s-79 32 -79 71s35 71 79 71s80 -32 80 -71zM222 500v-500h-149v500h149z" />
    <glyph glyph-name="dotlessi" unicode="&#x131;" horiz-adv-x="294" 
d="M222 500v-500h-149v500h149z" />
    <glyph glyph-name="iacute" unicode="&#xed;" horiz-adv-x="294" 
d="M222 500v-500h-149v500h149zM332 723l-144 -168h-129l118 168h155z" />
    <glyph glyph-name="icircumflex" unicode="&#xee;" horiz-adv-x="294" 
d="M222 500v-500h-149v500h149zM229 723l122 -168h-124l-77 88l-76 -88h-124l122 168h157z" />
    <glyph glyph-name="idieresis" unicode="&#xef;" horiz-adv-x="294" 
d="M222 500v-500h-149v500h149zM106 648c0 -37 -27 -65 -64 -65s-65 28 -65 65s28 64 65 64s64 -27 64 -64zM323 648c0 -37 -28 -65 -65 -65s-64 28 -64 65s27 64 64 64s65 -27 65 -64z" />
    <glyph glyph-name="i.loclTRK" horiz-adv-x="294" 
d="M222 500v-500h-149v500h149zM215 648c0 -37 -28 -64 -64 -64c-39 0 -66 27 -66 64c0 36 29 64 66 64c36 0 64 -28 64 -64z" />
    <glyph glyph-name="igrave" unicode="&#xec;" horiz-adv-x="294" 
d="M222 500v-500h-149v500h149zM123 723l118 -168h-129l-144 168h155z" />
    <glyph glyph-name="ij" unicode="&#x133;" horiz-adv-x="584" 
d="M227 625c0 -39 -36 -71 -80 -71s-79 32 -79 71s35 71 79 71s80 -32 80 -71zM222 500v-500h-149v500h149zM521 625c0 -39 -35 -71 -79 -71s-79 32 -79 71s35 71 79 71s79 -32 79 -71zM517 500v-533c0 -115 -74 -172 -174 -172c-35 0 -68 5 -98 16l15 85c10 -3 19 -5 26 -5
c47 0 82 33 82 85v524h149z" />
    <glyph glyph-name="imacron" unicode="&#x12b;" horiz-adv-x="294" 
d="M222 500v-500h-149v500h149zM316 694v-92h-331v92h331z" />
    <glyph glyph-name="iogonek" unicode="&#x12f;" horiz-adv-x="294" 
d="M68 625c0 39 35 71 79 71s80 -32 80 -71s-36 -71 -80 -71s-79 32 -79 71zM255 -117l19 -68c-26 -13 -58 -20 -95 -20c-71 0 -115 34 -115 93c0 31 12 64 36 99l9 13h-36v500h149v-500h-30l-9 -13c-17 -27 -26 -48 -26 -63c0 -32 24 -51 55 -51c15 0 30 3 43 10z" />
    <glyph glyph-name="itilde" unicode="&#x129;" horiz-adv-x="294" 
d="M222 500v-500h-149v500h149zM64 720c28 0 49 -7 90 -26c37 -17 56 -24 73 -24c23 0 38 15 45 44l65 -9c-3 -76 -33 -136 -100 -136c-28 0 -47 8 -98 29c-30 14 -52 21 -65 21c-22 0 -37 -14 -45 -43l-65 8c3 77 33 136 100 136z" />
    <glyph glyph-name="j" unicode="j" horiz-adv-x="291" 
d="M227 625c0 -39 -35 -71 -79 -71s-79 32 -79 71s35 71 79 71s79 -32 79 -71zM223 500v-533c0 -115 -74 -172 -174 -172c-35 0 -68 5 -98 16l15 85c10 -3 19 -5 26 -5c47 0 82 33 82 85v524h149z" />
    <glyph glyph-name="uni0237" unicode="&#x237;" horiz-adv-x="291" 
d="M223 500v-533c0 -115 -74 -172 -174 -172c-35 0 -68 5 -98 16l15 85c10 -3 19 -5 26 -5c47 0 82 33 82 85v524h149z" />
    <glyph glyph-name="jcircumflex" unicode="&#x135;" horiz-adv-x="291" 
d="M223 500v-533c0 -115 -74 -172 -174 -172c-35 0 -68 5 -98 16l15 85c10 -3 19 -5 26 -5c47 0 82 33 82 85v524h149zM223 723l122 -168h-124l-77 88l-76 -88h-124l122 168h157z" />
    <glyph glyph-name="k" unicode="k" horiz-adv-x="615" 
d="M600 0h-157l-130 205l-98 -106v-99h-149v700h149v-420l200 220h172l-175 -188z" />
    <glyph glyph-name="uni0137" unicode="&#x137;" horiz-adv-x="615" 
d="M600 0h-157l-130 205l-98 -106v-99h-149v700h149v-420l200 220h172l-175 -188zM386 -112c0 -11 -3 -20 -10 -29l-94 -134l-37 17l39 94c-24 9 -39 29 -39 52c0 33 31 58 71 58c39 0 70 -25 70 -58z" />
    <glyph glyph-name="l" unicode="l" horiz-adv-x="281" 
d="M215 700v-700h-149v700h149z" />
    <glyph glyph-name="l.ss04" horiz-adv-x="339" 
d="M66 147v553h149v-543c0 -31 15 -47 43 -47c15 0 29 3 41 8l23 -107c-27 -13 -72 -22 -108 -22c-97 0 -148 53 -148 158z" />
    <glyph glyph-name="lacute" unicode="&#x13a;" horiz-adv-x="281" 
d="M215 700v-700h-149v700h149zM326 923l-144 -168h-129l118 168h155z" />
    <glyph glyph-name="lacute.ss04" horiz-adv-x="339" 
d="M66 147v553h149v-543c0 -31 15 -47 43 -47c15 0 29 3 41 8l23 -107c-27 -13 -72 -22 -108 -22c-97 0 -148 53 -148 158zM326 923l-144 -168h-129l118 168h155z" />
    <glyph glyph-name="lcaron" unicode="&#x13e;" horiz-adv-x="454" 
d="M215 700v-700h-149v700h149zM452 652c0 -11 -4 -24 -12 -38l-110 -175l-44 20l49 128c-27 11 -44 37 -44 65c0 40 36 73 80 73s81 -33 81 -73z" />
    <glyph glyph-name="lcaron.ss04" horiz-adv-x="418" 
d="M66 147v553h149v-543c0 -31 15 -47 43 -47c15 0 29 3 41 8l23 -107c-27 -13 -72 -22 -108 -22c-97 0 -148 53 -148 158zM452 652c0 -11 -4 -24 -12 -38l-110 -175l-44 20l49 128c-27 11 -44 37 -44 65c0 40 36 73 80 73s81 -33 81 -73z" />
    <glyph glyph-name="uni013C" unicode="&#x13c;" horiz-adv-x="281" 
d="M215 700v-700h-149v700h149zM218 -112c0 -11 -3 -20 -10 -29l-94 -134l-37 17l39 94c-24 9 -39 29 -39 52c0 33 31 58 71 58c39 0 70 -25 70 -58z" />
    <glyph glyph-name="uni013C.ss04" horiz-adv-x="339" 
d="M66 147v553h149v-543c0 -31 15 -47 43 -47c15 0 29 3 41 8l23 -107c-27 -13 -72 -22 -108 -22c-97 0 -148 53 -148 158zM272 -112c0 -11 -3 -20 -10 -29l-94 -134l-37 17l39 94c-24 9 -39 29 -39 52c0 33 31 58 71 58c39 0 70 -25 70 -58z" />
    <glyph glyph-name="ldot" unicode="&#x140;" horiz-adv-x="475" 
d="M215 700v-700h-149v700h149zM455 374c0 -41 -36 -73 -81 -73c-44 0 -80 32 -80 73c0 40 36 73 80 73c45 0 81 -33 81 -73z" />
    <glyph glyph-name="ldot.ss04" horiz-adv-x="475" 
d="M66 147v553h149v-543c0 -31 15 -47 43 -47c15 0 29 3 41 8l23 -107c-27 -13 -72 -22 -108 -22c-97 0 -148 53 -148 158zM455 374c0 -41 -36 -73 -81 -73c-44 0 -80 32 -80 73c0 40 36 73 80 73c45 0 81 -33 81 -73z" />
    <glyph glyph-name="lslash" unicode="&#x142;" horiz-adv-x="281" 
d="M284 517v-146l-69 -39v-332h-149v249l-69 -39v147l69 38v305h149v-221z" />
    <glyph glyph-name="lslash.ss04" horiz-adv-x="339" 
d="M299 118l23 -107c-27 -13 -72 -22 -108 -22c-97 0 -148 53 -148 158v101l-69 -38v147l69 38v305h149v-222l75 41v-146l-75 -42v-174c0 -31 15 -47 43 -47c15 0 29 3 41 8z" />
    <glyph glyph-name="m" unicode="m" horiz-adv-x="979" 
d="M545 434c68 56 128 76 201 76c104 0 177 -60 177 -171v-339h-150v295c0 61 -33 95 -86 95c-47 0 -88 -14 -125 -43c3 -19 5 -41 5 -65v-282h-148v295c0 61 -34 95 -87 95c-43 0 -79 -13 -119 -44v-346h-149v500h149v-64c57 49 119 74 185 74c65 0 119 -25 147 -76z" />
    <glyph glyph-name="n" unicode="n" horiz-adv-x="645" 
d="M588 339v-339h-148v295c0 59 -34 94 -94 94c-45 0 -92 -18 -131 -51v-338h-149v500h149v-58c59 43 129 68 196 68c109 0 177 -64 177 -171z" />
    <glyph glyph-name="nacute" unicode="&#x144;" horiz-adv-x="645" 
d="M588 339v-339h-148v295c0 59 -34 94 -94 94c-45 0 -92 -18 -131 -51v-338h-149v500h149v-58c59 43 129 68 196 68c109 0 177 -64 177 -171zM509 723l-144 -168h-129l118 168h155z" />
    <glyph glyph-name="ncaron" unicode="&#x148;" horiz-adv-x="645" 
d="M588 339v-339h-148v295c0 59 -34 94 -94 94c-45 0 -92 -18 -131 -51v-338h-149v500h149v-58c59 43 129 68 196 68c109 0 177 -64 177 -171zM528 723l-122 -168h-157l-122 168h124l76 -89l77 89h124z" />
    <glyph glyph-name="uni0146" unicode="&#x146;" horiz-adv-x="645" 
d="M588 339v-339h-148v295c0 59 -34 94 -94 94c-45 0 -92 -18 -131 -51v-338h-149v500h149v-58c59 43 129 68 196 68c109 0 177 -64 177 -171zM403 -112c0 -11 -3 -20 -10 -29l-94 -134l-37 17l39 94c-24 9 -39 29 -39 52c0 33 31 58 71 58c39 0 70 -25 70 -58z" />
    <glyph glyph-name="eng" unicode="&#x14b;" horiz-adv-x="645" 
d="M588 339v-372c0 -115 -73 -172 -173 -172c-35 0 -68 5 -97 16l14 85c10 -3 19 -5 26 -5c47 0 82 33 82 85v319c0 61 -34 95 -89 95c-49 0 -97 -18 -136 -50v-340h-149v500h149v-60c57 45 127 70 195 70c105 0 178 -59 178 -171z" />
    <glyph glyph-name="ntilde" unicode="&#xf1;" horiz-adv-x="645" 
d="M588 339v-339h-148v295c0 59 -34 94 -94 94c-45 0 -92 -18 -131 -51v-338h-149v500h149v-58c59 43 129 68 196 68c109 0 177 -64 177 -171zM241 720c28 0 49 -7 90 -26c37 -17 56 -24 73 -24c23 0 38 15 45 44l65 -9c-3 -76 -33 -136 -100 -136c-28 0 -47 8 -98 29
c-30 14 -52 21 -65 21c-22 0 -37 -14 -45 -43l-65 8c3 77 33 136 100 136z" />
    <glyph glyph-name="o" unicode="o" horiz-adv-x="652" 
d="M607 250c0 -147 -122 -260 -281 -260s-281 113 -281 260s122 260 281 260s281 -113 281 -260zM191 250c0 -77 57 -133 134 -133c79 0 135 56 135 133s-58 134 -135 134s-134 -57 -134 -134z" />
    <glyph glyph-name="oacute" unicode="&#xf3;" horiz-adv-x="652" 
d="M607 250c0 -147 -122 -260 -281 -260s-281 113 -281 260s122 260 281 260s281 -113 281 -260zM191 250c0 -77 57 -133 134 -133c79 0 135 56 135 133s-58 134 -135 134s-134 -57 -134 -134zM508 723l-144 -168h-129l118 168h155z" />
    <glyph glyph-name="ocircumflex" unicode="&#xf4;" horiz-adv-x="652" 
d="M607 250c0 -147 -122 -260 -281 -260s-281 113 -281 260s122 260 281 260s281 -113 281 -260zM191 250c0 -77 57 -133 134 -133c79 0 135 56 135 133s-58 134 -135 134s-134 -57 -134 -134zM405 723l122 -168h-124l-77 88l-76 -88h-124l122 168h157z" />
    <glyph glyph-name="odieresis" unicode="&#xf6;" horiz-adv-x="652" 
d="M607 250c0 -147 -122 -260 -281 -260s-281 113 -281 260s122 260 281 260s281 -113 281 -260zM191 250c0 -77 57 -133 134 -133c79 0 135 56 135 133s-58 134 -135 134s-134 -57 -134 -134zM282 648c0 -37 -27 -65 -64 -65s-65 28 -65 65s28 64 65 64s64 -27 64 -64z
M499 648c0 -37 -28 -65 -65 -65s-64 28 -64 65s27 64 64 64s65 -27 65 -64z" />
    <glyph glyph-name="ograve" unicode="&#xf2;" horiz-adv-x="652" 
d="M607 250c0 -147 -122 -260 -281 -260s-281 113 -281 260s122 260 281 260s281 -113 281 -260zM191 250c0 -77 57 -133 134 -133c79 0 135 56 135 133s-58 134 -135 134s-134 -57 -134 -134zM299 723l118 -168h-129l-144 168h155z" />
    <glyph glyph-name="ohungarumlaut" unicode="&#x151;" horiz-adv-x="652" 
d="M607 250c0 -147 -122 -260 -281 -260s-281 113 -281 260s122 260 281 260s281 -113 281 -260zM191 250c0 -77 57 -133 134 -133c79 0 135 56 135 133s-58 134 -135 134s-134 -57 -134 -134zM431 723l-144 -168h-129l117 168h156zM664 723l-144 -168h-128l118 168h154z
" />
    <glyph glyph-name="omacron" unicode="&#x14d;" horiz-adv-x="652" 
d="M607 250c0 -147 -122 -260 -281 -260s-281 113 -281 260s122 260 281 260s281 -113 281 -260zM191 250c0 -77 57 -133 134 -133c79 0 135 56 135 133s-58 134 -135 134s-134 -57 -134 -134zM492 694v-92h-331v92h331z" />
    <glyph glyph-name="oslash" unicode="&#xf8;" horiz-adv-x="652" 
d="M607 250c0 -147 -122 -260 -281 -260c-28 0 -54 3 -78 9l-26 -49h-96l42 83c-76 45 -123 125 -123 217c0 147 122 260 281 260c28 0 54 -3 78 -9l25 49h98l-42 -83c76 -45 122 -125 122 -217zM191 250c0 -44 18 -82 50 -106l113 237c-9 2 -19 3 -29 3
c-77 0 -134 -57 -134 -134zM460 250c0 44 -19 83 -51 107l-114 -237c10 -2 20 -3 30 -3c79 0 135 56 135 133z" />
    <glyph glyph-name="otilde" unicode="&#xf5;" horiz-adv-x="652" 
d="M607 250c0 -147 -122 -260 -281 -260s-281 113 -281 260s122 260 281 260s281 -113 281 -260zM191 250c0 -77 57 -133 134 -133c79 0 135 56 135 133s-58 134 -135 134s-134 -57 -134 -134zM240 720c28 0 49 -7 90 -26c37 -17 56 -24 73 -24c23 0 38 15 45 44l65 -9
c-3 -76 -33 -136 -100 -136c-28 0 -47 8 -98 29c-30 14 -52 21 -65 21c-22 0 -37 -14 -45 -43l-65 8c3 77 33 136 100 136z" />
    <glyph glyph-name="oe" unicode="&#x153;" horiz-adv-x="1033" 
d="M993 250v-41h-383c12 -68 57 -106 130 -106c53 0 100 17 132 46l81 -73c-57 -55 -137 -86 -222 -86c-80 0 -150 30 -199 81c-52 -51 -126 -81 -206 -81c-153 -3 -284 117 -281 260c-3 143 128 263 281 260c80 0 153 -29 205 -80c48 51 117 80 196 80
c157 0 266 -112 266 -260zM609 290h240c0 63 -51 110 -120 110c-65 0 -109 -39 -120 -110zM460 250c0 74 -60 134 -135 134c-74 0 -134 -60 -134 -134c0 -37 13 -69 39 -95c26 -25 58 -38 95 -38c38 0 70 13 96 38c26 26 39 58 39 95z" />
    <glyph glyph-name="oe.ss01" horiz-adv-x="1034" 
d="M873 149l81 -73c-57 -55 -137 -86 -222 -86c-80 0 -151 30 -200 82c-52 -52 -125 -82 -206 -82c-153 -3 -284 117 -281 260c-3 143 128 263 281 260c80 0 153 -30 205 -81c49 51 118 81 197 81c153 0 260 -105 266 -248l-365 -104c23 -37 60 -55 112 -55
c55 0 99 15 132 46zM607 251v-4l239 68c-12 51 -57 85 -116 85c-79 0 -123 -53 -123 -149zM460 250c0 74 -60 134 -135 134c-74 0 -134 -60 -134 -134c0 -37 13 -69 39 -95c26 -25 58 -38 95 -38c38 0 70 13 96 38c26 26 39 58 39 95z" />
    <glyph glyph-name="p" unicode="p" horiz-adv-x="660" 
d="M608 250c0 -149 -100 -260 -231 -260c-64 0 -120 25 -159 68v-253h-149v695h149v-57c39 43 95 67 159 67c131 0 231 -111 231 -260zM462 250c0 76 -53 134 -125 134c-51 0 -95 -24 -119 -61v-145c24 -37 68 -61 119 -61c72 0 125 57 125 133z" />
    <glyph glyph-name="thorn" unicode="&#xfe;" horiz-adv-x="660" 
d="M608 250c0 -149 -100 -260 -231 -260c-64 0 -120 25 -159 68v-253h-149v895h149v-257c39 43 95 67 159 67c131 0 231 -111 231 -260zM462 250c0 76 -53 134 -125 134c-51 0 -95 -24 -119 -61v-145c24 -37 68 -61 119 -61c72 0 125 57 125 133z" />
    <glyph glyph-name="q" unicode="q" horiz-adv-x="648" 
d="M435 500h149v-695h-149v253c-39 -43 -95 -68 -159 -68c-130 -3 -234 113 -231 260c-3 147 101 263 231 260c64 0 120 -24 159 -67v57zM435 178v145c-24 37 -68 61 -119 61c-72 0 -125 -58 -125 -134s53 -133 125 -133c51 0 95 24 119 61z" />
    <glyph glyph-name="r" unicode="r" horiz-adv-x="418" 
d="M403 510v-125c-71 0 -135 -31 -188 -91v-294h-149v500h149v-93c53 65 121 103 188 103z" />
    <glyph glyph-name="racute" unicode="&#x155;" horiz-adv-x="418" 
d="M403 510v-125c-71 0 -135 -31 -188 -91v-294h-149v500h149v-93c53 65 121 103 188 103zM400 723l-144 -168h-129l118 168h155z" />
    <glyph glyph-name="rcaron" unicode="&#x159;" horiz-adv-x="418" 
d="M403 510v-125c-71 0 -135 -31 -188 -91v-294h-149v500h149v-93c53 65 121 103 188 103zM419 723l-122 -168h-157l-122 168h124l76 -89l77 89h124z" />
    <glyph glyph-name="uni0157" unicode="&#x157;" horiz-adv-x="418" 
d="M403 510v-125c-71 0 -135 -31 -188 -91v-294h-149v500h149v-93c53 65 121 103 188 103zM218 -112c0 -11 -3 -20 -10 -29l-94 -134l-37 17l39 94c-24 9 -39 29 -39 52c0 33 31 58 71 58c39 0 70 -25 70 -58z" />
    <glyph glyph-name="s" unicode="s" horiz-adv-x="524" 
d="M469 455l-49 -94c-49 28 -114 47 -162 47c-44 0 -66 -15 -66 -44c0 -23 15 -31 72 -46l51 -14c120 -32 167 -75 167 -152c0 -103 -79 -162 -214 -162c-85 0 -171 25 -238 69l52 90c57 -36 127 -56 191 -56c47 0 70 16 70 48c0 23 -12 33 -63 46l-63 17
c-121 35 -165 72 -165 147c0 100 78 159 207 159c75 0 153 -20 210 -55z" />
    <glyph glyph-name="sacute" unicode="&#x15b;" horiz-adv-x="524" 
d="M469 455l-49 -94c-49 28 -114 47 -162 47c-44 0 -66 -15 -66 -44c0 -23 15 -31 72 -46l51 -14c120 -32 167 -75 167 -152c0 -103 -79 -162 -214 -162c-85 0 -171 25 -238 69l52 90c57 -36 127 -56 191 -56c47 0 70 16 70 48c0 23 -12 33 -63 46l-63 17
c-121 35 -165 72 -165 147c0 100 78 159 207 159c75 0 153 -20 210 -55zM444 723l-144 -168h-129l118 168h155z" />
    <glyph glyph-name="scaron" unicode="&#x161;" horiz-adv-x="524" 
d="M469 455l-49 -94c-49 28 -114 47 -162 47c-44 0 -66 -15 -66 -44c0 -23 15 -31 72 -46l51 -14c120 -32 167 -75 167 -152c0 -103 -79 -162 -214 -162c-85 0 -171 25 -238 69l52 90c57 -36 127 -56 191 -56c47 0 70 16 70 48c0 23 -12 33 -63 46l-63 17
c-121 35 -165 72 -165 147c0 100 78 159 207 159c75 0 153 -20 210 -55zM463 723l-122 -168h-157l-122 168h124l76 -89l77 89h124z" />
    <glyph glyph-name="scedilla" unicode="&#x15f;" horiz-adv-x="524" 
d="M292 -9l-15 -33h9c59 0 96 -36 96 -89c0 -61 -52 -96 -121 -96c-41 0 -77 9 -108 26l20 51c20 -10 43 -15 70 -15c32 0 53 20 53 44c0 23 -15 36 -39 36c-13 0 -24 -3 -33 -10l-26 26l29 61c-75 7 -140 30 -197 67l52 90c57 -36 127 -56 191 -56c47 0 70 16 70 48
c0 23 -12 33 -63 46l-63 17c-121 35 -165 72 -165 147c0 100 78 159 207 159c75 0 153 -20 210 -55l-49 -94c-49 28 -114 47 -162 47c-44 0 -66 -15 -66 -44c0 -23 15 -31 72 -46l51 -14c120 -32 167 -75 167 -152c0 -97 -70 -154 -190 -161z" />
    <glyph glyph-name="scircumflex" unicode="&#x15d;" horiz-adv-x="524" 
d="M469 455l-49 -94c-49 28 -114 47 -162 47c-44 0 -66 -15 -66 -44c0 -23 15 -31 72 -46l51 -14c120 -32 167 -75 167 -152c0 -103 -79 -162 -214 -162c-85 0 -171 25 -238 69l52 90c57 -36 127 -56 191 -56c47 0 70 16 70 48c0 23 -12 33 -63 46l-63 17
c-121 35 -165 72 -165 147c0 100 78 159 207 159c75 0 153 -20 210 -55zM341 723l122 -168h-124l-77 88l-76 -88h-124l122 168h157z" />
    <glyph glyph-name="uni0219" unicode="&#x219;" horiz-adv-x="524" 
d="M469 455l-49 -94c-49 28 -114 47 -162 47c-44 0 -66 -15 -66 -44c0 -23 15 -31 72 -46l51 -14c120 -32 167 -75 167 -152c0 -103 -79 -162 -214 -162c-85 0 -171 25 -238 69l52 90c57 -36 127 -56 191 -56c47 0 70 16 70 48c0 23 -12 33 -63 46l-63 17
c-121 35 -165 72 -165 147c0 100 78 159 207 159c75 0 153 -20 210 -55zM342 -112c0 -11 -3 -20 -10 -29l-94 -134l-37 17l39 94c-24 9 -39 29 -39 52c0 33 31 58 71 58c39 0 70 -25 70 -58z" />
    <glyph glyph-name="germandbls" unicode="&#xdf;" horiz-adv-x="708" 
d="M66 0v482c0 135 112 228 273 228c138 0 239 -67 239 -164c0 -45 -23 -79 -75 -124c-32 -29 -40 -40 -40 -53c0 -9 5 -17 15 -24c11 -7 35 -20 72 -37c91 -43 121 -79 121 -147c0 -99 -88 -171 -210 -171c-55 0 -120 14 -173 37l37 120c37 -20 88 -33 124 -33
c45 0 73 21 73 53c0 27 -20 43 -92 74c-85 36 -112 61 -112 104c0 36 17 64 64 107c35 31 48 50 48 73c0 37 -36 62 -95 62c-75 0 -120 -42 -120 -110v-477h-149z" />
    <glyph glyph-name="t" unicode="t" horiz-adv-x="443" 
d="M392 132l20 -103c-49 -26 -97 -39 -145 -39c-100 0 -171 62 -171 175v219h-73v116h73v135h148v-135h133v-116h-133v-195c0 -49 32 -76 76 -76c24 0 48 6 72 19z" />
    <glyph glyph-name="tbar" unicode="&#x167;" horiz-adv-x="443" 
d="M392 132l20 -103c-49 -26 -97 -39 -145 -39c-100 0 -171 62 -171 175v50h-62v98h62v71h-73v116h73v135h148v-135h133v-116h-133v-71h120v-98h-120v-26c0 -49 32 -76 76 -76c24 0 48 6 72 19z" />
    <glyph glyph-name="tcaron" unicode="&#x165;" horiz-adv-x="537" 
d="M498 678c0 -11 -3 -20 -10 -29l-93 -134l-38 17l40 93c-24 11 -39 30 -39 53c0 32 31 57 70 57s70 -25 70 -57zM392 132l20 -103c-49 -26 -97 -39 -145 -39c-100 0 -171 62 -171 175v219h-73v116h73v135h148v-135h133v-116h-133v-195c0 -49 32 -76 76 -76
c24 0 48 6 72 19z" />
    <glyph glyph-name="uni021B" unicode="&#x21b;" horiz-adv-x="443" 
d="M392 132l20 -103c-49 -26 -97 -39 -145 -39c-100 0 -171 62 -171 175v219h-73v116h73v135h148v-135h133v-116h-133v-195c0 -49 32 -76 76 -76c24 0 48 6 72 19zM329 -112c0 -11 -3 -20 -10 -29l-94 -134l-37 17l39 94c-24 9 -39 29 -39 52c0 33 31 58 71 58
c39 0 70 -25 70 -58z" />
    <glyph glyph-name="u" unicode="u" horiz-adv-x="645" 
d="M430 500h149v-500h-149v58c-59 -43 -128 -68 -196 -68c-109 0 -177 65 -177 172v338h149v-294c0 -60 34 -95 94 -95c43 0 90 19 130 51v338z" />
    <glyph glyph-name="uacute" unicode="&#xfa;" horiz-adv-x="645" 
d="M430 500h149v-500h-149v58c-59 -43 -128 -68 -196 -68c-109 0 -177 65 -177 172v338h149v-294c0 -60 34 -95 94 -95c43 0 90 19 130 51v338zM503 723l-144 -168h-129l118 168h155z" />
    <glyph glyph-name="ubreve" unicode="&#x16d;" horiz-adv-x="645" 
d="M430 500h149v-500h-149v58c-59 -43 -128 -68 -196 -68c-109 0 -177 65 -177 172v338h149v-294c0 -60 34 -95 94 -95c43 0 90 19 130 51v338zM322 565c-102 0 -184 67 -186 161h99c1 -44 36 -69 87 -69c49 0 85 25 86 69h99c-2 -94 -82 -161 -185 -161z" />
    <glyph glyph-name="ucircumflex" unicode="&#xfb;" horiz-adv-x="645" 
d="M430 500h149v-500h-149v58c-59 -43 -128 -68 -196 -68c-109 0 -177 65 -177 172v338h149v-294c0 -60 34 -95 94 -95c43 0 90 19 130 51v338zM400 723l122 -168h-124l-77 88l-76 -88h-124l122 168h157z" />
    <glyph glyph-name="udieresis" unicode="&#xfc;" horiz-adv-x="645" 
d="M430 500h149v-500h-149v58c-59 -43 -128 -68 -196 -68c-109 0 -177 65 -177 172v338h149v-294c0 -60 34 -95 94 -95c43 0 90 19 130 51v338zM277 648c0 -37 -27 -65 -64 -65s-65 28 -65 65s28 64 65 64s64 -27 64 -64zM494 648c0 -37 -28 -65 -65 -65s-64 28 -64 65
s27 64 64 64s65 -27 65 -64z" />
    <glyph glyph-name="ugrave" unicode="&#xf9;" horiz-adv-x="645" 
d="M430 500h149v-500h-149v58c-59 -43 -128 -68 -196 -68c-109 0 -177 65 -177 172v338h149v-294c0 -60 34 -95 94 -95c43 0 90 19 130 51v338zM294 723l118 -168h-129l-144 168h155z" />
    <glyph glyph-name="uhungarumlaut" unicode="&#x171;" horiz-adv-x="645" 
d="M430 500h149v-500h-149v58c-59 -43 -128 -68 -196 -68c-109 0 -177 65 -177 172v338h149v-294c0 -60 34 -95 94 -95c43 0 90 19 130 51v338zM426 723l-144 -168h-129l117 168h156zM659 723l-144 -168h-128l118 168h154z" />
    <glyph glyph-name="umacron" unicode="&#x16b;" horiz-adv-x="645" 
d="M430 500h149v-500h-149v58c-59 -43 -128 -68 -196 -68c-109 0 -177 65 -177 172v338h149v-294c0 -60 34 -95 94 -95c43 0 90 19 130 51v338zM487 694v-92h-331v92h331z" />
    <glyph glyph-name="uogonek" unicode="&#x173;" horiz-adv-x="645" 
d="M609 -117l19 -68c-26 -13 -58 -20 -95 -20c-71 0 -115 34 -115 93c0 31 12 64 36 99l9 13h-33v58c-59 -43 -128 -68 -196 -68c-109 0 -177 65 -177 172v338h149v-294c0 -60 34 -95 94 -95c43 0 90 19 130 51v338h149v-500h-33l-9 -13c-17 -27 -26 -48 -26 -63
c0 -32 24 -51 55 -51c15 0 30 3 43 10z" />
    <glyph glyph-name="uring" unicode="&#x16f;" horiz-adv-x="645" 
d="M430 500h149v-500h-149v58c-59 -43 -128 -68 -196 -68c-109 0 -177 65 -177 172v338h149v-294c0 -60 34 -95 94 -95c43 0 90 19 130 51v338zM454 667c0 -71 -61 -130 -133 -130s-133 59 -133 130s61 130 133 130s133 -59 133 -130zM262 667c0 -32 27 -58 59 -58
s59 26 59 58c0 31 -27 57 -59 57s-59 -26 -59 -57z" />
    <glyph glyph-name="utilde" unicode="&#x169;" horiz-adv-x="645" 
d="M430 500h149v-500h-149v58c-59 -43 -128 -68 -196 -68c-109 0 -177 65 -177 172v338h149v-294c0 -60 34 -95 94 -95c43 0 90 19 130 51v338zM235 720c28 0 49 -7 90 -26c37 -17 56 -24 73 -24c23 0 38 15 45 44l65 -9c-3 -76 -33 -136 -100 -136c-28 0 -47 8 -98 29
c-30 14 -52 21 -65 21c-22 0 -37 -14 -45 -43l-65 8c3 77 33 136 100 136z" />
    <glyph glyph-name="v" unicode="v" horiz-adv-x="607" 
d="M434 500h158l-195 -500h-185l-196 500h158l130 -352z" />
    <glyph glyph-name="w" unicode="w" horiz-adv-x="831" 
d="M817 500l-156 -500h-160l-85 285l-84 -285h-161l-155 500h148l95 -340l99 340h116l99 -340l95 340h149z" />
    <glyph glyph-name="wacute" unicode="&#x1e83;" horiz-adv-x="831" 
d="M817 500l-156 -500h-160l-85 285l-84 -285h-161l-155 500h148l95 -340l99 340h116l99 -340l95 340h149zM597 723l-144 -168h-129l118 168h155z" />
    <glyph glyph-name="wcircumflex" unicode="&#x175;" horiz-adv-x="831" 
d="M817 500l-156 -500h-160l-85 285l-84 -285h-161l-155 500h148l95 -340l99 340h116l99 -340l95 340h149zM494 723l122 -168h-124l-77 88l-76 -88h-124l122 168h157z" />
    <glyph glyph-name="wdieresis" unicode="&#x1e85;" horiz-adv-x="831" 
d="M817 500l-156 -500h-160l-85 285l-84 -285h-161l-155 500h148l95 -340l99 340h116l99 -340l95 340h149zM371 648c0 -37 -27 -65 -64 -65s-65 28 -65 65s28 64 65 64s64 -27 64 -64zM588 648c0 -37 -28 -65 -65 -65s-64 28 -64 65s27 64 64 64s65 -27 65 -64z" />
    <glyph glyph-name="wgrave" unicode="&#x1e81;" horiz-adv-x="831" 
d="M817 500l-156 -500h-160l-85 285l-84 -285h-161l-155 500h148l95 -340l99 340h116l99 -340l95 340h149zM388 723l118 -168h-129l-144 168h155z" />
    <glyph glyph-name="x" unicode="x" horiz-adv-x="578" 
d="M563 0h-170l-104 156l-106 -156h-167l186 254l-180 246h169l100 -148l99 148h167l-180 -246z" />
    <glyph glyph-name="y" unicode="y" horiz-adv-x="601" 
d="M586 500l-215 -547c-41 -107 -109 -158 -206 -158c-44 0 -94 10 -149 31l41 100c33 -13 62 -19 87 -19c41 0 70 20 95 65l7 12l-219 516h157l127 -340l120 340h155z" />
    <glyph glyph-name="yacute" unicode="&#xfd;" horiz-adv-x="601" 
d="M586 500l-215 -547c-41 -107 -109 -158 -206 -158c-44 0 -94 10 -149 31l41 100c33 -13 62 -19 87 -19c41 0 70 20 95 65l7 12l-219 516h157l127 -340l120 340h155zM492 723l-144 -168h-129l118 168h155z" />
    <glyph glyph-name="ycircumflex" unicode="&#x177;" horiz-adv-x="601" 
d="M586 500l-215 -547c-41 -107 -109 -158 -206 -158c-44 0 -94 10 -149 31l41 100c33 -13 62 -19 87 -19c41 0 70 20 95 65l7 12l-219 516h157l127 -340l120 340h155zM389 723l122 -168h-124l-77 88l-76 -88h-124l122 168h157z" />
    <glyph glyph-name="ydieresis" unicode="&#xff;" horiz-adv-x="601" 
d="M586 500l-215 -547c-41 -107 -109 -158 -206 -158c-44 0 -94 10 -149 31l41 100c33 -13 62 -19 87 -19c41 0 70 20 95 65l7 12l-219 516h157l127 -340l120 340h155zM266 648c0 -37 -27 -65 -64 -65s-65 28 -65 65s28 64 65 64s64 -27 64 -64zM483 648
c0 -37 -28 -65 -65 -65s-64 28 -64 65s27 64 64 64s65 -27 65 -64z" />
    <glyph glyph-name="ygrave" unicode="&#x1ef3;" horiz-adv-x="601" 
d="M586 500l-215 -547c-41 -107 -109 -158 -206 -158c-44 0 -94 10 -149 31l41 100c33 -13 62 -19 87 -19c41 0 70 20 95 65l7 12l-219 516h157l127 -340l120 340h155zM283 723l118 -168h-129l-144 168h155z" />
    <glyph glyph-name="z" unicode="z" horiz-adv-x="540" 
d="M491 500v-97l-251 -283h261v-120h-467v97l250 283h-230v120h437z" />
    <glyph glyph-name="zacute" unicode="&#x17a;" horiz-adv-x="540" 
d="M491 500v-97l-251 -283h261v-120h-467v97l250 283h-230v120h437zM460 723l-144 -168h-129l118 168h155z" />
    <glyph glyph-name="zcaron" unicode="&#x17e;" horiz-adv-x="540" 
d="M491 500v-97l-251 -283h261v-120h-467v97l250 283h-230v120h437zM479 723l-122 -168h-157l-122 168h124l76 -89l77 89h124z" />
    <glyph glyph-name="zdotaccent" unicode="&#x17c;" horiz-adv-x="540" 
d="M491 500v-97l-251 -283h261v-120h-467v97l250 283h-230v120h437zM343 648c0 -37 -28 -64 -64 -64c-39 0 -66 27 -66 64c0 36 29 64 66 64c36 0 64 -28 64 -64z" />
    <glyph glyph-name="T_h" horiz-adv-x="1230" 
d="M1173 339v-339h-148v295c0 59 -34 94 -94 94c-45 0 -92 -18 -131 -51v-338h-149v563h-249v-563h-160v563h-213v137h771v-258c59 43 129 68 196 68c109 0 177 -64 177 -171z" />
    <glyph glyph-name="c_h" horiz-adv-x="1225" 
d="M1168 339v-339h-149v295c0 60 -34 94 -94 94c-43 0 -91 -18 -130 -50v-339h-149v617c-33 9 -67 14 -100 14c-69 0 -113 -37 -113 -100c0 -21 4 -38 12 -52c37 -19 67 -45 91 -77l-113 -63c-27 30 -62 45 -105 45c-70 0 -128 -58 -128 -134s58 -133 128 -133
c45 0 81 16 107 47l114 -63c-51 -68 -134 -111 -223 -111c-147 -3 -274 119 -271 260c-3 141 124 263 271 260h8c-10 18 -15 39 -15 62c0 107 92 172 245 172c82 0 162 -11 241 -33v-269c59 43 128 68 196 68c109 0 177 -66 177 -171z" />
    <glyph glyph-name="c_t" horiz-adv-x="1020" 
d="M969 132l20 -103c-49 -26 -97 -39 -145 -39c-100 0 -171 62 -171 175v219h-73v116h73v37c0 55 -38 94 -127 94c-69 0 -115 -37 -115 -100c0 -20 5 -37 14 -52c37 -19 67 -45 91 -77l-113 -63c-27 30 -62 45 -105 45c-70 0 -128 -58 -128 -134s58 -133 128 -133
c45 0 81 16 107 47l114 -63c-51 -68 -134 -111 -223 -111c-147 -3 -274 119 -271 260c-3 141 124 263 271 260h8c-11 21 -17 41 -17 62c0 107 94 172 247 172c169 0 267 -70 267 -179v-65h133v-116h-133v-195c0 -49 32 -76 76 -76c24 0 48 6 72 19z" />
    <glyph glyph-name="f_b" horiz-adv-x="1051" 
d="M1007 250c0 -145 -94 -260 -231 -260c-65 0 -123 28 -160 69v-59h-149v593h-88c-21 8 -43 12 -68 12c-40 0 -69 -24 -69 -71v-34h135v-116h-135v-384h-150v384h-69v116h69v37c0 119 74 173 181 173c27 0 56 -3 88 -10h255v-259c37 41 95 69 160 69
c137 0 231 -115 231 -260zM860 250c0 37 -12 69 -37 95c-24 26 -54 39 -91 39c-51 0 -92 -24 -116 -63v-141c24 -39 65 -63 116 -63c37 0 67 13 91 38c25 26 37 58 37 95z" />
    <glyph glyph-name="f_f_j" horiz-adv-x="1099" 
d="M399 690l-20 -97c-21 8 -43 12 -68 12c-40 0 -69 -24 -69 -71v-34h254v37c0 119 74 173 181 173c41 0 83 -7 126 -20l-20 -97c-21 8 -44 12 -68 12c-40 0 -69 -24 -69 -71v-34h385v-533c0 -115 -74 -172 -174 -172c-35 0 -68 5 -97 16l14 82c8 -3 17 -4 27 -4
c45 0 81 35 81 87v408h-236v-384h-150v384h-254v-384h-150v384h-69v116h69v37c0 119 74 173 181 173c41 0 83 -7 126 -20zM1035 625c0 -39 -35 -71 -79 -71s-79 32 -79 71s35 71 79 71s79 -32 79 -71z" />
    <glyph glyph-name="f_f_l.ss04" horiz-adv-x="1153" 
d="M1113 118l23 -107c-27 -13 -72 -22 -108 -22c-97 0 -148 53 -148 158v446h-97c-21 8 -44 12 -68 12c-40 0 -69 -24 -69 -71v-34h135v-116h-135v-384h-150v384h-254v-384h-150v384h-69v116h69v37c0 119 74 173 181 173c41 0 83 -7 126 -20l-20 -97c-21 8 -43 12 -68 12
c-40 0 -69 -24 -69 -71v-34h254v37c0 119 74 173 181 173c32 0 61 -3 88 -10h264v-543c0 -31 15 -47 43 -47c15 0 29 3 41 8z" />
    <glyph glyph-name="f_h" horiz-adv-x="1052" 
d="M361 700h261v-260c57 45 128 70 195 70c105 0 178 -59 178 -171v-339h-149v295c0 61 -33 95 -88 95c-51 0 -99 -18 -136 -50v-340h-149v593h-94c-21 8 -43 12 -68 12c-40 0 -69 -24 -69 -71v-34h135v-116h-135v-384h-150v384h-69v116h69v37c0 119 74 173 181 173
c32 0 61 -3 88 -10z" />
    <glyph glyph-name="f_j" horiz-adv-x="695" 
d="M399 690l-20 -97c-21 8 -43 12 -68 12c-40 0 -69 -24 -69 -71v-34h385v-533c0 -115 -74 -172 -174 -172c-35 0 -68 5 -97 16l14 82c8 -3 17 -4 27 -4c45 0 81 35 81 87v408h-236v-384h-150v384h-69v116h69v37c0 119 74 173 181 173c41 0 83 -7 126 -20zM631 625
c0 -39 -35 -71 -79 -71s-79 32 -79 71s35 71 79 71s79 -32 79 -71z" />
    <glyph glyph-name="f_k" horiz-adv-x="1022" 
d="M361 700h261v-415l195 215h176l-169 -197l182 -303h-162l-124 195l-98 -98v-97h-149v593h-94c-21 8 -43 12 -68 12c-40 0 -69 -24 -69 -71v-34h135v-116h-135v-384h-150v384h-69v116h69v37c0 119 74 173 181 173c32 0 61 -3 88 -10z" />
    <glyph glyph-name="fl.ss04" horiz-adv-x="749" 
d="M709 118l23 -107c-27 -13 -72 -22 -108 -22c-97 0 -148 53 -148 158v446h-97c-21 8 -43 12 -68 12c-40 0 -69 -24 -69 -71v-34h135v-116h-135v-384h-150v384h-69v116h69v37c0 119 74 173 181 173c32 0 61 -3 88 -10h264v-543c0 -31 15 -47 43 -47c15 0 29 3 41 8z" />
    <glyph glyph-name="s_p" horiz-adv-x="1184" 
d="M1132 250c0 -149 -100 -260 -231 -260c-64 0 -120 25 -159 68v-253h-149v737c0 57 -38 88 -106 88s-107 -36 -107 -99c0 -15 3 -29 9 -41c29 -9 55 -20 80 -35l-49 -94c-49 28 -114 47 -162 47c-44 0 -66 -15 -66 -44c0 -23 15 -31 72 -46l51 -14
c120 -32 167 -75 167 -152c0 -103 -79 -162 -214 -162c-85 0 -171 25 -238 69l52 90c57 -36 127 -56 191 -56c47 0 70 16 70 48c0 23 -12 33 -63 46l-63 17c-121 35 -165 72 -165 147c0 100 78 159 207 159h11c-9 20 -14 41 -14 64c0 104 92 169 233 169
c155 0 253 -64 253 -168v-132c39 43 95 67 159 67c131 0 231 -111 231 -260zM986 250c0 76 -53 134 -125 134c-51 0 -95 -24 -119 -61v-145c24 -37 68 -61 119 -61c72 0 125 57 125 133z" />
    <glyph glyph-name="s_t" horiz-adv-x="966" 
d="M915 132l20 -103c-49 -26 -97 -39 -145 -39c-100 0 -171 62 -171 175v219h-73v116h73v37c0 55 -38 94 -127 94c-69 0 -115 -37 -115 -100c0 -14 3 -27 8 -39c33 -11 61 -24 84 -37l-49 -94c-49 28 -114 47 -162 47c-44 0 -66 -15 -66 -44c0 -23 15 -31 72 -46l51 -14
c120 -32 167 -75 167 -152c0 -103 -79 -162 -214 -162c-85 0 -171 25 -238 69l52 90c57 -36 127 -56 191 -56c47 0 70 16 70 48c0 23 -12 33 -63 46l-63 17c-121 35 -165 72 -165 147c0 100 78 159 207 159h11c-11 21 -17 41 -17 62c0 107 94 172 247 172
c169 0 267 -70 267 -179v-65h133v-116h-133v-195c0 -49 32 -76 76 -76c24 0 48 6 72 19z" />
    <glyph glyph-name="ordfeminine" unicode="&#xaa;" horiz-adv-x="401" 
d="M357 581v-216h-101v39c-35 -31 -74 -46 -119 -46c-65 0 -111 43 -111 106s45 100 124 100h106v9c0 37 -23 56 -69 56c-35 0 -70 -11 -103 -32l-28 64c48 28 105 45 158 45c88 0 143 -42 143 -125zM256 448v64h-73c-37 0 -58 -14 -58 -41s21 -41 58 -41c27 0 51 6 73 18z
" />
    <glyph glyph-name="ordmasculine" unicode="&#xba;" horiz-adv-x="457" 
d="M417 533c0 -96 -86 -175 -188 -175s-188 79 -188 175s84 173 188 173c102 0 188 -77 188 -173zM139 533c0 -49 39 -89 90 -89c48 0 88 40 88 89s-40 88 -88 88c-51 0 -90 -39 -90 -88z" />
    <glyph glyph-name="pi" unicode="&#x3c0;" horiz-adv-x="776" 
d="M749 380h-114v-211c0 -44 20 -66 53 -66c10 0 19 1 26 4l14 -98c-29 -13 -59 -20 -90 -20c-91 0 -153 51 -153 164v227h-209v-380h-148v380h-104v120h725v-120z" />
    <glyph glyph-name="uni0621" unicode="&#x621;" horiz-adv-x="560" 
d="M359 150h131v-150h-420v150h96c-28 31 -42 70 -42 115c0 105 78 186 191 186c65 0 123 -26 164 -63l-91 -86c-18 17 -39 25 -64 25c-48 0 -79 -31 -79 -83c0 -63 43 -91 114 -94z" />
    <glyph glyph-name="uni0627" unicode="&#x627;" horiz-adv-x="318" 
d="M88 0v730h142v-730h-142z" />
    <glyph glyph-name="uni0627.short" horiz-adv-x="318" 
d="M88 0v580h142v-580h-142z" />
    <glyph glyph-name="uniFE8E.short" horiz-adv-x="370" 
d="M370 150h16v-148c0 -1 -5 -2 -16 -2h-1c-88 0 -169 21 -225 52c-43 24 -56 48 -56 100v428h142v-403c36 -17 88 -27 140 -27z" />
    <glyph glyph-name="uni0623" unicode="&#x623;" horiz-adv-x="318" 
d="M88 0v730h142v-730h-142zM206 886h61v-86h-217v86h48c-15 17 -22 36 -22 59c0 51 38 91 97 91c35 0 66 -16 86 -36l-48 -49c-7 7 -17 11 -30 11c-21 0 -35 -14 -35 -35c0 -24 20 -41 60 -41z" />
    <glyph glyph-name="uni0625" unicode="&#x625;" horiz-adv-x="318" 
d="M88 0v730h142v-730h-142zM207 -216h61v-85h-217v85h48c-15 17 -22 36 -22 59c0 52 38 92 97 92c35 0 66 -16 86 -36l-48 -50c-8 8 -18 12 -30 12c-21 0 -35 -15 -35 -35c0 -24 20 -42 60 -42z" />
    <glyph glyph-name="uni0622" unicode="&#x622;" horiz-adv-x="318" 
d="M88 0v730h142v-730h-142zM253 909l46 -9c-3 -67 -23 -101 -90 -98l-96 3c-31 1 -45 -5 -54 -24l-45 9c1 67 22 102 93 98l92 -4c33 -1 46 6 54 25z" />
    <glyph glyph-name="uni0671" unicode="&#x671;" horiz-adv-x="318" 
d="M88 0v730h142v-730h-142zM299 902v-102h-300v78h48c35 80 91 119 154 119c61 0 98 -35 98 -95zM118 878h106v16c0 21 -12 35 -37 35c-28 0 -51 -17 -69 -51z" />
    <glyph glyph-name="uni066E" unicode="&#x66e;" horiz-adv-x="1178" 
d="M70 249c0 54 10 114 31 179l131 -23c-13 -43 -20 -81 -20 -113c0 -97 56 -142 165 -142h409c73 0 138 12 170 28v330h142v-442c-68 -39 -190 -66 -335 -66h-394c-192 0 -299 70 -299 249z" />
    <glyph glyph-name="uni0628" unicode="&#x628;" horiz-adv-x="1178" 
d="M70 249c0 54 10 114 31 179l131 -23c-13 -43 -20 -81 -20 -113c0 -97 56 -142 165 -142h409c73 0 138 12 170 28v330h142v-442c-68 -39 -190 -66 -335 -66h-394c-192 0 -299 70 -299 249zM517 -145c0 45 35 80 80 80c44 0 80 -35 80 -80s-36 -80 -80 -80
c-45 0 -80 35 -80 80z" />
    <glyph glyph-name="uni067E" unicode="&#x67e;" horiz-adv-x="1178" 
d="M70 249c0 54 10 114 31 179l131 -23c-13 -43 -20 -81 -20 -113c0 -97 56 -142 165 -142h409c73 0 138 12 170 28v330h142v-442c-68 -39 -190 -66 -335 -66h-394c-192 0 -299 70 -299 249zM436 -135c0 39 31 70 71 70c39 0 69 -31 69 -70s-30 -70 -69 -70
c-40 0 -71 31 -71 70zM618 -136c0 40 32 71 71 71s69 -31 69 -71c0 -39 -30 -70 -69 -70s-71 31 -71 70zM527 -282c0 40 31 71 70 71s69 -31 69 -71c0 -39 -30 -70 -69 -70s-70 31 -70 70z" />
    <glyph glyph-name="uni062A" unicode="&#x62a;" horiz-adv-x="1178" 
d="M70 249c0 54 10 114 31 179l131 -23c-13 -43 -20 -81 -20 -113c0 -97 56 -142 165 -142h409c73 0 138 12 170 28v330h142v-442c-68 -39 -190 -66 -335 -66h-394c-192 0 -299 70 -299 249zM403 565c0 44 35 79 80 79c43 0 78 -35 78 -79s-35 -80 -78 -80
c-45 0 -80 36 -80 80zM603 565c0 44 35 79 80 79c44 0 79 -35 79 -79s-35 -80 -79 -80c-45 0 -80 36 -80 80z" />
    <glyph glyph-name="uni062B" unicode="&#x62b;" horiz-adv-x="1178" 
d="M70 249c0 54 10 114 31 179l131 -23c-13 -43 -20 -81 -20 -113c0 -97 56 -142 165 -142h409c73 0 138 12 170 28v330h142v-442c-68 -39 -190 -66 -335 -66h-394c-192 0 -299 70 -299 249zM512 701c0 40 31 71 70 71s69 -31 69 -71c0 -39 -30 -70 -69 -70s-70 31 -70 70z
M421 555c0 39 31 70 71 70c39 0 69 -31 69 -70s-30 -70 -69 -70c-40 0 -71 31 -71 70zM603 555c0 40 31 70 71 70c39 0 69 -30 69 -70c0 -39 -30 -70 -69 -70s-71 31 -71 70z" />
    <glyph glyph-name="uni0679" unicode="&#x679;" horiz-adv-x="1178" 
d="M70 249c0 54 10 114 31 179l131 -23c-13 -43 -20 -81 -20 -113c0 -97 56 -142 165 -142h409c73 0 138 12 170 28v330h142v-442c-68 -39 -190 -66 -335 -66h-394c-192 0 -299 70 -299 249zM714 601v-106h-289v78h22v179h72v-94c35 29 70 43 105 43c57 0 90 -40 90 -100z
M519 573h120v19c0 27 -12 41 -36 41c-23 0 -51 -15 -84 -46v-14z" />
    <glyph glyph-name="uni062C" unicode="&#x62c;" horiz-adv-x="724" 
d="M677 129l-39 -129h-342c-67 0 -113 -35 -113 -92s46 -92 115 -92h152v-150h-120c-189 0 -300 87 -300 239c0 155 106 243 287 243h167c-31 33 -45 66 -64 126c-11 36 -20 63 -29 82c-17 37 -47 59 -100 59c-40 0 -76 -12 -123 -41l-78 99c66 51 137 76 213 76
c143 0 199 -64 244 -217c31 -108 61 -178 130 -203zM450 -136c0 44 35 79 80 79c43 0 79 -35 79 -79s-36 -80 -79 -80c-45 0 -80 36 -80 80z" />
    <glyph glyph-name="uni0686" unicode="&#x686;" horiz-adv-x="717" 
d="M292 -187h62v-150h-28c-185 0 -296 89 -296 242s114 243 295 243h146c-27 32 -43 66 -60 125c-30 103 -44 137 -116 142c-35 0 -67 -11 -94 -33l-97 92c63 50 132 75 208 75c125 0 185 -67 226 -218c28 -109 57 -178 121 -202l-39 -129h-330c-64 0 -107 -34 -107 -91
c0 -60 42 -96 109 -96zM436 -199c-40 0 -71 31 -71 70s31 70 71 70c39 0 69 -31 69 -70s-30 -70 -69 -70zM687 -130c0 -39 -30 -70 -69 -70s-71 31 -71 70c0 40 32 71 71 71s69 -31 69 -71zM595 -276c0 -39 -30 -70 -69 -70s-70 31 -70 70c0 40 31 71 70 71s69 -31 69 -71z
" />
    <glyph glyph-name="uni062D" unicode="&#x62d;" horiz-adv-x="724" 
d="M677 129l-39 -129h-342c-67 0 -113 -35 -113 -92s46 -92 115 -92h152v-150h-120c-189 0 -300 87 -300 239c0 155 106 243 287 243h167c-31 33 -45 66 -64 126c-11 36 -20 63 -29 82c-17 37 -47 59 -100 59c-40 0 -76 -12 -123 -41l-78 99c66 51 137 76 213 76
c143 0 199 -64 244 -217c31 -108 61 -178 130 -203z" />
    <glyph glyph-name="uni062E" unicode="&#x62e;" horiz-adv-x="724" 
d="M677 129l-39 -129h-342c-67 0 -113 -35 -113 -92s46 -92 115 -92h152v-150h-120c-189 0 -300 87 -300 239c0 155 106 243 287 243h167c-31 33 -45 66 -64 126c-11 36 -20 63 -29 82c-17 37 -47 59 -100 59c-40 0 -76 -12 -123 -41l-78 99c66 51 137 76 213 76
c143 0 199 -64 244 -217c31 -108 61 -178 130 -203zM236 695c0 45 36 80 81 80c44 0 79 -35 79 -80c0 -44 -35 -80 -79 -80c-45 0 -81 36 -81 80z" />
    <glyph glyph-name="uni062F" unicode="&#x62f;" horiz-adv-x="585" 
d="M515 281v-281h-470v150h328v124c0 76 -37 100 -121 100h-119v142h86c225 0 296 -59 296 -235z" />
    <glyph glyph-name="uni0630" unicode="&#x630;" horiz-adv-x="585" 
d="M515 281v-281h-470v150h328v124c0 76 -37 100 -121 100h-119v142h86c225 0 296 -59 296 -235zM145 678c0 45 36 80 81 80c44 0 79 -35 79 -80c0 -44 -35 -80 -79 -80c-45 0 -81 36 -81 80z" />
    <glyph glyph-name="uni0688" unicode="&#x688;" horiz-adv-x="583" 
d="M515 281v-281h-470v150h328v124c0 76 -37 100 -121 100h-119v142h86c225 0 296 -59 296 -235zM358 714v-106h-289v78h22v179h72v-94c35 29 70 43 105 43c57 0 90 -40 90 -100zM163 686h120v19c0 27 -12 41 -36 41c-23 0 -51 -15 -84 -46v-14z" />
    <glyph glyph-name="uni0631" unicode="&#x631;" horiz-adv-x="384" 
d="M-55 -257l27 144c9 -1 22 -1 40 -1c107 0 145 47 145 150v456h142v-454c0 -208 -107 -300 -282 -300c-20 0 -44 2 -72 5z" />
    <glyph glyph-name="uni0632" unicode="&#x632;" horiz-adv-x="384" 
d="M-55 -257l27 144c9 -1 22 -1 40 -1c107 0 145 47 145 150v456h142v-454c0 -208 -107 -300 -282 -300c-20 0 -44 2 -72 5zM149 660c0 45 36 80 81 80c44 0 79 -35 79 -80c0 -44 -35 -80 -79 -80c-45 0 -81 36 -81 80z" />
    <glyph glyph-name="uni0691" unicode="&#x691;" horiz-adv-x="384" 
d="M-55 -257l27 144c9 -1 22 -1 40 -1c107 0 145 47 145 150v456h142v-454c0 -208 -107 -300 -282 -300c-20 0 -44 2 -72 5zM362 696v-106h-289v78h22v179h72v-94c35 29 70 43 105 43c57 0 90 -40 90 -100zM167 668h120v19c0 27 -12 41 -36 41c-23 0 -51 -15 -84 -46v-14z
" />
    <glyph glyph-name="uni0698" unicode="&#x698;" horiz-adv-x="384" 
d="M-55 -257l27 144c9 -1 22 -1 40 -1c107 0 145 47 145 150v456h142v-454c0 -208 -107 -300 -282 -300c-20 0 -44 2 -72 5zM160 796c0 40 31 71 70 71s69 -31 69 -71c0 -39 -30 -70 -69 -70s-70 31 -70 70zM69 650c0 39 31 70 71 70c39 0 69 -31 69 -70s-30 -70 -69 -70
c-40 0 -71 31 -71 70zM251 650c0 40 31 70 71 70c39 0 69 -30 69 -70c0 -39 -30 -70 -69 -70s-71 31 -71 70z" />
    <glyph glyph-name="uni0633" unicode="&#x633;" horiz-adv-x="1487" 
d="M1264 497h143v-409c-51 -55 -129 -92 -209 -92c-57 0 -110 18 -158 53c-45 -35 -97 -53 -155 -53c-47 0 -89 13 -124 39v-201c-84 -51 -205 -96 -338 -96c-221 0 -355 129 -355 331c0 49 7 99 21 152l130 -25c-9 -32 -13 -65 -13 -98c0 -136 82 -211 231 -211
c64 0 126 13 187 39v461h143v-216c27 -17 57 -25 89 -25c31 0 60 8 88 24v217h143v-217c28 -16 58 -24 89 -24s61 8 88 25v326z" />
    <glyph glyph-name="uni0634" unicode="&#x634;" horiz-adv-x="1487" 
d="M1264 497h143v-409c-51 -55 -129 -92 -209 -92c-57 0 -110 18 -158 53c-45 -35 -97 -53 -155 -53c-47 0 -89 13 -124 39v-201c-84 -51 -205 -96 -338 -96c-221 0 -355 129 -355 331c0 49 7 99 21 152l130 -25c-9 -32 -13 -65 -13 -98c0 -136 82 -211 231 -211
c64 0 126 13 187 39v461h143v-216c27 -17 57 -25 89 -25c31 0 60 8 88 24v217h143v-217c28 -16 58 -24 89 -24s61 8 88 25v326zM945 701c0 40 31 71 70 71s69 -31 69 -71c0 -39 -30 -70 -69 -70s-70 31 -70 70zM854 555c0 39 31 70 71 70c39 0 69 -31 69 -70
s-30 -70 -69 -70c-40 0 -71 31 -71 70zM1036 555c0 40 31 70 71 70c39 0 69 -30 69 -70c0 -39 -30 -70 -69 -70s-71 31 -71 70z" />
    <glyph glyph-name="uni0635" unicode="&#x635;" horiz-adv-x="1437" 
d="M1359 268v-268h-592v-158c-93 -57 -211 -104 -344 -104c-221 0 -355 128 -355 332c0 48 7 98 21 151l130 -25c-9 -32 -13 -65 -13 -98c0 -136 82 -211 231 -211c64 0 126 13 187 39v549h143v-109c119 123 221 183 338 183c147 0 254 -96 254 -281zM767 150h450v93
c0 45 -10 84 -30 116c-20 33 -55 49 -105 49c-93 0 -188 -65 -315 -212v-46z" />
    <glyph glyph-name="uni0636" unicode="&#x636;" horiz-adv-x="1437" 
d="M1359 268v-268h-592v-158c-93 -57 -211 -104 -344 -104c-221 0 -355 128 -355 332c0 48 7 98 21 151l130 -25c-9 -32 -13 -65 -13 -98c0 -136 82 -211 231 -211c64 0 126 13 187 39v549h143v-109c119 123 221 183 338 183c147 0 254 -96 254 -281zM767 150h450v93
c0 45 -10 84 -30 116c-20 33 -55 49 -105 49c-93 0 -188 -65 -315 -212v-46zM832 705c0 45 36 80 81 80c44 0 79 -35 79 -80c0 -44 -35 -80 -79 -80c-45 0 -81 36 -81 80z" />
    <glyph glyph-name="uni0637" unicode="&#x637;" horiz-adv-x="954" 
d="M876 268v-268h-835v150h100v572h143v-356c119 123 221 183 338 183c147 0 254 -96 254 -281zM284 150h450v93c0 45 -10 84 -30 116c-20 33 -55 49 -105 49c-93 0 -188 -65 -315 -212v-46z" />
    <glyph glyph-name="uni0638" unicode="&#x638;" horiz-adv-x="954" 
d="M876 268v-268h-835v150h100v572h143v-356c119 123 221 183 338 183c147 0 254 -96 254 -281zM284 150h450v93c0 45 -10 84 -30 116c-20 33 -55 49 -105 49c-93 0 -188 -65 -315 -212v-46zM423 720c0 45 36 80 81 80c44 0 79 -35 79 -80c0 -44 -35 -80 -79 -80
c-45 0 -81 36 -81 80z" />
    <glyph glyph-name="uni0639" unicode="&#x639;" horiz-adv-x="725" 
d="M505 150h105v-150h-326c-73 0 -120 -34 -120 -91c0 -59 46 -93 122 -93h152v-150h-120c-195 0 -308 87 -308 235c0 135 92 214 251 231c-57 43 -88 106 -88 181c0 143 122 236 277 236c87 0 164 -29 220 -80l-96 -99c-28 27 -68 43 -115 43c-83 0 -140 -49 -140 -125
c0 -84 70 -138 186 -138z" />
    <glyph glyph-name="uni063A" unicode="&#x63a;" horiz-adv-x="725" 
d="M505 150h105v-150h-326c-73 0 -120 -34 -120 -91c0 -59 46 -93 122 -93h152v-150h-120c-195 0 -308 87 -308 235c0 135 92 214 251 231c-57 43 -88 106 -88 181c0 143 122 236 277 236c87 0 164 -29 220 -80l-96 -99c-28 27 -68 43 -115 43c-83 0 -140 -49 -140 -125
c0 -84 70 -138 186 -138zM369 705c0 45 36 80 81 80c44 0 79 -35 79 -80c0 -44 -35 -80 -79 -80c-45 0 -81 36 -81 80z" />
    <glyph glyph-name="uni0641" unicode="&#x641;" horiz-adv-x="1263" 
d="M1183 492v-426c-68 -39 -192 -66 -336 -66h-478c-192 0 -299 70 -299 249c0 54 10 114 31 179l131 -23c-13 -43 -20 -81 -20 -113c0 -97 56 -142 165 -142h441c-72 37 -118 99 -118 188c0 139 112 220 261 220c89 0 166 -29 222 -66zM844 318c0 -81 77 -128 197 -137v220
c-26 12 -54 18 -84 18c-69 0 -113 -38 -113 -101zM876 712c0 45 36 80 81 80c44 0 79 -35 79 -80c0 -44 -35 -80 -79 -80c-45 0 -81 36 -81 80z" />
    <glyph glyph-name="uni06A4" unicode="&#x6a4;" horiz-adv-x="1263" 
d="M1183 492v-426c-68 -39 -192 -66 -336 -66h-478c-192 0 -299 70 -299 249c0 54 10 114 31 179l131 -23c-13 -43 -20 -81 -20 -113c0 -97 56 -142 165 -142h441c-72 37 -118 99 -118 188c0 139 112 220 261 220c89 0 166 -29 222 -66zM844 318c0 -81 77 -128 197 -137v220
c-26 12 -54 18 -84 18c-69 0 -113 -38 -113 -101zM887 848c0 40 31 71 70 71s69 -31 69 -71c0 -39 -30 -70 -69 -70s-70 31 -70 70zM796 702c0 39 31 70 71 70c39 0 69 -31 69 -70s-30 -70 -69 -70c-40 0 -71 31 -71 70zM978 702c0 40 31 70 71 70c39 0 69 -30 69 -70
c0 -39 -30 -70 -69 -70s-71 31 -71 70z" />
    <glyph glyph-name="uni06A1" unicode="&#x6a1;" horiz-adv-x="1263" 
d="M1183 492v-426c-68 -39 -192 -66 -336 -66h-478c-192 0 -299 70 -299 249c0 54 10 114 31 179l131 -23c-13 -43 -20 -81 -20 -113c0 -97 56 -142 165 -142h441c-72 37 -118 99 -118 188c0 139 112 220 261 220c89 0 166 -29 222 -66zM844 318c0 -81 77 -128 197 -137v220
c-26 12 -54 18 -84 18c-69 0 -113 -38 -113 -101z" />
    <glyph glyph-name="uni066F" unicode="&#x66f;" horiz-adv-x="901" 
d="M821 444v-603c-43 -30 -98 -55 -165 -74c-66 -19 -135 -29 -208 -29c-241 0 -380 131 -380 331c0 49 7 100 22 151l129 -25c-9 -32 -13 -64 -13 -96c0 -141 92 -212 259 -212c69 0 140 12 214 37v81h-64c-189 0 -295 93 -295 241c0 150 104 252 277 252
c76 0 151 -18 224 -54zM591 150h88v194c-29 13 -59 20 -91 20c-75 0 -125 -39 -125 -108c0 -67 51 -106 128 -106z" />
    <glyph glyph-name="uni0642" unicode="&#x642;" horiz-adv-x="901" 
d="M821 444v-603c-43 -30 -98 -55 -165 -74c-66 -19 -135 -29 -208 -29c-241 0 -380 131 -380 331c0 49 7 100 22 151l129 -25c-9 -32 -13 -64 -13 -96c0 -141 92 -212 259 -212c69 0 140 12 214 37v81h-64c-189 0 -295 93 -295 241c0 150 104 252 277 252
c76 0 151 -18 224 -54zM591 150h88v194c-29 13 -59 20 -91 20c-75 0 -125 -39 -125 -108c0 -67 51 -106 128 -106zM419 652c0 44 35 79 80 79c43 0 78 -35 78 -79s-35 -80 -78 -80c-45 0 -80 36 -80 80zM619 652c0 44 35 79 80 79c44 0 79 -35 79 -79s-35 -80 -79 -80
c-45 0 -80 36 -80 80z" />
    <glyph glyph-name="uni0643" unicode="&#x643;" horiz-adv-x="1116" 
d="M886 730h142v-664c-68 -39 -190 -66 -335 -66h-324c-192 0 -299 70 -299 249c0 54 10 114 31 179l131 -23c-13 -43 -20 -81 -20 -113c0 -97 56 -142 165 -142h339c73 0 138 12 170 28v552zM654 440v-85h-216v85h48c-15 17 -22 36 -22 59c0 52 39 92 96 92
c35 0 66 -16 86 -36l-48 -50c-8 8 -18 12 -30 12c-21 0 -35 -15 -35 -35c0 -24 20 -42 60 -42h61z" />
    <glyph glyph-name="uni06A9" unicode="&#x6a9;" horiz-adv-x="1122" 
d="M1050 212v-144c-40 -22 -90 -39 -149 -51c-59 -11 -118 -17 -176 -17h-356c-192 0 -299 70 -299 249c0 54 10 114 31 179l131 -23c-13 -43 -20 -81 -20 -113c0 -97 56 -142 165 -142h363c68 0 131 12 167 29v31c-4 71 -31 86 -160 124l-143 39l-30 112l364 276l72 -91
l-264 -198l73 -21c175 -51 227 -94 231 -239z" />
    <glyph glyph-name="uni06AF" unicode="&#x6af;" horiz-adv-x="1122" 
d="M868 772l-309 -232l-17 64l288 217zM1050 212v-144c-40 -22 -90 -39 -149 -51c-59 -11 -118 -17 -176 -17h-356c-192 0 -299 70 -299 249c0 54 10 114 31 179l131 -23c-13 -43 -20 -81 -20 -113c0 -97 56 -142 165 -142h363c68 0 131 12 167 29v31c-4 71 -31 86 -160 124
l-143 39l-30 112l364 276l72 -91l-264 -198l73 -21c175 -51 227 -94 231 -239z" />
    <glyph glyph-name="uni0644" unicode="&#x644;" horiz-adv-x="850" 
d="M620 730h142v-893c-39 -25 -90 -48 -151 -68c-61 -21 -125 -31 -192 -31c-219 0 -351 124 -351 332c0 50 7 101 21 153l130 -24c-9 -33 -13 -66 -13 -99c0 -143 80 -213 227 -213c63 0 125 13 187 39v804z" />
    <glyph glyph-name="uni0645" unicode="&#x645;" horiz-adv-x="742" 
d="M690 250c0 -150 -108 -260 -257 -260c-46 0 -88 11 -127 33l-7 4c-24 12 -46 18 -67 18c-43 0 -65 -21 -65 -63c0 -94 8 -202 23 -323h-139c-15 124 -23 233 -23 327c0 113 54 160 157 160h12c-13 32 -20 67 -20 104c0 149 109 260 256 260c149 0 257 -110 257 -260z
M547 250c0 69 -44 120 -115 120c-68 0 -113 -51 -113 -120s45 -120 113 -120c71 0 115 51 115 120z" />
    <glyph glyph-name="uni0646" unicode="&#x646;" horiz-adv-x="847" 
d="M68 70c0 52 7 102 21 151l130 -25c-9 -33 -13 -66 -13 -97c0 -139 84 -212 232 -212c61 0 123 13 186 39v461h148v-546c-88 -59 -216 -103 -349 -103c-223 0 -355 130 -355 332zM316 410c0 45 36 80 81 80c44 0 79 -35 79 -80c0 -44 -35 -80 -79 -80c-45 0 -81 36 -81 80
z" />
    <glyph glyph-name="uni06BA" unicode="&#x6ba;" horiz-adv-x="852" 
d="M68 70c0 52 7 102 21 151l130 -25c-9 -33 -13 -66 -13 -97c0 -139 84 -212 232 -212c61 0 123 13 186 39v461h148v-546c-88 -59 -216 -103 -349 -103c-223 0 -355 130 -355 332z" />
    <glyph glyph-name="uni0647" unicode="&#x647;" horiz-adv-x="618" 
d="M53 250c0 149 109 260 256 260c149 0 257 -110 257 -260s-108 -260 -257 -260c-147 0 -256 111 -256 260zM423 250c0 69 -44 121 -115 121c-68 0 -113 -52 -113 -121s45 -121 113 -121c71 0 115 52 115 121z" />
    <glyph glyph-name="uni06C1" unicode="&#x6c1;" horiz-adv-x="618" 
d="M53 250c0 149 109 260 256 260c149 0 257 -110 257 -260s-108 -260 -257 -260c-147 0 -256 111 -256 260zM423 250c0 69 -44 121 -115 121c-68 0 -113 -52 -113 -121s45 -121 113 -121c71 0 115 52 115 121z" />
    <glyph glyph-name="uni06C2" unicode="&#x6c2;" horiz-adv-x="618" 
d="M53 250c0 149 109 260 256 260c149 0 257 -110 257 -260s-108 -260 -257 -260c-147 0 -256 111 -256 260zM423 250c0 69 -44 121 -115 121c-68 0 -113 -52 -113 -121s45 -121 113 -121c71 0 115 52 115 121zM356 676h61v-86h-217v86h48c-15 17 -22 36 -22 59
c0 51 38 91 97 91c35 0 66 -16 86 -36l-48 -49c-7 7 -17 11 -30 11c-21 0 -35 -14 -35 -35c0 -24 20 -41 60 -41z" />
    <glyph glyph-name="uni06BE" unicode="&#x6be;" horiz-adv-x="878" 
d="M811 250v-250h-750c-11 0 -16 1 -16 2v148h156c-31 35 -47 78 -47 129c0 119 96 192 210 192c118 0 211 -74 211 -192c0 -51 -16 -95 -47 -130l140 -1v110c0 101 -27 174 -82 220c-54 46 -125 69 -212 69c-44 0 -86 -4 -125 -13v132c41 7 84 10 129 10
c133 0 238 -35 316 -104s117 -177 117 -322zM281 256c0 -57 29 -96 84 -105c55 9 83 48 83 105c0 55 -34 90 -83 90s-84 -35 -84 -90z" />
    <glyph glyph-name="uni0629" unicode="&#x629;" horiz-adv-x="618" 
d="M53 250c0 149 109 260 256 260c149 0 257 -110 257 -260s-108 -260 -257 -260c-147 0 -256 111 -256 260zM423 250c0 69 -44 121 -115 121c-68 0 -113 -52 -113 -121s45 -121 113 -121c71 0 115 52 115 121zM130 665c0 44 35 79 80 79c43 0 78 -35 78 -79
s-35 -80 -78 -80c-45 0 -80 36 -80 80zM330 665c0 44 35 79 80 79c44 0 79 -35 79 -79s-35 -80 -79 -80c-45 0 -80 36 -80 80z" />
    <glyph glyph-name="uni06C3" unicode="&#x6c3;" horiz-adv-x="618" 
d="M53 250c0 149 109 260 256 260c149 0 257 -110 257 -260s-108 -260 -257 -260c-147 0 -256 111 -256 260zM423 250c0 69 -44 121 -115 121c-68 0 -113 -52 -113 -121s45 -121 113 -121c71 0 115 52 115 121zM130 665c0 44 35 79 80 79c43 0 78 -35 78 -79
s-35 -80 -78 -80c-45 0 -80 36 -80 80zM330 665c0 44 35 79 80 79c44 0 79 -35 79 -79s-35 -80 -79 -80c-45 0 -80 36 -80 80z" />
    <glyph glyph-name="uni0648" unicode="&#x648;" horiz-adv-x="634" 
d="M554 444v-404c0 -105 -27 -182 -82 -230c-54 -48 -127 -72 -220 -72c-62 0 -123 9 -182 28l25 136c44 -13 104 -26 161 -26c107 0 151 41 155 124h-64c-190 0 -294 102 -294 246c0 150 105 252 276 252c75 0 150 -18 225 -54zM324 150h87v194c-29 13 -59 20 -90 20
c-73 0 -125 -38 -125 -107c0 -68 51 -107 128 -107z" />
    <glyph glyph-name="uni0624" unicode="&#x624;" horiz-adv-x="634" 
d="M554 444v-404c0 -105 -27 -182 -82 -230c-54 -48 -127 -72 -220 -72c-62 0 -123 9 -182 28l25 136c44 -13 104 -26 161 -26c107 0 151 41 155 124h-64c-190 0 -294 102 -294 246c0 150 105 252 276 252c75 0 150 -18 225 -54zM324 150h87v194c-29 13 -59 20 -90 20
c-73 0 -125 -38 -125 -107c0 -68 51 -107 128 -107zM376 661h61v-86h-217v86h48c-15 17 -22 36 -22 59c0 51 38 91 97 91c35 0 66 -16 86 -36l-48 -49c-7 7 -17 11 -30 11c-21 0 -35 -14 -35 -35c0 -24 20 -41 60 -41z" />
    <glyph glyph-name="uni0649" unicode="&#x649;" horiz-adv-x="1134" 
d="M708 231c0 -7 2 -17 5 -29l103 -349c-46 -29 -104 -55 -175 -79c-70 -24 -141 -36 -213 -36c-222 0 -360 127 -360 330c0 49 7 100 21 152l130 -24c-9 -32 -13 -64 -13 -97c0 -137 83 -212 232 -212c35 0 74 4 115 12s75 17 101 28l-80 261c-9 27 -13 52 -13 76
c0 101 79 162 188 162h225l112 -395l-130 -35l-85 291h-91c-45 0 -72 -20 -72 -56z" />
    <glyph glyph-name="uni064A" unicode="&#x64a;" horiz-adv-x="1134" 
d="M708 231c0 -7 2 -17 5 -29l103 -349c-46 -29 -104 -55 -175 -79c-70 -24 -141 -36 -213 -36c-222 0 -360 127 -360 330c0 49 7 100 21 152l130 -24c-9 -32 -13 -64 -13 -97c0 -137 83 -212 232 -212c35 0 74 4 115 12s75 17 101 28l-80 261c-9 27 -13 52 -13 76
c0 101 79 162 188 162h225l112 -395l-130 -35l-85 291h-91c-45 0 -72 -20 -72 -56zM242 -420c0 44 35 79 80 79c43 0 78 -35 78 -79s-35 -80 -78 -80c-45 0 -80 36 -80 80zM442 -420c0 44 35 79 80 79c44 0 79 -35 79 -79s-35 -80 -79 -80c-45 0 -80 36 -80 80z" />
    <glyph glyph-name="uni0626" unicode="&#x626;" horiz-adv-x="1134" 
d="M708 231c0 -7 2 -17 5 -29l103 -349c-46 -29 -104 -55 -175 -79c-70 -24 -141 -36 -213 -36c-222 0 -360 127 -360 330c0 49 7 100 21 152l130 -24c-9 -32 -13 -64 -13 -97c0 -137 83 -212 232 -212c35 0 74 4 115 12s75 17 101 28l-80 261c-9 27 -13 52 -13 76
c0 101 79 162 188 162h225l112 -395l-130 -35l-85 291h-91c-45 0 -72 -20 -72 -56zM248 395h61v-86h-217v86h48c-15 17 -22 36 -22 59c0 51 38 91 97 91c35 0 66 -16 86 -36l-48 -49c-7 7 -17 11 -30 11c-21 0 -35 -14 -35 -35c0 -24 20 -41 60 -41z" />
    <glyph glyph-name="uni06CC" unicode="&#x6cc;" horiz-adv-x="1139" 
d="M708 231c0 -7 2 -17 5 -29l103 -349c-46 -29 -104 -55 -175 -79c-70 -24 -141 -36 -213 -36c-222 0 -360 127 -360 330c0 49 7 100 21 152l130 -24c-9 -32 -13 -64 -13 -97c0 -137 83 -212 232 -212c35 0 74 4 115 12s75 17 101 28l-80 261c-9 27 -13 52 -13 76
c0 101 79 162 188 162h225l112 -395l-130 -35l-85 291h-91c-45 0 -72 -20 -72 -56z" />
    <glyph glyph-name="uni06D2" unicode="&#x6d2;" horiz-adv-x="848" 
d="M70 114c0 59 17 103 50 132s75 50 124 63l102 26c44 11 58 30 58 82v75h143v-117c0 -85 -26 -137 -129 -164l-156 -40c-33 -9 -50 -25 -50 -48c0 -27 18 -40 66 -40h530v-151h-485c-171 0 -253 58 -253 182z" />
    <glyph glyph-name="uni06D3" unicode="&#x6d3;" horiz-adv-x="848" 
d="M70 114c0 59 17 103 50 132s75 50 124 63l102 26c44 11 58 30 58 82v75h143v-117c0 -85 -26 -137 -129 -164l-156 -40c-33 -9 -50 -25 -50 -48c0 -27 18 -40 66 -40h530v-151h-485c-171 0 -253 58 -253 182zM205 481h61v-86h-217v86h48c-15 17 -22 36 -22 59
c0 51 38 91 97 91c35 0 66 -16 86 -36l-48 -49c-7 7 -17 11 -30 11c-21 0 -35 -14 -35 -35c0 -24 20 -41 60 -41z" />
    <glyph glyph-name="uni0640" unicode="&#x640;" horiz-adv-x="250" 
d="M266 150v-148c0 -1 -5 -2 -16 -2h-250c-11 0 -16 1 -16 2v148h282z" />
    <glyph glyph-name="zero" unicode="0" horiz-adv-x="726" 
d="M678 340c0 -215 -123 -350 -315 -350s-315 135 -315 350s123 350 315 350s315 -135 315 -350zM211 340c0 -127 59 -206 152 -206c95 0 153 79 153 206s-58 206 -153 206s-152 -78 -152 -206z" />
    <glyph glyph-name="zero.lf" horiz-adv-x="726" 
d="M678 340c0 -215 -123 -350 -315 -350s-315 135 -315 350s123 350 315 350s315 -135 315 -350zM211 340c0 -127 59 -206 152 -206c95 0 153 79 153 206s-58 206 -153 206s-152 -78 -152 -206z" />
    <glyph glyph-name="zero.osf" horiz-adv-x="653" 
d="M608 250c0 -147 -123 -260 -282 -260s-281 113 -281 260s122 260 281 260s282 -113 282 -260zM196 250c0 -75 55 -129 130 -129c76 0 131 54 131 129s-55 129 -131 129c-75 0 -130 -54 -130 -129z" />
    <glyph glyph-name="zero.tf" horiz-adv-x="600" 
d="M583 340c0 -215 -110 -350 -283 -350c-174 0 -282 135 -282 350s108 350 282 350c173 0 283 -135 283 -350zM173 340c0 -127 48 -206 127 -206s127 79 127 206s-48 206 -127 206s-127 -78 -127 -206z" />
    <glyph glyph-name="zero.tosf" horiz-adv-x="635" 
d="M599 250c0 -147 -123 -260 -282 -260s-281 113 -281 260s122 260 281 260s282 -113 282 -260zM187 250c0 -75 55 -129 130 -129c76 0 131 54 131 129s-55 129 -131 129c-75 0 -130 -54 -130 -129z" />
    <glyph glyph-name="one" unicode="1" horiz-adv-x="403" 
d="M334 681v-681h-160v540l-124 -28l-28 120l185 49h127z" />
    <glyph glyph-name="one.lf" horiz-adv-x="403" 
d="M334 681v-681h-160v540l-124 -28l-28 120l185 49h127z" />
    <glyph glyph-name="one.osf" horiz-adv-x="382" 
d="M327 500v-500h-159v359l-125 -27l-28 120l186 48h126z" />
    <glyph glyph-name="one.tf" horiz-adv-x="487" 
d="M368 681v-681h-160v540l-124 -28l-28 120l185 49h127z" />
    <glyph glyph-name="one.tosf" horiz-adv-x="469" 
d="M364 500v-500h-159v359l-125 -27l-28 120l186 48h126z" />
    <glyph glyph-name="two" unicode="2" horiz-adv-x="605" 
d="M277 134h296v-134h-539v121l301 239c47 40 64 68 64 105c0 49 -40 83 -97 83c-63 0 -121 -31 -169 -90l-102 87c63 92 164 145 279 145c147 0 252 -90 252 -215c0 -83 -36 -141 -165 -242z" />
    <glyph glyph-name="two.lf" horiz-adv-x="605" 
d="M277 134h296v-134h-539v121l301 239c47 40 64 68 64 105c0 49 -40 83 -97 83c-63 0 -121 -31 -169 -90l-102 87c63 92 164 145 279 145c147 0 252 -90 252 -215c0 -83 -36 -141 -165 -242z" />
    <glyph glyph-name="two.osf" horiz-adv-x="574" 
d="M298 123h226v-123h-474v97l257 165c37 24 53 48 53 76c0 35 -26 54 -71 54c-52 0 -107 -26 -154 -71l-90 81c70 72 153 108 249 108c128 0 221 -67 221 -160c0 -33 -10 -63 -30 -88s-55 -53 -105 -86z" />
    <glyph glyph-name="two.tf" horiz-adv-x="599" 
d="M274 134h296v-134h-539v121l301 239c47 40 64 68 64 105c0 49 -40 83 -97 83c-63 0 -121 -31 -169 -90l-102 87c63 92 164 145 279 145c147 0 252 -90 252 -215c0 -83 -36 -141 -165 -242z" />
    <glyph glyph-name="two.tosf" horiz-adv-x="595" 
d="M310 123h226v-123h-474v97l257 165c37 24 53 48 53 76c0 35 -26 54 -71 54c-52 0 -107 -26 -154 -71l-90 81c70 72 153 108 249 108c128 0 221 -67 221 -160c0 -33 -10 -63 -30 -88s-55 -53 -105 -86z" />
    <glyph glyph-name="three" unicode="3" horiz-adv-x="624" 
d="M577 212c0 -129 -110 -222 -269 -222c-100 0 -184 30 -275 95l95 106c49 -39 113 -63 169 -63c72 0 119 38 119 95c0 53 -41 83 -114 83c-25 0 -61 -5 -108 -16l-26 89l189 168h-280v133h478v-115l-180 -158c117 -2 202 -84 202 -195z" />
    <glyph glyph-name="three.lf" horiz-adv-x="624" 
d="M577 212c0 -129 -110 -222 -269 -222c-100 0 -184 30 -275 95l95 106c49 -39 113 -63 169 -63c72 0 119 38 119 95c0 53 -41 83 -114 83c-25 0 -61 -5 -108 -16l-26 89l189 168h-280v133h478v-115l-180 -158c117 -2 202 -84 202 -195z" />
    <glyph glyph-name="three.osf" horiz-adv-x="624" 
d="M584 22c0 -132 -116 -227 -278 -227c-101 0 -184 29 -276 96l94 111c49 -44 115 -70 172 -70c73 0 122 40 122 103c0 57 -42 89 -117 89c-27 0 -64 -6 -110 -17l-23 91l189 169h-280v133h478v-115l-179 -158c119 -2 208 -90 208 -205z" />
    <glyph glyph-name="three.tf" horiz-adv-x="609" 
d="M573 212c0 -129 -110 -222 -269 -222c-100 0 -184 30 -275 95l95 106c49 -39 113 -63 169 -63c72 0 119 38 119 95c0 53 -41 83 -114 83c-25 0 -61 -5 -108 -16l-26 89l189 168h-280v133h478v-115l-180 -158c117 -2 202 -84 202 -195z" />
    <glyph glyph-name="three.tosf" horiz-adv-x="609" 
d="M577 22c0 -132 -116 -227 -278 -227c-101 0 -184 29 -276 96l94 111c49 -44 115 -70 172 -70c73 0 122 40 122 103c0 57 -42 89 -117 89c-27 0 -64 -6 -110 -17l-23 91l189 169h-280v133h478v-115l-179 -158c119 -2 208 -90 208 -205z" />
    <glyph glyph-name="four" unicode="4" horiz-adv-x="667" 
d="M541 270h99v-126h-99v-144h-160v144h-335l-21 126l332 410h184v-410zM200 270h182v229z" />
    <glyph glyph-name="four.lf" horiz-adv-x="667" 
d="M541 270h99v-126h-99v-144h-160v144h-335l-21 126l332 410h184v-410zM200 270h182v229z" />
    <glyph glyph-name="four.osf" horiz-adv-x="654" 
d="M530 124h99v-131h-99v-188h-160v188h-325l-20 126l322 381h183v-376zM195 124h176v210z" />
    <glyph glyph-name="four.tf" horiz-adv-x="600" 
d="M498 270h93v-126h-93v-144h-156v144h-314l-19 126l316 410h173v-410zM168 270h175v230z" />
    <glyph glyph-name="four.tosf" horiz-adv-x="600" 
d="M507 124h94v-131h-94v-188h-160v188h-325l-21 126l322 381h184v-376zM172 124h176v210z" />
    <glyph glyph-name="five" unicode="5" horiz-adv-x="616" 
d="M580 225c0 -140 -109 -235 -277 -235c-104 0 -201 37 -270 105l83 103c51 -44 117 -71 178 -71c76 0 126 41 126 104c0 60 -46 100 -118 100c-47 0 -94 -18 -129 -51l-100 53l16 347h457v-133h-319l-6 -126c39 14 79 21 118 21c147 0 241 -87 241 -217z" />
    <glyph glyph-name="five.lf" horiz-adv-x="616" 
d="M580 225c0 -140 -109 -235 -277 -235c-104 0 -201 37 -270 105l83 103c51 -44 117 -71 178 -71c76 0 126 41 126 104c0 60 -46 100 -118 100c-47 0 -94 -18 -129 -51l-100 53l16 347h457v-133h-319l-6 -126c39 14 79 21 118 21c147 0 241 -87 241 -217z" />
    <glyph glyph-name="five.osf" horiz-adv-x="617" 
d="M577 34c0 -144 -109 -239 -277 -239c-104 0 -201 37 -270 106l83 103c49 -47 117 -73 178 -73c76 0 126 44 126 108c0 63 -46 103 -118 103c-47 0 -94 -17 -129 -52l-100 54l16 356h457v-133h-319l-6 -134c39 14 79 21 118 21c147 0 241 -87 241 -220z" />
    <glyph glyph-name="five.tf" horiz-adv-x="607" 
d="M574 225c0 -140 -109 -235 -277 -235c-104 0 -201 37 -270 105l83 103c51 -44 117 -71 178 -71c76 0 126 41 126 104c0 60 -46 100 -118 100c-47 0 -94 -18 -129 -51l-100 53l16 347h457v-133h-319l-6 -126c39 14 79 21 118 21c147 0 241 -87 241 -217z" />
    <glyph glyph-name="five.tosf" horiz-adv-x="607" 
d="M570 34c0 -144 -109 -239 -277 -239c-104 0 -201 37 -270 106l83 103c49 -47 117 -73 178 -73c76 0 126 44 126 108c0 63 -46 103 -118 103c-47 0 -94 -17 -129 -52l-100 54l16 356h457v-133h-319l-6 -134c39 14 79 21 118 21c147 0 241 -87 241 -220z" />
    <glyph glyph-name="six" unicode="6" horiz-adv-x="634" 
d="M601 232c0 -138 -113 -242 -271 -242c-175 0 -283 127 -283 343c0 227 111 357 303 357c84 0 160 -23 227 -69l-67 -107c-45 30 -93 45 -145 45c-99 0 -147 -57 -156 -182c45 40 101 60 167 60c132 0 225 -85 225 -205zM449 225c0 63 -43 104 -108 104
c-55 0 -100 -28 -129 -81c13 -91 55 -132 124 -132c71 0 113 42 113 109z" />
    <glyph glyph-name="six.lf" horiz-adv-x="634" 
d="M601 232c0 -138 -113 -242 -271 -242c-175 0 -283 127 -283 343c0 227 111 357 303 357c84 0 160 -23 227 -69l-67 -107c-45 30 -93 45 -145 45c-99 0 -147 -57 -156 -182c45 40 101 60 167 60c132 0 225 -85 225 -205zM449 225c0 63 -43 104 -108 104
c-55 0 -100 -28 -129 -81c13 -91 55 -132 124 -132c71 0 113 42 113 109z" />
    <glyph glyph-name="six.osf" horiz-adv-x="634" 
d="M601 232c0 -138 -113 -242 -271 -242c-175 0 -283 127 -283 343c0 227 111 357 303 357c84 0 160 -23 227 -69l-67 -107c-45 30 -93 45 -145 45c-99 0 -147 -57 -156 -182c45 40 101 60 167 60c132 0 225 -85 225 -205zM449 225c0 63 -43 104 -108 104
c-55 0 -100 -28 -129 -81c13 -91 55 -132 124 -132c71 0 113 42 113 109z" />
    <glyph glyph-name="six.tf" horiz-adv-x="617" 
d="M589 232c0 -138 -113 -242 -271 -242c-175 0 -283 127 -283 343c0 227 111 357 303 357c84 0 160 -23 227 -69l-67 -107c-45 30 -93 45 -145 45c-99 0 -147 -57 -156 -182c45 40 101 60 167 60c132 0 225 -85 225 -205zM437 225c0 63 -43 104 -108 104
c-55 0 -100 -28 -129 -81c13 -91 55 -132 124 -132c71 0 113 42 113 109z" />
    <glyph glyph-name="six.tosf" horiz-adv-x="617" 
d="M589 232c0 -138 -113 -242 -271 -242c-175 0 -283 127 -283 343c0 227 111 357 303 357c84 0 160 -23 227 -69l-67 -107c-45 30 -93 45 -145 45c-99 0 -147 -57 -156 -182c45 40 101 60 167 60c132 0 225 -85 225 -205zM437 225c0 63 -43 104 -108 104
c-55 0 -100 -28 -129 -81c13 -91 55 -132 124 -132c71 0 113 42 113 109z" />
    <glyph glyph-name="seven" unicode="7" horiz-adv-x="575" 
d="M29 680h528v-126l-315 -554h-181l314 542h-346v138z" />
    <glyph glyph-name="seven.lf" horiz-adv-x="575" 
d="M29 680h528v-126l-315 -554h-181l314 542h-346v138z" />
    <glyph glyph-name="seven.osf" horiz-adv-x="576" 
d="M29 500h528v-126l-315 -569h-181l315 557h-347v138z" />
    <glyph glyph-name="seven.tf" horiz-adv-x="584" 
d="M32 680h528v-126l-315 -554h-181l314 542h-346v138z" />
    <glyph glyph-name="seven.tosf" horiz-adv-x="585" 
d="M31 500h528v-126l-315 -569h-181l315 557h-347v138z" />
    <glyph glyph-name="eight" unicode="8" horiz-adv-x="660" 
d="M613 188c0 -114 -116 -198 -282 -198s-283 84 -283 199c0 77 47 137 128 169c-67 29 -105 82 -105 149c0 105 111 183 260 183s259 -78 259 -183c0 -67 -38 -120 -105 -149c83 -31 128 -93 128 -170zM219 486c0 -53 44 -83 112 -83s111 30 111 83c0 49 -42 84 -111 84
s-112 -33 -112 -84zM454 205c0 59 -49 95 -124 95s-123 -36 -123 -95c0 -55 46 -92 125 -92c77 0 122 36 122 92z" />
    <glyph glyph-name="eight.lf" horiz-adv-x="660" 
d="M613 188c0 -114 -116 -198 -282 -198s-283 84 -283 199c0 77 47 137 128 169c-67 29 -105 82 -105 149c0 105 111 183 260 183s259 -78 259 -183c0 -67 -38 -120 -105 -149c83 -31 128 -93 128 -170zM219 486c0 -53 44 -83 112 -83s111 30 111 83c0 49 -42 84 -111 84
s-112 -33 -112 -84zM454 205c0 59 -49 95 -124 95s-123 -36 -123 -95c0 -55 46 -92 125 -92c77 0 122 36 122 92z" />
    <glyph glyph-name="eight.osf" horiz-adv-x="660" 
d="M613 188c0 -114 -116 -198 -282 -198s-283 84 -283 199c0 77 47 137 128 169c-67 29 -105 82 -105 149c0 105 111 183 260 183s259 -78 259 -183c0 -67 -38 -120 -105 -149c83 -31 128 -93 128 -170zM219 486c0 -53 44 -83 112 -83s111 30 111 83c0 49 -42 84 -111 84
s-112 -33 -112 -84zM454 205c0 59 -49 95 -124 95s-123 -36 -123 -95c0 -55 46 -92 125 -92c77 0 122 36 122 92z" />
    <glyph glyph-name="eight.tf" horiz-adv-x="631" 
d="M598 188c0 -114 -116 -198 -282 -198s-283 84 -283 199c0 77 47 137 128 169c-67 29 -105 82 -105 149c0 105 111 183 260 183s259 -78 259 -183c0 -67 -38 -120 -105 -149c83 -31 128 -93 128 -170zM204 486c0 -53 44 -83 112 -83s111 30 111 83c0 49 -42 84 -111 84
s-112 -33 -112 -84zM439 205c0 59 -49 95 -124 95s-123 -36 -123 -95c0 -55 46 -92 125 -92c77 0 122 36 122 92z" />
    <glyph glyph-name="eight.tosf" horiz-adv-x="631" 
d="M598 188c0 -114 -116 -198 -282 -198s-283 84 -283 199c0 77 47 137 128 169c-67 29 -105 82 -105 149c0 105 111 183 260 183s259 -78 259 -183c0 -67 -38 -120 -105 -149c83 -31 128 -93 128 -170zM204 486c0 -53 44 -83 112 -83s111 30 111 83c0 49 -42 84 -111 84
s-112 -33 -112 -84zM439 205c0 59 -49 95 -124 95s-123 -36 -123 -95c0 -55 46 -92 125 -92c77 0 122 36 122 92z" />
    <glyph glyph-name="nine" unicode="9" horiz-adv-x="634" 
d="M586 347c0 -227 -111 -357 -303 -357c-84 0 -159 23 -226 69l67 108c43 -29 93 -45 144 -45c99 0 148 57 157 182c-46 -41 -102 -61 -167 -61c-133 0 -226 85 -226 206c0 137 113 241 272 241c174 0 282 -126 282 -343zM422 433c-15 92 -54 132 -125 132
s-113 -42 -113 -110c0 -63 43 -104 108 -104c55 0 98 27 130 82z" />
    <glyph glyph-name="nine.lf" horiz-adv-x="634" 
d="M586 347c0 -227 -111 -357 -303 -357c-84 0 -159 23 -226 69l67 108c43 -29 93 -45 144 -45c99 0 148 57 157 182c-46 -41 -102 -61 -167 -61c-133 0 -226 85 -226 206c0 137 113 241 272 241c174 0 282 -126 282 -343zM422 433c-15 92 -54 132 -125 132
s-113 -42 -113 -110c0 -63 43 -104 108 -104c55 0 98 27 130 82z" />
    <glyph glyph-name="nine.osf" horiz-adv-x="635" 
d="M586 159c0 -232 -110 -364 -303 -364c-83 0 -159 23 -226 69l67 108c43 -29 93 -46 144 -46c100 0 149 62 158 198c-47 -41 -103 -61 -168 -61c-133 0 -226 84 -226 207c0 137 115 240 272 240c177 0 282 -130 282 -351zM421 252c-13 91 -55 133 -124 133
s-113 -42 -113 -109c0 -64 43 -105 108 -105c55 0 100 28 129 81z" />
    <glyph glyph-name="nine.tf" horiz-adv-x="617" 
d="M581 347c0 -227 -111 -357 -303 -357c-84 0 -159 23 -226 69l67 108c43 -29 93 -45 144 -45c99 0 148 57 157 182c-46 -41 -102 -61 -167 -61c-133 0 -226 85 -226 206c0 137 113 241 272 241c174 0 282 -126 282 -343zM417 433c-15 92 -54 132 -125 132
s-113 -42 -113 -110c0 -63 43 -104 108 -104c55 0 98 27 130 82z" />
    <glyph glyph-name="nine.tosf" horiz-adv-x="618" 
d="M580 159c0 -232 -110 -364 -303 -364c-83 0 -159 23 -226 69l67 108c43 -29 93 -46 144 -46c100 0 149 62 158 198c-47 -41 -103 -61 -168 -61c-133 0 -226 84 -226 207c0 137 115 240 272 240c177 0 282 -130 282 -351zM415 252c-13 91 -55 133 -124 133
s-113 -42 -113 -109c0 -64 43 -105 108 -105c55 0 100 28 129 81z" />
    <glyph glyph-name="uni2080" unicode="&#x2080;" horiz-adv-x="429" 
d="M406 204c0 -63 -17 -113 -52 -152s-81 -58 -139 -58c-117 0 -192 85 -192 210s75 210 192 210c58 0 104 -19 139 -58s52 -89 52 -152zM138 204c0 -71 30 -111 77 -111s76 40 76 111s-29 111 -76 111s-77 -40 -77 -111z" />
    <glyph glyph-name="uni2081" unicode="&#x2081;" horiz-adv-x="263" 
d="M213 408v-408h-114v308l-69 -15l-20 85l117 30h86z" />
    <glyph glyph-name="uni2082" unicode="&#x2082;" horiz-adv-x="371" 
d="M190 96h156v-96h-329v79l169 138c29 24 40 39 40 58c0 25 -19 42 -50 42c-30 0 -62 -18 -95 -54l-68 62c47 59 104 89 173 89c46 0 84 -12 114 -37s45 -56 45 -93c0 -45 -24 -82 -95 -138z" />
    <glyph glyph-name="uni2083" unicode="&#x2083;" horiz-adv-x="375" 
d="M349 134c0 -81 -74 -140 -177 -140c-58 0 -110 18 -156 53l56 71c29 -20 59 -30 91 -30c43 0 69 18 69 47c0 27 -26 44 -67 44c-18 0 -37 -3 -56 -8l-16 55l99 89h-149v93h295v-77l-91 -82c63 -11 102 -55 102 -115z" />
    <glyph glyph-name="uni2084" unicode="&#x2084;" horiz-adv-x="403" 
d="M329 178h56v-93h-56v-85h-113v85h-194l-13 89l191 234h129v-230zM127 178h89v118z" />
    <glyph glyph-name="uni2085" unicode="&#x2085;" horiz-adv-x="374" 
d="M353 136c0 -83 -75 -142 -172 -142c-69 0 -123 17 -171 52l56 72c31 -19 62 -29 94 -29c47 0 74 18 74 51c0 31 -23 49 -59 49c-24 0 -45 -8 -63 -25l-73 38l9 206h282v-89h-182l-2 -64c17 5 35 8 53 8c92 0 154 -52 154 -127z" />
    <glyph glyph-name="uni2086" unicode="&#x2086;" horiz-adv-x="376" 
d="M357 138c0 -81 -71 -144 -163 -144c-107 0 -171 78 -171 203c0 132 73 217 189 217c49 0 97 -17 136 -46l-44 -72c-29 19 -57 28 -83 28c-47 0 -78 -32 -85 -88c21 15 55 25 88 25c79 0 133 -50 133 -123zM251 136c0 36 -19 57 -54 57c-28 0 -51 -15 -62 -40
c4 -51 25 -77 61 -77c33 0 55 23 55 60z" />
    <glyph glyph-name="uni2087" unicode="&#x2087;" horiz-adv-x="351" 
d="M14 408h323v-84l-181 -324h-128l177 310h-191v98z" />
    <glyph glyph-name="uni2088" unicode="&#x2088;" horiz-adv-x="391" 
d="M369 117c0 -70 -75 -123 -174 -123s-173 53 -173 123c0 41 24 78 67 99c-35 19 -54 49 -54 84c0 33 15 60 45 81c31 22 69 33 115 33s84 -11 115 -33c31 -21 46 -48 46 -81c0 -35 -19 -66 -54 -85c43 -20 67 -57 67 -98zM143 287c0 -27 19 -43 52 -43s53 16 53 43
s-20 45 -53 45c-32 0 -52 -18 -52 -45zM255 127c0 31 -22 48 -59 48s-61 -20 -61 -49s24 -49 60 -49c37 0 60 19 60 50z" />
    <glyph glyph-name="uni2089" unicode="&#x2089;" horiz-adv-x="376" 
d="M353 212c0 -132 -73 -218 -189 -218c-49 0 -97 17 -136 46l44 72c30 -18 58 -27 83 -27c47 0 77 31 85 87c-21 -15 -55 -25 -88 -25c-79 0 -133 51 -133 124c0 81 71 143 163 143c105 0 171 -77 171 -202zM241 255c-4 52 -25 78 -61 78c-33 0 -55 -23 -55 -60
c0 -36 21 -58 54 -58c28 0 51 15 62 40z" />
    <glyph glyph-name="zero.dnom" horiz-adv-x="429" 
d="M406 204c0 -63 -17 -113 -52 -152s-81 -58 -139 -58c-117 0 -192 85 -192 210s75 210 192 210c58 0 104 -19 139 -58s52 -89 52 -152zM138 204c0 -71 30 -111 77 -111s76 40 76 111s-29 111 -76 111s-77 -40 -77 -111z" />
    <glyph glyph-name="one.dnom" horiz-adv-x="263" 
d="M213 408v-408h-114v308l-69 -15l-20 85l117 30h86z" />
    <glyph glyph-name="two.dnom" horiz-adv-x="371" 
d="M190 96h156v-96h-329v79l169 138c29 24 40 39 40 58c0 25 -19 42 -50 42c-30 0 -62 -18 -95 -54l-68 62c47 59 104 89 173 89c46 0 84 -12 114 -37s45 -56 45 -93c0 -45 -24 -82 -95 -138z" />
    <glyph glyph-name="three.dnom" horiz-adv-x="375" 
d="M349 134c0 -81 -74 -140 -177 -140c-58 0 -110 18 -156 53l56 71c29 -20 59 -30 91 -30c43 0 69 18 69 47c0 27 -26 44 -67 44c-18 0 -37 -3 -56 -8l-16 55l99 89h-149v93h295v-77l-91 -82c63 -11 102 -55 102 -115z" />
    <glyph glyph-name="four.dnom" horiz-adv-x="403" 
d="M329 178h56v-93h-56v-85h-113v85h-194l-13 89l191 234h129v-230zM127 178h89v118z" />
    <glyph glyph-name="five.dnom" horiz-adv-x="374" 
d="M353 136c0 -83 -75 -142 -172 -142c-69 0 -123 17 -171 52l56 72c31 -19 62 -29 94 -29c47 0 74 18 74 51c0 31 -23 49 -59 49c-24 0 -45 -8 -63 -25l-73 38l9 206h282v-89h-182l-2 -64c17 5 35 8 53 8c92 0 154 -52 154 -127z" />
    <glyph glyph-name="six.dnom" horiz-adv-x="376" 
d="M357 138c0 -81 -71 -144 -163 -144c-107 0 -171 78 -171 203c0 132 73 217 189 217c49 0 97 -17 136 -46l-44 -72c-29 19 -57 28 -83 28c-47 0 -78 -32 -85 -88c21 15 55 25 88 25c79 0 133 -50 133 -123zM251 136c0 36 -19 57 -54 57c-28 0 -51 -15 -62 -40
c4 -51 25 -77 61 -77c33 0 55 23 55 60z" />
    <glyph glyph-name="seven.dnom" horiz-adv-x="351" 
d="M14 408h323v-84l-181 -324h-128l177 310h-191v98z" />
    <glyph glyph-name="eight.dnom" horiz-adv-x="391" 
d="M369 117c0 -70 -75 -123 -174 -123s-173 53 -173 123c0 41 24 78 67 99c-35 19 -54 49 -54 84c0 33 15 60 45 81c31 22 69 33 115 33s84 -11 115 -33c31 -21 46 -48 46 -81c0 -35 -19 -66 -54 -85c43 -20 67 -57 67 -98zM143 287c0 -27 19 -43 52 -43s53 16 53 43
s-20 45 -53 45c-32 0 -52 -18 -52 -45zM255 127c0 31 -22 48 -59 48s-61 -20 -61 -49s24 -49 60 -49c37 0 60 19 60 50z" />
    <glyph glyph-name="nine.dnom" horiz-adv-x="376" 
d="M353 212c0 -132 -73 -218 -189 -218c-49 0 -97 17 -136 46l44 72c30 -18 58 -27 83 -27c47 0 77 31 85 87c-21 -15 -55 -25 -88 -25c-79 0 -133 51 -133 124c0 81 71 143 163 143c105 0 171 -77 171 -202zM241 255c-4 52 -25 78 -61 78c-33 0 -55 -23 -55 -60
c0 -36 21 -58 54 -58c28 0 51 15 62 40z" />
    <glyph glyph-name="zero.numr" horiz-adv-x="429" 
d="M406 476c0 -63 -17 -113 -52 -152s-81 -58 -139 -58c-117 0 -192 85 -192 210s75 210 192 210c58 0 104 -19 139 -58s52 -89 52 -152zM138 476c0 -71 30 -111 77 -111s76 40 76 111s-29 111 -76 111s-77 -40 -77 -111z" />
    <glyph glyph-name="one.numr" horiz-adv-x="263" 
d="M213 680v-408h-114v308l-69 -15l-20 85l117 30h86z" />
    <glyph glyph-name="two.numr" horiz-adv-x="371" 
d="M190 368h156v-96h-329v79l169 138c29 24 40 39 40 58c0 25 -19 42 -50 42c-30 0 -62 -18 -95 -54l-68 62c47 59 104 89 173 89c46 0 84 -12 114 -37s45 -56 45 -93c0 -45 -24 -82 -95 -138z" />
    <glyph glyph-name="three.numr" horiz-adv-x="375" 
d="M349 406c0 -81 -74 -140 -177 -140c-58 0 -110 18 -156 53l56 71c29 -20 59 -30 91 -30c43 0 69 18 69 47c0 27 -26 44 -67 44c-18 0 -37 -3 -56 -8l-16 55l99 89h-149v93h295v-77l-91 -82c63 -11 102 -55 102 -115z" />
    <glyph glyph-name="four.numr" horiz-adv-x="403" 
d="M329 450h56v-93h-56v-85h-113v85h-194l-13 89l191 234h129v-230zM127 450h89v118z" />
    <glyph glyph-name="five.numr" horiz-adv-x="374" 
d="M353 408c0 -83 -75 -142 -172 -142c-69 0 -123 17 -171 52l56 72c31 -19 62 -29 94 -29c47 0 74 18 74 51c0 31 -23 49 -59 49c-24 0 -45 -8 -63 -25l-73 38l9 206h282v-89h-182l-2 -64c17 5 35 8 53 8c92 0 154 -52 154 -127z" />
    <glyph glyph-name="six.numr" horiz-adv-x="376" 
d="M357 410c0 -81 -71 -144 -163 -144c-107 0 -171 78 -171 203c0 132 73 217 189 217c49 0 97 -17 136 -46l-44 -72c-29 19 -57 28 -83 28c-47 0 -78 -32 -85 -88c21 15 55 25 88 25c79 0 133 -50 133 -123zM251 408c0 36 -19 57 -54 57c-28 0 -51 -15 -62 -40
c4 -51 25 -77 61 -77c33 0 55 23 55 60z" />
    <glyph glyph-name="seven.numr" horiz-adv-x="351" 
d="M14 680h323v-84l-181 -324h-128l177 310h-191v98z" />
    <glyph glyph-name="eight.numr" horiz-adv-x="391" 
d="M369 389c0 -70 -75 -123 -174 -123s-173 53 -173 123c0 41 24 78 67 99c-35 19 -54 49 -54 84c0 33 15 60 45 81c31 22 69 33 115 33s84 -11 115 -33c31 -21 46 -48 46 -81c0 -35 -19 -66 -54 -85c43 -20 67 -57 67 -98zM143 559c0 -27 19 -43 52 -43s53 16 53 43
s-20 45 -53 45c-32 0 -52 -18 -52 -45zM255 399c0 31 -22 48 -59 48s-61 -20 -61 -49s24 -49 60 -49c37 0 60 19 60 50z" />
    <glyph glyph-name="nine.numr" horiz-adv-x="376" 
d="M353 484c0 -132 -73 -218 -189 -218c-49 0 -97 17 -136 46l44 72c30 -18 58 -27 83 -27c47 0 77 31 85 87c-21 -15 -55 -25 -88 -25c-79 0 -133 51 -133 124c0 81 71 143 163 143c105 0 171 -77 171 -202zM241 527c-4 52 -25 78 -61 78c-33 0 -55 -23 -55 -60
c0 -36 21 -58 54 -58c28 0 51 15 62 40z" />
    <glyph glyph-name="uni2070" unicode="&#x2070;" horiz-adv-x="429" 
d="M406 546c0 -63 -17 -113 -52 -152s-81 -58 -139 -58c-117 0 -192 85 -192 210s75 210 192 210c58 0 104 -19 139 -58s52 -89 52 -152zM138 546c0 -71 30 -111 77 -111s76 40 76 111s-29 111 -76 111s-77 -40 -77 -111z" />
    <glyph glyph-name="uni00B9" unicode="&#xb9;" horiz-adv-x="263" 
d="M213 750v-408h-114v308l-69 -15l-20 85l117 30h86z" />
    <glyph glyph-name="uni00B2" unicode="&#xb2;" horiz-adv-x="371" 
d="M190 438h156v-96h-329v79l169 138c29 24 40 39 40 58c0 25 -19 42 -50 42c-30 0 -62 -18 -95 -54l-68 62c47 59 104 89 173 89c46 0 84 -12 114 -37s45 -56 45 -93c0 -45 -24 -82 -95 -138z" />
    <glyph glyph-name="uni00B3" unicode="&#xb3;" horiz-adv-x="375" 
d="M349 476c0 -81 -74 -140 -177 -140c-58 0 -110 18 -156 53l56 71c29 -20 59 -30 91 -30c43 0 69 18 69 47c0 27 -26 44 -67 44c-18 0 -37 -3 -56 -8l-16 55l99 89h-149v93h295v-77l-91 -82c63 -11 102 -55 102 -115z" />
    <glyph glyph-name="uni2074" unicode="&#x2074;" horiz-adv-x="403" 
d="M329 520h56v-93h-56v-85h-113v85h-194l-13 89l191 234h129v-230zM127 520h89v118z" />
    <glyph glyph-name="uni2075" unicode="&#x2075;" horiz-adv-x="374" 
d="M353 478c0 -83 -75 -142 -172 -142c-69 0 -123 17 -171 52l56 72c31 -19 62 -29 94 -29c47 0 74 18 74 51c0 31 -23 49 -59 49c-24 0 -45 -8 -63 -25l-73 38l9 206h282v-89h-182l-2 -64c17 5 35 8 53 8c92 0 154 -52 154 -127z" />
    <glyph glyph-name="uni2076" unicode="&#x2076;" horiz-adv-x="376" 
d="M357 480c0 -81 -71 -144 -163 -144c-107 0 -171 78 -171 203c0 132 73 217 189 217c49 0 97 -17 136 -46l-44 -72c-29 19 -57 28 -83 28c-47 0 -78 -32 -85 -88c21 15 55 25 88 25c79 0 133 -50 133 -123zM251 478c0 36 -19 57 -54 57c-28 0 -51 -15 -62 -40
c4 -51 25 -77 61 -77c33 0 55 23 55 60z" />
    <glyph glyph-name="uni2077" unicode="&#x2077;" horiz-adv-x="351" 
d="M14 750h323v-84l-181 -324h-128l177 310h-191v98z" />
    <glyph glyph-name="uni2078" unicode="&#x2078;" horiz-adv-x="391" 
d="M369 459c0 -70 -75 -123 -174 -123s-173 53 -173 123c0 41 24 78 67 99c-35 19 -54 49 -54 84c0 33 15 60 45 81c31 22 69 33 115 33s84 -11 115 -33c31 -21 46 -48 46 -81c0 -35 -19 -66 -54 -85c43 -20 67 -57 67 -98zM143 629c0 -27 19 -43 52 -43s53 16 53 43
s-20 45 -53 45c-32 0 -52 -18 -52 -45zM255 469c0 31 -22 48 -59 48s-61 -20 -61 -49s24 -49 60 -49c37 0 60 19 60 50z" />
    <glyph glyph-name="uni2079" unicode="&#x2079;" horiz-adv-x="376" 
d="M353 554c0 -132 -73 -218 -189 -218c-49 0 -97 17 -136 46l44 72c30 -18 58 -27 83 -27c47 0 77 31 85 87c-21 -15 -55 -25 -88 -25c-79 0 -133 51 -133 124c0 81 71 143 163 143c105 0 171 -77 171 -202zM241 597c-4 52 -25 78 -61 78c-33 0 -55 -23 -55 -60
c0 -36 21 -58 54 -58c28 0 51 15 62 40z" />
    <glyph glyph-name="fraction" unicode="&#x2044;" horiz-adv-x="166" 
d="M366 691l-447 -708h-119l446 708h120z" />
    <glyph glyph-name="onehalf" unicode="&#xbd;" horiz-adv-x="809" 
d="M213 680v-408h-114v308l-69 -15l-20 85l117 30h86zM639 691l-447 -708h-119l446 708h120zM628 96h156v-96h-329v79l169 138c29 24 40 39 40 58c0 25 -19 42 -50 42c-30 0 -62 -18 -95 -54l-68 62c47 59 104 89 173 89c46 0 84 -12 114 -37s45 -56 45 -93
c0 -45 -24 -82 -95 -138z" />
    <glyph glyph-name="onequarter" unicode="&#xbc;" horiz-adv-x="801" 
d="M213 680v-408h-114v308l-69 -15l-20 85l117 30h86zM656 691l-447 -708h-119l446 708h120zM727 178h56v-93h-56v-85h-113v85h-194l-13 89l191 234h129v-230zM525 178h89v118z" />
    <glyph glyph-name="threequarters" unicode="&#xbe;" horiz-adv-x="885" 
d="M349 406c0 -81 -74 -140 -177 -140c-58 0 -110 18 -156 53l56 71c29 -20 59 -30 91 -30c43 0 69 18 69 47c0 27 -26 44 -67 44c-18 0 -37 -3 -56 -8l-16 55l99 89h-149v93h295v-77l-91 -82c63 -11 102 -55 102 -115zM741 691l-447 -708h-119l446 708h120zM811 178h56v-93
h-56v-85h-113v85h-194l-13 89l191 234h129v-230zM609 178h89v118z" />
    <glyph glyph-name="oneeighth" unicode="&#x215b;" horiz-adv-x="839" 
d="M213 680v-408h-114v308l-69 -15l-20 85l117 30h86zM649 691l-447 -708h-119l446 708h120zM817 117c0 -70 -75 -123 -174 -123s-173 53 -173 123c0 41 24 78 67 99c-35 19 -54 49 -54 84c0 33 15 60 45 81c31 22 69 33 115 33s84 -11 115 -33c31 -21 46 -48 46 -81
c0 -35 -19 -66 -54 -85c43 -20 67 -57 67 -98zM591 287c0 -27 19 -43 52 -43s53 16 53 43s-20 45 -53 45c-32 0 -52 -18 -52 -45zM703 127c0 31 -22 48 -59 48s-61 -20 -61 -49s24 -49 60 -49c37 0 60 19 60 50z" />
    <glyph glyph-name="threeeighths" unicode="&#x215c;" horiz-adv-x="931" 
d="M349 406c0 -81 -74 -140 -177 -140c-58 0 -110 18 -156 53l56 71c29 -20 59 -30 91 -30c43 0 69 18 69 47c0 27 -26 44 -67 44c-18 0 -37 -3 -56 -8l-16 55l99 89h-149v93h295v-77l-91 -82c63 -11 102 -55 102 -115zM741 691l-447 -708h-119l446 708h120zM910 117
c0 -70 -75 -123 -174 -123s-173 53 -173 123c0 41 24 78 67 99c-35 19 -54 49 -54 84c0 33 15 60 45 81c31 22 69 33 115 33s84 -11 115 -33c31 -21 46 -48 46 -81c0 -35 -19 -66 -54 -85c43 -20 67 -57 67 -98zM684 287c0 -27 19 -43 52 -43s53 16 53 43s-20 45 -53 45
c-32 0 -52 -18 -52 -45zM796 127c0 31 -22 48 -59 48s-61 -20 -61 -49s24 -49 60 -49c37 0 60 19 60 50z" />
    <glyph glyph-name="fiveeighths" unicode="&#x215d;" horiz-adv-x="930" 
d="M353 408c0 -83 -75 -142 -172 -142c-69 0 -123 17 -171 52l56 72c31 -19 62 -29 94 -29c47 0 74 18 74 51c0 31 -23 49 -59 49c-24 0 -45 -8 -63 -25l-73 38l9 206h282v-89h-182l-2 -64c17 5 35 8 53 8c92 0 154 -52 154 -127zM740 691l-447 -708h-119l446 708h120z
M909 117c0 -70 -75 -123 -174 -123s-173 53 -173 123c0 41 24 78 67 99c-35 19 -54 49 -54 84c0 33 15 60 45 81c31 22 69 33 115 33s84 -11 115 -33c31 -21 46 -48 46 -81c0 -35 -19 -66 -54 -85c43 -20 67 -57 67 -98zM683 287c0 -27 19 -43 52 -43s53 16 53 43
s-20 45 -53 45c-32 0 -52 -18 -52 -45zM795 127c0 31 -22 48 -59 48s-61 -20 -61 -49s24 -49 60 -49c37 0 60 19 60 50z" />
    <glyph glyph-name="seveneighths" unicode="&#x215e;" horiz-adv-x="842" 
d="M14 680h323v-84l-181 -324h-128l177 310h-191v98zM652 691l-447 -708h-119l446 708h120zM821 117c0 -70 -75 -123 -174 -123s-173 53 -173 123c0 41 24 78 67 99c-35 19 -54 49 -54 84c0 33 15 60 45 81c31 22 69 33 115 33s84 -11 115 -33c31 -21 46 -48 46 -81
c0 -35 -19 -66 -54 -85c43 -20 67 -57 67 -98zM595 287c0 -27 19 -43 52 -43s53 16 53 43s-20 45 -53 45c-32 0 -52 -18 -52 -45zM707 127c0 31 -22 48 -59 48s-61 -20 -61 -49s24 -49 60 -49c37 0 60 19 60 50z" />
    <glyph glyph-name="uni066B" unicode="&#x66b;" horiz-adv-x="311" 
d="M231 65c0 -13 -5 -28 -14 -47l-83 -168h-52l35 152c-21 13 -34 35 -34 62c0 41 33 74 73 74c43 0 75 -32 75 -73z" />
    <glyph glyph-name="uni066C" unicode="&#x66c;" horiz-adv-x="349" 
d="M269 119l-136 -269h-53l63 269h126z" />
    <glyph glyph-name="uni0660" unicode="&#x660;" horiz-adv-x="371" 
d="M186 247l-111 110l111 111l110 -111z" />
    <glyph glyph-name="uni0661" unicode="&#x661;" horiz-adv-x="363" 
d="M135 0l-50 700h143l50 -700h-143z" />
    <glyph glyph-name="uni0662" unicode="&#x662;" horiz-adv-x="565" 
d="M505 700v-147h-266l39 -553h-143l-50 700h420z" />
    <glyph glyph-name="uni0663" unicode="&#x663;" horiz-adv-x="722" 
d="M551 700h111v-235c-27 -31 -84 -56 -144 -56c-41 0 -77 11 -110 33c-31 -22 -66 -33 -105 -33c-21 0 -39 3 -55 10l33 -419h-140l-56 700h141l12 -153c13 -5 29 -7 46 -7c23 0 43 4 60 12v148h96v-148c17 -8 36 -12 59 -12c20 0 37 4 52 12v148z" />
    <glyph glyph-name="uni0664" unicode="&#x664;" horiz-adv-x="549" 
d="M474 144l45 -114c-47 -24 -114 -40 -191 -40c-165 0 -263 71 -263 195c0 83 45 140 118 169c-74 32 -111 85 -111 160c0 123 92 196 243 196c65 0 126 -13 182 -39l-57 -110c-40 13 -79 20 -117 20c-72 0 -111 -30 -111 -75c0 -59 68 -99 185 -99h22v-101h-23
c-127 0 -191 -39 -191 -106c0 -53 44 -80 132 -80c59 0 108 12 137 24z" />
    <glyph glyph-name="uni0665" unicode="&#x665;" horiz-adv-x="664" 
d="M63 225c-2 170 101 391 269 385c166 6 272 -215 270 -386c0 -149 -89 -233 -270 -233s-269 85 -269 234zM465 255c1 98 -59 220 -133 217c-74 3 -134 -119 -133 -217c0 -88 44 -125 133 -125s133 37 133 125z" />
    <glyph glyph-name="uni0666" unicode="&#x666;" horiz-adv-x="558" 
d="M473 0h-142l-23 550h-278v150h414z" />
    <glyph glyph-name="uni0667" unicode="&#x667;" horiz-adv-x="667" 
d="M485 700h157c-79 -201 -151 -434 -216 -700h-184c-67 273 -140 506 -217 700h157c27 -73 52 -149 75 -229s49 -184 77 -312c29 132 55 237 77 314s47 153 74 227z" />
    <glyph glyph-name="uni0668" unicode="&#x668;" horiz-adv-x="667" 
d="M642 0h-157c-27 74 -52 150 -74 227s-48 182 -77 315c-28 -128 -54 -232 -77 -313c-23 -80 -48 -156 -75 -229h-157c77 195 150 428 217 700h184c65 -268 137 -501 216 -700z" />
    <glyph glyph-name="uni0669" unicode="&#x669;" horiz-adv-x="627" 
d="M542 0h-140l-15 221h-68c-171 0 -274 94 -274 247c0 155 110 242 256 242c67 0 133 -16 196 -49zM306 356h72l-14 205c-20 8 -42 12 -65 12c-69 0 -115 -35 -115 -108c0 -75 47 -109 122 -109z" />
    <glyph glyph-name="uni06F0" unicode="&#x6f0;" horiz-adv-x="371" 
d="M186 247l-111 110l111 111l110 -111z" />
    <glyph glyph-name="uni06F1" unicode="&#x6f1;" horiz-adv-x="363" 
d="M135 0l-50 700h143l50 -700h-143z" />
    <glyph glyph-name="uni06F2" unicode="&#x6f2;" horiz-adv-x="565" 
d="M505 700v-147h-266l39 -553h-143l-50 700h420z" />
    <glyph glyph-name="uni06F3" unicode="&#x6f3;" horiz-adv-x="722" 
d="M551 700h111v-235c-27 -31 -84 -56 -144 -56c-41 0 -77 11 -110 33c-31 -22 -66 -33 -105 -33c-21 0 -39 3 -55 10l33 -419h-140l-56 700h141l12 -153c13 -5 29 -7 46 -7c23 0 43 4 60 12v148h96v-148c17 -8 36 -12 59 -12c20 0 37 4 52 12v148z" />
    <glyph glyph-name="uni06F4" unicode="&#x6f4;" horiz-adv-x="630" 
d="M492 487h84v-124h-324l25 -363h-142l-50 700h143l15 -213h88c-17 22 -25 48 -25 79c0 84 58 145 150 145c55 0 100 -20 129 -48l-72 -72c-13 11 -30 16 -49 16c-37 0 -57 -22 -57 -57c0 -39 29 -63 85 -63z" />
    <glyph glyph-name="uni06F4.urdu" horiz-adv-x="620" 
d="M488 710l117 -40c-43 -22 -80 -59 -111 -111c-31 -51 -50 -104 -58 -158l-63 -29l-132 142l37 -514h-143l-50 700h143v-1l4 1l130 -143c31 69 75 125 126 153z" />
    <glyph glyph-name="uni06F5" unicode="&#x6f5;" horiz-adv-x="664" 
d="M601 224c0 -152 -71 -233 -168 -233c-44 0 -84 22 -101 59c-17 -37 -57 -59 -101 -59c-97 0 -168 81 -168 233c-2 171 101 392 269 386c168 6 271 -215 269 -386zM465 248c1 102 -59 228 -133 224c-74 4 -134 -122 -133 -224c0 -88 25 -119 66 -119c27 0 46 13 56 39h22
c10 -26 28 -39 55 -39c43 0 67 31 67 119z" />
    </font>
</defs>
</svg>
