<?xml version="1.0" standalone="no"?>
<!DOCTYPE svg PUBLIC "-//W3C//DTD SVG 1.1//EN" "http://www.w3.org/Graphics/SVG/1.1/DTD/svg11.dtd" >
<svg xmlns="http://www.w3.org/2000/svg" xmlns:xlink="http://www.w3.org/1999/xlink" version="1.1">
<metadata>
Created by FontForge 20170924 at Tue Mar  5 17:28:13 2019
 By www-data
Copyright \251 2014 by Jonathan Hill. All rights reserved.
</metadata>
<defs>
<font id="LoewNextArabic-Heavy" horiz-adv-x="0" >
  <font-face 
    font-family="Loew Next Arabic Heavy"
    font-weight="850"
    font-stretch="normal"
    units-per-em="1000"
    panose-1="2 11 10 4 3 3 2 2 2 4"
    ascent="750"
    descent="-250"
    x-height="500"
    cap-height="700"
    bbox="-215 -506 1550 1059"
    underline-thickness="50"
    underline-position="-100"
    stemh="178"
    stemv="176"
    unicode-range="U+0020-FEFC"
  />
<missing-glyph horiz-adv-x="500" 
d="M50 30v600h400v-600h-400zM120 100h260v460h-260v-460z" />
    <glyph glyph-name="f_f" unicode="ff" horiz-adv-x="812" 
d="M409 688l-23 -111c-21 8 -43 12 -66 12c-35 0 -58 -17 -58 -57v-32h229v37c0 121 76 173 185 173c44 0 90 -7 139 -22l-23 -111c-21 8 -43 12 -66 12c-35 0 -58 -17 -58 -57v-32h124v-135h-124v-365h-177v365h-229v-365h-177v365h-63v135h63v37c0 121 76 173 185 173
c44 0 90 -7 139 -22z" />
    <glyph glyph-name="f_f_i" unicode="ffi" horiz-adv-x="1119" 
d="M409 688l-23 -111c-21 8 -43 12 -66 12c-35 0 -58 -17 -58 -57v-32h229v37c0 121 76 173 185 173c44 0 90 -7 139 -22l-23 -111c-21 8 -43 12 -66 12c-35 0 -58 -17 -58 -57v-32h388v-500h-176v365h-212v-365h-177v365h-229v-365h-177v365h-63v135h63v37
c0 121 76 173 185 173c44 0 90 -7 139 -22zM1061 623c0 -44 -42 -79 -93 -79s-92 35 -92 79s41 80 92 80s93 -36 93 -80z" />
    <glyph glyph-name="f_f_l" unicode="ffl" horiz-adv-x="1110" 
d="M409 688l-23 -111c-21 8 -43 12 -66 12c-35 0 -58 -17 -58 -57v-32h229v37c0 121 76 173 185 173c28 0 58 -3 90 -10h286v-700h-176v577h-84c-21 8 -43 12 -66 12c-35 0 -58 -17 -58 -57v-32h124v-135h-124v-365h-177v365h-229v-365h-177v365h-63v135h63v37
c0 121 76 173 185 173c44 0 90 -7 139 -22z" />
    <glyph glyph-name="fi" unicode="fi" horiz-adv-x="713" 
d="M409 688l-23 -111c-21 8 -43 12 -66 12c-35 0 -58 -17 -58 -57v-32h388v-500h-176v365h-212v-365h-177v365h-63v135h63v37c0 121 76 173 185 173c44 0 90 -7 139 -22zM655 623c0 -44 -42 -79 -93 -79s-92 35 -92 79s41 80 92 80s93 -36 93 -80z" />
    <glyph glyph-name="fl" unicode="fl" horiz-adv-x="704" 
d="M360 700h286v-700h-176v577h-84c-21 8 -43 12 -66 12c-35 0 -58 -17 -58 -57v-32h124v-135h-124v-365h-177v365h-63v135h63v37c0 121 76 173 185 173c28 0 58 -3 90 -10z" />
    <glyph glyph-name="uniFEFB" unicode="&#xfedf;&#xfe8e;" horiz-adv-x="753" arabic-form="isolated" 
d="M513 730h166v-601c-28 -36 -68 -67 -120 -92s-109 -37 -172 -37h-342v178h170l-99 429h165l102 -429h6c47 0 95 7 124 22v530z" />
    <glyph glyph-name="uniFEFC" unicode="&#xfee0;&#xfe8e;" horiz-adv-x="804" arabic-form="final" 
d="M804 178h16v-176c0 -1 -5 -2 -16 -2h-1c-75 0 -144 19 -207 57c-63 -38 -133 -57 -209 -57h-342v178h170l-99 429h165l102 -429h6c47 0 95 7 124 22v530h166v-530c29 -15 70 -22 125 -22z" />
    <glyph glyph-name="uniFEF7" unicode="&#xfedf;&#xfe84;" horiz-adv-x="753" arabic-form="isolated" 
d="M513 730h166v-601c-28 -36 -68 -67 -120 -92s-109 -37 -172 -37h-342v178h170l-99 429h165l102 -429h6c47 0 95 7 124 22v530zM223 765h64v-92h-221v92h49c-15 17 -22 36 -22 58c0 52 38 93 97 93c36 0 70 -18 89 -39l-51 -53c-9 8 -19 12 -30 12c-19 0 -32 -13 -32 -32
c0 -23 20 -39 57 -39z" />
    <glyph glyph-name="uniFEF8" unicode="&#xfee0;&#xfe84;" horiz-adv-x="804" arabic-form="final" 
d="M286 765v-93h-220v93h48c-15 17 -22 36 -22 58c0 52 38 92 97 92c37 0 70 -17 90 -38l-52 -53c-9 7 -18 11 -29 11c-19 0 -32 -13 -32 -32c0 -23 19 -38 56 -38h64zM804 178h16v-176c0 -1 -5 -2 -16 -2h-1c-75 0 -144 19 -207 57c-63 -38 -133 -57 -209 -57h-342v178h170
l-99 429h165l102 -429h6c47 0 95 7 124 22v530h166v-530c29 -15 70 -22 125 -22z" />
    <glyph glyph-name="uniFEF9" unicode="&#xfedf;&#xfe88;" horiz-adv-x="753" arabic-form="isolated" 
d="M513 730h166v-601c-28 -36 -68 -67 -120 -92s-109 -37 -172 -37h-342v178h170l-99 429h165l102 -429h6c47 0 95 7 124 22v530zM264 -208h64v-93h-221v93h48c-14 16 -21 35 -21 58c0 51 38 92 97 92c36 0 70 -18 89 -39l-51 -52c-9 7 -19 11 -30 11c-19 0 -32 -13 -32 -32
c0 -23 20 -38 57 -38z" />
    <glyph glyph-name="uniFEFA" unicode="&#xfee0;&#xfe88;" horiz-adv-x="804" arabic-form="final" 
d="M804 178h16v-176c0 -1 -5 -2 -16 -2h-1c-75 0 -144 19 -207 57c-63 -38 -133 -57 -209 -57h-342v178h170l-99 429h165l102 -429h6c47 0 95 7 124 22v530h166v-530c29 -15 70 -22 125 -22zM264 -208h64v-93h-221v93h48c-14 16 -21 35 -21 58c0 51 38 92 97 92
c36 0 70 -18 89 -39l-51 -52c-9 7 -19 11 -30 11c-19 0 -32 -13 -32 -32c0 -23 20 -38 57 -38z" />
    <glyph glyph-name="uniFEF5" unicode="&#xfedf;&#xfe82;" horiz-adv-x="753" arabic-form="isolated" 
d="M513 730h166v-601c-28 -36 -68 -67 -120 -92s-109 -37 -172 -37h-342v178h170l-99 429h165l102 -429h6c47 0 95 7 124 22v530zM291 784l49 -10c-1 -68 -23 -103 -92 -102l-98 4c-32 1 -45 -4 -54 -23l-49 9c1 69 22 106 97 103l93 -4c32 -1 45 6 54 23z" />
    <glyph glyph-name="uniFEF6" unicode="&#xfee0;&#xfe82;" horiz-adv-x="804" arabic-form="final" 
d="M804 178h16v-176c0 -1 -5 -2 -16 -2h-1c-75 0 -144 19 -207 57c-63 -38 -133 -57 -209 -57h-342v178h170l-99 429h165l102 -429h6c47 0 95 7 124 22v530h166v-530c29 -15 70 -22 125 -22zM291 784l49 -10c-1 -68 -23 -103 -92 -102l-98 4c-32 1 -45 -4 -54 -23l-49 9
c1 69 22 106 97 103l93 -4c32 -1 45 6 54 23z" />
    <glyph glyph-name="uni06440671" unicode="&#xfedf;&#xfb51;" horiz-adv-x="753" 
d="M513 730h166v-601c-28 -36 -68 -67 -120 -92s-109 -37 -172 -37h-342v178h170l-99 429h165l102 -429h6c47 0 95 7 124 22v530zM360 780v-107h-305v83h50c33 81 91 120 155 120c63 0 100 -36 100 -96zM179 756h100v15c0 19 -11 32 -35 32c-27 0 -49 -16 -65 -47z" />
    <glyph glyph-name="uni06440671.fina" unicode="&#xfee0;&#xfb51;" horiz-adv-x="804" 
d="M804 178h16v-176c0 -1 -5 -2 -16 -2h-1c-75 0 -144 19 -207 57c-63 -38 -133 -57 -209 -57h-342v178h170l-99 429h165l102 -429h6c47 0 95 7 124 22v530h166v-530c29 -15 70 -22 125 -22zM360 780v-107h-305v83h50c33 81 91 120 155 120c63 0 100 -36 100 -96zM179 756
h100v15c0 19 -11 32 -35 32c-27 0 -49 -16 -65 -47z" />
    <glyph glyph-name="uniFDF2" unicode="&#x627;&#xfedf;&#xfee0;&#xfeea;" horiz-adv-x="1632" arabic-form="isolated" 
d="M853 1018v-169h-65v169h65zM686 702v90h62v-73c0 -13 10 -21 21 -21c12 0 22 8 22 21v89h57v-67c0 -16 10 -24 23 -24s21 9 21 24v87h63v-106c0 -47 -35 -65 -75 -65c-19 0 -39 6 -51 15c-12 -24 -39 -35 -67 -35c-40 0 -76 17 -76 65zM1367 730h165v-730h-165v730z
M1061 198v468h167v-560c-49 -68 -127 -106 -224 -106c-67 0 -124 17 -170 50c-50 -33 -134 -50 -251 -50h-179c-193 0 -304 105 -304 253c0 153 102 257 277 257c88 0 171 -24 228 -52v-280h54c31 0 68 8 91 25v356h166v-361c17 -19 39 -26 72 -26c35 0 60 9 73 26zM440 178
v161c-23 11 -47 16 -73 16c-61 0 -100 -31 -100 -92c0 -56 38 -85 103 -85h70z" />
    <glyph glyph-name="uniFE8E" unicode="&#x627;" horiz-adv-x="364" arabic-form="final" 
d="M364 178h16v-176c0 -1 -5 -2 -16 -2h-1c-91 0 -171 22 -223 51c-51 27 -66 55 -66 116v563h166v-532c29 -13 77 -20 124 -20z" />
    <glyph glyph-name="uniFE84" unicode="&#x623;" horiz-adv-x="364" arabic-form="final" 
d="M364 178h16v-176c0 -1 -5 -2 -16 -2h-1c-91 0 -171 22 -223 51c-51 27 -66 55 -66 116v563h166v-532c29 -13 77 -20 124 -20zM203 888h64v-92h-221v92h49c-15 17 -22 36 -22 58c0 52 38 93 97 93c36 0 70 -18 89 -39l-51 -53c-9 8 -19 12 -30 12c-19 0 -32 -13 -32 -32
c0 -23 20 -39 57 -39z" />
    <glyph glyph-name="uniFE88" unicode="&#x625;" horiz-adv-x="364" arabic-form="final" 
d="M364 178h16v-176c0 -1 -5 -2 -16 -2h-1c-91 0 -171 22 -223 51c-51 27 -66 55 -66 116v563h166v-532c29 -13 77 -20 124 -20zM212 -208h64v-93h-221v93h48c-14 16 -21 35 -21 58c0 51 38 92 97 92c36 0 70 -18 89 -39l-51 -52c-9 7 -19 11 -30 11c-19 0 -32 -13 -32 -32
c0 -23 20 -38 57 -38z" />
    <glyph glyph-name="uniFE82" unicode="&#x622;" horiz-adv-x="364" arabic-form="final" 
d="M364 178h16v-176c0 -1 -5 -2 -16 -2h-1c-91 0 -171 22 -223 51c-51 27 -66 55 -66 116v563h166v-532c29 -13 77 -20 124 -20zM252 907l49 -10c-1 -68 -23 -103 -92 -102l-98 4c-32 1 -45 -4 -54 -23l-49 9c1 69 22 106 97 103l93 -4c32 -1 45 6 54 23z" />
    <glyph glyph-name="uniFB51" unicode="&#x671;" horiz-adv-x="364" arabic-form="final" 
d="M364 178h16v-176c0 -1 -5 -2 -16 -2h-1c-91 0 -171 22 -223 51c-51 27 -66 55 -66 116v563h166v-532c29 -13 77 -20 124 -20zM300 903v-107h-305v83h50c33 81 91 120 155 120c63 0 100 -36 100 -96zM119 879h100v15c0 19 -11 32 -35 32c-27 0 -49 -16 -65 -47z" />
    <glyph glyph-name="uni066E.init" unicode="&#x66e;" horiz-adv-x="361" 
d="M124 515h167v-417c-55 -56 -163 -98 -290 -98h-1c-11 0 -16 1 -16 2v176h16c49 0 97 6 124 18v319z" />
    <glyph glyph-name="uni066E.medi" unicode="&#x66e;" horiz-adv-x="415" 
d="M415 178h16v-176c0 -1 -5 -2 -16 -2h-1c-76 0 -145 19 -206 56c-62 -37 -131 -56 -207 -56h-1c-11 0 -16 1 -16 2v176h16c53 0 95 7 124 20v317h167v-317c29 -13 71 -20 124 -20z" />
    <glyph glyph-name="uni066E.fina" unicode="&#x66e;" horiz-adv-x="1233" 
d="M1233 178h16v-176c0 -1 -5 -2 -16 -2h-1c-76 0 -145 19 -206 56c-65 -37 -155 -56 -269 -56h-386c-200 0 -308 73 -308 256c0 58 11 120 32 186l153 -28c-13 -40 -20 -76 -20 -107c0 -87 48 -129 151 -129h412c65 0 124 11 151 26v311h166v-317c31 -13 72 -20 125 -20z
" />
    <glyph glyph-name="uniFE90" unicode="&#x628;" horiz-adv-x="1233" arabic-form="final" 
d="M1233 178h16v-176c0 -1 -5 -2 -16 -2h-1c-76 0 -145 19 -206 56c-65 -37 -155 -56 -269 -56h-386c-200 0 -308 73 -308 256c0 58 11 120 32 186l153 -28c-13 -40 -20 -76 -20 -107c0 -87 48 -129 151 -129h412c65 0 124 11 151 26v311h166v-317c31 -13 72 -20 125 -20z
M510 -145c0 49 38 87 87 87c48 0 88 -39 88 -87c0 -49 -40 -88 -88 -88c-49 0 -87 39 -87 88z" />
    <glyph glyph-name="uniFE92" unicode="&#x628;" horiz-adv-x="415" arabic-form="medial" 
d="M415 178h16v-176c0 -1 -5 -2 -16 -2h-1c-76 0 -145 19 -206 56c-62 -37 -131 -56 -207 -56h-1c-11 0 -16 1 -16 2v176h16c53 0 95 7 124 20v317h167v-317c29 -13 71 -20 124 -20zM122 -145c0 49 38 87 87 87c48 0 88 -39 88 -87c0 -49 -40 -88 -88 -88
c-49 0 -87 39 -87 88z" />
    <glyph glyph-name="uniFE91" unicode="&#x628;" horiz-adv-x="361" arabic-form="initial" 
d="M124 515h167v-417c-55 -56 -163 -98 -290 -98h-1c-11 0 -16 1 -16 2v176h16c49 0 97 6 124 18v319zM89 -145c0 49 38 87 87 87c48 0 88 -39 88 -87c0 -49 -40 -88 -88 -88c-49 0 -87 39 -87 88z" />
    <glyph glyph-name="uniFB57" unicode="&#x67e;" horiz-adv-x="1233" arabic-form="final" 
d="M1233 178h16v-176c0 -1 -5 -2 -16 -2h-1c-76 0 -145 19 -206 56c-65 -37 -155 -56 -269 -56h-386c-200 0 -308 73 -308 256c0 58 11 120 32 186l153 -28c-13 -40 -20 -76 -20 -107c0 -87 48 -129 151 -129h412c65 0 124 11 151 26v311h166v-317c31 -13 72 -20 125 -20z
M431 -132c0 41 34 75 75 75s74 -34 74 -75s-33 -74 -74 -74s-75 33 -75 74zM614 -132c0 43 33 75 76 75c40 0 73 -34 73 -75s-33 -74 -73 -74c-43 0 -76 33 -76 74zM522 -285c0 41 33 75 74 75s74 -34 74 -75s-33 -74 -74 -74s-74 33 -74 74z" />
    <glyph glyph-name="uniFB59" unicode="&#x67e;" horiz-adv-x="415" arabic-form="medial" 
d="M415 178h16v-176c0 -1 -5 -2 -16 -2h-1c-76 0 -145 19 -206 56c-62 -37 -131 -56 -207 -56h-1c-11 0 -16 1 -16 2v176h16c53 0 95 7 124 20v317h167v-317c29 -13 71 -20 124 -20zM43 -132c0 41 34 75 75 75s74 -34 74 -75s-33 -74 -74 -74s-75 33 -75 74zM226 -132
c0 43 33 75 76 75c40 0 73 -34 73 -75s-33 -74 -73 -74c-43 0 -76 33 -76 74zM134 -285c0 41 33 75 74 75s74 -34 74 -75s-33 -74 -74 -74s-74 33 -74 74z" />
    <glyph glyph-name="uniFB58" unicode="&#x67e;" horiz-adv-x="361" arabic-form="initial" 
d="M124 515h167v-417c-55 -56 -163 -98 -290 -98h-1c-11 0 -16 1 -16 2v176h16c49 0 97 6 124 18v319zM10 -132c0 41 34 75 75 75s74 -34 74 -75s-33 -74 -74 -74s-75 33 -75 74zM193 -132c0 43 33 75 76 75c40 0 73 -34 73 -75s-33 -74 -73 -74c-43 0 -76 33 -76 74z
M101 -285c0 41 33 75 74 75s74 -34 74 -75s-33 -74 -74 -74s-74 33 -74 74z" />
    <glyph glyph-name="uniFBE9" unicode="&#x649;" horiz-adv-x="415" arabic-form="medial" 
d="M415 178h16v-176c0 -1 -5 -2 -16 -2h-1c-76 0 -145 19 -206 56c-62 -37 -131 -56 -207 -56h-1c-11 0 -16 1 -16 2v176h16c53 0 95 7 124 20v317h167v-317c29 -13 71 -20 124 -20z" />
    <glyph glyph-name="uniFBE8" unicode="&#x649;" horiz-adv-x="361" arabic-form="initial" 
d="M124 515h167v-417c-55 -56 -163 -98 -290 -98h-1c-11 0 -16 1 -16 2v176h16c49 0 97 6 124 18v319z" />
    <glyph glyph-name="uniFE96" unicode="&#x62a;" horiz-adv-x="1233" arabic-form="final" 
d="M1233 178h16v-176c0 -1 -5 -2 -16 -2h-1c-76 0 -145 19 -206 56c-65 -37 -155 -56 -269 -56h-386c-200 0 -308 73 -308 256c0 58 11 120 32 186l153 -28c-13 -40 -20 -76 -20 -107c0 -87 48 -129 151 -129h412c65 0 124 11 151 26v311h166v-317c31 -13 72 -20 125 -20z
M390 589c0 49 38 88 87 88c48 0 87 -39 87 -88c0 -48 -39 -87 -87 -87c-49 0 -87 39 -87 87zM595 589c0 49 38 88 87 88c48 0 86 -39 86 -88c0 -48 -38 -87 -86 -87c-49 0 -87 39 -87 87z" />
    <glyph glyph-name="uniFE98" unicode="&#x62a;" horiz-adv-x="415" arabic-form="medial" 
d="M415 178h16v-176c0 -1 -5 -2 -16 -2h-1c-76 0 -145 19 -206 56c-62 -37 -131 -56 -207 -56h-1c-11 0 -16 1 -16 2v176h16c53 0 95 7 124 20v317h167v-317c29 -13 71 -20 124 -20zM20 679c0 49 38 88 87 88c48 0 87 -39 87 -88c0 -48 -39 -87 -87 -87c-49 0 -87 39 -87 87
zM225 679c0 49 38 88 87 88c48 0 86 -39 86 -88c0 -48 -38 -87 -86 -87c-49 0 -87 39 -87 87z" />
    <glyph glyph-name="uniFE97" unicode="&#x62a;" horiz-adv-x="361" arabic-form="initial" 
d="M124 515h167v-417c-55 -56 -163 -98 -290 -98h-1c-11 0 -16 1 -16 2v176h16c49 0 97 6 124 18v319zM17 679c0 49 38 88 87 88c48 0 87 -39 87 -88c0 -48 -39 -87 -87 -87c-49 0 -87 39 -87 87zM222 679c0 49 38 88 87 88c48 0 86 -39 86 -88c0 -48 -38 -87 -86 -87
c-49 0 -87 39 -87 87z" />
    <glyph glyph-name="uniFE9A" unicode="&#x62b;" horiz-adv-x="1233" arabic-form="final" 
d="M1233 178h16v-176c0 -1 -5 -2 -16 -2h-1c-76 0 -145 19 -206 56c-65 -37 -155 -56 -269 -56h-386c-200 0 -308 73 -308 256c0 58 11 120 32 186l153 -28c-13 -40 -20 -76 -20 -107c0 -87 48 -129 151 -129h412c65 0 124 11 151 26v311h166v-317c31 -13 72 -20 125 -20z
M504 730c0 41 33 75 74 75s74 -34 74 -75s-33 -75 -74 -75s-74 34 -74 75zM413 577c0 43 34 75 75 75s74 -34 74 -75s-33 -74 -74 -74s-75 33 -75 74zM596 577c0 43 33 75 76 75c40 0 73 -34 73 -75s-33 -74 -73 -74c-43 0 -76 33 -76 74z" />
    <glyph glyph-name="uniFE9C" unicode="&#x62b;" horiz-adv-x="415" arabic-form="medial" 
d="M415 178h16v-176c0 -1 -5 -2 -16 -2h-1c-76 0 -145 19 -206 56c-62 -37 -131 -56 -207 -56h-1c-11 0 -16 1 -16 2v176h16c53 0 95 7 124 20v317h167v-317c29 -13 71 -20 124 -20zM134 819c0 41 33 75 74 75s74 -34 74 -75s-33 -75 -74 -75s-74 34 -74 75zM43 666
c0 43 34 75 75 75s74 -34 74 -75s-33 -74 -74 -74s-75 33 -75 74zM226 666c0 43 33 75 76 75c40 0 73 -34 73 -75s-33 -74 -73 -74c-43 0 -76 33 -76 74z" />
    <glyph glyph-name="uniFE9B" unicode="&#x62b;" horiz-adv-x="361" arabic-form="initial" 
d="M124 515h167v-417c-55 -56 -163 -98 -290 -98h-1c-11 0 -16 1 -16 2v176h16c49 0 97 6 124 18v319zM131 819c0 41 33 75 74 75s74 -34 74 -75s-33 -75 -74 -75s-74 34 -74 75zM40 666c0 43 34 75 75 75s74 -34 74 -75s-33 -74 -74 -74s-75 33 -75 74zM223 666
c0 43 33 75 76 75c40 0 73 -34 73 -75s-33 -74 -73 -74c-43 0 -76 33 -76 74z" />
    <glyph glyph-name="uniFB67" unicode="&#x679;" horiz-adv-x="1233" arabic-form="final" 
d="M1233 178h16v-176c0 -1 -5 -2 -16 -2h-1c-76 0 -145 19 -206 56c-65 -37 -155 -56 -269 -56h-386c-200 0 -308 73 -308 256c0 58 11 120 32 186l153 -28c-13 -40 -20 -76 -20 -107c0 -87 48 -129 151 -129h412c65 0 124 11 151 26v311h166v-317c31 -13 72 -20 125 -20z
M714 629v-111h-293v84h20v179h77v-91c35 28 70 42 104 42c57 0 92 -40 92 -103zM518 602h115v17c0 26 -11 39 -34 39s-50 -15 -81 -44v-12z" />
    <glyph glyph-name="uniFB69" unicode="&#x679;" horiz-adv-x="415" arabic-form="medial" 
d="M415 178h16v-176c0 -1 -5 -2 -16 -2h-1c-76 0 -145 19 -206 56c-62 -37 -131 -56 -207 -56h-1c-11 0 -16 1 -16 2v176h16c53 0 95 7 124 20v317h167v-317c29 -13 71 -20 124 -20zM344 718v-111h-293v84h20v179h77v-91c35 28 70 42 104 42c57 0 92 -40 92 -103zM148 691
h115v17c0 26 -11 39 -34 39s-50 -15 -81 -44v-12z" />
    <glyph glyph-name="uniFB68" unicode="&#x679;" horiz-adv-x="361" arabic-form="initial" 
d="M124 515h167v-417c-55 -56 -163 -98 -290 -98h-1c-11 0 -16 1 -16 2v176h16c49 0 97 6 124 18v319zM341 718v-111h-293v84h20v179h77v-91c35 28 70 42 104 42c57 0 92 -40 92 -103zM145 691h115v17c0 26 -11 39 -34 39s-50 -15 -81 -44v-12z" />
    <glyph glyph-name="uniFE9E" unicode="&#x62c;" horiz-adv-x="739" arabic-form="final" 
d="M755 178v-176c0 -1 -5 -2 -16 -2h-434c-59 0 -99 -29 -99 -78s41 -79 100 -79h149v-177h-108c-205 0 -322 91 -322 250c0 165 107 258 303 258h140c-25 28 -39 58 -55 107c-30 94 -42 121 -119 127c-39 0 -73 -11 -118 -38l-90 114c68 53 143 80 224 80
c143 0 205 -63 250 -215c20 -68 38 -118 69 -154c11 -13 30 -17 61 -17h65zM486 -143c0 49 39 88 87 88s88 -39 88 -88c0 -48 -40 -87 -88 -87s-87 39 -87 87z" />
    <glyph glyph-name="uniFEA0" unicode="&#x62c;" horiz-adv-x="667" arabic-form="medial" 
d="M683 178v-176c0 -1 -5 -2 -15 -2h-668c-11 0 -16 1 -16 2v176h412c-24 27 -37 54 -52 102c-11 33 -20 58 -28 75c-16 33 -42 53 -93 53c-39 0 -73 -11 -118 -38l-90 114c68 53 143 80 225 80c143 0 205 -65 250 -214c21 -71 38 -119 69 -155c12 -13 30 -17 65 -17h59z
M204 -145c0 49 38 87 87 87c48 0 88 -39 88 -87c0 -49 -40 -88 -88 -88c-49 0 -87 39 -87 88z" />
    <glyph glyph-name="uniFE9F" unicode="&#x62c;" horiz-adv-x="663" arabic-form="initial" 
d="M622 152l-46 -152h-576c-11 0 -16 1 -16 2v176h412c-23 27 -36 54 -52 102c-11 33 -20 58 -28 75c-16 33 -42 53 -93 53c-37 0 -77 -13 -118 -38l-90 114c68 53 143 80 225 80c144 0 205 -63 250 -213c11 -37 22 -68 31 -92c20 -47 52 -91 101 -107zM206 -145
c0 49 38 87 87 87c48 0 88 -39 88 -87c0 -49 -40 -88 -88 -88c-49 0 -87 39 -87 88z" />
    <glyph glyph-name="uniFB7B" unicode="&#x686;" horiz-adv-x="739" arabic-form="final" 
d="M755 178v-176c0 -1 -5 -2 -16 -2h-440c-55 0 -93 -29 -93 -78c0 -51 38 -80 94 -80h62v-177h-20c-203 0 -317 90 -317 251c0 164 120 258 317 258h126c-25 28 -39 58 -55 107c-30 93 -42 123 -119 127c-39 0 -73 -11 -118 -38l-90 114c68 53 143 80 224 80
c143 0 205 -63 250 -215c20 -68 38 -118 69 -154c11 -13 30 -17 61 -17h65zM457 -204c-41 0 -74 34 -74 75s33 74 74 74s75 -33 75 -74c0 -43 -32 -75 -75 -75zM715 -129c0 -41 -33 -75 -74 -75s-75 32 -75 75c0 41 34 74 75 74s74 -33 74 -74zM622 -282
c0 -41 -34 -75 -74 -75c-41 0 -75 32 -75 75c0 41 34 75 75 75c40 0 74 -34 74 -75z" />
    <glyph glyph-name="uniFB7D" unicode="&#x686;" horiz-adv-x="667" arabic-form="medial" 
d="M683 178v-176c0 -1 -5 -2 -15 -2h-668c-11 0 -16 1 -16 2v176h412c-24 27 -37 54 -52 102c-11 33 -20 58 -28 75c-16 33 -42 53 -93 53c-39 0 -73 -11 -118 -38l-90 114c68 53 143 80 225 80c143 0 205 -65 250 -214c21 -71 38 -119 69 -155c12 -13 30 -17 65 -17h59z
M125 -132c0 41 34 75 75 75s74 -34 74 -75s-33 -74 -74 -74s-75 33 -75 74zM308 -132c0 43 33 75 76 75c40 0 73 -34 73 -75s-33 -74 -73 -74c-43 0 -76 33 -76 74zM216 -285c0 41 33 75 74 75s74 -34 74 -75s-33 -74 -74 -74s-74 33 -74 74z" />
    <glyph glyph-name="uniFB7C" unicode="&#x686;" horiz-adv-x="663" arabic-form="initial" 
d="M622 152l-46 -152h-576c-11 0 -16 1 -16 2v176h412c-23 27 -36 54 -52 102c-11 33 -20 58 -28 75c-16 33 -42 53 -93 53c-37 0 -77 -13 -118 -38l-90 114c68 53 143 80 225 80c144 0 205 -63 250 -213c11 -37 22 -68 31 -92c20 -47 52 -91 101 -107zM127 -132
c0 41 34 75 75 75s74 -34 74 -75s-33 -74 -74 -74s-75 33 -75 74zM310 -132c0 43 33 75 76 75c40 0 73 -34 73 -75s-33 -74 -73 -74c-43 0 -76 33 -76 74zM218 -285c0 41 33 75 74 75s74 -34 74 -75s-33 -74 -74 -74s-74 33 -74 74z" />
    <glyph glyph-name="uniFEA2" unicode="&#x62d;" horiz-adv-x="739" arabic-form="final" 
d="M755 178v-176c0 -1 -5 -2 -16 -2h-434c-59 0 -99 -29 -99 -78s41 -79 100 -79h149v-177h-108c-205 0 -322 91 -322 250c0 165 107 258 303 258h140c-25 28 -39 58 -55 107c-30 94 -42 121 -119 127c-39 0 -73 -11 -118 -38l-90 114c68 53 143 80 224 80
c143 0 205 -63 250 -215c20 -68 38 -118 69 -154c11 -13 30 -17 61 -17h65z" />
    <glyph glyph-name="uniFEA4" unicode="&#x62d;" horiz-adv-x="667" arabic-form="medial" 
d="M683 178v-176c0 -1 -5 -2 -15 -2h-668c-11 0 -16 1 -16 2v176h412c-24 27 -37 54 -52 102c-11 33 -20 58 -28 75c-16 33 -42 53 -93 53c-39 0 -73 -11 -118 -38l-90 114c68 53 143 80 225 80c143 0 205 -65 250 -214c21 -71 38 -119 69 -155c12 -13 30 -17 65 -17h59z
" />
    <glyph glyph-name="uniFEA3" unicode="&#x62d;" horiz-adv-x="663" arabic-form="initial" 
d="M622 152l-46 -152h-576c-11 0 -16 1 -16 2v176h412c-23 27 -36 54 -52 102c-11 33 -20 58 -28 75c-16 33 -42 53 -93 53c-37 0 -77 -13 -118 -38l-90 114c68 53 143 80 225 80c144 0 205 -63 250 -213c11 -37 22 -68 31 -92c20 -47 52 -91 101 -107z" />
    <glyph glyph-name="uniFEA6" unicode="&#x62e;" horiz-adv-x="739" arabic-form="final" 
d="M755 178v-176c0 -1 -5 -2 -16 -2h-434c-59 0 -99 -29 -99 -78s41 -79 100 -79h149v-177h-108c-205 0 -322 91 -322 250c0 165 107 258 303 258h140c-25 28 -39 58 -55 107c-30 94 -42 121 -119 127c-39 0 -73 -11 -118 -38l-90 114c68 53 143 80 224 80
c143 0 205 -63 250 -215c20 -68 38 -118 69 -154c11 -13 30 -17 61 -17h65zM238 710c0 49 39 88 88 88c48 0 87 -39 87 -88c0 -48 -39 -87 -87 -87c-49 0 -88 39 -88 87z" />
    <glyph glyph-name="uniFEA8" unicode="&#x62e;" horiz-adv-x="667" arabic-form="medial" 
d="M683 178v-176c0 -1 -5 -2 -15 -2h-668c-11 0 -16 1 -16 2v176h412c-24 27 -37 54 -52 102c-11 33 -20 58 -28 75c-16 33 -42 53 -93 53c-39 0 -73 -11 -118 -38l-90 114c68 53 143 80 225 80c143 0 205 -65 250 -214c21 -71 38 -119 69 -155c12 -13 30 -17 65 -17h59z
M164 710c0 49 39 88 88 88c48 0 87 -39 87 -88c0 -48 -39 -87 -87 -87c-49 0 -88 39 -88 87z" />
    <glyph glyph-name="uniFEA7" unicode="&#x62e;" horiz-adv-x="663" arabic-form="initial" 
d="M622 152l-46 -152h-576c-11 0 -16 1 -16 2v176h412c-23 27 -36 54 -52 102c-11 33 -20 58 -28 75c-16 33 -42 53 -93 53c-37 0 -77 -13 -118 -38l-90 114c68 53 143 80 225 80c144 0 205 -63 250 -213c11 -37 22 -68 31 -92c20 -47 52 -91 101 -107zM165 710
c0 49 39 88 88 88c48 0 87 -39 87 -88c0 -48 -39 -87 -87 -87c-49 0 -88 39 -88 87z" />
    <glyph glyph-name="uniFEAA" unicode="&#x62f;" horiz-adv-x="636" arabic-form="final" 
d="M652 178v-176c0 -1 -5 -2 -16 -2h-593v178h313v108c0 60 -35 81 -102 81h-130v166h89c239 -3 307 -54 310 -238v-117h129z" />
    <glyph glyph-name="uniFEAC" unicode="&#x630;" horiz-adv-x="636" arabic-form="final" 
d="M652 178v-176c0 -1 -5 -2 -16 -2h-593v178h313v108c0 60 -35 81 -102 81h-130v166h89c239 -3 307 -54 310 -238v-117h129zM134 693c0 49 39 88 88 88c48 0 87 -39 87 -88c0 -48 -39 -87 -87 -87c-49 0 -88 39 -88 87z" />
    <glyph glyph-name="uniFB89" unicode="&#x688;" horiz-adv-x="636" arabic-form="final" 
d="M652 178v-176c0 -1 -5 -2 -16 -2h-593v178h313v108c0 60 -35 81 -102 81h-130v166h89c239 -3 307 -54 310 -238v-117h129zM357 732v-111h-293v84h20v179h77v-91c35 28 70 42 104 42c57 0 92 -40 92 -103zM161 705h115v17c0 26 -11 39 -34 39s-50 -15 -81 -44v-12z" />
    <glyph glyph-name="uniFEAE" unicode="&#x631;" horiz-adv-x="445" arabic-form="final" 
d="M445 178h16v-176c0 -1 -5 -2 -16 -2h-1c-43 0 -85 6 -124 19c-4 -99 -32 -170 -85 -215s-122 -67 -207 -67c-32 0 -57 2 -76 5l33 169l37 -1c99 0 131 42 131 131v455h167v-297c29 -14 70 -21 125 -21z" />
    <glyph glyph-name="uniFEB0" unicode="&#x632;" horiz-adv-x="445" arabic-form="final" 
d="M445 178h16v-176c0 -1 -5 -2 -16 -2h-1c-43 0 -85 6 -124 19c-4 -99 -32 -170 -85 -215s-122 -67 -207 -67c-32 0 -57 2 -76 5l33 169l37 -1c99 0 131 42 131 131v455h167v-297c29 -14 70 -21 125 -21zM149 662c0 49 39 88 88 88c48 0 87 -39 87 -88
c0 -48 -39 -87 -87 -87c-49 0 -88 39 -88 87z" />
    <glyph glyph-name="uniFB8D" unicode="&#x691;" horiz-adv-x="445" arabic-form="final" 
d="M445 178h16v-176c0 -1 -5 -2 -16 -2h-1c-43 0 -85 6 -124 19c-4 -99 -32 -170 -85 -215s-122 -67 -207 -67c-32 0 -57 2 -76 5l33 169l37 -1c99 0 131 42 131 131v455h167v-297c29 -14 70 -21 125 -21zM372 701v-111h-293v84h20v179h77v-91c35 28 70 42 104 42
c57 0 92 -40 92 -103zM176 674h115v17c0 26 -11 39 -34 39s-50 -15 -81 -44v-12z" />
    <glyph glyph-name="uniFB8B" unicode="&#x698;" horiz-adv-x="445" arabic-form="final" 
d="M445 178h16v-176c0 -1 -5 -2 -16 -2h-1c-43 0 -85 6 -124 19c-4 -99 -32 -170 -85 -215s-122 -67 -207 -67c-32 0 -57 2 -76 5l33 169l37 -1c99 0 131 42 131 131v455h167v-297c29 -14 70 -21 125 -21zM162 802c0 41 33 75 74 75s74 -34 74 -75s-33 -75 -74 -75
s-74 34 -74 75zM71 649c0 43 34 75 75 75s74 -34 74 -75s-33 -74 -74 -74s-75 33 -75 74zM254 649c0 43 33 75 76 75c40 0 73 -34 73 -75s-33 -74 -73 -74c-43 0 -76 33 -76 74z" />
    <glyph glyph-name="uniFEB2" unicode="&#x633;" horiz-adv-x="1534" arabic-form="final" 
d="M1534 178h16v-176c0 -1 -5 -2 -16 -2h-1c-65 0 -122 16 -172 48c-50 -35 -104 -52 -162 -52s-110 17 -156 52c-40 -32 -95 -52 -155 -52c-53 0 -97 16 -134 48v-210c-39 -25 -88 -47 -147 -67s-121 -30 -188 -30c-220 0 -358 130 -358 339c0 50 7 102 22 155l151 -29
c-7 -34 -11 -64 -11 -90c0 -129 76 -199 215 -199c57 0 120 11 168 30v453h166v-205c22 -11 47 -17 76 -17s55 6 77 17v205h166v-205c22 -11 47 -17 76 -17s55 6 77 17v250h166v-243c29 -13 71 -20 124 -20z" />
    <glyph glyph-name="uniFEB4" unicode="&#x633;" horiz-adv-x="1053" arabic-form="medial" 
d="M1053 178h16v-176c0 -1 -5 -2 -16 -2h-1c-67 0 -130 15 -188 45c-52 -30 -111 -45 -177 -45c-57 0 -109 17 -158 50c-48 -33 -102 -50 -161 -50c-60 0 -115 17 -164 51c-52 -31 -122 -51 -203 -51h-1c-11 0 -16 1 -16 2v176h16c47 0 93 7 124 20v198h167v-201
c22 -11 47 -17 76 -17s54 6 76 17v201h167v-201c22 -11 47 -17 76 -17s54 6 76 17v246h167v-243c29 -13 71 -20 124 -20z" />
    <glyph glyph-name="uniFEB3" unicode="&#x633;" horiz-adv-x="999" arabic-form="initial" 
d="M762 503h167v-405c-57 -63 -143 -98 -242 -98c-57 0 -109 17 -158 50c-48 -33 -102 -50 -161 -50c-60 0 -115 17 -164 51c-52 -31 -122 -51 -203 -51h-1c-11 0 -16 1 -16 2v176h16c47 0 93 7 124 20v198h167v-201c22 -11 47 -17 76 -17s54 6 76 17v201h167v-201
c22 -11 47 -17 76 -17s54 6 76 17v308z" />
    <glyph glyph-name="uniFEB6" unicode="&#x634;" horiz-adv-x="1534" arabic-form="final" 
d="M1534 178h16v-176c0 -1 -5 -2 -16 -2h-1c-65 0 -122 16 -172 48c-50 -35 -104 -52 -162 -52s-110 17 -156 52c-40 -32 -95 -52 -155 -52c-53 0 -97 16 -134 48v-210c-39 -25 -88 -47 -147 -67s-121 -30 -188 -30c-220 0 -358 130 -358 339c0 50 7 102 22 155l151 -29
c-7 -34 -11 -64 -11 -90c0 -129 76 -199 215 -199c57 0 120 11 168 30v453h166v-205c22 -11 47 -17 76 -17s55 6 77 17v205h166v-205c22 -11 47 -17 76 -17s55 6 77 17v250h166v-243c29 -13 71 -20 124 -20zM932 712c0 41 33 75 74 75s74 -34 74 -75s-33 -75 -74 -75
s-74 34 -74 75zM841 559c0 43 34 75 75 75s74 -34 74 -75s-33 -74 -74 -74s-75 33 -75 74zM1024 559c0 43 33 75 76 75c40 0 73 -34 73 -75s-33 -74 -73 -74c-43 0 -76 33 -76 74z" />
    <glyph glyph-name="uniFEB8" unicode="&#x634;" horiz-adv-x="1053" arabic-form="medial" 
d="M1053 178h16v-176c0 -1 -5 -2 -16 -2h-1c-67 0 -130 15 -188 45c-52 -30 -111 -45 -177 -45c-57 0 -109 17 -158 50c-48 -33 -102 -50 -161 -50c-60 0 -115 17 -164 51c-52 -31 -122 -51 -203 -51h-1c-11 0 -16 1 -16 2v176h16c47 0 93 7 124 20v198h167v-201
c22 -11 47 -17 76 -17s54 6 76 17v201h167v-201c22 -11 47 -17 76 -17s54 6 76 17v246h167v-243c29 -13 71 -20 124 -20zM451 712c0 41 33 75 74 75s74 -34 74 -75s-33 -75 -74 -75s-74 34 -74 75zM360 559c0 43 34 75 75 75s74 -34 74 -75s-33 -74 -74 -74s-75 33 -75 74z
M543 559c0 43 33 75 76 75c40 0 73 -34 73 -75s-33 -74 -73 -74c-43 0 -76 33 -76 74z" />
    <glyph glyph-name="uniFEB7" unicode="&#x634;" horiz-adv-x="999" arabic-form="initial" 
d="M762 503h167v-405c-57 -63 -143 -98 -242 -98c-57 0 -109 17 -158 50c-48 -33 -102 -50 -161 -50c-60 0 -115 17 -164 51c-52 -31 -122 -51 -203 -51h-1c-11 0 -16 1 -16 2v176h16c47 0 93 7 124 20v198h167v-201c22 -11 47 -17 76 -17s54 6 76 17v201h167v-201
c22 -11 47 -17 76 -17s54 6 76 17v308zM451 712c0 41 33 75 74 75s74 -34 74 -75s-33 -75 -74 -75s-74 34 -74 75zM360 559c0 43 34 75 75 75s74 -34 74 -75s-33 -74 -74 -74s-75 33 -75 74zM543 559c0 43 33 75 76 75c40 0 73 -34 73 -75s-33 -74 -73 -74
c-43 0 -76 33 -76 74z" />
    <glyph glyph-name="uniFEBA" unicode="&#x635;" horiz-adv-x="1474" arabic-form="final" 
d="M1490 178v-176c0 -1 -5 -2 -16 -2h-702v-155c-89 -59 -216 -108 -352 -108c-223 0 -359 130 -359 340c0 49 7 101 22 154l151 -29c-7 -34 -11 -64 -11 -90c0 -129 76 -199 215 -199c57 0 120 11 168 30v544h166v-98c115 119 212 175 327 175c147 0 259 -94 259 -286v-100
h132zM772 178h420v70c0 40 -8 75 -25 105c-16 31 -47 46 -94 46c-85 0 -176 -62 -301 -203v-18z" />
    <glyph glyph-name="uniFEBC" unicode="&#x635;" horiz-adv-x="993" arabic-form="medial" 
d="M1009 178v-176c0 -1 -5 -2 -16 -2h-993c-11 0 -16 1 -16 2v176h140v309h167v-97c115 117 212 174 327 174c147 0 259 -94 259 -286v-100h132zM291 178h420v70c0 101 -39 151 -118 151c-87 0 -178 -61 -302 -202v-19z" />
    <glyph glyph-name="uniFEBB" unicode="&#x635;" horiz-adv-x="946" arabic-form="initial" 
d="M877 278v-278h-877c-11 0 -16 1 -16 2v176h140v309h167v-97c115 117 212 174 327 174c147 0 259 -94 259 -286zM291 178h420v70c0 101 -39 151 -118 151c-87 0 -178 -61 -302 -202v-19z" />
    <glyph glyph-name="uniFEBE" unicode="&#x636;" horiz-adv-x="1474" arabic-form="final" 
d="M1490 178v-176c0 -1 -5 -2 -16 -2h-702v-155c-89 -59 -216 -108 -352 -108c-223 0 -359 130 -359 340c0 49 7 101 22 154l151 -29c-7 -34 -11 -64 -11 -90c0 -129 76 -199 215 -199c57 0 120 11 168 30v544h166v-98c115 119 212 175 327 175c147 0 259 -94 259 -286v-100
h132zM772 178h420v70c0 40 -8 75 -25 105c-16 31 -47 46 -94 46c-85 0 -176 -62 -301 -203v-18zM828 715c0 49 39 88 88 88c48 0 87 -39 87 -88c0 -48 -39 -87 -87 -87c-49 0 -88 39 -88 87z" />
    <glyph glyph-name="uniFEC0" unicode="&#x636;" horiz-adv-x="993" arabic-form="medial" 
d="M1009 178v-176c0 -1 -5 -2 -16 -2h-993c-11 0 -16 1 -16 2v176h140v309h167v-97c115 117 212 174 327 174c147 0 259 -94 259 -286v-100h132zM291 178h420v70c0 101 -39 151 -118 151c-87 0 -178 -61 -302 -202v-19zM311 715c0 49 39 88 88 88c48 0 87 -39 87 -88
c0 -48 -39 -87 -87 -87c-49 0 -88 39 -88 87z" />
    <glyph glyph-name="uniFEBF" unicode="&#x636;" horiz-adv-x="946" arabic-form="initial" 
d="M877 278v-278h-877c-11 0 -16 1 -16 2v176h140v309h167v-97c115 117 212 174 327 174c147 0 259 -94 259 -286zM291 178h420v70c0 101 -39 151 -118 151c-87 0 -178 -61 -302 -202v-19zM311 715c0 49 39 88 88 88c48 0 87 -39 87 -88c0 -48 -39 -87 -87 -87
c-49 0 -88 39 -88 87z" />
    <glyph glyph-name="uniFEC2" unicode="&#x637;" horiz-adv-x="999" arabic-form="final" 
d="M1015 178v-176c0 -1 -5 -2 -16 -2h-958v178h90v548h166v-337c115 119 212 175 327 175c147 0 259 -94 259 -286v-100h132zM297 178h420v70c0 40 -8 75 -25 105c-16 31 -47 46 -94 46c-85 0 -176 -62 -301 -203v-18z" />
    <glyph glyph-name="uniFEC4" unicode="&#x637;" horiz-adv-x="993" arabic-form="medial" 
d="M1009 178v-176c0 -1 -5 -2 -16 -2h-993c-11 0 -16 1 -16 2v176h140v548h167v-336c115 117 212 174 327 174c147 0 259 -94 259 -286v-100h132zM291 178h420v70c0 41 -8 77 -25 106c-17 30 -48 45 -94 45c-85 0 -177 -62 -301 -202v-19z" />
    <glyph glyph-name="uniFEC3" unicode="&#x637;" horiz-adv-x="946" arabic-form="initial" 
d="M877 278v-278h-877c-11 0 -16 1 -16 2v176h140v548h167v-336c115 117 212 174 327 174c147 0 259 -94 259 -286zM291 178h420v70c0 41 -8 77 -25 106c-17 30 -48 45 -94 45c-85 0 -177 -62 -301 -202v-19z" />
    <glyph glyph-name="uniFEC6" unicode="&#x638;" horiz-adv-x="999" arabic-form="final" 
d="M1015 178v-176c0 -1 -5 -2 -16 -2h-958v178h90v548h166v-337c115 119 212 175 327 175c147 0 259 -94 259 -286v-100h132zM297 178h420v70c0 40 -8 75 -25 105c-16 31 -47 46 -94 46c-85 0 -176 -62 -301 -203v-18zM426 730c0 49 39 88 88 88c48 0 87 -39 87 -88
c0 -48 -39 -87 -87 -87c-49 0 -88 39 -88 87z" />
    <glyph glyph-name="uniFEC8" unicode="&#x638;" horiz-adv-x="993" arabic-form="medial" 
d="M1009 178v-176c0 -1 -5 -2 -16 -2h-993c-11 0 -16 1 -16 2v176h140v548h167v-336c115 117 212 174 327 174c147 0 259 -94 259 -286v-100h132zM291 178h420v70c0 41 -8 77 -25 106c-17 30 -48 45 -94 45c-85 0 -177 -62 -301 -202v-19zM425 730c0 49 39 88 88 88
c48 0 87 -39 87 -88c0 -48 -39 -87 -87 -87c-49 0 -88 39 -88 87z" />
    <glyph glyph-name="uniFEC7" unicode="&#x638;" horiz-adv-x="946" arabic-form="initial" 
d="M877 278v-278h-877c-11 0 -16 1 -16 2v176h140v548h167v-336c115 117 212 174 327 174c147 0 259 -94 259 -286zM291 178h420v70c0 41 -8 77 -25 106c-17 30 -48 45 -94 45c-85 0 -177 -62 -301 -202v-19zM425 730c0 49 39 88 88 88c48 0 87 -39 87 -88
c0 -48 -39 -87 -87 -87c-49 0 -88 39 -88 87z" />
    <glyph glyph-name="uniFECA" unicode="&#x639;" horiz-adv-x="767" arabic-form="final" 
d="M783 178v-176c0 -1 -5 -2 -16 -2h-470c-64 0 -103 -29 -103 -78s40 -79 104 -79h155v-177h-110c-215 0 -323 92 -323 249c0 125 83 210 232 243l-146 222l29 131c85 37 171 55 258 55c77 0 140 -16 187 -48c47 -31 71 -79 71 -144c0 -79 -38 -148 -97 -196h229zM387 401
c-27 0 -57 -7 -90 -20l89 -175c56 24 96 71 96 120c0 47 -36 75 -95 75z" />
    <glyph glyph-name="uniFECC" unicode="&#x639;" horiz-adv-x="683" arabic-form="medial" 
d="M687 178v-178h-691v178h191l-132 200l29 131c85 37 171 55 258 55c77 0 140 -16 187 -48c47 -31 71 -79 71 -144c0 -77 -39 -146 -96 -194h183zM336 399c-28 0 -58 -7 -89 -20l88 -175c56 24 96 71 96 120c0 47 -36 75 -95 75z" />
    <glyph glyph-name="uniFECB" unicode="&#x639;" horiz-adv-x="661" arabic-form="initial" 
d="M414 178h200v-178h-614c-11 0 -16 1 -16 2v176h154c-36 42 -54 93 -54 153c0 144 120 233 271 233c88 0 166 -32 221 -88l-114 -111c-24 27 -56 41 -96 41c-67 0 -111 -43 -111 -108c0 -75 56 -120 159 -120z" />
    <glyph glyph-name="uniFECE" unicode="&#x63a;" horiz-adv-x="767" arabic-form="final" 
d="M783 178v-176c0 -1 -5 -2 -16 -2h-470c-64 0 -103 -29 -103 -78s40 -79 104 -79h155v-177h-110c-215 0 -323 92 -323 249c0 125 83 210 232 243l-146 222l29 131c85 37 171 55 258 55c77 0 140 -16 187 -48c47 -31 71 -79 71 -144c0 -79 -38 -148 -97 -196h229zM387 401
c-27 0 -57 -7 -90 -20l89 -175c56 24 96 71 96 120c0 47 -36 75 -95 75zM323 715c0 49 39 88 88 88c48 0 87 -39 87 -88c0 -48 -39 -87 -87 -87c-49 0 -88 39 -88 87z" />
    <glyph glyph-name="uniFED0" unicode="&#x63a;" horiz-adv-x="683" arabic-form="medial" 
d="M687 178v-178h-691v178h191l-132 200l29 131c85 37 171 55 258 55c77 0 140 -16 187 -48c47 -31 71 -79 71 -144c0 -77 -39 -146 -96 -194h183zM336 399c-28 0 -58 -7 -89 -20l88 -175c56 24 96 71 96 120c0 47 -36 75 -95 75zM252 715c0 49 39 88 88 88
c48 0 87 -39 87 -88c0 -48 -39 -87 -87 -87c-49 0 -88 39 -88 87z" />
    <glyph glyph-name="uniFECF" unicode="&#x63a;" horiz-adv-x="661" arabic-form="initial" 
d="M414 178h200v-178h-614c-11 0 -16 1 -16 2v176h154c-36 42 -54 93 -54 153c0 144 120 233 271 233c88 0 166 -32 221 -88l-114 -111c-24 27 -56 41 -96 41c-67 0 -111 -43 -111 -108c0 -75 56 -120 159 -120zM266 715c0 49 39 88 88 88c48 0 87 -39 87 -88
c0 -48 -39 -87 -87 -87c-49 0 -88 39 -88 87z" />
    <glyph glyph-name="uniFED2" unicode="&#x641;" horiz-adv-x="1314" arabic-form="final" 
d="M1330 178v-176c0 -1 -5 -2 -16 -2h-943c-200 0 -308 73 -308 256c0 58 11 120 32 186l153 -28c-13 -40 -20 -76 -20 -107c0 -87 48 -129 151 -129h412c-61 40 -91 97 -91 171c0 139 114 217 265 217c75 0 150 -18 226 -55v-333h139zM868 320c0 -65 61 -104 156 -117v188
c-20 7 -41 11 -63 11c-57 0 -93 -31 -93 -82zM877 715c0 49 39 88 88 88c48 0 87 -39 87 -88c0 -48 -39 -87 -87 -87c-49 0 -88 39 -88 87z" />
    <glyph glyph-name="uniFED4" unicode="&#x641;" horiz-adv-x="690" arabic-form="medial" 
d="M528 178h162v-178h-690v178h162c-51 47 -76 104 -76 169c0 135 106 223 259 223s259 -88 259 -223c0 -65 -25 -122 -76 -169zM256 318c0 -51 36 -92 89 -116c53 24 89 65 89 116c0 55 -36 90 -89 90c-52 0 -89 -37 -89 -90zM256 720c0 49 39 88 88 88c48 0 87 -39 87 -88
c0 -48 -39 -87 -87 -87c-49 0 -88 39 -88 87z" />
    <glyph glyph-name="uniFED3" unicode="&#x641;" horiz-adv-x="647" arabic-form="initial" 
d="M577 511v-441c-71 -41 -199 -70 -347 -70h-230c-11 0 -16 1 -16 2v176h197c-59 36 -94 92 -94 171c0 139 114 217 265 217c75 0 150 -18 225 -55zM255 321c0 -67 64 -107 156 -116v186c-20 7 -41 11 -64 11c-56 0 -92 -32 -92 -81zM263 715c0 49 39 88 88 88
c48 0 87 -39 87 -88c0 -48 -39 -87 -87 -87c-49 0 -88 39 -88 87z" />
    <glyph glyph-name="uniFB6B" unicode="&#x6a4;" horiz-adv-x="1314" arabic-form="final" 
d="M1330 178v-176c0 -1 -5 -2 -16 -2h-943c-200 0 -308 73 -308 256c0 58 11 120 32 186l153 -28c-13 -40 -20 -76 -20 -107c0 -87 48 -129 151 -129h412c-61 40 -91 97 -91 171c0 139 114 217 265 217c75 0 150 -18 226 -55v-333h139zM868 320c0 -65 61 -104 156 -117v188
c-20 7 -41 11 -63 11c-57 0 -93 -31 -93 -82zM890 856c0 41 33 75 74 75s74 -34 74 -75s-33 -75 -74 -75s-74 34 -74 75zM799 703c0 43 34 75 75 75s74 -34 74 -75s-33 -74 -74 -74s-75 33 -75 74zM982 703c0 43 33 75 76 75c40 0 73 -34 73 -75s-33 -74 -73 -74
c-43 0 -76 33 -76 74z" />
    <glyph glyph-name="uniFB6D" unicode="&#x6a4;" horiz-adv-x="690" arabic-form="medial" 
d="M528 178h162v-178h-690v178h162c-51 47 -76 104 -76 169c0 135 106 223 259 223s259 -88 259 -223c0 -65 -25 -122 -76 -169zM256 318c0 -51 36 -92 89 -116c53 24 89 65 89 116c0 55 -36 90 -89 90c-52 0 -89 -37 -89 -90zM269 860c0 41 33 75 74 75s74 -34 74 -75
s-33 -75 -74 -75s-74 34 -74 75zM178 707c0 43 34 75 75 75s74 -34 74 -75s-33 -74 -74 -74s-75 33 -75 74zM361 707c0 43 33 75 76 75c40 0 73 -34 73 -75s-33 -74 -73 -74c-43 0 -76 33 -76 74z" />
    <glyph glyph-name="uniFB6C" unicode="&#x6a4;" horiz-adv-x="647" arabic-form="initial" 
d="M577 511v-441c-71 -41 -199 -70 -347 -70h-230c-11 0 -16 1 -16 2v176h197c-59 36 -94 92 -94 171c0 139 114 217 265 217c75 0 150 -18 225 -55zM255 321c0 -67 64 -107 156 -116v186c-20 7 -41 11 -64 11c-56 0 -92 -32 -92 -81zM276 856c0 41 33 75 74 75
s74 -34 74 -75s-33 -75 -74 -75s-74 34 -74 75zM185 703c0 43 34 75 75 75s74 -34 74 -75s-33 -74 -74 -74s-75 33 -75 74zM368 703c0 43 33 75 76 75c40 0 73 -34 73 -75s-33 -74 -73 -74c-43 0 -76 33 -76 74z" />
    <glyph glyph-name="uni06A1.init" unicode="&#x6a1;" horiz-adv-x="647" 
d="M577 511v-441c-71 -41 -199 -70 -347 -70h-230c-11 0 -16 1 -16 2v176h197c-59 36 -94 92 -94 171c0 139 114 217 265 217c75 0 150 -18 225 -55zM255 321c0 -67 64 -107 156 -116v186c-20 7 -41 11 -64 11c-56 0 -92 -32 -92 -81z" />
    <glyph glyph-name="uni06A1.medi" unicode="&#x6a1;" horiz-adv-x="690" 
d="M528 178h162v-178h-690v178h162c-51 47 -76 104 -76 169c0 135 106 223 259 223s259 -88 259 -223c0 -65 -25 -122 -76 -169zM256 318c0 -51 36 -92 89 -116c53 24 89 65 89 116c0 55 -36 90 -89 90c-52 0 -89 -37 -89 -90z" />
    <glyph glyph-name="uni06A1.fina" unicode="&#x6a1;" horiz-adv-x="1314" 
d="M1330 178v-176c0 -1 -5 -2 -16 -2h-943c-200 0 -308 73 -308 256c0 58 11 120 32 186l153 -28c-13 -40 -20 -76 -20 -107c0 -87 48 -129 151 -129h412c-61 40 -91 97 -91 171c0 139 114 217 265 217c75 0 150 -18 226 -55v-333h139zM868 320c0 -65 61 -104 156 -117v188
c-20 7 -41 11 -63 11c-57 0 -93 -31 -93 -82z" />
    <glyph glyph-name="uni066F.fina" unicode="&#x66f;" horiz-adv-x="950" 
d="M966 177v-176c0 -1 -5 -2 -16 -2h-121v-157c-43 -31 -99 -56 -168 -75c-69 -20 -140 -30 -214 -30c-243 0 -386 135 -386 340c0 49 8 101 23 154l151 -30c-8 -27 -12 -57 -12 -88c0 -135 88 -200 244 -200c68 0 133 10 196 29v66h-41c-197 0 -301 92 -301 240
c0 150 102 256 279 256c77 0 153 -18 229 -53v-274h137zM594 178h69v156c-23 10 -48 15 -73 15c-61 0 -101 -31 -101 -87c0 -55 40 -84 105 -84z" />
    <glyph glyph-name="uniFED6" unicode="&#x642;" horiz-adv-x="950" arabic-form="final" 
d="M966 177v-176c0 -1 -5 -2 -16 -2h-121v-157c-43 -31 -99 -56 -168 -75c-69 -20 -140 -30 -214 -30c-243 0 -386 135 -386 340c0 49 8 101 23 154l151 -30c-8 -27 -12 -57 -12 -88c0 -135 88 -200 244 -200c68 0 133 10 196 29v66h-41c-197 0 -301 92 -301 240
c0 150 102 256 279 256c77 0 153 -18 229 -53v-274h137zM594 178h69v156c-23 10 -48 15 -73 15c-61 0 -101 -31 -101 -87c0 -55 40 -84 105 -84zM412 653c0 49 38 88 87 88c48 0 87 -39 87 -88c0 -48 -39 -87 -87 -87c-49 0 -87 39 -87 87zM617 653c0 49 38 88 87 88
c48 0 86 -39 86 -88c0 -48 -38 -87 -86 -87c-49 0 -87 39 -87 87z" />
    <glyph glyph-name="uniFED8" unicode="&#x642;" horiz-adv-x="690" arabic-form="medial" 
d="M528 178h162v-178h-690v178h162c-51 47 -76 104 -76 169c0 135 106 223 259 223s259 -88 259 -223c0 -65 -25 -122 -76 -169zM256 318c0 -51 36 -92 89 -116c53 24 89 65 89 116c0 55 -36 90 -89 90c-52 0 -89 -37 -89 -90zM155 720c0 49 38 88 87 88c48 0 87 -39 87 -88
c0 -48 -39 -87 -87 -87c-49 0 -87 39 -87 87zM360 720c0 49 38 88 87 88c48 0 86 -39 86 -88c0 -48 -38 -87 -86 -87c-49 0 -87 39 -87 87z" />
    <glyph glyph-name="uniFED7" unicode="&#x642;" horiz-adv-x="647" arabic-form="initial" 
d="M577 511v-441c-71 -41 -199 -70 -347 -70h-230c-11 0 -16 1 -16 2v176h197c-59 36 -94 92 -94 171c0 139 114 217 265 217c75 0 150 -18 225 -55zM255 321c0 -67 64 -107 156 -116v186c-20 7 -41 11 -64 11c-56 0 -92 -32 -92 -81zM162 715c0 49 38 88 87 88
c48 0 87 -39 87 -88c0 -48 -39 -87 -87 -87c-49 0 -87 39 -87 87zM367 715c0 49 38 88 87 88c48 0 86 -39 86 -88c0 -48 -38 -87 -86 -87c-49 0 -87 39 -87 87z" />
    <glyph glyph-name="uniFEDA" unicode="&#x643;" horiz-adv-x="1163" arabic-form="final" 
d="M1163 178h16v-176c0 -1 -5 -2 -16 -2h-1c-77 0 -149 21 -206 56c-67 -37 -156 -56 -269 -56h-316c-200 0 -308 73 -308 256c0 58 11 120 32 186l153 -28c-13 -40 -20 -76 -20 -107c0 -87 48 -129 151 -129h342c64 0 124 10 152 26v526h166v-532c29 -13 71 -20 124 -20z
M658 459v-93h-220v93h48c-15 17 -22 36 -22 58c0 51 38 92 97 92c37 0 70 -18 90 -39l-52 -52c-9 7 -18 11 -29 11c-19 0 -32 -13 -32 -32c0 -23 19 -38 56 -38h64z" />
    <glyph glyph-name="uniFEDC" unicode="&#x643;" horiz-adv-x="639" arabic-form="medial" 
d="M639 178h16v-176c0 -1 -5 -2 -16 -2h-1c-59 0 -112 13 -161 39c-77 -25 -174 -39 -259 -39h-218c-11 0 -16 1 -16 2v176h251c65 0 123 12 154 29v22c-6 56 -20 65 -165 106l-133 36l-35 130l368 272l84 -105l-249 -183l53 -15c63 -18 110 -35 143 -51
c67 -32 100 -84 100 -184v-39c24 -12 52 -18 84 -18z" />
    <glyph glyph-name="uniFEDB" unicode="&#x643;" horiz-adv-x="622" arabic-form="initial" 
d="M555 235v-161c-41 -24 -92 -42 -155 -55c-62 -13 -123 -19 -182 -19h-218c-11 0 -16 1 -16 2v176h251c65 0 123 12 154 29v22c-6 56 -20 65 -165 106l-133 36l-35 130l368 272l84 -105l-249 -183l53 -15c63 -18 110 -35 143 -51c67 -32 100 -84 100 -184z" />
    <glyph glyph-name="uniFB8F" unicode="&#x6a9;" horiz-adv-x="1144" arabic-form="final" 
d="M1144 178h16v-176c0 -1 -5 -2 -16 -2h-1c-58 0 -111 13 -158 38c-77 -25 -175 -38 -263 -38h-351c-200 0 -308 73 -308 256c0 58 11 120 32 186l153 -28c-13 -40 -20 -76 -20 -107c0 -87 48 -129 151 -129h361c68 0 125 10 154 26v22c-4 54 -26 67 -143 99l-156 43
l-35 130l368 272l84 -105l-248 -183l75 -21c175 -53 216 -90 221 -232v-33c20 -12 48 -18 84 -18z" />
    <glyph glyph-name="uniFB91" unicode="&#x6a9;" horiz-adv-x="639" arabic-form="medial" 
d="M639 178h16v-176c0 -1 -5 -2 -16 -2h-1c-59 0 -112 13 -161 39c-77 -25 -174 -39 -259 -39h-218c-11 0 -16 1 -16 2v176h251c65 0 123 12 154 29v22c-6 56 -20 65 -165 106l-133 36l-35 130l368 272l84 -105l-249 -183l53 -15c63 -18 110 -35 143 -51
c67 -32 100 -84 100 -184v-39c24 -12 52 -18 84 -18z" />
    <glyph glyph-name="uniFB90" unicode="&#x6a9;" horiz-adv-x="622" arabic-form="initial" 
d="M555 235v-161c-41 -24 -92 -42 -155 -55c-62 -13 -123 -19 -182 -19h-218c-11 0 -16 1 -16 2v176h251c65 0 123 12 154 29v22c-6 56 -20 65 -165 106l-133 36l-35 130l368 272l84 -105l-249 -183l53 -15c63 -18 110 -35 143 -51c67 -32 100 -84 100 -184z" />
    <glyph glyph-name="uniFB93" unicode="&#x6af;" horiz-adv-x="1144" arabic-form="final" 
d="M856 782l-310 -228l-19 70l288 212zM1144 178h16v-176c0 -1 -5 -2 -16 -2h-1c-57 0 -109 13 -158 38c-77 -25 -175 -38 -263 -38h-351c-200 0 -308 73 -308 256c0 58 11 120 32 186l153 -28c-13 -40 -20 -76 -20 -107c0 -87 48 -129 151 -129h361c68 0 125 10 154 26v22
c-4 54 -26 67 -143 99l-156 43l-35 130l368 272l84 -105l-248 -183l75 -21c175 -53 216 -90 221 -232v-34c23 -11 51 -17 84 -17z" />
    <glyph glyph-name="uniFB95" unicode="&#x6af;" horiz-adv-x="639" arabic-form="medial" 
d="M353 782l-311 -228l-19 70l288 212zM639 178h16v-176c0 -1 -5 -2 -16 -2h-1c-59 0 -112 13 -161 39c-77 -25 -174 -39 -259 -39h-218c-11 0 -16 1 -16 2v176h251c65 0 123 12 154 29v22c-6 56 -20 65 -165 106l-133 36l-35 130l368 272l84 -105l-249 -183l53 -15
c63 -18 110 -35 143 -51c67 -32 100 -84 100 -184v-39c24 -12 52 -18 84 -18z" />
    <glyph glyph-name="uniFB94" unicode="&#x6af;" horiz-adv-x="622" arabic-form="initial" 
d="M352 783l-310 -229l-19 70l288 212zM555 235v-161c-41 -24 -92 -42 -155 -55c-62 -13 -123 -19 -182 -19h-218c-11 0 -16 1 -16 2v176h251c65 0 123 12 154 29v22c-6 56 -20 65 -165 106l-133 36l-35 130l368 272l84 -105l-249 -183l53 -15c63 -18 110 -35 143 -51
c67 -32 100 -84 100 -184z" />
    <glyph glyph-name="uniFEDE" unicode="&#x644;" horiz-adv-x="894" arabic-form="final" 
d="M894 178h16v-176c0 -1 -5 -2 -16 -2h-1c-43 0 -84 6 -123 19v-182c-39 -24 -91 -47 -154 -68s-129 -32 -197 -32c-220 0 -358 129 -358 339c0 51 7 103 22 156l151 -29c-7 -34 -11 -64 -11 -90c0 -133 76 -200 213 -200c57 0 120 11 167 30v787h167v-532
c29 -13 71 -20 124 -20z" />
    <glyph glyph-name="uniFEE0" unicode="&#x644;" horiz-adv-x="415" arabic-form="medial" 
d="M415 178h16v-176c0 -1 -5 -2 -16 -2h-1c-76 0 -145 19 -206 56c-62 -37 -131 -56 -207 -56h-1c-11 0 -16 1 -16 2v176h16c53 0 95 7 124 20v532h167v-532c29 -13 71 -20 124 -20z" />
    <glyph glyph-name="uniFEDF" unicode="&#x644;" horiz-adv-x="364" arabic-form="initial" 
d="M124 730h167v-601c-28 -36 -68 -67 -119 -92s-108 -37 -171 -37h-1c-11 0 -16 1 -16 2v176h16c47 0 95 7 124 20v532z" />
    <glyph glyph-name="uniFEE2" unicode="&#x645;" horiz-adv-x="796" arabic-form="final" 
d="M796 178h16v-176c0 -1 -5 -2 -16 -2h-1c-59 0 -113 12 -164 37c-48 -55 -118 -87 -198 -87c-43 0 -83 9 -118 27c-29 13 -55 33 -78 58c-34 -2 -51 -20 -51 -53c0 -97 7 -205 22 -324h-165c-15 121 -22 230 -22 329c0 113 53 163 158 166c-4 18 -6 37 -6 57
c0 149 111 260 260 260s259 -111 259 -260v-17c27 -10 61 -15 104 -15zM525 210c0 55 -35 95 -94 95c-56 0 -91 -42 -91 -95s36 -95 91 -95c57 0 94 42 94 95z" />
    <glyph glyph-name="uniFEE4" unicode="&#x645;" horiz-adv-x="727" arabic-form="medial" 
d="M727 178h16v-176c0 -1 -5 -2 -16 -2h-1c-60 0 -114 13 -163 39c-48 -57 -118 -89 -199 -89s-152 32 -199 88c-49 -25 -104 -38 -164 -38h-1c-11 0 -16 1 -16 2v176h16c42 0 77 5 105 15c-1 3 -1 9 -1 17c0 149 111 260 260 260s259 -111 259 -260v-17
c27 -10 62 -15 104 -15zM456 210c0 55 -35 95 -94 95c-56 0 -91 -42 -91 -95s36 -95 91 -95c57 0 94 42 94 95z" />
    <glyph glyph-name="uniFEE3" unicode="&#x645;" horiz-adv-x="677" arabic-form="initial" 
d="M630 210c0 -149 -110 -260 -259 -260c-81 0 -152 32 -199 88c-53 -25 -110 -38 -171 -38h-1c-11 0 -16 1 -16 2v176h16c46 0 83 5 111 15v17c0 149 111 260 260 260s259 -111 259 -260zM463 210c0 55 -35 95 -94 95c-56 0 -91 -42 -91 -95s36 -95 91 -95
c57 0 94 42 94 95z" />
    <glyph glyph-name="uniFEE6" unicode="&#x646;" horiz-adv-x="884" arabic-form="final" 
d="M886 178h16v-176c0 -1 -5 -2 -16 -2h-1c-47 0 -90 8 -128 25v-192c-88 -51 -208 -96 -343 -96c-220 0 -353 130 -353 339c0 50 7 102 22 155l151 -30c-7 -34 -11 -64 -11 -89c0 -129 76 -199 215 -199c57 0 120 11 168 30v453h156v-169c0 -21 9 -33 27 -37
c26 -8 58 -12 97 -12zM304 418c0 49 39 88 88 88c48 0 87 -39 87 -88c0 -48 -39 -87 -87 -87c-49 0 -88 39 -88 87z" />
    <glyph glyph-name="uniFEE8" unicode="&#x646;" horiz-adv-x="415" arabic-form="medial" 
d="M415 178h16v-176c0 -1 -5 -2 -16 -2h-1c-76 0 -145 19 -206 56c-62 -37 -131 -56 -207 -56h-1c-11 0 -16 1 -16 2v176h16c53 0 95 7 124 20v317h167v-317c29 -13 71 -20 124 -20zM121 679c0 49 39 88 88 88c48 0 87 -39 87 -88c0 -48 -39 -87 -87 -87
c-49 0 -88 39 -88 87z" />
    <glyph glyph-name="uniFEE7" unicode="&#x646;" horiz-adv-x="361" arabic-form="initial" 
d="M124 515h167v-417c-55 -56 -163 -98 -290 -98h-1c-11 0 -16 1 -16 2v176h16c49 0 97 6 124 18v319zM118 679c0 49 39 88 88 88c48 0 87 -39 87 -88c0 -48 -39 -87 -87 -87c-49 0 -88 39 -88 87z" />
    <glyph glyph-name="uniFB9F" unicode="&#x6ba;" horiz-adv-x="886" arabic-form="final" 
d="M886 178h16v-176c0 -1 -5 -2 -16 -2h-1c-47 0 -90 8 -128 25v-192c-88 -51 -208 -96 -343 -96c-220 0 -353 130 -353 339c0 50 7 102 22 155l151 -30c-7 -34 -11 -64 -11 -89c0 -129 76 -199 215 -199c57 0 120 11 168 30v453h156v-169c0 -21 9 -33 27 -37
c26 -8 58 -12 97 -12z" />
    <glyph glyph-name="uniFEEA" unicode="&#x647;" horiz-adv-x="677" arabic-form="final" 
d="M693 178v-176c0 -1 -5 -2 -16 -2h-325c-195 0 -306 105 -306 253c0 153 102 257 279 257c89 0 172 -24 229 -52v-280h139zM319 178h68v158c-21 11 -46 17 -74 17c-57 0 -99 -30 -99 -90c0 -55 38 -85 105 -85z" />
    <glyph glyph-name="uniFEEC" unicode="&#x647;" horiz-adv-x="849" arabic-form="medial" 
d="M865 178v-176c0 -1 -5 -2 -16 -2h-849c-11 0 -16 1 -16 2v176h140c-25 32 -37 70 -37 114c0 117 93 184 208 184c119 0 210 -69 210 -184c0 -45 -13 -83 -38 -116h115v86c0 189 -110 276 -283 276c-47 0 -89 -4 -128 -13v153c40 7 84 10 133 10c139 0 247 -36 326 -107
s118 -181 118 -329v-74h117zM232 261c0 -44 21 -73 64 -82c43 9 63 38 63 82c0 45 -26 72 -63 72c-39 0 -64 -27 -64 -72z" />
    <glyph glyph-name="uniFEEB" unicode="&#x647;" horiz-adv-x="812" arabic-form="initial" 
d="M748 252v-252h-748c-11 0 -16 1 -16 2v176h140c-25 32 -37 70 -37 114c0 117 93 184 208 184c119 0 210 -69 210 -184c0 -45 -13 -83 -38 -116h115v86c0 189 -110 276 -283 276c-47 0 -89 -4 -128 -13v153c40 7 84 10 133 10c139 0 247 -36 326 -107s118 -181 118 -329z
M232 261c0 -44 21 -73 64 -82c43 9 63 38 63 82c0 45 -26 72 -63 72c-39 0 -64 -27 -64 -72z" />
    <glyph glyph-name="uniFBA7" unicode="&#x6c1;" horiz-adv-x="646" arabic-form="final" 
d="M646 178h16v-176c0 -1 -5 -2 -16 -2c-50 0 -89 5 -117 15c-27 11 -52 29 -73 56s-48 72 -80 133l-28 54c-25 -5 -37 -23 -60 -80l-70 -178l-158 52l92 231c21 55 46 92 74 112c29 21 67 31 115 31h99l113 -213c25 -27 53 -35 93 -35z" />
    <glyph glyph-name="uniFBA9" unicode="&#x6c1;" horiz-adv-x="697" arabic-form="medial" 
d="M713 178v-176c0 -1 -5 -2 -16 -2h-21c-63 0 -86 -27 -86 -83v-238h-94c-218 0 -352 139 -372 340c-39 -13 -80 -19 -123 -19h-1c-11 0 -16 1 -16 2v176h16c51 0 92 7 121 20v147h167v-239c0 -140 39 -218 136 -242v97c0 129 81 217 218 217h71z" />
    <glyph glyph-name="uniFBA8" unicode="&#x6c1;" horiz-adv-x="361" arabic-form="initial" 
d="M124 496h167v-392c-55 -60 -161 -104 -290 -104h-1c-11 0 -16 1 -16 2v176h16c53 0 95 7 124 20v298zM252 -123h13l-9 -95h-16c-77 0 -126 36 -126 101c0 44 25 85 81 112l20 -27c-16 -19 -24 -33 -24 -50c0 -27 20 -41 61 -41z" />
    <glyph glyph-name="uni06C2.fina" unicode="&#x6c2;" horiz-adv-x="646" 
d="M646 178h16v-176c0 -1 -5 -2 -16 -2c-50 0 -89 5 -117 15c-27 11 -52 29 -73 56s-48 72 -80 133l-28 54c-25 -5 -37 -23 -60 -80l-70 -178l-158 52l92 231c21 55 46 92 74 112c29 21 67 31 115 31h99l113 -213c25 -27 53 -35 93 -35zM386 587h64v-92h-221v92h49
c-15 17 -22 36 -22 58c0 52 38 93 97 93c36 0 70 -18 89 -39l-51 -53c-9 8 -19 12 -30 12c-19 0 -32 -13 -32 -32c0 -23 20 -39 57 -39z" />
    <glyph glyph-name="uniFBAB" unicode="&#x6be;" horiz-adv-x="915" arabic-form="final" 
d="M931 178v-176c0 -1 -5 -2 -16 -2h-859c-11 0 -16 1 -16 2v176h140c-25 32 -38 70 -38 114c0 117 93 184 209 184c118 0 209 -69 209 -184c0 -45 -13 -83 -38 -116h116v86c0 189 -111 276 -284 276c-47 0 -89 -4 -128 -13v153c41 7 86 10 133 10c139 0 247 -36 326 -107
s119 -181 119 -329v-74h127zM288 261c0 -44 21 -73 64 -82c43 9 63 38 63 82c0 45 -26 72 -63 72c-39 0 -64 -27 -64 -72z" />
    <glyph glyph-name="uniFBAD" unicode="&#x6be;" horiz-adv-x="849" arabic-form="medial" 
d="M865 178v-176c0 -1 -5 -2 -16 -2h-849c-11 0 -16 1 -16 2v176h140c-25 32 -37 70 -37 114c0 117 93 184 208 184c119 0 210 -69 210 -184c0 -45 -13 -83 -38 -116h115v86c0 189 -110 276 -283 276c-47 0 -89 -4 -128 -13v153c40 7 84 10 133 10c139 0 247 -36 326 -107
s118 -181 118 -329v-74h117zM232 261c0 -44 21 -73 64 -82c43 9 63 38 63 82c0 45 -26 72 -63 72c-39 0 -64 -27 -64 -72z" />
    <glyph glyph-name="uniFBAC" unicode="&#x6be;" horiz-adv-x="812" arabic-form="initial" 
d="M748 252v-252h-748c-11 0 -16 1 -16 2v176h140c-25 32 -37 70 -37 114c0 117 93 184 208 184c119 0 210 -69 210 -184c0 -45 -13 -83 -38 -116h115v86c0 189 -110 276 -283 276c-47 0 -89 -4 -128 -13v153c40 7 84 10 133 10c139 0 247 -36 326 -107s118 -181 118 -329z
M232 261c0 -44 21 -73 64 -82c43 9 63 38 63 82c0 45 -26 72 -63 72c-39 0 -64 -27 -64 -72z" />
    <glyph glyph-name="uniFE94" unicode="&#x629;" horiz-adv-x="677" arabic-form="final" 
d="M693 178v-176c0 -1 -5 -2 -16 -2h-325c-195 0 -306 105 -306 253c0 153 102 257 279 257c89 0 172 -24 229 -52v-280h139zM319 178h68v158c-21 11 -46 17 -74 17c-57 0 -99 -30 -99 -90c0 -55 38 -85 105 -85zM137 659c0 49 38 88 87 88c48 0 87 -39 87 -88
c0 -48 -39 -87 -87 -87c-49 0 -87 39 -87 87zM342 659c0 49 38 88 87 88c48 0 86 -39 86 -88c0 -48 -38 -87 -86 -87c-49 0 -87 39 -87 87z" />
    <glyph glyph-name="uni06C3.fina" unicode="&#x6c3;" horiz-adv-x="646" 
d="M646 178h16v-176c0 -1 -5 -2 -16 -2c-50 0 -89 5 -117 15c-27 11 -52 29 -73 56s-48 72 -80 133l-28 54c-25 -5 -37 -23 -60 -80l-70 -178l-158 52l92 231c21 55 46 92 74 112c29 21 67 31 115 31h99l113 -213c25 -27 53 -35 93 -35zM151 574c0 49 38 88 87 88
c48 0 87 -39 87 -88c0 -48 -39 -87 -87 -87c-49 0 -87 39 -87 87zM356 574c0 49 38 88 87 88c48 0 86 -39 86 -88c0 -48 -38 -87 -86 -87c-49 0 -87 39 -87 87z" />
    <glyph glyph-name="uniFEEE" unicode="&#x648;" horiz-adv-x="681" arabic-form="final" 
d="M697 178v-176c0 -1 -5 -2 -16 -2h-129c-15 -184 -130 -263 -306 -263c-67 0 -129 9 -186 27l31 159c55 -17 108 -25 160 -25c99 0 134 35 137 102h-41c-197 0 -301 104 -301 248c0 150 102 256 280 256c78 0 154 -18 228 -53v-273h143zM319 178h69v156
c-23 10 -48 15 -73 15c-61 0 -101 -30 -101 -87c0 -53 40 -84 105 -84z" />
    <glyph glyph-name="uniFE86" unicode="&#x624;" horiz-adv-x="681" arabic-form="final" 
d="M697 178v-176c0 -1 -5 -2 -16 -2h-129c-15 -184 -130 -263 -306 -263c-67 0 -129 9 -186 27l31 159c55 -17 108 -25 160 -25c99 0 134 35 137 102h-41c-197 0 -301 104 -301 248c0 150 102 256 280 256c78 0 154 -18 228 -53v-273h143zM319 178h69v156
c-23 10 -48 15 -73 15c-61 0 -101 -30 -101 -87c0 -53 40 -84 105 -84zM372 665h64v-92h-221v92h49c-15 17 -22 36 -22 58c0 52 38 93 97 93c36 0 70 -18 89 -39l-51 -53c-9 8 -19 12 -30 12c-19 0 -32 -13 -32 -32c0 -23 20 -39 57 -39z" />
    <glyph glyph-name="uniFEF0" unicode="&#x649;" horiz-adv-x="1151" arabic-form="final" 
d="M1151 178h16v-176c0 -1 -5 -2 -16 -2c-158 0 -224 35 -264 169l-29 99h-85c-37 0 -58 -16 -58 -45c0 -9 1 -17 4 -26l102 -342c-45 -28 -106 -55 -181 -80s-147 -38 -218 -38c-221 0 -361 131 -361 338c0 49 7 101 22 156l151 -29c-7 -28 -11 -58 -11 -90
c0 -131 77 -199 216 -199c29 0 62 3 99 9s68 13 91 22l-74 237c-9 30 -14 57 -14 81c0 53 18 95 55 125c37 31 84 46 141 46h242l51 -179c18 -59 35 -76 121 -76z" />
    <glyph glyph-name="uniFEF2" unicode="&#x64a;" horiz-adv-x="1151" arabic-form="final" 
d="M1151 178h16v-176c0 -1 -5 -2 -16 -2c-158 0 -224 35 -264 169l-29 99h-85c-37 0 -58 -16 -58 -45c0 -9 1 -17 4 -26l102 -342c-45 -28 -106 -55 -181 -80s-147 -38 -218 -38c-221 0 -361 131 -361 338c0 49 7 101 22 156l151 -29c-7 -28 -11 -58 -11 -90
c0 -131 77 -199 216 -199c29 0 62 3 99 9s68 13 91 22l-74 237c-9 30 -14 57 -14 81c0 53 18 95 55 125c37 31 84 46 141 46h242l51 -179c18 -59 35 -76 121 -76zM223 -415c0 49 38 88 87 88c48 0 87 -39 87 -88c0 -48 -39 -87 -87 -87c-49 0 -87 39 -87 87zM428 -415
c0 49 38 88 87 88c48 0 86 -39 86 -88c0 -48 -38 -87 -86 -87c-49 0 -87 39 -87 87z" />
    <glyph glyph-name="uniFEF4" unicode="&#x64a;" horiz-adv-x="415" arabic-form="medial" 
d="M415 178h16v-176c0 -1 -5 -2 -16 -2h-1c-76 0 -145 19 -206 56c-62 -37 -131 -56 -207 -56h-1c-11 0 -16 1 -16 2v176h16c53 0 95 7 124 20v317h167v-317c29 -13 71 -20 124 -20zM20 -145c0 49 38 88 87 88c48 0 87 -39 87 -88c0 -48 -39 -87 -87 -87
c-49 0 -87 39 -87 87zM225 -145c0 49 38 88 87 88c48 0 86 -39 86 -88c0 -48 -38 -87 -86 -87c-49 0 -87 39 -87 87z" />
    <glyph glyph-name="uniFEF3" unicode="&#x64a;" horiz-adv-x="361" arabic-form="initial" 
d="M124 515h167v-417c-55 -56 -163 -98 -290 -98h-1c-11 0 -16 1 -16 2v176h16c49 0 97 6 124 18v319zM-13 -145c0 49 38 88 87 88c48 0 87 -39 87 -88c0 -48 -39 -87 -87 -87c-49 0 -87 39 -87 87zM192 -145c0 49 38 88 87 88c48 0 86 -39 86 -88c0 -48 -38 -87 -86 -87
c-49 0 -87 39 -87 87z" />
    <glyph glyph-name="uniFE8A" unicode="&#x626;" horiz-adv-x="1151" arabic-form="final" 
d="M1151 178h16v-176c0 -1 -5 -2 -16 -2c-158 0 -224 35 -264 169l-29 99h-85c-37 0 -58 -16 -58 -45c0 -9 1 -17 4 -26l102 -342c-45 -28 -106 -55 -181 -80s-147 -38 -218 -38c-221 0 -361 131 -361 338c0 49 7 101 22 156l151 -29c-7 -28 -11 -58 -11 -90
c0 -131 77 -199 216 -199c29 0 62 3 99 9s68 13 91 22l-74 237c-9 30 -14 57 -14 81c0 53 18 95 55 125c37 31 84 46 141 46h242l51 -179c18 -59 35 -76 121 -76zM241 399h64v-92h-221v92h49c-15 17 -22 36 -22 58c0 52 38 93 97 93c36 0 70 -18 89 -39l-51 -53
c-9 8 -19 12 -30 12c-19 0 -32 -13 -32 -32c0 -23 20 -39 57 -39z" />
    <glyph glyph-name="uniFE8C" unicode="&#x626;" horiz-adv-x="415" arabic-form="medial" 
d="M415 178h16v-176c0 -1 -5 -2 -16 -2h-1c-76 0 -145 19 -206 56c-62 -37 -131 -56 -207 -56h-1c-11 0 -16 1 -16 2v176h16c53 0 95 7 124 20v317h167v-317c29 -13 71 -20 124 -20zM255 692h64v-92h-221v92h49c-15 17 -22 36 -22 58c0 52 38 93 97 93c36 0 70 -18 89 -39
l-51 -53c-9 8 -19 12 -30 12c-19 0 -32 -13 -32 -32c0 -23 20 -39 57 -39z" />
    <glyph glyph-name="uniFE8B" unicode="&#x626;" horiz-adv-x="361" arabic-form="initial" 
d="M124 515h167v-417c-55 -56 -163 -98 -290 -98h-1c-11 0 -16 1 -16 2v176h16c49 0 97 6 124 18v319zM252 692h64v-92h-221v92h49c-15 17 -22 36 -22 58c0 52 38 93 97 93c36 0 70 -18 89 -39l-51 -53c-9 8 -19 12 -30 12c-19 0 -32 -13 -32 -32c0 -23 20 -39 57 -39z" />
    <glyph glyph-name="uniFBFD" unicode="&#x6cc;" horiz-adv-x="1151" arabic-form="final" 
d="M1151 178h16v-176c0 -1 -5 -2 -16 -2c-158 0 -224 35 -264 169l-29 99h-85c-37 0 -58 -16 -58 -45c0 -9 1 -17 4 -26l102 -342c-45 -28 -106 -55 -181 -80s-147 -38 -218 -38c-221 0 -361 131 -361 338c0 49 7 101 22 156l151 -29c-7 -28 -11 -58 -11 -90
c0 -131 77 -199 216 -199c29 0 62 3 99 9s68 13 91 22l-74 237c-9 30 -14 57 -14 81c0 53 18 95 55 125c37 31 84 46 141 46h242l51 -179c18 -59 35 -76 121 -76z" />
    <glyph glyph-name="uniFBFF" unicode="&#x6cc;" horiz-adv-x="415" arabic-form="medial" 
d="M415 178h16v-176c0 -1 -5 -2 -16 -2h-1c-76 0 -145 19 -206 56c-62 -37 -131 -56 -207 -56h-1c-11 0 -16 1 -16 2v176h16c53 0 95 7 124 20v317h167v-317c29 -13 71 -20 124 -20zM20 -145c0 49 38 88 87 88c48 0 87 -39 87 -88c0 -48 -39 -87 -87 -87
c-49 0 -87 39 -87 87zM225 -145c0 49 38 88 87 88c48 0 86 -39 86 -88c0 -48 -38 -87 -86 -87c-49 0 -87 39 -87 87z" />
    <glyph glyph-name="uniFBFE" unicode="&#x6cc;" horiz-adv-x="361" arabic-form="initial" 
d="M124 515h167v-417c-55 -56 -163 -98 -290 -98h-1c-11 0 -16 1 -16 2v176h16c49 0 97 6 124 18v319zM-13 -145c0 49 38 88 87 88c48 0 87 -39 87 -88c0 -48 -39 -87 -87 -87c-49 0 -87 39 -87 87zM192 -145c0 49 38 88 87 88c48 0 86 -39 86 -88c0 -48 -38 -87 -86 -87
c-49 0 -87 39 -87 87z" />
    <glyph glyph-name="uniFBAF" unicode="&#x6d2;" horiz-adv-x="824" arabic-form="final" 
d="M840 178v-176c0 -1 -5 -2 -16 -2h-546c-31 0 -47 -11 -47 -32c0 -22 16 -33 47 -33h275v-173h-230c-172 0 -258 73 -258 208c0 136 87 208 258 208h517z" />
    <glyph glyph-name="uniFBB1" unicode="&#x6d3;" horiz-adv-x="824" arabic-form="final" 
d="M840 178v-176c0 -1 -5 -2 -16 -2h-546c-31 0 -47 -11 -47 -32c0 -22 16 -33 47 -33h275v-173h-230c-172 0 -258 73 -258 208c0 136 87 208 258 208h517zM361 350h64v-92h-221v92h49c-15 17 -22 36 -22 58c0 52 38 93 97 93c36 0 70 -18 89 -39l-51 -53
c-9 8 -19 12 -30 12c-19 0 -32 -13 -32 -32c0 -23 20 -39 57 -39z" />
    <glyph glyph-name=".notdef" horiz-adv-x="500" 
d="M50 30v600h400v-600h-400zM120 100h260v460h-260v-460z" />
    <glyph glyph-name="space" unicode=" " horiz-adv-x="250" 
 />
    <glyph glyph-name="A" unicode="A" horiz-adv-x="851" 
d="M604 0l-45 123h-268l-44 -123h-223l277 700h247l278 -700h-222zM345 274h160l-81 223z" />
    <glyph glyph-name="Aacute" unicode="&#xc1;" horiz-adv-x="851" 
d="M604 0l-45 123h-268l-44 -123h-223l277 700h247l278 -700h-222zM345 274h160l-81 223zM627 926l-151 -174h-152l120 174h183z" />
    <glyph glyph-name="Abreve" unicode="&#x102;" horiz-adv-x="851" 
d="M604 0l-45 123h-268l-44 -123h-223l277 700h247l278 -700h-222zM345 274h160l-81 223zM425 763c-106 0 -193 71 -193 167h116c1 -39 33 -61 77 -61c45 0 77 22 78 61h116c0 -96 -87 -167 -194 -167z" />
    <glyph glyph-name="Acircumflex" unicode="&#xc2;" horiz-adv-x="851" 
d="M604 0l-45 123h-268l-44 -123h-223l277 700h247l278 -700h-222zM345 274h160l-81 223zM517 926l123 -174h-145l-70 82l-68 -82h-147l123 174h184z" />
    <glyph glyph-name="Adieresis" unicode="&#xc4;" horiz-adv-x="851" 
d="M604 0l-45 123h-268l-44 -123h-223l277 700h247l278 -700h-222zM345 274h160l-81 223zM388 848c0 -43 -30 -74 -73 -74s-74 31 -74 74s31 73 74 73c41 0 73 -30 73 -73zM609 848c0 -43 -31 -74 -74 -74s-73 31 -73 74s32 73 73 73c43 0 74 -32 74 -73z" />
    <glyph glyph-name="Agrave" unicode="&#xc0;" horiz-adv-x="851" 
d="M604 0l-45 123h-268l-44 -123h-223l277 700h247l278 -700h-222zM345 274h160l-81 223zM406 926l120 -174h-152l-151 174h183z" />
    <glyph glyph-name="Amacron" unicode="&#x100;" horiz-adv-x="851" 
d="M604 0l-45 123h-268l-44 -123h-223l277 700h247l278 -700h-222zM345 274h160l-81 223zM598 902v-109h-346v109h346z" />
    <glyph glyph-name="Aogonek" unicode="&#x104;" horiz-adv-x="851" 
d="M816 -108l21 -79c-28 -12 -60 -18 -96 -18c-76 0 -122 32 -122 92c0 31 12 65 37 103l7 10h-59l-45 123h-268l-44 -123h-223l277 700h247l278 -700h-67l-5 -7c-17 -25 -26 -46 -26 -61c0 -31 24 -46 55 -46c11 0 22 2 33 6zM345 274h160l-81 223z" />
    <glyph glyph-name="Aring" unicode="&#xc5;" horiz-adv-x="851" 
d="M604 0l-45 123h-268l-44 -123h-223l277 700h247l278 -700h-222zM345 274h160l-81 223zM563 871c0 -72 -63 -135 -138 -135s-138 63 -138 135s63 135 138 135s138 -63 138 -135zM372 871c0 -29 24 -52 53 -52s53 23 53 52s-24 52 -53 52s-53 -23 -53 -52z" />
    <glyph glyph-name="Atilde" unicode="&#xc3;" horiz-adv-x="851" 
d="M604 0l-45 123h-268l-44 -123h-223l277 700h247l278 -700h-222zM345 274h160l-81 223zM339 924c24 0 46 -6 83 -22c38 -15 64 -23 78 -23c23 0 34 13 41 38l76 -9c-3 -84 -33 -147 -105 -147c-24 0 -42 6 -95 26c-32 13 -54 19 -66 19c-23 0 -34 -14 -41 -39l-76 10
c3 83 33 147 105 147z" />
    <glyph glyph-name="AE" unicode="&#xc6;" horiz-adv-x="1072" 
d="M668 168h368v-168h-556v123h-179l-55 -123h-222l332 700h674v-167h-362v-100h335v-157h-335v-108zM368 273h112v252z" />
    <glyph glyph-name="B" unicode="B" horiz-adv-x="742" 
d="M706 192c0 -55 -19 -100 -57 -137s-99 -55 -183 -55h-395v700h378c145 0 229 -62 229 -178c0 -75 -36 -127 -103 -155c91 -29 131 -95 131 -175zM260 546v-127h133c56 0 88 23 88 63c0 41 -32 64 -88 64h-133zM510 222c0 39 -28 68 -92 68h-158v-136h158
c65 0 92 29 92 68z" />
    <glyph glyph-name="C" unicode="C" horiz-adv-x="759" 
d="M722 557l-162 -93c-31 43 -80 69 -137 69c-101 0 -173 -82 -173 -183s72 -183 173 -183c56 0 105 26 137 70l162 -94c-67 -95 -178 -153 -301 -153c-198 -4 -372 166 -368 360c-4 194 170 364 368 360c123 0 234 -58 301 -153z" />
    <glyph glyph-name="Cacute" unicode="&#x106;" horiz-adv-x="759" 
d="M722 557l-162 -93c-31 43 -80 69 -137 69c-101 0 -173 -82 -173 -183s72 -183 173 -183c56 0 105 26 137 70l162 -94c-67 -95 -178 -153 -301 -153c-198 -4 -372 166 -368 360c-4 194 170 364 368 360c123 0 234 -58 301 -153zM612 926l-151 -174h-152l120 174h183z" />
    <glyph glyph-name="Ccaron" unicode="&#x10c;" horiz-adv-x="759" 
d="M722 557l-162 -93c-31 43 -80 69 -137 69c-101 0 -173 -82 -173 -183s72 -183 173 -183c56 0 105 26 137 70l162 -94c-67 -95 -178 -153 -301 -153c-198 -4 -372 166 -368 360c-4 194 170 364 368 360c123 0 234 -58 301 -153zM625 926l-123 -174h-184l-123 174h147
l68 -82l70 82h145z" />
    <glyph glyph-name="Ccedilla" unicode="&#xc7;" horiz-adv-x="759" 
d="M560 237l162 -94c-64 -91 -169 -148 -285 -153l-15 -31h1c61 0 102 -37 102 -92c0 -64 -54 -99 -126 -99c-40 0 -77 9 -111 27l22 59c17 -9 39 -13 64 -13c32 0 50 17 50 40c0 20 -14 32 -34 32c-9 0 -18 -2 -27 -7l-27 30l29 58c-175 23 -315 181 -312 356
c-4 194 170 364 368 360c123 0 234 -58 301 -153l-162 -93c-31 43 -80 69 -137 69c-101 0 -173 -82 -173 -183s72 -183 173 -183c56 0 105 26 137 70z" />
    <glyph glyph-name="Ccircumflex" unicode="&#x108;" horiz-adv-x="759" 
d="M722 557l-162 -93c-31 43 -80 69 -137 69c-101 0 -173 -82 -173 -183s72 -183 173 -183c56 0 105 26 137 70l162 -94c-67 -95 -178 -153 -301 -153c-198 -4 -372 166 -368 360c-4 194 170 364 368 360c123 0 234 -58 301 -153zM502 926l123 -174h-145l-70 82l-68 -82
h-147l123 174h184z" />
    <glyph glyph-name="Cdotaccent" unicode="&#x10a;" horiz-adv-x="759" 
d="M722 557l-162 -93c-31 43 -80 69 -137 69c-101 0 -173 -82 -173 -183s72 -183 173 -183c56 0 105 26 137 70l162 -94c-67 -95 -178 -153 -301 -153c-198 -4 -372 166 -368 360c-4 194 170 364 368 360c123 0 234 -58 301 -153zM483 848c0 -43 -32 -74 -73 -74
c-43 0 -74 33 -74 74s31 73 74 73s73 -30 73 -73z" />
    <glyph glyph-name="D" unicode="D" horiz-adv-x="799" 
d="M747 350c4 -195 -173 -353 -376 -350h-300v700h300c203 3 380 -155 376 -350zM365 532h-105v-364h105c103 0 189 80 189 182s-86 182 -189 182z" />
    <glyph glyph-name="Eth" unicode="&#xd0;" horiz-adv-x="799" 
d="M747 350c4 -195 -173 -353 -376 -350h-300v276h-55v148h55v276h300c203 3 380 -155 376 -350zM554 350c0 102 -86 182 -189 182h-105v-108h135v-148h-135v-108h105c103 0 189 80 189 182z" />
    <glyph glyph-name="Dcaron" unicode="&#x10e;" horiz-adv-x="799" 
d="M747 350c4 -195 -173 -353 -376 -350h-300v700h300c203 3 380 -155 376 -350zM365 532h-105v-364h105c103 0 189 80 189 182s-86 182 -189 182zM568 926l-123 -174h-184l-123 174h147l68 -82l70 82h145z" />
    <glyph glyph-name="Dcroat" unicode="&#x110;" horiz-adv-x="799" 
d="M747 350c4 -195 -173 -353 -376 -350h-300v276h-55v148h55v276h300c203 3 380 -155 376 -350zM554 350c0 102 -86 182 -189 182h-105v-108h135v-148h-135v-108h105c103 0 189 80 189 182z" />
    <glyph glyph-name="E" unicode="E" horiz-adv-x="686" 
d="M645 700v-167h-385v-100h358v-157h-358v-109h391v-167h-580v700h574z" />
    <glyph glyph-name="Eacute" unicode="&#xc9;" horiz-adv-x="686" 
d="M645 700v-167h-385v-100h358v-157h-358v-109h391v-167h-580v700h574zM557 926l-151 -174h-152l120 174h183z" />
    <glyph glyph-name="Ebreve" unicode="&#x114;" horiz-adv-x="686" 
d="M645 700v-167h-385v-100h358v-157h-358v-109h391v-167h-580v700h574zM355 763c-106 0 -193 71 -193 167h116c1 -39 33 -61 77 -61c45 0 77 22 78 61h116c0 -96 -87 -167 -194 -167z" />
    <glyph glyph-name="Ecaron" unicode="&#x11a;" horiz-adv-x="686" 
d="M645 700v-167h-385v-100h358v-157h-358v-109h391v-167h-580v700h574zM570 926l-123 -174h-184l-123 174h147l68 -82l70 82h145z" />
    <glyph glyph-name="Ecircumflex" unicode="&#xca;" horiz-adv-x="686" 
d="M645 700v-167h-385v-100h358v-157h-358v-109h391v-167h-580v700h574zM447 926l123 -174h-145l-70 82l-68 -82h-147l123 174h184z" />
    <glyph glyph-name="Edieresis" unicode="&#xcb;" horiz-adv-x="686" 
d="M645 700v-167h-385v-100h358v-157h-358v-109h391v-167h-580v700h574zM318 848c0 -43 -30 -74 -73 -74s-74 31 -74 74s31 73 74 73c41 0 73 -30 73 -73zM539 848c0 -43 -31 -74 -74 -74s-73 31 -73 74s32 73 73 73c43 0 74 -32 74 -73z" />
    <glyph glyph-name="Edotaccent" unicode="&#x116;" horiz-adv-x="686" 
d="M645 700v-167h-385v-100h358v-157h-358v-109h391v-167h-580v700h574zM428 848c0 -43 -32 -74 -73 -74c-43 0 -74 33 -74 74s31 73 74 73s73 -30 73 -73z" />
    <glyph glyph-name="Egrave" unicode="&#xc8;" horiz-adv-x="686" 
d="M645 700v-167h-385v-100h358v-157h-358v-109h391v-167h-580v700h574zM336 926l120 -174h-152l-151 174h183z" />
    <glyph glyph-name="Emacron" unicode="&#x112;" horiz-adv-x="686" 
d="M645 700v-167h-385v-100h358v-157h-358v-109h391v-167h-580v700h574zM528 902v-109h-346v109h346z" />
    <glyph glyph-name="Eogonek" unicode="&#x118;" horiz-adv-x="686" 
d="M660 -108l21 -79c-28 -12 -60 -18 -96 -18c-76 0 -121 32 -121 92c0 34 12 68 36 103l7 10h-436v700h574v-167h-385v-100h358v-157h-358v-109h391v-167h-48l-5 -7c-17 -27 -25 -48 -25 -61c0 -31 23 -46 54 -46c11 0 22 2 33 6z" />
    <glyph glyph-name="F" unicode="F" horiz-adv-x="658" 
d="M622 700v-169h-362v-127h326v-161h-326v-243h-189v700h551z" />
    <glyph glyph-name="G" unicode="G" horiz-adv-x="804" 
d="M715 608l-123 -128c-43 37 -97 57 -153 57c-102 0 -189 -72 -189 -187c0 -101 74 -183 178 -183c50 0 94 11 132 33v67h-121v138h300v-309c-87 -68 -195 -106 -311 -106c-202 -4 -379 166 -375 360c-4 222 187 362 386 360c101 0 200 -35 276 -102z" />
    <glyph glyph-name="Gbreve" unicode="&#x11e;" horiz-adv-x="804" 
d="M715 608l-123 -128c-43 37 -97 57 -153 57c-102 0 -189 -72 -189 -187c0 -101 74 -183 178 -183c50 0 94 11 132 33v67h-121v138h300v-309c-87 -68 -195 -106 -311 -106c-202 -4 -379 166 -375 360c-4 222 187 362 386 360c101 0 200 -35 276 -102zM419 763
c-106 0 -193 71 -193 167h116c1 -39 33 -61 77 -61c45 0 77 22 78 61h116c0 -96 -87 -167 -194 -167z" />
    <glyph glyph-name="Gcircumflex" unicode="&#x11c;" horiz-adv-x="804" 
d="M715 608l-123 -128c-43 37 -97 57 -153 57c-102 0 -189 -72 -189 -187c0 -101 74 -183 178 -183c50 0 94 11 132 33v67h-121v138h300v-309c-87 -68 -195 -106 -311 -106c-202 -4 -379 166 -375 360c-4 222 187 362 386 360c101 0 200 -35 276 -102zM511 926l123 -174
h-145l-70 82l-68 -82h-147l123 174h184z" />
    <glyph glyph-name="uni0122" unicode="&#x122;" horiz-adv-x="804" 
d="M715 608l-123 -128c-43 37 -97 57 -153 57c-102 0 -189 -72 -189 -187c0 -101 74 -183 178 -183c50 0 94 11 132 33v67h-121v138h300v-309c-87 -68 -195 -106 -311 -106c-202 -4 -379 166 -375 360c-4 222 187 362 386 360c101 0 200 -35 276 -102zM515 -112
c0 -13 -4 -24 -11 -33l-102 -134l-44 19l39 88c-27 11 -45 35 -45 60c0 36 36 65 81 65s82 -29 82 -65z" />
    <glyph glyph-name="Gdotaccent" unicode="&#x120;" horiz-adv-x="804" 
d="M715 608l-123 -128c-43 37 -97 57 -153 57c-102 0 -189 -72 -189 -187c0 -101 74 -183 178 -183c50 0 94 11 132 33v67h-121v138h300v-309c-87 -68 -195 -106 -311 -106c-202 -4 -379 166 -375 360c-4 222 187 362 386 360c101 0 200 -35 276 -102zM492 848
c0 -43 -32 -74 -73 -74c-43 0 -74 33 -74 74s31 73 74 73s73 -30 73 -73z" />
    <glyph glyph-name="H" unicode="H" horiz-adv-x="804" 
d="M733 700v-700h-188v267h-285v-267h-189v700h189v-264h285v264h188z" />
    <glyph glyph-name="Hbar" unicode="&#x126;" horiz-adv-x="804" 
d="M797 635v-123h-64v-512h-188v267h-285v-267h-189v512h-63v123h63v65h189v-65h285v65h188v-65h64zM545 436v76h-285v-76h285z" />
    <glyph glyph-name="Hcircumflex" unicode="&#x124;" horiz-adv-x="804" 
d="M733 700v-700h-188v267h-285v-267h-189v700h189v-264h285v264h188zM507 926l123 -174h-145l-70 82l-68 -82h-147l123 174h184z" />
    <glyph glyph-name="I" unicode="I" horiz-adv-x="331" 
d="M260 700v-700h-189v700h189z" />
    <glyph glyph-name="IJ" unicode="&#x132;" horiz-adv-x="949" 
d="M260 700v-700h-189v700h189zM878 700v-415c0 -107 -24 -183 -71 -228s-115 -67 -206 -67c-120 0 -202 33 -247 117l151 97c18 -27 47 -41 86 -41c63 0 98 39 98 122v415h189z" />
    <glyph glyph-name="Iacute" unicode="&#xcd;" horiz-adv-x="331" 
d="M260 700v-700h-189v700h189zM374 926l-151 -174h-152l120 174h183z" />
    <glyph glyph-name="Icircumflex" unicode="&#xce;" horiz-adv-x="331" 
d="M260 700v-700h-189v700h189zM264 926l123 -174h-145l-70 82l-68 -82h-147l123 174h184z" />
    <glyph glyph-name="Idieresis" unicode="&#xcf;" horiz-adv-x="331" 
d="M260 700v-700h-189v700h189zM135 848c0 -43 -30 -74 -73 -74s-74 31 -74 74s31 73 74 73c41 0 73 -30 73 -73zM356 848c0 -43 -31 -74 -74 -74s-73 31 -73 74s32 73 73 73c43 0 74 -32 74 -73z" />
    <glyph glyph-name="Idot" unicode="&#x130;" horiz-adv-x="331" 
d="M260 700v-700h-189v700h189zM245 848c0 -43 -32 -74 -73 -74c-43 0 -74 33 -74 74s31 73 74 73s73 -30 73 -73z" />
    <glyph glyph-name="Igrave" unicode="&#xcc;" horiz-adv-x="331" 
d="M260 700v-700h-189v700h189zM153 926l120 -174h-152l-151 174h183z" />
    <glyph glyph-name="Imacron" unicode="&#x12a;" horiz-adv-x="331" 
d="M260 700v-700h-189v700h189zM345 902v-109h-346v109h346z" />
    <glyph glyph-name="Iogonek" unicode="&#x12e;" horiz-adv-x="331" 
d="M280 -108l21 -79c-28 -12 -60 -18 -96 -18c-76 0 -122 32 -122 92c0 33 12 68 37 103l7 10h-56v700h189v-700h-37l-5 -7c-17 -29 -26 -46 -26 -61c0 -31 24 -46 55 -46c11 0 22 2 33 6z" />
    <glyph glyph-name="Itilde" unicode="&#x128;" horiz-adv-x="331" 
d="M260 700v-700h-189v700h189zM86 924c24 0 46 -6 83 -22c38 -15 64 -23 78 -23c23 0 34 13 41 38l76 -9c-3 -84 -33 -147 -105 -147c-24 0 -42 6 -95 26c-32 13 -54 19 -66 19c-23 0 -34 -14 -41 -39l-76 10c3 83 33 147 105 147z" />
    <glyph glyph-name="J" unicode="J" horiz-adv-x="618" 
d="M547 700v-415c0 -107 -24 -183 -71 -228s-115 -67 -206 -67c-120 0 -202 33 -247 117l151 97c18 -27 47 -41 86 -41c63 0 98 39 98 122v415h189z" />
    <glyph glyph-name="Jcircumflex" unicode="&#x134;" horiz-adv-x="618" 
d="M547 700v-415c0 -107 -24 -183 -71 -228s-115 -67 -206 -67c-120 0 -202 33 -247 117l151 97c18 -27 47 -41 86 -41c63 0 98 39 98 122v415h189zM544 926l123 -174h-145l-70 82l-68 -82h-147l123 174h184z" />
    <glyph glyph-name="K" unicode="K" horiz-adv-x="769" 
d="M505 0l-142 261l-103 -120v-141h-189v700h189v-285l226 285h252l-250 -292l257 -408h-240z" />
    <glyph glyph-name="uni0136" unicode="&#x136;" horiz-adv-x="769" 
d="M505 0l-142 261l-103 -120v-141h-189v700h189v-285l226 285h252l-250 -292l257 -408h-240zM475 -112c0 -13 -4 -24 -11 -33l-102 -134l-44 19l39 88c-27 11 -45 35 -45 60c0 36 36 65 81 65s82 -29 82 -65z" />
    <glyph glyph-name="L" unicode="L" horiz-adv-x="626" 
d="M260 700v-531h342v-169h-531v700h189z" />
    <glyph glyph-name="Lacute" unicode="&#x139;" horiz-adv-x="626" 
d="M260 700v-531h342v-169h-531v700h189zM377 926l-151 -174h-152l120 174h183z" />
    <glyph glyph-name="Lcaron" unicode="&#x13d;" horiz-adv-x="626" 
d="M260 700v-531h342v-169h-531v700h189zM586 639c0 -14 -4 -28 -13 -41l-126 -191l-50 23l54 136c-32 13 -52 41 -52 73c0 45 42 82 93 82c52 0 94 -37 94 -82z" />
    <glyph glyph-name="uni013B" unicode="&#x13b;" horiz-adv-x="626" 
d="M260 700v-531h342v-169h-531v700h189zM424 -112c0 -13 -4 -24 -11 -33l-102 -134l-44 19l39 88c-27 11 -45 35 -45 60c0 36 36 65 81 65s82 -29 82 -65z" />
    <glyph glyph-name="Ldot" unicode="&#x13f;" horiz-adv-x="626" 
d="M260 700v-531h342v-169h-531v700h189zM565 375c0 -45 -42 -82 -94 -82c-51 0 -93 37 -93 82s42 82 93 82c52 0 94 -37 94 -82z" />
    <glyph glyph-name="Lslash" unicode="&#x141;" horiz-adv-x="626" 
d="M260 169h342v-169h-531v247l-52 -26v174l52 25v280h189v-187l116 57v-173l-116 -57v-171z" />
    <glyph glyph-name="M" unicode="M" horiz-adv-x="999" 
d="M681 700h247v-700h-186v449l-211 -356h-64l-211 356v-449h-185v700h247l182 -300z" />
    <glyph glyph-name="N" unicode="N" horiz-adv-x="804" 
d="M549 700h184v-700h-194l-282 395v-395h-186v700h195l283 -396v396z" />
    <glyph glyph-name="Nacute" unicode="&#x143;" horiz-adv-x="804" 
d="M549 700h184v-700h-194l-282 395v-395h-186v700h195l283 -396v396zM623 926l-151 -174h-152l120 174h183z" />
    <glyph glyph-name="Ncaron" unicode="&#x147;" horiz-adv-x="804" 
d="M549 700h184v-700h-194l-282 395v-395h-186v700h195l283 -396v396zM636 926l-123 -174h-184l-123 174h147l68 -82l70 82h145z" />
    <glyph glyph-name="uni0145" unicode="&#x145;" horiz-adv-x="804" 
d="M549 700h184v-700h-194l-282 395v-395h-186v700h195l283 -396v396zM508 -112c0 -13 -4 -24 -11 -33l-102 -134l-44 19l39 88c-27 11 -45 35 -45 60c0 36 36 65 81 65s82 -29 82 -65z" />
    <glyph glyph-name="Eng" unicode="&#x14a;" horiz-adv-x="804" 
d="M548 700h185v-654c0 -106 -23 -180 -69 -223s-114 -65 -203 -65c-119 0 -200 33 -243 114l148 97c19 -28 47 -42 84 -42c49 0 80 23 93 68l-286 399v-394h-186v700h195l282 -393v393z" />
    <glyph glyph-name="Ntilde" unicode="&#xd1;" horiz-adv-x="804" 
d="M549 700h184v-700h-194l-282 395v-395h-186v700h195l283 -396v396zM335 924c24 0 46 -6 83 -22c38 -15 64 -23 78 -23c23 0 34 13 41 38l76 -9c-3 -84 -33 -147 -105 -147c-24 0 -42 6 -95 26c-32 13 -54 19 -66 19c-23 0 -34 -14 -41 -39l-76 10c3 83 33 147 105 147z
" />
    <glyph glyph-name="O" unicode="O" horiz-adv-x="855" 
d="M803 350c4 -194 -173 -364 -375 -360c-202 -4 -379 166 -375 360c-4 194 173 364 375 360c202 4 379 -166 375 -360zM250 350c0 -101 74 -183 178 -183c103 0 179 82 179 183s-76 183 -179 183c-104 0 -178 -82 -178 -183z" />
    <glyph glyph-name="Oacute" unicode="&#xd3;" horiz-adv-x="855" 
d="M803 350c4 -194 -173 -364 -375 -360c-202 -4 -379 166 -375 360c-4 194 173 364 375 360c202 4 379 -166 375 -360zM250 350c0 -101 74 -183 178 -183c103 0 179 82 179 183s-76 183 -179 183c-104 0 -178 -82 -178 -183zM630 926l-151 -174h-152l120 174h183z" />
    <glyph glyph-name="Ocircumflex" unicode="&#xd4;" horiz-adv-x="855" 
d="M803 350c4 -194 -173 -364 -375 -360c-202 -4 -379 166 -375 360c-4 194 173 364 375 360c202 4 379 -166 375 -360zM250 350c0 -101 74 -183 178 -183c103 0 179 82 179 183s-76 183 -179 183c-104 0 -178 -82 -178 -183zM520 926l123 -174h-145l-70 82l-68 -82h-147
l123 174h184z" />
    <glyph glyph-name="Odieresis" unicode="&#xd6;" horiz-adv-x="855" 
d="M803 350c4 -194 -173 -364 -375 -360c-202 -4 -379 166 -375 360c-4 194 173 364 375 360c202 4 379 -166 375 -360zM250 350c0 -101 74 -183 178 -183c103 0 179 82 179 183s-76 183 -179 183c-104 0 -178 -82 -178 -183zM391 848c0 -43 -30 -74 -73 -74s-74 31 -74 74
s31 73 74 73c41 0 73 -30 73 -73zM612 848c0 -43 -31 -74 -74 -74s-73 31 -73 74s32 73 73 73c43 0 74 -32 74 -73z" />
    <glyph glyph-name="Ograve" unicode="&#xd2;" horiz-adv-x="855" 
d="M803 350c4 -194 -173 -364 -375 -360c-202 -4 -379 166 -375 360c-4 194 173 364 375 360c202 4 379 -166 375 -360zM250 350c0 -101 74 -183 178 -183c103 0 179 82 179 183s-76 183 -179 183c-104 0 -178 -82 -178 -183zM409 926l120 -174h-152l-151 174h183z" />
    <glyph glyph-name="Ohungarumlaut" unicode="&#x150;" horiz-adv-x="855" 
d="M803 350c4 -194 -173 -364 -375 -360c-202 -4 -379 166 -375 360c-4 194 173 364 375 360c202 4 379 -166 375 -360zM250 350c0 -101 74 -183 178 -183c103 0 179 82 179 183s-76 183 -179 183c-104 0 -178 -82 -178 -183zM548 926l-152 -174h-151l120 174h183zM796 926
l-151 -174h-151l121 174h181z" />
    <glyph glyph-name="Omacron" unicode="&#x14c;" horiz-adv-x="855" 
d="M803 350c4 -194 -173 -364 -375 -360c-202 -4 -379 166 -375 360c-4 194 173 364 375 360c202 4 379 -166 375 -360zM250 350c0 -101 74 -183 178 -183c103 0 179 82 179 183s-76 183 -179 183c-104 0 -178 -82 -178 -183zM601 902v-109h-346v109h346z" />
    <glyph glyph-name="Oslash" unicode="&#xd8;" horiz-adv-x="855" 
d="M803 350c4 -194 -173 -364 -375 -360c-33 0 -65 4 -95 12l-25 -52h-148l51 106c-97 67 -158 175 -158 294c-4 194 173 364 375 360c33 0 65 -4 95 -12l25 52h148l-51 -106c97 -67 158 -175 158 -294zM294 227l148 305c-3 1 -7 1 -14 1c-104 0 -178 -82 -178 -183
c0 -49 15 -90 44 -123zM607 350c0 47 -15 89 -45 124l-148 -306c3 -1 7 -1 14 -1c103 0 179 82 179 183z" />
    <glyph glyph-name="Otilde" unicode="&#xd5;" horiz-adv-x="855" 
d="M803 350c4 -194 -173 -364 -375 -360c-202 -4 -379 166 -375 360c-4 194 173 364 375 360c202 4 379 -166 375 -360zM250 350c0 -101 74 -183 178 -183c103 0 179 82 179 183s-76 183 -179 183c-104 0 -178 -82 -178 -183zM342 924c24 0 46 -6 83 -22
c38 -15 64 -23 78 -23c23 0 34 13 41 38l76 -9c-3 -84 -33 -147 -105 -147c-24 0 -42 6 -95 26c-32 13 -54 19 -66 19c-23 0 -34 -14 -41 -39l-76 10c3 83 33 147 105 147z" />
    <glyph glyph-name="OE" unicode="&#x152;" horiz-adv-x="1201" 
d="M797 168h369v-168h-557v40c-52 -33 -112 -50 -181 -50c-202 -4 -379 166 -375 360c-4 194 173 364 375 360c69 0 129 -17 181 -50v40h551v-167h-363v-100h336v-157h-336v-108zM607 350c0 101 -76 183 -179 183s-179 -82 -179 -183s76 -183 179 -183s179 82 179 183z" />
    <glyph glyph-name="P" unicode="P" horiz-adv-x="732" 
d="M71 700h307c211 0 308 -79 308 -250s-96 -252 -288 -252h-138v-198h-189v700zM376 537h-116v-177h117c83 0 120 28 120 88c0 61 -38 89 -121 89z" />
    <glyph glyph-name="Thorn" unicode="&#xde;" horiz-adv-x="732" 
d="M260 700v-83h118c211 0 308 -80 308 -251c0 -172 -97 -251 -306 -251h-120v-115h-189v700h189zM376 454h-116v-177h117c83 0 120 27 120 88s-38 89 -121 89z" />
    <glyph glyph-name="Q" unicode="Q" horiz-adv-x="855" 
d="M832 31l-105 -98l-107 108c-58 -34 -122 -51 -192 -51c-202 -4 -379 166 -375 360c-4 194 173 364 375 360c202 4 379 -166 375 -360c0 -80 -27 -155 -75 -216zM485 176l-81 81l105 96l82 -82c11 25 16 52 16 79c0 101 -76 183 -179 183c-104 0 -178 -82 -178 -183
s74 -183 178 -183c20 0 39 3 57 9z" />
    <glyph glyph-name="R" unicode="R" horiz-adv-x="748" 
d="M725 0h-218l-135 211h-112v-211h-189v700h315c225 0 319 -72 319 -239c0 -116 -44 -188 -136 -223zM260 538v-172h136c81 0 114 25 114 86s-33 86 -114 86h-136z" />
    <glyph glyph-name="Racute" unicode="&#x154;" horiz-adv-x="748" 
d="M725 0h-218l-135 211h-112v-211h-189v700h315c225 0 319 -72 319 -239c0 -116 -44 -188 -136 -223zM260 538v-172h136c81 0 114 25 114 86s-33 86 -114 86h-136zM583 926l-151 -174h-152l120 174h183z" />
    <glyph glyph-name="Rcaron" unicode="&#x158;" horiz-adv-x="748" 
d="M725 0h-218l-135 211h-112v-211h-189v700h315c225 0 319 -72 319 -239c0 -116 -44 -188 -136 -223zM260 538v-172h136c81 0 114 25 114 86s-33 86 -114 86h-136zM596 926l-123 -174h-184l-123 174h147l68 -82l70 82h145z" />
    <glyph glyph-name="uni0156" unicode="&#x156;" horiz-adv-x="748" 
d="M725 0h-218l-135 211h-112v-211h-189v700h315c225 0 319 -72 319 -239c0 -116 -44 -188 -136 -223zM260 538v-172h136c81 0 114 25 114 86s-33 86 -114 86h-136zM471 -112c0 -13 -4 -24 -11 -33l-102 -134l-44 19l39 88c-27 11 -45 35 -45 60c0 36 36 65 81 65
s82 -29 82 -65z" />
    <glyph glyph-name="S" unicode="S" horiz-adv-x="709" 
d="M658 632l-79 -146c-39 19 -81 35 -124 46c-43 12 -79 18 -110 18c-50 0 -75 -16 -75 -47c0 -19 10 -27 90 -49l64 -18c163 -46 244 -85 249 -219c0 -144 -112 -227 -303 -227c-121 0 -239 34 -334 98l84 140c87 -49 188 -76 267 -76c56 0 87 15 87 54c0 25 -14 34 -95 54
l-69 17c-160 40 -240 80 -244 211c0 73 27 128 81 165c55 38 126 57 214 57c107 0 214 -29 297 -78z" />
    <glyph glyph-name="Sacute" unicode="&#x15a;" horiz-adv-x="709" 
d="M658 632l-79 -146c-39 19 -81 35 -124 46c-43 12 -79 18 -110 18c-50 0 -75 -16 -75 -47c0 -19 10 -27 90 -49l64 -18c163 -46 244 -85 249 -219c0 -144 -112 -227 -303 -227c-121 0 -239 34 -334 98l84 140c87 -49 188 -76 267 -76c56 0 87 15 87 54c0 25 -14 34 -95 54
l-69 17c-160 40 -240 80 -244 211c0 73 27 128 81 165c55 38 126 57 214 57c107 0 214 -29 297 -78zM562 926l-151 -174h-152l120 174h183z" />
    <glyph glyph-name="Scaron" unicode="&#x160;" horiz-adv-x="709" 
d="M658 632l-79 -146c-39 19 -81 35 -124 46c-43 12 -79 18 -110 18c-50 0 -75 -16 -75 -47c0 -19 10 -27 90 -49l64 -18c163 -46 244 -85 249 -219c0 -144 -112 -227 -303 -227c-121 0 -239 34 -334 98l84 140c87 -49 188 -76 267 -76c56 0 87 15 87 54c0 25 -14 34 -95 54
l-69 17c-160 40 -240 80 -244 211c0 73 27 128 81 165c55 38 126 57 214 57c107 0 214 -29 297 -78zM575 926l-123 -174h-184l-123 174h147l68 -82l70 82h145z" />
    <glyph glyph-name="Scedilla" unicode="&#x15e;" horiz-adv-x="709" 
d="M406 -9l-15 -32h1c61 0 102 -37 102 -92c0 -64 -54 -99 -126 -99c-40 0 -77 9 -111 27l22 59c17 -9 39 -13 64 -13c32 0 50 17 50 40c0 20 -14 32 -34 32c-9 0 -18 -2 -27 -7l-27 30l27 55c-107 7 -211 40 -296 97l84 140c87 -49 188 -76 267 -76c56 0 87 15 87 54
c0 25 -14 34 -95 54l-69 17c-160 40 -240 80 -244 211c0 73 27 128 81 165c55 38 126 57 214 57c107 0 214 -29 297 -78l-79 -146c-39 19 -81 35 -124 46c-43 12 -79 18 -110 18c-50 0 -75 -16 -75 -47c0 -19 10 -27 90 -49l64 -18c163 -46 244 -85 249 -219
c0 -135 -98 -215 -267 -226z" />
    <glyph glyph-name="Scircumflex" unicode="&#x15c;" horiz-adv-x="709" 
d="M658 632l-79 -146c-39 19 -81 35 -124 46c-43 12 -79 18 -110 18c-50 0 -75 -16 -75 -47c0 -19 10 -27 90 -49l64 -18c163 -46 244 -85 249 -219c0 -144 -112 -227 -303 -227c-121 0 -239 34 -334 98l84 140c87 -49 188 -76 267 -76c56 0 87 15 87 54c0 25 -14 34 -95 54
l-69 17c-160 40 -240 80 -244 211c0 73 27 128 81 165c55 38 126 57 214 57c107 0 214 -29 297 -78zM452 926l123 -174h-145l-70 82l-68 -82h-147l123 174h184z" />
    <glyph glyph-name="uni0218" unicode="&#x218;" horiz-adv-x="709" 
d="M658 632l-79 -146c-39 19 -81 35 -124 46c-43 12 -79 18 -110 18c-50 0 -75 -16 -75 -47c0 -19 10 -27 90 -49l64 -18c163 -46 244 -85 249 -219c0 -144 -112 -227 -303 -227c-121 0 -239 34 -334 98l84 140c87 -49 188 -76 267 -76c56 0 87 15 87 54c0 25 -14 34 -95 54
l-69 17c-160 40 -240 80 -244 211c0 73 27 128 81 165c55 38 126 57 214 57c107 0 214 -29 297 -78zM462 -112c0 -13 -4 -24 -11 -33l-102 -134l-44 19l39 88c-27 11 -45 35 -45 60c0 36 36 65 81 65s82 -29 82 -65z" />
    <glyph glyph-name="uni1E9E" unicode="&#x1e9e;" horiz-adv-x="793" 
d="M757 211c0 -141 -92 -221 -253 -221c-56 0 -113 11 -170 33l64 144c29 -16 58 -24 87 -24c53 0 83 23 83 66c0 32 -20 48 -81 67l-47 15v97l64 126c-25 19 -64 31 -105 31c-83 0 -139 -48 -139 -117v-428h-189v436c0 173 123 274 336 274c136 0 239 -42 316 -127
l-102 -194c97 -35 136 -86 136 -178z" />
    <glyph glyph-name="T" unicode="T" horiz-adv-x="643" 
d="M620 700v-161h-204v-539h-188v539h-204v161h596z" />
    <glyph glyph-name="Tbar" unicode="&#x166;" horiz-adv-x="643" 
d="M620 539h-204v-156h98v-122h-98v-261h-188v261h-98v122h98v156h-204v161h596v-161z" />
    <glyph glyph-name="Tcaron" unicode="&#x164;" horiz-adv-x="643" 
d="M620 700v-161h-204v-539h-188v539h-204v161h596zM530 926l-123 -174h-184l-123 174h147l68 -82l70 82h145z" />
    <glyph glyph-name="uni021A" unicode="&#x21a;" horiz-adv-x="643" 
d="M620 700v-161h-204v-539h-188v539h-204v161h596zM402 -112c0 -13 -4 -24 -11 -33l-102 -134l-44 19l39 88c-27 11 -45 35 -45 60c0 36 36 65 81 65s82 -29 82 -65z" />
    <glyph glyph-name="U" unicode="U" horiz-adv-x="785" 
d="M714 700v-378c0 -217 -112 -332 -321 -332s-322 116 -322 332v378h189v-378c0 -105 46 -159 133 -159s133 54 133 159v378h188z" />
    <glyph glyph-name="Uacute" unicode="&#xda;" horiz-adv-x="785" 
d="M714 700v-378c0 -217 -112 -332 -321 -332s-322 116 -322 332v378h189v-378c0 -105 46 -159 133 -159s133 54 133 159v378h188zM594 926l-151 -174h-152l120 174h183z" />
    <glyph glyph-name="Ubreve" unicode="&#x16c;" horiz-adv-x="785" 
d="M714 700v-378c0 -217 -112 -332 -321 -332s-322 116 -322 332v378h189v-378c0 -105 46 -159 133 -159s133 54 133 159v378h188zM392 763c-106 0 -193 71 -193 167h116c1 -39 33 -61 77 -61c45 0 77 22 78 61h116c0 -96 -87 -167 -194 -167z" />
    <glyph glyph-name="Ucircumflex" unicode="&#xdb;" horiz-adv-x="785" 
d="M714 700v-378c0 -217 -112 -332 -321 -332s-322 116 -322 332v378h189v-378c0 -105 46 -159 133 -159s133 54 133 159v378h188zM484 926l123 -174h-145l-70 82l-68 -82h-147l123 174h184z" />
    <glyph glyph-name="Udieresis" unicode="&#xdc;" horiz-adv-x="785" 
d="M714 700v-378c0 -217 -112 -332 -321 -332s-322 116 -322 332v378h189v-378c0 -105 46 -159 133 -159s133 54 133 159v378h188zM355 848c0 -43 -30 -74 -73 -74s-74 31 -74 74s31 73 74 73c41 0 73 -30 73 -73zM576 848c0 -43 -31 -74 -74 -74s-73 31 -73 74s32 73 73 73
c43 0 74 -32 74 -73z" />
    <glyph glyph-name="Ugrave" unicode="&#xd9;" horiz-adv-x="785" 
d="M714 700v-378c0 -217 -112 -332 -321 -332s-322 116 -322 332v378h189v-378c0 -105 46 -159 133 -159s133 54 133 159v378h188zM373 926l120 -174h-152l-151 174h183z" />
    <glyph glyph-name="Uhungarumlaut" unicode="&#x170;" horiz-adv-x="785" 
d="M714 700v-378c0 -217 -112 -332 -321 -332s-322 116 -322 332v378h189v-378c0 -105 46 -159 133 -159s133 54 133 159v378h188zM512 926l-152 -174h-151l120 174h183zM760 926l-151 -174h-151l121 174h181z" />
    <glyph glyph-name="Umacron" unicode="&#x16a;" horiz-adv-x="785" 
d="M714 700v-378c0 -217 -112 -332 -321 -332s-322 116 -322 332v378h189v-378c0 -105 46 -159 133 -159s133 54 133 159v378h188zM565 902v-109h-346v109h346z" />
    <glyph glyph-name="Uogonek" unicode="&#x172;" horiz-adv-x="785" 
d="M526 700h188v-378c0 -203 -98 -316 -282 -331c-16 -28 -24 -44 -24 -59c0 -31 23 -46 54 -46c11 0 22 2 33 6l21 -79c-28 -12 -60 -18 -96 -18c-76 0 -121 32 -121 92c0 34 12 68 36 103l2 3c-173 19 -266 133 -266 329v378h189v-378c0 -105 46 -159 133 -159
s133 54 133 159v378z" />
    <glyph glyph-name="Uring" unicode="&#x16e;" horiz-adv-x="785" 
d="M714 700v-378c0 -217 -112 -332 -321 -332s-322 116 -322 332v378h189v-378c0 -105 46 -159 133 -159s133 54 133 159v378h188zM530 871c0 -72 -63 -135 -138 -135s-138 63 -138 135s63 135 138 135s138 -63 138 -135zM339 871c0 -29 24 -52 53 -52s53 23 53 52
s-24 52 -53 52s-53 -23 -53 -52z" />
    <glyph glyph-name="Utilde" unicode="&#x168;" horiz-adv-x="785" 
d="M714 700v-378c0 -217 -112 -332 -321 -332s-322 116 -322 332v378h189v-378c0 -105 46 -159 133 -159s133 54 133 159v378h188zM306 924c24 0 46 -6 83 -22c38 -15 64 -23 78 -23c23 0 34 13 41 38l76 -9c-3 -84 -33 -147 -105 -147c-24 0 -42 6 -95 26
c-32 13 -54 19 -66 19c-23 0 -34 -14 -41 -39l-76 10c3 83 33 147 105 147z" />
    <glyph glyph-name="V" unicode="V" horiz-adv-x="828" 
d="M581 700h222l-267 -700h-247l-265 700h223l166 -494z" />
    <glyph glyph-name="W" unicode="W" horiz-adv-x="1147" 
d="M913 700h210l-230 -700h-193l-126 409l-127 -409h-193l-230 700h210l126 -415l122 415h184l121 -415z" />
    <glyph glyph-name="Wacute" unicode="&#x1e82;" horiz-adv-x="1147" 
d="M913 700h210l-230 -700h-193l-126 409l-127 -409h-193l-230 700h210l126 -415l122 415h184l121 -415zM777 926l-151 -174h-152l120 174h183z" />
    <glyph glyph-name="Wcircumflex" unicode="&#x174;" horiz-adv-x="1147" 
d="M913 700h210l-230 -700h-193l-126 409l-127 -409h-193l-230 700h210l126 -415l122 415h184l121 -415zM667 926l123 -174h-145l-70 82l-68 -82h-147l123 174h184z" />
    <glyph glyph-name="Wdieresis" unicode="&#x1e84;" horiz-adv-x="1147" 
d="M913 700h210l-230 -700h-193l-126 409l-127 -409h-193l-230 700h210l126 -415l122 415h184l121 -415zM538 848c0 -43 -30 -74 -73 -74s-74 31 -74 74s31 73 74 73c41 0 73 -30 73 -73zM759 848c0 -43 -31 -74 -74 -74s-73 31 -73 74s32 73 73 73c43 0 74 -32 74 -73z" />
    <glyph glyph-name="Wgrave" unicode="&#x1e80;" horiz-adv-x="1147" 
d="M913 700h210l-230 -700h-193l-126 409l-127 -409h-193l-230 700h210l126 -415l122 415h184l121 -415zM556 926l120 -174h-152l-151 174h183z" />
    <glyph glyph-name="X" unicode="X" horiz-adv-x="781" 
d="M757 0h-231l-137 208l-138 -208h-227l246 356l-235 344h230l127 -193l128 193h226l-235 -342z" />
    <glyph glyph-name="Y" unicode="Y" horiz-adv-x="794" 
d="M547 700h222l-278 -459v-241h-189v238l-278 462h226l147 -263z" />
    <glyph glyph-name="Yacute" unicode="&#xdd;" horiz-adv-x="794" 
d="M547 700h222l-278 -459v-241h-189v238l-278 462h226l147 -263zM599 926l-151 -174h-152l120 174h183z" />
    <glyph glyph-name="Ycircumflex" unicode="&#x176;" horiz-adv-x="794" 
d="M547 700h222l-278 -459v-241h-189v238l-278 462h226l147 -263zM489 926l123 -174h-145l-70 82l-68 -82h-147l123 174h184z" />
    <glyph glyph-name="Ydieresis" unicode="&#x178;" horiz-adv-x="794" 
d="M547 700h222l-278 -459v-241h-189v238l-278 462h226l147 -263zM360 848c0 -43 -30 -74 -73 -74s-74 31 -74 74s31 73 74 73c41 0 73 -30 73 -73zM581 848c0 -43 -31 -74 -74 -74s-73 31 -73 74s32 73 73 73c43 0 74 -32 74 -73z" />
    <glyph glyph-name="Ygrave" unicode="&#x1ef2;" horiz-adv-x="794" 
d="M547 700h222l-278 -459v-241h-189v238l-278 462h226l147 -263zM378 926l120 -174h-152l-151 174h183z" />
    <glyph glyph-name="Z" unicode="Z" horiz-adv-x="689" 
d="M641 700v-132l-335 -401h347v-167h-617v135l324 399h-300v166h581z" />
    <glyph glyph-name="Zacute" unicode="&#x179;" horiz-adv-x="689" 
d="M641 700v-132l-335 -401h347v-167h-617v135l324 399h-300v166h581zM546 926l-151 -174h-152l120 174h183z" />
    <glyph glyph-name="Zcaron" unicode="&#x17d;" horiz-adv-x="689" 
d="M641 700v-132l-335 -401h347v-167h-617v135l324 399h-300v166h581zM559 926l-123 -174h-184l-123 174h147l68 -82l70 82h145z" />
    <glyph glyph-name="Zdotaccent" unicode="&#x17b;" horiz-adv-x="689" 
d="M641 700v-132l-335 -401h347v-167h-617v135l324 399h-300v166h581zM417 848c0 -43 -32 -74 -73 -74c-43 0 -74 33 -74 74s31 73 74 73s73 -30 73 -73z" />
    <glyph glyph-name="a" unicode="a" horiz-adv-x="590" 
d="M541 323v-323h-176v56c-51 -45 -100 -66 -159 -66c-103 0 -170 64 -170 156c0 93 70 150 183 150h146v10c0 44 -30 68 -86 68c-45 0 -99 -16 -146 -44l-51 114c76 43 164 66 245 66c136 0 214 -67 214 -187zM365 125v93h-82c-47 0 -73 -20 -73 -57s27 -61 72 -61
c30 0 58 8 83 25z" />
    <glyph glyph-name="a.ss01" horiz-adv-x="643" 
d="M413 500h176v-500h-176v55c-41 -43 -93 -65 -154 -65c-126 0 -222 108 -222 260c0 153 96 260 222 260c61 0 113 -22 154 -65v55zM413 192v116c-21 33 -58 53 -98 53c-60 0 -104 -48 -104 -111s44 -111 104 -111c40 0 77 20 98 53z" />
    <glyph glyph-name="aacute" unicode="&#xe1;" horiz-adv-x="590" 
d="M541 323v-323h-176v56c-51 -45 -100 -66 -159 -66c-103 0 -170 64 -170 156c0 93 70 150 183 150h146v10c0 44 -30 68 -86 68c-45 0 -99 -16 -146 -44l-51 114c76 43 164 66 245 66c136 0 214 -67 214 -187zM365 125v93h-82c-47 0 -73 -20 -73 -57s27 -61 72 -61
c30 0 58 8 83 25zM523 726l-151 -174h-152l120 174h183z" />
    <glyph glyph-name="aacute.ss01" horiz-adv-x="643" 
d="M413 500h176v-500h-176v55c-41 -43 -93 -65 -154 -65c-126 0 -222 108 -222 260c0 153 96 260 222 260c61 0 113 -22 154 -65v55zM413 192v116c-21 33 -58 53 -98 53c-60 0 -104 -48 -104 -111s44 -111 104 -111c40 0 77 20 98 53zM530 726l-151 -174h-152l120 174h183z
" />
    <glyph glyph-name="abreve" unicode="&#x103;" horiz-adv-x="590" 
d="M541 323v-323h-176v56c-51 -45 -100 -66 -159 -66c-103 0 -170 64 -170 156c0 93 70 150 183 150h146v10c0 44 -30 68 -86 68c-45 0 -99 -16 -146 -44l-51 114c76 43 164 66 245 66c136 0 214 -67 214 -187zM365 125v93h-82c-47 0 -73 -20 -73 -57s27 -61 72 -61
c30 0 58 8 83 25zM321 563c-106 0 -193 71 -193 167h116c1 -39 33 -61 77 -61c45 0 77 22 78 61h116c0 -96 -87 -167 -194 -167z" />
    <glyph glyph-name="abreve.ss01" horiz-adv-x="643" 
d="M413 500h176v-500h-176v55c-41 -43 -93 -65 -154 -65c-126 0 -222 108 -222 260c0 153 96 260 222 260c61 0 113 -22 154 -65v55zM413 192v116c-21 33 -58 53 -98 53c-60 0 -104 -48 -104 -111s44 -111 104 -111c40 0 77 20 98 53zM328 563c-106 0 -193 71 -193 167h116
c1 -39 33 -61 77 -61c45 0 77 22 78 61h116c0 -96 -87 -167 -194 -167z" />
    <glyph glyph-name="acircumflex" unicode="&#xe2;" horiz-adv-x="590" 
d="M541 323v-323h-176v56c-51 -45 -100 -66 -159 -66c-103 0 -170 64 -170 156c0 93 70 150 183 150h146v10c0 44 -30 68 -86 68c-45 0 -99 -16 -146 -44l-51 114c76 43 164 66 245 66c136 0 214 -67 214 -187zM365 125v93h-82c-47 0 -73 -20 -73 -57s27 -61 72 -61
c30 0 58 8 83 25zM413 726l123 -174h-145l-70 82l-68 -82h-147l123 174h184z" />
    <glyph glyph-name="acircumflex.ss01" horiz-adv-x="643" 
d="M413 500h176v-500h-176v55c-41 -43 -93 -65 -154 -65c-126 0 -222 108 -222 260c0 153 96 260 222 260c61 0 113 -22 154 -65v55zM413 192v116c-21 33 -58 53 -98 53c-60 0 -104 -48 -104 -111s44 -111 104 -111c40 0 77 20 98 53zM420 726l123 -174h-145l-70 82l-68 -82
h-147l123 174h184z" />
    <glyph glyph-name="adieresis" unicode="&#xe4;" horiz-adv-x="590" 
d="M541 323v-323h-176v56c-51 -45 -100 -66 -159 -66c-103 0 -170 64 -170 156c0 93 70 150 183 150h146v10c0 44 -30 68 -86 68c-45 0 -99 -16 -146 -44l-51 114c76 43 164 66 245 66c136 0 214 -67 214 -187zM365 125v93h-82c-47 0 -73 -20 -73 -57s27 -61 72 -61
c30 0 58 8 83 25zM284 648c0 -43 -30 -74 -73 -74s-74 31 -74 74s31 73 74 73c41 0 73 -30 73 -73zM505 648c0 -43 -31 -74 -74 -74s-73 31 -73 74s32 73 73 73c43 0 74 -32 74 -73z" />
    <glyph glyph-name="adieresis.ss01" horiz-adv-x="643" 
d="M413 500h176v-500h-176v55c-41 -43 -93 -65 -154 -65c-126 0 -222 108 -222 260c0 153 96 260 222 260c61 0 113 -22 154 -65v55zM413 192v116c-21 33 -58 53 -98 53c-60 0 -104 -48 -104 -111s44 -111 104 -111c40 0 77 20 98 53zM291 648c0 -43 -30 -74 -73 -74
s-74 31 -74 74s31 73 74 73c41 0 73 -30 73 -73zM512 648c0 -43 -31 -74 -74 -74s-73 31 -73 74s32 73 73 73c43 0 74 -32 74 -73z" />
    <glyph glyph-name="agrave" unicode="&#xe0;" horiz-adv-x="590" 
d="M541 323v-323h-176v56c-51 -45 -100 -66 -159 -66c-103 0 -170 64 -170 156c0 93 70 150 183 150h146v10c0 44 -30 68 -86 68c-45 0 -99 -16 -146 -44l-51 114c76 43 164 66 245 66c136 0 214 -67 214 -187zM365 125v93h-82c-47 0 -73 -20 -73 -57s27 -61 72 -61
c30 0 58 8 83 25zM302 726l120 -174h-152l-151 174h183z" />
    <glyph glyph-name="agrave.ss01" horiz-adv-x="643" 
d="M413 500h176v-500h-176v55c-41 -43 -93 -65 -154 -65c-126 0 -222 108 -222 260c0 153 96 260 222 260c61 0 113 -22 154 -65v55zM413 192v116c-21 33 -58 53 -98 53c-60 0 -104 -48 -104 -111s44 -111 104 -111c40 0 77 20 98 53zM309 726l120 -174h-152l-151 174h183z
" />
    <glyph glyph-name="amacron" unicode="&#x101;" horiz-adv-x="590" 
d="M541 323v-323h-176v56c-51 -45 -100 -66 -159 -66c-103 0 -170 64 -170 156c0 93 70 150 183 150h146v10c0 44 -30 68 -86 68c-45 0 -99 -16 -146 -44l-51 114c76 43 164 66 245 66c136 0 214 -67 214 -187zM365 125v93h-82c-47 0 -73 -20 -73 -57s27 -61 72 -61
c30 0 58 8 83 25zM494 702v-109h-346v109h346z" />
    <glyph glyph-name="amacron.ss01" horiz-adv-x="643" 
d="M413 500h176v-500h-176v55c-41 -43 -93 -65 -154 -65c-126 0 -222 108 -222 260c0 153 96 260 222 260c61 0 113 -22 154 -65v55zM413 192v116c-21 33 -58 53 -98 53c-60 0 -104 -48 -104 -111s44 -111 104 -111c40 0 77 20 98 53zM501 702v-109h-346v109h346z" />
    <glyph glyph-name="aogonek" unicode="&#x105;" horiz-adv-x="590" 
d="M561 -108l21 -79c-28 -12 -60 -18 -97 -18c-75 0 -121 32 -121 92c0 33 12 68 37 103l6 10h-42v56c-51 -45 -100 -66 -159 -66c-103 0 -170 64 -170 156c0 93 70 150 183 150h146v10c0 44 -30 68 -86 68c-45 0 -99 -16 -146 -44l-51 114c76 43 164 66 245 66
c136 0 214 -67 214 -187v-323h-37l-5 -7c-17 -29 -26 -46 -26 -61c0 -31 24 -46 55 -46c11 0 22 2 33 6zM365 125v93h-82c-47 0 -73 -20 -73 -57s27 -61 72 -61c30 0 58 8 83 25z" />
    <glyph glyph-name="aogonek.ss01" horiz-adv-x="643" 
d="M602 -108l21 -79c-28 -12 -60 -18 -97 -18c-75 0 -121 32 -121 92c0 33 12 67 36 103l7 10h-35v55c-41 -43 -93 -65 -154 -65c-126 0 -222 108 -222 260c0 153 96 260 222 260c61 0 113 -22 154 -65v55h176v-500h-44l-5 -7c-17 -27 -26 -47 -26 -61c0 -31 23 -46 55 -46
c10 0 21 2 33 6zM413 192v116c-21 33 -58 53 -98 53c-60 0 -104 -48 -104 -111s44 -111 104 -111c40 0 77 20 98 53z" />
    <glyph glyph-name="aring" unicode="&#xe5;" horiz-adv-x="590" 
d="M541 323v-323h-176v56c-51 -45 -100 -66 -159 -66c-103 0 -170 64 -170 156c0 93 70 150 183 150h146v10c0 44 -30 68 -86 68c-45 0 -99 -16 -146 -44l-51 114c76 43 164 66 245 66c136 0 214 -67 214 -187zM365 125v93h-82c-47 0 -73 -20 -73 -57s27 -61 72 -61
c30 0 58 8 83 25zM459 671c0 -72 -63 -135 -138 -135s-138 63 -138 135s63 135 138 135s138 -63 138 -135zM268 671c0 -29 24 -52 53 -52s53 23 53 52s-24 52 -53 52s-53 -23 -53 -52z" />
    <glyph glyph-name="aring.ss01" horiz-adv-x="643" 
d="M413 500h176v-500h-176v55c-41 -43 -93 -65 -154 -65c-126 0 -222 108 -222 260c0 153 96 260 222 260c61 0 113 -22 154 -65v55zM413 192v116c-21 33 -58 53 -98 53c-60 0 -104 -48 -104 -111s44 -111 104 -111c40 0 77 20 98 53zM466 671c0 -72 -63 -135 -138 -135
s-138 63 -138 135s63 135 138 135s138 -63 138 -135zM275 671c0 -29 24 -52 53 -52s53 23 53 52s-24 52 -53 52s-53 -23 -53 -52z" />
    <glyph glyph-name="atilde" unicode="&#xe3;" horiz-adv-x="590" 
d="M541 323v-323h-176v56c-51 -45 -100 -66 -159 -66c-103 0 -170 64 -170 156c0 93 70 150 183 150h146v10c0 44 -30 68 -86 68c-45 0 -99 -16 -146 -44l-51 114c76 43 164 66 245 66c136 0 214 -67 214 -187zM365 125v93h-82c-47 0 -73 -20 -73 -57s27 -61 72 -61
c30 0 58 8 83 25zM235 724c24 0 46 -6 83 -22c38 -15 64 -23 78 -23c23 0 34 13 41 38l76 -9c-3 -84 -33 -147 -105 -147c-24 0 -42 6 -95 26c-32 13 -54 19 -66 19c-23 0 -34 -14 -41 -39l-76 10c3 83 33 147 105 147z" />
    <glyph glyph-name="atilde.ss01" horiz-adv-x="643" 
d="M413 500h176v-500h-176v55c-41 -43 -93 -65 -154 -65c-126 0 -222 108 -222 260c0 153 96 260 222 260c61 0 113 -22 154 -65v55zM413 192v116c-21 33 -58 53 -98 53c-60 0 -104 -48 -104 -111s44 -111 104 -111c40 0 77 20 98 53zM242 724c24 0 46 -6 83 -22
c38 -15 64 -23 78 -23c23 0 34 13 41 38l76 -9c-3 -84 -33 -147 -105 -147c-24 0 -42 6 -95 26c-32 13 -54 19 -66 19c-23 0 -34 -14 -41 -39l-76 10c3 83 33 147 105 147z" />
    <glyph glyph-name="ae" unicode="&#xe6;" horiz-adv-x="938" 
d="M905 250v-45h-363c12 -57 49 -86 112 -86c44 0 87 14 115 41l95 -84c-59 -53 -139 -86 -224 -86c-83 0 -155 32 -206 85c-61 -57 -130 -85 -209 -85c-120 0 -189 61 -189 156c0 93 70 150 183 150h146v10c0 44 -30 68 -86 68c-45 0 -99 -16 -146 -44l-51 114
c76 43 164 66 245 66c67 0 117 -15 152 -45c46 30 98 45 157 45c163 0 269 -113 269 -260zM541 293h193c0 52 -39 90 -95 90c-53 0 -87 -31 -98 -90zM392 136c-13 27 -21 55 -24 82h-85c-47 0 -73 -20 -73 -57c0 -39 26 -61 79 -61c29 0 71 13 103 36z" />
    <glyph glyph-name="ae.ss01" horiz-adv-x="987" 
d="M954 250v-45h-362c12 -57 49 -86 111 -86c44 0 88 14 116 41l100 -84c-51 -53 -121 -86 -196 -86c-49 0 -94 15 -134 44v-34h-176v58c-41 -43 -98 -68 -158 -68c-126 0 -218 108 -218 260c0 153 92 260 218 260c60 0 117 -24 158 -67v57h176v-33c41 29 85 43 134 43
c138 0 231 -113 231 -260zM591 293h192c0 52 -39 90 -95 90c-53 0 -86 -31 -97 -90zM413 194v112c-20 35 -54 55 -94 55c-61 0 -108 -48 -108 -111s47 -111 108 -111c40 0 74 20 94 55z" />
    <glyph glyph-name="ae.ss02" horiz-adv-x="937" 
d="M769 160l95 -84c-59 -55 -140 -86 -225 -86c-83 0 -154 31 -205 84c-61 -56 -130 -84 -209 -84c-120 0 -189 61 -189 156c0 93 70 150 183 150h146v10c0 44 -30 68 -86 68c-45 0 -99 -16 -146 -44l-51 114c76 43 164 66 245 66c65 0 116 -15 152 -45c45 30 97 45 156 45
c162 0 265 -110 269 -254l-342 -98c19 -26 50 -39 91 -39c45 0 88 14 116 41zM538 256l193 55c-8 43 -44 72 -93 72c-66 0 -99 -42 -100 -127zM391 135c-13 29 -21 56 -24 83h-84c-47 0 -73 -20 -73 -57c0 -39 26 -61 79 -61c29 0 69 12 102 35z" />
    <glyph glyph-name="ae.ss03" horiz-adv-x="987" 
d="M819 160l100 -84c-51 -53 -121 -86 -196 -86c-49 0 -94 15 -134 44v-34h-176v58c-41 -43 -98 -68 -158 -68c-126 0 -218 108 -218 260c0 153 92 260 218 260c60 0 117 -24 158 -67v57h176v-33c41 29 85 43 134 43c136 0 227 -110 231 -254l-341 -98c18 -26 48 -39 90 -39
c45 0 88 14 116 41zM589 256l192 55c-8 43 -44 72 -93 72c-64 0 -98 -44 -99 -127zM413 194v112c-20 35 -54 55 -94 55c-61 0 -108 -48 -108 -111s47 -111 108 -111c40 0 74 20 94 55z" />
    <glyph glyph-name="b" unicode="b" horiz-adv-x="647" 
d="M610 250c0 -152 -94 -260 -221 -260c-61 0 -113 22 -155 66v-56h-176v700h176v-256c41 44 92 66 155 66c127 0 221 -108 221 -260zM437 250c0 63 -44 111 -104 111c-41 0 -79 -21 -99 -54v-114c20 -33 58 -54 99 -54c60 0 104 48 104 111z" />
    <glyph glyph-name="c" unicode="c" horiz-adv-x="568" 
d="M535 397l-134 -74c-22 25 -51 38 -87 38c-59 0 -104 -46 -104 -111c0 -64 47 -111 104 -111c36 0 65 13 88 40l134 -74c-49 -71 -134 -115 -226 -115c-147 -3 -276 119 -273 260c-3 141 126 263 273 260c91 0 176 -44 225 -113z" />
    <glyph glyph-name="cacute" unicode="&#x107;" horiz-adv-x="568" 
d="M535 397l-134 -74c-22 25 -51 38 -87 38c-59 0 -104 -46 -104 -111c0 -64 47 -111 104 -111c36 0 65 13 88 40l134 -74c-49 -71 -134 -115 -226 -115c-147 -3 -276 119 -273 260c-3 141 126 263 273 260c91 0 176 -44 225 -113zM501 726l-151 -174h-152l120 174h183z" />
    <glyph glyph-name="ccaron" unicode="&#x10d;" horiz-adv-x="568" 
d="M535 397l-134 -74c-22 25 -51 38 -87 38c-59 0 -104 -46 -104 -111c0 -64 47 -111 104 -111c36 0 65 13 88 40l134 -74c-49 -71 -134 -115 -226 -115c-147 -3 -276 119 -273 260c-3 141 126 263 273 260c91 0 176 -44 225 -113zM514 726l-123 -174h-184l-123 174h147
l68 -82l70 82h145z" />
    <glyph glyph-name="ccedilla" unicode="&#xe7;" horiz-adv-x="568" 
d="M327 -9l-15 -32h1c61 0 102 -37 102 -92c0 -64 -54 -99 -126 -99c-40 0 -77 9 -111 27l22 59c17 -9 39 -13 64 -13c32 0 50 17 50 40c0 20 -14 32 -34 32c-9 0 -18 -2 -27 -7l-27 30l29 59c-124 24 -218 130 -218 255c-3 141 126 263 273 260c91 0 176 -44 225 -113
l-134 -74c-22 25 -51 38 -87 38c-59 0 -104 -46 -104 -111c0 -64 47 -111 104 -111c36 0 65 13 88 40l134 -74c-47 -67 -124 -109 -209 -114z" />
    <glyph glyph-name="ccircumflex" unicode="&#x109;" horiz-adv-x="568" 
d="M535 397l-134 -74c-22 25 -51 38 -87 38c-59 0 -104 -46 -104 -111c0 -64 47 -111 104 -111c36 0 65 13 88 40l134 -74c-49 -71 -134 -115 -226 -115c-147 -3 -276 119 -273 260c-3 141 126 263 273 260c91 0 176 -44 225 -113zM391 726l123 -174h-145l-70 82l-68 -82
h-147l123 174h184z" />
    <glyph glyph-name="cdotaccent" unicode="&#x10b;" horiz-adv-x="568" 
d="M535 397l-134 -74c-22 25 -51 38 -87 38c-59 0 -104 -46 -104 -111c0 -64 47 -111 104 -111c36 0 65 13 88 40l134 -74c-49 -71 -134 -115 -226 -115c-147 -3 -276 119 -273 260c-3 141 126 263 273 260c91 0 176 -44 225 -113zM372 648c0 -43 -32 -74 -73 -74
c-43 0 -74 33 -74 74s31 73 74 73s73 -30 73 -73z" />
    <glyph glyph-name="d" unicode="d" horiz-adv-x="643" 
d="M413 700h176v-700h-176v56c-42 -44 -94 -66 -155 -66c-127 0 -221 108 -221 260s94 260 221 260c62 0 114 -22 155 -65v255zM413 192v116c-21 33 -58 53 -99 53c-59 0 -103 -48 -103 -111s43 -111 103 -111c41 0 78 20 99 53z" />
    <glyph glyph-name="eth" unicode="&#xf0;" horiz-adv-x="651" 
d="M604 294c2 -167 -116 -307 -288 -304c-175 0 -279 92 -279 228c0 132 100 223 248 223c47 0 89 -8 126 -25c-11 30 -26 56 -47 79l-40 -38l-63 51l38 37c-29 15 -65 28 -107 37l30 128c72 -10 134 -30 187 -60l62 59l63 -53l-57 -54c83 -73 127 -180 127 -308zM431 277
c-31 30 -70 45 -117 45c-64 0 -103 -37 -103 -100s40 -99 115 -99c65 0 104 65 105 154z" />
    <glyph glyph-name="dcaron" unicode="&#x10f;" horiz-adv-x="835" 
d="M413 700h176v-700h-176v56c-42 -44 -94 -66 -155 -66c-127 0 -221 108 -221 260s94 260 221 260c62 0 114 -22 155 -65v255zM413 192v116c-21 33 -58 53 -99 53c-59 0 -103 -48 -103 -111s43 -111 103 -111c41 0 78 20 99 53zM834 639c0 -14 -4 -28 -13 -41l-126 -191
l-50 23l54 136c-32 13 -52 41 -52 73c0 45 42 82 93 82c52 0 94 -37 94 -82z" />
    <glyph glyph-name="dslash" unicode="&#x111;" horiz-adv-x="643" 
d="M656 651v-111h-67v-540h-176v56c-42 -44 -94 -66 -155 -66c-127 0 -221 108 -221 260s94 260 221 260c62 0 114 -22 155 -65v95h-102v111h102v49h176v-49h67zM413 192v116c-21 33 -58 53 -99 53c-59 0 -103 -48 -103 -111s43 -111 103 -111c41 0 78 20 99 53z" />
    <glyph glyph-name="e" unicode="e" horiz-adv-x="609" 
d="M576 250v-45h-362c12 -57 49 -86 111 -86c44 0 88 14 116 41l95 -84c-59 -55 -140 -86 -225 -86c-157 0 -274 115 -274 260c-3 143 116 263 270 260c163 0 269 -113 269 -260zM213 293h192c0 52 -39 90 -95 90c-53 0 -86 -31 -97 -90z" />
    <glyph glyph-name="e.ss01" horiz-adv-x="609" 
d="M441 160l95 -84c-59 -55 -140 -86 -225 -86c-157 0 -274 115 -274 260c-3 143 116 263 270 260c162 0 265 -110 269 -254l-342 -98c19 -26 50 -39 91 -39c45 0 88 14 116 41zM210 256l193 55c-8 43 -44 72 -93 72c-66 0 -99 -42 -100 -127z" />
    <glyph glyph-name="eacute" unicode="&#xe9;" horiz-adv-x="609" 
d="M576 250v-45h-362c12 -57 49 -86 111 -86c44 0 88 14 116 41l95 -84c-59 -55 -140 -86 -225 -86c-157 0 -274 115 -274 260c-3 143 116 263 270 260c163 0 269 -113 269 -260zM213 293h192c0 52 -39 90 -95 90c-53 0 -86 -31 -97 -90zM512 726l-151 -174h-152l120 174
h183z" />
    <glyph glyph-name="eacute.ss01" horiz-adv-x="609" 
d="M441 160l95 -84c-59 -55 -140 -86 -225 -86c-157 0 -274 115 -274 260c-3 143 116 263 270 260c162 0 265 -110 269 -254l-342 -98c19 -26 50 -39 91 -39c45 0 88 14 116 41zM210 256l193 55c-8 43 -44 72 -93 72c-66 0 -99 -42 -100 -127zM512 726l-151 -174h-152
l120 174h183z" />
    <glyph glyph-name="ebreve" unicode="&#x115;" horiz-adv-x="609" 
d="M576 250v-45h-362c12 -57 49 -86 111 -86c44 0 88 14 116 41l95 -84c-59 -55 -140 -86 -225 -86c-157 0 -274 115 -274 260c-3 143 116 263 270 260c163 0 269 -113 269 -260zM213 293h192c0 52 -39 90 -95 90c-53 0 -86 -31 -97 -90zM310 563c-106 0 -193 71 -193 167
h116c1 -39 33 -61 77 -61c45 0 77 22 78 61h116c0 -96 -87 -167 -194 -167z" />
    <glyph glyph-name="ebreve.ss01" horiz-adv-x="609" 
d="M441 160l95 -84c-59 -55 -140 -86 -225 -86c-157 0 -274 115 -274 260c-3 143 116 263 270 260c162 0 265 -110 269 -254l-342 -98c19 -26 50 -39 91 -39c45 0 88 14 116 41zM210 256l193 55c-8 43 -44 72 -93 72c-66 0 -99 -42 -100 -127zM310 563
c-106 0 -193 71 -193 167h116c1 -39 33 -61 77 -61c45 0 77 22 78 61h116c0 -96 -87 -167 -194 -167z" />
    <glyph glyph-name="ecaron" unicode="&#x11b;" horiz-adv-x="609" 
d="M576 250v-45h-362c12 -57 49 -86 111 -86c44 0 88 14 116 41l95 -84c-59 -55 -140 -86 -225 -86c-157 0 -274 115 -274 260c-3 143 116 263 270 260c163 0 269 -113 269 -260zM213 293h192c0 52 -39 90 -95 90c-53 0 -86 -31 -97 -90zM525 726l-123 -174h-184l-123 174
h147l68 -82l70 82h145z" />
    <glyph glyph-name="ecaron.ss01" horiz-adv-x="609" 
d="M441 160l95 -84c-59 -55 -140 -86 -225 -86c-157 0 -274 115 -274 260c-3 143 116 263 270 260c162 0 265 -110 269 -254l-342 -98c19 -26 50 -39 91 -39c45 0 88 14 116 41zM210 256l193 55c-8 43 -44 72 -93 72c-66 0 -99 -42 -100 -127zM525 726l-123 -174h-184
l-123 174h147l68 -82l70 82h145z" />
    <glyph glyph-name="ecircumflex" unicode="&#xea;" horiz-adv-x="609" 
d="M576 250v-45h-362c12 -57 49 -86 111 -86c44 0 88 14 116 41l95 -84c-59 -55 -140 -86 -225 -86c-157 0 -274 115 -274 260c-3 143 116 263 270 260c163 0 269 -113 269 -260zM213 293h192c0 52 -39 90 -95 90c-53 0 -86 -31 -97 -90zM402 726l123 -174h-145l-70 82
l-68 -82h-147l123 174h184z" />
    <glyph glyph-name="ecircumflex.ss01" horiz-adv-x="609" 
d="M441 160l95 -84c-59 -55 -140 -86 -225 -86c-157 0 -274 115 -274 260c-3 143 116 263 270 260c162 0 265 -110 269 -254l-342 -98c19 -26 50 -39 91 -39c45 0 88 14 116 41zM210 256l193 55c-8 43 -44 72 -93 72c-66 0 -99 -42 -100 -127zM402 726l123 -174h-145l-70 82
l-68 -82h-147l123 174h184z" />
    <glyph glyph-name="edieresis" unicode="&#xeb;" horiz-adv-x="609" 
d="M576 250v-45h-362c12 -57 49 -86 111 -86c44 0 88 14 116 41l95 -84c-59 -55 -140 -86 -225 -86c-157 0 -274 115 -274 260c-3 143 116 263 270 260c163 0 269 -113 269 -260zM213 293h192c0 52 -39 90 -95 90c-53 0 -86 -31 -97 -90zM273 648c0 -43 -30 -74 -73 -74
s-74 31 -74 74s31 73 74 73c41 0 73 -30 73 -73zM494 648c0 -43 -31 -74 -74 -74s-73 31 -73 74s32 73 73 73c43 0 74 -32 74 -73z" />
    <glyph glyph-name="edieresis.ss01" horiz-adv-x="609" 
d="M441 160l95 -84c-59 -55 -140 -86 -225 -86c-157 0 -274 115 -274 260c-3 143 116 263 270 260c162 0 265 -110 269 -254l-342 -98c19 -26 50 -39 91 -39c45 0 88 14 116 41zM210 256l193 55c-8 43 -44 72 -93 72c-66 0 -99 -42 -100 -127zM273 648
c0 -43 -30 -74 -73 -74s-74 31 -74 74s31 73 74 73c41 0 73 -30 73 -73zM494 648c0 -43 -31 -74 -74 -74s-73 31 -73 74s32 73 73 73c43 0 74 -32 74 -73z" />
    <glyph glyph-name="egrave" unicode="&#xe8;" horiz-adv-x="609" 
d="M576 250v-45h-362c12 -57 49 -86 111 -86c44 0 88 14 116 41l95 -84c-59 -55 -140 -86 -225 -86c-157 0 -274 115 -274 260c-3 143 116 263 270 260c163 0 269 -113 269 -260zM213 293h192c0 52 -39 90 -95 90c-53 0 -86 -31 -97 -90zM291 726l120 -174h-152l-151 174
h183z" />
    <glyph glyph-name="egrave.ss01" horiz-adv-x="609" 
d="M441 160l95 -84c-59 -55 -140 -86 -225 -86c-157 0 -274 115 -274 260c-3 143 116 263 270 260c162 0 265 -110 269 -254l-342 -98c19 -26 50 -39 91 -39c45 0 88 14 116 41zM210 256l193 55c-8 43 -44 72 -93 72c-66 0 -99 -42 -100 -127zM291 726l120 -174h-152
l-151 174h183z" />
    <glyph glyph-name="eogonek" unicode="&#x119;" horiz-adv-x="609" 
d="M576 250v-45h-362c12 -57 49 -86 111 -86c44 0 88 14 116 41l95 -84c-19 -17 -40 -32 -63 -45l-6 -9c-26 -39 -39 -69 -39 -90c0 -31 23 -46 54 -46c11 0 22 2 33 6l21 -79c-28 -12 -60 -18 -96 -18c-76 0 -121 32 -121 92c0 30 12 64 36 103l2 3c-15 -2 -30 -3 -46 -3
c-157 0 -274 115 -274 260c-3 143 116 263 270 260c163 0 269 -113 269 -260zM213 293h192c0 52 -39 90 -95 90c-53 0 -86 -31 -97 -90z" />
    <glyph glyph-name="eogonek.ss01" horiz-adv-x="609" 
d="M473 31l-6 -9c-26 -39 -39 -69 -39 -90c0 -31 23 -46 54 -46c11 0 22 2 33 6l21 -79c-28 -12 -60 -18 -96 -18c-76 0 -121 32 -121 92c0 30 12 64 36 103l2 3c-15 -2 -30 -3 -46 -3c-157 0 -274 115 -274 260c-3 143 116 263 270 260c162 0 265 -110 269 -254l-342 -98
c19 -26 50 -39 91 -39c45 0 88 14 116 41l95 -84c-19 -17 -40 -32 -63 -45zM210 256l193 55c-8 43 -44 72 -93 72c-66 0 -99 -42 -100 -127z" />
    <glyph glyph-name="f" unicode="f" horiz-adv-x="406" 
d="M262 532v-32h124v-135h-124v-365h-177v365h-63v135h63v37c0 121 76 173 185 173c44 0 90 -7 139 -22l-23 -111c-21 8 -43 12 -66 12c-35 0 -58 -17 -58 -57z" />
    <glyph glyph-name="g" unicode="g" horiz-adv-x="643" 
d="M413 500h176v-474c0 -80 -24 -139 -73 -177s-112 -57 -191 -57c-99 0 -199 21 -279 65l51 115c59 -31 123 -46 194 -46c75 0 122 32 122 100v35c-41 -43 -93 -65 -155 -65c-127 0 -221 108 -221 257c0 151 94 257 221 257c62 0 114 -22 155 -65v55zM413 196v114
c-21 33 -58 53 -99 53c-60 0 -103 -49 -103 -110s43 -110 103 -110c41 0 78 20 99 53z" />
    <glyph glyph-name="g.ss01" horiz-adv-x="654" 
d="M634 -84c0 -100 -118 -164 -304 -164c-187 0 -305 64 -305 164c0 52 31 94 87 123c-29 17 -45 38 -45 61c0 27 19 53 54 76c-49 36 -78 84 -78 140c0 114 114 194 272 194c35 0 65 -3 92 -10h211v-96l-54 -7c15 -25 22 -52 22 -81c0 -113 -113 -193 -271 -193
c-27 0 -55 3 -83 8c-10 -9 -15 -17 -15 -26c0 -12 9 -22 24 -29c31 3 61 5 89 5c186 0 304 -64 304 -165zM220 316c0 -43 38 -70 95 -70s94 27 94 70s-38 71 -94 71c-57 0 -95 -28 -95 -71zM457 -84c0 32 -47 51 -127 51s-128 -19 -128 -51s48 -51 128 -51s127 19 127 51z
" />
    <glyph glyph-name="gbreve" unicode="&#x11f;" horiz-adv-x="643" 
d="M413 500h176v-474c0 -80 -24 -139 -73 -177s-112 -57 -191 -57c-99 0 -199 21 -279 65l51 115c59 -31 123 -46 194 -46c75 0 122 32 122 100v35c-41 -43 -93 -65 -155 -65c-127 0 -221 108 -221 257c0 151 94 257 221 257c62 0 114 -22 155 -65v55zM413 196v114
c-21 33 -58 53 -99 53c-60 0 -103 -49 -103 -110s43 -110 103 -110c41 0 78 20 99 53zM342 563c-106 0 -193 71 -193 167h116c1 -39 33 -61 77 -61c45 0 77 22 78 61h116c0 -96 -87 -167 -194 -167z" />
    <glyph glyph-name="gbreve.ss01" horiz-adv-x="654" 
d="M634 -84c0 -100 -118 -164 -304 -164c-187 0 -305 64 -305 164c0 52 31 94 87 123c-29 17 -45 38 -45 61c0 27 19 53 54 76c-49 36 -78 84 -78 140c0 114 114 194 272 194c35 0 65 -3 92 -10h211v-96l-54 -7c15 -25 22 -52 22 -81c0 -113 -113 -193 -271 -193
c-27 0 -55 3 -83 8c-10 -9 -15 -17 -15 -26c0 -12 9 -22 24 -29c31 3 61 5 89 5c186 0 304 -64 304 -165zM220 316c0 -43 38 -70 95 -70s94 27 94 70s-38 71 -94 71c-57 0 -95 -28 -95 -71zM457 -84c0 32 -47 51 -127 51s-128 -19 -128 -51s48 -51 128 -51s127 19 127 51z
M322 563c-106 0 -193 71 -193 167h116c1 -39 33 -61 77 -61c45 0 77 22 78 61h116c0 -96 -87 -167 -194 -167z" />
    <glyph glyph-name="gcircumflex" unicode="&#x11d;" horiz-adv-x="643" 
d="M413 500h176v-474c0 -80 -24 -139 -73 -177s-112 -57 -191 -57c-99 0 -199 21 -279 65l51 115c59 -31 123 -46 194 -46c75 0 122 32 122 100v35c-41 -43 -93 -65 -155 -65c-127 0 -221 108 -221 257c0 151 94 257 221 257c62 0 114 -22 155 -65v55zM413 196v114
c-21 33 -58 53 -99 53c-60 0 -103 -49 -103 -110s43 -110 103 -110c41 0 78 20 99 53zM434 726l123 -174h-145l-70 82l-68 -82h-147l123 174h184z" />
    <glyph glyph-name="gcircumflex.ss01" horiz-adv-x="654" 
d="M634 -84c0 -100 -118 -164 -304 -164c-187 0 -305 64 -305 164c0 52 31 94 87 123c-29 17 -45 38 -45 61c0 27 19 53 54 76c-49 36 -78 84 -78 140c0 114 114 194 272 194c35 0 65 -3 92 -10h211v-96l-54 -7c15 -25 22 -52 22 -81c0 -113 -113 -193 -271 -193
c-27 0 -55 3 -83 8c-10 -9 -15 -17 -15 -26c0 -12 9 -22 24 -29c31 3 61 5 89 5c186 0 304 -64 304 -165zM220 316c0 -43 38 -70 95 -70s94 27 94 70s-38 71 -94 71c-57 0 -95 -28 -95 -71zM457 -84c0 32 -47 51 -127 51s-128 -19 -128 -51s48 -51 128 -51s127 19 127 51z
M414 726l123 -174h-145l-70 82l-68 -82h-147l123 174h184z" />
    <glyph glyph-name="uni0123" unicode="&#x123;" horiz-adv-x="643" 
d="M413 500h176v-474c0 -80 -24 -139 -73 -177s-112 -57 -191 -57c-99 0 -199 21 -279 65l51 115c59 -31 123 -46 194 -46c75 0 122 32 122 100v35c-41 -43 -93 -65 -155 -65c-127 0 -221 108 -221 257c0 151 94 257 221 257c62 0 114 -22 155 -65v55zM413 196v114
c-21 33 -58 53 -99 53c-60 0 -103 -49 -103 -110s43 -110 103 -110c41 0 78 20 99 53zM264 617c0 13 4 24 11 33l102 134l44 -19l-39 -89c27 -11 45 -34 45 -59c0 -37 -36 -65 -81 -65s-82 28 -82 65z" />
    <glyph glyph-name="uni0123.ss01" horiz-adv-x="654" 
d="M634 -84c0 -100 -118 -164 -304 -164c-187 0 -305 64 -305 164c0 52 31 94 87 123c-29 17 -45 38 -45 61c0 27 19 53 54 76c-49 36 -78 84 -78 140c0 114 114 194 272 194c35 0 65 -3 92 -10h211v-96l-54 -7c15 -25 22 -52 22 -81c0 -113 -113 -193 -271 -193
c-27 0 -55 3 -83 8c-10 -9 -15 -17 -15 -26c0 -12 9 -22 24 -29c31 3 61 5 89 5c186 0 304 -64 304 -165zM220 316c0 -43 38 -70 95 -70s94 27 94 70s-38 71 -94 71c-57 0 -95 -28 -95 -71zM457 -84c0 32 -47 51 -127 51s-128 -19 -128 -51s48 -51 128 -51s127 19 127 51z
M244 617c0 13 4 24 11 33l102 134l44 -19l-39 -89c27 -11 45 -34 45 -59c0 -37 -36 -65 -81 -65s-82 28 -82 65z" />
    <glyph glyph-name="gdotaccent" unicode="&#x121;" horiz-adv-x="643" 
d="M413 500h176v-474c0 -80 -24 -139 -73 -177s-112 -57 -191 -57c-99 0 -199 21 -279 65l51 115c59 -31 123 -46 194 -46c75 0 122 32 122 100v35c-41 -43 -93 -65 -155 -65c-127 0 -221 108 -221 257c0 151 94 257 221 257c62 0 114 -22 155 -65v55zM413 196v114
c-21 33 -58 53 -99 53c-60 0 -103 -49 -103 -110s43 -110 103 -110c41 0 78 20 99 53zM415 648c0 -43 -32 -74 -73 -74c-43 0 -74 33 -74 74s31 73 74 73s73 -30 73 -73z" />
    <glyph glyph-name="gdotaccent.ss01" horiz-adv-x="654" 
d="M634 -84c0 -100 -118 -164 -304 -164c-187 0 -305 64 -305 164c0 52 31 94 87 123c-29 17 -45 38 -45 61c0 27 19 53 54 76c-49 36 -78 84 -78 140c0 114 114 194 272 194c35 0 65 -3 92 -10h211v-96l-54 -7c15 -25 22 -52 22 -81c0 -113 -113 -193 -271 -193
c-27 0 -55 3 -83 8c-10 -9 -15 -17 -15 -26c0 -12 9 -22 24 -29c31 3 61 5 89 5c186 0 304 -64 304 -165zM220 316c0 -43 38 -70 95 -70s94 27 94 70s-38 71 -94 71c-57 0 -95 -28 -95 -71zM457 -84c0 32 -47 51 -127 51s-128 -19 -128 -51s48 -51 128 -51s127 19 127 51z
M395 648c0 -43 -32 -74 -73 -74c-43 0 -74 33 -74 74s31 73 74 73s73 -30 73 -73z" />
    <glyph glyph-name="h" unicode="h" horiz-adv-x="641" 
d="M592 345v-345h-176v292c0 48 -27 76 -76 76c-35 0 -74 -15 -106 -40v-328h-176v700h176v-254c55 41 121 64 186 64c105 0 172 -62 172 -165z" />
    <glyph glyph-name="hbar" unicode="&#x127;" horiz-adv-x="641" 
d="M592 345v-345h-176v292c0 48 -27 76 -76 76c-35 0 -74 -15 -106 -40v-328h-176v540h-62v111h62v49h176v-49h130v-111h-130v-94c55 41 121 64 186 64c105 0 172 -62 172 -165z" />
    <glyph glyph-name="hcircumflex" unicode="&#x125;" horiz-adv-x="641" 
d="M592 345v-345h-176v292c0 48 -27 76 -76 76c-35 0 -74 -15 -106 -40v-328h-176v700h176v-254c55 41 121 64 186 64c105 0 172 -62 172 -165zM247 926l123 -174h-145l-70 82l-68 -82h-147l123 174h184z" />
    <glyph glyph-name="i" unicode="i" horiz-adv-x="302" 
d="M244 623c0 -44 -42 -79 -93 -79s-92 35 -92 79s41 80 92 80s93 -36 93 -80zM239 500v-500h-175v500h175z" />
    <glyph glyph-name="dotlessi" unicode="&#x131;" horiz-adv-x="302" 
d="M239 500v-500h-175v500h175z" />
    <glyph glyph-name="iacute" unicode="&#xed;" horiz-adv-x="302" 
d="M239 500v-500h-175v500h175zM355 726l-151 -174h-152l120 174h183z" />
    <glyph glyph-name="icircumflex" unicode="&#xee;" horiz-adv-x="302" 
d="M239 500v-500h-175v500h175zM245 726l123 -174h-145l-70 82l-68 -82h-147l123 174h184z" />
    <glyph glyph-name="idieresis" unicode="&#xef;" horiz-adv-x="302" 
d="M239 500v-500h-175v500h175zM116 648c0 -43 -30 -74 -73 -74s-74 31 -74 74s31 73 74 73c41 0 73 -30 73 -73zM337 648c0 -43 -31 -74 -74 -74s-73 31 -73 74s32 73 73 73c43 0 74 -32 74 -73z" />
    <glyph glyph-name="i.loclTRK" horiz-adv-x="302" 
d="M239 500v-500h-175v500h175zM226 648c0 -43 -32 -74 -73 -74c-43 0 -74 33 -74 74s31 73 74 73s73 -30 73 -73z" />
    <glyph glyph-name="igrave" unicode="&#xec;" horiz-adv-x="302" 
d="M239 500v-500h-175v500h175zM134 726l120 -174h-152l-151 174h183z" />
    <glyph glyph-name="ij" unicode="&#x133;" horiz-adv-x="598" 
d="M244 623c0 -44 -42 -79 -93 -79s-92 35 -92 79s41 80 92 80s93 -36 93 -80zM239 500v-500h-175v500h175zM544 623c0 -44 -41 -79 -92 -79s-92 35 -92 79s41 80 92 80s92 -36 92 -80zM541 500v-533c0 -116 -76 -172 -177 -172c-37 0 -73 6 -106 18l16 97c8 -2 15 -3 22 -3
c39 0 68 28 68 71v522h177z" />
    <glyph glyph-name="imacron" unicode="&#x12b;" horiz-adv-x="302" 
d="M239 500v-500h-175v500h175zM326 702v-109h-346v109h346z" />
    <glyph glyph-name="iogonek" unicode="&#x12f;" horiz-adv-x="302" 
d="M59 623c0 44 41 80 92 80s93 -36 93 -80s-42 -79 -93 -79s-92 35 -92 79zM261 -108l21 -79c-28 -12 -60 -18 -97 -18c-75 0 -121 32 -121 92c0 33 12 67 36 103l7 10h-43v500h175v-500h-35l-5 -7c-17 -27 -26 -47 -26 -61c0 -31 23 -46 55 -46c10 0 21 2 33 6z" />
    <glyph glyph-name="itilde" unicode="&#x129;" horiz-adv-x="302" 
d="M239 500v-500h-175v500h175zM67 724c24 0 46 -6 83 -22c38 -15 64 -23 78 -23c23 0 34 13 41 38l76 -9c-3 -84 -33 -147 -105 -147c-24 0 -42 6 -95 26c-32 13 -54 19 -66 19c-23 0 -34 -14 -41 -39l-76 10c3 83 33 147 105 147z" />
    <glyph glyph-name="j" unicode="j" horiz-adv-x="296" 
d="M242 623c0 -44 -41 -79 -92 -79s-92 35 -92 79s41 80 92 80s92 -36 92 -80zM239 500v-533c0 -116 -76 -172 -177 -172c-37 0 -73 6 -106 18l16 97c8 -2 15 -3 22 -3c39 0 68 28 68 71v522h177z" />
    <glyph glyph-name="uni0237" unicode="&#x237;" horiz-adv-x="296" 
d="M239 500v-533c0 -116 -76 -172 -177 -172c-37 0 -73 6 -106 18l16 97c8 -2 15 -3 22 -3c39 0 68 28 68 71v522h177z" />
    <glyph glyph-name="jcircumflex" unicode="&#x135;" horiz-adv-x="296" 
d="M239 500v-533c0 -116 -76 -172 -177 -172c-37 0 -73 6 -106 18l16 97c8 -2 15 -3 22 -3c39 0 68 28 68 71v522h177zM239 726l123 -174h-145l-70 82l-68 -82h-147l123 174h184z" />
    <glyph glyph-name="k" unicode="k" horiz-adv-x="623" 
d="M610 0h-184l-111 182l-81 -91v-91h-176v700h176v-396l164 196h200l-169 -190z" />
    <glyph glyph-name="uni0137" unicode="&#x137;" horiz-adv-x="623" 
d="M610 0h-184l-111 182l-81 -91v-91h-176v700h176v-396l164 196h200l-169 -190zM401 -112c0 -13 -4 -24 -11 -33l-102 -134l-44 19l39 88c-27 11 -45 35 -45 60c0 36 36 65 81 65s82 -29 82 -65z" />
    <glyph glyph-name="l" unicode="l" horiz-adv-x="292" 
d="M234 700v-700h-176v700h176z" />
    <glyph glyph-name="l.ss04" horiz-adv-x="349" 
d="M58 156v544h176v-530c0 -28 13 -42 38 -42c11 0 24 2 39 7l26 -122c-29 -15 -80 -24 -120 -24c-106 0 -159 56 -159 167z" />
    <glyph glyph-name="lacute" unicode="&#x13a;" horiz-adv-x="292" 
d="M234 700v-700h-176v700h176zM352 926l-151 -174h-152l120 174h183z" />
    <glyph glyph-name="lacute.ss04" horiz-adv-x="349" 
d="M58 156v544h176v-530c0 -28 13 -42 38 -42c11 0 24 2 39 7l26 -122c-29 -15 -80 -24 -120 -24c-106 0 -159 56 -159 167zM351 926l-151 -174h-152l120 174h183z" />
    <glyph glyph-name="lcaron" unicode="&#x13e;" horiz-adv-x="486" 
d="M234 700v-700h-176v700h176zM485 639c0 -14 -4 -28 -13 -41l-126 -191l-50 23l54 136c-32 13 -52 41 -52 73c0 45 42 82 93 82c52 0 94 -37 94 -82z" />
    <glyph glyph-name="lcaron.ss04" horiz-adv-x="468" 
d="M58 156v544h176v-530c0 -28 13 -42 38 -42c11 0 24 2 39 7l26 -122c-29 -15 -80 -24 -120 -24c-106 0 -159 56 -159 167zM485 639c0 -14 -4 -28 -13 -41l-126 -191l-50 23l54 136c-32 13 -52 41 -52 73c0 45 42 82 93 82c52 0 94 -37 94 -82z" />
    <glyph glyph-name="uni013C" unicode="&#x13c;" horiz-adv-x="292" 
d="M234 700v-700h-176v700h176zM234 -112c0 -13 -4 -24 -11 -33l-102 -134l-44 19l39 88c-27 11 -45 35 -45 60c0 36 36 65 81 65s82 -29 82 -65z" />
    <glyph glyph-name="uni013C.ss04" horiz-adv-x="349" 
d="M58 156v544h176v-530c0 -28 13 -42 38 -42c11 0 24 2 39 7l26 -122c-29 -15 -80 -24 -120 -24c-106 0 -159 56 -159 167zM290 -112c0 -13 -4 -24 -11 -33l-102 -134l-44 19l39 88c-27 11 -45 35 -45 60c0 36 36 65 81 65s82 -29 82 -65z" />
    <glyph glyph-name="ldot" unicode="&#x140;" horiz-adv-x="503" 
d="M234 700v-700h-176v700h176zM487 376c0 -45 -42 -82 -94 -82c-51 0 -93 37 -93 82s42 82 93 82c52 0 94 -37 94 -82z" />
    <glyph glyph-name="ldot.ss04" horiz-adv-x="503" 
d="M58 156v544h176v-530c0 -28 13 -42 38 -42c11 0 24 2 39 7l26 -122c-29 -15 -80 -24 -120 -24c-106 0 -159 56 -159 167zM487 376c0 -45 -42 -82 -94 -82c-51 0 -93 37 -93 82s42 82 93 82c52 0 94 -37 94 -82z" />
    <glyph glyph-name="lslash" unicode="&#x142;" horiz-adv-x="292" 
d="M297 524v-172l-63 -33v-319h-176v227l-63 -33v173l63 33v300h176v-209z" />
    <glyph glyph-name="lslash.ss04" horiz-adv-x="349" 
d="M311 135l26 -122c-29 -15 -80 -24 -120 -24c-106 0 -159 56 -159 167v71l-63 -33v173l63 33v300h176v-209l71 37v-172l-71 -37v-149c0 -28 13 -42 38 -42c11 0 24 2 39 7z" />
    <glyph glyph-name="m" unicode="m" horiz-adv-x="965" 
d="M550 438c68 55 122 72 191 72c103 0 176 -57 176 -165v-345h-177v292c0 48 -27 76 -70 76c-36 0 -69 -11 -100 -32c2 -22 3 -42 3 -60v-276h-176v292c0 48 -27 76 -70 76c-33 0 -66 -11 -97 -32v-336h-176v500h176v-60c53 47 116 70 177 70c63 0 115 -25 143 -72z" />
    <glyph glyph-name="n" unicode="n" horiz-adv-x="641" 
d="M592 345v-345h-176v292c0 48 -27 76 -76 76c-35 0 -74 -15 -106 -40v-328h-176v500h176v-54c55 41 121 64 186 64c105 0 172 -62 172 -165z" />
    <glyph glyph-name="nacute" unicode="&#x144;" horiz-adv-x="641" 
d="M592 345v-345h-176v292c0 48 -27 76 -76 76c-35 0 -74 -15 -106 -40v-328h-176v500h176v-54c55 41 121 64 186 64c105 0 172 -62 172 -165zM527 726l-151 -174h-152l120 174h183z" />
    <glyph glyph-name="ncaron" unicode="&#x148;" horiz-adv-x="641" 
d="M592 345v-345h-176v292c0 48 -27 76 -76 76c-35 0 -74 -15 -106 -40v-328h-176v500h176v-54c55 41 121 64 186 64c105 0 172 -62 172 -165zM540 726l-123 -174h-184l-123 174h147l68 -82l70 82h145z" />
    <glyph glyph-name="uni0146" unicode="&#x146;" horiz-adv-x="641" 
d="M592 345v-345h-176v292c0 48 -27 76 -76 76c-35 0 -74 -15 -106 -40v-328h-176v500h176v-54c55 41 121 64 186 64c105 0 172 -62 172 -165zM412 -112c0 -13 -4 -24 -11 -33l-102 -134l-44 19l39 88c-27 11 -45 35 -45 60c0 36 36 65 81 65s82 -29 82 -65z" />
    <glyph glyph-name="eng" unicode="&#x14b;" horiz-adv-x="641" 
d="M592 345v-378c0 -116 -75 -172 -176 -172c-37 0 -72 6 -106 18l17 97c8 -2 15 -3 22 -3c39 0 67 28 67 71v314c0 48 -27 76 -70 76s-80 -13 -112 -40v-328h-176v500h176v-54c53 41 120 64 183 64c103 0 175 -57 175 -165z" />
    <glyph glyph-name="ntilde" unicode="&#xf1;" horiz-adv-x="641" 
d="M592 345v-345h-176v292c0 48 -27 76 -76 76c-35 0 -74 -15 -106 -40v-328h-176v500h176v-54c55 41 121 64 186 64c105 0 172 -62 172 -165zM239 724c24 0 46 -6 83 -22c38 -15 64 -23 78 -23c23 0 34 13 41 38l76 -9c-3 -84 -33 -147 -105 -147c-24 0 -42 6 -95 26
c-32 13 -54 19 -66 19c-23 0 -34 -14 -41 -39l-76 10c3 83 33 147 105 147z" />
    <glyph glyph-name="o" unicode="o" horiz-adv-x="644" 
d="M607 250c3 -145 -126 -263 -285 -260c-161 0 -285 113 -285 260c-3 145 125 263 285 260c159 3 288 -115 285 -260zM211 250c0 -65 45 -111 110 -111s112 46 112 111s-47 111 -112 111s-110 -46 -110 -111z" />
    <glyph glyph-name="oacute" unicode="&#xf3;" horiz-adv-x="644" 
d="M607 250c3 -145 -126 -263 -285 -260c-161 0 -285 113 -285 260c-3 145 125 263 285 260c159 3 288 -115 285 -260zM211 250c0 -65 45 -111 110 -111s112 46 112 111s-47 111 -112 111s-110 -46 -110 -111zM524 726l-151 -174h-152l120 174h183z" />
    <glyph glyph-name="ocircumflex" unicode="&#xf4;" horiz-adv-x="644" 
d="M607 250c3 -145 -126 -263 -285 -260c-161 0 -285 113 -285 260c-3 145 125 263 285 260c159 3 288 -115 285 -260zM211 250c0 -65 45 -111 110 -111s112 46 112 111s-47 111 -112 111s-110 -46 -110 -111zM414 726l123 -174h-145l-70 82l-68 -82h-147l123 174h184z" />
    <glyph glyph-name="odieresis" unicode="&#xf6;" horiz-adv-x="644" 
d="M607 250c3 -145 -126 -263 -285 -260c-161 0 -285 113 -285 260c-3 145 125 263 285 260c159 3 288 -115 285 -260zM211 250c0 -65 45 -111 110 -111s112 46 112 111s-47 111 -112 111s-110 -46 -110 -111zM285 648c0 -43 -30 -74 -73 -74s-74 31 -74 74s31 73 74 73
c41 0 73 -30 73 -73zM506 648c0 -43 -31 -74 -74 -74s-73 31 -73 74s32 73 73 73c43 0 74 -32 74 -73z" />
    <glyph glyph-name="ograve" unicode="&#xf2;" horiz-adv-x="644" 
d="M607 250c3 -145 -126 -263 -285 -260c-161 0 -285 113 -285 260c-3 145 125 263 285 260c159 3 288 -115 285 -260zM211 250c0 -65 45 -111 110 -111s112 46 112 111s-47 111 -112 111s-110 -46 -110 -111zM303 726l120 -174h-152l-151 174h183z" />
    <glyph glyph-name="ohungarumlaut" unicode="&#x151;" horiz-adv-x="644" 
d="M607 250c3 -145 -126 -263 -285 -260c-161 0 -285 113 -285 260c-3 145 125 263 285 260c159 3 288 -115 285 -260zM211 250c0 -65 45 -111 110 -111s112 46 112 111s-47 111 -112 111s-110 -46 -110 -111zM442 726l-152 -174h-151l120 174h183zM690 726l-151 -174h-151
l121 174h181z" />
    <glyph glyph-name="omacron" unicode="&#x14d;" horiz-adv-x="644" 
d="M607 250c3 -145 -126 -263 -285 -260c-161 0 -285 113 -285 260c-3 145 125 263 285 260c159 3 288 -115 285 -260zM211 250c0 -65 45 -111 110 -111s112 46 112 111s-47 111 -112 111s-110 -46 -110 -111zM495 702v-109h-346v109h346z" />
    <glyph glyph-name="oslash" unicode="&#xf8;" horiz-adv-x="644" 
d="M607 250c3 -145 -126 -263 -285 -260c-25 0 -50 3 -75 8l-25 -48h-113l45 87c-73 47 -117 124 -117 213c-3 145 125 263 285 260c25 0 50 -3 75 -8l25 48h114l-45 -87c72 -47 116 -125 116 -213zM211 250c0 -35 12 -63 35 -84l93 194c-4 1 -10 1 -18 1
c-65 0 -110 -46 -110 -111zM433 250c0 36 -13 65 -38 86l-94 -195c8 -1 15 -2 20 -2c65 0 112 46 112 111z" />
    <glyph glyph-name="otilde" unicode="&#xf5;" horiz-adv-x="644" 
d="M607 250c3 -145 -126 -263 -285 -260c-161 0 -285 113 -285 260c-3 145 125 263 285 260c159 3 288 -115 285 -260zM211 250c0 -65 45 -111 110 -111s112 46 112 111s-47 111 -112 111s-110 -46 -110 -111zM236 724c24 0 46 -6 83 -22c38 -15 64 -23 78 -23
c23 0 34 13 41 38l76 -9c-3 -84 -33 -147 -105 -147c-24 0 -42 6 -95 26c-32 13 -54 19 -66 19c-23 0 -34 -14 -41 -39l-76 10c3 83 33 147 105 147z" />
    <glyph glyph-name="oe" unicode="&#x153;" horiz-adv-x="1005" 
d="M972 250v-45h-363c12 -57 49 -86 111 -86c45 0 88 14 116 41l95 -84c-59 -55 -139 -86 -224 -86c-75 0 -141 25 -190 70c-52 -45 -120 -70 -195 -70c-155 -3 -288 119 -285 260c-3 141 130 263 285 260c73 0 142 -25 194 -69c48 44 114 69 187 69
c163 0 269 -113 269 -260zM608 293h192c0 52 -38 90 -94 90c-53 0 -87 -31 -98 -90zM432 250c0 63 -48 111 -111 111c-31 0 -57 -11 -79 -32c-21 -21 -32 -48 -32 -79c0 -61 50 -111 111 -111c31 0 58 11 79 32c21 22 32 48 32 79z" />
    <glyph glyph-name="oe.ss01" horiz-adv-x="1006" 
d="M838 160l95 -84c-59 -55 -140 -86 -225 -86c-75 0 -142 26 -191 70c-52 -45 -120 -70 -195 -70c-155 -3 -288 119 -285 260c-3 141 130 263 285 260c75 0 143 -25 194 -69c49 44 115 69 188 69c162 0 265 -110 269 -254l-342 -98c19 -26 50 -39 91 -39c45 0 88 14 116 41
zM607 256l192 55c-8 43 -43 72 -92 72c-66 0 -99 -42 -100 -127zM432 250c0 63 -48 111 -111 111c-31 0 -57 -11 -79 -32c-21 -21 -32 -48 -32 -79c0 -61 50 -111 111 -111c31 0 58 11 79 32c21 22 32 48 32 79z" />
    <glyph glyph-name="p" unicode="p" horiz-adv-x="657" 
d="M611 250c0 -152 -94 -260 -221 -260c-61 0 -113 22 -155 66v-251h-176v695h176v-56c41 44 92 66 155 66c127 0 221 -108 221 -260zM438 250c0 63 -44 111 -104 111c-41 0 -79 -21 -99 -54v-114c20 -33 58 -54 99 -54c60 0 104 48 104 111z" />
    <glyph glyph-name="thorn" unicode="&#xfe;" horiz-adv-x="657" 
d="M611 250c0 -152 -94 -260 -221 -260c-61 0 -113 22 -155 66v-251h-176v895h176v-256c41 44 92 66 155 66c127 0 221 -108 221 -260zM438 250c0 63 -44 111 -104 111c-41 0 -79 -21 -99 -54v-114c20 -33 58 -54 99 -54c60 0 104 48 104 111z" />
    <glyph glyph-name="q" unicode="q" horiz-adv-x="643" 
d="M413 500h176v-695h-176v251c-42 -44 -94 -66 -155 -66c-127 0 -221 108 -221 260s94 260 221 260c62 0 114 -22 155 -65v55zM413 192v116c-21 33 -58 53 -99 53c-60 0 -103 -48 -103 -111s43 -111 103 -111c41 0 78 20 99 53z" />
    <glyph glyph-name="r" unicode="r" horiz-adv-x="419" 
d="M407 510v-145c-64 0 -125 -30 -173 -87v-278h-176v500h176v-92c49 65 113 102 173 102z" />
    <glyph glyph-name="racute" unicode="&#x155;" horiz-adv-x="419" 
d="M407 510v-145c-64 0 -125 -30 -173 -87v-278h-176v500h176v-92c49 65 113 102 173 102zM423 726l-151 -174h-152l120 174h183z" />
    <glyph glyph-name="rcaron" unicode="&#x159;" horiz-adv-x="419" 
d="M407 510v-145c-64 0 -125 -30 -173 -87v-278h-176v500h176v-92c49 65 113 102 173 102zM436 726l-123 -174h-184l-123 174h147l68 -82l70 82h145z" />
    <glyph glyph-name="uni0157" unicode="&#x157;" horiz-adv-x="419" 
d="M407 510v-145c-64 0 -125 -30 -173 -87v-278h-176v500h176v-92c49 65 113 102 173 102zM233 -112c0 -13 -4 -24 -11 -33l-102 -134l-44 19l39 88c-27 11 -45 35 -45 60c0 36 36 65 81 65s82 -29 82 -65z" />
    <glyph glyph-name="s" unicode="s" horiz-adv-x="522" 
d="M475 454l-58 -109c-49 28 -112 47 -156 47c-33 0 -49 -10 -49 -31c0 -17 8 -22 56 -35l48 -12c121 -32 170 -78 170 -159c0 -105 -79 -165 -218 -165c-88 0 -174 25 -243 70l61 104c59 -36 126 -56 187 -56c33 0 49 11 49 34c0 17 -8 23 -48 35l-61 16
c-121 33 -166 75 -166 152c0 104 79 165 214 165c76 0 154 -21 214 -56z" />
    <glyph glyph-name="sacute" unicode="&#x15b;" horiz-adv-x="522" 
d="M475 454l-58 -109c-49 28 -112 47 -156 47c-33 0 -49 -10 -49 -31c0 -17 8 -22 56 -35l48 -12c121 -32 170 -78 170 -159c0 -105 -79 -165 -218 -165c-88 0 -174 25 -243 70l61 104c59 -36 126 -56 187 -56c33 0 49 11 49 34c0 17 -8 23 -48 35l-61 16
c-121 33 -166 75 -166 152c0 104 79 165 214 165c76 0 154 -21 214 -56zM462 726l-151 -174h-152l120 174h183z" />
    <glyph glyph-name="scaron" unicode="&#x161;" horiz-adv-x="522" 
d="M475 454l-58 -109c-49 28 -112 47 -156 47c-33 0 -49 -10 -49 -31c0 -17 8 -22 56 -35l48 -12c121 -32 170 -78 170 -159c0 -105 -79 -165 -218 -165c-88 0 -174 25 -243 70l61 104c59 -36 126 -56 187 -56c33 0 49 11 49 34c0 17 -8 23 -48 35l-61 16
c-121 33 -166 75 -166 152c0 104 79 165 214 165c76 0 154 -21 214 -56zM475 726l-123 -174h-184l-123 174h147l68 -82l70 82h145z" />
    <glyph glyph-name="scedilla" unicode="&#x15f;" horiz-adv-x="522" 
d="M296 -9l-15 -32h1c61 0 102 -37 102 -92c0 -64 -54 -99 -126 -99c-40 0 -77 9 -111 27l22 59c17 -9 39 -13 64 -13c32 0 50 17 50 40c0 20 -14 32 -34 32c-9 0 -18 -2 -27 -7l-27 30l28 56c-73 7 -139 30 -198 68l61 104c59 -36 126 -56 187 -56c33 0 49 11 49 34
c0 17 -8 23 -48 35l-61 16c-121 33 -166 75 -166 152c0 104 79 165 214 165c76 0 154 -21 214 -56l-58 -109c-49 28 -112 47 -156 47c-33 0 -49 -10 -49 -31c0 -17 8 -22 56 -35l48 -12c121 -32 170 -78 170 -159c0 -97 -69 -156 -190 -164z" />
    <glyph glyph-name="scircumflex" unicode="&#x15d;" horiz-adv-x="522" 
d="M475 454l-58 -109c-49 28 -112 47 -156 47c-33 0 -49 -10 -49 -31c0 -17 8 -22 56 -35l48 -12c121 -32 170 -78 170 -159c0 -105 -79 -165 -218 -165c-88 0 -174 25 -243 70l61 104c59 -36 126 -56 187 -56c33 0 49 11 49 34c0 17 -8 23 -48 35l-61 16
c-121 33 -166 75 -166 152c0 104 79 165 214 165c76 0 154 -21 214 -56zM352 726l123 -174h-145l-70 82l-68 -82h-147l123 174h184z" />
    <glyph glyph-name="uni0219" unicode="&#x219;" horiz-adv-x="522" 
d="M475 454l-58 -109c-49 28 -112 47 -156 47c-33 0 -49 -10 -49 -31c0 -17 8 -22 56 -35l48 -12c121 -32 170 -78 170 -159c0 -105 -79 -165 -218 -165c-88 0 -174 25 -243 70l61 104c59 -36 126 -56 187 -56c33 0 49 11 49 34c0 17 -8 23 -48 35l-61 16
c-121 33 -166 75 -166 152c0 104 79 165 214 165c76 0 154 -21 214 -56zM352 -112c0 -13 -4 -24 -11 -33l-102 -134l-44 19l39 88c-27 11 -45 35 -45 60c0 36 36 65 81 65s82 -29 82 -65z" />
    <glyph glyph-name="germandbls" unicode="&#xdf;" horiz-adv-x="709" 
d="M58 0v478c0 136 118 232 283 232c143 0 249 -69 249 -172c0 -45 -21 -76 -62 -113c-35 -33 -42 -42 -42 -57c0 -8 5 -15 14 -22c10 -7 33 -19 69 -36c81 -39 108 -76 108 -145c0 -101 -91 -175 -211 -175c-49 0 -111 12 -166 32l41 142c32 -16 75 -27 106 -27
c35 0 55 15 55 40c0 21 -17 34 -82 61c-79 33 -105 59 -105 102c0 33 17 64 58 104c31 29 42 47 42 66c0 32 -33 53 -80 53c-61 0 -101 -36 -101 -93v-470h-176z" />
    <glyph glyph-name="t" unicode="t" horiz-adv-x="446" 
d="M396 152l22 -120c-53 -28 -105 -42 -157 -42c-101 0 -174 60 -174 175v200h-65v135h65v130h176v-130h123v-135h-123v-171c0 -40 27 -60 64 -60c24 0 47 6 69 18z" />
    <glyph glyph-name="tbar" unicode="&#x167;" horiz-adv-x="446" 
d="M396 152l22 -120c-53 -28 -105 -42 -157 -42c-101 0 -174 60 -174 175v40h-57v111h57v49h-65v135h65v130h176v-130h123v-135h-123v-49h113v-111h-113v-11c0 -40 27 -60 64 -60c24 0 47 6 69 18z" />
    <glyph glyph-name="tcaron" unicode="&#x165;" horiz-adv-x="555" 
d="M530 679c0 -13 -4 -24 -11 -33l-102 -134l-43 19l38 89c-27 11 -45 34 -45 59c0 37 36 65 81 65s82 -28 82 -65zM396 152l22 -120c-53 -28 -105 -42 -157 -42c-101 0 -174 60 -174 175v200h-65v135h65v130h176v-130h123v-135h-123v-171c0 -40 27 -60 64 -60
c24 0 47 6 69 18z" />
    <glyph glyph-name="uni021B" unicode="&#x21b;" horiz-adv-x="446" 
d="M396 152l22 -120c-53 -28 -105 -42 -157 -42c-101 0 -174 60 -174 175v200h-65v135h65v130h176v-130h123v-135h-123v-171c0 -40 27 -60 64 -60c24 0 47 6 69 18zM335 -112c0 -13 -4 -24 -11 -33l-102 -134l-44 19l39 88c-27 11 -45 35 -45 60c0 36 36 65 81 65
s82 -29 82 -65z" />
    <glyph glyph-name="u" unicode="u" horiz-adv-x="641" 
d="M407 500h176v-500h-176v55c-55 -41 -122 -65 -186 -65c-107 0 -172 64 -172 165v345h175v-292c0 -47 28 -75 76 -75c36 0 75 13 107 40v327z" />
    <glyph glyph-name="uacute" unicode="&#xfa;" horiz-adv-x="641" 
d="M407 500h176v-500h-176v55c-55 -41 -122 -65 -186 -65c-107 0 -172 64 -172 165v345h175v-292c0 -47 28 -75 76 -75c36 0 75 13 107 40v327zM520 726l-151 -174h-152l120 174h183z" />
    <glyph glyph-name="ubreve" unicode="&#x16d;" horiz-adv-x="641" 
d="M407 500h176v-500h-176v55c-55 -41 -122 -65 -186 -65c-107 0 -172 64 -172 165v345h175v-292c0 -47 28 -75 76 -75c36 0 75 13 107 40v327zM318 563c-106 0 -193 71 -193 167h116c1 -39 33 -61 77 -61c45 0 77 22 78 61h116c0 -96 -87 -167 -194 -167z" />
    <glyph glyph-name="ucircumflex" unicode="&#xfb;" horiz-adv-x="641" 
d="M407 500h176v-500h-176v55c-55 -41 -122 -65 -186 -65c-107 0 -172 64 -172 165v345h175v-292c0 -47 28 -75 76 -75c36 0 75 13 107 40v327zM410 726l123 -174h-145l-70 82l-68 -82h-147l123 174h184z" />
    <glyph glyph-name="udieresis" unicode="&#xfc;" horiz-adv-x="641" 
d="M407 500h176v-500h-176v55c-55 -41 -122 -65 -186 -65c-107 0 -172 64 -172 165v345h175v-292c0 -47 28 -75 76 -75c36 0 75 13 107 40v327zM281 648c0 -43 -30 -74 -73 -74s-74 31 -74 74s31 73 74 73c41 0 73 -30 73 -73zM502 648c0 -43 -31 -74 -74 -74s-73 31 -73 74
s32 73 73 73c43 0 74 -32 74 -73z" />
    <glyph glyph-name="ugrave" unicode="&#xf9;" horiz-adv-x="641" 
d="M407 500h176v-500h-176v55c-55 -41 -122 -65 -186 -65c-107 0 -172 64 -172 165v345h175v-292c0 -47 28 -75 76 -75c36 0 75 13 107 40v327zM299 726l120 -174h-152l-151 174h183z" />
    <glyph glyph-name="uhungarumlaut" unicode="&#x171;" horiz-adv-x="641" 
d="M407 500h176v-500h-176v55c-55 -41 -122 -65 -186 -65c-107 0 -172 64 -172 165v345h175v-292c0 -47 28 -75 76 -75c36 0 75 13 107 40v327zM438 726l-152 -174h-151l120 174h183zM686 726l-151 -174h-151l121 174h181z" />
    <glyph glyph-name="umacron" unicode="&#x16b;" horiz-adv-x="641" 
d="M407 500h176v-500h-176v55c-55 -41 -122 -65 -186 -65c-107 0 -172 64 -172 165v345h175v-292c0 -47 28 -75 76 -75c36 0 75 13 107 40v327zM491 702v-109h-346v109h346z" />
    <glyph glyph-name="uogonek" unicode="&#x173;" horiz-adv-x="641" 
d="M599 -108l21 -79c-28 -12 -60 -18 -97 -18c-75 0 -121 32 -121 92c0 33 12 67 36 103l7 10h-38v55c-55 -41 -122 -65 -186 -65c-107 0 -172 64 -172 165v345h175v-292c0 -47 28 -75 76 -75c36 0 75 13 107 40v327h176v-500h-41l-5 -7c-17 -27 -26 -47 -26 -61
c0 -31 23 -46 55 -46c10 0 21 2 33 6z" />
    <glyph glyph-name="uring" unicode="&#x16f;" horiz-adv-x="641" 
d="M407 500h176v-500h-176v55c-55 -41 -122 -65 -186 -65c-107 0 -172 64 -172 165v345h175v-292c0 -47 28 -75 76 -75c36 0 75 13 107 40v327zM456 671c0 -72 -63 -135 -138 -135s-138 63 -138 135s63 135 138 135s138 -63 138 -135zM265 671c0 -29 24 -52 53 -52
s53 23 53 52s-24 52 -53 52s-53 -23 -53 -52z" />
    <glyph glyph-name="utilde" unicode="&#x169;" horiz-adv-x="641" 
d="M407 500h176v-500h-176v55c-55 -41 -122 -65 -186 -65c-107 0 -172 64 -172 165v345h175v-292c0 -47 28 -75 76 -75c36 0 75 13 107 40v327zM232 724c24 0 46 -6 83 -22c38 -15 64 -23 78 -23c23 0 34 13 41 38l76 -9c-3 -84 -33 -147 -105 -147c-24 0 -42 6 -95 26
c-32 13 -54 19 -66 19c-23 0 -34 -14 -41 -39l-76 10c3 83 33 147 105 147z" />
    <glyph glyph-name="v" unicode="v" horiz-adv-x="619" 
d="M420 500h187l-188 -500h-218l-188 500h187l110 -324z" />
    <glyph glyph-name="w" unicode="w" horiz-adv-x="835" 
d="M823 500l-149 -500h-189l-68 246l-67 -246h-189l-148 500h175l76 -310l86 310h136l85 -310l76 310h176z" />
    <glyph glyph-name="wacute" unicode="&#x1e83;" horiz-adv-x="835" 
d="M823 500l-149 -500h-189l-68 246l-67 -246h-189l-148 500h175l76 -310l86 310h136l85 -310l76 310h176zM618 726l-151 -174h-152l120 174h183z" />
    <glyph glyph-name="wcircumflex" unicode="&#x175;" horiz-adv-x="835" 
d="M823 500l-149 -500h-189l-68 246l-67 -246h-189l-148 500h175l76 -310l86 310h136l85 -310l76 310h176zM508 726l123 -174h-145l-70 82l-68 -82h-147l123 174h184z" />
    <glyph glyph-name="wdieresis" unicode="&#x1e85;" horiz-adv-x="835" 
d="M823 500l-149 -500h-189l-68 246l-67 -246h-189l-148 500h175l76 -310l86 310h136l85 -310l76 310h176zM379 648c0 -43 -30 -74 -73 -74s-74 31 -74 74s31 73 74 73c41 0 73 -30 73 -73zM600 648c0 -43 -31 -74 -74 -74s-73 31 -73 74s32 73 73 73c43 0 74 -32 74 -73z
" />
    <glyph glyph-name="wgrave" unicode="&#x1e81;" horiz-adv-x="835" 
d="M823 500l-149 -500h-189l-68 246l-67 -246h-189l-148 500h175l76 -310l86 310h136l85 -310l76 310h176zM397 726l120 -174h-152l-151 174h183z" />
    <glyph glyph-name="x" unicode="x" horiz-adv-x="589" 
d="M577 0h-200l-83 137l-84 -137h-197l180 252l-177 248h200l80 -131l80 131h197l-176 -249z" />
    <glyph glyph-name="y" unicode="y" horiz-adv-x="613" 
d="M601 500l-209 -546c-41 -106 -111 -159 -212 -159c-48 0 -104 12 -167 36l49 116c36 -15 66 -22 90 -22c36 0 64 17 85 52l4 8l-214 515h185l107 -311l99 311h183z" />
    <glyph glyph-name="yacute" unicode="&#xfd;" horiz-adv-x="613" 
d="M601 500l-209 -546c-41 -106 -111 -159 -212 -159c-48 0 -104 12 -167 36l49 116c36 -15 66 -22 90 -22c36 0 64 17 85 52l4 8l-214 515h185l107 -311l99 311h183zM520 726l-151 -174h-152l120 174h183z" />
    <glyph glyph-name="ycircumflex" unicode="&#x177;" horiz-adv-x="613" 
d="M601 500l-209 -546c-41 -106 -111 -159 -212 -159c-48 0 -104 12 -167 36l49 116c36 -15 66 -22 90 -22c36 0 64 17 85 52l4 8l-214 515h185l107 -311l99 311h183zM410 726l123 -174h-145l-70 82l-68 -82h-147l123 174h184z" />
    <glyph glyph-name="ydieresis" unicode="&#xff;" horiz-adv-x="613" 
d="M601 500l-209 -546c-41 -106 -111 -159 -212 -159c-48 0 -104 12 -167 36l49 116c36 -15 66 -22 90 -22c36 0 64 17 85 52l4 8l-214 515h185l107 -311l99 311h183zM281 648c0 -43 -30 -74 -73 -74s-74 31 -74 74s31 73 74 73c41 0 73 -30 73 -73zM502 648
c0 -43 -31 -74 -74 -74s-73 31 -73 74s32 73 73 73c43 0 74 -32 74 -73z" />
    <glyph glyph-name="ygrave" unicode="&#x1ef3;" horiz-adv-x="613" 
d="M601 500l-209 -546c-41 -106 -111 -159 -212 -159c-48 0 -104 12 -167 36l49 116c36 -15 66 -22 90 -22c36 0 64 17 85 52l4 8l-214 515h185l107 -311l99 311h183zM299 726l120 -174h-152l-151 174h183z" />
    <glyph glyph-name="z" unicode="z" horiz-adv-x="540" 
d="M498 500v-113l-225 -245h236v-142h-480v114l225 245h-204v141h448z" />
    <glyph glyph-name="zacute" unicode="&#x17a;" horiz-adv-x="540" 
d="M498 500v-113l-225 -245h236v-142h-480v114l225 245h-204v141h448zM481 726l-151 -174h-152l120 174h183z" />
    <glyph glyph-name="zcaron" unicode="&#x17e;" horiz-adv-x="540" 
d="M498 500v-113l-225 -245h236v-142h-480v114l225 245h-204v141h448zM494 726l-123 -174h-184l-123 174h147l68 -82l70 82h145z" />
    <glyph glyph-name="zdotaccent" unicode="&#x17c;" horiz-adv-x="540" 
d="M498 500v-113l-225 -245h236v-142h-480v114l225 245h-204v141h448zM352 648c0 -43 -32 -74 -73 -74c-43 0 -74 33 -74 74s31 73 74 73s73 -30 73 -73z" />
    <glyph glyph-name="T_h" horiz-adv-x="1225" 
d="M1176 345v-345h-176v292c0 48 -27 76 -76 76c-35 0 -74 -15 -106 -40v-328h-176v539h-226v-539h-188v539h-204v161h794v-254c55 41 121 64 186 64c105 0 172 -62 172 -165z" />
    <glyph glyph-name="c_h" horiz-adv-x="1209" 
d="M1161 345v-345h-176v292c0 48 -27 76 -76 76c-35 0 -74 -15 -106 -40v-328h-176v602c-28 8 -55 12 -81 12c-64 0 -103 -35 -103 -94c0 -18 4 -34 11 -49c33 -20 60 -45 81 -74l-134 -74c-22 25 -51 38 -87 38c-59 0 -104 -46 -104 -111c0 -64 47 -111 104 -111
c36 0 65 13 88 40l134 -74c-49 -71 -134 -115 -226 -115c-147 -3 -276 119 -273 260c-3 141 127 263 272 260c-7 18 -11 37 -11 58c0 111 94 178 258 178c79 0 168 -12 247 -33v-266c55 40 122 63 186 63c105 0 172 -62 172 -165z" />
    <glyph glyph-name="c_t" horiz-adv-x="1013" 
d="M963 152l22 -120c-53 -28 -105 -42 -157 -42c-100 0 -173 60 -173 175v200h-66v135h66v30c0 48 -37 84 -109 84c-64 0 -104 -35 -104 -94c0 -17 4 -33 12 -49c33 -20 60 -45 81 -74l-134 -74c-22 25 -51 38 -87 38c-59 0 -104 -46 -104 -111c0 -64 47 -111 104 -111
c36 0 65 13 88 40l134 -74c-49 -71 -134 -115 -226 -115c-147 -3 -276 119 -273 260c-3 141 125 263 272 260c-8 17 -12 37 -12 59c0 109 95 177 259 177c168 0 275 -73 275 -179v-67h122v-135h-122v-171c0 -40 26 -60 63 -60c24 0 47 6 69 18z" />
    <glyph glyph-name="f_b" horiz-adv-x="1049" 
d="M1012 250c0 -145 -85 -260 -220 -260c-64 0 -117 28 -156 69v-59h-176v577h-74c-21 8 -43 12 -66 12c-35 0 -58 -17 -58 -57v-32h124v-135h-124v-365h-177v365h-63v135h63v37c0 121 76 173 185 173c27 0 57 -3 92 -10h274v-258c39 40 92 68 156 68
c135 0 220 -115 220 -260zM839 250c0 61 -48 111 -108 111c-40 0 -76 -21 -95 -56v-110c19 -35 55 -56 95 -56c60 0 108 50 108 111z" />
    <glyph glyph-name="f_f_j" horiz-adv-x="1108" 
d="M409 688l-23 -111c-21 8 -43 12 -66 12c-35 0 -58 -17 -58 -57v-32h229v37c0 121 76 173 185 173c44 0 90 -7 139 -22l-23 -111c-21 8 -43 12 -66 12c-35 0 -58 -17 -58 -57v-32h383v-533c0 -116 -76 -172 -177 -172c-38 0 -73 6 -106 18l17 96c9 -3 16 -4 21 -4
c39 0 68 30 68 73v387h-206v-365h-177v365h-229v-365h-177v365h-63v135h63v37c0 121 76 173 185 173c44 0 90 -7 139 -22zM1054 623c0 -44 -41 -79 -92 -79s-92 35 -92 79s41 80 92 80s92 -36 92 -80z" />
    <glyph glyph-name="f_f_l.ss04" horiz-adv-x="1167" 
d="M1129 135l25 -122c-28 -15 -79 -24 -119 -24c-106 0 -159 56 -159 167v421h-84c-21 8 -43 12 -66 12c-35 0 -58 -17 -58 -57v-32h124v-135h-124v-365h-177v365h-229v-365h-177v365h-63v135h63v37c0 121 76 173 185 173c44 0 90 -7 139 -22l-23 -111c-21 8 -43 12 -66 12
c-35 0 -58 -17 -58 -57v-32h229v37c0 121 76 173 185 173c28 0 58 -3 90 -10h286v-530c0 -28 13 -42 38 -42c11 0 24 2 39 7z" />
    <glyph glyph-name="f_h" horiz-adv-x="1048" 
d="M361 700h280v-254c53 41 120 64 183 64c104 0 175 -57 175 -165v-345h-175v292c0 48 -28 76 -71 76c-42 0 -79 -13 -112 -40v-328h-176v577h-79c-21 8 -43 12 -66 12c-35 0 -58 -17 -58 -57v-32h124v-135h-124v-365h-177v365h-63v135h63v37c0 121 76 173 185 173
c27 0 58 -3 91 -10z" />
    <glyph glyph-name="f_j" horiz-adv-x="702" 
d="M409 688l-23 -111c-21 8 -43 12 -66 12c-35 0 -58 -17 -58 -57v-32h383v-533c0 -116 -76 -172 -177 -172c-38 0 -73 6 -106 18l17 96c9 -3 16 -4 21 -4c39 0 68 30 68 73v387h-206v-365h-177v365h-63v135h63v37c0 121 76 173 185 173c44 0 90 -7 139 -22zM648 623
c0 -44 -41 -79 -92 -79s-92 35 -92 79s41 80 92 80s92 -36 92 -80z" />
    <glyph glyph-name="f_k" horiz-adv-x="1030" 
d="M361 700h280v-388l156 188h209l-164 -201l175 -299h-191l-106 172l-79 -83v-89h-176v577h-79c-21 8 -43 12 -66 12c-35 0 -58 -17 -58 -57v-32h124v-135h-124v-365h-177v365h-63v135h63v37c0 121 76 173 185 173c27 0 58 -3 91 -10z" />
    <glyph glyph-name="fl.ss04" horiz-adv-x="761" 
d="M723 135l25 -122c-28 -15 -79 -24 -119 -24c-106 0 -159 56 -159 167v421h-84c-21 8 -43 12 -66 12c-35 0 -58 -17 -58 -57v-32h124v-135h-124v-365h-177v365h-63v135h63v37c0 121 76 173 185 173c28 0 58 -3 90 -10h286v-530c0 -28 13 -42 38 -42c11 0 24 2 39 7z" />
    <glyph glyph-name="s_p" horiz-adv-x="1179" 
d="M1133 250c0 -152 -94 -260 -221 -260c-61 0 -113 22 -155 66v-251h-176v728c0 52 -31 79 -90 79c-61 0 -93 -33 -93 -92c0 -13 2 -24 6 -34c29 -11 52 -21 71 -32l-58 -109c-49 28 -112 47 -156 47c-33 0 -49 -10 -49 -31c0 -17 8 -22 56 -35l48 -12
c121 -32 170 -78 170 -159c0 -105 -79 -165 -218 -165c-88 0 -174 25 -243 70l61 104c59 -36 126 -56 187 -56c33 0 49 11 49 34c0 17 -8 23 -48 35l-61 16c-121 33 -166 75 -166 152c0 104 79 165 214 165h3c-8 19 -12 40 -12 61c0 108 93 174 240 174
c163 0 265 -66 265 -173v-128c41 44 92 66 155 66c127 0 221 -108 221 -260zM960 250c0 63 -44 111 -104 111c-41 0 -79 -21 -99 -54v-114c20 -33 58 -54 99 -54c60 0 104 48 104 111z" />
    <glyph glyph-name="s_t" horiz-adv-x="967" 
d="M917 152l22 -120c-53 -28 -105 -42 -157 -42c-101 0 -174 60 -174 175v200h-65v135h65v30c0 49 -36 84 -109 84c-64 0 -103 -35 -103 -94c0 -11 2 -22 5 -33c28 -9 53 -20 74 -33l-58 -109c-49 28 -112 47 -156 47c-33 0 -49 -10 -49 -31c0 -17 8 -22 56 -35l48 -12
c121 -32 170 -78 170 -159c0 -105 -79 -165 -218 -165c-88 0 -174 25 -243 70l61 104c59 -36 126 -56 187 -56c33 0 49 11 49 34c0 17 -8 23 -48 35l-61 16c-121 33 -166 75 -166 152c0 104 79 165 214 165h2c-9 19 -13 38 -13 59c0 109 96 177 260 177
c167 0 274 -73 274 -179v-67h123v-135h-123v-171c0 -40 27 -60 64 -60c24 0 47 6 69 18z" />
    <glyph glyph-name="ordfeminine" unicode="&#xaa;" horiz-adv-x="401" 
d="M358 581v-215h-118v38c-32 -30 -69 -45 -111 -45c-64 0 -108 41 -108 105c0 61 46 99 121 99h98v9c0 31 -22 45 -58 45c-31 0 -66 -10 -97 -29l-33 73c49 28 108 45 161 45c88 0 145 -40 145 -125zM240 451v58h-55c-31 0 -48 -13 -48 -36s17 -37 46 -37c19 0 38 5 57 15z
" />
    <glyph glyph-name="ordmasculine" unicode="&#xba;" horiz-adv-x="457" 
d="M419 533c0 -95 -86 -174 -190 -174c-105 0 -190 79 -190 174c0 96 85 173 190 173c104 0 190 -77 190 -173zM154 533c0 -41 34 -74 74 -74c41 0 74 33 74 74c0 40 -33 73 -74 73c-40 0 -74 -33 -74 -73z" />
    <glyph glyph-name="pi" unicode="&#x3c0;" horiz-adv-x="784" 
d="M758 359h-113v-175c0 -41 20 -61 49 -61c10 0 18 1 24 4l16 -116c-33 -15 -66 -22 -100 -22c-97 0 -165 52 -165 175v195h-169v-359h-176v359h-102v141h736v-141z" />
    <glyph glyph-name="uni0621" unicode="&#x621;" horiz-adv-x="555" 
d="M345 178h145v-178h-425v178h94c-26 30 -39 66 -39 108c0 102 75 182 190 182c69 0 131 -27 171 -68l-102 -95c-17 15 -36 22 -58 22c-40 0 -66 -25 -66 -69c0 -47 30 -74 90 -80z" />
    <glyph glyph-name="uni0627" unicode="&#x627;" horiz-adv-x="314" 
d="M74 0v730h166v-730h-166z" />
    <glyph glyph-name="uni0627.short" horiz-adv-x="314" 
d="M74 0v580h166v-580h-166z" />
    <glyph glyph-name="uniFE8E.short" horiz-adv-x="364" 
d="M364 178h16v-176c0 -1 -5 -2 -16 -2h-1c-91 0 -171 22 -223 51c-51 27 -66 55 -66 116v413h166v-382c29 -13 77 -20 124 -20z" />
    <glyph glyph-name="uni0623" unicode="&#x623;" horiz-adv-x="314" 
d="M74 0v730h166v-730h-166zM203 888h64v-92h-221v92h49c-15 17 -22 36 -22 58c0 52 38 93 97 93c36 0 70 -18 89 -39l-51 -53c-9 8 -19 12 -30 12c-19 0 -32 -13 -32 -32c0 -23 20 -39 57 -39z" />
    <glyph glyph-name="uni0625" unicode="&#x625;" horiz-adv-x="314" 
d="M74 0v730h166v-730h-166zM204 -208h64v-93h-221v93h48c-14 16 -21 35 -21 58c0 51 38 92 97 92c36 0 70 -18 89 -39l-51 -52c-9 7 -19 11 -30 11c-19 0 -32 -13 -32 -32c0 -23 20 -38 57 -38z" />
    <glyph glyph-name="uni0622" unicode="&#x622;" horiz-adv-x="314" 
d="M74 0v730h166v-730h-166zM252 907l49 -10c-1 -68 -23 -103 -92 -102l-98 4c-32 1 -45 -4 -54 -23l-49 9c1 69 22 106 97 103l93 -4c32 -1 45 6 54 23z" />
    <glyph glyph-name="uni0671" unicode="&#x671;" horiz-adv-x="314" 
d="M74 0v730h166v-730h-166zM300 903v-107h-305v83h50c33 81 91 120 155 120c63 0 100 -36 100 -96zM119 879h100v15c0 19 -11 32 -35 32c-27 0 -49 -16 -65 -47z" />
    <glyph glyph-name="uni066E" unicode="&#x66e;" horiz-adv-x="1179" 
d="M63 256c0 58 11 120 32 186l153 -28c-13 -40 -20 -76 -20 -107c0 -87 48 -129 151 -129h412c65 0 124 9 152 25v312h166v-445c-71 -41 -198 -70 -347 -70h-391c-200 0 -308 73 -308 256z" />
    <glyph glyph-name="uni0628" unicode="&#x628;" horiz-adv-x="1179" 
d="M63 256c0 58 11 120 32 186l153 -28c-13 -40 -20 -76 -20 -107c0 -87 48 -129 151 -129h412c65 0 124 9 152 25v312h166v-445c-71 -41 -198 -70 -347 -70h-391c-200 0 -308 73 -308 256zM510 -145c0 49 38 87 87 87c48 0 88 -39 88 -87c0 -49 -40 -88 -88 -88
c-49 0 -87 39 -87 88z" />
    <glyph glyph-name="uni067E" unicode="&#x67e;" horiz-adv-x="1179" 
d="M63 256c0 58 11 120 32 186l153 -28c-13 -40 -20 -76 -20 -107c0 -87 48 -129 151 -129h412c65 0 124 9 152 25v312h166v-445c-71 -41 -198 -70 -347 -70h-391c-200 0 -308 73 -308 256zM431 -132c0 41 34 75 75 75s74 -34 74 -75s-33 -74 -74 -74s-75 33 -75 74z
M614 -132c0 43 33 75 76 75c40 0 73 -34 73 -75s-33 -74 -73 -74c-43 0 -76 33 -76 74zM522 -285c0 41 33 75 74 75s74 -34 74 -75s-33 -74 -74 -74s-74 33 -74 74z" />
    <glyph glyph-name="uni062A" unicode="&#x62a;" horiz-adv-x="1179" 
d="M63 256c0 58 11 120 32 186l153 -28c-13 -40 -20 -76 -20 -107c0 -87 48 -129 151 -129h412c65 0 124 9 152 25v312h166v-445c-71 -41 -198 -70 -347 -70h-391c-200 0 -308 73 -308 256zM390 589c0 49 38 88 87 88c48 0 87 -39 87 -88c0 -48 -39 -87 -87 -87
c-49 0 -87 39 -87 87zM595 589c0 49 38 88 87 88c48 0 86 -39 86 -88c0 -48 -38 -87 -86 -87c-49 0 -87 39 -87 87z" />
    <glyph glyph-name="uni062B" unicode="&#x62b;" horiz-adv-x="1179" 
d="M63 256c0 58 11 120 32 186l153 -28c-13 -40 -20 -76 -20 -107c0 -87 48 -129 151 -129h412c65 0 124 9 152 25v312h166v-445c-71 -41 -198 -70 -347 -70h-391c-200 0 -308 73 -308 256zM504 730c0 41 33 75 74 75s74 -34 74 -75s-33 -75 -74 -75s-74 34 -74 75zM413 577
c0 43 34 75 75 75s74 -34 74 -75s-33 -74 -74 -74s-75 33 -75 74zM596 577c0 43 33 75 76 75c40 0 73 -34 73 -75s-33 -74 -73 -74c-43 0 -76 33 -76 74z" />
    <glyph glyph-name="uni0679" unicode="&#x679;" horiz-adv-x="1179" 
d="M63 256c0 58 11 120 32 186l153 -28c-13 -40 -20 -76 -20 -107c0 -87 48 -129 151 -129h412c65 0 124 9 152 25v312h166v-445c-71 -41 -198 -70 -347 -70h-391c-200 0 -308 73 -308 256zM714 629v-111h-293v84h20v179h77v-91c35 28 70 42 104 42c57 0 92 -40 92 -103z
M518 602h115v17c0 26 -11 39 -34 39s-50 -15 -81 -44v-12z" />
    <glyph glyph-name="uni062C" unicode="&#x62c;" horiz-adv-x="735" 
d="M693 152l-46 -152h-341c-59 0 -100 -29 -100 -78s41 -79 101 -79h150v-177h-109c-205 0 -323 91 -323 250c0 165 108 258 304 258h142c-25 28 -39 57 -55 106c-31 95 -43 124 -121 128c-39 0 -72 -10 -119 -38l-90 114c69 53 144 80 226 80c142 0 205 -63 250 -214
c33 -111 63 -175 131 -198zM487 -143c0 49 39 88 87 88s88 -39 88 -88c0 -48 -40 -87 -88 -87s-87 39 -87 87z" />
    <glyph glyph-name="uni0686" unicode="&#x686;" horiz-adv-x="730" 
d="M300 -158h62v-177h-20c-203 0 -317 90 -317 251c0 164 120 258 317 258h118c-23 27 -37 58 -52 107c-28 91 -41 123 -106 127c-36 0 -67 -13 -84 -29l-115 107c65 52 137 78 218 78c65 0 115 -17 150 -52s62 -89 83 -163c31 -112 58 -177 121 -197l-46 -152h-330
c-55 0 -93 -29 -93 -78c0 -51 38 -80 94 -80zM457 -204c-41 0 -74 34 -74 75s33 74 74 74s75 -33 75 -74c0 -43 -32 -75 -75 -75zM715 -129c0 -41 -33 -75 -74 -75s-75 32 -75 75c0 41 34 74 75 74s74 -33 74 -74zM622 -282c0 -41 -34 -75 -74 -75c-41 0 -75 32 -75 75
c0 41 34 75 75 75c40 0 74 -34 74 -75z" />
    <glyph glyph-name="uni062D" unicode="&#x62d;" horiz-adv-x="735" 
d="M693 152l-46 -152h-341c-59 0 -100 -29 -100 -78s41 -79 101 -79h150v-177h-109c-205 0 -323 91 -323 250c0 165 108 258 304 258h142c-25 28 -39 57 -55 106c-31 95 -43 124 -121 128c-39 0 -72 -10 -119 -38l-90 114c69 53 144 80 226 80c142 0 205 -63 250 -214
c33 -111 63 -175 131 -198z" />
    <glyph glyph-name="uni062E" unicode="&#x62e;" horiz-adv-x="735" 
d="M693 152l-46 -152h-341c-59 0 -100 -29 -100 -78s41 -79 101 -79h150v-177h-109c-205 0 -323 91 -323 250c0 165 108 258 304 258h142c-25 28 -39 57 -55 106c-31 95 -43 124 -121 128c-39 0 -72 -10 -119 -38l-90 114c69 53 144 80 226 80c142 0 205 -63 250 -214
c33 -111 63 -175 131 -198zM240 710c0 49 39 88 88 88c48 0 87 -39 87 -88c0 -48 -39 -87 -87 -87c-49 0 -88 39 -88 87z" />
    <glyph glyph-name="uni062F" unicode="&#x62f;" horiz-adv-x="588" 
d="M523 295v-295h-480v178h313v108c0 60 -35 81 -102 81h-130v166h89c239 -3 307 -54 310 -238z" />
    <glyph glyph-name="uni0630" unicode="&#x630;" horiz-adv-x="588" 
d="M523 295v-295h-480v178h313v108c0 60 -35 81 -102 81h-130v166h89c239 -3 307 -54 310 -238zM134 693c0 49 39 88 88 88c48 0 87 -39 87 -88c0 -48 -39 -87 -87 -87c-49 0 -88 39 -88 87z" />
    <glyph glyph-name="uni0688" unicode="&#x688;" horiz-adv-x="586" 
d="M523 295v-295h-480v178h313v108c0 60 -35 81 -102 81h-130v166h89c239 -3 307 -54 310 -238zM357 732v-111h-293v84h20v179h77v-91c35 28 70 42 104 42c57 0 92 -40 92 -103zM161 705h115v17c0 26 -11 39 -34 39s-50 -15 -81 -44v-12z" />
    <glyph glyph-name="uni0631" unicode="&#x631;" horiz-adv-x="392" 
d="M-48 -258l33 169l37 -1c99 0 131 42 131 131v455h167v-453c0 -107 -26 -185 -79 -233c-53 -49 -124 -73 -213 -73c-32 0 -57 2 -76 5z" />
    <glyph glyph-name="uni0632" unicode="&#x632;" horiz-adv-x="392" 
d="M-48 -258l33 169l37 -1c99 0 131 42 131 131v455h167v-453c0 -107 -26 -185 -79 -233c-53 -49 -124 -73 -213 -73c-32 0 -57 2 -76 5zM149 662c0 49 39 88 88 88c48 0 87 -39 87 -88c0 -48 -39 -87 -87 -87c-49 0 -88 39 -88 87z" />
    <glyph glyph-name="uni0691" unicode="&#x691;" horiz-adv-x="392" 
d="M-48 -258l33 169l37 -1c99 0 131 42 131 131v455h167v-453c0 -107 -26 -185 -79 -233c-53 -49 -124 -73 -213 -73c-32 0 -57 2 -76 5zM372 701v-111h-293v84h20v179h77v-91c35 28 70 42 104 42c57 0 92 -40 92 -103zM176 674h115v17c0 26 -11 39 -34 39s-50 -15 -81 -44
v-12z" />
    <glyph glyph-name="uni0698" unicode="&#x698;" horiz-adv-x="392" 
d="M-48 -258l33 169l37 -1c99 0 131 42 131 131v455h167v-453c0 -107 -26 -185 -79 -233c-53 -49 -124 -73 -213 -73c-32 0 -57 2 -76 5zM162 802c0 41 33 75 74 75s74 -34 74 -75s-33 -75 -74 -75s-74 34 -74 75zM71 649c0 43 34 75 75 75s74 -34 74 -75s-33 -74 -74 -74
s-75 33 -75 74zM254 649c0 43 33 75 76 75c40 0 73 -34 73 -75s-33 -74 -73 -74c-43 0 -76 33 -76 74z" />
    <glyph glyph-name="uni0633" unicode="&#x633;" horiz-adv-x="1480" 
d="M1244 503h166v-411c-49 -56 -128 -96 -211 -96c-58 0 -110 17 -156 52c-40 -32 -95 -52 -155 -52c-47 0 -89 13 -124 40v-202c-38 -24 -88 -46 -149 -66c-61 -21 -126 -31 -195 -31c-221 0 -359 130 -359 339c0 50 7 102 22 155l151 -29c-7 -34 -11 -64 -11 -90
c0 -129 76 -199 215 -199c57 0 120 11 168 30v453h166v-205c22 -11 47 -17 76 -17s55 6 77 17v205h166v-205c22 -11 47 -17 76 -17s55 6 77 17v312z" />
    <glyph glyph-name="uni0634" unicode="&#x634;" horiz-adv-x="1480" 
d="M1244 503h166v-411c-49 -56 -128 -96 -211 -96c-58 0 -110 17 -156 52c-40 -32 -95 -52 -155 -52c-47 0 -89 13 -124 40v-202c-38 -24 -88 -46 -149 -66c-61 -21 -126 -31 -195 -31c-221 0 -359 130 -359 339c0 50 7 102 22 155l151 -29c-7 -34 -11 -64 -11 -90
c0 -129 76 -199 215 -199c57 0 120 11 168 30v453h166v-205c22 -11 47 -17 76 -17s55 6 77 17v205h166v-205c22 -11 47 -17 76 -17s55 6 77 17v312zM932 712c0 41 33 75 74 75s74 -34 74 -75s-33 -75 -74 -75s-74 34 -74 75zM841 559c0 43 34 75 75 75s74 -34 74 -75
s-33 -74 -74 -74s-75 33 -75 74zM1024 559c0 43 33 75 76 75c40 0 73 -34 73 -75s-33 -74 -73 -74c-43 0 -76 33 -76 74z" />
    <glyph glyph-name="uni0635" unicode="&#x635;" horiz-adv-x="1427" 
d="M1358 278v-278h-586v-155c-89 -59 -216 -108 -352 -108c-223 0 -359 130 -359 340c0 49 7 101 22 154l151 -29c-7 -34 -11 -64 -11 -90c0 -129 76 -199 215 -199c57 0 120 11 168 30v544h166v-98c115 119 212 175 327 175c147 0 259 -94 259 -286zM772 178h420v70
c0 40 -8 75 -25 105c-16 31 -47 46 -94 46c-85 0 -176 -62 -301 -203v-18z" />
    <glyph glyph-name="uni0636" unicode="&#x636;" horiz-adv-x="1427" 
d="M1358 278v-278h-586v-155c-89 -59 -216 -108 -352 -108c-223 0 -359 130 -359 340c0 49 7 101 22 154l151 -29c-7 -34 -11 -64 -11 -90c0 -129 76 -199 215 -199c57 0 120 11 168 30v544h166v-98c115 119 212 175 327 175c147 0 259 -94 259 -286zM772 178h420v70
c0 40 -8 75 -25 105c-16 31 -47 46 -94 46c-85 0 -176 -62 -301 -203v-18zM828 715c0 49 39 88 88 88c48 0 87 -39 87 -88c0 -48 -39 -87 -87 -87c-49 0 -88 39 -88 87z" />
    <glyph glyph-name="uni0637" unicode="&#x637;" horiz-adv-x="952" 
d="M883 278v-278h-842v178h90v548h166v-337c115 119 212 175 327 175c147 0 259 -94 259 -286zM297 178h420v70c0 40 -8 75 -25 105c-16 31 -47 46 -94 46c-85 0 -176 -62 -301 -203v-18z" />
    <glyph glyph-name="uni0638" unicode="&#x638;" horiz-adv-x="952" 
d="M883 278v-278h-842v178h90v548h166v-337c115 119 212 175 327 175c147 0 259 -94 259 -286zM297 178h420v70c0 40 -8 75 -25 105c-16 31 -47 46 -94 46c-85 0 -176 -62 -301 -203v-18zM426 730c0 49 39 88 88 88c48 0 87 -39 87 -88c0 -48 -39 -87 -87 -87
c-49 0 -88 39 -88 87z" />
    <glyph glyph-name="uni0639" unicode="&#x639;" horiz-adv-x="732" 
d="M515 178h104v-178h-322c-64 0 -105 -29 -105 -78s41 -79 105 -79h156v-177h-112c-209 0 -331 91 -331 248c0 135 89 217 244 240c-53 44 -82 106 -82 177c0 144 125 233 282 233c92 0 173 -32 230 -88l-114 -111c-24 25 -62 41 -105 41c-72 0 -122 -43 -122 -108
c0 -75 61 -120 172 -120z" />
    <glyph glyph-name="uni063A" unicode="&#x63a;" horiz-adv-x="732" 
d="M515 178h104v-178h-322c-64 0 -105 -29 -105 -78s41 -79 105 -79h156v-177h-112c-209 0 -331 91 -331 248c0 135 89 217 244 240c-53 44 -82 106 -82 177c0 144 125 233 282 233c92 0 173 -32 230 -88l-114 -111c-24 25 -62 41 -105 41c-72 0 -122 -43 -122 -108
c0 -75 61 -120 172 -120zM366 715c0 49 39 88 88 88c48 0 87 -39 87 -88c0 -48 -39 -87 -87 -87c-49 0 -88 39 -88 87z" />
    <glyph glyph-name="uni0641" unicode="&#x641;" horiz-adv-x="1261" 
d="M1191 499v-429c-72 -41 -200 -70 -348 -70h-472c-200 0 -308 73 -308 256c0 58 11 120 32 186l153 -28c-13 -40 -20 -76 -20 -107c0 -87 48 -129 151 -129h415c-57 36 -94 93 -94 172c0 139 112 216 262 216c83 0 159 -22 229 -67zM868 321c0 -65 64 -105 156 -114v184
c-20 7 -41 11 -63 11c-57 0 -93 -32 -93 -81zM873 715c0 49 39 88 88 88c48 0 87 -39 87 -88c0 -48 -39 -87 -87 -87c-49 0 -88 39 -88 87z" />
    <glyph glyph-name="uni06A4" unicode="&#x6a4;" horiz-adv-x="1261" 
d="M1191 499v-429c-72 -41 -200 -70 -348 -70h-472c-200 0 -308 73 -308 256c0 58 11 120 32 186l153 -28c-13 -40 -20 -76 -20 -107c0 -87 48 -129 151 -129h415c-57 36 -94 93 -94 172c0 139 112 216 262 216c83 0 159 -22 229 -67zM868 321c0 -65 64 -105 156 -114v184
c-20 7 -41 11 -63 11c-57 0 -93 -32 -93 -81zM886 856c0 41 33 75 74 75s74 -34 74 -75s-33 -75 -74 -75s-74 34 -74 75zM795 703c0 43 34 75 75 75s74 -34 74 -75s-33 -74 -74 -74s-75 33 -75 74zM978 703c0 43 33 75 76 75c40 0 73 -34 73 -75s-33 -74 -73 -74
c-43 0 -76 33 -76 74z" />
    <glyph glyph-name="uni06A1" unicode="&#x6a1;" horiz-adv-x="1261" 
d="M1191 499v-429c-72 -41 -200 -70 -348 -70h-472c-200 0 -308 73 -308 256c0 58 11 120 32 186l153 -28c-13 -40 -20 -76 -20 -107c0 -87 48 -129 151 -129h415c-57 36 -94 93 -94 172c0 139 112 216 262 216c83 0 159 -22 229 -67zM868 321c0 -65 64 -105 156 -114v184
c-20 7 -41 11 -63 11c-57 0 -93 -32 -93 -81z" />
    <glyph glyph-name="uni066F" unicode="&#x66f;" horiz-adv-x="899" 
d="M829 451v-609c-43 -31 -99 -56 -168 -75c-69 -20 -140 -30 -214 -30c-243 0 -386 135 -386 340c0 49 8 101 23 154l151 -30c-8 -27 -12 -57 -12 -88c0 -135 88 -200 244 -200c68 0 133 10 196 29v66h-41c-197 0 -301 92 -301 240c0 150 102 256 279 256
c77 0 153 -18 229 -53zM594 178h69v156c-23 10 -48 15 -73 15c-61 0 -101 -31 -101 -87c0 -55 40 -84 105 -84z" />
    <glyph glyph-name="uni0642" unicode="&#x642;" horiz-adv-x="899" 
d="M829 451v-609c-43 -31 -99 -56 -168 -75c-69 -20 -140 -30 -214 -30c-243 0 -386 135 -386 340c0 49 8 101 23 154l151 -30c-8 -27 -12 -57 -12 -88c0 -135 88 -200 244 -200c68 0 133 10 196 29v66h-41c-197 0 -301 92 -301 240c0 150 102 256 279 256
c77 0 153 -18 229 -53zM594 178h69v156c-23 10 -48 15 -73 15c-61 0 -101 -31 -101 -87c0 -55 40 -84 105 -84zM412 653c0 49 38 88 87 88c48 0 87 -39 87 -88c0 -48 -39 -87 -87 -87c-49 0 -87 39 -87 87zM617 653c0 49 38 88 87 88c48 0 86 -39 86 -88
c0 -48 -38 -87 -86 -87c-49 0 -87 39 -87 87z" />
    <glyph glyph-name="uni0643" unicode="&#x643;" horiz-adv-x="1113" 
d="M873 730h166v-660c-71 -41 -198 -70 -347 -70h-321c-200 0 -308 73 -308 256c0 58 11 120 32 186l153 -28c-13 -40 -20 -76 -20 -107c0 -87 48 -129 151 -129h342c65 0 124 9 152 25v527zM658 459v-93h-220v93h48c-15 17 -22 36 -22 58c0 51 38 92 97 92
c37 0 70 -18 90 -39l-52 -52c-9 7 -18 11 -29 11c-19 0 -32 -13 -32 -32c0 -23 19 -38 56 -38h64z" />
    <glyph glyph-name="uni06A9" unicode="&#x6a9;" horiz-adv-x="1126" 
d="M1060 229v-158c-41 -24 -92 -42 -154 -54c-62 -11 -123 -17 -184 -17h-351c-200 0 -308 73 -308 256c0 58 11 120 32 186l153 -28c-13 -40 -20 -76 -20 -107c0 -87 48 -129 151 -129h361c68 0 125 10 154 26v22c-4 54 -26 67 -143 99l-156 43l-35 130l368 272l84 -105
l-248 -183l75 -21c175 -53 216 -90 221 -232z" />
    <glyph glyph-name="uni06AF" unicode="&#x6af;" horiz-adv-x="1126" 
d="M856 782l-310 -228l-19 70l288 212zM1060 229v-158c-41 -24 -92 -42 -154 -54c-62 -11 -123 -17 -184 -17h-351c-200 0 -308 73 -308 256c0 58 11 120 32 186l153 -28c-13 -40 -20 -76 -20 -107c0 -87 48 -129 151 -129h361c68 0 125 10 154 26v22c-4 54 -26 67 -143 99
l-156 43l-35 130l368 272l84 -105l-248 -183l75 -21c175 -53 216 -90 221 -232z" />
    <glyph glyph-name="uni0644" unicode="&#x644;" horiz-adv-x="843" 
d="M603 730h167v-893c-39 -24 -91 -47 -154 -68s-129 -32 -197 -32c-220 0 -358 129 -358 339c0 51 7 103 22 156l151 -29c-7 -34 -11 -64 -11 -90c0 -133 76 -200 213 -200c57 0 120 11 167 30v787z" />
    <glyph glyph-name="uni0645" unicode="&#x645;" horiz-adv-x="739" 
d="M692 250c0 -149 -110 -260 -259 -260c-43 0 -83 9 -118 27l-3 1c-25 11 -47 17 -68 17c-39 0 -58 -18 -58 -53c0 -97 7 -205 22 -324h-165c-15 121 -22 230 -22 329c0 117 56 166 168 166h1c-11 31 -17 63 -17 97c0 149 111 260 260 260s259 -111 259 -260zM525 250
c0 55 -35 95 -94 95c-56 0 -91 -42 -91 -95s36 -95 91 -95c57 0 94 42 94 95z" />
    <glyph glyph-name="uni0646" unicode="&#x646;" horiz-adv-x="847" 
d="M61 77c0 48 7 99 22 154l152 -30c-8 -32 -12 -61 -12 -88c0 -133 80 -200 216 -200c55 0 110 10 167 30v453h173v-551c-43 -31 -97 -56 -161 -77s-130 -31 -197 -31c-226 0 -360 135 -360 340zM304 418c0 49 39 88 88 88c48 0 87 -39 87 -88c0 -48 -39 -87 -87 -87
c-49 0 -88 39 -88 87z" />
    <glyph glyph-name="uni06BA" unicode="&#x6ba;" horiz-adv-x="849" 
d="M61 77c0 48 7 99 22 154l152 -30c-8 -32 -12 -61 -12 -88c0 -133 80 -200 216 -200c55 0 110 10 167 30v453h173v-551c-43 -31 -97 -56 -161 -77s-130 -31 -197 -31c-226 0 -360 135 -360 340z" />
    <glyph glyph-name="uni0647" unicode="&#x647;" horiz-adv-x="612" 
d="M46 250c0 149 111 260 260 260s260 -111 260 -260s-111 -260 -260 -260c-148 0 -260 111 -260 260zM399 250c0 55 -36 97 -95 97c-55 0 -90 -42 -90 -97s35 -96 90 -96c59 0 95 41 95 96z" />
    <glyph glyph-name="uni06C1" unicode="&#x6c1;" horiz-adv-x="612" 
d="M46 250c0 149 111 260 260 260s260 -111 260 -260s-111 -260 -260 -260c-148 0 -260 111 -260 260zM399 250c0 55 -36 97 -95 97c-55 0 -90 -42 -90 -97s35 -96 90 -96c59 0 95 41 95 96z" />
    <glyph glyph-name="uni06C2" unicode="&#x6c2;" horiz-adv-x="612" 
d="M46 250c0 149 111 260 260 260s260 -111 260 -260s-111 -260 -260 -260c-148 0 -260 111 -260 260zM399 250c0 55 -36 97 -95 97c-55 0 -90 -42 -90 -97s35 -96 90 -96c59 0 95 41 95 96zM352 673h64v-92h-221v92h49c-15 17 -22 36 -22 58c0 52 38 93 97 93
c36 0 70 -18 89 -39l-51 -53c-9 8 -19 12 -30 12c-19 0 -32 -13 -32 -32c0 -23 20 -39 57 -39z" />
    <glyph glyph-name="uni06BE" unicode="&#x6be;" horiz-adv-x="868" 
d="M804 252v-252h-748c-11 0 -16 1 -16 2v176h140c-25 32 -37 70 -37 114c0 117 93 184 208 184c119 0 210 -69 210 -184c0 -45 -13 -83 -38 -116h115v86c0 189 -110 276 -283 276c-47 0 -89 -4 -128 -13v153c40 7 84 10 133 10c139 0 247 -36 326 -107s118 -181 118 -329z
M288 261c0 -44 21 -73 64 -82c43 9 63 38 63 82c0 45 -26 72 -63 72c-39 0 -64 -27 -64 -72z" />
    <glyph glyph-name="uni0629" unicode="&#x629;" horiz-adv-x="612" 
d="M46 250c0 149 111 260 260 260s260 -111 260 -260s-111 -260 -260 -260c-148 0 -260 111 -260 260zM399 250c0 55 -36 97 -95 97c-55 0 -90 -42 -90 -97s35 -96 90 -96c59 0 95 41 95 96zM117 659c0 49 38 88 87 88c48 0 87 -39 87 -88c0 -48 -39 -87 -87 -87
c-49 0 -87 39 -87 87zM322 659c0 49 38 88 87 88c48 0 86 -39 86 -88c0 -48 -38 -87 -86 -87c-49 0 -87 39 -87 87z" />
    <glyph glyph-name="uni06C3" unicode="&#x6c3;" horiz-adv-x="612" 
d="M46 250c0 149 111 260 260 260s260 -111 260 -260s-111 -260 -260 -260c-148 0 -260 111 -260 260zM399 250c0 55 -36 97 -95 97c-55 0 -90 -42 -90 -97s35 -96 90 -96c59 0 95 41 95 96zM117 659c0 49 38 88 87 88c48 0 87 -39 87 -88c0 -48 -39 -87 -87 -87
c-49 0 -87 39 -87 87zM322 659c0 49 38 88 87 88c48 0 86 -39 86 -88c0 -48 -38 -87 -86 -87c-49 0 -87 39 -87 87z" />
    <glyph glyph-name="uni0648" unicode="&#x648;" horiz-adv-x="624" 
d="M554 451v-407c0 -108 -28 -186 -83 -234c-55 -49 -130 -73 -225 -73c-67 0 -129 9 -186 27l31 159c55 -17 108 -25 160 -25c99 0 134 35 137 102h-41c-197 0 -301 104 -301 248c0 150 102 256 280 256c78 0 154 -18 228 -53zM319 178h69v156c-23 10 -48 15 -73 15
c-61 0 -101 -30 -101 -87c0 -53 40 -84 105 -84z" />
    <glyph glyph-name="uni0624" unicode="&#x624;" horiz-adv-x="624" 
d="M554 451v-407c0 -108 -28 -186 -83 -234c-55 -49 -130 -73 -225 -73c-67 0 -129 9 -186 27l31 159c55 -17 108 -25 160 -25c99 0 134 35 137 102h-41c-197 0 -301 104 -301 248c0 150 102 256 280 256c78 0 154 -18 228 -53zM319 178h69v156c-23 10 -48 15 -73 15
c-61 0 -101 -30 -101 -87c0 -53 40 -84 105 -84zM372 665h64v-92h-221v92h49c-15 17 -22 36 -22 58c0 52 38 93 97 93c36 0 70 -18 89 -39l-51 -53c-9 8 -19 12 -30 12c-19 0 -32 -13 -32 -32c0 -23 20 -39 57 -39z" />
    <glyph glyph-name="uni0649" unicode="&#x649;" horiz-adv-x="1132" 
d="M715 223c0 -9 1 -17 4 -26l102 -342c-47 -29 -107 -56 -178 -81s-143 -37 -218 -37c-222 0 -364 131 -364 338c0 49 7 101 22 156l151 -29c-7 -28 -11 -58 -11 -90c0 -131 77 -199 216 -199c29 0 62 3 99 9s68 13 91 22l-74 237c-9 30 -14 57 -14 81c0 53 18 95 55 125
c37 31 84 46 141 46h238l113 -398l-154 -40l-80 273h-81c-37 0 -58 -16 -58 -45z" />
    <glyph glyph-name="uni064A" unicode="&#x64a;" horiz-adv-x="1132" 
d="M715 223c0 -9 1 -17 4 -26l102 -342c-47 -29 -107 -56 -178 -81s-143 -37 -218 -37c-222 0 -364 131 -364 338c0 49 7 101 22 156l151 -29c-7 -28 -11 -58 -11 -90c0 -131 77 -199 216 -199c29 0 62 3 99 9s68 13 91 22l-74 237c-9 30 -14 57 -14 81c0 53 18 95 55 125
c37 31 84 46 141 46h238l113 -398l-154 -40l-80 273h-81c-37 0 -58 -16 -58 -45zM229 -415c0 49 38 88 87 88c48 0 87 -39 87 -88c0 -48 -39 -87 -87 -87c-49 0 -87 39 -87 87zM434 -415c0 49 38 88 87 88c48 0 86 -39 86 -88c0 -48 -38 -87 -86 -87c-49 0 -87 39 -87 87z
" />
    <glyph glyph-name="uni0626" unicode="&#x626;" horiz-adv-x="1132" 
d="M715 223c0 -9 1 -17 4 -26l102 -342c-47 -29 -107 -56 -178 -81s-143 -37 -218 -37c-222 0 -364 131 -364 338c0 49 7 101 22 156l151 -29c-7 -28 -11 -58 -11 -90c0 -131 77 -199 216 -199c29 0 62 3 99 9s68 13 91 22l-74 237c-9 30 -14 57 -14 81c0 53 18 95 55 125
c37 31 84 46 141 46h238l113 -398l-154 -40l-80 273h-81c-37 0 -58 -16 -58 -45zM247 399h64v-92h-221v92h49c-15 17 -22 36 -22 58c0 52 38 93 97 93c36 0 70 -18 89 -39l-51 -53c-9 8 -19 12 -30 12c-19 0 -32 -13 -32 -32c0 -23 20 -39 57 -39z" />
    <glyph glyph-name="uni06CC" unicode="&#x6cc;" horiz-adv-x="1134" 
d="M715 223c0 -9 1 -17 4 -26l102 -342c-47 -29 -107 -56 -178 -81s-143 -37 -218 -37c-222 0 -364 131 -364 338c0 49 7 101 22 156l151 -29c-7 -28 -11 -58 -11 -90c0 -131 77 -199 216 -199c29 0 62 3 99 9s68 13 91 22l-74 237c-9 30 -14 57 -14 81c0 53 18 95 55 125
c37 31 84 46 141 46h238l113 -398l-154 -40l-80 273h-81c-37 0 -58 -16 -58 -45z" />
    <glyph glyph-name="uni06D2" unicode="&#x6d2;" horiz-adv-x="859" 
d="M65 117c0 67 18 115 55 144c37 30 80 52 131 65l90 22c44 12 57 29 57 77v71h166v-123c0 -77 -16 -139 -136 -169l-157 -40c-26 -7 -39 -20 -39 -37c0 -21 14 -31 51 -31h541v-177h-483c-189 0 -276 59 -276 198z" />
    <glyph glyph-name="uni06D3" unicode="&#x6d3;" horiz-adv-x="859" 
d="M65 117c0 67 18 115 55 144c37 30 80 52 131 65l90 22c44 12 57 29 57 77v71h166v-123c0 -77 -16 -139 -136 -169l-157 -40c-26 -7 -39 -20 -39 -37c0 -21 14 -31 51 -31h541v-177h-483c-189 0 -276 59 -276 198zM193 490h64v-92h-221v92h49c-15 17 -22 36 -22 58
c0 52 38 93 97 93c36 0 70 -18 89 -39l-51 -53c-9 8 -19 12 -30 12c-19 0 -32 -13 -32 -32c0 -23 20 -39 57 -39z" />
    <glyph glyph-name="uni0640" unicode="&#x640;" horiz-adv-x="250" 
d="M266 178v-176c0 -1 -5 -2 -16 -2h-250c-11 0 -16 1 -16 2v176h282z" />
    <glyph glyph-name="zero" unicode="0" horiz-adv-x="721" 
d="M680 340c0 -215 -124 -350 -319 -350c-197 0 -319 135 -319 350s122 350 319 350c195 0 319 -135 319 -350zM235 340c0 -112 47 -180 126 -180c77 0 126 69 126 180c0 112 -49 181 -126 181s-126 -69 -126 -181z" />
    <glyph glyph-name="zero.lf" horiz-adv-x="721" 
d="M680 340c0 -215 -124 -350 -319 -350c-197 0 -319 135 -319 350s122 350 319 350c195 0 319 -135 319 -350zM235 340c0 -112 47 -180 126 -180c77 0 126 69 126 180c0 112 -49 181 -126 181s-126 -69 -126 -181z" />
    <glyph glyph-name="zero.osf" horiz-adv-x="644" 
d="M607 250c3 -145 -126 -263 -285 -260c-161 0 -284 113 -284 260s123 260 284 260c159 3 288 -115 285 -260zM213 250c0 -64 45 -108 109 -108c65 0 109 44 109 108s-44 109 -109 109c-63 0 -109 -45 -109 -109z" />
    <glyph glyph-name="zero.tf" horiz-adv-x="600" 
d="M587 340c0 -215 -112 -350 -287 -350s-287 135 -287 350s112 350 287 350s287 -135 287 -350zM196 340c0 -112 40 -180 104 -180s105 69 105 180c0 112 -41 181 -105 181s-104 -69 -104 -181z" />
    <glyph glyph-name="zero.tosf" horiz-adv-x="617" 
d="M593 250c3 -145 -126 -263 -285 -260c-161 0 -284 113 -284 260s123 260 284 260c159 3 288 -115 285 -260zM199 250c0 -64 45 -108 109 -108c65 0 109 44 109 108s-44 109 -109 109c-63 0 -109 -45 -109 -109z" />
    <glyph glyph-name="one" unicode="1" horiz-adv-x="417" 
d="M358 681v-681h-189v515l-120 -27l-33 140l194 53h148z" />
    <glyph glyph-name="one.lf" horiz-adv-x="417" 
d="M358 681v-681h-189v515l-120 -27l-33 140l194 53h148z" />
    <glyph glyph-name="one.osf" horiz-adv-x="405" 
d="M355 500v-500h-189v334l-120 -26l-33 140l194 52h148z" />
    <glyph glyph-name="one.tf" horiz-adv-x="543" 
d="M409 681v-681h-189v515l-120 -27l-33 140l194 53h148z" />
    <glyph glyph-name="one.tosf" horiz-adv-x="534" 
d="M410 500v-500h-189v334l-120 -26l-33 140l194 52h148z" />
    <glyph glyph-name="two" unicode="2" horiz-adv-x="608" 
d="M316 155h266v-155h-555v142l300 228c37 29 52 54 52 86c0 40 -30 68 -77 68c-53 0 -111 -31 -158 -83l-119 102c63 92 170 147 289 147c152 0 259 -93 259 -223c0 -85 -39 -145 -176 -248z" />
    <glyph glyph-name="two.lf" horiz-adv-x="608" 
d="M316 155h266v-155h-555v142l300 228c37 29 52 54 52 86c0 40 -30 68 -77 68c-53 0 -111 -31 -158 -83l-119 102c63 92 170 147 289 147c152 0 259 -93 259 -223c0 -85 -39 -145 -176 -248z" />
    <glyph glyph-name="two.osf" horiz-adv-x="566" 
d="M328 141h197v-141h-485v113l252 156c29 19 44 40 44 63c0 27 -21 42 -56 42c-44 0 -96 -24 -140 -67l-106 93c69 73 154 110 254 110c135 0 229 -68 229 -167c0 -32 -10 -61 -31 -86s-57 -53 -110 -86z" />
    <glyph glyph-name="two.tf" horiz-adv-x="600" 
d="M312 155h266v-155h-555v142l300 228c37 29 52 54 52 86c0 40 -30 68 -77 68c-53 0 -111 -31 -158 -83l-119 102c63 92 170 147 289 147c152 0 259 -93 259 -223c0 -85 -39 -145 -176 -248z" />
    <glyph glyph-name="two.tosf" horiz-adv-x="598" 
d="M346 141h197v-141h-485v113l252 156c29 19 44 40 44 63c0 27 -21 42 -56 42c-44 0 -96 -24 -140 -67l-106 93c69 73 154 110 254 110c135 0 229 -68 229 -167c0 -32 -10 -61 -31 -86s-57 -53 -110 -86z" />
    <glyph glyph-name="three" unicode="3" horiz-adv-x="627" 
d="M586 213c0 -129 -112 -223 -273 -223c-101 0 -194 32 -287 101l114 122c44 -37 106 -61 158 -61c60 0 98 30 98 77c0 44 -33 67 -96 67c-22 0 -57 -5 -105 -15l-30 102l171 143h-263v154h493v-135l-161 -135c53 -5 96 -26 130 -63c34 -36 51 -81 51 -134z" />
    <glyph glyph-name="three.lf" horiz-adv-x="627" 
d="M586 213c0 -129 -112 -223 -273 -223c-101 0 -194 32 -287 101l114 122c44 -37 106 -61 158 -61c60 0 98 30 98 77c0 44 -33 67 -96 67c-22 0 -57 -5 -105 -15l-30 102l171 143h-263v154h493v-135l-161 -135c53 -5 96 -26 130 -63c34 -36 51 -81 51 -134z" />
    <glyph glyph-name="three.osf" horiz-adv-x="627" 
d="M597 22c0 -132 -120 -227 -287 -227c-104 0 -192 31 -288 102l112 128c45 -41 109 -68 164 -68c61 0 100 33 100 84c0 49 -33 74 -99 74c-27 0 -64 -5 -109 -16l-25 104l171 143h-263v154h493v-135l-160 -135c108 -12 191 -99 191 -208z" />
    <glyph glyph-name="three.tf" horiz-adv-x="605" 
d="M580 213c0 -129 -112 -223 -273 -223c-101 0 -194 32 -287 101l114 122c44 -37 106 -61 158 -61c60 0 98 30 98 77c0 44 -33 67 -96 67c-22 0 -57 -5 -105 -15l-30 102l171 143h-263v154h493v-135l-161 -135c53 -5 96 -26 130 -63c34 -36 51 -81 51 -134z" />
    <glyph glyph-name="three.tosf" horiz-adv-x="605" 
d="M587 22c0 -132 -120 -227 -287 -227c-104 0 -192 31 -288 102l112 128c45 -41 109 -68 164 -68c61 0 100 33 100 84c0 49 -33 74 -99 74c-27 0 -64 -5 -109 -16l-25 104l171 143h-263v154h493v-135l-160 -135c108 -12 191 -99 191 -208z" />
    <glyph glyph-name="four" unicode="4" horiz-adv-x="673" 
d="M559 274h90v-143h-90v-131h-189v131h-325l-25 146l322 403h217v-406zM222 274h149v192z" />
    <glyph glyph-name="four.lf" horiz-adv-x="673" 
d="M559 274h90v-143h-90v-131h-189v131h-325l-25 146l322 403h217v-406zM222 274h149v192z" />
    <glyph glyph-name="four.osf" horiz-adv-x="652" 
d="M543 141h91v-151h-91v-185h-189v185h-310l-25 147l307 363h217v-359zM217 141h138v166z" />
    <glyph glyph-name="four.tf" horiz-adv-x="600" 
d="M509 274h81v-143h-81v-131h-183v131h-294l-23 146l299 403h201v-406zM187 274h140v193z" />
    <glyph glyph-name="four.tosf" horiz-adv-x="600" 
d="M521 141h83v-151h-83v-185h-189v185h-310l-25 147l308 363h216v-359zM195 141h138v166z" />
    <glyph glyph-name="five" unicode="5" horiz-adv-x="618" 
d="M590 228c0 -145 -109 -238 -278 -238c-108 0 -209 38 -282 110l94 117c49 -41 117 -67 173 -67c64 0 104 33 104 85c0 49 -38 83 -98 83c-43 0 -85 -18 -116 -47l-116 60l17 349h470v-154h-310l-5 -99c38 11 73 16 106 16c149 0 241 -83 241 -215z" />
    <glyph glyph-name="five.lf" horiz-adv-x="618" 
d="M590 228c0 -145 -109 -238 -278 -238c-108 0 -209 38 -282 110l94 117c49 -41 117 -67 173 -67c64 0 104 33 104 85c0 49 -38 83 -98 83c-43 0 -85 -18 -116 -47l-116 60l17 349h470v-154h-310l-5 -99c38 11 73 16 106 16c149 0 241 -83 241 -215z" />
    <glyph glyph-name="five.osf" horiz-adv-x="618" 
d="M585 35c0 -145 -109 -240 -277 -240c-109 0 -210 38 -283 111l94 116c48 -41 116 -67 173 -67c64 0 105 34 105 86c0 51 -39 85 -99 85c-43 0 -84 -17 -116 -48l-116 61l18 361h469v-154h-309l-5 -110c38 11 73 16 106 16c148 0 240 -84 240 -217z" />
    <glyph glyph-name="five.tf" horiz-adv-x="603" 
d="M581 228c0 -145 -109 -238 -278 -238c-108 0 -209 38 -282 110l94 117c49 -41 117 -67 173 -67c64 0 104 33 104 85c0 49 -38 83 -98 83c-43 0 -85 -18 -116 -47l-116 60l17 349h470v-154h-310l-5 -99c38 11 73 16 106 16c149 0 241 -83 241 -215z" />
    <glyph glyph-name="five.tosf" horiz-adv-x="603" 
d="M574 35c0 -145 -109 -240 -277 -240c-109 0 -210 38 -283 111l94 116c48 -41 116 -67 173 -67c64 0 105 34 105 86c0 51 -39 85 -99 85c-43 0 -84 -17 -116 -48l-116 61l18 361h469v-154h-309l-5 -110c38 11 73 16 106 16c148 0 240 -84 240 -217z" />
    <glyph glyph-name="six" unicode="6" horiz-adv-x="633" 
d="M608 235c0 -139 -117 -245 -278 -245c-178 0 -289 128 -289 345c0 225 114 355 309 355c87 0 164 -23 233 -70l-79 -122c-39 25 -85 40 -132 40c-84 0 -129 -46 -140 -149c44 32 95 48 154 48c131 0 222 -83 222 -202zM430 226c0 53 -36 90 -91 90
c-45 0 -80 -21 -105 -64c12 -83 46 -119 103 -119c59 0 93 36 93 93z" />
    <glyph glyph-name="six.lf" horiz-adv-x="633" 
d="M608 235c0 -139 -117 -245 -278 -245c-178 0 -289 128 -289 345c0 225 114 355 309 355c87 0 164 -23 233 -70l-79 -122c-39 25 -85 40 -132 40c-84 0 -129 -46 -140 -149c44 32 95 48 154 48c131 0 222 -83 222 -202zM430 226c0 53 -36 90 -91 90
c-45 0 -80 -21 -105 -64c12 -83 46 -119 103 -119c59 0 93 36 93 93z" />
    <glyph glyph-name="six.osf" horiz-adv-x="634" 
d="M608 235c0 -139 -117 -245 -278 -245c-178 0 -289 128 -289 345c0 225 114 355 309 355c87 0 164 -23 233 -70l-79 -122c-39 25 -85 40 -132 40c-84 0 -129 -46 -140 -149c44 32 95 48 154 48c131 0 222 -83 222 -202zM430 226c0 53 -36 90 -91 90
c-45 0 -80 -21 -105 -64c12 -83 46 -119 103 -119c59 0 93 36 93 93z" />
    <glyph glyph-name="six.tf" horiz-adv-x="609" 
d="M590 235c0 -139 -117 -245 -278 -245c-178 0 -289 128 -289 345c0 225 114 355 309 355c87 0 164 -23 233 -70l-79 -122c-39 25 -85 40 -132 40c-84 0 -129 -46 -140 -149c44 32 95 48 154 48c131 0 222 -83 222 -202zM412 226c0 53 -36 90 -91 90
c-45 0 -80 -21 -105 -64c12 -83 46 -119 103 -119c59 0 93 36 93 93z" />
    <glyph glyph-name="six.tosf" horiz-adv-x="609" 
d="M590 235c0 -139 -117 -245 -278 -245c-178 0 -289 128 -289 345c0 225 114 355 309 355c87 0 164 -23 233 -70l-79 -122c-39 25 -85 40 -132 40c-84 0 -129 -46 -140 -149c44 32 95 48 154 48c131 0 222 -83 222 -202zM412 226c0 53 -36 90 -91 90
c-45 0 -80 -21 -105 -64c12 -83 46 -119 103 -119c59 0 93 36 93 93z" />
    <glyph glyph-name="seven" unicode="7" horiz-adv-x="579" 
d="M24 680h538v-148l-300 -532h-213l298 517h-323v163z" />
    <glyph glyph-name="seven.lf" horiz-adv-x="579" 
d="M24 680h538v-148l-300 -532h-213l298 517h-323v163z" />
    <glyph glyph-name="seven.osf" horiz-adv-x="580" 
d="M24 500h538v-148l-300 -547h-213l299 532h-324v163z" />
    <glyph glyph-name="seven.tf" horiz-adv-x="592" 
d="M29 680h538v-148l-300 -532h-213l298 517h-323v163z" />
    <glyph glyph-name="seven.tosf" horiz-adv-x="592" 
d="M27 500h538v-148l-300 -547h-213l299 532h-324v163z" />
    <glyph glyph-name="eight" unicode="8" horiz-adv-x="658" 
d="M618 189c0 -114 -118 -199 -288 -199s-288 85 -288 199c0 76 45 136 122 169c-63 31 -100 83 -100 148c0 105 114 184 266 184s266 -79 266 -184c0 -65 -37 -117 -100 -148c77 -33 122 -93 122 -169zM238 478c0 -47 36 -74 92 -74c55 0 91 27 91 74c0 44 -35 75 -91 75
s-92 -31 -92 -75zM430 210c0 51 -39 81 -100 81s-101 -32 -101 -81c0 -48 38 -80 101 -80c61 0 100 32 100 80z" />
    <glyph glyph-name="eight.lf" horiz-adv-x="658" 
d="M618 189c0 -114 -118 -199 -288 -199s-288 85 -288 199c0 76 45 136 122 169c-63 31 -100 83 -100 148c0 105 114 184 266 184s266 -79 266 -184c0 -65 -37 -117 -100 -148c77 -33 122 -93 122 -169zM238 478c0 -47 36 -74 92 -74c55 0 91 27 91 74c0 44 -35 75 -91 75
s-92 -31 -92 -75zM430 210c0 51 -39 81 -100 81s-101 -32 -101 -81c0 -48 38 -80 101 -80c61 0 100 32 100 80z" />
    <glyph glyph-name="eight.osf" horiz-adv-x="659" 
d="M618 189c0 -114 -118 -199 -288 -199s-288 85 -288 199c0 76 45 136 122 169c-63 31 -100 83 -100 148c0 105 114 184 266 184s266 -79 266 -184c0 -65 -37 -117 -100 -148c77 -33 122 -93 122 -169zM238 478c0 -47 36 -74 92 -74c55 0 91 27 91 74c0 44 -35 75 -91 75
s-92 -31 -92 -75zM430 210c0 51 -39 81 -100 81s-101 -32 -101 -81c0 -48 38 -80 101 -80c61 0 100 32 100 80z" />
    <glyph glyph-name="eight.tf" horiz-adv-x="616" 
d="M596 189c0 -114 -118 -199 -288 -199s-288 85 -288 199c0 76 45 136 122 169c-63 31 -100 83 -100 148c0 105 114 184 266 184s266 -79 266 -184c0 -65 -37 -117 -100 -148c77 -33 122 -93 122 -169zM216 478c0 -47 36 -74 92 -74c55 0 91 27 91 74c0 44 -35 75 -91 75
s-92 -31 -92 -75zM408 210c0 51 -39 81 -100 81s-101 -32 -101 -81c0 -48 38 -80 101 -80c61 0 100 32 100 80z" />
    <glyph glyph-name="eight.tosf" horiz-adv-x="616" 
d="M596 189c0 -114 -118 -199 -288 -199s-288 85 -288 199c0 76 45 136 122 169c-63 31 -100 83 -100 148c0 105 114 184 266 184s266 -79 266 -184c0 -65 -37 -117 -100 -148c77 -33 122 -93 122 -169zM216 478c0 -47 36 -74 92 -74c55 0 91 27 91 74c0 44 -35 75 -91 75
s-92 -31 -92 -75zM408 210c0 51 -39 81 -100 81s-101 -32 -101 -81c0 -48 38 -80 101 -80c61 0 100 32 100 80z" />
    <glyph glyph-name="nine" unicode="9" horiz-adv-x="633" 
d="M593 346c0 -225 -114 -356 -309 -356c-85 0 -162 23 -233 70l78 122c41 -27 86 -40 133 -40c84 0 128 46 139 149c-44 -32 -95 -48 -154 -48c-132 0 -221 83 -221 202c0 141 117 245 278 245c178 0 289 -129 289 -344zM399 428c-11 83 -45 119 -102 119
c-59 0 -93 -36 -93 -93c0 -55 36 -90 91 -90c44 0 80 23 104 64z" />
    <glyph glyph-name="nine.lf" horiz-adv-x="633" 
d="M593 346c0 -225 -114 -356 -309 -356c-85 0 -162 23 -233 70l78 122c41 -27 86 -40 133 -40c84 0 128 46 139 149c-44 -32 -95 -48 -154 -48c-132 0 -221 83 -221 202c0 141 117 245 278 245c178 0 289 -129 289 -344zM399 428c-11 83 -45 119 -102 119
c-59 0 -93 -36 -93 -93c0 -55 36 -90 91 -90c44 0 80 23 104 64z" />
    <glyph glyph-name="nine.osf" horiz-adv-x="634" 
d="M593 156c0 -229 -113 -361 -309 -361c-84 0 -165 25 -233 70l78 122c43 -27 87 -40 133 -40c87 0 129 51 140 164c-44 -32 -96 -48 -155 -48c-132 0 -221 83 -221 204c0 139 119 243 278 243c181 0 289 -131 289 -354zM399 248c-11 81 -44 119 -103 119
c-57 0 -92 -35 -92 -91s36 -92 91 -92c45 0 79 21 104 64z" />
    <glyph glyph-name="nine.tf" horiz-adv-x="609" 
d="M585 346c0 -225 -114 -356 -309 -356c-85 0 -162 23 -233 70l78 122c41 -27 86 -40 133 -40c84 0 128 46 139 149c-44 -32 -95 -48 -154 -48c-132 0 -221 83 -221 202c0 141 117 245 278 245c178 0 289 -129 289 -344zM391 428c-11 83 -45 119 -102 119
c-59 0 -93 -36 -93 -93c0 -55 36 -90 91 -90c44 0 80 23 104 64z" />
    <glyph glyph-name="nine.tosf" horiz-adv-x="609" 
d="M585 156c0 -229 -113 -361 -309 -361c-84 0 -165 25 -233 70l78 122c43 -27 87 -40 133 -40c87 0 129 51 140 164c-44 -32 -96 -48 -155 -48c-132 0 -221 83 -221 204c0 139 119 243 278 243c181 0 289 -131 289 -354zM391 248c-11 81 -44 119 -103 119
c-57 0 -92 -35 -92 -91s36 -92 91 -92c45 0 79 21 104 64z" />
    <glyph glyph-name="uni2080" unicode="&#x2080;" horiz-adv-x="427" 
d="M408 204c0 -63 -18 -113 -53 -152s-82 -58 -141 -58s-107 19 -142 58s-53 89 -53 152s18 113 53 152s83 58 142 58s106 -19 141 -58s53 -89 53 -152zM154 204c0 -63 23 -95 60 -95c36 0 59 34 59 95s-23 95 -59 95c-37 0 -60 -32 -60 -95z" />
    <glyph glyph-name="uni2081" unicode="&#x2081;" horiz-adv-x="279" 
d="M232 408v-408h-133v292l-65 -15l-24 99l123 32h99z" />
    <glyph glyph-name="uni2082" unicode="&#x2082;" horiz-adv-x="381" 
d="M261 140l-35 -28h132v-112h-342v90l171 134c22 16 33 31 33 46c0 20 -15 33 -39 33c-25 0 -58 -20 -89 -52l-79 71c47 60 109 92 180 92c95 0 166 -57 166 -136c0 -47 -25 -82 -98 -138z" />
    <glyph glyph-name="uni2083" unicode="&#x2083;" horiz-adv-x="381" 
d="M359 138c0 -43 -17 -77 -51 -104c-33 -27 -77 -40 -130 -40c-61 0 -118 20 -163 56l67 80c24 -19 52 -28 83 -28c35 0 56 13 56 36c0 24 -21 38 -56 38c-19 0 -38 -3 -55 -8l-17 62l85 71h-135v107h306v-89l-78 -69c55 -15 88 -56 88 -112z" />
    <glyph glyph-name="uni2084" unicode="&#x2084;" horiz-adv-x="411" 
d="M344 183h52v-106h-52v-77h-131v77h-189l-15 101l183 230h152v-225zM143 183h70v100z" />
    <glyph glyph-name="uni2085" unicode="&#x2085;" horiz-adv-x="385" 
d="M366 139c0 -86 -77 -145 -174 -145c-79 0 -134 17 -183 53l65 83c29 -19 59 -28 89 -28c39 0 61 15 61 43c0 24 -17 38 -45 38c-22 0 -40 -8 -53 -23l-87 44l10 204h294v-101h-176l-2 -46c15 3 30 5 43 5c95 0 158 -50 158 -127z" />
    <glyph glyph-name="uni2086" unicode="&#x2086;" horiz-adv-x="379" 
d="M362 139c0 -81 -73 -145 -168 -145c-107 0 -174 78 -174 203c0 132 74 217 191 217c53 0 104 -17 144 -48l-50 -80c-29 17 -55 25 -78 25c-39 0 -64 -24 -73 -68c23 12 48 18 77 18c79 0 131 -49 131 -122zM239 137c0 31 -15 49 -40 49c-20 0 -40 -12 -49 -29
c3 -47 20 -71 48 -71c27 0 41 19 41 51z" />
    <glyph glyph-name="uni2087" unicode="&#x2087;" horiz-adv-x="357" 
d="M13 408h332v-97l-173 -311h-151l168 295h-176v113z" />
    <glyph glyph-name="uni2088" unicode="&#x2088;" horiz-adv-x="393" 
d="M375 118c0 -37 -17 -67 -51 -90c-33 -23 -76 -34 -128 -34c-104 0 -178 51 -178 124c0 40 23 74 62 97c-33 21 -50 48 -50 83c0 67 71 116 166 116c96 0 167 -49 167 -116c0 -32 -18 -63 -49 -83c39 -23 61 -57 61 -97zM157 282c0 -24 15 -36 39 -36c27 0 40 12 40 36
c0 25 -15 39 -40 39c-24 0 -39 -14 -39 -39zM241 130c0 27 -15 40 -44 40s-45 -14 -45 -41c0 -25 16 -41 44 -41c29 0 45 15 45 42z" />
    <glyph glyph-name="uni2089" unicode="&#x2089;" horiz-adv-x="379" 
d="M359 211c0 -132 -74 -217 -191 -217c-53 0 -104 17 -144 48l50 80c29 -17 55 -25 78 -25c39 0 65 25 73 68c-24 -11 -50 -17 -77 -17c-77 0 -131 49 -131 121c0 81 73 145 168 145c107 0 174 -78 174 -203zM229 251c-3 47 -20 71 -48 71c-27 0 -41 -19 -41 -51
c0 -31 15 -49 40 -49c20 0 38 12 49 29z" />
    <glyph glyph-name="zero.dnom" horiz-adv-x="427" 
d="M408 204c0 -63 -18 -113 -53 -152s-82 -58 -141 -58s-107 19 -142 58s-53 89 -53 152s18 113 53 152s83 58 142 58s106 -19 141 -58s53 -89 53 -152zM154 204c0 -63 23 -95 60 -95c36 0 59 34 59 95s-23 95 -59 95c-37 0 -60 -32 -60 -95z" />
    <glyph glyph-name="one.dnom" horiz-adv-x="279" 
d="M232 408v-408h-133v292l-65 -15l-24 99l123 32h99z" />
    <glyph glyph-name="two.dnom" horiz-adv-x="381" 
d="M261 140l-35 -28h132v-112h-342v90l171 134c22 16 33 31 33 46c0 20 -15 33 -39 33c-25 0 -58 -20 -89 -52l-79 71c47 60 109 92 180 92c95 0 166 -57 166 -136c0 -47 -25 -82 -98 -138z" />
    <glyph glyph-name="three.dnom" horiz-adv-x="381" 
d="M359 138c0 -43 -17 -77 -51 -104c-33 -27 -77 -40 -130 -40c-61 0 -118 20 -163 56l67 80c24 -19 52 -28 83 -28c35 0 56 13 56 36c0 24 -21 38 -56 38c-19 0 -38 -3 -55 -8l-17 62l85 71h-135v107h306v-89l-78 -69c55 -15 88 -56 88 -112z" />
    <glyph glyph-name="four.dnom" horiz-adv-x="411" 
d="M344 183h52v-106h-52v-77h-131v77h-189l-15 101l183 230h152v-225zM143 183h70v100z" />
    <glyph glyph-name="five.dnom" horiz-adv-x="385" 
d="M366 139c0 -86 -77 -145 -174 -145c-79 0 -134 17 -183 53l65 83c29 -19 59 -28 89 -28c39 0 61 15 61 43c0 24 -17 38 -45 38c-22 0 -40 -8 -53 -23l-87 44l10 204h294v-101h-176l-2 -46c15 3 30 5 43 5c95 0 158 -50 158 -127z" />
    <glyph glyph-name="six.dnom" horiz-adv-x="379" 
d="M362 139c0 -81 -73 -145 -168 -145c-107 0 -174 78 -174 203c0 132 74 217 191 217c53 0 104 -17 144 -48l-50 -80c-29 17 -55 25 -78 25c-39 0 -64 -24 -73 -68c23 12 48 18 77 18c79 0 131 -49 131 -122zM239 137c0 31 -15 49 -40 49c-20 0 -40 -12 -49 -29
c3 -47 20 -71 48 -71c27 0 41 19 41 51z" />
    <glyph glyph-name="seven.dnom" horiz-adv-x="357" 
d="M13 408h332v-97l-173 -311h-151l168 295h-176v113z" />
    <glyph glyph-name="eight.dnom" horiz-adv-x="393" 
d="M375 118c0 -37 -17 -67 -51 -90c-33 -23 -76 -34 -128 -34c-104 0 -178 51 -178 124c0 40 23 74 62 97c-33 21 -50 48 -50 83c0 67 71 116 166 116c96 0 167 -49 167 -116c0 -32 -18 -63 -49 -83c39 -23 61 -57 61 -97zM157 282c0 -24 15 -36 39 -36c27 0 40 12 40 36
c0 25 -15 39 -40 39c-24 0 -39 -14 -39 -39zM241 130c0 27 -15 40 -44 40s-45 -14 -45 -41c0 -25 16 -41 44 -41c29 0 45 15 45 42z" />
    <glyph glyph-name="nine.dnom" horiz-adv-x="379" 
d="M359 211c0 -132 -74 -217 -191 -217c-53 0 -104 17 -144 48l50 80c29 -17 55 -25 78 -25c39 0 65 25 73 68c-24 -11 -50 -17 -77 -17c-77 0 -131 49 -131 121c0 81 73 145 168 145c107 0 174 -78 174 -203zM229 251c-3 47 -20 71 -48 71c-27 0 -41 -19 -41 -51
c0 -31 15 -49 40 -49c20 0 38 12 49 29z" />
    <glyph glyph-name="zero.numr" horiz-adv-x="427" 
d="M408 476c0 -63 -18 -113 -53 -152s-82 -58 -141 -58s-107 19 -142 58s-53 89 -53 152s18 113 53 152s83 58 142 58s106 -19 141 -58s53 -89 53 -152zM154 476c0 -63 23 -95 60 -95c36 0 59 34 59 95s-23 95 -59 95c-37 0 -60 -32 -60 -95z" />
    <glyph glyph-name="one.numr" horiz-adv-x="279" 
d="M232 680v-408h-133v292l-65 -15l-24 99l123 32h99z" />
    <glyph glyph-name="two.numr" horiz-adv-x="381" 
d="M261 412l-35 -28h132v-112h-342v90l171 134c22 16 33 31 33 46c0 20 -15 33 -39 33c-25 0 -58 -20 -89 -52l-79 71c47 60 109 92 180 92c95 0 166 -57 166 -136c0 -47 -25 -82 -98 -138z" />
    <glyph glyph-name="three.numr" horiz-adv-x="381" 
d="M359 410c0 -43 -17 -77 -51 -104c-33 -27 -77 -40 -130 -40c-61 0 -118 20 -163 56l67 80c24 -19 52 -28 83 -28c35 0 56 13 56 36c0 24 -21 38 -56 38c-19 0 -38 -3 -55 -8l-17 62l85 71h-135v107h306v-89l-78 -69c55 -15 88 -56 88 -112z" />
    <glyph glyph-name="four.numr" horiz-adv-x="411" 
d="M344 455h52v-106h-52v-77h-131v77h-189l-15 101l183 230h152v-225zM143 455h70v100z" />
    <glyph glyph-name="five.numr" horiz-adv-x="385" 
d="M366 411c0 -86 -77 -145 -174 -145c-79 0 -134 17 -183 53l65 83c29 -19 59 -28 89 -28c39 0 61 15 61 43c0 24 -17 38 -45 38c-22 0 -40 -8 -53 -23l-87 44l10 204h294v-101h-176l-2 -46c15 3 30 5 43 5c95 0 158 -50 158 -127z" />
    <glyph glyph-name="six.numr" horiz-adv-x="379" 
d="M362 411c0 -81 -73 -145 -168 -145c-107 0 -174 78 -174 203c0 132 74 217 191 217c53 0 104 -17 144 -48l-50 -80c-29 17 -55 25 -78 25c-39 0 -64 -24 -73 -68c23 12 48 18 77 18c79 0 131 -49 131 -122zM239 409c0 31 -15 49 -40 49c-20 0 -40 -12 -49 -29
c3 -47 20 -71 48 -71c27 0 41 19 41 51z" />
    <glyph glyph-name="seven.numr" horiz-adv-x="357" 
d="M13 680h332v-97l-173 -311h-151l168 295h-176v113z" />
    <glyph glyph-name="eight.numr" horiz-adv-x="393" 
d="M375 390c0 -37 -17 -67 -51 -90c-33 -23 -76 -34 -128 -34c-104 0 -178 51 -178 124c0 40 23 74 62 97c-33 21 -50 48 -50 83c0 67 71 116 166 116c96 0 167 -49 167 -116c0 -32 -18 -63 -49 -83c39 -23 61 -57 61 -97zM157 554c0 -24 15 -36 39 -36c27 0 40 12 40 36
c0 25 -15 39 -40 39c-24 0 -39 -14 -39 -39zM241 402c0 27 -15 40 -44 40s-45 -14 -45 -41c0 -25 16 -41 44 -41c29 0 45 15 45 42z" />
    <glyph glyph-name="nine.numr" horiz-adv-x="379" 
d="M359 483c0 -132 -74 -217 -191 -217c-53 0 -104 17 -144 48l50 80c29 -17 55 -25 78 -25c39 0 65 25 73 68c-24 -11 -50 -17 -77 -17c-77 0 -131 49 -131 121c0 81 73 145 168 145c107 0 174 -78 174 -203zM229 523c-3 47 -20 71 -48 71c-27 0 -41 -19 -41 -51
c0 -31 15 -49 40 -49c20 0 38 12 49 29z" />
    <glyph glyph-name="uni2070" unicode="&#x2070;" horiz-adv-x="427" 
d="M408 546c0 -63 -18 -113 -53 -152s-82 -58 -141 -58s-107 19 -142 58s-53 89 -53 152s18 113 53 152s83 58 142 58s106 -19 141 -58s53 -89 53 -152zM154 546c0 -63 23 -95 60 -95c36 0 59 34 59 95s-23 95 -59 95c-37 0 -60 -32 -60 -95z" />
    <glyph glyph-name="uni00B9" unicode="&#xb9;" horiz-adv-x="279" 
d="M232 750v-408h-133v292l-65 -15l-24 99l123 32h99z" />
    <glyph glyph-name="uni00B2" unicode="&#xb2;" horiz-adv-x="381" 
d="M261 482l-35 -28h132v-112h-342v90l171 134c22 16 33 31 33 46c0 20 -15 33 -39 33c-25 0 -58 -20 -89 -52l-79 71c47 60 109 92 180 92c95 0 166 -57 166 -136c0 -47 -25 -82 -98 -138z" />
    <glyph glyph-name="uni00B3" unicode="&#xb3;" horiz-adv-x="381" 
d="M359 480c0 -43 -17 -77 -51 -104c-33 -27 -77 -40 -130 -40c-61 0 -118 20 -163 56l67 80c24 -19 52 -28 83 -28c35 0 56 13 56 36c0 24 -21 38 -56 38c-19 0 -38 -3 -55 -8l-17 62l85 71h-135v107h306v-89l-78 -69c55 -15 88 -56 88 -112z" />
    <glyph glyph-name="uni2074" unicode="&#x2074;" horiz-adv-x="411" 
d="M344 525h52v-106h-52v-77h-131v77h-189l-15 101l183 230h152v-225zM143 525h70v100z" />
    <glyph glyph-name="uni2075" unicode="&#x2075;" horiz-adv-x="385" 
d="M366 481c0 -86 -77 -145 -174 -145c-79 0 -134 17 -183 53l65 83c29 -19 59 -28 89 -28c39 0 61 15 61 43c0 24 -17 38 -45 38c-22 0 -40 -8 -53 -23l-87 44l10 204h294v-101h-176l-2 -46c15 3 30 5 43 5c95 0 158 -50 158 -127z" />
    <glyph glyph-name="uni2076" unicode="&#x2076;" horiz-adv-x="379" 
d="M362 481c0 -81 -73 -145 -168 -145c-107 0 -174 78 -174 203c0 132 74 217 191 217c53 0 104 -17 144 -48l-50 -80c-29 17 -55 25 -78 25c-39 0 -64 -24 -73 -68c23 12 48 18 77 18c79 0 131 -49 131 -122zM239 479c0 31 -15 49 -40 49c-20 0 -40 -12 -49 -29
c3 -47 20 -71 48 -71c27 0 41 19 41 51z" />
    <glyph glyph-name="uni2077" unicode="&#x2077;" horiz-adv-x="357" 
d="M13 750h332v-97l-173 -311h-151l168 295h-176v113z" />
    <glyph glyph-name="uni2078" unicode="&#x2078;" horiz-adv-x="393" 
d="M375 460c0 -37 -17 -67 -51 -90c-33 -23 -76 -34 -128 -34c-104 0 -178 51 -178 124c0 40 23 74 62 97c-33 21 -50 48 -50 83c0 67 71 116 166 116c96 0 167 -49 167 -116c0 -32 -18 -63 -49 -83c39 -23 61 -57 61 -97zM157 624c0 -24 15 -36 39 -36c27 0 40 12 40 36
c0 25 -15 39 -40 39c-24 0 -39 -14 -39 -39zM241 472c0 27 -15 40 -44 40s-45 -14 -45 -41c0 -25 16 -41 44 -41c29 0 45 15 45 42z" />
    <glyph glyph-name="uni2079" unicode="&#x2079;" horiz-adv-x="379" 
d="M359 553c0 -132 -74 -217 -191 -217c-53 0 -104 17 -144 48l50 80c29 -17 55 -25 78 -25c39 0 65 25 73 68c-24 -11 -50 -17 -77 -17c-77 0 -131 49 -131 121c0 81 73 145 168 145c107 0 174 -78 174 -203zM229 593c-3 47 -20 71 -48 71c-27 0 -41 -19 -41 -51
c0 -31 15 -49 40 -49c20 0 38 12 49 29z" />
    <glyph glyph-name="fraction" unicode="&#x2044;" horiz-adv-x="180" 
d="M382 691l-447 -708h-138l447 708h138z" />
    <glyph glyph-name="onehalf" unicode="&#xbd;" horiz-adv-x="850" 
d="M232 680v-408h-133v292l-65 -15l-24 99l123 32h99zM671 691l-447 -708h-138l447 708h138zM730 140l-35 -28h132v-112h-342v90l171 134c22 16 33 31 33 46c0 20 -15 33 -39 33c-25 0 -58 -20 -89 -52l-79 71c47 60 109 92 180 92c95 0 166 -57 166 -136
c0 -47 -25 -82 -98 -138z" />
    <glyph glyph-name="onequarter" unicode="&#xbc;" horiz-adv-x="838" 
d="M232 680v-408h-133v292l-65 -15l-24 99l123 32h99zM688 691l-447 -708h-138l447 708h138zM771 183h52v-106h-52v-77h-131v77h-189l-15 101l183 230h152v-225zM570 183h70v100z" />
    <glyph glyph-name="threequarters" unicode="&#xbe;" horiz-adv-x="912" 
d="M359 410c0 -43 -17 -77 -51 -104c-33 -27 -77 -40 -130 -40c-61 0 -118 20 -163 56l67 80c24 -19 52 -28 83 -28c35 0 56 13 56 36c0 24 -21 38 -56 38c-19 0 -38 -3 -55 -8l-17 62l85 71h-135v107h306v-89l-78 -69c55 -15 88 -56 88 -112zM763 691l-447 -708h-138
l447 708h138zM845 183h52v-106h-52v-77h-131v77h-189l-15 101l183 230h152v-225zM644 183h70v100z" />
    <glyph glyph-name="oneeighth" unicode="&#x215b;" horiz-adv-x="872" 
d="M232 680v-408h-133v292l-65 -15l-24 99l123 32h99zM681 691l-447 -708h-138l447 708h138zM854 118c0 -37 -17 -67 -51 -90c-33 -23 -76 -34 -128 -34c-104 0 -178 51 -178 124c0 40 23 74 62 97c-33 21 -50 48 -50 83c0 67 71 116 166 116c96 0 167 -49 167 -116
c0 -32 -18 -63 -49 -83c39 -23 61 -57 61 -97zM636 282c0 -24 15 -36 39 -36c27 0 40 12 40 36c0 25 -15 39 -40 39c-24 0 -39 -14 -39 -39zM720 130c0 27 -15 40 -44 40s-45 -14 -45 -41c0 -25 16 -41 44 -41c29 0 45 15 45 42z" />
    <glyph glyph-name="threeeighths" unicode="&#x215c;" horiz-adv-x="954" 
d="M359 410c0 -43 -17 -77 -51 -104c-33 -27 -77 -40 -130 -40c-61 0 -118 20 -163 56l67 80c24 -19 52 -28 83 -28c35 0 56 13 56 36c0 24 -21 38 -56 38c-19 0 -38 -3 -55 -8l-17 62l85 71h-135v107h306v-89l-78 -69c55 -15 88 -56 88 -112zM763 691l-447 -708h-138
l447 708h138zM936 118c0 -37 -17 -67 -51 -90c-33 -23 -76 -34 -128 -34c-104 0 -178 51 -178 124c0 40 23 74 62 97c-33 21 -50 48 -50 83c0 67 71 116 166 116c96 0 167 -49 167 -116c0 -32 -18 -63 -49 -83c39 -23 61 -57 61 -97zM718 282c0 -24 15 -36 39 -36
c27 0 40 12 40 36c0 25 -15 39 -40 39c-24 0 -39 -14 -39 -39zM802 130c0 27 -15 40 -44 40s-45 -14 -45 -41c0 -25 16 -41 44 -41c29 0 45 15 45 42z" />
    <glyph glyph-name="fiveeighths" unicode="&#x215d;" horiz-adv-x="958" 
d="M366 411c0 -86 -77 -145 -174 -145c-79 0 -134 17 -183 53l65 83c29 -19 59 -28 89 -28c39 0 61 15 61 43c0 24 -17 38 -45 38c-22 0 -40 -8 -53 -23l-87 44l10 204h294v-101h-176l-2 -46c15 3 30 5 43 5c95 0 158 -50 158 -127zM767 691l-447 -708h-138l447 708h138z
M939 118c0 -37 -17 -67 -51 -90c-33 -23 -76 -34 -128 -34c-104 0 -178 51 -178 124c0 40 23 74 62 97c-33 21 -50 48 -50 83c0 67 71 116 166 116c96 0 167 -49 167 -116c0 -32 -18 -63 -49 -83c39 -23 61 -57 61 -97zM721 282c0 -24 15 -36 39 -36c27 0 40 12 40 36
c0 25 -15 39 -40 39c-24 0 -39 -14 -39 -39zM805 130c0 27 -15 40 -44 40s-45 -14 -45 -41c0 -25 16 -41 44 -41c29 0 45 15 45 42z" />
    <glyph glyph-name="seveneighths" unicode="&#x215e;" horiz-adv-x="863" 
d="M13 680h332v-97l-173 -311h-151l168 295h-176v113zM672 691l-447 -708h-138l447 708h138zM844 118c0 -37 -17 -67 -51 -90c-33 -23 -76 -34 -128 -34c-104 0 -178 51 -178 124c0 40 23 74 62 97c-33 21 -50 48 -50 83c0 67 71 116 166 116c96 0 167 -49 167 -116
c0 -32 -18 -63 -49 -83c39 -23 61 -57 61 -97zM626 282c0 -24 15 -36 39 -36c27 0 40 12 40 36c0 25 -15 39 -40 39c-24 0 -39 -14 -39 -39zM710 130c0 27 -15 40 -44 40s-45 -14 -45 -41c0 -25 16 -41 44 -41c29 0 45 15 45 42z" />
    <glyph glyph-name="uni066B" unicode="&#x66b;" horiz-adv-x="330" 
d="M250 71c0 -14 -5 -31 -15 -51l-93 -177h-60l37 158c-24 16 -38 41 -38 70c0 47 38 85 85 85s84 -38 84 -85z" />
    <glyph glyph-name="uni066C" unicode="&#x66c;" horiz-adv-x="374" 
d="M294 135l-154 -292h-60l68 292h146z" />
    <glyph glyph-name="uni0660" unicode="&#x660;" horiz-adv-x="391" 
d="M195 234l-122 123l122 123l123 -123z" />
    <glyph glyph-name="uni0661" unicode="&#x661;" horiz-adv-x="381" 
d="M132 0l-49 700h167l48 -700h-166z" />
    <glyph glyph-name="uni0662" unicode="&#x662;" horiz-adv-x="575" 
d="M515 700v-174h-253l36 -526h-166l-49 700h432z" />
    <glyph glyph-name="uni0663" unicode="&#x663;" horiz-adv-x="733" 
d="M550 700h123v-244c-27 -32 -84 -58 -143 -58c-40 0 -79 13 -108 33c-30 -22 -64 -33 -103 -33c-19 0 -36 3 -50 8l31 -406h-162l-55 700h163l11 -144c10 -3 23 -5 38 -5c23 0 41 3 56 9v140h100v-140c15 -6 32 -9 52 -9c23 0 32 2 47 9v140z" />
    <glyph glyph-name="uni0664" unicode="&#x664;" horiz-adv-x="552" 
d="M475 165l52 -131c-57 -29 -124 -44 -199 -44c-165 0 -265 72 -265 195c0 75 38 131 113 168c-75 33 -108 84 -108 159c0 123 93 198 245 198c69 0 133 -15 190 -44l-66 -126c-41 14 -78 21 -112 21c-61 0 -94 -26 -94 -62c0 -51 64 -86 176 -86h15v-113h-14
c-120 0 -182 -37 -182 -94c0 -45 38 -67 114 -67c50 0 95 9 135 26z" />
    <glyph glyph-name="uni0665" unicode="&#x665;" horiz-adv-x="675" 
d="M61 221c0 58 11 117 32 178s53 112 95 153s92 61 150 61c57 0 107 -20 148 -61c42 -41 74 -92 95 -153s32 -120 32 -178c0 -144 -90 -230 -275 -230c-187 0 -277 86 -277 230zM455 261c0 88 -51 190 -118 190s-117 -101 -117 -190c0 -77 39 -108 118 -108
c77 0 117 32 117 108z" />
    <glyph glyph-name="uni0666" unicode="&#x666;" horiz-adv-x="568" 
d="M486 0h-167l-21 523h-268v177h427z" />
    <glyph glyph-name="uni0667" unicode="&#x667;" horiz-adv-x="688" 
d="M481 700h184c-39 -101 -77 -212 -114 -334c-37 -121 -71 -243 -102 -366h-208c-32 124 -67 247 -105 369c-38 123 -76 233 -113 331h184c23 -66 44 -137 64 -213c21 -75 45 -178 73 -309c29 137 54 241 73 314s41 142 64 208z" />
    <glyph glyph-name="uni0668" unicode="&#x668;" horiz-adv-x="688" 
d="M665 0h-184c-23 65 -44 134 -64 207c-19 73 -44 178 -73 315c-28 -131 -52 -234 -73 -310c-20 -76 -41 -147 -64 -212h-184c37 98 75 208 113 330c38 123 73 246 105 370h208c30 -122 64 -244 101 -366c38 -121 76 -233 115 -334z" />
    <glyph glyph-name="uni0669" unicode="&#x669;" horiz-adv-x="636" 
d="M554 0h-164l-14 216h-58c-172 0 -275 94 -275 249c0 158 110 245 258 245c72 0 145 -21 208 -54zM303 373h63l-11 164c-18 8 -37 12 -58 12c-56 0 -92 -28 -92 -87s33 -89 98 -89z" />
    <glyph glyph-name="uni06F0" unicode="&#x6f0;" horiz-adv-x="391" 
d="M195 234l-122 123l122 123l123 -123z" />
    <glyph glyph-name="uni06F1" unicode="&#x6f1;" horiz-adv-x="381" 
d="M132 0l-49 700h167l48 -700h-166z" />
    <glyph glyph-name="uni06F2" unicode="&#x6f2;" horiz-adv-x="575" 
d="M515 700v-174h-253l36 -526h-166l-49 700h432z" />
    <glyph glyph-name="uni06F3" unicode="&#x6f3;" horiz-adv-x="733" 
d="M550 700h123v-244c-27 -32 -84 -58 -143 -58c-40 0 -79 13 -108 33c-30 -22 -64 -33 -103 -33c-19 0 -36 3 -50 8l31 -406h-162l-55 700h163l11 -144c10 -3 23 -5 38 -5c23 0 41 3 56 9v140h100v-140c15 -6 32 -9 52 -9c23 0 32 2 47 9v140z" />
    <glyph glyph-name="uni06F4" unicode="&#x6f4;" horiz-adv-x="650" 
d="M514 489h80v-142h-320l24 -347h-166l-49 700h167l14 -211h87c-18 21 -27 48 -27 80c0 80 58 142 149 142c56 0 103 -21 135 -53l-81 -77c-12 11 -27 16 -45 16c-32 0 -49 -19 -49 -50c0 -39 27 -58 81 -58z" />
    <glyph glyph-name="uni06F4.urdu" horiz-adv-x="640" 
d="M499 710l129 -46c-43 -23 -81 -60 -112 -113s-51 -106 -58 -160l-66 -36l-128 139l34 -494h-166l-49 700h170l124 -134c32 65 77 117 122 144z" />
    <glyph glyph-name="uni06F5" unicode="&#x6f5;" horiz-adv-x="674" 
d="M613 225c0 -154 -77 -234 -171 -234c-45 0 -86 21 -105 61c-19 -39 -60 -61 -104 -61c-95 0 -172 80 -172 234c0 57 11 115 32 175c21 61 53 111 94 152c42 41 92 61 150 61s108 -20 149 -61c42 -41 74 -91 95 -152c21 -60 32 -118 32 -175zM454 257
c0 90 -50 194 -117 194c-66 4 -119 -108 -117 -194c0 -79 21 -105 57 -105c23 0 41 12 52 36h17c11 -24 29 -36 52 -36c35 0 56 25 56 105z" />
    <glyph glyph-name="uni06F6" unicode="&#x6f6;" horiz-adv-x="549" 
d="M478 423l21 -133l-131 -19c-91 -19 -102 -37 -130 -182l-17 -89l-165 2l17 89c13 71 29 127 47 169s45 75 82 99c-57 37 -85 88 -85 154c0 115 86 197 200 197c73 0 134 -26 179 -69l-95 -89c-20 19 -43 28 -70 28c-48 0 -78 -32 -78 -80c0 -53 42 -90 117 -91v-1z" />
    </font>
</defs>
</svg>
