<?xml version="1.0" standalone="no"?>
<!DOCTYPE svg PUBLIC "-//W3C//DTD SVG 1.1//EN" "http://www.w3.org/Graphics/SVG/1.1/DTD/svg11.dtd" >
<svg xmlns="http://www.w3.org/2000/svg" xmlns:xlink="http://www.w3.org/1999/xlink" version="1.1">
<metadata>
Created by FontForge 20170924 at Tue Mar  5 17:28:16 2019
 By www-data
Copyright \251 2014 by Jonathan Hill. All rights reserved.
</metadata>
<defs>
<font id="LoewNextArabic-Thin" horiz-adv-x="0" >
  <font-face 
    font-family="Loew Next Arabic Thin"
    font-weight="250"
    font-stretch="normal"
    units-per-em="1000"
    panose-1="2 11 4 4 3 3 2 2 2 4"
    ascent="750"
    descent="-250"
    x-height="500"
    cap-height="700"
    bbox="-175 -447 1613 1040"
    underline-thickness="50"
    underline-position="-100"
    stemh="165"
    stemv="133"
    unicode-range="U+0020-FEFC"
  />
<missing-glyph horiz-adv-x="500" 
d="M50 30v600h400v-600h-400zM120 100h260v460h-260v-460z" />
    <glyph glyph-name="f_f" unicode="ff" horiz-adv-x="788" 
d="M349 700l-4 -12c-17 7 -39 10 -64 10c-87 0 -141 -54 -141 -151v-47h381v47c0 104 61 163 154 163c27 0 50 -3 68 -10l-4 -12c-17 7 -39 10 -64 10c-87 0 -141 -54 -141 -151v-47h191v-12h-191v-488h-13v488h-381v-488h-13v488h-97v12h97v47c0 104 61 163 154 163
c27 0 50 -3 68 -10z" />
    <glyph glyph-name="f_f_i" unicode="ffi" horiz-adv-x="1044" 
d="M349 700l-4 -12c-17 7 -39 10 -64 10c-87 0 -141 -54 -141 -151v-47h381v47c0 104 61 163 154 163c27 0 50 -3 68 -10l-4 -12c-17 7 -39 10 -64 10c-87 0 -141 -54 -141 -151v-47h390v-500h-13v488h-377v-488h-13v488h-381v-488h-13v488h-97v12h97v47
c0 104 61 163 154 163c27 0 50 -3 68 -10zM931 647c0 -8 -6 -14 -14 -14s-14 6 -14 14s6 14 14 14s14 -6 14 -14z" />
    <glyph glyph-name="f_f_l" unicode="ffl" horiz-adv-x="1026" 
d="M349 700l-4 -12c-17 7 -39 10 -64 10c-87 0 -141 -54 -141 -151v-47h381v47c0 104 61 163 154 163c27 0 49 -3 66 -10h175v-700h-13v688h-164c-17 7 -39 10 -64 10c-87 0 -141 -54 -141 -151v-47h191v-12h-191v-488h-13v488h-381v-488h-13v488h-97v12h97v47
c0 104 61 163 154 163c27 0 50 -3 68 -10z" />
    <glyph glyph-name="fi" unicode="fi" horiz-adv-x="650" 
d="M349 700l-4 -12c-17 7 -39 10 -64 10c-87 0 -141 -54 -141 -151v-47h390v-500h-13v488h-377v-488h-13v488h-97v12h97v47c0 104 61 163 154 163c27 0 50 -3 68 -10zM537 647c0 -8 -6 -14 -14 -14s-14 6 -14 14s6 14 14 14s14 -6 14 -14z" />
    <glyph glyph-name="fl" unicode="fl" horiz-adv-x="632" 
d="M347 700h175v-700h-13v688h-164c-17 7 -39 10 -64 10c-87 0 -141 -54 -141 -151v-47h191v-12h-191v-488h-13v488h-97v12h97v47c0 104 61 163 154 163c27 0 49 -3 66 -10z" />
    <glyph glyph-name="uniFEFB" unicode="&#xfedf;&#xfe8e;" horiz-adv-x="685" arabic-form="isolated" 
d="M522 730h13v-669c-65 -40 -149 -61 -229 -61h-246v13h218l-131 577h13l131 -577h15c75 0 155 20 216 56v661z" />
    <glyph glyph-name="uniFEFC" unicode="&#xfee0;&#xfe8e;" horiz-adv-x="756" arabic-form="final" 
d="M756 13h16v-11c0 -1 -5 -2 -16 -2h-1c-80 0 -163 21 -226 57c-64 -36 -146 -57 -223 -57h-246v13h218l-131 577h13l131 -577h15c75 0 155 20 216 56v661h13v-661c61 -36 144 -56 221 -56z" />
    <glyph glyph-name="uniFEF7" unicode="&#xfedf;&#xfe84;" horiz-adv-x="685" arabic-form="isolated" 
d="M522 730h13v-669c-65 -40 -149 -61 -229 -61h-246v13h218l-131 577h13l131 -577h15c75 0 155 20 216 56v661zM141 702h64v-12h-170v12h62c-25 15 -41 40 -41 69c0 49 35 84 82 84c20 0 42 -7 57 -16l-6 -10c-13 8 -34 14 -51 14c-41 0 -70 -29 -70 -72
c0 -39 32 -69 73 -69z" />
    <glyph glyph-name="uniFEF8" unicode="&#xfee0;&#xfe84;" horiz-adv-x="781" arabic-form="final" 
d="M230 702v-12h-170v12h62c-25 15 -41 40 -41 69c0 49 35 84 82 84c20 0 42 -7 57 -16l-6 -10c-13 8 -34 14 -51 14c-41 0 -70 -29 -70 -72c0 -39 32 -69 73 -69h64zM781 13h16v-11c0 -1 -5 -2 -16 -2h-1c-80 0 -163 21 -226 57c-64 -36 -146 -57 -223 -57h-246v13h218
l-131 577h13l131 -577h15c75 0 155 20 216 56v661h13v-661c61 -36 144 -56 221 -56z" />
    <glyph glyph-name="uniFEF9" unicode="&#xfedf;&#xfe88;" horiz-adv-x="685" arabic-form="isolated" 
d="M522 730h13v-669c-65 -40 -149 -61 -229 -61h-246v13h218l-131 577h13l131 -577h15c75 0 155 20 216 56v661zM257 -253h64v-12h-170v12h62c-25 15 -41 40 -41 69c0 49 35 84 82 84c20 0 42 -7 57 -16l-6 -10c-13 8 -34 14 -51 14c-41 0 -70 -29 -70 -72
c0 -39 32 -69 73 -69z" />
    <glyph glyph-name="uniFEFA" unicode="&#xfee0;&#xfe88;" horiz-adv-x="756" arabic-form="final" 
d="M756 13h16v-11c0 -1 -5 -2 -16 -2h-1c-80 0 -163 21 -226 57c-64 -36 -146 -57 -223 -57h-246v13h218l-131 577h13l131 -577h15c75 0 155 20 216 56v661h13v-661c61 -36 144 -56 221 -56zM257 -253h64v-12h-170v12h62c-25 15 -41 40 -41 69c0 49 35 84 82 84
c20 0 42 -7 57 -16l-6 -10c-13 8 -34 14 -51 14c-41 0 -70 -29 -70 -72c0 -39 32 -69 73 -69z" />
    <glyph glyph-name="uniFEF5" unicode="&#xfedf;&#xfe82;" horiz-adv-x="685" arabic-form="isolated" 
d="M522 730h13v-669c-65 -40 -149 -61 -229 -61h-246v13h218l-131 577h13l131 -577h15c75 0 155 20 216 56v661zM229 737l11 -3c-5 -29 -27 -47 -62 -46l-82 4c-27 1 -46 -17 -49 -38l-11 3c5 29 27 47 62 46l82 -4c27 -1 46 17 49 38z" />
    <glyph glyph-name="uniFEF6" unicode="&#xfee0;&#xfe82;" horiz-adv-x="756" arabic-form="final" 
d="M756 13h16v-11c0 -1 -5 -2 -16 -2h-1c-80 0 -163 21 -226 57c-64 -36 -146 -57 -223 -57h-246v13h218l-131 577h13l131 -577h15c75 0 155 20 216 56v661h13v-661c61 -36 144 -56 221 -56zM229 737l11 -3c-5 -29 -27 -47 -62 -46l-82 4c-27 1 -46 -17 -49 -38l-11 3
c5 29 27 47 62 46l82 -4c27 -1 46 17 49 38z" />
    <glyph glyph-name="uni06440671" unicode="&#xfedf;&#xfb51;" horiz-adv-x="685" 
d="M522 730h13v-669c-65 -40 -149 -61 -229 -61h-246v13h218l-131 577h13l131 -577h15c75 0 155 20 216 56v661zM264 747v-48h-253v11h52c33 73 75 109 128 109c45 0 73 -29 73 -72zM75 710h177v36c0 37 -22 62 -62 62c-53 0 -87 -39 -115 -98z" />
    <glyph glyph-name="uni06440671.fina" unicode="&#xfee0;&#xfb51;" horiz-adv-x="756" 
d="M756 13h16v-11c0 -1 -5 -2 -16 -2h-1c-80 0 -163 21 -226 57c-64 -36 -146 -57 -223 -57h-246v13h218l-131 577h13l131 -577h15c75 0 155 20 216 56v661h13v-661c61 -36 144 -56 221 -56zM264 747v-48h-253v11h52c33 73 75 109 128 109c45 0 73 -29 73 -72zM75 710h177
v36c0 37 -22 62 -62 62c-53 0 -87 -39 -115 -98z" />
    <glyph glyph-name="uniFDF2" unicode="&#x627;&#xfedf;&#xfee0;&#xfeea;" horiz-adv-x="1613" arabic-form="isolated" 
d="M866 938v-129h-10v129h10zM759 684v66h11v-65c0 -21 15 -35 42 -35s44 14 44 35v77h10v-59c0 -20 16 -33 44 -33c27 0 42 12 42 35v73h11v-75c0 -33 -28 -43 -53 -43c-23 0 -38 6 -45 19c-4 -29 -30 -39 -53 -39c-24 0 -53 11 -53 44zM1500 730h13v-730h-13v730zM1187 69
v571h13v-578c-50 -41 -108 -62 -174 -62c-59 0 -110 16 -165 56c-51 -39 -120 -56 -177 -56h-328c-155 0 -256 88 -256 248c0 174 114 262 253 262c75 0 148 -27 195 -62v-435h136c55 0 122 17 171 56v481h13v-481c51 -40 101 -56 158 -56c60 0 114 19 161 56zM535 13v427
c-48 36 -115 57 -182 57c-132 0 -240 -82 -240 -246c0 -159 108 -238 243 -238h179z" />
    <glyph glyph-name="uniFE8E" unicode="&#x627;" horiz-adv-x="384" arabic-form="final" 
d="M384 13h16v-11c0 -1 -5 -2 -16 -2h-1c-79 0 -158 22 -222 59c-9 5 -11 9 -11 17v654h13v-657c64 -37 144 -60 221 -60z" />
    <glyph glyph-name="uniFE84" unicode="&#x623;" horiz-adv-x="384" arabic-form="final" 
d="M384 13h16v-11c0 -1 -5 -2 -16 -2h-1c-79 0 -158 22 -222 59c-9 5 -11 9 -11 17v654h13v-657c64 -37 144 -60 221 -60zM178 887h64v-12h-170v12h62c-25 15 -41 40 -41 69c0 49 35 84 82 84c20 0 42 -7 57 -16l-6 -10c-13 8 -34 14 -51 14c-41 0 -70 -29 -70 -72
c0 -39 32 -69 73 -69z" />
    <glyph glyph-name="uniFE88" unicode="&#x625;" horiz-adv-x="384" arabic-form="final" 
d="M384 13h16v-11c0 -1 -5 -2 -16 -2h-1c-79 0 -158 22 -222 59c-9 5 -11 9 -11 17v654h13v-657c64 -37 144 -60 221 -60zM238 -302h64v-12h-170v12h62c-25 15 -41 40 -41 69c0 49 35 84 82 84c20 0 42 -7 57 -16l-6 -10c-13 8 -34 14 -51 14c-41 0 -70 -29 -70 -72
c0 -39 32 -69 73 -69z" />
    <glyph glyph-name="uniFE82" unicode="&#x622;" horiz-adv-x="384" arabic-form="final" 
d="M384 13h16v-11c0 -1 -5 -2 -16 -2h-1c-79 0 -158 22 -222 59c-9 5 -11 9 -11 17v654h13v-657c64 -37 144 -60 221 -60zM246 922l11 -3c-5 -29 -27 -47 -62 -46l-82 4c-27 1 -46 -17 -49 -38l-11 3c5 29 27 47 62 46l82 -4c27 -1 46 17 49 38z" />
    <glyph glyph-name="uniFB51" unicode="&#x671;" horiz-adv-x="384" arabic-form="final" 
d="M384 13h16v-11c0 -1 -5 -2 -16 -2h-1c-79 0 -158 22 -222 59c-9 5 -11 9 -11 17v654h13v-657c64 -37 144 -60 221 -60zM264 932v-48h-253v11h52c33 73 75 109 128 109c45 0 73 -29 73 -72zM75 895h177v36c0 37 -22 62 -62 62c-53 0 -87 -39 -115 -98z" />
    <glyph glyph-name="uni066E.init" unicode="&#x66e;" horiz-adv-x="354" 
d="M234 470v-409c-65 -40 -149 -61 -233 -61h-1c-11 0 -16 1 -16 2v11h16c79 0 158 20 221 56v401h13z" />
    <glyph glyph-name="uni066E.medi" unicode="&#x66e;" horiz-adv-x="455" 
d="M455 13h16v-11c0 -1 -5 -2 -16 -2h-1c-81 0 -162 20 -227 57c-64 -37 -145 -57 -226 -57h-1c-11 0 -16 1 -16 2v11h16c79 0 158 20 221 56v401h13v-401c63 -36 142 -56 221 -56z" />
    <glyph glyph-name="uni066E.fina" unicode="&#x66e;" horiz-adv-x="1246" 
d="M1246 13h16v-11c0 -1 -5 -2 -16 -2h-1c-81 0 -162 20 -227 57c-61 -32 -137 -57 -265 -57h-404c-77 0 -138 15 -185 46c-46 31 -69 86 -69 167c0 40 6 89 18 147l13 -2c-12 -57 -18 -105 -18 -146c0 -133 79 -199 238 -199h410c128 0 200 25 256 56v401h13v-401
c63 -36 142 -56 221 -56z" />
    <glyph glyph-name="uniFE90" unicode="&#x628;" horiz-adv-x="1246" arabic-form="final" 
d="M1246 13h16v-11c0 -1 -5 -2 -16 -2h-1c-81 0 -162 20 -227 57c-61 -32 -137 -57 -265 -57h-404c-77 0 -138 15 -185 46c-46 31 -69 86 -69 167c0 40 6 89 18 147l13 -2c-12 -57 -18 -105 -18 -146c0 -133 79 -199 238 -199h410c128 0 200 25 256 56v401h13v-401
c63 -36 142 -56 221 -56zM557 -172c0 13 9 22 22 22c12 0 21 -9 21 -22c0 -12 -9 -22 -21 -22c-13 0 -22 10 -22 22z" />
    <glyph glyph-name="uniFE92" unicode="&#x628;" horiz-adv-x="455" arabic-form="medial" 
d="M455 13h16v-11c0 -1 -5 -2 -16 -2h-1c-81 0 -162 20 -227 57c-64 -37 -145 -57 -226 -57h-1c-11 0 -16 1 -16 2v11h16c79 0 158 20 221 56v401h13v-401c63 -36 142 -56 221 -56zM206 -172c0 13 9 22 22 22c12 0 21 -9 21 -22c0 -12 -9 -22 -21 -22c-13 0 -22 10 -22 22z
" />
    <glyph glyph-name="uniFE91" unicode="&#x628;" horiz-adv-x="354" arabic-form="initial" 
d="M234 470v-409c-65 -40 -149 -61 -233 -61h-1c-11 0 -16 1 -16 2v11h16c79 0 158 20 221 56v401h13zM146 -172c0 13 9 22 22 22c12 0 21 -9 21 -22c0 -12 -9 -22 -21 -22c-13 0 -22 10 -22 22z" />
    <glyph glyph-name="uniFB57" unicode="&#x67e;" horiz-adv-x="1246" arabic-form="final" 
d="M1246 13h16v-11c0 -1 -5 -2 -16 -2h-1c-81 0 -162 20 -227 57c-61 -32 -137 -57 -265 -57h-404c-77 0 -138 15 -185 46c-46 31 -69 86 -69 167c0 40 6 89 18 147l13 -2c-12 -57 -18 -105 -18 -146c0 -133 79 -199 238 -199h410c128 0 200 25 256 56v401h13v-401
c63 -36 142 -56 221 -56zM468 -172c0 13 9 22 22 22c12 0 21 -9 21 -22c0 -12 -9 -22 -21 -22c-13 0 -22 10 -22 22zM647 -173c0 13 9 22 22 22c12 0 21 -9 21 -22c0 -12 -9 -22 -21 -22c-13 0 -22 10 -22 22zM558 -288c0 13 9 22 22 22c12 0 21 -9 21 -22
c0 -12 -9 -22 -21 -22c-13 0 -22 10 -22 22z" />
    <glyph glyph-name="uniFB59" unicode="&#x67e;" horiz-adv-x="455" arabic-form="medial" 
d="M455 13h16v-11c0 -1 -5 -2 -16 -2h-1c-81 0 -162 20 -227 57c-64 -37 -145 -57 -226 -57h-1c-11 0 -16 1 -16 2v11h16c79 0 158 20 221 56v401h13v-401c63 -36 142 -56 221 -56zM117 -172c0 13 9 22 22 22c12 0 21 -9 21 -22c0 -12 -9 -22 -21 -22c-13 0 -22 10 -22 22z
M296 -173c0 13 9 22 22 22c12 0 21 -9 21 -22c0 -12 -9 -22 -21 -22c-13 0 -22 10 -22 22zM207 -288c0 13 9 22 22 22c12 0 21 -9 21 -22c0 -12 -9 -22 -21 -22c-13 0 -22 10 -22 22z" />
    <glyph glyph-name="uniFB58" unicode="&#x67e;" horiz-adv-x="354" arabic-form="initial" 
d="M234 470v-409c-65 -40 -149 -61 -233 -61h-1c-11 0 -16 1 -16 2v11h16c79 0 158 20 221 56v401h13zM57 -172c0 13 9 22 22 22c12 0 21 -9 21 -22c0 -12 -9 -22 -21 -22c-13 0 -22 10 -22 22zM236 -173c0 13 9 22 22 22c12 0 21 -9 21 -22c0 -12 -9 -22 -21 -22
c-13 0 -22 10 -22 22zM147 -288c0 13 9 22 22 22c12 0 21 -9 21 -22c0 -12 -9 -22 -21 -22c-13 0 -22 10 -22 22z" />
    <glyph glyph-name="uniFBE9" unicode="&#x649;" horiz-adv-x="455" arabic-form="medial" 
d="M455 13h16v-11c0 -1 -5 -2 -16 -2h-1c-81 0 -162 20 -227 57c-64 -37 -145 -57 -226 -57h-1c-11 0 -16 1 -16 2v11h16c79 0 158 20 221 56v401h13v-401c63 -36 142 -56 221 -56z" />
    <glyph glyph-name="uniFBE8" unicode="&#x649;" horiz-adv-x="354" arabic-form="initial" 
d="M234 470v-409c-65 -40 -149 -61 -233 -61h-1c-11 0 -16 1 -16 2v11h16c79 0 158 20 221 56v401h13z" />
    <glyph glyph-name="uniFE96" unicode="&#x62a;" horiz-adv-x="1246" arabic-form="final" 
d="M1246 13h16v-11c0 -1 -5 -2 -16 -2h-1c-81 0 -162 20 -227 57c-61 -32 -137 -57 -265 -57h-404c-77 0 -138 15 -185 46c-46 31 -69 86 -69 167c0 40 6 89 18 147l13 -2c-12 -57 -18 -105 -18 -146c0 -133 79 -199 238 -199h410c128 0 200 25 256 56v401h13v-401
c63 -36 142 -56 221 -56zM468 482c0 13 9 22 22 22c12 0 21 -9 21 -22c0 -12 -9 -22 -21 -22c-13 0 -22 10 -22 22zM647 482c0 13 9 22 22 22c12 0 21 -9 21 -22c0 -12 -9 -22 -21 -22c-13 0 -22 10 -22 22z" />
    <glyph glyph-name="uniFE98" unicode="&#x62a;" horiz-adv-x="455" arabic-form="medial" 
d="M455 13h16v-11c0 -1 -5 -2 -16 -2h-1c-81 0 -162 20 -227 57c-64 -37 -145 -57 -226 -57h-1c-11 0 -16 1 -16 2v11h16c79 0 158 20 221 56v401h13v-401c63 -36 142 -56 221 -56zM117 637c0 13 9 22 22 22c12 0 21 -9 21 -22c0 -12 -9 -22 -21 -22c-13 0 -22 10 -22 22z
M296 637c0 13 9 22 22 22c12 0 21 -9 21 -22c0 -12 -9 -22 -21 -22c-13 0 -22 10 -22 22z" />
    <glyph glyph-name="uniFE97" unicode="&#x62a;" horiz-adv-x="354" arabic-form="initial" 
d="M234 470v-409c-65 -40 -149 -61 -233 -61h-1c-11 0 -16 1 -16 2v11h16c79 0 158 20 221 56v401h13zM117 637c0 13 9 22 22 22c12 0 21 -9 21 -22c0 -12 -9 -22 -21 -22c-13 0 -22 10 -22 22zM296 637c0 13 9 22 22 22c12 0 21 -9 21 -22c0 -12 -9 -22 -21 -22
c-13 0 -22 10 -22 22z" />
    <glyph glyph-name="uniFE9A" unicode="&#x62b;" horiz-adv-x="1246" arabic-form="final" 
d="M1246 13h16v-11c0 -1 -5 -2 -16 -2h-1c-81 0 -162 20 -227 57c-61 -32 -137 -57 -265 -57h-404c-77 0 -138 15 -185 46c-46 31 -69 86 -69 167c0 40 6 89 18 147l13 -2c-12 -57 -18 -105 -18 -146c0 -133 79 -199 238 -199h410c128 0 200 25 256 56v401h13v-401
c63 -36 142 -56 221 -56zM557 598c0 13 9 22 22 22c12 0 21 -9 21 -22c0 -12 -9 -22 -21 -22c-13 0 -22 10 -22 22zM468 482c0 13 9 22 22 22c12 0 21 -9 21 -22c0 -12 -9 -22 -21 -22c-13 0 -22 10 -22 22zM647 482c0 13 9 22 22 22c12 0 21 -9 21 -22
c0 -12 -9 -22 -21 -22c-13 0 -22 10 -22 22z" />
    <glyph glyph-name="uniFE9C" unicode="&#x62b;" horiz-adv-x="455" arabic-form="medial" 
d="M455 13h16v-11c0 -1 -5 -2 -16 -2h-1c-81 0 -162 20 -227 57c-64 -37 -145 -57 -226 -57h-1c-11 0 -16 1 -16 2v11h16c79 0 158 20 221 56v401h13v-401c63 -36 142 -56 221 -56zM206 753c0 13 9 22 22 22c12 0 21 -9 21 -22c0 -12 -9 -22 -21 -22c-13 0 -22 10 -22 22z
M117 637c0 13 9 22 22 22c12 0 21 -9 21 -22c0 -12 -9 -22 -21 -22c-13 0 -22 10 -22 22zM296 637c0 13 9 22 22 22c12 0 21 -9 21 -22c0 -12 -9 -22 -21 -22c-13 0 -22 10 -22 22z" />
    <glyph glyph-name="uniFE9B" unicode="&#x62b;" horiz-adv-x="354" arabic-form="initial" 
d="M234 470v-409c-65 -40 -149 -61 -233 -61h-1c-11 0 -16 1 -16 2v11h16c79 0 158 20 221 56v401h13zM206 753c0 13 9 22 22 22c12 0 21 -9 21 -22c0 -12 -9 -22 -21 -22c-13 0 -22 10 -22 22zM117 637c0 13 9 22 22 22c12 0 21 -9 21 -22c0 -12 -9 -22 -21 -22
c-13 0 -22 10 -22 22zM296 637c0 13 9 22 22 22c12 0 21 -9 21 -22c0 -12 -9 -22 -21 -22c-13 0 -22 10 -22 22z" />
    <glyph glyph-name="uniFB67" unicode="&#x679;" horiz-adv-x="1246" arabic-form="final" 
d="M1246 13h16v-11c0 -1 -5 -2 -16 -2h-1c-81 0 -162 20 -227 57c-61 -32 -137 -57 -265 -57h-404c-77 0 -138 15 -185 46c-46 31 -69 86 -69 167c0 40 6 89 18 147l13 -2c-12 -57 -18 -105 -18 -146c0 -133 79 -199 238 -199h410c128 0 200 25 256 56v401h13v-401
c63 -36 142 -56 221 -56zM692 524v-54h-249v12h42v189h12v-142c33 40 77 71 124 71c44 0 71 -32 71 -76zM497 482h183v41c0 37 -23 66 -60 66c-41 0 -82 -25 -123 -74v-33z" />
    <glyph glyph-name="uniFB69" unicode="&#x679;" horiz-adv-x="455" arabic-form="medial" 
d="M455 13h16v-11c0 -1 -5 -2 -16 -2h-1c-81 0 -162 20 -227 57c-64 -37 -145 -57 -226 -57h-1c-11 0 -16 1 -16 2v11h16c79 0 158 20 221 56v401h13v-401c63 -36 142 -56 221 -56zM341 679v-54h-249v12h42v189h12v-142c33 40 77 71 124 71c44 0 71 -32 71 -76zM146 637h183
v41c0 37 -23 66 -60 66c-41 0 -82 -25 -123 -74v-33z" />
    <glyph glyph-name="uniFB68" unicode="&#x679;" horiz-adv-x="354" arabic-form="initial" 
d="M234 470v-409c-65 -40 -149 -61 -233 -61h-1c-11 0 -16 1 -16 2v11h16c79 0 158 20 221 56v401h13zM341 679v-54h-249v12h42v189h12v-142c33 40 77 71 124 71c44 0 71 -32 71 -76zM146 637h183v41c0 37 -23 66 -60 66c-41 0 -82 -25 -123 -74v-33z" />
    <glyph glyph-name="uniFE9E" unicode="&#x62c;" horiz-adv-x="660" arabic-form="final" 
d="M676 13v-11c0 -1 -5 -2 -16 -2h-426c-111 0 -181 -62 -181 -159c0 -99 70 -162 181 -162h166v-13h-166c-119 0 -194 68 -194 175c0 105 75 172 194 172h312c-29 23 -52 51 -67 86s-29 80 -44 137c-13 50 -25 90 -37 119c-24 59 -70 102 -153 102c-45 0 -90 -17 -133 -50
l-9 9c37 31 87 54 142 54c45 0 80 -11 106 -32s45 -46 58 -77s26 -72 39 -124c28 -111 54 -178 113 -218c6 -4 17 -6 32 -6h83zM265 -165c0 13 9 22 22 22c12 0 21 -9 21 -22c0 -12 -9 -22 -21 -22c-13 0 -22 10 -22 22z" />
    <glyph glyph-name="uniFEA0" unicode="&#x62c;" horiz-adv-x="632" arabic-form="medial" 
d="M648 13v-11c0 -1 -5 -2 -16 -2h-632c-11 0 -16 1 -16 2v11h534c-29 23 -52 51 -67 86s-29 80 -44 137c-13 51 -26 90 -38 119c-23 59 -69 102 -152 102c-45 0 -90 -17 -133 -50l-9 9c37 31 87 54 142 54c45 0 80 -11 106 -32s45 -46 58 -77s26 -72 39 -124
c28 -111 54 -178 113 -218c6 -4 17 -6 32 -6h83zM235 -172c0 13 9 22 22 22c12 0 21 -9 21 -22c0 -12 -9 -22 -21 -22c-13 0 -22 10 -22 22z" />
    <glyph glyph-name="uniFE9F" unicode="&#x62c;" horiz-adv-x="622" arabic-form="initial" 
d="M542 13l-4 -13h-538c-11 0 -16 1 -16 2v11h534c-29 23 -52 51 -67 86s-29 80 -44 137c-13 51 -26 90 -38 119c-23 59 -69 102 -152 102c-45 0 -90 -17 -133 -50l-9 9c37 31 87 54 142 54c45 0 80 -11 106 -32s45 -46 58 -77s26 -72 39 -124c29 -116 57 -185 122 -224z
M235 -172c0 13 9 22 22 22c12 0 21 -9 21 -22c0 -12 -9 -22 -21 -22c-13 0 -22 10 -22 22z" />
    <glyph glyph-name="uniFB7B" unicode="&#x686;" horiz-adv-x="660" arabic-form="final" 
d="M676 13v-11c0 -1 -5 -2 -16 -2h-426c-111 0 -181 -62 -181 -159c0 -99 70 -162 181 -162h166v-13h-166c-119 0 -194 68 -194 175c0 105 75 172 194 172h312c-29 23 -52 51 -67 86s-29 80 -44 137c-13 50 -25 90 -37 119c-24 59 -70 102 -153 102c-45 0 -90 -17 -133 -50
l-9 9c37 31 87 54 142 54c45 0 80 -11 106 -32s45 -46 58 -77s26 -72 39 -124c28 -111 54 -178 113 -218c6 -4 17 -6 32 -6h83zM232 -95c12 0 21 -9 21 -22c0 -12 -9 -22 -21 -22c-13 0 -22 10 -22 22c0 13 9 22 22 22zM383 -96c12 0 21 -9 21 -22c0 -12 -9 -22 -21 -22
c-13 0 -22 10 -22 22c0 13 9 22 22 22zM329 -219c0 -12 -9 -22 -21 -22c-13 0 -22 10 -22 22c0 13 9 22 22 22c12 0 21 -9 21 -22z" />
    <glyph glyph-name="uniFB7D" unicode="&#x686;" horiz-adv-x="632" arabic-form="medial" 
d="M648 13v-11c0 -1 -5 -2 -16 -2h-632c-11 0 -16 1 -16 2v11h534c-29 23 -52 51 -67 86s-29 80 -44 137c-13 51 -26 90 -38 119c-23 59 -69 102 -152 102c-45 0 -90 -17 -133 -50l-9 9c37 31 87 54 142 54c45 0 80 -11 106 -32s45 -46 58 -77s26 -72 39 -124
c28 -111 54 -178 113 -218c6 -4 17 -6 32 -6h83zM146 -172c0 13 9 22 22 22c12 0 21 -9 21 -22c0 -12 -9 -22 -21 -22c-13 0 -22 10 -22 22zM325 -173c0 13 9 22 22 22c12 0 21 -9 21 -22c0 -12 -9 -22 -21 -22c-13 0 -22 10 -22 22zM236 -288c0 13 9 22 22 22
c12 0 21 -9 21 -22c0 -12 -9 -22 -21 -22c-13 0 -22 10 -22 22z" />
    <glyph glyph-name="uniFB7C" unicode="&#x686;" horiz-adv-x="622" arabic-form="initial" 
d="M542 13l-4 -13h-538c-11 0 -16 1 -16 2v11h534c-29 23 -52 51 -67 86s-29 80 -44 137c-13 51 -26 90 -38 119c-23 59 -69 102 -152 102c-45 0 -90 -17 -133 -50l-9 9c37 31 87 54 142 54c45 0 80 -11 106 -32s45 -46 58 -77s26 -72 39 -124c29 -116 57 -185 122 -224z
M146 -172c0 13 9 22 22 22c12 0 21 -9 21 -22c0 -12 -9 -22 -21 -22c-13 0 -22 10 -22 22zM325 -173c0 13 9 22 22 22c12 0 21 -9 21 -22c0 -12 -9 -22 -21 -22c-13 0 -22 10 -22 22zM236 -288c0 13 9 22 22 22c12 0 21 -9 21 -22c0 -12 -9 -22 -21 -22c-13 0 -22 10 -22 22
z" />
    <glyph glyph-name="uniFEA2" unicode="&#x62d;" horiz-adv-x="660" arabic-form="final" 
d="M676 13v-11c0 -1 -5 -2 -16 -2h-426c-111 0 -181 -62 -181 -159c0 -99 70 -162 181 -162h166v-13h-166c-119 0 -194 68 -194 175c0 105 75 172 194 172h312c-29 23 -52 51 -67 86s-29 80 -44 137c-13 50 -25 90 -37 119c-24 59 -70 102 -153 102c-45 0 -90 -17 -133 -50
l-9 9c37 31 87 54 142 54c45 0 80 -11 106 -32s45 -46 58 -77s26 -72 39 -124c28 -111 54 -178 113 -218c6 -4 17 -6 32 -6h83z" />
    <glyph glyph-name="uniFEA4" unicode="&#x62d;" horiz-adv-x="632" arabic-form="medial" 
d="M648 13v-11c0 -1 -5 -2 -16 -2h-632c-11 0 -16 1 -16 2v11h534c-29 23 -52 51 -67 86s-29 80 -44 137c-13 51 -26 90 -38 119c-23 59 -69 102 -152 102c-45 0 -90 -17 -133 -50l-9 9c37 31 87 54 142 54c45 0 80 -11 106 -32s45 -46 58 -77s26 -72 39 -124
c28 -111 54 -178 113 -218c6 -4 17 -6 32 -6h83z" />
    <glyph glyph-name="uniFEA3" unicode="&#x62d;" horiz-adv-x="622" arabic-form="initial" 
d="M542 13l-4 -13h-538c-11 0 -16 1 -16 2v11h534c-29 23 -52 51 -67 86s-29 80 -44 137c-13 51 -26 90 -38 119c-23 59 -69 102 -152 102c-45 0 -90 -17 -133 -50l-9 9c37 31 87 54 142 54c45 0 80 -11 106 -32s45 -46 58 -77s26 -72 39 -124c29 -116 57 -185 122 -224z
" />
    <glyph glyph-name="uniFEA6" unicode="&#x62e;" horiz-adv-x="660" arabic-form="final" 
d="M676 13v-11c0 -1 -5 -2 -16 -2h-426c-111 0 -181 -62 -181 -159c0 -99 70 -162 181 -162h166v-13h-166c-119 0 -194 68 -194 175c0 105 75 172 194 172h312c-29 23 -52 51 -67 86s-29 80 -44 137c-13 50 -25 90 -37 119c-24 59 -70 102 -153 102c-45 0 -90 -17 -133 -50
l-9 9c37 31 87 54 142 54c45 0 80 -11 106 -32s45 -46 58 -77s26 -72 39 -124c28 -111 54 -178 113 -218c6 -4 17 -6 32 -6h83zM235 637c0 13 9 22 22 22c12 0 21 -9 21 -22c0 -12 -9 -22 -21 -22c-13 0 -22 10 -22 22z" />
    <glyph glyph-name="uniFEA8" unicode="&#x62e;" horiz-adv-x="632" arabic-form="medial" 
d="M648 13v-11c0 -1 -5 -2 -16 -2h-632c-11 0 -16 1 -16 2v11h534c-29 23 -52 51 -67 86s-29 80 -44 137c-13 51 -26 90 -38 119c-23 59 -69 102 -152 102c-45 0 -90 -17 -133 -50l-9 9c37 31 87 54 142 54c45 0 80 -11 106 -32s45 -46 58 -77s26 -72 39 -124
c28 -111 54 -178 113 -218c6 -4 17 -6 32 -6h83zM205 637c0 13 9 22 22 22c12 0 21 -9 21 -22c0 -12 -9 -22 -21 -22c-13 0 -22 10 -22 22z" />
    <glyph glyph-name="uniFEA7" unicode="&#x62e;" horiz-adv-x="622" arabic-form="initial" 
d="M542 13l-4 -13h-538c-11 0 -16 1 -16 2v11h534c-29 23 -52 51 -67 86s-29 80 -44 137c-13 51 -26 90 -38 119c-23 59 -69 102 -152 102c-45 0 -90 -17 -133 -50l-9 9c37 31 87 54 142 54c45 0 80 -11 106 -32s45 -46 58 -77s26 -72 39 -124c29 -116 57 -185 122 -224z
M205 637c0 13 9 22 22 22c12 0 21 -9 21 -22c0 -12 -9 -22 -21 -22c-13 0 -22 10 -22 22z" />
    <glyph glyph-name="uniFEAA" unicode="&#x62f;" horiz-adv-x="661" arabic-form="final" 
d="M677 13v-11c0 -1 -5 -2 -16 -2h-611v13h407v196c0 150 -53 198 -219 198h-72v13h72c177 0 232 -55 232 -211v-196h207z" />
    <glyph glyph-name="uniFEAC" unicode="&#x630;" horiz-adv-x="661" arabic-form="final" 
d="M677 13v-11c0 -1 -5 -2 -16 -2h-611v13h407v196c0 150 -53 198 -219 198h-72v13h72c177 0 232 -55 232 -211v-196h207zM216 587c0 13 9 22 22 22c12 0 21 -9 21 -22c0 -12 -9 -22 -21 -22c-13 0 -22 10 -22 22z" />
    <glyph glyph-name="uniFB89" unicode="&#x688;" horiz-adv-x="661" arabic-form="final" 
d="M677 13v-11c0 -1 -5 -2 -16 -2h-611v13h407v196c0 150 -53 198 -219 198h-72v13h72c177 0 232 -55 232 -211v-196h207zM351 629v-54h-249v12h42v189h12v-142c33 40 77 71 124 71c44 0 71 -32 71 -76zM156 587h183v41c0 37 -23 66 -60 66c-41 0 -82 -25 -123 -74v-33z" />
    <glyph glyph-name="uniFEAE" unicode="&#x631;" horiz-adv-x="420" arabic-form="final" 
d="M420 13h16v-11c0 -1 -5 -2 -16 -2h-1c-77 0 -156 18 -220 53v-39c0 -180 -74 -267 -233 -267c-17 0 -36 1 -56 3l2 13c20 -2 38 -3 54 -3c151 0 220 82 220 254v456h13v-401c63 -36 142 -56 221 -56z" />
    <glyph glyph-name="uniFEB0" unicode="&#x632;" horiz-adv-x="420" arabic-form="final" 
d="M420 13h16v-11c0 -1 -5 -2 -16 -2h-1c-77 0 -156 18 -220 53v-39c0 -180 -74 -267 -233 -267c-17 0 -36 1 -56 3l2 13c20 -2 38 -3 54 -3c151 0 220 82 220 254v456h13v-401c63 -36 142 -56 221 -56zM170 637c0 13 9 22 22 22c12 0 21 -9 21 -22c0 -12 -9 -22 -21 -22
c-13 0 -22 10 -22 22z" />
    <glyph glyph-name="uniFB8D" unicode="&#x691;" horiz-adv-x="420" arabic-form="final" 
d="M420 13h16v-11c0 -1 -5 -2 -16 -2h-1c-77 0 -156 18 -220 53v-39c0 -180 -74 -267 -233 -267c-17 0 -36 1 -56 3l2 13c20 -2 38 -3 54 -3c151 0 220 82 220 254v456h13v-401c63 -36 142 -56 221 -56zM305 679v-54h-249v12h42v189h12v-142c33 40 77 71 124 71
c44 0 71 -32 71 -76zM110 637h183v41c0 37 -23 66 -60 66c-41 0 -82 -25 -123 -74v-33z" />
    <glyph glyph-name="uniFB8B" unicode="&#x698;" horiz-adv-x="420" arabic-form="final" 
d="M420 13h16v-11c0 -1 -5 -2 -16 -2h-1c-77 0 -156 18 -220 53v-39c0 -180 -74 -267 -233 -267c-17 0 -36 1 -56 3l2 13c20 -2 38 -3 54 -3c151 0 220 82 220 254v456h13v-401c63 -36 142 -56 221 -56zM170 753c0 13 9 22 22 22c12 0 21 -9 21 -22c0 -12 -9 -22 -21 -22
c-13 0 -22 10 -22 22zM81 637c0 13 9 22 22 22c12 0 21 -9 21 -22c0 -12 -9 -22 -21 -22c-13 0 -22 10 -22 22zM260 637c0 13 9 22 22 22c12 0 21 -9 21 -22c0 -12 -9 -22 -21 -22c-13 0 -22 10 -22 22z" />
    <glyph glyph-name="uniFEB2" unicode="&#x633;" horiz-adv-x="1597" arabic-form="final" 
d="M1597 13h16v-11c0 -1 -5 -2 -16 -2h-1c-81 0 -164 21 -227 58c-51 -41 -105 -62 -162 -62c-59 0 -113 21 -162 62c-51 -41 -105 -62 -163 -62c-55 0 -109 20 -156 57v-222c-87 -56 -188 -84 -301 -84c-216 0 -335 106 -335 282c0 45 7 103 18 138l12 -3
c-11 -39 -17 -95 -17 -135c0 -168 113 -269 320 -269c125 0 211 32 290 77v503h13v-270c45 -40 101 -61 156 -61s111 21 156 61v270h13v-270c45 -40 101 -61 156 -61s111 21 156 61v320h13v-321c63 -36 142 -56 221 -56z" />
    <glyph glyph-name="uniFEB4" unicode="&#x633;" horiz-adv-x="1105" arabic-form="medial" 
d="M1105 13h16v-11c0 -1 -5 -2 -16 -2h-1c-83 0 -165 22 -230 59c-49 -39 -102 -59 -159 -59c-59 0 -113 21 -162 62c-51 -41 -105 -62 -163 -62c-57 0 -114 22 -162 62c-65 -39 -148 -62 -227 -62h-1c-11 0 -16 1 -16 2v11h16c77 0 157 23 221 60v267h13v-266
c45 -40 101 -61 156 -61s111 21 156 61v266h13v-266c45 -40 101 -61 156 -61s111 21 156 61v316h13v-321c63 -36 142 -56 221 -56z" />
    <glyph glyph-name="uniFEB3" unicode="&#x633;" horiz-adv-x="1004" arabic-form="initial" 
d="M871 470h13v-402c-51 -45 -108 -68 -169 -68c-59 0 -113 21 -162 62c-51 -41 -105 -62 -163 -62c-57 0 -114 22 -162 62c-65 -39 -148 -62 -227 -62h-1c-11 0 -16 1 -16 2v11h16c77 0 157 23 221 60v267h13v-266c45 -40 101 -61 156 -61s111 21 156 61v266h13v-266
c45 -40 101 -61 156 -61s111 21 156 61v396z" />
    <glyph glyph-name="uniFEB6" unicode="&#x634;" horiz-adv-x="1597" arabic-form="final" 
d="M1597 13h16v-11c0 -1 -5 -2 -16 -2h-1c-81 0 -164 21 -227 58c-51 -41 -105 -62 -162 -62c-59 0 -113 21 -162 62c-51 -41 -105 -62 -163 -62c-55 0 -109 20 -156 57v-222c-87 -56 -188 -84 -301 -84c-216 0 -335 106 -335 282c0 45 7 103 18 138l12 -3
c-11 -39 -17 -95 -17 -135c0 -168 113 -269 320 -269c125 0 211 32 290 77v503h13v-270c45 -40 101 -61 156 -61s111 21 156 61v270h13v-270c45 -40 101 -61 156 -61s111 21 156 61v320h13v-321c63 -36 142 -56 221 -56zM1022 623c0 13 9 22 22 22c12 0 21 -9 21 -22
c0 -12 -9 -22 -21 -22c-13 0 -22 10 -22 22zM933 507c0 13 9 22 22 22c12 0 21 -9 21 -22c0 -12 -9 -22 -21 -22c-13 0 -22 10 -22 22zM1112 507c0 13 9 22 22 22c12 0 21 -9 21 -22c0 -12 -9 -22 -21 -22c-13 0 -22 10 -22 22z" />
    <glyph glyph-name="uniFEB8" unicode="&#x634;" horiz-adv-x="1105" arabic-form="medial" 
d="M1105 13h16v-11c0 -1 -5 -2 -16 -2h-1c-83 0 -165 22 -230 59c-49 -39 -102 -59 -159 -59c-59 0 -113 21 -162 62c-51 -41 -105 -62 -163 -62c-57 0 -114 22 -162 62c-65 -39 -148 -62 -227 -62h-1c-11 0 -16 1 -16 2v11h16c77 0 157 23 221 60v267h13v-266
c45 -40 101 -61 156 -61s111 21 156 61v266h13v-266c45 -40 101 -61 156 -61s111 21 156 61v316h13v-321c63 -36 142 -56 221 -56zM529 623c0 13 9 22 22 22c12 0 21 -9 21 -22c0 -12 -9 -22 -21 -22c-13 0 -22 10 -22 22zM440 507c0 13 9 22 22 22c12 0 21 -9 21 -22
c0 -12 -9 -22 -21 -22c-13 0 -22 10 -22 22zM619 507c0 13 9 22 22 22c12 0 21 -9 21 -22c0 -12 -9 -22 -21 -22c-13 0 -22 10 -22 22z" />
    <glyph glyph-name="uniFEB7" unicode="&#x634;" horiz-adv-x="1004" arabic-form="initial" 
d="M871 470h13v-402c-51 -45 -108 -68 -169 -68c-59 0 -113 21 -162 62c-51 -41 -105 -62 -163 -62c-57 0 -114 22 -162 62c-65 -39 -148 -62 -227 -62h-1c-11 0 -16 1 -16 2v11h16c77 0 157 23 221 60v267h13v-266c45 -40 101 -61 156 -61s111 21 156 61v266h13v-266
c45 -40 101 -61 156 -61s111 21 156 61v396zM529 623c0 13 9 22 22 22c12 0 21 -9 21 -22c0 -12 -9 -22 -21 -22c-13 0 -22 10 -22 22zM440 507c0 13 9 22 22 22c12 0 21 -9 21 -22c0 -12 -9 -22 -21 -22c-13 0 -22 10 -22 22zM619 507c0 13 9 22 22 22c12 0 21 -9 21 -22
c0 -12 -9 -22 -21 -22c-13 0 -22 10 -22 22z" />
    <glyph glyph-name="uniFEBA" unicode="&#x635;" horiz-adv-x="1565" arabic-form="final" 
d="M1581 13v-11c0 -1 -5 -2 -16 -2h-839v-169c-87 -56 -188 -84 -301 -84c-216 0 -335 106 -335 282c0 45 7 103 18 138l12 -3c-11 -39 -17 -95 -17 -135c0 -168 113 -269 320 -269c125 0 211 32 290 77v573h13v-196c125 168 256 256 397 256c147 0 231 -94 231 -254v-203
h227zM726 13h615v203c0 153 -79 241 -218 241c-141 0 -268 -89 -397 -265v-179z" />
    <glyph glyph-name="uniFEBC" unicode="&#x635;" horiz-adv-x="1073" arabic-form="medial" 
d="M1089 13v-11c0 -1 -5 -2 -16 -2h-1073c-11 0 -16 1 -16 2v11h237v397h13v-196c125 168 256 256 397 256c147 0 231 -94 231 -254v-203h227zM234 13h615v203c0 153 -79 241 -218 241c-141 0 -268 -89 -397 -265v-179z" />
    <glyph glyph-name="uniFEBB" unicode="&#x635;" horiz-adv-x="972" arabic-form="initial" 
d="M862 216v-216h-862c-11 0 -16 1 -16 2v11h237v397h13v-196c125 168 256 256 397 256c147 0 231 -94 231 -254zM234 13h615v203c0 153 -79 241 -218 241c-141 0 -268 -89 -397 -265v-179z" />
    <glyph glyph-name="uniFEBE" unicode="&#x636;" horiz-adv-x="1565" arabic-form="final" 
d="M1581 13v-11c0 -1 -5 -2 -16 -2h-839v-169c-87 -56 -188 -84 -301 -84c-216 0 -335 106 -335 282c0 45 7 103 18 138l12 -3c-11 -39 -17 -95 -17 -135c0 -168 113 -269 320 -269c125 0 211 32 290 77v573h13v-196c125 168 256 256 397 256c147 0 231 -94 231 -254v-203
h227zM726 13h615v203c0 153 -79 241 -218 241c-141 0 -268 -89 -397 -265v-179zM878 637c0 13 9 22 22 22c12 0 21 -9 21 -22c0 -12 -9 -22 -21 -22c-13 0 -22 10 -22 22z" />
    <glyph glyph-name="uniFEC0" unicode="&#x636;" horiz-adv-x="1073" arabic-form="medial" 
d="M1089 13v-11c0 -1 -5 -2 -16 -2h-1073c-11 0 -16 1 -16 2v11h237v397h13v-196c125 168 256 256 397 256c147 0 231 -94 231 -254v-203h227zM234 13h615v203c0 153 -79 241 -218 241c-141 0 -268 -89 -397 -265v-179zM364 637c0 13 9 22 22 22c12 0 21 -9 21 -22
c0 -12 -9 -22 -21 -22c-13 0 -22 10 -22 22z" />
    <glyph glyph-name="uniFEBF" unicode="&#x636;" horiz-adv-x="972" arabic-form="initial" 
d="M862 216v-216h-862c-11 0 -16 1 -16 2v11h237v397h13v-196c125 168 256 256 397 256c147 0 231 -94 231 -254zM234 13h615v203c0 153 -79 241 -218 241c-141 0 -268 -89 -397 -265v-179zM364 637c0 13 9 22 22 22c12 0 21 -9 21 -22c0 -12 -9 -22 -21 -22
c-13 0 -22 10 -22 22z" />
    <glyph glyph-name="uniFEC2" unicode="&#x637;" horiz-adv-x="1043" arabic-form="final" 
d="M1059 13v-11c0 -1 -5 -2 -16 -2h-1003v13h150v687h13v-487c49 69 106 129 171 180c66 51 142 77 229 77c149 0 229 -98 229 -254v-203h227zM203 13h616v203c0 159 -84 241 -216 241c-88 0 -164 -26 -228 -79c-64 -52 -121 -114 -172 -187v-178z" />
    <glyph glyph-name="uniFEC4" unicode="&#x637;" horiz-adv-x="1074" arabic-form="medial" 
d="M1090 13v-11c0 -1 -5 -2 -16 -2h-1074c-11 0 -16 1 -16 2v11h237v687h13v-487c49 69 106 129 171 180c66 51 142 77 229 77c149 0 229 -98 229 -254v-203h227zM234 13h616v203c0 159 -84 241 -216 241c-88 0 -164 -26 -228 -79c-64 -52 -121 -114 -172 -187v-178z" />
    <glyph glyph-name="uniFEC3" unicode="&#x637;" horiz-adv-x="973" arabic-form="initial" 
d="M863 216v-216h-863c-11 0 -16 1 -16 2v11h237v687h13v-487c49 69 106 129 171 180c66 51 142 77 229 77c149 0 229 -98 229 -254zM234 13h616v203c0 159 -84 241 -216 241c-88 0 -164 -26 -228 -79c-64 -52 -121 -114 -172 -187v-178z" />
    <glyph glyph-name="uniFEC6" unicode="&#x638;" horiz-adv-x="1043" arabic-form="final" 
d="M1059 13v-11c0 -1 -5 -2 -16 -2h-1003v13h150v687h13v-487c49 69 106 129 171 180c66 51 142 77 229 77c149 0 229 -98 229 -254v-203h227zM203 13h616v203c0 159 -84 241 -216 241c-88 0 -164 -26 -228 -79c-64 -52 -121 -114 -172 -187v-178zM431 637c0 13 9 22 22 22
c12 0 21 -9 21 -22c0 -12 -9 -22 -21 -22c-13 0 -22 10 -22 22z" />
    <glyph glyph-name="uniFEC8" unicode="&#x638;" horiz-adv-x="1074" arabic-form="medial" 
d="M1090 13v-11c0 -1 -5 -2 -16 -2h-1074c-11 0 -16 1 -16 2v11h237v687h13v-487c49 69 106 129 171 180c66 51 142 77 229 77c149 0 229 -98 229 -254v-203h227zM234 13h616v203c0 159 -84 241 -216 241c-88 0 -164 -26 -228 -79c-64 -52 -121 -114 -172 -187v-178z
M462 637c0 13 9 22 22 22c12 0 21 -9 21 -22c0 -12 -9 -22 -21 -22c-13 0 -22 10 -22 22z" />
    <glyph glyph-name="uniFEC7" unicode="&#x638;" horiz-adv-x="973" arabic-form="initial" 
d="M863 216v-216h-863c-11 0 -16 1 -16 2v11h237v687h13v-487c49 69 106 129 171 180c66 51 142 77 229 77c149 0 229 -98 229 -254zM234 13h616v203c0 159 -84 241 -216 241c-88 0 -164 -26 -228 -79c-64 -52 -121 -114 -172 -187v-178zM462 637c0 13 9 22 22 22
c12 0 21 -9 21 -22c0 -12 -9 -22 -21 -22c-13 0 -22 10 -22 22z" />
    <glyph glyph-name="uniFECA" unicode="&#x639;" horiz-adv-x="742" arabic-form="final" 
d="M758 13v-11c0 -1 -5 -2 -16 -2h-468c-109 0 -181 -65 -181 -160c0 -99 70 -161 181 -161h146v-13h-146c-119 0 -194 67 -194 174c0 51 18 93 53 125s82 48 141 48h37l-217 363l1 13c83 49 181 81 282 81c147 0 234 -66 234 -182c0 -61 -22 -115 -66 -164
c-44 -48 -100 -85 -169 -111h382zM106 381l220 -368h16c73 25 134 62 183 110s73 103 73 165c0 109 -84 169 -220 169c-96 0 -193 -29 -272 -76z" />
    <glyph glyph-name="uniFECC" unicode="&#x639;" horiz-adv-x="722" arabic-form="medial" 
d="M738 13v-11c0 -1 -5 -2 -16 -2h-722c-11 0 -16 1 -16 2v11h307l-217 363l1 13c83 49 181 81 282 81c147 0 234 -66 234 -182c0 -61 -22 -115 -66 -164c-44 -48 -100 -85 -169 -111h382zM86 381l220 -368h16c73 25 134 62 183 110s73 103 73 165c0 109 -84 169 -220 169
c-96 0 -193 -29 -272 -76z" />
    <glyph glyph-name="uniFECB" unicode="&#x639;" horiz-adv-x="678" arabic-form="initial" 
d="M377 13h221v-13h-598c-11 0 -16 1 -16 2v11h316c-101 28 -167 111 -167 220c0 135 103 237 235 237c61 0 128 -22 161 -49l-6 -11c-37 28 -100 47 -155 47c-126 0 -222 -97 -222 -225c0 -125 99 -219 231 -219z" />
    <glyph glyph-name="uniFECE" unicode="&#x63a;" horiz-adv-x="742" arabic-form="final" 
d="M758 13v-11c0 -1 -5 -2 -16 -2h-468c-109 0 -181 -65 -181 -160c0 -99 70 -161 181 -161h146v-13h-146c-119 0 -194 67 -194 174c0 51 18 93 53 125s82 48 141 48h37l-217 363l1 13c83 49 181 81 282 81c147 0 234 -66 234 -182c0 -61 -22 -115 -66 -164
c-44 -48 -100 -85 -169 -111h382zM106 381l220 -368h16c73 25 134 62 183 110s73 103 73 165c0 109 -84 169 -220 169c-96 0 -193 -29 -272 -76zM353 637c0 13 9 22 22 22c12 0 21 -9 21 -22c0 -12 -9 -22 -21 -22c-13 0 -22 10 -22 22z" />
    <glyph glyph-name="uniFED0" unicode="&#x63a;" horiz-adv-x="722" arabic-form="medial" 
d="M738 13v-11c0 -1 -5 -2 -16 -2h-722c-11 0 -16 1 -16 2v11h307l-217 363l1 13c83 49 181 81 282 81c147 0 234 -66 234 -182c0 -61 -22 -115 -66 -164c-44 -48 -100 -85 -169 -111h382zM86 381l220 -368h16c73 25 134 62 183 110s73 103 73 165c0 109 -84 169 -220 169
c-96 0 -193 -29 -272 -76zM333 637c0 13 9 22 22 22c12 0 21 -9 21 -22c0 -12 -9 -22 -21 -22c-13 0 -22 10 -22 22z" />
    <glyph glyph-name="uniFECF" unicode="&#x63a;" horiz-adv-x="678" arabic-form="initial" 
d="M377 13h221v-13h-598c-11 0 -16 1 -16 2v11h316c-101 28 -167 111 -167 220c0 135 103 237 235 237c61 0 128 -22 161 -49l-6 -11c-37 28 -100 47 -155 47c-126 0 -222 -97 -222 -225c0 -125 99 -219 231 -219zM346 637c0 13 9 22 22 22c12 0 21 -9 21 -22
c0 -12 -9 -22 -21 -22c-13 0 -22 10 -22 22z" />
    <glyph glyph-name="uniFED2" unicode="&#x641;" horiz-adv-x="1357" arabic-form="final" 
d="M1373 13v-11c0 -1 -5 -2 -16 -2h-1008c-77 0 -138 15 -185 46c-46 31 -69 86 -69 167c0 40 6 89 18 147l13 -2c-12 -57 -18 -105 -18 -146c0 -133 79 -199 238 -199h651c-195 28 -310 123 -310 270c0 138 105 234 249 234c73 0 147 -24 200 -57v-447h237zM1123 14v439
c-55 31 -123 51 -187 51c-138 0 -236 -91 -236 -221c0 -166 164 -269 423 -269zM914 684c0 13 9 22 22 22c12 0 21 -9 21 -22c0 -12 -9 -22 -21 -22c-13 0 -22 10 -22 22z" />
    <glyph glyph-name="uniFED4" unicode="&#x641;" horiz-adv-x="758" arabic-form="medial" 
d="M774 13v-11c0 -1 -5 -2 -16 -2h-758c-11 0 -16 1 -16 2v11h361c-96 35 -208 137 -208 274c0 130 102 225 242 225c143 0 242 -96 242 -225c0 -137 -112 -239 -207 -274h360zM380 13c92 26 231 130 228 273c0 127 -97 213 -229 213c-130 0 -229 -86 -229 -213
c-4 -143 138 -247 230 -273zM356 679c0 13 9 22 22 22c12 0 21 -9 21 -22c0 -12 -9 -22 -21 -22c-13 0 -22 10 -22 22z" />
    <glyph glyph-name="uniFED3" unicode="&#x641;" horiz-adv-x="698" arabic-form="initial" 
d="M578 460v-419c-73 -27 -165 -41 -276 -41h-302c-11 0 -16 1 -16 2v11h321c93 0 175 10 245 31c-269 3 -413 74 -413 246c0 135 99 227 240 227c72 0 144 -22 201 -57zM565 55v398c-62 34 -125 51 -188 51c-135 0 -227 -88 -227 -214c0 -165 144 -234 415 -235zM355 684
c0 13 9 22 22 22c12 0 21 -9 21 -22c0 -12 -9 -22 -21 -22c-13 0 -22 10 -22 22z" />
    <glyph glyph-name="uniFB6B" unicode="&#x6a4;" horiz-adv-x="1357" arabic-form="final" 
d="M1373 13v-11c0 -1 -5 -2 -16 -2h-1008c-77 0 -138 15 -185 46c-46 31 -69 86 -69 167c0 40 6 89 18 147l13 -2c-12 -57 -18 -105 -18 -146c0 -133 79 -199 238 -199h651c-195 28 -310 123 -310 270c0 138 105 234 249 234c73 0 147 -24 200 -57v-447h237zM1123 14v439
c-55 31 -123 51 -187 51c-138 0 -236 -91 -236 -221c0 -166 164 -269 423 -269zM914 800c0 13 9 22 22 22c12 0 21 -9 21 -22c0 -12 -9 -22 -21 -22c-13 0 -22 10 -22 22zM825 684c0 13 9 22 22 22c12 0 21 -9 21 -22c0 -12 -9 -22 -21 -22c-13 0 -22 10 -22 22zM1004 684
c0 13 9 22 22 22c12 0 21 -9 21 -22c0 -12 -9 -22 -21 -22c-13 0 -22 10 -22 22z" />
    <glyph glyph-name="uniFB6D" unicode="&#x6a4;" horiz-adv-x="758" arabic-form="medial" 
d="M774 13v-11c0 -1 -5 -2 -16 -2h-758c-11 0 -16 1 -16 2v11h361c-96 35 -208 137 -208 274c0 130 102 225 242 225c143 0 242 -96 242 -225c0 -137 -112 -239 -207 -274h360zM380 13c92 26 231 130 228 273c0 127 -97 213 -229 213c-130 0 -229 -86 -229 -213
c-4 -143 138 -247 230 -273zM356 795c0 13 9 22 22 22c12 0 21 -9 21 -22c0 -12 -9 -22 -21 -22c-13 0 -22 10 -22 22zM267 679c0 13 9 22 22 22c12 0 21 -9 21 -22c0 -12 -9 -22 -21 -22c-13 0 -22 10 -22 22zM446 679c0 13 9 22 22 22c12 0 21 -9 21 -22
c0 -12 -9 -22 -21 -22c-13 0 -22 10 -22 22z" />
    <glyph glyph-name="uniFB6C" unicode="&#x6a4;" horiz-adv-x="698" arabic-form="initial" 
d="M578 460v-419c-73 -27 -165 -41 -276 -41h-302c-11 0 -16 1 -16 2v11h321c93 0 175 10 245 31c-269 3 -413 74 -413 246c0 135 99 227 240 227c72 0 144 -22 201 -57zM565 55v398c-62 34 -125 51 -188 51c-135 0 -227 -88 -227 -214c0 -165 144 -234 415 -235zM355 800
c0 13 9 22 22 22c12 0 21 -9 21 -22c0 -12 -9 -22 -21 -22c-13 0 -22 10 -22 22zM266 684c0 13 9 22 22 22c12 0 21 -9 21 -22c0 -12 -9 -22 -21 -22c-13 0 -22 10 -22 22zM445 684c0 13 9 22 22 22c12 0 21 -9 21 -22c0 -12 -9 -22 -21 -22c-13 0 -22 10 -22 22z" />
    <glyph glyph-name="uni06A1.init" unicode="&#x6a1;" horiz-adv-x="698" 
d="M578 460v-419c-73 -27 -165 -41 -276 -41h-302c-11 0 -16 1 -16 2v11h321c93 0 175 10 245 31c-269 3 -413 74 -413 246c0 135 99 227 240 227c72 0 144 -22 201 -57zM565 55v398c-62 34 -125 51 -188 51c-135 0 -227 -88 -227 -214c0 -165 144 -234 415 -235z" />
    <glyph glyph-name="uni06A1.medi" unicode="&#x6a1;" horiz-adv-x="758" 
d="M774 13v-11c0 -1 -5 -2 -16 -2h-758c-11 0 -16 1 -16 2v11h361c-96 35 -208 137 -208 274c0 130 102 225 242 225c143 0 242 -96 242 -225c0 -137 -112 -239 -207 -274h360zM380 13c92 26 231 130 228 273c0 127 -97 213 -229 213c-130 0 -229 -86 -229 -213
c-4 -143 138 -247 230 -273z" />
    <glyph glyph-name="uni06A1.fina" unicode="&#x6a1;" horiz-adv-x="1357" 
d="M1373 13v-11c0 -1 -5 -2 -16 -2h-1008c-77 0 -138 15 -185 46c-46 31 -69 86 -69 167c0 40 6 89 18 147l13 -2c-12 -57 -18 -105 -18 -146c0 -133 79 -199 238 -199h651c-195 28 -310 123 -310 270c0 138 105 234 249 234c73 0 147 -24 200 -57v-447h237zM1123 14v439
c-55 31 -123 51 -187 51c-138 0 -236 -91 -236 -221c0 -166 164 -269 423 -269z" />
    <glyph glyph-name="uni066F.fina" unicode="&#x66f;" horiz-adv-x="987" 
d="M1003 13v-11c0 -1 -5 -2 -16 -2h-221v-169c-90 -56 -197 -84 -320 -84c-232 0 -356 105 -356 282c0 44 8 105 19 138l12 -3c-11 -39 -18 -96 -18 -135c0 -169 117 -269 340 -269c139 0 229 32 310 77v163h-184c-153 0 -263 93 -263 236c0 144 119 230 262 230
c77 0 151 -27 198 -62v-391h237zM569 13h184v384c-48 36 -116 56 -185 56c-135 0 -249 -80 -249 -218c0 -141 112 -222 250 -222z" />
    <glyph glyph-name="uniFED6" unicode="&#x642;" horiz-adv-x="987" arabic-form="final" 
d="M1003 13v-11c0 -1 -5 -2 -16 -2h-221v-169c-90 -56 -197 -84 -320 -84c-232 0 -356 105 -356 282c0 44 8 105 19 138l12 -3c-11 -39 -18 -96 -18 -135c0 -169 117 -269 340 -269c139 0 229 32 310 77v163h-184c-153 0 -263 93 -263 236c0 144 119 230 262 230
c77 0 151 -27 198 -62v-391h237zM569 13h184v384c-48 36 -116 56 -185 56c-135 0 -249 -80 -249 -218c0 -141 112 -222 250 -222zM462 633c0 13 9 22 22 22c12 0 21 -9 21 -22c0 -12 -9 -22 -21 -22c-13 0 -22 10 -22 22zM641 633c0 13 9 22 22 22c12 0 21 -9 21 -22
c0 -12 -9 -22 -21 -22c-13 0 -22 10 -22 22z" />
    <glyph glyph-name="uniFED8" unicode="&#x642;" horiz-adv-x="758" arabic-form="medial" 
d="M774 13v-11c0 -1 -5 -2 -16 -2h-758c-11 0 -16 1 -16 2v11h361c-96 35 -208 137 -208 274c0 130 102 225 242 225c143 0 242 -96 242 -225c0 -137 -112 -239 -207 -274h360zM380 13c92 26 231 130 228 273c0 127 -97 213 -229 213c-130 0 -229 -86 -229 -213
c-4 -143 138 -247 230 -273zM267 679c0 13 9 22 22 22c12 0 21 -9 21 -22c0 -12 -9 -22 -21 -22c-13 0 -22 10 -22 22zM446 679c0 13 9 22 22 22c12 0 21 -9 21 -22c0 -12 -9 -22 -21 -22c-13 0 -22 10 -22 22z" />
    <glyph glyph-name="uniFED7" unicode="&#x642;" horiz-adv-x="698" arabic-form="initial" 
d="M578 460v-419c-73 -27 -165 -41 -276 -41h-302c-11 0 -16 1 -16 2v11h321c93 0 175 10 245 31c-269 3 -413 74 -413 246c0 135 99 227 240 227c72 0 144 -22 201 -57zM565 55v398c-62 34 -125 51 -188 51c-135 0 -227 -88 -227 -214c0 -165 144 -234 415 -235zM266 684
c0 13 9 22 22 22c12 0 21 -9 21 -22c0 -12 -9 -22 -21 -22c-13 0 -22 10 -22 22zM445 684c0 13 9 22 22 22c12 0 21 -9 21 -22c0 -12 -9 -22 -21 -22c-13 0 -22 10 -22 22z" />
    <glyph glyph-name="uniFEDA" unicode="&#x643;" horiz-adv-x="1171" arabic-form="final" 
d="M1171 13h16v-11c0 -1 -5 -2 -16 -2h-1c-79 0 -163 21 -227 57c-61 -32 -137 -57 -265 -57h-329c-77 0 -138 15 -185 46c-46 31 -69 86 -69 167c0 40 6 89 18 147l13 -2c-12 -57 -18 -105 -18 -146c0 -133 79 -199 238 -199h335c128 0 200 25 256 56v661h13v-661
c61 -36 144 -56 221 -56zM621 323v-12h-170v12h62c-25 15 -41 40 -41 69c0 49 35 84 82 84c20 0 42 -7 57 -16l-6 -10c-13 8 -34 14 -51 14c-41 0 -70 -29 -70 -72c0 -39 32 -69 73 -69h64z" />
    <glyph glyph-name="uniFEDC" unicode="&#x643;" horiz-adv-x="655" arabic-form="medial" 
d="M655 13h16v-11c0 -1 -5 -2 -16 -2c-71 0 -133 13 -186 39c-67 -25 -159 -39 -256 -39h-213c-11 0 -16 1 -16 2v11h231c92 0 186 14 247 38v68c0 145 -84 224 -252 265l-89 22l-5 13l344 290l8 -10l-334 -283l79 -19c176 -43 262 -127 262 -278v-68
c57 -29 116 -38 180 -38z" />
    <glyph glyph-name="uniFEDB" unicode="&#x643;" horiz-adv-x="555" arabic-form="initial" 
d="M455 123v-77c-69 -28 -165 -46 -262 -46h-193c-11 0 -16 1 -16 2v11h211c88 0 183 17 247 42v68c0 144 -83 220 -252 261l-89 22l-5 13l344 290l8 -10l-334 -283l79 -19c177 -44 262 -123 262 -274z" />
    <glyph glyph-name="uniFB8F" unicode="&#x6a9;" horiz-adv-x="1155" arabic-form="final" 
d="M1155 13h16v-11c0 -1 -5 -2 -16 -2c-71 0 -133 13 -186 39c-67 -25 -159 -39 -256 -39h-364c-77 0 -138 15 -185 46c-46 31 -69 86 -69 167c0 40 6 89 18 147l13 -2c-12 -57 -18 -105 -18 -146c0 -133 79 -199 238 -199h370c92 0 185 14 246 38v68
c0 145 -84 224 -252 265l-89 22l-5 13l344 290l8 -10l-334 -283l79 -19c176 -43 262 -127 262 -278v-68c57 -29 116 -38 180 -38z" />
    <glyph glyph-name="uniFB91" unicode="&#x6a9;" horiz-adv-x="655" arabic-form="medial" 
d="M655 13h16v-11c0 -1 -5 -2 -16 -2c-71 0 -133 13 -186 39c-67 -25 -159 -39 -256 -39h-213c-11 0 -16 1 -16 2v11h231c92 0 186 14 247 38v68c0 145 -84 224 -252 265l-89 22l-5 13l344 290l8 -10l-334 -283l79 -19c176 -43 262 -127 262 -278v-68
c57 -29 116 -38 180 -38z" />
    <glyph glyph-name="uniFB90" unicode="&#x6a9;" horiz-adv-x="555" arabic-form="initial" 
d="M455 123v-77c-69 -28 -165 -46 -262 -46h-193c-11 0 -16 1 -16 2v11h211c88 0 183 17 247 42v68c0 144 -83 220 -252 261l-89 22l-5 13l344 290l8 -10l-334 -283l79 -19c177 -44 262 -123 262 -274z" />
    <glyph glyph-name="uniFB93" unicode="&#x6af;" horiz-adv-x="1155" arabic-form="final" 
d="M872 718l-280 -236l-5 13l276 233zM1155 13h16v-11c0 -1 -5 -2 -16 -2c-71 0 -133 13 -186 39c-67 -25 -159 -39 -256 -39h-364c-77 0 -138 15 -185 46c-46 31 -69 86 -69 167c0 40 6 89 18 147l13 -2c-12 -57 -18 -105 -18 -146c0 -133 79 -199 238 -199h370
c92 0 185 14 246 38v68c0 145 -84 224 -252 265l-89 22l-5 13l344 290l8 -10l-334 -283l79 -19c176 -43 262 -127 262 -278v-68c57 -29 116 -38 180 -38z" />
    <glyph glyph-name="uniFB95" unicode="&#x6af;" horiz-adv-x="655" arabic-form="medial" 
d="M372 718l-280 -236l-5 13l276 233zM655 13h16v-11c0 -1 -5 -2 -16 -2c-71 0 -133 13 -186 39c-67 -25 -159 -39 -256 -39h-213c-11 0 -16 1 -16 2v11h231c92 0 186 14 247 38v68c0 145 -84 224 -252 265l-89 22l-5 13l344 290l8 -10l-334 -283l79 -19
c176 -43 262 -127 262 -278v-68c57 -29 116 -38 180 -38z" />
    <glyph glyph-name="uniFB94" unicode="&#x6af;" horiz-adv-x="555" arabic-form="initial" 
d="M352 718l-280 -236l-5 13l276 233zM455 123v-77c-69 -28 -165 -46 -262 -46h-193c-11 0 -16 1 -16 2v11h211c88 0 183 17 247 42v68c0 144 -83 220 -252 261l-89 22l-5 13l344 290l8 -10l-334 -283l79 -19c177 -44 262 -123 262 -274z" />
    <glyph glyph-name="uniFEDE" unicode="&#x644;" horiz-adv-x="947" arabic-form="final" 
d="M947 13h16v-11c0 -1 -5 -2 -16 -2h-1c-76 0 -157 19 -220 54v-223c-87 -56 -188 -84 -301 -84c-216 0 -335 106 -335 282c0 45 7 103 18 138l12 -3c-11 -39 -17 -95 -17 -135c0 -168 113 -269 320 -269c125 0 211 32 290 77v893h13v-661c61 -36 145 -56 221 -56z" />
    <glyph glyph-name="uniFEE0" unicode="&#x644;" horiz-adv-x="455" arabic-form="medial" 
d="M455 13h16v-11c0 -1 -5 -2 -16 -2h-1c-81 0 -162 20 -226 57c-65 -37 -146 -57 -227 -57h-1c-11 0 -16 1 -16 2v11h16c79 0 158 20 221 56v661h13v-661c63 -36 142 -56 221 -56z" />
    <glyph glyph-name="uniFEDF" unicode="&#x644;" horiz-adv-x="384" arabic-form="initial" 
d="M234 730v-669c-64 -39 -152 -61 -233 -61h-1c-11 0 -16 1 -16 2v11h16c76 0 160 20 221 56v661h13z" />
    <glyph glyph-name="uniFEE2" unicode="&#x645;" horiz-adv-x="790" arabic-form="final" 
d="M790 13h16v-11c0 -1 -5 -2 -16 -2h-1c-69 0 -133 15 -193 44c-43 -60 -110 -94 -191 -94c-64 0 -117 20 -160 59c-24 22 -42 48 -55 78c-11 4 -24 6 -39 6c-65 0 -98 -37 -98 -110c0 -38 2 -87 7 -146c5 -60 12 -117 19 -170h-13c-7 53 -14 110 -19 170
c-5 59 -7 108 -7 146c0 89 47 123 110 123c11 0 23 -2 34 -5c-13 35 -19 71 -19 109c0 153 99 260 240 260s240 -107 240 -260c0 -59 -14 -110 -41 -154c59 -29 121 -43 186 -43zM632 210c0 147 -93 247 -227 247s-227 -100 -227 -247s93 -247 227 -247s227 100 227 247z
" />
    <glyph glyph-name="uniFEE4" unicode="&#x645;" horiz-adv-x="770" arabic-form="medial" 
d="M770 13h16v-11c0 -1 -5 -2 -16 -2h-1c-70 0 -135 14 -195 41c-43 -57 -110 -91 -189 -91s-146 33 -189 92c-59 -28 -124 -42 -195 -42h-1c-11 0 -16 1 -16 2v11h16c67 0 130 13 188 39c-29 45 -43 98 -43 158c0 153 99 260 240 260s240 -107 240 -260
c0 -61 -14 -114 -43 -157c56 -27 119 -40 188 -40zM612 210c0 147 -93 247 -227 247s-227 -100 -227 -247s93 -247 227 -247s227 100 227 247z" />
    <glyph glyph-name="uniFEE3" unicode="&#x645;" horiz-adv-x="705" arabic-form="initial" 
d="M625 210c0 -153 -99 -260 -240 -260c-80 0 -147 34 -190 93c-61 -29 -125 -43 -194 -43h-1c-11 0 -16 1 -16 2v11h16c65 0 131 14 187 41c-28 43 -42 95 -42 156c0 153 99 260 240 260s240 -107 240 -260zM612 210c0 147 -93 247 -227 247s-227 -100 -227 -247
s93 -247 227 -247s227 100 227 247z" />
    <glyph glyph-name="uniFEE6" unicode="&#x646;" horiz-adv-x="947" arabic-form="final" 
d="M947 13h16v-11c0 -1 -5 -2 -16 -2h-1c-84 0 -161 19 -220 55v-224c-87 -56 -188 -84 -301 -84c-216 0 -335 106 -335 282c0 45 7 103 18 138l12 -3c-11 -39 -17 -95 -17 -135c0 -168 113 -269 320 -269c125 0 211 32 290 77v503h13v-260c0 -7 3 -13 10 -17
c58 -33 128 -50 211 -50zM394 317c0 13 9 22 22 22c12 0 21 -9 21 -22c0 -12 -9 -22 -21 -22c-13 0 -22 10 -22 22z" />
    <glyph glyph-name="uniFEE8" unicode="&#x646;" horiz-adv-x="455" arabic-form="medial" 
d="M455 13h16v-11c0 -1 -5 -2 -16 -2h-1c-81 0 -162 20 -227 57c-64 -37 -145 -57 -226 -57h-1c-11 0 -16 1 -16 2v11h16c79 0 158 20 221 56v401h13v-401c63 -36 142 -56 221 -56zM206 637c0 13 9 22 22 22c12 0 21 -9 21 -22c0 -12 -9 -22 -21 -22c-13 0 -22 10 -22 22z
" />
    <glyph glyph-name="uniFEE7" unicode="&#x646;" horiz-adv-x="354" arabic-form="initial" 
d="M234 470v-409c-65 -40 -149 -61 -233 -61h-1c-11 0 -16 1 -16 2v11h16c79 0 158 20 221 56v401h13zM206 637c0 13 9 22 22 22c12 0 21 -9 21 -22c0 -12 -9 -22 -21 -22c-13 0 -22 10 -22 22z" />
    <glyph glyph-name="uniFB9F" unicode="&#x6ba;" horiz-adv-x="947" arabic-form="final" 
d="M947 13h16v-11c0 -1 -5 -2 -16 -2h-1c-84 0 -161 19 -220 55v-224c-87 -56 -188 -84 -301 -84c-216 0 -335 106 -335 282c0 45 7 103 18 138l12 -3c-11 -39 -17 -95 -17 -135c0 -168 113 -269 320 -269c125 0 211 32 290 77v503h13v-260c0 -7 3 -13 10 -17
c58 -33 128 -50 211 -50z" />
    <glyph glyph-name="uniFEEA" unicode="&#x647;" horiz-adv-x="751" arabic-form="final" 
d="M767 13v-11c0 -1 -5 -2 -16 -2h-408c-154 0 -263 94 -263 246c0 176 117 264 262 264c77 0 151 -27 198 -62v-435h227zM343 13h184v427c-48 36 -117 57 -185 57c-138 0 -249 -81 -249 -252c0 -151 112 -232 250 -232z" />
    <glyph glyph-name="uniFEEC" unicode="&#x647;" horiz-adv-x="941" arabic-form="medial" 
d="M957 13v-11c0 -1 -5 -2 -16 -2h-941c-11 0 -16 1 -16 2v11h299c-91 31 -147 109 -147 213c0 120 93 209 207 209s207 -89 207 -209c0 -105 -55 -180 -147 -213h334v222c0 91 -18 162 -54 214c-36 53 -80 89 -133 108c-53 20 -108 30 -165 30c-38 0 -75 -3 -111 -8v14
c41 5 78 7 111 7c188 0 365 -92 365 -365v-222h207zM335 13h16c119 17 186 102 186 213c0 112 -87 196 -194 196s-194 -84 -194 -196s69 -196 186 -213z" />
    <glyph glyph-name="uniFEEB" unicode="&#x647;" horiz-adv-x="830" arabic-form="initial" 
d="M750 235v-235h-750c-11 0 -16 1 -16 2v11h299c-91 31 -147 109 -147 213c0 120 93 209 207 209s207 -89 207 -209c0 -105 -55 -180 -147 -213h334v222c0 91 -18 162 -54 214c-36 53 -80 89 -133 108c-53 20 -108 30 -165 30c-38 0 -75 -3 -111 -8v14c41 5 78 7 111 7
c188 0 365 -92 365 -365zM335 13h16c119 17 186 102 186 213c0 112 -87 196 -194 196s-194 -84 -194 -196s69 -196 186 -213z" />
    <glyph glyph-name="uniFBA7" unicode="&#x6c1;" horiz-adv-x="575" arabic-form="final" 
d="M575 13h16v-11c0 -1 -5 -2 -16 -2c-31 0 -56 4 -75 12c-18 9 -35 24 -51 46s-38 59 -66 110l-81 149h-22c-29 0 -55 -8 -78 -23s-45 -47 -64 -96l-76 -198l-12 6l76 197c39 101 88 127 153 127h32l84 -157c26 -49 46 -83 60 -104c29 -41 59 -56 120 -56z" />
    <glyph glyph-name="uniFBA9" unicode="&#x6c1;" horiz-adv-x="677" arabic-form="medial" 
d="M693 13v-11c0 -1 -5 -2 -16 -2h-48c-132 -3 -147 -59 -149 -172v-110h-45c-145 0 -234 88 -234 231v107c-59 -37 -126 -56 -200 -56h-1c-11 0 -16 1 -16 2v11h16c75 0 142 20 201 60v201h13v-325c0 -59 17 -110 52 -153s91 -65 169 -65h32v97c0 112 22 185 162 185h64z
" />
    <glyph glyph-name="uniFBA8" unicode="&#x6c1;" horiz-adv-x="354" arabic-form="initial" 
d="M221 470h13v-409c-65 -40 -149 -61 -233 -61h-1c-11 0 -16 1 -16 2v11h16c79 0 158 20 221 56v401zM197 -192h6l-2 -13h-4c-56 0 -85 31 -85 75c0 36 19 70 58 89l4 -6c-33 -21 -49 -48 -49 -83c0 -36 23 -62 72 -62z" />
    <glyph glyph-name="uni06C2.fina" unicode="&#x6c2;" horiz-adv-x="575" 
d="M575 13h16v-11c0 -1 -5 -2 -16 -2c-31 0 -56 4 -75 12c-18 9 -35 24 -51 46s-38 59 -66 110l-81 149h-22c-29 0 -55 -8 -78 -23s-45 -47 -64 -96l-76 -198l-12 6l76 197c39 101 88 127 153 127h32l84 -157c26 -49 46 -83 60 -104c29 -41 59 -56 120 -56zM270 487h64v-12
h-170v12h62c-25 15 -41 40 -41 69c0 49 35 84 82 84c20 0 42 -7 57 -16l-6 -10c-13 8 -34 14 -51 14c-41 0 -70 -29 -70 -72c0 -39 32 -69 73 -69z" />
    <glyph glyph-name="uniFBAB" unicode="&#x6be;" horiz-adv-x="1026" arabic-form="final" 
d="M1042 13v-11c0 -1 -5 -2 -16 -2h-941c-11 0 -16 1 -16 2v11h299c-91 31 -147 109 -147 213c0 120 93 209 207 209s207 -89 207 -209c0 -105 -55 -180 -147 -213h334v222c0 91 -18 162 -54 214c-36 53 -80 89 -133 108c-53 20 -108 30 -165 30c-38 0 -75 -3 -111 -8v14
c41 5 78 7 111 7c188 0 365 -92 365 -365v-222h207zM420 13h16c119 17 186 102 186 213c0 112 -87 196 -194 196s-194 -84 -194 -196s69 -196 186 -213z" />
    <glyph glyph-name="uniFBAD" unicode="&#x6be;" horiz-adv-x="941" arabic-form="medial" 
d="M957 13v-11c0 -1 -5 -2 -16 -2h-941c-11 0 -16 1 -16 2v11h299c-91 31 -147 109 -147 213c0 120 93 209 207 209s207 -89 207 -209c0 -105 -55 -180 -147 -213h334v222c0 91 -18 162 -54 214c-36 53 -80 89 -133 108c-53 20 -108 30 -165 30c-38 0 -75 -3 -111 -8v14
c41 5 78 7 111 7c188 0 365 -92 365 -365v-222h207zM335 13h16c119 17 186 102 186 213c0 112 -87 196 -194 196s-194 -84 -194 -196s69 -196 186 -213z" />
    <glyph glyph-name="uniFBAC" unicode="&#x6be;" horiz-adv-x="830" arabic-form="initial" 
d="M750 235v-235h-750c-11 0 -16 1 -16 2v11h299c-91 31 -147 109 -147 213c0 120 93 209 207 209s207 -89 207 -209c0 -105 -55 -180 -147 -213h334v222c0 91 -18 162 -54 214c-36 53 -80 89 -133 108c-53 20 -108 30 -165 30c-38 0 -75 -3 -111 -8v14c41 5 78 7 111 7
c188 0 365 -92 365 -365zM335 13h16c119 17 186 102 186 213c0 112 -87 196 -194 196s-194 -84 -194 -196s69 -196 186 -213z" />
    <glyph glyph-name="uniFE94" unicode="&#x629;" horiz-adv-x="751" arabic-form="final" 
d="M767 13v-11c0 -1 -5 -2 -16 -2h-408c-154 0 -263 94 -263 246c0 176 117 264 262 264c77 0 151 -27 198 -62v-435h227zM343 13h184v427c-48 36 -117 57 -185 57c-138 0 -249 -81 -249 -252c0 -151 112 -232 250 -232zM231 677c0 13 9 22 22 22c12 0 21 -9 21 -22
c0 -12 -9 -22 -21 -22c-13 0 -22 10 -22 22zM410 677c0 13 9 22 22 22c12 0 21 -9 21 -22c0 -12 -9 -22 -21 -22c-13 0 -22 10 -22 22z" />
    <glyph glyph-name="uni06C3.fina" unicode="&#x6c3;" horiz-adv-x="575" 
d="M575 13h16v-11c0 -1 -5 -2 -16 -2c-31 0 -56 4 -75 12c-18 9 -35 24 -51 46s-38 59 -66 110l-81 149h-22c-29 0 -55 -8 -78 -23s-45 -47 -64 -96l-76 -198l-12 6l76 197c39 101 88 127 153 127h32l84 -157c26 -49 46 -83 60 -104c29 -41 59 -56 120 -56zM138 497
c0 13 9 22 22 22c12 0 21 -9 21 -22c0 -12 -9 -22 -21 -22c-13 0 -22 10 -22 22zM317 497c0 13 9 22 22 22c12 0 21 -9 21 -22c0 -12 -9 -22 -21 -22c-13 0 -22 10 -22 22z" />
    <glyph glyph-name="uniFEEE" unicode="&#x648;" horiz-adv-x="751" arabic-form="final" 
d="M767 13v-11c0 -1 -5 -2 -16 -2h-211c-4 -167 -102 -253 -263 -253c-60 0 -122 13 -165 34l2 13c32 -17 100 -34 163 -34c153 0 246 81 250 240h-184c-153 0 -263 89 -263 232c0 147 119 234 262 234c77 0 151 -27 198 -62v-391h227zM343 13h184v384
c-48 36 -116 56 -185 56c-135 0 -249 -81 -249 -222s112 -218 250 -218z" />
    <glyph glyph-name="uniFE86" unicode="&#x624;" horiz-adv-x="751" arabic-form="final" 
d="M767 13v-11c0 -1 -5 -2 -16 -2h-211c-4 -167 -102 -253 -263 -253c-60 0 -122 13 -165 34l2 13c32 -17 100 -34 163 -34c153 0 246 81 250 240h-184c-153 0 -263 89 -263 232c0 147 119 234 262 234c77 0 151 -27 198 -62v-391h227zM343 13h184v384
c-48 36 -116 56 -185 56c-135 0 -249 -81 -249 -222s112 -218 250 -218zM363 623h64v-12h-170v12h62c-25 15 -41 40 -41 69c0 49 35 84 82 84c20 0 42 -7 57 -16l-6 -10c-13 8 -34 14 -51 14c-41 0 -70 -29 -70 -72c0 -39 32 -69 73 -69z" />
    <glyph glyph-name="uniFEF0" unicode="&#x649;" horiz-adv-x="1235" arabic-form="final" 
d="M1235 13h16v-11c0 -1 -5 -2 -16 -2c-159 4 -186 39 -228 175l-58 202h-145c-84 0 -137 -42 -137 -110c0 -12 2 -27 7 -44l110 -383c-39 -25 -92 -46 -157 -65s-130 -28 -197 -28c-215 0 -340 110 -340 282c0 44 8 105 19 138l12 -3c-11 -39 -18 -96 -18 -135
c0 -166 119 -269 324 -269c66 0 130 9 193 27c63 17 113 37 149 59l-108 375c-5 15 -7 30 -7 46c0 75 58 123 149 123h157l60 -210c42 -134 63 -162 215 -167z" />
    <glyph glyph-name="uniFEF2" unicode="&#x64a;" horiz-adv-x="1235" arabic-form="final" 
d="M1235 13h16v-11c0 -1 -5 -2 -16 -2c-159 4 -186 39 -228 175l-58 202h-145c-84 0 -137 -42 -137 -110c0 -12 2 -27 7 -44l110 -383c-39 -25 -92 -46 -157 -65s-130 -28 -197 -28c-215 0 -340 110 -340 282c0 44 8 105 19 138l12 -3c-11 -39 -18 -96 -18 -135
c0 -166 119 -269 324 -269c66 0 130 9 193 27c63 17 113 37 149 59l-108 375c-5 15 -7 30 -7 46c0 75 58 123 149 123h157l60 -210c42 -134 63 -162 215 -167zM318 -425c0 13 9 22 22 22c12 0 21 -9 21 -22c0 -12 -9 -22 -21 -22c-13 0 -22 10 -22 22zM497 -425
c0 13 9 22 22 22c12 0 21 -9 21 -22c0 -12 -9 -22 -21 -22c-13 0 -22 10 -22 22z" />
    <glyph glyph-name="uniFEF4" unicode="&#x64a;" horiz-adv-x="455" arabic-form="medial" 
d="M455 13h16v-11c0 -1 -5 -2 -16 -2h-1c-81 0 -162 20 -227 57c-64 -37 -145 -57 -226 -57h-1c-11 0 -16 1 -16 2v11h16c79 0 158 20 221 56v401h13v-401c63 -36 142 -56 221 -56zM117 -172c0 13 9 22 22 22c12 0 21 -9 21 -22c0 -12 -9 -22 -21 -22c-13 0 -22 10 -22 22z
M296 -172c0 13 9 22 22 22c12 0 21 -9 21 -22c0 -12 -9 -22 -21 -22c-13 0 -22 10 -22 22z" />
    <glyph glyph-name="uniFEF3" unicode="&#x64a;" horiz-adv-x="354" arabic-form="initial" 
d="M234 470v-409c-65 -40 -149 -61 -233 -61h-1c-11 0 -16 1 -16 2v11h16c79 0 158 20 221 56v401h13zM57 -172c0 13 9 22 22 22c12 0 21 -9 21 -22c0 -12 -9 -22 -21 -22c-13 0 -22 10 -22 22zM236 -172c0 13 9 22 22 22c12 0 21 -9 21 -22c0 -12 -9 -22 -21 -22
c-13 0 -22 10 -22 22z" />
    <glyph glyph-name="uniFE8A" unicode="&#x626;" horiz-adv-x="1235" arabic-form="final" 
d="M1235 13h16v-11c0 -1 -5 -2 -16 -2c-159 4 -186 39 -228 175l-58 202h-145c-84 0 -137 -42 -137 -110c0 -12 2 -27 7 -44l110 -383c-39 -25 -92 -46 -157 -65s-130 -28 -197 -28c-215 0 -340 110 -340 282c0 44 8 105 19 138l12 -3c-11 -39 -18 -96 -18 -135
c0 -166 119 -269 324 -269c66 0 130 9 193 27c63 17 113 37 149 59l-108 375c-5 15 -7 30 -7 46c0 75 58 123 149 123h157l60 -210c42 -134 63 -162 215 -167zM213 339h64v-12h-170v12h62c-25 15 -41 40 -41 69c0 49 35 84 82 84c20 0 42 -7 57 -16l-6 -10
c-13 8 -34 14 -51 14c-41 0 -70 -29 -70 -72c0 -39 32 -69 73 -69z" />
    <glyph glyph-name="uniFE8C" unicode="&#x626;" horiz-adv-x="455" arabic-form="medial" 
d="M455 13h16v-11c0 -1 -5 -2 -16 -2h-1c-81 0 -162 20 -227 57c-64 -37 -145 -57 -226 -57h-1c-11 0 -16 1 -16 2v11h16c79 0 158 20 221 56v401h13v-401c63 -36 142 -56 221 -56zM249 627h64v-12h-170v12h62c-25 15 -41 40 -41 69c0 49 35 84 82 84c20 0 42 -7 57 -16
l-6 -10c-13 8 -34 14 -51 14c-41 0 -70 -29 -70 -72c0 -39 32 -69 73 -69z" />
    <glyph glyph-name="uniFE8B" unicode="&#x626;" horiz-adv-x="354" arabic-form="initial" 
d="M234 470v-409c-65 -40 -149 -61 -233 -61h-1c-11 0 -16 1 -16 2v11h16c79 0 158 20 221 56v401h13zM249 627h64v-12h-170v12h62c-25 15 -41 40 -41 69c0 49 35 84 82 84c20 0 42 -7 57 -16l-6 -10c-13 8 -34 14 -51 14c-41 0 -70 -29 -70 -72c0 -39 32 -69 73 -69z" />
    <glyph glyph-name="uniFBFD" unicode="&#x6cc;" horiz-adv-x="1235" arabic-form="final" 
d="M1235 13h16v-11c0 -1 -5 -2 -16 -2c-159 4 -186 39 -228 175l-58 202h-145c-84 0 -137 -42 -137 -110c0 -12 2 -27 7 -44l110 -383c-39 -25 -92 -46 -157 -65s-130 -28 -197 -28c-215 0 -340 110 -340 282c0 44 8 105 19 138l12 -3c-11 -39 -18 -96 -18 -135
c0 -166 119 -269 324 -269c66 0 130 9 193 27c63 17 113 37 149 59l-108 375c-5 15 -7 30 -7 46c0 75 58 123 149 123h157l60 -210c42 -134 63 -162 215 -167z" />
    <glyph glyph-name="uniFBFF" unicode="&#x6cc;" horiz-adv-x="455" arabic-form="medial" 
d="M455 13h16v-11c0 -1 -5 -2 -16 -2h-1c-81 0 -162 20 -227 57c-64 -37 -145 -57 -226 -57h-1c-11 0 -16 1 -16 2v11h16c79 0 158 20 221 56v401h13v-401c63 -36 142 -56 221 -56zM117 -172c0 13 9 22 22 22c12 0 21 -9 21 -22c0 -12 -9 -22 -21 -22c-13 0 -22 10 -22 22z
M296 -172c0 13 9 22 22 22c12 0 21 -9 21 -22c0 -12 -9 -22 -21 -22c-13 0 -22 10 -22 22z" />
    <glyph glyph-name="uniFBFE" unicode="&#x6cc;" horiz-adv-x="354" arabic-form="initial" 
d="M234 470v-409c-65 -40 -149 -61 -233 -61h-1c-11 0 -16 1 -16 2v11h16c79 0 158 20 221 56v401h13zM57 -172c0 13 9 22 22 22c12 0 21 -9 21 -22c0 -12 -9 -22 -21 -22c-13 0 -22 10 -22 22zM236 -172c0 13 9 22 22 22c12 0 21 -9 21 -22c0 -12 -9 -22 -21 -22
c-13 0 -22 10 -22 22z" />
    <glyph glyph-name="uniFBAF" unicode="&#x6d2;" horiz-adv-x="725" arabic-form="final" 
d="M741 13v-11c0 -1 -5 -2 -16 -2h-510c-68 0 -102 -25 -102 -76s34 -76 102 -76h236v-13h-236c-75 0 -115 30 -115 89s40 89 115 89h526z" />
    <glyph glyph-name="uniFBB1" unicode="&#x6d3;" horiz-adv-x="725" arabic-form="final" 
d="M741 13v-11c0 -1 -5 -2 -16 -2h-510c-68 0 -102 -25 -102 -76s34 -76 102 -76h236v-13h-236c-75 0 -115 30 -115 89s40 89 115 89h526zM294 182h64v-12h-170v12h62c-25 15 -41 40 -41 69c0 49 35 84 82 84c20 0 42 -7 57 -16l-6 -10c-13 8 -34 14 -51 14
c-41 0 -70 -29 -70 -72c0 -39 32 -69 73 -69z" />
    <glyph glyph-name=".notdef" horiz-adv-x="500" 
d="M50 30v600h400v-600h-400zM120 100h260v460h-260v-460z" />
    <glyph glyph-name="space" unicode=" " horiz-adv-x="250" 
 />
    <glyph glyph-name="A" unicode="A" horiz-adv-x="781" 
d="M716 0l-102 216h-446l-103 -216h-15l332 700h18l331 -700h-15zM174 229h434l-217 458z" />
    <glyph glyph-name="Aacute" unicode="&#xc1;" horiz-adv-x="781" 
d="M716 0l-102 216h-446l-103 -216h-15l332 700h18l331 -700h-15zM174 229h434l-217 458zM473 910l-109 -145h-15l103 145h21z" />
    <glyph glyph-name="Abreve" unicode="&#x102;" horiz-adv-x="781" 
d="M716 0l-102 216h-446l-103 -216h-15l332 700h18l331 -700h-15zM174 229h434l-217 458zM392 776c-85 0 -143 48 -148 127l14 1c5 -72 57 -115 134 -115s128 43 133 115l14 -1c-5 -79 -63 -127 -147 -127z" />
    <glyph glyph-name="Acircumflex" unicode="&#xc2;" horiz-adv-x="781" 
d="M716 0l-102 216h-446l-103 -216h-15l332 700h18l331 -700h-15zM174 229h434l-217 458zM400 910l120 -145h-15l-114 135l-113 -135h-15l120 145h17z" />
    <glyph glyph-name="Adieresis" unicode="&#xc4;" horiz-adv-x="781" 
d="M716 0l-102 216h-446l-103 -216h-15l332 700h18l331 -700h-15zM174 229h434l-217 458zM310 848c0 -8 -6 -14 -13 -14c-8 0 -14 6 -14 14c0 7 6 13 14 13c7 0 13 -6 13 -13zM499 848c0 -8 -6 -14 -14 -14s-13 6 -13 14c0 7 5 13 13 13s14 -6 14 -13z" />
    <glyph glyph-name="Agrave" unicode="&#xc0;" horiz-adv-x="781" 
d="M716 0l-102 216h-446l-103 -216h-15l332 700h18l331 -700h-15zM174 229h434l-217 458zM330 910l103 -145h-15l-109 145h21z" />
    <glyph glyph-name="Amacron" unicode="&#x100;" horiz-adv-x="781" 
d="M716 0l-102 216h-446l-103 -216h-15l332 700h18l331 -700h-15zM174 229h434l-217 458zM518 854v-12h-254v12h254z" />
    <glyph glyph-name="Aogonek" unicode="&#x104;" horiz-adv-x="781" 
d="M826 -163l9 -10c-23 -21 -49 -31 -79 -31c-55 0 -98 36 -98 88c0 29 12 58 35 87l23 29l-102 216h-446l-103 -216h-15l332 700h18l331 -700l-29 -37c-20 -27 -30 -53 -30 -79c0 -44 37 -75 84 -75c26 0 49 9 70 28zM174 229h434l-217 458z" />
    <glyph glyph-name="Aring" unicode="&#xc5;" horiz-adv-x="781" 
d="M716 0l-102 216h-446l-103 -216h-15l332 700h18l331 -700h-15zM174 229h434l-217 458zM499 845c0 -29 -11 -53 -32 -74s-46 -31 -75 -31c-60 0 -108 46 -108 105s48 105 108 105c29 0 54 -10 75 -31s32 -45 32 -74zM298 845c0 -51 42 -92 94 -92c51 0 93 41 93 92
s-42 92 -93 92c-52 0 -94 -41 -94 -92z" />
    <glyph glyph-name="Atilde" unicode="&#xc3;" horiz-adv-x="781" 
d="M716 0l-102 216h-446l-103 -216h-15l332 700h18l331 -700h-15zM174 229h434l-217 458zM310 900c24 0 47 -11 86 -39c35 -25 56 -36 77 -36c35 0 61 26 68 70l14 -2c-9 -49 -42 -82 -82 -82c-24 0 -48 11 -85 39c-35 25 -57 36 -78 36c-35 0 -61 -26 -68 -70l-14 2
c9 49 42 82 82 82z" />
    <glyph glyph-name="AE" unicode="&#xc6;" horiz-adv-x="983" 
d="M445 13h469v-13h-483v216h-258l-118 -216h-15l382 700h480v-13h-457v-327h419v-13h-419v-334zM180 229h251v459z" />
    <glyph glyph-name="B" unicode="B" horiz-adv-x="772" 
d="M698 185c0 -53 -19 -97 -57 -132s-99 -53 -183 -53h-318v700h289c145 0 229 -60 229 -172c0 -85 -51 -141 -140 -162c125 -17 180 -89 180 -181zM154 687v-317h275c136 0 215 55 215 158c0 104 -76 159 -215 159h-275zM684 185c0 49 -18 90 -54 123
c-35 33 -93 49 -172 49h-304v-344h304c79 0 137 16 172 49c36 33 54 74 54 123z" />
    <glyph glyph-name="C" unicode="C" horiz-adv-x="810" 
d="M740 587l-11 -9c-67 75 -160 119 -264 119c-189 4 -356 -160 -351 -347c-5 -187 162 -351 351 -347c104 0 198 43 265 119l10 -9c-68 -77 -167 -123 -275 -123c-197 -4 -369 166 -365 360c-4 194 168 364 365 360c108 0 207 -46 275 -123z" />
    <glyph glyph-name="Cacute" unicode="&#x106;" horiz-adv-x="810" 
d="M740 587l-11 -9c-67 75 -160 119 -264 119c-189 4 -356 -160 -351 -347c-5 -187 162 -351 351 -347c104 0 198 43 265 119l10 -9c-68 -77 -167 -123 -275 -123c-197 -4 -369 166 -365 360c-4 194 168 364 365 360c108 0 207 -46 275 -123zM534 910l-109 -145h-15l103 145
h21z" />
    <glyph glyph-name="Ccaron" unicode="&#x10c;" horiz-adv-x="810" 
d="M740 587l-11 -9c-67 75 -160 119 -264 119c-189 4 -356 -160 -351 -347c-5 -187 162 -351 351 -347c104 0 198 43 265 119l10 -9c-68 -77 -167 -123 -275 -123c-197 -4 -369 166 -365 360c-4 194 168 364 365 360c108 0 207 -46 275 -123zM581 910l-120 -145h-17
l-120 145h15l113 -135l114 135h15z" />
    <glyph glyph-name="Ccedilla" unicode="&#xc7;" horiz-adv-x="810" 
d="M730 122l10 -9c-67 -76 -163 -122 -268 -123l-22 -43c15 8 32 12 50 12c48 0 85 -32 85 -79c0 -49 -44 -85 -100 -85c-36 0 -67 7 -93 21l7 11c23 -13 52 -19 86 -19c49 0 86 31 86 72c0 39 -31 66 -71 66c-26 0 -47 -8 -64 -25l-10 9l30 60c-194 0 -360 169 -356 360
c-4 194 168 364 365 360c108 0 207 -46 275 -123l-11 -9c-67 75 -160 119 -264 119c-189 4 -356 -160 -351 -347c-5 -187 162 -351 351 -347c104 0 198 43 265 119z" />
    <glyph glyph-name="Ccircumflex" unicode="&#x108;" horiz-adv-x="810" 
d="M740 587l-11 -9c-67 75 -160 119 -264 119c-189 4 -356 -160 -351 -347c-5 -187 162 -351 351 -347c104 0 198 43 265 119l10 -9c-68 -77 -167 -123 -275 -123c-197 -4 -369 166 -365 360c-4 194 168 364 365 360c108 0 207 -46 275 -123zM461 910l120 -145h-15l-114 135
l-113 -135h-15l120 145h17z" />
    <glyph glyph-name="Cdotaccent" unicode="&#x10a;" horiz-adv-x="810" 
d="M740 587l-11 -9c-67 75 -160 119 -264 119c-189 4 -356 -160 -351 -347c-5 -187 162 -351 351 -347c104 0 198 43 265 119l10 -9c-68 -77 -167 -123 -275 -123c-197 -4 -369 166 -365 360c-4 194 168 364 365 360c108 0 207 -46 275 -123zM466 848c0 -8 -6 -14 -13 -14
c-8 0 -14 6 -14 14c0 7 6 13 14 13c7 0 13 -6 13 -13z" />
    <glyph glyph-name="D" unicode="D" horiz-adv-x="858" 
d="M758 350c4 -195 -168 -353 -365 -350h-253v700h253c197 3 369 -155 365 -350zM393 687h-239v-674h239c188 -3 355 150 351 337c4 187 -163 340 -351 337z" />
    <glyph glyph-name="Eth" unicode="&#xd0;" horiz-adv-x="858" 
d="M758 350c4 -195 -168 -353 -365 -350h-253v344h-90v13h90v343h253c197 3 369 -155 365 -350zM744 350c4 187 -163 340 -351 337h-239v-330h236v-13h-236v-331h239c188 -3 355 150 351 337z" />
    <glyph glyph-name="Dcaron" unicode="&#x10e;" horiz-adv-x="858" 
d="M758 350c4 -195 -168 -353 -365 -350h-253v700h253c197 3 369 -155 365 -350zM393 687h-239v-674h239c188 -3 355 150 351 337c4 187 -163 340 -351 337zM522 910l-120 -145h-17l-120 145h15l113 -135l114 135h15z" />
    <glyph glyph-name="Dcroat" unicode="&#x110;" horiz-adv-x="858" 
d="M758 350c4 -195 -168 -353 -365 -350h-253v344h-90v13h90v343h253c197 3 369 -155 365 -350zM744 350c4 187 -163 340 -351 337h-239v-330h236v-13h-236v-331h239c188 -3 355 150 351 337z" />
    <glyph glyph-name="E" unicode="E" horiz-adv-x="712" 
d="M631 700v-13h-477v-327h439v-13h-439v-334h489v-13h-503v700h491z" />
    <glyph glyph-name="Eacute" unicode="&#xc9;" horiz-adv-x="712" 
d="M631 700v-13h-477v-327h439v-13h-439v-334h489v-13h-503v700h491zM464 910l-109 -145h-15l103 145h21z" />
    <glyph glyph-name="Ebreve" unicode="&#x114;" horiz-adv-x="712" 
d="M631 700v-13h-477v-327h439v-13h-439v-334h489v-13h-503v700h491zM383 776c-85 0 -143 48 -148 127l14 1c5 -72 57 -115 134 -115s128 43 133 115l14 -1c-5 -79 -63 -127 -147 -127z" />
    <glyph glyph-name="Ecaron" unicode="&#x11a;" horiz-adv-x="712" 
d="M631 700v-13h-477v-327h439v-13h-439v-334h489v-13h-503v700h491zM511 910l-120 -145h-17l-120 145h15l113 -135l114 135h15z" />
    <glyph glyph-name="Ecircumflex" unicode="&#xca;" horiz-adv-x="712" 
d="M631 700v-13h-477v-327h439v-13h-439v-334h489v-13h-503v700h491zM391 910l120 -145h-15l-114 135l-113 -135h-15l120 145h17z" />
    <glyph glyph-name="Edieresis" unicode="&#xcb;" horiz-adv-x="712" 
d="M631 700v-13h-477v-327h439v-13h-439v-334h489v-13h-503v700h491zM301 848c0 -8 -6 -14 -13 -14c-8 0 -14 6 -14 14c0 7 6 13 14 13c7 0 13 -6 13 -13zM490 848c0 -8 -6 -14 -14 -14s-13 6 -13 14c0 7 5 13 13 13s14 -6 14 -13z" />
    <glyph glyph-name="Edotaccent" unicode="&#x116;" horiz-adv-x="712" 
d="M631 700v-13h-477v-327h439v-13h-439v-334h489v-13h-503v700h491zM396 848c0 -8 -6 -14 -13 -14c-8 0 -14 6 -14 14c0 7 6 13 14 13c7 0 13 -6 13 -13z" />
    <glyph glyph-name="Egrave" unicode="&#xc8;" horiz-adv-x="712" 
d="M631 700v-13h-477v-327h439v-13h-439v-334h489v-13h-503v700h491zM321 910l103 -145h-15l-109 145h21z" />
    <glyph glyph-name="Emacron" unicode="&#x112;" horiz-adv-x="712" 
d="M631 700v-13h-477v-327h439v-13h-439v-334h489v-13h-503v700h491zM509 854v-12h-254v12h254z" />
    <glyph glyph-name="Eogonek" unicode="&#x118;" horiz-adv-x="712" 
d="M672 -164l9 -10c-23 -21 -49 -31 -79 -31c-55 0 -98 36 -98 88c0 29 12 58 35 87l24 30h-423v700h491v-13h-477v-327h439v-13h-439v-334h489v-13h-62l-31 -38c-21 -26 -32 -52 -32 -79c0 -44 37 -75 84 -75c26 0 49 9 70 28z" />
    <glyph glyph-name="F" unicode="F" horiz-adv-x="674" 
d="M605 700v-13h-451v-338h413v-13h-413v-336h-14v700h465z" />
    <glyph glyph-name="G" unicode="G" horiz-adv-x="874" 
d="M708 618l-9 -10c-64 57 -145 89 -234 89c-189 4 -356 -160 -351 -347c-5 -187 162 -351 351 -347c101 0 194 36 265 100v220h-265v13h279v-238c-72 -68 -172 -108 -279 -108c-197 -4 -369 166 -365 360c-4 194 168 364 365 360c92 0 178 -33 243 -92z" />
    <glyph glyph-name="Gbreve" unicode="&#x11e;" horiz-adv-x="874" 
d="M708 618l-9 -10c-64 57 -145 89 -234 89c-189 4 -356 -160 -351 -347c-5 -187 162 -351 351 -347c101 0 194 36 265 100v220h-265v13h279v-238c-72 -68 -172 -108 -279 -108c-197 -4 -369 166 -365 360c-4 194 168 364 365 360c92 0 178 -33 243 -92zM448 776
c-85 0 -143 48 -148 127l14 1c5 -72 57 -115 134 -115s128 43 133 115l14 -1c-5 -79 -63 -127 -147 -127z" />
    <glyph glyph-name="Gcircumflex" unicode="&#x11c;" horiz-adv-x="874" 
d="M708 618l-9 -10c-64 57 -145 89 -234 89c-189 4 -356 -160 -351 -347c-5 -187 162 -351 351 -347c101 0 194 36 265 100v220h-265v13h279v-238c-72 -68 -172 -108 -279 -108c-197 -4 -369 166 -365 360c-4 194 168 364 365 360c92 0 178 -33 243 -92zM456 910l120 -145
h-15l-114 135l-113 -135h-15l120 145h17z" />
    <glyph glyph-name="uni0122" unicode="&#x122;" horiz-adv-x="874" 
d="M708 618l-9 -10c-64 57 -145 89 -234 89c-189 4 -356 -160 -351 -347c-5 -187 162 -351 351 -347c101 0 194 36 265 100v220h-265v13h279v-238c-72 -68 -172 -108 -279 -108c-197 -4 -369 166 -365 360c-4 194 168 364 365 360c92 0 178 -33 243 -92zM473 -98
c0 -3 -1 -7 -3 -12l-40 -95l-9 4l31 89c-6 3 -9 7 -9 14c0 9 6 15 15 15s15 -6 15 -15z" />
    <glyph glyph-name="Gdotaccent" unicode="&#x120;" horiz-adv-x="874" 
d="M708 618l-9 -10c-64 57 -145 89 -234 89c-189 4 -356 -160 -351 -347c-5 -187 162 -351 351 -347c101 0 194 36 265 100v220h-265v13h279v-238c-72 -68 -172 -108 -279 -108c-197 -4 -369 166 -365 360c-4 194 168 364 365 360c92 0 178 -33 243 -92zM461 848
c0 -8 -6 -14 -13 -14c-8 0 -14 6 -14 14c0 7 6 13 14 13c7 0 13 -6 13 -13z" />
    <glyph glyph-name="H" unicode="H" horiz-adv-x="863" 
d="M723 700v-700h-14v347h-555v-347h-14v700h14v-340h555v340h14z" />
    <glyph glyph-name="Hbar" unicode="&#x126;" horiz-adv-x="863" 
d="M805 556v-13h-82v-543h-14v347h-555v-347h-14v543h-82v13h82v144h14v-144h555v144h14v-144h82zM709 360v183h-555v-183h555z" />
    <glyph glyph-name="Hcircumflex" unicode="&#x124;" horiz-adv-x="863" 
d="M723 700v-700h-14v347h-555v-347h-14v700h14v-340h555v340h14zM440 910l120 -145h-15l-114 135l-113 -135h-15l120 145h17z" />
    <glyph glyph-name="I" unicode="I" horiz-adv-x="294" 
d="M154 700v-700h-14v700h14z" />
    <glyph glyph-name="IJ" unicode="&#x132;" horiz-adv-x="903" 
d="M154 700v-700h-14v700h14zM763 700v-466c0 -159 -88 -244 -221 -244c-81 0 -151 29 -208 86l10 9c55 -55 121 -82 198 -82c125 0 207 80 207 231v466h14z" />
    <glyph glyph-name="Iacute" unicode="&#xcd;" horiz-adv-x="294" 
d="M154 700v-700h-14v700h14zM229 910l-109 -145h-15l103 145h21z" />
    <glyph glyph-name="Icircumflex" unicode="&#xce;" horiz-adv-x="294" 
d="M154 700v-700h-14v700h14zM156 910l120 -145h-15l-114 135l-113 -135h-15l120 145h17z" />
    <glyph glyph-name="Idieresis" unicode="&#xcf;" horiz-adv-x="294" 
d="M154 700v-700h-14v700h14zM66 848c0 -8 -6 -14 -13 -14c-8 0 -14 6 -14 14c0 7 6 13 14 13c7 0 13 -6 13 -13zM255 848c0 -8 -6 -14 -14 -14s-13 6 -13 14c0 7 5 13 13 13s14 -6 14 -13z" />
    <glyph glyph-name="Idot" unicode="&#x130;" horiz-adv-x="294" 
d="M154 700v-700h-14v700h14zM161 848c0 -8 -6 -14 -13 -14c-8 0 -14 6 -14 14c0 7 6 13 14 13c7 0 13 -6 13 -13z" />
    <glyph glyph-name="Igrave" unicode="&#xcc;" horiz-adv-x="294" 
d="M154 700v-700h-14v700h14zM86 910l103 -145h-15l-109 145h21z" />
    <glyph glyph-name="Imacron" unicode="&#x12a;" horiz-adv-x="294" 
d="M154 700v-700h-14v700h14zM274 854v-12h-254v12h254z" />
    <glyph glyph-name="Iogonek" unicode="&#x12e;" horiz-adv-x="294" 
d="M249 -163l9 -10c-23 -21 -49 -31 -79 -31c-55 0 -98 36 -98 88c0 28 12 57 36 87l23 29v700h14v-700l-29 -37c-20 -27 -30 -53 -30 -79c0 -44 37 -75 84 -75c26 0 49 9 70 28z" />
    <glyph glyph-name="Itilde" unicode="&#x128;" horiz-adv-x="294" 
d="M154 700v-700h-14v700h14zM66 900c24 0 47 -11 86 -39c35 -25 56 -36 77 -36c35 0 61 26 68 70l14 -2c-9 -49 -42 -82 -82 -82c-24 0 -48 11 -85 39c-35 25 -57 36 -78 36c-35 0 -61 -26 -68 -70l-14 2c9 49 42 82 82 82z" />
    <glyph glyph-name="J" unicode="J" horiz-adv-x="609" 
d="M469 700v-466c0 -159 -88 -244 -221 -244c-81 0 -151 29 -208 86l10 9c55 -55 121 -82 198 -82c125 0 207 80 207 231v466h14z" />
    <glyph glyph-name="Jcircumflex" unicode="&#x134;" horiz-adv-x="609" 
d="M469 700v-466c0 -159 -88 -244 -221 -244c-81 0 -151 29 -208 86l10 9c55 -55 121 -82 198 -82c125 0 207 80 207 231v466h14zM471 910l120 -145h-15l-114 135l-113 -135h-15l120 145h17z" />
    <glyph glyph-name="K" unicode="K" horiz-adv-x="739" 
d="M673 0l-293 420l-226 -219v-201h-14v700h14v-480l497 480h19l-280 -271l300 -429h-17z" />
    <glyph glyph-name="uni0136" unicode="&#x136;" horiz-adv-x="739" 
d="M673 0l-293 420l-226 -219v-201h-14v700h14v-480l497 480h19l-280 -271l300 -429h-17zM395 -98c0 -3 -1 -7 -3 -12l-40 -95l-9 4l31 89c-6 3 -9 7 -9 14c0 9 6 15 15 15s15 -6 15 -15z" />
    <glyph glyph-name="L" unicode="L" horiz-adv-x="629" 
d="M154 700v-687h426v-13h-440v700h14z" />
    <glyph glyph-name="Lacute" unicode="&#x139;" horiz-adv-x="629" 
d="M154 700v-687h426v-13h-440v700h14zM229 910l-109 -145h-15l103 145h21z" />
    <glyph glyph-name="Lcaron" unicode="&#x13d;" horiz-adv-x="629" 
d="M154 700v-687h426v-13h-440v700h14zM488 703c0 -4 -1 -9 -4 -15l-39 -93l-9 4l31 89c-6 2 -9 7 -9 14c0 9 6 15 15 15s15 -6 15 -14z" />
    <glyph glyph-name="uni013B" unicode="&#x13b;" horiz-adv-x="629" 
d="M154 700v-687h426v-13h-440v700h14zM389 -98c0 -3 -1 -7 -3 -12l-40 -95l-9 4l31 89c-6 3 -9 7 -9 14c0 9 6 15 15 15s15 -6 15 -15z" />
    <glyph glyph-name="Ldot" unicode="&#x13f;" horiz-adv-x="629" 
d="M154 700v-687h426v-13h-440v700h14zM449 365c0 -9 -6 -15 -15 -15s-15 6 -15 15s6 15 15 15s15 -6 15 -15z" />
    <glyph glyph-name="Lslash" unicode="&#x141;" horiz-adv-x="629" 
d="M154 13h426v-13h-440v339l-100 -81v17l100 81v344h14v-333l205 166v-17l-205 -166v-337z" />
    <glyph glyph-name="M" unicode="M" horiz-adv-x="1068" 
d="M906 700h22v-700h-14v687l-372 -626h-16l-372 626v-687h-14v700h22l372 -626z" />
    <glyph glyph-name="N" unicode="N" horiz-adv-x="863" 
d="M709 700h14v-700h-22l-547 687v-687h-14v700h22l547 -687v687z" />
    <glyph glyph-name="Nacute" unicode="&#x143;" horiz-adv-x="863" 
d="M709 700h14v-700h-22l-547 687v-687h-14v700h22l547 -687v687zM513 910l-109 -145h-15l103 145h21z" />
    <glyph glyph-name="Ncaron" unicode="&#x147;" horiz-adv-x="863" 
d="M709 700h14v-700h-22l-547 687v-687h-14v700h22l547 -687v687zM560 910l-120 -145h-17l-120 145h15l113 -135l114 135h15z" />
    <glyph glyph-name="uni0145" unicode="&#x145;" horiz-adv-x="863" 
d="M709 700h14v-700h-22l-547 687v-687h-14v700h22l547 -687v687zM457 -98c0 -3 -1 -7 -3 -12l-40 -95l-9 4l31 89c-6 3 -9 7 -9 14c0 9 6 15 15 15s15 -6 15 -15z" />
    <glyph glyph-name="Eng" unicode="&#x14a;" horiz-adv-x="863" 
d="M709 700h14v-661c0 -159 -88 -244 -221 -244c-81 0 -151 29 -208 86l10 9c55 -55 121 -82 198 -82c112 0 189 64 204 185l-552 694v-687h-14v700h22l546 -687c1 6 1 15 1 26v661z" />
    <glyph glyph-name="Ntilde" unicode="&#xd1;" horiz-adv-x="863" 
d="M709 700h14v-700h-22l-547 687v-687h-14v700h22l547 -687v687zM350 900c24 0 47 -11 86 -39c35 -25 56 -36 77 -36c35 0 61 26 68 70l14 -2c-9 -49 -42 -82 -82 -82c-24 0 -48 11 -85 39c-35 25 -57 36 -78 36c-35 0 -61 -26 -68 -70l-14 2c9 49 42 82 82 82z" />
    <glyph glyph-name="O" unicode="O" horiz-adv-x="930" 
d="M830 350c4 -194 -168 -364 -365 -360c-197 -4 -369 166 -365 360c-4 194 168 364 365 360c197 4 369 -166 365 -360zM114 350c-5 -187 162 -351 351 -347c189 -4 355 160 351 347c4 187 -162 351 -351 347c-189 4 -356 -160 -351 -347z" />
    <glyph glyph-name="Oacute" unicode="&#xd3;" horiz-adv-x="930" 
d="M830 350c4 -194 -168 -364 -365 -360c-197 -4 -369 166 -365 360c-4 194 168 364 365 360c197 4 369 -166 365 -360zM114 350c-5 -187 162 -351 351 -347c189 -4 355 160 351 347c4 187 -162 351 -351 347c-189 4 -356 -160 -351 -347zM547 910l-109 -145h-15l103 145h21
z" />
    <glyph glyph-name="Ocircumflex" unicode="&#xd4;" horiz-adv-x="930" 
d="M830 350c4 -194 -168 -364 -365 -360c-197 -4 -369 166 -365 360c-4 194 168 364 365 360c197 4 369 -166 365 -360zM114 350c-5 -187 162 -351 351 -347c189 -4 355 160 351 347c4 187 -162 351 -351 347c-189 4 -356 -160 -351 -347zM474 910l120 -145h-15l-114 135
l-113 -135h-15l120 145h17z" />
    <glyph glyph-name="Odieresis" unicode="&#xd6;" horiz-adv-x="930" 
d="M830 350c4 -194 -168 -364 -365 -360c-197 -4 -369 166 -365 360c-4 194 168 364 365 360c197 4 369 -166 365 -360zM114 350c-5 -187 162 -351 351 -347c189 -4 355 160 351 347c4 187 -162 351 -351 347c-189 4 -356 -160 -351 -347zM384 848c0 -8 -6 -14 -13 -14
c-8 0 -14 6 -14 14c0 7 6 13 14 13c7 0 13 -6 13 -13zM573 848c0 -8 -6 -14 -14 -14s-13 6 -13 14c0 7 5 13 13 13s14 -6 14 -13z" />
    <glyph glyph-name="Ograve" unicode="&#xd2;" horiz-adv-x="930" 
d="M830 350c4 -194 -168 -364 -365 -360c-197 -4 -369 166 -365 360c-4 194 168 364 365 360c197 4 369 -166 365 -360zM114 350c-5 -187 162 -351 351 -347c189 -4 355 160 351 347c4 187 -162 351 -351 347c-189 4 -356 -160 -351 -347zM404 910l103 -145h-15l-109 145h21
z" />
    <glyph glyph-name="Ohungarumlaut" unicode="&#x150;" horiz-adv-x="930" 
d="M830 350c4 -194 -168 -364 -365 -360c-197 -4 -369 166 -365 360c-4 194 168 364 365 360c197 4 369 -166 365 -360zM114 350c-5 -187 162 -351 351 -347c189 -4 355 160 351 347c4 187 -162 351 -351 347c-189 4 -356 -160 -351 -347zM496 910l-109 -145h-15l103 145h21
zM652 910l-109 -145h-14l103 145h20z" />
    <glyph glyph-name="Omacron" unicode="&#x14c;" horiz-adv-x="930" 
d="M830 350c4 -194 -168 -364 -365 -360c-197 -4 -369 166 -365 360c-4 194 168 364 365 360c197 4 369 -166 365 -360zM114 350c-5 -187 162 -351 351 -347c189 -4 355 160 351 347c4 187 -162 351 -351 347c-189 4 -356 -160 -351 -347zM592 854v-12h-254v12h254z" />
    <glyph glyph-name="Oslash" unicode="&#xd8;" horiz-adv-x="930" 
d="M830 350c4 -194 -168 -364 -365 -360c-53 0 -102 10 -149 31l-34 -71h-15l37 77c-61 30 -111 74 -148 131c-37 58 -56 122 -56 192c-4 194 168 364 365 360c53 0 102 -10 149 -31l34 71h15l-37 -77c61 -30 111 -74 148 -132c37 -57 56 -121 56 -191zM309 39l299 628
c-45 20 -93 30 -143 30c-189 4 -356 -160 -351 -347c0 -67 18 -129 53 -185c36 -55 83 -97 142 -126zM816 350c0 67 -18 129 -54 184c-35 56 -82 98 -141 127l-299 -628c45 -20 93 -30 143 -30c189 -4 355 160 351 347z" />
    <glyph glyph-name="Otilde" unicode="&#xd5;" horiz-adv-x="930" 
d="M830 350c4 -194 -168 -364 -365 -360c-197 -4 -369 166 -365 360c-4 194 168 364 365 360c197 4 369 -166 365 -360zM114 350c-5 -187 162 -351 351 -347c189 -4 355 160 351 347c4 187 -162 351 -351 347c-189 4 -356 -160 -351 -347zM384 900c24 0 47 -11 86 -39
c35 -25 56 -36 77 -36c35 0 61 26 68 70l14 -2c-9 -49 -42 -82 -82 -82c-24 0 -48 11 -85 39c-35 25 -57 36 -78 36c-35 0 -61 -26 -68 -70l-14 2c9 49 42 82 82 82z" />
    <glyph glyph-name="OE" unicode="&#x152;" horiz-adv-x="1368" 
d="M830 13h469v-13h-483v251c-44 -151 -186 -261 -351 -261c-197 -4 -369 166 -365 360c-4 194 168 364 365 360c165 0 307 -110 351 -261v251h471v-13h-457v-327h419v-13h-419v-334zM816 350c4 187 -162 351 -351 347c-189 4 -356 -160 -351 -347
c-5 -187 162 -351 351 -347c189 -4 355 160 351 347z" />
    <glyph glyph-name="P" unicode="P" horiz-adv-x="762" 
d="M140 700h267c191 0 276 -71 276 -222c0 -155 -87 -224 -274 -224h-255v-254h-14v700zM407 687h-253v-420h255c179 0 260 65 260 210c0 144 -79 210 -262 210z" />
    <glyph glyph-name="Thorn" unicode="&#xde;" horiz-adv-x="762" 
d="M154 700v-110h253c189 0 276 -70 276 -222c0 -153 -86 -224 -274 -224h-255v-144h-14v700h14zM407 577h-253v-420h255c179 0 260 65 260 210s-81 210 -262 210z" />
    <glyph glyph-name="Q" unicode="Q" horiz-adv-x="930" 
d="M709 82l121 -121l-10 -9l-121 121c-64 -53 -146 -83 -234 -83c-197 -4 -369 166 -365 360c-4 194 168 364 365 360c197 4 369 -166 365 -360c0 -104 -45 -200 -121 -268zM689 83l-134 135l9 9l135 -135c73 64 117 157 117 258c4 187 -162 351 -351 347
c-189 4 -356 -160 -351 -347c-5 -187 162 -351 351 -347c84 0 163 29 224 80z" />
    <glyph glyph-name="R" unicode="R" horiz-adv-x="776" 
d="M727 0h-17l-210 297c-21 -3 -46 -4 -76 -4h-270v-293h-14v700h284c193 0 273 -60 273 -203c0 -120 -54 -181 -182 -198zM154 305h270c184 0 259 56 259 191s-75 191 -259 191h-270v-382z" />
    <glyph glyph-name="Racute" unicode="&#x154;" horiz-adv-x="776" 
d="M727 0h-17l-210 297c-21 -3 -46 -4 -76 -4h-270v-293h-14v700h284c193 0 273 -60 273 -203c0 -120 -54 -181 -182 -198zM154 305h270c184 0 259 56 259 191s-75 191 -259 191h-270v-382zM470 910l-109 -145h-15l103 145h21z" />
    <glyph glyph-name="Rcaron" unicode="&#x158;" horiz-adv-x="776" 
d="M727 0h-17l-210 297c-21 -3 -46 -4 -76 -4h-270v-293h-14v700h284c193 0 273 -60 273 -203c0 -120 -54 -181 -182 -198zM154 305h270c184 0 259 56 259 191s-75 191 -259 191h-270v-382zM517 910l-120 -145h-17l-120 145h15l113 -135l114 135h15z" />
    <glyph glyph-name="uni0156" unicode="&#x156;" horiz-adv-x="776" 
d="M727 0h-17l-210 297c-21 -3 -46 -4 -76 -4h-270v-293h-14v700h284c193 0 273 -60 273 -203c0 -120 -54 -181 -182 -198zM154 305h270c184 0 259 56 259 191s-75 191 -259 191h-270v-382zM414 -98c0 -3 -1 -7 -3 -12l-40 -95l-9 4l31 89c-6 3 -9 7 -9 14c0 9 6 15 15 15
s15 -6 15 -15z" />
    <glyph glyph-name="S" unicode="S" horiz-adv-x="702" 
d="M599 639l-8 -11c-67 43 -162 69 -251 69c-139 0 -226 -63 -226 -162c0 -80 53 -116 192 -153l99 -26c53 -13 93 -26 122 -38c57 -23 96 -63 96 -135c0 -60 -24 -107 -71 -142c-47 -34 -111 -51 -190 -51c-53 0 -106 7 -159 22s-97 35 -133 60l8 10
c71 -48 181 -79 285 -79c152 0 246 66 246 182c0 79 -43 117 -194 155l-99 25c-165 42 -216 82 -216 167c0 111 91 178 239 178c93 0 191 -27 260 -71z" />
    <glyph glyph-name="Sacute" unicode="&#x15a;" horiz-adv-x="702" 
d="M599 639l-8 -11c-67 43 -162 69 -251 69c-139 0 -226 -63 -226 -162c0 -80 53 -116 192 -153l99 -26c53 -13 93 -26 122 -38c57 -23 96 -63 96 -135c0 -60 -24 -107 -71 -142c-47 -34 -111 -51 -190 -51c-53 0 -106 7 -159 22s-97 35 -133 60l8 10
c71 -48 181 -79 285 -79c152 0 246 66 246 182c0 79 -43 117 -194 155l-99 25c-165 42 -216 82 -216 167c0 111 91 178 239 178c93 0 191 -27 260 -71zM433 910l-109 -145h-15l103 145h21z" />
    <glyph glyph-name="Scaron" unicode="&#x160;" horiz-adv-x="702" 
d="M599 639l-8 -11c-67 43 -162 69 -251 69c-139 0 -226 -63 -226 -162c0 -80 53 -116 192 -153l99 -26c53 -13 93 -26 122 -38c57 -23 96 -63 96 -135c0 -60 -24 -107 -71 -142c-47 -34 -111 -51 -190 -51c-53 0 -106 7 -159 22s-97 35 -133 60l8 10
c71 -48 181 -79 285 -79c152 0 246 66 246 182c0 79 -43 117 -194 155l-99 25c-165 42 -216 82 -216 167c0 111 91 178 239 178c93 0 191 -27 260 -71zM480 910l-120 -145h-17l-120 145h15l113 -135l114 135h15z" />
    <glyph glyph-name="Scedilla" unicode="&#x15e;" horiz-adv-x="702" 
d="M362 -10h-8l-22 -43c15 8 32 12 50 12c48 0 85 -32 85 -79c0 -49 -44 -85 -100 -85c-36 0 -67 7 -93 21l7 11c23 -13 52 -19 86 -19c49 0 86 31 86 72c0 39 -31 66 -71 66c-26 0 -47 -8 -64 -25l-10 9l30 61c-99 4 -201 36 -268 81l8 10c71 -48 181 -79 285 -79
c152 0 246 66 246 182c0 79 -43 117 -194 155l-99 25c-165 42 -216 82 -216 167c0 111 91 178 239 178c93 0 191 -27 260 -71l-8 -11c-67 43 -162 69 -251 69c-139 0 -226 -63 -226 -162c0 -80 53 -116 192 -153l99 -26c53 -13 93 -26 122 -38c57 -23 96 -63 96 -135
c0 -60 -24 -107 -71 -142c-47 -34 -111 -51 -190 -51z" />
    <glyph glyph-name="Scircumflex" unicode="&#x15c;" horiz-adv-x="702" 
d="M599 639l-8 -11c-67 43 -162 69 -251 69c-139 0 -226 -63 -226 -162c0 -80 53 -116 192 -153l99 -26c53 -13 93 -26 122 -38c57 -23 96 -63 96 -135c0 -60 -24 -107 -71 -142c-47 -34 -111 -51 -190 -51c-53 0 -106 7 -159 22s-97 35 -133 60l8 10
c71 -48 181 -79 285 -79c152 0 246 66 246 182c0 79 -43 117 -194 155l-99 25c-165 42 -216 82 -216 167c0 111 91 178 239 178c93 0 191 -27 260 -71zM360 910l120 -145h-15l-114 135l-113 -135h-15l120 145h17z" />
    <glyph glyph-name="uni0218" unicode="&#x218;" horiz-adv-x="702" 
d="M599 639l-8 -11c-67 43 -162 69 -251 69c-139 0 -226 -63 -226 -162c0 -80 53 -116 192 -153l99 -26c53 -13 93 -26 122 -38c57 -23 96 -63 96 -135c0 -60 -24 -107 -71 -142c-47 -34 -111 -51 -190 -51c-53 0 -106 7 -159 22s-97 35 -133 60l8 10
c71 -48 181 -79 285 -79c152 0 246 66 246 182c0 79 -43 117 -194 155l-99 25c-165 42 -216 82 -216 167c0 111 91 178 239 178c93 0 191 -27 260 -71zM377 -98c0 -3 -1 -7 -3 -12l-40 -95l-9 4l31 89c-6 3 -9 7 -9 14c0 9 6 15 15 15s15 -6 15 -15z" />
    <glyph glyph-name="uni1E9E" unicode="&#x1e9e;" horiz-adv-x="798" 
d="M719 182c0 -117 -88 -192 -225 -192c-89 0 -185 31 -246 82l7 11c59 -48 153 -80 238 -80c126 0 212 72 212 177c0 84 -53 129 -190 164l-28 7v17l182 239c-76 60 -161 90 -254 90c-163 0 -261 -87 -261 -231v-466h-14v466c0 153 101 244 273 244c103 0 192 -32 276 -100
l-189 -249l17 -4c148 -32 202 -83 202 -175z" />
    <glyph glyph-name="T" unicode="T" horiz-adv-x="641" 
d="M592 700v-13h-264v-687h-14v687h-264v13h542z" />
    <glyph glyph-name="Tbar" unicode="&#x166;" horiz-adv-x="641" 
d="M592 687h-264v-315h120v-12h-120v-360h-14v360h-120v12h120v315h-264v13h542v-13z" />
    <glyph glyph-name="Tcaron" unicode="&#x164;" horiz-adv-x="641" 
d="M592 700v-13h-264v-687h-14v687h-264v13h542zM450 910l-120 -145h-17l-120 145h15l113 -135l114 135h15z" />
    <glyph glyph-name="uni021A" unicode="&#x21a;" horiz-adv-x="641" 
d="M592 700v-13h-264v-687h-14v687h-264v13h542zM347 -98c0 -3 -1 -7 -3 -12l-40 -95l-9 4l31 89c-6 3 -9 7 -9 14c0 9 6 15 15 15s15 -6 15 -15z" />
    <glyph glyph-name="U" unicode="U" horiz-adv-x="872" 
d="M732 700v-396c0 -191 -115 -314 -296 -314s-296 123 -296 314v396h14v-396c0 -185 110 -301 282 -301s282 116 282 301v396h14z" />
    <glyph glyph-name="Uacute" unicode="&#xda;" horiz-adv-x="872" 
d="M732 700v-396c0 -191 -115 -314 -296 -314s-296 123 -296 314v396h14v-396c0 -185 110 -301 282 -301s282 116 282 301v396h14zM518 910l-109 -145h-15l103 145h21z" />
    <glyph glyph-name="Ubreve" unicode="&#x16c;" horiz-adv-x="872" 
d="M732 700v-396c0 -191 -115 -314 -296 -314s-296 123 -296 314v396h14v-396c0 -185 110 -301 282 -301s282 116 282 301v396h14zM437 776c-85 0 -143 48 -148 127l14 1c5 -72 57 -115 134 -115s128 43 133 115l14 -1c-5 -79 -63 -127 -147 -127z" />
    <glyph glyph-name="Ucircumflex" unicode="&#xdb;" horiz-adv-x="872" 
d="M732 700v-396c0 -191 -115 -314 -296 -314s-296 123 -296 314v396h14v-396c0 -185 110 -301 282 -301s282 116 282 301v396h14zM445 910l120 -145h-15l-114 135l-113 -135h-15l120 145h17z" />
    <glyph glyph-name="Udieresis" unicode="&#xdc;" horiz-adv-x="872" 
d="M732 700v-396c0 -191 -115 -314 -296 -314s-296 123 -296 314v396h14v-396c0 -185 110 -301 282 -301s282 116 282 301v396h14zM355 848c0 -8 -6 -14 -13 -14c-8 0 -14 6 -14 14c0 7 6 13 14 13c7 0 13 -6 13 -13zM544 848c0 -8 -6 -14 -14 -14s-13 6 -13 14
c0 7 5 13 13 13s14 -6 14 -13z" />
    <glyph glyph-name="Ugrave" unicode="&#xd9;" horiz-adv-x="872" 
d="M732 700v-396c0 -191 -115 -314 -296 -314s-296 123 -296 314v396h14v-396c0 -185 110 -301 282 -301s282 116 282 301v396h14zM375 910l103 -145h-15l-109 145h21z" />
    <glyph glyph-name="Uhungarumlaut" unicode="&#x170;" horiz-adv-x="872" 
d="M732 700v-396c0 -191 -115 -314 -296 -314s-296 123 -296 314v396h14v-396c0 -185 110 -301 282 -301s282 116 282 301v396h14zM467 910l-109 -145h-15l103 145h21zM623 910l-109 -145h-14l103 145h20z" />
    <glyph glyph-name="Umacron" unicode="&#x16a;" horiz-adv-x="872" 
d="M732 700v-396c0 -191 -115 -314 -296 -314s-296 123 -296 314v396h14v-396c0 -185 110 -301 282 -301s282 116 282 301v396h14zM563 854v-12h-254v12h254z" />
    <glyph glyph-name="Uogonek" unicode="&#x172;" horiz-adv-x="872" 
d="M718 700h14v-396c0 -190 -115 -314 -294 -314l-23 -28c-21 -26 -32 -52 -32 -79c0 -44 37 -75 84 -75c26 0 49 9 70 28l9 -10c-23 -21 -49 -31 -79 -31c-55 0 -98 36 -98 88c0 29 12 58 35 87l16 20c-171 6 -280 129 -280 314v396h14v-396c0 -185 110 -301 282 -301
s282 116 282 301v396z" />
    <glyph glyph-name="Uring" unicode="&#x16e;" horiz-adv-x="872" 
d="M732 700v-396c0 -191 -115 -314 -296 -314s-296 123 -296 314v396h14v-396c0 -185 110 -301 282 -301s282 116 282 301v396h14zM544 845c0 -29 -11 -53 -32 -74s-46 -31 -75 -31c-60 0 -108 46 -108 105s48 105 108 105c29 0 54 -10 75 -31s32 -45 32 -74zM343 845
c0 -51 42 -92 94 -92c51 0 93 41 93 92s-42 92 -93 92c-52 0 -94 -41 -94 -92z" />
    <glyph glyph-name="Utilde" unicode="&#x168;" horiz-adv-x="872" 
d="M732 700v-396c0 -191 -115 -314 -296 -314s-296 123 -296 314v396h14v-396c0 -185 110 -301 282 -301s282 116 282 301v396h14zM355 900c24 0 47 -11 86 -39c35 -25 56 -36 77 -36c35 0 61 26 68 70l14 -2c-9 -49 -42 -82 -82 -82c-24 0 -48 11 -85 39
c-35 25 -57 36 -78 36c-35 0 -61 -26 -68 -70l-14 2c9 49 42 82 82 82z" />
    <glyph glyph-name="V" unicode="V" horiz-adv-x="764" 
d="M699 700h15l-323 -700h-18l-323 700h15l317 -686z" />
    <glyph glyph-name="W" unicode="W" horiz-adv-x="1091" 
d="M1026 700h15l-245 -700h-20l-230 688l-230 -688h-21l-245 700h15l240 -687l230 687h21l230 -687z" />
    <glyph glyph-name="Wacute" unicode="&#x1e82;" horiz-adv-x="1091" 
d="M1026 700h15l-245 -700h-20l-230 688l-230 -688h-21l-245 700h15l240 -687l230 687h21l230 -687zM630 910l-109 -145h-15l103 145h21z" />
    <glyph glyph-name="Wcircumflex" unicode="&#x174;" horiz-adv-x="1091" 
d="M1026 700h15l-245 -700h-20l-230 688l-230 -688h-21l-245 700h15l240 -687l230 687h21l230 -687zM557 910l120 -145h-15l-114 135l-113 -135h-15l120 145h17z" />
    <glyph glyph-name="Wdieresis" unicode="&#x1e84;" horiz-adv-x="1091" 
d="M1026 700h15l-245 -700h-20l-230 688l-230 -688h-21l-245 700h15l240 -687l230 687h21l230 -687zM467 848c0 -8 -6 -14 -13 -14c-8 0 -14 6 -14 14c0 7 6 13 14 13c7 0 13 -6 13 -13zM656 848c0 -8 -6 -14 -14 -14s-13 6 -13 14c0 7 5 13 13 13s14 -6 14 -13z" />
    <glyph glyph-name="Wgrave" unicode="&#x1e80;" horiz-adv-x="1091" 
d="M1026 700h15l-245 -700h-20l-230 688l-230 -688h-21l-245 700h15l240 -687l230 687h21l230 -687zM487 910l103 -145h-15l-109 145h21z" />
    <glyph glyph-name="X" unicode="X" horiz-adv-x="726" 
d="M676 0h-18l-296 348l-294 -348h-18l303 359l-291 341h18l284 -334l282 334h18l-291 -344z" />
    <glyph glyph-name="Y" unicode="Y" horiz-adv-x="742" 
d="M675 700h17l-314 -436v-264h-14v264l-314 436h17l304 -421z" />
    <glyph glyph-name="Yacute" unicode="&#xdd;" horiz-adv-x="742" 
d="M675 700h17l-314 -436v-264h-14v264l-314 436h17l304 -421zM453 910l-109 -145h-15l103 145h21z" />
    <glyph glyph-name="Ycircumflex" unicode="&#x176;" horiz-adv-x="742" 
d="M675 700h17l-314 -436v-264h-14v264l-314 436h17l304 -421zM380 910l120 -145h-15l-114 135l-113 -135h-15l120 145h17z" />
    <glyph glyph-name="Ydieresis" unicode="&#x178;" horiz-adv-x="742" 
d="M675 700h17l-314 -436v-264h-14v264l-314 436h17l304 -421zM290 848c0 -8 -6 -14 -13 -14c-8 0 -14 6 -14 14c0 7 6 13 14 13c7 0 13 -6 13 -13zM479 848c0 -8 -6 -14 -14 -14s-13 6 -13 14c0 7 5 13 13 13s14 -6 14 -13z" />
    <glyph glyph-name="Ygrave" unicode="&#x1ef2;" horiz-adv-x="742" 
d="M675 700h17l-314 -436v-264h-14v264l-314 436h17l304 -421zM310 910l103 -145h-15l-109 145h21z" />
    <glyph glyph-name="Z" unicode="Z" horiz-adv-x="687" 
d="M607 700v-16l-522 -671h532v-13h-547v16l522 671h-506v13h521z" />
    <glyph glyph-name="Zacute" unicode="&#x179;" horiz-adv-x="687" 
d="M607 700v-16l-522 -671h532v-13h-547v16l522 671h-506v13h521zM426 910l-109 -145h-15l103 145h21z" />
    <glyph glyph-name="Zcaron" unicode="&#x17d;" horiz-adv-x="687" 
d="M607 700v-16l-522 -671h532v-13h-547v16l522 671h-506v13h521zM473 910l-120 -145h-17l-120 145h15l113 -135l114 135h15z" />
    <glyph glyph-name="Zdotaccent" unicode="&#x17b;" horiz-adv-x="687" 
d="M607 700v-16l-522 -671h532v-13h-547v16l522 671h-506v13h521zM358 848c0 -8 -6 -14 -13 -14c-8 0 -14 6 -14 14c0 7 6 13 14 13c7 0 13 -6 13 -13z" />
    <glyph glyph-name="a" unicode="a" horiz-adv-x="616" 
d="M517 323v-323h-13v66c-69 -51 -151 -76 -231 -76c-127 0 -203 66 -203 163c0 96 73 149 204 149h230v21c0 112 -68 175 -191 175c-73 0 -140 -24 -199 -71l-8 10c63 49 132 73 209 73c129 0 202 -68 202 -187zM504 81v209h-230c-123 0 -191 -49 -191 -137
c0 -91 71 -151 190 -151c81 0 163 27 231 79z" />
    <glyph glyph-name="a.ss01" horiz-adv-x="668" 
d="M545 500h13v-500h-13v79c-51 -57 -123 -89 -200 -89c-143 -3 -268 119 -265 260c-3 141 122 263 265 260c77 0 149 -32 200 -89v79zM545 98v304c-53 63 -123 96 -199 96c-137 3 -256 -115 -253 -248c-3 -133 116 -251 253 -248c76 0 146 33 199 96z" />
    <glyph glyph-name="aacute" unicode="&#xe1;" horiz-adv-x="616" 
d="M517 323v-323h-13v66c-69 -51 -151 -76 -231 -76c-127 0 -203 66 -203 163c0 96 73 149 204 149h230v21c0 112 -68 175 -191 175c-73 0 -140 -24 -199 -71l-8 10c63 49 132 73 209 73c129 0 202 -68 202 -187zM504 81v209h-230c-123 0 -191 -49 -191 -137
c0 -91 71 -151 190 -151c81 0 163 27 231 79zM390 710l-109 -145h-15l103 145h21z" />
    <glyph glyph-name="aacute.ss01" horiz-adv-x="668" 
d="M545 500h13v-500h-13v79c-51 -57 -123 -89 -200 -89c-143 -3 -268 119 -265 260c-3 141 122 263 265 260c77 0 149 -32 200 -89v79zM545 98v304c-53 63 -123 96 -199 96c-137 3 -256 -115 -253 -248c-3 -133 116 -251 253 -248c76 0 146 33 199 96zM423 710l-109 -145
h-15l103 145h21z" />
    <glyph glyph-name="abreve" unicode="&#x103;" horiz-adv-x="616" 
d="M517 323v-323h-13v66c-69 -51 -151 -76 -231 -76c-127 0 -203 66 -203 163c0 96 73 149 204 149h230v21c0 112 -68 175 -191 175c-73 0 -140 -24 -199 -71l-8 10c63 49 132 73 209 73c129 0 202 -68 202 -187zM504 81v209h-230c-123 0 -191 -49 -191 -137
c0 -91 71 -151 190 -151c81 0 163 27 231 79zM309 576c-85 0 -143 48 -148 127l14 1c5 -72 57 -115 134 -115s128 43 133 115l14 -1c-5 -79 -63 -127 -147 -127z" />
    <glyph glyph-name="abreve.ss01" horiz-adv-x="668" 
d="M545 500h13v-500h-13v79c-51 -57 -123 -89 -200 -89c-143 -3 -268 119 -265 260c-3 141 122 263 265 260c77 0 149 -32 200 -89v79zM545 98v304c-53 63 -123 96 -199 96c-137 3 -256 -115 -253 -248c-3 -133 116 -251 253 -248c76 0 146 33 199 96zM342 576
c-85 0 -143 48 -148 127l14 1c5 -72 57 -115 134 -115s128 43 133 115l14 -1c-5 -79 -63 -127 -147 -127z" />
    <glyph glyph-name="acircumflex" unicode="&#xe2;" horiz-adv-x="616" 
d="M517 323v-323h-13v66c-69 -51 -151 -76 -231 -76c-127 0 -203 66 -203 163c0 96 73 149 204 149h230v21c0 112 -68 175 -191 175c-73 0 -140 -24 -199 -71l-8 10c63 49 132 73 209 73c129 0 202 -68 202 -187zM504 81v209h-230c-123 0 -191 -49 -191 -137
c0 -91 71 -151 190 -151c81 0 163 27 231 79zM317 710l120 -145h-15l-114 135l-113 -135h-15l120 145h17z" />
    <glyph glyph-name="acircumflex.ss01" horiz-adv-x="668" 
d="M545 500h13v-500h-13v79c-51 -57 -123 -89 -200 -89c-143 -3 -268 119 -265 260c-3 141 122 263 265 260c77 0 149 -32 200 -89v79zM545 98v304c-53 63 -123 96 -199 96c-137 3 -256 -115 -253 -248c-3 -133 116 -251 253 -248c76 0 146 33 199 96zM350 710l120 -145h-15
l-114 135l-113 -135h-15l120 145h17z" />
    <glyph glyph-name="adieresis" unicode="&#xe4;" horiz-adv-x="616" 
d="M517 323v-323h-13v66c-69 -51 -151 -76 -231 -76c-127 0 -203 66 -203 163c0 96 73 149 204 149h230v21c0 112 -68 175 -191 175c-73 0 -140 -24 -199 -71l-8 10c63 49 132 73 209 73c129 0 202 -68 202 -187zM504 81v209h-230c-123 0 -191 -49 -191 -137
c0 -91 71 -151 190 -151c81 0 163 27 231 79zM227 648c0 -8 -6 -14 -13 -14c-8 0 -14 6 -14 14c0 7 6 13 14 13c7 0 13 -6 13 -13zM416 648c0 -8 -6 -14 -14 -14s-13 6 -13 14c0 7 5 13 13 13s14 -6 14 -13z" />
    <glyph glyph-name="adieresis.ss01" horiz-adv-x="668" 
d="M545 500h13v-500h-13v79c-51 -57 -123 -89 -200 -89c-143 -3 -268 119 -265 260c-3 141 122 263 265 260c77 0 149 -32 200 -89v79zM545 98v304c-53 63 -123 96 -199 96c-137 3 -256 -115 -253 -248c-3 -133 116 -251 253 -248c76 0 146 33 199 96zM260 648
c0 -8 -6 -14 -13 -14c-8 0 -14 6 -14 14c0 7 6 13 14 13c7 0 13 -6 13 -13zM449 648c0 -8 -6 -14 -14 -14s-13 6 -13 14c0 7 5 13 13 13s14 -6 14 -13z" />
    <glyph glyph-name="agrave" unicode="&#xe0;" horiz-adv-x="616" 
d="M517 323v-323h-13v66c-69 -51 -151 -76 -231 -76c-127 0 -203 66 -203 163c0 96 73 149 204 149h230v21c0 112 -68 175 -191 175c-73 0 -140 -24 -199 -71l-8 10c63 49 132 73 209 73c129 0 202 -68 202 -187zM504 81v209h-230c-123 0 -191 -49 -191 -137
c0 -91 71 -151 190 -151c81 0 163 27 231 79zM247 710l103 -145h-15l-109 145h21z" />
    <glyph glyph-name="agrave.ss01" horiz-adv-x="668" 
d="M545 500h13v-500h-13v79c-51 -57 -123 -89 -200 -89c-143 -3 -268 119 -265 260c-3 141 122 263 265 260c77 0 149 -32 200 -89v79zM545 98v304c-53 63 -123 96 -199 96c-137 3 -256 -115 -253 -248c-3 -133 116 -251 253 -248c76 0 146 33 199 96zM280 710l103 -145h-15
l-109 145h21z" />
    <glyph glyph-name="amacron" unicode="&#x101;" horiz-adv-x="616" 
d="M517 323v-323h-13v66c-69 -51 -151 -76 -231 -76c-127 0 -203 66 -203 163c0 96 73 149 204 149h230v21c0 112 -68 175 -191 175c-73 0 -140 -24 -199 -71l-8 10c63 49 132 73 209 73c129 0 202 -68 202 -187zM504 81v209h-230c-123 0 -191 -49 -191 -137
c0 -91 71 -151 190 -151c81 0 163 27 231 79zM435 654v-12h-254v12h254z" />
    <glyph glyph-name="amacron.ss01" horiz-adv-x="668" 
d="M545 500h13v-500h-13v79c-51 -57 -123 -89 -200 -89c-143 -3 -268 119 -265 260c-3 141 122 263 265 260c77 0 149 -32 200 -89v79zM545 98v304c-53 63 -123 96 -199 96c-137 3 -256 -115 -253 -248c-3 -133 116 -251 253 -248c76 0 146 33 199 96zM468 654v-12h-254v12
h254z" />
    <glyph glyph-name="aogonek" unicode="&#x105;" horiz-adv-x="616" 
d="M610 -162l9 -10c-23 -21 -49 -31 -79 -31c-55 0 -98 36 -98 88c0 27 13 56 39 88l23 29v64c-69 -51 -151 -76 -231 -76c-127 0 -203 66 -203 163c0 96 73 149 204 149h230v21c0 112 -68 175 -191 175c-73 0 -140 -24 -199 -71l-8 10c63 49 132 73 209 73
c129 0 202 -68 202 -187v-323l-29 -36c-21 -26 -32 -52 -32 -79c0 -44 37 -75 84 -75c26 0 49 9 70 28zM504 81v209h-230c-123 0 -191 -49 -191 -137c0 -91 71 -151 190 -151c81 0 163 27 231 79z" />
    <glyph glyph-name="aogonek.ss01" horiz-adv-x="668" 
d="M651 -162l9 -10c-23 -21 -49 -31 -79 -31c-55 0 -98 36 -98 88c0 25 13 55 40 88l22 27v79c-51 -57 -123 -89 -200 -89c-143 -3 -268 119 -265 260c-3 141 122 263 265 260c77 0 149 -32 200 -89v79h13v-500l-29 -36c-21 -26 -32 -52 -32 -79c0 -44 37 -75 84 -75
c26 0 49 9 70 28zM545 98v304c-53 63 -123 96 -199 96c-137 3 -256 -115 -253 -248c-3 -133 116 -251 253 -248c76 0 146 33 199 96z" />
    <glyph glyph-name="aring" unicode="&#xe5;" horiz-adv-x="616" 
d="M517 323v-323h-13v66c-69 -51 -151 -76 -231 -76c-127 0 -203 66 -203 163c0 96 73 149 204 149h230v21c0 112 -68 175 -191 175c-73 0 -140 -24 -199 -71l-8 10c63 49 132 73 209 73c129 0 202 -68 202 -187zM504 81v209h-230c-123 0 -191 -49 -191 -137
c0 -91 71 -151 190 -151c81 0 163 27 231 79zM416 645c0 -29 -11 -53 -32 -74s-46 -31 -75 -31c-60 0 -108 46 -108 105s48 105 108 105c29 0 54 -10 75 -31s32 -45 32 -74zM215 645c0 -51 42 -92 94 -92c51 0 93 41 93 92s-42 92 -93 92c-52 0 -94 -41 -94 -92z" />
    <glyph glyph-name="aring.ss01" horiz-adv-x="668" 
d="M545 500h13v-500h-13v79c-51 -57 -123 -89 -200 -89c-143 -3 -268 119 -265 260c-3 141 122 263 265 260c77 0 149 -32 200 -89v79zM545 98v304c-53 63 -123 96 -199 96c-137 3 -256 -115 -253 -248c-3 -133 116 -251 253 -248c76 0 146 33 199 96zM449 645
c0 -29 -11 -53 -32 -74s-46 -31 -75 -31c-60 0 -108 46 -108 105s48 105 108 105c29 0 54 -10 75 -31s32 -45 32 -74zM248 645c0 -51 42 -92 94 -92c51 0 93 41 93 92s-42 92 -93 92c-52 0 -94 -41 -94 -92z" />
    <glyph glyph-name="atilde" unicode="&#xe3;" horiz-adv-x="616" 
d="M517 323v-323h-13v66c-69 -51 -151 -76 -231 -76c-127 0 -203 66 -203 163c0 96 73 149 204 149h230v21c0 112 -68 175 -191 175c-73 0 -140 -24 -199 -71l-8 10c63 49 132 73 209 73c129 0 202 -68 202 -187zM504 81v209h-230c-123 0 -191 -49 -191 -137
c0 -91 71 -151 190 -151c81 0 163 27 231 79zM227 700c24 0 47 -11 86 -39c35 -25 56 -36 77 -36c35 0 61 26 68 70l14 -2c-9 -49 -42 -82 -82 -82c-24 0 -48 11 -85 39c-35 25 -57 36 -78 36c-35 0 -61 -26 -68 -70l-14 2c9 49 42 82 82 82z" />
    <glyph glyph-name="atilde.ss01" horiz-adv-x="668" 
d="M545 500h13v-500h-13v79c-51 -57 -123 -89 -200 -89c-143 -3 -268 119 -265 260c-3 141 122 263 265 260c77 0 149 -32 200 -89v79zM545 98v304c-53 63 -123 96 -199 96c-137 3 -256 -115 -253 -248c-3 -133 116 -251 253 -248c76 0 146 33 199 96zM260 700
c24 0 47 -11 86 -39c35 -25 56 -36 77 -36c35 0 61 26 68 70l14 -2c-9 -49 -42 -82 -82 -82c-24 0 -48 11 -85 39c-35 25 -57 36 -78 36c-35 0 -61 -26 -68 -70l-14 2c9 49 42 82 82 82z" />
    <glyph glyph-name="ae" unicode="&#xe6;" horiz-adv-x="1084" 
d="M1009 250v-12h-491c4 -127 120 -239 244 -236c76 0 145 30 200 82l9 -8c-55 -55 -129 -86 -209 -86c-88 0 -168 46 -215 117c-77 -76 -176 -117 -260 -117c-135 0 -217 64 -217 163c0 96 74 149 205 149h230v21c0 112 -68 175 -191 175c-73 0 -140 -24 -199 -71l-8 10
c63 49 132 73 209 73c125 0 198 -63 202 -178c17 53 47 95 91 128s93 50 148 50c155 0 252 -114 252 -260zM518 250h478c0 139 -92 248 -239 248c-127 3 -242 -115 -239 -248zM541 117c-24 41 -36 85 -36 133v40h-230c-123 0 -191 -49 -191 -137c0 -92 76 -151 203 -151
c81 0 178 40 254 115z" />
    <glyph glyph-name="ae.ss01" horiz-adv-x="1124" 
d="M1049 250v-12h-491c4 -127 120 -239 244 -236c76 0 145 30 200 82l9 -8c-55 -55 -129 -86 -209 -86c-56 0 -106 17 -151 50s-76 76 -93 128v-168h-13v79c-51 -57 -123 -89 -200 -89c-143 -3 -268 119 -265 260c-3 141 122 263 265 260c77 0 149 -32 200 -89v79h13v-167
c17 52 47 94 91 127s93 50 148 50c155 0 252 -114 252 -260zM545 98v304c-53 63 -123 96 -199 96c-137 3 -256 -115 -253 -248c-3 -133 116 -251 253 -248c76 0 146 33 199 96zM558 250h478c0 139 -92 248 -239 248c-127 3 -242 -115 -239 -248z" />
    <glyph glyph-name="ae.ss02" horiz-adv-x="1084" 
d="M962 84l9 -8c-55 -55 -129 -86 -209 -86c-88 0 -168 46 -215 117c-77 -76 -176 -117 -260 -117c-135 0 -217 64 -217 163c0 96 74 149 205 149h230v21c0 112 -68 175 -191 175c-73 0 -140 -24 -199 -71l-8 10c63 49 132 73 209 73c125 0 198 -63 202 -178
c17 53 47 95 91 128s93 50 148 50c67 0 123 -20 167 -59s71 -89 81 -151l-471 -136c17 -48 47 -87 89 -117s88 -45 139 -45c76 0 145 30 200 82zM518 250c0 -26 4 -51 12 -75l460 134c-21 112 -109 189 -233 189c-127 3 -242 -115 -239 -248zM541 117c-24 41 -36 85 -36 133
v40h-230c-123 0 -191 -49 -191 -137c0 -92 76 -151 203 -151c81 0 178 40 254 115z" />
    <glyph glyph-name="ae.ss03" horiz-adv-x="1124" 
d="M1002 84l9 -8c-55 -55 -129 -86 -209 -86c-56 0 -106 17 -151 50s-76 76 -93 128v-168h-13v79c-51 -57 -123 -89 -200 -89c-143 -3 -268 119 -265 260c-3 141 122 263 265 260c77 0 149 -32 200 -89v79h13v-167c17 52 47 94 91 127s93 50 148 50c67 0 123 -20 167 -59
s71 -89 81 -151l-471 -136c17 -48 47 -87 89 -117s88 -45 139 -45c76 0 145 30 200 82zM545 98v304c-53 63 -123 96 -199 96c-137 3 -256 -115 -253 -248c-3 -133 116 -251 253 -248c76 0 146 33 199 96zM558 250c0 -26 4 -51 12 -75l460 134c-21 112 -109 189 -233 189
c-127 3 -242 -115 -239 -248z" />
    <glyph glyph-name="b" unicode="b" horiz-adv-x="668" 
d="M588 250c3 -141 -122 -263 -265 -260c-81 0 -152 36 -200 89v-79h-13v700h13v-279c48 53 119 89 200 89c143 3 268 -119 265 -260zM575 250c3 133 -117 251 -252 248c-77 0 -147 -33 -200 -96v-304c53 -63 123 -96 200 -96c135 -3 255 115 252 248z" />
    <glyph glyph-name="c" unicode="c" horiz-adv-x="624" 
d="M541 425l-10 -8c-48 52 -113 81 -186 81c-135 3 -255 -115 -252 -248c-3 -133 117 -251 252 -248c77 0 146 33 194 90l10 -8c-51 -59 -124 -94 -204 -94c-143 -3 -268 119 -265 260c-3 141 122 263 265 260c76 0 145 -32 196 -85z" />
    <glyph glyph-name="cacute" unicode="&#x107;" horiz-adv-x="624" 
d="M541 425l-10 -8c-48 52 -113 81 -186 81c-135 3 -255 -115 -252 -248c-3 -133 117 -251 252 -248c77 0 146 33 194 90l10 -8c-51 -59 -124 -94 -204 -94c-143 -3 -268 119 -265 260c-3 141 122 263 265 260c76 0 145 -32 196 -85zM419 710l-109 -145h-15l103 145h21z" />
    <glyph glyph-name="ccaron" unicode="&#x10d;" horiz-adv-x="624" 
d="M541 425l-10 -8c-48 52 -113 81 -186 81c-135 3 -255 -115 -252 -248c-3 -133 117 -251 252 -248c77 0 146 33 194 90l10 -8c-51 -59 -124 -94 -204 -94c-143 -3 -268 119 -265 260c-3 141 122 263 265 260c76 0 145 -32 196 -85zM466 710l-120 -145h-17l-120 145h15
l113 -135l114 135h15z" />
    <glyph glyph-name="ccedilla" unicode="&#xe7;" horiz-adv-x="624" 
d="M322 -9l-22 -44c15 8 32 12 50 12c48 0 85 -32 85 -79c0 -49 -44 -85 -100 -85c-36 0 -67 7 -93 21l7 11c23 -13 52 -19 86 -19c49 0 86 31 86 72c0 39 -31 66 -71 66c-26 0 -47 -8 -64 -25l-10 9l31 63c-127 18 -227 128 -227 257c-3 141 122 263 265 260
c76 0 145 -32 196 -85l-10 -8c-48 52 -113 81 -186 81c-135 3 -255 -115 -252 -248c-3 -133 117 -251 252 -248c77 0 146 33 194 90l10 -8c-51 -59 -124 -94 -204 -94c-10 0 -18 0 -23 1z" />
    <glyph glyph-name="ccircumflex" unicode="&#x109;" horiz-adv-x="624" 
d="M541 425l-10 -8c-48 52 -113 81 -186 81c-135 3 -255 -115 -252 -248c-3 -133 117 -251 252 -248c77 0 146 33 194 90l10 -8c-51 -59 -124 -94 -204 -94c-143 -3 -268 119 -265 260c-3 141 122 263 265 260c76 0 145 -32 196 -85zM346 710l120 -145h-15l-114 135
l-113 -135h-15l120 145h17z" />
    <glyph glyph-name="cdotaccent" unicode="&#x10b;" horiz-adv-x="624" 
d="M541 425l-10 -8c-48 52 -113 81 -186 81c-135 3 -255 -115 -252 -248c-3 -133 117 -251 252 -248c77 0 146 33 194 90l10 -8c-51 -59 -124 -94 -204 -94c-143 -3 -268 119 -265 260c-3 141 122 263 265 260c76 0 145 -32 196 -85zM351 648c0 -8 -6 -14 -13 -14
c-8 0 -14 6 -14 14c0 7 6 13 14 13c7 0 13 -6 13 -13z" />
    <glyph glyph-name="d" unicode="d" horiz-adv-x="668" 
d="M545 700h13v-700h-13v79c-48 -53 -119 -89 -200 -89c-143 -3 -268 119 -265 260c-3 141 122 263 265 260c81 0 152 -36 200 -89v279zM545 98v304c-53 63 -123 96 -200 96c-135 3 -255 -115 -252 -248c-3 -133 117 -251 252 -248c77 0 147 33 200 96z" />
    <glyph glyph-name="eth" unicode="&#xf0;" horiz-adv-x="653" 
d="M563 279c0 -180 -93 -288 -245 -288c-141 0 -238 96 -238 232c0 141 105 247 246 247c88 0 171 -42 216 -107c-17 103 -69 192 -144 252l-86 -81l-10 10l85 80c-53 40 -114 64 -182 72l2 14c71 -8 134 -33 191 -76l81 76l10 -10l-80 -75c85 -69 139 -174 151 -295l1 -1
v-1c1 -21 2 -38 2 -49zM549 279c0 11 -1 27 -2 50c-41 79 -125 128 -221 128c-134 0 -232 -99 -232 -234c0 -130 91 -219 224 -219c145 0 231 103 231 275z" />
    <glyph glyph-name="dcaron" unicode="&#x10f;" horiz-adv-x="725" 
d="M545 700h13v-700h-13v79c-48 -53 -119 -89 -200 -89c-143 -3 -268 119 -265 260c-3 141 122 263 265 260c81 0 152 -36 200 -89v279zM545 98v304c-53 63 -123 96 -200 96c-135 3 -255 -115 -252 -248c-3 -133 117 -251 252 -248c77 0 147 33 200 96zM731 703
c0 -4 -1 -9 -4 -15l-39 -93l-9 4l31 89c-6 2 -9 7 -9 14c0 9 6 15 15 15s15 -6 15 -14z" />
    <glyph glyph-name="dslash" unicode="&#x111;" horiz-adv-x="668" 
d="M656 617v-12h-98v-605h-13v79c-48 -53 -119 -89 -200 -89c-143 -3 -268 119 -265 260c-3 141 122 263 265 260c81 0 152 -36 200 -89v184h-143v12h143v83h13v-83h98zM545 98v304c-53 63 -123 96 -200 96c-135 3 -255 -115 -252 -248c-3 -133 117 -251 252 -248
c77 0 147 33 200 96z" />
    <glyph glyph-name="e" unicode="e" horiz-adv-x="659" 
d="M584 250v-12h-491c4 -127 120 -239 244 -236c76 0 145 30 200 82l9 -8c-55 -55 -129 -86 -209 -86c-137 -3 -261 119 -257 260c-3 141 117 263 252 260c155 0 252 -114 252 -260zM93 250h478c0 139 -92 248 -239 248c-127 3 -242 -115 -239 -248z" />
    <glyph glyph-name="e.ss01" horiz-adv-x="659" 
d="M537 84l9 -8c-55 -55 -129 -86 -209 -86c-137 -3 -261 119 -257 260c-3 141 117 263 252 260c67 0 123 -20 167 -59s71 -89 81 -151l-471 -136c17 -48 47 -87 89 -117s88 -45 139 -45c76 0 145 30 200 82zM93 250c0 -26 4 -51 12 -75l460 134c-21 112 -109 189 -233 189
c-127 3 -242 -115 -239 -248z" />
    <glyph glyph-name="eacute" unicode="&#xe9;" horiz-adv-x="659" 
d="M584 250v-12h-491c4 -127 120 -239 244 -236c76 0 145 30 200 82l9 -8c-55 -55 -129 -86 -209 -86c-137 -3 -261 119 -257 260c-3 141 117 263 252 260c155 0 252 -114 252 -260zM93 250h478c0 139 -92 248 -239 248c-127 3 -242 -115 -239 -248zM412 710l-109 -145h-15
l103 145h21z" />
    <glyph glyph-name="eacute.ss01" horiz-adv-x="659" 
d="M537 84l9 -8c-55 -55 -129 -86 -209 -86c-137 -3 -261 119 -257 260c-3 141 117 263 252 260c67 0 123 -20 167 -59s71 -89 81 -151l-471 -136c17 -48 47 -87 89 -117s88 -45 139 -45c76 0 145 30 200 82zM93 250c0 -26 4 -51 12 -75l460 134c-21 112 -109 189 -233 189
c-127 3 -242 -115 -239 -248zM412 710l-109 -145h-15l103 145h21z" />
    <glyph glyph-name="ebreve" unicode="&#x115;" horiz-adv-x="659" 
d="M584 250v-12h-491c4 -127 120 -239 244 -236c76 0 145 30 200 82l9 -8c-55 -55 -129 -86 -209 -86c-137 -3 -261 119 -257 260c-3 141 117 263 252 260c155 0 252 -114 252 -260zM93 250h478c0 139 -92 248 -239 248c-127 3 -242 -115 -239 -248zM331 576
c-85 0 -143 48 -148 127l14 1c5 -72 57 -115 134 -115s128 43 133 115l14 -1c-5 -79 -63 -127 -147 -127z" />
    <glyph glyph-name="ebreve.ss01" horiz-adv-x="659" 
d="M537 84l9 -8c-55 -55 -129 -86 -209 -86c-137 -3 -261 119 -257 260c-3 141 117 263 252 260c67 0 123 -20 167 -59s71 -89 81 -151l-471 -136c17 -48 47 -87 89 -117s88 -45 139 -45c76 0 145 30 200 82zM93 250c0 -26 4 -51 12 -75l460 134c-21 112 -109 189 -233 189
c-127 3 -242 -115 -239 -248zM331 576c-85 0 -143 48 -148 127l14 1c5 -72 57 -115 134 -115s128 43 133 115l14 -1c-5 -79 -63 -127 -147 -127z" />
    <glyph glyph-name="ecaron" unicode="&#x11b;" horiz-adv-x="659" 
d="M584 250v-12h-491c4 -127 120 -239 244 -236c76 0 145 30 200 82l9 -8c-55 -55 -129 -86 -209 -86c-137 -3 -261 119 -257 260c-3 141 117 263 252 260c155 0 252 -114 252 -260zM93 250h478c0 139 -92 248 -239 248c-127 3 -242 -115 -239 -248zM459 710l-120 -145h-17
l-120 145h15l113 -135l114 135h15z" />
    <glyph glyph-name="ecaron.ss01" horiz-adv-x="659" 
d="M537 84l9 -8c-55 -55 -129 -86 -209 -86c-137 -3 -261 119 -257 260c-3 141 117 263 252 260c67 0 123 -20 167 -59s71 -89 81 -151l-471 -136c17 -48 47 -87 89 -117s88 -45 139 -45c76 0 145 30 200 82zM93 250c0 -26 4 -51 12 -75l460 134c-21 112 -109 189 -233 189
c-127 3 -242 -115 -239 -248zM459 710l-120 -145h-17l-120 145h15l113 -135l114 135h15z" />
    <glyph glyph-name="ecircumflex" unicode="&#xea;" horiz-adv-x="659" 
d="M584 250v-12h-491c4 -127 120 -239 244 -236c76 0 145 30 200 82l9 -8c-55 -55 -129 -86 -209 -86c-137 -3 -261 119 -257 260c-3 141 117 263 252 260c155 0 252 -114 252 -260zM93 250h478c0 139 -92 248 -239 248c-127 3 -242 -115 -239 -248zM339 710l120 -145h-15
l-114 135l-113 -135h-15l120 145h17z" />
    <glyph glyph-name="ecircumflex.ss01" horiz-adv-x="659" 
d="M537 84l9 -8c-55 -55 -129 -86 -209 -86c-137 -3 -261 119 -257 260c-3 141 117 263 252 260c67 0 123 -20 167 -59s71 -89 81 -151l-471 -136c17 -48 47 -87 89 -117s88 -45 139 -45c76 0 145 30 200 82zM93 250c0 -26 4 -51 12 -75l460 134c-21 112 -109 189 -233 189
c-127 3 -242 -115 -239 -248zM339 710l120 -145h-15l-114 135l-113 -135h-15l120 145h17z" />
    <glyph glyph-name="edieresis" unicode="&#xeb;" horiz-adv-x="659" 
d="M584 250v-12h-491c4 -127 120 -239 244 -236c76 0 145 30 200 82l9 -8c-55 -55 -129 -86 -209 -86c-137 -3 -261 119 -257 260c-3 141 117 263 252 260c155 0 252 -114 252 -260zM93 250h478c0 139 -92 248 -239 248c-127 3 -242 -115 -239 -248zM249 648
c0 -8 -6 -14 -13 -14c-8 0 -14 6 -14 14c0 7 6 13 14 13c7 0 13 -6 13 -13zM438 648c0 -8 -6 -14 -14 -14s-13 6 -13 14c0 7 5 13 13 13s14 -6 14 -13z" />
    <glyph glyph-name="edieresis.ss01" horiz-adv-x="659" 
d="M537 84l9 -8c-55 -55 -129 -86 -209 -86c-137 -3 -261 119 -257 260c-3 141 117 263 252 260c67 0 123 -20 167 -59s71 -89 81 -151l-471 -136c17 -48 47 -87 89 -117s88 -45 139 -45c76 0 145 30 200 82zM93 250c0 -26 4 -51 12 -75l460 134c-21 112 -109 189 -233 189
c-127 3 -242 -115 -239 -248zM249 648c0 -8 -6 -14 -13 -14c-8 0 -14 6 -14 14c0 7 6 13 14 13c7 0 13 -6 13 -13zM438 648c0 -8 -6 -14 -14 -14s-13 6 -13 14c0 7 5 13 13 13s14 -6 14 -13z" />
    <glyph glyph-name="egrave" unicode="&#xe8;" horiz-adv-x="659" 
d="M584 250v-12h-491c4 -127 120 -239 244 -236c76 0 145 30 200 82l9 -8c-55 -55 -129 -86 -209 -86c-137 -3 -261 119 -257 260c-3 141 117 263 252 260c155 0 252 -114 252 -260zM93 250h478c0 139 -92 248 -239 248c-127 3 -242 -115 -239 -248zM269 710l103 -145h-15
l-109 145h21z" />
    <glyph glyph-name="egrave.ss01" horiz-adv-x="659" 
d="M537 84l9 -8c-55 -55 -129 -86 -209 -86c-137 -3 -261 119 -257 260c-3 141 117 263 252 260c67 0 123 -20 167 -59s71 -89 81 -151l-471 -136c17 -48 47 -87 89 -117s88 -45 139 -45c76 0 145 30 200 82zM93 250c0 -26 4 -51 12 -75l460 134c-21 112 -109 189 -233 189
c-127 3 -242 -115 -239 -248zM269 710l103 -145h-15l-109 145h21z" />
    <glyph glyph-name="eogonek" unicode="&#x119;" horiz-adv-x="659" 
d="M584 250v-12h-491c4 -127 120 -239 244 -236c76 0 145 30 200 82l9 -8c-22 -21 -46 -39 -71 -52l-51 -62c-21 -27 -32 -53 -32 -79c0 -44 37 -75 84 -75c26 0 49 9 70 28l9 -10c-23 -21 -49 -31 -79 -31c-55 0 -98 36 -98 88c0 30 12 59 35 87l34 41
c-34 -14 -71 -21 -110 -21c-137 -3 -261 119 -257 260c-3 141 117 263 252 260c155 0 252 -114 252 -260zM93 250h478c0 139 -92 248 -239 248c-127 3 -242 -115 -239 -248z" />
    <glyph glyph-name="eogonek.ss01" horiz-adv-x="659" 
d="M546 -164l9 -10c-23 -21 -49 -31 -79 -31c-55 0 -98 36 -98 88c0 30 12 59 35 87l34 41c-34 -14 -71 -21 -110 -21c-137 -3 -261 119 -257 260c-3 141 117 263 252 260c67 0 123 -20 167 -59s71 -89 81 -151l-471 -136c17 -48 47 -87 89 -117s88 -45 139 -45
c76 0 145 30 200 82l9 -8c-22 -21 -46 -39 -71 -52l-51 -62c-21 -27 -32 -53 -32 -79c0 -44 37 -75 84 -75c26 0 49 9 70 28zM93 250c0 -26 4 -51 12 -75l460 134c-21 112 -109 189 -233 189c-127 3 -242 -115 -239 -248z" />
    <glyph glyph-name="f" unicode="f" horiz-adv-x="394" 
d="M140 547v-47h191v-12h-191v-488h-13v488h-97v12h97v47c0 104 61 163 154 163c27 0 50 -3 68 -10l-4 -12c-17 7 -39 10 -64 10c-87 0 -141 -54 -141 -151z" />
    <glyph glyph-name="g" unicode="g" horiz-adv-x="668" 
d="M545 500h13v-438c0 -173 -97 -267 -248 -267c-73 0 -139 24 -198 71l8 9c56 -45 119 -68 190 -68c143 0 235 90 235 255v17c-48 -53 -119 -89 -200 -89c-143 -3 -268 119 -265 260c-3 141 122 263 265 260c81 0 152 -36 200 -89v79zM545 98v304c-53 63 -123 96 -200 96
c-135 3 -255 -115 -252 -248c-3 -133 117 -251 252 -248c77 0 147 33 200 96z" />
    <glyph glyph-name="g.ss01" horiz-adv-x="668" 
d="M613 -94c0 -44 -25 -79 -76 -105c-50 -26 -118 -39 -203 -39c-171 0 -279 56 -279 143c0 55 42 98 115 123c-43 16 -66 43 -66 72c0 31 24 63 63 86c-53 33 -85 84 -85 143c0 105 100 181 238 181c31 0 59 -3 83 -10h190v-12h-153c73 -31 118 -89 118 -160
c0 -104 -100 -181 -238 -181c-53 0 -99 11 -140 32c-39 -20 -63 -51 -63 -79s27 -51 74 -66c42 11 90 17 145 17c169 0 277 -56 277 -145zM320 159c130 0 225 72 225 170c0 96 -95 169 -225 169s-225 -73 -225 -169c0 -98 95 -170 225 -170zM600 -94c0 83 -101 133 -264 133
c-164 0 -268 -53 -268 -134s102 -131 266 -131c163 0 266 51 266 132z" />
    <glyph glyph-name="gbreve" unicode="&#x11f;" horiz-adv-x="668" 
d="M545 500h13v-438c0 -173 -97 -267 -248 -267c-73 0 -139 24 -198 71l8 9c56 -45 119 -68 190 -68c143 0 235 90 235 255v17c-48 -53 -119 -89 -200 -89c-143 -3 -268 119 -265 260c-3 141 122 263 265 260c81 0 152 -36 200 -89v79zM545 98v304c-53 63 -123 96 -200 96
c-135 3 -255 -115 -252 -248c-3 -133 117 -251 252 -248c77 0 147 33 200 96zM345 576c-85 0 -143 48 -148 127l14 1c5 -72 57 -115 134 -115s128 43 133 115l14 -1c-5 -79 -63 -127 -147 -127z" />
    <glyph glyph-name="gbreve.ss01" horiz-adv-x="668" 
d="M613 -94c0 -44 -25 -79 -76 -105c-50 -26 -118 -39 -203 -39c-171 0 -279 56 -279 143c0 55 42 98 115 123c-43 16 -66 43 -66 72c0 31 24 63 63 86c-53 33 -85 84 -85 143c0 105 100 181 238 181c31 0 59 -3 83 -10h190v-12h-153c73 -31 118 -89 118 -160
c0 -104 -100 -181 -238 -181c-53 0 -99 11 -140 32c-39 -20 -63 -51 -63 -79s27 -51 74 -66c42 11 90 17 145 17c169 0 277 -56 277 -145zM320 159c130 0 225 72 225 170c0 96 -95 169 -225 169s-225 -73 -225 -169c0 -98 95 -170 225 -170zM600 -94c0 83 -101 133 -264 133
c-164 0 -268 -53 -268 -134s102 -131 266 -131c163 0 266 51 266 132zM327 576c-85 0 -143 48 -148 127l14 1c5 -72 57 -115 134 -115s128 43 133 115l14 -1c-5 -79 -63 -127 -147 -127z" />
    <glyph glyph-name="gcircumflex" unicode="&#x11d;" horiz-adv-x="668" 
d="M545 500h13v-438c0 -173 -97 -267 -248 -267c-73 0 -139 24 -198 71l8 9c56 -45 119 -68 190 -68c143 0 235 90 235 255v17c-48 -53 -119 -89 -200 -89c-143 -3 -268 119 -265 260c-3 141 122 263 265 260c81 0 152 -36 200 -89v79zM545 98v304c-53 63 -123 96 -200 96
c-135 3 -255 -115 -252 -248c-3 -133 117 -251 252 -248c77 0 147 33 200 96zM353 710l120 -145h-15l-114 135l-113 -135h-15l120 145h17z" />
    <glyph glyph-name="gcircumflex.ss01" horiz-adv-x="668" 
d="M613 -94c0 -44 -25 -79 -76 -105c-50 -26 -118 -39 -203 -39c-171 0 -279 56 -279 143c0 55 42 98 115 123c-43 16 -66 43 -66 72c0 31 24 63 63 86c-53 33 -85 84 -85 143c0 105 100 181 238 181c31 0 59 -3 83 -10h190v-12h-153c73 -31 118 -89 118 -160
c0 -104 -100 -181 -238 -181c-53 0 -99 11 -140 32c-39 -20 -63 -51 -63 -79s27 -51 74 -66c42 11 90 17 145 17c169 0 277 -56 277 -145zM320 159c130 0 225 72 225 170c0 96 -95 169 -225 169s-225 -73 -225 -169c0 -98 95 -170 225 -170zM600 -94c0 83 -101 133 -264 133
c-164 0 -268 -53 -268 -134s102 -131 266 -131c163 0 266 51 266 132zM335 710l120 -145h-15l-114 135l-113 -135h-15l120 145h17z" />
    <glyph glyph-name="uni0123" unicode="&#x123;" horiz-adv-x="668" 
d="M545 500h13v-438c0 -173 -97 -267 -248 -267c-73 0 -139 24 -198 71l8 9c56 -45 119 -68 190 -68c143 0 235 90 235 255v17c-48 -53 -119 -89 -200 -89c-143 -3 -268 119 -265 260c-3 141 122 263 265 260c81 0 152 -36 200 -89v79zM545 98v304c-53 63 -123 96 -200 96
c-135 3 -255 -115 -252 -248c-3 -133 117 -251 252 -248c77 0 147 33 200 96zM323 610c0 3 1 7 3 12l40 95l9 -4l-31 -89c6 -3 9 -7 9 -14c0 -9 -6 -15 -15 -15s-15 6 -15 15z" />
    <glyph glyph-name="uni0123.ss01" horiz-adv-x="668" 
d="M613 -94c0 -44 -25 -79 -76 -105c-50 -26 -118 -39 -203 -39c-171 0 -279 56 -279 143c0 55 42 98 115 123c-43 16 -66 43 -66 72c0 31 24 63 63 86c-53 33 -85 84 -85 143c0 105 100 181 238 181c31 0 59 -3 83 -10h190v-12h-153c73 -31 118 -89 118 -160
c0 -104 -100 -181 -238 -181c-53 0 -99 11 -140 32c-39 -20 -63 -51 -63 -79s27 -51 74 -66c42 11 90 17 145 17c169 0 277 -56 277 -145zM320 159c130 0 225 72 225 170c0 96 -95 169 -225 169s-225 -73 -225 -169c0 -98 95 -170 225 -170zM600 -94c0 83 -101 133 -264 133
c-164 0 -268 -53 -268 -134s102 -131 266 -131c163 0 266 51 266 132zM305 610c0 3 1 7 3 12l40 95l9 -4l-31 -89c6 -3 9 -7 9 -14c0 -9 -6 -15 -15 -15s-15 6 -15 15z" />
    <glyph glyph-name="gdotaccent" unicode="&#x121;" horiz-adv-x="668" 
d="M545 500h13v-438c0 -173 -97 -267 -248 -267c-73 0 -139 24 -198 71l8 9c56 -45 119 -68 190 -68c143 0 235 90 235 255v17c-48 -53 -119 -89 -200 -89c-143 -3 -268 119 -265 260c-3 141 122 263 265 260c81 0 152 -36 200 -89v79zM545 98v304c-53 63 -123 96 -200 96
c-135 3 -255 -115 -252 -248c-3 -133 117 -251 252 -248c77 0 147 33 200 96zM358 648c0 -8 -6 -14 -13 -14c-8 0 -14 6 -14 14c0 7 6 13 14 13c7 0 13 -6 13 -13z" />
    <glyph glyph-name="gdotaccent.ss01" horiz-adv-x="668" 
d="M613 -94c0 -44 -25 -79 -76 -105c-50 -26 -118 -39 -203 -39c-171 0 -279 56 -279 143c0 55 42 98 115 123c-43 16 -66 43 -66 72c0 31 24 63 63 86c-53 33 -85 84 -85 143c0 105 100 181 238 181c31 0 59 -3 83 -10h190v-12h-153c73 -31 118 -89 118 -160
c0 -104 -100 -181 -238 -181c-53 0 -99 11 -140 32c-39 -20 -63 -51 -63 -79s27 -51 74 -66c42 11 90 17 145 17c169 0 277 -56 277 -145zM320 159c130 0 225 72 225 170c0 96 -95 169 -225 169s-225 -73 -225 -169c0 -98 95 -170 225 -170zM600 -94c0 83 -101 133 -264 133
c-164 0 -268 -53 -268 -134s102 -131 266 -131c163 0 266 51 266 132zM340 648c0 -8 -6 -14 -13 -14c-8 0 -14 6 -14 14c0 7 6 13 14 13c7 0 13 -6 13 -13z" />
    <glyph glyph-name="h" unicode="h" horiz-adv-x="672" 
d="M572 308v-308h-13v308c0 120 -67 190 -186 190c-87 0 -182 -38 -250 -102v-396h-13v700h13v-287c73 63 163 97 250 97c125 0 199 -75 199 -202z" />
    <glyph glyph-name="hbar" unicode="&#x127;" horiz-adv-x="672" 
d="M572 308v-308h-13v308c0 120 -67 190 -186 190c-87 0 -182 -38 -250 -102v-396h-13v605h-86v12h86v83h13v-83h206v-12h-206v-192c73 63 163 97 250 97c125 0 199 -75 199 -202z" />
    <glyph glyph-name="hcircumflex" unicode="&#x125;" horiz-adv-x="672" 
d="M572 308v-308h-13v308c0 120 -67 190 -186 190c-87 0 -182 -38 -250 -102v-396h-13v700h13v-287c73 63 163 97 250 97c125 0 199 -75 199 -202zM128 910l120 -145h-15l-114 135l-113 -135h-15l120 145h17z" />
    <glyph glyph-name="i" unicode="i" horiz-adv-x="253" 
d="M140 647c0 -8 -6 -14 -14 -14s-14 6 -14 14s6 14 14 14s14 -6 14 -14zM133 500v-500h-13v500h13z" />
    <glyph glyph-name="dotlessi" unicode="&#x131;" horiz-adv-x="253" 
d="M133 500v-500h-13v500h13z" />
    <glyph glyph-name="iacute" unicode="&#xed;" horiz-adv-x="253" 
d="M133 500v-500h-13v500h13zM212 710l-109 -145h-15l103 145h21z" />
    <glyph glyph-name="icircumflex" unicode="&#xee;" horiz-adv-x="253" 
d="M133 500v-500h-13v500h13zM139 710l120 -145h-15l-114 135l-113 -135h-15l120 145h17z" />
    <glyph glyph-name="idieresis" unicode="&#xef;" horiz-adv-x="253" 
d="M133 500v-500h-13v500h13zM49 648c0 -8 -6 -14 -13 -14c-8 0 -14 6 -14 14c0 7 6 13 14 13c7 0 13 -6 13 -13zM238 648c0 -8 -6 -14 -14 -14s-13 6 -13 14c0 7 5 13 13 13s14 -6 14 -13z" />
    <glyph glyph-name="i.loclTRK" horiz-adv-x="253" 
d="M133 500v-500h-13v500h13zM144 648c0 -8 -6 -14 -13 -14c-8 0 -14 6 -14 14c0 7 6 13 14 13c7 0 13 -6 13 -13z" />
    <glyph glyph-name="igrave" unicode="&#xec;" horiz-adv-x="253" 
d="M133 500v-500h-13v500h13zM69 710l103 -145h-15l-109 145h21z" />
    <glyph glyph-name="ij" unicode="&#x133;" horiz-adv-x="515" 
d="M140 647c0 -8 -6 -14 -14 -14s-14 6 -14 14s6 14 14 14s14 -6 14 -14zM133 500v-500h-13v500h13zM405 647c0 -8 -6 -14 -14 -14s-14 6 -14 14s6 14 14 14s14 -6 14 -14zM398 500v-533c0 -103 -72 -172 -162 -172c-20 0 -38 3 -53 8l4 11c15 -5 31 -7 49 -7
c82 0 149 64 149 160v533h13z" />
    <glyph glyph-name="imacron" unicode="&#x12b;" horiz-adv-x="253" 
d="M133 500v-500h-13v500h13zM257 654v-12h-254v12h254z" />
    <glyph glyph-name="iogonek" unicode="&#x12f;" horiz-adv-x="253" 
d="M112 647c0 8 6 14 14 14s14 -6 14 -14s-6 -14 -14 -14s-14 6 -14 14zM226 -162l9 -10c-23 -21 -49 -31 -79 -31c-55 0 -98 36 -98 88c0 27 13 56 39 88l23 29v498h13v-500l-29 -36c-21 -26 -32 -52 -32 -79c0 -44 37 -75 84 -75c26 0 49 9 70 28z" />
    <glyph glyph-name="itilde" unicode="&#x129;" horiz-adv-x="253" 
d="M133 500v-500h-13v500h13zM49 700c24 0 47 -11 86 -39c35 -25 56 -36 77 -36c35 0 61 26 68 70l14 -2c-9 -49 -42 -82 -82 -82c-24 0 -48 11 -85 39c-35 25 -57 36 -78 36c-35 0 -61 -26 -68 -70l-14 2c9 49 42 82 82 82z" />
    <glyph glyph-name="j" unicode="j" horiz-adv-x="262" 
d="M152 647c0 -8 -6 -14 -14 -14s-14 6 -14 14s6 14 14 14s14 -6 14 -14zM145 500v-533c0 -103 -72 -172 -162 -172c-20 0 -38 3 -53 8l4 11c15 -5 31 -7 49 -7c82 0 149 64 149 160v533h13z" />
    <glyph glyph-name="uni0237" unicode="&#x237;" horiz-adv-x="262" 
d="M145 500v-533c0 -103 -72 -172 -162 -172c-20 0 -38 3 -53 8l4 11c15 -5 31 -7 49 -7c82 0 149 64 149 160v533h13z" />
    <glyph glyph-name="jcircumflex" unicode="&#x135;" horiz-adv-x="262" 
d="M145 500v-533c0 -103 -72 -172 -162 -172c-20 0 -38 3 -53 8l4 11c15 -5 31 -7 49 -7c82 0 149 64 149 160v533h13zM137 710l120 -145h-15l-114 135l-113 -135h-15l120 145h17z" />
    <glyph glyph-name="k" unicode="k" horiz-adv-x="581" 
d="M552 0h-15l-216 310l-198 -178v-132h-13v700h13v-551l390 351h19l-202 -182z" />
    <glyph glyph-name="uni0137" unicode="&#x137;" horiz-adv-x="581" 
d="M552 0h-15l-216 310l-198 -178v-132h-13v700h13v-551l390 351h19l-202 -182zM316 -98c0 -3 -1 -7 -3 -12l-40 -95l-9 4l31 89c-6 3 -9 7 -9 14c0 9 6 15 15 15s15 -6 15 -15z" />
    <glyph glyph-name="l" unicode="l" horiz-adv-x="233" 
d="M123 700v-700h-13v700h13z" />
    <glyph glyph-name="l.ss04" horiz-adv-x="294" 
d="M110 81v619h13v-619c0 -49 25 -79 70 -79c20 0 42 7 58 18l5 -11c-19 -13 -40 -19 -63 -19c-55 0 -83 32 -83 91z" />
    <glyph glyph-name="lacute" unicode="&#x13a;" horiz-adv-x="233" 
d="M123 700v-700h-13v700h13zM199 910l-109 -145h-15l103 145h21z" />
    <glyph glyph-name="lacute.ss04" horiz-adv-x="294" 
d="M110 81v619h13v-619c0 -49 25 -79 70 -79c20 0 42 7 58 18l5 -11c-19 -13 -40 -19 -63 -19c-55 0 -83 32 -83 91zM199 910l-109 -145h-15l103 145h21z" />
    <glyph glyph-name="lcaron" unicode="&#x13e;" horiz-adv-x="295" 
d="M123 700v-700h-13v700h13zM301 703c0 -4 -1 -9 -4 -15l-39 -93l-9 4l31 89c-6 2 -9 7 -9 14c0 9 6 15 15 15s15 -6 15 -14z" />
    <glyph glyph-name="lcaron.ss04" horiz-adv-x="294" 
d="M110 81v619h13v-619c0 -49 25 -79 70 -79c20 0 42 7 58 18l5 -11c-19 -13 -40 -19 -63 -19c-55 0 -83 32 -83 91zM301 703c0 -4 -1 -9 -4 -15l-39 -93l-9 4l31 89c-6 2 -9 7 -9 14c0 9 6 15 15 15s15 -6 15 -14z" />
    <glyph glyph-name="uni013C" unicode="&#x13c;" horiz-adv-x="233" 
d="M123 700v-700h-13v700h13zM143 -98c0 -3 -1 -7 -3 -12l-40 -95l-9 4l31 89c-6 3 -9 7 -9 14c0 9 6 15 15 15s15 -6 15 -15z" />
    <glyph glyph-name="uni013C.ss04" horiz-adv-x="294" 
d="M110 81v619h13v-619c0 -49 25 -79 70 -79c20 0 42 7 58 18l5 -11c-19 -13 -40 -19 -63 -19c-55 0 -83 32 -83 91zM201 -98c0 -3 -1 -7 -3 -12l-40 -95l-9 4l31 89c-6 3 -9 7 -9 14c0 9 6 15 15 15s15 -6 15 -15z" />
    <glyph glyph-name="ldot" unicode="&#x140;" horiz-adv-x="323" 
d="M123 700v-700h-13v700h13zM303 365c0 -9 -6 -15 -15 -15s-15 6 -15 15s6 15 15 15s15 -6 15 -15z" />
    <glyph glyph-name="ldot.ss04" horiz-adv-x="294" 
d="M110 81v619h13v-619c0 -49 25 -79 70 -79c20 0 42 7 58 18l5 -11c-19 -13 -40 -19 -63 -19c-55 0 -83 32 -83 91zM303 365c0 -9 -6 -15 -15 -15s-15 6 -15 15s6 15 15 15s15 -6 15 -15z" />
    <glyph glyph-name="lslash" unicode="&#x142;" horiz-adv-x="233" 
d="M245 475v-17l-122 -99v-359h-13v349l-123 -100v17l123 100v334h13v-324z" />
    <glyph glyph-name="lslash.ss04" horiz-adv-x="294" 
d="M251 20l5 -11c-19 -13 -40 -19 -63 -19c-55 0 -83 32 -83 91v268l-123 -100v17l123 100v334h13v-324l122 99v-17l-122 -99v-278c0 -49 25 -79 70 -79c20 0 42 7 58 18z" />
    <glyph glyph-name="m" unicode="m" horiz-adv-x="1051" 
d="M516 413c71 63 159 97 251 97c112 0 184 -74 184 -202v-308h-13v308c0 121 -67 190 -171 190c-91 0 -177 -34 -246 -97c11 -26 16 -57 16 -93v-308h-13v308c0 121 -67 190 -171 190c-84 0 -146 -27 -230 -99v-399h-13v500h13v-84c81 68 146 94 230 94
c76 0 134 -34 163 -97z" />
    <glyph glyph-name="n" unicode="n" horiz-adv-x="672" 
d="M572 308v-308h-13v308c0 120 -67 190 -186 190c-87 0 -182 -38 -250 -102v-396h-13v500h13v-87c73 63 163 97 250 97c125 0 199 -75 199 -202z" />
    <glyph glyph-name="nacute" unicode="&#x144;" horiz-adv-x="672" 
d="M572 308v-308h-13v308c0 120 -67 190 -186 190c-87 0 -182 -38 -250 -102v-396h-13v500h13v-87c73 63 163 97 250 97c125 0 199 -75 199 -202zM423 710l-109 -145h-15l103 145h21z" />
    <glyph glyph-name="ncaron" unicode="&#x148;" horiz-adv-x="672" 
d="M572 308v-308h-13v308c0 120 -67 190 -186 190c-87 0 -182 -38 -250 -102v-396h-13v500h13v-87c73 63 163 97 250 97c125 0 199 -75 199 -202zM470 710l-120 -145h-17l-120 145h15l113 -135l114 135h15z" />
    <glyph glyph-name="uni0146" unicode="&#x146;" horiz-adv-x="672" 
d="M572 308v-308h-13v308c0 120 -67 190 -186 190c-87 0 -182 -38 -250 -102v-396h-13v500h13v-87c73 63 163 97 250 97c125 0 199 -75 199 -202zM367 -98c0 -3 -1 -7 -3 -12l-40 -95l-9 4l31 89c-6 3 -9 7 -9 14c0 9 6 15 15 15s15 -6 15 -15z" />
    <glyph glyph-name="eng" unicode="&#x14b;" horiz-adv-x="672" 
d="M572 308v-341c0 -103 -72 -172 -162 -172c-20 0 -38 3 -53 8l4 11c15 -5 31 -7 49 -7c82 0 149 64 149 160v341c0 121 -69 190 -177 190c-97 0 -190 -37 -259 -102v-396h-13v500h13v-88c73 63 164 98 259 98c116 0 190 -74 190 -202z" />
    <glyph glyph-name="ntilde" unicode="&#xf1;" horiz-adv-x="672" 
d="M572 308v-308h-13v308c0 120 -67 190 -186 190c-87 0 -182 -38 -250 -102v-396h-13v500h13v-87c73 63 163 97 250 97c125 0 199 -75 199 -202zM260 700c24 0 47 -11 86 -39c35 -25 56 -36 77 -36c35 0 61 26 68 70l14 -2c-9 -49 -42 -82 -82 -82c-24 0 -48 11 -85 39
c-35 25 -57 36 -78 36c-35 0 -61 -26 -68 -70l-14 2c9 49 42 82 82 82z" />
    <glyph glyph-name="o" unicode="o" horiz-adv-x="690" 
d="M610 250c3 -141 -122 -263 -265 -260c-143 -3 -268 119 -265 260c-3 141 122 263 265 260c143 3 268 -119 265 -260zM93 250c-3 -133 117 -251 252 -248c135 -3 255 115 252 248c3 133 -117 251 -252 248c-135 3 -255 -115 -252 -248z" />
    <glyph glyph-name="oacute" unicode="&#xf3;" horiz-adv-x="690" 
d="M610 250c3 -141 -122 -263 -265 -260c-143 -3 -268 119 -265 260c-3 141 122 263 265 260c143 3 268 -119 265 -260zM93 250c-3 -133 117 -251 252 -248c135 -3 255 115 252 248c3 133 -117 251 -252 248c-135 3 -255 -115 -252 -248zM427 710l-109 -145h-15l103 145h21z
" />
    <glyph glyph-name="ocircumflex" unicode="&#xf4;" horiz-adv-x="690" 
d="M610 250c3 -141 -122 -263 -265 -260c-143 -3 -268 119 -265 260c-3 141 122 263 265 260c143 3 268 -119 265 -260zM93 250c-3 -133 117 -251 252 -248c135 -3 255 115 252 248c3 133 -117 251 -252 248c-135 3 -255 -115 -252 -248zM354 710l120 -145h-15l-114 135
l-113 -135h-15l120 145h17z" />
    <glyph glyph-name="odieresis" unicode="&#xf6;" horiz-adv-x="690" 
d="M610 250c3 -141 -122 -263 -265 -260c-143 -3 -268 119 -265 260c-3 141 122 263 265 260c143 3 268 -119 265 -260zM93 250c-3 -133 117 -251 252 -248c135 -3 255 115 252 248c3 133 -117 251 -252 248c-135 3 -255 -115 -252 -248zM264 648c0 -8 -6 -14 -13 -14
c-8 0 -14 6 -14 14c0 7 6 13 14 13c7 0 13 -6 13 -13zM453 648c0 -8 -6 -14 -14 -14s-13 6 -13 14c0 7 5 13 13 13s14 -6 14 -13z" />
    <glyph glyph-name="ograve" unicode="&#xf2;" horiz-adv-x="690" 
d="M610 250c3 -141 -122 -263 -265 -260c-143 -3 -268 119 -265 260c-3 141 122 263 265 260c143 3 268 -119 265 -260zM93 250c-3 -133 117 -251 252 -248c135 -3 255 115 252 248c3 133 -117 251 -252 248c-135 3 -255 -115 -252 -248zM284 710l103 -145h-15l-109 145h21z
" />
    <glyph glyph-name="ohungarumlaut" unicode="&#x151;" horiz-adv-x="690" 
d="M610 250c3 -141 -122 -263 -265 -260c-143 -3 -268 119 -265 260c-3 141 122 263 265 260c143 3 268 -119 265 -260zM93 250c-3 -133 117 -251 252 -248c135 -3 255 115 252 248c3 133 -117 251 -252 248c-135 3 -255 -115 -252 -248zM376 710l-109 -145h-15l103 145h21z
M532 710l-109 -145h-14l103 145h20z" />
    <glyph glyph-name="omacron" unicode="&#x14d;" horiz-adv-x="690" 
d="M610 250c3 -141 -122 -263 -265 -260c-143 -3 -268 119 -265 260c-3 141 122 263 265 260c143 3 268 -119 265 -260zM93 250c-3 -133 117 -251 252 -248c135 -3 255 115 252 248c3 133 -117 251 -252 248c-135 3 -255 -115 -252 -248zM472 654v-12h-254v12h254z" />
    <glyph glyph-name="oslash" unicode="&#xf8;" horiz-adv-x="690" 
d="M610 250c3 -141 -122 -263 -265 -260c-35 0 -71 7 -106 21l-29 -61h-16l32 67c-88 44 -146 133 -146 233c-3 141 122 263 265 260c36 0 71 -7 106 -22l29 62h16l-32 -68c88 -43 146 -132 146 -232zM231 29l214 448c-31 14 -64 21 -100 21c-135 3 -255 -115 -252 -248
c0 -95 55 -180 138 -221zM597 250c0 95 -55 180 -139 221l-213 -448c31 -14 64 -21 100 -21c135 -3 255 115 252 248z" />
    <glyph glyph-name="otilde" unicode="&#xf5;" horiz-adv-x="690" 
d="M610 250c3 -141 -122 -263 -265 -260c-143 -3 -268 119 -265 260c-3 141 122 263 265 260c143 3 268 -119 265 -260zM93 250c-3 -133 117 -251 252 -248c135 -3 255 115 252 248c3 133 -117 251 -252 248c-135 3 -255 -115 -252 -248zM264 700c24 0 47 -11 86 -39
c35 -25 56 -36 77 -36c35 0 61 26 68 70l14 -2c-9 -49 -42 -82 -82 -82c-24 0 -48 11 -85 39c-35 25 -57 36 -78 36c-35 0 -61 -26 -68 -70l-14 2c9 49 42 82 82 82z" />
    <glyph glyph-name="oe" unicode="&#x153;" horiz-adv-x="1176" 
d="M1101 250v-12h-491c4 -127 120 -239 244 -236c76 0 145 30 200 82l9 -8c-55 -55 -129 -86 -209 -86c-120 0 -225 85 -251 202c-26 -116 -133 -202 -258 -202c-143 -3 -268 119 -265 260c-3 141 122 263 265 260c124 0 232 -85 258 -202c26 117 127 202 246 202
c155 0 252 -114 252 -260zM597 250c3 133 -117 251 -252 248c-135 3 -255 -115 -252 -248c-3 -133 117 -251 252 -248c135 -3 255 115 252 248zM610 250h478c0 139 -92 248 -239 248c-127 3 -242 -115 -239 -248z" />
    <glyph glyph-name="oe.ss01" horiz-adv-x="1176" 
d="M1054 84l9 -8c-55 -55 -129 -86 -209 -86c-120 0 -225 85 -251 202c-26 -116 -133 -202 -258 -202c-143 -3 -268 119 -265 260c-3 141 122 263 265 260c124 0 232 -85 258 -202c26 117 127 202 246 202c67 0 123 -20 167 -59s71 -89 81 -151l-471 -136
c17 -48 47 -87 89 -117s88 -45 139 -45c76 0 145 30 200 82zM597 250c3 133 -117 251 -252 248c-135 3 -255 -115 -252 -248c-3 -133 117 -251 252 -248c135 -3 255 115 252 248zM610 250c0 -26 4 -51 12 -75l460 134c-21 112 -109 189 -233 189c-127 3 -242 -115 -239 -248
z" />
    <glyph glyph-name="p" unicode="p" horiz-adv-x="673" 
d="M593 250c3 -141 -117 -263 -260 -260c-77 0 -157 34 -205 90v-275h-13v695h13v-78c51 53 125 88 205 88c143 3 263 -119 260 -260zM580 250c0 136 -110 248 -247 248c-72 0 -152 -31 -205 -96v-303c48 -60 126 -97 205 -97c137 0 247 112 247 248z" />
    <glyph glyph-name="thorn" unicode="&#xfe;" horiz-adv-x="673" 
d="M593 250c3 -141 -122 -263 -265 -260c-77 0 -152 33 -200 90v-275h-13v895h13v-278c51 55 120 88 200 88c143 3 268 -119 265 -260zM580 250c3 133 -117 251 -252 248c-71 0 -147 -29 -200 -96v-303c47 -61 121 -97 200 -97c135 -3 255 115 252 248z" />
    <glyph glyph-name="q" unicode="q" horiz-adv-x="668" 
d="M545 500h13v-695h-13v275c-48 -57 -123 -90 -200 -90c-143 -3 -268 119 -265 260c-3 141 122 263 265 260c80 0 149 -33 200 -88v78zM545 99v303c-53 67 -129 96 -200 96c-135 3 -255 -115 -252 -248c-3 -133 117 -251 252 -248c79 0 153 36 200 97z" />
    <glyph glyph-name="r" unicode="r" horiz-adv-x="420" 
d="M380 510v-12c-95 0 -184 -40 -257 -113v-385h-13v500h13v-98c72 69 162 108 257 108z" />
    <glyph glyph-name="racute" unicode="&#x155;" horiz-adv-x="420" 
d="M380 510v-12c-95 0 -184 -40 -257 -113v-385h-13v500h13v-98c72 69 162 108 257 108zM292 710l-109 -145h-15l103 145h21z" />
    <glyph glyph-name="rcaron" unicode="&#x159;" horiz-adv-x="420" 
d="M380 510v-12c-95 0 -184 -40 -257 -113v-385h-13v500h13v-98c72 69 162 108 257 108zM339 710l-120 -145h-17l-120 145h15l113 -135l114 135h15z" />
    <glyph glyph-name="uni0157" unicode="&#x157;" horiz-adv-x="420" 
d="M380 510v-12c-95 0 -184 -40 -257 -113v-385h-13v500h13v-98c72 69 162 108 257 108zM143 -98c0 -3 -1 -7 -3 -12l-40 -95l-9 4l31 89c-6 3 -9 7 -9 14c0 9 6 15 15 15s15 -6 15 -15z" />
    <glyph glyph-name="s" unicode="s" horiz-adv-x="534" 
d="M439 459l-7 -10c-47 31 -115 49 -180 49c-100 0 -160 -44 -160 -116c0 -55 33 -80 150 -110l71 -19c117 -30 146 -58 146 -135s-75 -128 -191 -128c-77 0 -161 23 -213 59l7 10c52 -35 130 -57 206 -57c111 0 178 44 178 116c0 70 -25 94 -137 123l-70 19
c-124 34 -160 61 -160 121c0 80 66 129 173 129c67 0 139 -20 187 -51z" />
    <glyph glyph-name="sacute" unicode="&#x15b;" horiz-adv-x="534" 
d="M439 459l-7 -10c-47 31 -115 49 -180 49c-100 0 -160 -44 -160 -116c0 -55 33 -80 150 -110l71 -19c117 -30 146 -58 146 -135s-75 -128 -191 -128c-77 0 -161 23 -213 59l7 10c52 -35 130 -57 206 -57c111 0 178 44 178 116c0 70 -25 94 -137 123l-70 19
c-124 34 -160 61 -160 121c0 80 66 129 173 129c67 0 139 -20 187 -51zM349 710l-109 -145h-15l103 145h21z" />
    <glyph glyph-name="scaron" unicode="&#x161;" horiz-adv-x="534" 
d="M439 459l-7 -10c-47 31 -115 49 -180 49c-100 0 -160 -44 -160 -116c0 -55 33 -80 150 -110l71 -19c117 -30 146 -58 146 -135s-75 -128 -191 -128c-77 0 -161 23 -213 59l7 10c52 -35 130 -57 206 -57c111 0 178 44 178 116c0 70 -25 94 -137 123l-70 19
c-124 34 -160 61 -160 121c0 80 66 129 173 129c67 0 139 -20 187 -51zM396 710l-120 -145h-17l-120 145h15l113 -135l114 135h15z" />
    <glyph glyph-name="scedilla" unicode="&#x15f;" horiz-adv-x="534" 
d="M270 -10l-22 -43c15 8 32 12 50 12c48 0 85 -32 85 -79c0 -49 -44 -85 -100 -85c-36 0 -67 7 -93 21l7 11c23 -13 52 -19 86 -19c49 0 86 31 86 72c0 39 -31 66 -71 66c-26 0 -47 -8 -64 -25l-10 9l30 60c-73 3 -151 26 -199 59l7 10c52 -35 130 -57 206 -57
c111 0 178 44 178 116c0 70 -25 94 -137 123l-70 19c-124 34 -160 61 -160 121c0 80 66 129 173 129c67 0 139 -20 187 -51l-7 -10c-47 31 -115 49 -180 49c-100 0 -160 -44 -160 -116c0 -55 33 -80 150 -110l71 -19c117 -30 146 -58 146 -135s-74 -128 -189 -128z" />
    <glyph glyph-name="scircumflex" unicode="&#x15d;" horiz-adv-x="534" 
d="M439 459l-7 -10c-47 31 -115 49 -180 49c-100 0 -160 -44 -160 -116c0 -55 33 -80 150 -110l71 -19c117 -30 146 -58 146 -135s-75 -128 -191 -128c-77 0 -161 23 -213 59l7 10c52 -35 130 -57 206 -57c111 0 178 44 178 116c0 70 -25 94 -137 123l-70 19
c-124 34 -160 61 -160 121c0 80 66 129 173 129c67 0 139 -20 187 -51zM276 710l120 -145h-15l-114 135l-113 -135h-15l120 145h17z" />
    <glyph glyph-name="uni0219" unicode="&#x219;" horiz-adv-x="534" 
d="M439 459l-7 -10c-47 31 -115 49 -180 49c-100 0 -160 -44 -160 -116c0 -55 33 -80 150 -110l71 -19c117 -30 146 -58 146 -135s-75 -128 -191 -128c-77 0 -161 23 -213 59l7 10c52 -35 130 -57 206 -57c111 0 178 44 178 116c0 70 -25 94 -137 123l-70 19
c-124 34 -160 61 -160 121c0 80 66 129 173 129c67 0 139 -20 187 -51zM293 -98c0 -3 -1 -7 -3 -12l-40 -95l-9 4l31 89c-6 3 -9 7 -9 14c0 9 6 15 15 15s15 -6 15 -15z" />
    <glyph glyph-name="germandbls" unicode="&#xdf;" horiz-adv-x="708" 
d="M110 0v510c0 120 85 200 224 200c113 0 191 -54 191 -134c0 -44 -26 -78 -95 -122c-60 -39 -78 -60 -78 -92c0 -40 32 -63 123 -87c121 -33 168 -71 168 -138c0 -89 -79 -147 -203 -147c-71 0 -133 18 -201 59l7 11c67 -39 126 -57 194 -57c117 0 190 51 190 132
c0 61 -43 95 -156 126c-100 27 -135 54 -135 101c0 41 27 66 86 103c53 35 87 66 87 111c0 72 -73 121 -178 121c-131 0 -210 -74 -210 -187v-510h-14z" />
    <glyph glyph-name="t" unicode="t" horiz-adv-x="430" 
d="M374 21l6 -11c-27 -13 -54 -20 -81 -20c-92 0 -163 69 -163 173v325h-106v12h106v158h13v-158h182v-12h-182v-325c0 -97 66 -161 150 -161c25 0 50 6 75 19z" />
    <glyph glyph-name="tbar" unicode="&#x167;" horiz-adv-x="430" 
d="M374 21l6 -11c-27 -13 -54 -20 -81 -20c-92 0 -163 69 -163 173v101h-86v12h86v212h-106v12h106v158h13v-158h182v-12h-182v-212h155v-12h-155v-101c0 -97 66 -161 150 -161c25 0 50 6 75 19z" />
    <glyph glyph-name="tcaron" unicode="&#x165;" horiz-adv-x="449" 
d="M270 595l-9 4l31 89c-6 2 -9 7 -9 14c0 9 6 15 15 15s15 -6 15 -14c0 -4 -1 -9 -4 -15zM374 21l6 -11c-27 -13 -54 -20 -81 -20c-92 0 -163 69 -163 173v325h-106v12h106v158h13v-158h182v-12h-182v-325c0 -97 66 -161 150 -161c25 0 50 6 75 19z" />
    <glyph glyph-name="uni021B" unicode="&#x21b;" horiz-adv-x="430" 
d="M374 21l6 -11c-27 -13 -54 -20 -81 -20c-92 0 -163 69 -163 173v325h-106v12h106v158h13v-158h182v-12h-182v-325c0 -97 66 -161 150 -161c25 0 50 6 75 19zM302 -98c0 -3 -1 -7 -3 -12l-40 -95l-9 4l31 89c-6 3 -9 7 -9 14c0 9 6 15 15 15s15 -6 15 -15z" />
    <glyph glyph-name="u" unicode="u" horiz-adv-x="672" 
d="M549 500h13v-500h-13v87c-73 -63 -163 -97 -250 -97c-125 0 -199 75 -199 202v308h13v-308c0 -120 67 -190 186 -190c87 0 182 38 250 102v396z" />
    <glyph glyph-name="uacute" unicode="&#xfa;" horiz-adv-x="672" 
d="M549 500h13v-500h-13v87c-73 -63 -163 -97 -250 -97c-125 0 -199 75 -199 202v308h13v-308c0 -120 67 -190 186 -190c87 0 182 38 250 102v396zM413 710l-109 -145h-15l103 145h21z" />
    <glyph glyph-name="ubreve" unicode="&#x16d;" horiz-adv-x="672" 
d="M549 500h13v-500h-13v87c-73 -63 -163 -97 -250 -97c-125 0 -199 75 -199 202v308h13v-308c0 -120 67 -190 186 -190c87 0 182 38 250 102v396zM332 576c-85 0 -143 48 -148 127l14 1c5 -72 57 -115 134 -115s128 43 133 115l14 -1c-5 -79 -63 -127 -147 -127z" />
    <glyph glyph-name="ucircumflex" unicode="&#xfb;" horiz-adv-x="672" 
d="M549 500h13v-500h-13v87c-73 -63 -163 -97 -250 -97c-125 0 -199 75 -199 202v308h13v-308c0 -120 67 -190 186 -190c87 0 182 38 250 102v396zM340 710l120 -145h-15l-114 135l-113 -135h-15l120 145h17z" />
    <glyph glyph-name="udieresis" unicode="&#xfc;" horiz-adv-x="672" 
d="M549 500h13v-500h-13v87c-73 -63 -163 -97 -250 -97c-125 0 -199 75 -199 202v308h13v-308c0 -120 67 -190 186 -190c87 0 182 38 250 102v396zM250 648c0 -8 -6 -14 -13 -14c-8 0 -14 6 -14 14c0 7 6 13 14 13c7 0 13 -6 13 -13zM439 648c0 -8 -6 -14 -14 -14
s-13 6 -13 14c0 7 5 13 13 13s14 -6 14 -13z" />
    <glyph glyph-name="ugrave" unicode="&#xf9;" horiz-adv-x="672" 
d="M549 500h13v-500h-13v87c-73 -63 -163 -97 -250 -97c-125 0 -199 75 -199 202v308h13v-308c0 -120 67 -190 186 -190c87 0 182 38 250 102v396zM270 710l103 -145h-15l-109 145h21z" />
    <glyph glyph-name="uhungarumlaut" unicode="&#x171;" horiz-adv-x="672" 
d="M549 500h13v-500h-13v87c-73 -63 -163 -97 -250 -97c-125 0 -199 75 -199 202v308h13v-308c0 -120 67 -190 186 -190c87 0 182 38 250 102v396zM362 710l-109 -145h-15l103 145h21zM518 710l-109 -145h-14l103 145h20z" />
    <glyph glyph-name="umacron" unicode="&#x16b;" horiz-adv-x="672" 
d="M549 500h13v-500h-13v87c-73 -63 -163 -97 -250 -97c-125 0 -199 75 -199 202v308h13v-308c0 -120 67 -190 186 -190c87 0 182 38 250 102v396zM458 654v-12h-254v12h254z" />
    <glyph glyph-name="uogonek" unicode="&#x173;" horiz-adv-x="672" 
d="M655 -162l9 -10c-23 -21 -49 -31 -79 -31c-55 0 -98 36 -98 88c0 27 13 56 39 88l23 29v85c-73 -63 -163 -97 -250 -97c-125 0 -199 75 -199 202v308h13v-308c0 -120 67 -190 186 -190c87 0 182 38 250 102v396h13v-500l-29 -36c-21 -26 -32 -52 -32 -79
c0 -44 37 -75 84 -75c26 0 49 9 70 28z" />
    <glyph glyph-name="uring" unicode="&#x16f;" horiz-adv-x="672" 
d="M549 500h13v-500h-13v87c-73 -63 -163 -97 -250 -97c-125 0 -199 75 -199 202v308h13v-308c0 -120 67 -190 186 -190c87 0 182 38 250 102v396zM439 645c0 -29 -11 -53 -32 -74s-46 -31 -75 -31c-60 0 -108 46 -108 105s48 105 108 105c29 0 54 -10 75 -31s32 -45 32 -74
zM238 645c0 -51 42 -92 94 -92c51 0 93 41 93 92s-42 92 -93 92c-52 0 -94 -41 -94 -92z" />
    <glyph glyph-name="utilde" unicode="&#x169;" horiz-adv-x="672" 
d="M549 500h13v-500h-13v87c-73 -63 -163 -97 -250 -97c-125 0 -199 75 -199 202v308h13v-308c0 -120 67 -190 186 -190c87 0 182 38 250 102v396zM250 700c24 0 47 -11 86 -39c35 -25 56 -36 77 -36c35 0 61 26 68 70l14 -2c-9 -49 -42 -82 -82 -82c-24 0 -48 11 -85 39
c-35 25 -57 36 -78 36c-35 0 -61 -26 -68 -70l-14 2c9 49 42 82 82 82z" />
    <glyph glyph-name="v" unicode="v" horiz-adv-x="547" 
d="M503 500h14l-235 -500h-16l-236 500h14l230 -487z" />
    <glyph glyph-name="w" unicode="w" horiz-adv-x="814" 
d="M785 500l-190 -500h-18l-170 488l-169 -488h-18l-190 500h14l185 -487l169 487h19l169 -487l185 487h14z" />
    <glyph glyph-name="wacute" unicode="&#x1e83;" horiz-adv-x="814" 
d="M785 500l-190 -500h-18l-170 488l-169 -488h-18l-190 500h14l185 -487l169 487h19l169 -487l185 487h14zM489 710l-109 -145h-15l103 145h21z" />
    <glyph glyph-name="wcircumflex" unicode="&#x175;" horiz-adv-x="814" 
d="M785 500l-190 -500h-18l-170 488l-169 -488h-18l-190 500h14l185 -487l169 487h19l169 -487l185 487h14zM416 710l120 -145h-15l-114 135l-113 -135h-15l120 145h17z" />
    <glyph glyph-name="wdieresis" unicode="&#x1e85;" horiz-adv-x="814" 
d="M785 500l-190 -500h-18l-170 488l-169 -488h-18l-190 500h14l185 -487l169 487h19l169 -487l185 487h14zM326 648c0 -8 -6 -14 -13 -14c-8 0 -14 6 -14 14c0 7 6 13 14 13c7 0 13 -6 13 -13zM515 648c0 -8 -6 -14 -14 -14s-13 6 -13 14c0 7 5 13 13 13s14 -6 14 -13z" />
    <glyph glyph-name="wgrave" unicode="&#x1e81;" horiz-adv-x="814" 
d="M785 500l-190 -500h-18l-170 488l-169 -488h-18l-190 500h14l185 -487l169 487h19l169 -487l185 487h14zM346 710l103 -145h-15l-109 145h21z" />
    <glyph glyph-name="x" unicode="x" horiz-adv-x="522" 
d="M493 0h-17l-215 253l-214 -253h-17l222 264l-201 236h17l195 -229l193 229h17l-202 -239z" />
    <glyph glyph-name="y" unicode="y" horiz-adv-x="539" 
d="M510 500l-246 -554c-51 -113 -100 -151 -171 -151c-21 0 -42 4 -63 12l5 11c19 -7 38 -11 58 -11c65 0 111 36 159 144l15 33l-237 516h14l230 -500l222 500h14z" />
    <glyph glyph-name="yacute" unicode="&#xfd;" horiz-adv-x="539" 
d="M510 500l-246 -554c-51 -113 -100 -151 -171 -151c-21 0 -42 4 -63 12l5 11c19 -7 38 -11 58 -11c65 0 111 36 159 144l15 33l-237 516h14l230 -500l222 500h14zM352 710l-109 -145h-15l103 145h21z" />
    <glyph glyph-name="ycircumflex" unicode="&#x177;" horiz-adv-x="539" 
d="M510 500l-246 -554c-51 -113 -100 -151 -171 -151c-21 0 -42 4 -63 12l5 11c19 -7 38 -11 58 -11c65 0 111 36 159 144l15 33l-237 516h14l230 -500l222 500h14zM279 710l120 -145h-15l-114 135l-113 -135h-15l120 145h17z" />
    <glyph glyph-name="ydieresis" unicode="&#xff;" horiz-adv-x="539" 
d="M510 500l-246 -554c-51 -113 -100 -151 -171 -151c-21 0 -42 4 -63 12l5 11c19 -7 38 -11 58 -11c65 0 111 36 159 144l15 33l-237 516h14l230 -500l222 500h14zM189 648c0 -8 -6 -14 -13 -14c-8 0 -14 6 -14 14c0 7 6 13 14 13c7 0 13 -6 13 -13zM378 648
c0 -8 -6 -14 -14 -14s-13 6 -13 14c0 7 5 13 13 13s14 -6 14 -13z" />
    <glyph glyph-name="ygrave" unicode="&#x1ef3;" horiz-adv-x="539" 
d="M510 500l-246 -554c-51 -113 -100 -151 -171 -151c-21 0 -42 4 -63 12l5 11c19 -7 38 -11 58 -11c65 0 111 36 159 144l15 33l-237 516h14l230 -500l222 500h14zM209 710l103 -145h-15l-109 145h21z" />
    <glyph glyph-name="z" unicode="z" horiz-adv-x="538" 
d="M452 500v-15l-383 -473h395v-12h-409v15l383 473h-361v12h375z" />
    <glyph glyph-name="zacute" unicode="&#x17a;" horiz-adv-x="538" 
d="M452 500v-15l-383 -473h395v-12h-409v15l383 473h-361v12h375zM351 710l-109 -145h-15l103 145h21z" />
    <glyph glyph-name="zcaron" unicode="&#x17e;" horiz-adv-x="538" 
d="M452 500v-15l-383 -473h395v-12h-409v15l383 473h-361v12h375zM398 710l-120 -145h-17l-120 145h15l113 -135l114 135h15z" />
    <glyph glyph-name="zdotaccent" unicode="&#x17c;" horiz-adv-x="538" 
d="M452 500v-15l-383 -473h395v-12h-409v15l383 473h-361v12h375zM283 648c0 -8 -6 -14 -13 -14c-8 0 -14 6 -14 14c0 7 6 13 14 13c7 0 13 -6 13 -13z" />
    <glyph glyph-name="T_h" horiz-adv-x="1258" 
d="M1158 308v-308h-13v308c0 120 -67 190 -186 190c-87 0 -182 -38 -250 -102v-396h-13v687h-368v-687h-14v687h-264v13h659v-287c73 63 163 97 250 97c125 0 199 -75 199 -202z" />
    <glyph glyph-name="c_h" horiz-adv-x="1301" 
d="M1201 308v-308h-13v308c0 120 -67 190 -186 190c-87 0 -182 -38 -250 -102v-396h-13v693c-52 18 -112 27 -180 27c-111 0 -180 -51 -180 -135c0 -32 10 -59 29 -82c52 -13 96 -39 133 -78l-10 -8c-48 52 -113 81 -186 81c-135 3 -255 -115 -252 -248
c-3 -133 117 -251 252 -248c77 0 146 33 194 90l10 -8c-51 -59 -124 -94 -204 -94c-143 -3 -268 119 -265 260c-3 141 122 263 265 260c17 0 32 -1 45 -4c-16 23 -24 50 -24 79c0 91 76 147 193 147c70 0 134 -11 193 -32v-287c73 63 163 97 250 97c125 0 199 -75 199 -202z
" />
    <glyph glyph-name="c_t" horiz-adv-x="1054" 
d="M998 21l6 -11c-27 -13 -54 -20 -81 -20c-92 0 -163 69 -163 173v325h-106v12h106v69c0 97 -60 151 -201 151c-112 0 -187 -50 -187 -134c0 -27 12 -55 36 -84c51 -12 96 -38 133 -77l-10 -8c-48 52 -113 81 -186 81c-135 3 -255 -115 -252 -248
c-3 -133 117 -251 252 -248c77 0 146 33 194 90l10 -8c-51 -59 -124 -94 -204 -94c-143 -3 -268 119 -265 260c-3 141 122 263 265 260c17 0 31 -1 44 -4c-20 27 -30 54 -30 80c0 93 80 146 200 146c143 0 214 -54 214 -163v-69h182v-12h-182v-325c0 -97 66 -161 150 -161
c25 0 50 6 75 19z" />
    <glyph glyph-name="f_b" horiz-adv-x="1062" 
d="M982 250c3 -141 -122 -263 -265 -260c-81 0 -152 36 -200 89v-79h-13v688h-159c-17 7 -35 10 -54 10c-84 0 -151 -64 -151 -161v-37h191v-12h-191v-488h-13v488h-97v12h97v37c0 104 73 173 164 173c21 0 40 -3 58 -10h168v-279c48 53 119 89 200 89
c143 3 268 -119 265 -260zM969 250c3 133 -117 251 -252 248c-77 0 -147 -33 -200 -96v-304c53 -63 123 -96 200 -96c135 -3 255 115 252 248z" />
    <glyph glyph-name="f_f_j" horiz-adv-x="1050" 
d="M349 700l-4 -12c-17 7 -39 10 -64 10c-87 0 -141 -54 -141 -151v-47h381v47c0 104 61 163 154 163c27 0 50 -3 68 -10l-4 -12c-17 7 -39 10 -64 10c-87 0 -141 -54 -141 -151v-47h399v-533c0 -103 -72 -172 -162 -172c-20 0 -38 3 -53 8l4 11c15 -5 31 -7 49 -7
c82 0 149 64 149 160v521h-386v-488h-13v488h-381v-488h-13v488h-97v12h97v47c0 104 61 163 154 163c27 0 50 -3 68 -10zM940 647c0 -8 -6 -14 -14 -14s-14 6 -14 14s6 14 14 14s14 -6 14 -14z" />
    <glyph glyph-name="f_f_l.ss04" horiz-adv-x="1087" 
d="M1044 20l5 -11c-19 -13 -40 -19 -63 -19c-55 0 -83 32 -83 91v607h-164c-17 7 -39 10 -64 10c-87 0 -141 -54 -141 -151v-47h191v-12h-191v-488h-13v488h-381v-488h-13v488h-97v12h97v47c0 104 61 163 154 163c27 0 50 -3 68 -10l-4 -12c-17 7 -39 10 -64 10
c-87 0 -141 -54 -141 -151v-47h381v47c0 104 61 163 154 163c27 0 49 -3 66 -10h175v-619c0 -49 25 -79 70 -79c20 0 42 7 58 18z" />
    <glyph glyph-name="f_h" horiz-adv-x="1071" 
d="M347 700h175v-288c73 63 164 98 259 98c116 0 190 -74 190 -202v-308h-13v308c0 121 -69 190 -177 190c-97 0 -190 -37 -259 -102v-396h-13v688h-164c-17 7 -39 10 -64 10c-87 0 -141 -54 -141 -151v-47h191v-12h-191v-488h-13v488h-97v12h97v47c0 104 61 163 154 163
c27 0 49 -3 66 -10z" />
    <glyph glyph-name="f_j" horiz-adv-x="656" 
d="M349 700l-4 -12c-17 7 -39 10 -64 10c-87 0 -141 -54 -141 -151v-47h399v-533c0 -103 -72 -172 -162 -172c-20 0 -38 3 -53 8l4 11c15 -5 31 -7 49 -7c82 0 149 64 149 160v521h-386v-488h-13v488h-97v12h97v47c0 104 61 163 154 163c27 0 50 -3 68 -10zM546 647
c0 -8 -6 -14 -14 -14s-14 6 -14 14s6 14 14 14s14 -6 14 -14z" />
    <glyph glyph-name="f_k" horiz-adv-x="980" 
d="M347 700h175v-551l390 351h19l-202 -182l222 -318h-15l-216 310l-198 -178v-132h-13v688h-164c-17 7 -39 10 -64 10c-87 0 -141 -54 -141 -151v-47h191v-12h-191v-488h-13v488h-97v12h97v47c0 104 61 163 154 163c27 0 49 -3 66 -10z" />
    <glyph glyph-name="fl.ss04" horiz-adv-x="693" 
d="M650 20l5 -11c-19 -13 -40 -19 -63 -19c-55 0 -83 32 -83 91v607h-164c-17 7 -39 10 -64 10c-87 0 -141 -54 -141 -151v-47h191v-12h-191v-488h-13v488h-97v12h97v47c0 104 61 163 154 163c27 0 49 -3 66 -10h175v-619c0 -49 25 -79 70 -79c20 0 42 7 58 18z" />
    <glyph glyph-name="s_p" horiz-adv-x="1207" 
d="M1127 250c3 -141 -122 -263 -265 -260c-77 0 -152 33 -200 90v-275h-13v784c0 80 -71 130 -180 130s-180 -51 -180 -134c0 -30 9 -57 27 -81c48 -9 89 -24 123 -45l-7 -10c-47 31 -115 49 -180 49c-100 0 -160 -44 -160 -116c0 -55 33 -80 150 -110l71 -19
c117 -30 146 -58 146 -135s-75 -128 -191 -128c-77 0 -161 23 -213 59l7 10c52 -35 130 -57 206 -57c111 0 178 44 178 116c0 70 -25 94 -137 123l-70 19c-124 34 -160 61 -160 121c0 80 66 129 173 129c16 0 32 -1 48 -3c-16 23 -24 49 -24 78c0 91 76 147 193 147
s193 -55 193 -143v-167c51 55 120 88 200 88c143 3 268 -119 265 -260zM1114 250c3 133 -117 251 -252 248c-71 0 -147 -29 -200 -96v-303c47 -61 121 -97 200 -97c135 -3 255 115 252 248z" />
    <glyph glyph-name="s_t" horiz-adv-x="964" 
d="M908 21l6 -11c-27 -13 -54 -20 -81 -20c-92 0 -163 69 -163 173v325h-106v12h106v69c0 97 -60 151 -201 151c-112 0 -187 -50 -187 -134c0 -27 12 -55 35 -82c47 -9 88 -24 122 -45l-7 -10c-47 31 -115 49 -180 49c-100 0 -160 -44 -160 -116c0 -55 33 -80 150 -110
l71 -19c117 -30 146 -58 146 -135s-75 -128 -191 -128c-77 0 -161 23 -213 59l7 10c52 -35 130 -57 206 -57c111 0 178 44 178 116c0 70 -25 94 -137 123l-70 19c-124 34 -160 61 -160 121c0 80 66 129 173 129c15 0 31 -1 47 -3c-20 25 -30 51 -30 79c0 93 80 146 200 146
c143 0 214 -54 214 -163v-69h182v-12h-182v-325c0 -97 66 -161 150 -161c25 0 50 6 75 19z" />
    <glyph glyph-name="ordfeminine" unicode="&#xaa;" horiz-adv-x="401" 
d="M352 580v-217h-13v41c-47 -32 -102 -48 -166 -48c-72 0 -123 44 -123 111c0 65 51 100 138 100h151v13c0 77 -47 115 -124 115c-48 0 -93 -16 -134 -48l-7 9c41 33 88 50 141 50c84 0 137 -42 137 -126zM339 420v136h-151c-80 0 -125 -30 -125 -89
c0 -60 45 -100 110 -100c67 0 122 18 166 53z" />
    <glyph glyph-name="ordmasculine" unicode="&#xba;" horiz-adv-x="457" 
d="M407 531c0 -96 -81 -175 -178 -175c-99 0 -179 79 -179 175s80 175 179 175c97 0 178 -79 178 -175zM63 531c0 -90 76 -164 166 -164s166 74 166 164s-76 164 -166 164s-166 -74 -166 -164z" />
    <glyph glyph-name="pi" unicode="&#x3c0;" horiz-adv-x="739" 
d="M703 488h-122v-392c0 -63 24 -94 72 -94c15 0 28 2 40 7l4 -11c-14 -5 -29 -8 -44 -8c-57 0 -85 35 -85 106v392h-412v-488h-13v488h-111v12h671v-12z" />
    <glyph glyph-name="uni0621" unicode="&#x621;" horiz-adv-x="560" 
d="M320 13h140v-13h-360v13h148c-68 27 -113 89 -113 164c0 105 76 183 178 183c45 0 93 -13 124 -36l-8 -11c-29 21 -75 34 -116 34c-94 0 -165 -72 -165 -170c0 -93 75 -164 172 -164z" />
    <glyph glyph-name="uni0627" unicode="&#x627;" horiz-adv-x="313" 
d="M150 0v730h13v-730h-13z" />
    <glyph glyph-name="uni0627.short" horiz-adv-x="313" 
d="M150 0v580h13v-580h-13z" />
    <glyph glyph-name="uniFE8E.short" horiz-adv-x="384" 
d="M384 13h16v-11c0 -1 -5 -2 -16 -2h-1c-79 0 -158 22 -222 59c-9 5 -11 9 -11 17v504h13v-507c64 -37 144 -60 221 -60z" />
    <glyph glyph-name="uni0623" unicode="&#x623;" horiz-adv-x="313" 
d="M150 0v730h13v-730h-13zM178 887h64v-12h-170v12h62c-25 15 -41 40 -41 69c0 49 35 84 82 84c20 0 42 -7 57 -16l-6 -10c-13 8 -34 14 -51 14c-41 0 -70 -29 -70 -72c0 -39 32 -69 73 -69z" />
    <glyph glyph-name="uni0625" unicode="&#x625;" horiz-adv-x="313" 
d="M150 0v730h13v-730h-13zM178 -302h64v-12h-170v12h62c-25 15 -41 40 -41 69c0 49 35 84 82 84c20 0 42 -7 57 -16l-6 -10c-13 8 -34 14 -51 14c-41 0 -70 -29 -70 -72c0 -39 32 -69 73 -69z" />
    <glyph glyph-name="uni0622" unicode="&#x622;" horiz-adv-x="313" 
d="M150 0v730h13v-730h-13zM246 922l11 -3c-5 -29 -27 -47 -62 -46l-82 4c-27 1 -46 -17 -49 -38l-11 3c5 29 27 47 62 46l82 -4c27 -1 46 17 49 38z" />
    <glyph glyph-name="uni0671" unicode="&#x671;" horiz-adv-x="313" 
d="M150 0v730h13v-730h-13zM264 932v-48h-253v11h52c33 73 75 109 128 109c45 0 73 -29 73 -72zM75 895h177v36c0 37 -22 62 -62 62c-53 0 -87 -39 -115 -98z" />
    <glyph glyph-name="uni066E" unicode="&#x66e;" horiz-adv-x="1150" 
d="M95 213c0 40 6 89 18 147l13 -2c-12 -57 -18 -105 -18 -146c0 -133 79 -199 238 -199h411c109 0 195 13 260 38v419h13v-428c-65 -28 -157 -42 -276 -42h-405c-77 0 -138 15 -185 46c-46 31 -69 86 -69 167z" />
    <glyph glyph-name="uni0628" unicode="&#x628;" horiz-adv-x="1150" 
d="M95 213c0 40 6 89 18 147l13 -2c-12 -57 -18 -105 -18 -146c0 -133 79 -199 238 -199h411c109 0 195 13 260 38v419h13v-428c-65 -28 -157 -42 -276 -42h-405c-77 0 -138 15 -185 46c-46 31 -69 86 -69 167zM557 -172c0 13 9 22 22 22c12 0 21 -9 21 -22
c0 -12 -9 -22 -21 -22c-13 0 -22 10 -22 22z" />
    <glyph glyph-name="uni067E" unicode="&#x67e;" horiz-adv-x="1150" 
d="M95 213c0 40 6 89 18 147l13 -2c-12 -57 -18 -105 -18 -146c0 -133 79 -199 238 -199h411c109 0 195 13 260 38v419h13v-428c-65 -28 -157 -42 -276 -42h-405c-77 0 -138 15 -185 46c-46 31 -69 86 -69 167zM468 -172c0 13 9 22 22 22c12 0 21 -9 21 -22
c0 -12 -9 -22 -21 -22c-13 0 -22 10 -22 22zM647 -173c0 13 9 22 22 22c12 0 21 -9 21 -22c0 -12 -9 -22 -21 -22c-13 0 -22 10 -22 22zM558 -288c0 13 9 22 22 22c12 0 21 -9 21 -22c0 -12 -9 -22 -21 -22c-13 0 -22 10 -22 22z" />
    <glyph glyph-name="uni062A" unicode="&#x62a;" horiz-adv-x="1150" 
d="M95 213c0 40 6 89 18 147l13 -2c-12 -57 -18 -105 -18 -146c0 -133 79 -199 238 -199h411c109 0 195 13 260 38v419h13v-428c-65 -28 -157 -42 -276 -42h-405c-77 0 -138 15 -185 46c-46 31 -69 86 -69 167zM468 482c0 13 9 22 22 22c12 0 21 -9 21 -22
c0 -12 -9 -22 -21 -22c-13 0 -22 10 -22 22zM647 482c0 13 9 22 22 22c12 0 21 -9 21 -22c0 -12 -9 -22 -21 -22c-13 0 -22 10 -22 22z" />
    <glyph glyph-name="uni062B" unicode="&#x62b;" horiz-adv-x="1150" 
d="M95 213c0 40 6 89 18 147l13 -2c-12 -57 -18 -105 -18 -146c0 -133 79 -199 238 -199h411c109 0 195 13 260 38v419h13v-428c-65 -28 -157 -42 -276 -42h-405c-77 0 -138 15 -185 46c-46 31 -69 86 -69 167zM557 598c0 13 9 22 22 22c12 0 21 -9 21 -22
c0 -12 -9 -22 -21 -22c-13 0 -22 10 -22 22zM468 482c0 13 9 22 22 22c12 0 21 -9 21 -22c0 -12 -9 -22 -21 -22c-13 0 -22 10 -22 22zM647 482c0 13 9 22 22 22c12 0 21 -9 21 -22c0 -12 -9 -22 -21 -22c-13 0 -22 10 -22 22z" />
    <glyph glyph-name="uni0679" unicode="&#x679;" horiz-adv-x="1150" 
d="M95 213c0 40 6 89 18 147l13 -2c-12 -57 -18 -105 -18 -146c0 -133 79 -199 238 -199h411c109 0 195 13 260 38v419h13v-428c-65 -28 -157 -42 -276 -42h-405c-77 0 -138 15 -185 46c-46 31 -69 86 -69 167zM692 524v-54h-249v12h42v189h12v-142c33 40 77 71 124 71
c44 0 71 -32 71 -76zM497 482h183v41c0 37 -23 66 -60 66c-41 0 -82 -25 -123 -74v-33z" />
    <glyph glyph-name="uni062C" unicode="&#x62c;" horiz-adv-x="650" 
d="M570 13l-3 -13h-333c-111 0 -181 -62 -181 -159c0 -99 70 -162 181 -162h166v-13h-166c-119 0 -194 68 -194 175c0 105 75 172 194 172h312c-29 23 -52 51 -67 86s-29 80 -44 137c-13 50 -25 90 -37 119c-24 59 -70 102 -153 102c-45 0 -90 -17 -133 -50l-9 9
c37 31 87 54 142 54c45 0 80 -11 106 -32s45 -46 58 -77s26 -72 39 -124c29 -116 57 -185 122 -224zM265 -165c0 13 9 22 22 22c12 0 21 -9 21 -22c0 -12 -9 -22 -21 -22c-13 0 -22 10 -22 22z" />
    <glyph glyph-name="uni0686" unicode="&#x686;" horiz-adv-x="650" 
d="M570 13l-3 -13h-333c-111 0 -181 -62 -181 -159c0 -99 70 -162 181 -162h166v-13h-166c-119 0 -194 68 -194 175c0 105 75 172 194 172h312c-29 23 -52 51 -67 86s-29 80 -44 137c-13 50 -25 90 -37 119c-24 59 -70 102 -153 102c-45 0 -90 -17 -133 -50l-9 9
c37 31 87 54 142 54c45 0 80 -11 106 -32s45 -46 58 -77s26 -72 39 -124c29 -116 57 -185 122 -224zM232 -95c12 0 21 -9 21 -22c0 -12 -9 -22 -21 -22c-13 0 -22 10 -22 22c0 13 9 22 22 22zM383 -96c12 0 21 -9 21 -22c0 -12 -9 -22 -21 -22c-13 0 -22 10 -22 22
c0 13 9 22 22 22zM308 -197c12 0 21 -9 21 -22c0 -12 -9 -22 -21 -22c-13 0 -22 10 -22 22c0 13 9 22 22 22z" />
    <glyph glyph-name="uni062D" unicode="&#x62d;" horiz-adv-x="650" 
d="M570 13l-3 -13h-333c-111 0 -181 -62 -181 -159c0 -99 70 -162 181 -162h166v-13h-166c-119 0 -194 68 -194 175c0 105 75 172 194 172h312c-29 23 -52 51 -67 86s-29 80 -44 137c-13 50 -25 90 -37 119c-24 59 -70 102 -153 102c-45 0 -90 -17 -133 -50l-9 9
c37 31 87 54 142 54c45 0 80 -11 106 -32s45 -46 58 -77s26 -72 39 -124c29 -116 57 -185 122 -224z" />
    <glyph glyph-name="uni062E" unicode="&#x62e;" horiz-adv-x="650" 
d="M570 13l-3 -13h-333c-111 0 -181 -62 -181 -159c0 -99 70 -162 181 -162h166v-13h-166c-119 0 -194 68 -194 175c0 105 75 172 194 172h312c-29 23 -52 51 -67 86s-29 80 -44 137c-13 50 -25 90 -37 119c-24 59 -70 102 -153 102c-45 0 -90 -17 -133 -50l-9 9
c37 31 87 54 142 54c45 0 80 -11 106 -32s45 -46 58 -77s26 -72 39 -124c29 -116 57 -185 122 -224zM235 637c0 13 9 22 22 22c12 0 21 -9 21 -22c0 -12 -9 -22 -21 -22c-13 0 -22 10 -22 22z" />
    <glyph glyph-name="uni062F" unicode="&#x62f;" horiz-adv-x="590" 
d="M470 209v-209h-420v13h407v196c0 150 -53 198 -219 198h-72v13h72c177 0 232 -55 232 -211z" />
    <glyph glyph-name="uni0630" unicode="&#x630;" horiz-adv-x="590" 
d="M470 209v-209h-420v13h407v196c0 150 -53 198 -219 198h-72v13h72c177 0 232 -55 232 -211zM216 587c0 13 9 22 22 22c12 0 21 -9 21 -22c0 -12 -9 -22 -21 -22c-13 0 -22 10 -22 22z" />
    <glyph glyph-name="uni0688" unicode="&#x688;" horiz-adv-x="590" 
d="M470 209v-209h-420v13h407v196c0 150 -53 198 -219 198h-72v13h72c177 0 232 -55 232 -211zM351 629v-54h-249v12h42v189h12v-142c33 40 77 71 124 71c44 0 71 -32 71 -76zM156 587h183v41c0 37 -23 66 -60 66c-41 0 -82 -25 -123 -74v-33z" />
    <glyph glyph-name="uni0631" unicode="&#x631;" horiz-adv-x="329" 
d="M-90 -250l2 13c20 -2 38 -3 54 -3c151 0 220 82 220 254v456h13v-456c0 -180 -74 -267 -233 -267c-17 0 -36 1 -56 3z" />
    <glyph glyph-name="uni0632" unicode="&#x632;" horiz-adv-x="329" 
d="M-90 -250l2 13c20 -2 38 -3 54 -3c151 0 220 82 220 254v456h13v-456c0 -180 -74 -267 -233 -267c-17 0 -36 1 -56 3zM170 637c0 13 9 22 22 22c12 0 21 -9 21 -22c0 -12 -9 -22 -21 -22c-13 0 -22 10 -22 22z" />
    <glyph glyph-name="uni0691" unicode="&#x691;" horiz-adv-x="329" 
d="M-90 -250l2 13c20 -2 38 -3 54 -3c151 0 220 82 220 254v456h13v-456c0 -180 -74 -267 -233 -267c-17 0 -36 1 -56 3zM305 679v-54h-249v12h42v189h12v-142c33 40 77 71 124 71c44 0 71 -32 71 -76zM110 637h183v41c0 37 -23 66 -60 66c-41 0 -82 -25 -123 -74v-33z" />
    <glyph glyph-name="uni0698" unicode="&#x698;" horiz-adv-x="329" 
d="M-90 -250l2 13c20 -2 38 -3 54 -3c151 0 220 82 220 254v456h13v-456c0 -180 -74 -267 -233 -267c-17 0 -36 1 -56 3zM170 753c0 13 9 22 22 22c12 0 21 -9 21 -22c0 -12 -9 -22 -21 -22c-13 0 -22 10 -22 22zM81 637c0 13 9 22 22 22c12 0 21 -9 21 -22
c0 -12 -9 -22 -21 -22c-13 0 -22 10 -22 22zM260 637c0 13 9 22 22 22c12 0 21 -9 21 -22c0 -12 -9 -22 -21 -22c-13 0 -22 10 -22 22z" />
    <glyph glyph-name="uni0633" unicode="&#x633;" horiz-adv-x="1496" 
d="M1363 470h13v-406c-51 -45 -108 -68 -169 -68c-59 0 -113 21 -162 62c-51 -41 -105 -62 -163 -62c-55 0 -109 20 -156 57v-222c-87 -56 -188 -84 -301 -84c-216 0 -335 106 -335 282c0 45 7 103 18 138l12 -3c-11 -39 -17 -95 -17 -135c0 -168 113 -269 320 -269
c125 0 211 32 290 77v503h13v-270c45 -40 101 -61 156 -61s111 21 156 61v270h13v-270c45 -40 101 -61 156 -61s111 21 156 61v400z" />
    <glyph glyph-name="uni0634" unicode="&#x634;" horiz-adv-x="1496" 
d="M1363 470h13v-406c-51 -45 -108 -68 -169 -68c-59 0 -113 21 -162 62c-51 -41 -105 -62 -163 -62c-55 0 -109 20 -156 57v-222c-87 -56 -188 -84 -301 -84c-216 0 -335 106 -335 282c0 45 7 103 18 138l12 -3c-11 -39 -17 -95 -17 -135c0 -168 113 -269 320 -269
c125 0 211 32 290 77v503h13v-270c45 -40 101 -61 156 -61s111 21 156 61v270h13v-270c45 -40 101 -61 156 -61s111 21 156 61v400zM1022 623c0 13 9 22 22 22c12 0 21 -9 21 -22c0 -12 -9 -22 -21 -22c-13 0 -22 10 -22 22zM933 507c0 13 9 22 22 22c12 0 21 -9 21 -22
c0 -12 -9 -22 -21 -22c-13 0 -22 10 -22 22zM1112 507c0 13 9 22 22 22c12 0 21 -9 21 -22c0 -12 -9 -22 -21 -22c-13 0 -22 10 -22 22z" />
    <glyph glyph-name="uni0635" unicode="&#x635;" horiz-adv-x="1464" 
d="M1354 216v-216h-628v-169c-87 -56 -188 -84 -301 -84c-216 0 -335 106 -335 282c0 45 7 103 18 138l12 -3c-11 -39 -17 -95 -17 -135c0 -168 113 -269 320 -269c125 0 211 32 290 77v573h13v-196c125 168 256 256 397 256c147 0 231 -94 231 -254zM726 13h615v203
c0 153 -79 241 -218 241c-141 0 -268 -89 -397 -265v-179z" />
    <glyph glyph-name="uni0636" unicode="&#x636;" horiz-adv-x="1464" 
d="M1354 216v-216h-628v-169c-87 -56 -188 -84 -301 -84c-216 0 -335 106 -335 282c0 45 7 103 18 138l12 -3c-11 -39 -17 -95 -17 -135c0 -168 113 -269 320 -269c125 0 211 32 290 77v573h13v-196c125 168 256 256 397 256c147 0 231 -94 231 -254zM726 13h615v203
c0 153 -79 241 -218 241c-141 0 -268 -89 -397 -265v-179zM878 637c0 13 9 22 22 22c12 0 21 -9 21 -22c0 -12 -9 -22 -21 -22c-13 0 -22 10 -22 22z" />
    <glyph glyph-name="uni0637" unicode="&#x637;" horiz-adv-x="942" 
d="M832 216v-216h-792v13h150v687h13v-487c49 69 106 129 171 180c66 51 142 77 229 77c149 0 229 -98 229 -254zM203 13h616v203c0 159 -84 241 -216 241c-88 0 -164 -26 -228 -79c-64 -52 -121 -114 -172 -187v-178z" />
    <glyph glyph-name="uni0638" unicode="&#x638;" horiz-adv-x="942" 
d="M832 216v-216h-792v13h150v687h13v-487c49 69 106 129 171 180c66 51 142 77 229 77c149 0 229 -98 229 -254zM203 13h616v203c0 159 -84 241 -216 241c-88 0 -164 -26 -228 -79c-64 -52 -121 -114 -172 -187v-178zM431 637c0 13 9 22 22 22c12 0 21 -9 21 -22
c0 -12 -9 -22 -21 -22c-13 0 -22 10 -22 22z" />
    <glyph glyph-name="uni0639" unicode="&#x639;" horiz-adv-x="660" 
d="M184 232c0 -125 104 -219 241 -219h121v-13h-342c-111 0 -181 -62 -181 -158c0 -100 70 -163 181 -163h146v-13h-146c-119 0 -194 68 -194 176c0 104 75 171 194 171h141c-105 28 -174 111 -174 220c0 135 106 237 244 237c59 0 114 -17 165 -52l-7 -11
c-49 33 -102 50 -158 50c-132 0 -231 -97 -231 -225z" />
    <glyph glyph-name="uni063A" unicode="&#x63a;" horiz-adv-x="660" 
d="M184 232c0 -125 104 -219 241 -219h121v-13h-342c-111 0 -181 -62 -181 -158c0 -100 70 -163 181 -163h146v-13h-146c-119 0 -194 68 -194 176c0 104 75 171 194 171h141c-105 28 -174 111 -174 220c0 135 106 237 244 237c59 0 114 -17 165 -52l-7 -11
c-49 33 -102 50 -158 50c-132 0 -231 -97 -231 -225zM393 637c0 13 9 22 22 22c12 0 21 -9 21 -22c0 -12 -9 -22 -21 -22c-13 0 -22 10 -22 22z" />
    <glyph glyph-name="uni0641" unicode="&#x641;" horiz-adv-x="1248" 
d="M1128 460v-419c-75 -23 -155 -41 -276 -41h-503c-77 0 -138 15 -185 46c-46 31 -69 86 -69 167c0 40 6 89 18 147l13 -2c-12 -57 -18 -105 -18 -146c0 -133 79 -199 238 -199h509c90 0 172 10 247 31c-269 1 -415 74 -415 246c0 135 99 227 240 227c72 0 144 -22 201 -57
zM1115 55v398c-63 34 -125 51 -188 51c-135 0 -227 -88 -227 -214c0 -165 144 -234 415 -235zM905 684c0 13 9 22 22 22c12 0 21 -9 21 -22c0 -12 -9 -22 -21 -22c-13 0 -22 10 -22 22z" />
    <glyph glyph-name="uni06A4" unicode="&#x6a4;" horiz-adv-x="1248" 
d="M1128 460v-419c-75 -23 -155 -41 -276 -41h-503c-77 0 -138 15 -185 46c-46 31 -69 86 -69 167c0 40 6 89 18 147l13 -2c-12 -57 -18 -105 -18 -146c0 -133 79 -199 238 -199h509c90 0 172 10 247 31c-269 1 -415 74 -415 246c0 135 99 227 240 227c72 0 144 -22 201 -57
zM1115 55v398c-63 34 -125 51 -188 51c-135 0 -227 -88 -227 -214c0 -165 144 -234 415 -235zM905 800c0 13 9 22 22 22c12 0 21 -9 21 -22c0 -12 -9 -22 -21 -22c-13 0 -22 10 -22 22zM816 684c0 13 9 22 22 22c12 0 21 -9 21 -22c0 -12 -9 -22 -21 -22
c-13 0 -22 10 -22 22zM995 684c0 13 9 22 22 22c12 0 21 -9 21 -22c0 -12 -9 -22 -21 -22c-13 0 -22 10 -22 22z" />
    <glyph glyph-name="uni06A1" unicode="&#x6a1;" horiz-adv-x="1248" 
d="M1128 460v-419c-75 -23 -155 -41 -276 -41h-503c-77 0 -138 15 -185 46c-46 31 -69 86 -69 167c0 40 6 89 18 147l13 -2c-12 -57 -18 -105 -18 -146c0 -133 79 -199 238 -199h509c90 0 172 10 247 31c-269 1 -415 74 -415 246c0 135 99 227 240 227c72 0 144 -22 201 -57
zM1115 55v398c-63 34 -125 51 -188 51c-135 0 -227 -88 -227 -214c0 -165 144 -234 415 -235z" />
    <glyph glyph-name="uni066F" unicode="&#x66f;" horiz-adv-x="886" 
d="M766 404v-573c-90 -56 -197 -84 -320 -84c-232 0 -356 105 -356 282c0 44 8 105 19 138l12 -3c-11 -39 -18 -96 -18 -135c0 -169 117 -269 340 -269c139 0 229 32 310 77v163h-184c-153 0 -263 93 -263 236c0 144 119 230 262 230c77 0 151 -27 198 -62zM569 13h184v384
c-48 36 -116 56 -185 56c-135 0 -249 -80 -249 -218c0 -141 112 -222 250 -222z" />
    <glyph glyph-name="uni0642" unicode="&#x642;" horiz-adv-x="886" 
d="M766 404v-573c-90 -56 -197 -84 -320 -84c-232 0 -356 105 -356 282c0 44 8 105 19 138l12 -3c-11 -39 -18 -96 -18 -135c0 -169 117 -269 340 -269c139 0 229 32 310 77v163h-184c-153 0 -263 93 -263 236c0 144 119 230 262 230c77 0 151 -27 198 -62zM569 13h184v384
c-48 36 -116 56 -185 56c-135 0 -249 -80 -249 -218c0 -141 112 -222 250 -222zM462 633c0 13 9 22 22 22c12 0 21 -9 21 -22c0 -12 -9 -22 -21 -22c-13 0 -22 10 -22 22zM641 633c0 13 9 22 22 22c12 0 21 -9 21 -22c0 -12 -9 -22 -21 -22c-13 0 -22 10 -22 22z" />
    <glyph glyph-name="uni0643" unicode="&#x643;" horiz-adv-x="1100" 
d="M937 730h13v-688c-65 -28 -157 -42 -276 -42h-325c-77 0 -138 15 -185 46c-46 31 -69 86 -69 167c0 40 6 89 18 147l13 -2c-12 -57 -18 -105 -18 -146c0 -133 79 -199 238 -199h331c109 0 195 13 260 38v679zM601 323v-12h-170v12h62c-25 15 -41 40 -41 69
c0 49 35 84 82 84c20 0 42 -7 57 -16l-6 -10c-13 8 -34 14 -51 14c-41 0 -70 -29 -70 -72c0 -39 32 -69 73 -69h64z" />
    <glyph glyph-name="uni06A9" unicode="&#x6a9;" horiz-adv-x="1075" 
d="M975 119v-77c-67 -28 -161 -42 -262 -42h-364c-77 0 -138 15 -185 46c-46 31 -69 86 -69 167c0 40 6 89 18 147l13 -2c-12 -57 -18 -105 -18 -146c0 -133 79 -199 238 -199h370c92 0 185 14 246 38v68c0 145 -84 224 -252 265l-89 22l-5 13l344 290l8 -10l-334 -283
l79 -19c176 -43 262 -127 262 -278z" />
    <glyph glyph-name="uni06AF" unicode="&#x6af;" horiz-adv-x="1075" 
d="M872 718l-280 -236l-5 13l276 233zM975 119v-77c-67 -28 -161 -42 -262 -42h-364c-77 0 -138 15 -185 46c-46 31 -69 86 -69 167c0 40 6 89 18 147l13 -2c-12 -57 -18 -105 -18 -146c0 -133 79 -199 238 -199h370c92 0 185 14 246 38v68c0 145 -84 224 -252 265l-89 22
l-5 13l344 290l8 -10l-334 -283l79 -19c176 -43 262 -127 262 -278z" />
    <glyph glyph-name="uni0644" unicode="&#x644;" horiz-adv-x="876" 
d="M713 730h13v-899c-87 -56 -188 -84 -301 -84c-216 0 -335 106 -335 282c0 45 7 103 18 138l12 -3c-11 -39 -17 -95 -17 -135c0 -168 113 -269 320 -269c125 0 211 32 290 77v893z" />
    <glyph glyph-name="uni0645" unicode="&#x645;" horiz-adv-x="725" 
d="M645 250c0 -153 -99 -260 -240 -260c-64 0 -117 20 -160 59c-35 31 -54 44 -94 44c-65 0 -98 -37 -98 -110c0 -38 2 -87 7 -146c5 -60 12 -117 19 -170h-13c-7 53 -14 110 -19 170c-5 59 -7 108 -7 146c0 89 47 123 111 123c23 0 43 -5 58 -14c-29 44 -44 97 -44 158
c0 153 99 260 240 260s240 -107 240 -260zM632 250c0 147 -93 247 -227 247s-227 -100 -227 -247s93 -247 227 -247s227 100 227 247z" />
    <glyph glyph-name="uni0646" unicode="&#x646;" horiz-adv-x="846" 
d="M90 29c0 45 7 103 18 138l12 -3c-11 -39 -17 -95 -17 -135c0 -168 113 -269 320 -269c125 0 211 32 290 77v503h13v-509c-87 -56 -188 -84 -301 -84c-216 0 -335 106 -335 282zM394 317c0 13 9 22 22 22c12 0 21 -9 21 -22c0 -12 -9 -22 -21 -22c-13 0 -22 10 -22 22z
" />
    <glyph glyph-name="uni06BA" unicode="&#x6ba;" horiz-adv-x="846" 
d="M90 29c0 45 7 103 18 138l12 -3c-11 -39 -17 -95 -17 -135c0 -168 113 -269 320 -269c125 0 211 32 290 77v503h13v-509c-87 -56 -188 -84 -301 -84c-216 0 -335 106 -335 282z" />
    <glyph glyph-name="uni0647" unicode="&#x647;" horiz-adv-x="640" 
d="M80 250c0 153 99 260 240 260s240 -107 240 -260s-99 -260 -240 -260s-240 107 -240 260zM547 250c0 147 -93 247 -227 247s-227 -100 -227 -247s93 -247 227 -247s227 100 227 247z" />
    <glyph glyph-name="uni06C1" unicode="&#x6c1;" horiz-adv-x="640" 
d="M80 250c0 153 99 260 240 260s240 -107 240 -260s-99 -260 -240 -260s-240 107 -240 260zM547 250c0 147 -93 247 -227 247s-227 -100 -227 -247s93 -247 227 -247s227 100 227 247z" />
    <glyph glyph-name="uni06C2" unicode="&#x6c2;" horiz-adv-x="640" 
d="M80 250c0 153 99 260 240 260s240 -107 240 -260s-99 -260 -240 -260s-240 107 -240 260zM547 250c0 147 -93 247 -227 247s-227 -100 -227 -247s93 -247 227 -247s227 100 227 247zM341 667h64v-12h-170v12h62c-25 15 -41 40 -41 69c0 49 35 84 82 84c20 0 42 -7 57 -16
l-6 -10c-13 8 -34 14 -51 14c-41 0 -70 -29 -70 -72c0 -39 32 -69 73 -69z" />
    <glyph glyph-name="uni06BE" unicode="&#x6be;" horiz-adv-x="915" 
d="M835 235v-235h-750c-11 0 -16 1 -16 2v11h299c-91 31 -147 109 -147 213c0 120 93 209 207 209s207 -89 207 -209c0 -105 -55 -180 -147 -213h334v222c0 91 -18 162 -54 214c-36 53 -80 89 -133 108c-53 20 -108 30 -165 30c-38 0 -75 -3 -111 -8v14c41 5 78 7 111 7
c188 0 365 -92 365 -365zM420 13h16c119 17 186 102 186 213c0 112 -87 196 -194 196s-194 -84 -194 -196s69 -196 186 -213z" />
    <glyph glyph-name="uni0629" unicode="&#x629;" horiz-adv-x="640" 
d="M80 250c0 153 99 260 240 260s240 -107 240 -260s-99 -260 -240 -260s-240 107 -240 260zM547 250c0 147 -93 247 -227 247s-227 -100 -227 -247s93 -247 227 -247s227 100 227 247zM209 677c0 13 9 22 22 22c12 0 21 -9 21 -22c0 -12 -9 -22 -21 -22
c-13 0 -22 10 -22 22zM388 677c0 13 9 22 22 22c12 0 21 -9 21 -22c0 -12 -9 -22 -21 -22c-13 0 -22 10 -22 22z" />
    <glyph glyph-name="uni06C3" unicode="&#x6c3;" horiz-adv-x="640" 
d="M80 250c0 153 99 260 240 260s240 -107 240 -260s-99 -260 -240 -260s-240 107 -240 260zM547 250c0 147 -93 247 -227 247s-227 -100 -227 -247s93 -247 227 -247s227 100 227 247zM209 677c0 13 9 22 22 22c12 0 21 -9 21 -22c0 -12 -9 -22 -21 -22
c-13 0 -22 10 -22 22zM388 677c0 13 9 22 22 22c12 0 21 -9 21 -22c0 -12 -9 -22 -21 -22c-13 0 -22 10 -22 22z" />
    <glyph glyph-name="uni0648" unicode="&#x648;" horiz-adv-x="660" 
d="M540 404v-393c0 -173 -99 -264 -263 -264c-60 0 -122 13 -165 34l2 13c32 -17 100 -34 163 -34c153 0 246 81 250 240h-184c-153 0 -263 89 -263 232c0 147 119 234 262 234c77 0 151 -27 198 -62zM343 13h184v384c-48 36 -116 56 -185 56c-135 0 -249 -81 -249 -222
s112 -218 250 -218z" />
    <glyph glyph-name="uni0624" unicode="&#x624;" horiz-adv-x="660" 
d="M540 404v-393c0 -173 -99 -264 -263 -264c-60 0 -122 13 -165 34l2 13c32 -17 100 -34 163 -34c153 0 246 81 250 240h-184c-153 0 -263 89 -263 232c0 147 119 234 262 234c77 0 151 -27 198 -62zM343 13h184v384c-48 36 -116 56 -185 56c-135 0 -249 -81 -249 -222
s112 -218 250 -218zM363 623h64v-12h-170v12h62c-25 15 -41 40 -41 69c0 49 35 84 82 84c20 0 42 -7 57 -16l-6 -10c-13 8 -34 14 -51 14c-41 0 -70 -29 -70 -72c0 -39 32 -69 73 -69z" />
    <glyph glyph-name="uni0649" unicode="&#x649;" horiz-adv-x="1150" 
d="M1070 7l-13 -4l-108 374h-145c-84 0 -137 -42 -137 -110c0 -12 2 -27 7 -44l110 -383c-39 -25 -92 -46 -157 -65s-130 -28 -197 -28c-215 0 -340 110 -340 282c0 44 8 105 19 138l12 -3c-11 -39 -18 -96 -18 -135c0 -166 119 -269 324 -269c66 0 130 9 193 27
c63 17 113 37 149 59l-108 375c-5 15 -7 30 -7 46c0 75 58 123 149 123h157z" />
    <glyph glyph-name="uni064A" unicode="&#x64a;" horiz-adv-x="1150" 
d="M1070 7l-13 -4l-108 374h-145c-84 0 -137 -42 -137 -110c0 -12 2 -27 7 -44l110 -383c-39 -25 -92 -46 -157 -65s-130 -28 -197 -28c-215 0 -340 110 -340 282c0 44 8 105 19 138l12 -3c-11 -39 -18 -96 -18 -135c0 -166 119 -269 324 -269c66 0 130 9 193 27
c63 17 113 37 149 59l-108 375c-5 15 -7 30 -7 46c0 75 58 123 149 123h157zM318 -425c0 13 9 22 22 22c12 0 21 -9 21 -22c0 -12 -9 -22 -21 -22c-13 0 -22 10 -22 22zM497 -425c0 13 9 22 22 22c12 0 21 -9 21 -22c0 -12 -9 -22 -21 -22c-13 0 -22 10 -22 22z" />
    <glyph glyph-name="uni0626" unicode="&#x626;" horiz-adv-x="1150" 
d="M1070 7l-13 -4l-108 374h-145c-84 0 -137 -42 -137 -110c0 -12 2 -27 7 -44l110 -383c-39 -25 -92 -46 -157 -65s-130 -28 -197 -28c-215 0 -340 110 -340 282c0 44 8 105 19 138l12 -3c-11 -39 -18 -96 -18 -135c0 -166 119 -269 324 -269c66 0 130 9 193 27
c63 17 113 37 149 59l-108 375c-5 15 -7 30 -7 46c0 75 58 123 149 123h157zM213 339h64v-12h-170v12h62c-25 15 -41 40 -41 69c0 49 35 84 82 84c20 0 42 -7 57 -16l-6 -10c-13 8 -34 14 -51 14c-41 0 -70 -29 -70 -72c0 -39 32 -69 73 -69z" />
    <glyph glyph-name="uni06CC" unicode="&#x6cc;" horiz-adv-x="1150" 
d="M1070 7l-13 -4l-108 374h-145c-84 0 -137 -42 -137 -110c0 -12 2 -27 7 -44l110 -383c-39 -25 -92 -46 -157 -65s-130 -28 -197 -28c-215 0 -340 110 -340 282c0 44 8 105 19 138l12 -3c-11 -39 -18 -96 -18 -135c0 -166 119 -269 324 -269c66 0 130 9 193 27
c63 17 113 37 149 59l-108 375c-5 15 -7 30 -7 46c0 75 58 123 149 123h157z" />
    <glyph glyph-name="uni06D2" unicode="&#x6d2;" horiz-adv-x="785" 
d="M100 101c0 63 35 100 110 119l155 37c48 11 68 46 68 119v94h13v-94c0 -79 -22 -119 -78 -132l-155 -37c-79 -19 -100 -58 -100 -106c0 -59 41 -88 134 -88h478v-13h-478c-99 0 -147 33 -147 101z" />
    <glyph glyph-name="uni06D3" unicode="&#x6d3;" horiz-adv-x="785" 
d="M100 101c0 63 35 100 110 119l155 37c48 11 68 46 68 119v94h13v-94c0 -79 -22 -119 -78 -132l-155 -37c-79 -19 -100 -58 -100 -106c0 -59 41 -88 134 -88h478v-13h-478c-99 0 -147 33 -147 101zM224 417h64v-12h-170v12h62c-25 15 -41 40 -41 69c0 49 35 84 82 84
c20 0 42 -7 57 -16l-6 -10c-13 8 -34 14 -51 14c-41 0 -70 -29 -70 -72c0 -39 32 -69 73 -69z" />
    <glyph glyph-name="uni0640" unicode="&#x640;" horiz-adv-x="250" 
d="M266 13v-11c0 -1 -5 -2 -16 -2h-250c-11 0 -16 1 -16 2v11h282z" />
    <glyph glyph-name="zero" unicode="0" horiz-adv-x="749" 
d="M670 340c0 -215 -115 -350 -295 -350s-295 135 -295 350s115 350 295 350s295 -135 295 -350zM94 340c0 -207 108 -337 281 -337c171 0 281 130 281 337s-110 337 -281 337c-173 0 -281 -130 -281 -337z" />
    <glyph glyph-name="zero.lf" horiz-adv-x="750" 
d="M670 340c0 -215 -115 -350 -295 -350s-295 135 -295 350s115 350 295 350s295 -135 295 -350zM94 340c0 -207 108 -337 281 -337c171 0 281 130 281 337s-110 337 -281 337c-173 0 -281 -130 -281 -337z" />
    <glyph glyph-name="zero.osf" horiz-adv-x="670" 
d="M600 250c3 -141 -122 -263 -265 -260c-143 -3 -268 119 -265 260c-3 141 122 263 265 260c143 3 268 -119 265 -260zM84 250c-3 -133 116 -249 251 -247c135 -2 254 114 251 247c3 133 -116 249 -251 247c-135 2 -254 -114 -251 -247z" />
    <glyph glyph-name="zero.tf" horiz-adv-x="600" 
d="M577 340c0 -215 -108 -350 -278 -350c-168 0 -277 135 -277 350s109 350 277 350c170 0 278 -135 278 -350zM35 340c0 -207 102 -337 264 -337c161 0 265 130 265 337s-104 337 -265 337c-162 0 -264 -130 -264 -337z" />
    <glyph glyph-name="zero.tosf" horiz-adv-x="600" 
d="M565 250c3 -141 -122 -263 -265 -260c-143 -3 -268 119 -265 260c-3 141 122 263 265 260c143 3 268 -119 265 -260zM49 250c-3 -133 116 -249 251 -247c135 -2 254 114 251 247c3 133 -116 249 -251 247c-135 2 -254 -114 -251 -247z" />
    <glyph glyph-name="one" unicode="1" horiz-adv-x="328" 
d="M209 680v-680h-14v667l-145 -33v13l145 33h14z" />
    <glyph glyph-name="one.lf" horiz-adv-x="328" 
d="M209 680v-680h-14v667l-145 -33v13l145 33h14z" />
    <glyph glyph-name="one.osf" horiz-adv-x="275" 
d="M189 500v-500h-14v487l-145 -33v13l145 33h14z" />
    <glyph glyph-name="one.tf" horiz-adv-x="600" 
d="M369 680v-680h-14v667l-145 -33v13l145 33h14z" />
    <glyph glyph-name="one.tosf" horiz-adv-x="600" 
d="M364 500v-500h-14v487l-145 -33v13l145 33h14z" />
    <glyph glyph-name="two" unicode="2" horiz-adv-x="588" 
d="M84 13h444v-13h-460v15l303 300c99 97 122 134 122 192c0 100 -81 170 -205 170c-92 0 -157 -37 -216 -128l-12 7c61 93 133 134 229 134c131 0 218 -75 218 -183c0 -30 -9 -59 -26 -86s-51 -66 -100 -115z" />
    <glyph glyph-name="two.lf" horiz-adv-x="588" 
d="M84 13h444v-13h-460v15l303 300c99 97 122 134 122 192c0 100 -81 170 -205 170c-92 0 -157 -37 -216 -128l-12 7c61 93 133 134 229 134c131 0 218 -75 218 -183c0 -30 -9 -59 -26 -86s-51 -66 -100 -115z" />
    <glyph glyph-name="two.osf" horiz-adv-x="499" 
d="M63 13h386v-13h-411v10l277 211c79 60 106 99 106 148c0 80 -69 128 -177 128c-84 0 -147 -30 -198 -95l-10 9c53 67 120 99 208 99c115 0 191 -55 191 -140c0 -53 -30 -96 -113 -160z" />
    <glyph glyph-name="two.tf" horiz-adv-x="600" 
d="M90 13h444v-13h-460v15l303 300c99 97 122 134 122 192c0 100 -81 170 -205 170c-92 0 -157 -37 -216 -128l-12 7c61 93 133 134 229 134c131 0 218 -75 218 -183c0 -30 -9 -59 -26 -86s-51 -66 -100 -115z" />
    <glyph glyph-name="two.tosf" horiz-adv-x="600" 
d="M121 13h386v-13h-411v10l277 211c79 60 106 99 106 148c0 80 -69 128 -177 128c-84 0 -147 -30 -198 -95l-10 9c53 67 120 99 208 99c115 0 191 -55 191 -140c0 -53 -30 -96 -113 -160z" />
    <glyph glyph-name="three" unicode="3" horiz-adv-x="609" 
d="M530 197c0 -122 -100 -207 -249 -207c-77 0 -150 24 -221 71l8 11c67 -46 138 -69 213 -69c140 0 235 79 235 193c0 105 -80 169 -203 169c-42 0 -83 -8 -122 -23l-5 12l293 313h-382v13h399v-16l-282 -300c30 9 63 14 99 14c132 0 217 -69 217 -181z" />
    <glyph glyph-name="three.lf" horiz-adv-x="609" 
d="M530 197c0 -122 -100 -207 -249 -207c-77 0 -150 24 -221 71l8 11c67 -46 138 -69 213 -69c140 0 235 79 235 193c0 105 -80 169 -203 169c-42 0 -83 -8 -122 -23l-5 12l293 313h-382v13h399v-16l-282 -300c30 9 63 14 99 14c132 0 217 -69 217 -181z" />
    <glyph glyph-name="three.osf" horiz-adv-x="600" 
d="M530 6c0 -123 -101 -211 -249 -211c-77 0 -150 24 -221 73l8 11c69 -48 137 -71 213 -71c140 0 235 81 235 197c0 108 -79 173 -203 173c-41 0 -81 -8 -120 -23l-5 12l293 320h-384v13h399v-16l-282 -307c30 9 63 14 99 14c132 0 217 -70 217 -185z" />
    <glyph glyph-name="three.tf" horiz-adv-x="600" 
d="M535 197c0 -122 -100 -207 -249 -207c-77 0 -150 24 -221 71l8 11c67 -46 138 -69 213 -69c140 0 235 79 235 193c0 105 -80 169 -203 169c-42 0 -83 -8 -122 -23l-5 12l293 313h-382v13h399v-16l-282 -300c30 9 63 14 99 14c132 0 217 -69 217 -181z" />
    <glyph glyph-name="three.tosf" horiz-adv-x="600" 
d="M529 6c0 -123 -101 -211 -249 -211c-77 0 -150 24 -221 73l8 11c69 -48 137 -71 213 -71c140 0 235 81 235 197c0 108 -79 173 -203 173c-41 0 -81 -8 -120 -23l-5 12l293 320h-384v13h399v-16l-282 -307c30 9 63 14 99 14c132 0 217 -70 217 -185z" />
    <glyph glyph-name="four" unicode="4" horiz-adv-x="639" 
d="M449 228h141v-13h-141v-215h-14v215h-385v16l382 449h17v-452zM65 228h370v435z" />
    <glyph glyph-name="four.lf" horiz-adv-x="639" 
d="M449 228h141v-13h-141v-215h-14v215h-385v16l382 449h17v-452zM65 228h370v435z" />
    <glyph glyph-name="four.osf" horiz-adv-x="600" 
d="M429 13h141v-13h-141v-195h-14v195h-385v16l382 484h17v-487zM45 13h370v469z" />
    <glyph glyph-name="four.tf" horiz-adv-x="600" 
d="M429 228h141v-13h-141v-215h-14v215h-385v16l382 449h17v-452zM45 228h370v435z" />
    <glyph glyph-name="four.tosf" horiz-adv-x="600" 
d="M429 13h141v-13h-141v-195h-14v195h-385v16l382 484h17v-487zM45 13h370v469z" />
    <glyph glyph-name="five" unicode="5" horiz-adv-x="608" 
d="M529 213c0 -127 -109 -223 -257 -223c-86 0 -157 30 -212 90l10 9c51 -57 118 -86 200 -86c142 0 245 91 245 210c0 113 -93 197 -224 197c-75 0 -146 -27 -191 -74l-10 10l7 334h387v-13h-373l-7 -308c49 41 117 64 188 64c137 0 237 -89 237 -210z" />
    <glyph glyph-name="five.lf" horiz-adv-x="608" 
d="M529 213c0 -127 -109 -223 -257 -223c-86 0 -157 30 -212 90l10 9c51 -57 118 -86 200 -86c142 0 245 91 245 210c0 113 -93 197 -224 197c-75 0 -146 -27 -191 -74l-10 10l7 334h387v-13h-373l-7 -308c49 41 117 64 188 64c137 0 237 -89 237 -210z" />
    <glyph glyph-name="five.osf" horiz-adv-x="600" 
d="M530 26c2 -129 -113 -233 -258 -231c-86 0 -157 31 -212 93l10 9c51 -59 118 -89 200 -89c143 0 246 95 246 218c0 117 -95 204 -225 204c-75 0 -146 -28 -191 -77l-10 10l7 337h387v-13h-373l-7 -310c49 41 117 66 188 66c138 0 238 -92 238 -217z" />
    <glyph glyph-name="five.tf" horiz-adv-x="600" 
d="M534 213c0 -127 -109 -223 -257 -223c-86 0 -157 30 -212 90l10 9c51 -57 118 -86 200 -86c142 0 245 91 245 210c0 113 -93 197 -224 197c-75 0 -146 -27 -191 -74l-10 10l7 334h387v-13h-373l-7 -308c49 41 117 64 188 64c137 0 237 -89 237 -210z" />
    <glyph glyph-name="five.tosf" horiz-adv-x="600" 
d="M535 26c2 -129 -113 -233 -258 -231c-86 0 -157 31 -212 93l10 9c51 -59 118 -89 200 -89c143 0 246 95 246 218c0 117 -95 204 -225 204c-75 0 -146 -28 -191 -77l-10 10l7 337h387v-13h-373l-7 -310c49 41 117 66 188 66c138 0 238 -92 238 -217z" />
    <glyph glyph-name="six" unicode="6" horiz-adv-x="635" 
d="M569 216c0 -131 -95 -226 -240 -226c-163 0 -252 117 -252 334c0 229 99 366 262 366c75 0 144 -25 205 -74l-9 -10c-61 47 -127 71 -196 71c-157 0 -248 -130 -248 -353v-26c40 89 128 139 240 139c143 0 238 -93 238 -221zM555 216c0 123 -88 208 -224 208
c-116 0 -209 -59 -238 -158c15 -171 99 -263 236 -263c136 0 226 93 226 213z" />
    <glyph glyph-name="six.lf" horiz-adv-x="635" 
d="M569 216c0 -131 -95 -226 -240 -226c-163 0 -252 117 -252 334c0 229 99 366 262 366c75 0 144 -25 205 -74l-9 -10c-61 47 -127 71 -196 71c-157 0 -248 -130 -248 -353v-26c40 89 128 139 240 139c143 0 238 -93 238 -221zM555 216c0 123 -88 208 -224 208
c-116 0 -209 -59 -238 -158c15 -171 99 -263 236 -263c136 0 226 93 226 213z" />
    <glyph glyph-name="six.osf" horiz-adv-x="635" 
d="M569 216c0 -131 -95 -226 -240 -226c-163 0 -252 117 -252 334c0 229 99 366 262 366c75 0 144 -25 205 -74l-9 -10c-61 47 -127 71 -196 71c-157 0 -248 -130 -248 -353v-26c40 89 128 139 240 139c143 0 238 -93 238 -221zM555 216c0 123 -88 208 -224 208
c-116 0 -209 -59 -238 -158c15 -171 99 -263 236 -263c136 0 226 93 226 213z" />
    <glyph glyph-name="six.tf" horiz-adv-x="600" 
d="M546 216c0 -131 -95 -226 -240 -226c-163 0 -252 117 -252 334c0 229 99 366 262 366c75 0 144 -25 205 -74l-9 -10c-61 47 -127 71 -196 71c-157 0 -248 -130 -248 -353v-26c40 89 128 139 240 139c143 0 238 -93 238 -221zM532 216c0 123 -88 208 -224 208
c-116 0 -209 -59 -238 -158c15 -171 99 -263 236 -263c136 0 226 93 226 213z" />
    <glyph glyph-name="six.tosf" horiz-adv-x="600" 
d="M546 216c0 -131 -95 -226 -240 -226c-163 0 -252 117 -252 334c0 229 99 366 262 366c75 0 144 -25 205 -74l-9 -10c-61 47 -127 71 -196 71c-157 0 -248 -130 -248 -353v-26c40 89 128 139 240 139c143 0 238 -93 238 -221zM532 216c0 123 -88 208 -224 208
c-116 0 -209 -59 -238 -158c15 -171 99 -263 236 -263c136 0 226 93 226 213z" />
    <glyph glyph-name="seven" unicode="7" horiz-adv-x="558" 
d="M50 680h478v-16l-388 -664h-16l390 667h-464v13z" />
    <glyph glyph-name="seven.lf" horiz-adv-x="558" 
d="M50 680h478v-16l-388 -664h-16l390 667h-464v13z" />
    <glyph glyph-name="seven.osf" horiz-adv-x="558" 
d="M50 500h478v-16l-388 -679h-16l390 682h-464v13z" />
    <glyph glyph-name="seven.tf" horiz-adv-x="600" 
d="M61 680h478v-16l-388 -664h-16l390 667h-464v13z" />
    <glyph glyph-name="seven.tosf" horiz-adv-x="600" 
d="M61 500h478v-16l-388 -679h-16l390 682h-464v13z" />
    <glyph glyph-name="eight" unicode="8" horiz-adv-x="667" 
d="M587 180c0 -108 -104 -190 -254 -190c-149 0 -253 82 -253 190c0 97 68 165 180 185c-95 20 -155 77 -155 160c0 94 97 165 228 165c130 0 229 -71 229 -165c0 -83 -60 -140 -156 -160c112 -20 181 -88 181 -185zM333 371c128 0 215 58 215 154c0 86 -91 152 -215 152
c-123 0 -214 -66 -214 -152c0 -48 20 -86 59 -113c40 -27 92 -41 155 -41zM573 180c0 109 -92 177 -240 178c-32 0 -66 -5 -102 -14s-68 -27 -96 -54c-27 -26 -41 -63 -41 -110c0 -101 97 -177 239 -177c143 0 240 76 240 177z" />
    <glyph glyph-name="eight.lf" horiz-adv-x="667" 
d="M587 180c0 -108 -104 -190 -254 -190c-149 0 -253 82 -253 190c0 97 68 165 180 185c-95 20 -155 77 -155 160c0 94 97 165 228 165c130 0 229 -71 229 -165c0 -83 -60 -140 -156 -160c112 -20 181 -88 181 -185zM333 371c128 0 215 58 215 154c0 86 -91 152 -215 152
c-123 0 -214 -66 -214 -152c0 -48 20 -86 59 -113c40 -27 92 -41 155 -41zM573 180c0 109 -92 177 -240 178c-32 0 -66 -5 -102 -14s-68 -27 -96 -54c-27 -26 -41 -63 -41 -110c0 -101 97 -177 239 -177c143 0 240 76 240 177z" />
    <glyph glyph-name="eight.osf" horiz-adv-x="667" 
d="M587 180c0 -108 -104 -190 -254 -190c-149 0 -253 82 -253 190c0 97 68 165 180 185c-95 20 -155 77 -155 160c0 94 97 165 228 165c130 0 229 -71 229 -165c0 -83 -60 -140 -156 -160c112 -20 181 -88 181 -185zM333 371c128 0 215 58 215 154c0 86 -91 152 -215 152
c-123 0 -214 -66 -214 -152c0 -48 20 -86 59 -113c40 -27 92 -41 155 -41zM573 180c0 109 -92 177 -240 178c-32 0 -66 -5 -102 -14s-68 -27 -96 -54c-27 -26 -41 -63 -41 -110c0 -101 97 -177 239 -177c143 0 240 76 240 177z" />
    <glyph glyph-name="eight.tf" horiz-adv-x="600" 
d="M554 180c0 -108 -104 -190 -254 -190c-149 0 -253 82 -253 190c0 97 68 165 180 185c-95 20 -155 77 -155 160c0 94 97 165 228 165c130 0 229 -71 229 -165c0 -83 -60 -140 -156 -160c112 -20 181 -88 181 -185zM300 371c128 0 215 58 215 154c0 86 -91 152 -215 152
c-123 0 -214 -66 -214 -152c0 -48 20 -86 59 -113c40 -27 92 -41 155 -41zM540 180c0 109 -92 177 -240 178c-32 0 -66 -5 -102 -14s-68 -27 -96 -54c-27 -26 -41 -63 -41 -110c0 -101 97 -177 239 -177c143 0 240 76 240 177z" />
    <glyph glyph-name="eight.tosf" horiz-adv-x="600" 
d="M554 180c0 -108 -104 -190 -254 -190c-149 0 -253 82 -253 190c0 97 68 165 180 185c-95 20 -155 77 -155 160c0 94 97 165 228 165c130 0 229 -71 229 -165c0 -83 -60 -140 -156 -160c112 -20 181 -88 181 -185zM300 371c128 0 215 58 215 154c0 86 -91 152 -215 152
c-123 0 -214 -66 -214 -152c0 -48 20 -86 59 -113c40 -27 92 -41 155 -41zM540 180c0 109 -92 177 -240 178c-32 0 -66 -5 -102 -14s-68 -27 -96 -54c-27 -26 -41 -63 -41 -110c0 -101 97 -177 239 -177c143 0 240 76 240 177z" />
    <glyph glyph-name="nine" unicode="9" horiz-adv-x="635" 
d="M552 356c0 -229 -99 -366 -262 -366c-75 0 -143 25 -205 74l9 10c61 -47 127 -71 196 -71c157 0 248 130 248 353v26c-40 -89 -128 -139 -240 -139c-143 0 -238 93 -238 221c0 131 95 226 240 226c163 0 252 -117 252 -334zM536 414c-15 171 -99 263 -236 263
c-136 0 -226 -93 -226 -213c0 -123 88 -208 224 -208c116 0 209 59 238 158z" />
    <glyph glyph-name="nine.lf" horiz-adv-x="635" 
d="M552 356c0 -229 -99 -366 -262 -366c-75 0 -143 25 -205 74l9 10c61 -47 127 -71 196 -71c157 0 248 130 248 353v26c-40 -89 -128 -139 -240 -139c-143 0 -238 93 -238 221c0 131 95 226 240 226c163 0 252 -117 252 -334zM536 414c-15 171 -99 263 -236 263
c-136 0 -226 -93 -226 -213c0 -123 88 -208 224 -208c116 0 209 59 238 158z" />
    <glyph glyph-name="nine.osf" horiz-adv-x="635" 
d="M552 169c0 -234 -99 -374 -262 -374c-75 0 -143 25 -205 76l9 10c62 -49 127 -73 196 -73c157 0 248 133 248 361c0 15 0 26 -1 33c-40 -89 -128 -139 -239 -139c-143 0 -238 93 -238 221c0 131 95 226 240 226c163 0 252 -118 252 -341zM535 233
c-16 172 -99 264 -235 264s-226 -93 -226 -213c0 -123 88 -208 224 -208c57 0 107 14 150 42s72 66 87 115z" />
    <glyph glyph-name="nine.tf" horiz-adv-x="600" 
d="M546 356c0 -229 -99 -366 -262 -366c-75 0 -143 25 -205 74l9 10c61 -47 127 -71 196 -71c157 0 248 130 248 353v26c-40 -89 -128 -139 -240 -139c-143 0 -238 93 -238 221c0 131 95 226 240 226c163 0 252 -117 252 -334zM530 414c-15 171 -99 263 -236 263
c-136 0 -226 -93 -226 -213c0 -123 88 -208 224 -208c116 0 209 59 238 158z" />
    <glyph glyph-name="nine.tosf" horiz-adv-x="600" 
d="M542 169c0 -234 -99 -374 -262 -374c-75 0 -143 25 -205 76l9 10c62 -49 127 -73 196 -73c157 0 248 133 248 361c0 15 0 26 -1 33c-40 -89 -128 -139 -239 -139c-143 0 -238 93 -238 221c0 131 95 226 240 226c163 0 252 -118 252 -341zM525 233
c-16 172 -99 264 -235 264s-226 -93 -226 -213c0 -123 88 -208 224 -208c57 0 107 14 150 42s72 66 87 115z" />
    <glyph glyph-name="uni2080" unicode="&#x2080;" horiz-adv-x="442" 
d="M392 204c0 -129 -66 -210 -171 -210s-171 81 -171 210s66 210 171 210s171 -81 171 -210zM64 204c0 -121 61 -197 157 -197s157 76 157 197s-61 197 -157 197s-157 -76 -157 -197z" />
    <glyph glyph-name="uni2081" unicode="&#x2081;" horiz-adv-x="187" 
d="M113 414v-414h-14v401l-89 -20v13l91 20h12z" />
    <glyph glyph-name="uni2082" unicode="&#x2082;" horiz-adv-x="335" 
d="M42 13h253v-13h-270v14l174 176c29 29 48 51 57 66s14 30 14 46c0 60 -43 99 -110 99c-53 0 -96 -25 -129 -74l-11 6c35 54 81 81 140 81c73 0 124 -44 124 -111c0 -18 -5 -35 -16 -52c-10 -16 -30 -40 -61 -71z" />
    <glyph glyph-name="uni2083" unicode="&#x2083;" horiz-adv-x="348" 
d="M298 117c0 -75 -59 -125 -146 -125c-47 0 -91 15 -132 44l7 11c43 -29 81 -42 124 -42c81 0 133 44 133 112c0 61 -43 99 -115 99c-25 0 -49 -5 -73 -14l-4 13l167 180h-217v13h235v-12l-164 -176c18 6 37 9 58 9c77 0 127 -44 127 -112z" />
    <glyph glyph-name="uni2084" unicode="&#x2084;" horiz-adv-x="371" 
d="M255 141h86v-13h-86v-128h-14v128h-227v14l228 266h13v-267zM30 141h211v246z" />
    <glyph glyph-name="uni2085" unicode="&#x2085;" horiz-adv-x="332" 
d="M294 128c0 -39 -14 -71 -43 -96c-28 -25 -64 -38 -107 -38c-51 0 -92 18 -124 54l10 9c29 -33 67 -50 113 -50c39 0 72 11 98 34s39 52 39 87c0 67 -52 114 -125 114c-43 0 -78 -14 -107 -43l-9 9l4 200h225v-13h-212l-4 -175c28 23 67 35 104 35c80 0 138 -54 138 -127z
" />
    <glyph glyph-name="uni2086" unicode="&#x2086;" horiz-adv-x="378" 
d="M338 129c0 -80 -57 -135 -137 -135c-95 0 -151 76 -151 207c0 133 57 213 156 213c42 0 81 -14 118 -43l-9 -10c-33 27 -69 40 -108 40c-89 0 -143 -75 -143 -200v-14c24 47 74 75 134 75c83 0 140 -54 140 -133zM324 129c0 72 -52 120 -129 120c-60 0 -103 -29 -129 -86
c9 -99 58 -156 135 -156c72 0 123 50 123 122z" />
    <glyph glyph-name="uni2087" unicode="&#x2087;" horiz-adv-x="330" 
d="M20 408h290v-14l-230 -394h-16l231 395h-275v13z" />
    <glyph glyph-name="uni2088" unicode="&#x2088;" horiz-adv-x="390" 
d="M342 112c0 -69 -62 -118 -147 -118s-147 49 -147 118c0 53 38 94 101 107c-52 12 -86 48 -86 93c0 59 55 102 132 102c76 0 133 -43 133 -102c0 -45 -34 -81 -87 -93c63 -13 101 -54 101 -107zM196 226c71 0 118 34 118 85c0 53 -49 90 -118 90c-71 0 -119 -37 -119 -90
c0 -51 47 -85 119 -85zM328 111c0 61 -53 102 -133 102s-133 -41 -133 -102s54 -104 133 -104s133 43 133 104z" />
    <glyph glyph-name="uni2089" unicode="&#x2089;" horiz-adv-x="378" 
d="M328 207c0 -133 -57 -213 -156 -213c-42 0 -81 14 -118 43l9 10c33 -27 69 -40 108 -40c89 0 143 75 143 200v14c-24 -47 -74 -75 -134 -75c-83 0 -140 54 -140 133c0 80 57 135 137 135c95 0 151 -76 151 -207zM312 245c-9 99 -58 156 -135 156
c-72 0 -123 -50 -123 -122s52 -120 129 -120c60 0 103 29 129 86z" />
    <glyph glyph-name="zero.dnom" horiz-adv-x="442" 
d="M392 204c0 -129 -66 -210 -171 -210s-171 81 -171 210s66 210 171 210s171 -81 171 -210zM64 204c0 -121 61 -197 157 -197s157 76 157 197s-61 197 -157 197s-157 -76 -157 -197z" />
    <glyph glyph-name="one.dnom" horiz-adv-x="187" 
d="M113 414v-414h-14v401l-89 -20v13l91 20h12z" />
    <glyph glyph-name="two.dnom" horiz-adv-x="335" 
d="M42 13h253v-13h-270v14l174 176c29 29 48 51 57 66s14 30 14 46c0 60 -43 99 -110 99c-53 0 -96 -25 -129 -74l-11 6c35 54 81 81 140 81c73 0 124 -44 124 -111c0 -18 -5 -35 -16 -52c-10 -16 -30 -40 -61 -71z" />
    <glyph glyph-name="three.dnom" horiz-adv-x="348" 
d="M298 117c0 -75 -59 -125 -146 -125c-47 0 -91 15 -132 44l7 11c43 -29 81 -42 124 -42c81 0 133 44 133 112c0 61 -43 99 -115 99c-25 0 -49 -5 -73 -14l-4 13l167 180h-217v13h235v-12l-164 -176c18 6 37 9 58 9c77 0 127 -44 127 -112z" />
    <glyph glyph-name="four.dnom" horiz-adv-x="371" 
d="M255 141h86v-13h-86v-128h-14v128h-227v14l228 266h13v-267zM30 141h211v246z" />
    <glyph glyph-name="five.dnom" horiz-adv-x="332" 
d="M294 128c0 -39 -14 -71 -43 -96c-28 -25 -64 -38 -107 -38c-51 0 -92 18 -124 54l10 9c29 -33 67 -50 113 -50c39 0 72 11 98 34s39 52 39 87c0 67 -52 114 -125 114c-43 0 -78 -14 -107 -43l-9 9l4 200h225v-13h-212l-4 -175c28 23 67 35 104 35c80 0 138 -54 138 -127z
" />
    <glyph glyph-name="six.dnom" horiz-adv-x="378" 
d="M338 129c0 -80 -57 -135 -137 -135c-95 0 -151 76 -151 207c0 133 57 213 156 213c42 0 81 -14 118 -43l-9 -10c-33 27 -69 40 -108 40c-89 0 -143 -75 -143 -200v-14c24 47 74 75 134 75c83 0 140 -54 140 -133zM324 129c0 72 -52 120 -129 120c-60 0 -103 -29 -129 -86
c9 -99 58 -156 135 -156c72 0 123 50 123 122z" />
    <glyph glyph-name="seven.dnom" horiz-adv-x="330" 
d="M20 408h290v-14l-230 -394h-16l231 395h-275v13z" />
    <glyph glyph-name="eight.dnom" horiz-adv-x="390" 
d="M342 112c0 -69 -62 -118 -147 -118s-147 49 -147 118c0 53 38 94 101 107c-52 12 -86 48 -86 93c0 59 55 102 132 102c76 0 133 -43 133 -102c0 -45 -34 -81 -87 -93c63 -13 101 -54 101 -107zM196 226c71 0 118 34 118 85c0 53 -49 90 -118 90c-71 0 -119 -37 -119 -90
c0 -51 47 -85 119 -85zM328 111c0 61 -53 102 -133 102s-133 -41 -133 -102s54 -104 133 -104s133 43 133 104z" />
    <glyph glyph-name="nine.dnom" horiz-adv-x="378" 
d="M328 207c0 -133 -57 -213 -156 -213c-42 0 -81 14 -118 43l9 10c33 -27 69 -40 108 -40c89 0 143 75 143 200v14c-24 -47 -74 -75 -134 -75c-83 0 -140 54 -140 133c0 80 57 135 137 135c95 0 151 -76 151 -207zM312 245c-9 99 -58 156 -135 156
c-72 0 -123 -50 -123 -122s52 -120 129 -120c60 0 103 29 129 86z" />
    <glyph glyph-name="zero.numr" horiz-adv-x="442" 
d="M392 476c0 -129 -66 -210 -171 -210s-171 81 -171 210s66 210 171 210s171 -81 171 -210zM64 476c0 -121 61 -197 157 -197s157 76 157 197s-61 197 -157 197s-157 -76 -157 -197z" />
    <glyph glyph-name="one.numr" horiz-adv-x="187" 
d="M113 686v-414h-14v401l-89 -20v13l91 20h12z" />
    <glyph glyph-name="two.numr" horiz-adv-x="335" 
d="M42 285h253v-13h-270v14l174 176c29 29 48 51 57 66s14 30 14 46c0 60 -43 99 -110 99c-53 0 -96 -25 -129 -74l-11 6c35 54 81 81 140 81c73 0 124 -44 124 -111c0 -18 -5 -35 -16 -52c-10 -16 -30 -40 -61 -71z" />
    <glyph glyph-name="three.numr" horiz-adv-x="348" 
d="M298 389c0 -75 -59 -125 -146 -125c-47 0 -91 15 -132 44l7 11c43 -29 81 -42 124 -42c81 0 133 44 133 112c0 61 -43 99 -115 99c-25 0 -49 -5 -73 -14l-4 13l167 180h-217v13h235v-12l-164 -176c18 6 37 9 58 9c77 0 127 -44 127 -112z" />
    <glyph glyph-name="four.numr" horiz-adv-x="371" 
d="M255 413h86v-13h-86v-128h-14v128h-227v14l228 266h13v-267zM30 413h211v246z" />
    <glyph glyph-name="five.numr" horiz-adv-x="332" 
d="M294 400c0 -39 -14 -71 -43 -96c-28 -25 -64 -38 -107 -38c-51 0 -92 18 -124 54l10 9c29 -33 67 -50 113 -50c39 0 72 11 98 34s39 52 39 87c0 67 -52 114 -125 114c-43 0 -78 -14 -107 -43l-9 9l4 200h225v-13h-212l-4 -175c28 23 67 35 104 35c80 0 138 -54 138 -127z
" />
    <glyph glyph-name="six.numr" horiz-adv-x="378" 
d="M338 401c0 -80 -57 -135 -137 -135c-95 0 -151 76 -151 207c0 133 57 213 156 213c42 0 81 -14 118 -43l-9 -10c-33 27 -69 40 -108 40c-89 0 -143 -75 -143 -200v-14c24 47 74 75 134 75c83 0 140 -54 140 -133zM324 401c0 72 -52 120 -129 120c-60 0 -103 -29 -129 -86
c9 -99 58 -156 135 -156c72 0 123 50 123 122z" />
    <glyph glyph-name="seven.numr" horiz-adv-x="330" 
d="M20 680h290v-14l-230 -394h-16l231 395h-275v13z" />
    <glyph glyph-name="eight.numr" horiz-adv-x="390" 
d="M342 384c0 -69 -62 -118 -147 -118s-147 49 -147 118c0 53 38 94 101 107c-52 12 -86 48 -86 93c0 59 55 102 132 102c76 0 133 -43 133 -102c0 -45 -34 -81 -87 -93c63 -13 101 -54 101 -107zM196 498c71 0 118 34 118 85c0 53 -49 90 -118 90c-71 0 -119 -37 -119 -90
c0 -51 47 -85 119 -85zM328 383c0 61 -53 102 -133 102s-133 -41 -133 -102s54 -104 133 -104s133 43 133 104z" />
    <glyph glyph-name="nine.numr" horiz-adv-x="378" 
d="M328 479c0 -133 -57 -213 -156 -213c-42 0 -81 14 -118 43l9 10c33 -27 69 -40 108 -40c89 0 143 75 143 200v14c-24 -47 -74 -75 -134 -75c-83 0 -140 54 -140 133c0 80 57 135 137 135c95 0 151 -76 151 -207zM312 517c-9 99 -58 156 -135 156
c-72 0 -123 -50 -123 -122s52 -120 129 -120c60 0 103 29 129 86z" />
    <glyph glyph-name="uni2070" unicode="&#x2070;" horiz-adv-x="442" 
d="M392 546c0 -129 -66 -210 -171 -210s-171 81 -171 210s66 210 171 210s171 -81 171 -210zM64 546c0 -121 61 -197 157 -197s157 76 157 197s-61 197 -157 197s-157 -76 -157 -197z" />
    <glyph glyph-name="uni00B9" unicode="&#xb9;" horiz-adv-x="187" 
d="M113 756v-414h-14v401l-89 -20v13l91 20h12z" />
    <glyph glyph-name="uni00B2" unicode="&#xb2;" horiz-adv-x="335" 
d="M42 355h253v-13h-270v14l174 176c29 29 48 51 57 66s14 30 14 46c0 60 -43 99 -110 99c-53 0 -96 -25 -129 -74l-11 6c35 54 81 81 140 81c73 0 124 -44 124 -111c0 -18 -5 -35 -16 -52c-10 -16 -30 -40 -61 -71z" />
    <glyph glyph-name="uni00B3" unicode="&#xb3;" horiz-adv-x="348" 
d="M298 459c0 -75 -59 -125 -146 -125c-47 0 -91 15 -132 44l7 11c43 -29 81 -42 124 -42c81 0 133 44 133 112c0 61 -43 99 -115 99c-25 0 -49 -5 -73 -14l-4 13l167 180h-217v13h235v-12l-164 -176c18 6 37 9 58 9c77 0 127 -44 127 -112z" />
    <glyph glyph-name="uni2074" unicode="&#x2074;" horiz-adv-x="371" 
d="M255 484h86v-13h-86v-128h-14v128h-227v14l228 266h13v-267zM30 484h211v246z" />
    <glyph glyph-name="uni2075" unicode="&#x2075;" horiz-adv-x="332" 
d="M294 471c0 -39 -14 -71 -43 -96c-28 -25 -64 -38 -107 -38c-51 0 -92 18 -124 54l10 9c29 -33 67 -50 113 -50c39 0 72 11 98 34s39 52 39 87c0 67 -52 114 -125 114c-43 0 -78 -14 -107 -43l-9 9l4 200h225v-13h-212l-4 -175c28 23 67 35 104 35c80 0 138 -54 138 -127z
" />
    <glyph glyph-name="uni2076" unicode="&#x2076;" horiz-adv-x="378" 
d="M338 472c0 -80 -57 -135 -137 -135c-95 0 -151 76 -151 207c0 133 57 213 156 213c42 0 81 -14 118 -43l-9 -10c-33 27 -69 40 -108 40c-89 0 -143 -75 -143 -200v-14c24 47 74 75 134 75c83 0 140 -54 140 -133zM324 472c0 72 -52 120 -129 120c-60 0 -103 -29 -129 -86
c9 -99 58 -156 135 -156c72 0 123 50 123 122z" />
    <glyph glyph-name="uni2077" unicode="&#x2077;" horiz-adv-x="330" 
d="M20 751h290v-14l-230 -394h-16l231 395h-275v13z" />
    <glyph glyph-name="uni2078" unicode="&#x2078;" horiz-adv-x="390" 
d="M342 454c0 -69 -62 -118 -147 -118s-147 49 -147 118c0 53 38 94 101 107c-52 12 -86 48 -86 93c0 59 55 102 132 102c76 0 133 -43 133 -102c0 -45 -34 -81 -87 -93c63 -13 101 -54 101 -107zM196 568c71 0 118 34 118 85c0 53 -49 90 -118 90c-71 0 -119 -37 -119 -90
c0 -51 47 -85 119 -85zM328 453c0 61 -53 102 -133 102s-133 -41 -133 -102s54 -104 133 -104s133 43 133 104z" />
    <glyph glyph-name="uni2079" unicode="&#x2079;" horiz-adv-x="378" 
d="M328 550c0 -133 -57 -213 -156 -213c-42 0 -81 14 -118 43l9 10c33 -27 69 -40 108 -40c89 0 143 75 143 200v14c-24 -47 -74 -75 -134 -75c-83 0 -140 54 -140 133c0 80 57 135 137 135c95 0 151 -76 151 -207zM312 588c-9 99 -58 156 -135 156
c-72 0 -123 -50 -123 -122s52 -120 129 -120c60 0 103 29 129 86z" />
    <glyph glyph-name="fraction" unicode="&#x2044;" horiz-adv-x="109" 
d="M284 687l-443 -704h-16l443 704h16z" />
    <glyph glyph-name="onehalf" unicode="&#xbd;" horiz-adv-x="631" 
d="M113 686v-414h-14v401l-89 -20v13l91 20h12zM471 687l-443 -704h-16l443 704h16zM338 13h253v-13h-270v14l174 176c29 29 48 51 57 66s14 30 14 46c0 60 -43 99 -110 99c-53 0 -96 -25 -129 -74l-11 6c35 54 81 81 140 81c73 0 124 -44 124 -111c0 -18 -5 -35 -16 -52
c-10 -16 -30 -40 -61 -71z" />
    <glyph glyph-name="onequarter" unicode="&#xbc;" horiz-adv-x="638" 
d="M113 686v-414h-14v401l-89 -20v13l91 20h12zM496 687l-443 -704h-16l443 704h16zM522 141h86v-13h-86v-128h-14v128h-227v14l228 266h13v-267zM297 141h211v246z" />
    <glyph glyph-name="threequarters" unicode="&#xbe;" horiz-adv-x="759" 
d="M298 389c0 -75 -59 -125 -146 -125c-47 0 -91 15 -132 44l7 11c43 -29 81 -42 124 -42c81 0 133 44 133 112c0 61 -43 99 -115 99c-25 0 -49 -5 -73 -14l-4 13l167 180h-217v13h235v-12l-164 -176c18 6 37 9 58 9c77 0 127 -44 127 -112zM632 687l-443 -704h-16l443 704
h16zM643 141h86v-13h-86v-128h-14v128h-227v14l228 266h13v-267zM418 141h211v246z" />
    <glyph glyph-name="oneeighth" unicode="&#x215b;" horiz-adv-x="706" 
d="M113 686v-414h-14v401l-89 -20v13l91 20h12zM491 687l-443 -704h-16l443 704h16zM658 112c0 -69 -62 -118 -147 -118s-147 49 -147 118c0 53 38 94 101 107c-52 12 -86 48 -86 93c0 59 55 102 132 102c76 0 133 -43 133 -102c0 -45 -34 -81 -87 -93
c63 -13 101 -54 101 -107zM512 226c71 0 118 34 118 85c0 53 -49 90 -118 90c-71 0 -119 -37 -119 -90c0 -51 47 -85 119 -85zM644 111c0 61 -53 102 -133 102s-133 -41 -133 -102s54 -104 133 -104s133 43 133 104z" />
    <glyph glyph-name="threeeighths" unicode="&#x215c;" horiz-adv-x="847" 
d="M298 389c0 -75 -59 -125 -146 -125c-47 0 -91 15 -132 44l7 11c43 -29 81 -42 124 -42c81 0 133 44 133 112c0 61 -43 99 -115 99c-25 0 -49 -5 -73 -14l-4 13l167 180h-217v13h235v-12l-164 -176c18 6 37 9 58 9c77 0 127 -44 127 -112zM632 687l-443 -704h-16l443 704
h16zM799 112c0 -69 -62 -118 -147 -118s-147 49 -147 118c0 53 38 94 101 107c-52 12 -86 48 -86 93c0 59 55 102 132 102c76 0 133 -43 133 -102c0 -45 -34 -81 -87 -93c63 -13 101 -54 101 -107zM653 226c71 0 118 34 118 85c0 53 -49 90 -118 90c-71 0 -119 -37 -119 -90
c0 -51 47 -85 119 -85zM785 111c0 61 -53 102 -133 102s-133 -41 -133 -102s54 -104 133 -104s133 43 133 104z" />
    <glyph glyph-name="fiveeighths" unicode="&#x215d;" horiz-adv-x="831" 
d="M294 400c0 -39 -14 -71 -43 -96c-28 -25 -64 -38 -107 -38c-51 0 -92 18 -124 54l10 9c29 -33 67 -50 113 -50c39 0 72 11 98 34s39 52 39 87c0 67 -52 114 -125 114c-43 0 -78 -14 -107 -43l-9 9l4 200h225v-13h-212l-4 -175c28 23 67 35 104 35c80 0 138 -54 138 -127z
M616 687l-443 -704h-16l443 704h16zM783 112c0 -69 -62 -118 -147 -118s-147 49 -147 118c0 53 38 94 101 107c-52 12 -86 48 -86 93c0 59 55 102 132 102c76 0 133 -43 133 -102c0 -45 -34 -81 -87 -93c63 -13 101 -54 101 -107zM637 226c71 0 118 34 118 85
c0 53 -49 90 -118 90c-71 0 -119 -37 -119 -90c0 -51 47 -85 119 -85zM769 111c0 61 -53 102 -133 102s-133 -41 -133 -102s54 -104 133 -104s133 43 133 104z" />
    </font>
</defs>
</svg>
