<?xml version="1.0" encoding="utf-8"?>
<!-- Generator: Adobe Illustrator 24.1.0, SVG Export Plug-In . SVG Version: 6.00 Build 0)  -->
<svg version="1.1" id="Layer_1" xmlns="http://www.w3.org/2000/svg" xmlns:xlink="http://www.w3.org/1999/xlink" x="0px" y="0px"
	 width="55px" height="55px" viewBox="0 0 55 55" enable-background="new 0 0 55 55" xml:space="preserve">
<g>
	<path fill-rule="evenodd" clip-rule="evenodd" fill="#0000FF" d="M50.9,20.7c-0.2-0.4-0.4-0.7-0.8-0.9l-21-16.3
		c-0.5-0.4-1-0.6-1.6-0.6s-1.2,0.2-1.6,0.6l-21,16.3c-0.3,0.2-0.6,0.6-0.8,0.9c-0.2,0.4-0.3,0.8-0.3,1.2v27.6c0,0.7,0.3,1.4,0.8,1.9
		s1.2,0.8,1.9,0.8h36.8v-5.3H9.1V23.2L27.5,8.8l18.4,14.3v21.1h5.3V21.9C51.1,21.5,51.1,21.1,50.9,20.7z"/>
	<polygon fill-rule="evenodd" clip-rule="evenodd" fill="#0000FF" points="45.9,52.1 48.5,52.1 51.1,52.1 51.1,49.5 51.1,46.8 
		45.9,46.8 	"/>
	<path fill-rule="evenodd" clip-rule="evenodd" fill="#0000FF" d="M32.9,27.7l-8.6,8.9l-3-3c-1.7-1.7-3-3-3.3-3c0,0-2.6,2.3-2.6,2.6
		c0,0,2,2,4.3,4.3l4.6,4l10.2-10.2l1-1L34.3,29C33.6,28.3,32.9,27.7,32.9,27.7z"/>
	<path fill-rule="evenodd" clip-rule="evenodd" fill="#0000FF" d="M36.9,29.3l1.3-1.3l1.3-1.3l-1.3-1.3c-0.7-0.7-1.3-1.3-1.3-1.3
		s-0.7,0.7-1.3,1.3l-1.3,1.3l1.3,1.3L36.9,29.3z"/>
</g>
</svg>
