<?xml version="1.0" encoding="utf-8"?>
<!-- Generator: Adobe Illustrator 24.1.0, SVG Export Plug-In . SVG Version: 6.00 Build 0)  -->
<!DOCTYPE svg PUBLIC "-//W3C//DTD SVG 1.1//EN" "http://www.w3.org/Graphics/SVG/1.1/DTD/svg11.dtd" [
	<!ENTITY st0 "fill:#0000FF;">
]>
<svg version="1.1" id="Layer_1" xmlns="http://www.w3.org/2000/svg" xmlns:xlink="http://www.w3.org/1999/xlink" x="0px" y="0px"
	 width="72px" height="72px" viewBox="0 0 72 72" style="enable-background:new 0 0 72 72;" xml:space="preserve">
<g>
	<g>
		<path style="&st0;" d="M28.5,53.7l13.4,5l20.7-19.4L45.5,60.1l1.4,12l8.6-9l8.4,3.8l6.6-36.8L28.5,53.7z M6.9,64.6v-59
			c0,0,0,0,0,0h44.1c0,0,0,0,0,0v21.7l5.4-0.1V0.1c0,0,0,0,0,0h-55c0,0,0,0,0,0v70c0,0,0,0,0,0c0.3,0,27,0,27,0l0.1-5.5L6.9,64.6
			C6.9,64.6,6.9,64.6,6.9,64.6z M42.9,16.5H15.1L15,22h27.9L42.9,16.5z M15,34h17.9l-0.1-5.5H15.1L15,34z"/>
	</g>
</g>
</svg>
