<?xml version="1.0" encoding="utf-8"?>
<!-- Generator: Adobe Illustrator 24.1.0, SVG Export Plug-In . SVG Version: 6.00 Build 0)  -->
<!DOCTYPE svg PUBLIC "-//W3C//DTD SVG 1.1//EN" "http://www.w3.org/Graphics/SVG/1.1/DTD/svg11.dtd" [
	<!ENTITY st0 "fill:#0000FF;">
]>
<svg version="1.1" id="Layer_1" xmlns="http://www.w3.org/2000/svg" xmlns:xlink="http://www.w3.org/1999/xlink" x="0px" y="0px"
	 width="512px" height="512px" viewBox="0 0 512 512" style="enable-background:new 0 0 512 512;" xml:space="preserve">
<g>
	<path style="&st0;" d="M432.1,10.2H79.9C41,10.2,10.2,41,10.2,79.9v350.2c0,38.9,30.7,69.6,69.6,69.6h350.2
		c38.9,0,69.6-30.7,69.6-69.6V79.9C501.8,41,471,10.2,432.1,10.2z M180.2,71.7c32.8,0,57.3,26.6,57.3,57.3
		c0,32.8-26.6,57.3-57.3,57.3s-57.3-24.6-57.3-57.3C122.9,98.3,149.5,71.7,180.2,71.7z M122.9,421.9h-14.3
		c-10.2,0-20.5-10.2-20.5-20.5c0-10.2,10.2-20.5,20.5-20.5h14.3c10.2,0,20.5,10.2,20.5,20.5C143.4,411.6,133.1,421.9,122.9,421.9z
		 M217.1,421.9h-14.3c-10.2,0-20.5-10.2-20.5-20.5c0-10.2,10.2-20.5,20.5-20.5h14.3c12.3,0,20.5,10.2,20.5,20.5
		C237.6,411.6,227.3,421.9,217.1,421.9z M98.3,321.5c-14.3,0-24.6-14.3-20.5-28.7c8.2-32.8,34.8-61.4,67.6-71.7
		c10.2,4.1,22.5,6.1,34.8,6.1s24.6-2,34.8-6.1c16.4,4.1,28.7,14.3,41,24.6c12.3,12.3,22.5,28.7,26.6,47.1
		c4.1,14.3-6.1,28.7-20.5,28.7H98.3z M309.2,421.9h-14.3c-10.2,0-20.5-10.2-20.5-20.5c0-10.2,10.2-20.5,20.5-20.5h14.3
		c10.2,0,20.5,10.2,20.5,20.5C329.7,411.6,321.5,421.9,309.2,421.9z M403.5,421.9h-14.3c-10.2,0-20.5-10.2-20.5-20.5
		c0-10.2,10.2-20.5,20.5-20.5h14.3c10.2,0,20.5,10.2,20.5,20.5C423.9,411.6,415.7,421.9,403.5,421.9z M423.9,247.8H342
		c-10.2,0-20.5-10.2-20.5-20.5c0-12.3,10.2-20.5,20.5-20.5h81.9c12.3,0,20.5,8.2,20.5,20.5C444.4,237.6,434.2,247.8,423.9,247.8z
		 M423.9,165.9H342c-10.2,0-20.5-8.2-20.5-20.5c0-10.2,10.2-20.5,20.5-20.5h81.9c12.3,0,20.5,10.2,20.5,20.5
		C444.4,157.7,434.2,165.9,423.9,165.9z"/>
</g>
</svg>
