<?xml version="1.0" encoding="utf-8"?>
<!-- Generator: Adobe Illustrator 24.1.1, SVG Export Plug-In . SVG Version: 6.00 Build 0)  -->
<svg version="1.1" id="Layer_1" xmlns="http://www.w3.org/2000/svg" xmlns:xlink="http://www.w3.org/1999/xlink" x="0px" y="0px"
	 viewBox="0 0 1320 250" style="enable-background:new 0 0 1320 250;" xml:space="preserve">
<style type="text/css">
	.st0{fill:#FFD802;}
	.st1{fill:#D9D9D9;}
</style>
<g>
	<g>
		<path class="st0" d="M418.3,101l-25.4-71.4l-23.4,69.8l-73.3-0.5l58.9,47.5l-19.9,71.1l59.8-40.4l61,44.4l-21.9-72.5l57.6-43.6
			L418.3,101z M684.4,101L659,29.6l-23.4,69.8l-73.3-0.5l58.9,47.5l-19.9,71.1l59.8-40.4l61,44.4l-21.9-72.5l57.6-43.6L684.4,101z
			 M950.5,101l-25.4-71.4l-23.4,69.8l-73.3-0.5l58.9,47.5l-19.9,71.1l59.8-40.4l61,44.4l-21.9-72.5l57.6-43.6L950.5,101z
			 M1290,105.3l-73.4-4.3l-25.4-71.4l-23.4,69.8l-73.3-0.5l58.9,47.5l-19.9,71.1l59.8-40.4l61,44.4l-21.9-72.5L1290,105.3z"/>
	</g>
</g>
<path class="st1" d="M190.1,220.5l-61-44.4l-59.8,40.4l19.9-71.1L30.2,98l73.3,0.5L127,28.7l25.4,71.4l73.4,4.3l-57.6,43.6
	L190.1,220.5z"/>
</svg>
