<?xml version="1.0" encoding="utf-8"?>
<!-- Generator: Adobe Illustrator 24.1.0, SVG Export Plug-In . SVG Version: 6.00 Build 0)  -->
<!DOCTYPE svg PUBLIC "-//W3C//DTD SVG 1.1//EN" "http://www.w3.org/Graphics/SVG/1.1/DTD/svg11.dtd" [
	<!ENTITY st0 "fill:#8080FF;">
	<!ENTITY st1 "fill:#4040FF;">
	<!ENTITY st2 "fill:#0000FF;">
	<!ENTITY st3 "fill:#BFBFFF;">
]>
<svg version="1.1" id="Layer_1" xmlns="http://www.w3.org/2000/svg" xmlns:xlink="http://www.w3.org/1999/xlink" x="0px" y="0px"
	 width="38px" height="38px" viewBox="0 0 38 38" style="enable-background:new 0 0 38 38;" xml:space="preserve">
<g>
	<path style="&st0;" d="M37.4,11.9v25c0,0.6-0.5,1.1-1.1,1.1H17.6V4.6h12.5L37.4,11.9z"/>
	<path style="&st1;" d="M37.4,11.9h-6.6c-0.4,0-0.7-0.3-0.7-0.7c0,0,0,0,0,0V4.6L37.4,11.9z"/>
	<path style="&st2;" d="M25.1,11.9l-7.3-7.3h-16c-0.6,0-1.1,0.5-1.1,1.1c0,0,0,0,0,0v31.2c0,0.6,0.5,1.1,1.1,1.1c0,0,0,0,0,0H24
		c0.6,0,1.1-0.5,1.1-1.1c0,0,0,0,0,0L25.1,11.9z"/>
	<path style="&st3;" d="M25.1,11.9h-6.6c-0.4,0-0.7-0.3-0.7-0.7V4.6L25.1,11.9z"/>
	<path style="&st3;" d="M14,4.5v0.1h-2.2V4.5c0-1.2-1-2.2-2.2-2.2c-1.2,0-2.2,1-2.2,2.2c0,0,0,0,0,0v7.8c0,0.6,0.5,1.1,1.1,1.1
		s1.1-0.5,1.1-1.1V8.6c0-0.6,0.5-1.1,1.1-1.1c0.6,0,1.1,0.5,1.1,1.1v3.6c0,1.8-1.5,3.3-3.3,3.3c-1.8,0-3.3-1.5-3.3-3.3V4.5
		C5.1,2,7.1,0,9.6,0S14,2,14,4.5C14,4.5,14,4.5,14,4.5z"/>
	<path style="&st0;" d="M6.2,20.1h13.4c0.6,0,1.1-0.5,1.1-1.1c0-0.6-0.5-1.1-1.1-1.1l0,0H6.2c-0.6,0-1.1,0.5-1.1,1.1
		C5.1,19.6,5.6,20.1,6.2,20.1L6.2,20.1z"/>
	<path style="&st0;" d="M19.5,22.3H6.2c-0.6,0-1.1,0.5-1.1,1.1c0,0.6,0.5,1.1,1.1,1.1l0,0h13.4c0.6,0,1.1-0.5,1.1-1.1
		C20.7,22.8,20.2,22.3,19.5,22.3L19.5,22.3z"/>
	<path style="&st0;" d="M10.6,26.8H6.2c-0.6,0-1.1,0.5-1.1,1.1c0,0.6,0.5,1.1,1.1,1.1l0,0h4.5c0.6,0,1.1-0.5,1.1-1.1
		C11.7,27.3,11.2,26.8,10.6,26.8z"/>
	<path style="&st0;" d="M10.6,31.2H6.2c-0.6,0-1.1,0.5-1.1,1.1s0.5,1.1,1.1,1.1l0,0h4.5c0.6,0,1.1-0.5,1.1-1.1S11.2,31.2,10.6,31.2z
		"/>
	<path style="&st3;" d="M19.5,26.8h-4.5c-0.6,0-1.1,0.5-1.1,1.1c0,0,0,0,0,0v4.5c0,0.6,0.5,1.1,1.1,1.1c0,0,0,0,0,0h4.5
		c0.6,0,1.1-0.5,1.1-1.1c0,0,0,0,0,0v-4.5C20.7,27.3,20.2,26.8,19.5,26.8C19.6,26.8,19.5,26.8,19.5,26.8z"/>
</g>
</svg>
