<?xml version="1.0" encoding="utf-8"?>
<!-- Generator: Adobe Illustrator 24.1.0, SVG Export Plug-In . SVG Version: 6.00 Build 0)  -->
<svg version="1.1" id="Layer_1" xmlns="http://www.w3.org/2000/svg" xmlns:xlink="http://www.w3.org/1999/xlink" x="0px" y="0px"
	 width="72px" height="72px" viewBox="0 0 72 72" enable-background="new 0 0 72 72" xml:space="preserve">
<g>
	<path fill="#00D2FF" d="M64.1,27.9c-0.2-0.4-0.5-0.8-0.9-1.1L37.9,7.1c-0.5-0.4-1.2-0.7-1.9-0.7c-0.7,0-1.4,0.2-1.9,0.7L8.8,26.7
		c-0.4,0.3-0.7,0.7-0.9,1.1c-0.2,0.4-0.3,0.9-0.3,1.4v33.2c0,0.8,0.3,1.6,0.9,2.2c0.6,0.6,1.4,0.9,2.2,0.9h44.2v-6.3h-41V30.8
		L36,13.6l22.1,17.2v25.3h6.3V29.2C64.4,28.8,64.3,28.3,64.1,27.9z"/>
	<polygon fill="#00D2FF" points="58.1,65.5 61.2,65.5 64.4,65.5 64.4,62.4 64.4,59.2 58.1,59.2 	"/>
	<path fill="#00D2FF" d="M28.6,36.7c1.2-1,2.3-2,3.4-3c-0.4,0.9-0.9,1.7-1.2,2.6c-0.4,0.9-0.5,1.8-0.8,2.7c0.9,1.1,2,1.8,3.4,2.3
		c0.3-2.9,0.8-5.7,2-8.3c-0.1,2.7-0.6,10.8-0.7,11.6c0.4,0.3,0.8,0.6,1.3,0.9c0.4-0.3,0.8-0.5,1.1-0.8c-0.2-4-0.4-7.9-0.6-11.8
		c0.1,0,1.2,2.7,1.5,4.1c0.3,1.4,0.4,2.8,0.7,4.4c1.4-0.5,2.5-1.3,3.3-2.3c-0.2-2.1-1.1-3.9-2.2-5.5c0.7,0.4,1.3,0.9,1.9,1.4
		c0.6,0.5,1.2,1,1.8,1.6c0.6-1.2,0.8-2.6,0.5-3.7c-1.5-1-3.1-1.8-5-2.1c0-0.1,0-0.1,0-0.2c1.4-0.1,2.8-0.2,4.5-0.3
		c-0.7-1-1.4-1.9-2.2-2.9c-1.4,0.6-2.6,1.2-3.8,1.8c0.3-0.9,0.6-1.8,0.9-2.8c-1.6-0.4-3-0.5-4.5,0.1c0.4,1.1,0.7,2.1,1.1,3.3
		c-1.3-1.2-2.6-1.8-4.1-2.1c-1.2,0.9-1.9,1.9-2,2.8c1.4,0.1,2.9,0.2,4.3,0.3c0,0.1,0,0.1,0,0.2c-1.9,0.3-3.6,1-5.1,2.2
		C27.9,34.3,28,35.5,28.6,36.7z"/>
	<path fill="#00D2FF" d="M46.9,41c0,0,1.9-2.9,1.8-3c-2,1.4-7.5,5.1-12.7,8.6c-5.2-3.5-10.7-7.3-12.7-8.6c0,0,1.8,3,1.8,3
		c0.1,0.1,4.5,3.7,8.7,7.1c-4.8,3.3-8.8,6-8.8,6h5.7c0,0,2.4-1.9,5.3-4.3c2.9,2.4,5.3,4.3,5.3,4.3H47c0,0-4.1-2.8-8.8-6
		C42.4,44.8,46.8,41.2,46.9,41z"/>
</g>
</svg>
