<?xml version="1.0" encoding="utf-8"?>
<!-- Generator: Adobe Illustrator 24.1.0, SVG Export Plug-In . SVG Version: 6.00 Build 0)  -->
<svg version="1.1" id="Layer_1" xmlns="http://www.w3.org/2000/svg" xmlns:xlink="http://www.w3.org/1999/xlink" x="0px" y="0px"
	 width="38px" height="38px" viewBox="0 0 38 38" enable-background="new 0 0 38 38" xml:space="preserve">
<g id="Group_2191" transform="translate(-7863.486 13225.98)">
	<rect x="7880.4" y="-13198.7" fill="#FFFFFF" width="4.2" height="4.2"/>
	<path fill="#FFFFFF" d="M7901.2-13188.3h-37.4v-37.4h37.4V-13188.3z M7867.9-13192.4h29.1v-29.1h-29.1V-13192.4z"/>
	<path fill="#FFFFFF" d="M7884.6-13200.8h-4.2v-6.3h2.1c2.3,0,4.1-1.9,4.1-4.1c0-2.3-1.9-4.1-4.1-4.1c-1.1,0-2.1,0.4-2.9,1.2
		c-0.8,0.8-1.2,1.8-1.2,2.9h-4.2c0-2.2,0.9-4.3,2.4-5.9c1.6-1.6,3.7-2.4,5.9-2.4c4.6,0,8.3,3.7,8.3,8.3c0,3.9-2.6,7.1-6.2,8
		V-13200.8z"/>
</g>
</svg>
