<svg width="20" height="20" viewBox="0 0 20 20" fill="none" xmlns="http://www.w3.org/2000/svg">
<path d="M10.0003 11.5417C9.89196 11.5417 9.78363 11.5167 9.69196 11.4584C9.39196 11.2834 9.29196 10.9001 9.45863 10.6084L10.167 9.37508H9.46696C9.05029 9.37508 8.70863 9.19175 8.52529 8.88341C8.34196 8.56675 8.35863 8.18341 8.56696 7.81675L9.45863 6.26675C9.63363 5.96675 10.017 5.86675 10.3086 6.03341C10.6086 6.20841 10.7086 6.59175 10.542 6.88341L9.83363 8.12508H10.5336C10.9503 8.12508 11.292 8.30841 11.4753 8.61675C11.6586 8.93341 11.642 9.31675 11.4336 9.68341L10.542 11.2334C10.4253 11.4334 10.217 11.5417 10.0003 11.5417Z" fill="#272F52"/>
<path d="M12.3093 16.4589H7.71766C7.35099 16.4589 6.88433 16.4172 6.57599 16.1006C6.27599 15.7922 6.28433 15.4089 6.29266 15.1506V14.4089C4.19266 13.0089 2.80933 10.5756 2.80933 8.2589C2.80933 6.06723 3.79266 4.01723 5.50099 2.64223C7.20933 1.26723 9.45099 0.750568 11.6427 1.2339C13.726 1.69223 15.526 3.0839 16.4593 4.9589C18.2677 8.60057 16.526 12.5422 13.7427 14.4172V15.0422C13.751 15.2839 13.7593 15.7256 13.4177 16.0756C13.1593 16.3256 12.7927 16.4589 12.3093 16.4589ZM7.53433 15.2006C7.57599 15.2006 7.63433 15.2089 7.70933 15.2089H12.3093C12.3927 15.2089 12.451 15.2006 12.4843 15.1922C12.4843 15.1672 12.4843 15.1339 12.4843 15.1089V14.0589C12.4843 13.8422 12.601 13.6339 12.7843 13.5256C15.251 12.0339 16.8843 8.62557 15.326 5.50057C14.5593 3.9589 13.076 2.81723 11.3593 2.44223C9.54266 2.04223 7.68433 2.46723 6.26766 3.6089C4.85099 4.75057 4.04266 6.44223 4.04266 8.2589C4.04266 10.5756 5.64266 12.5756 7.22599 13.5339C7.41766 13.6506 7.52599 13.8506 7.52599 14.0672V15.1922C7.53433 15.1922 7.53433 15.1922 7.53433 15.2006Z" fill="#272F52"/>
<path d="M12.916 18.9585C12.8577 18.9585 12.7993 18.9502 12.741 18.9335C10.941 18.4169 9.04932 18.4169 7.24932 18.9335C6.91598 19.0252 6.57432 18.8335 6.47432 18.5002C6.37432 18.1669 6.57432 17.8252 6.90765 17.7252C8.92432 17.1502 11.066 17.1502 13.0827 17.7252C13.416 17.8169 13.6076 18.1669 13.516 18.5002C13.441 18.7835 13.191 18.9585 12.916 18.9585Z" fill="#272F52"/>
</svg>
