<?xml version="1.0" encoding="utf-8"?>
<!-- Generator: Adobe Illustrator 24.1.0, SVG Export Plug-In . SVG Version: 6.00 Build 0)  -->
<svg version="1.1" id="Layer_1" xmlns="http://www.w3.org/2000/svg" xmlns:xlink="http://www.w3.org/1999/xlink" x="0px" y="0px"
	 width="164px" height="164px" viewBox="0 0 164 164" enable-background="new 0 0 164 164" xml:space="preserve">
<path fill="#00D2FF" d="M82,146.5c-35.6,0-64.5-28.9-64.5-64.5S46.4,17.5,82,17.5s64.5,28.9,64.5,64.5S117.6,146.5,82,146.5z
	 M67.2,131.5c-6.4-13.5-10-28.1-10.9-43H30.8c1.3,9.9,5.4,19.3,11.8,26.9S57.6,128.6,67.2,131.5z M69.3,88.4
	c1,15.7,5.5,30.5,12.7,43.6c7.4-13.4,11.8-28.3,12.7-43.6H69.3z M133.2,88.4h-25.6c-0.8,14.9-4.5,29.5-10.9,43
	c9.6-2.9,18.1-8.5,24.6-16.1C127.8,107.7,131.9,98.4,133.2,88.4z M30.8,75.6h25.6c0.8-14.9,4.5-29.5,10.9-43
	c-9.6,2.9-18.1,8.5-24.6,16.1C36.2,56.3,32.1,65.6,30.8,75.6z M69.3,75.6h25.4C93.8,60.3,89.4,45.4,82,32
	C74.6,45.4,70.2,60.3,69.3,75.6L69.3,75.6z M96.8,32.5c6.4,13.5,10,28.1,10.9,43h25.6c-1.3-9.9-5.4-19.3-11.8-26.9
	C114.9,41,106.4,35.4,96.8,32.5L96.8,32.5z"/>
</svg>
