<?xml version="1.0" encoding="utf-8"?>
<!-- Generator: Adobe Illustrator 24.1.0, SVG Export Plug-In . SVG Version: 6.00 Build 0)  -->
<!DOCTYPE svg PUBLIC "-//W3C//DTD SVG 1.1//EN" "http://www.w3.org/Graphics/SVG/1.1/DTD/svg11.dtd" [
	<!ENTITY st0 "fill:#00D2FF;">
]>
<svg version="1.1" id="Layer_1" xmlns="http://www.w3.org/2000/svg" xmlns:xlink="http://www.w3.org/1999/xlink" x="0px" y="0px"
	 width="55px" height="55px" viewBox="0 0 55 55" style="enable-background:new 0 0 55 55;" xml:space="preserve">
<g>
	<g>
		<path style="&st0;" d="M25.4,8.9l16.1,4.7v13.1c0.4,0,0.8-0.1,1.2-0.1c0.6,0,1.2,0,1.8,0.1V12.3c0-0.8-0.5-1.4-1.1-1.6L24.2,5.1
			c-1-0.3-1.9,0.5-1.9,1.6v6h3.1C25.4,12.7,25.4,8.9,25.4,8.9z M29.8,27h7.3v-3.3h-7.3V27z M37.1,16.1h-7.3v3.3h7.3V16.1z
			 M25.4,46.6V17.7c0-0.9-0.7-1.7-1.5-1.7H4.8c-0.8,0-1.5,0.8-1.5,1.7v28.9H0v3.3h29.7c-0.6-1-1.2-2.1-1.5-3.3H25.4z M18,42h-7.3
			v-3.1H18V42z M18,34.5h-7.3v-3.1H18V34.5z M18,26.9h-7.3v-3.1H18V26.9z M29.8,35.1h4.4v-3.3h-4.4C29.8,31.8,29.8,35.1,29.8,35.1z
			 M53.6,32.8c-0.9-0.9-2.1-1.4-3.3-1.4s-2.5,0.4-3.4,1.4l-8.4,8.4c-1.2,1.2-1.9,2.9-1.9,4.6v2.8c0,0.7,0.6,1.2,1.2,1.2h2.8
			c1.7,0,3.4-0.7,4.6-1.9l8.4-8.4C55.5,37.6,55.5,34.6,53.6,32.8z M43.5,46.1c-0.8,0.8-1.8,1.2-2.8,1.2h-1.5v-1.5
			c0-1.1,0.4-2.1,1.2-2.8l6.6-6.7l3.2,3.2L43.5,46.1z"/>
	</g>
</g>
</svg>
