<?xml version="1.0" encoding="utf-8"?>
<!-- Generator: Adobe Illustrator 24.1.0, SVG Export Plug-In . SVG Version: 6.00 Build 0)  -->
<!DOCTYPE svg PUBLIC "-//W3C//DTD SVG 1.1//EN" "http://www.w3.org/Graphics/SVG/1.1/DTD/svg11.dtd" [
	<!ENTITY st0 "fill:#0000FF;">
	<!ENTITY st1 "fill:#BFBFFF;">
	<!ENTITY st2 "fill:#8080FF;">
]>
<svg version="1.1" id="Layer_1" xmlns="http://www.w3.org/2000/svg" xmlns:xlink="http://www.w3.org/1999/xlink" x="0px" y="0px"
	 width="38px" height="38px" viewBox="0 0 38 38" style="enable-background:new 0 0 38 38;" xml:space="preserve">
<g>
	<path style="&st0;" d="M38,6.8v24.3c0,3.8-3.1,6.8-6.8,6.8H6.8C3.1,38,0,34.9,0,31.2V6.8C0,3.1,3.1,0,6.8,0l0,0h24.3
		C34.9,0,38,3.1,38,6.8z"/>
	<path style="&st1;" d="M32.1,29.7H5.9c-0.6-0.1-1.1-0.6-1-1.2c0-0.5,0.5-1,1-1h26.2c0.6,0.1,1.1,0.6,1,1.2
		C33.1,29.2,32.7,29.6,32.1,29.7z"/>
	<path style="&st1;" d="M32,20H5.8c-0.6-0.1-1.1-0.6-1-1.2c0-0.5,0.5-1,1-1H32c0.6,0.1,1.1,0.6,1,1.2C33,19.5,32.5,20,32,20z"/>
	<path style="&st1;" d="M32,10.5H5.8c-0.6-0.1-1-0.7-0.9-1.3c0.1-0.5,0.5-0.9,0.9-0.9H32c0.6,0.1,1.1,0.6,1,1.2
		C33,10,32.5,10.4,32,10.5L32,10.5z"/>
	<path style="&st2;" d="M29.7,19c0,1.9-1.6,3.5-3.5,3.5s-3.5-1.6-3.5-3.5s1.6-3.5,3.5-3.5S29.7,17,29.7,19z"/>
	<path style="&st2;" d="M20.1,28.5c0,1.9-1.6,3.5-3.5,3.5s-3.5-1.6-3.5-3.5s1.6-3.5,3.5-3.5l0,0C18.6,25,20.1,26.6,20.1,28.5z"/>
	<path style="&st2;" d="M15.3,9.5c0,1.9-1.6,3.5-3.5,3.5c-1.9,0-3.5-1.6-3.5-3.5C8.3,7.5,9.9,6,11.8,6c0,0,0,0,0,0
		C13.8,6,15.3,7.5,15.3,9.5C15.3,9.5,15.3,9.5,15.3,9.5z"/>
</g>
</svg>
