<?xml version="1.0" encoding="utf-8"?>
<!-- Generator: Adobe Illustrator 24.1.1, SVG Export Plug-In . SVG Version: 6.00 Build 0)  -->
<svg version="1.1" id="Layer_1" xmlns="http://www.w3.org/2000/svg" xmlns:xlink="http://www.w3.org/1999/xlink" x="0px" y="0px"
	 viewBox="0 0 32 32" style="enable-background:new 0 0 32 32;" xml:space="preserve">
<style type="text/css">
	.st0{fill:#0690D5;}
	.st1{fill:url(#SVGID_1_);}
	.st2{fill:url(#SVGID_2_);}
</style>
<path class="st0" d="M21.3,20H24v2.7h-2.7V20z"/>
<path class="st0" d="M21.3,9.3H24V12h-2.7V9.3z"/>
<linearGradient id="SVGID_1_" gradientUnits="userSpaceOnUse" x1="21.331" y1="17.95" x2="24" y2="17.95" gradientTransform="matrix(1 0 0 -1 0 34)">
	<stop  offset="0" style="stop-color:#0690D5"/>
	<stop  offset="1" style="stop-color:#00D2FF"/>
</linearGradient>
<path class="st1" d="M21.3,14.7H24v2.7h-2.7V14.7z"/>
<path class="st0" d="M16,9.3h2.7V12H16V9.3z"/>
<path class="st0" d="M26.7,25.3h2.7V28h-2.7V25.3z"/>
<linearGradient id="SVGID_2_" gradientUnits="userSpaceOnUse" x1="3.6997" y1="28.9997" x2="29.0497" y2="3.6497">
	<stop  offset="0" style="stop-color:#0690D5"/>
	<stop  offset="1" style="stop-color:#00D2FF"/>
</linearGradient>
<path class="st2" d="M28,4h-1.3h-16H9.3H8v2.7h0v4.7l-4.9,4.3C3,15.8,2.8,16,2.8,16.2c-0.1,0.2-0.1,0.4-0.1,0.5v8.6v1.4V28H4h1.4h20
	v-2.7h-6.7v-8.7c0-0.2,0-0.4-0.1-0.5c-0.1-0.2-0.2-0.3-0.3-0.4l-6.7-5.8c-0.3-0.2-0.6-0.3-0.9-0.3V6.7h16V24h2.7V6.7V5.3V4H28z
	 M15.9,17.2l0.1,8.1h-4V20H9.3v5.3H5.4H5.3v-8.1l5.3-4.6L15.9,17.2z"/>
</svg>
