<?xml version="1.0" encoding="utf-8"?>
<!-- Generator: Adobe Illustrator 24.1.1, SVG Export Plug-In . SVG Version: 6.00 Build 0)  -->
<svg version="1.1" id="Layer_1" xmlns="http://www.w3.org/2000/svg" xmlns:xlink="http://www.w3.org/1999/xlink" x="0px" y="0px"
	 viewBox="0 0 32 32" style="enable-background:new 0 0 32 32;" xml:space="preserve">
<style type="text/css">
	.st0{fill:#0690D5;}
	.st1{fill:url(#SVGID_1_);}
	.st2{fill:url(#SVGID_2_);}
</style>
<path class="st0" d="M25.3,28H28v-2.7h-2.7V28z"/>
<linearGradient id="SVGID_1_" gradientUnits="userSpaceOnUse" x1="5.0146" y1="29.0146" x2="24.9647" y2="9.0646">
	<stop  offset="0" style="stop-color:#0690D5"/>
	<stop  offset="1" style="stop-color:#00D2FF"/>
</linearGradient>
<path class="st1" d="M27.9,12.1c-0.1-0.2-0.2-0.3-0.4-0.5L16.8,3.3C16.6,3.1,16.3,3,16,3s-0.6,0.1-0.8,0.3L4.5,11.6
	c-0.2,0.1-0.3,0.3-0.4,0.5C4,12.3,4,12.4,4,12.7v12.6v1.4V28h1.3h1.4H24v-2.7H6.7v-12L16,6l9.3,7.3V24H28V12.7
	C28,12.4,28,12.2,27.9,12.1z"/>
<linearGradient id="SVGID_2_" gradientUnits="userSpaceOnUse" x1="12.6049" y1="18.625" x2="19.4137" y2="18.625" gradientTransform="matrix(1 0 0 -1 0 34)">
	<stop  offset="0" style="stop-color:#0690D5"/>
	<stop  offset="1" style="stop-color:#00D2FF"/>
</linearGradient>
<path class="st2" d="M12.9,15.8c0.5-0.4,1-0.9,1.4-1.3c-0.1,0.4-0.4,0.7-0.5,1.1c-0.1,0.4-0.2,0.8-0.3,1.1c0.4,0.5,0.8,0.8,1.4,1
	c0.1-1.2,0.4-2.4,0.9-3.5c0,1.1-0.2,4.6-0.3,4.9c0.2,0.1,0.4,0.2,0.5,0.4c0.2-0.1,0.3-0.2,0.5-0.3c-0.1-1.7-0.2-3.3-0.3-5
	c0,0,0.5,1.1,0.6,1.7s0.2,1.2,0.3,1.8c0.6-0.2,1-0.5,1.4-1c-0.1-0.9-0.5-1.6-0.9-2.3c0.3,0.2,0.5,0.4,0.8,0.6
	c0.3,0.2,0.5,0.4,0.8,0.7c0.3-0.5,0.3-1.1,0.2-1.6c-0.6-0.4-1.3-0.8-2.1-0.9v-0.1c0.6,0,1.2-0.1,1.9-0.1c-0.3-0.4-0.6-0.8-0.9-1.2
	c-0.6,0.3-1.1,0.5-1.6,0.8c0.1-0.4,0.2-0.8,0.4-1.2c-0.7-0.2-1.3-0.2-1.9,0c0.2,0.5,0.3,0.9,0.5,1.4c-0.5-0.5-1.1-0.8-1.7-0.9
	c-0.5,0.4-0.8,0.8-0.8,1.2c0.6,0,1.2,0.1,1.8,0.1v0.1c-0.8,0.1-1.5,0.4-2.2,0.9C12.6,14.8,12.6,15.3,12.9,15.8L12.9,15.8z"/>
<path class="st0" d="M20.6,17.6c0,0,0.8-1.2,0.8-1.3C20.5,17,18.2,18.5,16,20c-2.2-1.5-4.5-3.1-5.4-3.6l0.8,1.3c0,0.1,1.9,1.6,3.7,3
	c-2,1.4-3.7,2.5-3.7,2.5h2.4c0,0,1-0.8,2.2-1.8c1.2,1,2.2,1.8,2.2,1.8h2.4c0,0-1.7-1.2-3.7-2.5C18.7,19.2,20.6,17.7,20.6,17.6
	L20.6,17.6z"/>
</svg>
