<?xml version="1.0" encoding="utf-8"?>
<!-- Generator: Adobe Illustrator 24.1.1, SVG Export Plug-In . SVG Version: 6.00 Build 0)  -->
<svg version="1.1" id="Layer_1" xmlns="http://www.w3.org/2000/svg" xmlns:xlink="http://www.w3.org/1999/xlink" x="0px" y="0px"
	 viewBox="0 0 32 32" style="enable-background:new 0 0 32 32;" xml:space="preserve">
<style type="text/css">
	.st0{fill:#0690d5;}
	.st1{fill:url(#SVGID_1_);}
	.st2{fill:url(#SVGID_2_);}
</style>
<path class="st0" d="M24,17.3c0-4.4-3.6-8-8-8s-8,3.6-8,8c0,2.9,1.6,5.6,4,6.9l1.3-2.3c-1.6-0.9-2.7-2.7-2.7-4.7
	c0-2.9,2.4-5.3,5.3-5.3s5.3,2.4,5.3,5.3c0,2-1.1,3.7-2.7,4.7l1.3,2.3C22.4,22.9,24,20.3,24,17.3L24,17.3z"/>
<linearGradient id="SVGID_1_" gradientUnits="userSpaceOnUse" x1="2.667" y1="16.4665" x2="29.335" y2="16.4665">
	<stop  offset="0" style="stop-color:#0690d5"/>
	<stop  offset="1" style="stop-color:#00d2ff"/>
</linearGradient>
<path class="st1" d="M16,4C8.7,4,2.7,10,2.7,17.3c0,4.9,2.7,9.2,6.7,11.6l1.3-2.3c-3.2-1.9-5.3-5.3-5.3-9.2
	c0-5.9,4.8-10.7,10.7-10.7s10.7,4.8,10.7,10.7c0,4-2.1,7.3-5.3,9.2l1.3,2.3c4-2.3,6.7-6.7,6.7-11.6C29.3,10,23.3,4,16,4L16,4z"/>
<linearGradient id="SVGID_2_" gradientUnits="userSpaceOnUse" x1="13.733" y1="17.3335" x2="18.266" y2="17.3335">
	<stop  offset="0" style="stop-color:#0690d5"/>
	<stop  offset="1" style="stop-color:#00d2ff"/>
</linearGradient>
<path class="st2" d="M13.7,15.1h4.5v4.5h-4.5C13.7,19.6,13.7,15.1,13.7,15.1z"/>
</svg>
