<svg xmlns="http://www.w3.org/2000/svg" xmlns:xlink="http://www.w3.org/1999/xlink" width="36" height="36" viewBox="0 0 36 36"><defs><clipPath id="a"><rect width="36" height="36" transform="translate(2186 36)" fill="#fff"/></clipPath><linearGradient id="b" x1="0.024" y1="0.056" x2="0.9" y2="1.027" gradientUnits="objectBoundingBox"><stop offset="0" stop-color="#0690d5"/><stop offset="1" stop-color="#00d2ff"/></linearGradient></defs><g transform="translate(-2186 -36)" clip-path="url(#a)"><g transform="translate(2126 -4.7)"><rect width="15.996" height="3.202" transform="translate(70.397 58.696)" fill="url(#b)"/><rect width="15.996" height="3.202" transform="translate(70.397 65.093)" fill="url(#b)"/><path d="M67.2,45.895H89.6v24H92.8V44.3a1.588,1.588,0,0,0-1.6-1.6H65.6A1.588,1.588,0,0,0,64,44.3V73.1a1.588,1.588,0,0,0,1.6,1.6H88v-3.2H67.2Z" fill="url(#b)"/><rect width="6.397" height="3.202" transform="translate(79.996 50.694)" fill="url(#b)"/><rect width="6.397" height="6.397" transform="translate(70.397 49.097)" fill="url(#b)"/><rect width="3.202" height="3.202" transform="translate(89.596 71.498)" fill="url(#b)"/></g></g></svg>