<svg xmlns="http://www.w3.org/2000/svg" xmlns:xlink="http://www.w3.org/1999/xlink" width="36" height="36" viewBox="0 0 36 36"><defs><clipPath id="a"><rect width="36" height="36" transform="translate(2186 36)" fill="#fff"/></clipPath><linearGradient id="b" x1="0.024" y1="0.056" x2="0.9" y2="1.027" gradientUnits="objectBoundingBox"><stop offset="0" stop-color="#0690d5"/><stop offset="1" stop-color="#00d2ff"/></linearGradient></defs><g transform="translate(-2186 -36)" clip-path="url(#a)"><g transform="translate(2166.7 -4.7)"><path d="M46.9,365.8v-3.2H21.3v3.2a4.788,4.788,0,0,0,4.8,4.8H48.5v-3.2a1.588,1.588,0,0,1-1.6-1.6Z" transform="translate(0 -295.909)" fill="url(#b)"/><path d="M67.2,45.895H89.6v24H92.8V44.3a1.588,1.588,0,0,0-1.6-1.6H65.6A1.588,1.588,0,0,0,64,44.3V63.5h3.2Z" transform="translate(-39.498)" fill="url(#b)"/><rect width="3.202" height="3.202" transform="translate(50.098 71.498)" fill="url(#b)"/></g></g></svg>