<?xml version="1.0" encoding="utf-8"?>
<!-- Generator: Adobe Illustrator 24.1.1, SVG Export Plug-In . SVG Version: 6.00 Build 0)  -->
<svg version="1.1" id="Layer_1" xmlns="http://www.w3.org/2000/svg" xmlns:xlink="http://www.w3.org/1999/xlink" x="0px" y="0px"
	 viewBox="0 0 32 32" style="enable-background:new 0 0 32 32;" xml:space="preserve">
<style type="text/css">
	.st0{fill:url(#SVGID_1_);}
</style>
<linearGradient id="SVGID_1_" gradientUnits="userSpaceOnUse" x1="6.561" y1="8.5797" x2="25.421" y2="27.4397" gradientTransform="matrix(1 0 0 -1 0 34)">
	<stop  offset="0" style="stop-color:#0690D5"/>
	<stop  offset="1" style="stop-color:#00D2FF"/>
</linearGradient>
<path class="st0" d="M16,2.7C8.6,2.7,2.7,8.6,2.7,16s6,13.3,13.3,13.3c7.4,0,13.3-6,13.3-13.3S23.4,2.7,16,2.7z M25.2,10.7h-3.9
	c-0.4-1.7-1-3.3-1.8-4.7C21.9,6.8,23.9,8.5,25.2,10.7z M16,5.4c1.1,1.6,2,3.4,2.5,5.3h-5.1C14,8.8,14.9,7,16,5.4L16,5.4z M5.7,18.7
	C5.5,17.8,5.4,17,5.4,16s0.1-1.8,0.3-2.7h4.5C10.1,14.2,10,15.1,10,16s0.1,1.8,0.2,2.7H5.7z M6.8,21.3h3.9c0.4,1.7,1,3.3,1.8,4.7
	C10.1,25.2,8.1,23.5,6.8,21.3z M10.7,10.7H6.8c1.3-2.2,3.3-3.9,5.8-4.7C11.7,7.4,11.1,9,10.7,10.7z M16,26.6c-1.1-1.6-2-3.4-2.5-5.3
	h5.1C18,23.2,17.1,25,16,26.6L16,26.6z M19.1,18.7h-6.2c-0.1-0.9-0.2-1.8-0.2-2.7s0.1-1.8,0.2-2.7h6.2c0.1,0.9,0.2,1.8,0.2,2.7
	S19.2,17.8,19.1,18.7z M19.5,26.1c0.8-1.5,1.4-3.1,1.8-4.7h3.9C23.9,23.5,21.9,25.2,19.5,26.1z M21.8,18.7c0.1-0.9,0.2-1.8,0.2-2.7
	s-0.1-1.8-0.2-2.7h4.5c0.2,0.9,0.3,1.7,0.3,2.7s-0.1,1.8-0.3,2.7H21.8z"/>
</svg>
