<?xml version="1.0" encoding="utf-8"?>
<!-- Generator: Adobe Illustrator 24.1.1, SVG Export Plug-In . SVG Version: 6.00 Build 0)  -->
<svg version="1.1" id="Layer_1" xmlns="http://www.w3.org/2000/svg" xmlns:xlink="http://www.w3.org/1999/xlink" x="0px" y="0px"
	 viewBox="0 0 32 32" style="enable-background:new 0 0 32 32;" xml:space="preserve">
<style type="text/css">
	.st0{fill:#0690D5;}
	.st1{fill:url(#SVGID_1_);}
	.st2{fill:url(#SVGID_2_);}
</style>
<path class="st0" d="M9.3,20h8v2.7h-8C9.3,22.7,9.3,20,9.3,20z"/>
<linearGradient id="SVGID_1_" gradientUnits="userSpaceOnUse" x1="10.6457" y1="15.2957" x2="15.9957" y2="20.6457" gradientTransform="matrix(1 0 0 -1 0 34)">
	<stop  offset="0" style="stop-color:#0690D5"/>
	<stop  offset="1" style="stop-color:#00D2FF"/>
</linearGradient>
<path class="st1" d="M9.3,14.7h8v2.7h-8C9.3,17.3,9.3,14.7,9.3,14.7z"/>
<path class="st0" d="M20,26.7h2.7v2.7H20V26.7z"/>
<linearGradient id="SVGID_2_" gradientUnits="userSpaceOnUse" x1="3.35" y1="28.65" x2="28.6499" y2="3.35">
	<stop  offset="0" style="stop-color:#0690D5"/>
	<stop  offset="1" style="stop-color:#00D2FF"/>
</linearGradient>
<path class="st2" d="M28,4C28,4,28,4,28,4l0-1.3h-1.3h-1.4H12h-1.3H9.3V4v1.2V8H6.7H5.3H4v1.3v1.2v16.2V28v1.3h1.3h1.4h11.9v-2.7
	h-12v-16H20v14.7h2.7V24h2.6h1.4H28v-1.3c0,0,0,0,0,0V4z M22.6,21.3V8H12V5.3h13.3v16H22.6z"/>
</svg>
