<?xml version="1.0" encoding="utf-8"?>
<!-- Generator: Adobe Illustrator 24.1.1, SVG Export Plug-In . SVG Version: 6.00 Build 0)  -->
<svg version="1.1" id="Layer_1" xmlns="http://www.w3.org/2000/svg" xmlns:xlink="http://www.w3.org/1999/xlink" x="0px" y="0px"
	 viewBox="0 0 32 32" style="enable-background:new 0 0 32 32;" xml:space="preserve">
<style type="text/css">
	.st0{fill:url(#SVGID_1_);}
	.st1{fill:#0690D5;}
</style>
<linearGradient id="SVGID_1_" gradientUnits="userSpaceOnUse" x1="4.025" y1="7.375" x2="26.6627" y2="30.0127" gradientTransform="matrix(1 0 0 -1 0 34)">
	<stop  offset="0" style="stop-color:#0690D5"/>
	<stop  offset="1" style="stop-color:#00D2FF"/>
</linearGradient>
<path class="st0" d="M26.6,10.7L26.6,10.7h-1.3V5.5l0,0V2.7H24h-1.3h-16H5.3H4v2.8l0,0v18.3v1.5v1.3h1.2c0,0,0,0,0.1,0H16v0.7V28
	v1.3h1.3h1.4h6.6v-2.7h-6.7V13.3h8v12h2.7V12.7V12v-1.3H26.6z M22.7,10.7h-4l0,0H16V12v0.7V24H6.7V5.3h16v0.2V10.7z"/>
<path class="st1" d="M26.7,26.7h2.7v2.7h-2.7V26.7z"/>
</svg>
