<?xml version="1.0" encoding="utf-8"?>
<!-- Generator: Adobe Illustrator 24.1.1, SVG Export Plug-In . SVG Version: 6.00 Build 0)  -->
<svg version="1.1" id="Layer_1" xmlns="http://www.w3.org/2000/svg" xmlns:xlink="http://www.w3.org/1999/xlink" x="0px" y="0px"
	 viewBox="0 0 72 72" style="enable-background:new 0 0 72 72;" xml:space="preserve">
<style type="text/css">
	.st0{fill:#0690D5;}
	.st1{fill:url(#SVGID_1_);}
</style>
<polygon class="st0" points="28.5,53.7 41.9,58.7 62.6,39.3 45.5,60.1 46.9,72.1 55.5,63.1 63.9,66.9 70.5,30.1 "/>
<linearGradient id="SVGID_1_" gradientUnits="userSpaceOnUse" x1="-9.35" y1="12.65" x2="53.15" y2="75.15" gradientTransform="matrix(1 0 0 -1 0 72)">
	<stop  offset="0" style="stop-color:#0690D5"/>
	<stop  offset="1" style="stop-color:#00D2FF"/>
</linearGradient>
<path class="st1" d="M6.9,64.6v-59l0,0H51l0,0v21.7l5.4-0.1V0.1l0,0h-55l0,0v70l0,0c0.3,0,27,0,27,0l0.1-5.5H6.9L6.9,64.6z"/>
<polygon class="st0" points="42.9,16.5 15.1,16.5 15,22 42.9,22 "/>
<polygon class="st0" points="15,34 32.9,34 32.8,28.5 15.1,28.5 "/>
</svg>
