<?xml version="1.0" encoding="utf-8"?>
<!-- Generator: Adobe Illustrator 24.1.0, SVG Export Plug-In . SVG Version: 6.00 Build 0)  -->
<!DOCTYPE svg PUBLIC "-//W3C//DTD SVG 1.1//EN" "http://www.w3.org/Graphics/SVG/1.1/DTD/svg11.dtd" [
	<!ENTITY st0 "fill-rule:evenodd;clip-rule:evenodd;fill:none;stroke:#000062;stroke-miterlimit:10;">
	<!ENTITY st1 "fill:#000062;">
]>
<svg version="1.1" id="Layer_1" xmlns="http://www.w3.org/2000/svg" xmlns:xlink="http://www.w3.org/1999/xlink" x="0px" y="0px"
	 viewBox="0 0 48 48" style="enable-background:new 0 0 48 48;" xml:space="preserve">
<path style="&st0;" d="M24,1.1c12.7,0,22.9,10.3,22.9,22.9c0,12.7-10.3,22.9-22.9,22.9C11.3,46.9,1.1,36.7,1.1,24S11.3,1.1,24,1.1z"
	/>
<g>
	<circle style="&st1;" cx="33.5" cy="18.3" r="4"/>
	<circle style="&st1;" cx="14.5" cy="18.3" r="4"/>
	<path style="&st1;" d="M13.5,31.5C13,31,13,30.3,13.4,29.8c0.5-0.5,1.2-0.5,1.7-0.1c5,4.7,12.8,4.7,17.8,0c0.5-0.5,1.2-0.4,1.7,0.1
		s0.4,1.2-0.1,1.7C28.6,37.1,19.4,37.1,13.5,31.5z"/>
</g>
</svg>
