<?xml version="1.0" encoding="utf-8"?>
<!-- Generator: Adobe Illustrator 24.1.0, SVG Export Plug-In . SVG Version: 6.00 Build 0)  -->
<!DOCTYPE svg PUBLIC "-//W3C//DTD SVG 1.1//EN" "http://www.w3.org/Graphics/SVG/1.1/DTD/svg11.dtd" [
	<!ENTITY st0 "fill-rule:evenodd;clip-rule:evenodd;fill:none;stroke:#000062;stroke-miterlimit:10;">
	<!ENTITY st1 "fill:#000062;">
]>
<svg version="1.1" id="Layer_1" xmlns="http://www.w3.org/2000/svg" xmlns:xlink="http://www.w3.org/1999/xlink" x="0px" y="0px"
	 viewBox="0 0 48 48" style="enable-background:new 0 0 48 48;" xml:space="preserve">
<path style="&st0;" d="M24,1.1c12.7,0,22.9,10.3,22.9,22.9c0,12.7-10.3,22.9-22.9,22.9C11.3,46.9,1.1,36.7,1.1,24S11.3,1.1,24,1.1z"
	/>
<g>
	<path style="&st1;" d="M24,33.1c-5.7,0-11.9-1.6-14.8-3.7C9,29.7,8.9,30,9.1,30.3c2.4,5.9,8.2,10,14.9,10s12.5-4.1,14.9-10
		c0.1-0.2,0.1-0.4,0-0.6C36.3,31.7,29.8,33.1,24,33.1z"/>
	<ellipse style="&st1;" cx="31.8" cy="18" rx="4.3" ry="4.4"/>
	<ellipse style="&st1;" cx="16.2" cy="18" rx="4.3" ry="4.4"/>
</g>
</svg>
