<?xml version="1.0" encoding="utf-8"?>
<!-- Generator: Adobe Illustrator 24.1.0, SVG Export Plug-In . SVG Version: 6.00 Build 0)  -->
<!DOCTYPE svg PUBLIC "-//W3C//DTD SVG 1.1//EN" "http://www.w3.org/Graphics/SVG/1.1/DTD/svg11.dtd" [
	<!ENTITY st0 "fill-rule:evenodd;clip-rule:evenodd;fill:none;stroke:#000062;stroke-miterlimit:10;">
	<!ENTITY st1 "fill:#000062;">
]>
<svg version="1.1" id="Layer_1" xmlns="http://www.w3.org/2000/svg" xmlns:xlink="http://www.w3.org/1999/xlink" x="0px" y="0px"
	 viewBox="0 0 48 48" style="enable-background:new 0 0 48 48;" xml:space="preserve">
<path style="&st0;" d="M24,1.1c12.7,0,22.9,10.3,22.9,22.9c0,12.7-10.3,22.9-22.9,22.9C11.3,46.9,1.1,36.7,1.1,24S11.3,1.1,24,1.1z"
	/>
<g>
	<g>
		<path style="&st1;" d="M36.9,34.1c0,0.9-0.7,1.6-1.6,1.6H12.6c-0.9,0-1.6-0.7-1.6-1.6c0-0.9,0.7-1.6,1.6-1.6h22.7
			C36.2,32.5,36.9,33.2,36.9,34.1z"/>
		<circle style="&st1;" cx="14.8" cy="18.6" r="4.3"/>
	</g>
	<circle style="&st1;" cx="33.2" cy="18.6" r="4.3"/>
</g>
</svg>
