<?xml version="1.0" encoding="utf-8"?>
<!-- Generator: Adobe Illustrator 24.1.0, SVG Export Plug-In . SVG Version: 6.00 Build 0)  -->
<!DOCTYPE svg PUBLIC "-//W3C//DTD SVG 1.1//EN" "http://www.w3.org/Graphics/SVG/1.1/DTD/svg11.dtd" [
	<!ENTITY st0 "fill-rule:evenodd;clip-rule:evenodd;fill:none;stroke:#000062;stroke-miterlimit:10;">
	<!ENTITY st1 "fill:#000062;">
]>
<svg version="1.1" id="Layer_1" xmlns="http://www.w3.org/2000/svg" xmlns:xlink="http://www.w3.org/1999/xlink" x="0px" y="0px"
	 viewBox="0 0 48 48" style="enable-background:new 0 0 48 48;" xml:space="preserve">
<path style="&st0;" d="M24,1.1c12.7,0,22.9,10.3,22.9,22.9c0,12.7-10.3,22.9-22.9,22.9C11.3,46.9,1.1,36.7,1.1,24S11.3,1.1,24,1.1z"
	/>
<g>
	<g>
		<path style="&st1;" d="M10.7,17.8c0.6-0.3,2.3,1.5,5,1.6c2.8,0.1,4.4-1.9,5-1.6c0.7,0.2-0.3,4.9-5,5C11,22.7,10,18,10.7,17.8z"/>
	</g>
	<path style="&st1;" d="M37.3,17.8c-0.6-0.3-2.3,1.5-5,1.6c-2.8,0.1-4.4-1.9-5-1.6c-0.7,0.2,0.3,4.9,5,5C37,22.7,38,18,37.3,17.8z"
		/>
	<path style="&st1;" d="M31.8,31.5c0.4,0.4,0.5,1.1,0,1.6c-0.4,0.4-1.1,0.5-1.6,0C27,30,21,30,17.7,33.1c-0.4,0.4-1.1,0.4-1.6,0
		c-0.4-0.4-0.4-1.1,0-1.6C20.3,27.6,27.7,27.6,31.8,31.5z"/>
</g>
</svg>
