<?xml version="1.0" encoding="utf-8"?>
<!-- Generator: Adobe Illustrator 24.1.0, SVG Export Plug-In . SVG Version: 6.00 Build 0)  -->
<!DOCTYPE svg PUBLIC "-//W3C//DTD SVG 1.1//EN" "http://www.w3.org/Graphics/SVG/1.1/DTD/svg11.dtd" [
	<!ENTITY st0 "fill-rule:evenodd;clip-rule:evenodd;fill:#7f92ff;">
]>
<svg version="1.1" id="Layer_1" xmlns="http://www.w3.org/2000/svg" xmlns:xlink="http://www.w3.org/1999/xlink" x="0px" y="0px"
	 width="512px" height="512px" viewBox="0 0 512 512" style="enable-background:new 0 0 512 512;" xml:space="preserve">
<g transform="translate(-168 -336)">
	<g transform="translate(3.382 250.864)">
		<path style="&st0;" d="M676.6,263.1c0-14.6-5.8-28.5-16.1-38.8s-24.2-16.1-38.8-16.1c-88.6,0-313.7,0-402.3,0
			c-14.6,0-28.5,5.8-38.8,16.1s-16.1,24.2-16.1,38.8v256c0,14.6,5.8,28.5,16.1,38.8s24.2,16.1,38.8,16.1h402.3
			c14.6,0,28.5-5.8,38.8-16.1s16.1-24.2,16.1-38.8V263.1z M329.2,391.1c30.3,0,54.9-24.6,54.9-54.9s-24.6-54.9-54.9-54.9
			s-54.9,24.6-54.9,54.9S298.9,391.1,329.2,391.1c-50.5,0-91.4,41-91.4,91.4c0,10.1,8.2,18.3,18.3,18.3h146.3
			c10.1,0,18.3-8.2,18.3-18.3C420.6,432.1,379.6,391.1,329.2,391.1z M457.2,446h91.4c10.1,0,18.3-8.2,18.3-18.3s-8.2-18.3-18.3-18.3
			h-91.4c-10.1,0-18.3,8.2-18.3,18.3S447.1,446,457.2,446z M457.2,372.9h127.4c10.1,0,18.3-8.2,18.3-18.3s-8.2-18.3-18.3-18.3H457.2
			c-10.1,0-18.3,8.2-18.3,18.3S447.1,372.9,457.2,372.9z"/>
	</g>
</g>
</svg>
