<?xml version="1.0" encoding="utf-8"?>
<!-- Generator: Adobe Illustrator 24.1.0, SVG Export Plug-In . SVG Version: 6.00 Build 0)  -->
<!DOCTYPE svg PUBLIC "-//W3C//DTD SVG 1.1//EN" "http://www.w3.org/Graphics/SVG/1.1/DTD/svg11.dtd" [
	<!ENTITY st0 "fill:#FFFFFF;">
]>
<svg version="1.1" id="Layer_1" xmlns="http://www.w3.org/2000/svg" xmlns:xlink="http://www.w3.org/1999/xlink" x="0px" y="0px"
	 width="38px" height="38px" viewBox="0 0 38 38" style="enable-background:new 0 0 38 38;" xml:space="preserve">
<path style="&st0;" d="M37.5,21.4V8.8c0-4.7-3.8-8.5-8.5-8.5H8.5C3.8,0.3,0,4.1,0,8.8v27.5c0,0.8,0.7,1.5,1.5,1.5
	c0.3,0,0.7-0.1,0.9-0.3l9-7.5h17.5C33.6,29.9,37.5,26.1,37.5,21.4z M18.7,23.6c-0.8,0-1.5-0.7-1.5-1.5s0.7-1.5,1.5-1.5
	s1.5,0.7,1.5,1.5S19.5,23.6,18.7,23.6z M20.2,17.1v0.3c0,0.8-0.7,1.5-1.5,1.5s-1.5-0.7-1.5-1.5v-1.6c0-0.8,0.7-1.5,1.5-1.5
	c1.4,0,2.5-1.1,2.5-2.5s-1.1-2.5-2.5-2.5C18,9.3,17.4,9.6,17,10c-0.5,0.5-0.7,1.1-0.7,1.7c0,0.8-0.7,1.5-1.5,1.5s-1.5-0.7-1.5-1.5
	l0,0c0-1.4,0.6-2.8,1.6-3.8s2.4-1.6,3.8-1.6c3,0,5.4,2.4,5.4,5.4C24.1,14.4,22.5,16.5,20.2,17.1z"/>
</svg>
