<?xml version="1.0" encoding="utf-8"?>
<!-- Generator: Adobe Illustrator 24.1.0, SVG Export Plug-In . SVG Version: 6.00 Build 0)  -->
<svg version="1.1" id="Layer_1" xmlns="http://www.w3.org/2000/svg" xmlns:xlink="http://www.w3.org/1999/xlink" x="0px" y="0px"
	 viewBox="0 0 43.3 46.1" style="enable-background:new 0 0 43.3 46.1;" xml:space="preserve">
<style type="text/css">
	.st0{clip-path:url(#SVGID_2_);fill:#4040FF;}
	.st1{clip-path:url(#SVGID_2_);fill:#8080FF;}
	.st2{clip-path:url(#SVGID_2_);fill:#7f92ff;}
	.st3{clip-path:url(#SVGID_2_);fill:#BFBFFF;}
</style>
<g>
	<defs>
		<rect id="SVGID_1_" width="43.3" height="46.1"/>
	</defs>
	<clipPath id="SVGID_2_">
		<use xlink:href="#SVGID_1_"  style="overflow:visible;"/>
	</clipPath>
	<path class="st0" d="M40.6,42.6v2.2c0,0.7-0.6,1.3-1.4,1.3c-0.7,0-1.3-0.6-1.3-1.3v-2.2c0.4,0.2,0.9,0.3,1.3,0.3
		C39.7,42.8,40.2,42.7,40.6,42.6"/>
	<path class="st1" d="M43.3,1.4c0,0,0,31.8,0,37.9c0,2.2-1.8,4-4,4c-2.2,0-4-1.8-4-4v0V1.3c0-0.7,0.6-1.3,1.4-1.3h5.4
		C42.7,0,43.3,0.6,43.3,1.4"/>
	<path class="st2" d="M32.5,1.3v43.4c0,0.7-0.6,1.3-1.4,1.3H1.3c-0.7,0-1.3-0.6-1.3-1.3V9.9L9.9,0h21.3C31.9,0,32.5,0.6,32.5,1.3"/>
	<path class="st1" d="M9.9,0v8.5c0,0.7-0.6,1.4-1.4,1.4H0L9.9,0z"/>
	<path class="st1" d="M20.3,8.2h-6.8c-0.7,0-1.3,0.6-1.3,1.4c0,0.7,0.6,1.3,1.3,1.3h6.8c0.7,0,1.3-0.6,1.3-1.3
		C21.7,8.8,21.1,8.2,20.3,8.2"/>
	<path class="st3" d="M25.7,21.7H6.8c-0.7,0-1.4,0.6-1.4,1.4s0.6,1.4,1.4,1.4h18.9c0.7,0,1.4-0.6,1.4-1.4S26.5,21.7,25.7,21.7"/>
	<path class="st3" d="M6.8,19h18.9c0.7,0,1.4-0.6,1.4-1.3s-0.6-1.4-1.4-1.4H6.8c-0.7,0-1.4,0.6-1.4,1.4S6.1,19,6.8,19"/>
	<path class="st3" d="M25.7,27.1H6.8c-0.7,0-1.4,0.6-1.4,1.4c0,0.7,0.6,1.3,1.4,1.3h18.9c0.7,0,1.4-0.6,1.4-1.3
		C27.1,27.7,26.5,27.1,25.7,27.1"/>
	<path class="st1" d="M17.6,37.9h-3.5l-2.3-2.3c-0.3-0.3-0.7-0.4-1.2-0.4c-0.4,0.1-0.8,0.3-1,0.7l-1,2H6.8c-0.7,0-1.4,0.6-1.4,1.3
		c0,0.7,0.6,1.3,1.4,1.3h2.7c0.5,0,1-0.3,1.2-0.7l0.5-1l1.4,1.4c0.3,0.3,0.6,0.4,1,0.4h4c0.7,0,1.4-0.6,1.4-1.4
		C19,38.5,18.4,37.9,17.6,37.9"/>
	<path class="st0" d="M43.3,10.9c0,0,0,2.7,0,2.7h-8.1v-2.7H43.3z"/>
</g>
</svg>
