<?xml version="1.0" encoding="utf-8"?>
<!-- Generator: Adobe Illustrator 24.1.0, SVG Export Plug-In . SVG Version: 6.00 Build 0)  -->
<svg version="1.1" id="Layer_1" xmlns="http://www.w3.org/2000/svg" xmlns:xlink="http://www.w3.org/1999/xlink" x="0px" y="0px"
	 width="22px" height="22px" viewBox="0 0 22 22" style="enable-background:new 0 0 22 22;" xml:space="preserve">
<g>
	<g>
		<path style="fill:#0000FF;" d="M11.3,9.2H3.7c-0.5,0-0.9-0.4-0.9-0.9c0-0.5,0.4-0.9,0.9-0.9h8.3c0.5,0,0.9,0.4,0.9,0.9
			c0,0,0,0.1,0,0.1c0.9-0.3,1.8-0.6,2.8-0.6V2.5c0-1.4-1.1-2.5-2.5-2.5H2.5C1.1,0,0,1.1,0,2.5v14.2c0,1.4,1.1,2.5,2.5,2.5h6
			c-0.5-1-0.8-2.2-0.8-3.4c0-1.1,0.2-2.1,0.6-3c0,0-0.1,0-0.1,0H3.7c-0.5,0-0.9-0.4-0.9-0.9c0-0.5,0.4-0.9,0.9-0.9h4.6
			c0.3,0,0.7,0.2,0.8,0.5C9.7,10.6,10.4,9.8,11.3,9.2z M3.7,3.7h3.7c0.5,0,0.9,0.4,0.9,0.9c0,0.5-0.4,0.9-0.9,0.9H3.7
			c-0.5,0-0.9-0.4-0.9-0.9C2.8,4.1,3.2,3.7,3.7,3.7z M15.8,9.6c-3.4,0-6.2,2.8-6.2,6.2c0,3.4,2.8,6.2,6.2,6.2c3.4,0,6.2-2.8,6.2-6.2
			C22,12.4,19.2,9.6,15.8,9.6z M15.8,11c1.3,0,2.4,1.1,2.4,2.4c0,1.3-1.1,2.4-2.4,2.4s-2.4-1.1-2.4-2.4C13.4,12.1,14.5,11,15.8,11z
			 M19.6,19.1c-0.1,0-0.2,0.1-0.3,0.1c-0.2,0-0.4-0.1-0.5-0.3c-0.6-1.1-1.8-1.8-3.1-1.8c-1.3,0-2.4,0.7-3,1.8
			c-0.1,0.2-0.3,0.3-0.5,0.3c-0.1,0-0.2,0-0.3-0.1c-0.1-0.1-0.2-0.2-0.2-0.3c0-0.1,0-0.3,0-0.4c0.8-1.4,2.3-2.3,4-2.3
			c1.6,0,3.1,0.9,4,2.3C19.9,18.6,19.8,19,19.6,19.1z M15.8,14.8c0.8,0,1.4-0.6,1.4-1.4c0-0.8-0.6-1.4-1.4-1.4
			c-0.8,0-1.4,0.6-1.4,1.4C14.4,14.2,15.1,14.8,15.8,14.8z"/>
	</g>
</g>
</svg>
