<?xml version="1.0" encoding="utf-8"?>
<!-- Generator: Adobe Illustrator 24.1.0, SVG Export Plug-In . SVG Version: 6.00 Build 0)  -->
<svg version="1.1" id="Layer_1" xmlns="http://www.w3.org/2000/svg" xmlns:xlink="http://www.w3.org/1999/xlink" x="0px" y="0px"
	 width="368.4px" height="368.4px" viewBox="0 0 368.4 368.4" enable-background="new 0 0 368.4 368.4" xml:space="preserve">
<g>
	<rect x="272.9" y="101.8" fill="#7f92ff" width="32.7" height="32.7"/>
	<path fill="#7f92ff" d="M158.5,216.2c-72.1,0-130.7,58.6-130.7,130.7h32.7c0-54.1,44-98,98-98c54.1,0,98,44,98,98h32.7
		C289.2,274.8,230.6,216.2,158.5,216.2z"/>
	<polygon fill="#7f92ff" points="305.5,52.8 305.5,20.1 272.9,20.1 272.9,52.8 240.2,52.8 240.2,85.5 338.2,85.5 338.2,52.8 	"/>
	<path fill="#7f92ff" d="M158.5,199.5c40.5,0,73.5-33,73.5-73.5s-33-73.5-73.5-73.5S85,85.5,85,126S118,199.5,158.5,199.5z
		 M158.5,85.2c22.5,0,40.9,18.3,40.9,40.8s-18.3,40.9-40.9,40.9s-40.8-18.3-40.8-40.9S136,85.2,158.5,85.2z"/>
</g>
</svg>
