<svg xmlns="http://www.w3.org/2000/svg" width="36" height="36" viewBox="0 0 36 36"><g transform="translate(-42.7 -42.7)"><path d="M60.7,42.7a18,18,0,1,0,0,36,18.287,18.287,0,0,0,4.4-.54V74.413A14.4,14.4,0,1,1,75.105,60.7v2.7a2.7,2.7,0,0,1-5.4,0V53.5H66.1a9,9,0,0,0-9.747-.684,8.956,8.956,0,0,0-3.578,3.62,9.062,9.062,0,0,0-1.046,4.987,9,9,0,0,0,15.46,5.511A6.3,6.3,0,0,0,78.7,63.392v-2.7A18,18,0,0,0,60.7,42.7Zm3.823,21.823A5.419,5.419,0,1,1,66.1,60.7,5.4,5.4,0,0,1,64.523,64.523Z" fill="#14157b"/><rect width="3.603" height="3.603" transform="translate(66.894 74.202)" fill="#7b87ff"/></g></svg>