<?xml version="1.0" encoding="utf-8"?>
<!-- Generator: Adobe Illustrator 24.1.0, SVG Export Plug-In . SVG Version: 6.00 Build 0)  -->
<!DOCTYPE svg PUBLIC "-//W3C//DTD SVG 1.1//EN" "http://www.w3.org/Graphics/SVG/1.1/DTD/svg11.dtd" [
	<!ENTITY st0 "fill-rule:evenodd;clip-rule:evenodd;fill:#7f92ff;">
]>
<svg version="1.1" id="Layer_1" xmlns="http://www.w3.org/2000/svg" xmlns:xlink="http://www.w3.org/1999/xlink" x="0px" y="0px"
	 width="512px" height="512px" viewBox="0 0 512 512" style="enable-background:new 0 0 512 512;" xml:space="preserve">
<path style="&st0;" d="M55.6,96v336.8c0,14.6,5.8,28.7,16.2,39c10.3,10.4,24.4,16.2,39,16.2h290.5c14.6,0,28.7-5.8,39-16.2
	c10.4-10.3,16.2-24.4,16.2-39V160.3H356.3c-10.6,0-20.8-4.2-28.3-11.7s-11.7-17.7-11.7-28.3V104H63.6C59.2,104,55.6,100.4,55.6,96z
	 M380.8,251.4c0-25-20.3-45.3-45.3-45.3h-159c-25,0-45.3,20.3-45.3,45.3v104.5c0,25,20.3,45.3,45.3,45.3h159
	c25,0,45.3-20.3,45.3-45.3V251.4z M364.8,251.4v104.5c0,16.2-13.1,29.3-29.3,29.3h-159c-16.2,0-29.3-13.1-29.3-29.3V251.4
	c0-16.2,13.1-29.3,29.3-29.3h159C351.6,222.1,364.8,235.2,364.8,251.4L364.8,251.4z M298.6,249.8c-3.1,2.6-33.9,27.9-55.7,47.8
	c-2.1,1.9-4,3.7-5.9,5.4c-10.1-7.9-21.2-15.4-23.9-17.1c-7.3-6.8-18.9-6.6-26.1,0.6c-7.2,7.2-7.4,18.7-0.6,26.1
	c1.9,2.9,10.4,15.5,18.9,26.1c7.2,8.9,14.4,16.1,14.7,16.5c9.9,9.8,25.8,9.9,35.6,0.1c0.4-0.4,10.3-10.1,22-23
	c19.9-21.9,45.3-52.7,47.8-55.8c7.1-7.4,7-19.2-0.3-26.5C317.8,242.8,306,242.7,298.6,249.8L298.6,249.8z M332.3,26.3v94.1
	c0,6.4,2.5,12.5,7,17c4.5,4.5,10.6,7,17,7h97.1c-2-5-5.1-9.5-9-13.3L347,35.4C342.8,31.3,337.7,28.2,332.3,26.3L332.3,26.3z
	 M316.3,24H110.8c-14.6,0-28.7,5.8-39,16.2c-10.4,10.3-16.2,24.4-16.2,39V96c0-4.4,3.6-8,8-8h252.7V24z"/>
</svg>
