<svg id="Layer_1" data-name="Layer 1" xmlns="http://www.w3.org/2000/svg" viewBox="0 0 60 60"><defs><style>.cls-1{fill:blue;}.cls-2{fill:#8080ff;}.cls-3{fill:#bfbfff;}</style></defs><title>communication-and-media031-open-book</title><path class="cls-1" d="M32.74,51.29h-5.4a4.06,4.06,0,0,1-3.82-2.7H8.35A1.34,1.34,0,0,1,7,47.24V14.75A1.34,1.34,0,0,1,8.35,13.4h5.49a1.34,1.34,0,0,1,1.35,1.35V40.49H27.34a4,4,0,0,1,2.7,1,4,4,0,0,1,2.7-1H44.89V14.75a1.34,1.34,0,0,1,1.35-1.35h5.49a1.34,1.34,0,0,1,1.35,1.35V47.24a1.34,1.34,0,0,1-1.35,1.35H36.56a4.06,4.06,0,0,1-3.82,2.7Zm0,0"/><path class="cls-2" d="M46.24,10.7H35.44A6.7,6.7,0,0,0,30,13.43a6.51,6.51,0,0,0-1.35,4V38.22a13.87,13.87,0,0,0-8.1-3.17v-23a1.33,1.33,0,0,0-1.35-1.35h-5.4a1.33,1.33,0,0,0-1.35,1.35V41.84a1.33,1.33,0,0,0,1.35,1.35h13.5a1.33,1.33,0,0,1,1.35,1.35,1.35,1.35,0,0,0,2.7,0,1.33,1.33,0,0,1,1.35-1.35h13.5a1.33,1.33,0,0,0,1.35-1.35V12.05a1.33,1.33,0,0,0-1.35-1.35Zm0,0"/><path class="cls-3" d="M19.21,8a1.34,1.34,0,0,0-1.32,1.35V39.14a1.37,1.37,0,0,0,1.4,1.35c7.06,0,9.45,4.47,9.54,4.65a1.35,1.35,0,0,0,1.21.75V13.56C30,10.29,23.65,8,19.21,8Zm0,0"/></svg>