<?xml version="1.0" encoding="utf-8"?>
<!-- Generator: Adobe Illustrator 24.1.0, SVG Export Plug-In . SVG Version: 6.00 Build 0)  -->
<svg version="1.1" id="Layer_1" xmlns="http://www.w3.org/2000/svg" xmlns:xlink="http://www.w3.org/1999/xlink" x="0px" y="0px"
	 width="24px" height="24px" viewBox="0 0 24 24" enable-background="new 0 0 24 24" xml:space="preserve">
<g id="Group_2191" transform="translate(-7863.486 13225.98)">
	<rect x="7874.2" y="-13208.6" fill="#7f92ff" width="2.7" height="2.7"/>
	<path fill="#7f92ff" d="M7887.5-13202h-24v-24h24V-13202z M7866.2-13204.6h18.7v-18.7h-18.7V-13204.6z"/>
	<path fill="#7f92ff" d="M7876.8-13210h-2.7v-4h1.3c1.5,0,2.7-1.2,2.7-2.7c0-1.5-1.2-2.7-2.7-2.7c-0.7,0-1.4,0.3-1.9,0.8
		c-0.5,0.5-0.8,1.2-0.8,1.9l-2.7,0c0-1.4,0.6-2.8,1.6-3.8c1-1,2.3-1.6,3.8-1.6c2.9,0,5.3,2.4,5.3,5.3c0,2.5-1.7,4.6-4,5.2V-13210z"
		/>
</g>
</svg>
