<svg xmlns="http://www.w3.org/2000/svg" xmlns:xlink="http://www.w3.org/1999/xlink" width="27.004" height="36" viewBox="0 0 27.004 36"><defs><clipPath id="a"><rect width="18" height="6" transform="translate(2536 52)" fill="#fff"/></clipPath></defs><g transform="translate(-2527 -37)"><path d="M103.561,42.877a9.088,9.088,0,0,0-7.114,6.076C96,50.261,96,50.573,96,60.742s0,10.481.447,11.789a9.048,9.048,0,0,0,4.413,5.131c1.89.945,2.565,1.038,7.249,1.038h3.646V71.907H105V74.16h-.312a4.351,4.351,0,0,1-2.835-1.308,4.25,4.25,0,0,1-1.215-2.068c-.177-.768-.177-19.443,0-20.16a3.621,3.621,0,0,1,1.215-2.068,4.316,4.316,0,0,1,2.835-1.308H105V49.5h6.751V42.7h-3.738a35.613,35.613,0,0,0-4.456.177M105,60.7v2.253h4.5v-4.5H105V60.7m6.751,0v2.253h4.5v-4.5h-4.5V60.7m6.743,0v2.253H123v-4.5h-4.5V60.7" transform="translate(2431 -5.7)" fill="#14157b" fill-rule="evenodd"/><g clip-path="url(#a)"><path d="M103.561,42.877a9.088,9.088,0,0,0-7.114,6.076C96,50.261,96,50.573,96,60.742s0,10.481.447,11.789a9.048,9.048,0,0,0,4.413,5.131c1.89.945,2.565,1.038,7.249,1.038h3.646V71.907H105V74.16h-.312a4.351,4.351,0,0,1-2.835-1.308,4.25,4.25,0,0,1-1.215-2.068c-.177-.768-.177-19.443,0-20.16a3.621,3.621,0,0,1,1.215-2.068,4.316,4.316,0,0,1,2.835-1.308H105V49.5h6.751V42.7h-3.738a35.613,35.613,0,0,0-4.456.177M105,60.7v2.253h4.5v-4.5H105V60.7m6.751,0v2.253h4.5v-4.5h-4.5V60.7m6.743,0v2.253H123v-4.5h-4.5V60.7" transform="translate(2431 -5.7)" fill="#7b87ff" fill-rule="evenodd"/></g></g></svg>