<?xml version="1.0" encoding="utf-8"?>
<!-- Generator: Adobe Illustrator 26.0.1, SVG Export Plug-In . SVG Version: 6.00 Build 0)  -->
<svg version="1.1" id="Capa_1" xmlns="http://www.w3.org/2000/svg" xmlns:xlink="http://www.w3.org/1999/xlink" x="0px" y="0px"
	 viewBox="0 0 512 512" style="enable-background:new 0 0 512 512;" xml:space="preserve">
<style type="text/css">
	.st0{fill:#7f92ff;}
</style>
<g>
	<g>
		<g>
			<path class="st0" d="M416,149.3c12.9,0,25.7,2.8,38.2,8.3c3.4,1.5,7.3,1.2,10.3-0.9c3-2.1,4.8-5.6,4.6-9.3
				c-1-22.9-19.7-40.8-42.5-40.8h-384C19.1,106.7,0,125.8,0,149.3V256c0,23.5,19.1,42.7,42.7,42.7H288c5.9,0,10.7-4.8,10.7-10.7
				v-10.7c0-13.6,6.7-26.6,18-34.7c2.5-1.8,4.1-4.5,4.4-7.5C326.3,186.2,367.2,149.3,416,149.3z M98.5,204.1
				c5.1,2.9,6.9,9.5,3.9,14.6c-2,3.4-5.6,5.3-9.2,5.3c-1.8,0-3.6-0.5-5.3-1.4l-2.5-1.4v2.9c0,5.9-4.8,10.7-10.7,10.7
				c-5.9,0-10.7-4.8-10.7-10.7v-2.9l-2.5,1.4c-1.7,1-3.5,1.4-5.3,1.4c-3.7,0-7.3-1.9-9.2-5.3c-2.9-5.1-1.2-11.6,3.9-14.6l2.5-1.4
				l-2.5-1.4c-5.1-2.9-6.9-9.5-3.9-14.6c2.9-5.1,9.5-6.9,14.6-3.9l2.5,1.4v-2.9c0-5.9,4.8-10.7,10.7-10.7s10.7,4.8,10.7,10.7v2.9
				l2.5-1.4c5.1-2.9,11.6-1.2,14.6,3.9c2.9,5.1,1.2,11.6-3.9,14.6l-2.5,1.4L98.5,204.1z M183.8,204.1c5.1,2.9,6.9,9.5,3.9,14.6
				c-2,3.4-5.6,5.3-9.2,5.3c-1.8,0-3.6-0.5-5.3-1.4l-2.5-1.4v2.9c0,5.9-4.8,10.7-10.7,10.7s-10.7-4.8-10.7-10.7v-2.9l-2.5,1.4
				c-1.7,1-3.5,1.4-5.3,1.4c-3.7,0-7.3-1.9-9.2-5.3c-2.9-5.1-1.2-11.6,3.9-14.6l2.5-1.4l-2.5-1.4c-5.1-2.9-6.9-9.5-3.9-14.6
				c2.9-5.1,9.5-6.9,14.6-3.9l2.5,1.4v-2.9c0-5.9,4.8-10.7,10.7-10.7s10.7,4.8,10.7,10.7v2.9l2.5-1.4c5.1-2.9,11.6-1.2,14.6,3.9
				c2.9,5.1,1.2,11.6-3.9,14.6l-2.5,1.4L183.8,204.1z M269.1,204.1c5.1,2.9,6.9,9.5,3.9,14.6c-2,3.4-5.6,5.3-9.2,5.3
				c-1.8,0-3.6-0.5-5.3-1.4l-2.5-1.4v2.9c0,5.9-4.8,10.7-10.7,10.7s-10.7-4.8-10.7-10.7v-2.9l-2.5,1.4c-1.7,1-3.5,1.4-5.3,1.4
				c-3.7,0-7.3-1.9-9.2-5.3c-2.9-5.1-1.2-11.6,3.9-14.6l2.5-1.4l-2.5-1.4c-5.1-2.9-6.9-9.5-3.9-14.6c2.9-5.1,9.5-6.9,14.6-3.9
				l2.5,1.4v-2.9c0-5.9,4.8-10.7,10.7-10.7s10.7,4.8,10.7,10.7v2.9l2.5-1.4c5.1-2.9,11.6-1.2,14.6,3.9c2.9,5.1,1.2,11.6-3.9,14.6
				l-2.5,1.4L269.1,204.1z"/>
			<path class="st0" d="M490.7,256v-10.7c0-41.2-33.5-74.7-74.7-74.7s-74.7,33.5-74.7,74.7V256c-11.8,0-21.3,9.6-21.3,21.3V384
				c0,11.8,9.6,21.3,21.3,21.3h149.3c11.8,0,21.3-9.6,21.3-21.3V277.3C512,265.6,502.4,256,490.7,256z M426.7,338.1V352
				c0,5.9-4.8,10.7-10.7,10.7s-10.7-4.8-10.7-10.7v-13.9c-6.3-3.7-10.7-10.3-10.7-18.1c0-11.8,9.6-21.3,21.3-21.3
				s21.3,9.6,21.3,21.3C437.3,327.8,432.9,334.3,426.7,338.1z M448,256h-64v-10.7c0-17.6,14.4-32,32-32s32,14.4,32,32V256z"/>
		</g>
	</g>
</g>
</svg>
