<?xml version="1.0" encoding="utf-8"?>
<!-- Generator: Adobe Illustrator 24.1.0, SVG Export Plug-In . SVG Version: 6.00 Build 0)  -->
<!DOCTYPE svg PUBLIC "-//W3C//DTD SVG 1.1//EN" "http://www.w3.org/Graphics/SVG/1.1/DTD/svg11.dtd" [
	<!ENTITY st0 "fill:#7f92ff;">
]>
<svg version="1.1" id="Capa_1" xmlns="http://www.w3.org/2000/svg" xmlns:xlink="http://www.w3.org/1999/xlink" x="0px" y="0px"
	 width="512px" height="512px" viewBox="0 0 512 512" style="enable-background:new 0 0 512 512;" xml:space="preserve">
<g>
	<g>
		<path style="&st0;" d="M467,61H45C20.2,61,0,81.2,0,106v300c0,24.8,20.2,45,45,45h422c24.8,0,45-20.2,45-45V106
			C512,81.2,491.8,61,467,61z M195,391c-72.7,0-135-59.5-135-135c0-74.4,60.6-135,135-135s135,60.6,135,135
			C330,332.1,267,391,195,391z M437,361h-62c-8.3,0-15-6.7-15-15c0-8.3,6.7-15,15-15h62c8.3,0,15,6.7,15,15S445.3,361,437,361z
			 M437,301h-62c-8.3,0-15-6.7-15-15c0-8.3,6.7-15,15-15h62c8.3,0,15,6.7,15,15S445.3,301,437,301z M437,241h-62
			c-8.3,0-15-6.7-15-15s6.7-15,15-15h62c8.3,0,15,6.7,15,15S445.3,241,437,241z M437,181h-62c-8.3,0-15-6.7-15-15s6.7-15,15-15h62
			c8.3,0,15,6.7,15,15S445.3,181,437,181z"/>
	</g>
</g>
<g>
	<g>
		<path style="&st0;" d="M195,151c-57.9,0-105,47.1-105,105c0,22.3,7.1,43,19.1,60c10.6-15.3,24.8-27.4,41.4-35.2
			C141,270.3,135,256.4,135,241c0-33.1,26.9-60,60-60s60,26.9,60,60c0,15.4-6,29.3-15.5,39.9c16.6,7.7,30.8,19.9,41.4,35.2
			c12-17,19.1-37.7,19.1-60C300,198.1,252.9,151,195,151z"/>
	</g>
</g>
<g>
	<g>
		<path style="&st0;" d="M195,211c-16.5,0-30,13.5-30,30s13.5,30,30,30s30-13.5,30-30S211.5,211,195,211z"/>
	</g>
</g>
<g>
	<g>
		<path style="&st0;" d="M195,301c-27,0-51.4,14.3-64.7,37.1c17.9,14.1,40.2,22.9,64.7,22.9s46.8-8.8,64.7-22.9
			C246.4,315.3,222,301,195,301z"/>
	</g>
</g>
</svg>
