<?xml version="1.0" encoding="utf-8"?>
<!-- Generator: Adobe Illustrator 24.1.0, SVG Export Plug-In . SVG Version: 6.00 Build 0)  -->
<!DOCTYPE svg PUBLIC "-//W3C//DTD SVG 1.1//EN" "http://www.w3.org/Graphics/SVG/1.1/DTD/svg11.dtd" [
	<!ENTITY st0 "fill:#7f92ff;">
]>
<svg version="1.1" id="Layer_1" xmlns="http://www.w3.org/2000/svg" xmlns:xlink="http://www.w3.org/1999/xlink" x="0px" y="0px"
	 viewBox="0 0 46.3 38" style="enable-background:new 0 0 46.3 38;" xml:space="preserve">
<g>
	<path style="&st0;" d="M32.6,0c-6,0-11,3.9-12.8,9.4c2.3,1,4.4,2.5,6,4.3v-1.5h2.7v2.7h-1.7c1.9,2.7,3.1,5.9,3.1,9.5
		c0,0.8-0.1,1.6-0.2,2.4c0.9,0.2,1.9,0.3,2.9,0.3h13.7l-2.1-6.3c1.4-2.2,2.1-4.6,2.1-7.2C46.3,6.1,40.1,0,32.6,0L32.6,0z M34,14.9
		h-2.7v-2.7H34V14.9z M39.4,14.9h-2.7v-2.7h2.7V14.9z"/>
	<path style="&st0;" d="M13.7,10.9C6.2,10.9,0,17,0,24.4c0,2.6,0.7,5.1,2.1,7.2L0,38h13.7c7.5,0,13.6-6.1,13.6-13.6
		S21.1,10.9,13.7,10.9z M15,32.6h-2.7v-2.7H15V32.6z M16.6,23.2c-1,1.1-1.6,2.5-1.6,4h-2.7c0-2.2,0.8-4.3,2.3-5.8
		c0.2-0.3,0.4-0.6,0.4-0.9c0-0.7-0.6-1.4-1.4-1.4s-1.4,0.6-1.4,1.4H9.6c0-2.2,1.8-4.1,4.1-4.1s4.1,1.8,4.1,4.1
		C17.7,21.4,17.3,22.4,16.6,23.2z"/>
</g>
</svg>
