<svg xmlns="http://www.w3.org/2000/svg" width="36" height="34.719" viewBox="0 0 36 34.719"><g transform="translate(-21.3 -16.7)"><path d="M73.817,40.934A9.817,9.817,0,1,0,64,31.117,9.816,9.816,0,0,0,73.817,40.934Zm0-16.359a6.542,6.542,0,1,1-6.542,6.542A6.543,6.543,0,0,1,73.817,24.575Z" transform="translate(-39.425 -4.247)" fill="#14157b"/><path d="M45.933,298.7A13.079,13.079,0,0,0,33.8,306.883h3.635a9.938,9.938,0,0,1,1.557-2.032,9.817,9.817,0,0,1,16.758,6.941h3.275A13.092,13.092,0,0,0,45.933,298.7Z" transform="translate(-11.541 -260.372)" fill="#14157b"/><path d="M427.292,16.7,424.6,18.656a19.694,19.694,0,0,1,0,16.428l2.692,1.956a22.939,22.939,0,0,0,0-20.339Z" transform="translate(-372.369)" fill="#7b87ff"/><path d="M353.5,69.994a13.146,13.146,0,0,1,0,8.5l2.746,1.994a16.4,16.4,0,0,0,0-12.486Z" transform="translate(-306.722 -47.366)" fill="#7b87ff"/><rect width="3.275" height="3.275" transform="translate(21.3 48.144)" fill="#7b87ff"/></g></svg>