<?xml version="1.0" encoding="utf-8"?>
<!-- Generator: Adobe Illustrator 24.1.0, SVG Export Plug-In . SVG Version: 6.00 Build 0)  -->
<svg version="1.1" id="Layer_1" xmlns="http://www.w3.org/2000/svg" xmlns:xlink="http://www.w3.org/1999/xlink" x="0px" y="0px"
	 width="180px" height="200px" viewBox="0 0 180 200" style="enable-background:new 0 0 180 200;" xml:space="preserve">
<g>
	<rect x="0.2" style="fill:#EAECF0;" width="179.6" height="180"/>
	<g>
		<path style="fill:#FFFFFF;" d="M141.8,51.6H38.6c-3.3,0-6,2.7-6,6v126c0,3.3,2.7,6,6,6h103.2c3.3,0,6-2.7,6-6v-126
			C147.8,54.3,145.1,51.6,141.8,51.6z"/>
	</g>
	<path style="fill:#EAECF0;" d="M79.4,63.6H48.2c-2,0-3.6,1.6-3.6,3.6s1.6,3.6,3.6,3.6h31.2c2,0,3.6-1.6,3.6-3.6
		S81.4,63.6,79.4,63.6z"/>
	<path style="fill:#EAECF0;" d="M79.4,114H48.2c-2,0-3.6,1.6-3.6,3.6s1.6,3.6,3.6,3.6h31.2c2,0,3.6-1.6,3.6-3.6S81.4,114,79.4,114z"
		/>
	<path style="fill:none;stroke:#98A2B3;stroke-width:2;" d="M129.8,81.6H50.6c-2.6,0-4.8,2.1-4.8,4.8v12c0,2.7,2.1,4.8,4.8,4.8h79.2
		c2.6,0,4.8-2.1,4.8-4.8v-12C134.6,83.8,132.5,81.6,129.8,81.6z"/>
	<path style="fill:#EAECF0;" d="M129.8,130.8H50.6c-3.3,0-6,2.7-6,6v9.6c0,3.3,2.7,6,6,6h79.2c3.3,0,6-2.7,6-6v-9.6
		C135.8,133.5,133.1,130.8,129.8,130.8z"/>
	<path style="fill:#EAECF0;" d="M103.4,105.6c3.3,0,6-2.7,6-6c0-3.3-2.7-6-6-6s-6,2.7-6,6C97.4,102.9,100.1,105.6,103.4,105.6z"/>
	<path style="fill:#98A2B3;stroke:#FFFFFF;" d="M108.1,125.2c-1,0-1.9,0-2.7-0.1c-1-0.1-2-0.4-2.8-1c-0.8-0.6-1.5-1.4-1.9-2.3
		l-5.1-10c-0.4-0.4-0.6-1-0.5-1.6c0-0.6,0.3-1.1,0.7-1.5c0.4-0.3,0.8-0.4,1.2-0.4c0.3,0,0.7,0.1,1,0.2c0.3,0.2,0.6,0.4,0.8,0.6
		l2.3,3.1l0,0v-11.9c0-0.6,0.2-1.2,0.6-1.6c0.4-0.4,1-0.6,1.6-0.6s1.2,0.2,1.6,0.6c0.4,0.4,0.6,1,0.6,1.6v7.8c0-0.3,0-0.6,0.1-0.9
		c0.1-0.3,0.2-0.5,0.4-0.7c0.2-0.2,0.4-0.4,0.7-0.5c0.3-0.1,0.6-0.2,0.8-0.2s0.6,0.1,0.8,0.2c0.3,0.1,0.5,0.3,0.7,0.5
		c0.2,0.2,0.3,0.5,0.4,0.7c0.1,0.3,0.1,0.6,0.1,0.9v1.6c0-0.3,0-0.6,0.1-0.8c0.1-0.3,0.2-0.5,0.4-0.7c0.2-0.2,0.4-0.4,0.7-0.5
		c0.3-0.1,0.5-0.2,0.8-0.2s0.6,0.1,0.8,0.2c0.3,0.1,0.5,0.3,0.7,0.5c0.2,0.2,0.3,0.5,0.4,0.7c0.1,0.3,0.1,0.6,0.1,0.8v1.3
		c0-0.3,0-0.6,0.1-0.8c0.1-0.3,0.2-0.5,0.4-0.7c0.2-0.2,0.4-0.4,0.7-0.5c0.3-0.1,0.6-0.2,0.8-0.2c0.3,0,0.6,0.1,0.8,0.2
		c0.3,0.1,0.5,0.3,0.7,0.5c0.2,0.2,0.3,0.5,0.4,0.7c0.1,0.3,0.1,0.6,0.1,0.8v7.6c0,2.3-1.1,6.3-4.8,6.3
		C113,125.1,110.7,125.3,108.1,125.2L108.1,125.2z"/>
	<rect x="59" y="28.8" style="fill:#FFFFFF;" width="9.6" height="9.6"/>
	<rect x="85.4" y="28.8" style="fill:#98A2B3;" width="9.6" height="9.6"/>
	<rect x="111.8" y="28.8" style="fill:#667085;" width="9.6" height="9.6"/>
	<g>
		<path style="fill:#98A2B3;" d="M80.5,180.7v4.2h-2.1v3.1h-5.7v-3.1h-8.2l-0.8-4.4l8.1-10.3h6.5v10.5H80.5z M72.7,180.7v-4l-3,4
			H72.7z"/>
		<path style="fill:#98A2B3;" d="M90.3,188.3c-5.2,0-8.4-3.5-8.4-9.1c0-5.6,3.2-9.1,8.4-9.1c5.2,0,8.4,3.5,8.4,9.1
			C98.7,184.7,95.5,188.3,90.3,188.3z M90.3,183.2c1.6,0,2.6-1.5,2.6-4c0-2.5-1-4-2.6-4c-1.6,0-2.6,1.5-2.6,4
			C87.7,181.6,88.7,183.2,90.3,183.2z"/>
		<path style="fill:#98A2B3;" d="M116.8,180.7v4.2h-2.1v3.1H109v-3.1h-8.2l-0.8-4.4l8.1-10.3h6.5v10.5H116.8z M109,180.7v-4l-3,4
			H109z"/>
	</g>
</g>
</svg>
