<?xml version="1.0" encoding="utf-8"?>
<!-- Generator: Adobe Illustrator 26.0.1, SVG Export Plug-In . SVG Version: 6.00 Build 0)  -->
<svg version="1.1" id="Layer_1" xmlns="http://www.w3.org/2000/svg" xmlns:xlink="http://www.w3.org/1999/xlink" x="0px" y="0px"
	 width="256px" height="256px" viewBox="0 0 256 256" style="enable-background:new 0 0 256 256;" xml:space="preserve">
<style type="text/css">
	.st0{fill:url(#Ellipse_652_00000127021323838959561770000003228262427718679725_);}
	.st1{fill:#FFFFFF;}
	.st2{fill:#1485FD;}
	.st3{fill:#E1EBFA;}
	.st4{fill:#09AD95;}
</style>
<g id="Mask_Group_2" transform="translate(-105 -203)">
	
		<linearGradient id="Ellipse_652_00000078046079217160120400000013904008785008088730_" gradientUnits="userSpaceOnUse" x1="213.0367" y1="0.8113" x2="213.0367" y2="2.4047" gradientTransform="matrix(150 0 0 150 -31722 86)">
		<stop  offset="0" style="stop-color:#E3ECFA"/>
		<stop  offset="1" style="stop-color:#DAE7FF"/>
	</linearGradient>
	<path id="Ellipse_652" style="fill:url(#Ellipse_652_00000078046079217160120400000013904008785008088730_);" d="M353,327.2
		c0,66-53.5,119.5-119.5,119.5S114,393.2,114,327.2s53.5-119.5,119.5-119.5S353,261.1,353,327.2z"/>
	<g id="Ellipse_653-2_00000018227295712310306930000007952319925110124951_">
		<path id="Rectangle_5615_00000045589249744414487480000008446537763219495334_" class="st1" d="M165,256.2h137c4.4,0,8,3.6,8,8
			v186.3c0,4.4-3.6,8-8,8H165c-4.4,0-8-3.6-8-8V264.1C157,259.7,160.6,256.2,165,256.2z"/>
	</g>
	<g id="Layer_2_00000050631234736861247880000013284761531278282925_">
		<path class="st2" d="M233,325.1c-10.4,0-19-8.6-19-19c0-10.4,8.6-19,19-19c10.4,0,19,8.6,19,19C252,316.5,243.6,325.1,233,325.1z
			 M233,293.5c-7,0-12.7,5.7-12.7,12.7c0,7,5.7,12.7,12.7,12.7s12.7-5.7,12.7-12.7C245.7,299.2,240,293.5,233,293.5z"/>
		<path class="st2" d="M233,369.5c-14.2,0-27.7-6.4-36.8-17.3l-1.7-2l1.7-2c16.7-20.2,46.6-23.1,66.8-6.6c2.5,2,4.6,4.1,6.6,6.6
			l1.7,2l-1.7,2C260.7,363.1,247.2,369.5,233,369.5z M203,350.1c15.5,16.5,41.5,17.5,58.2,2c0.6-0.6,1.4-1.2,2-2
			c-15.5-16.5-41.5-17.5-58.2-2C204.4,348.7,203.6,349.5,203,350.1z"/>
		<path class="st2" d="M233,369.5c-26.2,0-47.5-21.3-47.5-47.5s21.3-47.5,47.5-47.5s47.5,21.3,47.5,47.5c0,11-3.8,21.6-10.7,30.2
			C260.7,363.1,247.2,369.5,233,369.5z M233,280.8c-22.7,0-41.2,18.4-41.2,41.2c0,22.7,18.4,41.2,41.2,41.2
			c22.7,0,41.2-18.4,41.2-41.2C274.2,299.2,255.8,280.8,233,280.8z"/>
		<path class="st2" d="M198.8,350.1c0,0,31.9,35.5,64.3,3.5l4.1-3.5c0,0-27.1-28.2-54.7-11.2L198.8,350.1z"/>
		<circle class="st2" cx="233" cy="306.1" r="15.8"/>
	</g>
	<g id="Group_26781">
		<path id="Ellipse_654" class="st1" d="M204.8,239.3c0,3.5-2.9,6.4-6.4,6.4s-6.4-2.9-6.4-6.4s2.9-6.4,6.4-6.4
			S204.8,235.7,204.8,239.3z"/>
		<path id="Ellipse_655" class="st2" d="M239.9,239.3c0,3.5-2.9,6.4-6.4,6.4s-6.4-2.9-6.4-6.4s2.9-6.4,6.4-6.4
			S239.9,235.7,239.9,239.3z"/>
		<path id="Ellipse_656" class="st1" d="M274.9,239.3c0,3.5-2.9,6.4-6.4,6.4s-6.4-2.9-6.4-6.4s2.9-6.4,6.4-6.4
			S274.9,235.7,274.9,239.3z"/>
	</g>
</g>
<path id="Rectangle_5617" class="st3" d="M107.3,235.5h41.4c2.6,0,4.8,2.1,4.8,4.8s-2.1,4.8-4.8,4.8l0,0h-41.4
	c-2.6,0-4.8-2.1-4.8-4.8S104.6,235.5,107.3,235.5z"/>
<g>
	<g id="_x30_1_Logout">
	</g>
	<g id="_x30_2_User">
	</g>
	<g id="_x30_3_Login">
	</g>
	<g id="_x30_4_Close">
	</g>
	<g id="_x30_5_Accept">
		<g>
			<path class="st4" d="M148.2,191.4c-1.8-3.9-4.7-7.1-8.4-9.4c-5.1-3.2-11.1-4.2-16.9-2.8c-5.8,1.3-10.8,4.9-14,9.9
				c-3.2,5.1-4.2,11.1-2.8,16.9c1.3,5.8,4.9,10.8,9.9,14c3.6,2.2,7.7,3.4,11.9,3.4h0.3c4.2-0.1,8.2-1.3,11.7-3.5c1-0.6,1.3-2,0.7-3
				s-2-1.3-3-0.7c-2.8,1.8-6.1,2.8-9.5,2.8c-3.4,0-6.8-0.9-9.8-2.7c-4.1-2.6-6.9-6.5-8-11.2c-1.1-4.7-0.3-9.5,2.3-13.6
				c5.3-8.4,16.4-11,24.8-5.7c2.9,1.8,5.3,4.5,6.7,7.6c1.4,3,2,6.4,1.6,9.7c-0.1,1.2,0.7,2.3,1.9,2.4c1.2,0.1,2.3-0.7,2.4-1.9
				C150.7,199.3,150,195.1,148.2,191.4L148.2,191.4z"/>
			<path class="st4" d="M135.2,193.3l-10.5,10.5l-3.9-3.9c-0.9-0.9-2.2-0.9-3.1,0s-0.9,2.2,0,3.1l5.5,5.5c0.4,0.4,1,0.6,1.5,0.6
				c0.6,0,1.1-0.2,1.5-0.6l12.1-12.1c0.9-0.9,0.9-2.2,0-3.1C137.5,192.5,136.1,192.5,135.2,193.3L135.2,193.3z"/>
		</g>
	</g>
	<g id="_x30_6_Heart">
	</g>
	<g id="_x30_7_Shopping_Bag">
	</g>
	<g id="_x30_8_Cursor">
	</g>
	<g id="_x30_9_Settings">
	</g>
	<g id="_x31_0_Location">
	</g>
	<g id="_x31_1_Star">
	</g>
	<g id="_x31_2_Cloud">
	</g>
	<g id="_x31_3_Plus">
	</g>
	<g id="_x31_4_Search">
	</g>
	<g id="_x31_5_Chat">
	</g>
	<g id="_x31_6_Success">
	</g>
	<g id="_x31_7_Download">
	</g>
	<g id="_x31_8_Pencil">
	</g>
	<g id="_x31_9_Chevron">
	</g>
	<g id="_x32_0_User">
	</g>
	<g id="_x32_1_Minus">
	</g>
	<g id="_x32_2_Loading">
	</g>
	<g id="_x32_3_Upload">
	</g>
	<g id="_x32_4_Password">
	</g>
	<g id="_x32_5_Info">
	</g>
	<g id="_x32_6_Settings">
	</g>
	<g id="_x32_7_Chevron">
	</g>
	<g id="_x32_8_Menu">
	</g>
	<g id="_x32_9_Share">
	</g>
	<g id="_x33_0_Chevron">
	</g>
	<g id="_x33_1_Smartphone">
	</g>
	<g id="_x33_2_Link">
	</g>
	<g id="_x33_3_Folder">
	</g>
	<g id="_x33_4_Checked">
	</g>
	<g id="_x33_5_Bookmark">
	</g>
	<g id="_x33_6_Filter">
	</g>
	<g id="_x33_7_Cloud_Computing">
	</g>
	<g id="_x33_8_Question">
	</g>
	<g id="_x33_9_Eye">
	</g>
	<g id="_x34_0_Zoom_In">
	</g>
	<g id="_x34_1_Zoom_Out">
	</g>
	<g id="_x34_2_Trash">
	</g>
	<g id="_x34_3_Trash_Bin">
	</g>
	<g id="_x34_4_Send">
	</g>
	<g id="_x34_5_Notification">
	</g>
	<g id="_x34_6_Phone_Call">
	</g>
	<g id="_x34_7_Email">
	</g>
	<g id="_x34_8_Shopping_Cart">
	</g>
	<g id="_x34_9_Camera">
	</g>
	<g id="_x35_0_Menu">
	</g>
</g>
</svg>
