<svg xmlns="http://www.w3.org/2000/svg" xmlns:xlink="http://www.w3.org/1999/xlink" width="301" height="5" viewBox="0 0 301 5"><defs><clipPath id="a"><rect width="301" height="5" transform="translate(2340 567)" fill="#fff" stroke="#707070" stroke-width="1"/></clipPath></defs><g transform="translate(-2340 -567)" clip-path="url(#a)"><g transform="translate(2350 567)"><rect width="5" height="5" transform="translate(0 5) rotate(-90)" fill="#5e1ad5"/><rect width="5" height="5" transform="translate(18.4 5) rotate(-90)" fill="#000067"/><rect width="5" height="5" transform="translate(36.8 5) rotate(-90)" fill="#000067"/><rect width="5" height="5" transform="translate(55.2 5) rotate(-90)" fill="#000067"/><rect width="5" height="5" transform="translate(73.6 5) rotate(-90)" fill="#7b87ff"/><rect width="5" height="5" transform="translate(92 5) rotate(-90)" fill="#7b87ff"/><rect width="5" height="5" transform="translate(110.4 5) rotate(-90)" fill="#7b87ff"/><rect width="5" height="5" transform="translate(128.8 5) rotate(-90)" fill="#7b87ff"/><rect width="5" height="5" transform="translate(147.2 5) rotate(-90)" fill="#00d1ff"/><rect width="5" height="5" transform="translate(165.6 5) rotate(-90)" fill="#00d1ff"/><rect width="5" height="5" transform="translate(184 5) rotate(-90)" fill="#00d1ff"/><rect width="5" height="5" transform="translate(202.4 5) rotate(-90)" fill="#5e1ad5"/><rect width="5" height="5" transform="translate(220.8 5) rotate(-90)" fill="#5e1ad5"/><rect width="5" height="5" transform="translate(239.2 5) rotate(-90)" fill="#000067"/><rect width="5" height="5" transform="translate(257.6 5) rotate(-90)" fill="#000067"/><rect width="5" height="5" transform="translate(276 5) rotate(-90)" fill="#7b87ff"/></g></g></svg>