<?xml version="1.0" encoding="utf-8"?>
<!-- Generator: Adobe Illustrator 24.1.0, SVG Export Plug-In . SVG Version: 6.00 Build 0)  -->
<svg version="1.1" id="Layer_1" xmlns="http://www.w3.org/2000/svg" xmlns:xlink="http://www.w3.org/1999/xlink" x="0px" y="0px"
	 width="85px" height="75px" viewBox="0 0 85 75" style="enable-background:new 0 0 85 75;" xml:space="preserve">
<g style="opacity:0.75;">
	<path style="fill:#FFFFFF;" d="M37.7,41.9c-1.1,1.1-2.6,1.8-4.3,1.8c-3.4,0-6.1-2.7-6.1-6.1s2.7-6.1,6.1-6.1c1.7,0,3.2,0.7,4.3,1.8
		L42,29c-2.2-2.2-5.3-3.6-8.7-3.6c-6.8,0-12.3,5.5-12.3,12.3S26.5,50,33.3,50c3.4,0,6.5-1.4,8.7-3.6L37.7,41.9z"/>
	<polygon style="fill:#FFFFFF;" points="85,25.4 67.2,25.4 67.2,31.5 76.6,31.5 73.1,33.5 73.1,49.8 79.2,49.8 79.2,31.5 85,31.5 	
		"/>
	<g>
		<path style="fill:#FFFFFF;" d="M4.6,22.6l-0.4-0.2C4.1,22.6,4,22.8,3.9,23l0.4,0.2C4.4,23,4.5,22.8,4.6,22.6L4.6,22.6z"/>
		<path style="fill:#FFFFFF;" d="M4.4,17l-0.6-0.4c-0.1,0.1-0.2,0.3-0.3,0.4l0.6,0.4C4.2,17.3,4.3,17.1,4.4,17L4.4,17z"/>
		<path style="fill:#FFFFFF;" d="M4.3,19.9l-0.4-0.2c-0.1,0.2-0.2,0.3-0.3,0.5L4,20.4C4.1,20.2,4.2,20.1,4.3,19.9z"/>
		<path style="fill:#FFFFFF;" d="M5.7,20.7l-0.5-0.3C5.1,20.6,5,20.8,4.9,21l0.5,0.3C5.5,21.1,5.6,20.9,5.7,20.7L5.7,20.7z"/>
		<path style="fill:#FFFFFF;" d="M5,25.3l-0.3-0.1c-0.1,0.2-0.1,0.4-0.2,0.6l0.2,0.1C4.8,25.7,4.9,25.5,5,25.3z"/>
		<path style="fill:#FFFFFF;" d="M4.9,18l0.5,0.3c0.1-0.1,0.2-0.3,0.3-0.4l-0.5-0.3C5.2,17.7,5,17.9,4.9,18z"/>
		<path style="fill:#FFFFFF;" d="M2.4,18.9c-0.1,0.1-0.2,0.3-0.3,0.4l0.5,0.3c0.1-0.2,0.2-0.3,0.3-0.4L2.4,18.9L2.4,18.9z"/>
		<path style="fill:#FFFFFF;" d="M6.1,15l-0.7-0.5C5.3,14.7,5.1,14.9,5,15l0.7,0.5c0.1-0.1,0.1-0.2,0.2-0.3C5.9,15.1,6,15.1,6.1,15
			L6.1,15z"/>
		<path style="fill:#FFFFFF;" d="M3.5,24.8l-0.3-0.1C3.1,24.8,3.1,25,3,25.1l0.3,0.1C3.3,25.1,3.4,24.9,3.5,24.8z"/>
		<path style="fill:#FFFFFF;" d="M9.8,11.3L9,10.4c-0.3,0.2-0.5,0.5-0.8,0.7L9,12C9.2,11.8,9.5,11.6,9.8,11.3L9.8,11.3z"/>
		<path style="fill:#FFFFFF;" d="M8.2,17.5c0.2-0.2,0.3-0.4,0.5-0.5L8,16.5c-0.2,0.2-0.3,0.4-0.5,0.6L8.2,17.5L8.2,17.5z"/>
		<path style="fill:#FFFFFF;" d="M8.5,14.8c0.2-0.2,0.4-0.4,0.6-0.6l-0.7-0.6C8.2,13.8,8,14,7.8,14.2L8.5,14.8L8.5,14.8z"/>
		<path style="fill:#FFFFFF;" d="M7.5,19.8l0.6,0.4c0.1-0.2,0.2-0.3,0.4-0.5l-0.6-0.4C7.8,19.4,7.6,19.6,7.5,19.8L7.5,19.8z"/>
		<path style="fill:#FFFFFF;" d="M7.1,18.8l-0.6-0.4c-0.1,0.2-0.2,0.3-0.3,0.5l0.5,0.4C6.9,19.1,7,18.9,7.1,18.8L7.1,18.8z"/>
		<path style="fill:#FFFFFF;" d="M6.8,15.5c-0.1,0.1-0.2,0.2-0.2,0.3c-0.1,0.1-0.1,0.2-0.2,0.3l0.5,0.4C7,16.3,7.2,16.1,7.4,16
			L6.8,15.5L6.8,15.5z"/>
		<path style="fill:#FFFFFF;" d="M3.1,21.9l-0.3-0.1c-0.1,0.2-0.2,0.4-0.2,0.5l0.2,0.1C2.9,22.3,3,22.1,3.1,21.9z"/>
		<path style="fill:#FFFFFF;" d="M6.5,13l0.7,0.7c0.2-0.2,0.4-0.4,0.6-0.6L7,12.4C6.9,12.6,6.7,12.8,6.5,13z"/>
		<path style="fill:#FFFFFF;" d="M7.2,21.5l-0.5-0.3c-0.1,0.2-0.2,0.4-0.3,0.6l0.5,0.3C6.9,21.9,7.1,21.7,7.2,21.5L7.2,21.5z"/>
		<path style="fill:#FFFFFF;" d="M6.1,23.3l-0.4-0.2c-0.1,0.2-0.2,0.4-0.3,0.6l0.4,0.2C5.8,23.7,5.9,23.5,6.1,23.3z"/>
		<path style="fill:#FFFFFF;" d="M12.4,14.1c-0.2,0.2-0.5,0.4-0.7,0.7l0.7,0.7c0.2-0.2,0.5-0.4,0.7-0.7L12.4,14.1L12.4,14.1z"/>
		<path style="fill:#FFFFFF;" d="M13.3,11.5c-0.3,0.2-0.6,0.5-0.9,0.7L14,14c0.3-0.2,0.6-0.5,0.9-0.7L13.3,11.5L13.3,11.5z"/>
		<path style="fill:#FFFFFF;" d="M1.9,24.2l-0.2-0.1c-0.1,0.1-0.1,0.3-0.2,0.4l0.1,0.1C1.8,24.5,1.9,24.3,1.9,24.2L1.9,24.2z"/>
		<path style="fill:#FFFFFF;" d="M13.1,7.1c-0.4,0.3-0.8,0.6-1.1,0.8l0.9,1.2c0.4-0.3,0.8-0.5,1.2-0.7L13.1,7.1z"/>
		<path style="fill:#FFFFFF;" d="M10.7,15.7c-0.2,0.2-0.4,0.4-0.6,0.6l0.7,0.6c0,0,0,0,0.1-0.1c0.2-0.2,0.3-0.4,0.5-0.6L10.7,15.7
			L10.7,15.7z"/>
		<path style="fill:#FFFFFF;" d="M15.3,5.6c-0.5,0.3-0.9,0.6-1.4,0.9l3.4,5c0.4-0.2,0.8-0.5,1.2-0.7L15.3,5.6L15.3,5.6z"/>
		<path style="fill:#FFFFFF;" d="M33.5,0.8C28.1,0.8,23,2,18.4,4.1l2.8,5.4c3.8-1.7,8-2.6,12.4-2.6c3.7,0,7.3,0.7,10.6,1.9l2-5.8
			C42.2,1.6,38,0.8,33.5,0.8L33.5,0.8z"/>
		<path style="fill:#FFFFFF;" d="M17.7,4.4c-0.5,0.3-1.1,0.5-1.6,0.8l3.1,5.3c0.4-0.2,0.9-0.5,1.3-0.7L17.7,4.4L17.7,4.4z"/>
		<path style="fill:#FFFFFF;" d="M14.3,8.7c-0.4,0.3-0.7,0.5-1.1,0.8l2.5,3.2c0.3-0.2,0.7-0.5,1-0.7L14.3,8.7L14.3,8.7z"/>
		<path style="fill:#FFFFFF;" d="M0.3,24c0-0.1,0.1-0.2,0.1-0.3L0,23.6c0,0.1-0.1,0.2-0.1,0.3L0.3,24L0.3,24z"/>
		<path style="fill:#FFFFFF;" d="M9.6,14.7c-0.2,0.2-0.4,0.4-0.6,0.6l0.6,0.6c0.2-0.2,0.4-0.4,0.6-0.6L9.6,14.7L9.6,14.7z"/>
		<path style="fill:#FFFFFF;" d="M8.8,18l0.7,0.5c0.2-0.2,0.3-0.4,0.5-0.6l-0.7-0.5C9.1,17.6,8.9,17.8,8.8,18L8.8,18z"/>
		<path style="fill:#FFFFFF;" d="M1,21.5l0.4,0.2c0.1-0.2,0.2-0.3,0.2-0.5L1.1,21C1.1,21.2,1.1,21.4,1,21.5L1,21.5z"/>
		<path style="fill:#FFFFFF;" d="M12.2,10.2c-0.3,0.2-0.6,0.5-0.9,0.7l0.7,0.9c0.3-0.2,0.6-0.5,1-0.7C13,11.1,12.2,10.2,12.2,10.2z"
			/>
		<path style="fill:#FFFFFF;" d="M10.2,11.8c-0.3,0.2-0.5,0.5-0.7,0.7l0.7,0.7c0.3-0.2,0.5-0.4,0.8-0.6L10.2,11.8L10.2,11.8z"/>
		<path style="fill:#FFFFFF;" d="M12.1,13.7L11.4,13c-0.3,0.2-0.5,0.4-0.7,0.7l0.7,0.7C11.6,14.1,11.8,13.9,12.1,13.7L12.1,13.7z"/>
		<path style="fill:#FFFFFF;" d="M11.8,9.8l-0.9-1C10.6,9,10.3,9.2,10,9.5l0.8,1C11.2,10.2,11.5,10,11.8,9.8L11.8,9.8z"/>
	</g>
	<g>
		<path style="fill:#FFFFFF;" d="M55.1,66.8L54.5,66c-0.2,0.2-0.5,0.3-0.7,0.5l0.6,0.8C54.7,67.1,54.9,66.9,55.1,66.8L55.1,66.8z"/>
		<path style="fill:#FFFFFF;" d="M54,65.3l-0.5-0.7c-0.2,0.2-0.5,0.3-0.7,0.5l0.5,0.7C53.6,65.6,53.8,65.5,54,65.3L54,65.3z"/>
		<path style="fill:#FFFFFF;" d="M55.4,59.9l-0.5-0.5c-0.2,0.1-0.3,0.3-0.5,0.4l0.6,0.6C55.1,60.2,55.3,60.1,55.4,59.9L55.4,59.9z"
			/>
		<path style="fill:#FFFFFF;" d="M52.3,64.5c0.2-0.2,0.5-0.3,0.7-0.5l-0.5-0.7c-0.2,0.2-0.5,0.3-0.7,0.5L52.3,64.5L52.3,64.5z"/>
		<path style="fill:#FFFFFF;" d="M53.1,68.2l-0.6-1c-0.3,0.2-0.6,0.4-0.9,0.5l0.6,1C52.5,68.6,52.8,68.4,53.1,68.2L53.1,68.2z"/>
		<path style="fill:#FFFFFF;" d="M57.1,65.1l-0.6-0.7c-0.1,0.1-0.2,0.2-0.3,0.3c-0.1,0.1-0.1,0.1-0.2,0.2l0.6,0.7
			C56.7,65.4,56.9,65.3,57.1,65.1L57.1,65.1z"/>
		<path style="fill:#FFFFFF;" d="M55.6,64c0.1-0.1,0.2-0.2,0.3-0.3l-0.4-0.5c-0.2,0.1-0.4,0.3-0.6,0.4l0.5,0.5
			C55.4,64.2,55.5,64.1,55.6,64L55.6,64z"/>
		<path style="fill:#FFFFFF;" d="M57,58.2l-0.4-0.4c-0.2,0.2-0.3,0.3-0.5,0.5l0.5,0.4C56.7,58.5,56.9,58.3,57,58.2L57,58.2z"/>
		<path style="fill:#FFFFFF;" d="M56.5,61l-0.4-0.4c-0.1,0.1-0.3,0.3-0.4,0.4l0.5,0.5C56.3,61.3,56.4,61.2,56.5,61L56.5,61z"/>
		<path style="fill:#FFFFFF;" d="M57.6,62.1l-0.4-0.4c-0.1,0.1-0.3,0.2-0.4,0.4l0.4,0.4C57.4,62.4,57.5,62.3,57.6,62.1L57.6,62.1z"
			/>
		<path style="fill:#FFFFFF;" d="M52.7,61.2l0.6,0.7c0.2-0.2,0.4-0.3,0.6-0.5l-0.6-0.7C53.1,60.9,52.9,61.1,52.7,61.2L52.7,61.2z"/>
		<path style="fill:#FFFFFF;" d="M50,67.9l-0.6-1c-0.4,0.2-0.7,0.3-1.1,0.5l0.6,1.1C49.3,68.3,49.6,68.1,50,67.9L50,67.9z"/>
		<path style="fill:#FFFFFF;" d="M46.7,70l0.6,1.4c0.4-0.2,0.9-0.4,1.3-0.6L48,69.5C47.6,69.6,47.2,69.8,46.7,70L46.7,70z"/>
		<path style="fill:#FFFFFF;" d="M42,66.8c-0.5,0.1-1,0.3-1.5,0.4l1.7,5.9c0.6-0.2,1.2-0.3,1.8-0.5L42,66.8z"/>
		<path style="fill:#FFFFFF;" d="M51.2,65.3l-0.5-0.8c-0.3,0.2-0.6,0.3-0.9,0.5l0.5,0.9C50.6,65.7,50.9,65.5,51.2,65.3L51.2,65.3z"
			/>
		<path style="fill:#FFFFFF;" d="M54.8,62.6L54.4,62c-0.2,0.1-0.4,0.3-0.6,0.4l0.5,0.6C54.5,62.9,54.7,62.7,54.8,62.6z"/>
		<path style="fill:#FFFFFF;" d="M52.1,66.7l-0.5-0.8c-0.3,0.2-0.6,0.3-0.9,0.5l0.6,0.9C51.5,67,51.8,66.9,52.1,66.7L52.1,66.7z"/>
		<path style="fill:#FFFFFF;" d="M50.9,69.6l-0.6-1.1c-0.4,0.2-0.7,0.4-1.1,0.5l0.7,1.2C50.2,70,50.6,69.8,50.9,69.6L50.9,69.6z"/>
		<path style="fill:#FFFFFF;" d="M49.5,64.6c0.3-0.2,0.6-0.3,0.9-0.5l-0.6-0.8c-0.3,0.2-0.6,0.4-0.8,0.5L49.5,64.6L49.5,64.6z"/>
		<path style="fill:#FFFFFF;" d="M63.1,57.5l0.3,0.2c0.1-0.1,0.1-0.2,0.2-0.3l-0.3-0.2C63.2,57.3,63.2,57.4,63.1,57.5z"/>
		<path style="fill:#FFFFFF;" d="M61.9,59.9c0.1-0.1,0.2-0.3,0.3-0.4l-0.4-0.3c-0.1,0.1-0.2,0.3-0.3,0.4L61.9,59.9L61.9,59.9z"/>
		<path style="fill:#FFFFFF;" d="M51.5,63.3c0.2-0.2,0.5-0.3,0.7-0.5L51.6,62c-0.1,0-0.1,0.1-0.2,0.1l0,0c-0.2,0.1-0.4,0.3-0.5,0.4
			L51.5,63.3L51.5,63.3z"/>
		<path style="fill:#FFFFFF;" d="M62.2,56.4L62,56.3c-0.1,0.1-0.2,0.2-0.2,0.3l0.2,0.1C62,56.6,62.1,56.5,62.2,56.4L62.2,56.4z"/>
		<path style="fill:#FFFFFF;" d="M48.1,67c0.4-0.2,0.7-0.3,1.1-0.5L48,64.3c-0.3,0.2-0.7,0.4-1,0.5L48.1,67L48.1,67z"/>
		<path style="fill:#FFFFFF;" d="M58.2,59.2l-0.4-0.3c-0.1,0.1-0.3,0.3-0.4,0.4l0.4,0.3C57.9,59.5,58.1,59.4,58.2,59.2L58.2,59.2z"
			/>
		<path style="fill:#FFFFFF;" d="M44.8,72.4c0.5-0.2,1-0.4,1.5-0.6L44,66.1c-0.4,0.2-0.9,0.3-1.3,0.5L44.8,72.4L44.8,72.4z"/>
		<path style="fill:#FFFFFF;" d="M46.6,69.5c0.4-0.2,0.9-0.4,1.3-0.6L46,65.3c-0.4,0.2-0.8,0.3-1.1,0.5L46.6,69.5L46.6,69.5z"/>
		<path style="fill:#FFFFFF;" d="M39.8,67.4c-2.2,0.5-4.4,0.7-6.7,0.7c-5.9,0-11.5-1.7-16.2-4.6l-3.2,5.3c5.6,3.5,12.3,5.5,19.4,5.5
			c2.9,0,5.7-0.3,8.4-1L39.8,67.4L39.8,67.4z"/>
		<path style="fill:#FFFFFF;" d="M59.3,60.3L59,60c-0.1,0.1-0.3,0.3-0.4,0.4l0.3,0.3C59.1,60.5,59.2,60.4,59.3,60.3L59.3,60.3z"/>
		<path style="fill:#FFFFFF;" d="M59.2,57.9c0.1-0.2,0.3-0.3,0.4-0.5l-0.3-0.2c-0.1,0.2-0.3,0.3-0.4,0.5L59.2,57.9L59.2,57.9z"/>
		<path style="fill:#FFFFFF;" d="M58.9,63.4l-0.5-0.5c-0.1,0.1-0.3,0.2-0.4,0.3l0.5,0.5C58.6,63.7,58.7,63.5,58.9,63.4L58.9,63.4z"
			/>
		<path style="fill:#FFFFFF;" d="M58.3,56.4L58,56.2c-0.2,0.2-0.3,0.4-0.5,0.5l0.4,0.3C58.1,56.8,58.2,56.6,58.3,56.4z"/>
		<path style="fill:#FFFFFF;" d="M60.9,55.5l-0.2-0.2c-0.1,0.1-0.2,0.3-0.3,0.4l0.2,0.2C60.7,55.8,60.8,55.7,60.9,55.5L60.9,55.5z"
			/>
		<path style="fill:#FFFFFF;" d="M59.9,61.4l0.5,0.4c0.1-0.1,0.2-0.3,0.3-0.4L60.2,61C60.1,61.2,60,61.3,59.9,61.4L59.9,61.4z"/>
		<path style="fill:#FFFFFF;" d="M60.5,58.8c0.1-0.1,0.2-0.3,0.3-0.5l-0.2-0.2c-0.1,0.1-0.2,0.3-0.4,0.4L60.5,58.8L60.5,58.8z"/>
		<path style="fill:#FFFFFF;" d="M59.3,54.4c-0.1,0.2-0.2,0.3-0.3,0.5l0.3,0.2c0.1-0.2,0.2-0.3,0.3-0.5L59.3,54.4L59.3,54.4z"/>
	</g>
	<g>
		<path style="fill:#FFFFFF;" d="M21,51.5c-0.2-0.2-0.4-0.3-0.6-0.5l-0.6,0.6c0.2,0.2,0.4,0.4,0.6,0.6L21,51.5z"/>
		<path style="fill:#FFFFFF;" d="M19.1,49.7l-0.5,0.4c0.2,0.2,0.4,0.5,0.5,0.7l0.6-0.5C19.4,50.1,19.3,49.9,19.1,49.7L19.1,49.7z"/>
		<path style="fill:#FFFFFF;" d="M21.5,53.8c-0.2-0.1-0.5-0.3-0.7-0.5L20.2,54c0.2,0.2,0.5,0.4,0.7,0.6L21.5,53.8L21.5,53.8z"/>
		<path style="fill:#FFFFFF;" d="M17,49.9c-0.2-0.2-0.3-0.4-0.5-0.6l-0.3,0.2c0.1,0.2,0.3,0.4,0.4,0.7L17,49.9L17,49.9z"/>
		<path style="fill:#FFFFFF;" d="M19.8,52.7c-0.2-0.2-0.5-0.4-0.7-0.6l-0.5,0.5c0.2,0.2,0.4,0.4,0.6,0.6L19.8,52.7L19.8,52.7z"/>
		<path style="fill:#FFFFFF;" d="M17.9,51.8l0.4-0.4c-0.2-0.2-0.4-0.4-0.6-0.6l-0.4,0.3C17.6,51.4,17.7,51.6,17.9,51.8L17.9,51.8z"
			/>
		<path style="fill:#FFFFFF;" d="M43.2,53.3c-3,1.9-6.5,2.9-10.2,2.8c-1.1,0-2.2-0.2-3.3-0.4l-1.3,6c1.4,0.3,2.9,0.5,4.5,0.5
			c5,0.1,9.7-1.3,13.6-3.8L43.2,53.3z"/>
		<path style="fill:#FFFFFF;" d="M14,51.1l-0.4,0.2c0.2,0.2,0.3,0.5,0.5,0.7l0.4-0.3C14.3,51.5,14.1,51.3,14,51.1L14,51.1z"/>
		<path style="fill:#FFFFFF;" d="M27.9,55.3l-1.8,5.8c0.4,0.1,0.8,0.3,1.2,0.4c0.2,0,0.3,0.1,0.5,0.1l1.4-6
			C28.8,55.6,28.4,55.4,27.9,55.3L27.9,55.3z"/>
		<path style="fill:#FFFFFF;" d="M15.4,52.8L15,53.2c0.2,0.3,0.4,0.5,0.6,0.8l0.5-0.4C15.8,53.3,15.6,53,15.4,52.8L15.4,52.8z"/>
		<path style="fill:#FFFFFF;" d="M21.1,52.9c0.2,0.2,0.4,0.4,0.7,0.5l0.7-0.9c-0.2-0.1-0.4-0.3-0.6-0.4L21.1,52.9L21.1,52.9z"/>
		<path style="fill:#FFFFFF;" d="M22.7,55.8l0.6-1c-0.3-0.1-0.6-0.3-0.9-0.4l-0.6,0.9C22.1,55.4,22.4,55.6,22.7,55.8L22.7,55.8z"/>
		<path style="fill:#FFFFFF;" d="M15.7,50.8c-0.2-0.2-0.3-0.4-0.5-0.6L15,50.4c0.1,0.2,0.3,0.5,0.4,0.7L15.7,50.8L15.7,50.8z"/>
		<path style="fill:#FFFFFF;" d="M18.4,48.9c-0.2-0.2-0.3-0.4-0.5-0.6l-0.4,0.3c0.1,0.2,0.3,0.4,0.4,0.6L18.4,48.9L18.4,48.9z"/>
		<path style="fill:#FFFFFF;" d="M23.7,58.6c-0.4-0.2-0.8-0.3-1.2-0.5l-0.6,1.1c0.4,0.2,0.8,0.5,1.3,0.7L23.7,58.6L23.7,58.6z"/>
		<path style="fill:#FFFFFF;" d="M25.9,59.4c-0.5-0.1-1-0.3-1.4-0.4L24,60.2c0.5,0.2,1,0.4,1.5,0.6L25.9,59.4L25.9,59.4z"/>
		<path style="fill:#FFFFFF;" d="M24.4,57c-0.4-0.1-0.8-0.3-1.1-0.4l-0.5,1c0.4,0.2,0.8,0.4,1.2,0.6L24.4,57L24.4,57z"/>
		<path style="fill:#FFFFFF;" d="M27.3,55.1c-0.4-0.1-0.7-0.3-1.1-0.4l-1.6,3.9c0.4,0.2,0.9,0.4,1.4,0.5L27.3,55.1z"/>
		<path style="fill:#FFFFFF;" d="M22.6,54c0.3,0.2,0.5,0.3,0.8,0.5l0.6-0.9c-0.3-0.2-0.5-0.3-0.8-0.5L22.6,54L22.6,54z"/>
		<path style="fill:#FFFFFF;" d="M17.2,52.5c-0.2-0.2-0.4-0.4-0.6-0.7l-0.4,0.3c0.2,0.2,0.4,0.5,0.6,0.7L17.2,52.5L17.2,52.5z"/>
		<path style="fill:#FFFFFF;" d="M23.5,56.2c0.4,0.2,0.7,0.3,1.1,0.5l1.1-2.3c-0.3-0.1-0.6-0.3-0.9-0.5L23.5,56.2L23.5,56.2z"/>
		<path style="fill:#FFFFFF;" d="M19.6,56.4c-0.1-0.1-0.3-0.2-0.4-0.3s-0.3-0.2-0.4-0.3l-0.6,0.7c0.3,0.2,0.6,0.5,0.8,0.7L19.6,56.4
			L19.6,56.4z"/>
		<path style="fill:#FFFFFF;" d="M18.7,53.8c-0.2-0.2-0.5-0.4-0.7-0.6l-0.4,0.4c0.2,0.2,0.5,0.5,0.7,0.7L18.7,53.8L18.7,53.8z"/>
		<path style="fill:#FFFFFF;" d="M22.4,56.2c-0.3-0.2-0.6-0.3-1-0.5l-0.5,0.8c0.3,0.2,0.6,0.4,1,0.6L22.4,56.2z"/>
		<path style="fill:#FFFFFF;" d="M17.7,55c-0.3-0.2-0.5-0.4-0.8-0.7l-0.5,0.5c0.2,0.3,0.5,0.5,0.7,0.7L17.7,55L17.7,55z"/>
		<path style="fill:#FFFFFF;" d="M21.6,57.6c-0.3-0.2-0.7-0.4-1-0.6L20,57.9c0.3,0.2,0.7,0.5,1,0.7L21.6,57.6L21.6,57.6z"/>
		<path style="fill:#FFFFFF;" d="M20,55.8l0.5-0.7c-0.3-0.2-0.5-0.3-0.8-0.5l-0.5,0.6c0.1,0.1,0.3,0.2,0.4,0.3
			C19.7,55.6,19.9,55.7,20,55.8L20,55.8z"/>
	</g>
	<g>
		<path style="fill:#FFFFFF;" d="M30.3,17.4l-0.1-0.5c-0.3,0-0.6,0.1-1,0.1l0.1,0.6C29.7,17.5,30,17.5,30.3,17.4L30.3,17.4z"/>
		<path style="fill:#FFFFFF;" d="M30.5,19.1l-0.1-0.7c-0.3,0-0.6,0.1-0.9,0.1l0.1,0.8C29.9,19.2,30.2,19.1,30.5,19.1L30.5,19.1z"/>
		<path style="fill:#FFFFFF;" d="M17.7,18.6l1,1.2c0.4-0.3,0.7-0.6,1.1-0.9L19,17.7C18.5,18,18.1,18.3,17.7,18.6L17.7,18.6z"/>
		<path style="fill:#FFFFFF;" d="M22.4,19.1l-0.6-1c-0.4,0.2-0.7,0.4-1.1,0.7l0.7,1.1C21.7,19.5,22,19.3,22.4,19.1z"/>
		<path style="fill:#FFFFFF;" d="M28.8,13.9l0.1,0.6c0.3-0.1,0.7-0.1,1-0.2l-0.1-0.6C29.5,13.8,29.1,13.8,28.8,13.9L28.8,13.9z"/>
		<path style="fill:#FFFFFF;" d="M23.4,16.5l-0.4-1c-0.4,0.2-0.8,0.3-1.1,0.5l0.5,1C22.7,16.9,23.1,16.7,23.4,16.5L23.4,16.5z"/>
		<path style="fill:#FFFFFF;" d="M21.5,17.6l-0.6-1.1c-0.4,0.2-0.8,0.5-1.2,0.7l0.8,1.1C20.8,18.1,21.2,17.8,21.5,17.6L21.5,17.6z"
			/>
		<path style="fill:#FFFFFF;" d="M31.2,13.7v0.5c0.3,0,0.6-0.1,0.9-0.1v-0.4C31.9,13.6,31.5,13.6,31.2,13.7L31.2,13.7z"/>
		<path style="fill:#FFFFFF;" d="M32.2,15.6v-0.3c-0.3,0-0.6,0-0.9,0v0.4C31.6,15.6,31.9,15.6,32.2,15.6L32.2,15.6z"/>
		<path style="fill:#FFFFFF;" d="M17.1,19c-0.3,0.2-0.6,0.5-0.8,0.7c-0.1,0.1-0.3,0.3-0.4,0.4l4.3,4.3c0.3-0.3,0.6-0.5,0.9-0.8
			L17.1,19L17.1,19z"/>
		<path style="fill:#FFFFFF;" d="M32.4,18.8v-0.5c-0.3,0-0.6,0-0.9,0v0.6C31.8,18.9,32.1,18.8,32.4,18.8L32.4,18.8z"/>
		<path style="fill:#FFFFFF;" d="M30.1,15.9L30,15.4c-0.3,0-0.7,0.1-1,0.1l0.1,0.5C29.4,16,29.8,15.9,30.1,15.9L30.1,15.9z"/>
		<path style="fill:#FFFFFF;" d="M32.3,17.1v-0.3c-0.3,0-0.6,0-0.9,0v0.4C31.7,17.2,32,17.1,32.3,17.1L32.3,17.1z"/>
		<path style="fill:#FFFFFF;" d="M27.7,14.8l-0.2-0.7c-0.4,0.1-0.7,0.2-1,0.2l0.2,0.8C27,15,27.3,14.9,27.7,14.8L27.7,14.8z"/>
		<path style="fill:#FFFFFF;" d="M28.4,17.9l-0.1-0.7c-0.3,0.1-0.6,0.1-0.9,0.2l0.2,0.7C27.8,18.1,28.1,18,28.4,17.9z"/>
		<path style="fill:#FFFFFF;" d="M28.7,19.5l-0.2-0.8c-0.3,0.1-0.6,0.1-0.9,0.2l0.2,0.9C28.2,19.7,28.5,19.6,28.7,19.5L28.7,19.5z"
			/>
		<path style="fill:#FFFFFF;" d="M22.6,19.4c-0.3,0.2-0.7,0.4-1,0.6l1.4,2.1c0.3-0.2,0.5-0.3,0.8-0.5L22.6,19.4z"/>
		<path style="fill:#FFFFFF;" d="M24.1,18l-0.4-0.9c-0.3,0.2-0.7,0.3-1,0.5l0.5,1C23.5,18.4,23.8,18.2,24.1,18z"/>
		<path style="fill:#FFFFFF;" d="M24.9,19.9c-0.3,0.1-0.6,0.3-0.8,0.4l0.5,1c0.3-0.1,0.5-0.3,0.8-0.4L24.9,19.9L24.9,19.9z"/>
		<path style="fill:#FFFFFF;" d="M15.5,20.5c-4.3,4.4-6.9,10.4-6.9,17h6.1c0-5,2-9.4,5.2-12.7L15.5,20.5L15.5,20.5z"/>
		<path style="fill:#FFFFFF;" d="M20,19.2c-0.4,0.3-0.8,0.5-1.1,0.8l2.7,3.2c0.3-0.2,0.6-0.4,0.9-0.7L20,19.2z"/>
		<path style="fill:#FFFFFF;" d="M25.2,15.7c0.1,0,0.2-0.1,0.2-0.1l-0.3-0.9c-0.3,0.1-0.7,0.2-1,0.3l0.4,0.9
			C24.7,15.9,24.9,15.8,25.2,15.7L25.2,15.7z"/>
		<path style="fill:#FFFFFF;" d="M24.7,19.5l-0.4-1c-0.3,0.1-0.6,0.3-0.9,0.5l0.5,1C24.2,19.8,24.5,19.7,24.7,19.5L24.7,19.5z"/>
		<path style="fill:#FFFFFF;" d="M25.9,17.1l-0.3-0.8c-0.1,0-0.1,0-0.2,0.1c-0.2,0.1-0.5,0.2-0.7,0.3l0.3,0.8
			C25.3,17.4,25.6,17.2,25.9,17.1L25.9,17.1z"/>
		<path style="fill:#FFFFFF;" d="M26.9,20.2l-0.3-1c-0.3,0.1-0.5,0.2-0.8,0.3l0.4,1C26.5,20.4,26.7,20.3,26.9,20.2L26.9,20.2z"/>
		<path style="fill:#FFFFFF;" d="M26.4,18.6l-0.3-0.8c-0.3,0.1-0.6,0.2-0.9,0.3l0.3,0.9C25.9,18.9,26.2,18.8,26.4,18.6L26.4,18.6z"
			/>
		<path style="fill:#FFFFFF;" d="M28,16.4l-0.1-0.6c-0.3,0.1-0.7,0.1-1,0.2l0.2,0.7C27.4,16.6,27.7,16.5,28,16.4L28,16.4z"/>
	</g>
	<path style="fill:#FFFFFF;" d="M55.9,35c-2.4-0.5-4.5-1-4.5-2.3c0-1.8,2.4-2.1,3.8-2.1c1.5,0,3,0.3,4.5,1l0.1,0.1l3.9-3.9l-0.4-0.3
		c-2.1-1.3-5-2.1-8.1-2.1c-6.1,0-10,3-10,7.5c0,5.3,4.8,6.4,8.6,7.3c2.4,0.6,4.5,1,4.5,2.4c0,1.6-2.4,1.9-3.8,1.9
		c-2,0-4.2-0.6-6-1.5l-0.1-0.1l-3.8,3.8L45,47c2.1,1.7,5.9,2.7,9.5,2.7c7.4,0,10.1-4,10.1-7.5C64.6,37,59.8,35.9,55.9,35L55.9,35z"
		/>
</g>
</svg>
