<?xml version="1.0" encoding="utf-8"?>
<!-- Generator: Adobe Illustrator 25.4.1, SVG Export Plug-In . SVG Version: 6.00 Build 0)  -->
<svg version="1.1" id="Layer_1" xmlns="http://www.w3.org/2000/svg" xmlns:xlink="http://www.w3.org/1999/xlink" x="0px" y="0px"
	 viewBox="0 0 60 60" enable-background="new 0 0 60 60" xml:space="preserve">
<g>
	<path fill="#0000FF" d="M46.2,39.2h-4.6V16.1H23.1v-4.6h20.8V6.9H20.8c-0.6,0-1.2,0.2-1.6,0.7c-0.4,0.4-0.7,1-0.7,1.6v6.9h-6.9
		c-1.3,0-2.3,1-2.3,2.3v32.3c0,0.3,0.1,0.6,0.2,0.9c0.1,0.3,0.3,0.5,0.5,0.7c0.2,0.2,0.5,0.4,0.8,0.5c0.3,0.1,0.6,0.2,0.9,0.2h27.7
		c1.3,0,2.3-1,2.3-2.3v-6.9h6.9c0.6,0,1.2-0.2,1.6-0.7c0.4-0.4,0.7-1,0.7-1.6V13.8h-4.6V39.2z M36.9,48.5H13.8l0-27.7h23.1V48.5z"/>
	<rect x="46.2" y="6.9" fill="#0000FF" width="4.6" height="4.6"/>
	<polygon fill="#0000FF" points="30.1,35.1 27.6,32.6 23.8,36.4 19.4,32 16.9,34.5 23.8,41.4 	"/>
	<polygon fill="#0000FF" points="32.6,32.6 33.9,31.3 31.4,28.8 30.1,30.1 28.9,31.3 31.4,33.8 	"/>
</g>
</svg>
