<?xml version="1.0" encoding="utf-8"?>
<!-- Generator: Adobe Illustrator 24.1.0, SVG Export Plug-In . SVG Version: 6.00 Build 0)  -->
<svg version="1.1" id="Layer_1" xmlns="http://www.w3.org/2000/svg" xmlns:xlink="http://www.w3.org/1999/xlink" x="0px" y="0px"
	 width="240px" height="240px" viewBox="0 0 240 240" style="enable-background:new 0 0 240 240;" xml:space="preserve">
<rect y="-0.4" style="fill:#000062;" width="240" height="240"/>
<g>
	<path style="fill:#FFFFFF;" d="M111.9,113.7h-11.3c-5.8,0-7.9-0.3-9.3-1.2c-2.1-1.2-3.1-3.1-3.1-5.7c0-5,2.1-6.2,10.5-6.2h34V85.8
		H92c-8.2,0-12.5,1-15.8,3.6c-4.8,4-7.5,10-7.5,16.7c0,7.4,3.1,14.1,8.2,17.7c4.1,2.9,8.2,4,17.2,4h11.7c4.8,0,6.9,0.2,8.2,0.9
		c2.1,1,3.3,3.3,3.3,6c0,2.8-1.4,4.8-3.4,5.3c-1.7,0.3-3.9,0.5-10.3,0.5h-34v14.8h39.5c8.4,0,13.2-0.5,16.1-2.1
		c6.3-3.1,10.6-11.4,10.6-19.8C135.9,120.7,127.1,113.7,111.9,113.7z"/>
	<path style="fill:#FFFFFF;" d="M210.5,93.5c-5.8-6.4-11.1-7.9-27.3-7.7H151v14.8h32.2c11.5,0,14.8,2.9,14.6,12.4h-23.3
		c-7.4,0-13,0.5-16.1,1.7c-7.4,2.6-12.2,10.5-12.2,20c0,7.2,3.1,13.6,8.4,17.2c4.3,2.9,7.9,3.4,22.3,3.4H217v-39.1
		C217,105.4,215.5,99.4,210.5,93.5z M197.8,140.5h-22.1c-7.5,0-10.3-1.7-10.3-6.2c0-2.9,1.5-5.3,4.1-6c1.5-0.3,1.5-0.3,6.2-0.3h22.1
		V140.5z"/>
	<rect x="35.9" y="140.5" style="fill:#FFFFFF;" width="14.8" height="14.8"/>
	<path style="fill:#FFFFFF;" d="M53.7,95.9c2.2-1.5,4.8-2.8,7.4-3.4c-4.3-0.7-9.6-0.3-13.9,1c1.5-2.8,3.6-5.3,6-7.4
		c-4.6,0.2-8.2,3.1-9.9,6.9c-1.7-3.8-5.3-6.5-9.9-6.9c2.4,2.1,4.5,4.6,6,7.4c-4.3-1.4-9.6-1.7-13.9-1c2.6,0.9,5.1,2.1,7.4,3.4
		c-3.8,0.9-7.2,2.8-9.8,5.3c2.4-0.7,5-1.2,7.5-1.4c-3.8,3.1-6.2,7.9-6.5,12.7c2.2-2.9,5-5.7,7.9-7.4c-2.6,3.6-3.8,8.1-3.4,12.4
		c1.7-3.3,4.1-6.2,6.9-8.8c-0.7,3.1-1,6.9-0.7,10c1-1.5,2.2-3.1,3.4-4.5l-2.4,22h14.8l-2.4-22c1.2,1.4,2.4,2.9,3.4,4.5
		c0.3-3.1,0.2-6.9-0.7-10c2.7,2.4,5.1,5.3,6.9,8.8c0.3-4.3-0.9-8.8-3.4-12.4c2.9,1.9,5.7,4.5,7.9,7.4c-0.3-4.8-2.7-9.5-6.5-12.7
		c2.6,0.2,5.1,0.7,7.5,1.4C60.9,98.5,57.5,96.6,53.7,95.9L53.7,95.9z"/>
</g>
</svg>
