<svg width="270" height="209" viewBox="0 0 270 209" fill="none" xmlns="http://www.w3.org/2000/svg">
<rect x="34" y="22" width="208" height="163" fill="#EBEBFF"/>
<rect width="6" height="5" transform="matrix(-1 0 0 1 257 19)" fill="#EBEBFF"/>
<rect x="18" y="190" width="6" height="5" fill="#EBEBFF"/>
<rect width="10" height="9" transform="matrix(-1 0 0 1 267 7)" fill="#EBEBFF"/>
<rect x="8" y="178" width="10" height="9" fill="#EBEBFF"/>
<rect y="7" width="16" height="15" fill="#EBEBFF"/>
<rect x="254" y="180" width="16" height="15" fill="#EBEBFF"/>
<g filter="url(#filter0_d_145_1431)">
<rect x="149.982" y="32.8711" width="82.0175" height="120.292" fill="#FBFCFE"/>
</g>
<rect x="182.79" y="48.1807" width="40.462" height="3.2807" fill="#DFE1F5"/>
<rect x="182.79" y="64.585" width="40.462" height="3.2807" fill="#DFE1F5"/>
<rect x="182.79" y="80.9883" width="40.462" height="3.2807" fill="#DFE1F5"/>
<rect x="182.79" y="97.3916" width="40.462" height="3.2807" fill="#DFE1F5"/>
<rect x="204.661" y="113.795" width="18.5906" height="3.2807" fill="#DFE1F5"/>
<g filter="url(#filter1_d_145_1431)">
<rect x="45" y="32.8711" width="82.0175" height="120.292" fill="#FBFCFE"/>
</g>
<rect width="40.462" height="3.2807" transform="matrix(-1 0 0 1 94.2104 48.1807)" fill="#DFE1F5"/>
<rect width="40.462" height="3.2807" transform="matrix(-1 0 0 1 94.2104 64.585)" fill="#DFE1F5"/>
<rect width="40.462" height="3.2807" transform="matrix(-1 0 0 1 94.2104 80.9883)" fill="#DFE1F5"/>
<rect width="40.462" height="3.2807" transform="matrix(-1 0 0 1 94.2104 97.3916)" fill="#DFE1F5"/>
<rect width="18.5906" height="3.2807" transform="matrix(-1 0 0 1 72.3394 113.795)" fill="#DFE1F5"/>
<g filter="url(#filter2_d_145_1431)">
<rect x="82.1812" y="11" width="112.637" height="164.035" fill="#FBFCFE"/>
</g>
<rect x="94.2104" y="38.3389" width="88.5789" height="9.8421" fill="#DFE1F5"/>
<rect x="94.2104" y="93.0176" width="88.5789" height="9.8421" fill="#DFE1F5"/>
<rect x="94.2104" y="65.6787" width="88.5789" height="9.8421" fill="#DFE1F5"/>
<rect x="134.672" y="120.356" width="48.117" height="9.8421" fill="#DFE1F5"/>
<defs>
<filter id="filter0_d_145_1431" x="127.982" y="21.8711" width="126.018" height="164.292" filterUnits="userSpaceOnUse" color-interpolation-filters="sRGB">
<feFlood flood-opacity="0" result="BackgroundImageFix"/>
<feColorMatrix in="SourceAlpha" type="matrix" values="0 0 0 0 0 0 0 0 0 0 0 0 0 0 0 0 0 0 127 0" result="hardAlpha"/>
<feOffset dy="11"/>
<feGaussianBlur stdDeviation="11"/>
<feComposite in2="hardAlpha" operator="out"/>
<feColorMatrix type="matrix" values="0 0 0 0 0.396078 0 0 0 0 0.478431 0 0 0 0 0.576471 0 0 0 0.27 0"/>
<feBlend mode="normal" in2="BackgroundImageFix" result="effect1_dropShadow_145_1431"/>
<feBlend mode="normal" in="SourceGraphic" in2="effect1_dropShadow_145_1431" result="shape"/>
</filter>
<filter id="filter1_d_145_1431" x="23" y="21.8711" width="126.018" height="164.292" filterUnits="userSpaceOnUse" color-interpolation-filters="sRGB">
<feFlood flood-opacity="0" result="BackgroundImageFix"/>
<feColorMatrix in="SourceAlpha" type="matrix" values="0 0 0 0 0 0 0 0 0 0 0 0 0 0 0 0 0 0 127 0" result="hardAlpha"/>
<feOffset dy="11"/>
<feGaussianBlur stdDeviation="11"/>
<feComposite in2="hardAlpha" operator="out"/>
<feColorMatrix type="matrix" values="0 0 0 0 0.396078 0 0 0 0 0.478431 0 0 0 0 0.576471 0 0 0 0.27 0"/>
<feBlend mode="normal" in2="BackgroundImageFix" result="effect1_dropShadow_145_1431"/>
<feBlend mode="normal" in="SourceGraphic" in2="effect1_dropShadow_145_1431" result="shape"/>
</filter>
<filter id="filter2_d_145_1431" x="60.1812" y="0" width="156.637" height="208.035" filterUnits="userSpaceOnUse" color-interpolation-filters="sRGB">
<feFlood flood-opacity="0" result="BackgroundImageFix"/>
<feColorMatrix in="SourceAlpha" type="matrix" values="0 0 0 0 0 0 0 0 0 0 0 0 0 0 0 0 0 0 127 0" result="hardAlpha"/>
<feOffset dy="11"/>
<feGaussianBlur stdDeviation="11"/>
<feComposite in2="hardAlpha" operator="out"/>
<feColorMatrix type="matrix" values="0 0 0 0 0.396078 0 0 0 0 0.478431 0 0 0 0 0.576471 0 0 0 0.27 0"/>
<feBlend mode="normal" in2="BackgroundImageFix" result="effect1_dropShadow_145_1431"/>
<feBlend mode="normal" in="SourceGraphic" in2="effect1_dropShadow_145_1431" result="shape"/>
</filter>
</defs>
</svg>
