<?xml version="1.0" encoding="utf-8"?>
<!-- Generator: Adobe Illustrator 24.1.0, SVG Export Plug-In . SVG Version: 6.00 Build 0)  -->
<svg version="1.1" id="Layer_1" xmlns="http://www.w3.org/2000/svg" xmlns:xlink="http://www.w3.org/1999/xlink" x="0px" y="0px"
	 width="512px" height="512px" viewBox="0 0 512 512" style="enable-background:new 0 0 512 512;" xml:space="preserve">
<style type="text/css">
	.st0{fill:#58ABFB;}
	.st1{fill:#FFFFFF;}
	.st2{fill:#107BE8;}
	.st3{fill:#00D2FF;}
</style>
<path class="st0" d="M456,120h-80c-17.7,0-32-14.3-32-32V8L456,120z"/>
<path class="st1" d="M456,120v352c0,17.7-14.3,32-32,32H88c-17.7,0-32-14.3-32-32V40C56,22.3,70.3,8,88,8h256v80
	c0,17.7,14.3,32,32,32H456z"/>
<g>
	<path class="st2" d="M461.7,114.3l-112-112C348.2,0.8,346.1,0,344,0H88C65.9,0,48,17.9,48,40v432c0,22.1,17.9,40,40,40h336
		c22.1,0,40-17.9,40-40V120C464,117.9,463.2,115.8,461.7,114.3z M448,472c0,13.3-10.7,24-24,24H88c-13.3,0-24-10.7-24-24V40
		c0-13.3,10.7-24,24-24h252.7L448,123.3V472z"/>
	<path class="st3" d="M120,248h128c4.4,0,8-3.6,8-8s-3.6-8-8-8H120c-4.4,0-8,3.6-8,8S115.6,248,120,248z"/>
	<path class="st3" d="M392,288H120c-4.4,0-8,3.6-8,8s3.6,8,8,8h272c4.4,0,8-3.6,8-8S396.4,288,392,288z"/>
	<path class="st3" d="M392,344H120c-4.4,0-8,3.6-8,8s3.6,8,8,8h272c4.4,0,8-3.6,8-8S396.4,344,392,344z"/>
	<path class="st3" d="M392,400H120c-4.4,0-8,3.6-8,8s3.6,8,8,8h272c4.4,0,8-3.6,8-8S396.4,400,392,400z"/>
	<path class="st2" d="M336,48v40c0,22.1,17.9,40,40,40h40c4.4,0,8-3.6,8-8s-3.6-8-8-8h-40c-13.3,0-24-10.7-24-24V48c0-4.4-3.6-8-8-8
		S336,43.6,336,48z"/>
</g>
</svg>
