<?xml version="1.0" encoding="utf-8"?>
<!-- Generator: Adobe Illustrator 24.1.0, SVG Export Plug-In . SVG Version: 6.00 Build 0)  -->
<!DOCTYPE svg PUBLIC "-//W3C//DTD SVG 1.1//EN" "http://www.w3.org/Graphics/SVG/1.1/DTD/svg11.dtd" [
	<!ENTITY st0 "fill:#0000FF;">
]>
<svg version="1.1" id="Layer_1" xmlns="http://www.w3.org/2000/svg" xmlns:xlink="http://www.w3.org/1999/xlink" x="0px" y="0px"
	 width="251px" height="257.6px" viewBox="0 0 251 257.6" style="enable-background:new 0 0 251 257.6;" xml:space="preserve">
<g>
	<path style="&st0;" d="M125.6,196l-28.7,23.3l-0.1-0.2c-2.3-2.9-2.7-4.3-2.6-4.9c1.6-0.2,3.4-0.6,4.3-1.3c1.9-1.5,2.1-4.6,0.4-6.8
		c-1.8-2.2-4.8-2.8-6.7-1.3c-0.8,0.7-1.5,2-1.7,2.6c-2.9,6.6-2.2,11.5,1.2,15.8c0,0,0.1,0.1,0.2,0.2l-5.2,4.2
		c-7.3,5.8-9.8-3.3-9.8-3.3c-3.1-7.7-11.8-2.9-11.8-2.9c-9.3,4.8-4.8,11.2-4.8,11.2c11.2,21.8,32.4,5.3,32.4,5.3l6.5-5.2
		c0.2,0.3,0.3,0.4,0.4,0.5c3.4,4.3,8,6.1,15.1,4.8c0.6-0.1,2.1-0.4,2.9-1.1c1.9-1.5,2.1-4.6,0.3-6.8c-1.8-2.2-4.8-2.8-6.7-1.2
		c-0.9,0.7-1.8,2.4-2.3,3.9c-0.6,0-1.9-0.7-4.2-3.6l-0.4-0.5l31.2-24.6c61.5-52.7,100.7-47.2,100.7-47.2
		C186.8,139,125.6,196,125.6,196z"/>
	<path style="&st0;" d="M125.4,196l28.7,23.3l0.1-0.2c2.3-2.9,2.7-4.3,2.6-4.9c-1.6-0.2-3.4-0.6-4.3-1.3c-1.9-1.5-2.1-4.6-0.4-6.8
		c1.8-2.2,4.8-2.8,6.7-1.3c0.8,0.7,1.5,2,1.7,2.6c2.9,6.6,2.2,11.5-1.2,15.8c0,0-0.1,0.1-0.2,0.2l5.2,4.2c7.3,5.8,9.8-3.3,9.8-3.3
		c3.1-7.7,11.8-2.9,11.8-2.9c9.3,4.8,4.8,11.2,4.8,11.2c-11.2,21.8-32.4,5.3-32.4,5.3l-6.5-5.2c-0.2,0.3-0.3,0.4-0.4,0.5
		c-3.4,4.3-8,6.1-15.1,4.8c-0.6-0.1-2.1-0.4-2.9-1.1c-1.9-1.5-2.1-4.6-0.3-6.8c1.8-2.2,4.8-2.8,6.7-1.2c0.9,0.7,1.8,2.4,2.3,3.9
		c0.6,0,1.9-0.7,4.2-3.6l0.4-0.5l-31.2-24.6C53.9,151.5,14.7,157,14.7,157C64.2,139,125.4,196,125.4,196z"/>
	<path style="&st0;" d="M152.3,50.3c14.9-2.2,24.9,16.1,24.9,16.1C175.3,37.2,144,41.5,144,41.5c7.9-6.2,24,1.7,24,1.7
		c-11.7-16.3-28.4-11.6-28.4-11.6c2-3.8,14-2.9,14-2.9c-10.9-10.6-23.7,0-23.7,0c0.6-5.9-4.4-15.1-4.4-15.1s-4.8,9.2-4.2,15.1
		c0,0-12.6-10.7-23.6,0c0,0,12.1-0.8,14.1,2.9c0,0-16.7-4.7-28.4,11.6c0,0,16.1-7.9,24-1.7c0,0-31.3-4.3-33.2,24.9
		c0,0,10-18.3,25-16.1c0,0-31.9,9-16.6,37.1c0,0-0.8-23.3,17.5-28.6c0,0-24.1,19.1-2.4,35.3c0,0-4.5-18.1,8.1-26.4
		c0,0-8.9,20.4,8.5,37.5c0,0-4-17.4,7.6-27v88.3l-6.7,8.5h20.7l-6.3-8.5V78.2c11,9.6,7.6,27,7.6,27c17.4-17.1,8.5-37.5,8.5-37.5
		c12.6,8.3,8.1,26.4,8.1,26.4c21.7-16.2-2.4-35.3-2.4-35.3c18.4,5.3,17.5,28.6,17.5,28.6C184.2,59.3,152.3,50.3,152.3,50.3z"/>
</g>
</svg>
