<?xml version="1.0" encoding="utf-8"?>
<!-- Generator: Adobe Illustrator 24.1.0, SVG Export Plug-In . SVG Version: 6.00 Build 0)  -->
<!DOCTYPE svg PUBLIC "-//W3C//DTD SVG 1.1//EN" "http://www.w3.org/Graphics/SVG/1.1/DTD/svg11.dtd" [
	<!ENTITY st0 "fill:#FFFFFF;">
]>
<svg version="1.1" id="Layer_1" xmlns="http://www.w3.org/2000/svg" xmlns:xlink="http://www.w3.org/1999/xlink" x="0px" y="0px"
	 width="48px" height="48px" viewBox="0 0 48 48" style="enable-background:new 0 0 48 48;" xml:space="preserve">
<g>
	<g>
		<path style="&st0;" d="M25.9,35h0.3l0.7,1h0.3l0.6-2h0.3l0.7,1H29h0.9h0.2h0.6H43V6H32.3c-4,0-7.3,3.3-7.3,7.4l0.1,22.1
			C25.3,35.3,25.6,35.1,25.9,35z M45.3,11H45v24.9c0,0,0,0,0,0c0,0.6-0.5,1.1-1.1,1.1H32.2c-6,0-7.2,1.8-7.2,4.5V42
			c2.6-2,6.9-2,9.1-2H48V11H45.3z M17.9,35h0.3l0.9,1h0.2H20h0.3h0.6h0.3h0.7h0.2c0.3,0.1,0.9,0.4,0.9,0.4v-23C23,9.3,19.8,6,15.7,6
			H5v0v0.1V35h12.4H17.9z M16.1,37H3.8c0,0-1.1-0.6-0.8-1.2V11H0v29h13.9c2.5,0,7,0,9.7,2.2l0-0.5C23.5,38.9,22.3,37,16.1,37z"/>
	</g>
</g>
</svg>
