<?xml version="1.0" encoding="utf-8"?>
<!-- Generator: Adobe Illustrator 24.1.0, SVG Export Plug-In . SVG Version: 6.00 Build 0)  -->
<svg version="1.1" id="Layer_1" xmlns="http://www.w3.org/2000/svg" xmlns:xlink="http://www.w3.org/1999/xlink" x="0px" y="0px"
	 width="60px" height="60px" viewBox="0 0 60 60" style="enable-background:new 0 0 60 60;" xml:space="preserve">
<style type="text/css">
	.st0{fill:#FFFFFF;}
</style>
<path class="st0" d="M38.3,0.1H13.2C9.6,0.1,6.7,3,6.7,6.6v46.9c0,3.5,3,6.5,6.5,6.5H46c3.5,0,6.5-2.9,6.5-6.5V14.1L38.3,0.1z
	 M29.5,50.3c-8.4,0-15.3-6.9-15.3-15.3c0-8.4,6.9-15.3,15.3-15.3c8.4,0,15.3,6.9,15.3,15.3C44.8,43.4,37.9,50.3,29.5,50.3z"/>
<path class="st0" d="M37.9,26.2c-2.2-2.2-5.2-3.5-8.4-3.5c-6.8,0-12.2,5.5-12.2,12.1c0,6.8,5.5,12.2,12.1,12.2
	c6.8,0,12.2-5.5,12.2-12.1C41.6,31.7,40.3,28.7,37.9,26.2z M35.7,34l-6.6,6.6c-0.3,0.1-0.8,0.4-1.2,0.4c-0.5,0-0.9-0.1-1.3-0.5
	l-3.2-3.2c-0.8-0.6-0.8-1.7-0.1-2.5c0.6-0.8,1.7-0.8,2.5-0.1l0.1,0.1l2.1,2.1l5.3-5.3c0.6-0.6,1.8-0.8,2.5,0
	C36.4,32.2,36.5,33.4,35.7,34z"/>
<path class="st0" d="M38.3,0.1v12.3c0,0.9,0.8,1.7,1.7,1.8l0,0h12.3L38.3,0.1z"/>
</svg>
