<?xml version="1.0" encoding="utf-8"?>
<!-- Generator: Adobe Illustrator 25.4.1, SVG Export Plug-In . SVG Version: 6.00 Build 0)  -->
<svg version="1.1" id="Layer_2_1_" xmlns="http://www.w3.org/2000/svg" xmlns:xlink="http://www.w3.org/1999/xlink" x="0px" y="0px"
	 viewBox="0 0 32 32" style="enable-background:new 0 0 32 32;" xml:space="preserve">
<style type="text/css">
	.st0{enable-background:new    ;}
	.st1{fill:#A7A7D3;}
</style>
<g class="st0">
	<g>
		<path class="st1" d="M22.9,18.7h-1.1l-0.4-0.4c1.4-1.6,2.2-3.7,2.2-6c0-5.1-4.1-9.3-9.3-9.3c-4.9,0-8.9,3.8-9.2,8.6H8
			c0.4-3.2,3-5.7,6.3-5.7c3.5,0,6.4,2.9,6.4,6.4s-2.9,6.4-6.4,6.4c-0.2,0-0.5,0-0.7-0.1v2.9c0.2,0,0.5,0,0.7,0c2.3,0,4.4-0.8,6-2.2
			l0.4,0.4v1.1l7.1,7.1l2.1-2.1L22.9,18.7z"/>
		<polygon class="st1" points="10.1,14.1 6.5,17.7 3,14.1 2,15.2 5.5,18.7 2,22.2 3,23.2 6.5,19.7 10.1,23.2 11.1,22.2 7.5,18.7 
			11.1,15.2 		"/>
	</g>
</g>
</svg>
