<?xml version="1.0" encoding="utf-8"?>
<!-- Generator: Adobe Illustrator 24.1.0, SVG Export Plug-In . SVG Version: 6.00 Build 0)  -->
<!DOCTYPE svg PUBLIC "-//W3C//DTD SVG 1.1//EN" "http://www.w3.org/Graphics/SVG/1.1/DTD/svg11.dtd" [
	<!ENTITY st0 "clip-path:url(#SVGID_1_);fill:#0000FF;">
	<!ENTITY st1 "clip-path:url(#SVGID_1_);fill:#8080FF;">
	<!ENTITY st2 "clip-path:url(#SVGID_1_);fill:#FFFFFF;">
	<!ENTITY st3 "clip-path:url(#SVGID_1_);fill:#BFBFFF;">
	<!ENTITY st4 "fill:#8080FF;">
	<!ENTITY st5 "fill:#FFFFFF;">
]>
<svg version="1.1" id="Layer_1" xmlns="http://www.w3.org/2000/svg" xmlns:xlink="http://www.w3.org/1999/xlink" x="0px" y="0px"
	 width="50px" height="42px" viewBox="0 0 50 42" style="enable-background:new 0 0 50 42;" xml:space="preserve">
<g>
	<g>
		<defs>
			<rect id="SVGID_3_" y="0.2" width="31.7" height="41.6"/>
		</defs>
		<clipPath id="SVGID_1_">
			<use xlink:href="#SVGID_3_"  style="overflow:visible;"/>
		</clipPath>
		<path style="&st0;" d="M30.4,0.2H1.2C0.5,0.2,0,0.7,0,1.4v28.2l12.2,12.2h18.3c0.7,0,1.2-0.5,1.2-1.2V1.4
			C31.7,0.7,31.1,0.2,30.4,0.2"/>
		<path style="&st1;" d="M10.2,11.2l1.6-1.6c0.5-0.5,0.5-1.2,0-1.7c-0.5-0.5-1.2-0.5-1.7,0L8.5,9.5L6.9,7.9c-0.5-0.5-1.2-0.5-1.7,0
			c-0.5,0.5-0.5,1.2,0,1.7l1.6,1.6l-1.6,1.6c-0.5,0.5-0.5,1.2,0,1.7c0.5,0.5,1.2,0.5,1.7,0L8.5,13l1.6,1.6c0.5,0.5,1.2,0.5,1.7,0
			c0.5-0.5,0.5-1.2,0-1.7L10.2,11.2z"/>
		<path style="&st2;" d="M8.5,27.1c-0.3,0-0.6-0.1-0.9-0.4l-2.4-2.4c-0.5-0.5-0.5-1.2,0-1.7c0.5-0.5,1.2-0.5,1.7,0l1.6,1.6l4-4
			c0.5-0.5,1.2-0.5,1.7,0c0.5,0.5,0.5,1.2,0,1.7l-4.9,4.9C9.1,26.9,8.8,27.1,8.5,27.1"/>
		<path style="&st3;" d="M25.6,12.5h-7.3c-0.7,0-1.2-0.5-1.2-1.2c0-0.7,0.5-1.2,1.2-1.2h7.3c0.7,0,1.2,0.5,1.2,1.2
			C26.8,11.9,26.2,12.5,25.6,12.5"/>
		<path style="&st3;" d="M25.6,24.6h-7.3c-0.7,0-1.2-0.5-1.2-1.2s0.5-1.2,1.2-1.2h7.3c0.7,0,1.2,0.5,1.2,1.2S26.2,24.6,25.6,24.6"/>
		<path style="&st1;" d="M11,29.6H0v1.2c0,0.3,0.1,0.6,0.4,0.9l9.7,9.7c0.2,0.2,0.5,0.4,0.9,0.4h1.2v-11
			C12.2,30.1,11.6,29.6,11,29.6"/>
	</g>
	<g>
		<path style="&st4;" d="M28.3,17.2c-5.2,0-9.4,4.3-9.4,9.5c0,2.4,1,4.8,2.7,6.6v4.2c0,0.5,0.3,1,0.8,1.2c0.5,0.2,1.1,0.1,1.5-0.3
			l2.5-2.5c0.7,0.1,1.3,0.2,1.9,0.2h10.8c5.2,0,9.5-4.2,9.5-9.4c0-5.2-4.3-9.5-9.5-9.5H28.3L28.3,17.2z M28.3,17.2"/>
		<path style="&st5;" d="M37.8,26.7c0-0.7,0.6-1.4,1.3-1.4c0.7,0,1.4,0.6,1.4,1.4c0,0.7-0.6,1.3-1.4,1.3
			C38.4,28.1,37.8,27.5,37.8,26.7L37.8,26.7z M37.8,26.7"/>
		<path style="&st5;" d="M32.4,26.7c0-0.7,0.6-1.4,1.4-1.4c0.7,0,1.4,0.6,1.4,1.4c0,0.7-0.6,1.3-1.4,1.3
			C33,28.1,32.4,27.5,32.4,26.7L32.4,26.7z M32.4,26.7"/>
		<path style="&st5;" d="M27,26.7c0-0.7,0.6-1.4,1.3-1.4c0.7,0,1.4,0.6,1.4,1.4c0,0.7-0.6,1.3-1.4,1.3C27.6,28.1,27,27.5,27,26.7
			L27,26.7z M27,26.7"/>
	</g>
</g>
</svg>
