<svg id="Layer_1" data-name="Layer 1" xmlns="http://www.w3.org/2000/svg" viewBox="0 0 60 60"><defs><style>.cls-1{fill:#bfbfff;}.cls-2{fill:#8080ff;}.cls-3{fill:blue;}</style></defs><title>office039-task</title><path class="cls-1" d="M53.08,13.94a1.34,1.34,0,0,0-1.35-1.35H13.94a1.34,1.34,0,0,0-1.35,1.35V21l.45.45H52.63l.45-.45Zm0,0"/><path class="cls-2" d="M12.59,21V51.73a1.34,1.34,0,0,0,1.35,1.35H51.73a1.34,1.34,0,0,0,1.35-1.35V21Zm0,0"/><path class="cls-2" d="M47.49,8.35A1.34,1.34,0,0,0,46.14,7H8.35A1.34,1.34,0,0,0,7,8.35v6.39l.45.45H47l.45-.45Zm0,0"/><path class="cls-3" d="M7,14.74v28.8a1.34,1.34,0,0,0,1.35,1.35H46.14a1.34,1.34,0,0,0,1.35-1.35V14.74Zm0,0"/><path class="cls-1" d="M19.24,31.39h-5.4a1.34,1.34,0,0,0-1.35,1.35v5.4a1.34,1.34,0,0,0,1.35,1.35h5.4a1.35,1.35,0,0,0,1.35-1.35v-5.4a1.35,1.35,0,0,0-1.35-1.35Zm-1.35,5.4h-2.7v-2.7h2.7Zm0,0"/><path class="cls-1" d="M40.84,20.59H24.64a1.35,1.35,0,0,0,0,2.7h16.2a1.35,1.35,0,1,0,0-2.7Zm0,0"/><path class="cls-1" d="M38.14,25.9H24.64a1.35,1.35,0,0,0,0,2.7h13.5a1.35,1.35,0,0,0,0-2.7Zm0,0"/><path class="cls-1" d="M40.84,31.48H24.64a1.35,1.35,0,1,0,0,2.7h16.2a1.35,1.35,0,0,0,0-2.7Zm0,0"/><path class="cls-1" d="M38.14,36.79H24.64a1.35,1.35,0,0,0,0,2.7h13.5a1.35,1.35,0,0,0,0-2.7Zm0,0"/><path class="cls-1" d="M20,20.81a1.35,1.35,0,0,0-1.87.4l-2.68,4.13-.82-.56A1.35,1.35,0,1,0,13.08,27l2,1.36a1.37,1.37,0,0,0,.76.24,1.24,1.24,0,0,0,.27,0,1.36,1.36,0,0,0,.87-.59l3.44-5.31a1.35,1.35,0,0,0-.4-1.86Zm0,0"/></svg>