<?xml version="1.0" encoding="utf-8"?>
<!-- Generator: Adobe Illustrator 24.1.0, SVG Export Plug-In . SVG Version: 6.00 Build 0)  -->
<!DOCTYPE svg PUBLIC "-//W3C//DTD SVG 1.1//EN" "http://www.w3.org/Graphics/SVG/1.1/DTD/svg11.dtd" [
	<!ENTITY st0 "fill:#0000FF;">
	<!ENTITY st1 "fill:#FBB954;">
]>
<svg version="1.1" id="Layer_1" xmlns="http://www.w3.org/2000/svg" xmlns:xlink="http://www.w3.org/1999/xlink" x="0px" y="0px"
	 viewBox="0 0 115 88" style="enable-background:new 0 0 115 88;" xml:space="preserve">
<g>
	<g>
		<path style="&st0;" d="M10.4,35.6l-0.7-0.3c-0.2,0.3-0.3,0.6-0.5,0.9l0.6,0.3C10.1,36.3,10.2,36,10.4,35.6"/>
		<path style="&st0;" d="M10.1,26.5l-1-0.7c-0.2,0.2-0.3,0.5-0.5,0.7l1,0.7C9.8,27,9.9,26.8,10.1,26.5"/>
		<path style="&st0;" d="M9.9,31.3l-0.6-0.3c-0.2,0.3-0.3,0.5-0.5,0.8L9.4,32C9.6,31.8,9.8,31.5,9.9,31.3"/>
		<path style="&st0;" d="M12.3,32.5l-0.8-0.4c-0.2,0.3-0.3,0.6-0.5,0.9l0.7,0.4C11.9,33.1,12.1,32.8,12.3,32.5"/>
		<path style="&st0;" d="M11.1,40.1l-0.4-0.2c-0.1,0.3-0.2,0.6-0.3,0.9l0.3,0.2C10.8,40.7,10.9,40.4,11.1,40.1"/>
		<path style="&st0;" d="M11,28.2l0.7,0.5c0.2-0.2,0.4-0.5,0.6-0.7l-0.8-0.5C11.3,27.7,11.2,27.9,11,28.2"/>
		<path style="&st0;" d="M6.8,29.5c-0.1,0.2-0.3,0.5-0.4,0.7l0.8,0.5c0.2-0.2,0.3-0.5,0.5-0.7L6.8,29.5z"/>
		<path style="&st0;" d="M12.8,23.3l-1.2-0.9c-0.2,0.3-0.5,0.6-0.7,0.9l1.1,0.9c0.1-0.1,0.2-0.3,0.4-0.4
			C12.5,23.5,12.7,23.4,12.8,23.3"/>
		<path style="&st0;" d="M8.7,39.1l-0.5-0.2c-0.1,0.3-0.2,0.5-0.3,0.8l0.5,0.2C8.4,39.7,8.5,39.4,8.7,39.1"/>
		<path style="&st0;" d="M18.8,17.4L17.5,16c-0.4,0.4-0.8,0.8-1.2,1.2l1.3,1.3C18,18.1,18.4,17.7,18.8,17.4"/>
		<path style="&st0;" d="M16.2,27.3c0.3-0.3,0.5-0.6,0.8-0.9l-1-0.8c-0.2,0.3-0.5,0.6-0.7,0.9L16.2,27.3z"/>
		<path style="&st0;" d="M16.7,23c0.3-0.3,0.7-0.6,1-1l-1.1-1c-0.3,0.3-0.6,0.7-0.9,1L16.7,23z"/>
		<path style="&st0;" d="M15.2,31l1,0.6c0.2-0.3,0.4-0.5,0.6-0.8l-1-0.7C15.5,30.5,15.4,30.7,15.2,31"/>
		<path style="&st0;" d="M14.5,29.4l-0.9-0.6c-0.2,0.3-0.4,0.5-0.5,0.8l0.9,0.6C14.1,29.9,14.3,29.6,14.5,29.4"/>
		<path style="&st0;" d="M14,24.2c-0.1,0.2-0.3,0.3-0.4,0.5c-0.1,0.1-0.2,0.3-0.3,0.4l0.9,0.7c0.3-0.3,0.5-0.6,0.8-0.9L14,24.2z"/>
		<path style="&st0;" d="M8,34.5l-0.5-0.2c-0.1,0.3-0.3,0.6-0.4,0.9l0.4,0.2C7.6,35.1,7.8,34.8,8,34.5"/>
		<path style="&st0;" d="M13.5,20.1l1.2,1.1c0.3-0.3,0.7-0.7,1-1l-1.3-1.1C14.1,19.4,13.8,19.8,13.5,20.1"/>
		<path style="&st0;" d="M14.6,33.8l-0.9-0.5c-0.2,0.3-0.3,0.6-0.5,0.9l0.8,0.5C14.2,34.4,14.4,34.1,14.6,33.8"/>
		<path style="&st0;" d="M12.8,36.7l-0.7-0.3c-0.2,0.3-0.3,0.7-0.5,1l0.6,0.3C12.4,37.4,12.6,37.1,12.8,36.7"/>
		<path style="&st0;" d="M23.1,21.8c-0.4,0.4-0.8,0.7-1.2,1.1L23,24c0.4-0.4,0.8-0.7,1.1-1.1L23.1,21.8z"/>
		<path style="&st0;" d="M24.4,17.6c-0.5,0.4-1,0.8-1.5,1.1l2.6,3c0.5-0.4,0.9-0.8,1.4-1.1L24.4,17.6z"/>
		<path style="&st0;" d="M6.1,38.2l-0.3-0.1c-0.1,0.2-0.2,0.4-0.3,0.7l0.2,0.1C5.9,38.6,6,38.4,6.1,38.2"/>
		<path style="&st0;" d="M24.2,10.5c-0.6,0.4-1.2,0.9-1.9,1.4l1.4,1.9c0.6-0.4,1.2-0.8,1.9-1.2L24.2,10.5z"/>
		<path style="&st0;" d="M20.4,24.4c-0.3,0.3-0.6,0.7-0.9,1l1.2,1c0,0,0.1-0.1,0.1-0.1c0.3-0.3,0.6-0.6,0.8-0.9L20.4,24.4z"/>
		<path style="&st0;" d="M27.8,8.1c-0.7,0.4-1.5,0.9-2.2,1.4l5.5,8.2c0.6-0.4,1.2-0.8,1.9-1.1L27.8,8.1z"/>
		<path style="&st0;" d="M57.3,0.3c-8.7,0-17.1,1.9-24.5,5.3l4.5,8.8c6.1-2.7,12.9-4.2,20-4.2c6,0,11.8,1.1,17.1,3l3.4-9.3
			C71.4,1.6,64.5,0.3,57.3,0.3"/>
		<path style="&st0;" d="M31.7,6.1c-0.9,0.4-1.7,0.9-2.6,1.3l5,8.5c0.7-0.4,1.4-0.7,2.2-1.1L31.7,6.1z"/>
		<path style="&st0;" d="M26.1,13.1c-0.6,0.4-1.2,0.8-1.8,1.3l4,5.2c0.5-0.4,1.1-0.8,1.6-1.1L26.1,13.1z"/>
		<path style="&st0;" d="M3.5,37.8c0.1-0.2,0.2-0.4,0.2-0.6l-0.6-0.2c-0.1,0.2-0.1,0.4-0.2,0.5L3.5,37.8z"/>
		<path style="&st0;" d="M18.6,22.8c-0.3,0.3-0.6,0.7-1,1l1,0.9c0.3-0.3,0.7-0.6,1-1L18.6,22.8z"/>
		<path style="&st0;" d="M17.2,28.1l1.1,0.8c0.3-0.3,0.5-0.6,0.8-0.9l-1.1-0.9C17.7,27.5,17.4,27.8,17.2,28.1"/>
		<path style="&st0;" d="M4.6,33.9l0.7,0.4c0.1-0.3,0.3-0.5,0.4-0.8l-0.7-0.3C4.8,33.4,4.7,33.6,4.6,33.9"/>
		<path style="&st0;" d="M22.7,15.5c-0.5,0.4-1,0.8-1.5,1.2l1.2,1.4c0.5-0.4,1-0.7,1.6-1.1L22.7,15.5z"/>
		<path style="&st0;" d="M19.6,18.2c-0.4,0.4-0.8,0.8-1.2,1.1l1.1,1.1c0.4-0.4,0.8-0.7,1.3-1L19.6,18.2z"/>
		<path style="&st0;" d="M22.5,21.2l-1.1-1.2c-0.4,0.4-0.8,0.7-1.2,1.1l1.1,1.1C21.7,21.9,22.1,21.6,22.5,21.2"/>
		<path style="&st0;" d="M22.1,14.8l-1.4-1.7c-0.5,0.4-1,0.9-1.5,1.3l1.4,1.6C21.1,15.6,21.6,15.2,22.1,14.8"/>
		<path style="&st0;" d="M52.9,27l-0.1-0.8c-0.5,0.1-1,0.1-1.6,0.2l0.1,0.9C51.9,27.2,52.4,27.1,52.9,27"/>
		<path style="&st0;" d="M53.3,29.7l-0.1-1.1c-0.5,0-1,0.1-1.5,0.2l0.2,1.2C52.3,29.9,52.8,29.8,53.3,29.7"/>
		<path style="&st0;" d="M32.6,28.8l1.6,2c0.6-0.5,1.2-1,1.8-1.5l-1.3-1.9C33.9,27.9,33.2,28.3,32.6,28.8"/>
		<path style="&st0;" d="M40.1,29.7L39.2,28c-0.6,0.3-1.2,0.7-1.8,1.1l1.2,1.8C39.1,30.4,39.6,30,40.1,29.7"/>
		<path style="&st0;" d="M50.5,21.3l0.2,1c0.6-0.1,1.1-0.2,1.7-0.3l-0.1-0.9C51.6,21.1,51,21.2,50.5,21.3"/>
		<path style="&st0;" d="M41.8,25.5l-0.7-1.6c-0.6,0.3-1.2,0.5-1.8,0.8l0.9,1.7C40.7,26.1,41.3,25.8,41.8,25.5"/>
		<path style="&st0;" d="M38.8,27.3l-1-1.8c-0.7,0.4-1.3,0.7-1.9,1.1l1.2,1.8C37.6,28.1,38.2,27.7,38.8,27.3"/>
		<path style="&st0;" d="M54.5,20.9l0,0.8c0.5-0.1,1-0.1,1.5-0.1l0-0.7C55.5,20.9,55,20.9,54.5,20.9"/>
		<path style="&st0;" d="M56.1,24l0-0.5c-0.5,0-1,0-1.5,0l0,0.6C55.1,24.1,55.6,24.1,56.1,24"/>
		<path style="&st0;" d="M31.6,29.6c-0.5,0.4-0.9,0.8-1.4,1.2c-0.2,0.2-0.5,0.4-0.7,0.7l7,7c0.5-0.5,0.9-0.9,1.4-1.3L31.6,29.6z"/>
		<path style="&st0;" d="M56.3,29.2l0-0.8c-0.5,0-0.9,0-1.4,0l0.1,0.9C55.4,29.3,55.9,29.3,56.3,29.2"/>
		<path style="&st0;" d="M52.6,24.5l-0.1-0.7c-0.5,0.1-1.1,0.1-1.6,0.2l0.1,0.9C51.6,24.7,52.1,24.6,52.6,24.5"/>
		<path style="&st0;" d="M56.2,26.5l0-0.5c-0.5,0-1,0-1.4,0l0,0.6C55.3,26.6,55.7,26.6,56.2,26.5"/>
		<path style="&st0;" d="M48.7,22.8l-0.3-1.2c-0.6,0.1-1.1,0.2-1.7,0.4l0.3,1.3C47.6,23.1,48.2,23,48.7,22.8"/>
		<path style="&st0;" d="M49.8,27.8l-0.2-1.1c-0.5,0.1-1,0.2-1.5,0.4l0.3,1.2C48.9,28.1,49.4,27.9,49.8,27.8"/>
		<path style="&st0;" d="M50.4,30.4l-0.3-1.3c-0.5,0.1-0.9,0.2-1.4,0.3l0.4,1.5C49.6,30.7,50,30.6,50.4,30.4"/>
		<path style="&st0;" d="M40.4,30.3c-0.5,0.3-1.1,0.6-1.6,1l2.3,3.5c0.4-0.3,0.9-0.6,1.3-0.8L40.4,30.3z"/>
		<path style="&st0;" d="M42.9,28l-0.7-1.5c-0.6,0.2-1.1,0.5-1.7,0.8l0.8,1.6C41.9,28.5,42.4,28.2,42.9,28"/>
		<path style="&st0;" d="M44.2,31c-0.5,0.2-0.9,0.4-1.4,0.7l0.8,1.6c0.4-0.2,0.8-0.4,1.3-0.6L44.2,31z"/>
		<path style="&st0;" d="M28.9,32C22,39.2,17.7,48.9,17.7,59.6h9.9c0-8,3.2-15.3,8.4-20.6L28.9,32z"/>
		<path style="&st0;" d="M36.3,29.8c-0.6,0.4-1.2,0.9-1.8,1.4l4.3,5.3c0.5-0.4,0.9-0.7,1.4-1.1L36.3,29.8z"/>
		<path style="&st0;" d="M44.7,24.2c0.1-0.1,0.3-0.1,0.4-0.1l-0.5-1.4c-0.6,0.2-1.1,0.4-1.7,0.6l0.6,1.5
			C43.9,24.5,44.3,24.3,44.7,24.2"/>
		<path style="&st0;" d="M44,30.4l-0.7-1.6c-0.5,0.2-1,0.5-1.5,0.7l0.9,1.7C43.1,30.9,43.5,30.6,44,30.4"/>
		<path style="&st0;" d="M45.9,26.5l-0.4-1.3c-0.1,0-0.2,0.1-0.4,0.1c-0.4,0.1-0.8,0.3-1.2,0.4l0.5,1.4
			C44.9,26.9,45.4,26.7,45.9,26.5"/>
		<path style="&st0;" d="M47.5,31.5L47,29.9c-0.4,0.1-0.9,0.3-1.3,0.5l0.6,1.6C46.7,31.8,47.1,31.6,47.5,31.5"/>
		<path style="&st0;" d="M46.7,29l-0.4-1.3c-0.5,0.2-0.9,0.3-1.4,0.5l0.6,1.4C45.8,29.4,46.3,29.2,46.7,29"/>
		<path style="&st0;" d="M49.3,25.3l-0.2-1c-0.5,0.1-1.1,0.2-1.6,0.4l0.3,1.1C48.3,25.6,48.8,25.4,49.3,25.3"/>
	</g>
</g>
<g>
	<g>
		<path style="&st1;" d="M113,55.4c0-3.5-2.9-6.4-6.4-6.4H95c1.8-3.3,2.8-6.3,2.8-10.6v-0.7c0-2.3-0.9-4.4-2.5-6.1
			c-1.6-1.6-3.7-2.5-6-2.6c-2.2,0-4.2,1.7-4.4,4c-0.5,6.4-4.5,11.7-12.2,16.2c0,0,0,0,0,0c-2.3,1.4-4.6,2.5-6.5,3.4
			c-0.7,0.3-1.3,0.6-1.8,0.9c-0.7,0.3-1.1,1.1-1.1,1.8v26.2c0,0.8,0.4,1.5,1.1,1.8c8.3,4.1,15.1,4.6,23.1,4.6c1.2,0,2.5,0,3.8,0
			c1.4,0,2.9,0,4.5,0h6.5c3.5,0,6.4-2.9,6.4-6.4c0-1.2-0.3-2.3-0.9-3.3c1.8-1.1,3.1-3.2,3.1-5.5c0-1.2-0.3-2.3-0.9-3.3
			c1.8-1.1,3.1-3.2,3.1-5.5c0-1.7-0.6-3.2-1.7-4.3C112.4,58.6,113,57,113,55.4z M104.4,37.5h4.4c1.1,0,2-0.9,2-2c0-1.1-0.9-2-2-2
			h-4.4c-1.1,0-2,0.9-2,2C102.3,36.6,103.3,37.5,104.4,37.5z M73.8,37.5h4.4c1.1,0,2-0.9,2-2c0-1.1-0.9-2-2-2h-4.4c-1.1,0-2,0.9-2,2
			C71.8,36.6,72.7,37.5,73.8,37.5z M83,25.2c0.4,0.7,1.1,1,1.8,1c0.3,0,0.7-0.1,1-0.3c1-0.6,1.3-1.8,0.7-2.8l-2.2-3.8
			c-0.6-1-1.8-1.3-2.8-0.7c-1,0.6-1.3,1.8-0.7,2.8L83,25.2z M96.8,25.9c0.3,0.2,0.7,0.3,1,0.3c0.7,0,1.4-0.4,1.8-1l2.2-3.8
			c0.6-1,0.2-2.2-0.7-2.8c-1-0.6-2.2-0.2-2.8,0.7l-2.2,3.8C95.5,24.1,95.8,25.3,96.8,25.9z"/>
	</g>
</g>
<g>
	<g>
		<path style="&st0;" d="M64.4,49H46.9c-1.1,0-2,0.9-2,2v34.9c0,1.1,0.9,2,2,2.1h6.7v0h4.1v0H60c2.5,0,4.7-1.5,5.7-3.6
			c0.4-0.9,0.7-1.8,0.7-2.9V51C66.4,49.9,65.5,49,64.4,49z"/>
	</g>
</g>
</svg>
