<?xml version="1.0" encoding="utf-8"?>
<!-- Generator: Adobe Illustrator 26.0.1, SVG Export Plug-In . SVG Version: 6.00 Build 0)  -->
<svg version="1.1" id="Layer_1" xmlns="http://www.w3.org/2000/svg" xmlns:xlink="http://www.w3.org/1999/xlink" x="0px" y="0px"
	 width="256px" height="256px" viewBox="0 0 256 256" style="enable-background:new 0 0 256 256;" xml:space="preserve">
<g id="Mask_Group_2" transform="translate(-105 -203)">
	
		<linearGradient id="Ellipse_652_00000005247048143534429520000005786073420389389214_" gradientUnits="userSpaceOnUse" x1="108.0366" y1="458.1891" x2="108.0366" y2="456.5956" gradientTransform="matrix(150 0 0 -150 -15972 68936)">
		<stop  offset="0" style="stop-color:#E3ECFA"/>
		<stop  offset="1" style="stop-color:#DAE7FF"/>
	</linearGradient>
	<path id="Ellipse_652" style="fill:url(#Ellipse_652_00000005247048143534429520000005786073420389389214_);" d="M353,327.2
		c0,66-53.5,119.5-119.5,119.5S114,393.2,114,327.2s53.5-119.5,119.5-119.5S353,261.1,353,327.2z"/>
	<g id="Group">
		<g id="Mask_Group">
			<g>
				<defs>
					<circle id="SVGID_1_" cx="233.5" cy="327.2" r="119.5"/>
				</defs>
				<clipPath id="SVGID_00000070815958911535522590000006419607691562019469_">
					<use xlink:href="#SVGID_1_"  style="overflow:visible;"/>
				</clipPath>
				<g id="Ellipse_653-2" style="clip-path:url(#SVGID_00000070815958911535522590000006419607691562019469_);">
					<path id="Rectangle_5615" style="fill:#FFFFFF;" d="M165,276.2h137c4.4,0,8,3.6,8,8v167.3c0,4.4-3.6,8-8,8H165
						c-4.4,0-8-3.6-8-8V284.1C157,279.7,160.6,276.2,165,276.2z"/>
				</g>
			</g>
		</g>
	</g>
	<path id="Rectangle_5617" style="fill:#E1EBFA;" d="M212.3,292.1h41.4c2.6,0,4.8,2.1,4.8,4.8s-2.1,4.8-4.8,4.8l0,0h-41.4
		c-2.6,0-4.8-2.1-4.8-4.8S209.6,292.1,212.3,292.1z"/>
	<path id="Rectangle_5619" style="fill:#DFEAFB;" d="M180.9,412.3h105.2c4.4,0,8,3.6,8,8V433c0,4.4-3.6,8-8,8H180.9
		c-4.4,0-8-3.6-8-8v-12.7C172.9,415.9,176.5,412.3,180.9,412.3z"/>
	<g id="Group_26781">
		<path id="Ellipse_654" style="fill:#FFFFFF;" d="M204.8,252.3c0,3.5-2.9,6.4-6.4,6.4s-6.4-2.9-6.4-6.4s2.9-6.4,6.4-6.4
			S204.8,248.7,204.8,252.3z"/>
		<path id="Ellipse_655" style="fill:#1485FD;" d="M239.9,252.3c0,3.5-2.9,6.4-6.4,6.4s-6.4-2.9-6.4-6.4s2.9-6.4,6.4-6.4
			S239.9,248.7,239.9,252.3z"/>
		<path id="Ellipse_656" style="fill:#FFFFFF;" d="M274.9,252.3c0,3.5-2.9,6.4-6.4,6.4s-6.4-2.9-6.4-6.4s2.9-6.4,6.4-6.4
			S274.9,248.7,274.9,252.3z"/>
	</g>
	<g id="Layer_2_00000050631234736861247880000013284761531278282925_">
		<path style="fill:#1485FD;" d="M233,347.2c-6.8,0-12.4-5.6-12.4-12.4s5.6-12.4,12.4-12.4c6.8,0,12.4,5.6,12.4,12.4
			S239.9,347.2,233,347.2z M233,326.6c-4.6,0-8.3,3.7-8.3,8.3s3.7,8.3,8.3,8.3s8.3-3.7,8.3-8.3S237.6,326.6,233,326.6z"/>
		<path style="fill:#1485FD;" d="M233,376.2c-9.3,0-18.1-4.2-24-11.3l-1.1-1.3l1.1-1.3c10.9-13.2,30.4-15.1,43.6-4.3
			c1.6,1.3,3,2.7,4.3,4.3l1.1,1.3l-1.1,1.3C251.1,372,242.3,376.2,233,376.2z M213.4,363.5c10.1,10.8,27.1,11.4,38,1.3
			c0.4-0.4,0.9-0.8,1.3-1.3c-10.1-10.8-27.1-11.4-38-1.3C214.3,362.6,213.8,363.1,213.4,363.5z"/>
		<path style="fill:#1485FD;" d="M233,376.2c-17.1,0-31-13.9-31-31c0-17.1,13.9-31,31-31s31,13.9,31,31c0,7.2-2.5,14.1-7,19.7
			C251.1,372,242.3,376.2,233,376.2z M233,318.3c-14.8,0-26.9,12-26.9,26.9c0,14.8,12,26.9,26.9,26.9c14.8,0,26.9-12,26.9-26.9
			C259.9,330.3,247.9,318.3,233,318.3z"/>
		<path style="fill:#1485FD;" d="M210.7,363.5c0,0,20.8,23.2,42,2.3l2.7-2.3c0,0-17.7-18.4-35.7-7.3L210.7,363.5z"/>
		<circle style="fill:#1485FD;" cx="233" cy="334.8" r="10.3"/>
	</g>
	<g>
		<g>
			<path style="fill:#1485FD;" d="M233,416.1c-1.1,0-2.1,0.9-2.1,2.1c0,1.1,0.9,2.1,2.1,2.1c1.1,0,2.1-0.9,2-2
				C235.1,417,234.1,416.1,233,416.1z"/>
			<path style="fill:#1485FD;" d="M252.1,423.4c1.3-2.2,1.3-4.9,0-7.1l-12.9-22.4c-1.3-2.3-3.6-3.6-6.2-3.6c-2.6,0-4.9,1.3-6.2,3.6
				l-12.9,22.4c-1.3,2.3-1.3,4.9,0,7.2c1.3,2.2,3.6,3.5,6.2,3.5h25.8C248.5,427,250.8,425.7,252.1,423.4z M249.3,421.8
				c-0.7,1.2-2,2-3.4,2h-25.8c-1.4,0-2.7-0.7-3.4-1.9c-0.7-1.2-0.7-2.7,0-3.9l12.9-22.4c0.7-1.2,2-2,3.4-2c1.4,0,2.7,0.7,3.4,2
				l12.9,22.4C250,419.1,250,420.6,249.3,421.8z"/>
			<path style="fill:#1485FD;" d="M232.5,401.6c-1,0.3-1.6,1.2-1.6,2.3c0,0.7,0.1,1.3,0.1,2c0.1,2.5,0.3,4.9,0.4,7.4
				c0,0.8,0.7,1.5,1.5,1.5c0.8,0,1.5-0.7,1.5-1.5c0-0.5,0-1,0-1.5c0.1-1.6,0.2-3.2,0.3-4.8c0-1,0.1-2.1,0.2-3.1c0-0.4,0-0.7-0.2-1
				C234.5,401.8,233.5,401.4,232.5,401.6z"/>
		</g>
	</g>
</g>
</svg>
