<?xml version="1.0" encoding="utf-8"?>
<!-- Generator: Adobe Illustrator 24.1.0, SVG Export Plug-In . SVG Version: 6.00 Build 0)  -->
<svg version="1.1" id="Layer_1" xmlns="http://www.w3.org/2000/svg" xmlns:xlink="http://www.w3.org/1999/xlink" x="0px" y="0px"
	 width="198.4px" height="132.7px" viewBox="0 0 198.4 132.7" style="enable-background:new 0 0 198.4 132.7;" xml:space="preserve"
	>
<style type="text/css">
	.st0{fill:#868487;}
	.st1{fill:#29367B;}
	.st2{fill:#B1AEB3;}
	.st3{fill:#D0DA33;}
	.st4{fill:#71BA44;}
	.st5{fill:#27B8BE;}
	.st6{fill:#58B75E;}
	.st7{fill:#3088C8;}
	.st8{fill:#1E3871;}
	.st9{fill:#727A82;}
</style>
<g>
	<path class="st0" d="M141.5,75.4v0.1c0,9.6-7,16.6-18.3,16.6c-9.2,0-15.5-3.6-19.8-8.8L111,76c3.5,3.9,7.1,6.1,12.3,6.1
		c4.2,0,7.2-2.4,7.2-6.2c-0.1-0.1,0.8-6.6-10-6.6h-4.7l-1.7-7.1l16.3-16.4l-6.5,4.2h-17.6v-9.6h34.4v8.4l-12.9,12.3
		C134.7,62.3,141.5,65.9,141.5,75.4 M109.6,17.3c0-4.6,3.3-8.3,7.9-8.3h5.2l-1.4,0.7c0.1,12.6-0.3,14.2,0.6,16l-4.4,0
		C112.9,25.7,109.6,21.9,109.6,17.3L109.6,17.3z M117.5,27.8h4.6v-1.7c0.3,0.6,0.8,1,1.5,1.4c1.5,0.7,0.4,0.3,42.7,0.4v-21h-2.2
		v18.8c0,0-38.7,0.1-39.4-0.2c-0.6-0.3-0.9-0.9-1-1.6c-0.2-1.1-0.1-1.2-0.1-17h-6c-6.2,0-10.4,4.9-10.4,10.5v0.1
		C107.2,23,111.3,27.8,117.5,27.8 M182.7,4.6h-4.9C178,3,177.2,0,180.5,0h1.6v1.6c-1.5,0.1-2.4-0.4-2.4,0.8v0.5h3.1V4.6z
		 M188.4,28.1c-0.6,0-1.2-0.1-1.8-0.3l0.6-2.1c1,0.3,2.3,0.3,2.8-0.6c0.6-1.1,0.4-1.4,0.4-18.2h2.2c-0.1,15.7,0.2,16.1-0.2,17.9
		C192,26.9,190.7,28.1,188.4,28.1 M123.6,4.6h-2.2V2.4h2.2V4.6z M172.7,12.3c1-2,3.2-3.2,5.5-3.2v0h3.6l-1.3,0.6v10
		c-1.8-0.1-3,0.2-4.6-0.3c-2.2-0.7-3.7-2.4-3.7-4.9C172.2,13.7,172.3,13,172.7,12.3 M172.7,20.2c2.9,2.1,6.9,1.7,7.1,1.8l0.8-1.6
		c-0.1,1.5,0.4,3.7-1,4.7c-1.2,0.9-3.3,0.9-4.7,0.6c-0.5-0.1-1.2-0.4-1.9-0.7l-0.7,2.1c1.4,0.5,2.8,0.9,4.3,0.9
		c2.2,0,3.8-0.5,4.7-1.5c1-1,1.5-2.4,1.5-4.2V6.9c-2.7,0.1-4.8-0.3-7.3,0.6C168.7,9.8,168.6,17.3,172.7,20.2 M119.1,4.6h-2.2V2.4
		h2.2V4.6z M96,6.8h2.3v20.9h-1.9L81.6,8.9l1.3,3v15.8h-2.3V6.8h2.2l14.2,18l-1-2.6C96,22.3,96,6.8,96,6.8z M9,27.9L0,6.8h2.6
		c0.1,0.3,7.3,17.7,8,19.4L10.4,24l7.1-17.1h2.5l-9,21.1C11.1,27.9,9,27.9,9,27.9z M48.9,6.8h2.4v20.9h-2.4V6.8z M74.3,17.3
		c0,4.8-3.4,8.6-8.2,8.6s-8.3-3.9-8.3-8.6v-0.1c0-4.7,3.4-8.6,8.2-8.6C70.8,8.7,74.3,12.5,74.3,17.3L74.3,17.3z M66.1,6.5
		c-6.4,0-10.7,5-10.7,10.8v0.1c0,5.8,4.3,10.8,10.7,10.8s10.7-5,10.7-10.8v-0.1C76.7,11.5,72.5,6.5,66.1,6.5 M45,22.1L45,22.1
		c0,3.6-3,6-7.2,6c-3.3,0-6-1.1-8.6-3.3l1.5-1.7c2.2,2,4.3,3,7.2,3c2.8,0,4.7-1.5,4.7-3.6v-0.1c0-5.8-12.5-2-12.5-10v-0.1
		c0-3.3,2.9-5.7,6.9-5.7c3.1,0,5.2,0.9,7.4,2.6L43,10.9C38.3,7.1,32.5,8.5,32.5,12v0.1c0,2,1.1,3.1,5.7,4.1
		C42.9,17.2,45,18.9,45,22.1 M25.7,27.7h-2.4V6.8h2.4V27.7z M163.3,30.1h2.2v2.2h-2.2V30.1z M158.8,30.1h2.2v2.2h-2.2V30.1z
		 M18.7,81.6h19.4v9.6H0.5v-8.8c18.8-16,25.7-19.1,25.7-26c0-4.3-2.8-6.6-6.8-6.6c-3.9,0-6.6,2.2-10.4,6.8l-7.8-6.3
		c5-6.8,9.9-10.5,19-10.5c10.5,0,17.5,6.2,17.5,15.7v0.1c0,11.9-9,15.8-24.5,28.2l-2.2,1.7L18.7,81.6z M186.7,66
		c0,8.7-6.3,15.8-15.3,15.8c-9,0-15.4-7.3-15.4-16v-0.1c0-8.7,6.3-15.8,15.3-15.8c9,0,15.4,7.3,15.4,16V66z M171.5,39.6
		c-15.7,0-27.1,11.8-27.1,26.3V66c0,14.4,11.3,26.1,27,26.1s27.1-11.8,27.1-26.3v-0.1C198.4,51.3,187.2,39.6,171.5,39.6"/>
	<path class="st1" d="M68.5,36.3l2.6,2.5l-2.5,2.6L66,38.8"/>
	<path class="st2" d="M74.4,38.8l2.6,2.5l2.5-2.6l-2.6-2.5"/>
	<path class="st3" d="M70.8,42.1l2,1.9l1.9-2l-2-1.9"/>
	<path class="st4" d="M78.1,43.2l2,1.9l1.9-2l-2-1.9"/>
	<path class="st3" d="M67.5,45.1l2,1.9l1.9-2l-2-1.9"/>
	<path class="st5" d="M74.2,45.4l2,1.9l1.9-2l-2-1.9"/>
	<path class="st4" d="M71.6,47.7L73,49l1.4-1.4L73,46.3"/>
	<path class="st6" d="M76.9,48.7l1.4,1.4l1.4-1.4l-1.4-1.4"/>
	<path class="st7" d="M88.6,38l4.4-0.8l0.8,4.4l-4.4,0.8L88.6,38z"/>
	<path class="st8" d="M82.8,39.9l3.5-0.6l0.6,3.5l-3.5,0.6L82.8,39.9z"/>
	<path class="st5" d="M89.6,44.7l3.5-0.6l0.6,3.5l-3.5,0.6L89.6,44.7z"/>
	<path class="st3" d="M84.8,45.3l2.7-0.5l0.5,2.7L85.3,48L84.8,45.3z"/>
	<path class="st2" d="M90.1,50.4l2.7-0.5l0.5,2.7l-2.7,0.5L90.1,50.4z"/>
	<path class="st5" d="M80.7,46.4l2.7-0.5l0.5,2.7l-2.7,0.5L80.7,46.4z"/>
	<path class="st4" d="M85.7,49.9l2.7-0.5l0.5,2.7l-2.7,0.5L85.7,49.9z"/>
	<path class="st2" d="M82.2,50.3l1.9-0.4l0.4,1.9l-1.9,0.4L82.2,50.3z"/>
	<path class="st6" d="M85.9,54.2l1.9-0.4l0.4,1.9l-1.9,0.4L85.9,54.2z"/>
	<path class="st1" d="M101.6,52.3l-1.9,4l4,1.9l1.9-4"/>
	<path class="st5" d="M95.9,50.5l-1.5,3.2l3.2,1.5l1.5-3.2"/>
	<path class="st4" d="M98.5,58.4L97,61.6l3.2,1.5l1.5-3.2"/>
	<path class="st3" d="M94.3,56l-1.2,2.5l2.5,1.2l1.2-2.5"/>
	<path class="st3" d="M95.6,63.3l-1.2,2.5l2.5,1.2l1.2-2.5"/>
	<path class="st7" d="M90.3,54.5L89.1,57l2.5,1.2l1.2-2.5"/>
	<path class="st2" d="M92.2,60.3L91,62.8l2.5,1.2l1.2-2.5"/>
	<path class="st4" d="M89.2,58.5l-0.8,1.8l1.8,0.8l0.8-1.8"/>
	<path class="st5" d="M89,65.7l0.8-1.8l1.8,0.8l-0.8,1.8L89,65.7z"/>
	<path class="st7" d="M103.7,71.6l-3.9,2.1l2.1,3.9l3.9-2.1"/>
	<path class="st5" d="M100.2,66.7l-3.1,1.7l1.7,3.1l3.1-1.7"/>
	<path class="st5" d="M97.7,74.7l-3.1,1.7l1.7,3.1l3.1-1.7"/>
	<path class="st1" d="M95.7,70.3l-2.4,1.3l1.3,2.4l2.4-1.3"/>
	<path class="st6" d="M92.4,76.9L90,78.3l1.3,2.4l2.4-1.3"/>
	<path class="st8" d="M93.3,66.7l-2.4,1.3l1.3,2.4l2.4-1.3"/>
	<path class="st3" d="M91.5,72.6l-2.4,1.3l1.3,2.4l2.4-1.3"/>
	<path class="st2" d="M90.1,69.4l-1.7,0.9l0.9,1.7l1.7-0.9"/>
	<path class="st5" d="M87.5,74.1l-1.7,0.9l0.9,1.7l1.7-0.9"/>
	<path class="st4" d="M89.3,92.2l0.5-4.4l4.4,0.5l-0.5,4.4L89.3,92.2z"/>
	<path class="st8" d="M90.2,85.5l0.4-3.5l3.5,0.4l-0.4,3.5L90.2,85.5z"/>
	<path class="st5" d="M83.5,90.5L84,87l3.5,0.4l-0.4,3.5L83.5,90.5z"/>
	<path class="st4" d="M85.4,85.1l0.3-2.8l2.8,0.3l-0.3,2.8L85.4,85.1z"/>
	<path class="st2" d="M78.8,88.6l0.3-2.8l2.8,0.3l-0.3,2.8L78.8,88.6z"/>
	<path class="st2" d="M85.5,80.8l0.3-2.8l2.8,0.3l-0.3,2.8L85.5,80.8z"/>
	<path class="st4" d="M80.6,84.5l0.3-2.8l2.8,0.3l-0.3,2.8L80.6,84.5z"/>
	<path class="st2" d="M82.3,80.4l0.2-1.9l1.9,0.2l-0.2,1.9L82.3,80.4z"/>
	<path class="st2" d="M77.4,82.7l0.2-1.9l1.9,0.2l-0.2,1.9L77.4,82.7z"/>
	<path class="st3" d="M76.7,96.5l-3.3-3l-3,3.3l3.3,3"/>
	<path class="st4" d="M76.1,34.3l-3.3-3l-3,3.3l3.3,3"/>
	<path class="st5" d="M80.1,91.6l-2.6-2.4l-2.4,2.6l2.6,2.4"/>
	<path class="st4" d="M71.8,91.8l-2.6-2.4L66.7,92l2.6,2.4"/>
	<path class="st7" d="M75.3,88.5l-2-1.9l-1.9,2l2,1.9"/>
	<path class="st3" d="M68,87.5l-2-1.9l-1.9,2l2,1.9"/>
	<path class="st3" d="M78,85.1l-2-1.9l-1.9,2l2,1.9"/>
	<path class="st2" d="M71.8,85.2l-2-1.9l-1.9,2l2,1.9"/>
	<path class="st8" d="M74.4,82.9L73,81.6L71.7,83l1.4,1.3"/>
	<path class="st2" d="M69.1,81.9l-1.4-1.3L66.3,82l1.4,1.3"/>
	<path class="st7" d="M52.4,89.3l4.4-0.9l0.9,4.4l-4.4,0.9L52.4,89.3z"/>
	<path class="st5" d="M59.1,88.1l3.5-0.7l0.7,3.5l-3.5,0.7L59.1,88.1z"/>
	<path class="st4" d="M52.3,83.3l3.5-0.7l0.7,3.5L53,86.8L52.3,83.3z"/>
	<path class="st3" d="M58,83.3l2.7-0.5l0.5,2.7l-2.7,0.5L58,83.3z"/>
	<path class="st1" d="M62.1,82.2l2.7-0.5l0.5,2.7l-2.7,0.5L62.1,82.2z"/>
	<path class="st7" d="M57.1,78.7l2.7-0.5l0.5,2.7l-2.7,0.5L57.1,78.7z"/>
	<path class="st4" d="M61.5,78.9l1.9-0.4l0.4,1.9l-1.9,0.4L61.5,78.9z"/>
	<path class="st2" d="M57.8,75l1.9-0.4l0.4,1.9l-1.9,0.4L57.8,75z"/>
	<path class="st5" d="M44.4,78.7l1.8-4l-4.1-1.8l-1.8,4"/>
	<path class="st3" d="M50.1,80.5l1.5-3.2l-3.2-1.5L46.9,79"/>
	<path class="st7" d="M47.4,72.6l1.5-3.2l-3.3-1.5l-1.5,3.2"/>
	<path class="st5" d="M49.1,73.8l1.2-2.5l2.5,1.2l-1.2,2.5L49.1,73.8z"/>
	<path class="st2" d="M55,81.2l1.2-2.5l-2.5-1.2l-1.2,2.5"/>
	<path class="st1" d="M47.7,66.5l1.2-2.5l2.5,1.2l-1.2,2.5L47.7,66.5z"/>
	<path class="st6" d="M53.1,75.2l1.2-2.5l2.5,1.2l-1.2,2.5L53.1,75.2z"/>
	<path class="st3" d="M51.1,69.5l1.2-2.5l2.5,1.2l-1.2,2.5L51.1,69.5z"/>
	<path class="st8" d="M56.6,72.3l0.8-1.8l-1.8-0.8l-0.8,1.8"/>
	<path class="st4" d="M55.9,66.9l0.8-1.8l-1.8-0.8l-0.8,1.8"/>
	<path class="st5" d="M41.9,59.5l3.9-2.2l-2.2-3.9l-3.9,2.2"/>
	<path class="st4" d="M45.5,64.3l3.1-1.8l-1.8-3.1l-3.1,1.8"/>
	<path class="st8" d="M47.9,56.3l3.1-1.8l-1.8-3.1l-3.1,1.8"/>
	<path class="st7" d="M50,60.7l2.4-1.4L51,56.9l-2.4,1.4"/>
	<path class="st4" d="M53.1,54l2.4-1.4l-1.4-2.4l-2.4,1.4"/>
	<path class="st5" d="M52.4,64.2l2.4-1.4l-1.4-2.4L51,61.8"/>
	<path class="st3" d="M54.1,58.3l2.4-1.4l-1.4-2.4l-2.4,1.4"/>
	<path class="st2" d="M55.6,61.5l1.7-1l-1-1.7l-1.7,1"/>
	<path class="st4" d="M58.1,56.7l1.7-1l-1-1.7l-1.7,1"/>
	<path class="st4" d="M51.1,42.6l0.5-4.4l4.4,0.5L55.6,43L51.1,42.6z"/>
	<path class="st2" d="M51.3,48.5l0.4-3.5l3.6,0.4l-0.4,3.5L51.3,48.5z"/>
	<path class="st5" d="M57.9,43.4l0.4-3.5l3.6,0.4l-0.4,3.5L57.9,43.4z"/>
	<path class="st3" d="M57,48.2l0.3-2.8l2.8,0.3l-0.3,2.8L57,48.2z"/>
	<path class="st7" d="M63.5,44.6l0.3-2.8l2.8,0.3l-0.3,2.8L63.5,44.6z"/>
	<path class="st5" d="M56.9,52.4l0.3-2.8L60,50l-0.3,2.8L56.9,52.4z"/>
	<path class="st4" d="M61.7,48.7l0.3-2.8l2.8,0.3L64.5,49L61.7,48.7z"/>
	<path class="st8" d="M61.1,52.1l0.2-1.9l1.9,0.2L63,52.3L61.1,52.1z"/>
	<path class="st2" d="M65.9,49.7l0.2-1.9l1.9,0.2l-0.2,1.9L65.9,49.7z"/>
	<path class="st9" d="M86.9,68.2c-2.3-1.3-5.6-1.7-8.9-0.5c-1.5,0.6-2.9,1.5-4.2,2.5c-0.8-4.7-0.4-9.1-0.2-11.3c0,0,0,0,0,0
		c1.7,1.1,1.2,4,0.9,4.8c0,0,0,0,0,0c2.1-2.5,1.1-5.2,0.6-5.9c-0.1-0.1,0.4,0.3,0.8,0.8c1.5,1.9,0.8,3.9,0.9,3.9c0,0,0,0,0,0
		c1-1.9,0.7-4.3-1.3-6.1c-0.1-0.1,0.3,0,0.4,0.1c1.7,0.6,2.6,2.3,2.6,3.9c0,0.3,1.2-2.9-1.6-4.6c-0.5-0.3-1.1-0.5-1.4-0.5
		c-0.3,0,1.5-0.3,2.7,0.5c0.7,0.5,0.9,1.1,0.9,0.9c-0.2-2.2-2.8-3.1-4.4-2.4c-0.2,0.1,0.6-1.1,2.1-1c0.3,0,0.6,0.1,0.8,0.2
		c0,0,0,0,0,0c-1.1-1.3-3-1.3-4,0.2c0,0,0,0,0,0c-0.4-0.7-0.7-1.5-0.8-2.4c0-0.2-0.1,1-0.9,2.4c0,0,0,0,0,0c-1-1.5-2.9-1.5-4-0.2
		c0,0,0,0,0,0c0.8-0.4,2.2-0.3,2.9,0.8c0,0,0,0,0,0c-1.6-0.7-4.2,0.2-4.4,2.4c0,0,0,0,0,0c0.1-0.1,0.3-0.4,0.6-0.7
		c1.3-1.1,3.3-0.8,3-0.8c-0.8,0.1-2.4,0.8-3,2.4c-0.5,1.3,0,3.1,0,2.6c0-1.5,0.9-3.4,2.9-3.9c0,0,0,0,0,0c-3.2,2.8-1.3,6.3-1.3,6.1
		c-0.1-1.1-0.2-3.1,1.7-4.7c0,0,0,0,0,0c-0.4,0.7-1.4,3.4,0.6,5.9c0,0,0,0,0,0c-0.4-0.8-0.8-3.8,0.9-4.8c0,0,0,0,0,0
		c0.2,2.2,0.6,6.6-0.2,11.3c-2.7-2-5.3-3.4-8.6-3.2c-1.7,0.1-3.3,0.6-4.5,1.2c0,0,0,0.1,0,0.1c4.9-1.6,9.1,0.3,13.1,3.6
		c-2,1.7-3.8,3.6-4.8,4.1c-0.2-0.3-0.7-0.5-1.1-0.4c-0.9,0.2-1.1,1.3-0.6,1.8c1.7,1.7,4.4-1.7,7.6-4.5c3.1,2.7,5.9,6.3,7.6,4.5
		c0.1-0.1,0.3-0.6,0.2-0.9c-0.2-0.9-1.4-1.2-2-0.4c-1-0.5-2.8-2.3-4.8-4.1C77.8,68.6,82,66.8,86.9,68.2C87,68.3,87,68.3,86.9,68.2"
		/>
	<path class="st0" d="M71.3,115.1h1.3v-11.4h-1.3V115.1z M37.8,113.8l-2-4.9c2.1-1.7,4.6-1.4,6.3,0l-2,4.9H37.8z M30.8,113.8
		c-1,0-1.7,0.1-2.6-0.2c-3.5-1.1-2.5-5.9,1.3-5.9h1.3V113.8z M66.3,113.8c-2.1-0.1-3.9,0.4-4.9-1.3c0.2-0.8,0.1-1.6,0.1-5.3h-1.3
		v4.3c0,3.2-3.8,3-4.7,1.1c-0.4-0.8-0.1-1.1-0.2-5.4H54v4.4c0,1.4-0.9,2.2-2.2,2.2h-2.5v-6.6h-1.3v6.6h-6.7l2.2-5.3
		c-1.3-1.1-3-2.2-4.7-2.2c-1.7,0-3.5,1-4.7,2.2l2.3,5.3H32v-7.4h-2c-2.9,0-5.3,1.7-5.3,4.4c0,4.8,5.9,4.2,6.1,4.3
		c0,0.2,0.2,1.3-0.6,1.8c-0.7,0.5-1.9,0.5-2.7,0.3c-0.3-0.1-0.7-0.2-1.1-0.4l-0.4,1.2c0.8,0.3,1.6,0.5,2.4,0.5
		c2.4,0,3.6-1.2,3.6-3.3v-0.2c20.8-0.1,20.2,0.3,21.5-0.4c0.5-0.3,0.9-0.6,1.2-1.1c0.3,0.5,0.7,0.9,1.3,1.2c1.1,0.6,2.8,0.5,3.9,0
		c0.5-0.3,1-0.7,1.2-1.2c0.5,0.8,1.3,1.4,2.8,1.5v0h3.7v-11.4h-1.3V113.8z M180.9,113.3c-1.1,2.6-5,2.7-6.1,0
		c-0.3-0.8-0.3-1.8,0-2.6c1.4-3.4,6.4-2.4,6.4,1.3C181.1,112.4,181,112.9,180.9,113.3 M168.5,113.3c-1,2.3-3.9,2.6-5.5,1
		c-1.3-1.3-1.2-3.4,0-4.7c1-1.1,2.5-1.2,3.7-0.7C168.5,109.6,169.2,111.7,168.5,113.3 M137.4,113.8c-1,0-1.7,0.1-2.6-0.2
		c-3.4-1.1-2.6-5.9,1.3-5.9h1.3L137.4,113.8L137.4,113.8z M186.4,113.8H182c1.4-3-0.8-6.5-4.3-6.5c-3.2,0-5.5,3.3-4.2,6.5h-4
		c1.3-2.9-0.7-6.5-4.3-6.5c-3.2,0-5.5,3.3-4.2,6.5h-4.1v-10.2h-1.3v10.2h-4.1c-0.1-1.3,0.3-3.2-0.8-4.5c-0.7-0.8-1.6-1.1-2.7-1.1
		h-5.7l2.4-4.6h-1.4l-2.5,4.6c0.1,0.5,0.2,0.9,0.6,1.3c6.4,0.1,6.8-0.1,7.6,0.2c0.6,0.2,1,0.7,1.1,1.2c0.2,0.7,0.1,1.1,0.1,2.9
		h-11.8v-7.4h-2c-3.4,0-5.3,2-5.3,4.3c0,2.9,2.3,4.3,5.3,4.3H162c1.9,2,5,1.9,6.8,0h5.6c1.9,2,5,1.9,6.8,0h6.5v-11.4h-1.3
		L186.4,113.8L186.4,113.8z M191.4,115.1h1.3v-11.4h-1.3V115.1z M97.3,117.9h1.3v-1.3h-1.3V117.9z M109.8,113.8l-2-4.9
		c2-1.7,4.6-1.4,6.3,0l-2,4.9H109.8z M118.8,113.8h-5.4l2.2-5.3c-1.3-1.1-3-2.2-4.7-2.2c-1.7,0-3.5,1-4.7,2.2l2.3,5.3h-4.8v-7.4
		h-1.3v8.9c0,1.1-0.1,2-1.2,2c-0.3,0-0.4,0-0.7-0.1l-0.3,1.2c1.1,0.3,2.3,0.2,3-0.7c0.6-0.8,0.5-2,0.5-2.6h16.4v-11.4h-1.3
		L118.8,113.8L118.8,113.8z M21.9,107.6c-1.4-1.6-3.1-1-3.6-1.1v1.3c0.9,0,1.4-0.1,2,0.2c0.5,0.3,0.9,0.7,1.1,1.3
		c0.2,0.7,0.1,1.2,0.1,4.7h-6v1.3h7.3c-0.1-4.8,0.1-5.3-0.2-6.4C22.4,108.3,22.1,107.9,21.9,107.6 M92.6,117.9h1.3v-1.3h-1.3V117.9z
		 M84.9,113.8c-1,0-1.7,0.1-2.6-0.2c-3.4-1.1-2.6-5.9,1.3-5.9h1.3V113.8z M98.6,106.5h-1.3v7.4h-4.8v-7.4h-1.3v7.4h-5.1v-7.4
		c-1.6,0.1-4-0.3-5.8,1.2c-2.6,2.2-1.9,7.4,3.8,7.4h14.5C98.6,115.1,98.6,106.5,98.6,106.5z M90.4,117.9h1.3v-1.3h-1.3V117.9z
		 M5,103.7H3.7v1.3H5C5,105,5,103.7,5,103.7z M136.4,103.7h-1.3v1.3h1.3V103.7z M86.1,103.7h-1.3v1.3h1.3V103.7z M12.6,117.9h1.3
		v-1.3h-1.3V117.9z M83.9,103.7h-1.3v1.3h1.3V103.7z M7.3,103.7H6v1.3h1.3V103.7z M10.3,117.9h1.3v-1.3h-1.3V117.9z M6,113.8
		c-1,0-1.7,0.1-2.6-0.2c-3.4-1.1-2.6-5.9,1.3-5.9H6V113.8z M13.6,106.5h-1.3v7.4H7.3v-7.4c-1.5,0-2.7-0.2-4.2,0.3
		c-1.2,0.4-2.2,1.1-2.7,2.3c-0.6,1.2-0.5,2.7,0.1,3.7c0.9,1.7,2.9,2.4,4.8,2.4h8.4C13.6,115.1,13.6,106.5,13.6,106.5z M123.8,115.1
		h1.3v-11.4h-1.3V115.1z M138.7,103.7h-1.3v1.3h1.3V103.7z"/>
	<path class="st0" d="M1.3,123.5h1.6v4.6l4.3-4.6h2l-3.8,3.9l4,5.2H7.4l-3.1-4.1l-1.4,1.5v2.6H1.3"/>
	<path class="st0" d="M10.8,123.5h1.6v9.1h-1.6V123.5z"/>
	<path class="st0" d="M14.9,123.5h1.5l4.9,6.3v-6.3h1.6v9.1h-1.3l-5-6.5v6.5h-1.6"/>
	<path class="st0" d="M24.8,128.1L24.8,128.1c0-2.6,2-4.7,4.7-4.7c1.6,0,2.6,0.4,3.5,1.2l-1,1.2c-2.5-2.1-5.5-0.6-5.5,2.2v0
		c0,1.9,1.2,3.3,3.1,3.3c0.9,0,1.6-0.3,2.2-0.7v-1.7h-2.3v-1.4h3.9v3.8C30.1,134.1,24.8,132.7,24.8,128.1"/>
	<path class="st0" d="M38.9,131.1c4.3,0,4.2-6.2,0-6.2h-1.8v6.2H38.9z M35.5,123.5h3.4c6.5,0,6.4,9.1,0,9.1h-3.4V123.5z"/>
	<path class="st0" d="M53.2,128.1L53.2,128.1c0-1.8-1.3-3.3-3.1-3.3c-1.8,0-3.1,1.4-3.1,3.2v0c0,1.8,1.3,3.2,3.1,3.2
		C51.9,131.3,53.2,129.8,53.2,128.1 M45.3,128.1L45.3,128.1c0-2.6,2-4.7,4.8-4.7c2.8,0,4.8,2.1,4.8,4.7v0c0,2.6-2,4.7-4.8,4.7
		C47.3,132.7,45.3,130.6,45.3,128.1"/>
	<path class="st0" d="M56.8,123.5h1.7l2.8,4.3l2.8-4.3h1.7v9.1h-1.6v-6.5l-2.9,4.3h-0.1l-2.9-4.3v6.5h-1.6"/>
	<path class="st0" d="M79.5,128.1L79.5,128.1c0-1.8-1.3-3.3-3.1-3.3c-1.8,0-3.1,1.4-3.1,3.2v0c0,1.8,1.3,3.2,3.1,3.2
		C78.2,131.3,79.5,129.8,79.5,128.1 M71.6,128.1L71.6,128.1c0-2.6,2-4.7,4.8-4.7c2.8,0,4.8,2.1,4.8,4.7v0c0,2.6-2,4.7-4.8,4.7
		C73.6,132.7,71.6,130.6,71.6,128.1"/>
	<path class="st0" d="M83.2,123.5H90v1.5h-5.2v2.5h4.6v1.5h-4.6v3.7h-1.6"/>
	<path class="st0" d="M95,131.3l1-1.1c0.9,0.8,1.7,1.2,2.9,1.2c1,0,1.6-0.5,1.6-1.1v0c0-2-5.1-0.6-5.1-4.1v0c0-2.8,3.9-3.5,6.4-1.5
		l-0.9,1.2c-2.1-1.6-4-0.9-4,0.1v0c0,2,5.1,0.7,5.1,4.1v0C102.1,133.2,97.6,133.5,95,131.3"/>
	<path class="st0" d="M109.3,129l-1.6-3.6l-1.6,3.6H109.3z M107,123.4h1.5l4,9.2h-1.7l-0.9-2.2h-4.3l-0.9,2.2H103L107,123.4z"/>
	<path class="st0" d="M113.4,128.7v-5.2h1.6v5.2c0,1.7,0.9,2.6,2.3,2.6c1.4,0,2.3-0.9,2.3-2.5v-5.2h1.6v5.2c0,2.7-1.5,4.1-3.9,4.1
		C115,132.7,113.4,131.4,113.4,128.7"/>
	<path class="st0" d="M127,131.1c4.3,0,4.2-6.2,0-6.2h-1.8v6.2H127z M123.6,123.5h3.4c6.5,0,6.4,9.1,0,9.1h-3.4V123.5z"/>
	<path class="st0" d="M133.9,123.5h1.6v9.1h-1.6V123.5z"/>
	<path class="st0" d="M147.4,129l-1.6-3.6l-1.6,3.6H147.4z M145.1,123.4h1.5l4,9.2h-1.7l-0.9-2.2h-4.3l-0.9,2.2H141L145.1,123.4z"/>
	<path class="st0" d="M156,128c1.1,0,1.9-0.6,1.9-1.5v0c0-1-0.7-1.5-1.9-1.5h-2.3v3.1C153.7,128,156,128,156,128z M152.1,123.5h4.1
		c1.9,0,3.4,1,3.4,2.9c0,0.1,0.2,2.1-2.2,2.8l2.5,3.4h-1.9l-2.2-3.2c-0.2,0-2.1,0-2,0v3.2h-1.6V123.5z"/>
	<path class="st0" d="M167.3,129l-1.6-3.6l-1.6,3.6H167.3z M165,123.4h1.5l4,9.2h-1.7l-0.9-2.2h-4.3l-0.9,2.2H161L165,123.4z"/>
	<path class="st0" d="M176.3,131.2c1.1,0,1.8-0.4,1.8-1.2v0c0-0.8-0.6-1.2-1.9-1.2h-2.5v2.5H176.3z M175.8,127.3
		c1,0,1.7-0.4,1.7-1.2v0c0-0.7-0.6-1.2-1.6-1.2h-2.3v2.4H175.8z M172,123.5h4.1c1.6,0,3,0.8,3,2.3c0,0.1,0.2,1.3-1.3,2.1
		c1.1,0.4,1.8,1,1.8,2.2v0c0,1.6-1.3,2.5-3.4,2.5H172V123.5z"/>
	<path class="st0" d="M181.6,123.5h1.6v9.1h-1.6V123.5z"/>
	<path class="st0" d="M191,129l-1.6-3.6l-1.6,3.6H191z M188.7,123.4h1.5l4,9.2h-1.7l-0.9-2.2h-4.3l-0.9,2.2h-1.6L188.7,123.4z"/>
</g>
</svg>
