<?xml version="1.0" encoding="utf-8"?>
<!-- Generator: Adobe Illustrator 24.1.0, SVG Export Plug-In . SVG Version: 6.00 Build 0)  -->
<svg version="1.1" id="Layer_1" xmlns="http://www.w3.org/2000/svg" xmlns:xlink="http://www.w3.org/1999/xlink" x="0px" y="0px"
	 width="32px" height="32px" viewBox="0 0 32 32" style="enable-background:new 0 0 32 32;" xml:space="preserve">
<path style="fill:#7B87FF;" d="M29.3,8V6.7h-2.7v2.7h2.7V8L29.3,8z"/>
<path style="fill:#7B87FF;" d="M14.7,14.7h2.7v2.7h-2.7V14.7z"/>
<linearGradient id="SVGID_1_" gradientUnits="userSpaceOnUse" x1="4.025" y1="4.675" x2="27.275" y2="27.925" gradientTransform="matrix(1 0 0 -1 0 34)">
	<stop  offset="0" style="stop-color:#000062"/>
	<stop  offset="1" style="stop-color:#363BA7"/>
</linearGradient>
<path style="fill:url(#SVGID_1_);" d="M26.6,10.7l0.1,8H5.3V9.3h20V6.7h-2.7v-4c0,0,0,0,0-0.1V1.4h-1.3H20h-8.1h-1.2H9.3v2.7l0,0
	v2.6h-4H4H2.7V8v1.4v15.9v1.4V28H4h1.3h21.4H28h1.3v-1.3v-0.1v-1.3V10.7H26.6z M12,4h8v2.7h-8V4z M5.3,25.3v-4h21.3l0.1,4H5.3z"/>
</svg>
