<?xml version="1.0" encoding="utf-8"?>
<!-- Generator: Adobe Illustrator 24.1.0, SVG Export Plug-In . SVG Version: 6.00 Build 0)  -->
<svg version="1.1" id="Layer_1" xmlns="http://www.w3.org/2000/svg" xmlns:xlink="http://www.w3.org/1999/xlink" x="0px" y="0px"
	 width="32px" height="32px" viewBox="0 0 32 32" style="enable-background:new 0 0 32 32;" xml:space="preserve">
<path style="fill:#7B87FF;" d="M20.7,10.5L15,16.2l-3.3-3.3l-1.9,1.9L15,20l7.5-7.5L20.7,10.5z"/>
<path style="fill:#7B87FF;" d="M5.3,4H2.7v2.7h2.7L5.3,4L5.3,4z"/>
<linearGradient id="SVGID_1_" gradientUnits="userSpaceOnUse" x1="2.675" y1="4.025" x2="28.975" y2="30.325" gradientTransform="matrix(1 0 0 -1 0 34)">
	<stop  offset="0" style="stop-color:#000062"/>
	<stop  offset="1" style="stop-color:#363BA7"/>
</linearGradient>
<polygon style="fill:url(#SVGID_1_);" points="28,4 27.9,4 26.6,4 6.7,4 6.7,6.7 26.6,6.7 26.7,6.7 26.7,22.7 7.7,22.7 5.4,24.5 
	5.4,8 2.7,8 2.7,30 8.6,25.3 28,25.3 28,25.3 29.3,25.3 29.3,24 29.3,22.6 29.3,6.7 29.3,5.3 29.3,4 "/>
</svg>
