<?xml version="1.0" encoding="utf-8"?>
<!-- Generator: Adobe Illustrator 24.1.0, SVG Export Plug-In . SVG Version: 6.00 Build 0)  -->
<svg version="1.1" id="Layer_1" xmlns="http://www.w3.org/2000/svg" xmlns:xlink="http://www.w3.org/1999/xlink" x="0px" y="0px"
	 width="32px" height="32px" viewBox="0 0 32 32" style="enable-background:new 0 0 32 32;" xml:space="preserve">
<linearGradient id="SVGID_1_" gradientUnits="userSpaceOnUse" x1="5.3331" y1="7.333" x2="29.333" y2="31.333" gradientTransform="matrix(1 0 0 -1 0 34)">
	<stop  offset="0" style="stop-color:#000062"/>
	<stop  offset="1" style="stop-color:#363BA7"/>
</linearGradient>
<path style="fill:url(#SVGID_1_);" d="M1.3,4v18.7H4v-16h24v18.7H6.7V28h24V4H1.3z"/>
<path style="fill:#7B87FF;" d="M20.7,21.3c1.9,0,3.3-1.5,3.3-3.3s-1.5-3.3-3.3-3.3h-0.1c-0.3-2.3-2.3-4-4.5-4
	c-1.9,0-3.5,1.1-4.3,2.7h-0.1c-2,0.3-3.6,1.9-3.6,4c0,2.3,1.7,4,4,4L20.7,21.3L20.7,21.3z"/>
<path style="fill:#7B87FF;" d="M1.3,28H4v-2.7H1.3V28z"/>
</svg>
