<?xml version="1.0" encoding="utf-8"?>
<!-- Generator: Adobe Illustrator 24.1.0, SVG Export Plug-In . SVG Version: 6.00 Build 0)  -->
<svg version="1.1" id="Layer_1" xmlns="http://www.w3.org/2000/svg" xmlns:xlink="http://www.w3.org/1999/xlink" x="0px" y="0px"
	 width="32px" height="32px" viewBox="0 0 32 32" style="enable-background:new 0 0 32 32;" xml:space="preserve">
<path style="fill:#7B87FF;" d="M16,6.7c-5.2,0-9.3,4.1-9.3,9.3h2.7c0-3.7,2.9-6.7,6.7-6.7s6.7,2.9,6.7,6.7h2.7
	C25.3,10.8,21.2,6.7,16,6.7L16,6.7z"/>
<linearGradient id="SVGID_1_" gradientUnits="userSpaceOnUse" x1="9.8915" y1="6.2415" x2="22.158" y2="18.508" gradientTransform="matrix(1 0 0 -1 0 34)">
	<stop  offset="0" style="stop-color:#000062"/>
	<stop  offset="1" style="stop-color:#363BA7"/>
</linearGradient>
<polygon style="fill:url(#SVGID_1_);" points="17.3,19.1 19.3,19.1 19.3,12.7 12.7,12.7 12.7,19.1 14.7,19.1 14.7,23.5 10.1,28 
	12,29.9 16,25.9 20,29.9 21.9,28 17.3,23.5 "/>
<linearGradient id="SVGID_2_" gradientUnits="userSpaceOnUse" x1="1.333" y1="25.35" x2="30.667" y2="25.35" gradientTransform="matrix(1 0 0 -1 0 34)">
	<stop  offset="0" style="stop-color:#000062"/>
	<stop  offset="1" style="stop-color:#363BA7"/>
</linearGradient>
<path style="fill:url(#SVGID_2_);" d="M16,1.3C7.9,1.3,1.3,7.9,1.3,16H4C4,9.3,9.3,4,16,4s12,5.3,12,12h2.7
	C30.7,7.9,24.1,1.3,16,1.3z"/>
</svg>
