<?xml version="1.0" encoding="utf-8"?>
<!-- Generator: Adobe Illustrator 24.1.1, SVG Export Plug-In . SVG Version: 6.00 Build 0)  -->
<svg version="1.1" id="Layer_1" xmlns="http://www.w3.org/2000/svg" xmlns:xlink="http://www.w3.org/1999/xlink" x="0px" y="0px"
	 viewBox="0 0 512 512" style="enable-background:new 0 0 512 512;" xml:space="preserve">
<style type="text/css">
	.st0{fill:#FFFFFF;}
</style>
<path class="st0" d="M481.3,412.2c20.1-27.4,30.7-59.2,30.7-92.7c0-53.7-27.8-103.5-74.8-134.6c-4.3-47.8-26.7-92.2-64-126.3
	C331.9,20.8,277.2,0,219,0S106.1,20.8,64.8,58.6C23,96.8,0,147.8,0,202.1c0,41.8,13.5,81.4,39.1,115.3L1.5,410.5
	c-3.1,7.5-1.2,16.2,4.6,21.9c3.8,3.7,8.8,5.6,13.9,5.6c2.7,0,5.5-0.6,8.1-1.7L135.4,389c13.5,5.1,27.3,9,41.5,11.6
	c14.5,23.9,35.3,44.2,60.5,58.9c28.2,16.5,60.7,25.3,94.1,25.5c0.5,0,1,0.1,1.5,0.1c23.1,0,45.5-4,66.7-11.9l84.2,37.1
	c2.6,1.1,5.3,1.7,8.1,1.7c5.1,0,10.1-1.9,13.9-5.6c5.8-5.7,7.7-14.3,4.6-21.9L481.3,412.2z M439.9,416.5l15.1,37.4l-46.8-20.6
	c-5.1-2.2-10.8-2.3-15.9-0.1c-18.4,7.8-38,11.8-58.4,12c-0.3,0-0.5,0-0.8,0c-39.4,0-76.6-15.4-102.7-41c33-1.6,65.3-10,94.1-24.6
	c9.8-5,13.8-17,8.8-26.9c-5-9.8-17-13.8-26.9-8.8c-26.5,13.5-56.7,20.6-87.4,20.6c-26.6,0-52.2-5.2-76.1-15.4
	c-5.1-2.2-10.9-2.1-15.9,0.1l-70,30.8l23.6-58.3c2.8-6.9,1.5-14.8-3.3-20.5c-24.4-28.6-37.2-62.8-37.2-99C40,112.7,120.3,40,219,40
	s179,72.7,179,162.1c0,28.9-8.5,57.2-24.6,82c-6,9.3-3.4,21.7,5.9,27.7c9.3,6,21.6,3.4,27.7-5.9c14.3-22,23.8-46.2,28.2-71.4
	c23.4,22.9,36.8,53.2,36.8,85.1c0,27.9-10,54.4-28.8,76.5C438.4,401.7,437.1,409.5,439.9,416.5z M238,305c0,11-9,20-20,20l0,0
	c-11,0-20-9-20-20s9-20,20-20l0,0C229,285,238,294,238,305z M294,155.2c0,0.3,0,0.6,0,0.8c0,30.1-17.9,57.2-45.6,69
	c-5.7,2.4-9.4,8.2-9.4,14.7v1.3c0,11-9,20-20,20s-20-9-20-20v-1.3c0-22.5,13.2-42.7,33.7-51.5c12.8-5.4,21.1-17.8,21.3-31.7
	c0-0.2,0-0.4,0-0.6c0-19.3-15.7-35-35-35c-19.3,0-35,15.7-35,35c0,11-9,20-20,20s-20-9-20-20c0-41.4,33.6-75,75-75
	C260.1,81,293.5,114.2,294,155.2z"/>
</svg>
