<?xml version="1.0" encoding="utf-8"?>
<!-- Generator: Adobe Illustrator 24.1.1, SVG Export Plug-In . SVG Version: 6.00 Build 0)  -->
<svg version="1.1" id="Layer_1" xmlns="http://www.w3.org/2000/svg" xmlns:xlink="http://www.w3.org/1999/xlink" x="0px" y="0px"
	 viewBox="0 0 512 512" style="enable-background:new 0 0 512 512;" xml:space="preserve">
<style type="text/css">
	.st0{fill:#FFFFFF;}
</style>
<path class="st0" d="M285.8,469.1c-9.6,1.3-19.5,2-29.3,2c-0.7,0-1.3,0-2,0c-25.5-0.5-51.3-21.8-71.1-58.5
	c-19.9-36.9-31.8-85.1-34.3-137.1h106.3c11,0,20-8.9,20-20c0-0.2,0-0.3,0-0.5c0-0.2,0-0.3,0-0.5V44c42.8,17.6,78.7,89.9,85.6,179.1
	c0.9,11,10.4,19.2,21.4,18.4c11-0.9,19.2-10.5,18.4-21.4c-4.6-58.6-20.5-112.8-45-152.5c-1-1.7-2.1-3.3-3.1-4.9
	C423.4,98,472.1,171.2,472.1,255.5c0,8.5-0.5,17.1-1.5,25.6c-1.3,10.9,6.5,20.9,17.4,22.2c10.9,1.3,20.9-6.5,22.2-17.4
	c1.2-10,1.8-20.2,1.8-30.3c0-68.2-26.6-132.4-74.8-180.7C388.9,26.6,324.7,0,256.5,0c-0.2,0-0.4,0-0.6,0c-0.1,0-0.3,0-0.4,0
	c-0.4,0-0.9,0-1.3,0C186.8,0.6,123.5,27.1,75.8,74.8C29.1,121.6,2.7,183.2,1.1,249.1c-0.7,2-1.1,4.2-1.1,6.4c0,2.3,0.4,4.4,1.1,6.4
	c1.6,65.8,28,127.5,74.8,174.2c47.7,47.7,111,74.2,178.3,74.8c0.4,0,0.9,0,1.3,0c0.1,0,0.1,0,0.2,0c0.3,0,0.5,0,0.8,0
	c11.6,0,23.2-0.8,34.6-2.3c10.9-1.5,18.6-11.5,17.1-22.5C306.7,475.3,296.7,467.6,285.8,469.1z M235.5,44.1v191.4h-86.4
	c2.4-52.1,14.4-100.2,34.3-137.1C198.3,70.8,216.6,52,235.5,44.1z M157.3,64.1c-3.1,4.9-6.1,10-9,15.4
	c-22.9,42.6-36.5,97.4-39.1,156.1H41.9C48.7,160.9,93.8,97.2,157.3,64.1z M41.9,275.5h67.4c2.5,58.7,16.2,113.5,39.1,156.1
	c2.9,5.4,5.9,10.5,9,15.4C93.8,413.8,48.7,350.1,41.9,275.5z M506.2,476.9l-59.2-59.2c22.9-35.9,18.8-84.3-12.6-115.6
	c-36.2-36.2-95.1-36.2-131.3,0c-36.2,36.2-36.2,95.1,0,131.3c18.1,18.1,41.9,27.1,65.6,27.1c17.4,0,34.8-4.9,50-14.6l59.2,59.2
	c3.9,3.9,9,5.8,14.1,5.8s10.2-1.9,14.1-5.8C513.9,497.4,513.9,484.7,506.2,476.9z M331.3,405.1c-20.6-20.6-20.6-54.2,0-74.8
	c20.6-20.6,54.2-20.6,74.8,0s20.6,54.2,0,74.8C385.5,425.7,351.9,425.7,331.3,405.1z"/>
</svg>
