<?xml version="1.0" encoding="utf-8"?>
<!-- Generator: Adobe Illustrator 24.1.0, SVG Export Plug-In . SVG Version: 6.00 Build 0)  -->
<svg version="1.1" id="Layer_1" xmlns="http://www.w3.org/2000/svg" xmlns:xlink="http://www.w3.org/1999/xlink" x="0px" y="0px"
	 width="24px" height="24px" viewBox="0 0 24 24" style="enable-background:new 0 0 24 24;" xml:space="preserve">
<style type="text/css">
	.st0{fill:#0000FF;}
</style>
<path class="st0" d="M10,21c0,1.1,0.9,2,2,2s2-0.9,2-2H10z M11,8h2v4h-2V8z M11,14h2v2h-2V14z M12,6c2.8,0,5,2.2,5,5v7H7v-7
	C7,8.2,9.2,6,12,6z M19,17v-6c0-3.3-2.4-6.2-5.5-6.8V1.5h-3v2.7C7.4,4.8,5,7.7,5,11v6l-2,2v1h18v-1L19,17z"/>
</svg>
