<?xml version="1.0" encoding="utf-8"?>
<!-- Generator: Adobe Illustrator 24.1.0, SVG Export Plug-In . SVG Version: 6.00 Build 0)  -->
<svg version="1.1" id="Layer_1" xmlns="http://www.w3.org/2000/svg" xmlns:xlink="http://www.w3.org/1999/xlink" x="0px" y="0px"
	 width="24px" height="24px" viewBox="0 0 24 24" style="enable-background:new 0 0 24 24;" xml:space="preserve">
<style type="text/css">
	.st0{fill:none;}
	.st1{fill:#0000FF;}
</style>
<rect class="st0" width="24" height="24"/>
<path class="st1" d="M20,10c0-4.4-3.6-8-8-8s-8,3.6-8,8c0,2,0.8,3.9,2,5.3V23l6-2l6,2v-7.7C19.2,13.9,20,12,20,10z M12,4
	c3.3,0,6,2.7,6,6s-2.7,6-6,6s-6-2.7-6-6S8.7,4,12,4z M12,19l-4,1v-3.1c1.2,0.7,2.5,1.1,4,1.1s2.8-0.4,4-1.1V20L12,19z M16,8.2
	l-1.4-1.4l-3.5,3.5L9.6,9l-1.4,1.4l2.8,2.8L16,8.2z"/>
</svg>
