<?xml version="1.0" encoding="utf-8"?>
<!-- Generator: Adobe Illustrator 24.1.0, SVG Export Plug-In . SVG Version: 6.00 Build 0)  -->
<svg version="1.1" id="Layer_1" xmlns="http://www.w3.org/2000/svg" xmlns:xlink="http://www.w3.org/1999/xlink" x="0px" y="0px"
	 width="24px" height="24px" viewBox="0 0 24 24" style="enable-background:new 0 0 24 24;" xml:space="preserve">
<style type="text/css">
	.st0{fill:none;}
	.st1{fill-rule:evenodd;clip-rule:evenodd;fill:#0000FF;}
</style>
<path class="st0" d="M0,0h24v24H0V0z"/>
<g>
	<polygon class="st1" points="1,3 1,17 3,17 3,5 21,5 21,19 5,19 5,21 23,21 23,3 	"/>
	<path class="st1" d="M15.5,16c1.4,0,2.5-1.1,2.5-2.5S16.9,11,15.5,11h-0.1c-0.2-1.7-1.7-3-3.4-3c-1.4,0-2.6,0.8-3.2,2H8.7
		C7.2,10.2,6,11.4,6,13c0,1.7,1.3,3,3,3H15.5z"/>
	<polygon class="st1" points="1,21 2,21 3,21 3,19 1,19 	"/>
</g>
</svg>
