<?xml version="1.0" encoding="utf-8"?>
<!-- Generator: Adobe Illustrator 24.1.1, SVG Export Plug-In . SVG Version: 6.00 Build 0)  -->
<svg version="1.1" id="Layer_1" xmlns="http://www.w3.org/2000/svg" xmlns:xlink="http://www.w3.org/1999/xlink" x="0px" y="0px"
	 viewBox="0 0 164 164" style="enable-background:new 0 0 164 164;" xml:space="preserve">
<style type="text/css">
	.st0{fill:#0000FF;}
	.st1{fill:#8080FF;}
	.st2{fill:#BFBFFF;}
</style>
<g>
	<rect x="74.5" y="72.4" class="st0" width="40.8" height="15.8"/>
	<path class="st0" d="M94.9,8.4c-17.1,0-31,13.9-31,31c0,11.2,5.9,21,14.8,26.4c0,0,0,0,0,0V39.5c0-9,7.3-16.2,16.2-16.2
		c9,0,16.2,7.3,16.2,16.2v26.5c0,0,0,0,0,0c8.9-5.5,14.8-15.3,14.8-26.4C125.9,22.3,112,8.4,94.9,8.4"/>
	<path class="st1" d="M94.9,23.2c-9,0-16.2,7.3-16.2,16.2v26.5c0,0,0,0,0,0c4.7,2.9,10.3,4.6,16.2,4.6c6,0,11.5-1.7,16.2-4.6
		c0,0,0,0,0,0V39.5C111.1,30.5,103.9,23.2,94.9,23.2 M97.8,62H92v-5.9h5.9V62z M97.8,50.9H92V33.3h5.9V50.9z"/>
</g>
<g>
	<path class="st2" d="M133.6,98.1c-3.6-1.3-7.7-0.1-10,3l-15,19.2c-1.9,2.5-4.9,3.9-8,3.9h-1.4c5.1-0.1,9.3-4.2,9.4-9.3
		c0-5.4-4.3-9.7-9.7-9.7c0,0,0,0-0.1,0H75c-8-6.8-19.6-7.3-28.1-1.3l-4,2.8v36.7h61.3c7.8,0,15.2-3.9,19.6-10.4l14.4-21.2
		c1-1.5,1.5-3.2,1.6-5C139.7,102.8,137.3,99.4,133.6,98.1L133.6,98.1z"/>
	<path class="st1" d="M70.3,127.5c0,1.9,1.5,3.4,3.3,3.4c0,0,0,0,0.1,0H99c9,0,16.3-7.3,16.3-16.3c0-0.9-0.1-1.9-0.3-2.8l-6.7,8.5
		c-1.9,2.5-4.9,3.9-8,3.9H73.7C71.8,124.1,70.3,125.6,70.3,127.5C70.3,127.5,70.3,127.5,70.3,127.5z"/>
	<path class="st0" d="M41.2,150.1H27.7c-1.9,0-3.4-1.5-3.4-3.3c0,0,0,0,0-0.1v-45.1c0-1.9,1.5-3.4,3.3-3.4c0,0,0,0,0.1,0h13.5
		c1.9,0,3.4,1.5,3.4,3.3c0,0,0,0,0,0.1v45.1C44.6,148.5,43.1,150.1,41.2,150.1C41.2,150.1,41.2,150.1,41.2,150.1z"/>
</g>
</svg>
