<?xml version="1.0" encoding="utf-8"?>
<!-- Generator: Adobe Illustrator 24.1.0, SVG Export Plug-In . SVG Version: 6.00 Build 0)  -->
<svg version="1.1" id="Layer_1" xmlns="http://www.w3.org/2000/svg" xmlns:xlink="http://www.w3.org/1999/xlink" x="0px" y="0px"
	 width="24px" height="24px" viewBox="0 0 24 24" style="enable-background:new 0 0 24 24;" xml:space="preserve">
<style type="text/css">
	.st0{fill:none;}
	.st1{fill:#0000FF;}
</style>
<path class="st0" d="M0,0h24v24H0V0z"/>
<path class="st1" d="M12,5c-3.9,0-7,3.1-7,7h2c0-2.8,2.2-5,5-5s5,2.2,5,5h2C19,8.1,15.9,5,12,5z M13,14.3h1.5V9.5h-5v4.8H11v3.3
	L7.6,21L9,22.4l3-3l3,3l1.4-1.4L13,17.6V14.3z M12,1C5.9,1,1,5.9,1,12h2c0-5,4-9,9-9s9,4,9,9h2C23,5.9,18.1,1,12,1z"/>
</svg>
