<?xml version="1.0" encoding="utf-8"?>
<!-- Generator: Adobe Illustrator 24.1.0, SVG Export Plug-In . SVG Version: 6.00 Build 0)  -->
<svg version="1.1" id="Layer_1" xmlns="http://www.w3.org/2000/svg" xmlns:xlink="http://www.w3.org/1999/xlink" x="0px" y="0px"
	 width="24px" height="24px" viewBox="0 0 24 24" style="enable-background:new 0 0 24 24;" xml:space="preserve">
<style type="text/css">
	.st0{fill:none;}
	.st1{fill-rule:evenodd;clip-rule:evenodd;fill:#0000FF;}
</style>
<path class="st0" d="M0,0h24v24H0V0z"/>
<g>
	<path class="st1" d="M20,8h-3V4H5v2h10v9H8.2c-0.6-0.6-1.3-1-2.2-1s-1.7,0.4-2.2,1H3V8H1v9h2c0,1.7,1.3,3,3,3s3-1.3,3-3h6
		c0,1.7,1.3,3,3,3s3-1.3,3-3h2v-5L20,8z M6,18c-0.6,0-1-0.5-1-1s0.4-1,1-1s1,0.5,1,1S6.6,18,6,18z M18,18c-0.5,0-1-0.5-1-1
		s0.5-1,1-1s1,0.5,1,1S18.5,18,18,18z M17,12V9.5h2.5l2,2.5H17z"/>
	<polygon class="st1" points="3,4 1,4 1,5 1,6 3,6 	"/>
</g>
</svg>
