<?xml version="1.0" encoding="utf-8"?>
<!-- Generator: Adobe Illustrator 24.1.0, SVG Export Plug-In . SVG Version: 6.00 Build 0)  -->
<svg version="1.1" id="Layer_1" xmlns="http://www.w3.org/2000/svg" xmlns:xlink="http://www.w3.org/1999/xlink" x="0px" y="0px"
	 width="24px" height="24px" viewBox="0 0 24 24" style="enable-background:new 0 0 24 24;" xml:space="preserve">
<style type="text/css">
	.st0{fill:none;}
	.st1{fill:#0000FF;}
</style>
<path class="st0" d="M0,0h24v24H0V0z"/>
<g>
	<rect x="12" y="7.9" transform="matrix(0.7071 -0.7071 0.7071 0.7071 -2.4591 11.7099)" class="st1" width="1.8" height="1.8"/>
	<polygon class="st1" points="7,1 7,6 9,6 9,4 19,4 19,20 9,20 9,18 7,18 7,23 21,23 21,1 	"/>
	<path class="st1" d="M11.7,11.3l-0.2-0.2L10.4,10l0,0C8.7,11.7,7,13.5,7,13.5L4.5,11l-1.3,1.3L7,16L11.7,11.3z"/>
</g>
</svg>
