<?xml version="1.0" encoding="utf-8"?>
<!-- Generator: Adobe Illustrator 24.1.1, SVG Export Plug-In . SVG Version: 6.00 Build 0)  -->
<svg version="1.1" id="Layer_1" xmlns="http://www.w3.org/2000/svg" xmlns:xlink="http://www.w3.org/1999/xlink" x="0px" y="0px"
	 viewBox="0 0 164 164" style="enable-background:new 0 0 164 164;" xml:space="preserve">
<style type="text/css">
	.st0{fill:#0000FF;}
	.st1{fill:#BFBFFF;}
	.st2{fill:#8080FF;}
	.st3{fill:#FFFFFF;}
	.st4{fill:#4040FF;}
</style>
<g>
	<path class="st0" d="M120,13.4H60.4c-6.7,0-12.2,5.5-12.2,12.2v114.1c0.1,6.7,5.5,12,12.2,12H120c6.6-0.1,11.9-5.4,12-12V25.5
		c0-6.7-5.4-12.1-12-12.2V13.4z"/>
	<path class="st1" d="M56.4,25.6c0-2.2,1.8-4,4.1-4.1H120c2.2,0,4,1.8,4.1,4.1v91.2H56.4V25.6z"/>
	<path class="st2" d="M69.9,41H42.8c-6,0-10.8,4.8-10.8,10.8l0,0v62.2c0,6,4.8,10.8,10.8,10.8h40.6c6,0,10.8-4.8,10.8-10.8V65.4
		L80.1,57L69.9,41z"/>
	<path class="st3" d="M94.2,134.4c0,2.2-1.8,4.1-4.1,4.1c-2.2,0-4.1-1.8-4.1-4.1c0-2.2,1.8-4.1,4.1-4.1h0
		C92.4,130.3,94.2,132.1,94.2,134.4C94.2,134.3,94.2,134.3,94.2,134.4z"/>
	<path class="st4" d="M74.1,65.4h20.1L69.9,41v20.3c0,2.2,1.8,4,4,4.1C74,65.4,74,65.4,74.1,65.4z"/>
	<path class="st1" d="M62.9,112.2c-10.9,0-19.6-8.8-19.6-19.6c0-10.9,8.8-19.6,19.6-19.6c10.8,0,19.6,8.8,19.6,19.6
		C82.6,103.4,73.8,112.2,62.9,112.2C63,112.2,62.9,112.2,62.9,112.2L62.9,112.2z"/>
	<path class="st4" d="M61.1,100.5c-0.8,0-1.6-0.3-2.2-0.8l-5.2-4.3c-1.6-1-2.2-3.1-1.2-4.7c1-1.6,3.1-2.2,4.7-1.2
		c0.3,0.2,0.6,0.4,0.8,0.7l2.8,2.4l6.7-6.7c1.3-1.4,3.4-1.5,4.9-0.3c1.4,1.3,1.5,3.4,0.3,4.9c-0.1,0.1-0.2,0.2-0.3,0.3l-8.9,8.9
		C62.8,100.2,61.9,100.6,61.1,100.5L61.1,100.5z"/>
</g>
</svg>
