<?xml version="1.0" encoding="utf-8"?>
<!-- Generator: Adobe Illustrator 24.1.0, SVG Export Plug-In . SVG Version: 6.00 Build 0)  -->
<svg version="1.1" id="Layer_1" xmlns="http://www.w3.org/2000/svg" xmlns:xlink="http://www.w3.org/1999/xlink" x="0px" y="0px"
	 width="24px" height="24px" viewBox="0 0 24 24" style="enable-background:new 0 0 24 24;" xml:space="preserve">
<style type="text/css">
	.st0{fill:none;}
	.st1{fill:#0000FF;}
	.st2{fill-rule:evenodd;clip-rule:evenodd;fill:#0000FF;}
</style>
<path class="st0" d="M0,0h24v24H0V0z"/>
<path class="st1" d="M10.6,15.4c0.8,0.8,2,0.8,2.8,0l0,0l5.7-8.5l-8.5,5.7C9.8,13.4,9.8,14.6,10.6,15.4L10.6,15.4z"/>
<g>
	<path class="st2" d="M20.4,8.6L20.4,8.6L20.4,8.6z"/>
	<path class="st2" d="M15.6,6.8l1.9-1.2c-4.6-3-10.8-1.7-13.8,3c-1.5,2.2-1.9,4.9-1.4,7.4H3h1.3C3.4,12.6,4.8,8.9,8,7.1
		C10.3,5.7,13.2,5.6,15.6,6.8z"/>
	<path class="st2" d="M20.4,8.6l-1.2,1.9c1.2,2.4,1.1,5.3-0.2,7.6H7v2h13C22.5,16.6,22.7,12.1,20.4,8.6z"/>
	<polygon class="st2" points="3,20 4,20 5,20 5,18 3,18 	"/>
</g>
</svg>
