<?xml version="1.0" encoding="utf-8"?>
<!-- Generator: Adobe Illustrator 24.1.0, SVG Export Plug-In . SVG Version: 6.00 Build 0)  -->
<svg version="1.1" id="Layer_1" xmlns="http://www.w3.org/2000/svg" xmlns:xlink="http://www.w3.org/1999/xlink" x="0px" y="0px"
	 width="24px" height="24px" viewBox="0 0 24 24" style="enable-background:new 0 0 24 24;" xml:space="preserve">
<style type="text/css">
	.st0{fill:none;}
	.st1{fill-rule:evenodd;clip-rule:evenodd;fill:#0000FF;}
</style>
<path class="st0" d="M24,0H0v24h24V0z"/>
<g>
	<path class="st1" d="M11,8v8h5V8H11z M14,14h-1v-4h1V14z"/>
	<polygon class="st1" points="2,4 2,16 4,16 4,6 20,6 20,18 6,18 6,20 22,20 22,4 	"/>
	<rect x="17" y="8" class="st1" width="2" height="8"/>
	<path class="st1" d="M10,16V8H5v8h1H10z M7,10h1v4H7V10z"/>
	<polygon class="st1" points="2,20 3,20 4,20 4,18 2,18 	"/>
</g>
</svg>
