<?xml version="1.0" encoding="utf-8"?>
<!-- Generator: Adobe Illustrator 24.1.0, SVG Export Plug-In . SVG Version: 6.00 Build 0)  -->
<svg version="1.1" id="Layer_1" xmlns="http://www.w3.org/2000/svg" xmlns:xlink="http://www.w3.org/1999/xlink" x="0px" y="0px"
	 width="24px" height="24px" viewBox="0 0 24 24" style="enable-background:new 0 0 24 24;" xml:space="preserve">
<style type="text/css">
	.st0{fill:none;}
	.st1{fill-rule:evenodd;clip-rule:evenodd;fill:#0000FF;}
</style>
<path class="st0" d="M0,0h24v24H0V0z"/>
<g>
	<path class="st1" d="M19,14c-2.8,0-5,2.2-5,5s2.2,5,5,5s5-2.2,5-5S21.8,14,19,14z M19.5,22h-1v-1h1V22z M19.5,20h-1v-4h1V20z"/>
	<path class="st1" d="M20,8v4.1c0.7,0.1,1.4,0.3,2,0.6V4H2v12h2V8l8,5L20,8z M20,6l-8,5L4,6H20z"/>
	<path class="st1" d="M6,18v2h6.1c0-0.3-0.1-0.7-0.1-1s0-0.7,0.1-1H6z"/>
	<polygon class="st1" points="2,20 3,20 4,20 4,18 2,18 	"/>
</g>
</svg>
