<?xml version="1.0" encoding="utf-8"?>
<!-- Generator: Adobe Illustrator 24.1.0, SVG Export Plug-In . SVG Version: 6.00 Build 0)  -->
<svg version="1.1" id="Layer_1" xmlns="http://www.w3.org/2000/svg" xmlns:xlink="http://www.w3.org/1999/xlink" x="0px" y="0px"
	 width="24px" height="24px" viewBox="0 0 24 24" style="enable-background:new 0 0 24 24;" xml:space="preserve">
<style type="text/css">
	.st0{fill:none;}
	.st1{fill-rule:evenodd;clip-rule:evenodd;fill:#0000FF;}
</style>
<path class="st0" d="M0,0h24v24H0V0z"/>
<g>
	<rect x="15" y="17" class="st1" width="2" height="2"/>
	<rect x="11" y="11" class="st1" width="2" height="2"/>
	<polygon class="st1" points="18,20 6,20 6,8.8 10.8,4 16,4 16,2 10,2 4,8 4,22 20,22 20,6 18,6 	"/>
	<rect x="15" y="11" class="st1" width="2" height="4"/>
	<rect x="7" y="17" class="st1" width="2" height="2"/>
	<rect x="7" y="11" class="st1" width="2" height="4"/>
	<rect x="11" y="15" class="st1" width="2" height="4"/>
	<polygon class="st1" points="19,2 18,2 18,4 20,4 20,2 	"/>
</g>
</svg>
