<?xml version="1.0" encoding="utf-8"?>
<!-- Generator: Adobe Illustrator 24.1.1, SVG Export Plug-In . SVG Version: 6.00 Build 0)  -->
<svg version="1.1" id="Layer_1" xmlns="http://www.w3.org/2000/svg" xmlns:xlink="http://www.w3.org/1999/xlink" x="0px" y="0px"
	 viewBox="0 0 164 164" style="enable-background:new 0 0 164 164;" xml:space="preserve">
<style type="text/css">
	.st0{fill:#4040FF;}
	.st1{fill:#BFBFFF;}
	.st2{fill:#8080FF;}
	.st3{fill:#0000FF;}
</style>
<g>
	<path class="st0" d="M104.4,145.5H39.8c-6.2,0-11.2-5-11.2-11.2l0,0V44.4c0.1-6.1,5.1-11,11.2-11h64.6c6.1,0.1,10.9,5,11,11v89.8
		c-0.1,6.1-5,10.9-11,11C104.4,145.2,104.4,145.5,104.4,145.5z"/>
	<path class="st1" d="M39.8,40.7c-2.1,0-3.7,1.7-3.7,3.7v89.8c0,2.1,1.7,3.7,3.7,3.7h64.6c2.1,0,3.7-1.7,3.7-3.7V44.4
		c0-2.1-1.7-3.7-3.7-3.7H39.8z"/>
	<path class="st2" d="M94.4,48.1H49.7c-2,0-3.7-1.6-3.7-3.7c0,0,0,0,0-0.1V32.1c0-2,1.6-3.7,3.7-3.7c0,0,0,0,0.1,0
		c4.1,0,7.7-2.8,8.7-6.8v-0.3c0.4-1.6,1.9-2.8,3.6-2.8H82c1.7,0,3.2,1.1,3.6,2.8v0.3c1,4,4.6,6.8,8.7,6.8c2-0.1,3.8,1.5,3.9,3.5
		c0,0.1,0,0.2,0,0.2v12.4c0,2-1.6,3.7-3.7,3.7c0,0,0,0-0.1,0V48.1z"/>
	<path class="st2" d="M53,77.1c-1,0-2-0.4-2.8-1.1l-7-7c-1.4-1.5-1.2-3.9,0.3-5.3c1.4-1.2,3.5-1.2,4.9,0L53,68l11.5-11.3
		c1.5-1.4,3.9-1.2,5.3,0.3c1.2,1.4,1.2,3.5,0,4.9L55.7,76C55,76.7,54,77.1,53,77.1z"/>
	<path class="st2" d="M53,103.6c-1,0-2-0.4-2.8-1.1l-6.9-6.9c-1.4-1.4-1.4-3.8,0-5.2c1.4-1.4,3.8-1.4,5.2,0l4.4,4.4l11.5-11.6
		c1.5-1.5,3.8-1.5,5.3,0s1.5,3.8,0,5.3l-14.1,14C55,103.2,54,103.6,53,103.6z"/>
	<path class="st2" d="M53,130.1c-1,0-2-0.4-2.8-1.1l-7-7c-1.4-1.5-1.2-3.9,0.3-5.3c1.4-1.2,3.5-1.2,4.9,0l4.4,4.4l11.6-11.4
		c1.5-1.4,3.8-1.4,5.3,0c1.5,1.5,1.5,3.8,0,5.3l0,0l-14.1,14C55,129.7,54,130.1,53,130.1z"/>
</g>
<g>
	<g>
		<path class="st3" d="M110.6,83.1L110.6,83.1L110.6,83.1L110.6,83.1C110.5,83.1,110.5,83.1,110.6,83.1
			C110.5,83.1,110.5,83.1,110.6,83.1L110.6,83.1z"/>
		<path class="st3" d="M112.8,83.2c-0.1,0-0.2,0-0.3,0c-0.6,0-1.2-0.1-1.9-0.1l0,0l0,0c-0.6,0-1.3,0-1.9,0.1c-0.1,0-0.2,0-0.3,0
			c-14.1,1.2-25.1,12.9-25.1,27.3v13c0,0,0,0,0,0.1c0,2.1,1.8,3.9,3.9,3.9h6.3h34.3h6.3c2.1,0,3.9-1.7,3.9-3.9c0,0,0,0,0-0.1v-13
			C137.9,96.1,126.8,84.3,112.8,83.2z"/>
	</g>
	<path class="st2" d="M110.6,90.9c-9.4,0-17-7.6-17-17s7.6-17,17-17s17,7.6,17,17l0,0C127.6,83.3,120,90.9,110.6,90.9z"/>
</g>
</svg>
