<svg xmlns="http://www.w3.org/2000/svg" width="66.827" height="81" viewBox="0 0 66.827 81"><g transform="translate(-0.586)"><path d="M51.193,8.255V77.318A3.68,3.68,0,0,1,47.513,81H4.268A3.681,3.681,0,0,1,.586,77.318V8.255A3.681,3.681,0,0,1,4.268,4.573H47.512A3.681,3.681,0,0,1,51.193,8.255Z" fill="#eaeef9"/><path d="M51.192,8.255V77.318A3.68,3.68,0,0,1,47.513,81H41.675a3.68,3.68,0,0,0,3.68-3.682V8.255a3.68,3.68,0,0,0-3.68-3.682h5.838A3.68,3.68,0,0,1,51.192,8.255Z" fill="#eaeef9"/><path d="M42.05,17.8l1.239,49.467s-6.229,4.363-6.745,6.7c-.173.782-2.967,1.336-3.769,1.336H14.115a1.709,1.709,0,0,1-1.671-1.338A6.175,6.175,0,0,0,7.764,69.28,1.709,1.709,0,0,1,6.426,67.61V17.964a1.709,1.709,0,0,1,1.338-1.67,6.175,6.175,0,0,0,4.681-4.681,1.709,1.709,0,0,1,1.671-1.338H32.38Z" fill="#fff"/><path d="M45.355,17.964V67.61a1.709,1.709,0,0,1-1.338,1.67,6.176,6.176,0,0,0-4.682,4.682,1.708,1.708,0,0,1-1.67,1.336H32.775a1.708,1.708,0,0,0,1.671-1.336,6.176,6.176,0,0,1,4.682-4.682,1.709,1.709,0,0,0,1.338-1.67V44.154a2.258,2.258,0,0,0-.916-1.847,2.532,2.532,0,0,1-1.066-2.075V26.067a2.461,2.461,0,0,0-1.152-2.106l-.015-.008a3.622,3.622,0,0,0-1.578-.509,3.659,3.659,0,0,1-3.361-3.662,3.6,3.6,0,0,1,.872-2.347,3.66,3.66,0,0,0,0-4.727,3.6,3.6,0,0,1-.87-2.433v0h5.284a1.708,1.708,0,0,1,1.67,1.336,6.177,6.177,0,0,0,4.682,4.682A1.71,1.71,0,0,1,45.355,17.964Z" fill="#fff"/><path d="M61.308,21.37V40.233a2.55,2.55,0,0,1-3.6,2.326l-4.148-1.869-.386-.174a2.043,2.043,0,0,0-1.67,0l-.388.174-4.146,1.869a2.55,2.55,0,0,1-3.6-2.326V21.37Z" fill="#c1c9d9"/><path d="M61.309,21.37V40.233a2.55,2.55,0,0,1-3.6,2.326l-1.79-.807a2.517,2.517,0,0,0,.5-1.519V21.37Z" fill="#c1c9d9"/><path d="M54.7.871A3.658,3.658,0,0,1,60.712,3.36,3.658,3.658,0,0,0,64.053,6.7a3.658,3.658,0,0,1,2.489,6.008,3.658,3.658,0,0,0,0,4.726,3.658,3.658,0,0,1-2.489,6.008,3.658,3.658,0,0,0-3.342,3.342A3.658,3.658,0,0,1,54.7,29.275a3.658,3.658,0,0,0-4.726,0,3.658,3.658,0,0,1-6.008-2.489,3.658,3.658,0,0,0-3.342-3.342,3.658,3.658,0,0,1-2.489-6.008,3.658,3.658,0,0,0,0-4.726A3.658,3.658,0,0,1,40.627,6.7,3.658,3.658,0,0,0,43.969,3.36,3.658,3.658,0,0,1,49.977.871,3.658,3.658,0,0,0,54.7.871Z" fill="#d6dce8"/><path d="M66.541,17.435a3.6,3.6,0,0,1,.872,2.347,3.659,3.659,0,0,1-3.36,3.662,3.661,3.661,0,0,0-3.341,3.341,3.657,3.657,0,0,1-3.664,3.359,3.6,3.6,0,0,1-2.345-.87c-.028-.023-.054-.046-.082-.067a3.59,3.59,0,0,0,1.2-2.422,3.661,3.661,0,0,1,3.341-3.341,3.659,3.659,0,0,0,3.361-3.662,3.6,3.6,0,0,0-.872-2.347,3.66,3.66,0,0,1,0-4.726,3.6,3.6,0,0,0,.872-2.345A3.657,3.657,0,0,0,59.164,6.7a3.66,3.66,0,0,1-3.341-3.343,3.59,3.59,0,0,0-1.2-2.422c.028-.021.054-.044.082-.067a3.659,3.659,0,0,1,6.009,2.489A3.66,3.66,0,0,0,64.053,6.7a3.656,3.656,0,0,1,3.36,3.662,3.6,3.6,0,0,1-.872,2.345,3.66,3.66,0,0,0,0,4.726Z" fill="#d6dce8"/><path d="M56.505,15.073c0,5.618-6.609,6.423-6.609,6.423a6.874,6.874,0,0,1,0-12.846S56.505,9.4,56.505,15.073Z" fill="#fff"/><path d="M59.211,15.072A6.874,6.874,0,0,1,49.9,21.5a6.873,6.873,0,0,0,0-12.846,6.874,6.874,0,0,1,9.316,6.423Z" fill="#fff"/><path d="M31.252,19.618H20.528a1.222,1.222,0,0,1,0-2.445H31.252a1.222,1.222,0,0,1,0,2.445Zm5.154,10.049H15.375a1.222,1.222,0,0,1,0-2.445H36.406a1.222,1.222,0,1,1,0,2.445Zm0,7.159H30.395a1.222,1.222,0,0,1,0-2.444h6.011a1.222,1.222,0,1,1,0,2.444Zm-11.243,0H15.375a1.222,1.222,0,0,1,0-2.444h9.789a1.222,1.222,0,1,1,0,2.444Zm11.243,7.158H15.375a1.222,1.222,0,0,1,0-2.444H36.406a1.222,1.222,0,1,1,0,2.444Zm-4.665,7.159h-11.7a1.222,1.222,0,1,1,0-2.444h11.7a1.222,1.222,0,0,1,0,2.444Z" fill="#d6dce8"/><path d="M35.14,66.563a1.222,1.222,0,0,1-1.217-1.333c.024-.329.024-1.444-1-1.566-1.216-.143-3.612,1.429-4.927,2.592a1.222,1.222,0,0,1-1.622-1.829c.665-.589,4.119-3.514,6.838-3.19a3.359,3.359,0,0,1,2.849,2.187l2.456-1.381a1.222,1.222,0,1,1,1.2,2.131l-3.973,2.233A1.223,1.223,0,0,1,35.14,66.563Z" fill="#d6dce8"/><path d="M53.562,33.927v6.762l-.386-.174a2.044,2.044,0,0,0-1.67,0l-.388.174V33.927a1.222,1.222,0,1,1,2.445,0Z" fill="#d6dce8"/><path d="M19.474,66.011a1.222,1.222,0,1,0-1.222-1.222A1.222,1.222,0,0,0,19.474,66.011Z" fill="#d6dce8"/><path d="M15.375,66.011a1.222,1.222,0,1,0-1.222-1.222A1.222,1.222,0,0,0,15.375,66.011Z" fill="#d6dce8"/></g></svg>