<?xml version="1.0" encoding="utf-8"?>
<!-- Generator: Adobe Illustrator 25.4.1, SVG Export Plug-In . SVG Version: 6.00 Build 0)  -->
<svg version="1.1" id="Layer_1" xmlns="http://www.w3.org/2000/svg" xmlns:xlink="http://www.w3.org/1999/xlink" x="0px" y="0px"
	 viewBox="0 0 512 512" enable-background="new 0 0 512 512" xml:space="preserve">
<g>
	<path d="M328.3,210.8l-21.1,12.2c-8.4-7.9-18.6-13.9-30-17.3v-24.4h-42.7v24.4c-11.2,3.3-21.5,9.3-30,17.3l-21.1-12.2l-21.3,36.9
		l21.1,12.2c-2.7,11.4-2.7,23.2,0,34.6l-21.1,12.2l21.3,36.9l21.1-12.2c8.5,8,18.7,14,30,17.3v24.4h42.7v-24.4
		c11.2-3.3,21.5-9.3,30-17.3l21.1,12.2l21.3-36.9l-21.1-12.2c2.7-11.4,2.7-23.2,0-34.6l21.1-12.2L328.3,210.8z M286.5,289.8
		c-1.7,4-4.1,7.5-7.2,10.5c-3.1,3-6.8,5.3-10.8,6.9c-4,1.5-8.3,2.2-12.6,2.1v0c-8.3-0.3-16.1-3.8-21.9-9.8c-5.7-6-9-13.9-9-22.2
		c0-8.3,3.2-16.2,9-22.2c5.8-6,13.6-9.5,21.9-9.8c4.3-0.2,8.6,0.6,12.6,2.1s7.7,3.9,10.8,6.9s5.6,6.6,7.2,10.5
		c1.7,4,2.5,8.2,2.5,12.5C289.1,281.6,288.2,285.8,286.5,289.8z"/>
	<path d="M270.4,34.4c-3.9-3.6-9-5.6-14.4-5.6s-10.4,2-14.4,5.6L21.3,234.7h64v192c0,5.7,2.2,11.1,6.2,15.1c4,4,9.4,6.2,15.1,6.2
		h256v-42.7H128v-210L256,79l128,116.4V384h42.7v21.3H384V448h21.3h0h21.3v-21.3c0,0,0,0,0,0v-192h64L270.4,34.4z"/>
</g>
</svg>
