<?xml version="1.0" encoding="utf-8"?>
<!-- Generator: Adobe Illustrator 25.4.1, SVG Export Plug-In . SVG Version: 6.00 Build 0)  -->
<svg version="1.1" id="Layer_1" xmlns="http://www.w3.org/2000/svg" xmlns:xlink="http://www.w3.org/1999/xlink" x="0px" y="0px"
	 viewBox="0 0 512 512" enable-background="new 0 0 512 512" xml:space="preserve">
<g>
	<rect x="341.3" y="320" width="42.7" height="42.7"/>
	<rect x="341.3" y="149.3" width="42.7" height="42.7"/>
	<rect x="341.3" y="234.7" width="42.7" height="42.7"/>
	<rect x="256" y="149.3" width="42.7" height="42.7"/>
	<path d="M298.7,405.3l0-138.9c0-3-0.7-6.1-1.9-8.8c-1.3-2.8-3.1-5.2-5.4-7.2l-106.7-93c-4-3.5-9-5.3-14-5.3v-45.4h256V384h42.7
		V85.3c0-5.7-2.2-11.1-6.2-15.1c-4-4-9.4-6.2-15.1-6.2H149.3c-5.7,0-11.1,2.2-15.1,6.2c-4,4-6.2,9.4-6.2,15.1v96.9l-78,68
		c-2.3,2-4.1,4.5-5.4,7.2c-1.3,2.8-1.9,5.8-1.9,8.8v160.3c0,5.7,2.2,11.1,6.2,15.1c4,4,9.4,6.2,15.1,6.2h342v-42.7h-23.3H298.7z
		 M256,405.3h-64V320h-42.7v85.3h-64V276.1l85.3-74.4l85.3,74.4V405.3z"/>
	<rect x="426.7" y="405.3" width="42.7" height="42.7"/>
</g>
</svg>
