<?xml version="1.0" encoding="utf-8"?>
<!-- Generator: Adobe Illustrator 25.4.1, SVG Export Plug-In . SVG Version: 6.00 Build 0)  -->
<svg version="1.1" id="Layer_1" xmlns="http://www.w3.org/2000/svg" xmlns:xlink="http://www.w3.org/1999/xlink" x="0px" y="0px"
	 viewBox="0 0 512 512" enable-background="new 0 0 512 512" xml:space="preserve">
<g>
	<path d="M426.7,128V85.3c0-5.7-2.2-11.1-6.2-15.1c-4-4-9.4-6.2-15.1-6.2H106.7c-5.7,0-11.1,2.2-15.1,6.2c-4,4-6.2,9.4-6.2,15.1V128
		h-64v42.7h21.3v234.7H21.3V448h405.3v-42.7h-64V256H320v149.3h-42.7V256h-42.7v149.3H192V256h-42.7v149.3h-64V170.7h341.3V384h42.7
		V170.7h21.3V128H426.7z M384,128H128v-21.3h256V128z"/>
	<polygon points="448,448 469.8,448 490.7,448 490.7,405.3 490.7,405.3 448,405.3 	"/>
</g>
</svg>
