<?xml version="1.0" encoding="utf-8"?>
<!-- Generator: Adobe Illustrator 25.4.1, SVG Export Plug-In . SVG Version: 6.00 Build 0)  -->
<svg version="1.1" id="Layer_1" xmlns="http://www.w3.org/2000/svg" xmlns:xlink="http://www.w3.org/1999/xlink" x="0px" y="0px"
	 viewBox="0 0 512 512" enable-background="new 0 0 512 512" xml:space="preserve">
<g>
	<rect x="149.3" y="149.3" width="85.3" height="42.7"/>
	<path d="M405.3,384H448V213.3c0-5.7-2.2-11.1-6.2-15.1c-4-4-9.4-6.2-15.1-6.2h-64v42.7h42.7V384z"/>
	<rect x="149.3" y="234.7" width="85.3" height="42.7"/>
	<path d="M404,405.3h-84v-320c0-5.7-2.2-11.1-6.2-15.1c-4-4-9.4-6.2-15.1-6.2H85.3c-5.7,0-11.1,2.2-15.1,6.2c-4,4-6.2,9.4-6.2,15.1
		v320H21.3V448h405.3v-42.7h-21.3H404z M277.3,405.3H106.7V106.7h170.7V405.3z"/>
	<polygon points="448,405.3 448,448 469.3,448 490.7,448 490.7,405.3 490.7,405.3 	"/>
</g>
</svg>
