<?xml version="1.0" encoding="utf-8"?>
<!-- Generator: Adobe Illustrator 25.4.1, SVG Export Plug-In . SVG Version: 6.00 Build 0)  -->
<svg version="1.1" id="Layer_1" xmlns="http://www.w3.org/2000/svg" xmlns:xlink="http://www.w3.org/1999/xlink" x="0px" y="0px"
	 viewBox="0 0 512 512" enable-background="new 0 0 512 512" xml:space="preserve">
<g>
	<path d="M78,172.8c13.7,12.4,31.5,19.2,50,19.2h256l4.1-0.1c17.7-1,34.6-8.2,47.4-20.5c12.9-12.3,20.9-28.7,22.8-46.4
		c-10.3,3-21.1,3.8-31.6,2.2c-10.6-1.5-20.7-5.3-29.7-11.1c-9-5.8-16.6-13.4-22.4-22.4S365,74.6,363.5,64H148.6
		c-1.5,10.6-5.3,20.7-11.1,29.7s-13.4,16.6-22.4,22.4s-19.1,9.6-29.7,11.1C74.8,128.8,64,128,53.7,125
		C55.6,143.4,64.3,160.4,78,172.8z M147.4,145.4c13.3-10.5,24.1-23.7,31.8-38.7h153.6l3.1,5.8c8.5,14.5,20,27,33.7,36.7l0.3,0.2
		H142.1L147.4,145.4z"/>
	<path d="M490.2,237.1c-14.7,8.3-32.1,10.5-48.4,6c-16.3-4.4-30.1-15.1-38.6-29.8H108.8c-8.4,14.6-22.3,25.3-38.6,29.8
		c-16.3,4.4-33.7,2.3-48.4-6.1c-1.7,15.5,1.4,31.1,9,44.7S50,306.2,64,312.8V448h149.3v-42.7l0.1-3.2c0.8-10.7,5.6-20.8,13.5-28.1
		c7.9-7.3,18.3-11.4,29-11.4l3.2,0.1c10.7,0.8,20.8,5.6,28.1,13.5c7.3,7.9,11.4,18.3,11.4,29V448H384v-42.7h-42.7l-0.1-4.3
		c-1-20.8-9.6-40.4-24.2-55.3c-14.5-14.9-34-23.9-54.7-25.5l-4.8-0.2l-4.4,0.1c-44.2,2.1-79,35.9-82.2,78.9l-0.2,4.8v1.5h-64V285.8
		l-12.6-6l2-0.8c11.8-5.2,22.5-12.4,31.7-21.4l1.6-1.7h253l1.6,1.7c9.2,9,19.9,16.2,31.7,21.4l2,0.9l-12.5,6v98.5H448v21.3h-42.7
		v42.7H448V448l0,0V312.8c14-6.7,25.6-17.6,33.2-31.1C488.8,268.1,491.9,252.5,490.2,237.1z"/>
</g>
</svg>
