<?xml version="1.0" encoding="utf-8"?>
<!-- Generator: Adobe Illustrator 25.4.1, SVG Export Plug-In . SVG Version: 6.00 Build 0)  -->
<svg version="1.1" id="Layer_1" xmlns="http://www.w3.org/2000/svg" xmlns:xlink="http://www.w3.org/1999/xlink" x="0px" y="0px"
	 viewBox="0 0 512 512" enable-background="new 0 0 512 512" xml:space="preserve">
<g>
	<path d="M256,320c-17,0-33.3-6.7-45.3-18.7c-12-12-18.7-28.3-18.7-45.3h-42.7c0,28.3,11.2,55.4,31.2,75.4
		c20,20,47.1,31.2,75.4,31.2s55.4-11.2,75.4-31.2c20-20,31.2-47.1,31.2-75.4H320c0,17-6.7,33.3-18.7,45.3S273,320,256,320z"/>
	<path d="M445.9,189.4c-1.4-2.9-3.4-5.5-6-7.5L269.2,47.3c-3.8-3-8.4-4.6-13.2-4.6s-9.5,1.6-13.2,4.6L72.1,182c-2.5,2-4.6,4.5-6,7.4
		c-1.4,2.9-2.1,6.1-2.1,9.3v228c0,5.7,2.2,11.1,6.2,15.1c4,4,9.4,6.2,15.1,6.2H384v-42.7H106.7V209L256,91.2L405.3,209V384H448
		V198.7C448,195.5,447.3,192.3,445.9,189.4z"/>
	<polygon points="405.3,448 426.7,448 426.7,448 448,448 448,426.7 448,426.7 448,405.3 405.3,405.3 	"/>
</g>
</svg>
