<?xml version="1.0" encoding="utf-8"?>
<!-- Generator: Adobe Illustrator 25.4.1, SVG Export Plug-In . SVG Version: 6.00 Build 0)  -->
<svg version="1.1" id="Layer_1" xmlns="http://www.w3.org/2000/svg" xmlns:xlink="http://www.w3.org/1999/xlink" x="0px" y="0px"
	 viewBox="0 0 512 512" enable-background="new 0 0 512 512" xml:space="preserve">
<g>
	<rect x="277.3" y="234.7" width="64" height="42.7"/>
	<rect x="277.3" y="320" width="64" height="42.7"/>
	<path d="M405.3,426.7H106.7V85.3h298.7v320H448V64c0-5.7-2.2-11.1-6.2-15.1c-4-4-9.4-6.2-15.1-6.2H85.3c-5.7,0-11.1,2.2-15.1,6.2
		c-4,4-6.2,9.4-6.2,15.1v362.7H21.3v42.7h405.3v-43.1h-21.3V426.7z"/>
	<rect x="277.3" y="149.3" width="64" height="42.7"/>
	<rect x="170.7" y="149.3" width="64" height="42.7"/>
	<rect x="170.7" y="320" width="64" height="42.7"/>
	<rect x="170.7" y="234.7" width="64" height="42.7"/>
	<polygon points="448,426.7 448,469.3 469.3,469.3 490.7,469.3 490.7,469.3 490.7,426.7 	"/>
</g>
</svg>
