<?xml version="1.0" encoding="utf-8"?>
<!-- Generator: Adobe Illustrator 25.4.1, SVG Export Plug-In . SVG Version: 6.00 Build 0)  -->
<svg version="1.1" id="Layer_1" xmlns="http://www.w3.org/2000/svg" xmlns:xlink="http://www.w3.org/1999/xlink" x="0px" y="0px"
	 viewBox="0 0 512 512" enable-background="new 0 0 512 512" xml:space="preserve">
<g>
	<path d="M270.4,34.4c-3.9-3.6-9-5.6-14.4-5.6s-10.4,2-14.4,5.6L21.3,234.7h64v192c0,5.7,2.2,11.1,6.2,15.1c4,4,9.4,6.2,15.1,6.2
		h256v-42.7H128v-210L256,79l128,116.4V384h42.7v21.3H384V448h21.3h0h21.3v-21.3c0,0,0,0,0,0v-192h64L270.4,34.4z"/>
	<path d="M218.3,229c-10,10-15.6,23.6-15.6,37.7c0,14.1,5.6,27.7,15.6,37.7c10,10,23.6,15.6,37.7,15.6s27.7-5.6,37.7-15.6
		c10-10,15.6-23.6,15.6-37.7c0-14.1-5.6-27.7-15.6-37.7c-10-10-23.6-15.6-37.7-15.6S228.3,219,218.3,229z"/>
</g>
</svg>
