<?xml version="1.0" encoding="utf-8"?>
<!-- Generator: Adobe Illustrator 25.4.1, SVG Export Plug-In . SVG Version: 6.00 Build 0)  -->
<svg version="1.1" id="Layer_1" xmlns="http://www.w3.org/2000/svg" xmlns:xlink="http://www.w3.org/1999/xlink" x="0px" y="0px"
	 viewBox="0 0 512 512" enable-background="new 0 0 512 512" xml:space="preserve">
<g>
	<path d="M445.8,193.1c-1.4-2.9-3.5-5.5-6.1-7.5L269.1,52.9c-3.7-2.9-8.4-4.5-13.1-4.5s-9.4,1.6-13.1,4.5L72.2,185.6
		c-2.6,2-4.6,4.6-6.1,7.5c-1.4,2.9-2.2,6.1-2.2,9.4v224.2c0,5.7,2.2,11.1,6.2,15.1c4,4,9.4,6.2,15.1,6.2H384v-42.7H106.7V212.9
		L256,96.7l149.3,116.1V384H448V202.5C448,199.2,447.3,196,445.8,193.1z"/>
	<polygon points="405.3,448 426.7,448 426.7,448 448,448 448,426.7 448,426.7 448,405.3 405.3,405.3 	"/>
</g>
</svg>
