<?xml version="1.0" encoding="utf-8"?>
<!-- Generator: Adobe Illustrator 25.4.1, SVG Export Plug-In . SVG Version: 6.00 Build 0)  -->
<svg version="1.1" id="Layer_1" xmlns="http://www.w3.org/2000/svg" xmlns:xlink="http://www.w3.org/1999/xlink" x="0px" y="0px"
	 viewBox="0 0 512 512" enable-background="new 0 0 512 512" xml:space="preserve">
<g>
	<rect x="64" y="64" width="384" height="42.7"/>
	<rect x="128" y="298.7" width="170.7" height="64"/>
	<path d="M448,128H64L42.7,234.7v42.7H64v149.3c0,5.7,2.2,11.1,6.2,15.1c4,4,9.4,6.2,15.1,6.2H384v-42.7H106.7v-128h298.7V384H448
		V277.3h21.3v-42.7L448,128z M86.2,234.7l12.8-64h314l12.8,64H86.2z"/>
	<polygon points="405.3,448 426.7,448 426.7,448 448,448 448,426.7 448,426.7 448,405.3 405.3,405.3 	"/>
</g>
</svg>
