<?xml version="1.0" encoding="utf-8"?>
<!-- Generator: Adobe Illustrator 25.4.1, SVG Export Plug-In . SVG Version: 6.00 Build 0)  -->
<svg version="1.1" id="Layer_1" xmlns="http://www.w3.org/2000/svg" xmlns:xlink="http://www.w3.org/1999/xlink" x="0px" y="0px"
	 viewBox="0 0 512 512" enable-background="new 0 0 512 512" xml:space="preserve">
<g>
	<path d="M256,330.7c-14.1,0-27.7-5.6-37.7-15.6c-10-10-15.6-23.6-15.6-37.7H160c0,25.5,10.1,49.9,28.1,67.9s42.4,28.1,67.9,28.1
		s49.9-10.1,67.9-28.1c18-18,28.1-42.4,28.1-67.9h-42.7c0,14.1-5.6,27.7-15.6,37.7C283.7,325,270.1,330.7,256,330.7z"/>
	<path d="M270.4,34.4c-3.9-3.6-9-5.6-14.4-5.6s-10.4,2-14.4,5.6L21.3,234.7h64v192c0,5.7,2.2,11.1,6.2,15.1c4,4,9.4,6.2,15.1,6.2
		h256v-42.7H128v-210L256,79l128,116.4V384h42.7v21.3H384V448h21.3h0h21.3v-21.3c0,0,0,0,0,0v-192h64L270.4,34.4z"/>
</g>
</svg>
