<?xml version="1.0" encoding="utf-8"?>
<!-- Generator: Adobe Illustrator 25.4.1, SVG Export Plug-In . SVG Version: 6.00 Build 0)  -->
<svg version="1.1" id="Layer_1" xmlns="http://www.w3.org/2000/svg" xmlns:xlink="http://www.w3.org/1999/xlink" x="0px" y="0px"
	 viewBox="0 0 512 512" enable-background="new 0 0 512 512" xml:space="preserve">
<g>
	<path d="M277.3,362.7H320c0-39.6-15.7-77.6-43.7-105.6c-28-28-66-43.7-105.6-43.7V256c28.3,0,55.4,11.2,75.4,31.2
		C266.1,307.2,277.3,334.4,277.3,362.7z"/>
	<path d="M270.4,34.4c-3.9-3.6-9-5.6-14.4-5.6s-10.4,2-14.4,5.6L21.3,234.7h64v192c0,5.7,2.2,11.1,6.2,15.1c4,4,9.4,6.2,15.1,6.2
		h256v-42.7H128v-210L256,79l128,116.4V384h42.7v21.3H384V448h21.3h0h21.3v-21.3c0,0,0,0,0,0v-192h64L270.4,34.4z"/>
	<path d="M170.7,362.7h64c0-17-6.7-33.3-18.7-45.3c-12-12-28.3-18.7-45.3-18.7V362.7z"/>
</g>
</svg>
