<?xml version="1.0" encoding="utf-8"?>
<!-- Generator: Adobe Illustrator 25.4.1, SVG Export Plug-In . SVG Version: 6.00 Build 0)  -->
<svg version="1.1" id="Layer_1" xmlns="http://www.w3.org/2000/svg" xmlns:xlink="http://www.w3.org/1999/xlink" x="0px" y="0px"
	 viewBox="0 0 512 512" enable-background="new 0 0 512 512" xml:space="preserve">
<g>
	<path d="M477,153.2l-57.6-99.9c-1.9-3.2-4.6-5.9-7.8-7.8s-6.9-2.9-10.7-2.9H111.2c-3.7,0-7.4,1-10.7,2.9c-3.2,1.9-5.9,4.6-7.8,7.8
		L34.8,153.5C26.1,168,21.3,185,21.3,202.7c0,15.8,3.9,31.3,11.3,45.3c7.4,13.9,18.2,25.8,31.3,34.6v144.2H42.7v42.7h362.7V448
		v-21.3H106.7V298.1c14.7,1.6,29.5-0.1,43.4-5.1c13.9-5,26.4-13.2,36.6-23.9c9,9.4,19.7,16.8,31.6,21.9c11.9,5.1,24.7,7.7,37.7,7.7
		c13,0,25.8-2.6,37.7-7.7c11.9-5.1,22.7-12.5,31.6-21.9c10.2,10.7,22.7,18.8,36.6,23.9c13.9,5,28.7,6.8,43.4,5.1v0v107.2H448V282.5
		c20.5-13.7,35-34.8,40.4-58.8C493.8,199.6,489.7,174.4,477,153.2z M445.8,217.3c-2,7.1-5.5,13.6-10.2,19.3
		c-4.7,5.7-10.5,10.3-17.1,13.6c-6.6,3.3-13.8,5.2-21.1,5.6c-7.3,0.4-14.7-0.8-21.6-3.4c-6.9-2.6-13.2-6.6-18.4-11.7
		s-9.4-11.3-12.2-18.1c-7.2-17.9-32.4-17.9-39.6,0c-4,9.9-10.8,18.4-19.6,24.4c-8.8,6-19.3,9.2-29.9,9.2s-21.1-3.2-29.9-9.2
		c-8.8-6-15.7-14.5-19.6-24.4c-7.2-17.9-32.4-17.9-39.6,0c-6.9,11.6-17.9,20.1-30.8,23.9c-12.9,3.8-26.7,2.6-38.8-3.4
		c-12-6-21.4-16.3-26.2-28.8c-4.8-12.6-4.6-26.5,0.4-38.9l51.9-89.9h0h265l51.7,89.5c3.8,6.3,6.3,13.3,7.2,20.6
		C448.4,202.8,447.8,210.2,445.8,217.3z"/>
	<rect x="426.7" y="426.7" width="42.7" height="42.7"/>
</g>
</svg>
