<?xml version="1.0" encoding="utf-8"?>
<!-- Generator: Adobe Illustrator 25.4.1, SVG Export Plug-In . SVG Version: 6.00 Build 0)  -->
<svg version="1.1" id="Layer_1" xmlns="http://www.w3.org/2000/svg" xmlns:xlink="http://www.w3.org/1999/xlink" x="0px" y="0px"
	 viewBox="0 0 512 512" enable-background="new 0 0 512 512" xml:space="preserve">
<g>
	<path d="M463.1,48.9c-4-4-9.4-6.2-15.1-6.2H64c-5.7,0-11.1,2.2-15.1,6.2c-4,4-6.2,9.4-6.2,15.1v128c0,20.8,7.6,40.9,21.3,56.4V448
		c0,5.7,2.2,11.1,6.2,15.1c4,4,9.4,6.2,15.1,6.2H384v-42.7H106.7v-152c15.3,4,31.3,3.6,46.4-1c15.1-4.6,28.6-13.3,39-25.2
		c8,9.1,17.8,16.4,28.9,21.4c11,5,23,7.5,35.1,7.5c12.1,0,24.1-2.6,35.1-7.5c11-5,20.9-12.3,28.9-21.4c10.4,11.8,23.9,20.5,39,25.1
		c15.1,4.6,31.1,5,46.4,1.1v130.7H448V248.4c13.3-15.1,21.3-34.8,21.3-56.4V64C469.3,58.3,467.1,52.9,463.1,48.9z M426.7,192
		c0,11.3-4.5,22.2-12.5,30.2s-18.9,12.5-30.2,12.5s-22.2-4.5-30.2-12.5c-8-8-12.5-18.9-12.5-30.2c0-5.7-2.2-11.1-6.2-15.1
		c-4-4-9.4-6.2-15.1-6.2s-11.1,2.2-15.1,6.2c-4,4-6.2,9.4-6.2,15.1c0,11.3-4.5,22.2-12.5,30.2s-18.9,12.5-30.2,12.5
		s-22.2-4.5-30.2-12.5s-12.5-18.9-12.5-30.2c0-5.7-2.2-11.1-6.2-15.1c-4-4-9.4-6.2-15.1-6.2c-5.7,0-11.1,2.2-15.1,6.2
		c-4,4-6.2,9.4-6.2,15.1c0,11.3-4.5,22.2-12.5,30.2c-8,8-18.9,12.5-30.2,12.5c-11.3,0-22.2-4.5-30.2-12.5c-8-8-12.5-18.9-12.5-30.2
		V85.3h341.3V192z"/>
	<rect x="405.3" y="426.7" width="42.7" height="42.7"/>
</g>
</svg>
