<?xml version="1.0" encoding="utf-8"?>
<!-- Generator: Adobe Illustrator 25.4.1, SVG Export Plug-In . SVG Version: 6.00 Build 0)  -->
<svg version="1.1" id="Layer_1" xmlns="http://www.w3.org/2000/svg" xmlns:xlink="http://www.w3.org/1999/xlink" x="0px" y="0px"
	 viewBox="0 0 512 512" style="enable-background:new 0 0 512 512;" xml:space="preserve">
<g>
	<polygon points="426.7,405.3 426.7,405.4 405.3,405.4 405.3,448 426.7,448 448,448 448,448 448,405.4 438.9,405.4 	"/>
	<path d="M350.5,144.1c-38.9-22.9-68.5-58.8-83.5-101.4v0h-21.9c-15.1,42.6-44.7,78.5-83.6,101.4c-38.9,22.9-84.6,31.4-129.2,24
		c1.7,20.3,9.8,39.5,23.2,54.9c13.4,15.4,31.3,26.1,51.1,30.6v151.7H64V448h320v-42.7h-21.3v0H149.3V256h213.3v128h42.7V253.6
		c19.9-4.5,37.8-15.3,51.1-30.6c13.4-15.4,21.5-34.6,23.2-54.9C435.1,175.5,389.4,167,350.5,144.1z M390.1,213.3H121.9l-14.4-4.1
		l7.6-1.6c55.6-12.4,104.8-44.7,138.5-90.8l2.3-3.3l0,0l2.3,3.3c35.1,48.2,87.3,81.1,145.8,92.3l0.2,0L390.1,213.3z"/>
</g>
</svg>
