<?xml version="1.0" encoding="utf-8"?>
<!-- Generator: Adobe Illustrator 25.4.1, SVG Export Plug-In . SVG Version: 6.00 Build 0)  -->
<svg version="1.1" id="Layer_1" xmlns="http://www.w3.org/2000/svg" xmlns:xlink="http://www.w3.org/1999/xlink" x="0px" y="0px"
	 viewBox="0 0 512 512" enable-background="new 0 0 512 512" xml:space="preserve">
<g>
	<path d="M85.3,153.9l172.2,151.9l169.1-151.5v122.9h42.7v-192c0-5.7-2.2-11.1-6.2-15.1c-4-4-9.4-6.2-15.1-6.2H64
		c-5.7,0-11.1,2.2-15.1,6.2c-4,4-6.2,9.4-6.2,15.1V384h42.7V153.9z M416,106.7L416,106.7L257.3,248.8L96.2,106.7H416z"/>
	<path d="M489.6,393.6l21.6-12.5l-21.3-36.9l-21.6,12.5c-5.9-5.1-12.8-9.1-20.3-11.7v-25h-42.7v25c-7.5,2.7-14.3,6.7-20.3,11.7
		l-21.6-12.5l-21.3,36.9l21.6,12.5c-1.4,7.7-1.4,15.7,0,23.4l-21.6,12.5l21.3,36.9l21.6-12.5c6,5.1,12.8,9.1,20.3,11.7v25H448v-25
		c7.4-2.6,14.3-6.6,20.3-11.7l21.6,12.5l21.3-36.9L489.6,417C491,409.3,491,401.4,489.6,393.6z M441.8,420.4c-4,4-9.4,6.2-15.1,6.2
		s-11.1-2.2-15.1-6.2s-6.2-9.4-6.2-15.1s2.2-11.1,6.2-15.1s9.4-6.2,15.1-6.2s11.1,2.2,15.1,6.2s6.2,9.4,6.2,15.1
		S445.8,416.4,441.8,420.4z"/>
	<rect x="106.7" y="405.3" width="192" height="42.7"/>
	<rect x="42.7" y="405.3" width="42.7" height="42.7"/>
</g>
</svg>
