<?xml version="1.0" encoding="utf-8"?>
<!-- Generator: Adobe Illustrator 25.4.1, SVG Export Plug-In . SVG Version: 6.00 Build 0)  -->
<svg version="1.1" id="Layer_1" xmlns="http://www.w3.org/2000/svg" xmlns:xlink="http://www.w3.org/1999/xlink" x="0px" y="0px"
	 viewBox="0 0 512 512" enable-background="new 0 0 512 512" xml:space="preserve">
<g>
	<polygon points="213.3,288 320,224 213.3,160 	"/>
	<path d="M463.1,70.2c-4-4-9.4-6.2-15.1-6.2H106.7v42.7h320v234.7H85.3V128H64H42.7v234.7c0,5.7,2.2,11.1,6.2,15.1
		c4,4,9.4,6.2,15.1,6.2h170.7v42.7h-85.3v42.7h213.3v-42.7h-85.3V384H448c5.7,0,11.1-2.2,15.1-6.2s6.2-9.4,6.2-15.1V85.3
		C469.3,79.7,467.1,74.2,463.1,70.2z"/>
	<polygon points="85.3,64 64,64 64,64 42.7,64 42.7,85.3 42.7,85.3 42.7,106.7 85.3,106.7 	"/>
</g>
</svg>
