<?xml version="1.0" encoding="utf-8"?>
<!-- Generator: Adobe Illustrator 25.4.1, SVG Export Plug-In . SVG Version: 6.00 Build 0)  -->
<svg version="1.1" id="Layer_1" xmlns="http://www.w3.org/2000/svg" xmlns:xlink="http://www.w3.org/1999/xlink" x="0px" y="0px"
	 viewBox="0 0 512 512" enable-background="new 0 0 512 512" xml:space="preserve">
<g>
	<path d="M426.7,234.7h-64V192H320v42.7H192V192h-42.7v42.7h-64v-85.3h320v-42.7h-42.7v-64c0-5.7-2.2-11.1-6.2-15.1
		c-4-4-9.4-6.2-15.1-6.2H170.7c-5.7,0-11.1,2.2-15.1,6.2c-4,4-6.2,9.4-6.2,15.1v64H64c-5.7,0-11.1,2.2-15.1,6.2
		c-4,4-6.2,9.4-6.2,15.1v298.7c0,5.7,2.2,11.1,6.2,15.1c4,4,9.4,6.2,15.1,6.2h384c5.7,0,11.1-2.2,15.1-6.2s6.2-9.4,6.2-15.1v-256
		h-42.7V234.7z M192,64h128v42.7H192V64z M426.7,405.3H85.3v-128h341.3V405.3z"/>
	<polygon points="469.3,128 469.3,106.7 448,106.7 448,106.7 426.7,106.7 426.7,149.3 469.3,149.3 469.3,128 469.3,128 469.3,128 	
		"/>
</g>
</svg>
