<?xml version="1.0" encoding="utf-8"?>
<!-- Generator: Adobe Illustrator 25.4.1, SVG Export Plug-In . SVG Version: 6.00 Build 0)  -->
<svg version="1.1" id="Layer_1" xmlns="http://www.w3.org/2000/svg" xmlns:xlink="http://www.w3.org/1999/xlink" x="0px" y="0px"
	 viewBox="0 0 512 512" enable-background="new 0 0 512 512" xml:space="preserve">
<g>
	<path d="M448.2,64H63.8c-5.6,0-11,2.3-14.9,6.3c-4,4-6.2,9.3-6.2,14.9l0,298.8h42.7V106.7h341.3v298.7h-320V448h341.5
		c5.6,0,11-2.3,14.9-6.3s6.2-9.3,6.2-14.9V85.2C469.3,73.5,459.9,64,448.2,64z"/>
	<rect x="128" y="320" width="256" height="42.7"/>
	<path d="M128,149.3v128h128v-128H128z M213.3,234.7h-42.7V192h42.7V234.7z"/>
	<rect x="298.7" y="149.3" width="85.3" height="42.7"/>
	<rect x="298.7" y="234.7" width="85.3" height="42.7"/>
	<rect x="42.7" y="405.3" width="42.7" height="42.7"/>
</g>
</svg>
