<?xml version="1.0" encoding="utf-8"?>
<!-- Generator: Adobe Illustrator 25.4.1, SVG Export Plug-In . SVG Version: 6.00 Build 0)  -->
<svg version="1.1" id="Layer_1" xmlns="http://www.w3.org/2000/svg" xmlns:xlink="http://www.w3.org/1999/xlink" x="0px" y="0px"
	 viewBox="0 0 512 512" enable-background="new 0 0 512 512" xml:space="preserve">
<g>
	<rect x="234.7" y="277.3" width="42.7" height="42.7"/>
	<rect x="341.3" y="277.3" width="42.7" height="42.7"/>
	<path d="M426.7,128v64H85.3v-85.3h64v42.7H192v-42.7h128v42.7h42.7v-42.7h42.7V64h-42.7V21.3H320V64H192V21.3h-42.7V64H64
		c-5.7,0-11.1,2.2-15.1,6.2c-4,4-6.2,9.4-6.2,15.1v341.3c0,5.7,2.2,11.1,6.2,15.1c4,4,9.4,6.2,15.1,6.2h384c5.7,0,11.1-2.2,15.1-6.2
		s6.2-9.4,6.2-15.1V128H426.7z M426.7,405.3H85.3V234.7h341.3V405.3z"/>
	<rect x="128" y="277.3" width="42.7" height="42.7"/>
	<rect x="426.7" y="64" width="42.7" height="42.7"/>
</g>
</svg>
