<?xml version="1.0" encoding="utf-8"?>
<!-- Generator: Adobe Illustrator 25.4.1, SVG Export Plug-In . SVG Version: 6.00 Build 0)  -->
<svg version="1.1" id="Layer_1" xmlns="http://www.w3.org/2000/svg" xmlns:xlink="http://www.w3.org/1999/xlink" x="0px" y="0px"
	 viewBox="0 0 512 512" enable-background="new 0 0 512 512" xml:space="preserve">
<g>
	<rect x="277.3" y="298.7" width="106.7" height="42.7"/>
	<rect x="277.3" y="213.3" width="106.7" height="42.7"/>
	<rect x="106.7" y="64" width="362.7" height="42.7"/>
	<path d="M106.7,128H91.1H64H42.7v298.7c0,5.7,2.2,11.1,6.2,15.1c4,4,9.4,6.2,15.1,6.2h170.7v42.7h42.7V448H448
		c5.7,0,11.1-2.2,15.1-6.2s6.2-9.4,6.2-15.1V128L106.7,128L106.7,128z M426.7,405.3H85.3V170.7h341.3V405.3z"/>
	<path d="M146.7,322.6c9,9,20.4,15,32.8,17.5c12.4,2.5,25.3,1.2,37-3.6c11.7-4.8,21.7-13,28.7-23.6c7-10.5,10.8-22.9,10.8-35.6h-64
		v-64c-12.7,0-25,3.8-35.6,10.8c-10.5,7-18.7,17-23.6,28.7c-4.8,11.7-6.1,24.6-3.6,37C131.7,302.2,137.8,313.6,146.7,322.6z"/>
	<polygon points="85.3,64 64,64 42.7,64 42.7,85.3 42.7,106.7 85.3,106.7 	"/>
</g>
</svg>
