<?xml version="1.0" encoding="utf-8"?>
<!-- Generator: Adobe Illustrator 25.4.1, SVG Export Plug-In . SVG Version: 6.00 Build 0)  -->
<svg version="1.1" id="Layer_1" xmlns="http://www.w3.org/2000/svg" xmlns:xlink="http://www.w3.org/1999/xlink" x="0px" y="0px"
	 viewBox="0 0 512 512" enable-background="new 0 0 512 512" xml:space="preserve">
<g>
	<rect x="170.7" y="277.3" width="42.7" height="42.7"/>
	<path d="M484.4,112.9c-4-4-9.4-6.2-15.1-6.2h-11.3C434.6,80.5,400.6,64,362.7,64c-18,0-35.8,3.8-52.3,11.1
		c-16.4,7.4-31.1,18.1-43.1,31.5H85.3v42.7h156.6c-9.5,26.8-9.8,56-0.8,83c8.9,27,26.6,50.2,50.2,66.1
		c23.6,15.8,51.8,23.3,80.2,21.4c28.4-2,55.3-13.4,76.4-32.3v75.3H64v-192H21.3V384c0,5.7,2.2,11.1,6.2,15.1c4,4,9.4,6.2,15.1,6.2
		V448h42.7v-42.7h341.3V448h42.7v-42.7c5.7,0,11.1-2.2,15.1-6.2s6.2-9.4,6.2-15.1V128C490.7,122.3,488.4,116.9,484.4,112.9z
		 M423,252.3c-16,16-37.7,25-60.3,25c-22.6,0-44.3-9-60.3-25c-16-16-25-37.7-25-60.3c0-22.6,9-44.3,25-60.3c16-16,37.7-25,60.3-25
		c22.6,0,44.3,9,60.3,25c16,16,25,37.7,25,60.3C448,214.6,439,236.3,423,252.3z"/>
	<rect x="106.7" y="277.3" width="42.7" height="42.7"/>
	<polygon points="64,106.7 42.7,106.7 42.7,106.7 21.3,106.7 21.3,128 21.3,128 21.3,149.3 64,149.3 	"/>
</g>
</svg>
