<svg fill="none" height="512" viewBox="0 0 24 24" width="512" xmlns="http://www.w3.org/2000/svg"><path d="m17.0001 21h-9.99998c-1.41677.0009-2.78815-.4996-3.87131-1.4129-1.08316-.9132-1.80822-2.1803-2.04679-3.5768-.238561-1.3966.02476-2.8325.74333-4.0535.71858-1.221 1.84605-2.14836 3.18277-2.61784-.04528-.94634.10201-1.89202.43296-2.77976s.83866-1.69906 1.49238-2.38482c.65373-.68575 1.43985-1.23166 2.31076-1.60466.87088-.373 1.80848-.56533 2.75588-.56533s1.885.19233 2.7559.56533 1.657.91891 2.3108 1.60466c.6537.68576 1.1614 1.49708 1.4924 2.38482.3309.88774.4782 1.83342.4329 2.77976 1.3367.46948 2.4642 1.39684 3.1828 2.61784s.9819 2.6569.7433 4.0535c-.2386 1.3965-.9636 2.6636-2.0468 3.5768-1.0831.9133-2.4545 1.4138-3.8713 1.4129zm0-12.00004c.0003-.66699-.1329-1.3273-.3918-1.94203-.2588-.61473-.638-1.17147-1.1152-1.63743-.4773-.46596-1.0429-.83172-1.6637-1.07575-.6207-.24403-1.284-.36139-1.9508-.34518s-1.3236.16568-1.93179.43959c-.60816.27391-1.15537.66673-1.6094 1.15533-.45404.4886-.80573 1.06311-1.03437 1.68969-.22863.62659-.32959 1.29259-.29692 1.95878l.07 1.48804-1.404.494c-.8895.3145-1.63925.9333-2.1169 1.7469-.47766.8136-.65249 1.7699-.49364 2.6999s.64117 1.774 1.36181 2.3829c.72063.609 1.63325.9438 2.57673.9453h9.99998c.7364-.0003 1.4583-.2038 2.0864-.5881s1.1379-.9345 1.4733-1.5901c.3354-.6555.4833-1.3909.4275-2.1251s-.3132-1.4388-.7439-2.0361c-.4306-.5973-1.0177-1.0641-1.6967-1.349-.679-.285-1.4235-.3769-2.1514-.2659-.7279.1111-1.411.421-1.9741.8955-.563.4745-.9842 1.0952-1.2171 1.7938l-1.898-.633c.3988-1.1947 1.1633-2.2336 2.1852-2.9697 1.0219-.7362 2.2494-1.13233 3.5088-1.13234z" fill="rgb(0,0,0)"/></svg>