<?xml version="1.0" encoding="utf-8"?>
<!-- Generator: Adobe Illustrator 25.4.1, SVG Export Plug-In . SVG Version: 6.00 Build 0)  -->
<svg version="1.1" id="Layer_1" xmlns="http://www.w3.org/2000/svg" xmlns:xlink="http://www.w3.org/1999/xlink" x="0px" y="0px"
	 viewBox="0 0 512 512" enable-background="new 0 0 512 512" xml:space="preserve">
<g>
	<path d="M463.1,70.2c-4-4-9.4-6.2-15.1-6.2H337.7c-8.8-24.9-32.5-42.7-60.4-42.7h-42.7c-13.2,0-26.2,4.1-37,11.7
		c-10.8,7.6-19,18.4-23.4,30.9h-67.6v42.7h67.6c4.4,12.5,12.6,23.3,23.4,30.9c10.8,7.6,23.7,11.7,37,11.7h42.7
		c13.2,0,26.2-4.1,37-11.7c10.8-7.6,19-18.4,23.4-30.9h89v298.7H85.3V128H64H42.7v298.7c0,5.7,2.2,11.1,6.2,15.1
		c4,4,9.4,6.2,15.1,6.2h384c5.7,0,11.1-2.2,15.1-6.2s6.2-9.4,6.2-15.1V85.3C469.3,79.7,467.1,74.2,463.1,70.2z M292.4,100.4
		c-4,4-9.4,6.2-15.1,6.2h-42.7c-5.7,0-11.1-2.2-15.1-6.2c-4-4-6.2-9.4-6.2-15.1s2.2-11.1,6.2-15.1c4-4,9.4-6.2,15.1-6.2h42.7
		c5.7,0,11.1,2.2,15.1,6.2c4,4,6.2,9.4,6.2,15.1S296.4,96.4,292.4,100.4z"/>
	<polygon points="213.3,320 320,256 213.3,192 	"/>
	<polygon points="85.3,64 64,64 64,64 42.7,64 42.7,85.3 42.7,85.3 42.7,106.7 85.3,106.7 	"/>
</g>
</svg>
