<?xml version="1.0" encoding="utf-8"?>
<!-- Generator: Adobe Illustrator 25.4.1, SVG Export Plug-In . SVG Version: 6.00 Build 0)  -->
<svg version="1.1" id="Layer_1" xmlns="http://www.w3.org/2000/svg" xmlns:xlink="http://www.w3.org/1999/xlink" x="0px" y="0px"
	 viewBox="0 0 512 512" enable-background="new 0 0 512 512" xml:space="preserve">
<g>
	<path d="M106.7,405.3V448H249c-6.4-13.5-10.8-27.9-12.9-42.7H106.7z"/>
	<path d="M459.4,308.6c-20-20-47.1-31.2-75.4-31.2c-28.3,0-55.4,11.2-75.4,31.2c-20,20-31.2,47.1-31.2,75.4
		c0,28.3,11.2,55.4,31.2,75.4c20,20,47.1,31.2,75.4,31.2c28.3,0,55.4-11.2,75.4-31.2c20-20,31.2-47.1,31.2-75.4
		C490.7,355.7,479.4,328.6,459.4,308.6z M326.2,411.6c-5.7-11.9-7.6-25.4-5.4-38.4c2.2-13.1,8.5-25.1,17.8-34.5
		c9.4-9.4,21.4-15.6,34.5-17.8c13.1-2.2,26.5-0.4,38.4,5.4L326.2,411.6L326.2,411.6z M447.1,394.8c-2.2,13.1-8.5,25.1-17.8,34.5
		c-9.4,9.4-21.4,15.6-34.5,17.8c-13.1,2.2-26.5,0.4-38.4-5.4v0l85.4-85.3C447.5,368.4,449.4,381.8,447.1,394.8z"/>
	<path d="M426.7,240.9c15.2,4.5,29.6,11.5,42.7,20.6V85.3c0-5.7-2.2-11.1-6.2-15.1c-4-4-9.4-6.2-15.1-6.2H64
		c-5.7,0-11.1,2.2-15.1,6.2c-4,4-6.2,9.4-6.2,15.1V384h42.7V153.9l172.2,151.9l169.1-151.5L426.7,240.9z M257.3,248.8L96.2,106.7
		H416h0L257.3,248.8z"/>
	<rect x="42.7" y="405.3" width="42.7" height="42.7"/>
</g>
</svg>
