<?xml version="1.0" encoding="utf-8"?>
<!-- Generator: Adobe Illustrator 25.4.1, SVG Export Plug-In . SVG Version: 6.00 Build 0)  -->
<svg version="1.1" id="Layer_1" xmlns="http://www.w3.org/2000/svg" xmlns:xlink="http://www.w3.org/1999/xlink" x="0px" y="0px"
	 viewBox="0 0 512 512" enable-background="new 0 0 512 512" xml:space="preserve">
<g>
	<path d="M426.7,213.3v149.3H384v-21.3c0-5.7-2.2-11.1-6.2-15.1s-9.4-6.2-15.1-6.2H149.3c-5.7,0-11.1,2.2-15.1,6.2
		c-4,4-6.2,9.4-6.2,15.1v21.3H85.3V192h320v-42.7H384V64c0-5.7-2.2-11.1-6.2-15.1c-4-4-9.4-6.2-15.1-6.2H149.3
		c-5.7,0-11.1,2.2-15.1,6.2c-4,4-6.2,9.4-6.2,15.1v85.3H64c-5.7,0-11.1,2.2-15.1,6.2c-4,4-6.2,9.4-6.2,15.1V384
		c0,5.7,2.2,11.1,6.2,15.1c4,4,9.4,6.2,15.1,6.2h64V448c0,5.7,2.2,11.1,6.2,15.1c4,4,9.4,6.2,15.1,6.2h213.3
		c5.7,0,11.1-2.2,15.1-6.2s6.2-9.4,6.2-15.1v-42.7h64c5.7,0,11.1-2.2,15.1-6.2s6.2-9.4,6.2-15.1V213.3H426.7z M170.7,85.3h170.7v64
		H170.7V85.3z M341.3,426.7H170.7v-64h170.7V426.7z"/>
	<rect x="106.7" y="213.3" width="64" height="42.7"/>
	<rect x="426.7" y="149.3" width="42.7" height="42.7"/>
</g>
</svg>
