<?xml version="1.0" encoding="utf-8"?>
<!-- Generator: Adobe Illustrator 25.4.1, SVG Export Plug-In . SVG Version: 6.00 Build 0)  -->
<svg version="1.1" id="Layer_1" xmlns="http://www.w3.org/2000/svg" xmlns:xlink="http://www.w3.org/1999/xlink" x="0px" y="0px"
	 viewBox="0 0 512 512" enable-background="new 0 0 512 512" xml:space="preserve">
<g>
	<path d="M85.3,153.9l172.2,151.9l169.1-151.5v122.9h42.7v-192c0-5.7-2.2-11.1-6.2-15.1c-4-4-9.4-6.2-15.1-6.2H64
		c-5.7,0-11.1,2.2-15.1,6.2c-4,4-6.2,9.4-6.2,15.1V384h42.7V153.9z M416,106.7L257.3,248.8L96.2,106.7H416z"/>
	<polygon points="448,384 448,320 405.3,320 405.3,384 341.3,384 341.3,426.7 405.3,426.7 405.3,490.7 448,490.7 448,426.7 
		512,426.7 512,384 	"/>
	<rect x="106.7" y="405.3" width="192" height="42.7"/>
	<rect x="42.7" y="405.3" width="42.7" height="42.7"/>
</g>
</svg>
