<?xml version="1.0" encoding="utf-8"?>
<!-- Generator: Adobe Illustrator 25.4.1, SVG Export Plug-In . SVG Version: 6.00 Build 0)  -->
<svg version="1.1" id="Layer_1" xmlns="http://www.w3.org/2000/svg" xmlns:xlink="http://www.w3.org/1999/xlink" x="0px" y="0px"
	 viewBox="0 0 512 512" enable-background="new 0 0 512 512" xml:space="preserve">
<g>
	<path d="M463.1,70.2c-4-4-9.4-6.2-15.1-6.2H64c-5.7,0-11.1,2.2-15.1,6.2c-4,4-6.2,9.4-6.2,15.1v341.3c0,5.7,2.2,11.1,6.2,15.1
		c4,4,9.4,6.2,15.1,6.2h341.3v-21.3v-21.3h-320V298.7h72.9c8.3,19,22,35.2,39.3,46.6c17.4,11.4,37.7,17.4,58.4,17.4
		s41.1-6.1,58.4-17.4c17.4-11.4,31-27.6,39.3-46.6h72.9V384h42.7V85.3C469.3,79.7,467.1,74.2,463.1,70.2z M426.7,256H320
		c0,17-6.7,33.3-18.7,45.3S273,320,256,320s-33.3-6.7-45.3-18.7c-12-12-18.7-28.3-18.7-45.3H85.3V106.7h341.3V256z"/>
	<rect x="426.7" y="405.3" width="42.7" height="42.7"/>
</g>
</svg>
