<?xml version="1.0" encoding="utf-8"?>
<!-- Generator: Adobe Illustrator 25.4.1, SVG Export Plug-In . SVG Version: 6.00 Build 0)  -->
<svg version="1.1" id="Layer_1" xmlns="http://www.w3.org/2000/svg" xmlns:xlink="http://www.w3.org/1999/xlink" x="0px" y="0px"
	 viewBox="0 0 512 512" enable-background="new 0 0 512 512" xml:space="preserve">
<g>
	<polygon points="469.3,128 469.3,106.7 448,106.7 448,106.7 426.7,106.7 426.7,149.3 469.3,149.3 469.3,128 469.3,128 469.3,128 	
		"/>
	<path d="M426.7,277.3H384v-128h21.3v-42.7h-42.7v-64c0-5.7-2.2-11.1-6.2-15.1c-4-4-9.4-6.2-15.1-6.2H170.7
		c-5.7,0-11.1,2.2-15.1,6.2c-4,4-6.2,9.4-6.2,15.1v64H64c-5.7,0-11.1,2.2-15.1,6.2c-4,4-6.2,9.4-6.2,15.1v298.7
		c0,5.7,2.2,11.1,6.2,15.1c4,4,9.4,6.2,15.1,6.2h384c5.7,0,11.1-2.2,15.1-6.2s6.2-9.4,6.2-15.1v-256h-42.7V277.3z M128,405.3H85.3
		V320H128V405.3z M128,277.3H85.3v-128H128V277.3z M192,64h128v42.7H192V64z M341.3,405.3H170.7V320h64v21.3h42.7V320h64V405.3z
		 M341.3,277.3h-64V256h-42.7v21.3h-64v-128h170.7V277.3z M426.7,405.3H384V320h42.7V405.3z"/>
</g>
</svg>
