<?xml version="1.0" encoding="utf-8"?>
<!-- Generator: Adobe Illustrator 25.4.1, SVG Export Plug-In . SVG Version: 6.00 Build 0)  -->
<svg version="1.1" id="Layer_1" xmlns="http://www.w3.org/2000/svg" xmlns:xlink="http://www.w3.org/1999/xlink" x="0px" y="0px"
	 viewBox="0 0 512 512" enable-background="new 0 0 512 512" xml:space="preserve">
<g>
	<path d="M441.8,112.9c-4-4-9.4-6.2-15.1-6.2h-128l-15.4-30.9c-1.8-3.5-4.5-6.5-7.9-8.6c-3.4-2.1-7.2-3.2-11.2-3.2H128v21.3v21.3
		h123l21.3,42.7h133v192H303.7l-21.3-42.7H106.7V128H64v341.3h42.7v-128H256l15.4,30.9c1.8,3.5,4.5,6.5,7.9,8.6
		c3.4,2.1,7.2,3.2,11.2,3.2h136.1c5.7,0,11.1-2.2,15.1-6.2s6.2-9.4,6.2-15.1V128C448,122.3,445.8,116.9,441.8,112.9z"/>
	<polygon points="106.7,64 85.3,64 64,64 64,85.3 64,106.7 106.7,106.7 	"/>
</g>
</svg>
