<?xml version="1.0" encoding="utf-8"?>
<!-- Generator: Adobe Illustrator 25.4.1, SVG Export Plug-In . SVG Version: 6.00 Build 0)  -->
<svg version="1.1" id="Layer_1" xmlns="http://www.w3.org/2000/svg" xmlns:xlink="http://www.w3.org/1999/xlink" x="0px" y="0px"
	 viewBox="0 0 512 512" enable-background="new 0 0 512 512" xml:space="preserve">
<g>
	<rect x="128" y="320" width="42.7" height="42.7"/>
	<path d="M463.1,70.2c-4-4-9.4-6.2-15.1-6.2H106.7v42.7h320v106.7h-24c-4.7-18.3-15.4-34.5-30.4-46.1c-15-11.6-33.3-17.9-52.3-17.9
		s-37.3,6.3-52.3,17.9c-15,11.6-25.6,27.8-30.4,46.1h-152V128H64H42.7v298.7c0,5.7,2.2,11.1,6.2,15.1c4,4,9.4,6.2,15.1,6.2h384
		c5.7,0,11.1-2.2,15.1-6.2s6.2-9.4,6.2-15.1V85.3C469.3,79.7,467.1,74.2,463.1,70.2z M289.8,204.5c8-8,18.9-12.5,30.2-12.5
		s22.2,4.5,30.2,12.5c8,8,12.5,18.9,12.5,30.2s-4.5,22.2-12.5,30.2s-18.9,12.5-30.2,12.5s-22.2-4.5-30.2-12.5s-12.5-18.9-12.5-30.2
		C277.3,223.4,281.8,212.5,289.8,204.5z M426.7,405.3H85.3V256h152c4.7,18.3,15.4,34.5,30.4,46.1c15,11.6,33.3,17.9,52.3,17.9
		s37.3-6.3,52.3-17.9c15-11.6,25.6-27.8,30.4-46.1h24V405.3z"/>
	<polygon points="85.3,64 64,64 64,64 42.7,64 42.7,85.3 42.7,85.3 42.7,106.7 85.3,106.7 	"/>
</g>
</svg>
