<?xml version="1.0" encoding="utf-8"?>
<!-- Generator: Adobe Illustrator 25.4.1, SVG Export Plug-In . SVG Version: 6.00 Build 0)  -->
<svg version="1.1" id="Layer_1" xmlns="http://www.w3.org/2000/svg" xmlns:xlink="http://www.w3.org/1999/xlink" x="0px" y="0px"
	 viewBox="0 0 512 512" enable-background="new 0 0 512 512" xml:space="preserve">
<g>
	<path d="M463.1,70.2c-4-4-9.4-6.2-15.1-6.2H64c-5.7,0-11.1,2.2-15.1,6.2c-4,4-6.2,9.4-6.2,15.1V384h42.7V153.9l172.2,151.9
		l169.1-151.5v250.9h-320V448H448c5.7,0,11.1-2.2,15.1-6.2s6.2-9.4,6.2-15.1V85.3C469.3,79.7,467.1,74.2,463.1,70.2z M257.3,248.8
		L96.2,106.7H416L257.3,248.8z"/>
	<rect x="42.7" y="405.3" width="42.7" height="42.7"/>
</g>
</svg>
