<?xml version="1.0" encoding="utf-8"?>
<!-- Generator: Adobe Illustrator 25.4.1, SVG Export Plug-In . SVG Version: 6.00 Build 0)  -->
<svg version="1.1" id="Layer_1" xmlns="http://www.w3.org/2000/svg" xmlns:xlink="http://www.w3.org/1999/xlink" x="0px" y="0px"
	 viewBox="0 0 512 512" enable-background="new 0 0 512 512" xml:space="preserve">
<g>
	<path d="M256,42.7C138.2,42.7,42.7,138.2,42.7,256S138.2,469.3,256,469.3c17.7,0,35.1-2.2,52.1-6.4v-25.6v-18.8
		c-20.8,6.7-42.7,9.3-64.8,7.7c-37.9-2.8-73.8-18.3-102-43.8c-28.2-25.6-47-59.8-53.5-97.3c-6.5-37.5-0.3-76.1,17.7-109.6
		c17.9-33.5,46.6-60.1,81.4-75.5c34.8-15.4,73.7-18.7,110.6-9.5c36.9,9.2,69.6,30.6,93.1,60.5c23.4,30,36.1,66.9,36.1,105l0,32
		c0,8.5-3.4,16.6-9.4,22.6s-14.1,9.4-22.6,9.4c-8.5,0-16.6-3.4-22.6-9.4c-6-6-9.4-14.1-9.4-22.6V170.7H320
		c-16.4-12.3-36.1-19.6-56.6-21.1c-20.5-1.4-41,3.1-58.9,13c-18,9.9-32.7,24.8-42.4,42.9c-9.7,18.1-14,38.6-12.4,59.1
		s9.2,40,21.7,56.3c12.5,16.3,29.4,28.6,48.8,35.5c19.3,6.9,40.3,8.1,60.3,3.4c20-4.7,38.2-15.1,52.4-29.9c9,13.2,21.9,23.2,37,28.5
		c15.1,5.3,31.4,5.6,46.7,0.9c15.3-4.7,28.6-14.2,38.1-27c9.5-12.8,14.6-28.4,14.6-44.4v-32C469.3,138.2,373.8,42.7,256,42.7z
		 M301.3,301.3c-12,12-28.3,18.7-45.3,18.7s-33.3-6.7-45.3-18.7c-12-12-18.7-28.3-18.7-45.3s6.7-33.3,18.7-45.3
		c12-12,28.3-18.7,45.3-18.7s33.3,6.7,45.3,18.7c12,12,18.7,28.3,18.7,45.3S313.3,289.3,301.3,301.3z"/>
	<rect x="329.4" y="416" width="42.7" height="42.7"/>
</g>
</svg>
