<?xml version="1.0" encoding="utf-8"?>
<!-- Generator: Adobe Illustrator 25.4.1, SVG Export Plug-In . SVG Version: 6.00 Build 0)  -->
<svg version="1.1" id="Layer_1" xmlns="http://www.w3.org/2000/svg" xmlns:xlink="http://www.w3.org/1999/xlink" x="0px" y="0px"
	 viewBox="0 0 512 512" enable-background="new 0 0 512 512" xml:space="preserve">
<g>
	<path d="M463.1,70.2c-4-4-9.4-6.2-15.1-6.2H64c-5.7,0-11.1,2.2-15.1,6.2c-4,4-6.2,9.4-6.2,15.1V384h42.7V106.7h341.3v298.7h-320
		v21.3V448H448c5.7,0,11.1-2.2,15.1-6.2s6.2-9.4,6.2-15.1V85.3C469.3,79.7,467.1,74.2,463.1,70.2z"/>
	<path d="M405.3,341.3V170.7h-42.7l0,42.7h-21.3c-17,0-33.3,6.7-45.3,18.7s-18.7,28.3-18.7,45.3c0,17,6.7,33.3,18.7,45.3
		s28.3,18.7,45.3,18.7H405.3z M338.8,298.5c-5.4-0.6-10.3-3.3-13.8-7.5c-3.5-4.2-5.3-9.5-4.9-14.9c0.3-5.4,2.7-10.5,6.7-14.3
		c4-3.7,9.2-5.8,14.6-5.8h21.3v42.7h-21.3L338.8,298.5z"/>
	<path d="M144.1,320h70.2l8.5,21.3h46l-68.2-170.7h-42.7L89.6,341.3h46L144.1,320z M179.2,232.2l18,45.1h-36.1L179.2,232.2z"/>
	<polygon points="42.7,448 64,448 64,448 85.3,448 85.3,405.3 42.7,405.3 	"/>
</g>
</svg>
