<svg fill="none" height="512" viewBox="0 0 24 24" width="512" xmlns="http://www.w3.org/2000/svg"><path d="m14.2569 15c-.7954-.9641-1.2387-2.1704-1.2568-3.4202-.0181-1.2497.3899-2.46838 1.157-3.45519.7671-.98682 1.8474-1.68295 3.0629-1.97371 1.2156-.29076 2.494-.15882 3.6246.37409s2.0459 1.43501 2.5952 2.5577c.5494 1.12271.6999 2.39901.4269 3.61871s-.9533 2.31-1.9288 3.0914c-.9756.7813-2.1881 1.2071-3.438 1.2072h-13.00001c-1.24988-.0001-2.46245-.4259-3.43798-1.2072-.97553-.7814-1.655836-1.8717-1.928848-3.0914s-.1224488-2.496.426888-3.61871c.54934-1.12269 1.46468-2.02479 2.59525-2.5577 1.13058-.53291 2.40895-.66485 3.62453-.37409 1.21559.29076 2.29589.98689 3.06295 1.97371.76702.98681 1.17512 2.20549 1.15702 3.45519-.0182 1.2498-.4614 2.4561-1.25681 3.4202zm-8.75701 0c.92826 0 1.8185-.3687 2.47487-1.0251.65638-.6564 1.02513-1.5466 1.02513-2.4749s-.36875-1.81849-1.02513-2.47487c-.65637-.65638-1.54661-1.02513-2.47487-1.02513s-1.8185.36875-2.47487 1.02513c-.65638.65638-1.02513 1.54657-1.02513 2.47487s.36875 1.8185 1.02513 2.4749c.65637.6564 1.54661 1.0251 2.47487 1.0251zm13.00001 0c.9282 0 1.8185-.3687 2.4749-1.0251.6563-.6564 1.0251-1.5466 1.0251-2.4749s-.3688-1.81849-1.0251-2.47487c-.6564-.65638-1.5467-1.02513-2.4749-1.02513-.9283 0-1.8185.36875-2.4749 1.02513s-1.0251 1.54657-1.0251 2.47487.3687 1.8185 1.0251 2.4749 1.5466 1.0251 2.4749 1.0251z" fill="rgb(0,0,0)"/></svg>