<?xml version="1.0" encoding="utf-8"?>
<!-- Generator: Adobe Illustrator 25.4.1, SVG Export Plug-In . SVG Version: 6.00 Build 0)  -->
<svg version="1.1" id="Layer_1" xmlns="http://www.w3.org/2000/svg" xmlns:xlink="http://www.w3.org/1999/xlink" x="0px" y="0px"
	 viewBox="0 0 512 512" enable-background="new 0 0 512 512" xml:space="preserve">
<g>
	<path d="M469.3,256c0-117.8-95.5-213.3-213.3-213.3S42.7,138.2,42.7,256v106.7c0,11.3,4.5,22.2,12.5,30.2c8,8,18.9,12.5,30.2,12.5
		h64c11.3,0,22.2-4.5,30.2-12.5c8-8,12.5-18.9,12.5-30.2v-85.3c0-11.3-4.5-22.2-12.5-30.2c-8-8-18.9-12.5-30.2-12.5H86.7
		c5.2-41.2,25.3-79.2,56.5-106.7c31.2-27.5,71.3-42.7,112.9-42.7s81.7,15.2,112.9,42.7c31.2,27.5,51.3,65.4,56.5,106.7h-62.7
		c-11.3,0-22.2,4.5-30.2,12.5S320,266,320,277.3v85.3c0,11.3,4.5,22.2,12.5,30.2c8,8,18.9,12.5,30.2,12.5h52.6
		c-6.3,10.9-15,20.3-25.4,27.5c-10.4,7.2-22.2,12-34.7,14l13.6,40.8c28.5-6.3,54-22.1,72.3-44.8c18.3-22.7,28.3-51,28.3-80.2
		L469.3,256z M149.3,277.3v85.3h-64v-85.3H149.3z M426.7,362.7h-64v-85.3h64V362.7z"/>
	<rect x="234.7" y="298.7" width="42.7" height="42.7"/>
</g>
</svg>
