<?xml version="1.0" encoding="utf-8"?>
<!-- Generator: Adobe Illustrator 25.4.1, SVG Export Plug-In . SVG Version: 6.00 Build 0)  -->
<svg version="1.1" id="Layer_1" xmlns="http://www.w3.org/2000/svg" xmlns:xlink="http://www.w3.org/1999/xlink" x="0px" y="0px"
	 viewBox="0 0 512 512" enable-background="new 0 0 512 512" xml:space="preserve">
<g>
	<path d="M192,448h128V64H192V448z M234.7,106.7h42.7v298.7h-42.7V106.7z"/>
	<polygon points="426.7,405.3 384,405.3 384,213.3 405.3,213.3 405.3,192 405.3,170.7 341.3,170.7 341.3,448 469.3,448 469.3,234.7 
		426.7,234.7 	"/>
	<path d="M42.7,448h128V277.3h-128V448z M85.3,320H128v85.3H85.3V320z"/>
	<polygon points="469.3,170.7 448,170.7 426.7,170.7 426.7,213.3 469.3,213.3 469.3,170.7 	"/>
</g>
</svg>
