<?xml version="1.0" encoding="utf-8"?>
<!-- Generator: Adobe Illustrator 25.4.1, SVG Export Plug-In . SVG Version: 6.00 Build 0)  -->
<svg version="1.1" id="Layer_1" xmlns="http://www.w3.org/2000/svg" xmlns:xlink="http://www.w3.org/1999/xlink" x="0px" y="0px"
	 viewBox="0 0 512 512" enable-background="new 0 0 512 512" xml:space="preserve">
<g>
	<path d="M195.7,337.7c16,16,37.7,25,60.3,25s44.3-9,60.3-25c16-16,25-37.7,25-60.3H170.7C170.7,300,179.7,321.7,195.7,337.7z"/>
	<path d="M426.7,256c0,94.3-76.4,170.7-170.7,170.7c-28.5,0-55.8-6.9-80.3-20l-13.9-7.4l-62.9,14l14-62.8l-7.5-14
		c-13.1-24.5-20.1-51.9-20.1-80.3c0-94.3,76.4-170.7,170.7-170.7v0c41.2,0,113.5,0,149.3,0V42.7c-48,0-111.7,0-149.3,0v0
		C138.2,42.7,42.7,138.2,42.7,256c0,36.3,9.1,70.5,25.1,100.5L42.7,469.3l112.9-25.1c29.9,16,64.1,25.1,100.4,25.1
		c117.8,0,213.3-95.5,213.3-213.3c0-30.2,0-98.2,0-149.3h-42.7C426.7,145.8,426.7,227.5,426.7,256z"/>
	<path d="M448,42.7h-21.3v42.7h42.7V43.5c0-0.6,0-0.8,0-0.8S461.2,42.7,448,42.7z"/>
</g>
</svg>
