<?xml version="1.0" encoding="utf-8"?>
<!-- Generator: Adobe Illustrator 25.4.1, SVG Export Plug-In . SVG Version: 6.00 Build 0)  -->
<svg version="1.1" id="Layer_1" xmlns="http://www.w3.org/2000/svg" xmlns:xlink="http://www.w3.org/1999/xlink" x="0px" y="0px"
	 viewBox="0 0 512 512" enable-background="new 0 0 512 512" xml:space="preserve">
<g>
	<rect x="106.7" y="64" width="192" height="42.7"/>
	<path d="M426.7,362.7H122.9l-37.6,29.5V128H42.7v352l95-74.7H448c5.7,0,11.1-2.2,15.1-6.2s6.2-9.4,6.2-15.1V213.3h-42.7V362.7z"/>
	<polygon points="448,64 448,0 405.3,0 405.3,64 341.3,64 341.3,106.7 405.3,106.7 405.3,170.7 448,170.7 448,106.7 512,106.7 
		512,64 	"/>
	<polygon points="85.3,64 64,64 64,64 42.7,64 42.7,85.3 42.7,85.3 42.7,106.7 85.3,106.7 	"/>
</g>
</svg>
