<?xml version="1.0" encoding="utf-8"?>
<!-- Generator: Adobe Illustrator 25.4.1, SVG Export Plug-In . SVG Version: 6.00 Build 0)  -->
<svg version="1.1" id="Layer_1" xmlns="http://www.w3.org/2000/svg" xmlns:xlink="http://www.w3.org/1999/xlink" x="0px" y="0px"
	 viewBox="0 0 512 512" enable-background="new 0 0 512 512" xml:space="preserve">
<g>
	<path d="M426.7,362.7H122.9l-37.6,29.5V106.7h320V64H64c-11.8,0-21.3,9.6-21.3,21.3V480l95-74.7H448c11.8,0,21.3-9.6,21.3-21.3V128
		h-42.7V362.7z"/>
	<path d="M340.5,172.8l-9.5-14.7c-38.1,16.5-64.3,50-64.3,87.3c0,21.2,5.9,34.3,16.9,46c6.9,7.4,17.9,12.6,29.3,12.6
		c20.6,0,37.3-16.7,37.3-37.3c0-19.6-15.2-35.4-34.4-37.2c-3.5-0.3-6.9-0.2-10.2,0.2C305.6,223,304.9,192.1,340.5,172.8z"/>
	<path d="M233.9,172.8l-9.5-14.7c-38.1,16.5-64.3,50-64.3,87.3c0,21.2,5.9,34.3,16.9,46c6.9,7.4,17.9,12.6,29.3,12.6
		c20.6,0,37.3-16.7,37.3-37.3c0-19.6-15.2-35.4-34.4-37.2c-3.5-0.3-6.9-0.2-10.2,0.2C198.9,223,198.3,192.1,233.9,172.8z"/>
	<polygon points="448,64 448,64 426.7,64 426.7,106.7 469.3,106.7 469.3,64 	"/>
</g>
</svg>
