<?xml version="1.0" encoding="utf-8"?>
<!-- Generator: Adobe Illustrator 25.4.1, SVG Export Plug-In . SVG Version: 6.00 Build 0)  -->
<svg version="1.1" id="Layer_1" xmlns="http://www.w3.org/2000/svg" xmlns:xlink="http://www.w3.org/1999/xlink" x="0px" y="0px"
	 viewBox="0 0 512 512" enable-background="new 0 0 512 512" xml:space="preserve">
<g>
	<path d="M405.3,106.7V64h21.3v42.7h42.7V85.3v0V64H448c0,0,0,0,0,0H153.9l42.6,42.6L405.3,106.7z"/>
	<polygon points="469.3,379.4 469.3,128 426.7,128 426.7,336.7 	"/>
	<path d="M59.9,29.7L29.7,59.9l15.4,15.4c-1.6,3-2.5,6.4-2.5,10V480l95-74.7l237.4,0l77,77l30.2-30.2L59.9,29.7z M122.9,362.7
		l-37.6,29.5l0-276.7l0,0l247.1,247.2H122.9z"/>
</g>
</svg>
