<?xml version="1.0" encoding="utf-8"?>
<!-- Generator: Adobe Illustrator 25.4.1, SVG Export Plug-In . SVG Version: 6.00 Build 0)  -->
<svg version="1.1" id="Layer_1" xmlns="http://www.w3.org/2000/svg" xmlns:xlink="http://www.w3.org/1999/xlink" x="0px" y="0px"
	 viewBox="0 0 512 512" enable-background="new 0 0 512 512" xml:space="preserve">
<g>
	<rect x="426.7" y="128" width="42.7" height="128"/>
	<path d="M85.3,392.2V106.7h320V64H64c-5.7,0-11.1,2.2-15.1,6.2c-4,4-6.2,9.4-6.2,15.1V480l95-74.7H256v-42.7H122.9L85.3,392.2z"/>
	<path d="M466.2,361.2l20.8-12l-21.3-36.9l-20.8,12c-10.7-10.9-24.3-18.9-39.6-22.8v-24h-42.7v24c-15,3.9-28.7,11.8-39.6,22.8
		l-20.8-12L281,349.1l20.8,12c-4.1,15-4.1,30.7,0,45.7l-20.8,12l21.3,36.9l20.8-12c10.9,11.1,24.5,19,39.6,22.8v24h42.7v-24
		c15.2-3.9,28.9-12,39.6-22.8l20.8,12l21.3-36.9l-20.8-12C470.4,391.9,470.4,376.1,466.2,361.2z M414.2,414.2
		c-8,8-18.9,12.5-30.2,12.5s-22.2-4.5-30.2-12.5c-8-8-12.5-18.9-12.5-30.2s4.5-22.2,12.5-30.2c8-8,18.9-12.5,30.2-12.5
		s22.2,4.5,30.2,12.5c8,8,12.5,18.9,12.5,30.2S422.2,406.2,414.2,414.2z"/>
	<polygon points="469.3,64 448,64 448,64 426.7,64 426.7,106.7 469.3,106.7 	"/>
</g>
</svg>
