<?xml version="1.0" encoding="utf-8"?>
<!-- Generator: Adobe Illustrator 25.4.1, SVG Export Plug-In . SVG Version: 6.00 Build 0)  -->
<svg version="1.1" id="Layer_1" xmlns="http://www.w3.org/2000/svg" xmlns:xlink="http://www.w3.org/1999/xlink" x="0px" y="0px"
	 viewBox="0 0 512 512" enable-background="new 0 0 512 512" xml:space="preserve">
<g>
	<path d="M341.3,64H170.7c-16.5,0-124.5,0-127.9,0c-0.1,0-0.1,0-0.1,0s0,0,0,0.1c0,3.4,0,111.2,0,127.8v128.3
		c0,70.4,57.3,127.9,128,127.9h298.7V191.9C469.3,121.5,412,64,341.3,64z M426.7,405.3h-256c-22.6,0-44.3-9-60.3-25
		c-16-16-25-37.6-25.1-60.2V191.9c0-7.3,0-41.1,0-63.9H42.7v-21.3h42.7V64h21.3v42.7c22.8,0,56.7,0,64,0h170.7
		c22.6,0,44.3,9,60.3,25c16,16,25,37.6,25.1,60.2V405.3z"/>
	<rect x="170.7" y="234.7" width="42.7" height="42.7"/>
	<rect x="298.7" y="234.7" width="42.7" height="42.7"/>
</g>
</svg>
