<?xml version="1.0" encoding="utf-8"?>
<!-- Generator: Adobe Illustrator 25.4.1, SVG Export Plug-In . SVG Version: 6.00 Build 0)  -->
<svg version="1.1" id="Layer_1" xmlns="http://www.w3.org/2000/svg" xmlns:xlink="http://www.w3.org/1999/xlink" x="0px" y="0px"
	 viewBox="0 0 512 512" enable-background="new 0 0 512 512" xml:space="preserve">
<g>
	<rect x="320" y="213.3" width="42.7" height="42.7"/>
	<path d="M426.7,362.7H122.9l-37.6,29.5V106.7h320V64H64c-5.7,0-11.1,2.2-15.1,6.2c-4,4-6.2,9.4-6.2,15.1V480l95-74.7H448
		c5.7,0,11.1-2.2,15.1-6.2s6.2-9.4,6.2-15.1V128h-42.7V362.7z"/>
	<rect x="234.7" y="213.3" width="42.7" height="42.7"/>
	<rect x="149.3" y="213.3" width="42.7" height="42.7"/>
	<polygon points="448,64 448,64 426.7,64 426.7,106.7 469.3,106.7 469.3,85.3 469.3,85.3 469.3,64 	"/>
</g>
</svg>
