<?xml version="1.0" encoding="utf-8"?>
<!-- Generator: Adobe Illustrator 25.4.1, SVG Export Plug-In . SVG Version: 6.00 Build 0)  -->
<svg version="1.1" id="Layer_1" xmlns="http://www.w3.org/2000/svg" xmlns:xlink="http://www.w3.org/1999/xlink" x="0px" y="0px"
	 viewBox="0 0 512 512" enable-background="new 0 0 512 512" xml:space="preserve">
<g>
	<path d="M426.7,341.3h42.7v-256c0-5.7-2.2-11.1-6.2-15.1c-4-4-9.4-6.2-15.1-6.2H106.7v42.7h320V341.3z"/>
	<path d="M426.7,362.7v42.7h-21.3v-42.7H286.1L256,405.6l-30.1-42.9H85.3V128H42.7v256c0,5.7,2.2,11.1,6.2,15.1
		c4,4,9.4,6.2,15.1,6.2h139.7L256,480l52.3-74.7H448c0,0,0.1,0,0.1,0h21.2v-42.7H426.7z"/>
	<polygon points="85.3,64 64,64 64,64 42.7,64 42.7,85.3 42.7,85.3 42.7,106.7 85.3,106.7 	"/>
</g>
</svg>
