<?xml version="1.0" encoding="utf-8"?>
<!-- Generator: Adobe Illustrator 25.4.1, SVG Export Plug-In . SVG Version: 6.00 Build 0)  -->
<svg version="1.1" id="Layer_1" xmlns="http://www.w3.org/2000/svg" xmlns:xlink="http://www.w3.org/1999/xlink" x="0px" y="0px"
	 viewBox="0 0 512 512" enable-background="new 0 0 512 512" xml:space="preserve">
<g>
	<rect x="85.3" y="42.7" width="320" height="42.7"/>
	<path d="M484.4,136.4c-4-4-9.4-6.2-15.1-6.2H128c-5.7,0-11.1,2.2-15.1,6.2c-4,4-6.2,9.4-6.2,15.1V384c0,5.7,2.2,11.1,6.2,15.1
		c4,4,9.4,6.2,15.1,6.2h110.9l59.7,74.7l59.7-74.7h110.9c5.7,0,11.1-2.2,15.1-6.2s6.2-9.4,6.2-15.1V151.5
		C490.7,145.9,488.4,140.4,484.4,136.4z M448,362.7H337.9l-39.2,49l-39.2-49H149.3V172.9H448V362.7z"/>
	<rect x="21.3" y="106.7" width="42.7" height="213.3"/>
	<polygon points="21.3,64 21.3,64 21.3,85.3 64,85.3 64,42.7 21.3,42.7 	"/>
</g>
</svg>
