<?xml version="1.0" encoding="utf-8"?>
<!-- Generator: Adobe Illustrator 25.4.1, SVG Export Plug-In . SVG Version: 6.00 Build 0)  -->
<svg version="1.1" id="Layer_1" xmlns="http://www.w3.org/2000/svg" xmlns:xlink="http://www.w3.org/1999/xlink" x="0px" y="0px"
	 viewBox="0 0 512 512" enable-background="new 0 0 512 512" xml:space="preserve">
<g>
	<path d="M463.1,70.2c-4-4-9.4-6.2-15.1-6.2H106.7v42.7h320v256H122.9l-37.6,29.5V128H42.7v352l95-74.7H448c5.7,0,11.1-2.2,15.1-6.2
		s6.2-9.4,6.2-15.1V85.3C469.3,79.7,467.1,74.2,463.1,70.2z"/>
	<path d="M338.4,226.3c2.4-5.8,3.7-12.1,3.7-18.4c0-6.3-1.2-12.5-3.7-18.4c-2.4-5.8-5.9-11.1-10.4-15.6c-4.5-4.5-9.7-8-15.6-10.4
		c-5.8-2.4-12.1-3.7-18.4-3.7s-12.5,1.2-18.4,3.7c-5.8,2.4-11.1,5.9-15.6,10.4l-3.8,3.8l-3.8-3.8c-9-9-21.2-14.1-33.9-14.1
		c-6.3,0-12.5,1.2-18.4,3.7c-5.8,2.4-11.1,5.9-15.6,10.4c-4.5,4.5-8,9.7-10.4,15.6c-2.4,5.8-3.7,12.1-3.7,18.4
		c0,12.7,5.1,24.9,14.1,33.9l71.6,71.7l71.7-71.7C332.5,237.5,336,232.2,338.4,226.3z"/>
	<polygon points="85.3,64 64,64 64,64 42.7,64 42.7,85.3 42.7,85.3 42.7,106.7 85.3,106.7 	"/>
</g>
</svg>
