<?xml version="1.0" encoding="utf-8"?>
<!-- Generator: Adobe Illustrator 25.4.1, SVG Export Plug-In . SVG Version: 6.00 Build 0)  -->
<svg version="1.1" id="Layer_1" xmlns="http://www.w3.org/2000/svg" xmlns:xlink="http://www.w3.org/1999/xlink" x="0px" y="0px"
	 viewBox="0 0 512 512" enable-background="new 0 0 512 512" xml:space="preserve">
<g>
	<rect x="320" y="192" width="42.7" height="128"/>
	<path d="M413.7,321.3c-12.9,31.2-34.8,57.8-62.9,76.6c-28.1,18.8-61.1,28.8-94.8,28.8H145.7l19.8-19.8l-30.2-30.2
		c-31.8-31.8-50-74.8-50-120.7c0-33.8,10-66.8,28.8-94.8c18.8-28.1,45.4-49.9,76.6-62.9c25-10.3,161.4-12.5,214.6-12.9V42.7
		c-48.4,0-112.7,0-149.3,0C138.2,42.7,42.7,138.2,42.7,256c0,28,5.5,55.8,16.2,81.7c10.7,25.9,26.5,49.4,46.3,69.2l-62.5,62.5H256
		c117.8,0,213.3-95.5,213.3-213.3c0-31.2,0-98.6,0-149.3h-42.8C426.1,159.9,424,296.3,413.7,321.3z"/>
	<rect x="234.7" y="128" width="42.7" height="256"/>
	<rect x="149.3" y="192" width="42.7" height="128"/>
	<path d="M448,42.7h-21.3v42.7h42.7V64c0-13.2,0-21.3,0-21.3S461.2,42.7,448,42.7z"/>
</g>
</svg>
