<?xml version="1.0" encoding="utf-8"?>
<!-- Generator: Adobe Illustrator 25.4.1, SVG Export Plug-In . SVG Version: 6.00 Build 0)  -->
<svg version="1.1" id="Layer_1" xmlns="http://www.w3.org/2000/svg" xmlns:xlink="http://www.w3.org/1999/xlink" x="0px" y="0px"
	 viewBox="0 0 512 512" enable-background="new 0 0 512 512" xml:space="preserve">
<g>
	<path d="M426.7,362.7H122.9l-37.6,29.5V106.7h320V64H64c-5.7,0-11.1,2.2-15.1,6.2c-4,4-6.2,9.4-6.2,15.1V480l95-74.7H448
		c5.7,0,11.1-2.2,15.1-6.2s6.2-9.4,6.2-15.1V127.6h-42.7V362.7z"/>
	<path d="M256,277.3c-17,0-33.3-6.7-45.3-18.7c-12-12-18.7-28.3-18.7-45.3h-42.7c0,28.3,11.2,55.4,31.2,75.4
		c20,20,47.1,31.2,75.4,31.2s55.4-11.2,75.4-31.2c20-20,31.2-47.1,31.2-75.4H320c0,17-6.7,33.3-18.7,45.3S273,277.3,256,277.3z"/>
	<rect x="426.7" y="63.6" width="42.7" height="42.7"/>
</g>
</svg>
