<?xml version="1.0" encoding="utf-8"?>
<!-- Generator: Adobe Illustrator 25.4.1, SVG Export Plug-In . SVG Version: 6.00 Build 0)  -->
<svg version="1.1" id="Layer_1" xmlns="http://www.w3.org/2000/svg" xmlns:xlink="http://www.w3.org/1999/xlink" x="0px" y="0px"
	 viewBox="0 0 512 512" enable-background="new 0 0 512 512" xml:space="preserve">
<g>
	<path d="M384,106.7h-42.7v170.7H101.6L64,306.9V85.3h256V42.7H42.7c-5.7,0-11.1,2.2-15.1,6.2c-4,4-6.2,9.4-6.2,15.1v330.7l95-74.7
		H384V106.7z"/>
	<path d="M463.1,176.9c-4-4-9.4-6.2-15.1-6.2h-21.3v221.5l-37.6-29.5H170.7V384c0,5.7,2.2,11.1,6.2,15.1c4,4,9.4,6.2,15.1,6.2h182.3
		l95,74.7V192C469.3,186.3,467.1,180.9,463.1,176.9z"/>
	<rect x="341.3" y="42.7" width="42.7" height="42.7"/>
</g>
</svg>
