<?xml version="1.0" encoding="utf-8"?>
<!-- Generator: Adobe Illustrator 25.4.1, SVG Export Plug-In . SVG Version: 6.00 Build 0)  -->
<svg version="1.1" id="Layer_1" xmlns="http://www.w3.org/2000/svg" xmlns:xlink="http://www.w3.org/1999/xlink" x="0px" y="0px"
	 viewBox="0 0 512 512" enable-background="new 0 0 512 512" xml:space="preserve">
<g>
	<path d="M419.3,114c-32-32-75.4-50-120.7-50h-85.3c-23.5,0-68.7,0-106.7,0v42.7c29.8,0,82.9,0,106.7,0h85.3c16.8,0,33.5,3.3,49,9.7
		c15.5,6.4,29.6,15.9,41.5,27.7c11.9,11.9,21.3,26,27.7,41.5c6.4,15.5,9.7,32.2,9.7,49s-3.3,33.5-9.7,49
		c-6.4,15.5-15.9,29.6-27.7,41.5c-11.9,11.9-26,21.3-41.5,27.7c-15.5,6.4-32.2,9.7-49,9.7H256v52.9
		C137.9,361.9,85.3,311.7,85.3,234.7c0-23.7,0-76.9,0-106.7H42.7c0,38,0,83.1,0,106.7c0,138.7,149.3,202.7,256,245.3v-74.7
		c45.3,0,88.7-18,120.7-50c32-32,50-75.4,50-120.7C469.3,189.4,451.4,146,419.3,114z"/>
	<path d="M85.3,64H64c-13.1,0-21.3,0-21.3,0s0,8.3,0,21.3v21.3h42.7V64z"/>
</g>
</svg>
