<?xml version="1.0" encoding="utf-8"?>
<!-- Generator: Adobe Illustrator 25.4.1, SVG Export Plug-In . SVG Version: 6.00 Build 0)  -->
<svg version="1.1" id="Layer_1" xmlns="http://www.w3.org/2000/svg" xmlns:xlink="http://www.w3.org/1999/xlink" x="0px" y="0px"
	 viewBox="0 0 512 512" enable-background="new 0 0 512 512" xml:space="preserve">
<g>
	<path d="M256,42.7c-34.4,0-99.9,0-149.3,0V85c46.9-0.6,156.8-1.5,182.6,3.6c33.1,6.6,63.5,22.8,87.4,46.7
		c23.9,23.9,40.1,54.3,46.7,87.4c6.6,33.1,3.2,67.4-9.7,98.6c-12.9,31.2-34.8,57.8-62.9,76.6c-28.1,18.8-61.1,28.8-94.8,28.8
		c-28,0.1-55.6-6.8-80.3-20l-13.9-7.5l-62.9,14l14-62.9l-7.4-13.9c-13.1-24.5-20.1-51.9-20.1-80.3c0-25.4,0-109.5,0-149.3H42.7
		c0,49.7,0,115.7,0,149.3c-0.1,35,8.6,69.6,25.1,100.5L42.7,469.3l112.9-25.1c30.9,16.5,65.4,25.1,100.5,25.1
		c117.8,0,213.3-95.5,213.3-213.3S373.8,42.7,256,42.7z"/>
	<path d="M85.3,42.7H64c-13.2,0-21.3,0-21.3,0s0,1.6,0,4.4v38.3h42.7V42.7z"/>
</g>
</svg>
