<?xml version="1.0" encoding="utf-8"?>
<!-- Generator: Adobe Illustrator 25.4.1, SVG Export Plug-In . SVG Version: 6.00 Build 0)  -->
<svg version="1.1" id="Layer_1" xmlns="http://www.w3.org/2000/svg" xmlns:xlink="http://www.w3.org/1999/xlink" x="0px" y="0px"
	 viewBox="0 0 512 512" enable-background="new 0 0 512 512" xml:space="preserve">
<g>
	<path d="M441.8,176.9c-4-4-9.4-6.2-15.1-6.2H384v-21.3c0-33.9-13.5-66.5-37.5-90.5c-24-24-56.6-37.5-90.5-37.5
		s-66.5,13.5-90.5,37.5S128,115.4,128,149.3v21.3H85.3c-5.7,0-11.1,2.2-15.1,6.2c-4,4-6.2,9.4-6.2,15.1v256c0,5.7,2.2,11.1,6.2,15.1
		c4,4,9.4,6.2,15.1,6.2H384v-42.7H128V213.3h277.3v192H448V192C448,186.3,445.8,180.9,441.8,176.9z M341.3,170.7H170.7v-21.3
		c0-22.6,9-44.3,25-60.3c16-16,37.7-25,60.3-25s44.3,9,60.3,25c16,16,25,37.7,25,60.3V170.7z"/>
	<rect x="149.3" y="234.7" width="42.7" height="42.7"/>
	<rect x="149.3" y="298.7" width="42.7" height="42.7"/>
	<rect x="149.3" y="362.7" width="42.7" height="42.7"/>
	<rect x="405.3" y="426.7" width="42.7" height="42.7"/>
</g>
</svg>
