<?xml version="1.0" encoding="utf-8"?>
<!-- Generator: Adobe Illustrator 25.4.1, SVG Export Plug-In . SVG Version: 6.00 Build 0)  -->
<svg version="1.1" id="Layer_1" xmlns="http://www.w3.org/2000/svg" xmlns:xlink="http://www.w3.org/1999/xlink" x="0px" y="0px"
	 viewBox="0 0 512 512" enable-background="new 0 0 512 512" xml:space="preserve">
<g>
	<rect x="192" y="298.7" width="64" height="42.7"/>
	<rect x="192" y="213.3" width="128" height="42.7"/>
	<path d="M448,170.7h-57c-13.1-27.5-34.2-50.3-60.6-65.5l22.4-22.4l-30.2-30.2l-35.9,35.9c-20.2-4.2-41.1-4.2-61.4,0l0,0l-35.9-35.9
		l-30.2,30.1l22.4,22.4c-26.4,15.2-47.5,38-60.6,65.5H64v42.7h44.2c-1,7-1.5,14.1-1.5,21.3V256H64v42.7h42.7V320
		c0,7.1,0.5,14.3,1.5,21.3H64V384h57c12.1,25.5,31.2,47.1,55.1,62.3s51.6,23.1,79.9,23.1s56-8,79.9-23.1
		c23.9-15.1,43-36.7,55.1-62.3h57v-42.7h-44.2c1-7,1.5-14.1,1.5-21.3v-21.3H448V256h-42.7v-21.3c0-7.3-0.5-14.4-1.5-21.3H448V170.7z
		 M362.7,320c0,28.3-11.2,55.4-31.2,75.4c-20,20-47.1,31.2-75.4,31.2s-55.4-11.2-75.4-31.2c-20-20-31.2-47.1-31.2-75.4v-85.3
		c0-28.3,11.2-55.4,31.2-75.4c20-20,47.1-31.2,75.4-31.2c28.3,0,55.4,11.2,75.4,31.2c20,20,31.2,47.1,31.2,75.4V320z"/>
	<rect x="277.3" y="298.7" width="42.7" height="42.7"/>
</g>
</svg>
