<?xml version="1.0" encoding="utf-8"?>
<!-- Generator: Adobe Illustrator 25.4.1, SVG Export Plug-In . SVG Version: 6.00 Build 0)  -->
<svg version="1.1" id="Layer_1" xmlns="http://www.w3.org/2000/svg" xmlns:xlink="http://www.w3.org/1999/xlink" x="0px" y="0px"
	 viewBox="0 0 512 512" enable-background="new 0 0 512 512" xml:space="preserve">
<g>
	<path d="M308.3,188.6c-15-11.6-33.3-17.9-52.3-17.9s-37.3,6.3-52.3,17.9c-15,11.6-25.6,27.8-30.4,46.1H64v42.7h109.4
		c4.7,18.3,15.4,34.5,30.4,46.1c15,11.6,33.3,17.9,52.3,17.9s37.3-6.3,52.3-17.9c15-11.6,25.6-27.8,30.4-46.1H384v-42.7h-45.3
		C333.9,216.4,323.2,200.1,308.3,188.6z M286.2,286.2c-8,8-18.9,12.5-30.2,12.5s-22.2-4.5-30.2-12.5c-8-8-12.5-18.9-12.5-30.2
		c0-11.3,4.5-22.2,12.5-30.2s18.9-12.5,30.2-12.5s22.2,4.5,30.2,12.5s12.5,18.9,12.5,30.2C298.7,267.3,294.2,278.2,286.2,286.2z"/>
	<polygon points="448,234.7 448,234.7 405.3,234.7 405.3,277.3 448,277.3 448,277.3 448,277.3 448,234.7 	"/>
</g>
</svg>
