<?xml version="1.0" encoding="utf-8"?>
<!-- Generator: Adobe Illustrator 25.4.1, SVG Export Plug-In . SVG Version: 6.00 Build 0)  -->
<svg version="1.1" id="Layer_1" xmlns="http://www.w3.org/2000/svg" xmlns:xlink="http://www.w3.org/1999/xlink" x="0px" y="0px"
	 viewBox="0 0 512 512" enable-background="new 0 0 512 512" xml:space="preserve">
<g>
	<path d="M341.3,42.7c0,0-62.7,0-85.3,0s-85.3,0-85.3,0s0,62.7,0,85.3h170.7C341.3,105.4,341.3,42.7,341.3,42.7z"/>
	<path d="M469.3,320v-42.7h-64V256c0-13.7-1.9-27-5.3-39.6l47.2-27.3l-21.3-36.9l-43.1,24.9c-1.4-2.2-2.8-4.3-4.2-6.4H133.4
		c-1.5,2.1-2.9,4.2-4.2,6.4l-43.1-24.9l-21.3,36.9l47.2,27.3c-3.5,12.6-5.3,25.9-5.3,39.6v21.3h-64V320h64
		c0,19.7,3.9,39.2,11.4,57.4v0l-53.3,30.8l21.3,36.9L140,414c14,17.3,31.7,31.2,51.7,40.8s42,14.5,64.3,14.5
		c22.2,0,44.2-4.9,64.3-14.5c20.1-9.6,37.8-23.5,51.7-40.8l53.9,31.1l21.3-36.9l-53.3-30.8c7.4-17.7,11.4-37.1,11.4-57.4H469.3z
		 M362.7,320c0,24.6-8.5,48.4-24,67.5c-15.5,19-37.2,32.1-61.3,37.1v-62.4h-42.7v62.4c-24.1-4.9-45.7-18-61.3-37.1
		c-15.5-19-24-42.9-24-67.5v-64c0-14.7,3-29.2,8.9-42.7h195.6c5.9,13.5,8.9,28,8.9,42.7V320z"/>
	<rect x="235.2" y="298.1" width="42.7" height="42.7"/>
</g>
</svg>
