<?xml version="1.0" encoding="utf-8"?>
<!-- Generator: Adobe Illustrator 25.4.1, SVG Export Plug-In . SVG Version: 6.00 Build 0)  -->
<svg version="1.1" id="Layer_1" xmlns="http://www.w3.org/2000/svg" xmlns:xlink="http://www.w3.org/1999/xlink" x="0px" y="0px"
	 viewBox="0 0 512 512" enable-background="new 0 0 512 512" xml:space="preserve">
<g>
	<path d="M85.3,106.7h341.3V384h42.7V85.3c0-5.7-2.2-11.1-6.2-15.1c-4-4-9.4-6.2-15.1-6.2H64c-5.7,0-11.1,2.2-15.1,6.2
		c-4,4-6.2,9.4-6.2,15.1v341.3c0,5.7,2.2,11.1,6.2,15.1c4,4,9.4,6.2,15.1,6.2h341.3v-42.7h-320V106.7z"/>
	<rect x="256" y="320" width="128" height="42.7"/>
	<polygon points="154.7,346.5 245.2,256 154.7,165.5 124.5,195.7 184.9,256 124.5,316.3 	"/>
	<rect x="426.7" y="405.3" width="42.7" height="42.7"/>
</g>
</svg>
