<?xml version="1.0" encoding="utf-8"?>
<!-- Generator: Adobe Illustrator 25.4.1, SVG Export Plug-In . SVG Version: 6.00 Build 0)  -->
<svg version="1.1" id="Layer_1" xmlns="http://www.w3.org/2000/svg" xmlns:xlink="http://www.w3.org/1999/xlink" x="0px" y="0px"
	 viewBox="0 0 512 512" enable-background="new 0 0 512 512" xml:space="preserve">
<g>
	<rect x="149.3" y="106.7" width="42.7" height="42.7"/>
	<path d="M116,396c-6-6-9.4-14.1-9.4-22.6c0-8.5,3.4-16.6,9.4-22.6c6-6,14.1-9.4,22.6-9.4h32v-42.7h-32c-3.6,0-7.1,0.2-10.7,0.7
		V85.3h256V42.7H128c-17,0-33.3,6.7-45.3,18.7c-12,12-18.7,28.3-18.7,45.3v266.7c0,19.8,7.9,38.8,21.9,52.8c14,14,33,21.9,52.8,21.9
		h74.7v-42.7h-74.7C130.2,405.3,122,402,116,396z"/>
	<path d="M405.3,298.7H384v42.7h21.3v64h-64V448h85.3c5.7,0,11.1-2.2,15.1-6.2s6.2-9.4,6.2-15.1v-320h-42.7V298.7z"/>
	<rect x="149.3" y="170.7" width="42.7" height="42.7"/>
	<polygon points="277.3,256 192,362.7 256,362.7 256,490.7 298.7,490.7 298.7,362.7 362.7,362.7 	"/>
	<rect x="405.3" y="42.7" width="42.7" height="42.7"/>
</g>
</svg>
