<?xml version="1.0" encoding="utf-8"?>
<!-- Generator: Adobe Illustrator 25.4.1, SVG Export Plug-In . SVG Version: 6.00 Build 0)  -->
<svg version="1.1" id="Layer_1" xmlns="http://www.w3.org/2000/svg" xmlns:xlink="http://www.w3.org/1999/xlink" x="0px" y="0px"
	 viewBox="0 0 512 512" enable-background="new 0 0 512 512" xml:space="preserve">
<g>
	<polygon points="321.1,210.8 366.3,256 321.1,301.2 351.2,331.4 426.7,256 351.2,180.6 	"/>
	<polygon points="239.9,362.7 317.5,149.3 272.1,149.3 194.5,362.7 	"/>
	<polygon points="190.9,301.2 145.7,256 190.9,210.8 160.8,180.6 85.3,256 160.8,331.4 	"/>
	<path d="M463.1,70.2c-4-4-9.4-6.2-15.1-6.2H64c-5.7,0-11.1,2.2-15.1,6.2c-4,4-6.2,9.4-6.2,15.1v341.3c0,5.7,2.2,11.1,6.2,15.1
		c4,4,9.4,6.2,15.1,6.2h341.3v-42.7h-320V256V106.7h341.3V256v128h42.7V85.3C469.3,79.7,467.1,74.2,463.1,70.2z"/>
	<polygon points="426.7,448 448,448 448,448 469.3,448 469.3,426.7 469.3,426.7 469.3,405.3 426.7,405.3 	"/>
</g>
</svg>
