<?xml version="1.0" encoding="utf-8"?>
<!-- Generator: Adobe Illustrator 25.4.1, SVG Export Plug-In . SVG Version: 6.00 Build 0)  -->
<svg version="1.1" id="Layer_1" xmlns="http://www.w3.org/2000/svg" xmlns:xlink="http://www.w3.org/1999/xlink" x="0px" y="0px"
	 viewBox="0 0 512 512" enable-background="new 0 0 512 512" xml:space="preserve">
<g>
	<polygon points="234.7,128 234.7,234.7 277.3,234.7 277.3,128 341.3,128 256,42.7 170.7,128 	"/>
	<path d="M441.8,48.9c-4-4-9.4-6.2-15.1-6.2h-85.3v42.7h64l0,213.3H106.6l0-213.3h64V42.7H85.3c-5.7,0-11.1,2.2-15.1,6.2
		c-4,4-6.2,9.4-6.2,15.1v341.3h42.7l0-64h298.7l0,85.3H128v42.7h298.7c5.7,0,11.1-2.2,15.1-6.2s6.2-9.4,6.2-15.1V64
		C448,58.3,445.8,52.9,441.8,48.9z"/>
	<rect x="320" y="362.7" width="42.7" height="42.7"/>
	<rect x="64" y="426.7" width="42.7" height="42.7"/>
</g>
</svg>
