<?xml version="1.0" encoding="utf-8"?>
<!-- Generator: Adobe Illustrator 25.4.1, SVG Export Plug-In . SVG Version: 6.00 Build 0)  -->
<svg version="1.1" id="Layer_1" xmlns="http://www.w3.org/2000/svg" xmlns:xlink="http://www.w3.org/1999/xlink" x="0px" y="0px"
	 viewBox="0 0 512 512" enable-background="new 0 0 512 512" xml:space="preserve">
<g>
	<path d="M426.7,256L320,170.7v64h-21.3c-22.6,0-44.3,9-60.3,25c-16,16-25,37.7-25,60.3v64H256v-64c0-22.4,20.2-42.7,42.7-42.7H320
		v64L426.7,256z"/>
	<rect x="362.7" y="362.7" width="42.7" height="42.7"/>
	<path d="M149.3,128h85.3V85.3h42.7V128h85.3v21.3h42.7v-42.7c0-5.7-2.2-11.1-6.2-15.1c-4-4-9.4-6.2-15.1-6.2h-64V64
		c0-5.7-2.2-11.1-6.2-15.1c-4-4-9.4-6.2-15.1-6.2h-85.3c-5.7,0-11.1,2.2-15.1,6.2c-4,4-6.2,9.4-6.2,15.1v21.3h-64
		c-5.7,0-11.1,2.2-15.1,6.2c-4,4-6.2,9.4-6.2,15.1V448c0,5.7,2.2,11.1,6.2,15.1c4,4,9.4,6.2,15.1,6.2h213.3v-42.7h-192V128z"/>
	<rect x="362.7" y="426.7" width="42.7" height="42.7"/>
</g>
</svg>
