<svg fill="none" height="512" viewBox="0 0 24 24" width="512" xmlns="http://www.w3.org/2000/svg"><path d="m.689941 6.99702c3.199089-2.59168 7.192849-4.00309 11.309959-3.997 4.285 0 8.22 1.497 11.31 3.997l-1.256 1.556c-2.8437-2.30393-6.394-3.55856-10.054-3.553-3.80896 0-7.30596 1.33-10.05396 3.553zm3.140999 3.88998c2.3106-1.87198 5.19524-2.89144 8.16896-2.88698 3.094 0 5.936 1.081 8.169 2.88598l-1.257 1.556c-1.9551-1.5836-4.3959-2.44597-6.912-2.442-2.61796 0-5.02296.915-6.91196 2.442l-1.257-1.556zm3.142 3.89c1.42185-1.1521 3.19696-1.7796 5.02696-1.777 1.904 0 3.653.665 5.027 1.776l-1.257 1.556c-1.0664-.8638-2.3976-1.3341-3.77-1.332-1.428 0-2.73996.499-3.76996 1.332l-1.257-1.556zm3.14196 3.89c.5331-.4323 1.1987-.6678 1.885-.667.714 0 1.37.25 1.885.666l-1.885 2.334-1.885-2.334z" fill="rgb(0,0,0)"/></svg>