<?xml version="1.0" encoding="utf-8"?>
<!-- Generator: Adobe Illustrator 25.4.1, SVG Export Plug-In . SVG Version: 6.00 Build 0)  -->
<svg version="1.1" id="Layer_1" xmlns="http://www.w3.org/2000/svg" xmlns:xlink="http://www.w3.org/1999/xlink" x="0px" y="0px"
	 viewBox="0 0 512 512" enable-background="new 0 0 512 512" xml:space="preserve">
<path d="M133.7,81.2l24.5,35c-29.7,20.8-52.1,50.6-63.7,84.9s-12.1,71.6-1.2,106.2c10.9,34.6,32.6,64.9,61.9,86.3
	c29.3,21.5,64.6,33,100.9,33s71.6-11.6,100.9-33c29.3-21.5,50.9-51.7,61.9-86.3c10.9-34.6,10.5-71.8-1.2-106.2
	c-11.7-34.4-34-64.1-63.7-84.9l24.5-35c28.1,19.7,51.1,45.8,66.9,76.2c15.8,30.4,24.1,64.2,24.1,98.5
	c0,117.8-95.5,213.3-213.3,213.3S42.7,373.8,42.7,256c0-34.3,8.2-68.1,24.1-98.5S105.5,100.9,133.7,81.2L133.7,81.2z M234.7,256
	V42.7h42.7V256H234.7z"/>
</svg>
