<svg fill="none" height="512" viewBox="0 0 24 24" width="512" xmlns="http://www.w3.org/2000/svg"><path d="m17 12c.2652 0 .5196.1054.7071.2929s.2929.4419.2929.7071v9h-2v-8h-8.00002v8h-2v-9c0-.2652.10536-.5196.29289-.7071.18754-.1875.44189-.2929.70711-.2929zm-5 4v2h-2.00002v-2zm0-10c1.1144-.00033 2.2069.30972 3.1551.89541.9481.58569 1.7144 1.42387 2.2129 2.42059l-1.79.895c-.3321-.66484-.8428-1.22403-1.4748-1.61487-.6321-.39083-1.3606-.59786-2.1037-.59786-.7432 0-1.4716.20703-2.1037.59786-.63207.39084-1.14277.95003-1.47482 1.61487l-1.789-.895c.49852-.99672 1.2648-1.8349 2.21292-2.42059.94813-.58569 2.0406-.89574 3.1551-.89541zm0-4c1.8573-.0004 3.678.51647 5.2581 1.49267 1.5801.97621 2.8571 2.37317 3.6879 4.03433l-1.789.895c-.6646-1.32903-1.6862-2.44671-2.9503-3.22775s-2.7208-1.19457-4.2067-1.19425c-1.486-.00032-2.94261.41321-4.20673 1.19425-1.26411.78104-2.28571 1.89872-2.95029 3.22775l-1.79-.895c.83085-1.66131 2.108-3.05838 3.68828-4.03459 1.58028-.97622 3.40124-1.493 5.25874-1.49241z" fill="rgb(0,0,0)"/></svg>