<?xml version="1.0" encoding="utf-8"?>
<!-- Generator: Adobe Illustrator 25.4.1, SVG Export Plug-In . SVG Version: 6.00 Build 0)  -->
<svg version="1.1" id="Layer_1" xmlns="http://www.w3.org/2000/svg" xmlns:xlink="http://www.w3.org/1999/xlink" x="0px" y="0px"
	 viewBox="0 0 512 512" enable-background="new 0 0 512 512" xml:space="preserve">
<g>
	<path d="M242.7,64.6c20.7-1.8,102.1-1.2,141.3-0.8V21.3c-44.2,0-99.9,0-128,0v0c-43.6-0.1-85.8,14.7-119.8,42l30.4,30.4
		C188.8,77.1,215.1,67,242.7,64.6z"/>
	<path d="M405.3,213.3v85.3l-0.1,5.1c-0.7,20-5.3,39.6-13.7,57.7c-8.4,18.1-20.4,34.4-35.2,47.8c4.2-22,6.4-44.7,6.4-67.9v-64H320
		v64l-0.1,6.7c-0.7,32-6,62.9-15.4,91.9c-15.6,5.3-32,8.1-48.4,8.1c14.1-33.8,21.3-70.1,21.3-106.7V192h-42.7v149.3l-0.1,6.1
		c-1,40.2-12.4,79.5-33.1,114l-3.6,6c-2.5,3.9-5.1,7.8-7.9,11.6c29,10.6,60.2,14.1,90.8,10.1c30.6-4,59.9-15.3,85.2-33
		c25.3-17.7,46-41.3,60.3-68.7c14.3-27.4,21.7-57.8,21.7-88.7v-85.3c0-28.1,0-83.8,0-128h-42.7C405.3,121.5,405.3,192.9,405.3,213.3
		z"/>
	<path d="M192,213.3l0.1-3.8c1-16.6,8.4-32.2,20.7-43.5c12.3-11.3,28.5-17.3,45.1-16.8c16.7,0.5,32.5,7.5,44.1,19.4
		c11.6,12,18.1,28,18.1,44.6v21.3h42.7v-21.3c0-28.3-11.2-55.4-31.2-75.4c-20-20-47.1-31.2-75.4-31.2s-55.4,11.2-75.4,31.2
		c-20,20-31.2,47.1-31.2,75.4v128l-0.1,5.1c-0.5,15.9-3.6,31.5-9.1,46.4c-20.9-25.7-33.5-58.5-33.5-94.2v-85.3l0.1-5.1
		c1-30.5,11.4-59.9,29.7-84.3L106,93.5C79.7,126.3,64,168,64,213.3v85.3c-0.1,50,19.4,98,54.3,133.8l6.6,6.4
		c8.2,7.7,17,14.6,26.4,20.7c6.2-7.9,11.8-16.3,16.7-25.2l0.5-0.9c15-27.4,23.6-58.8,23.6-92.2V213.3z"/>
	<path d="M442.3,21.3h-36.9V64H448V21.4c0-0.1,0-0.1,0-0.1S446,21.3,442.3,21.3z"/>
</g>
</svg>
