<?xml version="1.0" encoding="utf-8"?>
<!-- Generator: Adobe Illustrator 25.4.1, SVG Export Plug-In . SVG Version: 6.00 Build 0)  -->
<svg version="1.1" id="Layer_1" xmlns="http://www.w3.org/2000/svg" xmlns:xlink="http://www.w3.org/1999/xlink" x="0px" y="0px"
	 viewBox="0 0 512 512" enable-background="new 0 0 512 512" xml:space="preserve">
<g>
	<path d="M270.3,239.9L192,310.3v31h128v-42.7h-51.3l30.1-27.1l-0.1-0.2l0.2,0.2c9.6-8.7,16.4-20,19.4-32.6
		c3-12.6,2.1-25.8-2.5-37.9c-4.6-12.1-12.8-22.5-23.5-29.8c-10.7-7.3-23.3-11.2-36.2-11.2c-17,0-33.3,6.7-45.3,18.7
		c-12,12-18.7,28.3-18.7,45.3h42.7c0-3.6,0.9-7.1,2.6-10.2c1.7-3.1,4.1-5.8,7.1-7.7c3-1.9,6.4-3.1,9.9-3.4c3.5-0.3,7.1,0.3,10.3,1.8
		c3.2,1.4,6.1,3.7,8.2,6.5c2.2,2.8,3.6,6.1,4.1,9.6c0.6,3.5,0.2,7.1-1,10.5C274.9,234.5,272.9,237.5,270.3,239.9z"/>
	<path d="M426.7,405.3V158.2c0-5.7-2.2-11.1-6.3-15.1L320,42.7H106.7c-5.7,0-11.1,2.2-15.1,6.2c-4,4-6.2,9.4-6.2,15.1v384
		c0,5.7,2.2,11.1,6.2,15.1c4,4,9.4,6.2,15.1,6.2h256v-42.7H128V85.3h174.3L384,167v238.3H426.7z"/>
	<rect x="384" y="426.7" width="42.7" height="42.7"/>
</g>
</svg>
