<?xml version="1.0" encoding="utf-8"?>
<!-- Generator: Adobe Illustrator 25.4.1, SVG Export Plug-In . SVG Version: 6.00 Build 0)  -->
<svg version="1.1" id="Layer_1" xmlns="http://www.w3.org/2000/svg" xmlns:xlink="http://www.w3.org/1999/xlink" x="0px" y="0px"
	 viewBox="0 0 512 512" enable-background="new 0 0 512 512" xml:space="preserve">
<g>
	<path d="M469.3,384.4V85.3c0-5.7-2.2-11.1-6.2-15.1c-4-4-9.4-6.2-15.1-6.2H256c-5.7,0-11.1,2.2-15.1,6.2c-4,4-6.2,9.4-6.2,15.1v64
		H64c-5.7,0-11.1,2.2-15.1,6.2c-4,4-6.2,9.4-6.2,15.1v256c0,5.7,2.2,11.1,6.2,15.1c4,4,9.4,6.2,15.1,6.2h341.3v-42.7h-128V106.7
		h149.3v277.7H469.3z M234.7,405.3H85.3V192h149.3V405.3z"/>
	<rect x="106.7" y="341.3" width="106.7" height="42.7"/>
	<rect x="106.7" y="277.3" width="106.7" height="42.7"/>
	<rect x="298.7" y="213.3" width="106.7" height="42.7"/>
	<rect x="298.7" y="277.3" width="106.7" height="42.7"/>
	<rect x="298.7" y="341.3" width="106.7" height="42.7"/>
	<rect x="426.7" y="405.7" width="42.7" height="42.7"/>
</g>
</svg>
