<?xml version="1.0" encoding="utf-8"?>
<!-- Generator: Adobe Illustrator 25.4.1, SVG Export Plug-In . SVG Version: 6.00 Build 0)  -->
<svg version="1.1" id="Layer_1" xmlns="http://www.w3.org/2000/svg" xmlns:xlink="http://www.w3.org/1999/xlink" x="0px" y="0px"
	 viewBox="0 0 512 512" enable-background="new 0 0 512 512" xml:space="preserve">
<g>
	<path d="M206.1,186.8c14.5-10.5,32-16.1,49.9-16.1c17.9,0,35.4,5.6,49.9,16.1c14.5,10.5,25.4,25.2,31.1,42.2l40.5-13.5
		c-8.5-25.5-24.8-47.6-46.6-63.4S282.9,128,256,128s-53.1,8.5-74.9,24.2c-21.8,15.7-38.1,37.9-46.6,63.4L175,229
		C180.7,212,191.6,197.2,206.1,186.8z"/>
	<path d="M384,298.7H277.3v-64h-42.7v64H128c-5.7,0-11.1,2.2-15.1,6.2c-4,4-6.2,9.4-6.2,15.1v128c0,5.7,2.2,11.1,6.2,15.1
		c4,4,9.4,6.2,15.1,6.2h213.3v-42.7h-192v-85.3h213.3v64h42.7v21.3h-42.7v42.7H384h0h21.3V448c0,0,0,0,0,0V320
		c0-5.7-2.2-11.1-6.2-15.1C395.1,300.9,389.7,298.7,384,298.7z"/>
	<path d="M256,42.7c-94.2,0-174.2,61.1-202.5,145.9h0L94,202c11.3-34,33.1-63.6,62.1-84.5c29.1-20.9,64-32.2,99.8-32.2
		c35.8,0,70.8,11.3,99.8,32.2c29.1,20.9,50.8,50.5,62.1,84.5l40.5-13.5C430.2,103.8,350.2,42.7,256,42.7z"/>
</g>
</svg>
