<?xml version="1.0" encoding="utf-8"?>
<!-- Generator: Adobe Illustrator 25.4.1, SVG Export Plug-In . SVG Version: 6.00 Build 0)  -->
<svg version="1.1" id="Layer_1" xmlns="http://www.w3.org/2000/svg" xmlns:xlink="http://www.w3.org/1999/xlink" x="0px" y="0px"
	 viewBox="0 0 512 512" enable-background="new 0 0 512 512" xml:space="preserve">
<g>
	<rect x="320" y="341.3" width="42.7" height="42.7"/>
	<path d="M448,85.3V42.7h-21.3c0,0,0,0,0,0H85.3c-5.7,0-11.1,2.2-15.1,6.2c-4,4-6.2,9.4-6.2,15.1v384c0,5.7,2.2,11.1,6.2,15.1
		c4,4,9.4,6.2,15.1,6.2h341.3c5.7,0,11.1-2.2,15.1-6.2s6.2-9.4,6.2-15.1V106.7h-42.7v320H106.7V276.3v0c49-4.9,94.7-26.6,129.5-61.4
		c34.8-34.8,56.5-80.5,61.4-129.5H384V42.7h21.3v42.7H448z M206,184.7c-26.8,26.8-61.7,43.9-99.3,48.7v-148h148
		C249.9,122.9,232.8,157.9,206,184.7z"/>
</g>
</svg>
