<?xml version="1.0" encoding="utf-8"?>
<!-- Generator: Adobe Illustrator 25.4.1, SVG Export Plug-In . SVG Version: 6.00 Build 0)  -->
<svg version="1.1" id="Layer_1" xmlns="http://www.w3.org/2000/svg" xmlns:xlink="http://www.w3.org/1999/xlink" x="0px" y="0px"
	 viewBox="0 0 512 512" enable-background="new 0 0 512 512" xml:space="preserve">
<g>
	<polygon points="346.5,135.3 346.5,135.3 346.5,135.3 	"/>
	<path d="M256,149.3c9.6,0,18.8,1.3,27.6,3.6l33.3-33.3c-18.6-8.3-39.3-13-61-13c-82.5,0-149.3,66.9-149.3,149.3
		c0,39.5,15.4,75.5,40.4,102.2l3.3,3.4l30.2-30.2c-19.3-19.3-31.2-46-31.2-75.4C149.3,197.1,197.1,149.3,256,149.3z"/>
	<path d="M376.7,165.5l-30.2-30.2L267,214.8c-3.5-0.9-7.2-1.4-11-1.4c-23.6,0-42.7,19.1-42.7,42.7s19.1,42.7,42.7,42.7
		c23.6,0,42.7-19.1,42.7-42.7c0-3.8-0.5-7.5-1.4-11L376.7,165.5z"/>
	<path d="M361.6,361.6c27-27,43.7-64.4,43.7-105.6c0-21.7-4.7-42.3-13-60.9L359,228.4c2.4,8.8,3.6,18.1,3.6,27.6
		c0,29.4-11.9,56.1-31.2,75.4L361.6,361.6z"/>
	<path d="M256,42.7C138.2,42.7,42.7,138.2,42.7,256c0,103.2,73.3,189.3,170.7,209.1v-43.8c-73.6-18.9-128-85.8-128-165.3
		c0-94.3,76.4-170.7,170.7-170.7S426.7,161.7,426.7,256c0,79.5-54.4,146.3-128,165.3v43.8C396,445.3,469.3,359.2,469.3,256
		C469.3,138.2,373.8,42.7,256,42.7z"/>
	<rect x="234.7" y="426.7" width="42.7" height="42.7"/>
</g>
</svg>
