<?xml version="1.0" encoding="utf-8"?>
<!-- Generator: Adobe Illustrator 25.4.1, SVG Export Plug-In . SVG Version: 6.00 Build 0)  -->
<svg version="1.1" id="Layer_1" xmlns="http://www.w3.org/2000/svg" xmlns:xlink="http://www.w3.org/1999/xlink" x="0px" y="0px"
	 viewBox="0 0 512 512" enable-background="new 0 0 512 512" xml:space="preserve">
<g>
	<path d="M384,426.7H128V273.8l27.1-27.2c10-10,15.6-23.5,15.6-37.7V85.3h192V42.7H149.3c-5.7,0-11.1,2.2-15.1,6.2
		c-4,4-6.2,9.4-6.2,15.1v144.9c0,2.8-1.1,5.5-3.1,7.5l-33.3,33.5c-4,4-6.2,9.4-6.2,15.1v183c0,5.7,2.2,11.1,6.2,15.1
		c4,4,9.4,6.2,15.1,6.2h298.7c5.7,0,11.1-2.2,15.1-6.2s6.2-9.4,6.2-15.1V106.7H384V426.7z"/>
	<rect x="320" y="106.7" width="42.7" height="85.3"/>
	<rect x="192" y="106.7" width="42.7" height="85.3"/>
	<rect x="256" y="106.7" width="42.7" height="85.3"/>
	<polygon points="405.3,42.7 405.3,42.7 384,42.7 384,85.3 426.7,85.3 426.7,64 426.7,64 426.7,42.7 	"/>
</g>
</svg>
