<?xml version="1.0" encoding="utf-8"?>
<!-- Generator: Adobe Illustrator 25.4.1, SVG Export Plug-In . SVG Version: 6.00 Build 0)  -->
<svg version="1.1" id="Layer_1" xmlns="http://www.w3.org/2000/svg" xmlns:xlink="http://www.w3.org/1999/xlink" x="0px" y="0px"
	 viewBox="0 0 512 512" enable-background="new 0 0 512 512" xml:space="preserve">
<g>
	<rect x="277.3" y="128" width="42.7" height="42.7"/>
	<rect x="192" y="128" width="42.7" height="42.7"/>
	<path d="M441.8,219.6c-4-4-9.4-6.2-15.1-6.2h-21.3V42.7H106.7v170.7H85.3c-5.7,0-11.1,2.2-15.1,6.2c-4,4-6.2,9.4-6.2,15.1v170.7
		h42.7V256h298.7v170.7H128v42.7h298.7c5.7,0,11.1-2.2,15.1-6.2s6.2-9.4,6.2-15.1V234.7C448,229,445.8,223.6,441.8,219.6z
		 M362.7,213.3H149.3v-128h213.3V213.3z"/>
	<polygon points="64,448 64,448 64,469.3 85.3,469.3 85.3,469.3 106.7,469.3 106.7,426.7 64,426.7 	"/>
</g>
</svg>
