<?xml version="1.0" encoding="utf-8"?>
<!-- Generator: Adobe Illustrator 25.4.1, SVG Export Plug-In . SVG Version: 6.00 Build 0)  -->
<svg version="1.1" id="Layer_1" xmlns="http://www.w3.org/2000/svg" xmlns:xlink="http://www.w3.org/1999/xlink" x="0px" y="0px"
	 viewBox="0 0 512 512" enable-background="new 0 0 512 512" xml:space="preserve">
<g>
	<path d="M405.3,64V42.7H384h0h-21.3v42.7h42.7v21.3h-42.7v320H149.3V85.3h192V42.7H128c-5.7,0-11.1,2.2-15.1,6.2
		c-4,4-6.2,9.4-6.2,15.1v384c0,5.7,2.2,11.1,6.2,15.1c4,4,9.4,6.2,15.1,6.2h256c5.7,0,11.1-2.2,15.1-6.2s6.2-9.4,6.2-15.1L405.3,64
		C405.3,64,405.3,64,405.3,64z"/>
	<polygon points="320,170.7 277.3,170.7 277.3,128 234.7,128 234.7,170.7 192,170.7 192,213.3 234.6,213.3 234.7,256 277.3,256 
		277.3,213.3 320,213.3 	"/>
	<rect x="277.3" y="320" width="42.7" height="42.7"/>
	<rect x="192" y="320" width="42.7" height="42.7"/>
</g>
</svg>
