<svg fill="none" height="512" viewBox="0 0 24 24" width="512" xmlns="http://www.w3.org/2000/svg"><path d="m11.9999 3c4.284 0 8.22 1.497 11.31 3.996l-11.31 14.004-11.309959-14.003c3.089999-2.5 7.023999-3.997 11.309959-3.997zm0 7c-1.898 0-3.68296.48-5.24096 1.327l5.23996 6.49 5.242-6.49c-1.558-.847-3.343-1.327-5.241-1.327zm0-5c-3.02796 0-5.92296.842-8.41996 2.392l1.904 2.357c1.916-1.112 4.141-1.749 6.51596-1.749 2.375 0 4.6.637 6.516 1.749l1.904-2.359c-2.498-1.549-5.393-2.39-8.42-2.39z" fill="rgb(0,0,0)"/></svg>