<?xml version="1.0" encoding="utf-8"?>
<!-- Generator: Adobe Illustrator 25.4.1, SVG Export Plug-In . SVG Version: 6.00 Build 0)  -->
<svg version="1.1" id="Layer_1" xmlns="http://www.w3.org/2000/svg" xmlns:xlink="http://www.w3.org/1999/xlink" x="0px" y="0px"
	 viewBox="0 0 512 512" enable-background="new 0 0 512 512" xml:space="preserve">
<g>
	<path d="M173,285.6l30.2-30.2c-6.9-6.9-12.4-15.2-16.2-24.2c-3.8-9.1-5.7-18.8-5.7-28.6s1.9-19.5,5.7-28.6
		c3.8-9.1,9.3-17.3,16.2-24.2L173,119.7c-22,22-34.4,51.8-34.4,83C138.6,233.8,151,263.6,173,285.6z"/>
	<path d="M308.8,255.5l30.2,30.2c22-22,34.4-51.8,34.4-83c0-31.1-12.4-61-34.4-83l-30.2,30.2c6.9,6.9,12.4,15.2,16.2,24.2
		c3.8,9.1,5.7,18.8,5.7,28.6s-1.9,19.5-5.7,28.6S315.7,248.5,308.8,255.5z"/>
	<path d="M96,202.7c0-42.4,16.9-83.1,46.9-113.1l-30.2-30.2l0,0c-18.8,18.8-33.8,41.2-43.9,65.8c-10.2,24.6-15.4,50.9-15.4,77.6
		c0,26.6,5.2,53,15.4,77.6c10.2,24.6,25.1,46.9,43.9,65.8l30.2-30.2C112.8,285.8,96,245.1,96,202.7z"/>
	<path d="M443.2,125.1c-10.2-24.6-25.1-46.9-43.9-65.8l-30.2,30.2c30,30,46.9,70.7,46.9,113.1s-16.9,83.1-46.9,113.1l30.2,30.2
		c18.8-18.8,33.8-41.2,43.9-65.8s15.4-50.9,15.4-77.6C458.7,176.1,453.4,149.7,443.2,125.1z"/>
	<path d="M128,469.3h256l-128-192L128,469.3z M207.8,426.7l48.2-72.5l48.2,72.5H207.8z"/>
	<rect x="234.7" y="181.3" width="42.7" height="42.7"/>
</g>
</svg>
