<?xml version="1.0" encoding="utf-8"?>
<!-- Generator: Adobe Illustrator 25.4.1, SVG Export Plug-In . SVG Version: 6.00 Build 0)  -->
<svg version="1.1" id="Layer_1" xmlns="http://www.w3.org/2000/svg" xmlns:xlink="http://www.w3.org/1999/xlink" x="0px" y="0px"
	 viewBox="0 0 512 512" enable-background="new 0 0 512 512" xml:space="preserve">
<g>
	<path d="M42.7,298.7v42.7c14,0,27.9,2.8,40.8,8.1c12.9,5.4,24.7,13.2,34.6,23.1c9.9,9.9,17.8,21.7,23.1,34.6
		c5.4,12.9,8.1,26.8,8.1,40.8H192c0-39.6-15.7-77.6-43.7-105.6C120.3,314.4,82.3,298.7,42.7,298.7z"/>
	<path d="M469.3,384V85.3c0-5.7-2.2-11.1-6.2-15.1c-4-4-9.4-6.2-15.1-6.2H64c-5.7,0-11.1,2.2-15.1,6.2c-4,4-6.2,9.4-6.2,15.1v85.3
		c14.3,0,28.5,1.1,42.7,3.3v-67.3h341.3V384H469.3z"/>
	<path d="M42.7,384v64h64c0-17-6.7-33.3-18.7-45.3C75.9,390.7,59.6,384,42.7,384z"/>
	<path d="M42.7,213.3V256c50.9,0,99.8,20.2,135.8,56.2c36,36,56.2,84.8,56.2,135.8h42.7C277.3,318.4,172.3,213.3,42.7,213.3z"/>
	<path d="M320,448h85.3v-42.7h-88.6C318.9,419.5,320,433.7,320,448z"/>
	<rect x="426.7" y="405.3" width="42.7" height="42.7"/>
</g>
</svg>
