<?xml version="1.0" encoding="utf-8"?>
<!-- Generator: Adobe Illustrator 25.4.1, SVG Export Plug-In . SVG Version: 6.00 Build 0)  -->
<svg version="1.1" id="Layer_1" xmlns="http://www.w3.org/2000/svg" xmlns:xlink="http://www.w3.org/1999/xlink" x="0px" y="0px"
	 viewBox="0 0 512 512" enable-background="new 0 0 512 512" xml:space="preserve">
<g>
	<path d="M362.7,64H128v42.7h217l60.3,60.3v238.3h-42.7v-128H149.3v128h-42.7V128H64v298.7c0,5.7,2.2,11.1,6.2,15.1
		c4,4,9.4,6.2,15.1,6.2h341.3c5.7,0,11.1-2.2,15.1-6.2s6.2-9.4,6.2-15.1V149.3L362.7,64z M320,405.3H192V320h128V405.3z"/>
	<polygon points="106.7,64 85.3,64 85.3,64 64,64 64,85.3 64,85.3 64,106.7 106.7,106.7 	"/>
</g>
</svg>
