<?xml version="1.0" encoding="utf-8"?>
<!-- Generator: Adobe Illustrator 25.4.1, SVG Export Plug-In . SVG Version: 6.00 Build 0)  -->
<svg version="1.1" id="Layer_1" xmlns="http://www.w3.org/2000/svg" xmlns:xlink="http://www.w3.org/1999/xlink" x="0px" y="0px"
	 viewBox="0 0 512 512" enable-background="new 0 0 512 512" xml:space="preserve">
<g>
	<path d="M149.3,85.3h192V42.7H128c-5.7,0-11.1,2.2-15.1,6.2c-4,4-6.2,9.4-6.2,15.1v384c0,5.7,2.2,11.1,6.2,15.1
		c4,4,9.4,6.2,15.1,6.2h128v-42.7H149.3V85.3z"/>
	<path d="M405.3,106.7h-42.7v106.7h42.7V64c0,0,0,0,0,0V42.7H384h0h-21.3v42.7h42.7V106.7z"/>
	<path d="M448,341.3V320c0-17-6.7-33.3-18.7-45.3c-12-12-28.3-18.7-45.3-18.7c-17,0-33.3,6.7-45.3,18.7S320,303,320,320v21.3h-21.3
		V448c0,5.7,2.2,11.1,6.2,15.1s9.4,6.2,15.1,6.2h128c5.7,0,11.1-2.2,15.1-6.2s6.2-9.4,6.2-15.1V341.3H448z M362.7,320
		c0-11.7,10.5-21.3,21.3-21.3c5.7,0,11.1,2.2,15.1,6.2s6.2,9.4,6.2,15.1v21.3h-42.7V320z M426.7,426.7h-85.3V384h85.3V426.7z"/>
</g>
</svg>
