<?xml version="1.0" encoding="utf-8"?>
<!-- Generator: Adobe Illustrator 25.4.1, SVG Export Plug-In . SVG Version: 6.00 Build 0)  -->
<svg version="1.1" id="Layer_1" xmlns="http://www.w3.org/2000/svg" xmlns:xlink="http://www.w3.org/1999/xlink" x="0px" y="0px"
	 viewBox="0 0 512 512" enable-background="new 0 0 512 512" xml:space="preserve">
<g>
	<path d="M234.7,298.7l-0.1,7.8c-1.6,51.4-20.2,100.8-52.7,140.5l33.1,27l4.9-6.2c35.7-46.3,55.8-102.6,57.4-161l0.1-8.1v-85.3
		h-42.7V298.7z"/>
	<path d="M136.2,84.7l30.4,30.4c22.2-16.6,48.6-26.7,76.2-29.1c20.7-1.8,102.1-1.2,141.3-0.8V42.7c-44.2,0-99.9,0-128,0
		C212.4,42.6,170.2,57.4,136.2,84.7z"/>
	<path d="M136.4,145.2L106,114.8v0c-27.2,34-42,76.3-41.9,119.8v42.7l-0.2,6.2c-0.9,16.6-5.7,32.4-13.8,46.6l37.1,21.2l3.3-6.2
		c10.6-20.8,16.3-43.9,16.3-67.8l-0.1-42.7l0.1-5.1C107.8,199.1,118.1,169.6,136.4,145.2z"/>
	<path d="M405.3,234.7v64l-0.2,12.1c-1,32.3-5.7,64-14,94.6l41.2,11.2l3-11.5c8.4-34.6,12.7-70.2,12.7-106.5v-64
		c0-28.1,0-83.8,0-128h-42.7C405.3,142.8,405.3,214.2,405.3,234.7z"/>
	<path d="M320,298.7l-0.1,9.7c-1.5,51.8-15.4,101.5-40.1,145.8L317,475l4.8-9c26.7-51.2,40.9-108.3,40.9-167.4v-21.3H320V298.7z"/>
	<path d="M256,128c-28.3,0-55.4,11.2-75.4,31.2c-20,20-31.2,47.1-31.2,75.4v64l-0.1,6.5c-1.5,36.1-16.1,70.4-41.1,96.5l30.9,29.4
		l4.5-4.9c31-34.8,48.4-79.8,48.4-127.5v-64c0-17,6.7-33.3,18.7-45.3c12-12,28.3-18.7,45.3-18.7c17,0,33.3,6.7,45.3,18.7
		c12,12,18.7,28.3,18.7,45.3h42.7c0-28.3-11.2-55.4-31.2-75.4C311.4,139.2,284.3,128,256,128z"/>
	<path d="M442.3,42.7h-36.9v42.7H448V43c0-0.2,0-0.4,0-0.4S446,42.7,442.3,42.7z"/>
</g>
</svg>
