<?xml version="1.0" encoding="utf-8"?>
<!-- Generator: Adobe Illustrator 25.4.1, SVG Export Plug-In . SVG Version: 6.00 Build 0)  -->
<svg version="1.1" id="Layer_1" xmlns="http://www.w3.org/2000/svg" xmlns:xlink="http://www.w3.org/1999/xlink" x="0px" y="0px"
	 viewBox="0 0 512 512" enable-background="new 0 0 512 512" xml:space="preserve">
<g>
	<path d="M448,213.3v85.3l-0.1,4.3c-1.1,21.9-10.6,42.5-26.4,57.6c-15.9,15.1-36.9,23.5-58.8,23.5H149.3l-4.3-0.1
		c-21.9-1.1-42.5-10.6-57.6-26.4C72.4,341.6,64,320.6,64,298.7v-85.3l0.1-4.3c1.1-21.9,10.6-42.5,26.4-57.6
		c15.9-15.1,36.9-23.5,58.8-23.5h213.3l4.3,0.1c13.3,0.7,40.5,0.5,59.7,0.2v-43c-24.3,0-49.6,0-64,0H149.3
		c-33.9,0-66.5,13.5-90.5,37.5s-37.5,56.6-37.5,90.5v85.3c0,33.9,13.5,66.5,37.5,90.5c24,24,56.6,37.5,90.5,37.5h213.3
		c33.9,0,66.5-13.5,90.5-37.5c24-24,37.5-56.6,37.5-90.5v-85.3c0-14.4,0-39.7,0-64H448C448,169.8,448,199.7,448,213.3z"/>
	<rect x="341.3" y="277.3" width="42.7" height="42.7"/>
	<rect x="298.7" y="192" width="42.7" height="42.7"/>
	<polygon points="256,234.7 213.3,234.7 213.3,192 170.7,192 170.7,234.7 128,234.7 128,277.3 170.6,277.3 170.7,320 213.3,320 
		213.3,277.3 256,277.3 	"/>
	<path d="M469.3,85.3H448V128h42.7v-21.3c0-12.8,0-21.3,0-21.3S482.2,85.3,469.3,85.3z"/>
</g>
</svg>
