<?xml version="1.0" encoding="utf-8"?>
<!-- Generator: Adobe Illustrator 25.4.1, SVG Export Plug-In . SVG Version: 6.00 Build 0)  -->
<svg version="1.1" id="Layer_1" xmlns="http://www.w3.org/2000/svg" xmlns:xlink="http://www.w3.org/1999/xlink" x="0px" y="0px"
	 viewBox="0 0 512 512" enable-background="new 0 0 512 512" xml:space="preserve">
<g>
	<path d="M420.4,143.1L320,42.7H149.3v42.7h153L384,167v259.7H128v-320H85.3V448c0,5.7,2.2,11.1,6.2,15.1c4,4,9.4,6.2,15.1,6.2
		h298.7c5.7,0,11.1-2.2,15.1-6.2s6.2-9.4,6.2-15.1V158.2C426.7,152.5,424.4,147.1,420.4,143.1z"/>
	<polygon points="277.3,384 277.3,213.3 170.7,213.3 170.7,256 234.7,256 234.7,384 	"/>
	<rect x="170.7" y="277.3" width="42.7" height="42.7"/>
	<rect x="298.7" y="213.3" width="42.7" height="42.7"/>
	<rect x="170.7" y="341.3" width="42.7" height="42.7"/>
	<rect x="298.7" y="341.3" width="42.7" height="42.7"/>
	<rect x="298.7" y="277.3" width="42.7" height="42.7"/>
	<polygon points="128,42.7 106.7,42.7 106.7,42.7 85.3,42.7 85.3,64 85.3,64 85.3,85.3 128,85.3 	"/>
</g>
</svg>
