<?xml version="1.0" encoding="utf-8"?>
<!-- Generator: Adobe Illustrator 25.4.1, SVG Export Plug-In . SVG Version: 6.00 Build 0)  -->
<svg version="1.1" id="Layer_1" xmlns="http://www.w3.org/2000/svg" xmlns:xlink="http://www.w3.org/1999/xlink" x="0px" y="0px"
	 viewBox="0 0 512 512" enable-background="new 0 0 512 512" xml:space="preserve">
<g>
	<path d="M307.5,161.8c-8-8-18.9-12.5-30.2-12.5V192H320C320,180.7,315.5,169.8,307.5,161.8z"/>
	<path d="M149.3,85.3h85.3V42.7H128c-5.7,0-11.1,2.2-15.1,6.2c-4,4-6.2,9.4-6.2,15.1v341.3h42.7V85.3z"/>
	<path d="M341.3,192H384c0-28.3-11.2-55.4-31.2-75.4c-20-20-47.1-31.2-75.4-31.2V128c17,0,33.3,6.7,45.3,18.7S341.3,175,341.3,192z"
		/>
	<path d="M398,71.3c-32-32-75.4-50-120.7-50V64c33.9,0,66.5,13.5,90.5,37.5c24,24,37.5,56.6,37.5,90.5H448
		C448,146.7,430,103.3,398,71.3z"/>
	<path d="M362.7,426.7h-192v42.7H384c5.7,0,11.1-2.2,15.1-6.2s6.2-9.4,6.2-15.1V234.7h-42.7V426.7z"/>
	<polygon points="106.7,448 106.7,448 106.7,469.3 128,469.3 128,469.3 149.3,469.3 149.3,426.7 106.7,426.7 	"/>
</g>
</svg>
