<?xml version="1.0" encoding="utf-8"?>
<!-- Generator: Adobe Illustrator 25.4.1, SVG Export Plug-In . SVG Version: 6.00 Build 0)  -->
<svg version="1.1" id="Layer_1" xmlns="http://www.w3.org/2000/svg" xmlns:xlink="http://www.w3.org/1999/xlink" x="0px" y="0px"
	 viewBox="0 0 512 512" enable-background="new 0 0 512 512" xml:space="preserve">
<g>
	<path d="M426.7,405.3V64c0-5.7-2.2-11.1-6.2-15.1c-4-4-9.4-6.2-15.1-6.2H106.7c-5.7,0-11.1,2.2-15.1,6.2c-4,4-6.2,9.4-6.2,15.1v384
		c0,5.7,2.2,11.1,6.2,15.1c4,4,9.4,6.2,15.1,6.2h256v-42.7H128V85.3h256v320H426.7z"/>
	<path d="M312.1,346.8c19.7-12.2,35-30.5,43.4-52.1c8.4-21.6,9.5-45.4,3.2-67.8c-6.3-22.3-19.8-42-38.3-56
		c-18.5-14-41.1-21.6-64.3-21.6c-14.9,0-29.6,3.1-43.1,9.2c-13.6,6-25.8,14.8-35.7,25.8c-10,11-17.6,24-22.2,38.1
		c-4.7,14.1-6.4,29-4.9,43.8c1.4,14.8,5.9,29.1,13.2,42.1c7.3,13,17.2,24.2,29.1,33.1c11.9,8.9,25.5,15.2,40,18.5
		c14.5,3.3,29.5,3.6,44.1,0.8L256,320c-12.7,0-25-3.8-35.6-10.8c-10.5-7-18.7-17-23.6-28.7c-4.8-11.7-6.1-24.6-3.6-37
		c2.5-12.4,8.6-23.8,17.5-32.8c8.9-9,20.4-15,32.8-17.5c12.4-2.5,25.3-1.2,37,3.6c11.7,4.8,21.7,13,28.7,23.6
		c7,10.5,10.8,22.9,10.8,35.6h-53.3L312.1,346.8z"/>
	<rect x="384" y="426.7" width="42.7" height="42.7"/>
</g>
</svg>
