<?xml version="1.0" encoding="utf-8"?>
<!-- Generator: Adobe Illustrator 25.4.1, SVG Export Plug-In . SVG Version: 6.00 Build 0)  -->
<svg version="1.1" id="Layer_1" xmlns="http://www.w3.org/2000/svg" xmlns:xlink="http://www.w3.org/1999/xlink" x="0px" y="0px"
	 viewBox="0 0 512 512" enable-background="new 0 0 512 512" xml:space="preserve">
<g>
	<path d="M405.3,106.7h-42.7v128h42.7V64c0,0,0,0,0,0V42.7H384h0h-21.3v42.7h42.7V106.7z"/>
	<path d="M149.3,85.3h192V42.7H128c-5.7,0-11.1,2.2-15.1,6.2c-4,4-6.2,9.4-6.2,15.1v384c0,5.7,2.2,11.1,6.2,15.1
		c4,4,9.4,6.2,15.1,6.2h106.7v-42.7h-85.3V85.3z"/>
	<path d="M393.5,384.7c7.6-13,11.7-27.7,11.8-42.8c0.1-15-3.8-29.9-11.2-42.9c-7.5-13.1-18.3-23.9-31.3-31.5
		C349.8,260,335,256,320,256v0c-13.1,0-26.1,3-37.8,8.9c-11.8,5.8-22,14.3-30,24.7c-8,10.4-13.4,22.5-15.9,35.4
		c-2.5,12.9-2,26.2,1.4,38.8c3.5,12.7,9.8,24.3,18.5,34.2c8.7,9.8,19.6,17.5,31.7,22.4c12.2,4.9,25.3,7,38.4,6.1
		c13.1-1,25.8-4.9,37.1-11.6l47.2,47.1l30.1-30.2L393.5,384.7z M350.2,371.5c-8,8-18.9,12.5-30.2,12.5s-22.2-4.5-30.2-12.5
		c-8-8-12.5-18.9-12.5-30.2c0-11.3,4.5-22.2,12.5-30.2s18.9-12.5,30.2-12.5s22.2,4.5,30.2,12.5s12.5,18.9,12.5,30.2
		C362.7,352.6,358.2,363.5,350.2,371.5z"/>
</g>
</svg>
