<svg fill="none" height="512" viewBox="0 0 24 24" width="512" xmlns="http://www.w3.org/2000/svg"><path d="m2.80794 1.39301 17.67696 17.67799-1.414 1.414-3.683-3.682-3.388 4.197-11.309959-14.00299c.913999-.74 1.901999-1.391 2.949999-1.942l-2.246-2.247 1.415-1.415zm.771 5.999 8.42096 10.42499 1.967-2.437-8.83496-8.83599c-.532.254-1.05.536-1.552.848zm8.42096-4.392c4.284 0 8.22 1.49699 11.31 3.996l-5.407 6.69299-1.422-1.422 3.939-4.87599c-2.498-1.55-5.393-2.391-8.42-2.391-.873 0-1.735.06999-2.57996.207l-1.695-1.697c1.369-.333 2.80196-.51 4.27496-.51z" fill="rgb(0,0,0)"/></svg>