<?xml version="1.0" encoding="utf-8"?>
<!-- Generator: Adobe Illustrator 25.4.1, SVG Export Plug-In . SVG Version: 6.00 Build 0)  -->
<svg version="1.1" id="Layer_1" xmlns="http://www.w3.org/2000/svg" xmlns:xlink="http://www.w3.org/1999/xlink" x="0px" y="0px"
	 viewBox="0 0 512 512" enable-background="new 0 0 512 512" xml:space="preserve">
<g>
	<polygon points="277.3,192 234.7,192 234.7,256 170.7,256 170.7,298.7 234.7,298.7 234.7,362.7 277.3,362.7 277.3,298.7 
		341.3,298.7 341.3,256 277.3,256 	"/>
	<path d="M405.3,405.3V106.7c0-5.7-2.2-11.1-6.2-15.1c-4-4-9.4-6.2-15.1-6.2h-64V64c0-5.7-2.2-11.1-6.2-15.1c-4-4-9.4-6.2-15.1-6.2
		h-85.3c-5.7,0-11.1,2.2-15.1,6.2c-4,4-6.2,9.4-6.2,15.1v21.3h-64c-5.7,0-11.1,2.2-15.1,6.2c-4,4-6.2,9.4-6.2,15.1V448
		c0,5.7,2.2,11.1,6.2,15.1c4,4,9.4,6.2,15.1,6.2h213.3v-42.7h-192V128h85.3V85.3h42.7V128h85.3v277.3H405.3z"/>
	<rect x="362.7" y="426.7" width="42.7" height="42.7"/>
</g>
</svg>
