<?xml version="1.0" encoding="utf-8"?>
<!-- Generator: Adobe Illustrator 25.4.1, SVG Export Plug-In . SVG Version: 6.00 Build 0)  -->
<svg version="1.1" id="Layer_1" xmlns="http://www.w3.org/2000/svg" xmlns:xlink="http://www.w3.org/1999/xlink" x="0px" y="0px"
	 viewBox="0 0 512 512" enable-background="new 0 0 512 512" xml:space="preserve">
<g>
	<path d="M426.7,405.3V158.2c0-5.7-2.2-11.1-6.3-15.1L320,42.7H106.7c-5.7,0-11.1,2.2-15.1,6.2c-4,4-6.2,9.4-6.2,15.1v384
		c0,5.7,2.2,11.1,6.2,15.1c4,4,9.4,6.2,15.1,6.2h256v-42.7H128V85.3h174.3L384,167v238.3H426.7z"/>
	<polygon points="277.3,341.3 277.3,170.7 213.3,170.7 213.3,213.3 234.7,213.3 234.7,341.3 	"/>
	<rect x="384" y="426.7" width="42.7" height="42.7"/>
</g>
</svg>
