<?xml version="1.0" encoding="utf-8"?>
<!-- Generator: Adobe Illustrator 25.4.1, SVG Export Plug-In . SVG Version: 6.00 Build 0)  -->
<svg version="1.1" id="Layer_1" xmlns="http://www.w3.org/2000/svg" xmlns:xlink="http://www.w3.org/1999/xlink" x="0px" y="0px"
	 viewBox="0 0 512 512" enable-background="new 0 0 512 512" xml:space="preserve">
<g>
	<rect x="320" y="42.7" width="64" height="42.7"/>
	<path d="M405.3,298.7H106.6l0-213.3H192V42.7H85.3c-5.7,0-11.1,2.2-15.1,6.2c-4,4-6.2,9.4-6.2,15.1v384c0,5.7,2.2,11.1,6.2,15.1
		c4,4,9.4,6.2,15.1,6.2h341.3c5.7,0,11.1-2.2,15.1-6.2s6.2-9.4,6.2-15.1V106.7h-42.7L405.3,298.7z M106.7,426.7l0-85.3h298.7l0,85.3
		H106.7z"/>
	<polygon points="256,234.7 341.3,149.3 277.3,149.3 277.3,42.7 234.7,42.7 234.7,149.3 170.7,149.3 	"/>
	<rect x="320" y="362.7" width="42.7" height="42.7"/>
	<rect x="405.3" y="42.7" width="42.7" height="42.7"/>
</g>
</svg>
