<?xml version="1.0" encoding="utf-8"?>
<!-- Generator: Adobe Illustrator 25.4.1, SVG Export Plug-In . SVG Version: 6.00 Build 0)  -->
<svg version="1.1" id="Layer_1" xmlns="http://www.w3.org/2000/svg" xmlns:xlink="http://www.w3.org/1999/xlink" x="0px" y="0px"
	 viewBox="0 0 512 512" enable-background="new 0 0 512 512" xml:space="preserve">
<g>
	<rect x="149.3" y="320" width="64" height="42.7"/>
	<rect x="149.3" y="149.3" width="64" height="42.7"/>
	<path d="M405.3,234.7H106.7v-128H384V64H85.3c-5.7,0-11.1,2.2-15.1,6.2c-4,4-6.2,9.4-6.2,15.1v341.3c0,5.7,2.2,11.1,6.2,15.1
		c4,4,9.4,6.2,15.1,6.2h341.3c5.7,0,11.1-2.2,15.1-6.2s6.2-9.4,6.2-15.1V128h-42.7V234.7z M405.3,405.3H106.7v-128h298.7V405.3z"/>
	<rect x="405.3" y="64" width="42.7" height="42.7"/>
</g>
</svg>
