<?xml version="1.0" encoding="utf-8"?>
<!-- Generator: Adobe Illustrator 25.4.1, SVG Export Plug-In . SVG Version: 6.00 Build 0)  -->
<svg version="1.1" id="Layer_1" xmlns="http://www.w3.org/2000/svg" xmlns:xlink="http://www.w3.org/1999/xlink" x="0px" y="0px"
	 viewBox="0 0 512 512" enable-background="new 0 0 512 512" xml:space="preserve">
<g>
	<ellipse transform="matrix(0.9871 -0.1602 0.1602 0.9871 -18.9063 42.7972)" cx="256" cy="138.7" rx="21.3" ry="21.3"/>
	<ellipse transform="matrix(0.9871 -0.1602 0.1602 0.9871 -39.2161 25.5175)" cx="138.7" cy="256" rx="21.3" ry="21.3"/>
	<ellipse transform="matrix(0.3827 -0.9239 0.9239 0.3827 -6.0483 502.948)" cx="373.3" cy="256" rx="21.3" ry="21.3"/>
	<path d="M354,158c-4.4-4.4-11.2-5-16.3-1.4c-61.6,43.3-96.4,68.9-104.4,76.8c-12.5,12.5-12.5,32.8,0,45.3
		c12.5,12.5,32.8,12.5,45.3,0c4.7-4.7,30.3-39.5,76.8-104.5C359,169.2,358.4,162.3,354,158z"/>
	<path d="M256,42.7C138.2,42.7,42.7,138.2,42.7,256c0,103.2,73.3,189.3,170.7,209.1v-43.8c-73.6-18.9-128-85.8-128-165.3
		c0-94.3,76.4-170.7,170.7-170.7S426.7,161.7,426.7,256c0,79.5-54.4,146.3-128,165.3v43.8C396,445.3,469.3,359.2,469.3,256
		C469.3,138.2,373.8,42.7,256,42.7z"/>
	<path d="M188.1,188.1c8.3-8.3,8.3-21.8,0-30.2c-8.3-8.3-21.8-8.3-30.2,0c-8.3,8.3-8.3,21.8,0,30.2
		C166.3,196.4,179.8,196.4,188.1,188.1z"/>
	<rect x="234.7" y="426.7" width="42.7" height="42.7"/>
</g>
</svg>
