<?xml version="1.0" encoding="utf-8"?>
<!-- Generator: Adobe Illustrator 25.4.1, SVG Export Plug-In . SVG Version: 6.00 Build 0)  -->
<svg version="1.1" id="Layer_1" xmlns="http://www.w3.org/2000/svg" xmlns:xlink="http://www.w3.org/1999/xlink" x="0px" y="0px"
	 viewBox="0 0 512 512" enable-background="new 0 0 512 512" xml:space="preserve">
<g>
	<path d="M256,170.7h-85.3v170.7H256c22.6,0,44.3-9,60.3-25c16-16,25-37.7,25-60.3s-9-44.3-25-60.3
		C300.3,179.7,278.6,170.7,256,170.7z M286.2,286.2c-8,8-18.9,12.5-30.2,12.5h-42.7v-85.3H256c11.3,0,22.2,4.5,30.2,12.5
		s12.5,18.9,12.5,30.2S294.2,278.2,286.2,286.2z"/>
	<path d="M106.7,85.3H320v85.3h85.3v234.7H448v-256L341.3,42.7h-256C73.5,42.7,64,52.1,64,63.8l0,384.3c0,5.6,2.3,11,6.3,14.9
		s9.3,6.2,14.9,6.2H384v-42.7H106.7V85.3z"/>
	<polygon points="405.3,426.7 405.3,469.3 426.7,469.3 426.8,469.3 448,469.3 448,426.7 	"/>
</g>
</svg>
