<?xml version="1.0" encoding="utf-8"?>
<!-- Generator: Adobe Illustrator 25.4.1, SVG Export Plug-In . SVG Version: 6.00 Build 0)  -->
<svg version="1.1" id="Layer_1" xmlns="http://www.w3.org/2000/svg" xmlns:xlink="http://www.w3.org/1999/xlink" x="0px" y="0px"
	 viewBox="0 0 512 512" enable-background="new 0 0 512 512" xml:space="preserve">
<g>
	<path d="M85.3,106.7h119.2l42.7,42.7h179.5v70.2c15.2,4.5,29.6,11.5,42.7,20.6V128c0-5.7-2.2-11.1-6.2-15.1c-4-4-9.4-6.2-15.1-6.2
		H264.8L222.2,64H64c-5.7,0-11.1,2.2-15.1,6.2c-4,4-6.2,9.4-6.2,15.1v299.1h42.7V106.7z"/>
	<path d="M106.7,405.3V448h154.8c-9-12.9-16-27.3-20.6-42.7H106.7z"/>
	<path d="M459.4,287.2c-20-20-47.1-31.2-75.4-31.2c-28.3,0-55.4,11.2-75.4,31.2c-20,20-31.2,47.1-31.2,75.4
		c0,28.3,11.2,55.4,31.2,75.4c20,20,47.1,31.2,75.4,31.2c28.3,0,55.4-11.2,75.4-31.2c20-20,31.2-47.1,31.2-75.4
		C490.7,334.4,479.4,307.2,459.4,287.2z M326.2,390.3c-5.7-11.9-7.6-25.4-5.4-38.4c2.2-13.1,8.5-25.1,17.8-34.5
		c9.4-9.4,21.4-15.6,34.5-17.8c13.1-2.2,26.5-0.4,38.4,5.4L326.2,390.3L326.2,390.3z M447.1,373.5c-2.2,13.1-8.5,25.1-17.8,34.5
		c-9.4,9.4-21.4,15.6-34.5,17.8c-13.1,2.2-26.5,0.4-38.4-5.4v0l85.4-85.3C447.5,347,449.4,360.5,447.1,373.5z"/>
	<rect x="42.7" y="405.7" width="42.7" height="42.7"/>
</g>
</svg>
