<?xml version="1.0" encoding="utf-8"?>
<!-- Generator: Adobe Illustrator 25.4.1, SVG Export Plug-In . SVG Version: 6.00 Build 0)  -->
<svg version="1.1" id="Layer_1" xmlns="http://www.w3.org/2000/svg" xmlns:xlink="http://www.w3.org/1999/xlink" x="0px" y="0px"
	 viewBox="0 0 512 512" enable-background="new 0 0 512 512" xml:space="preserve">
<g>
	<path d="M441.8,48.9c-4-4-9.4-6.2-15.1-6.2h-256c-5.7,0-11.1,2.2-15.1,6.2c-4,4-6.2,9.4-6.2,15.1v64l-63.8,0
		c-11.9,0-21.5,9.6-21.5,21.3L64,448c0,2.8,0.6,5.6,1.6,8.2c1.1,2.6,2.7,5,4.7,6.9c2,2,4.4,3.5,7,4.6c2.6,1.1,5.4,1.6,8.2,1.6h213.2
		v-42.7h-192l0.1-256H320v234.7h42.7V384h64c5.7,0,11.1-2.2,15.1-6.2s6.2-9.4,6.2-15.1V64C448,58.3,445.8,52.9,441.8,48.9z
		 M405.3,341.3h-42.7V128H192V85.3h213.3V341.3z"/>
	<rect x="320" y="426.7" width="42.7" height="42.7"/>
</g>
</svg>
