<?xml version="1.0" encoding="utf-8"?>
<!-- Generator: Adobe Illustrator 25.4.1, SVG Export Plug-In . SVG Version: 6.00 Build 0)  -->
<svg version="1.1" id="Layer_1" xmlns="http://www.w3.org/2000/svg" xmlns:xlink="http://www.w3.org/1999/xlink" x="0px" y="0px"
	 viewBox="0 0 512 512" enable-background="new 0 0 512 512" xml:space="preserve">
<g>
	<path d="M244.2,405.3H106.7V448h173C264.3,437.2,252,422.5,244.2,405.3z"/>
	<path d="M463.1,112.9c-4-4-9.4-6.2-15.1-6.2H264.8L222.2,64H64c-5.7,0-11.1,2.2-15.1,6.2c-4,4-6.2,9.4-6.2,15.1V384h42.7V106.7
		h119.2l42.7,42.7h179.5V192h42.7v-64C469.3,122.3,467.1,116.9,463.1,112.9z"/>
	<path d="M277.3,361.6c0,10.4,2.6,20.7,7.6,29.9c5,9.2,12.2,17,20.9,22.7l67.5,44.5l67.5-44.5c17.8-11.7,28.5-31.5,28.5-52.6V234.7
		h-192V361.6z M320,277.3h106.7v84.2c0,3.4-0.9,6.7-2.5,9.7c-1.6,3-4,5.5-6.8,7.3l-44,29l-44-29c-5.8-3.9-9.3-10.2-9.3-17V277.3z"/>
	<polygon points="42.7,426.7 42.7,426.7 42.7,448 64,448 64,448 85.3,448 85.3,405.3 42.7,405.3 	"/>
</g>
</svg>
