<?xml version="1.0" encoding="utf-8"?>
<!-- Generator: Adobe Illustrator 25.4.1, SVG Export Plug-In . SVG Version: 6.00 Build 0)  -->
<svg version="1.1" id="Layer_1" xmlns="http://www.w3.org/2000/svg" xmlns:xlink="http://www.w3.org/1999/xlink" x="0px" y="0px"
	 viewBox="0 0 512 512" enable-background="new 0 0 512 512" xml:space="preserve">
<g>
	<path d="M426.8,64H85.2C73.5,64,64,73.5,64,85.2V384h42.7V106.7h298.7v170.6l-106.7,0l-2.5,0.1c-5.2,0.6-10,3.1-13.4,7
		c-3.5,3.9-5.4,8.9-5.4,14.2v106.7H128V448l192-0.1L448,320V85.4C448,73.7,438.5,64,426.8,64z M320,387.6V320l67.6,0L320,387.6z"/>
	<polygon points="64,426.7 64,426.8 64,448 106.7,448 106.7,405.3 64,405.3 	"/>
</g>
</svg>
