<?xml version="1.0" encoding="utf-8"?>
<!-- Generator: Adobe Illustrator 25.4.1, SVG Export Plug-In . SVG Version: 6.00 Build 0)  -->
<svg version="1.1" id="Layer_1" xmlns="http://www.w3.org/2000/svg" xmlns:xlink="http://www.w3.org/1999/xlink" x="0px" y="0px"
	 viewBox="0 0 512 512" enable-background="new 0 0 512 512" xml:space="preserve">
<g>
	<path d="M463.1,112.9c-4-4-9.4-6.2-15.1-6.2H264.8L222.2,64H64c-5.7,0-11.1,2.2-15.1,6.2c-4,4-6.2,9.4-6.2,15.1v341.3
		c0,5.7,2.2,11.1,6.2,15.1c4,4,9.4,6.2,15.1,6.2h341.3v-42.7h-320V106.7h119.2l42.7,42.7h179.5V384h42.7V128
		C469.3,122.3,467.1,116.9,463.1,112.9z"/>
	<path d="M170.7,296.6c0,9.4,2.3,18.6,6.7,26.8c4.4,8.3,10.8,15.3,18.6,20.5l60,40l60-40c15.8-10.6,25.3-28.3,25.3-47.3V192H170.7
		V296.6z M213.3,234.7h85.3v62c0,2.3-0.6,4.6-1.7,6.7c-1.1,2.1-2.7,3.8-4.7,5.1L256,332.7l-36.3-24.2c-4-2.6-6.3-7.1-6.3-11.8V234.7
		z"/>
	<polygon points="426.7,448 448,448 448,448 469.3,448 469.3,426.7 469.3,426.7 469.3,405.3 426.7,405.3 	"/>
</g>
</svg>
