<?xml version="1.0" encoding="utf-8"?>
<!-- Generator: Adobe Illustrator 25.4.1, SVG Export Plug-In . SVG Version: 6.00 Build 0)  -->
<svg version="1.1" id="Layer_1" xmlns="http://www.w3.org/2000/svg" xmlns:xlink="http://www.w3.org/1999/xlink" x="0px" y="0px"
	 viewBox="0 0 512 512" enable-background="new 0 0 512 512" xml:space="preserve">
<g>
	<rect x="298.7" y="149.3" width="106.7" height="42.7"/>
	<path d="M469.3,384V85.2c0-11.7-9.5-21.2-21.2-21.2H63.8c-5.6,0-11,2.3-14.9,6.3c-4,4-6.2,9.3-6.2,14.9l0,341.6
		c0,5.6,2.2,11,6.2,15s9.4,6.2,15,6.2h341.5v-42.7h-128V106.7h149.3V384H469.3z M234.7,405.3H85.3V106.7h149.3V405.3z"/>
	<rect x="298.7" y="213.3" width="106.7" height="42.7"/>
	<rect x="426.7" y="405.3" width="42.7" height="42.7"/>
</g>
</svg>
