<?xml version="1.0" encoding="utf-8"?>
<!-- Generator: Adobe Illustrator 25.4.1, SVG Export Plug-In . SVG Version: 6.00 Build 0)  -->
<svg version="1.1" id="Layer_1" xmlns="http://www.w3.org/2000/svg" xmlns:xlink="http://www.w3.org/1999/xlink" x="0px" y="0px"
	 viewBox="0 0 512 512" enable-background="new 0 0 512 512" xml:space="preserve">
<g>
	<path d="M106.7,85.3H320v85.3h85.3v65.5c14.8,2.1,29.2,6.5,42.7,12.9v-99.7L341.3,42.7h-256C73.5,42.7,64,52.1,64,63.8v341.5h42.7
		V85.3z"/>
	<path d="M459.4,308.6c-20-20-47.1-31.2-75.4-31.2c-28.3,0-55.4,11.2-75.4,31.2c-20,20-31.2,47.1-31.2,75.4
		c0,28.3,11.2,55.4,31.2,75.4c20,20,47.1,31.2,75.4,31.2c28.3,0,55.4-11.2,75.4-31.2c20-20,31.2-47.1,31.2-75.4
		C490.7,355.7,479.4,328.6,459.4,308.6z M326.2,411.6c-5.7-11.9-7.6-25.4-5.4-38.4c2.2-13.1,8.5-25.1,17.8-34.5
		c9.4-9.4,21.4-15.6,34.5-17.8c13.1-2.2,26.5-0.4,38.4,5.4L326.2,411.6L326.2,411.6z M447.1,394.8c-2.2,13.1-8.5,25.1-17.8,34.5
		c-9.4,9.4-21.4,15.6-34.5,17.8c-13.1,2.2-26.5,0.4-38.4-5.4v0l85.4-85.3C447.5,368.4,449.4,381.8,447.1,394.8z"/>
	<path d="M128,426.7v42.7h133.4c-9-12.9-16-27.3-20.6-42.7H128z"/>
	<polygon points="64,448 64,448.2 64,469.3 85.2,469.3 85.3,469.3 106.7,469.3 106.7,426.7 64,426.7 	"/>
</g>
</svg>
