<?xml version="1.0" encoding="utf-8"?>
<!-- Generator: Adobe Illustrator 25.4.1, SVG Export Plug-In . SVG Version: 6.00 Build 0)  -->
<svg version="1.1" id="Layer_1" xmlns="http://www.w3.org/2000/svg" xmlns:xlink="http://www.w3.org/1999/xlink" x="0px" y="0px"
	 viewBox="0 0 512 512" enable-background="new 0 0 512 512" xml:space="preserve">
<g>
	<path d="M106.7,85.3H320v85.3h-29.9L256,219.4l-34.1-48.8h-51.2l59.7,85.3l-59.7,85.3h51.2l34.1-48.8l34.1,48.8h51.2L281.6,256
		l59.7-85.3h64v234.7H448v-256L341.3,42.7h-256C73.5,42.7,64,52.1,64,63.8l0,384.3c0,5.6,2.3,11,6.3,14.9s9.3,6.2,14.9,6.2H384
		v-42.7H106.7V85.3z"/>
	<polygon points="405.3,426.7 405.3,469.3 426.7,469.3 426.8,469.3 448,469.3 448,426.7 	"/>
</g>
</svg>
