<?xml version="1.0" encoding="utf-8"?>
<!-- Generator: Adobe Illustrator 25.4.1, SVG Export Plug-In . SVG Version: 6.00 Build 0)  -->
<svg version="1.1" id="Layer_1" xmlns="http://www.w3.org/2000/svg" xmlns:xlink="http://www.w3.org/1999/xlink" x="0px" y="0px"
	 viewBox="0 0 512 512" enable-background="new 0 0 512 512" xml:space="preserve">
<g>
	<path d="M441.8,48.9c-4-4-9.4-6.2-15.1-6.2h-64V0H320v42.7H192V0h-42.7v42.7h-64c-5.7,0-11.1,2.2-15.1,6.2c-4,4-6.2,9.4-6.2,15.1
		v384c0,5.7,2.2,11.1,6.2,15.1c4,4,9.4,6.2,15.1,6.2H384v-42.7H106.7V85.3h42.7V128H192V85.3h128V128h42.7V85.3h42.7v320H448V64
		C448,58.3,445.8,52.9,441.8,48.9z"/>
	<rect x="149.3" y="170.7" width="213.3" height="42.7"/>
	<rect x="149.3" y="256" width="213.3" height="42.7"/>
	<polygon points="405.3,469.3 426.7,469.3 426.7,469.3 448,469.3 448,448 448,448 448,426.7 405.3,426.7 	"/>
</g>
</svg>
