<?xml version="1.0" encoding="utf-8"?>
<!-- Generator: Adobe Illustrator 25.4.1, SVG Export Plug-In . SVG Version: 6.00 Build 0)  -->
<svg version="1.1" id="Layer_1" xmlns="http://www.w3.org/2000/svg" xmlns:xlink="http://www.w3.org/1999/xlink" x="0px" y="0px"
	 viewBox="0 0 512 512" enable-background="new 0 0 512 512" xml:space="preserve">
<g>
	<path d="M368.1,419.5c-3.5-3.9-5.4-8.9-5.4-14.2v-42.7H21.3v42.7c0,17,6.7,33.3,18.7,45.3c12,12,28.3,18.7,45.3,18.7H384v-42.7
		l-2.5-0.1C376.3,425.9,371.5,423.4,368.1,419.5z"/>
	<path d="M471.9,61.4c-12-12-28.3-18.7-45.3-18.7l-298.7,0c-17,0-33.3,6.7-45.3,18.7c-12,12-18.7,28.3-18.7,45.3V320h42.7V106.7
		l0.1-2.5c0.6-5.2,3.1-10,7-13.4c3.9-3.5,8.9-5.4,14.2-5.4h277.3v320H448v-256h42.7v-42.7C490.7,89.7,483.9,73.4,471.9,61.4z"/>
	<rect x="405.3" y="426.7" width="42.7" height="42.7"/>
</g>
</svg>
