<?xml version="1.0" encoding="utf-8"?>
<!-- Generator: Adobe Illustrator 25.4.1, SVG Export Plug-In . SVG Version: 6.00 Build 0)  -->
<svg version="1.1" id="Layer_1" xmlns="http://www.w3.org/2000/svg" xmlns:xlink="http://www.w3.org/1999/xlink" x="0px" y="0px"
	 viewBox="0 0 512 512" enable-background="new 0 0 512 512" xml:space="preserve">
<g>
	<path d="M234.7,341.3h128c0-17-6.7-33.3-18.7-45.3s-28.3-18.7-45.3-18.7c-17,0-33.3,6.7-45.3,18.7S234.7,324.4,234.7,341.3z"/>
	<path d="M192,85.3h213.3v320H448V85.1c0-23.3-19.1-42.5-42.6-42.5H64v426.7h320v-42.7H192V85.3z M149.3,426.7h-42.7V85.3h42.7
		V426.7z"/>
	<rect x="469.3" y="128" width="42.7" height="85.3"/>
	<rect x="469.3" y="256" width="42.7" height="85.3"/>
	<path d="M328.8,243.5c8-8,12.5-18.9,12.5-30.2c0-11.3-4.5-22.2-12.5-30.2c-8-8-18.9-12.5-30.2-12.5s-22.2,4.5-30.2,12.5
		c-8,8-12.5,18.9-12.5,30.2c0,11.3,4.5,22.2,12.5,30.2s18.9,12.5,30.2,12.5C310,256,320.8,251.5,328.8,243.5z"/>
	<rect x="405.3" y="426.7" width="42.7" height="42.7"/>
</g>
</svg>
