<?xml version="1.0" encoding="utf-8"?>
<!-- Generator: Adobe Illustrator 25.4.1, SVG Export Plug-In . SVG Version: 6.00 Build 0)  -->
<svg version="1.1" id="Layer_1" xmlns="http://www.w3.org/2000/svg" xmlns:xlink="http://www.w3.org/1999/xlink" x="0px" y="0px"
	 viewBox="0 0 512 512" enable-background="new 0 0 512 512" xml:space="preserve">
<g>
	<path d="M469.3,384V85.3c0-5.7-2.2-11.1-6.2-15.1c-4-4-9.4-6.2-15.1-6.2H320c-12.1,0-24.1,2.6-35.1,7.5c-11,5-20.9,12.3-28.9,21.3
		c-8-9.1-17.8-16.4-28.9-21.3c-11-5-23-7.6-35.1-7.5H64c-5.7,0-11.1,2.2-15.1,6.2c-4,4-6.2,9.4-6.2,15.1v341.3
		c0,5.7,2.2,11.1,6.2,15.1c4,4,9.4,6.2,15.1,6.2h170.7v42.7h42.7V448h128v-42.7h-128v-256c0-11.3,4.5-22.2,12.5-30.2
		c8-8,18.9-12.5,30.2-12.5h106.7V384H469.3z M234.7,405.3H85.3V106.7H192c11.3,0,22.2,4.5,30.2,12.5c8,8,12.5,18.9,12.5,30.2V405.3z
		"/>
	<rect x="426.7" y="405.3" width="42.7" height="42.7"/>
</g>
</svg>
