<?xml version="1.0" encoding="utf-8"?>
<!-- Generator: Adobe Illustrator 25.4.1, SVG Export Plug-In . SVG Version: 6.00 Build 0)  -->
<svg version="1.1" id="Layer_1" xmlns="http://www.w3.org/2000/svg" xmlns:xlink="http://www.w3.org/1999/xlink" x="0px" y="0px"
	 viewBox="0 0 512 512" enable-background="new 0 0 512 512" xml:space="preserve">
<g>
	<path d="M463.1,112.9c-4-4-9.4-6.2-15.1-6.2H264.8L222.2,64H64c-5.7,0-11.1,2.2-15.1,6.2c-4,4-6.2,9.4-6.2,15.1v341.3
		c0,5.7,2.2,11.1,6.2,15.1c4,4,9.4,6.2,15.1,6.2h341.3v-42.7h-320V106.7h119.2l42.7,42.7h179.5V384h42.7V128
		C469.3,122.3,467.1,116.9,463.1,112.9z"/>
	<path d="M323.5,277.3c6.1-12.8,8.3-27,6.6-41.1c-1.7-14-7.4-27.3-16.4-38.2c-9-10.9-20.9-19.1-34.3-23.5c-13.4-4.4-27.8-5-41.6-1.6
		c-13.7,3.4-26.2,10.7-36,20.9c-9.8,10.2-16.4,23-19.2,36.9l41.9,8.4c1.2-5.9,4-11.4,8.2-15.8c4.2-4.4,9.5-7.5,15.4-9
		c5.9-1.5,12.1-1.2,17.8,0.7c5.8,1.9,10.8,5.4,14.7,10.1c3.8,4.7,6.3,10.4,7,16.4c0.7,6-0.2,12.1-2.8,17.6
		c-2.6,5.5-6.7,10.1-11.8,13.3c-5.1,3.2-11.1,5-17.1,5h-21.3V320H256c14.1,0,28-4,40-11.6C307.9,300.9,317.5,290,323.5,277.3z"/>
	<rect x="234.7" y="341.3" width="42.7" height="42.7"/>
	<polygon points="426.7,448 448,448 448,448 469.3,448 469.3,426.7 469.3,426.7 469.3,405.3 426.7,405.3 	"/>
</g>
</svg>
