<?xml version="1.0" encoding="utf-8"?>
<!-- Generator: Adobe Illustrator 25.4.1, SVG Export Plug-In . SVG Version: 6.00 Build 0)  -->
<svg version="1.1" id="Layer_1" xmlns="http://www.w3.org/2000/svg" xmlns:xlink="http://www.w3.org/1999/xlink" x="0px" y="0px"
	 viewBox="0 0 512 512" enable-background="new 0 0 512 512" xml:space="preserve">
<g>
	<path d="M106.7,85.3H320v85.3h85.3v234.7H448v-256L341.3,42.7h-256C73.5,42.7,64,52.1,64,63.8l0,384.3c0,5.6,2.3,11,6.3,14.9
		s9.3,6.2,14.9,6.2H384v-42.7H106.7V85.3z"/>
	<path d="M335.8,355.3l30.2-30.2L318.8,278c10.5-17.9,14.2-39,10.3-59.4c-3.9-20.4-15.1-38.7-31.5-51.4
		c-16.4-12.7-36.9-19-57.6-17.7c-20.7,1.3-40.3,10.1-55,24.8c-14.6,14.7-23.3,34.2-24.6,54.9c-1.3,20.7,5,41.1,17.7,57.5
		c12.7,16.4,30.9,27.6,51.2,31.5c20.3,3.9,41.4,0.4,59.3-10.1v0L335.8,355.3z M285,251c-2.2,5.2-5.5,9.9-9.6,13.8h0
		c-8,7.8-18.8,12.1-30,12c-11.2-0.1-21.9-4.6-29.8-12.5c-7.9-7.9-12.4-18.6-12.5-29.8c-0.1-11.2,4.2-22,12-30
		c3.9-4.1,8.6-7.3,13.8-9.6c5.2-2.2,10.8-3.4,16.5-3.5s11.3,1,16.5,3.2c5.2,2.1,10,5.3,14,9.3c4,4,7.2,8.8,9.3,14
		c2.1,5.2,3.2,10.9,3.2,16.5S287.2,245.8,285,251z"/>
	<polygon points="405.3,426.7 405.3,469.3 426.7,469.3 426.8,469.3 448,469.3 448,426.7 	"/>
</g>
</svg>
