<?xml version="1.0" encoding="utf-8"?>
<!-- Generator: Adobe Illustrator 25.4.1, SVG Export Plug-In . SVG Version: 6.00 Build 0)  -->
<svg version="1.1" id="Layer_1" xmlns="http://www.w3.org/2000/svg" xmlns:xlink="http://www.w3.org/1999/xlink" x="0px" y="0px"
	 viewBox="0 0 512 512" enable-background="new 0 0 512 512" xml:space="preserve">
<g>
	<path d="M85.3,106.7h119.2l42.7,42.7h179.5v128h42.7V128c0-5.7-2.2-11.1-6.2-15.1c-4-4-9.4-6.2-15.1-6.2H264.8L222.2,64H64
		c-5.7,0-11.1,2.2-15.1,6.2c-4,4-6.2,9.4-6.2,15.1V384h42.7V106.7z"/>
	<rect x="106.7" y="405.3" width="170.7" height="42.7"/>
	<polygon points="426.7,362.7 426.7,288 320,384 426.7,480 426.7,405.3 490.7,405.3 490.7,362.7 	"/>
	<polygon points="42.7,426.7 42.7,426.7 42.7,448 64,448 64,448 85.3,448 85.3,405.3 42.7,405.3 	"/>
</g>
</svg>
