<?xml version="1.0" encoding="utf-8"?>
<!-- Generator: Adobe Illustrator 25.4.1, SVG Export Plug-In . SVG Version: 6.00 Build 0)  -->
<svg version="1.1" id="Layer_1" xmlns="http://www.w3.org/2000/svg" xmlns:xlink="http://www.w3.org/1999/xlink" x="0px" y="0px"
	 viewBox="0 0 512 512" enable-background="new 0 0 512 512" xml:space="preserve">
<g>
	<path d="M106.7,213.3h106.7c5.7,0,11.1-2.2,15.1-6.2c4-4,6.2-9.4,6.2-15.1V85.3h170.7v320H448V63.8c0-11.5-9.6-21.2-21.4-21.2H192
		v0.1L64,170.7v277.2c0,2.8,0.5,5.6,1.6,8.2c1.1,2.6,2.6,5,4.6,7c2,2,4.3,3.6,6.9,4.7c2.6,1.1,5.4,1.7,8.2,1.7H384v-42.7H106.7
		V213.3z M192,103v67.6h-67.6L192,103z"/>
	<polygon points="405.3,426.7 405.3,469.3 426.7,469.3 426.8,469.3 448,469.3 448,426.7 	"/>
</g>
</svg>
