<?xml version="1.0" encoding="utf-8"?>
<!-- Generator: Adobe Illustrator 25.4.1, SVG Export Plug-In . SVG Version: 6.00 Build 0)  -->
<svg version="1.1" id="Layer_1" xmlns="http://www.w3.org/2000/svg" xmlns:xlink="http://www.w3.org/1999/xlink" x="0px" y="0px"
	 viewBox="0 0 512 512" enable-background="new 0 0 512 512" xml:space="preserve">
<g>
	<path d="M469.3,384.4V128c0-5.7-2.2-11.1-6.2-15.1c-4-4-9.4-6.2-15.1-6.2H264.8L222.2,64H64c-5.7,0-11.1,2.2-15.1,6.2
		c-4,4-6.2,9.4-6.2,15.1v341.3c0,5.7,2.2,11.1,6.2,15.1c4,4,9.4,6.2,15.1,6.2h341.3v-42.7h-320V106.7h119.2l42.7,42.7h179.5v235.1
		H469.3z"/>
	<path d="M208.6,206.4c-14,9.4-25,22.7-31.4,38.3s-8.1,32.7-4.9,49.3c3.3,16.6,11.4,31.8,23.4,43.7s27.1,20.1,43.7,23.4
		c16.6,3.3,33.7,1.6,49.3-4.9c15.6-6.5,28.9-17.4,38.3-31.4c9.4-14,14.4-30.5,14.4-47.4H256V192C239.1,192,222.6,197,208.6,206.4z"
		/>
	<rect x="426.7" y="405.7" width="42.7" height="42.7"/>
</g>
</svg>
