<?xml version="1.0" encoding="utf-8"?>
<!-- Generator: Adobe Illustrator 25.4.1, SVG Export Plug-In . SVG Version: 6.00 Build 0)  -->
<svg version="1.1" id="Layer_1" xmlns="http://www.w3.org/2000/svg" xmlns:xlink="http://www.w3.org/1999/xlink" x="0px" y="0px"
	 viewBox="0 0 512 512" enable-background="new 0 0 512 512" xml:space="preserve">
<g>
	<path d="M469.3,384.4V128c0-5.7-2.2-11.1-6.2-15.1c-4-4-9.4-6.2-15.1-6.2H264.8L222.2,64H64c-5.7,0-11.1,2.2-15.1,6.2
		c-4,4-6.2,9.4-6.2,15.1v341.3c0,5.7,2.2,11.1,6.2,15.1c4,4,9.4,6.2,15.1,6.2h341.3v-42.7h-320V106.7h119.2l42.7,42.7h179.5v235.1
		H469.3z"/>
	<path d="M234.7,278.4c-10.8-2.2-22-1-32.1,3.4s-18.5,11.8-24.2,21.3c-5.7,9.4-8.3,20.4-7.6,31.3c0.8,11,4.9,21.4,11.9,30
		c7,8.5,16.4,14.7,27,17.6c10.6,3,21.9,2.6,32.2-1.1c10.4-3.7,19.3-10.5,25.7-19.5c6.3-9,9.8-19.7,9.8-30.7v-96h64V192H234.7V278.4z
		"/>
	<rect x="426.7" y="405.7" width="42.7" height="42.7"/>
</g>
</svg>
