<?xml version="1.0" encoding="utf-8"?>
<!-- Generator: Adobe Illustrator 25.4.1, SVG Export Plug-In . SVG Version: 6.00 Build 0)  -->
<svg version="1.1" id="Layer_1" xmlns="http://www.w3.org/2000/svg" xmlns:xlink="http://www.w3.org/1999/xlink" x="0px" y="0px"
	 viewBox="0 0 512 512" enable-background="new 0 0 512 512" xml:space="preserve">
<g>
	<path d="M463.1,112.9c-4-4-9.4-6.2-15.1-6.2H328.8L286.2,64H149.3c-5.7,0-11.1,2.2-15.1,6.2c-4,4-6.2,9.4-6.2,15.1v64H64
		c-5.7,0-11.1,2.2-15.1,6.2c-4,4-6.2,9.4-6.2,15.1v256c0,5.7,2.2,11.1,6.2,15.1c4,4,9.4,6.2,15.1,6.2h256v-42.7H85.3V192H128v170.7
		h213.3V384H384v-21.3h64c5.7,0,11.1-2.2,15.1-6.2s6.2-9.4,6.2-15.1V128C469.3,122.3,467.1,116.9,463.1,112.9z M426.7,320h-256
		V106.7h97.8l42.7,42.7h115.5V320z"/>
	<rect x="341.3" y="405.3" width="42.7" height="42.7"/>
</g>
</svg>
