<?xml version="1.0" encoding="utf-8"?>
<!-- Generator: Adobe Illustrator 25.4.1, SVG Export Plug-In . SVG Version: 6.00 Build 0)  -->
<svg version="1.1" id="Layer_1" xmlns="http://www.w3.org/2000/svg" xmlns:xlink="http://www.w3.org/1999/xlink" x="0px" y="0px"
	 viewBox="0 0 512 512" enable-background="new 0 0 512 512" xml:space="preserve">
<g>
	<path d="M362.7,405.3v-42.7H21.3v42.7c0,17,6.7,33.3,18.7,45.3c12,12,28.3,18.7,45.3,18.7H384v-42.7c-5.7,0-11.1-2.2-15.1-6.2
		C364.9,416.4,362.7,411,362.7,405.3z"/>
	<path d="M106.7,85.3h298.7v320H448V64c0-5.7-2.2-11.1-6.2-15.1c-4-4-9.4-6.2-15.1-6.2H85.3c-5.7,0-11.1,2.2-15.1,6.2
		c-4,4-6.2,9.4-6.2,15.1v256h42.7V85.3z"/>
	<rect x="405.3" y="426.7" width="42.7" height="42.7"/>
</g>
</svg>
