<?xml version="1.0" encoding="utf-8"?>
<!-- Generator: Adobe Illustrator 25.4.1, SVG Export Plug-In . SVG Version: 6.00 Build 0)  -->
<svg version="1.1" id="Layer_1" xmlns="http://www.w3.org/2000/svg" xmlns:xlink="http://www.w3.org/1999/xlink" x="0px" y="0px"
	 viewBox="0 0 512 512" enable-background="new 0 0 512 512" xml:space="preserve">
<g>
	<path d="M106.7,85.3H320v85.3h85.3v234.7H448v-256L341.3,42.7h-256C73.5,42.7,64,52.1,64,63.8l0,384.3c0,5.6,2.3,11,6.3,14.9
		s9.3,6.2,14.9,6.2H384v-42.7H106.7V85.3z"/>
	<path d="M328.5,189.5l-21.2,12.2c-8.4-7.9-18.6-14-30-17.3V160h-42.7v24.4c-11.2,3.3-21.5,9.3-30,17.3l-21.2-12.2l-21.3,36.9
		l21.2,12.2c-2.7,11.4-2.7,23.2,0,34.6l-21.2,12.2l21.3,36.9l21.2-12.2c8.5,8,18.8,14,30,17.3V352h42.7v-24.4
		c11.2-3.3,21.5-9.3,30-17.3l21.2,12.2l21.3-36.9l-21.2-12.2c2.7-11.4,2.7-23.2,0-34.6l21.2-12.2L328.5,189.5z M278.6,278.6
		c-6,6-14.1,9.4-22.6,9.4s-16.6-3.4-22.6-9.4c-6-6-9.4-14.1-9.4-22.6s3.4-16.6,9.4-22.6c6-6,14.1-9.4,22.6-9.4s16.6,3.4,22.6,9.4
		c6,6,9.4,14.1,9.4,22.6S284.6,272.6,278.6,278.6z"/>
	<polygon points="405.3,426.7 405.3,469.3 426.7,469.3 426.8,469.3 448,469.3 448,426.7 	"/>
</g>
</svg>
