<?xml version="1.0" encoding="utf-8"?>
<!-- Generator: Adobe Illustrator 25.4.1, SVG Export Plug-In . SVG Version: 6.00 Build 0)  -->
<svg version="1.1" id="Layer_1" xmlns="http://www.w3.org/2000/svg" xmlns:xlink="http://www.w3.org/1999/xlink" x="0px" y="0px"
	 viewBox="0 0 512 512" enable-background="new 0 0 512 512" xml:space="preserve">
<g>
	<polygon points="277.3,362.7 277.3,277.3 341.3,277.3 256,192 170.7,277.3 234.7,277.3 234.7,362.7 	"/>
	<path d="M463.1,112.9c-4-4-9.4-6.2-15.1-6.2H264.8L222.2,64H64c-5.7,0-11.1,2.2-15.1,6.2c-4,4-6.2,9.4-6.2,15.1v341.3
		c0,5.7,2.2,11.1,6.2,15.1c4,4,9.4,6.2,15.1,6.2h341.3v-42.7h-320V106.7h119.2l42.7,42.7h179.5V384h42.7V128
		C469.3,122.3,467.1,116.9,463.1,112.9z"/>
	<polygon points="426.7,448 448,448 448,448 469.3,448 469.3,426.7 469.3,426.7 469.3,405.3 426.7,405.3 	"/>
</g>
</svg>
