<?xml version="1.0" encoding="utf-8"?>
<!-- Generator: Adobe Illustrator 25.4.1, SVG Export Plug-In . SVG Version: 6.00 Build 0)  -->
<svg version="1.1" id="Layer_1" xmlns="http://www.w3.org/2000/svg" xmlns:xlink="http://www.w3.org/1999/xlink" x="0px" y="0px"
	 viewBox="0 0 512 512" enable-background="new 0 0 512 512" xml:space="preserve">
<g>
	<path d="M149.3,352l64-74.7l64,85.3l42.7-53.3l64,10.7l-64-64l-42.7,53.3l-64-106.7l-74.7,80l-32-29.7V85.3h192V192h106.7v213.3
		H448V170.7l-128.1-128H85.4C73.6,42.7,64,52.4,64,63.8v384.3c0,5.6,2.2,11,6.2,15c4,4,9.4,6.2,15,6.2H384v-42.7H106.7V325.3
		L149.3,352z"/>
	<polygon points="405.3,426.7 405.3,469.3 426.7,469.3 426.8,469.3 448,469.3 448,426.7 	"/>
</g>
</svg>
