<?xml version="1.0" encoding="utf-8"?>
<!-- Generator: Adobe Illustrator 25.4.1, SVG Export Plug-In . SVG Version: 6.00 Build 0)  -->
<svg version="1.1" id="Layer_1" xmlns="http://www.w3.org/2000/svg" xmlns:xlink="http://www.w3.org/1999/xlink" x="0px" y="0px"
	 viewBox="0 0 512 512" enable-background="new 0 0 512 512" xml:space="preserve">
<g>
	<rect x="170.7" y="320" width="170.7" height="42.7"/>
	<path d="M106.7,85.3h192V192h106.7v213.3H448V170.7l-128.1-128H85.4C73.6,42.7,64,52.4,64,63.8v384.3c0,5.6,2.2,11,6.2,15
		c4,4,9.4,6.2,15,6.2H384v-42.7H106.7V85.3z"/>
	<rect x="170.7" y="234.7" width="170.7" height="42.7"/>
	<rect x="170.7" y="149.3" width="64" height="42.7"/>
	<polygon points="405.3,426.7 405.3,469.3 426.7,469.3 426.8,469.3 448,469.3 448,426.7 	"/>
</g>
</svg>
