<?xml version="1.0" encoding="utf-8"?>
<!-- Generator: Adobe Illustrator 25.4.1, SVG Export Plug-In . SVG Version: 6.00 Build 0)  -->
<svg version="1.1" id="Layer_1" xmlns="http://www.w3.org/2000/svg" xmlns:xlink="http://www.w3.org/1999/xlink" x="0px" y="0px"
	 viewBox="0 0 512 512" enable-background="new 0 0 512 512" xml:space="preserve">
<g>
	<path d="M116,417.3c-6-6-9.4-14.1-9.4-22.6S110,378,116,372c6-6,14.1-9.4,22.6-9.4h266.7v42.7H448V64c0-5.7-2.2-11.1-6.2-15.1
		c-4-4-9.4-6.2-15.1-6.2H128c-17,0-33.3,6.7-45.3,18.7c-12,12-18.7,28.3-18.7,45.3v288c0,19.8,7.9,38.8,21.9,52.8
		c14,14,33,21.9,52.8,21.9H384v-42.7H138.7C130.2,426.7,122,423.3,116,417.3z M106.7,106.7c0-5.7,2.2-11.1,6.2-15.1
		c4-4,9.4-6.2,15.1-6.2h277.3V320H138.7c-11.1,0-22,2.4-32,7.2V106.7z"/>
	<rect x="405.3" y="426.7" width="42.7" height="42.7"/>
</g>
</svg>
