<?xml version="1.0" encoding="utf-8"?>
<!-- Generator: Adobe Illustrator 25.4.1, SVG Export Plug-In . SVG Version: 6.00 Build 0)  -->
<svg version="1.1" id="Layer_1" xmlns="http://www.w3.org/2000/svg" xmlns:xlink="http://www.w3.org/1999/xlink" x="0px" y="0px"
	 viewBox="0 0 512 512" enable-background="new 0 0 512 512" xml:space="preserve">
<g>
	<path d="M301.3,253.4c-12-12-28.3-18.7-45.3-18.7s-33.3,6.7-45.3,18.7c-12,12-18.7,28.3-18.7,45.3h128
		C320,281.7,313.3,265.4,301.3,253.4z"/>
	<path d="M256,213.3c11.3,0,22.2-4.5,30.2-12.5c8-8,12.5-18.9,12.5-30.2c0-11.3-4.5-22.2-12.5-30.2c-8-8-18.9-12.5-30.2-12.5
		s-22.2,4.5-30.2,12.5c-8,8-12.5,18.9-12.5,30.2c0,11.3,4.5,22.2,12.5,30.2C233.8,208.8,244.7,213.3,256,213.3z"/>
	<path d="M112.9,420.4c-4-4-6.2-9.4-6.2-15.1s2.2-11.1,6.2-15.1c4-4,9.4-6.2,15.1-6.2h277.3v21.3H448V64c0-5.7-2.2-11.1-6.2-15.1
		c-4-4-9.4-6.2-15.1-6.2H128c-17,0-33.3,6.7-45.3,18.7c-12,12-18.7,28.3-18.7,45.3v298.7c0,17,6.7,33.3,18.7,45.3
		c12,12,28.3,18.7,45.3,18.7h256v-42.7H128C122.3,426.7,116.9,424.4,112.9,420.4z M106.7,106.7c0-5.7,2.2-11.1,6.2-15.1
		c4-4,9.4-6.2,15.1-6.2h277.3v256H128c-7.5,0-14.7,1.3-21.3,3.6V106.7z"/>
	<rect x="405.3" y="426.7" width="42.7" height="42.7"/>
</g>
</svg>
