<?xml version="1.0" encoding="utf-8"?>
<!-- Generator: Adobe Illustrator 25.4.1, SVG Export Plug-In . SVG Version: 6.00 Build 0)  -->
<svg version="1.1" id="Layer_1" xmlns="http://www.w3.org/2000/svg" xmlns:xlink="http://www.w3.org/1999/xlink" x="0px" y="0px"
	 viewBox="0 0 512 512" enable-background="new 0 0 512 512" xml:space="preserve">
<g>
	<path d="M469.3,384.4V128c0-5.7-2.2-11.1-6.2-15.1c-4-4-9.4-6.2-15.1-6.2H264.8L222.2,64H64c-5.7,0-11.1,2.2-15.1,6.2
		c-4,4-6.2,9.4-6.2,15.1v341.3c0,5.7,2.2,11.1,6.2,15.1c4,4,9.4,6.2,15.1,6.2h341.3v-42.7h-320V234.7h341.3v149.7H469.3z M85.3,192
		v-85.3h119.2l42.7,42.7h179.5V192H85.3z"/>
	<rect x="426.7" y="405.7" width="42.7" height="42.7"/>
</g>
</svg>
