<?xml version="1.0" encoding="utf-8"?>
<!-- Generator: Adobe Illustrator 25.4.1, SVG Export Plug-In . SVG Version: 6.00 Build 0)  -->
<svg version="1.1" id="Layer_1" xmlns="http://www.w3.org/2000/svg" xmlns:xlink="http://www.w3.org/1999/xlink" x="0px" y="0px"
	 viewBox="0 0 512 512" enable-background="new 0 0 512 512" xml:space="preserve">
<g>
	<path d="M256,128H128v128h128V128z M213.3,213.3h-42.7v-42.7h42.7V213.3z"/>
	<path d="M384,213.3V64c0-5.7-2.2-11.1-6.2-15.1c-4-4-9.4-6.2-15.1-6.2H64c-5.7,0-11.1,2.2-15.1,6.2c-4,4-6.2,9.4-6.2,15.1v341.3
		c0,17,6.7,33.3,18.7,45.3c12,12,28.3,18.7,45.3,18.7h298.7v-42.7c-5.7,0-11.1-2.2-15.1-6.2c-4-4-6.2-9.4-6.2-15.1V256h42.7v149.3
		h42.7v-192H384z M341.3,426.7H106.7c-5.7,0-11.1-2.2-15.1-6.2c-4-4-6.2-9.4-6.2-15.1v-320h256V426.7z"/>
	<rect x="128" y="341.3" width="170.7" height="42.7"/>
	<rect x="128" y="277.3" width="170.7" height="42.7"/>
	<rect x="426.7" y="426.7" width="42.7" height="42.7"/>
</g>
</svg>
