<?xml version="1.0" encoding="utf-8"?>
<!-- Generator: Adobe Illustrator 25.4.1, SVG Export Plug-In . SVG Version: 6.00 Build 0)  -->
<svg version="1.1" id="Layer_1" xmlns="http://www.w3.org/2000/svg" xmlns:xlink="http://www.w3.org/1999/xlink" x="0px" y="0px"
	 viewBox="0 0 512 512" enable-background="new 0 0 512 512" xml:space="preserve">
<g>
	<path d="M480.7,377.8c-7.8-11.5-19.3-19.9-32.7-23.6l0-2.2c0-19.8-7.9-38.8-21.9-52.8c-14-14-33-21.9-52.8-21.9h0
		c-19.8,0-38.8,7.9-52.8,21.9c-14,14-21.9,33-21.9,52.8l0.1,2.2c-13.3,3.8-24.9,12.1-32.7,23.6c-7.8,11.5-11.2,25.3-9.7,39.1
		c1.5,13.8,7.8,26.6,17.8,36.2c10,9.6,23.1,15.3,37,16.1l3.6,0.1h112.1v-42.7H314.6l-2.3-0.2c-3.6-0.6-7-2.3-9.4-5.1
		c-2.5-2.7-3.9-6.2-4.1-9.9c-0.2-3.7,0.9-7.3,3-10.3c2.2-3,5.3-5.1,8.8-6.1l30.8-8.7V352l0.1-3.1l0.4-3c1.4-7.3,5.3-13.9,11.1-18.6
		c5.7-4.7,12.9-7.3,20.4-7.3c8,0,15.6,3,21.5,8.3c5.9,5.3,9.6,12.7,10.3,20.6l0.1,3.1v34.6l9.2,2.6l21.6,6c3.7,1,7,3.3,9.1,6.6
		c0.7,1.1,1.3,2.3,1.8,3.6h43.4C489.6,395.5,486.2,386.1,480.7,377.8z"/>
	<path d="M106.7,426.7V85.3h192V192h106.7l0,47.1c15.6,4.4,30.2,12.1,42.7,22.5l0-90.9l-128.1-128H85.4l-2.5,0.1
		C72.3,44.1,64,53.2,64,63.8v384.3l0.1,2.5c0.6,5.1,3.1,9.9,7,13.3c3.9,3.4,8.9,5.3,14.1,5.3H232c-9-12.7-15-27.3-17.4-42.7H106.7z"
		/>
	<rect x="448.1" y="426.7" width="42.7" height="42.7"/>
</g>
</svg>
