<?xml version="1.0" encoding="utf-8"?>
<!-- Generator: Adobe Illustrator 25.4.1, SVG Export Plug-In . SVG Version: 6.00 Build 0)  -->
<svg version="1.1" id="Layer_1" xmlns="http://www.w3.org/2000/svg" xmlns:xlink="http://www.w3.org/1999/xlink" x="0px" y="0px"
	 viewBox="0 0 512 512" enable-background="new 0 0 512 512" xml:space="preserve">
<g>
	<path d="M469.3,384.4V85.3c0-5.7-2.2-11.1-6.2-15.1c-4-4-9.4-6.2-15.1-6.2h-85.3v42.7h64v277.7H469.3z"/>
	<path d="M149.3,298.7h128v-128H106.7v170.7h42.7V298.7z M149.3,213.3h85.3V256h-85.3V213.3z"/>
	<path d="M337.7,25.6c-1.2-1-2.5-1.7-4-2.2c-1.5-0.4-3-0.5-4.5-0.3L61,61.4h0c-5.1,0.7-9.7,3.3-13.1,7.1c-3.4,3.9-5.2,8.8-5.2,14
		v347c0,5.1,1.9,10.1,5.2,14c3.4,3.9,8,6.4,13.1,7.1l268.2,38.3c1.5,0.2,3.1,0.1,4.5-0.3c1.5-0.4,2.8-1.2,4-2.2
		c1.2-1,2.1-2.2,2.7-3.6s1-2.9,1-4.4V33.6c0-1.5-0.3-3-1-4.4C339.7,27.8,338.8,26.6,337.7,25.6z M298.7,441.5L85.3,411V101
		l213.3-30.5V441.5z"/>
	<rect x="362.7" y="405.3" width="42.7" height="42.7"/>
	<rect x="426.7" y="405.7" width="42.7" height="42.7"/>
</g>
</svg>
