<?xml version="1.0" encoding="utf-8"?>
<!-- Generator: Adobe Illustrator 25.4.1, SVG Export Plug-In . SVG Version: 6.00 Build 0)  -->
<svg version="1.1" id="Layer_1" xmlns="http://www.w3.org/2000/svg" xmlns:xlink="http://www.w3.org/1999/xlink" x="0px" y="0px"
	 viewBox="0 0 512 512" enable-background="new 0 0 512 512" xml:space="preserve">
<g>
	<path d="M106.7,85.3H320v85.3h85.3v234.7H448v-256L341.3,42.7h-256C73.5,42.7,64,52.1,64,63.8l0,384.3c0,5.6,2.3,11,6.3,14.9
		s9.3,6.2,14.9,6.2H384v-42.7H106.7V85.3z"/>
	<path d="M256,170.7c-16.9,0-33.4,5-47.4,14.4c-14,9.4-25,22.7-31.4,38.3c-6.5,15.6-8.1,32.7-4.9,49.3c3.3,16.6,11.4,31.8,23.4,43.7
		c11.9,11.9,27.1,20.1,43.7,23.4c16.6,3.3,33.7,1.6,49.3-4.9c15.6-6.5,28.9-17.4,38.3-31.4c9.4-14,14.4-30.5,14.4-47.4H256V170.7
		L256,170.7z"/>
	<polygon points="405.3,426.7 405.3,469.3 426.7,469.3 426.8,469.3 448,469.3 448,426.7 	"/>
</g>
</svg>
