<?xml version="1.0" encoding="utf-8"?>
<!-- Generator: Adobe Illustrator 25.4.1, SVG Export Plug-In . SVG Version: 6.00 Build 0)  -->
<svg version="1.1" id="Layer_1" xmlns="http://www.w3.org/2000/svg" xmlns:xlink="http://www.w3.org/1999/xlink" x="0px" y="0px"
	 viewBox="0 0 512 512" enable-background="new 0 0 512 512" xml:space="preserve">
<g>
	<path d="M469.3,384.4V128c0-5.7-2.2-11.1-6.2-15.1c-4-4-9.4-6.2-15.1-6.2H264.8L222.2,64H64c-5.7,0-11.1,2.2-15.1,6.2
		c-4,4-6.2,9.4-6.2,15.1v341.3c0,5.7,2.2,11.1,6.2,15.1c4,4,9.4,6.2,15.1,6.2h341.3v-42.7h-320V106.7h119.2l42.7,42.7h179.5v235.1
		H469.3z"/>
	<path d="M277.3,362.7l0-91.1c8.1-4.7,14.5-11.9,18.1-20.6c3.6-8.7,4.2-18.3,1.8-27.4c-2.4-9.1-7.8-17.1-15.2-22.8
		c-7.5-5.7-16.6-8.8-26-8.8c-9.4,0-18.5,3.1-26,8.8c-7.4,5.7-12.8,13.7-15.2,22.8c-2.4,9.1-1.8,18.7,1.8,27.4
		c3.6,8.7,9.9,15.9,18.1,20.6v91.1H277.3z"/>
	<rect x="426.7" y="405.7" width="42.7" height="42.7"/>
</g>
</svg>
