<?xml version="1.0" encoding="utf-8"?>
<!-- Generator: Adobe Illustrator 25.4.1, SVG Export Plug-In . SVG Version: 6.00 Build 0)  -->
<svg version="1.1" id="Layer_1" xmlns="http://www.w3.org/2000/svg" xmlns:xlink="http://www.w3.org/1999/xlink" x="0px" y="0px"
	 viewBox="0 0 512 512" enable-background="new 0 0 512 512" xml:space="preserve">
<g>
	<path d="M134.2,112.9c-4,4-6.2,9.4-6.2,15.1s2.2,11.1,6.2,15.1c4,4,9.4,6.2,15.1,6.2h277.3v-42.7H149.3
		C143.7,106.7,138.2,108.9,134.2,112.9z"/>
	<path d="M119.2,414.2c-8-8-12.5-18.9-12.5-30.2V201.9c13,7.5,27.7,11.4,42.7,11.4h256v192H448V170.7H149.3
		c-11.3,0-22.2-4.5-30.2-12.5c-8-8-12.5-18.9-12.5-30.2s4.5-22.2,12.5-30.2c8-8,18.9-12.5,30.2-12.5H448V64c0-5.7-2.2-11.1-6.2-15.1
		c-4-4-9.4-6.2-15.1-6.2H149.3c-22.6,0-44.3,9-60.3,25c-16,16-25,37.7-25,60.3v256c0,22.6,9,44.3,25,60.3c16,16,37.7,25,60.3,25H384
		v-42.7H149.3C138,426.7,127.2,422.2,119.2,414.2z"/>
	<rect x="405.3" y="426.7" width="42.7" height="42.7"/>
</g>
</svg>
