<?xml version="1.0" encoding="utf-8"?>
<!-- Generator: Adobe Illustrator 25.4.1, SVG Export Plug-In . SVG Version: 6.00 Build 0)  -->
<svg version="1.1" id="Layer_1" xmlns="http://www.w3.org/2000/svg" xmlns:xlink="http://www.w3.org/1999/xlink" x="0px" y="0px"
	 viewBox="0 0 512 512" enable-background="new 0 0 512 512" xml:space="preserve">
<g>
	<path d="M441.8,48.9c-4-4-9.4-6.2-15.1-6.2H85.3c-5.7,0-11.1,2.2-15.1,6.2c-4,4-6.2,9.4-6.2,15.1v384c0,5.7,2.2,11.1,6.2,15.1
		c4,4,9.4,6.2,15.1,6.2H384v-42.7H106.7v-256h298.7v234.7H448V64C448,58.3,445.8,52.9,441.8,48.9z M405.3,128H106.7V85.3h298.7V128z
		"/>
	<rect x="277.3" y="234.7" width="85.3" height="42.7"/>
	<rect x="149.3" y="341.3" width="213.3" height="42.7"/>
	<rect x="149.3" y="213.3" width="85.3" height="85.3"/>
	<polygon points="405.3,469.3 426.7,469.3 426.7,469.3 448,469.3 448,448 448,448 448,426.7 405.3,426.7 	"/>
</g>
</svg>
