<?xml version="1.0" encoding="utf-8"?>
<!-- Generator: Adobe Illustrator 25.4.1, SVG Export Plug-In . SVG Version: 6.00 Build 0)  -->
<svg version="1.1" id="Layer_1" xmlns="http://www.w3.org/2000/svg" xmlns:xlink="http://www.w3.org/1999/xlink" x="0px" y="0px"
	 viewBox="0 0 512 512" enable-background="new 0 0 512 512" xml:space="preserve">
<g>
	<path d="M235.9,426.7H128v42.7h162.7L261,449.8C251.3,443.4,242.9,435.6,235.9,426.7z"/>
	<path d="M319.9,42.7H85.4C73.6,42.7,64,52.4,64,63.8v341.5h42.7v-320h192V192l149.3,0v-21.3L319.9,42.7z"/>
	<path d="M256,361.6c0,10.4,2.6,20.7,7.6,29.9c5,9.2,12.2,17,20.9,22.7l67.5,44.5l67.5-44.5c17.8-11.7,28.5-31.5,28.5-52.6V234.7
		H256V361.6z M298.7,277.3h106.7v84.2c0,3.4-0.9,6.7-2.5,9.7c-1.6,3-4,5.5-6.8,7.3l-44,29l-44-29c-5.8-3.9-9.3-10.2-9.3-17V277.3z"
		/>
	<polygon points="64,448 64,448.2 64,469.3 85.2,469.3 85.3,469.3 106.7,469.3 106.7,426.7 64,426.7 	"/>
</g>
</svg>
