<?xml version="1.0" encoding="utf-8"?>
<!-- Generator: Adobe Illustrator 25.4.1, SVG Export Plug-In . SVG Version: 6.00 Build 0)  -->
<svg version="1.1" id="Layer_1" xmlns="http://www.w3.org/2000/svg" xmlns:xlink="http://www.w3.org/1999/xlink" x="0px" y="0px"
	 viewBox="0 0 512 512" enable-background="new 0 0 512 512" xml:space="preserve">
<g>
	<path d="M106.7,85.3H320v85.3h85.3v234.7H448v-256L341.3,42.7h-256C73.5,42.7,64,52.1,64,63.8l0,384.3c0,5.6,2.3,11,6.3,14.9
		s9.3,6.2,14.9,6.2H384v-42.7H106.7V85.3z"/>
	<path d="M301.3,168.1c-12-12-28.3-18.7-45.3-18.7s-33.3,6.7-45.3,18.7c-12,12-18.7,28.3-18.7,45.3v21.3h-21.3v106.7h170.7V234.7
		H320v-21.3C320,196.4,313.3,180.1,301.3,168.1z M277.3,234.7h-42.7v-21.3c0-5.7,2.2-11.1,6.2-15.1c4-4,9.4-6.2,15.1-6.2
		s11.1,2.2,15.1,6.2c4,4,6.2,9.4,6.2,15.1V234.7z"/>
	<polygon points="405.3,426.7 405.3,469.3 426.7,469.3 426.8,469.3 448,469.3 448,426.7 	"/>
</g>
</svg>
