<?xml version="1.0" encoding="utf-8"?>
<!-- Generator: Adobe Illustrator 25.4.1, SVG Export Plug-In . SVG Version: 6.00 Build 0)  -->
<svg version="1.1" id="Layer_1" xmlns="http://www.w3.org/2000/svg" xmlns:xlink="http://www.w3.org/1999/xlink" x="0px" y="0px"
	 viewBox="0 0 512 512" enable-background="new 0 0 512 512" xml:space="preserve">
<g>
	<path d="M106.7,128h42.7v42.7h213.3V128h42.7v277.3H448V106.5c0-11.7-9.5-21.2-21.2-21.2h-64.1V42.7H149.3v42.7H85.2
		c-11.7,0-21.2,9.5-21.2,21.2v341.6c0,5.6,2.2,11,6.2,15c4,4,9.4,6.2,15,6.2H384v-42.7H106.7V128z M192,85.3h128V128H192V85.3z"/>
	<polygon points="405.3,426.7 405.3,469.3 426.7,469.3 426.8,469.3 448,469.3 448,426.7 	"/>
</g>
</svg>
