<?xml version="1.0" encoding="utf-8"?>
<!-- Generator: Adobe Illustrator 25.4.1, SVG Export Plug-In . SVG Version: 6.00 Build 0)  -->
<svg version="1.1" id="Layer_1" xmlns="http://www.w3.org/2000/svg" xmlns:xlink="http://www.w3.org/1999/xlink" x="0px" y="0px"
	 viewBox="0 0 512 512" enable-background="new 0 0 512 512" xml:space="preserve">
<g>
	<path d="M448,128c0-5.7-2.2-11.1-6.2-15.1c-4-4-9.4-6.2-15.1-6.2H286.2L243.5,64H85.3c-5.7,0-11.1,2.2-15.1,6.2
		c-4,4-6.2,9.4-6.2,15.1v64h384V128z"/>
	<path d="M466.3,206.4c-1-2.8-2.5-5.4-4.5-7.5s-4.4-3.9-7.1-5.1c-2.7-1.2-5.6-1.8-8.6-1.8H65.9h0c-3,0-5.9,0.6-8.6,1.8
		c-2.7,1.2-5.1,2.9-7.1,5.1c-2,2.2-3.5,4.7-4.5,7.5c-1,2.8-1.3,5.8-1.1,8.7l17.8,213.3c0.4,5.3,2.9,10.3,6.8,13.9
		c3.9,3.6,9.1,5.6,14.4,5.6h306.2v-42.7H103.3L89,234.7H423l-12.5,149.7h42.8l14.1-169.3C467.7,212.2,467.3,209.2,466.3,206.4z"/>
	<rect x="411.2" y="405.7" width="42.7" height="42.7"/>
</g>
</svg>
