<?xml version="1.0" encoding="utf-8"?>
<!-- Generator: Adobe Illustrator 25.4.1, SVG Export Plug-In . SVG Version: 6.00 Build 0)  -->
<svg version="1.1" id="Layer_1" xmlns="http://www.w3.org/2000/svg" xmlns:xlink="http://www.w3.org/1999/xlink" x="0px" y="0px"
	 viewBox="0 0 512 512" enable-background="new 0 0 512 512" xml:space="preserve">
<g>
	<path d="M106.7,85.3H320v85.3h85.3v234.7H448v-256L341.3,42.7h-256C73.5,42.7,64,52.1,64,63.8l0,384.3c0,5.6,2.3,11,6.3,14.9
		s9.3,6.2,14.9,6.2H384v-42.7H106.7V85.3z"/>
	<path d="M277.3,284.9L277.3,284.9c12.7-3.8,24.1-10.9,33.2-20.5c9-9.7,15.4-21.5,18.3-34.4c2.9-12.9,2.4-26.3-1.5-39
		c-4-12.6-11.2-24-21-32.9c-9.8-8.9-21.7-15.1-34.7-17.8c-12.9-2.8-26.4-2.1-38.9,2.1c-12.6,4.1-23.8,11.5-32.6,21.4
		c-8.8,9.9-14.8,21.9-17.4,34.9l41.9,8.4c1.2-5.9,4-11.4,8.2-15.8c4.2-4.4,9.5-7.5,15.4-9c5.9-1.5,12.1-1.2,17.8,0.7
		c5.8,1.9,10.8,5.4,14.7,10.1c3.8,4.7,6.3,10.4,7,16.4c0.7,6-0.2,12.1-2.8,17.6c-2.6,5.5-6.7,10.1-11.8,13.3c-5.1,3.2-11.1,5-17.1,5
		c-5.7,0-11.1,2.2-15.1,6.2s-6.2,9.4-6.2,15.1v32h42.7V284.9z"/>
	<rect x="234.7" y="320" width="42.7" height="42.7"/>
	<polygon points="405.3,426.7 405.3,469.3 426.7,469.3 426.8,469.3 448,469.3 448,426.7 	"/>
</g>
</svg>
