<?xml version="1.0" encoding="utf-8"?>
<!-- Generator: Adobe Illustrator 25.4.1, SVG Export Plug-In . SVG Version: 6.00 Build 0)  -->
<svg version="1.1" id="Layer_1" xmlns="http://www.w3.org/2000/svg" xmlns:xlink="http://www.w3.org/1999/xlink" x="0px" y="0px"
	 viewBox="0 0 512 512" enable-background="new 0 0 512 512" xml:space="preserve">
<g>
	<path d="M426.8,85.3h-64.1V42.7H149.3v42.7H85.2c-11.7,0-21.2,9.5-21.2,21.2v341.6c0,11.7,9.5,21.2,21.2,21.2H384v-42.7H106.7V128
		h42.7v42.7h213.3V128h42.7v277.3H448V106.5C448,94.8,438.5,85.3,426.8,85.3z M320,128H192V85.3h128V128z"/>
	<rect x="149.3" y="213.3" width="42.7" height="42.7"/>
	<rect x="149.3" y="341.3" width="42.7" height="42.7"/>
	<rect x="149.3" y="277.3" width="42.7" height="42.7"/>
	<polygon points="405.3,469.3 426.7,469.3 426.8,469.3 448,469.3 448,448.1 448,448 448,426.7 405.3,426.7 	"/>
</g>
</svg>
