<?xml version="1.0" encoding="utf-8"?>
<!-- Generator: Adobe Illustrator 25.4.1, SVG Export Plug-In . SVG Version: 6.00 Build 0)  -->
<svg version="1.1" id="Layer_1" xmlns="http://www.w3.org/2000/svg" xmlns:xlink="http://www.w3.org/1999/xlink" x="0px" y="0px"
	 viewBox="0 0 512 512" enable-background="new 0 0 512 512" xml:space="preserve">
<g>
	<rect x="170.7" y="149.3" width="170.7" height="42.7"/>
	<path d="M112.9,420.4c-4-4-6.2-9.4-6.2-15.1s2.2-11.1,6.2-15.1c4-4,9.4-6.2,15.1-6.2h320V42.7H106.7c-11.3,0-22.2,4.5-30.2,12.5
		C68.5,63.2,64,74,64,85.3v320c0,17,6.7,33.3,18.7,45.3c12,12,28.3,18.7,45.3,18.7h256v-42.7H128
		C122.3,426.7,116.9,424.4,112.9,420.4z M106.7,85.3h298.7v256h-288c-3.6,0-7.2,0.4-10.7,1.1V85.3z"/>
	<rect x="405.3" y="426.7" width="42.7" height="42.7"/>
</g>
</svg>
