<?xml version="1.0" encoding="utf-8"?>
<!-- Generator: Adobe Illustrator 25.4.1, SVG Export Plug-In . SVG Version: 6.00 Build 0)  -->
<svg version="1.1" id="Layer_1" xmlns="http://www.w3.org/2000/svg" xmlns:xlink="http://www.w3.org/1999/xlink" x="0px" y="0px"
	 viewBox="0 0 512 512" enable-background="new 0 0 512 512" xml:space="preserve">
<g>
	<path d="M106.7,85.3h192v85.3l-128,0v119.9c0,18,9.5,34.8,25.3,44.8l60,37.9l60-37.9c15.8-10,25.3-26.8,25.3-44.8V192h64v213.3H448
		V170.7l-128.1-128H85.4C73.6,42.7,64,52.4,64,63.8v384.3c0,5.6,2.2,11,6.2,15c4,4,9.4,6.2,15,6.2H384v-42.7H106.7V85.3z
		 M298.7,290.6c0,3.2-1.9,6.5-5.4,8.7L256,322.8l-37.2-23.5c-3.6-2.3-5.4-5.5-5.4-8.7v-77.2h85.3V290.6z"/>
	<polygon points="405.3,426.7 405.3,469.3 426.7,469.3 426.8,469.3 448,469.3 448,426.7 	"/>
</g>
</svg>
