<?xml version="1.0" encoding="utf-8"?>
<!-- Generator: Adobe Illustrator 25.4.1, SVG Export Plug-In . SVG Version: 6.00 Build 0)  -->
<svg version="1.1" id="Layer_1" xmlns="http://www.w3.org/2000/svg" xmlns:xlink="http://www.w3.org/1999/xlink" x="0px" y="0px"
	 viewBox="0 0 512 512" enable-background="new 0 0 512 512" xml:space="preserve">
<g>
	<rect x="64" y="341.3" width="42.7" height="128"/>
	<rect x="149.3" y="341.3" width="42.7" height="128"/>
	<polygon points="426.7,256 426.7,149.3 320,42.7 149.3,42.7 149.3,85.3 298.7,85.3 298.7,170.7 384,170.7 384,256 128,256 
		128,106.7 85.3,106.7 85.3,256 42.7,256 42.7,298.7 469.3,298.7 469.3,256 	"/>
	<rect x="234.7" y="341.3" width="42.7" height="128"/>
	<rect x="405.3" y="341.3" width="42.7" height="128"/>
	<rect x="320" y="341.3" width="42.7" height="128"/>
	<polygon points="128,42.7 106.7,42.7 106.6,42.7 85.3,42.7 85.3,63.9 85.3,64 85.3,85.3 128,85.3 	"/>
</g>
</svg>
