<?xml version="1.0" encoding="utf-8"?>
<!-- Generator: Adobe Illustrator 25.4.1, SVG Export Plug-In . SVG Version: 6.00 Build 0)  -->
<svg version="1.1" id="Layer_1" xmlns="http://www.w3.org/2000/svg" xmlns:xlink="http://www.w3.org/1999/xlink" x="0px" y="0px"
	 viewBox="0 0 512 512" enable-background="new 0 0 512 512" xml:space="preserve">
<path d="M426.8,42.7H85.2c-5.6,0-11,2.3-14.9,6.2c-4,4-6.2,9.3-6.3,14.9v384.3c0,5.6,2.2,11,6.2,15s9.4,6.2,15,6.2H384v-42.7H106.7
	V85.3h298.7v320H448V63.8l0,0C448,52.1,438.5,42.7,426.8,42.7z"/>
<polygon points="405.3,469.3 426.7,469.3 426.8,469.3 448,469.3 448,448.2 448,448 448,426.7 405.3,426.7 "/>
<g>
	<polygon points="240.9,279.9 188.1,227.1 157.9,257.3 240.9,340.3 316.4,264.8 286.2,234.6 	"/>
	<polygon points="361.6,219.6 331.4,189.4 331.4,189.4 331.4,189.4 316.3,204.5 316.3,204.5 301.3,219.6 331.4,249.7 346.5,234.7 
		346.5,234.7 361.6,219.6 361.6,219.6 	"/>
</g>
</svg>
