<?xml version="1.0" encoding="utf-8"?>
<!-- Generator: Adobe Illustrator 25.4.1, SVG Export Plug-In . SVG Version: 6.00 Build 0)  -->
<svg version="1.1" id="Layer_1" xmlns="http://www.w3.org/2000/svg" xmlns:xlink="http://www.w3.org/1999/xlink" x="0px" y="0px"
	 viewBox="0 0 512 512" enable-background="new 0 0 512 512" xml:space="preserve">
<g>
	<path d="M106.7,85.3H320v85.3h85.3v234.7H448v-256L341.3,42.7h-256C73.5,42.7,64,52.1,64,63.8l0,384.3c0,5.6,2.3,11,6.3,14.9
		s9.3,6.2,14.9,6.2H384v-42.7H106.7V85.3z"/>
	<path d="M160.6,362.7l190.8,0c-2.6-23.5-13.8-45.2-31.4-61c-17.6-15.8-40.4-24.5-64.1-24.5s-46.5,8.7-64.1,24.5
		C174.3,317.4,163.2,339.2,160.6,362.7z"/>
	<path d="M293.7,229.7c10-10,15.6-23.6,15.6-37.7s-5.6-27.7-15.6-37.7c-10-10-23.6-15.6-37.7-15.6s-27.7,5.6-37.7,15.6
		c-10,10-15.6,23.6-15.6,37.7s5.6,27.7,15.6,37.7c10,10,23.6,15.6,37.7,15.6S283.7,239.7,293.7,229.7z"/>
	<polygon points="405.3,426.7 405.3,469.3 426.7,469.3 426.8,469.3 448,469.3 448,426.7 	"/>
</g>
</svg>
