<?xml version="1.0" encoding="utf-8"?>
<!-- Generator: Adobe Illustrator 25.4.1, SVG Export Plug-In . SVG Version: 6.00 Build 0)  -->
<svg version="1.1" id="Layer_1" xmlns="http://www.w3.org/2000/svg" xmlns:xlink="http://www.w3.org/1999/xlink" x="0px" y="0px"
	 viewBox="0 0 512 512" enable-background="new 0 0 512 512" xml:space="preserve">
<g>
	<polygon points="181.3,277.3 234.7,277.3 234.7,373.3 330.7,234.7 277.3,234.7 277.3,138.7 	"/>
	<path d="M444.3,239.9c-7.4-37.2-25.7-71.5-52.5-98.3l-90.5-90.5l-30.2,30.2l90.5,90.5c20.9,20.9,35.1,47.5,40.9,76.5
		c5.8,29,2.8,59-8.5,86.3c-11.3,27.3-30.4,50.6-55,67c-24.6,16.4-53.4,25.2-83,25.2s-58.4-8.8-83-25.2c-24.6-16.4-43.7-39.7-55-67
		c-11.3-27.3-14.3-57.3-8.5-86.3c5.8-29,20-55.6,40.9-76.5l90.5-90.5l-30.2-30.2l-90.5,90.5c-26.9,26.9-45.1,61.1-52.5,98.3
		c-7.4,37.2-3.6,75.8,10.9,110.9c14.5,35.1,39.1,65.1,70.7,86.2c31.6,21.1,68.7,32.4,106.7,32.4s75.1-11.3,106.7-32.4
		c31.6-21.1,56.2-51.1,70.7-86.2C447.9,315.7,451.7,277.1,444.3,239.9z"/>
	<polygon points="286.2,36 271.1,20.9 271.1,20.9 256,5.8 240.9,20.9 225.8,36 256,66.1 	"/>
</g>
</svg>
