<?xml version="1.0" encoding="utf-8"?>
<!-- Generator: Adobe Illustrator 25.4.1, SVG Export Plug-In . SVG Version: 6.00 Build 0)  -->
<svg version="1.1" id="Layer_1" xmlns="http://www.w3.org/2000/svg" xmlns:xlink="http://www.w3.org/1999/xlink" x="0px" y="0px"
	 viewBox="0 0 512 512" enable-background="new 0 0 512 512" xml:space="preserve">
<path d="M441.8,48.9c-4-4-9.4-6.2-15.1-6.2H85.3h0c-5.7,0-11.1,2.2-15.1,6.2c-4,4-6.2,9.4-6.2,15.1v341.3h42.7V208
	c29.4,21.2,63,35.8,98.5,43c3.5,10.8,10.2,20.1,19.4,26.8c9.1,6.7,20.1,10.2,31.4,10.2c11.3,0,22.3-3.6,31.4-10.2s15.9-16,19.4-26.8
	l0,0c35.5-7.2,69.1-21.8,98.5-43v218.7H128v42.7h-21.3v-42.7H64V448v0v21.3h21.3c0,0,0,0,0,0h341.3c5.7,0,11.1-2.2,15.1-6.2
	s6.2-9.4,6.2-15.1V64C448,58.3,445.8,52.9,441.8,48.9z M405.3,152.3c-28.4,27.9-64.1,47.3-103,55.9h0c-4.7-8.2-11.4-15-19.5-19.7
	s-17.4-7.2-26.8-7.2c-9.4,0-18.7,2.5-26.8,7.2c-8.1,4.7-14.9,11.5-19.5,19.7c-38.9-8.6-74.6-28-103-55.9v-67h298.7V152.3z"/>
</svg>
