<?xml version="1.0" encoding="utf-8"?>
<!-- Generator: Adobe Illustrator 25.4.1, SVG Export Plug-In . SVG Version: 6.00 Build 0)  -->
<svg version="1.1" id="Layer_1" xmlns="http://www.w3.org/2000/svg" xmlns:xlink="http://www.w3.org/1999/xlink" x="0px" y="0px"
	 viewBox="0 0 512 512" enable-background="new 0 0 512 512" xml:space="preserve">
<g>
	<path d="M448,213.3V64c0-5.7-2.2-11.1-6.2-15.1c-4-4-9.4-6.2-15.1-6.2H128v42.7h277.3v96.7c-25.5,14.8-42.7,42.3-42.7,73.9
		c0,15,3.9,29.7,11.4,42.7c7.5,13,18.3,23.8,31.2,31.2v96.7H106.7v-96.7c25.5-14.8,42.7-42.3,42.7-73.9s-17.2-59.2-42.7-73.9v-75.4
		H64v106.7c11.3,0,22.2,4.5,30.2,12.5c8,8,12.5,18.9,12.5,30.2s-4.5,22.2-12.5,30.2c-8,8-18.9,12.5-30.2,12.5V448
		c0,5.7,2.2,11.1,6.2,15.1c4,4,9.4,6.2,15.1,6.2h341.3c5.7,0,11.1-2.2,15.1-6.2s6.2-9.4,6.2-15.1V298.7c-11.3,0-22.2-4.5-30.2-12.5
		c-8-8-12.5-18.9-12.5-30.2s4.5-22.2,12.5-30.2C425.8,217.8,436.7,213.3,448,213.3z"/>
	<rect x="192" y="128" width="128" height="42.7"/>
	<rect x="192" y="341.3" width="128" height="42.7"/>
	<polygon points="106.7,42.7 85.3,42.7 85.3,42.7 64,42.7 64,64 64,64 64,85.3 106.7,85.3 	"/>
</g>
</svg>
