<?xml version="1.0" encoding="utf-8"?>
<!-- Generator: Adobe Illustrator 25.4.1, SVG Export Plug-In . SVG Version: 6.00 Build 0)  -->
<svg version="1.1" id="Layer_1" xmlns="http://www.w3.org/2000/svg" xmlns:xlink="http://www.w3.org/1999/xlink" x="0px" y="0px"
	 viewBox="0 0 512 512" enable-background="new 0 0 512 512" xml:space="preserve">
<g>
	<path d="M234.7,170.7c17,0,33.3-6.7,45.3-18.7c12-12,18.7-28.3,18.7-45.3s-6.7-33.3-18.7-45.3c-12-12-28.3-18.7-45.3-18.7
		c-17,0-33.3,6.7-45.3,18.7c-12,12-18.7,28.3-18.7,45.3c0,17,6.7,33.3,18.7,45.3C201.4,163.9,217.7,170.7,234.7,170.7z M219.6,91.6
		c4-4,9.4-6.2,15.1-6.2s11.1,2.2,15.1,6.2c4,4,6.2,9.4,6.2,15.1s-2.2,11.1-6.2,15.1c-4,4-9.4,6.2-15.1,6.2s-11.1-2.2-15.1-6.2
		c-4-4-6.2-9.4-6.2-15.1S215.6,95.6,219.6,91.6z"/>
	<path d="M384,234.7c17,0,33.3-6.7,45.3-18.7c12-12,18.7-28.3,18.7-45.3c0-17-6.7-33.3-18.7-45.3c-12-12-28.3-18.7-45.3-18.7
		c-17,0-33.3,6.7-45.3,18.7c-12,12-18.7,28.3-18.7,45.3c0,17,6.7,33.3,18.7,45.3C350.7,227.9,367,234.7,384,234.7z M368.9,155.6
		c4-4,9.4-6.2,15.1-6.2s11.1,2.2,15.1,6.2c4,4,6.2,9.4,6.2,15.1c0,5.7-2.2,11.1-6.2,15.1c-4,4-9.4,6.2-15.1,6.2s-11.1-2.2-15.1-6.2
		c-4-4-6.2-9.4-6.2-15.1S364.9,159.6,368.9,155.6z"/>
	<path d="M462.3,293.8c-17.1-10.8-36.8-16.5-57-16.5h-67.1c-17.6-19.6-43.1-32-71.6-32h-46.3c-26.3-20.8-58.9-32-92.4-32
		c0-5.7-2.2-11.1-6.2-15.1c-4-4-9.4-6.2-15.1-6.2h-64c-5.7,0-11.1,2.2-15.1,6.2c-4,4-6.2,9.4-6.2,15.1v149.3H64v-128h21.3v128h0v64
		H64V384H21.3v21.3v0v21.3h21.2c0,0,0.1,0,0.1,0h64c4.4,0,8.7-1.3,12.2-3.8c3.6-2.5,6.3-6.1,7.8-10.2
		c40.7,22.5,91.1,35.4,150.6,35.4c92.2,0,173.9-43.3,224.3-109.8C493,319.9,479.4,304.6,462.3,293.8z M444.5,338.6
		c-43.4,42.1-103.1,66.8-167.1,66.8c-60.2,0-110.1-14.6-148.4-41.5l-1-0.7l0-107.1l0,0c14.2,0,28.2,2.8,41.3,8.3
		c13.1,5.5,24.9,13.5,34.8,23.7h62.5l3.5,0.1c9.5,0.6,18.6,3.7,26.4,9.1c7.8,5.3,14.1,12.6,18.2,21.2l0.7,1.7l-144.9,0v42.7h192
		v-21.3c0-7.3-0.8-14.5-2.4-21.3h45l4.4,0.1c12.8,0.9,25,5.6,35.1,13.4l2.6,2.1L444.5,338.6z"/>
</g>
</svg>
