<?xml version="1.0" encoding="utf-8"?>
<!-- Generator: Adobe Illustrator 25.4.1, SVG Export Plug-In . SVG Version: 6.00 Build 0)  -->
<svg version="1.1" id="Layer_1" xmlns="http://www.w3.org/2000/svg" xmlns:xlink="http://www.w3.org/1999/xlink" x="0px" y="0px"
	 viewBox="0 0 512 512" enable-background="new 0 0 512 512" xml:space="preserve">
<g>
	<path d="M469.3,202.7V85.3c0-5.7-2.2-11.1-6.2-15.1c-4-4-9.4-6.2-15.1-6.2H106.7v42.7h320V170c-16,7.9-29.5,20.2-38.9,35.4
		c-9.4,15.2-14.4,32.7-14.4,50.6s5,35.4,14.4,50.6c9.4,15.2,22.9,27.5,38.9,35.4v63.3H85.3V342c16-7.9,29.5-20.2,38.9-35.4
		c9.4-15.2,14.4-32.7,14.4-50.6s-5-35.4-14.4-50.6c-9.4-15.2-22.9-27.5-38.9-35.4v-42H64H42.7v74.7c14.1,0,27.7,5.6,37.7,15.6
		c10,10,15.6,23.6,15.6,37.7s-5.6,27.7-15.6,37.7c-10,10-23.6,15.6-37.7,15.6v117.3c0,5.7,2.2,11.1,6.2,15.1c4,4,9.4,6.2,15.1,6.2
		h384c5.7,0,11.1-2.2,15.1-6.2s6.2-9.4,6.2-15.1V309.3c-14.1,0-27.7-5.6-37.7-15.6c-10-10-15.6-23.6-15.6-37.7s5.6-27.7,15.6-37.7
		C441.6,208.3,455.2,202.7,469.3,202.7z"/>
	<rect x="192" y="277.3" width="128" height="42.7"/>
	<rect x="192" y="192" width="128" height="42.7"/>
	<polygon points="85.3,64 64,64 64,64 42.7,64 42.7,85.3 42.7,85.3 42.7,106.7 85.3,106.7 	"/>
</g>
</svg>
