<?xml version="1.0" encoding="utf-8"?>
<!-- Generator: Adobe Illustrator 25.4.1, SVG Export Plug-In . SVG Version: 6.00 Build 0)  -->
<svg version="1.1" id="Layer_1" xmlns="http://www.w3.org/2000/svg" xmlns:xlink="http://www.w3.org/1999/xlink" x="0px" y="0px"
	 viewBox="0 0 512 512" enable-background="new 0 0 512 512" xml:space="preserve">
<g>
	<path d="M249.2,194.9c8.7-3,18.1-3.7,27.2-2c9.1,1.7,17.6,5.7,24.7,11.7l36.3-24.2c-12.5-13.6-28.6-23.3-46.4-28
		c-17.8-4.7-36.6-4.1-54.1,1.6s-33,16.4-44.7,30.7c-11.6,14.3-18.9,31.6-21,49.9h-21.9v42.7h21.9c2.1,18.3,9.3,35.6,21,49.9
		c11.6,14.3,27.1,24.9,44.6,30.6c17.5,5.7,36.3,6.3,54.1,1.6c17.8-4.7,33.9-14.4,46.4-27.9l-36.3-24.2c-7.1,6-15.6,10-24.7,11.7
		c-9.1,1.7-18.5,1-27.2-2c-8.7-3-16.6-8.3-22.7-15.3c-6.1-7-10.3-15.4-12.1-24.5H320v-42.7H214.4c1.8-9.1,6-17.5,12.1-24.5
		C232.6,203.2,240.4,198,249.2,194.9z"/>
	<path d="M463.1,70.2c-4-4-9.4-6.2-15.1-6.2H64c-5.7,0-11.1,2.2-15.1,6.2c-4,4-6.2,9.4-6.2,15.1V384H64h21.3V106.7h341.3v298.7h-320
		V448H85.3v-42.7H42.7v21.3v0V448H64c0,0,0,0,0,0h384c5.7,0,11.1-2.2,15.1-6.2s6.2-9.4,6.2-15.1V85.3
		C469.3,79.7,467.1,74.2,463.1,70.2z"/>
</g>
</svg>
