<?xml version="1.0" encoding="utf-8"?>
<!-- Generator: Adobe Illustrator 25.4.1, SVG Export Plug-In . SVG Version: 6.00 Build 0)  -->
<svg version="1.1" id="Layer_1" xmlns="http://www.w3.org/2000/svg" xmlns:xlink="http://www.w3.org/1999/xlink" x="0px" y="0px"
	 viewBox="0 0 512 512" enable-background="new 0 0 512 512" xml:space="preserve">
<g>
	<path d="M390.4,51.2c-2-2.6-4.6-4.8-7.5-6.3c-3-1.5-6.2-2.3-9.5-2.3H138.7c-3.3,0-6.6,0.8-9.5,2.3c-3,1.5-5.5,3.6-7.5,6.3L64,128
		v277.3h21.3h21.3V170.7h298.7v256H128v42.7h298.7c5.7,0,11.1-2.2,15.1-6.2s6.2-9.4,6.2-15.1V128L390.4,51.2z M117.3,128l32-42.7
		h213.3l32,42.7H117.3z"/>
	<path d="M149.3,213.3V256c0,28.3,11.2,55.4,31.2,75.4c20,20,47.1,31.2,75.4,31.2s55.4-11.2,75.4-31.2c20-20,31.2-47.1,31.2-75.4
		v-42.7H320V256c0,17-6.7,33.3-18.7,45.3S273,320,256,320s-33.3-6.7-45.3-18.7c-12-12-18.7-28.3-18.7-45.3v-42.7H149.3z"/>
	<polygon points="64,469.3 85.3,469.3 85.3,469.3 106.7,469.3 106.7,426.7 64,426.7 	"/>
</g>
</svg>
