<?xml version="1.0" encoding="utf-8"?>
<!-- Generator: Adobe Illustrator 25.4.1, SVG Export Plug-In . SVG Version: 6.00 Build 0)  -->
<svg version="1.1" id="Layer_1" xmlns="http://www.w3.org/2000/svg" xmlns:xlink="http://www.w3.org/1999/xlink" x="0px" y="0px"
	 viewBox="0 0 512 512" enable-background="new 0 0 512 512" xml:space="preserve">
<g>
	<path d="M506.9,184.9L425.3,72.8c-2-2.7-4.6-4.9-7.6-6.5c-3-1.5-6.3-2.3-9.7-2.3H104v0c-3.4,0-6.7,0.8-9.7,2.3
		c-3,1.5-5.6,3.7-7.6,6.5L5.1,184.9c-1.4,2-2.2,4.4-2,6.9c0.1,2.5,1.1,4.8,2.8,6.6c97.3,105.4,165.4,179.2,204.2,221.2l30.2-30.2
		L55.1,188.8l59.7-82.1h282.3l59.7,82.1L271.7,389.4l30.2,30.2l204.2-221.2c1.7-1.8,2.7-4.1,2.8-6.6
		C509,189.3,508.3,186.9,506.9,184.9z"/>
	<rect x="234.7" y="412.8" transform="matrix(0.7071 -0.7071 0.7071 0.7071 -231.9694 308.1629)" width="42.7" height="42.7"/>
</g>
</svg>
