<?xml version="1.0" encoding="utf-8"?>
<!-- Generator: Adobe Illustrator 25.4.1, SVG Export Plug-In . SVG Version: 6.00 Build 0)  -->
<svg version="1.1" id="Layer_1" xmlns="http://www.w3.org/2000/svg" xmlns:xlink="http://www.w3.org/1999/xlink" x="0px" y="0px"
	 viewBox="0 0 512 512" enable-background="new 0 0 512 512" xml:space="preserve">
<g>
	<path d="M353.2,225.8c8-8,12.5-18.9,12.5-30.2c0-11.3-4.5-22.2-12.5-30.2c-8-8-18.9-12.5-30.2-12.5c-5.6,0-11.2,1.1-16.3,3.2
		c-5.2,2.1-9.9,5.3-13.8,9.3c-4,4-7.1,8.7-9.3,13.8c-2.1,5.2-3.3,10.7-3.3,16.3c0,11.3,4.5,22.2,12.5,30.2c8,8,18.9,12.5,30.2,12.5
		C334.3,238.3,345.2,233.8,353.2,225.8z"/>
	<path d="M443.7,75L232.5,44.8L36.4,240.9c-4,4-6.2,9.4-6.2,15.1s2.2,11.1,6.2,15.1l181.3,181.3l14.8-14.8l15.4-15.4L81.7,256
		l166-165.9L406,112.7l22.6,158.4L277.5,422.2l30.2,30.2l166.2-166.2L443.7,75z"/>
	<rect x="241.3" y="446.4" transform="matrix(0.7071 -0.7071 0.7071 0.7071 -253.8225 322.713)" width="42.7" height="42.7"/>
</g>
</svg>
