<?xml version="1.0" encoding="utf-8"?>
<!-- Generator: Adobe Illustrator 25.4.1, SVG Export Plug-In . SVG Version: 6.00 Build 0)  -->
<svg version="1.1" id="Layer_1" xmlns="http://www.w3.org/2000/svg" xmlns:xlink="http://www.w3.org/1999/xlink" x="0px" y="0px"
	 viewBox="0 0 512 512" enable-background="new 0 0 512 512" xml:space="preserve">
<g>
	<path d="M463.1,155.6c-4-4-9.4-6.2-15.1-6.2h-42.7v-37.7c0-4.5-1.5-9-4.1-12.6c-2.7-3.7-6.5-6.4-10.8-7.7L234.7,42.7L79,91.3
		c-4.3,1.4-8.1,4.1-10.8,7.7c-2.7,3.7-4.1,8.1-4.2,12.6v173.6c0,20.8,5.1,41.4,14.8,59.8c9.7,18.4,23.8,34.2,41.1,46l114.8,78.3
		l114.8-78.3c11.6-7.9,21.6-17.5,29.9-28.4l26,0V320H234.7v-64h192v42.8h42.7V170.7C469.3,165,467.1,159.6,463.1,155.6z
		 M213.3,149.3c-5.7,0-11.1,2.2-15.1,6.2c-4,4-6.2,9.4-6.2,15.1v170.7c0,5.7,2.2,11.1,6.2,15.1c4,4,9.4,6.2,15.1,6.2h102l-80.7,55
		l-90.7-61.9l-4-2.9c-10.3-8-18.7-18.2-24.5-29.9c-5.8-11.7-8.8-24.6-8.8-37.7v-158l128-40l128,40v22H213.3z M426.7,213.3h-192V192
		h192V213.3z"/>
	<rect x="426.7" y="320.1" width="42.7" height="42.7"/>
</g>
</svg>
