<?xml version="1.0" encoding="utf-8"?>
<!-- Generator: Adobe Illustrator 25.4.1, SVG Export Plug-In . SVG Version: 6.00 Build 0)  -->
<svg version="1.1" id="Layer_1" xmlns="http://www.w3.org/2000/svg" xmlns:xlink="http://www.w3.org/1999/xlink" x="0px" y="0px"
	 viewBox="0 0 512 512" enable-background="new 0 0 512 512" xml:space="preserve">
<g>
	<path d="M267.8,29.2c-3.5-2.3-7.6-3.6-11.8-3.6s-8.3,1.2-11.8,3.6L64,149.3v256h42.7V172.2L256,72.6l149.3,99.5v254.5H128v42.7
		h-21.3v-42.7H64V448v0v21.3h21.3c0,0,0,0,0,0h341.3c5.7,0,11.1-2.2,15.1-6.2s6.2-9.4,6.2-15.1V149.3L267.8,29.2z"/>
	<path d="M286.2,222.2c8-8,12.5-18.9,12.5-30.2c0-11.3-4.5-22.2-12.5-30.2c-8-8-18.9-12.5-30.2-12.5s-22.2,4.5-30.2,12.5
		c-8,8-12.5,18.9-12.5,30.2c0,11.3,4.5,22.2,12.5,30.2s18.9,12.5,30.2,12.5S278.2,230.2,286.2,222.2z"/>
</g>
</svg>
