<?xml version="1.0" encoding="utf-8"?>
<!-- Generator: Adobe Illustrator 25.4.1, SVG Export Plug-In . SVG Version: 6.00 Build 0)  -->
<svg version="1.1" id="Layer_1" xmlns="http://www.w3.org/2000/svg" xmlns:xlink="http://www.w3.org/1999/xlink" x="0px" y="0px"
	 viewBox="0 0 512 512" enable-background="new 0 0 512 512" xml:space="preserve">
<g>
	<path d="M85.3,256H42.7c0,79,42.9,147.9,106.7,184.8v-51.5C110.3,358,85.3,309.9,85.3,256z"/>
	<path d="M320,341.3c0-35.3-28.7-64-64-64s-64,28.7-64,64h42.7c0-11.8,9.6-21.3,21.3-21.3s21.3,9.6,21.3,21.3c0,6-2.5,11.5-6.5,15.4
		L192,432.6v36.8h128v-42.7h-60.4l40.7-39.2C312.5,375.8,320,359.5,320,341.3z"/>
	<path d="M256,85.3c63.5,0,118.9,34.7,148.3,86.1v-0.8h15.5h27.1h4.6c-32.9-75.3-108.1-128-195.6-128c-69.8,0-131.8,33.5-170.7,85.3
		V74.7H42.7v128h128V160h-55.8C145.6,114.9,197.3,85.3,256,85.3z"/>
	<polygon points="426.7,277.3 426.7,362.7 384,362.7 384,277.3 341.3,277.3 341.3,405.3 426.7,405.3 426.7,469.3 469.3,469.3 
		469.3,277.3 	"/>
	<polygon points="425.6,234.7 446.9,234.7 468.3,234.7 468.3,192 425.6,192 	"/>
</g>
</svg>
