<?xml version="1.0" encoding="utf-8"?>
<!-- Generator: Adobe Illustrator 25.4.1, SVG Export Plug-In . SVG Version: 6.00 Build 0)  -->
<svg version="1.1" id="Layer_1" xmlns="http://www.w3.org/2000/svg" xmlns:xlink="http://www.w3.org/1999/xlink" x="0px" y="0px"
	 viewBox="0 0 512 512" enable-background="new 0 0 512 512" xml:space="preserve">
<g>
	<path d="M215.7,151.7l83,83l83-82.9c5-4.9,9-10.8,11.7-17.3c2.7-6.5,4.1-13.4,4.1-20.5c0-7-1.4-14-4-20.5
		c-2.7-6.5-6.6-12.4-11.6-17.4c-5-5-10.9-8.9-17.4-11.6c-6.5-2.7-13.4-4.1-20.5-4s-14,1.4-20.5,4.1c-6.5,2.7-12.4,6.7-17.3,11.7
		l-7.6,7.6l-7.6-7.6c-4.9-5-10.8-9-17.3-11.7c-6.5-2.7-13.4-4.1-20.5-4.1s-14,1.4-20.5,4c-6.5,2.7-12.4,6.6-17.4,11.6
		c-5,5-8.9,10.9-11.6,17.4c-2.7,6.5-4.1,13.4-4,20.5c0,7,1.4,14,4.1,20.5C206.7,140.9,210.7,146.7,215.7,151.7z M242.8,113
		c0.2-2.5,1.3-4.8,3.1-6.6v0c1.8-1.8,4.1-2.9,6.6-3.1c2.5-0.2,5,0.4,7,1.8l1.5,1.2l37.7,37.8l37.7-37.7l1.5-1.2
		c2.1-1.4,4.5-2.1,7-1.9c2.5,0.2,4.8,1.3,6.6,3.1l1.2,1.5c1.4,2.1,2.1,4.5,1.8,7c-0.2,2.5-1.3,4.8-3.1,6.6l-52.8,52.8l-52.8-52.8
		l-1.2-1.5C243.2,118,242.6,115.5,242.8,113z"/>
	<path d="M462.3,293.8c-17.1-10.8-36.8-16.5-57-16.5l-67.1,0c-17.6-19.6-43.1-32-71.5-32h-46.3c-26.3-20.8-58.9-32-92.4-32
		c0-5.7-2.2-11.1-6.2-15.1c-4-4-9.4-6.2-15.1-6.2h-64c-5.7,0-11.1,2.2-15.1,6.2c-4,4-6.2,9.4-6.2,15.1v149.3H64v-128h21.3v128h0v64
		H64V384H21.3v21.3v0v21.3h21.2c0,0,0.1,0,0.1,0h64c4.4,0,8.7-1.3,12.2-3.8c3.6-2.5,6.3-6.1,7.8-10.2
		c40.7,22.5,91.1,35.4,150.6,35.4c92.2,0,173.9-43.3,224.3-109.8C493,319.9,479.4,304.6,462.3,293.8z M444.5,338.6
		c-43.4,42.1-103.1,66.8-167.1,66.8c-60.2,0-110.1-14.6-148.4-41.5l-1-0.7l0-107.1h0c14.2,0,28.2,2.8,41.3,8.3
		c13.1,5.5,24.9,13.5,34.8,23.7h62.5l3.5,0.1c9.5,0.6,18.6,3.7,26.4,9.1c7.8,5.3,14.1,12.6,18.2,21.2l0.7,1.7l-144.9,0v42.7h192
		v-21.3c0-7.3-0.8-14.5-2.4-21.4l45.1,0l4.4,0.1c12.8,0.9,25,5.6,35.1,13.4l2.6,2.1L444.5,338.6z"/>
</g>
</svg>
