<?xml version="1.0" encoding="utf-8"?>
<!-- Generator: Adobe Illustrator 25.4.1, SVG Export Plug-In . SVG Version: 6.00 Build 0)  -->
<svg version="1.1" id="Layer_1" xmlns="http://www.w3.org/2000/svg" xmlns:xlink="http://www.w3.org/1999/xlink" x="0px" y="0px"
	 viewBox="0 0 512 512" enable-background="new 0 0 512 512" xml:space="preserve">
<g>
	<path d="M463.1,70.2c-4-4-9.4-6.2-15.1-6.2H64c-5.7,0-11.1,2.2-15.1,6.2c-4,4-6.2,9.4-6.2,15.1V384H64h21.3V106.7h341.3v298.7h-320
		V448H85.3v-42.7H42.7v21.3v0V448H64c0,0,0,0,0,0h384c5.7,0,11.1-2.2,15.1-6.2s6.2-9.4,6.2-15.1V85.3
		C469.3,79.7,467.1,74.2,463.1,70.2z"/>
	<path d="M234.7,128v42.7h-21.3c-14.1,0-27.7,5.6-37.7,15.6c-10,10-15.6,23.6-15.6,37.7c0,14.1,5.6,27.7,15.6,37.7
		c10,10,23.6,15.6,37.7,15.6h85.3c2.8,0,5.5,1.1,7.5,3.1c2,2,3.1,4.7,3.1,7.5s-1.1,5.5-3.1,7.5c-2,2-4.7,3.1-7.5,3.1H181.3v42.7
		h53.3V384h42.7v-42.7h21.3c14.1,0,27.7-5.6,37.7-15.6c10-10,15.6-23.6,15.6-37.7s-5.6-27.7-15.6-37.7c-10-10-23.6-15.6-37.7-15.6
		h-85.3c-2.8,0-5.5-1.1-7.5-3.1c-2-2-3.1-4.7-3.1-7.5s1.1-5.5,3.1-7.5c2-2,4.7-3.1,7.5-3.1h117.3v-42.7h-53.3V128H234.7z"/>
</g>
</svg>
