<svg fill="none" height="512" viewBox="0 0 24 24" width="512" xmlns="http://www.w3.org/2000/svg"><path d="m5.373 4.51c1.8267-1.62063 4.18503-2.51385 6.627-2.51 5.523 0 10 4.477 10 10 .0033 2.0439-.6228 4.0393-1.793 5.715l-2.707-5.715h2.5c0-1.5906-.4741-3.14519-1.3619-4.46505-.8877-1.31986-2.1488-2.34512-3.6221-2.9448-1.4732-.59967-3.0918-.74655-4.649-.42186-1.55715.32469-2.98216 1.1062-4.093 2.24471l-.9-1.902zm13.254 14.98c-1.8267 1.6206-4.185 2.5138-6.627 2.51-5.523 0-10-4.477-10-10 0-2.125.663-4.095 1.793-5.715l2.707 5.715h-2.5c-.00003 1.5906.47412 3.1452 1.36188 4.465.88776 1.3199 2.14882 2.3452 3.62209 2.9448 1.47323.5997 3.09183.7466 4.64903.4219 1.5571-.3247 2.9822-1.1062 4.093-2.2447l.9 1.902zm-5.213-4.662-2.828-2.828-2.829 2.828-1.414-1.414 4.243-4.242 2.828 2.828 2.829-2.828 1.414 1.414z" fill="rgb(0,0,0)"/></svg>