<?xml version="1.0" encoding="utf-8"?>
<!-- Generator: Adobe Illustrator 25.4.1, SVG Export Plug-In . SVG Version: 6.00 Build 0)  -->
<svg version="1.1" id="Layer_1" xmlns="http://www.w3.org/2000/svg" xmlns:xlink="http://www.w3.org/1999/xlink" x="0px" y="0px"
	 viewBox="0 0 512 512" enable-background="new 0 0 512 512" xml:space="preserve">
<g>
	<polygon points="362.7,405.3 362.7,362.7 362.2,362.7 362.2,362.7 319.6,362.7 319.6,405.3 340.9,405.3 362.2,405.3 	"/>
	<path d="M461.7,124.3c-0.6-3.3-1.9-6.4-3.9-9c-2-2.7-4.6-4.8-7.5-6.3c-3-1.5-6.3-2.3-9.6-2.3H115.5L46.3,37.5L16.2,67.7l69.2,69.2
		V384c0,5.7,2.2,11.1,6.2,15.1c4,4,9.4,6.2,15.1,6.2h191.6v-42.7H128V320h261.5c4.6,0,9.1-1.5,12.7-4.2c3.7-2.7,6.4-6.6,7.7-11
		l51.2-170.7C462.1,130.9,462.3,127.6,461.7,124.3z M373.6,277.3H128v-128h284L373.6,277.3z"/>
	<path d="M117.3,426.7c-8.5,0-16.6,3.4-22.6,9.4c-6,6-9.4,14.1-9.4,22.6s3.4,16.6,9.4,22.6c6,6,14.1,9.4,22.6,9.4
		c8.5,0,16.6-3.4,22.6-9.4c6-6,9.4-14.1,9.4-22.6S146,442,140,436C134,430,125.8,426.7,117.3,426.7z"/>
	<path d="M373.3,426.7c-8.5,0-16.6,3.4-22.6,9.4c-6,6-9.4,14.1-9.4,22.6s3.4,16.6,9.4,22.6c6,6,14.1,9.4,22.6,9.4
		c8.5,0,16.6-3.4,22.6-9.4c6-6,9.4-14.1,9.4-22.6S402,442,396,436C390,430,381.8,426.7,373.3,426.7z"/>
</g>
</svg>
