<?xml version="1.0" encoding="utf-8"?>
<!-- Generator: Adobe Illustrator 25.4.1, SVG Export Plug-In . SVG Version: 6.00 Build 0)  -->
<svg version="1.1" id="Layer_1" xmlns="http://www.w3.org/2000/svg" xmlns:xlink="http://www.w3.org/1999/xlink" x="0px" y="0px"
	 viewBox="0 0 512 512" enable-background="new 0 0 512 512" xml:space="preserve">
<g>
	<path d="M463.1,70.2c-4-4-9.4-6.2-15.1-6.2H64c-5.7,0-11.1,2.2-15.1,6.2c-4,4-6.2,9.4-6.2,15.1V384H64h21.3V106.7h341.3v298.7h-320
		V448H85.3v-42.7H42.7v21.3v0V448H64c0,0,0,0,0,0h384c5.7,0,11.1-2.2,15.1-6.2s6.2-9.4,6.2-15.1V85.3
		C469.3,79.7,467.1,74.2,463.1,70.2z"/>
	<path d="M170.7,320v42.7h170.7V320H234.7v-42.7h64v-42.7h-64v-21.3c0-6.9,2.2-13.7,6.3-19.2c4.1-5.5,10-9.6,16.6-11.6
		c6.6-2,13.7-1.7,20.2,0.7c6.5,2.4,12,6.9,15.8,12.7l42.4-10.6c-6.5-16.1-18.4-29.4-33.6-37.7c-15.2-8.3-32.9-11-49.9-7.7
		c-17,3.3-32.4,12.4-43.4,25.8c-11,13.4-17,30.2-17,47.5v21.3h-21.3v42.7H192V320H170.7z"/>
</g>
</svg>
