<?xml version="1.0" encoding="utf-8"?>
<!-- Generator: Adobe Illustrator 25.4.1, SVG Export Plug-In . SVG Version: 6.00 Build 0)  -->
<svg version="1.1" id="Layer_1" xmlns="http://www.w3.org/2000/svg" xmlns:xlink="http://www.w3.org/1999/xlink" x="0px" y="0px"
	 viewBox="0 0 512 512" enable-background="new 0 0 512 512" xml:space="preserve">
<g>
	<polygon points="151.6,340.6 215.3,170.7 169.9,170.7 130.2,279.7 90.5,170.7 45.2,170.7 108.9,340.6 	"/>
	<polygon points="106.7,448 85.3,448 85.3,405.3 42.7,405.3 42.7,426.7 42.7,448 42.7,448 469.3,448 469.3,405.3 106.7,405.3 	"/>
	<path d="M405.3,170.7H320v170.7h42.7v-42.7h42.7c17,0,33.3-6.7,45.3-18.7c12-12,18.7-28.3,18.7-45.3c0-17-6.7-33.3-18.7-45.3
		C438.6,177.4,422.3,170.7,405.3,170.7z M420.4,249.8c-4,4-9.4,6.2-15.1,6.2h-42.7v-42.7h42.7c5.7,0,11.1,2.2,15.1,6.2
		s6.2,9.4,6.2,15.1S424.4,245.8,420.4,249.8z"/>
	<rect x="234.7" y="170.7" width="42.7" height="170.7"/>
	<rect x="42.7" y="64" width="426.7" height="42.7"/>
</g>
</svg>
