<?xml version="1.0" encoding="utf-8"?>
<!-- Generator: Adobe Illustrator 25.4.1, SVG Export Plug-In . SVG Version: 6.00 Build 0)  -->
<svg version="1.1" id="Layer_1" xmlns="http://www.w3.org/2000/svg" xmlns:xlink="http://www.w3.org/1999/xlink" x="0px" y="0px"
	 viewBox="0 0 512 512" enable-background="new 0 0 512 512" xml:space="preserve">
<g>
	<path d="M393.9,170.7c7.5-13,11.4-27.7,11.4-42.7c0-15-3.9-29.7-11.4-42.7c-7.5-13-18.3-23.8-31.2-31.2S335,42.7,320,42.7
		c-12.1,0-24.1,2.5-35.1,7.5c-11,5-20.9,12.3-28.9,21.4c-14-15.9-33.4-26-54.4-28.4c-21-2.4-42.2,3.2-59.4,15.5
		C125,71.1,113,89.4,108.6,110.1c-4.5,20.7-1.1,42.3,9.5,60.6l-96.8,0v42.7H64v213.3c0,5.7,2.2,11.1,6.2,15.1c4,4,9.4,6.2,15.1,6.2
		H384v-42.7H277.3v-192h128V384H448V213.3h42.7v-42.7L393.9,170.7z M234.7,405.3h-128v-192h128V405.3z M234.7,170.7H192l-3.2-0.1
		c-11-0.8-21.4-5.8-28.7-14.1c-7.4-8.2-11.3-19-10.9-30.1c0.4-11.1,5.1-21.5,13.1-29.2c8-7.7,18.6-11.9,29.7-11.9l3.2,0.1l3.3,0.4
		c10.1,1.5,19.3,6.6,25.9,14.4c6.6,7.7,10.3,17.6,10.3,27.8V170.7z M362.6,131.2c-0.8,10.7-5.6,20.8-13.5,28.1
		c-7.9,7.3-18.3,11.4-29,11.4h-42.7V128l0.1-3.2c0.8-10.7,5.6-20.8,13.5-28.1c7.9-7.3,18.3-11.4,29-11.4c11.3,0,22.2,4.5,30.2,12.5
		c8,8,12.5,18.9,12.5,30.2L362.6,131.2z"/>
	<rect x="405.3" y="405.3" width="42.7" height="42.7"/>
</g>
</svg>
