<?xml version="1.0" encoding="utf-8"?>
<!-- Generator: Adobe Illustrator 25.4.1, SVG Export Plug-In . SVG Version: 6.00 Build 0)  -->
<svg version="1.1" id="Layer_1" xmlns="http://www.w3.org/2000/svg" xmlns:xlink="http://www.w3.org/1999/xlink" x="0px" y="0px"
	 viewBox="0 0 512 512" enable-background="new 0 0 512 512" xml:space="preserve">
<g>
	<path d="M277.3,362.7V296c20.1-5.2,37.7-17.5,49.4-34.7s16.7-38.1,14.1-58.7c-2.6-20.6-12.7-39.6-28.3-53.3
		C296.9,135.5,276.8,128,256,128c-20.7,0.1-40.7,7.7-56.3,21.4c-15.5,13.7-25.6,32.6-28.2,53.2c-2.6,20.6,2.4,41.4,14,58.6
		c11.6,17.2,29.1,29.5,49.1,34.8v66.7H277.3z M225.8,243.5c-8-8-12.5-18.9-12.5-30.2c0-11.3,4.5-22.2,12.5-30.2
		c8-8,18.9-12.5,30.2-12.5s22.2,4.5,30.2,12.5c8,8,12.5,18.9,12.5,30.2c0,11.3-4.5,22.2-12.5,30.2S267.3,256,256,256
		S233.8,251.5,225.8,243.5z"/>
	<path d="M463.1,70.2c-4-4-9.4-6.2-15.1-6.2H106.7v42.7h320V384H85.3V128H42.7v277.3c0,5.7,2.2,11.1,6.2,15.1c4,4,9.4,6.2,15.1,6.2
		h21.3v42.7H128v-42.7h256v42.7h42.7v-42.7H448c5.7,0,11.1-2.2,15.1-6.2s6.2-9.4,6.2-15.1v-320C469.3,79.7,467.1,74.2,463.1,70.2z"
		/>
	<polygon points="85.3,64 64,64 64,64 42.7,64 42.7,85.3 42.7,85.3 42.7,106.7 85.3,106.7 	"/>
</g>
</svg>
