<?xml version="1.0" encoding="utf-8"?>
<!-- Generator: Adobe Illustrator 25.4.1, SVG Export Plug-In . SVG Version: 6.00 Build 0)  -->
<svg version="1.1" id="Layer_1" xmlns="http://www.w3.org/2000/svg" xmlns:xlink="http://www.w3.org/1999/xlink" x="0px" y="0px"
	 viewBox="0 0 512 512" enable-background="new 0 0 512 512" xml:space="preserve">
<g>
	<rect x="106.7" y="426.7" width="192" height="42.7"/>
	<path d="M371.5,256l52.8-52.8l22.6,7.6l30.2-30.2L311.2,14.6L281,44.8l7.5,22.6L154.3,201.7l-24.1-6L100,225.8l165.9,165.9
		l30.2-30.2l-6-24.1l51.3-51.3L462,406.8l30.2-30.2L371.5,256z M250.8,316.3l-75.4-75.4L326.3,90.1l75.4,75.4L250.8,316.3z"/>
	<polygon points="42.7,426.7 42.7,448 42.7,469.3 85.3,469.3 85.3,426.7 64,426.7 	"/>
</g>
</svg>
