<?xml version="1.0" encoding="utf-8"?>
<!-- Generator: Adobe Illustrator 25.4.1, SVG Export Plug-In . SVG Version: 6.00 Build 0)  -->
<svg version="1.1" id="Layer_1" xmlns="http://www.w3.org/2000/svg" xmlns:xlink="http://www.w3.org/1999/xlink" x="0px" y="0px"
	 viewBox="0 0 512 512" enable-background="new 0 0 512 512" xml:space="preserve">
<g>
	<rect x="150.1" y="64.8" width="42.7" height="42.7"/>
	<path d="M352,288c0-14.1-5.6-27.7-15.6-37.7c-10-10-23.6-15.6-37.7-15.6h-85.3c-2.8,0-5.5-1.1-7.5-3.1c-2-2-3.1-4.7-3.1-7.5
		s1.1-5.5,3.1-7.5c2-2,4.7-3.1,7.5-3.1h117.3v-42.7h-53.3v-21.3h-42.7v21.3h-21.3c-14.1,0-27.7,5.6-37.7,15.6
		c-10,10-15.6,23.6-15.6,37.7c0,14.1,5.6,27.7,15.6,37.7c10,10,23.6,15.6,37.7,15.6h85.3c2.8,0,5.5,1.1,7.5,3.1c2,2,3.1,4.7,3.1,7.5
		s-1.1,5.5-3.1,7.5c-2,2-4.7,3.1-7.5,3.1H181.3v42.7h53.3v21.3h42.7v-21.3h21.3c14.1,0,27.7-5.6,37.7-15.6
		C346.4,315.7,352,302.1,352,288z"/>
	<path d="M450.5,343.7c44.7-98.7,8-217.1-87.8-272.4c-32.3-18.7-68.9-28.5-106.2-28.6c-14.3,0-28.4,1.4-42.3,4.1v43.7
		c19.3-4.9,39.4-6.4,59.4-4.3c35.5,3.7,68.9,18.4,95.7,42c26.7,23.7,45.3,55.1,53.3,89.9c7.9,34.8,4.7,71.2-9.1,104.1l-26.6-15.3
		l3.5,100.6l88.9-47.2L450.5,343.7z"/>
	<path d="M238.5,425.8c-35.5-3.7-68.9-18.4-95.7-42c-26.7-23.7-45.3-55.1-53.3-89.9c-7.9-34.8-4.7-71.2,9.1-104.1l26.6,15.3
		l-3.5-100.6l-88.9,47.2l28.7,16.5c-44.7,98.7-8,217.1,87.8,272.4c32.3,18.7,68.9,28.5,106.2,28.6c14.3,0,28.4-1.4,42.3-4.1v-12.6
		v-27.1v-4C278.6,426.4,258.5,427.9,238.5,425.8z"/>
	<rect x="319.2" y="404.2" width="42.7" height="42.7"/>
</g>
</svg>
