<?xml version="1.0" encoding="utf-8"?>
<!-- Generator: Adobe Illustrator 25.4.1, SVG Export Plug-In . SVG Version: 6.00 Build 0)  -->
<svg version="1.1" id="Layer_1" xmlns="http://www.w3.org/2000/svg" xmlns:xlink="http://www.w3.org/1999/xlink" x="0px" y="0px"
	 viewBox="0 0 512 512" enable-background="new 0 0 512 512" xml:space="preserve">
<g>
	<path d="M396.3,192L327.8,73.3l-36.9,21.3L347,192H164.9l56.2-97.3l-36.9-21.3L115.7,192h-73v42.7h24.9L80,384h42.8l-12.4-149.3
		h291.3l-14.2,170.7h-245V448H121v-42.7H78.4V448h26.6c0,0,0,0,0,0H407c5.4,0,10.5-2,14.4-5.6c3.9-3.6,6.4-8.6,6.8-13.9l16.1-193.8
		h24.9V192H396.3z"/>
	<rect x="149.3" y="277.3" width="42.7" height="85.3"/>
	<rect x="320" y="277.3" width="42.7" height="85.3"/>
	<rect x="234.7" y="277.3" width="42.7" height="85.3"/>
</g>
</svg>
