<?xml version="1.0" encoding="utf-8"?>
<!-- Generator: Adobe Illustrator 25.4.1, SVG Export Plug-In . SVG Version: 6.00 Build 0)  -->
<svg version="1.1" id="Layer_1" xmlns="http://www.w3.org/2000/svg" xmlns:xlink="http://www.w3.org/1999/xlink" x="0px" y="0px"
	 viewBox="0 0 512 512" enable-background="new 0 0 512 512" xml:space="preserve">
<g>
	<path d="M128,405.3c-11.3,0-22.2,4.5-30.2,12.5c-8,8-12.5,18.9-12.5,30.2s4.5,22.2,12.5,30.2c8,8,18.9,12.5,30.2,12.5
		s22.2-4.5,30.2-12.5c8-8,12.5-18.9,12.5-30.2s-4.5-22.2-12.5-30.2C150.2,409.8,139.3,405.3,128,405.3z"/>
	<path d="M484.2,123.6c-0.7-3.2-2.1-6.2-4.1-8.7c-2-2.6-4.5-4.6-7.5-6c-2.9-1.4-6.1-2.2-9.4-2.2H234.7v42.7H436L393.3,320H128V64
		c0-5.7-2.2-11.1-6.2-15.1c-4-4-9.4-6.2-15.1-6.2h-64v42.7h42.7v256h0c0,5.7,2.2,11.1,6.2,15.1c4,4,9.4,6.2,15.1,6.2H410
		c4.8,0,9.4-1.6,13.1-4.5c3.8-2.9,6.4-7,7.6-11.6l53.3-213.3C484.8,130,484.9,126.8,484.2,123.6z"/>
	<path d="M384,405.3c-11.3,0-22.2,4.5-30.2,12.5c-8,8-12.5,18.9-12.5,30.2s4.5,22.2,12.5,30.2c8,8,18.9,12.5,30.2,12.5
		s22.2-4.5,30.2-12.5s12.5-18.9,12.5-30.2s-4.5-22.2-12.5-30.2C406.2,409.8,395.3,405.3,384,405.3z"/>
	<polygon points="213.3,106.7 170.7,106.7 170.7,106.7 170.7,130.1 170.7,149.3 213.3,149.3 	"/>
</g>
</svg>
