<?xml version="1.0" encoding="utf-8"?>
<!-- Generator: Adobe Illustrator 25.4.1, SVG Export Plug-In . SVG Version: 6.00 Build 0)  -->
<svg version="1.1" id="Layer_1" xmlns="http://www.w3.org/2000/svg" xmlns:xlink="http://www.w3.org/1999/xlink" x="0px" y="0px"
	 viewBox="0 0 512 512" enable-background="new 0 0 512 512" xml:space="preserve">
<g>
	<polygon points="256,384 256,320 277.3,320 277.3,277.3 149.3,277.3 	"/>
	<polygon points="320,277.3 298.7,277.3 298.7,320 341.3,320 341.3,298.7 341.3,298.7 341.3,277.3 341.3,277.3 	"/>
	<path d="M256,42.7C138.2,42.7,42.7,138.2,42.7,256S138.2,469.3,256,469.3S469.3,373.8,469.3,256S373.8,42.7,256,42.7z M376.7,376.7
		c-32,32-75.4,50-120.7,50c-45.3,0-88.7-18-120.7-50c-32-32-50-75.4-50-120.7c0-45.3,18-88.7,50-120.7c32-32,75.4-50,120.7-50
		c45.3,0,88.7,18,120.7,50c32,32,50,75.4,50,120.7C426.7,301.3,408.7,344.7,376.7,376.7z"/>
	<polygon points="256,192 234.7,192 234.7,234.7 362.7,234.7 256,128 	"/>
	<polygon points="213.3,192 170.7,192 170.7,192 170.7,213.3 170.7,234.7 213.3,234.7 	"/>
</g>
</svg>
