<?xml version="1.0" encoding="utf-8"?>
<!-- Generator: Adobe Illustrator 25.4.1, SVG Export Plug-In . SVG Version: 6.00 Build 0)  -->
<svg version="1.1" id="Layer_1" xmlns="http://www.w3.org/2000/svg" xmlns:xlink="http://www.w3.org/1999/xlink" x="0px" y="0px"
	 viewBox="0 0 512 512" enable-background="new 0 0 512 512" xml:space="preserve">
<g>
	<path d="M483.3,119.4c-1.8-3.7-4.6-6.7-8-8.9s-7.5-3.2-11.6-3.2c-4.1,0.1-8,1.3-11.4,3.6l-89.6,59.7l-89.3-125
		c-2-2.8-4.6-5-7.6-6.6c-3-1.6-6.4-2.4-9.8-2.4c-3.4,0-6.7,0.8-9.8,2.4c-3,1.6-5.6,3.8-7.6,6.6l-89.3,125l-89.6-59.7l0,0
		c-3.4-2.3-7.4-3.5-11.4-3.6c-4.1-0.1-8.1,1-11.5,3.1c-3.5,2.1-6.3,5.2-8,8.9c-1.8,3.7-2.5,7.8-2,11.8L56.5,384h43L74.5,172.1
		l85.5,57l96-134.3l96,134.3l85.5-57l-27.4,233.3H121V448H99.7v-42.7H57V448h25.9c0,0,0,0,0.1,0H429c5.2,0,10.3-1.9,14.2-5.4
		c3.9-3.5,6.4-8.3,7-13.4l35.1-298C485.7,127.2,485.1,123.1,483.3,119.4z"/>
	<path d="M286.2,307.5c8-8,12.5-18.9,12.5-30.2s-4.5-22.2-12.5-30.2s-18.9-12.5-30.2-12.5s-22.2,4.5-30.2,12.5
		c-8,8-12.5,18.9-12.5,30.2s4.5,22.2,12.5,30.2c8,8,18.9,12.5,30.2,12.5S278.2,315.5,286.2,307.5z"/>
</g>
</svg>
