<svg fill="none" height="512" viewBox="0 0 24 24" width="512" xmlns="http://www.w3.org/2000/svg"><path d="m20 20.333v1.667h-2v-1.333l-7.418 1.236c-.0716.0119-.1449.0081-.2149-.0112s-.1349-.0536-.1903-.1005-.0999-.1053-.1304-.1712c-.0305-.0658-.0464-.1375-.0464-.2101v-1.41h-4v2h-2v-2h-1c-.26522 0-.51957-.1053-.70711-.2929-.18753-.1875-.29289-.4419-.29289-.7071v-14.99999c0-.26522.10536-.51957.29289-.70711.18754-.18753.44189-.29289.70711-.29289h7v-1.41c0-.07258.0159-.14428.0464-.21013.0305-.06584.075-.12425.1304-.17116s.1203-.0812.1903-.10049c.07-.0193.1433-.02312.2149-.01122l10.582 1.764c.2335.03882.4457.15921.5987.33976.1531.18054.2372.40953.2373.64624v2.153h1v2h-1v6.99999h1v2h-1v2.153c-.0001.2367-.0842.4657-.2373.6463-.153.1805-.3652.3009-.5987.3397zm-16-15.33299v12.99999h6v-12.99999zm8 14.63999 8-1.334v-13.61199l-8-1.333v16.27799zm4.5-5.64c-.828 0-1.5-1.12-1.5-2.5s.672-2.49999 1.5-2.49999 1.5 1.11999 1.5 2.49999-.672 2.5-1.5 2.5z" fill="rgb(0,0,0)"/></svg>