<?xml version="1.0" encoding="utf-8"?>
<!-- Generator: Adobe Illustrator 25.4.1, SVG Export Plug-In . SVG Version: 6.00 Build 0)  -->
<svg version="1.1" id="Layer_1" xmlns="http://www.w3.org/2000/svg" xmlns:xlink="http://www.w3.org/1999/xlink" x="0px" y="0px"
	 viewBox="0 0 512 512" enable-background="new 0 0 512 512" xml:space="preserve">
<g>
	<path d="M181.3,320h64c2.8,0,5.5,1.1,7.5,3.1c2,2,3.1,4.7,3.1,7.5s-1.1,5.5-3.1,7.5c-2,2-4.7,3.1-7.5,3.1h-96V384H192v21.3h42.7
		V384h10.7c14.1,0,27.7-5.6,37.7-15.6c10-10,15.6-23.6,15.6-37.7c0-14.1-5.6-27.7-15.6-37.7c-10-10-23.6-15.6-37.7-15.6h-64
		c-2.8,0-5.5-1.1-7.5-3.1c-2-2-3.1-4.7-3.1-7.5s1.1-5.5,3.1-7.5c2-2,4.7-3.1,7.5-3.1h96v-42.7h-42.7V192H192v21.3h-10.7
		c-14.1,0-27.7,5.6-37.7,15.6c-10,10-15.6,23.6-15.6,37.7c0,14.1,5.6,27.7,15.6,37.7C153.6,314.4,167.2,320,181.3,320z"/>
	<path d="M405.3,341.3h-42.7V128H192V85.3h192V42.7H170.7c-5.7,0-11.1,2.2-15.1,6.2c-4,4-6.2,9.4-6.2,15.1v64H85.5
		c-11.9,0-21.5,9.6-21.5,21.3L64,448c0,2.8,0.6,5.6,1.6,8.2c1.1,2.6,2.7,5,4.7,6.9c2,2,4.4,3.5,7,4.6c2.6,1.1,5.4,1.6,8.2,1.6h255.7
		c11.9,0,21.5-9.6,21.5-21.3v-64l64,0c5.7,0,11.1-2.2,15.1-6.2s6.2-9.4,6.2-15.1v-256h-42.7V341.3z M320,426.7H106.7l0.1-256H320
		V426.7z"/>
	<rect x="405.3" y="42.7" width="42.7" height="42.7"/>
</g>
</svg>
