<?xml version="1.0" encoding="utf-8"?>
<!-- Generator: Adobe Illustrator 25.4.1, SVG Export Plug-In . SVG Version: 6.00 Build 0)  -->
<svg version="1.1" id="Layer_1" xmlns="http://www.w3.org/2000/svg" xmlns:xlink="http://www.w3.org/1999/xlink" x="0px" y="0px"
	 viewBox="0 0 512 512" enable-background="new 0 0 512 512" xml:space="preserve">
<g>
	<path d="M469.3,202.7V85.3c0-5.7-2.2-11.1-6.2-15.1c-4-4-9.4-6.2-15.1-6.2H106.7v42.7h65.8c2.2,6.3,6.3,11.7,11.7,15.5
		c5.4,3.8,11.9,5.9,18.5,5.9c6.6,0,13.1-2.1,18.5-5.9c5.4-3.8,9.5-9.2,11.7-15.5h193.8V170c-16,7.9-29.5,20.2-38.9,35.4
		c-9.4,15.2-14.4,32.7-14.4,50.6s5,35.4,14.4,50.6c9.4,15.2,22.9,27.5,38.9,35.4v63.3H232.9c-2.2-6.3-6.3-11.7-11.7-15.5
		c-5.4-3.8-11.9-5.9-18.5-5.9c-6.6,0-13.1,2.1-18.5,5.9c-5.4,3.8-9.5,9.2-11.7,15.5H85.3V128H64H42.7v298.7c0,5.7,2.2,11.1,6.2,15.1
		c4,4,9.4,6.2,15.1,6.2h384c5.7,0,11.1-2.2,15.1-6.2s6.2-9.4,6.2-15.1V309.3c-14.1,0-27.7-5.6-37.7-15.6c-10-10-15.6-23.6-15.6-37.7
		s5.6-27.7,15.6-37.7C441.6,208.3,455.2,202.7,469.3,202.7z"/>
	<path d="M202.7,234.7c8.5,0,16.6-3.4,22.6-9.4c6-6,9.4-14.1,9.4-22.6c0-8.5-3.4-16.6-9.4-22.6c-6-6-14.1-9.4-22.6-9.4
		c-8.5,0-16.6,3.4-22.6,9.4s-9.4,14.1-9.4,22.6c0,8.5,3.4,16.6,9.4,22.6C186,231.3,194.2,234.7,202.7,234.7z"/>
	<path d="M180,332c6,6,14.1,9.4,22.6,9.4s16.6-3.4,22.6-9.4c6-6,9.4-14.1,9.4-22.6c0-8.5-3.4-16.6-9.4-22.6c-6-6-14.1-9.4-22.6-9.4
		c-8.5,0-16.6,3.4-22.6,9.4c-6,6-9.4,14.1-9.4,22.6C170.7,317.8,174,326,180,332z"/>
	<polygon points="85.3,64 64,64 64,64 42.7,64 42.7,85.3 42.7,85.3 42.7,106.7 85.3,106.7 	"/>
</g>
</svg>
