<?xml version="1.0" encoding="utf-8"?>
<!-- Generator: Adobe Illustrator 25.4.1, SVG Export Plug-In . SVG Version: 6.00 Build 0)  -->
<svg version="1.1" id="Layer_1" xmlns="http://www.w3.org/2000/svg" xmlns:xlink="http://www.w3.org/1999/xlink" x="0px" y="0px"
	 viewBox="0 0 512 512" enable-background="new 0 0 512 512" xml:space="preserve">
<g>
	<path d="M441.8,176.9c-4-4-9.4-6.2-15.1-6.2h-64V128c0-28.3-11.2-55.4-31.2-75.4c-20-20-47.1-31.2-75.4-31.2s-55.4,11.2-75.4,31.2
		c-20,20-31.2,47.1-31.2,75.4v42.7h-64c-5.7,0-11.1,2.2-15.1,6.2c-4,4-6.2,9.4-6.2,15.1v213.3h21.3h21.3v-192h42.7V256H192v-42.7
		h128V256h42.7v-42.7h42.7v213.3H128v42.7h298.7c5.7,0,11.1-2.2,15.1-6.2s6.2-9.4,6.2-15.1V192C448,186.3,445.8,180.9,441.8,176.9z
		 M320,170.7H192V128c0-17,6.7-33.3,18.7-45.3C222.7,70.7,239,64,256,64s33.3,6.7,45.3,18.7S320,111,320,128V170.7z"/>
	<polygon points="64,448 64,448 64,469.3 85.3,469.3 85.3,469.3 106.7,469.3 106.7,426.7 64,426.7 	"/>
</g>
</svg>
