<?xml version="1.0" encoding="utf-8"?>
<!-- Generator: Adobe Illustrator 25.4.1, SVG Export Plug-In . SVG Version: 6.00 Build 0)  -->
<svg version="1.1" id="Layer_1" xmlns="http://www.w3.org/2000/svg" xmlns:xlink="http://www.w3.org/1999/xlink" x="0px" y="0px"
	 viewBox="0 0 512 512" enable-background="new 0 0 512 512" xml:space="preserve">
<g>
	<path d="M469.3,202.7V85.3c0-5.7-2.2-11.1-6.2-15.1c-4-4-9.4-6.2-15.1-6.2H64c-5.7,0-11.1,2.2-15.1,6.2c-4,4-6.2,9.4-6.2,15.1
		v117.3c14.1,0,27.7,5.6,37.7,15.6c10,10,15.6,23.6,15.6,37.7s-5.6,27.7-15.6,37.7c-10,10-23.6,15.6-37.7,15.6V384h42.7v-42l3.3-1.7
		c15.1-8.3,27.8-20.4,36.6-35.3c8.8-14.8,13.4-31.8,13.4-49l-0.1-4.5c-0.8-16.5-5.8-32.5-14.5-46.4c-8.7-14-20.9-25.5-35.4-33.4
		l-3.3-1.7v-63.3h341.3V170l-3.3,1.8c-29.8,16.3-50,47.9-50,84.3l0.1,4.5c0.8,16.5,5.8,32.5,14.5,46.4c8.7,14,20.9,25.5,35.4,33.4
		l3.3,1.7v63.3h-320V448H85.3v-42.7H42.7v21.3v0V448H64c0,0,0,0,0,0h384c5.7,0,11.1-2.2,15.1-6.2s6.2-9.4,6.2-15.1V309.3
		c-14.1,0-27.7-5.6-37.7-15.6c-10-10-15.6-23.6-15.6-37.7s5.6-27.7,15.6-37.7C441.6,208.3,455.2,202.7,469.3,202.7z"/>
	<rect x="170.7" y="192" width="170.7" height="128"/>
</g>
</svg>
