<?xml version="1.0" encoding="utf-8"?>
<!-- Generator: Adobe Illustrator 25.4.1, SVG Export Plug-In . SVG Version: 6.00 Build 0)  -->
<svg version="1.1" id="Layer_1" xmlns="http://www.w3.org/2000/svg" xmlns:xlink="http://www.w3.org/1999/xlink" x="0px" y="0px"
	 viewBox="0 0 512 512" enable-background="new 0 0 512 512" xml:space="preserve">
<g>
	<rect x="320" y="277.3" width="42.7" height="85.3"/>
	<rect x="234.7" y="277.3" width="42.7" height="85.3"/>
	<rect x="149.3" y="277.3" width="42.7" height="85.3"/>
	<path d="M384,192v-21.3c0-33.9-13.5-66.5-37.5-90.5c-24-24-56.6-37.5-90.5-37.5c-33.9,0-66.5,13.5-90.5,37.5
		c-24,24-37.5,56.6-37.5,90.5V192H42.7v42.7h24.9L80,384h42.8l-12.4-149.3h291.3l-14.2,170.7h-245V448H121v-42.7H78.4V448h26.6
		c0,0,0,0,0,0H407c5.4,0,10.5-2,14.4-5.6c3.9-3.6,6.4-8.6,6.8-13.9l16.1-193.8h24.9V192H384z M341.3,192H170.7v-21.3l0.1-4.3
		c1.1-21.9,10.6-42.5,26.4-57.6c15.9-15.1,36.9-23.5,58.8-23.5l4.3,0.1c21.9,1.1,42.5,10.6,57.6,26.4c15.1,15.9,23.5,36.9,23.5,58.8
		V192z"/>
</g>
</svg>
