<?xml version="1.0" encoding="utf-8"?>
<!-- Generator: Adobe Illustrator 25.4.1, SVG Export Plug-In . SVG Version: 6.00 Build 0)  -->
<svg version="1.1" id="Layer_1" xmlns="http://www.w3.org/2000/svg" xmlns:xlink="http://www.w3.org/1999/xlink" x="0px" y="0px"
	 viewBox="0 0 512 512" enable-background="new 0 0 512 512" xml:space="preserve">
<g>
	<rect x="298.7" y="234.7" width="64" height="42.7"/>
	<path d="M469.3,149.3v-64c0-5.7-2.2-11.1-6.2-15.1c-4-4-9.4-6.2-15.1-6.2H64c-5.7,0-11.1,2.2-15.1,6.2c-4,4-6.2,9.4-6.2,15.1V384
		h42.7V106.7h341.3v42.7h-128c-28.3,0-55.4,11.2-75.4,31.2c-20,20-31.2,47.1-31.2,75.4s11.2,55.4,31.2,75.4
		c20,20,47.1,31.2,75.4,31.2h128v42.7h-320V448H85.3v-42.7H42.7v21.3v0V448H64c0,0,0,0,0,0h384c5.7,0,11.1-2.2,15.1-6.2
		s6.2-9.4,6.2-15.1v-64h21.3V149.3H469.3z M448,320H298.7c-17,0-33.3-6.7-45.3-18.7S234.7,273,234.7,256s6.7-33.3,18.7-45.3
		c12-12,28.3-18.7,45.3-18.7H448V320z"/>
</g>
</svg>
