<?xml version="1.0" encoding="utf-8"?>
<!-- Generator: Adobe Illustrator 25.4.1, SVG Export Plug-In . SVG Version: 6.00 Build 0)  -->
<svg version="1.1" id="Layer_1" xmlns="http://www.w3.org/2000/svg" xmlns:xlink="http://www.w3.org/1999/xlink" x="0px" y="0px"
	 viewBox="0 0 512 512" enable-background="new 0 0 512 512" xml:space="preserve">
<g>
	<path d="M463.1,70.2c-4-4-9.4-6.2-15.1-6.2H298.7c0,11.3-4.5,22.2-12.5,30.2c-8,8-18.9,12.5-30.2,12.5s-22.2-4.5-30.2-12.5
		c-8-8-12.5-18.9-12.5-30.2H106.7v42.7h75.4c7.5,13,18.3,23.8,31.2,31.2c13,7.5,27.7,11.4,42.7,11.4c15,0,29.7-3.9,42.7-11.4
		c13-7.5,23.8-18.3,31.2-31.2h96.7v298.7h-96.7c-14.8-25.5-42.3-42.7-73.9-42.7c-15,0-29.7,3.9-42.7,11.4
		c-13,7.5-23.8,18.3-31.2,31.2H85.3V128H64H42.7v298.7c0,5.7,2.2,11.1,6.2,15.1c4,4,9.4,6.2,15.1,6.2h149.3
		c0-11.3,4.5-22.2,12.5-30.2c8-8,18.9-12.5,30.2-12.5s22.2,4.5,30.2,12.5c8,8,12.5,18.9,12.5,30.2H448c5.7,0,11.1-2.2,15.1-6.2
		s6.2-9.4,6.2-15.1V85.3C469.3,79.7,467.1,74.2,463.1,70.2z"/>
	<rect x="341.3" y="170.7" width="42.7" height="170.7"/>
	<rect x="128" y="170.7" width="42.7" height="170.7"/>
	<polygon points="85.3,64 64,64 64,64 42.7,64 42.7,85.3 42.7,85.3 42.7,106.7 85.3,106.7 	"/>
</g>
</svg>
