<?xml version="1.0" encoding="utf-8"?>
<!-- Generator: Adobe Illustrator 25.4.1, SVG Export Plug-In . SVG Version: 6.00 Build 0)  -->
<svg version="1.1" id="Layer_1" xmlns="http://www.w3.org/2000/svg" xmlns:xlink="http://www.w3.org/1999/xlink" x="0px" y="0px"
	 viewBox="0 0 512 512" enable-background="new 0 0 512 512" xml:space="preserve">
<g>
	<rect x="150.1" y="64.8" width="42.7" height="42.7"/>
	<polygon points="301.2,149.3 256,194.6 210.8,149.3 180.6,179.5 225.8,224.8 170.7,224.8 170.7,267.4 234.7,267.4 234.7,288.8 
		170.7,288.8 170.7,331.4 234.7,331.4 234.7,374.1 277.3,374.1 277.3,331.4 341.3,331.4 341.3,288.8 277.3,288.8 277.3,267.4 
		341.3,267.4 341.3,224.8 286.2,224.8 331.4,179.5 	"/>
	<path d="M450.5,343.7c44.7-98.7,8-217.1-87.8-272.4c-32.3-18.7-68.9-28.5-106.2-28.6c-14.3,0-28.4,1.4-42.3,4.1v43.7
		c19.3-4.9,39.4-6.4,59.4-4.3c35.5,3.7,68.9,18.4,95.7,42c26.7,23.7,45.3,55.1,53.3,89.9c7.9,34.8,4.7,71.2-9.1,104.1l-26.6-15.3
		l3.5,100.6l88.9-47.2L450.5,343.7z"/>
	<path d="M238.5,425.8c-35.5-3.7-68.9-18.4-95.7-42c-26.7-23.7-45.3-55.1-53.3-89.9c-7.9-34.8-4.7-71.2,9.1-104.1l26.6,15.3
		l-3.5-100.6l-88.9,47.2l28.7,16.5c-44.7,98.7-8,217.1,87.8,272.4c32.3,18.7,68.9,28.5,106.2,28.6c14.3,0,28.4-1.4,42.3-4.1v-12.6
		v-27.1v-4C278.6,426.4,258.5,427.9,238.5,425.8z"/>
	<rect x="319.2" y="404.2" width="42.7" height="42.7"/>
</g>
</svg>
