<svg fill="none" height="512" viewBox="0 0 24 24" width="512" xmlns="http://www.w3.org/2000/svg"><path d="m5.67101 4.257c3.928-3.219 9.73299-2.995 13.39999.672 3.905 3.905 3.905 10.237 0 14.142s-10.23699 3.905-14.14199 0c-1.19837-1.1967-2.07292-2.6784-2.54154-4.3059-.46861-1.6275-.51591-3.3473-.13746-4.9981l.077-.313 1.934.51c-.47945 1.8223-.3003 3.7553.50588 5.4584.80619 1.7031 2.18766 3.067 3.90096 3.8513 1.71325.7843 3.64845.9386 5.46445.4359 1.8159-.5028 3.3962-1.6304 4.4621-3.1842 1.066-1.5537 1.5494-3.4339 1.3649-5.3091-.1846-1.87527-1.0251-3.62519-2.3734-4.9414-1.3484-1.31621-3.1181-2.11424-4.9972-2.25344s-3.7471.38936-5.27469 1.49254l-.221.166 1.017 1.017-4.596 1.06 1.06-4.596 1.096 1.096zm7.32899 1.743v2h2.5v2h-5.5c-.12493-.00023-.24544.0463-.33777.1305s-.1498.1999-.16109.3243c-.01129.1245.02442.2486.10009.348.07568.0995.18584.1669.30878.1892l.08999.008h4c.6631 0 1.2989.2634 1.7678.7322.4688.4689.7322 1.1048.7322 1.7678s-.2634 1.2989-.7322 1.7678c-.4689.4688-1.1047.7322-1.7678.7322h-1v2h-2v-2h-2.49999v-2h5.49999c.125.0002.2455-.0463.3378-.1305s.1498-.1999.1611-.3243c.0113-.1245-.0244-.2486-.1001-.348-.0757-.0995-.1858-.1669-.3088-.1892l-.09-.008h-4c-.66303 0-1.29891-.2634-1.76775-.7322-.46884-.4689-.73224-1.1048-.73224-1.7678 0-.66304.2634-1.29893.73224-1.76777s1.10472-.73223 1.76775-.73223h1v-2z" fill="rgb(0,0,0)"/></svg>