<?xml version="1.0" encoding="utf-8"?>
<!-- Generator: Adobe Illustrator 25.4.1, SVG Export Plug-In . SVG Version: 6.00 Build 0)  -->
<svg version="1.1" id="Layer_1" xmlns="http://www.w3.org/2000/svg" xmlns:xlink="http://www.w3.org/1999/xlink" x="0px" y="0px"
	 viewBox="0 0 512 512" enable-background="new 0 0 512 512" xml:space="preserve">
<g>
	<path d="M441.8,48.9c-4-4-9.4-6.2-15.1-6.2H85.3c-5.7,0-11.1,2.2-15.1,6.2c-4,4-6.2,9.4-6.2,15.1v341.3h21.3h21.3v-320h298.7v341.3
		H128v42.7h298.7c5.7,0,11.1-2.2,15.1-6.2s6.2-9.4,6.2-15.1V64C448,58.3,445.8,52.9,441.8,48.9z"/>
	<path d="M149.3,128v42.7c0,28.3,11.2,55.4,31.2,75.4c20,20,47.1,31.2,75.4,31.2s55.4-11.2,75.4-31.2c20-20,31.2-47.1,31.2-75.4V128
		H320v42.7c0,17-6.7,33.3-18.7,45.3c-12,12-28.3,18.7-45.3,18.7s-33.3-6.7-45.3-18.7c-12-12-18.7-28.3-18.7-45.3V128H149.3z"/>
	<polygon points="64,448 64,448 64,469.3 85.3,469.3 85.3,469.3 106.7,469.3 106.7,426.7 64,426.7 	"/>
</g>
</svg>
