<svg fill="none" height="512" viewBox="0 0 24 24" width="512" xmlns="http://www.w3.org/2000/svg"><path d="m16.394 12-6.394-4.26299v8.52599zm2.982.416-10.599 7.066c-.07529.0501-.16277.0789-.25311.0832s-.18016-.016-.25989-.0587c-.07973-.0426-.1464-.1062-.19289-.1837-.04649-.0776-.07106-.1664-.07111-.2568v-14.13199c.00005-.09045.02462-.17918.07111-.25676s.11316-.14109.19289-.18378.16955-.06296.25989-.05863c.09034.00432.17782.03306.25311.08317l10.599 7.06599c.0685.0457.1246.1075.1635.1801.0388.0726.0591.1536.0591.2359s-.0203.1633-.0591.2359c-.0389.0726-.095.1344-.1635.1801z" fill="rgb(0,0,0)"/></svg>