<?xml version="1.0" encoding="utf-8"?>
<!-- Generator: Adobe Illustrator 25.4.1, SVG Export Plug-In . SVG Version: 6.00 Build 0)  -->
<svg version="1.1" id="Layer_1" xmlns="http://www.w3.org/2000/svg" xmlns:xlink="http://www.w3.org/1999/xlink" x="0px" y="0px"
	 viewBox="0 0 512 512" enable-background="new 0 0 512 512" xml:space="preserve">
<g>
	<path d="M426.7,277.3h42.7V85.2c0-11.7-9.5-21.2-21.2-21.2H106.7v42.7h320V277.3z"/>
	<path d="M128,192c0,11.3,4.5,22.2,12.5,30.2c8,8,18.9,12.5,30.2,12.5c11.3,0,22.2-4.5,30.2-12.5c8-8,12.5-18.9,12.5-30.2
		s-4.5-22.2-12.5-30.2c-8-8-18.9-12.5-30.2-12.5s-22.2,4.5-30.2,12.5C132.5,169.8,128,180.7,128,192z"/>
	<polygon points="448,384 448,320 405.3,320 405.3,384 341.3,384 341.3,426.7 405.3,426.7 405.3,490.7 448,490.7 448,426.7 
		512,426.7 512,384 	"/>
	<path d="M362.7,316.4V256l-64-64L85.3,405.3V128H42.7v298.8c0,5.6,2.2,11,6.2,15s9.4,6.2,15,6.2h234.8v-42.7h-153l153-153
		L362.7,316.4z"/>
	<polygon points="85.3,64 64,64 63.8,64 42.7,64 42.7,85.2 42.7,85.3 42.7,106.7 85.3,106.7 	"/>
</g>
</svg>
