<?xml version="1.0" encoding="utf-8"?>
<!-- Generator: Adobe Illustrator 25.4.1, SVG Export Plug-In . SVG Version: 6.00 Build 0)  -->
<svg version="1.1" id="Layer_1" xmlns="http://www.w3.org/2000/svg" xmlns:xlink="http://www.w3.org/1999/xlink" x="0px" y="0px"
	 viewBox="0 0 512 512" enable-background="new 0 0 512 512" xml:space="preserve">
<g>
	<path d="M448.2,64H63.8c-5.6,0-11,2.3-14.9,6.3c-4,4-6.2,9.3-6.2,14.9l0,298.8h42.7V106.7h341.3v298.7h-320V448H85.3v-42.7H42.7
		V448h21.1c0,0,0,0,0,0h384.3c5.6,0,11-2.3,14.9-6.3s6.2-9.3,6.2-14.9V85.2C469.3,73.5,459.9,64,448.2,64z"/>
	<rect x="362.7" y="128" width="42.7" height="42.7"/>
	<path d="M331.4,331.4c20-20,31.2-47.1,31.2-75.4s-11.2-55.4-31.2-75.4c-20-20-47.1-31.2-75.4-31.2s-55.4,11.2-75.4,31.2
		c-20,20-31.2,47.1-31.2,75.4s11.2,55.4,31.2,75.4c20,20,47.1,31.2,75.4,31.2C284.3,362.7,311.4,351.4,331.4,331.4z M192,256
		c0-17,6.7-33.3,18.7-45.3c12-12,28.3-18.7,45.3-18.7s33.3,6.7,45.3,18.7c12,12,18.7,28.3,18.7,45.3s-6.7,33.3-18.7,45.3
		S273,320,256,320s-33.3-6.7-45.3-18.7C198.7,289.3,192,273,192,256z"/>
</g>
</svg>
