<?xml version="1.0" encoding="utf-8"?>
<!-- Generator: Adobe Illustrator 25.4.1, SVG Export Plug-In . SVG Version: 6.00 Build 0)  -->
<svg version="1.1" id="Layer_1" xmlns="http://www.w3.org/2000/svg" xmlns:xlink="http://www.w3.org/1999/xlink" x="0px" y="0px"
	 viewBox="0 0 512 512" enable-background="new 0 0 512 512" xml:space="preserve">
<g>
	<path d="M448,64H64c-11.8,0-21.3,9.6-21.3,21.3V384h42.7V106.7h341.3v298.7h-320V448H85.3v-42.7H42.7v21.3v0V448H64c0,0,0,0,0,0
		h384c11.8,0,21.3-9.6,21.3-21.3V85.3C469.3,73.6,459.8,64,448,64z"/>
	<path d="M106.7,256c0,47.1,38.2,85.3,85.3,85.3c23.6,0,44.9-9.6,60.3-25l-30.2-30.2c-7.7,7.7-18.4,12.5-30.2,12.5
		c-23.6,0-42.7-19.1-42.7-42.7s19.1-42.7,42.7-42.7c11.8,0,22.5,4.8,30.2,12.5l30.2-30.2c-15.4-15.5-36.8-25-60.4-25v0
		C144.9,170.7,106.7,208.9,106.7,256z"/>
	<path d="M341.3,213.3c11.8,0,22.5,4.8,30.2,12.5l30.2-30.2c-15.4-15.5-36.8-25-60.4-25l0,0c-47.1,0-85.3,38.2-85.3,85.3
		s38.2,85.3,85.3,85.3c23.6,0,44.9-9.6,60.3-25l-30.2-30.2c-7.7,7.7-18.4,12.5-30.2,12.5c-23.6,0-42.7-19.1-42.7-42.7
		S317.8,213.3,341.3,213.3z"/>
</g>
</svg>
