<?xml version="1.0" encoding="utf-8"?>
<!-- Generator: Adobe Illustrator 25.4.1, SVG Export Plug-In . SVG Version: 6.00 Build 0)  -->
<svg version="1.1" id="Layer_1" xmlns="http://www.w3.org/2000/svg" xmlns:xlink="http://www.w3.org/1999/xlink" x="0px" y="0px"
	 viewBox="0 0 512 512" enable-background="new 0 0 512 512" xml:space="preserve">
<g>
	<path d="M252.4,85.3C248,72.8,239.8,62,229,54.4c-10.8-7.7-23.7-11.8-37-11.8s-26.2,4.1-37,11.8c-10.8,7.7-19,18.5-23.4,31h-89V128
		h89c4.4,12.5,12.6,23.3,23.4,31c10.8,7.7,23.7,11.8,37,11.8s26.2-4.1,37-11.8c10.8-7.7,19-18.5,23.4-31h217V85.3H252.4z
		 M207.1,121.8c-4,4-9.4,6.2-15.1,6.2s-11.1-2.2-15.1-6.2c-4-4-6.2-9.4-6.2-15.1s2.2-11.1,6.2-15.1c4-4,9.4-6.2,15.1-6.2
		s11.1,2.2,15.1,6.2c4,4,6.2,9.4,6.2,15.1S211.1,117.8,207.1,121.8z"/>
	<path d="M229,353c-10.8-7.7-23.7-11.8-37-11.8s-26.2,4.1-37,11.8c-10.8,7.7-19,18.5-23.4,31h-89v42.7h89
		c4.4,12.5,12.6,23.3,23.4,31c10.8,7.7,23.7,11.8,37,11.8s26.2-4.1,37-11.8c10.8-7.7,19-18.5,23.4-31h153V384h-153
		C248,371.5,239.8,360.7,229,353z M207.1,420.4c-4,4-9.4,6.2-15.1,6.2s-11.1-2.2-15.1-6.2c-4-4-6.2-9.4-6.2-15.1s2.2-11.1,6.2-15.1
		c4-4,9.4-6.2,15.1-6.2s11.1,2.2,15.1,6.2c4,4,6.2,9.4,6.2,15.1S211.1,416.4,207.1,420.4z"/>
	<path d="M357,203.7c-10.8-7.7-23.7-11.8-37-11.8s-26.2,4.1-37,11.8c-10.8,7.7-19,18.5-23.4,31h-217v42.7h217
		c4.4,12.5,12.6,23.3,23.4,31c10.8,7.7,23.7,11.8,37,11.8s26.2-4.1,37-11.8c10.8-7.7,19-18.5,23.4-31h89v-42.7h-89
		C376,222.2,367.8,211.4,357,203.7z M335.1,271.1c-4,4-9.4,6.2-15.1,6.2s-11.1-2.2-15.1-6.2c-4-4-6.2-9.4-6.2-15.1
		s2.2-11.1,6.2-15.1s9.4-6.2,15.1-6.2s11.1,2.2,15.1,6.2s6.2,9.4,6.2,15.1S339.1,267.1,335.1,271.1z"/>
	<polygon points="426.7,426.7 448,426.7 469.3,426.7 469.3,405.3 469.3,384 426.7,384 	"/>
</g>
</svg>
