<?xml version="1.0" encoding="utf-8"?>
<!-- Generator: Adobe Illustrator 25.4.1, SVG Export Plug-In . SVG Version: 6.00 Build 0)  -->
<svg version="1.1" id="Layer_1" xmlns="http://www.w3.org/2000/svg" xmlns:xlink="http://www.w3.org/1999/xlink" x="0px" y="0px"
	 viewBox="0 0 512 512" enable-background="new 0 0 512 512" xml:space="preserve">
<g>
	<rect x="42.7" y="85.3" width="426.7" height="42.7"/>
	<rect x="42.7" y="234.7" width="298.7" height="42.7"/>
	<path d="M405.3,192v131.6h0c-12.8-4.5-26.7-4.9-39.7-1c-13,3.9-24.4,11.8-32.6,22.7c-8.2,10.8-12.7,24-13,37.6
		c-0.2,13.6,3.9,26.9,11.7,38c7.8,11.1,19,19.4,31.9,23.7s26.8,4.4,39.7,0.3c12.9-4.1,24.3-12.2,32.3-23.2c8-11,12.4-24.2,12.4-37.8
		V234.7h64V192H405.3z M399.1,399.1c-4,4-9.4,6.2-15.1,6.2s-11.1-2.2-15.1-6.2s-6.2-9.4-6.2-15.1s2.2-11.1,6.2-15.1
		s9.4-6.2,15.1-6.2s11.1,2.2,15.1,6.2s6.2,9.4,6.2,15.1S403.1,395.1,399.1,399.1z"/>
	<rect x="106.7" y="384" width="149.3" height="42.7"/>
	<polygon points="42.7,405.3 42.7,426.7 42.7,426.7 85.3,426.7 85.3,384 42.7,384 	"/>
</g>
</svg>
