<?xml version="1.0" encoding="utf-8"?>
<!-- Generator: Adobe Illustrator 25.4.1, SVG Export Plug-In . SVG Version: 6.00 Build 0)  -->
<svg version="1.1" id="Layer_1" xmlns="http://www.w3.org/2000/svg" xmlns:xlink="http://www.w3.org/1999/xlink" x="0px" y="0px"
	 viewBox="0 0 512 512" enable-background="new 0 0 512 512" xml:space="preserve">
<g>
	<path d="M463.1,70.2c-4-4-9.4-6.2-15.1-6.2H64c-5.7,0-11.1,2.2-15.1,6.2c-4,4-6.2,9.4-6.2,15.1V384h42.7V106.7h341.3v298.7h-320
		V448H448c5.7,0,11.1-2.2,15.1-6.2s6.2-9.4,6.2-15.1V85.3C469.3,79.7,467.1,74.2,463.1,70.2z"/>
	<path d="M106.7,257.5c0,19.6,3.8,39,11.3,57.2c7.5,18.1,18.5,34.6,32.4,48.4l30.2-30.2c-19.3-19.3-31.2-46-31.2-75.4
		c0-14,2.7-27.9,8.1-40.8c5.4-12.9,13.2-24.7,23.1-34.6l-30.2-30.2v0C123.4,178.9,106.7,216.3,106.7,257.5z"/>
	<path d="M301.3,302.8c12-12,18.7-28.3,18.7-45.3s-6.7-33.3-18.7-45.3c-12-12-28.3-18.7-45.3-18.7c-17,0-33.3,6.7-45.3,18.7
		c-12,12-18.7,28.3-18.7,45.3s6.7,33.3,18.7,45.3c12,12,28.3,18.7,45.3,18.7C273,321.5,289.3,314.8,301.3,302.8z M234.7,257.5
		c0-5.7,2.2-11.1,6.2-15.1s9.4-6.2,15.1-6.2s11.1,2.2,15.1,6.2s6.2,9.4,6.2,15.1s-2.2,11.1-6.2,15.1s-9.4,6.2-15.1,6.2
		s-11.1-2.2-15.1-6.2S234.7,263.2,234.7,257.5z"/>
	<path d="M331.4,332.9l30.2,30.2c13.9-13.9,24.9-30.3,32.4-48.4c7.5-18.1,11.4-37.5,11.3-57.2c0-19.6-3.8-39-11.3-57.2
		c-7.5-18.1-18.5-34.6-32.4-48.4l0,0l-30.2,30.2c19.3,19.3,31.2,46,31.2,75.4c0,14-2.7,27.9-8.1,40.8
		C349.2,311.3,341.4,323.1,331.4,332.9z"/>
	<rect x="42.7" y="405.3" width="42.7" height="42.7"/>
</g>
</svg>
