<?xml version="1.0" encoding="utf-8"?>
<!-- Generator: Adobe Illustrator 25.4.1, SVG Export Plug-In . SVG Version: 6.00 Build 0)  -->
<svg version="1.1" id="Layer_1" xmlns="http://www.w3.org/2000/svg" xmlns:xlink="http://www.w3.org/1999/xlink" x="0px" y="0px"
	 viewBox="0 0 512 512" enable-background="new 0 0 512 512" xml:space="preserve">
<g>
	<path d="M463.1,70.2c-4-4-9.4-6.2-15.1-6.2H64c-5.7,0-11.1,2.2-15.1,6.2c-4,4-6.2,9.4-6.2,15.1V384h42.7V106.7h341.3v298.7h-320
		V448H85.3v-42.7H42.7v21.3v0V448H64c0,0,0,0,0,0h384c5.7,0,11.1-2.2,15.1-6.2s6.2-9.4,6.2-15.1V85.3
		C469.3,79.7,467.1,74.2,463.1,70.2z"/>
	<polygon points="128,192 128,320 160,320 160,272 202.7,272 202.7,320 234.7,320 234.7,192 202.7,192 202.7,240 160,240 160,192 	
		"/>
	<path d="M384,277.3v-42.7c0-11.3-4.5-22.2-12.5-30.2c-8-8-18.9-12.5-30.2-12.5h-64v128h64c11.3,0,22.2-4.5,30.2-12.5
		C379.5,299.5,384,288.6,384,277.3z M352,277.3c0,2.8-1.1,5.5-3.1,7.5c-2,2-4.7,3.1-7.5,3.1h-32v-64h32c2.8,0,5.5,1.1,7.5,3.1
		c2,2,3.1,4.7,3.1,7.5V277.3z"/>
</g>
</svg>
