<?xml version="1.0" encoding="utf-8"?>
<!-- Generator: Adobe Illustrator 25.4.1, SVG Export Plug-In . SVG Version: 6.00 Build 0)  -->
<svg version="1.1" id="Layer_1" xmlns="http://www.w3.org/2000/svg" xmlns:xlink="http://www.w3.org/1999/xlink" x="0px" y="0px"
	 viewBox="0 0 512 512" enable-background="new 0 0 512 512" xml:space="preserve">
<g>
	<path d="M448.2,106.7H63.8c-11.5,0-21.2,9.6-21.2,21.3v256h42.7V149.3h341.3v256h-320V448H85.3v-42.7H42.7V448h21.1c0,0,0,0,0,0
		h384.3c11.5,0,21.2-9.6,21.2-21.3V128C469.3,116.2,459.9,106.7,448.2,106.7z"/>
	<rect x="85.3" y="42.7" width="128" height="42.7"/>
	<path d="M374.1,352.8c20-20,31.2-47.1,31.2-75.4c0-28.3-11.2-55.4-31.2-75.4c-20-20-47.1-31.2-75.4-31.2
		c-28.3,0-55.4,11.2-75.4,31.2c-20,20-31.2,47.1-31.2,75.4c0,28.3,11.2,55.4,31.2,75.4c20,20,47.1,31.2,75.4,31.2
		C327,384,354.1,372.8,374.1,352.8z M234.7,277.3c0-17,6.7-33.3,18.7-45.3s28.3-18.7,45.3-18.7c17,0,33.3,6.7,45.3,18.7
		c12,12,18.7,28.3,18.7,45.3c0,17-6.7,33.3-18.7,45.3s-28.3,18.7-45.3,18.7c-17,0-33.3-6.7-45.3-18.7S234.7,294.3,234.7,277.3z"/>
</g>
</svg>
