<?xml version="1.0" encoding="utf-8"?>
<!-- Generator: Adobe Illustrator 25.4.1, SVG Export Plug-In . SVG Version: 6.00 Build 0)  -->
<svg version="1.1" id="Layer_1" xmlns="http://www.w3.org/2000/svg" xmlns:xlink="http://www.w3.org/1999/xlink" x="0px" y="0px"
	 viewBox="0 0 512 512" enable-background="new 0 0 512 512" xml:space="preserve">
<g>
	<path d="M224.1,72.5c13-7.5,28.3-10.2,43.1-7.6c14.8,2.6,28.2,10.4,37.9,21.9C314.7,98.4,320,113,320,128v85.3
		c0,5.2-0.6,10.2-1.8,15l33,33h0c7.5-14.9,11.4-31.3,11.4-48V128c0-23.4-7.7-46.2-21.9-64.8c-14.2-18.6-34.2-32-56.8-38.2
		c-22.6-6.1-46.6-4.7-68.3,4.2S175.8,53.8,164,74l31.9,31.9C201,91.9,211,80,224.1,72.5z"/>
	<path d="M446.8,234.7h-43c-3,21.1-10.4,40.7-21.3,58l30.8,30.8C431.8,297.1,443.3,266.6,446.8,234.7z"/>
	<path d="M59.9,29.7L29.7,59.9l119.6,119.6v33.8c0,16.5,3.8,32.9,11.2,47.7c7.4,14.8,18.1,27.7,31.3,37.6
		c13.2,9.9,28.6,16.7,44.8,19.7c16.3,3,33,2.2,48.9-2.4l33.1,33.1c-21.1,9.8-44.2,14.5-67.5,13.7c-23.3-0.7-46-6.9-66.5-18
		c-20.5-11.1-38-26.8-51.3-45.9c0,0,0,0,0,0H84c9.2,18.5,21.4,35.6,36.2,50.4c30.8,30.8,71.1,50.2,114.4,55.1v86.5h42.7v-86.5
		c25.7-2.8,50.6-10.9,73.1-23.6l101.7,101.7l30.2-30.2L59.9,29.7z"/>
	<polygon points="106.7,234.7 85.3,234.7 65.2,234.7 64,234.7 64,277.3 106.7,277.3 	"/>
</g>
</svg>
