<?xml version="1.0" encoding="utf-8"?>
<!-- Generator: Adobe Illustrator 25.4.1, SVG Export Plug-In . SVG Version: 6.00 Build 0)  -->
<svg version="1.1" id="Layer_1" xmlns="http://www.w3.org/2000/svg" xmlns:xlink="http://www.w3.org/1999/xlink" x="0px" y="0px"
	 viewBox="0 0 512 512" enable-background="new 0 0 512 512" xml:space="preserve">
<g>
	<path d="M423.4,289.5c-7.8,38.7-28.7,73.4-59.2,98.4c-30.5,25-68.7,38.6-108.2,38.6s-77.7-13.7-108.2-38.6
		c-12.2-10-22.9-21.6-31.9-34.4H66.2c35.4,68.8,107.1,115.9,189.8,115.9c103.5,0,189.8-73.7,209.2-171.5L423.4,289.5z"/>
	<path d="M256,362.7c28.3,0,55.4-11.2,75.4-31.2c20-20,31.2-47.1,31.2-75.4V128c0-14-2.8-27.9-8.1-40.8
		c-5.4-12.9-13.2-24.7-23.1-34.6c-9.9-9.9-21.7-17.8-34.6-23.1c-12.9-5.4-26.8-8.1-40.8-8.1c-28.3,0-55.4,11.2-75.4,31.2
		c-20,20-31.2,47.1-31.2,75.4v128c0,28.3,11.2,55.4,31.2,75.4C200.6,351.4,227.7,362.7,256,362.7z M192,128c0-17,6.7-33.3,18.7-45.3
		C222.7,70.7,239,64,256,64c17,0,33.3,6.7,45.3,18.7S320,111,320,128v128c0,17-6.7,33.3-18.7,45.3S273,320,256,320
		c-17,0-33.3-6.7-45.3-18.7c-12-12-18.7-28.3-18.7-45.3V128z"/>
	<rect x="46.8" y="289.5" width="42.7" height="42.7"/>
</g>
</svg>
