<?xml version="1.0" encoding="utf-8"?>
<!-- Generator: Adobe Illustrator 25.4.1, SVG Export Plug-In . SVG Version: 6.00 Build 0)  -->
<svg version="1.1" id="Layer_1" xmlns="http://www.w3.org/2000/svg" xmlns:xlink="http://www.w3.org/1999/xlink" x="0px" y="0px"
	 viewBox="0 0 512 512" enable-background="new 0 0 512 512" xml:space="preserve">
<g>
	<rect x="384" y="277.3" width="42.7" height="64"/>
	<path d="M426.7,234.7c22.6,0,44.3-9,60.3-25c16-16,25-37.7,25-60.3S503,105,487,89c-16-16-37.7-25-60.3-25s-44.3,9-60.3,25
		c-16,16-25,37.7-25,60.3s9,44.3,25,60.3C382.3,225.7,404,234.7,426.7,234.7z M396.5,119.2c8-8,18.9-12.5,30.2-12.5
		s22.2,4.5,30.2,12.5c8,8,12.5,18.9,12.5,30.2c0,11.3-4.5,22.2-12.5,30.2c-8,8-18.9,12.5-30.2,12.5s-22.2-4.5-30.2-12.5
		c-8-8-12.5-18.9-12.5-30.2C384,138,388.5,127.2,396.5,119.2z"/>
	<path d="M64,128h236.4c2.5-15,7.7-29.5,15.4-42.7h0H42.7c-12,0-21.4,9.6-21.4,21.3v256H64V128z"/>
	<path d="M448,384H85.3v42.7h384c12,0,21.4-9.6,21.4-21.4V260.2c-13.2,7.6-27.6,12.8-42.7,15.4V384z"/>
	<rect x="21.3" y="384" width="42.7" height="42.7"/>
</g>
</svg>
