<?xml version="1.0" encoding="utf-8"?>
<!-- Generator: Adobe Illustrator 25.4.1, SVG Export Plug-In . SVG Version: 6.00 Build 0)  -->
<svg version="1.1" id="Layer_1" xmlns="http://www.w3.org/2000/svg" xmlns:xlink="http://www.w3.org/1999/xlink" x="0px" y="0px"
	 viewBox="0 0 512 512" enable-background="new 0 0 512 512" xml:space="preserve">
<g>
	<path d="M256,42.7C138.2,42.7,42.7,138.2,42.7,256v149.3c0,11.3,4.5,22.2,12.5,30.2c8,8,18.9,12.5,30.2,12.5h64
		c11.3,0,22.2-4.5,30.2-12.5c8-8,12.5-18.9,12.5-30.2V298.7c0-11.3-4.5-22.2-12.5-30.2c-8-8-18.9-12.5-30.2-12.5h-64
		c0-45.3,18-88.7,50-120.7c32-32,75.4-50,120.7-50c45.3,0,88.7,18,120.7,50c32,32,50,75.4,50,120.7h-64c-11.3,0-22.2,4.5-30.2,12.5
		S320,287.4,320,298.7v106.7c0,11.3,4.5,22.2,12.5,30.2c8,8,18.9,12.5,30.2,12.5h64c11.3,0,22.2-4.5,30.2-12.5
		c8-8,12.5-18.9,12.5-30.2V256C469.3,138.2,373.8,42.7,256,42.7z M149.3,298.7v106.7h-64V298.7H149.3z M426.7,405.3h-64V298.7h64
		V405.3z"/>
	<rect x="234.7" y="405.3" width="42.7" height="42.7"/>
</g>
</svg>
