<?xml version="1.0" encoding="utf-8"?>
<!-- Generator: Adobe Illustrator 25.4.1, SVG Export Plug-In . SVG Version: 6.00 Build 0)  -->
<svg version="1.1" id="Layer_1" xmlns="http://www.w3.org/2000/svg" xmlns:xlink="http://www.w3.org/1999/xlink" x="0px" y="0px"
	 viewBox="0 0 512 512" enable-background="new 0 0 512 512" xml:space="preserve">
<g>
	<path d="M209.7,106.7h92.7l42.7,42.7h81.7v187.4l42.7,42.7V128c0-5.7-2.2-11.1-6.2-15.1c-4-4-9.4-6.2-15.1-6.2h-85.3L320,64H192
		L173,83.1l30.2,30.2L209.7,106.7z"/>
	<path d="M59.9,29.7L29.7,59.9l46.8,46.8H64c-5.7,0-11.1,2.2-15.1,6.2c-4,4-6.2,9.4-6.2,15.1v256h42.7V149.3h33.8l44.7,44.7
		c-17.9,22.6-26.8,50.9-25.1,79.6s13.8,55.8,34.2,76.2c20.3,20.3,47.5,32.5,76.2,34.2s57.1-7.3,79.6-25.1l46.5,46.5H106.7V448H85.3
		v-42.7H42.7V448H64c0,0,0,0,0,0h353.8l34.3,34.3l30.2-30.2L59.9,29.7z M249.1,341c-17.3-1.6-33.6-9.2-45.9-21.5
		c-12.3-12.3-19.9-28.5-21.5-45.9c-1.6-17.3,2.9-34.7,12.7-49.1l103.8,103.8C283.8,338.2,266.4,342.7,249.1,341z"/>
	<path d="M293.5,155.5c-17.1-5.8-35.3-7.5-53.3-5.1l49.9,49.9c13.8,7.1,25.1,18.4,32.3,32.3l49.9,49.9c2.4-17.9,0.7-36.1-5.1-53.3
		c-5.8-17.1-15.4-32.7-28.2-45.5C326.2,170.9,310.7,161.3,293.5,155.5z"/>
</g>
</svg>
