<?xml version="1.0" encoding="utf-8"?>
<!-- Generator: Adobe Illustrator 25.4.1, SVG Export Plug-In . SVG Version: 6.00 Build 0)  -->
<svg version="1.1" id="Layer_1" xmlns="http://www.w3.org/2000/svg" xmlns:xlink="http://www.w3.org/1999/xlink" x="0px" y="0px"
	 viewBox="0 0 512 512" enable-background="new 0 0 512 512" xml:space="preserve">
<g>
	<path d="M362.7,341.3c-5.7,0-11.1,2.2-15.1,6.2s-6.2,9.4-6.2,15.1s2.2,11.1,6.2,15.1s9.4,6.2,15.1,6.2s11.1-2.2,15.1-6.2
		s6.2-9.4,6.2-15.1s-2.2-11.1-6.2-15.1S368.3,341.3,362.7,341.3z"/>
	<path d="M377.8,134.2c-4-4-9.4-6.2-15.1-6.2s-11.1,2.2-15.1,6.2c-4,4-6.2,9.4-6.2,15.1s2.2,11.1,6.2,15.1c4,4,9.4,6.2,15.1,6.2
		s11.1-2.2,15.1-6.2c4-4,6.2-9.4,6.2-15.1S381.8,138.2,377.8,134.2z"/>
	<path d="M256,234.7c-5.7,0-11.1,2.2-15.1,6.2s-6.2,9.4-6.2,15.1s2.2,11.1,6.2,15.1s9.4,6.2,15.1,6.2s11.1-2.2,15.1-6.2
		s6.2-9.4,6.2-15.1s-2.2-11.1-6.2-15.1S261.7,234.7,256,234.7z"/>
	<path d="M134.2,377.8c4,4,9.4,6.2,15.1,6.2s11.1-2.2,15.1-6.2c4-4,6.2-9.4,6.2-15.1s-2.2-11.1-6.2-15.1c-4-4-9.4-6.2-15.1-6.2
		s-11.1,2.2-15.1,6.2c-4,4-6.2,9.4-6.2,15.1S130.2,373.8,134.2,377.8z"/>
	<path d="M441.8,70.2c-4-4-9.4-6.2-15.1-6.2H85.3c-5.7,0-11.1,2.2-15.1,6.2c-4,4-6.2,9.4-6.2,15.1V384h42.7V106.7h298.7v298.7H128
		V448h298.7c5.7,0,11.1-2.2,15.1-6.2s6.2-9.4,6.2-15.1V85.3C448,79.7,445.8,74.2,441.8,70.2z"/>
	<path d="M149.3,128c-5.7,0-11.1,2.2-15.1,6.2c-4,4-6.2,9.4-6.2,15.1s2.2,11.1,6.2,15.1c4,4,9.4,6.2,15.1,6.2s11.1-2.2,15.1-6.2
		c4-4,6.2-9.4,6.2-15.1s-2.2-11.1-6.2-15.1C160.4,130.2,155,128,149.3,128z"/>
	<path d="M256,149.3c-28.3,0-55.4,11.2-75.4,31.2c-20,20-31.2,47.1-31.2,75.4s11.2,55.4,31.2,75.4c20,20,47.1,31.2,75.4,31.2
		c28.3,0,55.4-11.2,75.4-31.2c20-20,31.2-47.1,31.2-75.4s-11.2-55.4-31.2-75.4C311.4,160.6,284.3,149.3,256,149.3z M301.3,301.3
		c-12,12-28.3,18.7-45.3,18.7s-33.3-6.7-45.3-18.7c-12-12-18.7-28.3-18.7-45.3s6.7-33.3,18.7-45.3c12-12,28.3-18.7,45.3-18.7
		s33.3,6.7,45.3,18.7c12,12,18.7,28.3,18.7,45.3S313.3,289.3,301.3,301.3z"/>
	<rect x="64" y="405.3" width="42.7" height="42.7"/>
</g>
</svg>
