<?xml version="1.0" encoding="utf-8"?>
<!-- Generator: Adobe Illustrator 25.4.1, SVG Export Plug-In . SVG Version: 6.00 Build 0)  -->
<svg version="1.1" id="Layer_1" xmlns="http://www.w3.org/2000/svg" xmlns:xlink="http://www.w3.org/1999/xlink" x="0px" y="0px"
	 viewBox="0 0 512 512" enable-background="new 0 0 512 512" xml:space="preserve">
<g>
	<polygon points="128,192 128,288 192,288 192,320 224,320 224,288 245.3,288 245.3,256 224,256 224,192 192,192 192,256 160,256 
		160,192 	"/>
	<path d="M463.1,70.2c-4-4-9.4-6.2-15.1-6.2H64c-5.7,0-11.1,2.2-15.1,6.2c-4,4-6.2,9.4-6.2,15.1V384h42.7V106.7h341.3v298.7h-320
		V448H85.3v-42.7H42.7v21.3v0V448H64c0,0,0,0,0,0h384c5.7,0,11.1-2.2,15.1-6.2s6.2-9.4,6.2-15.1V85.3
		C469.3,79.7,467.1,74.2,463.1,70.2z"/>
	<polygon points="277.3,192 277.3,320 309.3,320 309.3,272 346.7,320 384,320 336,256 384,192 346.7,192 309.3,240 309.3,192 	"/>
</g>
</svg>
