<?xml version="1.0" encoding="utf-8"?>
<!-- Generator: Adobe Illustrator 25.4.1, SVG Export Plug-In . SVG Version: 6.00 Build 0)  -->
<svg version="1.1" id="Layer_1" xmlns="http://www.w3.org/2000/svg" xmlns:xlink="http://www.w3.org/1999/xlink" x="0px" y="0px"
	 viewBox="0 0 512 512" enable-background="new 0 0 512 512" xml:space="preserve">
<g>
	<path d="M256.2,85.3c22.4,0,44.5,6,63.9,17.2c19.4,11.2,35.6,27.4,46.8,46.9c11.2,19.4,17.1,41.5,17.1,64v80.8l42.7,42.7V213.3
		c0-30.9-8.4-61.2-24.3-87.7s-38.7-48.2-65.9-62.8c-27.2-14.6-57.9-21.5-88.8-20c-30.9,1.5-60.7,11.3-86.4,28.5l30.9,31
		C211.7,91.1,233.7,85.3,256.2,85.3z"/>
	<path d="M218.3,485.7c10,10,23.6,15.6,37.7,15.6c14.1,0,27.7-5.6,37.7-15.6c10-10,15.6-23.6,15.6-37.7H202.7
		C202.7,462.1,208.3,475.7,218.3,485.7z"/>
	<path d="M59.9,29.7L29.7,59.9l74.8,74.8c-12.3,23.5-19.2,50.3-19.2,78.7v149.3h37.8v0h4.9V213.3c0-15.9,2.9-31.7,8.7-46.5
		L353.8,384H138.7v42.7h-21.3V384H74.7v42.7h10.6c0,0,0,0,0.1,0h311.2l55.6,55.6l30.2-30.2L59.9,29.7z"/>
</g>
</svg>
