<?xml version="1.0" encoding="utf-8"?>
<!-- Generator: Adobe Illustrator 25.4.1, SVG Export Plug-In . SVG Version: 6.00 Build 0)  -->
<svg version="1.1" id="Layer_1" xmlns="http://www.w3.org/2000/svg" xmlns:xlink="http://www.w3.org/1999/xlink" x="0px" y="0px"
	 viewBox="0 0 512 512" enable-background="new 0 0 512 512" xml:space="preserve">
<g>
	<polygon points="448,128 426.7,128 405.3,128 405.3,298.7 448,298.7 	"/>
	<polygon points="21.3,384 64,384 64,448 106.7,448 106.7,384 149.3,384 149.3,341.3 21.3,341.3 	"/>
	<rect x="64" y="64" width="42.7" height="234.7"/>
	<polygon points="362.7,341.3 362.7,384 405.3,384 405.3,448 448,448 448,384 490.7,384 490.7,341.3 	"/>
	<polygon points="277.3,64 234.7,64 234.7,128 192,128 192,170.7 320,170.7 320,128 277.3,128 	"/>
	<rect x="234.7" y="213.3" width="42.7" height="234.7"/>
	<polygon points="448,64 426.7,64 405.3,64 405.3,85.3 405.3,106.7 448,106.7 	"/>
</g>
</svg>
