<?xml version="1.0" encoding="utf-8"?>
<!-- Generator: Adobe Illustrator 25.4.1, SVG Export Plug-In . SVG Version: 6.00 Build 0)  -->
<svg version="1.1" id="Layer_1" xmlns="http://www.w3.org/2000/svg" xmlns:xlink="http://www.w3.org/1999/xlink" x="0px" y="0px"
	 viewBox="0 0 512 512" enable-background="new 0 0 512 512" xml:space="preserve">
<g>
	<rect x="128" y="128" width="42.7" height="64"/>
	<path d="M405.3,405.3H128V448h298.7c5.7,0,11.1-2.2,15.1-6.2s6.2-9.4,6.2-15.1V384h-42.7V405.3z"/>
	<path d="M441.8,70.2c-4-4-9.4-6.2-15.1-6.2H85.3c-5.7,0-11.1,2.2-15.1,6.2c-4,4-6.2,9.4-6.2,15.1V384h42.7V106.7h298.7V128H448
		V85.3C448,79.7,445.8,74.2,441.8,70.2z"/>
	<path d="M320,128c-33.9,0-66.5,13.5-90.5,37.5c-24,24-37.5,56.6-37.5,90.5s13.5,66.5,37.5,90.5c24,24,56.6,37.5,90.5,37.5
		s66.5-13.5,90.5-37.5c24-24,37.5-56.6,37.5-90.5s-13.5-66.5-37.5-90.5C386.5,141.5,353.9,128,320,128z M380.3,316.3
		c-16,16-37.7,25-60.3,25c-22.6,0-44.3-9-60.3-25c-16-16-25-37.7-25-60.3s9-44.3,25-60.3c16-16,37.7-25,60.3-25
		c22.6,0,44.3,9,60.3,25c16,16,25,37.7,25,60.3S396.3,300.3,380.3,316.3z"/>
	<path d="M320,213.3c-11.3,0-22.2,4.5-30.2,12.5s-12.5,18.9-12.5,30.2s4.5,22.2,12.5,30.2s18.9,12.5,30.2,12.5s22.2-4.5,30.2-12.5
		s12.5-18.9,12.5-30.2s-4.5-22.2-12.5-30.2S331.3,213.3,320,213.3z"/>
	<rect x="64" y="405.3" width="42.7" height="42.7"/>
</g>
</svg>
