<?xml version="1.0" encoding="utf-8"?>
<!-- Generator: Adobe Illustrator 25.4.1, SVG Export Plug-In . SVG Version: 6.00 Build 0)  -->
<svg version="1.1" id="Layer_1" xmlns="http://www.w3.org/2000/svg" xmlns:xlink="http://www.w3.org/1999/xlink" x="0px" y="0px"
	 viewBox="0 0 512 512" enable-background="new 0 0 512 512" xml:space="preserve">
<g>
	<path d="M463.1,70.2c-4-4-9.4-6.2-15.1-6.2H64c-5.7,0-11.1,2.2-15.1,6.2c-4,4-6.2,9.4-6.2,15.1V384h42.7V106.7h341.3v298.7h-320
		V448H448c5.7,0,11.1-2.2,15.1-6.2s6.2-9.4,6.2-15.1V85.3C469.3,79.7,467.1,74.2,463.1,70.2z"/>
	<path d="M232,237.6c-3.9-13-11.9-24.4-22.7-32.6c-10.8-8.2-24-12.7-37.6-13c-13.6-0.2-26.9,3.9-38,11.7
		c-11.1,7.8-19.4,19-23.7,31.9s-4.4,26.8-0.3,39.7c4.1,12.9,12.2,24.3,23.2,32.3c11,8,24.2,12.4,37.8,12.4h170.7
		c13.6,0,26.8-4.3,37.8-12.4c11-8,19.1-19.3,23.2-32.3c4.1-12.9,4-26.9-0.3-39.7c-4.3-12.9-12.6-24-23.7-31.9
		c-11.1-7.8-24.4-11.9-38-11.7c-13.6,0.2-26.7,4.8-37.6,13c-10.8,8.2-18.8,19.6-22.7,32.6c-3.9,13-3.6,26.9,1,39.7H231
		C235.6,264.5,235.9,250.6,232,237.6z M185.8,271.1c-4,4-9.4,6.2-15.1,6.2s-11.1-2.2-15.1-6.2c-4-4-6.2-9.4-6.2-15.1
		s2.2-11.1,6.2-15.1c4-4,9.4-6.2,15.1-6.2c5.7,0,11.1,2.2,15.1,6.2c4,4,6.2,9.4,6.2,15.1S189.8,267.1,185.8,271.1z M326.2,240.9
		c4-4,9.4-6.2,15.1-6.2c5.7,0,11.1,2.2,15.1,6.2s6.2,9.4,6.2,15.1s-2.2,11.1-6.2,15.1s-9.4,6.2-15.1,6.2c-5.7,0-11.1-2.2-15.1-6.2
		s-6.2-9.4-6.2-15.1S322.2,244.9,326.2,240.9z"/>
	<rect x="42.7" y="405.3" width="42.7" height="42.7"/>
</g>
</svg>
