<?xml version="1.0" encoding="utf-8"?>
<!-- Generator: Adobe Illustrator 25.4.1, SVG Export Plug-In . SVG Version: 6.00 Build 0)  -->
<svg version="1.1" id="Layer_1" xmlns="http://www.w3.org/2000/svg" xmlns:xlink="http://www.w3.org/1999/xlink" x="0px" y="0px"
	 viewBox="0 0 512 512" enable-background="new 0 0 512 512" xml:space="preserve">
<g>
	<path d="M420.4,368.9c-4-4-9.4-6.2-15.1-6.2h-256v42.7h256c5.7,0,11.1-2.2,15.1-6.2s6.2-9.4,6.2-15.1S424.4,372.9,420.4,368.9z"/>
	<path d="M99.8,318.5c1.7,1,3.5,1.5,5.5,1.5h301.5c1.9,0,3.8-0.5,5.5-1.5c1.7-1,3-2.4,3.9-4.1c0.9-1.7,1.3-3.6,1.3-5.5
		c-0.1-1.9-0.7-3.8-1.8-5.4L264.9,77.3c-1-1.5-2.3-2.7-3.8-3.5s-3.3-1.3-5-1.3s-3.5,0.4-5,1.3s-2.9,2-3.8,3.5L96.4,303.4
		c-1.1,1.6-1.7,3.5-1.8,5.4c-0.1,1.9,0.3,3.8,1.3,5.5C96.8,316.1,98.1,317.5,99.8,318.5z M256,140.9l90.9,136.4H165.1L256,140.9z"/>
	<path d="M85.3,383.9C85.3,383.9,85.3,384,85.3,383.9c0,0.1,0,0.2,0,0.2v21.2h21.3c0,0,0,0,0,0h0v0H128v-42.7H85.3V383.9z"/>
</g>
</svg>
