<?xml version="1.0" encoding="utf-8"?>
<!-- Generator: Adobe Illustrator 25.4.1, SVG Export Plug-In . SVG Version: 6.00 Build 0)  -->
<svg version="1.1" id="Layer_1" xmlns="http://www.w3.org/2000/svg" xmlns:xlink="http://www.w3.org/1999/xlink" x="0px" y="0px"
	 viewBox="0 0 512 512" enable-background="new 0 0 512 512" xml:space="preserve">
<g>
	<path d="M488.7,121c-3.4-4.8-10-6-14.9-2.6l-111.2,77.9v-89.6c0-11.8-9.6-21.3-21.3-21.3H42.7c-11.8,0-21.3,9.6-21.3,21.3v256h21.3
		H64V128h256v256H85.3v42.7h256c11.8,0,21.3-9.6,21.3-21.3v-89.6l111.2,77.9c1.8,1.2,3.9,1.9,6.1,1.9c5.9,0,10.7-4.8,10.7-10.7
		V127.1C490.7,125,490,122.8,488.7,121z M448,323.4l-85.3-59.7v-15.3l85.3-59.7V323.4z"/>
	<polygon points="213.3,341.3 213.3,256 277.3,256 192,170.7 106.7,256 170.7,256 170.7,341.3 	"/>
	<polygon points="21.3,405.3 21.3,405.3 21.3,426.7 42.7,426.7 42.7,426.7 64,426.7 64,384 21.3,384 	"/>
</g>
</svg>
