<?xml version="1.0" encoding="utf-8"?>
<!-- Generator: Adobe Illustrator 25.4.1, SVG Export Plug-In . SVG Version: 6.00 Build 0)  -->
<svg version="1.1" id="Layer_1" xmlns="http://www.w3.org/2000/svg" xmlns:xlink="http://www.w3.org/1999/xlink" x="0px" y="0px"
	 viewBox="0 0 512 512" enable-background="new 0 0 512 512" xml:space="preserve">
<g>
	<path d="M448.2,64H63.8c-5.6,0-11,2.3-14.9,6.3c-4,4-6.2,9.3-6.2,14.9l0,298.8h42.7V106.7h341.3v298.7h-320V448H85.3v-42.7H42.7
		V448h21.1c0,0,0,0,0,0h384.3c5.6,0,11-2.3,14.9-6.3s6.2-9.3,6.2-14.9V85.2C469.3,73.5,459.9,64,448.2,64z"/>
	<path d="M217.8,332.9c1.4,0.7,2.9,1.1,4.4,1c1.5-0.1,3-0.6,4.3-1.4l104.1-69.4c1.2-0.8,2.1-1.8,2.8-3.1c0.7-1.2,1-2.6,1-4
		s-0.3-2.8-1-4c-0.7-1.2-1.6-2.3-2.8-3.1l-104.1-69.4c-1.3-0.9-2.8-1.3-4.3-1.4c-1.5-0.1-3.1,0.3-4.4,1c-1.4,0.7-2.5,1.8-3.3,3.1
		c-0.8,1.3-1.2,2.8-1.2,4.4v138.8c0,1.5,0.4,3.1,1.2,4.4C215.3,331.1,216.5,332.2,217.8,332.9z"/>
</g>
</svg>
