<?xml version="1.0" encoding="utf-8"?>
<!-- Generator: Adobe Illustrator 25.4.1, SVG Export Plug-In . SVG Version: 6.00 Build 0)  -->
<svg version="1.1" id="Layer_1" xmlns="http://www.w3.org/2000/svg" xmlns:xlink="http://www.w3.org/1999/xlink" x="0px" y="0px"
	 viewBox="0 0 512 512" enable-background="new 0 0 512 512" xml:space="preserve">
<g>
	<path d="M448.2,64H63.8c-5.6,0-11,2.3-14.9,6.3c-4,4-6.2,9.3-6.2,14.9l0,298.8h42.7V106.7h341.3v298.7h-320V448H85.3v-42.7H42.7
		V448h21.1c0,0,0,0,0,0h384.3c5.6,0,11-2.3,14.9-6.3s6.2-9.3,6.2-14.9V85.2C469.3,73.5,459.9,64,448.2,64z"/>
	<path d="M214.3,380.6c12.9,4.3,26.8,4.4,39.7,0.3c12.9-4.1,24.3-12.2,32.3-23.2c8-11,12.4-24.2,12.4-37.8V170.7h64V128H256v131.6
		c-12.8-4.5-26.7-4.9-39.7-1c-13,3.9-24.4,11.9-32.6,22.7c-8.2,10.8-12.7,24-13,37.6c-0.2,13.6,3.9,26.9,11.7,38
		C190.2,368,201.4,376.3,214.3,380.6z"/>
</g>
</svg>
