<?xml version="1.0" encoding="utf-8"?>
<!-- Generator: Adobe Illustrator 25.4.1, SVG Export Plug-In . SVG Version: 6.00 Build 0)  -->
<svg version="1.1" id="Layer_1" xmlns="http://www.w3.org/2000/svg" xmlns:xlink="http://www.w3.org/1999/xlink" x="0px" y="0px"
	 viewBox="0 0 512 512" enable-background="new 0 0 512 512" xml:space="preserve">
<g>
	<polygon points="206.7,149.3 256,64 177.2,64 128,149.3 	"/>
	<polygon points="334.7,149.3 384,64 305.2,64 256,149.3 	"/>
	<path d="M448.2,64h-14.9L384,149.3h42.7v256h-320V448H85.3v-42.7H42.7V448h21.1c0,0,0,0,0,0h384.3c5.6,0,11-2.3,14.9-6.3
		s6.2-9.3,6.2-14.9V85.2C469.3,73.5,459.9,64,448.2,64z"/>
	<path d="M85.3,137.8L128,64H63.8c-5.6,0-11,2.3-14.9,6.3c-4,4-6.2,9.3-6.2,14.9V384h42.7V137.8z"/>
</g>
</svg>
