<?xml version="1.0" encoding="utf-8"?>
<!-- Generator: Adobe Illustrator 25.4.1, SVG Export Plug-In . SVG Version: 6.00 Build 0)  -->
<svg version="1.1" id="Layer_1" xmlns="http://www.w3.org/2000/svg" xmlns:xlink="http://www.w3.org/1999/xlink" x="0px" y="0px"
	 viewBox="0 0 512 512" enable-background="new 0 0 512 512" xml:space="preserve">
<g>
	<path d="M274.9,79.7c-0.9-1.1-2-2-3.2-2.6c-1.2-0.7-2.6-1.1-4-1.2c-1.4-0.1-2.8,0-4.1,0.4c-1.3,0.4-2.6,1.1-3.7,2L147,170.7H64
		c-5.7,0-11.1,2.2-15.1,6.2c-4,4-6.2,9.4-6.2,15.1v85.3h42.7v-64h76.9l72.5-59.3V358l-72.5-59.3l-55.5,0v42.7l40.3,0l112.9,92.4
		c1.6,1.3,3.5,2.1,5.5,2.3c2,0.2,4-0.1,5.9-0.9c1.8-0.9,3.4-2.2,4.5-3.9c1.1-1.7,1.7-3.7,1.7-5.7v-339
		C277.3,84,276.5,81.7,274.9,79.7L274.9,79.7z"/>
	<polygon points="391,150.4 443.8,97.6 413.7,67.4 330.7,150.4 383.5,203.2 330.7,256 383.5,308.8 330.7,361.6 413.6,444.6 
		443.8,414.4 391,361.6 443.8,308.8 391,256 443.8,203.2 	"/>
	<rect x="42.7" y="298.7" width="42.7" height="42.7"/>
</g>
</svg>
