<?xml version="1.0" encoding="utf-8"?>
<!-- Generator: Adobe Illustrator 25.4.1, SVG Export Plug-In . SVG Version: 6.00 Build 0)  -->
<svg version="1.1" id="Layer_1" xmlns="http://www.w3.org/2000/svg" xmlns:xlink="http://www.w3.org/1999/xlink" x="0px" y="0px"
	 viewBox="0 0 512 512" enable-background="new 0 0 512 512" xml:space="preserve">
<g>
	<polygon points="277.3,341.3 277.3,256 341.3,256 256,170.7 170.7,256 234.7,256 234.7,341.3 	"/>
	<polygon points="384,21.3 341.3,21.3 341.3,64 213.3,64 213.3,106.7 384,106.7 	"/>
	<path d="M85.3,106.7h85.3V21.3H128V64H63.8c-5.6,0-11,2.3-14.9,6.3c-4,4-6.2,9.3-6.2,14.9V384h42.7V106.7z"/>
	<path d="M448.2,64h-21.5v341.3h-320V448H85.3v-42.7H42.7v21.3v0.2V448h21.1c0,0,0,0,0,0h384.3c5.6,0,11-2.3,14.9-6.3
		s6.2-9.3,6.2-14.9V85.2C469.3,73.5,459.9,64,448.2,64z"/>
</g>
</svg>
