<?xml version="1.0" encoding="utf-8"?>
<!-- Generator: Adobe Illustrator 25.4.1, SVG Export Plug-In . SVG Version: 6.00 Build 0)  -->
<svg version="1.1" id="Layer_1" xmlns="http://www.w3.org/2000/svg" xmlns:xlink="http://www.w3.org/1999/xlink" x="0px" y="0px"
	 viewBox="0 0 512 512" enable-background="new 0 0 512 512" xml:space="preserve">
<g>
	<path d="M441.8,48.9c-4-4-9.4-6.2-15.1-6.2H85.3c-5.7,0-11.1,2.2-15.1,6.2c-4,4-6.2,9.4-6.2,15.1v341.3h21.3h21.3v-320h298.7v341.3
		H128v42.7h298.7c5.7,0,11.1-2.2,15.1-6.2s6.2-9.4,6.2-15.1V64C448,58.3,445.8,52.9,441.8,48.9z"/>
	<path d="M160,309.3c0,25.5,10.1,49.9,28.1,67.9s42.4,28.1,67.9,28.1s49.9-10.1,67.9-28.1c18-18,28.1-42.4,28.1-67.9
		s-10.1-49.9-28.1-67.9c-18-18-42.4-28.1-67.9-28.1s-49.9,10.1-67.9,28.1C170.1,259.5,160,283.9,160,309.3z M218.3,271.6
		c10-10,23.6-15.6,37.7-15.6s27.7,5.6,37.7,15.6c10,10,15.6,23.6,15.6,37.7s-5.6,27.7-15.6,37.7c-10,10-23.6,15.6-37.7,15.6
		s-27.7-5.6-37.7-15.6c-10-10-15.6-23.6-15.6-37.7S208.3,281.6,218.3,271.6z"/>
	<path d="M243.8,178.9c3.9,1.6,8,2.4,12.2,2.4c8.5,0,16.6-3.4,22.6-9.4c6-6,9.4-14.1,9.4-22.6c0-8.5-3.4-16.6-9.4-22.6
		c-6-6-14.1-9.4-22.6-9.4c-4.2,0-8.4,0.8-12.2,2.4c-3.9,1.6-7.4,4-10.4,6.9c-3,3-5.3,6.5-6.9,10.4c-1.6,3.9-2.4,8-2.4,12.2
		c0,4.2,0.8,8.4,2.4,12.2c1.6,3.9,4,7.4,6.9,10.4C236.3,174.9,239.9,177.3,243.8,178.9z"/>
	<rect x="64" y="426.7" width="42.7" height="42.7"/>
</g>
</svg>
