<?xml version="1.0" encoding="utf-8"?>
<!-- Generator: Adobe Illustrator 25.4.1, SVG Export Plug-In . SVG Version: 6.00 Build 0)  -->
<svg version="1.1" id="Layer_1" xmlns="http://www.w3.org/2000/svg" xmlns:xlink="http://www.w3.org/1999/xlink" x="0px" y="0px"
	 viewBox="0 0 512 512" enable-background="new 0 0 512 512" xml:space="preserve">
<g>
	<rect x="149.3" y="362.7" width="42.7" height="42.7"/>
	<path d="M170.7,128c-17,0-33.3,6.7-45.3,18.7c-12,12-18.7,28.3-18.7,45.3c0,17,6.7,33.3,18.7,45.3c12,12,28.3,18.7,45.3,18.7
		c17,0,33.3-6.7,45.3-18.7c12-12,18.7-28.3,18.7-45.3c0-17-6.7-33.3-18.7-45.3C203.9,134.7,187.6,128,170.7,128z M185.8,207.1
		c-4,4-9.4,6.2-15.1,6.2c-5.7,0-11.1-2.2-15.1-6.2c-4-4-6.2-9.4-6.2-15.1c0-5.7,2.2-11.1,6.2-15.1c4-4,9.4-6.2,15.1-6.2
		c5.7,0,11.1,2.2,15.1,6.2c4,4,6.2,9.4,6.2,15.1C192,197.7,189.8,203.1,185.8,207.1z"/>
	<path d="M448,298.7h21.3V85.3c0-5.7-2.2-11.1-6.2-15.1c-4-4-9.4-6.2-15.1-6.2H247.6c-16.4-11.4-35-19.3-54.6-23.4
		c-19.6-4.1-39.8-4.1-59.4-0.3C114.1,44.3,95.5,52.1,79,63.3c-16.5,11.2-30.7,25.6-41.5,42.4c-10.9,16.8-18.3,35.6-21.7,55.2
		c-3.5,19.7-3,39.9,1.5,59.3c4.5,19.5,12.8,37.9,24.5,54.1c11.7,16.2,26.5,29.9,43.6,40.2V448c0,5.7,2.2,11.1,6.2,15.1
		s9.4,6.2,15.1,6.2h128c5.7,0,11.1-2.2,15.1-6.2s6.2-9.4,6.2-15.1V314.6c19.8-13.7,35.9-32.1,47.1-53.4c11.1-21.3,17-45.1,16.9-69.1
		c0-30.5-9.3-60.3-26.8-85.3h133.4v192H448z M265.5,241c-11.3,21.8-29.7,39-52.1,48.8v136.9H128V289.8c-22.5-9.8-40.9-27-52.1-48.8
		c-11.2-21.8-14.7-46.8-9.7-70.8c5-24,18.1-45.5,37.1-61c19-15.5,42.8-23.9,67.3-23.9s48.3,8.4,67.3,23.9c19,15.5,32.1,37,37.1,61
		C280.1,194.2,276.7,219.2,265.5,241z"/>
	<rect x="298.7" y="320" width="106.7" height="42.7"/>
	<rect x="362.7" y="149.3" width="42.7" height="42.7"/>
	<rect x="426.7" y="320" width="42.7" height="42.7"/>
</g>
</svg>
