<?xml version="1.0" encoding="utf-8"?>
<!-- Generator: Adobe Illustrator 25.4.1, SVG Export Plug-In . SVG Version: 6.00 Build 0)  -->
<svg version="1.1" id="Layer_1" xmlns="http://www.w3.org/2000/svg" xmlns:xlink="http://www.w3.org/1999/xlink" x="0px" y="0px"
	 viewBox="0 0 512 512" enable-background="new 0 0 512 512" xml:space="preserve">
<g>
	<path d="M256,170.7c-11.3,0-22.2,4.5-30.2,12.5c-8,8-12.5,18.9-12.5,30.2c0,11.3,4.5,22.2,12.5,30.2c8,8,18.9,12.5,30.2,12.5
		s22.2-4.5,30.2-12.5c8-8,12.5-18.9,12.5-30.2c0-11.3-4.5-22.2-12.5-30.2C278.2,175.2,267.3,170.7,256,170.7z"/>
	<path d="M195.7,153l-30.2-30.2C142.3,146,128,178,128,213.3c0,16.8,3.3,33.5,9.7,49c6.4,15.5,15.9,29.6,27.8,41.5l30.2-30.2
		c-15.4-15.4-25-36.8-25-60.3c0-11.2,2.2-22.3,6.5-32.7C181.4,170.3,187.7,160.9,195.7,153z"/>
	<polygon points="277.3,298.7 234.7,298.7 234.7,405.3 256,405.3 277.3,405.3 	"/>
	<path d="M98.3,148c8.6-20.7,21.2-39.5,37-55.4l-30.2-30.2c-19.8,19.8-35.6,43.3-46.3,69.2c-10.7,25.9-16.2,53.6-16.2,81.7
		c0,28,5.5,55.8,16.2,81.7c10.7,25.9,26.5,49.4,46.3,69.2l30.1-30.1c-30.9-30.9-50-73.5-50-120.7C85.3,190.9,89.7,168.7,98.3,148z"
		/>
	<path d="M453.1,131.7c-10.7-25.9-26.5-49.4-46.3-69.2l0,0l-30.1,30.1c30.9,30.9,50,73.5,50,120.7c0,22.4-4.4,44.6-12.9,65.3
		c-8.6,20.7-21.2,39.5-37,55.4l30.2,30.2c19.8-19.8,35.6-43.3,46.3-69.2c10.7-25.9,16.2-53.6,16.2-81.7
		C469.4,185.3,463.9,157.6,453.1,131.7z"/>
	<path d="M374.3,164.3c-6.4-15.5-15.9-29.6-27.8-41.5L316.3,153c7.9,7.9,14.2,17.3,18.5,27.7c4.3,10.4,6.5,21.5,6.5,32.7
		c0,11.2-2.2,22.3-6.5,32.7c-4.3,10.4-10.6,19.8-18.5,27.7l30.2,30.2c11.9-11.9,21.3-26,27.8-41.5c6.4-15.5,9.7-32.2,9.7-49
		C384,196.5,380.7,179.9,374.3,164.3z"/>
	<polygon points="234.7,448 234.7,469.3 256,469.3 277.3,469.3 277.3,426.7 234.7,426.7 	"/>
</g>
</svg>
