<?xml version="1.0" encoding="utf-8"?>
<!-- Generator: Adobe Illustrator 25.4.1, SVG Export Plug-In . SVG Version: 6.00 Build 0)  -->
<svg version="1.1" id="Layer_1" xmlns="http://www.w3.org/2000/svg" xmlns:xlink="http://www.w3.org/1999/xlink" x="0px" y="0px"
	 viewBox="0 0 512 512" enable-background="new 0 0 512 512" xml:space="preserve">
<g>
	<path d="M277.3,43.7v151.9c-12.8-4.5-26.7-4.9-39.7-1c-13,3.9-24.4,11.8-32.6,22.7c-8.2,10.8-12.7,24-13,37.6
		c-0.2,13.6,3.9,26.9,11.7,38c7.8,11.1,19,19.4,31.9,23.7c12.9,4.3,26.8,4.4,39.7,0.3c12.9-4.1,24.3-12.2,32.3-23.2
		c8-11,12.4-24.2,12.4-37.8V97.7c36.7,14.8,67.2,42,86.1,76.8c18.9,34.8,25.1,75.1,17.5,114c-7.6,38.9-28.4,73.9-59,99.1
		c-30.6,25.2-69,39-108.6,38.9c-43.4-0.1-85.1-16.6-116.7-46.3c-31.6-29.7-50.7-70.4-53.4-113.7c-2.7-43.3,11.2-86,38.8-119.4
		c13.5-16.4,29.9-29.9,48.1-40.1V59.5C96.3,91.9,42.7,167.7,42.7,256c0,117.8,95.5,213.3,213.3,213.3S469.3,373.8,469.3,256
		C469.3,145.4,385.1,54.4,277.3,43.7z"/>
	<polygon points="236.8,43.7 234.7,43.7 234.7,43.7 234.7,43.7 194.1,43.7 194.1,86.4 236.8,86.4 	"/>
</g>
</svg>
