<svg fill="none" height="512" viewBox="0 0 24 24" width="512" xmlns="http://www.w3.org/2000/svg"><path d="m8.99989 9.86-3.032 2.14 3.032 2.14zm1.90801 7.463c-.0765.1081-.1927.1814-.3232.2039s-.2645-.0077-.3728-.0839l-7.13301-5.035c-.06521-.0462-.1184-.1074-.15511-.1783-.0367-.071-.05586-.1498-.05586-.2297s.01916-.1587.05586-.2297c.03671-.071.0899-.1321.15511-.1783l7.13301-5.036c.0749-.05278.1628-.08396.2543-.09014.0914-.00618.1827.01287.264.05508.0814.04221.1495.10594.1971.18426.0475.07831.0726.16818.0726.2598v10.07c-.0002.1032-.0324.2038-.092.288zm7.092-3.183v-4.28l-3.032 2.14zm-5.921-1.732c-.0652-.0462-.1184-.1074-.1551-.1783-.0367-.071-.0559-.1498-.0559-.2297s.0192-.1587.0559-.2297.0899-.1321.1551-.1783l7.133-5.036c.0749-.05278.1628-.08396.2543-.09014.0914-.00618.1827.01287.264.05508.0814.04221.1495.10594.1971.18426.0475.07831.0726.16818.0726.2598v10.07c0 .0916-.0251.1815-.0726.2598-.0476.0783-.1157.142-.1971.1843-.0813.0422-.1726.0612-.264.055-.0915-.0061-.1794-.0373-.2543-.0901z" fill="rgb(0,0,0)"/></svg>