<?xml version="1.0" encoding="utf-8"?>
<!-- Generator: Adobe Illustrator 25.4.1, SVG Export Plug-In . SVG Version: 6.00 Build 0)  -->
<svg version="1.1" id="Layer_1" xmlns="http://www.w3.org/2000/svg" xmlns:xlink="http://www.w3.org/1999/xlink" x="0px" y="0px"
	 viewBox="0 0 512 512" enable-background="new 0 0 512 512" xml:space="preserve">
<g>
	<path d="M426.8,64H85.2C73.5,64,64,73.5,64,85.2V384h42.7V106.7h298.7v298.7H128V448h298.8c5.6,0,11-2.2,15-6.2c4-4,6.2-9.4,6.2-15
		V85.2C448,73.5,438.5,64,426.8,64z"/>
	<path d="M217.8,332.9c1.4,0.7,2.9,1.1,4.4,1c1.5-0.1,3-0.6,4.3-1.4l104.1-69.4c1.2-0.8,2.1-1.8,2.8-3.1c0.7-1.2,1-2.6,1-4
		s-0.3-2.8-1-4c-0.7-1.2-1.6-2.3-2.8-3.1l-104.1-69.4c-1.3-0.9-2.8-1.3-4.3-1.4c-1.5-0.1-3.1,0.3-4.4,1c-1.4,0.7-2.5,1.8-3.3,3.1
		c-0.8,1.3-1.2,2.8-1.2,4.4v138.8c0,1.5,0.4,3.1,1.2,4.4C215.3,331.1,216.5,332.2,217.8,332.9z"/>
	<polygon points="64,426.7 64,426.8 64,448 106.7,448 106.7,405.3 64,405.3 	"/>
</g>
</svg>
