<?xml version="1.0" encoding="utf-8"?>
<!-- Generator: Adobe Illustrator 25.4.1, SVG Export Plug-In . SVG Version: 6.00 Build 0)  -->
<svg version="1.1" id="Layer_1" xmlns="http://www.w3.org/2000/svg" xmlns:xlink="http://www.w3.org/1999/xlink" x="0px" y="0px"
	 viewBox="0 0 512 512" enable-background="new 0 0 512 512" xml:space="preserve">
<g>
	<path d="M153.7,322.6c1.3,0.7,2.9,1.1,4.4,1.1c1.5,0,3-0.5,4.3-1.3l92.9-59.2c1.2-0.8,2.2-1.8,2.9-3.1c0.7-1.3,1-2.7,1-4.1
		s-0.4-2.8-1-4.1c-0.7-1.3-1.7-2.3-2.9-3.1l-92.9-59.1c-1.4-0.9-3-1.3-4.6-1.3v0c-4.7,0-8.5,3.8-8.5,8.5v118.2c0,1.5,0.4,3,1.2,4.4
		C151.3,320.8,152.4,321.9,153.7,322.6z"/>
	<path d="M489.1,121.6c-1-1.7-2.5-3-4.2-3.9c-1.7-0.9-3.7-1.3-5.6-1.2c-1.9,0.1-3.8,0.8-5.4,1.9l-111.2,77.9v-89.6
		c0-5.7-2.2-11.1-6.2-15.1c-4-4-9.4-6.2-15.1-6.2h-256v21.3V128H320v256H64V149.3H21.3v256c0,5.7,2.2,11.1,6.2,15.1
		c4,4,9.4,6.2,15.1,6.2h298.7c5.7,0,11.1-2.2,15.1-6.2s6.2-9.4,6.2-15.1v-89.6l111.2,77.9c1.6,1.1,3.5,1.8,5.4,1.9
		c1.9,0.1,3.9-0.3,5.6-1.2c1.7-0.9,3.2-2.3,4.2-3.9c1-1.7,1.5-3.6,1.5-5.5V127.1C490.7,125.2,490.1,123.3,489.1,121.6z M448,323.4
		l-85.3-59.7v-15.3l85.3-59.7V323.4z"/>
	<polygon points="64,85.3 42.7,85.3 42.7,85.3 21.3,85.3 21.3,106.7 21.3,106.7 21.3,128 64,128 	"/>
</g>
</svg>
