<?xml version="1.0" encoding="utf-8"?>
<!-- Generator: Adobe Illustrator 25.4.1, SVG Export Plug-In . SVG Version: 6.00 Build 0)  -->
<svg version="1.1" id="Layer_1" xmlns="http://www.w3.org/2000/svg" xmlns:xlink="http://www.w3.org/1999/xlink" x="0px" y="0px"
	 viewBox="0 0 512 512" enable-background="new 0 0 512 512" xml:space="preserve">
<g>
	<rect x="106.7" y="213.3" width="42.7" height="42.7"/>
	<path d="M489.1,121.6c-1-1.7-2.5-3-4.2-3.9c-1.7-0.9-3.7-1.3-5.6-1.2c-1.9,0.1-3.8,0.8-5.4,1.9l-111.2,77.9v-46.9
		c0-5.7-2.2-11.1-6.2-15.1c-4-4-9.4-6.2-15.1-6.2H320V42.7H106.7v42.7h170.7V128H42.7c-5.7,0-11.1,2.2-15.1,6.2
		c-4,4-6.2,9.4-6.2,15.1v213.3H64v-192h256V384H85.3v42.7h256c5.7,0,11.1-2.2,15.1-6.2s6.2-9.4,6.2-15.1v-89.6l111.2,77.9
		c1.6,1.1,3.5,1.8,5.4,1.9c1.9,0.1,3.9-0.3,5.6-1.2c1.7-0.9,3.2-2.3,4.2-3.9c1-1.7,1.5-3.6,1.5-5.5V127.1
		C490.7,125.2,490.1,123.3,489.1,121.6z M448,323.4l-85.3-59.7v0v-15.3l85.3-59.7V323.4z"/>
	<rect x="21.3" y="384" width="42.7" height="42.7"/>
</g>
</svg>
