<?xml version="1.0" encoding="utf-8"?>
<!-- Generator: Adobe Illustrator 25.4.1, SVG Export Plug-In . SVG Version: 6.00 Build 0)  -->
<svg version="1.1" id="Layer_1" xmlns="http://www.w3.org/2000/svg" xmlns:xlink="http://www.w3.org/1999/xlink" x="0px" y="0px"
	 viewBox="0 0 512 512" enable-background="new 0 0 512 512" xml:space="preserve">
<g>
	<path d="M339,349.6c22-22,34.4-51.8,34.4-83s-12.4-61-34.4-83c-22-22-51.8-34.4-83-34.4s-61,12.4-83,34.4s-34.4,51.8-34.4,83
		c0,31.1,12.4,61,34.4,83c22,22,51.8,34.4,83,34.4S317,371.6,339,349.6z M181.3,266.7c0-19.8,7.9-38.8,21.9-52.8
		c14-14,33-21.9,52.8-21.9s38.8,7.9,52.8,21.9c14,14,21.9,33,21.9,52.8c0,19.8-7.9,38.8-21.9,52.8c-14,14-33,21.9-52.8,21.9
		s-38.8-7.9-52.8-21.9C189.2,305.5,181.3,286.5,181.3,266.7z"/>
	<path d="M463.1,112.9c-4-4-9.4-6.2-15.1-6.2h-85.3L320,64H192l-42.7,42.7H64c-5.7,0-11.1,2.2-15.1,6.2c-4,4-6.2,9.4-6.2,15.1v256
		h42.7V149.3H167l42.7-42.7h92.7l42.7,42.7h81.7v256h-320V448H85.3v-42.7H42.7v21.3v0V448H64c0,0,0,0,0,0h384
		c5.7,0,11.1-2.2,15.1-6.2s6.2-9.4,6.2-15.1V128C469.3,122.3,467.1,116.9,463.1,112.9z"/>
</g>
</svg>
