<?xml version="1.0" encoding="utf-8"?>
<!-- Generator: Adobe Illustrator 25.4.1, SVG Export Plug-In . SVG Version: 6.00 Build 0)  -->
<svg version="1.1" id="Layer_1" xmlns="http://www.w3.org/2000/svg" xmlns:xlink="http://www.w3.org/1999/xlink" x="0px" y="0px"
	 viewBox="0 0 512 512" enable-background="new 0 0 512 512" xml:space="preserve">
<g>
	<path d="M256,106.7c-17,0-33.3,6.7-45.3,18.7c-12,12-18.7,28.3-18.7,45.3c0,17,6.7,33.3,18.7,45.3c12,12,28.3,18.7,45.3,18.7
		s33.3-6.7,45.3-18.7c12-12,18.7-28.3,18.7-45.3c0-17-6.7-33.3-18.7-45.3C289.3,113.4,273,106.7,256,106.7z M271.1,185.8
		c-4,4-9.4,6.2-15.1,6.2s-11.1-2.2-15.1-6.2c-4-4-6.2-9.4-6.2-15.1s2.2-11.1,6.2-15.1c4-4,9.4-6.2,15.1-6.2s11.1,2.2,15.1,6.2
		c4,4,6.2,9.4,6.2,15.1C277.3,176.3,275.1,181.8,271.1,185.8z"/>
	<path d="M394,113.5c-7.5-18.1-18.5-34.6-32.4-48.4c-13.9-13.9-30.3-24.9-48.4-32.4C295,25.2,275.6,21.3,256,21.3s-39,3.9-57.1,11.4
		c-18.1,7.5-34.6,18.5-48.4,32.4s-24.9,30.3-32.4,48.4c-7.5,18.1-11.4,37.5-11.4,57.1v106.7c0,35.9,12.9,70.6,36.4,97.8
		c23.5,27.2,56,44.9,91.6,50.1V448h-21.3v42.7h149.3V448h-85.3v-22.8c35.5-5.1,68-22.9,91.6-50.1s36.4-61.9,36.4-97.8V170.7
		C405.3,151.1,401.5,131.6,394,113.5z M362.7,277.3c0,28.3-11.2,55.4-31.2,75.4c-20,20-47.1,31.2-75.4,31.2s-55.4-11.2-75.4-31.2
		c-20-20-31.2-47.1-31.2-75.4V170.7c0-28.3,11.2-55.4,31.2-75.4c20-20,47.1-31.2,75.4-31.2c28.3,0,55.4,11.2,75.4,31.2
		c20,20,31.2,47.1,31.2,75.4V277.3z"/>
	<polygon points="149.3,448 149.3,448 149.3,490.7 149.3,490.7 170.7,490.7 192,490.7 192,448 149.3,448 	"/>
</g>
</svg>
