<?xml version="1.0" encoding="utf-8"?>
<!-- Generator: Adobe Illustrator 25.4.1, SVG Export Plug-In . SVG Version: 6.00 Build 0)  -->
<svg version="1.1" id="Layer_1" xmlns="http://www.w3.org/2000/svg" xmlns:xlink="http://www.w3.org/1999/xlink" x="0px" y="0px"
	 viewBox="0 0 512 512" enable-background="new 0 0 512 512" xml:space="preserve">
<g>
	<path d="M370.3,198.3c-9-17.9-22.2-33.4-38.3-45.3l-30.7,30.7c24.1,15.1,40.1,41.9,40.1,72.4c0,13.1-3,26-8.7,37.7
		s-14.2,22-24.5,29.9l30.3,30.3c27.9-23.5,45.6-58.6,45.6-97.9C384,235.9,379.3,216.2,370.3,198.3z"/>
	<path d="M249.9,76.9c-1.8-0.9-3.9-1.2-5.9-0.9c-2,0.2-3.9,1.1-5.5,2.3l-112.9,92.4h-83c-5.7,0-11.1,2.2-15.1,6.2
		c-4,4-6.2,9.4-6.2,15.1v85.3H64v-64h76.9l72.5-59.3V358l-72.5-59.3H85.3v42.7h40.3h0l112.9,92.4c1.6,1.3,3.5,2.1,5.5,2.3
		c2,0.2,4-0.1,5.9-0.9c1.8-0.9,3.4-2.2,4.5-3.9c1.1-1.7,1.7-3.7,1.7-5.7v-339c0-2-0.6-4-1.7-5.7C253.3,79.1,251.7,77.7,249.9,76.9z"
		/>
	<path d="M469,157.4c-14.3-30.9-35.2-58.3-61.2-80.3l-30.3,30.3c22.1,18,39.8,40.7,52,66.4c12.2,25.7,18.5,53.8,18.5,82.3
		c0,27.1-5.7,53.8-16.7,78.5c-11.1,24.7-27.2,46.8-47.5,64.8l30.2,30.2c47.1-42.9,76.7-104.8,76.7-173.5
		C490.7,221.9,483.3,188.3,469,157.4z"/>
	<rect x="21.3" y="298.7" width="42.7" height="42.7"/>
</g>
</svg>
