<?xml version="1.0" encoding="utf-8"?>
<!-- Generator: Adobe Illustrator 25.4.1, SVG Export Plug-In . SVG Version: 6.00 Build 0)  -->
<svg version="1.1" id="Layer_1" xmlns="http://www.w3.org/2000/svg" xmlns:xlink="http://www.w3.org/1999/xlink" x="0px" y="0px"
	 viewBox="0 0 512 512" enable-background="new 0 0 512 512" xml:space="preserve">
<g>
	<path d="M329.4,158.7c-6,6-9.4,14.1-9.4,22.6c0,8.5,3.4,16.6,9.4,22.6c6,6,14.1,9.4,22.6,9.4c8.5,0,16.6-3.4,22.6-9.4
		c6-6,9.4-14.1,9.4-22.6s-3.4-16.6-9.4-22.6c-6-6-14.1-9.4-22.6-9.4C343.5,149.3,335.4,152.7,329.4,158.7z"/>
	<polygon points="384,21.3 341.3,21.3 341.3,64 213.3,64 213.3,106.7 384,106.7 	"/>
	<path d="M448.2,64h-21.5v170.7c-45.7-0.1-90.4,13.2-128.6,38.3c-56.6-50.4-131.1-81-212.8-81l0-85.3h85.3V21.3H128V64H63.8
		c-5.6,0-11,2.3-14.9,6.3c-4,4-6.2,9.3-6.2,14.9V384h42.7V234.7c115.4,0,214.3,70.4,256.1,170.7H106.7V448H85.3v-42.7H42.7v21.3v0.2
		V448h21.1c0,0,0,0,0,0h384.3c5.6,0,11-2.3,14.9-6.3s6.2-9.3,6.2-14.9V85.2C469.3,73.5,459.9,64,448.2,64z M426.7,405.3h-39.5
		c-13.1-37-32.9-71.3-58.5-101.1c28.7-17,62.2-26.9,98-26.9V405.3z"/>
</g>
</svg>
