<?xml version="1.0" encoding="utf-8"?>
<!-- Generator: Adobe Illustrator 25.4.1, SVG Export Plug-In . SVG Version: 6.00 Build 0)  -->
<svg version="1.1" id="Layer_1" xmlns="http://www.w3.org/2000/svg" xmlns:xlink="http://www.w3.org/1999/xlink" x="0px" y="0px"
	 viewBox="0 0 512 512" enable-background="new 0 0 512 512" xml:space="preserve">
<g>
	<path d="M256,42.7c-106,0-192,86.3-192,192.7v127.3h21.3h21.3V235.3c0-82.8,66.9-150,149.3-150s149.3,67.2,149.3,150V384H128v42.7
		h320V235.3C448,128.9,362,42.7,256,42.7z"/>
	<path d="M218.3,485.7c10,10,23.6,15.6,37.7,15.6s27.7-5.6,37.7-15.6c10-10,15.6-23.6,15.6-37.7H202.7
		C202.7,462.1,208.3,475.7,218.3,485.7z"/>
	<polygon points="64,405.3 64,426.7 85.3,426.7 106.7,426.7 106.7,384 64,384 	"/>
</g>
</svg>
