<svg fill="none" height="512" viewBox="0 0 24 24" width="512" xmlns="http://www.w3.org/2000/svg"><path d="m9.82699 21.763 4.48301-7.763 3.532 6.117c-1.7004 1.2273-3.745 1.8863-5.842 1.883-.746 0-1.473-.082-2.17301-.237zm-1.937-.643c-1.2848-.5809-2.43266-1.4262-3.36865-2.4807-.93599-1.0546-1.63907-2.2946-2.06335-3.6393h8.96501l-3.53301 6.119zm-5.84-8.12c-.14311-1.4027.01314-2.8199.45841-4.15776.44526-1.33787 1.16942-2.56601 2.12459-3.60323l4.479 7.76099zm4.109-9.11699c1.70011-1.22712 3.74428-1.88611 5.84101-1.883.746 0 1.473.082 2.173.237l-4.48301 7.76299zm9.95101-1.003c1.2848.58088 2.4326 1.42618 3.3686 2.48072s1.6391 2.29462 2.0634 3.63928h-8.965l3.533-6.119zm5.84 8.11999c.1431 1.4028-.0132 2.8199-.4584 4.1578-.4453 1.3379-1.1694 2.566-2.1246 3.6032l-4.479-7.761h7.064z" fill="rgb(0,0,0)"/></svg>