<?xml version="1.0" encoding="utf-8"?>
<!-- Generator: Adobe Illustrator 25.4.1, SVG Export Plug-In . SVG Version: 6.00 Build 0)  -->
<svg version="1.1" id="Layer_1" xmlns="http://www.w3.org/2000/svg" xmlns:xlink="http://www.w3.org/1999/xlink" x="0px" y="0px"
	 viewBox="0 0 512 512" enable-background="new 0 0 512 512" xml:space="preserve">
<g>
	<rect x="21.3" y="298.7" width="42.7" height="42.7"/>
	<polygon points="465.7,225.8 435.5,195.6 405.3,225.8 329.9,150.4 299.7,180.6 375.2,256 299.7,331.4 329.9,361.6 405.3,286.2 
		480.8,361.6 510.9,331.4 435.5,256 	"/>
	<path d="M249.9,76.9c-1.8-0.9-3.9-1.2-5.9-0.9c-2,0.2-3.9,1.1-5.5,2.3l-112.9,92.4h-83c-5.7,0-11.1,2.2-15.1,6.2
		c-4,4-6.2,9.4-6.2,15.1v85.3H64v-64h76.9l72.5-59.3V358l-72.5-59.3H85.3v42.7h40.3h0l112.9,92.4c1.6,1.3,3.5,2.1,5.5,2.3
		c2,0.2,4-0.1,5.9-0.9c1.8-0.9,3.4-2.2,4.5-3.9c1.1-1.7,1.7-3.7,1.7-5.7v-339c0-2-0.6-4-1.7-5.7C253.3,79.1,251.7,77.7,249.9,76.9z"
		/>
	<polygon points="480.8,210.7 511,180.6 480.8,150.4 480.8,150.4 480.8,150.4 465.7,165.5 465.7,165.5 450.7,180.6 	"/>
</g>
</svg>
