<?xml version="1.0" encoding="utf-8"?>
<!-- Generator: Adobe Illustrator 25.4.1, SVG Export Plug-In . SVG Version: 6.00 Build 0)  -->
<svg version="1.1" id="Layer_1" xmlns="http://www.w3.org/2000/svg" xmlns:xlink="http://www.w3.org/1999/xlink" x="0px" y="0px"
	 viewBox="0 0 512 512" enable-background="new 0 0 512 512" xml:space="preserve">
<path d="M448.2,64H63.8c-5.6,0-11,2.3-14.9,6.3c-4,4-6.2,9.3-6.2,14.9l0,298.8h42.7v-21.3H128v42.7h-21.3V448H85.3v-42.7H42.7V448
	h21.1c0,0,0,0,0,0h384.3c5.6,0,11-2.3,14.9-6.3s6.2-9.3,6.2-14.9V85.2C469.3,73.5,459.9,64,448.2,64z M128,320H85.3v-42.7H128V320z
	 M128,234.7H85.3V192H128V234.7z M128,149.3H85.3v-42.7H128V149.3z M341.3,405.3H170.7V106.7h170.7V405.3z M426.7,405.3H384v-42.7
	h42.7V405.3z M426.7,320H384v-42.7h42.7V320z M426.7,234.7H384V192h42.7V234.7z M426.7,149.3H384v-42.7h42.7V149.3z"/>
</svg>
