<?xml version="1.0" encoding="utf-8"?>
<!-- Generator: Adobe Illustrator 25.4.1, SVG Export Plug-In . SVG Version: 6.00 Build 0)  -->
<svg version="1.1" id="Layer_1" xmlns="http://www.w3.org/2000/svg" xmlns:xlink="http://www.w3.org/1999/xlink" x="0px" y="0px"
	 viewBox="0 0 512 512" enable-background="new 0 0 512 512" xml:space="preserve">
<g>
	<path d="M237.3,301.3c12-12,18.7-28.3,18.7-45.3s-6.7-33.3-18.7-45.3c-12-12-28.3-18.7-45.3-18.7s-33.3,6.7-45.3,18.7
		c-12,12-18.7,28.3-18.7,45.3s6.7,33.3,18.7,45.3S175,320,192,320S225.3,313.3,237.3,301.3z"/>
	<path d="M448.2,64H170.7V21.3H128V64H63.8c-5.6,0-11,2.3-14.9,6.3c-4,4-6.2,9.3-6.2,14.9V384h42.7V106.7h341.3v298.7h-320V448
		h341.5c5.6,0,11-2.3,14.9-6.3s6.2-9.3,6.2-14.9V85.2C469.3,73.5,459.9,64,448.2,64z"/>
	<rect x="298.7" y="277.3" width="85.3" height="42.7"/>
	<rect x="298.7" y="192" width="85.3" height="42.7"/>
	<polygon points="42.7,426.7 42.7,426.8 42.7,448 85.3,448 85.3,405.3 42.7,405.3 	"/>
</g>
</svg>
