<?xml version="1.0" encoding="utf-8"?>
<!-- Generator: Adobe Illustrator 25.4.1, SVG Export Plug-In . SVG Version: 6.00 Build 0)  -->
<svg version="1.1" id="Layer_1" xmlns="http://www.w3.org/2000/svg" xmlns:xlink="http://www.w3.org/1999/xlink" x="0px" y="0px"
	 viewBox="0 0 512 512" enable-background="new 0 0 512 512" xml:space="preserve">
<g>
	<path d="M448.2,64H106.7v42.7h320V320l-128-128L85.3,405.3V128H42.7v298.8c0,5.6,2.2,11,6.2,15c4,4,9.4,6.2,15,6.2h38.3l0.4,0.4
		l0.4-0.4h345.2c5.6,0,11-2.3,14.9-6.3s6.2-9.3,6.2-14.9V85.2C469.3,73.5,459.9,64,448.2,64z M426.7,405.3h-281l153-153l128,128
		V405.3z"/>
	<path d="M200.8,222.2c8-8,12.5-18.9,12.5-30.2c0-11.3-4.5-22.2-12.5-30.2c-8-8-18.9-12.5-30.2-12.5c-11.3,0-22.2,4.5-30.2,12.5
		c-8,8-12.5,18.9-12.5,30.2c0,11.3,4.5,22.2,12.5,30.2c8,8,18.9,12.5,30.2,12.5C182,234.7,192.8,230.2,200.8,222.2z"/>
	<polygon points="85.3,64 64,64 63.8,64 42.7,64 42.7,85.2 42.7,85.3 42.7,106.7 85.3,106.7 	"/>
</g>
</svg>
