<?xml version="1.0" encoding="utf-8"?>
<!-- Generator: Adobe Illustrator 25.4.1, SVG Export Plug-In . SVG Version: 6.00 Build 0)  -->
<svg version="1.1" id="Layer_1" xmlns="http://www.w3.org/2000/svg" xmlns:xlink="http://www.w3.org/1999/xlink" x="0px" y="0px"
	 viewBox="0 0 512 512" enable-background="new 0 0 512 512" xml:space="preserve">
<g>
	<polygon points="85.3,341.3 85.3,298.7 42.7,298.7 42.7,320 42.7,341.3 64,341.3 	"/>
	<polygon points="277.3,341.3 277.3,170.7 234.7,170.7 192,192 192,213.3 234.7,213.3 234.7,341.3 	"/>
	<path d="M85.3,170.7c0-11.3,4.5-22.2,12.5-30.2c8-8,18.9-12.5,30.2-12.5h311.9c2.2,0,4.3-0.7,6.1-1.9c1.8-1.3,3.2-3,3.9-5.1
		c0.7-2.1,0.8-4.3,0.3-6.4c-0.6-2.1-1.8-4-3.5-5.4l-87.9-73.2c-1.6-1.3-3.5-2.1-5.5-2.4c-2-0.3-4.1,0.1-5.9,0.9
		c-1.8,0.9-3.4,2.2-4.5,3.9c-1.1,1.7-1.7,3.7-1.7,5.7v41.2H128c-22.6,0-44.3,9-60.3,25c-16,16-25,37.7-25,60.3v106.7h42.7V170.7z"/>
	<path d="M426.7,341.3c0,11.3-4.5,22.2-12.5,30.2c-8,8-18.9,12.5-30.2,12.5H72.1c-2.2,0-4.3,0.7-6.1,1.9c-1.8,1.3-3.2,3-3.9,5.1
		c-0.8,2.1-0.8,4.3-0.3,6.4c0.6,2.1,1.8,4,3.5,5.4l87.9,73.2c1.6,1.3,3.5,2.1,5.5,2.4c2,0.3,4.1-0.1,5.9-0.9
		c1.8-0.9,3.4-2.2,4.5-3.9c1.1-1.7,1.7-3.7,1.7-5.7v-41.2l213.3,0c22.6,0,44.3-9,60.3-25c16-16,25-37.7,25-60.3V234.7h-42.7V341.3z"
		/>
	<polygon points="426.7,170.7 426.7,170.7 448,170.7 448,170.7 426.7,170.7 426.7,213.3 469.3,213.3 469.3,192 469.3,170.7 
		469.3,170.7 	"/>
</g>
</svg>
