<?xml version="1.0" encoding="utf-8"?>
<!-- Generator: Adobe Illustrator 25.4.1, SVG Export Plug-In . SVG Version: 6.00 Build 0)  -->
<svg version="1.1" id="Layer_1" xmlns="http://www.w3.org/2000/svg" xmlns:xlink="http://www.w3.org/1999/xlink" x="0px" y="0px"
	 viewBox="0 0 512 512" enable-background="new 0 0 512 512" xml:space="preserve">
<g>
	<path d="M256,288c8.5,0,16.6-3.4,22.6-9.4c6-6,9.4-14.1,9.4-22.6s-3.4-16.6-9.4-22.6c-6-6-14.1-9.4-22.6-9.4s-16.6,3.4-22.6,9.4
		c-6,6-9.4,14.1-9.4,22.6s3.4,16.6,9.4,22.6C239.4,284.6,247.5,288,256,288z"/>
	<path d="M441.8,70.2c-4-4-9.4-6.2-15.1-6.2H85.3c-5.7,0-11.1,2.2-15.1,6.2c-4,4-6.2,9.4-6.2,15.1V384h42.7V106.7h298.7v298.7H128
		V448h298.7c5.7,0,11.1-2.2,15.1-6.2s6.2-9.4,6.2-15.1V85.3C448,79.7,445.8,74.2,441.8,70.2z"/>
	<path d="M256,384c33.9,0,66.5-13.5,90.5-37.5c24-24,37.5-56.6,37.5-90.5s-13.5-66.5-37.5-90.5c-24-24-56.6-37.5-90.5-37.5
		s-66.5,13.5-90.5,37.5S128,222.1,128,256s13.5,66.5,37.5,90.5C189.5,370.5,222.1,384,256,384z M195.7,195.7c16-16,37.7-25,60.3-25
		s44.3,9,60.3,25c16,16,25,37.7,25,60.3s-9,44.3-25,60.3c-16,16-37.7,25-60.3,25s-44.3-9-60.3-25c-16-16-25-37.7-25-60.3
		S179.7,211.7,195.7,195.7z"/>
	<rect x="64" y="405.3" width="42.7" height="42.7"/>
</g>
</svg>
