<?xml version="1.0" encoding="utf-8"?>
<!-- Generator: Adobe Illustrator 25.4.1, SVG Export Plug-In . SVG Version: 6.00 Build 0)  -->
<svg version="1.1" id="Layer_1" xmlns="http://www.w3.org/2000/svg" xmlns:xlink="http://www.w3.org/1999/xlink" x="0px" y="0px"
	 viewBox="0 0 512 512" enable-background="new 0 0 512 512" xml:space="preserve">
<g>
	<path d="M256,288.7c-16.3-9.4-35.2-13.2-53.8-10.7c-18.6,2.5-35.9,11-49.2,24.3c-13.3,13.3-21.8,30.6-24.3,49.2
		c-2.5,18.6,1.3,37.5,10.7,53.8s23.9,29,41.2,36.2c17.4,7.2,36.6,8.5,54.7,3.6c18.1-4.9,34.2-15.6,45.6-30.5
		c11.4-14.9,17.6-33.2,17.6-51.9v-256h64V64H256V288.7z M243.5,392.8c-8,8-18.9,12.5-30.2,12.5c-11.3,0-22.2-4.5-30.2-12.5
		c-8-8-12.5-18.9-12.5-30.2s4.5-22.2,12.5-30.2c8-8,18.9-12.5,30.2-12.5c11.3,0,22.2,4.5,30.2,12.5s12.5,18.9,12.5,30.2
		S251.5,384.8,243.5,392.8z"/>
	<polygon points="405.3,64 384,64 384,106.7 426.7,106.7 426.7,85.3 426.7,64 	"/>
</g>
</svg>
