<?xml version="1.0" encoding="utf-8"?>
<!-- Generator: Adobe Illustrator 25.4.1, SVG Export Plug-In . SVG Version: 6.00 Build 0)  -->
<svg version="1.1" id="Layer_1" xmlns="http://www.w3.org/2000/svg" xmlns:xlink="http://www.w3.org/1999/xlink" x="0px" y="0px"
	 viewBox="0 0 512 512" enable-background="new 0 0 512 512" xml:space="preserve">
<g>
	<path d="M441.8,70.2c-4-4-9.4-6.2-15.1-6.2H85.3c-5.7,0-11.1,2.2-15.1,6.2c-4,4-6.2,9.4-6.2,15.1V384h42.7v-86.8l42.7-42.7
		l87.2,87.2l-63.7,63.7H128V448h-21.3v-42.7H64v21.3v0V448h21.3c0,0,0,0,0,0h341.3c5.7,0,11.1-2.2,15.1-6.2s6.2-9.4,6.2-15.1V85.3
		C448,79.7,445.8,74.2,441.8,70.2z M405.3,405.3H233.2l108.2-108.2l64,64V405.3z M405.3,300.8l-64-64l-74.7,74.7L149.3,194.1
		l-42.7,42.7V106.7h298.7V300.8z"/>
	<path d="M330.7,213.3c8.5,0,16.6-3.4,22.6-9.4c6-6,9.4-14.1,9.4-22.6s-3.4-16.6-9.4-22.6c-6-6-14.1-9.4-22.6-9.4
		c-8.5,0-16.6,3.4-22.6,9.4c-6,6-9.4,14.1-9.4,22.6c0,8.5,3.4,16.6,9.4,22.6S322.2,213.3,330.7,213.3z"/>
</g>
</svg>
