<svg fill="none" height="512" viewBox="0 0 24 24" width="512" xmlns="http://www.w3.org/2000/svg"><path d="m12 10.667 9.223-6.14899c.0753-.05011.1627-.07885.2531-.08317.0903-.00433.1801.01594.2599.05863.0797.04269.1464.1062.1929.18378s.071.16631.0711.25676v14.13199c-.0001.0904-.0246.1792-.0711.2568-.0465.0775-.1132.1411-.1929.1837-.0798.0427-.1696.063-.2599.0587-.0904-.0043-.1778-.0331-.2531-.0832l-9.223-6.149v5.733c-.0001.0904-.0246.1792-.0711.2568-.0465.0775-.1132.1411-.1929.1837-.0798.0427-.1696.063-.2599.0587-.0904-.0043-.1778-.0331-.2531-.0832l-10.599021-7.066c-.068478-.0457-.124626-.1075-.16346-.1801-.038833-.0726-.059152-.1536-.059152-.2359s.020319-.1633.059152-.2359c.038834-.0726.094982-.1344.16346-.1801l10.599021-7.06599c.0753-.05011.1627-.07885.2531-.08317.0903-.00433.1801.01594.2599.05863.0797.04269.1464.1062.1929.18378s.071.16631.0711.25676zm-2.00002 5.596v-8.52599l-6.394 4.26299zm10.00002 0v-8.52599l-6.394 4.26299z" fill="rgb(0,0,0)"/></svg>