<?xml version="1.0" encoding="utf-8"?>
<!-- Generator: Adobe Illustrator 25.4.1, SVG Export Plug-In . SVG Version: 6.00 Build 0)  -->
<svg version="1.1" id="Layer_1" xmlns="http://www.w3.org/2000/svg" xmlns:xlink="http://www.w3.org/1999/xlink" x="0px" y="0px"
	 viewBox="0 0 512 512" enable-background="new 0 0 512 512" xml:space="preserve">
<g>
	<path d="M256,320c28.3,0,55.4-11.2,75.4-31.2c20-20,31.2-47.1,31.2-75.4V128c0-14-2.8-27.9-8.1-40.8c-5.4-12.9-13.2-24.7-23.1-34.6
		c-9.9-9.9-21.7-17.8-34.6-23.1c-12.9-5.4-26.8-8.1-40.8-8.1c-28.3,0-55.4,11.2-75.4,31.2c-20,20-31.2,47.1-31.2,75.4v85.3
		c0,28.3,11.2,55.4,31.2,75.4C200.6,308.8,227.7,320,256,320z M192,128c0-17,6.7-33.3,18.7-45.3C222.7,70.7,239,64,256,64
		c17,0,33.3,6.7,45.3,18.7c12,12,18.7,28.3,18.7,45.3v85.3c0,17-6.7,33.3-18.7,45.3c-12,12-28.3,18.7-45.3,18.7
		c-17,0-33.3-6.7-45.3-18.7c-12-12-18.7-28.3-18.7-45.3V128z"/>
	<path d="M403.8,234.7c-5.2,35.5-23,68-50.1,91.5c-27.1,23.5-61.8,36.4-97.7,36.4c-35.9,0-70.6-12.9-97.7-36.4
		c-9.4-8.2-17.7-17.4-24.7-27.5H84c9.2,18.5,21.4,35.6,36.2,50.4c30.8,30.8,71.1,50.2,114.4,55.1v86.5h42.7v-86.5
		c43.3-4.9,83.6-24.3,114.4-55.1c30.8-30.8,50.2-71.1,55.1-114.4H403.8z"/>
	<polygon points="107.8,234.7 86.5,234.7 65.2,234.7 65.2,277.3 107.8,277.3 	"/>
</g>
</svg>
