<?xml version="1.0" encoding="utf-8"?>
<!-- Generator: Adobe Illustrator 25.4.1, SVG Export Plug-In . SVG Version: 6.00 Build 0)  -->
<svg version="1.1" id="Layer_1" xmlns="http://www.w3.org/2000/svg" xmlns:xlink="http://www.w3.org/1999/xlink" x="0px" y="0px"
	 viewBox="0 0 512 512" enable-background="new 0 0 512 512" xml:space="preserve">
<g>
	<polygon points="448,85.3 85.3,85.3 85.3,106.7 85.3,128 448,128 	"/>
	<path d="M469.3,170.7h-128c-10.7,0-21.3,10.7-21.3,21.3v213.3c0,10.7,10.7,21.3,21.3,21.3h128c10.7,0,21.3-10.7,21.3-21.3V192
		C490.7,181.3,480,170.7,469.3,170.7z M448,384h-85.3V213.3H448V384z"/>
	<path d="M277.3,294v-38H192v38c-13,11.7-21.3,28.4-21.3,47.4c0,19,8.3,35.6,21.3,47.4v38h85.3v-38c13-11.7,21.3-28.6,21.3-47.4
		C298.7,322.6,290.3,305.7,277.3,294z M234.7,373.3c-17.7,0-32-14.3-32-32c0-17.7,14.3-32,32-32s32,14.3,32,32
		C266.7,359,252.4,373.3,234.7,373.3z"/>
	<path d="M64,149.3H21.3V384c0,23.5,19.2,42.7,42.7,42.7h85.3V384H64V149.3z"/>
	<rect x="21.3" y="85.3" width="42.7" height="42.7"/>
</g>
</svg>
