<?xml version="1.0" encoding="utf-8"?>
<!-- Generator: Adobe Illustrator 25.4.1, SVG Export Plug-In . SVG Version: 6.00 Build 0)  -->
<svg version="1.1" id="Layer_1" xmlns="http://www.w3.org/2000/svg" xmlns:xlink="http://www.w3.org/1999/xlink" x="0px" y="0px"
	 viewBox="0 0 512 512" enable-background="new 0 0 512 512" xml:space="preserve">
<g>
	<rect x="128" y="277.3" width="106.7" height="85.3"/>
	<path d="M469.3,192v-42.7h-42.7v-42.7c0-23.5-19.2-42.7-42.7-42.7H106.7v42.7H384v298.7H85.3V128H42.7v277.3
		c0,23.5,19.2,42.7,42.7,42.7H384c23.5,0,42.7-19.2,42.7-42.7v-42.7h42.7V320h-42.7v-42.7h42.7v-42.7h-42.7V192H469.3z"/>
	<rect x="128" y="149.3" width="106.7" height="106.7"/>
	<rect x="256" y="149.3" width="85.3" height="64"/>
	<rect x="256" y="234.7" width="85.3" height="128"/>
	<rect x="42.7" y="64" width="42.7" height="42.7"/>
</g>
</svg>
