<?xml version="1.0" encoding="utf-8"?>
<!-- Generator: Adobe Illustrator 25.4.1, SVG Export Plug-In . SVG Version: 6.00 Build 0)  -->
<svg version="1.1" id="Layer_1" xmlns="http://www.w3.org/2000/svg" xmlns:xlink="http://www.w3.org/1999/xlink" x="0px" y="0px"
	 viewBox="0 0 512 512" enable-background="new 0 0 512 512" xml:space="preserve">
<g>
	<circle cx="309.3" cy="288" r="32"/>
	<circle cx="394.7" cy="224" r="32"/>
	<polygon points="170.7,320 170.7,277.3 213.3,277.3 213.3,234.7 170.7,234.7 170.7,192 128,192 128,234.7 85.3,234.7 85.3,277.3 
		128,277.3 128,320 	"/>
	<path d="M448,192v149.3H64V170.7h362.7V128H64c-23.5,0-42.7,19.2-42.7,42.7v170.7c0,23.5,19.2,42.7,42.7,42.7h384
		c23.5,0,42.7-19.2,42.7-42.7V192h-21.3H448z"/>
	<rect x="448" y="128" width="42.7" height="42.7"/>
</g>
</svg>
