<?xml version="1.0" encoding="utf-8"?>
<!-- Generator: Adobe Illustrator 25.4.1, SVG Export Plug-In . SVG Version: 6.00 Build 0)  -->
<svg version="1.1" id="Layer_1" xmlns="http://www.w3.org/2000/svg" xmlns:xlink="http://www.w3.org/1999/xlink" x="0px" y="0px"
	 viewBox="0 0 512 512" enable-background="new 0 0 512 512" xml:space="preserve">
<g>
	<path d="M361.8,122.2L352.1,64h-27.4h-15.9l5.2,31.6c-18.1-6.6-37.5-10.2-58-10.2c-20.3,0-39.9,3.6-57.8,10l8.7-52.7H282V0H170.7
		l-20.3,122.2c-39.7,31.1-65.1,79.4-65.1,133.8s25.4,102.6,65.1,133.8L170.7,512h170.7l20.5-122.2c39.5-31.1,64.9-79.6,64.9-133.8
		S401.3,153.4,361.8,122.2z M305.3,469.3h-98.3l-8.7-52.7c17.9,6.4,37.5,10,57.8,10c20.5,0,39.9-3.6,58-10.2L305.3,469.3z M256,384
		c-70.6,0-128-57.4-128-128s57.4-128,128-128s128,57.4,128,128S326.6,384,256,384z"/>
	<polygon points="346,0 341.3,0 324.7,0 303.4,0 303.4,42.7 346,42.7 	"/>
</g>
</svg>
