<?xml version="1.0" encoding="utf-8"?>
<!-- Generator: Adobe Illustrator 25.4.1, SVG Export Plug-In . SVG Version: 6.00 Build 0)  -->
<svg version="1.1" id="Layer_1" xmlns="http://www.w3.org/2000/svg" xmlns:xlink="http://www.w3.org/1999/xlink" x="0px" y="0px"
	 viewBox="0 0 512 512" enable-background="new 0 0 512 512" xml:space="preserve">
<g>
	<path d="M256,21.3c-106,0-192,86-192,192v149.3c0,35.4,28.6,64,64,64h64V256h-85.3v-42.7C106.7,130.8,173.4,64,256,64
		s149.3,66.8,149.3,149.3V256H320v170.7h64c35.4,0,64-28.6,64-64V213.3C448,107.3,362,21.3,256,21.3z M149.3,298.7V384H128
		c-11.7,0-21.3-9.6-21.3-21.3v-64H149.3z M405.3,362.7c0,11.7-9.6,21.3-21.3,21.3h-21.3v-85.3h42.7V362.7z"/>
	<rect x="234.7" y="384" width="42.7" height="42.7"/>
</g>
</svg>
