<?xml version="1.0" encoding="utf-8"?>
<!-- Generator: Adobe Illustrator 25.4.1, SVG Export Plug-In . SVG Version: 6.00 Build 0)  -->
<svg version="1.1" id="Layer_1" xmlns="http://www.w3.org/2000/svg" xmlns:xlink="http://www.w3.org/1999/xlink" x="0px" y="0px"
	 viewBox="0 0 512 512" enable-background="new 0 0 512 512" xml:space="preserve">
<g>
	<path d="M426.7,106.7H85.3c-23.5,0-42.5,19.2-42.5,42.7l-0.2,192h42.6v-192h341.3v213.3h-320v42.7h320c23.5,0,42.7-19.2,42.7-42.7
		V149.3C469.3,125.9,450.1,106.7,426.7,106.7z"/>
	<rect x="170.7" y="170.7" width="42.7" height="42.7"/>
	<rect x="106.7" y="234.7" width="42.7" height="42.7"/>
	<rect x="106.7" y="170.7" width="42.7" height="42.7"/>
	<rect x="170.7" y="298.7" width="170.7" height="42.7"/>
	<rect x="170.7" y="234.7" width="42.7" height="42.7"/>
	<rect x="362.7" y="234.7" width="42.7" height="42.7"/>
	<rect x="234.7" y="234.7" width="42.7" height="42.7"/>
	<rect x="362.7" y="170.7" width="42.7" height="42.7"/>
	<rect x="298.7" y="170.7" width="42.7" height="42.7"/>
	<rect x="234.7" y="170.7" width="42.7" height="42.7"/>
	<rect x="298.7" y="234.7" width="42.7" height="42.7"/>
	<rect x="42.7" y="362.7" width="42.7" height="42.7"/>
</g>
</svg>
