<?xml version="1.0" encoding="utf-8"?>
<!-- Generator: Adobe Illustrator 25.4.1, SVG Export Plug-In . SVG Version: 6.00 Build 0)  -->
<svg version="1.1" id="Layer_1" xmlns="http://www.w3.org/2000/svg" xmlns:xlink="http://www.w3.org/1999/xlink" x="0px" y="0px"
	 viewBox="0 0 512 512" enable-background="new 0 0 512 512" xml:space="preserve">
<g>
	<rect x="170.7" y="128" width="42.7" height="42.7"/>
	<polygon points="256,490.7 341.3,405.3 170.7,405.3 	"/>
	<path d="M426.7,128v192H85.3V106.7h320V64h-320c-23.5,0-42.5,19.2-42.5,42.7L42.7,320c0,23.5,19.2,42.7,42.7,42.7h341.3
		c23.5,0,42.7-19.2,42.7-42.7V128H448H426.7z"/>
	<rect x="362.7" y="192" width="42.7" height="42.7"/>
	<polygon points="405.3,128 405.3,128 362.7,128 362.7,170.7 405.3,170.7 	"/>
	<rect x="170.7" y="192" width="42.7" height="42.7"/>
	<rect x="170.7" y="256" width="170.7" height="42.7"/>
	<rect x="298.7" y="128" width="42.7" height="42.7"/>
	<rect x="106.7" y="192" width="42.7" height="42.7"/>
	<rect x="106.7" y="128" width="42.7" height="42.7"/>
	<rect x="234.7" y="192" width="42.7" height="42.7"/>
	<rect x="298.7" y="192" width="42.7" height="42.7"/>
	<rect x="234.7" y="128" width="42.7" height="42.7"/>
	<rect x="426.7" y="64" width="42.7" height="42.7"/>
</g>
</svg>
