<?xml version="1.0" encoding="utf-8"?>
<!-- Generator: Adobe Illustrator 25.4.1, SVG Export Plug-In . SVG Version: 6.00 Build 0)  -->
<svg version="1.1" id="Layer_1" xmlns="http://www.w3.org/2000/svg" xmlns:xlink="http://www.w3.org/1999/xlink" x="0px" y="0px"
	 viewBox="0 0 512 512" enable-background="new 0 0 512 512" xml:space="preserve">
<g>
	<path d="M256,22.8C162.1,22.8,86.2,98.3,85.3,192v128c0,94.3,76.4,170.7,170.7,170.7c24.7,0,69.3,0,106.7,0v-21.3V448
		c-29.3,0-81.1,0-106.7,0c-70.6,0-128-57.4-128-128v-85.3h256V320c0,23.7,0,76.8,0,106.7h42.7c0-37.7,0-82.6,0-106.7V192
		C425.8,98.3,349.9,22.8,256,22.8z M234.7,192H128c0.9-62.7,46.7-114.6,106.7-124.6V192z M277.3,192V67.4
		c59.9,10,105.8,61.9,106.7,124.6H277.3z"/>
	<path d="M384,490.7h21.3c13.1,0,21.3,0,21.3,0s0-8.3,0-21.3V448H384V490.7z"/>
</g>
</svg>
