<?xml version="1.0" encoding="utf-8"?>
<!-- Generator: Adobe Illustrator 25.4.1, SVG Export Plug-In . SVG Version: 6.00 Build 0)  -->
<svg version="1.1" id="Layer_1" xmlns="http://www.w3.org/2000/svg" xmlns:xlink="http://www.w3.org/1999/xlink" x="0px" y="0px"
	 viewBox="0 0 512 512" enable-background="new 0 0 512 512" xml:space="preserve">
<g>
	<path d="M270.9,142.9L270.9,142.9L288,160c14.9-14.9,34.1-21.3,53.3-21.3c19.2,0,38.4,6.4,53.3,21.3l17.1-17.1
		c-19.2-19.2-44.8-29.9-70.4-29.9C315.7,113.1,290.1,123.7,270.9,142.9z"/>
	<path d="M341.3,89.6c32,0,64,12.8,89.6,36.3l17.1-17.1C418.1,78.9,379.7,64,341.3,64c-38.4,0-76.8,14.9-106.7,44.8l17.1,17.1
		C277.3,102.4,309.3,89.6,341.3,89.6z"/>
	<rect x="202.7" y="341.3" width="42.7" height="42.7"/>
	<rect x="128" y="341.3" width="42.7" height="42.7"/>
	<rect x="277.3" y="341.3" width="42.7" height="42.7"/>
	<path d="M448,277.3h-42.7V320H448v21.3h-21.3h-21.3v64H106.7V320H384v-42.7h-21.3V192H320v85.3H106.7C83.2,277.3,64,296.5,64,320
		v85.3c0,23.5,19.2,42.7,42.7,42.7h298.7c23.5,0,42.7-19.2,42.7-42.7V320c0-0.1,0-0.1,0-0.2V277.3z"/>
</g>
</svg>
