<?xml version="1.0" encoding="utf-8"?>
<!-- Generator: Adobe Illustrator 25.4.1, SVG Export Plug-In . SVG Version: 6.00 Build 0)  -->
<svg version="1.1" id="Layer_1" xmlns="http://www.w3.org/2000/svg" xmlns:xlink="http://www.w3.org/1999/xlink" x="0px" y="0px"
	 viewBox="0 0 512 512" enable-background="new 0 0 512 512" xml:space="preserve">
<g>
	<path d="M362.7,426.7H149.3V85.3h192V42.7h-192c-23.5,0-42.7,19.2-42.7,42.7v341.3c0,23.5,19.2,42.5,42.7,42.5l213.3,0.2
		c23.5,0,42.7-19.2,42.7-42.7v-320h-42.7V426.7z"/>
	<path d="M170.7,320c0,47.1,38.2,85.3,85.3,85.3s85.3-38.2,85.3-85.3s-38.2-85.3-85.3-85.3S170.7,272.9,170.7,320z M256,277.3
		c23.5,0,42.7,19.2,42.7,42.7s-19.2,42.7-42.7,42.7s-42.7-19.2-42.7-42.7S232.5,277.3,256,277.3z"/>
	<ellipse transform="matrix(0.9871 -0.1602 0.1602 0.9871 -20.6149 42.9349)" cx="256" cy="149.3" rx="42.7" ry="42.7"/>
	<rect x="362.7" y="42.7" width="42.7" height="42.7"/>
</g>
</svg>
