<?xml version="1.0" encoding="utf-8"?>
<!-- Generator: Adobe Illustrator 25.4.1, SVG Export Plug-In . SVG Version: 6.00 Build 0)  -->
<svg version="1.1" id="Layer_1" xmlns="http://www.w3.org/2000/svg" xmlns:xlink="http://www.w3.org/1999/xlink" x="0px" y="0px"
	 viewBox="0 0 512 512" enable-background="new 0 0 512 512" xml:space="preserve">
<g>
	<rect x="213.3" y="320" width="170.7" height="42.7"/>
	<polygon points="128,320 128,320 128,320 128,362.7 170.7,362.7 170.7,320 	"/>
	<path d="M422.4,228.3L422.4,228.3L89.6,106.7l-14.9,40.5L375.5,256H128v21.3v21.3h277.3V384H106.7v-64H64v64
		c0,23.5,19.2,42.7,42.7,42.7h298.7c23.5,0,42.7-19.2,42.7-42.7V266.7C448,249.6,437.3,232.5,422.4,228.3z"/>
	<rect x="64" y="256" width="42.7" height="42.7"/>
</g>
</svg>
