<?xml version="1.0" encoding="utf-8"?>
<!-- Generator: Adobe Illustrator 25.4.1, SVG Export Plug-In . SVG Version: 6.00 Build 0)  -->
<svg version="1.1" id="Layer_1" xmlns="http://www.w3.org/2000/svg" xmlns:xlink="http://www.w3.org/1999/xlink" x="0px" y="0px"
	 viewBox="0 0 512 512" enable-background="new 0 0 512 512" xml:space="preserve">
<g>
	<path d="M97.8,405.3h47.4c5.5-9.6,12.4-18.5,20.3-26.5c24-24,56.6-37.5,90.5-37.5v-42.7c-45.3,0-88.7,18-120.7,50
		C119,365,106.3,384.3,97.8,405.3z"/>
	<path d="M457.5,427.3L457.5,427.3c10.5-17.9,14.2-39,10.3-59.4c-3.9-20.4-15.1-38.7-31.5-51.4c-16.4-12.7-36.9-19-57.6-17.7
		c-20.7,1.3-40.3,10.1-55,24.8c-14.7,14.7-23.5,34.2-24.8,55c-1.3,20.7,5,41.2,17.7,57.6s31,27.6,51.4,31.5
		c20.4,3.9,41.5,0.2,59.4-10.3l32.1,32.1l30.2-30.2L457.5,427.3z M414.2,414.2c-8,8-18.9,12.5-30.2,12.5s-22.2-4.5-30.2-12.5
		c-8-8-12.5-18.9-12.5-30.2s4.5-22.2,12.5-30.2c8-8,18.9-12.5,30.2-12.5s22.2,4.5,30.2,12.5c8,8,12.5,18.9,12.5,30.2
		S422.2,406.2,414.2,414.2z"/>
	<path d="M384,149.3c0-70.7-57.3-128-128-128s-128,57.3-128,128s57.3,128,128,128S384,220.1,384,149.3z M256,234.7
		c-47.1,0-85.3-38.2-85.3-85.3S208.9,64,256,64s85.3,38.2,85.3,85.3S303.1,234.7,256,234.7z"/>
	<polygon points="85.3,469.3 85.3,469.3 85.3,469.3 85.3,469.3 128,469.3 128,426.7 85.3,426.7 	"/>
</g>
</svg>
