<?xml version="1.0" encoding="utf-8"?>
<!-- Generator: Adobe Illustrator 25.4.1, SVG Export Plug-In . SVG Version: 6.00 Build 0)  -->
<svg version="1.1" id="Layer_1" xmlns="http://www.w3.org/2000/svg" xmlns:xlink="http://www.w3.org/1999/xlink" x="0px" y="0px"
	 viewBox="0 0 512 512" enable-background="new 0 0 512 512" xml:space="preserve">
<g>
	<path d="M444.3,324.5c-7.8-8.2-17.1-14.7-27.5-19.1c-10.4-4.4-21.5-6.7-32.8-6.7s-22.5,2.3-32.8,6.7c-10.4,4.4-19.7,11-27.5,19.1
		c-33.3,34.5-33.3,90.5,0,125L384,512l60.3-62.5C477.7,415,477.7,359.1,444.3,324.5z M413.7,419.9L413.7,419.9L384,450.6l-29.7-30.7
		c-17.3-18-17.3-47.7,0-65.7c3.8-4.1,8.4-7.3,13.5-9.5s10.6-3.4,16.2-3.4s11.1,1.1,16.2,3.4c5.1,2.2,9.7,5.4,13.5,9.5
		C431,372.2,431,401.9,413.7,419.9z"/>
	<path d="M97.8,405.3h47.4c5.5-9.6,12.4-18.5,20.3-26.5c24-24,56.6-37.5,90.5-37.5v-42.7c-45.3,0-88.7,18-120.7,50
		C119,365,106.3,384.3,97.8,405.3z"/>
	<path d="M384,149.3c0-70.7-57.3-128-128-128s-128,57.3-128,128s57.3,128,128,128S384,220.1,384,149.3z M256,234.7
		c-47.1,0-85.3-38.2-85.3-85.3S208.9,64,256,64s85.3,38.2,85.3,85.3S303.1,234.7,256,234.7z"/>
	<path d="M85.3,469c0,0.1,0,0.2,0,0.3h0v0H128v-42.7H85.3V469z"/>
</g>
</svg>
