<?xml version="1.0" encoding="utf-8"?>
<!-- Generator: Adobe Illustrator 25.4.1, SVG Export Plug-In . SVG Version: 6.00 Build 0)  -->
<svg version="1.1" id="Layer_1" xmlns="http://www.w3.org/2000/svg" xmlns:xlink="http://www.w3.org/1999/xlink" x="0px" y="0px"
	 viewBox="0 0 512 512" enable-background="new 0 0 512 512" xml:space="preserve">
<g>
	<path d="M213.3,277.3c70.7,0,128-57.3,128-128s-57.3-128-128-128s-128,57.3-128,128S142.6,277.3,213.3,277.3z M213.3,64
		c47.1,0,85.3,38.2,85.3,85.3s-38.2,85.3-85.3,85.3S128,196.5,128,149.3S166.2,64,213.3,64z"/>
	<path d="M397,146.9c7.4,14.2,10,30.3,7.5,46.1c-2.5,15.8-10,30.3-21.3,41.5c-11.4,11.2-26,18.5-41.8,20.7v42.9
		c29.2-2.7,56.3-16.1,76-37.7c19.7-21.6,30.7-49.8,30.7-79.1c0-23.2-6.9-46-19.8-65.3c-12.9-19.3-31.3-34.4-52.8-43.2l-11.8,41.5
		C377.9,121.3,389.6,132.7,397,146.9z"/>
	<path d="M463.3,376.7c-17.8-27.6-43.3-49.5-73.3-63h0l-17.5,38.9c22.5,10.1,41.6,26.5,55,47.2c13.4,20.7,20.5,44.9,20.5,69.5h42.7
		C490.7,436.5,481.2,404.3,463.3,376.7z"/>
	<path d="M213.3,298.7c-45.3,0-88.7,18-120.7,50c-16.3,16.3-29,35.7-37.5,56.7h47.4c5.5-9.6,12.4-18.5,20.3-26.5
		c24-24,56.6-37.5,90.5-37.5c33.9,0,66.5,13.5,90.5,37.5c24,24,37.5,56.6,37.5,90.5H384c0-45.3-18-88.7-50-120.7
		C302,316.6,258.6,298.7,213.3,298.7z"/>
	<rect x="42.7" y="426.7" width="42.7" height="42.7"/>
</g>
</svg>
