<?xml version="1.0" encoding="utf-8"?>
<!-- Generator: Adobe Illustrator 25.4.1, SVG Export Plug-In . SVG Version: 6.00 Build 0)  -->
<svg version="1.1" id="Layer_1" xmlns="http://www.w3.org/2000/svg" xmlns:xlink="http://www.w3.org/1999/xlink" x="0px" y="0px"
	 viewBox="0 0 512 512" enable-background="new 0 0 512 512" xml:space="preserve">
<g>
	<path d="M192,277.3c70.7,0,128-57.3,128-128s-57.3-128-128-128S64,78.6,64,149.3S121.3,277.3,192,277.3z M192,64
		c47.1,0,85.3,38.2,85.3,85.3s-38.2,85.3-85.3,85.3s-85.3-38.2-85.3-85.3S144.9,64,192,64z"/>
	<path d="M192,298.7c-45.3,0-88.7,18-120.7,50c-16.3,16.3-29,35.7-37.5,56.7h47.4c5.5-9.6,12.4-18.5,20.3-26.5
		c24-24,56.6-37.5,90.5-37.5s66.5,13.5,90.5,37.5c24,24,37.5,56.6,37.5,90.5h42.7c0-45.3-18-88.7-50-120.7
		C280.7,316.6,237.3,298.7,192,298.7z"/>
	<path d="M459.7,16.7l-35.1,25.5c15,32.6,23.4,68.9,23.4,107.1c0.1,37-7.9,73.5-23.4,107.1l35.1,25.5c19.8-39.9,31-85,31-132.6
		C490.7,103.3,480.1,57.9,459.7,16.7z"/>
	<path d="M353.5,94c6.1,17.8,9.2,36.5,9.2,55.4c0,18.8-3.1,37.6-9.2,55.4l35.8,26c10.7-25.8,16.1-53.5,16.1-81.4
		c0-27.9-5.4-55.6-16.1-81.4L353.5,94z"/>
	<rect x="21.3" y="426.7" width="42.7" height="42.7"/>
</g>
</svg>
