<?xml version="1.0" encoding="utf-8"?>
<!-- Generator: Adobe Illustrator 25.4.1, SVG Export Plug-In . SVG Version: 6.00 Build 0)  -->
<svg version="1.1" id="Layer_1" xmlns="http://www.w3.org/2000/svg" xmlns:xlink="http://www.w3.org/1999/xlink" x="0px" y="0px"
	 viewBox="0 0 512 512" enable-background="new 0 0 512 512" xml:space="preserve">
<g>
	<path d="M277.3,339.9c40.3-5.4,77-25.9,102.7-57.3c25.7-31.4,38.5-71.5,35.8-112c-2.7-40.5-20.7-78.5-50.4-106.2
		C335.7,36.7,296.6,21.3,256,21.3c-40.6,0-79.6,15.5-109.2,43.2c-29.6,27.7-47.6,65.7-50.3,106.1c-2.7,40.5,10,80.5,35.7,111.9
		c25.6,31.4,62.3,51.9,102.5,57.4V384h-43.6v21.3v21.3h43.6V512h42.7v-85.3H384V384H277.3V339.9z M173,264.3
		c-22-22-34.4-51.8-34.4-83c0-31.1,12.4-61,34.4-83S224.9,64,256,64c31.1,0,61,12.4,83,34.4c22,22,34.4,51.8,34.4,83
		c0,31.1-12.4,61-34.4,83c-22,22-51.8,34.4-83,34.4C224.9,298.7,195,286.3,173,264.3z"/>
	<rect x="127.1" y="384" width="42.7" height="42.7"/>
</g>
</svg>
