<?xml version="1.0" encoding="utf-8"?>
<!-- Generator: Adobe Illustrator 25.4.1, SVG Export Plug-In . SVG Version: 6.00 Build 0)  -->
<svg version="1.1" id="Layer_1" xmlns="http://www.w3.org/2000/svg" xmlns:xlink="http://www.w3.org/1999/xlink" x="0px" y="0px"
	 viewBox="0 0 512 512" enable-background="new 0 0 512 512" xml:space="preserve">
<g>
	<path d="M256,106.7c-22.6,0-44.3,9-60.3,25c-16,16-25,37.7-25,60.3c0,22.6,9,44.3,25,60.3c16,16,37.7,25,60.3,25s44.3-9,60.3-25
		c16-16,25-37.7,25-60.3c0-22.6-9-44.3-25-60.3C300.3,115.7,278.6,106.7,256,106.7z M286.2,222.2c-8,8-18.9,12.5-30.2,12.5
		s-22.2-4.5-30.2-12.5s-12.5-18.9-12.5-30.2s4.5-22.2,12.5-30.2c8-8,18.9-12.5,30.2-12.5s22.2,4.5,30.2,12.5
		c8,8,12.5,18.9,12.5,30.2S294.2,214.2,286.2,222.2z"/>
	<path d="M259.4,298.7c-6.7,0-13.4,0.3-20.1,1h-2.5v42.7h42.7v-42.7h-0.2C272.8,299,266.1,298.7,259.4,298.7z"/>
	<path d="M256,42.7C138.2,42.7,42.7,138.2,42.7,256c0,101.3,70.6,186.1,165.2,207.9L256,512l48.1-48.1
		c94.7-21.8,165.2-106.6,165.2-207.9C469.3,138.2,373.8,42.7,256,42.7z M395.1,354.9c-17.8-17.8-39-32-62.3-41.6
		c-10.4-4.3-21.1-7.6-32-10.1v44c5.6,1.6,11.1,3.5,16.5,5.8c18.3,7.7,35,19.1,48.8,33.3c-20.7,17.5-45.3,29.9-71.7,36l-11.9,2.8
		L256,451.7l-26.6-26.6l-11.9-2.8c-24.8-5.7-48-16.9-67.9-32.8c17.7-19.2,40.4-33.7,66-41.6v-44.2c-11,2.6-21.8,6.1-32.2,10.6
		c-24,10.3-45.6,25.5-63.6,44.5v0c-19-25.2-30.7-55.1-33.7-86.5c-3-31.4,2.7-63,16.6-91.3c13.9-28.3,35.3-52.3,61.9-69.2
		C191.2,95,222,85.8,253.5,85.4c31.5-0.5,62.6,7.8,89.7,23.9c27.1,16.1,49.2,39.4,63.9,67.3c14.7,27.9,21.3,59.3,19.2,90.8
		C424.2,298.9,413.4,329.2,395.1,354.9z"/>
</g>
</svg>
