<?xml version="1.0" encoding="utf-8"?>
<!-- Generator: Adobe Illustrator 25.4.1, SVG Export Plug-In . SVG Version: 6.00 Build 0)  -->
<svg version="1.1" id="Layer_1" xmlns="http://www.w3.org/2000/svg" xmlns:xlink="http://www.w3.org/1999/xlink" x="0px" y="0px"
	 viewBox="0 0 512 512" enable-background="new 0 0 512 512" xml:space="preserve">
<g>
	<path d="M33.1,149l-17.7,38.8c33.6,15.3,62,39.9,82,70.9c20,31,30.6,67.1,30.6,104v42.7h42.7v-42.7c0-45.1-13-89.2-37.3-127.1
		C108.9,197.7,74.1,167.6,33.1,149z"/>
	<path d="M331.4,73.9c-20-20-47.1-31.2-75.4-31.2c-28.3,0-55.4,11.2-75.4,31.2c-20,20-31.2,47.1-31.2,75.4
		c0,28.3,11.2,55.4,31.2,75.4c20,20,47.1,31.2,75.4,31.2c28.3,0,55.4-11.2,75.4-31.2c20-20,31.2-47.1,31.2-75.4
		C362.7,121,351.4,93.9,331.4,73.9z M315.1,173.8c-3.2,7.8-7.9,14.8-13.9,20.8c-5.9,5.9-13,10.7-20.8,13.9
		c-7.8,3.2-16.1,4.9-24.5,4.9c-17,0-33.3-6.7-45.3-18.7c-12-12-18.7-28.3-18.7-45.3s6.7-33.3,18.7-45.3c12-12,28.3-18.7,45.3-18.7
		c8.4,0,16.7,1.7,24.5,4.9c7.8,3.2,14.8,7.9,20.8,13.9c5.9,5.9,10.7,13,13.9,20.8c3.2,7.8,4.9,16.1,4.9,24.5
		C320,157.7,318.3,166.1,315.1,173.8z"/>
	<path d="M478.9,149c-81.1,36.9-137.5,118.7-137.5,213.7v106.7H384V362.7c0-36.9,10.6-73,30.6-104c20-31,48.4-55.6,82-70.9
		L478.9,149z"/>
	<rect x="128" y="426.7" width="42.7" height="42.7"/>
</g>
</svg>
