<?xml version="1.0" encoding="utf-8"?>
<!-- Generator: Adobe Illustrator 25.4.1, SVG Export Plug-In . SVG Version: 6.00 Build 0)  -->
<svg version="1.1" id="Layer_1" xmlns="http://www.w3.org/2000/svg" xmlns:xlink="http://www.w3.org/1999/xlink" x="0px" y="0px"
	 viewBox="0 0 512 512" enable-background="new 0 0 512 512" xml:space="preserve">
<g>
	<path d="M395.4,351.2c-20-20-47.1-31.2-75.4-31.2H192c-28.3,0-55.4,11.2-75.4,31.2c-14.9,14.9-24.9,33.8-29.1,54.1h44.2
		c3.2-8.9,8.3-17.1,15.1-23.9c12-12,28.3-18.7,45.3-18.7h128c17,0,33.3,6.7,45.3,18.7c12,12,18.7,28.3,18.7,45.3v42.7h42.7v-42.7
		C426.7,398.4,415.4,371.2,395.4,351.2z"/>
	<path d="M165.5,239.8c11.9,11.9,26,21.3,41.5,27.7c15.5,6.4,32.2,9.7,49,9.7c33.9,0,66.5-13.5,90.5-37.5c24-24,37.5-56.6,37.5-90.5
		c0-33.9-13.5-66.5-37.5-90.5c-24-24-56.6-37.5-90.5-37.5c-16.8,0-33.5,3.3-49,9.7c-15.5,6.4-29.6,15.9-41.5,27.7
		s-21.3,26-27.7,41.5c-6.4,15.5-9.7,32.2-9.7,49c0,16.8,3.3,33.5,9.7,49C144.2,213.8,153.6,228,165.5,239.8z M195.7,89
		c16-16,37.7-25,60.3-25s44.3,9,60.3,25c16,16,25,37.7,25,60.3s-9,44.3-25,60.3c-16,16-37.7,25-60.3,25s-44.3-9-60.3-25
		c-16-16-25-37.7-25-60.3S179.7,105,195.7,89z"/>
	<path d="M85.3,426.3c0,0.1,0,0.2,0,0.4v42.7h0v0H128v-42.7H85.3V426.3z"/>
</g>
</svg>
