<?xml version="1.0" encoding="utf-8"?>
<!-- Generator: Adobe Illustrator 25.4.1, SVG Export Plug-In . SVG Version: 6.00 Build 0)  -->
<svg version="1.1" id="Layer_1" xmlns="http://www.w3.org/2000/svg" xmlns:xlink="http://www.w3.org/1999/xlink" x="0px" y="0px"
	 viewBox="0 0 512 512" enable-background="new 0 0 512 512" xml:space="preserve">
<g>
	<path d="M97.8,405.3h47.4c5.5-9.6,12.4-18.5,20.3-26.5c24-24,56.6-37.5,90.5-37.5v-42.7c-45.3,0-88.7,18-120.7,50
		C119,365,106.3,384.3,97.8,405.3z"/>
	<polygon points="485.4,372.4 415.4,362.2 384,298.7 352.7,362.2 282.6,372.4 333.3,421.8 321.3,491.6 384,458.7 446.7,491.6 
		434.7,421.8 	"/>
	<path d="M384,149.3c0-70.7-57.3-128-128-128s-128,57.3-128,128s57.3,128,128,128S384,220.1,384,149.3z M256,234.7
		c-47.1,0-85.3-38.2-85.3-85.3S208.9,64,256,64s85.3,38.2,85.3,85.3S303.1,234.7,256,234.7z"/>
	<polygon points="85.3,469.3 85.3,469.3 85.3,469.3 85.3,469.3 128,469.3 128,426.7 85.3,426.7 	"/>
</g>
</svg>
