<?xml version="1.0" encoding="utf-8"?>
<!-- Generator: Adobe Illustrator 25.4.1, SVG Export Plug-In . SVG Version: 6.00 Build 0)  -->
<svg version="1.1" id="Layer_1" xmlns="http://www.w3.org/2000/svg" xmlns:xlink="http://www.w3.org/1999/xlink" x="0px" y="0px"
	 viewBox="0 0 512 512" enable-background="new 0 0 512 512" xml:space="preserve">
<g>
	<path d="M256,213.3c14.1,0,27.7-5.6,37.7-15.6c10-10,15.6-23.6,15.6-37.7s-5.6-27.7-15.6-37.7c-10-10-23.6-15.6-37.7-15.6
		s-27.7,5.6-37.7,15.6c-10,10-15.6,23.6-15.6,37.7s5.6,27.7,15.6,37.7C228.3,207.7,241.9,213.3,256,213.3z"/>
	<polygon points="85.3,85.3 170.7,85.3 170.7,42.7 42.7,42.7 42.7,170.7 85.3,170.7 	"/>
	<rect x="341.3" y="42.7" width="64" height="42.7"/>
	<polygon points="426.7,426.7 341.3,426.7 341.3,469.3 469.3,469.3 469.3,341.3 426.7,341.3 	"/>
	<rect x="426.7" y="106.7" width="42.7" height="64"/>
	<polygon points="85.3,341.3 42.7,341.3 42.7,469.3 170.7,469.3 170.7,426.7 85.3,426.7 	"/>
	<path d="M374.6,221.3c13.2-21.7,20.1-46.6,20.1-72H352c0,21.8-7.4,42.9-21,59.9c-13.6,17-32.5,28.9-53.7,33.8l0,119.7h-42.7V243
		c-21.2-4.8-40.1-16.7-53.7-33.8c-13.6-17-21-38.1-21-59.9h-42.7c0,25.4,7,50.3,20.1,72c13.2,21.7,32,39.4,54.5,51.1v132.9h128
		l0-133C342.5,260.6,361.4,243,374.6,221.3z"/>
	<polygon points="469.3,42.7 448,42.7 426.7,42.7 426.7,85.3 469.3,85.3 469.3,42.7 	"/>
</g>
</svg>
