<?xml version="1.0" encoding="utf-8"?>
<!-- Generator: Adobe Illustrator 25.4.1, SVG Export Plug-In . SVG Version: 6.00 Build 0)  -->
<svg version="1.1" id="Layer_1" xmlns="http://www.w3.org/2000/svg" xmlns:xlink="http://www.w3.org/1999/xlink" x="0px" y="0px"
	 viewBox="0 0 512 512" enable-background="new 0 0 512 512" xml:space="preserve">
<g>
	<path d="M405.3,405.3H281l-25,25l-25-25H106.7V106.7H384V64H106.6C83.1,64,64,83.1,64,106.6v298.9c0,11.3,4.5,22.1,12.5,30.1
		c8,8,18.8,12.5,30.1,12.5h106.8l42.7,42.7l42.7-42.7h106.8c11.3,0,22.1-4.5,30.1-12.5c8-8,12.5-18.8,12.5-30.1V128h-42.7V405.3z"/>
	<path d="M132.7,367c11.7,8.2,24.2,15.2,37.4,20.9l0,0c19.2-28.1,51.5-46.5,88.1-46.5c16.9,0,33.5,4,48.6,11.7
		c15,7.7,28,18.8,37.9,32.5c13-6,25.3-13.4,36.8-21.9c-26.9-39.3-72.1-65-123.3-65c-25,0-49.5,6.2-71.4,18.2
		C164.8,328.8,146.2,346,132.7,367z"/>
	<path d="M203.2,255.5c6.9,6.9,15.2,12.4,24.2,16.2c9.1,3.8,18.8,5.7,28.6,5.7c19.8,0,38.8-7.9,52.8-21.9c14-14,21.9-33,21.9-52.8
		c0-19.8-7.9-38.8-21.9-52.8c-14-14-33-21.9-52.8-21.9c-9.8,0-19.5,1.9-28.6,5.7c-9.1,3.8-17.3,9.3-24.2,16.2
		c-6.9,6.9-12.4,15.2-16.2,24.2c-3.8,9.1-5.7,18.8-5.7,28.6c0,9.8,1.9,19.5,5.7,28.6C190.8,240.3,196.3,248.5,203.2,255.5z
		 M233.4,180c6-6,14.1-9.4,22.6-9.4s16.6,3.4,22.6,9.4c6,6,9.4,14.1,9.4,22.6c0,8.5-3.4,16.6-9.4,22.6c-6,6-14.1,9.4-22.6,9.4
		s-16.6-3.4-22.6-9.4c-6-6-9.4-14.1-9.4-22.6C224,194.2,227.4,186,233.4,180z"/>
	<rect x="405.3" y="64" width="42.7" height="42.7"/>
</g>
</svg>
