<?xml version="1.0" encoding="utf-8"?>
<!-- Generator: Adobe Illustrator 25.4.1, SVG Export Plug-In . SVG Version: 6.00 Build 0)  -->
<svg version="1.1" id="Layer_1" xmlns="http://www.w3.org/2000/svg" xmlns:xlink="http://www.w3.org/1999/xlink" x="0px" y="0px"
	 viewBox="0 0 512 512" enable-background="new 0 0 512 512" xml:space="preserve">
<g>
	<path d="M256,277.3c70.7,0,128-57.3,128-128s-57.3-128-128-128s-128,57.3-128,128S185.3,277.3,256,277.3z M256,64
		c47.1,0,85.3,38.2,85.3,85.3s-38.2,85.3-85.3,85.3s-85.3-38.2-85.3-85.3S208.9,64,256,64z"/>
	<path d="M376.7,348.7c-32-32-75.4-50-120.7-50c-45.3,0-88.7,18-120.7,50c-16.3,16.3-29,35.7-37.5,56.7h47.4
		c5.5-9.6,12.4-18.5,20.3-26.5c24-24,56.6-37.5,90.5-37.5s66.5,13.5,90.5,37.5c24,24,37.5,56.6,37.5,90.5h42.7
		C426.7,424.1,408.7,380.7,376.7,348.7z"/>
	<polygon points="85.3,469.3 85.3,469.3 85.3,469.3 85.3,469.3 128,469.3 128,426.7 85.3,426.7 	"/>
</g>
</svg>
