<?xml version="1.0" encoding="utf-8"?>
<!-- Generator: Adobe Illustrator 25.4.1, SVG Export Plug-In . SVG Version: 6.00 Build 0)  -->
<svg version="1.1" id="Layer_1" xmlns="http://www.w3.org/2000/svg" xmlns:xlink="http://www.w3.org/1999/xlink" x="0px" y="0px"
	 viewBox="0 0 512 512" enable-background="new 0 0 512 512" xml:space="preserve">
<g>
	<path d="M213.3,277.3c70.7,0,128-57.3,128-128s-57.3-128-128-128s-128,57.3-128,128S142.6,277.3,213.3,277.3z M213.3,64
		c47.1,0,85.3,38.2,85.3,85.3s-38.2,85.3-85.3,85.3S128,196.5,128,149.3S166.2,64,213.3,64z"/>
	<rect x="405.3" y="149.3" width="106.7" height="42.7"/>
	<rect x="362.7" y="256" width="149.3" height="42.7"/>
	<path d="M213.3,298.7c-45.3,0-88.7,18-120.7,50c-16.3,16.3-29,35.7-37.5,56.7h47.4c5.5-9.6,12.4-18.5,20.3-26.5
		c24-24,56.6-37.5,90.5-37.5c33.9,0,66.5,13.5,90.5,37.5c24,24,37.5,56.6,37.5,90.5H384c0-45.3-18-88.7-50-120.7
		C302,316.6,258.6,298.7,213.3,298.7z"/>
	<rect x="426.7" y="362.7" width="85.3" height="42.7"/>
	<rect x="42.7" y="426.7" width="42.7" height="42.7"/>
</g>
</svg>
