<?xml version="1.0" encoding="utf-8"?>
<!-- Generator: Adobe Illustrator 25.4.1, SVG Export Plug-In . SVG Version: 6.00 Build 0)  -->
<svg version="1.1" id="Layer_1" xmlns="http://www.w3.org/2000/svg" xmlns:xlink="http://www.w3.org/1999/xlink" x="0px" y="0px"
	 viewBox="0 0 512 512" enable-background="new 0 0 512 512" xml:space="preserve">
<g>
	<path d="M256,277.3c70.7,0,128-57.3,128-128s-57.3-128-128-128s-128,57.3-128,128S185.3,277.3,256,277.3z M256,64
		c47.1,0,85.3,38.2,85.3,85.3s-38.2,85.3-85.3,85.3s-85.3-38.2-85.3-85.3S208.9,64,256,64z"/>
	<path d="M221.6,302.1c-25.5,5.3-49.5,16.3-70.1,32.2c-20.6,16-37.3,36.4-48.7,59.8c-1.8,3.7-3.4,7.4-5,11.2h47.4
		c9.2-16,21.8-29.8,36.9-40.5c16.7-11.8,36-19.5,56.3-22.3c20.3-2.8,40.9-0.7,60.3,6.1V304v0C273.4,297.5,247.1,296.9,221.6,302.1z"
		/>
	<polygon points="490.8,362.7 414.3,362.7 453.3,323.7 423.1,293.5 332.6,384 423.1,474.5 453.3,444.3 414.3,405.3 490.8,405.3 	"/>
	<path d="M85.3,469c0,0.1,0,0.2,0,0.3h0v0H128v-42.7H85.3V469z"/>
</g>
</svg>
