<svg fill="none" height="512" viewBox="0 0 24 24" width="512" xmlns="http://www.w3.org/2000/svg"><path d="m17.5 2c.9168.00007 1.8118.2802 2.5651.80291.7533.5227 1.3289 1.26303 1.6498 2.12189.321.85886.3719 1.79526.146 2.68387-.2259.8886-.7178 1.687-1.4099 2.28833.355.967.549 2.013.549 3.103-.0008 1.3149-.2896 2.6137-.8462 3.8049-.5567 1.1913-1.3675 2.2461-2.3757 3.0903-1.0081.8442-2.1889 1.4572-3.4594 1.796-1.2705.3387-2.5998.395-3.8944.1648-1.29459-.2302-2.523-.7413-3.59884-1.4973-1.07583-.756-1.97294-1.7385-2.62823-2.8785-.65528-1.14-1.05282-2.4097-1.16465-3.7198-.11182-1.3101.06479-2.6289.5174-3.8634-.48991-.42574-.88193-.95242-1.14916-1.5439-.26723-.59149-.40335-1.23378-.39901-1.88282s.14902-1.28946.42413-1.87732.67413-1.10926 1.16969-1.52841c.49555-.41916 1.07592-.72615 1.70127-.89992.62536-.17378 1.28091-.21022 1.92167-.10682s1.25158.34418 1.79054.70583c.53895.36165.99329.83561 1.33189 1.38936 1.0972-.20473 2.2228-.20473 3.32 0 .4015-.65798.9655-1.20162 1.6379-1.57867.6723-.37704 1.4303-.57482 2.2011-.57433zm0 2c-.823 0-1.575.4-2.038 1.052l-.095.144-.718 1.176-1.355-.253c-.7479-.13954-1.5135-.1571-2.267-.052l-.316.052-1.35602.255-.72-1.176c-.18398-.30135-.42971-.56031-.721-.75983-.29129-.19953-.62154-.33509-.96901-.39776-.34746-.06267-.70426-.05103-1.04691.03415-.34264.08518-.66335.24197-.94102.46006-.27767.21808-.506.4925-.66995.8052s-.25981.65658-.28126 1.009.03199.70539.15681 1.03566c.12481.33028.31817.63037.56734.88052l.131.123 1.041.904-.475 1.295c-.35167.9602-.48871 1.9857-.40149 3.0045s.39658 2.0061.90632 2.8925c.50975.8864 1.2075 1.6504 2.04419 2.2382s1.79199.9852 2.7987 1.1641c1.0068.179 2.0405.1353 3.0285-.1281s1.9063-.7401 2.6904-1.3965c.784-.6564 1.4147-1.4766 1.8477-2.4029s.6579-1.9363.6587-2.9588c0-.716-.107-1.416-.314-2.083l-.112-.33-.475-1.295 1.04-.904c.3848-.33398.6583-.77756.784-1.27132.1257-.49377.0975-1.01414-.0808-1.49145-.1783-.4773-.4981-.88873-.9167-1.17919-.4187-.29047-.916-.44609-1.4255-.44604zm-7.50002 9c0 .5304.21072 1.0391.58582 1.4142.375.3751.8837.5858 1.4142.5858.5304 0 1.0391-.2107 1.4142-.5858s.5858-.8838.5858-1.4142h2c0 1.0609-.4214 2.0783-1.1716 2.8284-.7501.7502-1.7676 1.1716-2.8284 1.1716-1.0609 0-2.0783-.4214-2.82845-1.1716-.75015-.7501-1.17157-1.7675-1.17157-2.8284z" fill="rgb(0,0,0)"/></svg>