<?xml version="1.0" encoding="utf-8"?>
<!-- Generator: Adobe Illustrator 25.4.1, SVG Export Plug-In . SVG Version: 6.00 Build 0)  -->
<svg version="1.1" id="Layer_1" xmlns="http://www.w3.org/2000/svg" xmlns:xlink="http://www.w3.org/1999/xlink" x="0px" y="0px"
	 viewBox="0 0 512 512" enable-background="new 0 0 512 512" xml:space="preserve">
<g>
	<path d="M256,106.7c-22.6,0-44.3,9-60.3,25c-16,16-25,37.7-25,60.3c0,22.6,9,44.3,25,60.3c16,16,37.7,25,60.3,25s44.3-9,60.3-25
		c16-16,25-37.7,25-60.3c0-22.6-9-44.3-25-60.3C300.3,115.7,278.6,106.7,256,106.7z M286.2,222.2c-8,8-18.9,12.5-30.2,12.5
		s-22.2-4.5-30.2-12.5s-12.5-18.9-12.5-30.2s4.5-22.2,12.5-30.2c8-8,18.9-12.5,30.2-12.5s22.2,4.5,30.2,12.5
		c8,8,12.5,18.9,12.5,30.2S294.2,214.2,286.2,222.2z"/>
	<path d="M277.3,468.3c0.7-0.1,1.4-0.1,2-0.2h-2V468.3z"/>
	<path d="M256,42.7C138.2,42.7,42.7,138.2,42.7,256c0,103.2,73.3,189.3,170.7,209.1v-43.8c-23.1-6-44.8-16.7-63.7-31.8
		c14-15.2,30.9-27.3,49.8-35.6c18.9-8.3,39.3-12.6,60-12.5c19.9,0,39.6,3.9,58,11.7c18.3,7.7,35,19,48.9,33.3
		c-19.3,16.3-42.3,28.5-67.6,35v43.8C396,445.3,469.3,359.2,469.3,256C469.3,138.2,373.8,42.7,256,42.7z M395.1,354.9
		c-17.8-17.8-39-32-62.3-41.6c-23.3-9.6-48.3-14.6-73.5-14.6c-26.1,0-52,5.3-76,15.6s-45.6,25.5-63.6,44.5v0
		c-19-25.2-30.7-55.1-33.7-86.5c-3-31.4,2.7-63,16.6-91.3c13.9-28.3,35.3-52.3,61.9-69.2C191.2,95,222,85.8,253.5,85.4
		c31.5-0.5,62.6,7.8,89.7,23.9c27.1,16.1,49.2,39.4,63.9,67.3c14.7,27.9,21.3,59.3,19.2,90.8C424.2,298.9,413.4,329.2,395.1,354.9z"
		/>
	<rect x="234.7" y="425.4" width="42.7" height="42.7"/>
</g>
</svg>
