<?xml version="1.0" encoding="utf-8"?>
<!-- Generator: Adobe Illustrator 25.4.1, SVG Export Plug-In . SVG Version: 6.00 Build 0)  -->
<svg version="1.1" id="Layer_1" xmlns="http://www.w3.org/2000/svg" xmlns:xlink="http://www.w3.org/1999/xlink" x="0px" y="0px"
	 viewBox="0 0 512 512" enable-background="new 0 0 512 512" xml:space="preserve">
<g>
	<path d="M133.5,350.6c-15.4,15.9-27.5,34.6-35.7,54.8h47.4c5.5-9.6,12.4-18.5,20.3-26.5c24-24,56.6-37.5,90.5-37.5v-42.7l-5.3,0.1
		C206.3,300.1,164.3,318.7,133.5,350.6z"/>
	<path d="M348.2,238.1c23-23.9,35.8-55.7,35.8-88.8c0-70.7-57.3-128-128-128l-4.8,0.1c-33.1,1.2-64.4,15.2-87.4,39.1
		c-23,23.9-35.8,55.7-35.8,88.8c0,70.7,57.3,128,128,128l4.8-0.1C293.9,276,325.2,262,348.2,238.1z M256,234.7
		c-47.1,0-85.3-38.2-85.3-85.3S208.9,64,256,64s85.3,38.2,85.3,85.3S303.1,234.7,256,234.7z"/>
	<path d="M466.4,349.6c-2.4-5.8-5.9-11.1-10.4-15.6c-4.5-4.5-9.7-8-15.6-10.4c-5.8-2.4-12.1-3.7-18.4-3.7c-6.3,0-12.5,1.2-18.4,3.7
		c-5.8,2.4-11.1,5.9-15.6,10.4l-3.8,3.8l-3.8-3.8h0c-9-9-21.2-14.1-33.9-14.1s-24.9,5.1-33.9,14.1c-9,9-14.1,21.2-14.1,33.9
		c0,12.7,5.1,24.9,14.1,33.9l71.6,71.7l71.7-71.7c4.5-4.5,8-9.7,10.4-15.6c2.4-5.8,3.7-12.1,3.7-18.4
		C470.1,361.7,468.9,355.5,466.4,349.6z"/>
	<path d="M85.3,469c0,0.1,0,0.2,0,0.3h0v0H128v-42.7H85.3V469z"/>
</g>
</svg>
