<?xml version="1.0" encoding="utf-8"?>
<!-- Generator: Adobe Illustrator 25.4.1, SVG Export Plug-In . SVG Version: 6.00 Build 0)  -->
<svg version="1.1" id="Layer_1" xmlns="http://www.w3.org/2000/svg" xmlns:xlink="http://www.w3.org/1999/xlink" x="0px" y="0px"
	 viewBox="0 0 512 512" enable-background="new 0 0 512 512" xml:space="preserve">
<g>
	<path d="M256,362.7c-46.1,0-88.8,11.7-123.7,31.6l31.4,31.4c26.6-12.9,58.3-20.3,92.3-20.3c60.7,0,114.1,23.8,144.3,59.6l39.3-18.6
		C402.5,396.3,334.1,362.7,256,362.7z"/>
	<path d="M256,320l4.6-0.1c27.5-1.2,53.4-12.9,72.4-32.8c19-19.9,29.6-46.3,29.6-73.8v-64c0-28.3-11.2-55.4-31.2-75.4
		c-20-20-47.1-31.2-75.4-31.2l-4.6,0.1C223.9,44,198,55.7,179,75.6c-19,19.9-29.6,46.3-29.6,73.8v64c0,28.3,11.2,55.4,31.2,75.4
		C200.6,308.8,227.7,320,256,320z M192,149.3l0.1-3.8c1-16.3,8.1-31.6,20-42.8C224,91.6,239.7,85.3,256,85.3
		c17,0,33.3,6.7,45.3,18.7c12,12,18.7,28.3,18.7,45.3v64l-0.1,3.8c-1,16.6-8.4,32.2-20.7,43.5c-12.3,11.3-28.5,17.3-45.1,16.8
		s-32.5-7.5-44.1-19.4c-11.6-12-18.1-28-18.1-44.6V149.3z"/>
	<path d="M102.7,414.7c-11.6,9.6-21.7,20.2-30.3,31.7l39.3,18.6c6.1-7.3,13.2-14,21.1-20.2L102.7,414.7z"/>
</g>
</svg>
