<?xml version="1.0" encoding="utf-8"?>
<!-- Generator: Adobe Illustrator 25.4.1, SVG Export Plug-In . SVG Version: 6.00 Build 0)  -->
<svg version="1.1" id="Layer_1" xmlns="http://www.w3.org/2000/svg" xmlns:xlink="http://www.w3.org/1999/xlink" x="0px" y="0px"
	 viewBox="0 0 512 512" enable-background="new 0 0 512 512" xml:space="preserve">
<g>
	<path d="M97.8,405.3h47.4c5.5-9.6,12.4-18.5,20.3-26.5c24-24,56.6-37.5,90.5-37.5v-42.7c-45.3,0-88.7,18-120.7,50
		C119,365,106.3,384.3,97.8,405.3z"/>
	<path d="M456.6,366.7l21.2-12.2l-21.3-36.9l-21.2,12.2c-8.4-7.9-18.6-14-30-17.3V288h-42.7v24.4c-11.2,3.3-21.5,9.3-30,17.3
		l-21.2-12.2l-21.3,36.9l21.2,12.2c-2.7,11.4-2.7,23.2,0,34.6l-21.2,12.2l21.3,36.9l21.2-12.2c8.5,8,18.8,14,30,17.3V480h42.7v-24.4
		c11.2-3.3,21.5-9.3,30-17.3l21.2,12.2l21.3-36.9l-21.2-12.2C459.3,389.9,459.3,378.1,456.6,366.7z M406.6,406.6
		c-6,6-14.1,9.4-22.6,9.4c-8.5,0-16.6-3.4-22.6-9.4c-6-6-9.4-14.1-9.4-22.6c0-8.5,3.4-16.6,9.4-22.6s14.1-9.4,22.6-9.4
		c8.5,0,16.6,3.4,22.6,9.4c6,6,9.4,14.1,9.4,22.6C416,392.5,412.6,400.6,406.6,406.6z"/>
	<path d="M384,149.3c0-70.7-57.3-128-128-128s-128,57.3-128,128s57.3,128,128,128S384,220.1,384,149.3z M256,234.7
		c-47.1,0-85.3-38.2-85.3-85.3S208.9,64,256,64s85.3,38.2,85.3,85.3S303.1,234.7,256,234.7z"/>
	<polygon points="85.3,469.3 85.3,469.3 85.3,469.3 85.3,469.3 128,469.3 128,426.7 85.3,426.7 	"/>
</g>
</svg>
