<?xml version="1.0" standalone="no"?>
<!DOCTYPE svg PUBLIC "-//W3C//DTD SVG 20010904//EN"
 "http://www.w3.org/TR/2001/REC-SVG-20010904/DTD/svg10.dtd">
<svg version="1.0" xmlns="http://www.w3.org/2000/svg"
 width="512.000000pt" height="512.000000pt" viewBox="0 0 512.000000 512.000000"
 preserveAspectRatio="xMidYMid meet">
<metadata>
Created by potrace 1.14, written by Peter Selinger 2001-2017
</metadata>
<g transform="translate(0.000000,512.000000) scale(0.100000,-0.100000)"
fill="#000000" stroke="none">
<path d="M0 4755 l0 -365 365 0 365 0 0 365 0 365 -365 0 -365 0 0 -365z"/>
<path d="M1463 4755 l0 -365 366 0 366 0 -1 357 c-1 197 -2 361 -3 366 -1 4
-164 7 -364 7 l-364 0 0 -365z"/>
<path d="M2929 5118 c-5 -11 -3 -703 2 -716 6 -16 36 -17 366 -14 l360 2 0
365 0 365 -363 0 c-200 0 -365 -1 -365 -2z"/>
<path d="M4390 4755 l0 -365 365 0 365 0 0 365 0 365 -365 0 -365 0 0 -365z"/>
<path d="M2 3291 l3 -365 1085 -1 c597 -1 1090 1 1095 2 6 2 10 132 10 366
l-1 362 -1097 1 -1097 1 2 -366z"/>
<path d="M2929 3641 c-7 -106 -2 -711 6 -712 6 -1 170 -2 366 -3 l356 -1 -1
365 -1 365 -362 1 c-327 1 -363 -1 -364 -15z"/>
<path d="M4390 3291 l0 -366 363 0 362 0 3 366 2 366 -365 0 -365 0 0 -366z"/>
<path d="M0 1829 l0 -366 1828 1 1827 1 2 345 c1 190 0 354 -2 365 -4 20 -12
20 -1830 20 l-1825 0 0 -366z"/>
<path d="M4399 2192 c-12 -2 -14 -57 -11 -366 l2 -363 365 0 365 0 -2 366 -3
365 -351 1 c-193 0 -357 -1 -365 -3z"/>
<path d="M0 365 l0 -365 2560 0 2560 0 0 365 0 365 -2560 0 -2560 0 0 -365z"/>
</g>
</svg>
