<?xml version="1.0" encoding="utf-8"?>
<!-- Generator: Adobe Illustrator 24.1.0, SVG Export Plug-In . SVG Version: 6.00 Build 0)  -->
<svg version="1.1" id="Layer_1" xmlns="http://www.w3.org/2000/svg" xmlns:xlink="http://www.w3.org/1999/xlink" x="0px" y="0px"
	 width="140px" height="63px" viewBox="0 0 140 63" style="enable-background:new 0 0 140 63;" xml:space="preserve">
<g id="a">
	<g>
		<g>
			<rect x="93.7" y="21" style="fill:#FFFFFF;" width="25.8" height="5.2"/>
			<rect x="93.7" y="10.6" style="fill:#FFFFFF;" width="15.5" height="5.2"/>
			<rect x="114.3" y="10.6" style="fill:#7B87FF;" width="5.2" height="5.2"/>
			<rect x="114.4" y="0.3" style="fill:#7400DF;" width="5.2" height="5.2"/>
			<rect x="104" y="0.3" style="fill:#00D1FF;" width="5.2" height="5.2"/>
			<rect x="93.7" y="0.3" style="fill:#1D00FF;" width="5.2" height="5.2"/>
			<rect x="93.7" y="31.3" style="fill:#FFFFFF;" width="36.2" height="5.2"/>
			<rect x="124.7" y="21" style="fill:#7B87FF;" width="5.2" height="5.2"/>
			<rect x="124.7" y="10.6" style="fill:#1D00FF;" width="5.2" height="5.2"/>
			<rect x="124.7" y="0.3" style="fill:#00D1FF;" width="5.2" height="5.2"/>
		</g>
		<g>
			<g>
				<path style="fill:#FFFFFF;" d="M68.1,1.2h2.3c0.1,0,0.2,0.1,0.2,0.2v2.2c0,0.1-0.1,0.2-0.2,0.2h-2.3c-0.1,0-0.2-0.1-0.2-0.2V1.5
					C67.9,1.3,68,1.2,68.1,1.2z"/>
				<path style="fill:#FFFFFF;" d="M64.6,1.2h2.3c0.1,0,0.2,0.1,0.2,0.2v2.2c0,0.1-0.1,0.2-0.2,0.2h-2.3c-0.1,0-0.2-0.1-0.2-0.2V1.5
					C64.4,1.3,64.5,1.2,64.6,1.2z"/>
				<path style="fill:#FFFFFF;" d="M82,14.8c0.4-0.4,0.8-0.9,1.1-1.5s0.4-1.4,0.4-2.3c0-1-0.1-1.8-0.4-2.5S82.5,7.3,82,6.9
					s-1-0.7-1.6-0.8c-0.6-0.2-1.2-0.3-1.9-0.3c-0.7,0-1.3,0.1-1.9,0.2S75.4,6.5,75,6.8c-0.5,0.4-0.8,0.8-1.1,1.5s-0.4,1.4-0.4,2.2
					v0.4c0,0.8-0.2,1.3-0.5,1.6c-0.4,0.3-0.7,0.5-1,0.5h-0.7l0,0l0,0h-0.5c-0.5,0-0.9-0.1-1.2-0.3c-0.3-0.2-0.5-0.5-0.5-0.9V6.4
					c0-0.1-0.1-0.2-0.2-0.2h-2.7c-0.1,0-0.2,0.1-0.2,0.2v4.7c0,0.7-0.1,1.2-0.2,1.4c-0.1,0.3-0.4,0.4-0.9,0.4h-1.4l0,0l0,0H57
					c-0.5,0-0.9-0.1-1.2-0.3s-0.5-0.5-0.5-0.9c0-0.1,0-0.2,0-0.3v-0.3c0-1.9-0.5-3.3-1.4-4.1c-0.9-0.9-2.3-1.3-4.2-1.3
					c-0.9,0-1.8,0.1-2.6,0.3c-0.8,0.2-1.6,0.5-2.3,0.8V6.2c0-0.1-0.1-0.2-0.2-0.2h-2.7c-0.1,0-0.2,0.1-0.2,0.2V11c0,0.3,0,0.5,0,0.8
					s0,0.4-0.1,0.6s-0.1,0.3-0.3,0.4S41,13,40.7,13H23.9l0,0l0,0h-0.5c-0.5,0-0.9-0.1-1.2-0.3c-0.3-0.2-0.5-0.5-0.5-0.9V0.5
					c0-0.1-0.1-0.2-0.2-0.2h-2.6c-0.1,0-0.2,0.1-0.2,0.2V15c0,0.9-0.2,1.6-0.7,2c-0.4,0.4-1,0.7-1.8,0.7c-0.3,0-0.6,0-0.9-0.1
					c-0.3-0.1-0.6-0.3-0.8-0.5c-0.3-0.2-0.4-0.5-0.6-0.9c-0.1-0.4-0.2-0.8-0.2-1.3c0-0.7,0.1-1.3,0.3-1.8s0.4-1,0.6-1.4
					c0-0.1,0-0.1,0-0.2c0-0.1,0-0.1-0.1-0.1l-2.4-0.8c-0.2,0-0.3,0-0.3,0.1c-0.4,0.7-0.7,1.4-0.9,2.2s-0.3,1.5-0.3,2.3
					c0,0.9,0.1,1.8,0.5,2.4s0.7,1.2,1.2,1.7c0.5,0.4,1.1,0.7,1.8,0.9c0.7,0.2,1.4,0.3,2.2,0.3c0.8,0,1.5-0.1,2.2-0.3
					c0.7-0.2,1.3-0.5,1.8-0.9s0.9-1,1.2-1.6c0.3-0.7,0.4-1.5,0.4-2.4v-0.2c0.3,0.3,0.6,0.5,1,0.6s0.8,0.1,1.3,0.1l0,0l0,0h17.9
					c0.5,0,0.9,0,1.2-0.1s0.6-0.2,0.9-0.4c0.1,0.1,0.2,0.2,0.4,0.3s0.4,0.1,0.6,0.1c0.2,0,0.5,0,0.7,0.1c0.3,0,0.5,0,0.7,0H51
					c1,0,1.9-0.1,2.5-0.3s1.1-0.6,1.4-1.1c0.3,0.6,0.7,0.9,1.1,1.1c0.5,0.2,1,0.3,1.7,0.3h5.8l0,0l0,0h2.3c0.8,0,1.5-0.1,1.9-0.2
					c0.5-0.1,0.8-0.4,1.1-0.9c0.3,0.5,0.6,0.8,1.1,0.9s0.9,0.2,1.5,0.2l0,0l0,0c0.2,0,0.4,0,0.7,0s0.5-0.1,0.8-0.1
					c0.3-0.1,0.6-0.2,0.8-0.4c0.3-0.2,0.5-0.4,0.7-0.7c0.4,0.5,1,0.9,1.7,1.1c0.7,0.2,1.4,0.3,2.2,0.3c0.7,0,1.4-0.1,2-0.3
					C81,15.4,81.6,15.2,82,14.8L82,14.8z M51.9,12.1c-0.1,0.3-0.2,0.4-0.4,0.6c-0.2,0.1-0.5,0.2-0.8,0.2c-0.4,0-0.8,0-1.4,0h-4.5
					c0-0.1,0-0.3,0-0.4c0-0.1,0-0.3,0-0.5V9.6c0.6-0.3,1.2-0.5,2-0.7c0.7-0.2,1.5-0.3,2.2-0.3c0.6,0,1.1,0.1,1.4,0.2
					c0.4,0.1,0.7,0.3,0.9,0.5s0.4,0.5,0.5,0.8s0.1,0.7,0.1,1.1C52,11.5,52,11.9,51.9,12.1L51.9,12.1z M79.8,12.6
					c-0.3,0.3-0.8,0.5-1.4,0.5s-1.1-0.2-1.4-0.5s-0.5-0.9-0.5-1.8c0-1.5,0.6-2.3,1.9-2.3s1.9,0.8,1.9,2.3
					C80.3,11.7,80.1,12.3,79.8,12.6L79.8,12.6z"/>
			</g>
			<path style="fill:#FFFFFF;" d="M22.6,25.2c-0.8,0-1.4,0.1-2,0.4c-0.6,0.2-1,0.6-1.5,1l0,0c-0.7-0.9-1.6-1.4-2.9-1.4
				c-0.7,0-1.3,0.1-1.8,0.4c-0.5,0.2-0.8,0.5-1.1,0.9l0,0v-0.8c0-0.1-0.1-0.2-0.2-0.2h-2.7c-0.1,0-0.2,0.1-0.2,0.2v10.5
				c0,0.1,0.1,0.2,0.2,0.2h2.7c0.1,0,0.2-0.1,0.2-0.2v-6.3c0-0.6,0.1-1.1,0.4-1.5c0.3-0.4,0.7-0.5,1.3-0.5s1,0.2,1.3,0.5
				c0.3,0.4,0.4,0.8,0.4,1.5v6.3c0,0.1,0.1,0.2,0.2,0.2h2.7c0.1,0,0.2-0.1,0.2-0.2v-6.3c0-0.6,0.1-1.1,0.4-1.5s0.7-0.5,1.2-0.5
				c0.6,0,1,0.2,1.3,0.5c0.3,0.4,0.4,0.8,0.4,1.5v6.3c0,0.1,0.1,0.2,0.2,0.2H26c0.1,0,0.2-0.1,0.2-0.2v-6.9c0-1.2-0.3-2.2-1-2.9
				C25,25.5,23.9,25.2,22.6,25.2L22.6,25.2z"/>
			<path style="fill:#FFFFFF;" d="M38.6,25.4h-2.7c-0.1,0-0.2,0.1-0.2,0.2v6.3c0,0.6-0.1,1.1-0.4,1.5s-0.7,0.5-1.2,0.5
				s-1-0.2-1.2-0.5c-0.3-0.4-0.4-0.8-0.4-1.4v-6.3c0-0.1-0.1-0.2-0.2-0.2h-2.7c-0.1,0-0.2,0.1-0.2,0.2v6.9c0,0.6,0.1,1.1,0.2,1.6
				s0.4,0.9,0.7,1.3c0.3,0.4,0.7,0.7,1.2,0.8c0.5,0.2,1,0.3,1.6,0.3c0.7,0,1.3-0.1,1.7-0.3s0.8-0.5,1.1-0.9l0,0v0.8
				c0,0.1,0.1,0.2,0.2,0.2h2.7c0.1,0,0.2-0.1,0.2-0.2V25.6C38.9,25.4,38.8,25.4,38.6,25.4L38.6,25.4z"/>
			<path style="fill:#FFFFFF;" d="M46.6,25.4h-1.4c-0.1,0-0.1,0-0.1-0.1v-2.9c0-0.1-0.1-0.2-0.2-0.2h-2.7c-0.1,0-0.2,0.1-0.2,0.2
				v2.9c0,0.1,0,0.1-0.1,0.1h-0.7c-0.1,0-0.2,0.1-0.2,0.2v1.9c0,0.1,0.1,0.2,0.2,0.2h0.7c0.1,0,0.1,0,0.1,0.1v5
				c0,1.2,0.3,2.2,0.8,2.8s1.4,0.9,2.7,0.9h1.2c0.1,0,0.2-0.1,0.2-0.2V34c0-0.1-0.1-0.2-0.2-0.2h-0.5c-0.4,0-0.6-0.1-0.8-0.2
				c-0.1-0.2-0.2-0.4-0.2-0.8v-4.9c0-0.1,0-0.1,0.1-0.1h1.4c0.1,0,0.2-0.1,0.2-0.2v-1.9C46.9,25.4,46.8,25.4,46.6,25.4L46.6,25.4z"
				/>
			<path style="fill:#FFFFFF;" d="M57.3,26.1c-0.4-0.3-0.9-0.6-1.5-0.7s-1.4-0.2-2.3-0.2c-0.9,0-1.7,0.1-2.4,0.3
				c-0.7,0.2-1.2,0.5-1.7,0.8c-0.1,0.1-0.1,0.2-0.1,0.3l1,1.8c0.1,0.1,0.2,0.1,0.3,0c0.3-0.2,0.6-0.4,1-0.5s0.9-0.2,1.5-0.2
				c0.9,0,1.5,0.1,1.8,0.4c0.3,0.2,0.5,0.6,0.5,1.1v0.4c0,0.1,0,0.1-0.1,0.1h-1.9c-1.4,0-2.4,0.3-3.3,0.9c-0.8,0.6-1.2,1.5-1.2,2.7
				c0,0.6,0.1,1.1,0.3,1.5s0.5,0.8,0.8,1s0.7,0.5,1.2,0.6c0.4,0.1,0.9,0.2,1.4,0.2c0.8,0,1.4-0.1,1.9-0.3s0.9-0.5,1.2-0.9l0,0v0.7
				c0,0.1,0.1,0.2,0.2,0.2h2.5c0.1,0,0.2-0.1,0.2-0.2v-7c0-0.7-0.1-1.3-0.3-1.8C58,26.8,57.7,26.4,57.3,26.1L57.3,26.1z M55.4,32.7
				c0,1-0.7,1.5-2,1.5c-1.1,0-1.6-0.4-1.6-1.2s0.7-1.2,1.9-1.2h1.5c0.1,0,0.1,0,0.1,0.1L55.4,32.7L55.4,32.7z"/>
			<path style="fill:#FFFFFF;" d="M66.7,29.5l-1.2-0.1c-0.6-0.1-1-0.2-1.2-0.3C64.1,29,64,28.8,64,28.5c0-0.3,0.1-0.5,0.3-0.7
				c0.2-0.2,0.6-0.3,1-0.3c0.6,0,1.1,0.1,1.6,0.3c0.5,0.2,0.9,0.4,1.3,0.6c0.1,0.1,0.2,0.1,0.3,0l1.3-1.6c0.1-0.1,0.1-0.2,0-0.3
				c-0.5-0.4-1.1-0.7-1.9-1s-1.6-0.4-2.5-0.4c-1.4,0-2.5,0.3-3.3,0.9s-1.2,1.5-1.2,2.6c0,1,0.3,1.8,0.9,2.3c0.6,0.5,1.5,0.9,2.7,1
				l1.2,0.1c0.6,0.1,1.1,0.2,1.3,0.3c0.2,0.2,0.3,0.4,0.3,0.6c0,0.3-0.1,0.5-0.4,0.7s-0.7,0.3-1.3,0.3c-0.6,0-1.2-0.1-1.8-0.3
				s-1.1-0.5-1.6-0.9c-0.1-0.1-0.2-0.1-0.3,0l-1.5,1.6c-0.1,0.1-0.1,0.2,0,0.3c0.5,0.4,1.2,0.8,2,1.2c0.8,0.3,1.8,0.5,3,0.5
				c1.6,0,2.8-0.3,3.6-1c0.8-0.7,1.3-1.6,1.3-2.7c0-0.9-0.3-1.7-0.8-2.3C68.9,29.9,68,29.6,66.7,29.5L66.7,29.5z"/>
			<path style="fill:#FFFFFF;" d="M72.8,25.4h2.7c0.1,0,0.2,0.1,0.2,0.2v10.5c0,0.1-0.1,0.2-0.2,0.2h-2.7c-0.1,0-0.2-0.1-0.2-0.2
				V25.6C72.6,25.5,72.7,25.4,72.8,25.4z"/>
			<path style="fill:#FFFFFF;" d="M75.5,21h-2.7c-0.1,0-0.2,0.1-0.2,0.2v2.2c0,0.1,0.1,0.2,0.2,0.2h2.7c0.1,0,0.2-0.1,0.2-0.2v-2.2
				C75.7,21.1,75.7,21,75.5,21z"/>
			<path style="fill:#FFFFFF;" d="M83.1,33.8h-0.5c-0.3,0-0.6-0.1-0.7-0.2c-0.1-0.2-0.2-0.4-0.2-0.8V21.2c0-0.1-0.1-0.2-0.2-0.2
				h-2.7c-0.1,0-0.2,0.1-0.2,0.2V33c0,1.2,0.3,2.1,0.8,2.7s1.4,0.8,2.6,0.8h1.2c0.1,0,0.2-0.1,0.2-0.2V34
				C83.4,33.8,83.3,33.8,83.1,33.8L83.1,33.8z"/>
		</g>
	</g>
	<g>
		<path style="fill:#FFFFFF;" d="M21.2,55.4c0,0-0.1,0-0.2,0h-5c-2.4,0-4-1.4-4-3.6c0-2.2,1.5-3.6,3.8-3.6c1.2,0,2.3,0.4,3.1,0.8
			v4.7h2.4V55.4z M14.4,45c0.5,0,1,0.4,1,1s-0.4,1-1,1c-0.6,0-1-0.4-1-1S13.8,45,14.4,45z M17.1,53.7v-3.5c-0.4-0.2-1-0.4-1.5-0.4
			c-1.2,0-2,0.7-2,1.9c0,1.2,0.8,1.9,2.1,1.9H17.1z M17.1,45c0.6,0,1,0.4,1,1s-0.4,1-1,1s-1-0.4-1-1S16.6,45,17.1,45z"/>
		<path style="fill:#FFFFFF;" d="M26.2,56.1c-1.1,0-2.1-0.5-2.8-1.3c-0.8,0.4-1.6,0.6-2.5,0.6h0c-0.2,0-0.2,0-0.2,0v-1.7h0.2
			c0.7,0,1.3-0.1,1.8-0.3c-0.1-0.3-0.1-0.6-0.1-0.9c0-2.1,1.5-3.6,3.6-3.6s3.5,1.5,3.5,3.6C29.7,54.6,28.3,56.1,26.2,56.1z
			 M26.2,50.4c-1.1,0-1.9,0.9-1.9,2s0.8,2,1.9,2c1.2,0,1.9-0.9,1.9-2S27.3,50.4,26.2,50.4z"/>
		<path style="fill:#FFFFFF;" d="M39.8,55.4c0,0-0.1,0-0.2,0h-8.4v-1.7H36v-1.9c0-1.3-0.5-1.7-1.9-1.7h-1.5v-1.7h1.2
			c3,0,4,0.9,4,3.3v2h2.1V55.4z"/>
		<path style="fill:#FFFFFF;" d="M49.1,55.4c0,0-0.1,0-0.2,0h-9.2c-0.2,0-0.2,0-0.2,0v-1.7h6.2c-0.5-0.6-0.7-1.1-1-2
			c-0.5-1.7-0.6-2.1-1.9-2.2c-0.6,0-1.1,0.2-1.8,0.6L40,48.9c0.9-0.7,1.8-1,2.8-1c2,0,2.7,0.9,3.3,3.1c0.3,1.1,0.6,1.9,1.2,2.5
			c0.2,0.1,0.4,0.2,0.9,0.2h0.9V55.4z M42.9,44.9c0.6,0,1,0.4,1,1c0,0.6-0.4,1-1,1c-0.6,0-1-0.4-1-1C41.9,45.3,42.4,44.9,42.9,44.9z
			"/>
		<path style="fill:#FFFFFF;" d="M52.7,53.9c-0.8,0.8-2.3,1.5-3.8,1.5h0c-0.2,0-0.2,0-0.2,0v-1.7h0.2c0.8,0,1.6-0.2,2.2-0.4v-8.1
			h1.7V53.9z"/>
		<path style="fill:#FFFFFF;" d="M55.5,45.2h1.7v10.2h-1.7V45.2z"/>
		<path style="fill:#FFFFFF;" d="M78.8,53.7v1.7c0,0-0.1,0-0.2,0c-2.2,0-3-0.5-3.5-2.4l-0.5-1.9h-1.5c-0.7,0-1.2,0.4-1.2,1
			c0,0.1,0,0.3,0.1,0.4l1.5,5c-0.6,0.4-1.4,0.7-2.4,1c-1,0.3-2,0.5-2.9,0.5c-3.1,0-5-1.7-5-4.5c0-0.7,0.1-1.4,0.3-2.1l1.5,0.3
			c-0.1,0.4-0.2,0.9-0.2,1.5c0,2,1.2,3.1,3.5,3.1c0.6,0,1.2-0.1,1.8-0.2c0.6-0.1,1.1-0.3,1.6-0.5l-1.2-4c-0.1-0.3-0.2-0.6-0.2-1
			c0-1.3,1.1-2.2,2.5-2.2h3l0.8,2.8c0.3,1,0.7,1.3,2.1,1.3H78.8z M66.6,60.3c0.6,0,1,0.4,1,1c0,0.5-0.4,1-1,1c-0.6,0-1-0.4-1-1
			C65.6,60.8,66,60.3,66.6,60.3z M69.3,60.3c0.6,0,1,0.4,1,1c0,0.5-0.4,1-1,1s-1-0.4-1-1C68.3,60.8,68.8,60.3,69.3,60.3z"/>
		<path style="fill:#FFFFFF;" d="M82.3,55.4c0,0-0.1,0-0.2,0h-3.5c-0.2,0-0.2,0-0.2,0v-1.7h3.9V55.4z"/>
		<path style="fill:#FFFFFF;" d="M85.8,55.4c0,0-0.1,0-0.2,0h-3.5c-0.2,0-0.2,0-0.2,0v-1.7h3.9V55.4z"/>
		<path style="fill:#FFFFFF;" d="M90.9,56.1c-1.1,0-2.1-0.5-2.8-1.3c-0.8,0.4-1.6,0.6-2.5,0.6h0c-0.2,0-0.2,0-0.2,0v-1.7h0.2
			c0.7,0,1.3-0.1,1.8-0.3c-0.1-0.3-0.1-0.6-0.1-0.9c0-2.1,1.5-3.6,3.6-3.6c2.1,0,3.5,1.5,3.5,3.6C94.4,54.6,92.9,56.1,90.9,56.1z
			 M90.8,50.4c-1.1,0-1.9,0.9-1.9,2s0.8,2,1.9,2c1.2,0,1.9-0.9,1.9-2S92,50.4,90.8,50.4z"/>
		<path style="fill:#FFFFFF;" d="M104.5,55.4c0,0-0.1,0-0.2,0h-8.4v-1.7h4.8v-1.9c0-1.3-0.5-1.7-1.9-1.7h-1.5v-1.7h1.2
			c3,0,4,0.9,4,3.3v2h2.1V55.4z"/>
		<path style="fill:#FFFFFF;" d="M114.3,55.4h-10v-1.7h2.9c-0.9-0.7-1.4-1.7-1.4-2.8c0-1.9,1.5-3.2,3.6-3.2c2.1,0,3.5,1.3,3.5,3.2
			c0,1.1-0.5,2-1.4,2.8h2.9V55.4z M107.9,44.4c0.5,0,1,0.4,1,1s-0.4,1-1,1c-0.6,0-1-0.4-1-1S107.3,44.4,107.9,44.4z M107.9,52.5
			c0.4,0.4,0.8,0.7,1.3,0.9c0.5-0.2,0.9-0.5,1.3-0.9s0.6-0.9,0.6-1.4c0-1.1-0.8-1.8-1.9-1.8s-1.9,0.7-1.9,1.8
			C107.4,51.6,107.6,52.1,107.9,52.5z M110.6,44.4c0.6,0,1,0.4,1,1s-0.4,1-1,1c-0.6,0-1-0.4-1-1S110.1,44.4,110.6,44.4z"/>
		<path style="fill:#FFFFFF;" d="M118,55.4c0,0-0.1,0-0.2,0h-3.5c-0.2,0-0.2,0-0.2,0v-1.7h3.9V55.4z"/>
		<path style="fill:#FFFFFF;" d="M121.5,55.4c0,0-0.1,0-0.2,0h-3.5c-0.2,0-0.2,0-0.2,0v-1.7h3.9V55.4z"/>
		<path style="fill:#FFFFFF;" d="M126.5,56.1c-1.1,0-2.1-0.5-2.8-1.3c-0.8,0.4-1.6,0.6-2.5,0.6h0c-0.2,0-0.2,0-0.2,0v-1.7h0.2
			c0.7,0,1.3-0.1,1.8-0.3c-0.1-0.3-0.1-0.6-0.1-0.9c0-2.1,1.5-3.6,3.6-3.6c2.1,0,3.5,1.5,3.5,3.6C130.1,54.6,128.6,56.1,126.5,56.1z
			 M126.5,50.4c-1.1,0-1.9,0.9-1.9,2s0.8,2,1.9,2c1.2,0,1.9-0.9,1.9-2S127.7,50.4,126.5,50.4z"/>
	</g>
</g>
</svg>
