<?xml version="1.0" encoding="utf-8"?>
<!-- Generator: Adobe Illustrator 24.1.0, SVG Export Plug-In . SVG Version: 6.00 Build 0)  -->
<svg version="1.1" id="a" xmlns="http://www.w3.org/2000/svg" xmlns:xlink="http://www.w3.org/1999/xlink" x="0px" y="0px"
	 width="200px" height="82px" viewBox="0 0 200 82" style="enable-background:new 0 0 200 82;" xml:space="preserve">
<g>
	<g>
		<rect x="133.8" y="44.6" style="fill:#000062;" width="36.9" height="7.4"/>
		<rect x="133.8" y="29.9" style="fill:#000062;" width="22.2" height="7.4"/>
		<rect x="163.3" y="29.9" style="fill:#7B87FF;" width="7.4" height="7.4"/>
		<rect x="163.3" y="15.1" style="fill:#7400DF;" width="7.4" height="7.4"/>
		<rect x="148.5" y="15.1" style="fill:#00D1FF;" width="7.4" height="7.4"/>
		<rect x="133.8" y="15.1" style="fill:#1D00FF;" width="7.4" height="7.4"/>
		<rect x="133.8" y="59.4" style="fill:#000062;" width="51.7" height="7.4"/>
		<rect x="178.1" y="44.6" style="fill:#7B87FF;" width="7.4" height="7.4"/>
		<rect x="178.1" y="29.9" style="fill:#1D00FF;" width="7.4" height="7.4"/>
		<rect x="178.1" y="15.1" style="fill:#00D1FF;" width="7.4" height="7.4"/>
	</g>
	<g>
		<g>
			<path style="fill:#000062;" d="M97.3,16.4h3.3c0.2,0,0.3,0.2,0.3,0.3v3.2c0,0.2-0.2,0.3-0.3,0.3h-3.3c-0.2,0-0.3-0.2-0.3-0.3
				v-3.2C96.9,16.5,97.1,16.4,97.3,16.4z"/>
			<path style="fill:#000062;" d="M92.3,16.4h3.2c0.2,0,0.3,0.2,0.3,0.3v3.2c0,0.2-0.2,0.3-0.3,0.3h-3.2c-0.2,0-0.3-0.2-0.3-0.3
				v-3.2C92,16.5,92.1,16.4,92.3,16.4z"/>
			<path style="fill:#000062;" d="M117.1,35.8c0.6-0.5,1.1-1.3,1.5-2.2c0.4-0.9,0.5-2,0.5-3.3c0-1.4-0.2-2.6-0.6-3.5
				c-0.4-0.9-0.9-1.7-1.6-2.2c-0.7-0.5-1.4-1-2.3-1.2c-0.9-0.2-1.8-0.4-2.7-0.4s-1.8,0.1-2.7,0.3c-0.9,0.2-1.6,0.6-2.3,1.1
				c-0.7,0.5-1.2,1.2-1.6,2.1s-0.6,1.9-0.6,3.2v0.6c0,1.1-0.3,1.9-0.7,2.3c-0.4,0.4-0.8,0.6-1.3,0.6h-0.9c0,0,0,0,0,0s0,0,0,0h-0.8
				c-0.8,0-1.4-0.2-1.7-0.5c-0.4-0.3-0.7-0.7-0.7-1.3v-7.6c0-0.2-0.1-0.3-0.3-0.3h-3.9c-0.2,0-0.3,0.1-0.3,0.3v6.7
				c0,1-0.1,1.7-0.3,2c-0.2,0.4-0.6,0.6-1.3,0.6h-2c0,0,0,0-0.1,0h0h-9c-0.8,0-1.4-0.2-1.8-0.5c-0.4-0.3-0.7-0.7-0.7-1.2
				c0-0.1,0-0.2,0-0.4v-0.4c0-2.7-0.7-4.7-2-5.9c-1.4-1.2-3.3-1.9-6-1.9c-1.3,0-2.5,0.2-3.6,0.5c-1.2,0.3-2.2,0.7-3.2,1.1v-1
				c0-0.2-0.1-0.3-0.3-0.3h-3.9c-0.2,0-0.3,0.1-0.3,0.3v6.8c0,0.4,0,0.8,0,1.1s-0.1,0.6-0.2,0.9c-0.1,0.2-0.2,0.4-0.4,0.6
				c-0.2,0.2-0.4,0.2-0.8,0.2h-24c0,0,0,0,0,0s0,0,0,0h-0.8c-0.8,0-1.3-0.2-1.7-0.5c-0.4-0.3-0.7-0.7-0.7-1.3v-16
				c0-0.2-0.1-0.3-0.3-0.3h-3.7c-0.2,0-0.3,0.1-0.3,0.3v20.7c0,1.3-0.3,2.3-0.9,2.9c-0.6,0.6-1.5,0.9-2.6,0.9
				c-0.5,0-0.9-0.1-1.3-0.2c-0.5-0.2-0.8-0.4-1.2-0.7s-0.6-0.8-0.8-1.3c-0.2-0.5-0.3-1.1-0.3-1.9c0-0.9,0.1-1.8,0.4-2.6
				c0.3-0.8,0.5-1.4,0.8-2c0-0.1,0.1-0.2,0.1-0.2c0-0.1-0.1-0.1-0.2-0.2l-3.5-1.1c-0.2-0.1-0.4,0-0.5,0.1c-0.6,1-1,2-1.3,3.1
				c-0.3,1.1-0.5,2.2-0.5,3.3c0,1.4,0.2,2.5,0.7,3.5c0.5,1,1,1.8,1.8,2.4c0.8,0.6,1.6,1.1,2.6,1.4c1,0.3,2,0.4,3.2,0.4
				c1.1,0,2.2-0.2,3.2-0.4c1-0.3,1.9-0.8,2.6-1.4c0.7-0.6,1.3-1.4,1.7-2.4c0.4-1,0.6-2.1,0.6-3.5V36c0.4,0.4,0.9,0.7,1.4,0.8
				s1.1,0.2,1.8,0.2c0,0,0,0,0,0l0,0h25.6c0.7,0,1.3,0,1.8-0.1c0.5-0.1,0.9-0.3,1.3-0.6c0.1,0.2,0.3,0.3,0.5,0.4
				c0.3,0.1,0.5,0.2,0.9,0.2c0.3,0.1,0.7,0.1,1,0.1c0.4,0,0.7,0,1,0h6.2c1.5,0,2.7-0.1,3.6-0.4c0.9-0.3,1.6-0.8,2-1.6
				c0.4,0.8,0.9,1.4,1.6,1.6c0.7,0.3,1.5,0.4,2.4,0.4h8.3h0c0,0,0,0,0.1,0h3.3c1.2,0,2.1-0.1,2.8-0.3c0.7-0.2,1.2-0.6,1.5-1.3
				c0.4,0.7,0.9,1.1,1.5,1.3c0.6,0.2,1.3,0.3,2.1,0.3l0,0c0,0,0,0,0,0c0.3,0,0.6,0,1,0c0.4,0,0.8-0.1,1.2-0.2
				c0.4-0.1,0.8-0.3,1.2-0.5c0.4-0.2,0.8-0.5,1.1-1c0.6,0.7,1.4,1.2,2.4,1.5c1,0.3,2,0.4,3.2,0.4c1,0,2-0.1,2.8-0.4
				C115.7,36.6,116.5,36.3,117.1,35.8L117.1,35.8z M74.2,32c-0.1,0.4-0.3,0.6-0.6,0.8c-0.3,0.2-0.7,0.3-1.2,0.3
				c-0.5,0-1.2,0.1-2,0.1H64c0-0.2,0-0.4,0.1-0.6c0-0.2,0-0.4,0-0.7v-3.6c0.8-0.4,1.8-0.7,2.8-1s2.1-0.5,3.2-0.5
				c0.8,0,1.5,0.1,2,0.2c0.5,0.2,1,0.4,1.3,0.7c0.3,0.3,0.5,0.7,0.7,1.1c0.1,0.5,0.2,1,0.2,1.6C74.3,31.1,74.2,31.6,74.2,32L74.2,32
				z M114,32.7c-0.4,0.5-1.1,0.7-2,0.7c-0.9,0-1.5-0.2-2-0.7c-0.5-0.5-0.7-1.3-0.7-2.6c0-2.2,0.9-3.3,2.7-3.3c1.8,0,2.7,1.1,2.7,3.3
				C114.6,31.3,114.4,32.2,114,32.7L114,32.7z"/>
		</g>
		<path style="fill:#000062;" d="M32.3,50.6c-1.1,0-2,0.2-2.8,0.5c-0.8,0.3-1.5,0.8-2.1,1.4h0c-0.9-1.3-2.3-2-4.2-2
			c-1,0-1.8,0.2-2.5,0.5c-0.7,0.3-1.2,0.8-1.5,1.2h0v-1.1c0-0.2-0.1-0.3-0.3-0.3h-3.9c-0.2,0-0.3,0.1-0.3,0.3v15
			c0,0.2,0.1,0.3,0.3,0.3h3.9c0.2,0,0.3-0.1,0.3-0.3v-9c0-0.9,0.2-1.5,0.6-2.1c0.4-0.5,1-0.8,1.8-0.8c0.8,0,1.4,0.3,1.8,0.8
			c0.4,0.5,0.6,1.2,0.6,2.1v9c0,0.2,0.1,0.3,0.3,0.3h3.9c0.2,0,0.3-0.1,0.3-0.3v-9c0-0.9,0.2-1.5,0.6-2.1c0.4-0.5,1-0.8,1.8-0.8
			c0.8,0,1.4,0.3,1.8,0.8c0.4,0.5,0.6,1.2,0.6,2.1v9c0,0.2,0.1,0.3,0.3,0.3h3.9c0.2,0,0.3-0.1,0.3-0.3v-9.8c0-1.7-0.5-3.1-1.4-4.2
			C35.6,51.1,34.1,50.6,32.3,50.6L32.3,50.6z"/>
		<path style="fill:#000062;" d="M55.2,50.9h-3.9c-0.2,0-0.3,0.1-0.3,0.3v9c0,0.9-0.2,1.6-0.6,2.1c-0.4,0.5-1,0.8-1.8,0.8
			c-0.8,0-1.4-0.3-1.8-0.8c-0.4-0.5-0.6-1.2-0.6-2v-9c0-0.2-0.1-0.3-0.3-0.3H42c-0.2,0-0.3,0.1-0.3,0.3v9.9c0,0.8,0.1,1.6,0.3,2.3
			c0.2,0.7,0.6,1.3,1,1.8c0.4,0.5,1,0.9,1.7,1.2c0.7,0.3,1.4,0.4,2.3,0.4c1,0,1.8-0.2,2.4-0.5c0.6-0.3,1.1-0.8,1.6-1.3h0v1.1
			c0,0.2,0.1,0.3,0.3,0.3h3.9c0.2,0,0.3-0.1,0.3-0.3v-15C55.5,51,55.4,50.9,55.2,50.9L55.2,50.9z"/>
		<path style="fill:#000062;" d="M66.6,50.9h-2c-0.1,0-0.2-0.1-0.2-0.2v-4.2c0-0.2-0.1-0.3-0.3-0.3h-3.9c-0.2,0-0.3,0.1-0.3,0.3v4.2
			c0,0.1-0.1,0.2-0.2,0.2h-1c-0.2,0-0.3,0.1-0.3,0.3v2.7c0,0.2,0.1,0.3,0.3,0.3h1c0.1,0,0.2,0.1,0.2,0.2v7.1c0,1.8,0.4,3.1,1.1,3.9
			c0.8,0.8,2,1.3,3.9,1.3h1.7c0.2,0,0.3-0.1,0.3-0.3v-3.2c0-0.2-0.1-0.3-0.3-0.3h-0.8c-0.5,0-0.9-0.1-1.1-0.3
			c-0.2-0.2-0.3-0.6-0.3-1.2v-6.9c0-0.1,0.1-0.2,0.2-0.2h2c0.2,0,0.3-0.1,0.3-0.3v-2.7C66.9,51,66.8,50.9,66.6,50.9L66.6,50.9z"/>
		<path style="fill:#000062;" d="M81.8,51.9c-0.5-0.5-1.3-0.8-2.1-1c-0.9-0.2-2-0.3-3.2-0.3S74,50.7,73,51c-1,0.3-1.8,0.7-2.4,1.1
			c-0.2,0.1-0.2,0.3-0.1,0.5l1.4,2.6c0.1,0.2,0.2,0.2,0.4,0.1c0.4-0.3,0.8-0.5,1.4-0.7c0.6-0.2,1.3-0.3,2.1-0.3
			c1.2,0,2.1,0.2,2.5,0.5c0.5,0.3,0.7,0.9,0.7,1.6v0.6c0,0.1-0.1,0.2-0.2,0.2h-2.8c-1.9,0-3.5,0.4-4.7,1.2c-1.2,0.8-1.8,2.1-1.8,3.8
			c0,0.8,0.2,1.6,0.4,2.2c0.3,0.6,0.7,1.1,1.1,1.5c0.5,0.4,1,0.7,1.7,0.8c0.6,0.2,1.3,0.3,2,0.3c1.1,0,2-0.2,2.7-0.5
			c0.7-0.3,1.2-0.7,1.7-1.2h0v1c0,0.2,0.1,0.3,0.3,0.3h3.6c0.2,0,0.3-0.1,0.3-0.3v-10c0-1-0.1-1.8-0.4-2.5S82.3,52.4,81.8,51.9
			L81.8,51.9z M79,61.3c0,1.4-1,2.2-2.9,2.2c-1.5,0-2.3-0.5-2.3-1.7c0-1.2,0.9-1.8,2.8-1.8h2.2c0.1,0,0.2,0.1,0.2,0.2V61.3L79,61.3z
			"/>
		<path style="fill:#000062;" d="M95.2,56.8l-1.7-0.2c-0.9-0.1-1.5-0.2-1.7-0.4c-0.3-0.2-0.4-0.5-0.4-0.8c0-0.4,0.2-0.7,0.5-0.9
			c0.3-0.2,0.8-0.4,1.5-0.4c0.8,0,1.6,0.1,2.3,0.4c0.7,0.2,1.4,0.5,1.9,0.9c0.2,0.1,0.3,0.1,0.5-0.1l1.8-2.2c0.1-0.2,0.1-0.3,0-0.5
			c-0.7-0.6-1.6-1-2.7-1.4c-1.1-0.4-2.3-0.5-3.6-0.5c-2,0-3.6,0.5-4.8,1.3C87.5,52.8,87,54,87,55.6c0,1.4,0.5,2.5,1.3,3.3
			c0.9,0.8,2.1,1.3,3.8,1.4l1.7,0.2c0.9,0.1,1.5,0.2,1.8,0.5c0.3,0.2,0.5,0.5,0.5,0.9c0,0.4-0.2,0.8-0.6,1.1c-0.4,0.3-1,0.4-1.8,0.4
			s-1.7-0.2-2.5-0.5c-0.8-0.3-1.6-0.7-2.3-1.3c-0.2-0.1-0.3-0.1-0.5,0L86.3,64c-0.2,0.2-0.2,0.3,0,0.5c0.8,0.6,1.7,1.2,2.9,1.7
			c1.2,0.5,2.6,0.7,4.2,0.7c2.2,0,3.9-0.5,5.2-1.5c1.2-1,1.8-2.3,1.8-3.9c0-1.3-0.4-2.4-1.2-3.2C98.4,57.4,97.1,56.9,95.2,56.8
			L95.2,56.8z"/>
		<path style="fill:#000062;" d="M104,50.9h3.9c0.2,0,0.3,0.2,0.3,0.3v15c0,0.2-0.2,0.3-0.3,0.3H104c-0.2,0-0.3-0.2-0.3-0.3v-15
			C103.6,51,103.8,50.9,104,50.9z"/>
		<path style="fill:#000062;" d="M107.8,44.6h-3.9c-0.2,0-0.3,0.1-0.3,0.3v3.2c0,0.2,0.1,0.3,0.3,0.3h3.9c0.2,0,0.3-0.1,0.3-0.3
			v-3.2C108.2,44.7,108,44.6,107.8,44.6z"/>
		<path style="fill:#000062;" d="M118.7,62.9H118c-0.5,0-0.8-0.1-1-0.3c-0.2-0.2-0.3-0.6-0.3-1.1V44.9c0-0.2-0.1-0.3-0.3-0.3h-3.9
			c-0.2,0-0.3,0.1-0.3,0.3v16.9c0,1.7,0.4,3,1.1,3.8c0.8,0.8,2,1.2,3.7,1.2h1.7c0.2,0,0.3-0.1,0.3-0.3v-3.2
			C119,63,118.9,62.9,118.7,62.9L118.7,62.9z"/>
	</g>
</g>
</svg>
