<?xml version="1.0" encoding="utf-8"?>
<!-- Generator: Adobe Illustrator 24.1.0, SVG Export Plug-In . SVG Version: 6.00 Build 0)  -->
<svg version="1.1" xmlns="http://www.w3.org/2000/svg" xmlns:xlink="http://www.w3.org/1999/xlink" x="0px" y="0px" width="140px"
	 viewBox="0 0 663.5 300" style="enable-background:new 0 0 663.5 300;" xml:space="preserve">
<g id="a">
	<g>
		<g>
			<rect x="443.8" y="102" style="fill:#ffffff;" width="122.4" height="24.5"/>
			<rect x="443.8" y="53" style="fill:#ffffff;" width="73.5" height="24.5"/>
			<rect x="541.7" y="53" style="fill:#7B87FF;" width="24.5" height="24.5"/>
			<rect x="541.8" y="4" style="fill:#7400DF;" width="24.5" height="24.5"/>
			<rect x="492.8" y="4" style="fill:#00D1FF;" width="24.5" height="24.5"/>
			<rect x="443.8" y="4" style="fill:#1D00FF;" width="24.5" height="24.5"/>
			<rect x="443.8" y="151" style="fill:#ffffff;" width="171.4" height="24.5"/>
			<rect x="590.7" y="102" style="fill:#7B87FF;" width="24.5" height="24.5"/>
			<rect x="590.7" y="53" style="fill:#1D00FF;" width="24.5" height="24.5"/>
			<rect x="590.7" y="4.1" style="fill:#00D1FF;" width="24.5" height="24.5"/>
		</g>
		<g>
			<g>
				<path style="fill:#ffffff;" d="M322.7,8.3h10.8c0.6,0,1.1,0.5,1.1,1.1v10.5c0,0.6-0.5,1.1-1.1,1.1h-10.8c-0.6,0-1.1-0.5-1.1-1.1
					V9.4C321.6,8.8,322.1,8.3,322.7,8.3z"/>
				<path style="fill:#ffffff;" d="M306.2,8.3h10.7c0.6,0,1.1,0.5,1.1,1.1v10.5c0,0.6-0.5,1.1-1.1,1.1h-10.7c-0.6,0-1.1-0.5-1.1-1.1
					V9.4C305.1,8.8,305.6,8.3,306.2,8.3z"/>
				<path style="fill:#ffffff;" d="M388.4,72.6c2.1-1.8,3.8-4.2,5-7.2s1.8-6.7,1.8-11c0-4.7-0.6-8.6-1.9-11.7s-3-5.6-5.2-7.4
					s-4.7-3.2-7.6-4s-5.9-1.2-9-1.2s-6,0.4-8.9,1.1s-5.3,1.9-7.5,3.6s-3.9,4-5.3,6.9s-2,6.4-2,10.6v2.1c-0.1,3.7-0.9,6.3-2.3,7.6
					s-2.8,2-4.4,2H338c0,0,0,0-0.1,0s0,0,0,0h-2.5c-2.5,0-4.5-0.5-5.8-1.6c-1.4-1-2.2-2.4-2.3-4.2V32.9c0-0.7-0.4-1.1-1.1-1.1h-12.9
					c-0.7,0-1.1,0.4-1.1,1.1v22.3c0,3.2-0.3,5.5-0.9,6.8s-2,2-4.3,2h-6.6c-0.1,0-0.1,0-0.2,0h-0.1h-30c-2.5,0-4.5-0.5-5.9-1.6
					c-1.4-1-2.2-2.4-2.4-4.1c0.1-0.4,0.1-0.8,0.1-1.2v-1.3c0-8.9-2.3-15.5-6.8-19.6s-11.1-6.2-19.9-6.2c-4.2,0-8.3,0.5-12.1,1.6
					c-3.9,1-7.4,2.3-10.7,3.7v-3.2c0-0.7-0.4-1.1-1.1-1.1h-12.9c-0.7,0-1.1,0.4-1.1,1.1v22.7c0,1.4,0,2.6-0.1,3.8s-0.2,2.1-0.5,2.9
					s-0.7,1.4-1.3,1.9s-1.4,0.7-2.5,0.7h-79.7c0,0,0,0-0.1,0s0,0-0.1,0h-2.5c-2.5,0-4.4-0.5-5.8-1.6c-1.4-1-2.2-2.4-2.3-4.2V5.1
					c0-0.7-0.4-1.1-1.1-1.1H88.9c-0.7,0-1.1,0.4-1.1,1.1v68.8c0,4.4-1,7.6-3.1,9.6c-2.1,2.1-4.9,3.1-8.6,3.1c-1.5,0-3-0.2-4.4-0.7
					c-1.5-0.5-2.8-1.2-4-2.3s-2.1-2.5-2.8-4.2c-0.7-1.7-1.1-3.8-1.1-6.3c0-3.1,0.4-6,1.3-8.5s1.8-4.8,2.8-6.8
					c0.1-0.3,0.2-0.6,0.2-0.8c0-0.3-0.2-0.4-0.6-0.6l-11.6-3.8c-0.8-0.2-1.3-0.1-1.6,0.3c-1.9,3.2-3.3,6.7-4.3,10.3
					c-1,3.7-1.5,7.3-1.5,10.9c0,4.5,0.7,8.4,2.2,11.6s3.4,5.9,5.9,7.9s5.4,3.5,8.7,4.5c3.3,1,6.8,1.4,10.5,1.4s7.3-0.5,10.6-1.4
					c3.3-1,6.2-2.5,8.6-4.5s4.3-4.6,5.7-7.8c1.4-3.2,2.1-7,2.1-11.5v-1c1.4,1.4,2.9,2.3,4.6,2.7c1.7,0.4,3.7,0.6,6,0.6
					c0,0,0,0,0.1,0l0,0h85c2.4,0,4.3-0.1,5.9-0.4c1.6-0.3,3-0.9,4.2-1.9c0.4,0.6,1,1,1.8,1.3c0.9,0.3,1.8,0.5,2.9,0.6
					c1.1,0.2,2.2,0.2,3.4,0.3c1.2,0,2.3,0.1,3.4,0.1h20.7c4.9,0,8.9-0.4,11.8-1.3c3-0.9,5.2-2.7,6.8-5.4c1.3,2.7,3.1,4.5,5.3,5.4
					c2.3,0.9,4.9,1.3,8,1.3h27.6h0.1c0.1,0,0.1,0,0.2,0h11c3.9,0,7-0.3,9.2-1c2.2-0.6,3.9-2.1,5.1-4.4c1.4,2.3,3,3.8,5,4.4
					s4.4,1,7.1,1l0,0c0,0,0,0,0.1,0c1,0,2.1,0,3.4-0.1s2.6-0.3,4-0.7c1.4-0.4,2.7-1,4-1.7c1.3-0.8,2.5-1.8,3.5-3.3
					c2.1,2.4,4.8,4.1,8,5.1s6.7,1.4,10.5,1.4c3.4,0,6.5-0.4,9.4-1.2S386.4,74.4,388.4,72.6L388.4,72.6z M246,60
					c-0.3,1.2-0.9,2.1-1.9,2.7c-0.9,0.6-2.2,0.9-3.9,1.1c-1.7,0.1-3.9,0.2-6.5,0.2h-21.3c0.1-0.6,0.1-1.3,0.2-2
					c0-0.7,0.1-1.4,0.1-2.2v-12c2.8-1.2,5.9-2.3,9.4-3.3s7-1.5,10.6-1.5c2.7,0,5,0.3,6.8,0.8s3.2,1.3,4.3,2.3c1,1,1.8,2.3,2.2,3.8
					s0.6,3.2,0.6,5.2C246.5,57.1,246.3,58.8,246,60L246,60z M378.1,62.3c-1.4,1.6-3.6,2.4-6.6,2.4s-5.1-0.8-6.6-2.4
					s-2.3-4.4-2.3-8.5c0-7.2,3-10.8,8.9-10.8s8.8,3.6,8.8,10.8C380.3,57.8,379.5,60.7,378.1,62.3L378.1,62.3z"/>
			</g>
			<path style="fill:#ffffff;" d="M107.1,121.8c-3.6,0-6.8,0.6-9.4,1.7c-2.7,1.1-4.9,2.8-6.9,4.8h-0.1c-3.1-4.4-7.7-6.5-13.9-6.5
				c-3.4,0-6.1,0.6-8.3,1.7c-2.2,1.1-3.9,2.5-5.1,4.1h-0.1v-3.7c0-0.7-0.4-1.1-1.1-1.1H49.4c-0.7,0-1.1,0.4-1.1,1.1v49.7
				c0,0.7,0.4,1.1,1.1,1.1h12.9c0.7,0,1.1-0.4,1.1-1.1v-29.8c0-2.9,0.7-5.1,2.1-6.9c1.4-1.7,3.4-2.6,6-2.6c2.7,0,4.7,0.9,6.1,2.6
				c1.3,1.7,2,4,2,6.9v29.8c0,0.7,0.4,1.1,1.1,1.1h12.9c0.7,0,1.1-0.4,1.1-1.1v-29.8c0-2.9,0.7-5.1,2.1-6.9c1.4-1.7,3.4-2.6,5.9-2.6
				c2.7,0,4.8,0.9,6.1,2.6c1.4,1.7,2,4,2,6.9v29.8c0,0.7,0.4,1.1,1.1,1.1h12.9c0.7,0,1.1-0.4,1.1-1.1V141c0-5.7-1.6-10.3-4.7-13.9
				S113.2,121.8,107.1,121.8L107.1,121.8z"/>
			<path style="fill:#ffffff;" d="M183,122.8h-12.9c-0.7,0-1.1,0.4-1.1,1.1v29.9c0,2.9-0.7,5.2-2,6.9s-3.3,2.6-5.9,2.6
				s-4.6-0.9-5.9-2.6c-1.3-1.8-2-4-2-6.8V124c0-0.7-0.4-1.1-1.1-1.1h-12.9c-0.7,0-1.1,0.4-1.1,1.1v32.7c0,2.8,0.4,5.4,1.1,7.7
				s1.9,4.4,3.3,6.1s3.3,3.1,5.5,4c2.2,1,4.7,1.4,7.6,1.4c3.3,0,6-0.6,8.1-1.6c2.1-1.1,3.8-2.5,5.2-4.3h0.1v3.7
				c0,0.7,0.4,1.1,1.1,1.1H183c0.7,0,1.1-0.4,1.1-1.1V124C184.1,123.1,183.7,122.8,183,122.8L183,122.8z"/>
			<path style="fill:#ffffff;" d="M220.9,122.8h-6.6c-0.4,0-0.6-0.2-0.6-0.6v-13.9c0-0.7-0.4-1.1-1.1-1.1h-12.9
				c-0.7,0-1.1,0.4-1.1,1.1v13.8c0,0.4-0.2,0.6-0.6,0.6h-3.2c-0.7,0-1.1,0.4-1.1,1.1v8.9c0,0.7,0.4,1.1,1.1,1.1h3.2
				c0.4,0,0.6,0.2,0.6,0.6v23.6c0,5.9,1.3,10.3,3.8,13.1s6.8,4.2,12.8,4.2h5.7c0.7,0,1.1-0.4,1.1-1.1v-10.5c0-0.7-0.4-1.1-1.1-1.1
				h-2.6c-1.7,0-2.9-0.4-3.6-1.1c-0.7-0.8-1.1-2.1-1.1-4v-23c0-0.4,0.2-0.6,0.6-0.6h6.6c0.7,0,1.1-0.4,1.1-1.1v-8.9
				C222,123.1,221.7,122.8,220.9,122.8L220.9,122.8z"/>
			<path style="fill:#ffffff;" d="M271.3,126.1c-1.8-1.5-4.2-2.7-7.1-3.4s-6.5-1.1-10.7-1.1s-8,0.5-11.2,1.4s-5.9,2.2-8.1,3.8
				c-0.6,0.4-0.7,0.9-0.3,1.5l4.8,8.5c0.4,0.6,0.8,0.6,1.4,0.2c1.2-0.9,2.8-1.7,4.7-2.4c1.9-0.6,4.2-1,6.9-1c4.1,0,6.9,0.6,8.4,1.7
				c1.5,1.1,2.2,2.9,2.2,5.4v1.9c0,0.4-0.2,0.6-0.6,0.6h-9.2c-6.4,0-11.6,1.4-15.6,4.1c-4,2.7-5.9,6.9-5.9,12.6
				c0,2.8,0.5,5.2,1.4,7.2s2.2,3.6,3.8,4.9s3.4,2.2,5.5,2.8s4.3,0.9,6.6,0.9c3.6,0,6.5-0.5,8.8-1.6c2.3-1,4.1-2.4,5.5-4.1h0.1v3.4
				c0,0.7,0.4,1.1,1.1,1.1h11.9c0.7,0,1.1-0.4,1.1-1.1v-33.2c0-3.2-0.4-6-1.2-8.4S273.1,127.8,271.3,126.1L271.3,126.1z
				 M262.2,157.4c0,4.8-3.2,7.2-9.6,7.2c-5,0-7.5-1.8-7.5-5.5c0-3.9,3.1-5.9,9.2-5.9h7.3c0.4,0,0.6,0.2,0.6,0.6V157.4L262.2,157.4z"
				/>
			<path style="fill:#ffffff;" d="M315.9,142.3l-5.7-0.6c-2.9-0.3-4.9-0.8-5.8-1.4c-0.9-0.7-1.4-1.6-1.4-2.8c0-1.3,0.5-2.3,1.6-3.1
				s2.7-1.2,4.9-1.2c2.7,0,5.3,0.4,7.7,1.2c2.4,0.8,4.5,1.8,6.3,2.9c0.6,0.4,1.1,0.3,1.5-0.2l6-7.4c0.4-0.6,0.4-1.1-0.1-1.6
				c-2.4-1.9-5.4-3.4-9-4.6c-3.6-1.2-7.6-1.8-12-1.8c-6.8,0-12,1.5-15.8,4.4s-5.6,7-5.6,12.2c0,4.7,1.5,8.4,4.3,11
				c2.9,2.6,7.1,4.3,12.6,4.8l5.8,0.6c3,0.3,5,0.8,6,1.6s1.5,1.7,1.5,2.9c0,1.4-0.7,2.6-2,3.5s-3.3,1.4-6.1,1.4s-5.5-0.5-8.3-1.5
				s-5.3-2.4-7.6-4.2c-0.6-0.4-1.1-0.4-1.5,0l-7,7.8c-0.5,0.5-0.5,1,0,1.5c2.5,2.1,5.7,4,9.6,5.6s8.6,2.4,14,2.4
				c7.4,0,13.1-1.6,17.1-4.9c4-3.3,6-7.6,6.1-12.9c0-4.4-1.3-7.9-4-10.7S322.1,142.8,315.9,142.3L315.9,142.3z"/>
			<path style="fill:#ffffff;" d="M344.9,122.8h12.9c0.6,0,1.1,0.5,1.1,1.1v49.7c0,0.6-0.5,1.1-1.1,1.1h-12.9
				c-0.6,0-1.1-0.5-1.1-1.1v-49.7C343.8,123.3,344.3,122.8,344.9,122.8z"/>
			<path style="fill:#ffffff;" d="M357.7,101.9h-12.9c-0.7,0-1.1,0.4-1.1,1.1v10.5c0,0.7,0.4,1.1,1.1,1.1h12.9
				c0.7,0,1.1-0.4,1.1-1.1v-10.5C358.8,102.3,358.4,101.9,357.7,101.9z"/>
			<path style="fill:#ffffff;" d="M393.8,162.5h-2.3c-1.6,0-2.7-0.4-3.4-1.1c-0.7-0.8-1.1-2-1.1-3.8v-54.8c0-0.7-0.4-1.1-1.1-1.1
				H373c-0.7,0-1.1,0.4-1.1,1.1v55.9c0,5.8,1.2,10,3.7,12.6s6.6,3.9,12.4,3.9h5.7c0.7,0,1.1-0.4,1.1-1.1v-10.6
				C394.9,162.9,394.6,162.5,393.8,162.5L393.8,162.5z"/>
		</g>
	</g>
	<g>
		<path style="fill:#ffffff;" d="M89.7,272.5c0,0.1-0.3,0.1-1,0.1H65.4c-11.2,0-18.7-6.4-18.7-16.6c0-10.1,7.1-16.6,17.7-16.6
			c5.5,0,10.9,1.7,14.2,3.6v21.6h10.9V272.5z M58.3,224.5c2.5,0,4.6,2.1,4.6,4.7c0,2.6-2.1,4.7-4.6,4.7c-2.7,0-4.7-2.1-4.7-4.7
			C53.5,226.6,55.6,224.5,58.3,224.5z M71,264.7v-16.3c-2-1.1-4.4-1.6-7.1-1.6c-5.5,0-9.5,3.1-9.5,9c0,5.7,3.9,8.8,9.9,8.8H71z
			 M71,224.5c2.6,0,4.7,2.1,4.7,4.7c0,2.6-2.1,4.7-4.7,4.7s-4.6-2.1-4.6-4.7C66.3,226.6,68.4,224.5,71,224.5z"/>
		<path style="fill:#ffffff;" d="M117.5,264.7v7.9c0,0.1-0.3,0.1-1,0.1h-0.1c-5,0-9.6-1.2-13.8-3.6c-4.2,2.4-8.8,3.6-13.8,3.6h-0.1
			c-0.7,0-1-0.1-1-0.1v-7.9h1c4,0,7.3-0.7,10.1-2.1v-22.4h7.7v22.4c2.6,1.4,6.3,2.1,10,2.1H117.5z M96.4,277.4
			c2.6,0,4.6,2.1,4.6,4.7c0,2.5-2.1,4.6-4.6,4.6c-2.7,0-4.7-2.1-4.7-4.6C91.6,279.4,93.7,277.4,96.4,277.4z M109.1,277.4
			c2.6,0,4.7,2,4.7,4.7c0,2.5-2.1,4.6-4.7,4.6s-4.6-2.1-4.6-4.6C104.4,279.4,106.5,277.4,109.1,277.4z"/>
		<path style="fill:#ffffff;" d="M140.9,275.9c-5.3,0-9.9-2.1-12.9-6c-3.5,1.8-7.3,2.7-11.4,2.7h-0.1c-0.7,0-1-0.1-1-0.1v-7.9h1
			c3.3,0,6.1-0.5,8.4-1.5c-0.3-1.2-0.5-2.6-0.5-4.2c0-9.8,7-16.9,16.5-16.9s16.4,7.2,16.4,16.9S150.5,275.9,140.9,275.9z
			 M140.8,249.6c-5.2,0-8.7,4-8.7,9.4s3.5,9.4,8.7,9.4c5.4,0,8.9-4,8.9-9.4S146.2,249.6,140.8,249.6z"/>
		<path style="fill:#ffffff;" d="M208,272.5c0,0.1-0.3,0.1-1,0.1h-9.9c-0.8,11.6-8.1,16.9-19.2,16.9c-3.8,0-8.1-0.6-11.6-1.9
			l1.4-7.3c2.5,1,6.6,1.8,10.5,1.8c7.5,0,10.8-3.1,11.2-9.5h-5.7c-11.8,0-18.7-6.5-18.7-15.9c0-9.6,7-16.1,17.8-16.1
			c4.7,0,9.6,1.2,14.3,3.6v20.3H208V272.5z M189.4,264.7v-15.1c-2.3-1.1-4.6-1.6-7-1.6c-5.7,0-9.7,3-9.7,8.4c0,5.3,4,8.3,9.8,8.3
			H189.4z"/>
		<path style="fill:#ffffff;" d="M249.5,264.7v7.9c0,0.1-0.3,0.1-1,0.1h-0.1c-3.8,0-7.5-0.9-11-2.7c-4.9,1.8-11.1,2.7-16.8,2.7H207
			c-0.7,0-1-0.1-1-0.1v-7.9h15.5c4.6,0,9-0.9,11.8-2.1v-2.5c-0.3-5.7-2.1-7-12-9.9l-7.9-2.1l-1.8-6.2l23.4-18.1l4,5l-18.2,13.8
			l4,1.1c11.6,3.3,15.9,6.2,16.2,16.1v3.2c1.8,1,4.7,1.7,7.5,1.7H249.5z"/>
		<path style="fill:#ffffff;" d="M292.3,272.5c0,0.1-0.3,0.1-1,0.1h-42.8c-0.7,0-1-0.1-1-0.1v-7.9h28.9c-2.3-2.6-3.3-4.9-4.6-9.3
			c-2.3-7.7-3-9.8-9-10.1c-2.7,0-5.1,0.7-8.3,2.7l-4.2-5.3c4-3.1,8.3-4.7,12.9-4.7c9.4,0.2,12.4,4.1,15.3,14.4
			c1.5,5.3,2.9,8.9,5.5,11.5c0.7,0.6,1.9,0.8,4,0.8h4.2V272.5z"/>
		<path style="fill:#ffffff;" d="M309.1,265.9c-3.9,3.9-10.7,6.8-17.7,6.8h-0.1c-0.7,0-1-0.1-1-0.1v-7.9h1c3.6,0,7.5-0.7,10.1-2.1
			v-37.4h7.7V265.9z"/>
		<path style="fill:#ffffff;" d="M322.2,225.2h7.7v47.5h-7.7V225.2z"/>
		<path style="fill:#ffffff;" d="M359.7,245.7l7.1,1.3c-0.8,2.9-1.2,5.5-1.2,7.7c0,6.6,3.9,9.9,11.7,9.9h26.3
			c5.5,0,9.9-0.8,12.2-1.9v-22.6h7.7v28.5c-4.4,2.3-11.8,4-21.1,4h-25.7c-12,0-18.9-4.3-18.9-15.7
			C357.9,253.5,358.5,249.7,359.7,245.7z M384.5,232.9c2.5,0,4.6,2.1,4.6,4.7c0,2.6-2.1,4.7-4.6,4.7c-2.7,0-4.7-2.1-4.7-4.7
			C379.7,235,381.8,232.9,384.5,232.9z M397.1,232.9c2.6,0,4.7,2.1,4.7,4.7c0,2.6-2.1,4.7-4.7,4.7c-2.6,0-4.6-2.1-4.6-4.7
			C392.5,235,394.5,232.9,397.1,232.9z"/>
		<path style="fill:#ffffff;" d="M454.7,264.7v7.9c0,0.1-0.3,0.1-1,0.1h-0.1c-5.7,0-10.9-1.4-14.6-3.5c-2.3-1.2-3.1-2.5-3.1-5.3
			v-38.6h7.7v37.4c2.7,1.4,6.4,2.1,10.1,2.1H454.7z"/>
		<path style="fill:#ffffff;" d="M471,272.5c0,0.1-0.3,0.1-1,0.1h-16.3c-0.7,0-1-0.1-1-0.1v-7.9H471V272.5z"/>
		<path style="fill:#ffffff;" d="M528.2,272.5c0,0.1-0.3,0.1-1,0.1h-57.2c-0.7,0-1-0.1-1-0.1v-7.9h11.1c-2.3-2.4-3.5-5.5-3.5-9.2
			c0-8,6.2-13,13.7-13c7.7,0,13.8,5.1,13.8,13c0,3.7-1.2,6.8-3.6,9.3H511v-8.5c0-7-1.9-12-5.6-15c-3.7-3.1-8.5-4.6-14.2-4.6
			c-2.7,0-5.3,0.3-7.9,0.7v-7.2c2.8-0.4,5.5-0.6,8.1-0.6c8.2,0,14.8,2.2,19.8,6.6c5,4.4,7.5,11.2,7.5,20.5v8.1h9.4V272.5z
			 M490.1,264.7c4.4-0.6,6.7-3.6,6.7-8.3c0-4.2-2.8-7-6.7-7c-3.8,0-6.7,2.8-6.7,7C483.4,260.9,485.8,264.1,490.1,264.7z"/>
		<path style="fill:#ffffff;" d="M571,272.5c0,0.1-0.3,0.1-1,0.1h-42.8c-0.7,0-1-0.1-1-0.1v-7.9H555c-2.3-2.6-3.3-4.9-4.5-9.3
			c-2.3-7.7-3-9.8-9-10.1c-2.7,0-5.1,0.7-8.3,2.7l-4.2-5.3c4-3.1,8.3-4.7,12.9-4.7c9.4,0.2,12.4,4.1,15.3,14.4
			c1.5,5.3,2.9,8.9,5.5,11.5c0.7,0.6,1.9,0.8,4,0.8h4.2V272.5z M545.4,277.4c2.6,0,4.7,2,4.7,4.7c0,2.7-2.1,4.7-4.7,4.7
			c-2.7,0-4.7-2.1-4.7-4.7C540.6,279.4,542.7,277.4,545.4,277.4z"/>
		<path style="fill:#ffffff;" d="M587.8,265.9c-3.9,3.9-10.7,6.8-17.7,6.8H570c-0.7,0-1-0.1-1-0.1v-7.9h1c3.6,0,7.5-0.7,10.1-2.1
			v-37.4h7.7V265.9z"/>
		<path style="fill:#ffffff;" d="M600.9,225.2h7.7v47.5h-7.7V225.2z"/>
	</g>
</g>
</svg>
