<?xml version="1.0" encoding="utf-8"?>
<!-- Generator: Adobe Illustrator 24.1.0, SVG Export Plug-In . SVG Version: 6.00 Build 0)  -->
<svg version="1.1" id="a" xmlns="http://www.w3.org/2000/svg" xmlns:xlink="http://www.w3.org/1999/xlink" x="0px" y="0px"
	 width="200" viewBox="0 0 663.5 271.7" enable-background="new 0 0 663.5 271.7" xml:space="preserve">
<g>
	<g>
		<rect x="443.8" y="147.9" fill="#E5E5EC" width="122.4" height="24.5"/>
		<rect x="443.8" y="98.9" fill="#E5E5EC" width="73.5" height="24.5"/>
		<rect x="541.7" y="98.9" fill="#7B87FF" width="24.5" height="24.5"/>
		<rect x="541.8" y="49.9" fill="#7400DF" width="24.5" height="24.5"/>
		<rect x="492.8" y="49.9" fill="#00D1FF" width="24.5" height="24.5"/>
		<rect x="443.8" y="49.9" fill="#1D00FF" width="24.5" height="24.5"/>
		<rect x="443.8" y="196.9" fill="#E5E5EC" width="171.4" height="24.5"/>
		<rect x="590.7" y="147.9" fill="#7B87FF" width="24.5" height="24.5"/>
		<rect x="590.7" y="98.9" fill="#1D00FF" width="24.5" height="24.5"/>
		<rect x="590.7" y="50" fill="#00D1FF" width="24.5" height="24.5"/>
	</g>
	<g>
		<g>
			<path fill="#E5E5EC" d="M322.7,54.2h10.8c0.6,0,1.1,0.5,1.1,1.1v10.5c0,0.6-0.5,1.1-1.1,1.1h-10.8c-0.6,0-1.1-0.5-1.1-1.1V55.3
				C321.6,54.7,322.1,54.2,322.7,54.2z"/>
			<path fill="#E5E5EC" d="M306.2,54.2h10.7c0.6,0,1.1,0.5,1.1,1.1v10.5c0,0.6-0.5,1.1-1.1,1.1h-10.7c-0.6,0-1.1-0.5-1.1-1.1V55.3
				C305.1,54.7,305.6,54.2,306.2,54.2z"/>
			<path fill="#E5E5EC" d="M388.4,118.5c2.1-1.8,3.8-4.2,5-7.2c1.2-3,1.8-6.7,1.8-11c0-4.7-0.6-8.6-1.9-11.7c-1.3-3.1-3-5.6-5.2-7.4
				s-4.7-3.2-7.6-4c-2.9-0.8-5.9-1.2-9-1.2s-6,0.4-8.9,1.1s-5.3,1.9-7.5,3.6s-3.9,4-5.3,6.9s-2,6.4-2,10.6v2.1
				c-0.1,3.7-0.9,6.3-2.3,7.6s-2.8,2-4.4,2h-3.1c0,0,0,0-0.1,0s0,0,0,0h-2.5c-2.5,0-4.5-0.5-5.8-1.6c-1.4-1-2.2-2.4-2.3-4.2V78.8
				c0-0.7-0.4-1.1-1.1-1.1h-12.9c-0.7,0-1.1,0.4-1.1,1.1v22.3c0,3.2-0.3,5.5-0.9,6.8c-0.6,1.3-2,2-4.3,2h-6.6c-0.1,0-0.1,0-0.2,0
				c0,0-0.1,0-0.1,0h-30c-2.5,0-4.5-0.5-5.9-1.6c-1.4-1-2.2-2.4-2.4-4.1c0.1-0.4,0.1-0.8,0.1-1.2v-1.3c0-8.9-2.3-15.5-6.8-19.6
				s-11.1-6.2-19.9-6.2c-4.2,0-8.3,0.5-12.1,1.6c-3.9,1-7.4,2.3-10.7,3.7v-3.2c0-0.7-0.4-1.1-1.1-1.1h-12.9c-0.7,0-1.1,0.4-1.1,1.1
				v22.7c0,1.4,0,2.6-0.1,3.8s-0.2,2.1-0.5,2.9c-0.3,0.8-0.7,1.4-1.3,1.9c-0.6,0.5-1.4,0.7-2.5,0.7h-79.7c0,0,0,0-0.1,0s0,0-0.1,0
				h-2.5c-2.5,0-4.4-0.5-5.8-1.6c-1.4-1-2.2-2.4-2.3-4.2V51c0-0.7-0.4-1.1-1.1-1.1H88.9c-0.7,0-1.1,0.4-1.1,1.1v68.8
				c0,4.4-1,7.6-3.1,9.6c-2.1,2.1-4.9,3.1-8.6,3.1c-1.5,0-3-0.2-4.4-0.7c-1.5-0.5-2.8-1.2-4-2.3s-2.1-2.5-2.8-4.2
				c-0.7-1.7-1.1-3.8-1.1-6.3c0-3.1,0.4-6,1.3-8.5s1.8-4.8,2.8-6.8c0.1-0.3,0.2-0.6,0.2-0.8c0-0.3-0.2-0.4-0.6-0.6l-11.6-3.8
				c-0.8-0.2-1.3-0.1-1.6,0.3c-1.9,3.2-3.3,6.7-4.3,10.3c-1,3.7-1.5,7.3-1.5,10.9c0,4.5,0.7,8.4,2.2,11.6s3.4,5.9,5.9,7.9
				c2.5,2,5.4,3.5,8.7,4.5c3.3,1,6.8,1.4,10.5,1.4s7.3-0.5,10.6-1.4c3.3-1,6.2-2.5,8.6-4.5c2.4-2,4.3-4.6,5.7-7.8
				c1.4-3.2,2.1-7,2.1-11.5v-1c1.4,1.4,2.9,2.3,4.6,2.7c1.7,0.4,3.7,0.6,6,0.6c0,0,0,0,0.1,0c0,0,0,0,0,0h85c2.4,0,4.3-0.1,5.9-0.4
				c1.6-0.3,3-0.9,4.2-1.9c0.4,0.6,1,1,1.8,1.3c0.9,0.3,1.8,0.5,2.9,0.6c1.1,0.2,2.2,0.2,3.4,0.3c1.2,0,2.3,0.1,3.4,0.1h20.7
				c4.9,0,8.9-0.4,11.8-1.3c3-0.9,5.2-2.7,6.8-5.4c1.3,2.7,3.1,4.5,5.3,5.4c2.3,0.9,4.9,1.3,8,1.3h27.6c0,0,0.1,0,0.1,0
				c0.1,0,0.1,0,0.2,0h11c3.9,0,7-0.3,9.2-1c2.2-0.6,3.9-2.1,5.1-4.4c1.4,2.3,3,3.8,5,4.4s4.4,1,7.1,1c0,0,0,0,0,0s0,0,0.1,0
				c1,0,2.1,0,3.4-0.1c1.3-0.1,2.6-0.3,4-0.7c1.4-0.4,2.7-1,4-1.7c1.3-0.8,2.5-1.8,3.5-3.3c2.1,2.4,4.8,4.1,8,5.1
				c3.2,1,6.7,1.4,10.5,1.4c3.4,0,6.5-0.4,9.4-1.2S386.4,120.3,388.4,118.5L388.4,118.5z M246,105.9c-0.3,1.2-0.9,2.1-1.9,2.7
				c-0.9,0.6-2.2,0.9-3.9,1.1c-1.7,0.1-3.9,0.2-6.5,0.2h-21.3c0.1-0.6,0.1-1.3,0.2-2c0-0.7,0.1-1.4,0.1-2.2v-12
				c2.8-1.2,5.9-2.3,9.4-3.3c3.5-1,7-1.5,10.6-1.5c2.7,0,5,0.3,6.8,0.8c1.8,0.5,3.2,1.3,4.3,2.3c1,1,1.8,2.3,2.2,3.8
				s0.6,3.2,0.6,5.2C246.5,103,246.3,104.7,246,105.9L246,105.9z M378.1,108.2c-1.4,1.6-3.6,2.4-6.6,2.4s-5.1-0.8-6.6-2.4
				s-2.3-4.4-2.3-8.5c0-7.2,3-10.8,8.9-10.8s8.8,3.6,8.8,10.8C380.3,103.7,379.5,106.6,378.1,108.2L378.1,108.2z"/>
		</g>
		<path fill="#E5E5EC" d="M107.1,167.6c-3.6,0-6.8,0.6-9.4,1.7c-2.7,1.1-4.9,2.8-6.9,4.8h-0.1c-3.1-4.4-7.7-6.5-13.9-6.5
			c-3.4,0-6.1,0.6-8.3,1.7c-2.2,1.1-3.9,2.5-5.1,4.1h-0.1v-3.7c0-0.7-0.4-1.1-1.1-1.1H49.4c-0.7,0-1.1,0.4-1.1,1.1v49.7
			c0,0.7,0.4,1.1,1.1,1.1h12.9c0.7,0,1.1-0.4,1.1-1.1v-29.8c0-2.9,0.7-5.1,2.1-6.9c1.4-1.7,3.4-2.6,6-2.6c2.7,0,4.7,0.9,6.1,2.6
			c1.3,1.7,2,4,2,6.9v29.8c0,0.7,0.4,1.1,1.1,1.1h12.9c0.7,0,1.1-0.4,1.1-1.1v-29.8c0-2.9,0.7-5.1,2.1-6.9c1.4-1.7,3.4-2.6,5.9-2.6
			c2.7,0,4.8,0.9,6.1,2.6c1.4,1.7,2,4,2,6.9v29.8c0,0.7,0.4,1.1,1.1,1.1h12.9c0.7,0,1.1-0.4,1.1-1.1v-32.6c0-5.7-1.6-10.3-4.7-13.9
			S113.2,167.6,107.1,167.6L107.1,167.6z"/>
		<path fill="#E5E5EC" d="M183,168.7h-12.9c-0.7,0-1.1,0.4-1.1,1.1v29.9c0,2.9-0.7,5.2-2,6.9s-3.3,2.6-5.9,2.6s-4.6-0.9-5.9-2.6
			c-1.3-1.8-2-4-2-6.8v-29.9c0-0.7-0.4-1.1-1.1-1.1h-12.9c-0.7,0-1.1,0.4-1.1,1.1v32.7c0,2.8,0.4,5.4,1.1,7.7s1.9,4.4,3.3,6.1
			s3.3,3.1,5.5,4c2.2,1,4.7,1.4,7.6,1.4c3.3,0,6-0.6,8.1-1.6c2.1-1.1,3.8-2.5,5.2-4.3h0.1v3.7c0,0.7,0.4,1.1,1.1,1.1H183
			c0.7,0,1.1-0.4,1.1-1.1v-49.7C184.1,169,183.7,168.7,183,168.7L183,168.7z"/>
		<path fill="#E5E5EC" d="M220.9,168.7h-6.6c-0.4,0-0.6-0.2-0.6-0.6v-13.9c0-0.7-0.4-1.1-1.1-1.1h-12.9c-0.7,0-1.1,0.4-1.1,1.1V168
			c0,0.4-0.2,0.6-0.6,0.6h-3.2c-0.7,0-1.1,0.4-1.1,1.1v8.9c0,0.7,0.4,1.1,1.1,1.1h3.2c0.4,0,0.6,0.2,0.6,0.6v23.6
			c0,5.9,1.3,10.3,3.8,13.1c2.5,2.8,6.8,4.2,12.8,4.2h5.7c0.7,0,1.1-0.4,1.1-1.1v-10.5c0-0.7-0.4-1.1-1.1-1.1h-2.6
			c-1.7,0-2.9-0.4-3.6-1.1c-0.7-0.8-1.1-2.1-1.1-4v-23c0-0.4,0.2-0.6,0.6-0.6h6.6c0.7,0,1.1-0.4,1.1-1.1v-8.9
			C222,169,221.7,168.7,220.9,168.7L220.9,168.7z"/>
		<path fill="#E5E5EC" d="M271.3,172c-1.8-1.5-4.2-2.7-7.1-3.4s-6.5-1.1-10.7-1.1s-8,0.5-11.2,1.4c-3.2,0.9-5.9,2.2-8.1,3.8
			c-0.6,0.4-0.7,0.9-0.3,1.5l4.8,8.5c0.4,0.6,0.8,0.6,1.4,0.2c1.2-0.9,2.8-1.7,4.7-2.4c1.9-0.6,4.2-1,6.9-1c4.1,0,6.9,0.6,8.4,1.7
			c1.5,1.1,2.2,2.9,2.2,5.4v1.9c0,0.4-0.2,0.6-0.6,0.6h-9.2c-6.4,0-11.6,1.4-15.6,4.1c-4,2.7-5.9,6.9-5.9,12.6
			c0,2.8,0.5,5.2,1.4,7.2s2.2,3.6,3.8,4.9s3.4,2.2,5.5,2.8s4.3,0.9,6.6,0.9c3.6,0,6.5-0.5,8.8-1.6c2.3-1,4.1-2.4,5.5-4.1h0.1v3.4
			c0,0.7,0.4,1.1,1.1,1.1h11.9c0.7,0,1.1-0.4,1.1-1.1v-33.2c0-3.2-0.4-6-1.2-8.4S273.1,173.6,271.3,172L271.3,172z M262.2,203.3
			c0,4.8-3.2,7.2-9.6,7.2c-5,0-7.5-1.8-7.5-5.5c0-3.9,3.1-5.9,9.2-5.9h7.3c0.4,0,0.6,0.2,0.6,0.6L262.2,203.3L262.2,203.3z"/>
		<path fill="#E5E5EC" d="M315.9,188.2l-5.7-0.6c-2.9-0.3-4.9-0.8-5.8-1.4c-0.9-0.7-1.4-1.6-1.4-2.8c0-1.3,0.5-2.3,1.6-3.1
			c1.1-0.8,2.7-1.2,4.9-1.2c2.7,0,5.3,0.4,7.7,1.2c2.4,0.8,4.5,1.8,6.3,2.9c0.6,0.4,1.1,0.3,1.5-0.2l6-7.4c0.4-0.6,0.4-1.1-0.1-1.6
			c-2.4-1.9-5.4-3.4-9-4.6c-3.6-1.2-7.6-1.8-12-1.8c-6.8,0-12,1.5-15.8,4.4s-5.6,7-5.6,12.2c0,4.7,1.5,8.4,4.3,11
			c2.9,2.6,7.1,4.3,12.6,4.8l5.8,0.6c3,0.3,5,0.8,6,1.6c1,0.8,1.5,1.7,1.5,2.9c0,1.4-0.7,2.6-2,3.5s-3.3,1.4-6.1,1.4
			s-5.5-0.5-8.3-1.5c-2.8-1-5.3-2.4-7.6-4.2c-0.6-0.4-1.1-0.4-1.5,0l-7,7.8c-0.5,0.5-0.5,1,0,1.5c2.5,2.1,5.7,4,9.6,5.6
			c3.9,1.6,8.6,2.4,14,2.4c7.4,0,13.1-1.6,17.1-4.9c4-3.3,6-7.6,6.1-12.9c0-4.4-1.3-7.9-4-10.7S322.1,188.7,315.9,188.2L315.9,188.2
			z"/>
		<path fill="#E5E5EC" d="M344.9,168.7h12.9c0.6,0,1.1,0.5,1.1,1.1v49.7c0,0.6-0.5,1.1-1.1,1.1h-12.9c-0.6,0-1.1-0.5-1.1-1.1v-49.7
			C343.8,169.1,344.3,168.7,344.9,168.7z"/>
		<path fill="#E5E5EC" d="M357.7,147.8h-12.9c-0.7,0-1.1,0.4-1.1,1.1v10.5c0,0.7,0.4,1.1,1.1,1.1h12.9c0.7,0,1.1-0.4,1.1-1.1v-10.5
			C358.8,148.1,358.4,147.8,357.7,147.8z"/>
		<path fill="#E5E5EC" d="M393.8,208.4h-2.3c-1.6,0-2.7-0.4-3.4-1.1c-0.7-0.8-1.1-2-1.1-3.8v-54.8c0-0.7-0.4-1.1-1.1-1.1h-12.9
			c-0.7,0-1.1,0.4-1.1,1.1v55.9c0,5.8,1.2,10,3.7,12.6c2.5,2.6,6.6,3.9,12.4,3.9h5.7c0.7,0,1.1-0.4,1.1-1.1v-10.6
			C394.9,208.8,394.6,208.4,393.8,208.4L393.8,208.4z"/>
	</g>
</g>
</svg>
