<?xml version="1.0" encoding="utf-8"?>
<!-- Generator: Adobe Illustrator 24.1.0, SVG Export Plug-In . SVG Version: 6.00 Build 0)  -->
<svg version="1.1" id="Layer_1" xmlns="http://www.w3.org/2000/svg" xmlns:xlink="http://www.w3.org/1999/xlink" x="0px" y="0px"
	 width="164px" height="164px" viewBox="0 0 164 164" style="enable-background:new 0 0 164 164;" xml:space="preserve">
<style type="text/css">
	.st0{fill:#0000FF;}
	.st1{fill:#8080FF;}
</style>
<g>
	<rect x="43.2" y="127.7" class="st0" width="77.6" height="30.1"/>
	<path class="st0" d="M82,6.2c-32.6,0-59,26.4-59,59c0,21.3,11.3,39.9,28.1,50.3l0,0V65.2C51.1,48.1,65,34.3,82,34.3
		s30.9,13.9,30.9,30.9v50.3l0,0c16.8-10.4,28.1-29,28.1-50.3C141,32.6,114.6,6.2,82,6.2"/>
	<path class="st1" d="M82,34.3c-17.1,0-30.9,13.9-30.9,30.9v50.3l0,0c9.1,5.5,19.5,8.7,30.9,8.7s21.8-3.2,30.9-8.7l0,0V65.2
		C112.9,48.1,99.1,34.3,82,34.3 M87.5,108H76.5V96.8h11.1V108z M87.5,86.9H76.5V53.3h11.1V86.9z"/>
</g>
</svg>
