<?xml version="1.0" encoding="utf-8"?>
<!-- Generator: Adobe Illustrator 24.1.1, SVG Export Plug-In . SVG Version: 6.00 Build 0)  -->
<svg version="1.1" id="Layer_1" xmlns="http://www.w3.org/2000/svg" xmlns:xlink="http://www.w3.org/1999/xlink" x="0px" y="0px"
	 viewBox="0 0 164 164" style="enable-background:new 0 0 164 164;" xml:space="preserve">
<style type="text/css">
	.st0{fill:#0000FF;}
	.st1{fill:#4040FF;}
	.st2{fill:#8080FF;}
</style>
<g>
	<path class="st0" d="M82,112.9L82,112.9c0.1,0,6.2,2.3,6.1,2.2l13.1,4.8l10.3-17.8l19.3-7L127.2,75l10.3-17.8l-12.8-10.7l-9.8,9.8
		c4.3,12.3,1.6,26.5-8.3,36.4c-13.6,13.7-35.8,13.7-49.4,0c-13.7-13.7-13.7-35.8,0-49.4c13.5-13.5,35.2-13.6,48.9-0.5l13.1-13.1
		l-1-5.7H97.7L82,10.6L66.3,23.8H45.8L42.2,44L26.5,57.2L36.8,75l-3.6,20.2l19.3,7L62.7,120l13.1-4.8L82,112.9z"/>
	<polygon class="st1" points="97.9,153.4 106.3,132.2 128.8,135.6 110.5,104 101.3,120 88.1,115.2 82,125.8 	"/>
	<path class="st2" d="M82,112.9c-2,0.7-17.3,6.3-19.3,7l-9.2-16l-18.2,31.6l22.5-3.4l8.3,21.2L82,125.8l6.1-10.6L82,112.9z"/>
	<path class="st2" d="M56.6,62.7l11.2-11.2l14.8,14.8l23.6-23.6c-13.7-13.1-35.4-12.9-48.9,0.5c-13.7,13.7-13.7,35.8,0,49.4
		c13.7,13.7,35.8,13.7,49.4,0c9.8-9.8,12.6-24.1,8.3-36.4L82.5,88.7L56.6,62.7z"/>
</g>
</svg>
