<?xml version="1.0" encoding="utf-8"?>
<!-- Generator: Adobe Illustrator 24.1.1, SVG Export Plug-In . SVG Version: 6.00 Build 0)  -->
<svg version="1.1" id="Layer_1" xmlns="http://www.w3.org/2000/svg" xmlns:xlink="http://www.w3.org/1999/xlink" x="0px" y="0px"
	 viewBox="0 0 164 164" style="enable-background:new 0 0 164 164;" xml:space="preserve">
<style type="text/css">
	.st0{fill:#0000FF;}
	.st1{fill:#BFBFFF;}
	.st2{fill:#FFFFFF;}
	.st3{fill:#4040FF;}
	.st4{fill:none;}
	.st5{fill:#8080FF;}
</style>
<g>
	<path class="st0" d="M144.6,31.3H19.2c-1.2,0-2.2,1-2.2,2.2c0,0,0,0,0,0v85.2c0,1.2,1,2.2,2.2,2.2c0,0,0,0,0,0H62
		c1.2,0,2.2-1,2.2-2.2l0,0v-2.5c0-0.5-0.2-0.9-0.4-1.3l-3.7-5.2l3.7-5.2c0.3-0.4,0.4-0.8,0.4-1.3V97l6.1-2c0.5-0.1,0.9-0.4,1.1-0.8
		l3.8-5.2l6.1,2c0.4,0.1,0.9,0.1,1.4,0l6.1-2l3.8,5.2c0.3,0.4,0.7,0.7,1.1,0.8l6.2,2v6.2c0,0.5,0.2,0.9,0.4,1.3l3.7,5.2l-3.7,5.2
		c-0.3,0.4-0.4,0.8-0.4,1.3v2.5c0,1.2,1,2.2,2.2,2.2c0,0,0,0,0,0h42.5c1.2,0,2.2-1,2.2-2.2c0,0,0,0,0,0V33.5
		C146.9,32.3,145.9,31.3,144.6,31.3L144.6,31.3z"/>
	<path class="st1" d="M133.6,51.5c-5,0-9-4-9-9v0c0-1.2-1-2.2-2.2-2.2l0,0H41.7c-1.2,0-2.2,1-2.2,2.2c0,4.9-4,8.9-9,9
		c-1.2,0-2.2,1-2.2,2.2v44.8c0,1.2,1,2.2,2.2,2.2c0,0,0,0,0,0c5,0,9,4,9,9l0,0c0,1.2,1,2.2,2.2,2.2l0,0h15.6c0.7,0,1.4-0.3,1.8-0.9
		l4.7-6.5c0.3-0.4,0.4-0.8,0.4-1.3V97l6.1-2c0.5-0.1,0.9-0.4,1.1-0.8l3.8-5.2l6.1,2c0.4,0.1,0.9,0.1,1.4,0l6.1-2l3.8,5.2
		c0.3,0.4,0.7,0.7,1.1,0.8l6.2,2v6.2c0,0.5,0.2,0.9,0.4,1.3l4.7,6.5c0.4,0.6,1.1,0.9,1.8,0.9h15.6c1.2,0,2.2-1,2.2-2.2c0,0,0,0,0,0
		c0-5,4-9,9-9c0,0,0,0,0,0c1.2,0,2.2-1,2.2-2.2c0,0,0,0,0,0V53.7C135.7,52.5,134.7,51.5,133.6,51.5L133.6,51.5L133.6,51.5z"/>
	<path class="st2" d="M93.2,53.7H70.8c-1.2,0-2.2-1-2.2-2.2c0-1.2,1-2.2,2.2-2.2l0,0h22.4c1.2,0,2.2,1,2.2,2.2
		C95.4,52.7,94.4,53.7,93.2,53.7z"/>
	<path class="st2" d="M115.6,80.6H48.4c-1.2,0-2.2-1-2.2-2.2s1-2.2,2.2-2.2l0,0h67.2c1.2,0,2.2,1,2.2,2.2S116.9,80.6,115.6,80.6z"/>
	<path class="st2" d="M115.6,71.7H48.4c-1.2,0-2.2-1-2.2-2.2c0-1.2,1-2.2,2.2-2.2l0,0h67.2c1.2,0,2.2,1,2.2,2.2
		C117.9,70.7,116.9,71.7,115.6,71.7z"/>
	<path class="st2" d="M102.2,62.7H61.7c-1.2,0-2.2-1-2.2-2.2c0-1.2,1-2.2,2.2-2.2h40.5c1.2,0,2.2,1,2.2,2.2
		C104.4,61.7,103.4,62.7,102.2,62.7z"/>
	<path class="st2" d="M115.6,89.6h-9c-1.2,0-2.2-1-2.2-2.2s1-2.2,2.2-2.2h9c1.2,0,2.2,1,2.2,2.2S116.9,89.6,115.6,89.6z"/>
	<path class="st2" d="M57.5,89.6h-9.1c-1.2,0-2.2-1-2.2-2.2s1-2.2,2.2-2.2l0,0h9.1c1.2,0,2.2,1,2.2,2.2S58.7,89.6,57.5,89.6z"/>
	<path class="st3" d="M123.9,137.3l-20.2-20.2c-0.4-0.4-1-0.6-1.6-0.7H102c-1.2,0-2.2,1-2.2,2.2c0,0,0,0,0,0v3.9l-6.2,2
		c-0.5,0.1-0.9,0.4-1.1,0.8l-2.8,3.8c-0.6,0.9-0.5,2.1,0.2,2.9l19.5,19.6c0.7,1.1,2,1.4,3.1,0.7c0.8-0.5,1.2-1.4,1-2.3v-9h9
		c1.2,0,2.2-1,2.2-2.2c0-0.6-0.2-1.2-0.7-1.6H123.9z"/>
	<path class="st3" d="M74.2,129.2l-2.8-3.8c-0.3-0.4-0.7-0.7-1.1-0.8l-6.1-2v-3.9c0-1.2-1-2.2-2.2-2.2l0,0h-0.2
		c-0.6,0-1.2,0.2-1.6,0.7l-20.2,20.2c-0.9,0.9-0.9,2.3,0,3.2c0.4,0.4,1,0.7,1.6,0.7h9v9c0,1.2,1,2.2,2.2,2.2c0.6,0,1.2-0.2,1.6-0.7
		L74,132.1C74.8,131.3,74.9,130.1,74.2,129.2z"/>
	<rect x="17" y="31.3" class="st4" width="130" height="121"/>
	<path class="st5" d="M108.5,108.4l-4.3-5.9v-7.3c0-1-0.6-1.8-1.6-2.1l-6.9-2.2l-4.3-5.9c-0.6-0.7-1.6-1-2.5-0.7L82,86.5l-6.9-2.3
		c-0.9-0.3-1.9,0-2.5,0.8l-4.3,5.9l-6.9,2.2c-0.9,0.3-1.5,1.1-1.6,2.1v7.3l-4.3,5.9c-0.6,0.8-0.6,1.8,0,2.6l4.3,5.9v7.3
		c0,1,0.6,1.8,1.6,2.1l6.9,2.2l4.3,5.9c0.6,0.8,1.6,1.1,2.5,0.8l6.9-2.3l6.9,2.3c0.2,0,0.5,0,0.7,0c0.7,0,1.4-0.3,1.8-0.9l4.3-5.9
		l6.9-2.2c0.9-0.3,1.5-1.1,1.6-2.1v-7.3l4.3-5.9C109.1,110.3,109.1,109.2,108.5,108.4z"/>
	<path class="st3" d="M95.4,109.7c0,7.4-6,13.4-13.4,13.4c-7.4,0-13.4-6-13.4-13.4s6-13.4,13.4-13.4l0,0
		C89.4,96.3,95.4,102.3,95.4,109.7C95.4,109.7,95.4,109.7,95.4,109.7z"/>
</g>
</svg>
