<?xml version="1.0" encoding="utf-8"?>
<!-- Generator: Adobe Illustrator 24.1.1, SVG Export Plug-In . SVG Version: 6.00 Build 0)  -->
<svg version="1.1" id="Layer_1" xmlns="http://www.w3.org/2000/svg" xmlns:xlink="http://www.w3.org/1999/xlink" x="0px" y="0px"
	 viewBox="0 0 164 164" style="enable-background:new 0 0 164 164;" xml:space="preserve">
<style type="text/css">
	.st0{fill:#4040FF;}
	.st1{fill:#BFBFFF;}
	.st2{fill:#8080FF;}
	.st3{fill:#0000FF;}
</style>
<g>
	<path class="st0" d="M126.6,132.9c0,2.1-1.7,3.8-3.8,3.8c0,0,0,0-0.1,0h-11c-3.9,0-7.1-3.2-7.1-7.1v-19c0-0.2-0.2-0.5-0.5-0.5H85.8
		v12.5c0,2.1-1.7,3.8-3.8,3.8s-3.8-1.7-3.8-3.8v-12.5H59.7c-0.2,0-0.5,0.2-0.5,0.5v19.1c0,3.9-3.2,7.1-7.1,7.1h-11
		c-2.1,0-3.8-1.7-3.8-3.8s1.7-3.8,3.8-3.8h10.5v-18.6c0-4.5,3.6-8.1,8.1-8.1c0,0,0,0,0,0h18.5V88c0-2.1,1.7-3.8,3.8-3.8
		c2.1,0,3.8,1.7,3.8,3.8v14.6h18.5c4.5,0,8.1,3.6,8.1,8.1l0,0v18.5h10.5C124.9,129.1,126.6,130.8,126.6,132.9
		C126.6,132.9,126.6,132.9,126.6,132.9z"/>
	<path class="st1" d="M96,132.9c0,7.8-6.3,14.1-14.1,14.1s-14.1-6.3-14.1-14.1c0-7.8,6.3-14.1,14.1-14.1S96,125.1,96,132.9z"/>
	<path class="st2" d="M31,118.9c-7.8,0-14.1,6.3-14.1,14.1c0,7.8,6.3,14.1,14.1,14.1s14.1-6.3,14.1-14.1
		C45.1,125.2,38.8,118.9,31,118.9z"/>
	<path class="st2" d="M133,118.9c-7.8,0-14.1,6.3-14.1,14.1c0,7.8,6.3,14.1,14.1,14.1s14.1-6.3,14.1-14.1
		C147.1,125.2,140.8,118.9,133,118.9z"/>
	<path class="st3" d="M147,65.6c0,14.6-11.8,26.4-26.4,26.3c0,0,0,0,0,0l-77.1,0.2c-14.7,0-26.6-11.9-26.6-26.6c0-0.3,0-0.6,0-0.9
		C16.6,48.7,29.1,35.6,45,35.3c1.9,0,3.8,0.1,5.7,0.4C54.7,21.8,69.4,13.8,83.3,18c6.1,1.8,11.3,5.7,14.7,11.1
		c6.7-0.1,13,3.1,16.8,8.6c15-2.5,29.3,7.6,31.8,22.7C146.9,62.1,147.1,63.8,147,65.6z"/>
</g>
</svg>
