<?xml version="1.0" encoding="utf-8"?>
<!-- Generator: Adobe Illustrator 24.1.1, SVG Export Plug-In . SVG Version: 6.00 Build 0)  -->
<svg version="1.1" id="Layer_1" xmlns="http://www.w3.org/2000/svg" xmlns:xlink="http://www.w3.org/1999/xlink" x="0px" y="0px"
	 viewBox="0 0 164 164" style="enable-background:new 0 0 164 164;" xml:space="preserve">
<style type="text/css">
	.st0{fill:#4040FF;}
	.st1{fill:#8080FF;}
	.st2{fill:#0000FF;}
	.st3{fill:none;}
	.st4{fill:#BFBFFF;}
</style>
<g>
	<path class="st0" d="M142.6,56.1c0,2.1-1.7,3.9-3.9,3.9c-2.1,0-3.9-1.7-3.9-3.9c0-7.8-3.1-15.3-8.6-20.8
		c-5.4-5.6-12.9-8.8-20.8-8.9c-2.1,0-3.9-1.7-3.9-3.9c0-2.1,1.7-3.9,3.9-3.9c9.9,0,19.4,4,26.3,11C138.7,36.6,142.6,46.2,142.6,56.1
		z"/>
	<path class="st1" d="M126,56.1c0,2.1-1.7,3.9-3.9,3.9c-2.1,0-3.9-1.7-3.9-3.9c0-7-5.6-12.8-12.7-12.8c-0.1,0-0.1,0-0.2,0
		c-2.1,0-3.9-1.7-3.9-3.9c0-2.1,1.7-3.9,3.9-3.9c11.3,0,20.6,9.1,20.6,20.4C126,55.9,126,56,126,56.1z"/>
	<path class="st1" d="M106.2,60.8l-9.4,9.5c-1.5,1.5-4,1.5-5.5,0l0,0c-1.5-1.5-1.5-4,0-5.5l9.5-9.5c1.5-1.5,4-1.5,5.5,0c0,0,0,0,0,0
		l0,0C107.7,56.8,107.8,59.2,106.2,60.8C106.3,60.7,106.2,60.8,106.2,60.8L106.2,60.8z"/>
	<path class="st2" d="M129,102.5c-9.2,9.3-21.8,14.5-34.9,14.4c-27.3-0.2-49.3-22.3-49.5-49.6C44.5,54.3,49.7,41.7,59,32.4
		c1.5-1.5,4-1.5,5.5,0c0,0,0,0,0,0L129.1,97C130.6,98.5,130.6,101,129,102.5C129.1,102.5,129.1,102.5,129,102.5L129,102.5z"/>
	<path class="st1" d="M80.6,151.4H43.1c-2.1,0-3.9-1.7-3.9-3.9c0-0.2,0-0.4,0.1-0.7l8.4-48c0.3-1.9,1.9-3.2,3.8-3.2h20.8
		c1.9,0,3.5,1.4,3.8,3.2l8.3,48c0.4,2.1-1.1,4.1-3.2,4.5C81.1,151.4,80.8,151.4,80.6,151.4z"/>
	<rect x="39.1" y="18.6" class="st3" width="103.8" height="132.8"/>
	<path class="st4" d="M76.2,99.5c0,7.9-6.3,14.3-14.2,14.3c-3.8,0-7.5-1.5-10.2-4.2c-2.7-2.7-4.1-6.3-4.1-10.1
		c0.1-7.9,6.5-14.3,14.4-14.3c7.8,0.1,14.2,6.4,14.3,14.3H76.2z"/>
</g>
</svg>
