<?xml version="1.0" encoding="utf-8"?>
<!-- Generator: Adobe Illustrator 24.1.1, SVG Export Plug-In . SVG Version: 6.00 Build 0)  -->
<svg version="1.1" id="Layer_1" xmlns="http://www.w3.org/2000/svg" xmlns:xlink="http://www.w3.org/1999/xlink" x="0px" y="0px"
	 viewBox="0 0 164 164" style="enable-background:new 0 0 164 164;" xml:space="preserve">
<style type="text/css">
	.st0{fill:#4040FF;}
	.st1{fill:#0000FF;}
	.st2{fill:#BFBFFF;}
	.st3{fill:#8080FF;}
	.st4{fill:#FFFFFF;}
</style>
<g>
	<path class="st0" d="M139.4,43.5v5.4H25.9v-5.4l12.7-17.8c0.6-0.7,1.4-1,2.3-1h83.7c0.9,0,1.7,0.4,2.2,1.1L139.4,43.5z"/>
	<path class="st1" d="M139.4,43.5v92c0,1.5-1.2,2.7-2.7,2.7c0,0,0,0,0,0H28.6c-1.5,0-2.7-1.2-2.7-2.7l0,0v-92H139.4z"/>
	<rect x="36.7" y="111.2" class="st2" width="24.3" height="5.4"/>
	<rect x="36.7" y="122" class="st2" width="16.2" height="5.4"/>
	<path class="st3" d="M101.6,43.5v5.4H63.7v-5.4l0,0v-0.6l4.1-18.2h29.6l4.1,18.3L101.6,43.5L101.6,43.5z"/>
	<path class="st2" d="M63.7,43.5v27c0,0.9,0.5,1.8,1.3,2.3c0.8,0.5,1.8,0.5,2.6,0l15-7.5l15,7.5c0.4,0.2,0.8,0.3,1.2,0.3
		c0.5,0,1-0.1,1.4-0.4c0.8-0.5,1.3-1.4,1.3-2.3V43.5H63.7z"/>
</g>
<rect x="100.8" y="59.8" class="st4" width="19.3" height="71.6"/>
<g>
	<path class="st2" d="M87.9,139.6c8.8,7.2,17.7,10.5,18.1,10.7l4.5,1.7l4.5-1.7c0.4-0.1,9.3-3.5,18.1-10.7c0.5-0.4,1.1-0.9,1.6-1.4
		H86.3C86.8,138.6,87.4,139.1,87.9,139.6"/>
	<path class="st2" d="M139.4,65.2v68.4c8.4-9.2,12.9-20,12.9-31.8V65.2H139.4z"/>
	<path class="st0" d="M118.2,104.7h-15.4V73.3c-6.4,3-13.6,4.7-21.2,4.7v8.1v15.6c0,25.6,28.9,36.4,28.9,36.4s28.9-10.8,28.9-36.4
		V86.2v-8.1c-7.6,0-14.8-1.7-21.2-4.7V104.7z M118.2,129.3h-15.4v-15.4h15.4V129.3z"/>
	<path class="st3" d="M139.4,65.2c-7.7,0-15.1-2.4-21.4-6.8l-7.5-5.3l-7.5,5.3c-6.3,4.5-13.7,6.8-21.4,6.8H68.7v36.6
		c0,13.8,6.1,26.3,17.6,36.4h48.3c1.7-1.5,3.3-3,4.7-4.6V65.2z M139.4,86.2v15.6c0,25.6-28.9,36.4-28.9,36.4s-28.9-10.8-28.9-36.4
		V86.2v-8.1c7.6,0,14.8-1.7,21.2-4.7V62.3h15.4v11.1c6.4,3,13.6,4.7,21.2,4.7V86.2z"/>
</g>
</svg>
