<?xml version="1.0" encoding="utf-8"?>
<!-- Generator: Adobe Illustrator 24.1.1, SVG Export Plug-In . SVG Version: 6.00 Build 0)  -->
<svg version="1.1" id="Layer_1" xmlns="http://www.w3.org/2000/svg" xmlns:xlink="http://www.w3.org/1999/xlink" x="0px" y="0px"
	 viewBox="0 0 164 164" style="enable-background:new 0 0 164 164;" xml:space="preserve">
<style type="text/css">
	.st0{fill:#BFBFFF;}
	.st1{fill:#4040FF;}
	.st2{fill:#0000FF;}
	.st3{fill:#FFFFFF;}
	.st4{fill:#8080FF;}
</style>
<g>
	<path class="st0" d="M107.4,37.1v89.8c0,8.5-6.9,15.4-15.5,15.5H40.4c-8.5,0-15.5-6.9-15.5-15.4c0,0,0,0,0,0V37.1
		c0-8.5,6.9-15.5,15.5-15.5c0,0,0,0,0,0H92C100.5,21.7,107.4,28.6,107.4,37.1z"/>
	<path class="st1" d="M68.1,127h-3.8c-2,0-3.5-1.6-3.5-3.5c0-2,1.6-3.5,3.5-3.5h3.8c2,0,3.5,1.6,3.5,3.5C71.6,125.4,70,127,68.1,127
		z"/>
	<path class="st2" d="M94.3,16.2H38c-9.3,0-16.9,7.5-16.9,16.8c0,0,0,0,0,0v97.9c0,9.3,7.5,16.8,16.8,16.8h56.3
		c9.3,0,16.8-7.5,16.8-16.8V33.1C111.1,23.8,103.6,16.2,94.3,16.2z M103.4,130.9c0,5-4.1,9.1-9.1,9.1l0,0H38c-5,0-9.1-4.1-9.1-9.1
		c0,0,0,0,0,0V33.1c0-5,4-9.1,9.1-9.1c0,0,0,0,0,0h9.9v6.6c-0.2,5.4,4,10,9.4,10.2H75c5.4-0.2,9.7-4.8,9.4-10.2v-6.6h9.9
		c5,0,9.1,4.1,9.1,9.1l0,0V130.9z"/>
	<rect x="85" y="70" class="st3" width="26.4" height="29.8"/>
	<g>
		<path class="st2" d="M105.3,114.1L105.3,114.1c0,0,4.2,1.5,4.1,1.5l8.9,3.2l6.9-12l13-4.7l-2.4-13.7l6.9-12l-8.6-7.2l-6.6,6.6
			c2.9,8.3,1.1,17.9-5.6,24.6c-9.2,9.2-24.2,9.2-33.4,0c-9.2-9.2-9.2-24.2,0-33.4c9.1-9.1,23.8-9.2,33-0.4l8.8-8.8l-0.7-3.9h-13.9
			l-10.6-8.9l-10.6,8.9H80.8l-2.4,13.7l-10.6,8.9l6.9,12l-2.4,13.7l13,4.7l6.9,12l8.9-3.2L105.3,114.1z"/>
		<path class="st4" d="M88.1,80.1l7.6-7.6l10,10l16-16c-9.3-8.9-23.9-8.7-33,0.4c-9.2,9.2-9.2,24.2,0,33.4c9.2,9.2,24.2,9.2,33.4,0
			c6.6-6.6,8.5-16.3,5.6-24.6l-21.9,21.9L88.1,80.1z"/>
	</g>
</g>
</svg>
