<?xml version="1.0" encoding="utf-8"?>
<!-- Generator: Adobe Illustrator 24.1.1, SVG Export Plug-In . SVG Version: 6.00 Build 0)  -->
<svg version="1.1" id="Layer_1" xmlns="http://www.w3.org/2000/svg" xmlns:xlink="http://www.w3.org/1999/xlink" x="0px" y="0px"
	 viewBox="0 0 164 164" style="enable-background:new 0 0 164 164;" xml:space="preserve">
<style type="text/css">
	.st0{fill:#BFBFFF;}
	.st1{fill:#0000FF;}
	.st2{fill:#8080FF;}
</style>
<g>
	<path class="st0" d="M157,98.1c0-19.5-15.8-35.3-35.3-35.3c-5.4,0-10.5,1.2-15.1,3.4c1.5,4.9,2.4,10,2.4,15.4
		c0,14.6-6.1,27.8-16,37c6.4,9,16.9,14.8,28.7,14.8c8,0,15.4-2.7,21.4-7.2l11.5,4.6l-3.1-13.7C155,111.6,157,105.1,157,98.1
		 M146.5,101.3c0,0.4-0.2,0.6-0.6,0.6h-6.8c-0.4,0-0.6-0.2-0.6-0.6v-6.4c0-0.4,0.2-0.6,0.6-0.6h6.8c0.4,0,0.6,0.2,0.6,0.6V101.3z
		 M135.5,101.3c0,0.4-0.2,0.6-0.6,0.6h-6.8c-0.4,0-0.6-0.2-0.6-0.6v-6.4c0-0.4,0.2-0.6,0.6-0.6h6.8c0.4,0,0.6,0.2,0.6,0.6V101.3z
		 M124.6,101.3c0,0.4-0.2,0.6-0.6,0.6h-6.8c-0.4,0-0.6-0.2-0.6-0.6v-6.4c0-0.4,0.2-0.6,0.6-0.6h6.8c0.4,0,0.6,0.2,0.6,0.6V101.3z"/>
	<path class="st1" d="M106.5,66.2C100,45.5,80.7,30.6,58,30.6c-28.1,0-51,22.8-51,51c0,9.8,2.8,19,7.6,26.8l-4.7,21.1l17.2-7.3
		c8.6,6.5,19.3,10.4,30.9,10.4c13.5,0,25.8-5.3,35-13.9c-4.1-5.8-6.6-12.9-6.6-20.5C86.4,84,94.6,71.8,106.5,66.2 M62.5,113.2
		c0,0.6-0.3,0.9-0.9,0.9H50.5c-0.6,0-0.9-0.3-0.9-0.9v-10.6c0-0.6,0.3-0.9,0.9-0.9h11.1c0.6,0,0.9,0.3,0.9,0.9V113.2z M74.1,73.1
		c-0.8,1.9-2.1,3.8-3.7,5.7L64.2,87c-0.7,0.9-1.2,1.7-1.5,2.5c-0.2,0.8-0.4,1.8-0.4,3.1v2.2c0,0.6-0.3,0.9-0.9,0.9H50.6
		c-0.6,0-0.9-0.3-0.9-0.9v-3.9c0-1.8,0.2-3.2,0.6-4.4c0.4-1.1,1.1-2.3,2-3.4l6.5-8.4c1.3-1.5,2.2-2.9,2.7-4c0.5-1.1,0.8-2.3,0.8-3.4
		c0-1.8-0.5-3.3-1.6-4.4c-1.1-1.1-2.6-1.7-4.5-1.7c-1.9,0-3.4,0.6-4.6,1.7c-1.1,1.1-1.9,2.7-2.4,4.8c-0.2,0.6-0.6,0.9-1.2,0.8
		l-10-1.5c-0.6-0.1-0.9-0.4-0.7-1.1c0.7-4.8,2.7-8.6,6.1-11.4c3.4-2.8,7.8-4.2,13.2-4.2c2.8,0,5.3,0.4,7.6,1.3
		c2.3,0.9,4.2,2,5.9,3.5c1.6,1.5,2.9,3.2,3.8,5.3c0.9,2,1.3,4.2,1.3,6.6C75.3,69.1,74.9,71.2,74.1,73.1"/>
	<path class="st2" d="M108.9,81.5c0-5.4-0.8-10.5-2.4-15.4C94.6,71.8,86.4,84,86.4,98.1c0,7.7,2.4,14.7,6.6,20.5
		C102.8,109.3,108.9,96.1,108.9,81.5"/>
</g>
</svg>
