<?xml version="1.0" encoding="utf-8"?>
<!-- Generator: Adobe Illustrator 24.1.1, SVG Export Plug-In . SVG Version: 6.00 Build 0)  -->
<svg version="1.1" id="Layer_1" xmlns="http://www.w3.org/2000/svg" xmlns:xlink="http://www.w3.org/1999/xlink" x="0px" y="0px"
	 viewBox="0 0 60 60" style="enable-background:new 0 0 60 60;" xml:space="preserve">
<style type="text/css">
	.st0{fill:#0000FF;}
	.st1{fill:#BFBFFF;}
	.st2{fill:#8080FF;}
	.st3{fill:#376CFB;}
	.st4{fill:#4040FF;}
</style>
<g>
	<path class="st0" d="M47.4,8.5h-6.5c-0.4,0-0.8,0.4-0.8,0.8c0,0,0,0,0,0v4H19.9v-4c0-0.4-0.4-0.8-0.8-0.8c0,0,0,0,0,0h-6.5
		c-0.4,0-0.8,0.4-0.8,0.8c0,0,0,0,0,0v45.3c0,0.4,0.4,0.8,0.8,0.8c0,0,0,0,0,0h34.8c0.4,0,0.8-0.4,0.8-0.8c0,0,0,0,0,0V9.3
		C48.2,8.8,47.9,8.5,47.4,8.5L47.4,8.5L47.4,8.5z"/>
	<path class="st1" d="M44.9,45.7V12.5c0-0.4-0.4-0.8-0.8-0.8l0,0h-3.2c-0.4,0-0.8,0.4-0.8,0.8c0,0,0,0,0,0v0.8H19.9v-0.8
		c0-0.4-0.4-0.8-0.8-0.8c0,0,0,0,0,0h-3.2c-0.4,0-0.8,0.4-0.8,0.8c0,0,0,0,0,0v39.6c0,0.4,0.4,0.8,0.8,0.8c0,0,0,0,0,0h21.8
		L44.9,45.7z"/>
	<path class="st2" d="M40.9,21.4H29.6c-0.4,0-0.8-0.4-0.8-0.8c0-0.4,0.4-0.8,0.8-0.8h11.3c0.4,0,0.8,0.4,0.8,0.8
		C41.7,21.1,41.3,21.4,40.9,21.4z"/>
	<path class="st2" d="M34.4,24.7h-4.9c-0.4,0-0.8-0.4-0.8-0.8c0-0.4,0.4-0.8,0.8-0.8h4.9c0.4,0,0.8,0.4,0.8,0.8
		C35.2,24.3,34.9,24.7,34.4,24.7z"/>
	<path class="st2" d="M40.9,31.1H29.6c-0.4,0-0.8-0.4-0.8-0.8c0-0.4,0.4-0.8,0.8-0.8h11.3c0.4,0,0.8,0.4,0.8,0.8
		C41.7,30.7,41.3,31.1,40.9,31.1z"/>
	<path class="st2" d="M34.4,34.4h-4.9c-0.4,0-0.8-0.4-0.8-0.8c0-0.4,0.4-0.8,0.8-0.8h4.9c0.4,0,0.8,0.4,0.8,0.8
		C35.2,34,34.9,34.4,34.4,34.4z"/>
	<path class="st2" d="M40.9,8.5h-3.5L36,5.7c-0.1-0.3-0.4-0.4-0.7-0.4h-9.7c-0.3,0-0.6,0.2-0.7,0.4l-1.4,2.8h-4.3
		c-0.4,0-0.8,0.4-0.8,0.8c0,0,0,0,0,0v4.9c0,0.4,0.4,0.8,0.8,0.8h21.8c0.4,0,0.8-0.4,0.8-0.8c0,0,0,0,0,0V9.3
		C41.7,8.8,41.3,8.5,40.9,8.5L40.9,8.5z"/>
	<path class="st2" d="M40.9,40.8H29.6c-0.4,0-0.8-0.4-0.8-0.8c0-0.4,0.4-0.8,0.8-0.8c0,0,0,0,0,0h11.3c0.4,0,0.8,0.4,0.8,0.8
		C41.7,40.5,41.3,40.8,40.9,40.8z"/>
	<path class="st2" d="M34.4,44.1h-4.9c-0.4,0-0.8-0.4-0.8-0.8c0-0.4,0.4-0.8,0.8-0.8h4.9c0.4,0,0.8,0.4,0.8,0.8
		C35.2,43.7,34.9,44.1,34.4,44.1C34.4,44.1,34.4,44.1,34.4,44.1z"/>
	<path class="st2" d="M19.1,18.2h6.5c0.4,0,0.8,0.4,0.8,0.8v6.5c0,0.4-0.4,0.8-0.8,0.8h-6.5c-0.4,0-0.8-0.4-0.8-0.8V19
		C18.2,18.5,18.6,18.2,19.1,18.2z"/>
	<path class="st3" d="M23.1,23.8c-0.2,0-0.4-0.1-0.6-0.2L20.9,22c-0.3-0.4-0.2-0.9,0.2-1.1c0.3-0.2,0.6-0.2,0.9,0l1,1l3.5-3.5
		c0.4-0.3,0.9-0.2,1.1,0.2c0.2,0.3,0.2,0.6,0,0.9l-4,4C23.5,23.8,23.3,23.8,23.1,23.8L23.1,23.8z"/>
	<path class="st2" d="M19.1,27.9h6.5c0.4,0,0.8,0.4,0.8,0.8v6.5c0,0.4-0.4,0.8-0.8,0.8l0,0h-6.5c-0.4,0-0.8-0.4-0.8-0.8l0,0v-6.5
		C18.2,28.3,18.6,27.9,19.1,27.9z"/>
	<path class="st2" d="M19.1,37.6h6.5c0.4,0,0.8,0.4,0.8,0.8l0,0v6.5c0,0.4-0.4,0.8-0.8,0.8l0,0h-6.5c-0.4,0-0.8-0.4-0.8-0.8l0,0
		v-6.5C18.2,38,18.6,37.6,19.1,37.6C19.1,37.6,19.1,37.6,19.1,37.6z"/>
	<path class="st4" d="M37.6,53v-7.3h7.3L37.6,53z"/>
</g>
</svg>
