<?xml version="1.0" encoding="utf-8"?>
<!-- Generator: Adobe Illustrator 24.1.1, SVG Export Plug-In . SVG Version: 6.00 Build 0)  -->
<svg version="1.1" id="Layer_1" xmlns="http://www.w3.org/2000/svg" xmlns:xlink="http://www.w3.org/1999/xlink" x="0px" y="0px"
	 viewBox="0 0 164 164" style="enable-background:new 0 0 164 164;" xml:space="preserve">
<style type="text/css">
	.st0{fill:#4040FF;}
	.st1{fill:#BFBFFF;}
	.st2{fill:#8080FF;}
	.st3{fill:#0000FF;}
	.st4{fill:#FFFFFF;}
</style>
<g>
	<path class="st0" d="M142,46.8l-39.6-7.9c-2-0.4-4,1-4.3,3c0,0.2-0.1,0.4-0.1,0.7v86.6c0,1.8,1.3,3.3,3,3.6l39.5,7.8
		c2,0.4,3.9-0.9,4.3-2.9c0-0.2,0.1-0.5,0.1-0.7V50.3C144.9,48.6,143.7,47.1,142,46.8z"/>
	<path class="st1" d="M66,47.4v92.9c-3.8,0.7-3.6,0.7-3.7,0.7l0,0c-0.2,0-40.3-8.2-40.3-8.2c-1.8-0.3-3-1.9-3-3.7V42.5
		c0-2,1.6-3.7,3.7-3.7c0.2,0,0.5,0,0.7,0.1l39.3,7.8L66,47.4z"/>
	<path class="st2" d="M102.1,132.9L66,140.2c-3.8,0.7-3.6,0.7-3.7,0.7l0,0V46.8h0.5l37.8-7.8c0.5-0.1,1-0.1,1.5,0
		c0,96.3,0,94.1,0,94.1L102.1,132.9z"/>
	<path class="st3" d="M89.6,50.3c0,6.1-4,16.1-12.3,30.3c-5.9,10.3-11.8,18.9-11.8,19.1c-1.2,1.7-3.5,2.1-5.1,0.9
		c-0.4-0.3-0.7-0.6-0.9-0.9c-0.2-0.4-6.1-8.8-12-19c-8.2-14.3-12.3-24.2-12.3-30.3c0-15.1,12.2-27.3,27.3-27.3s27.3,12.2,27.3,27.3
		L89.6,50.3z"/>
	<path class="st4" d="M73.9,50.3c0,6.4-5.2,11.6-11.6,11.6c-6.4,0-11.6-5.2-11.6-11.6c0-6.4,5.2-11.6,11.6-11.6c0,0,0,0,0,0
		C68.7,38.7,73.9,43.9,73.9,50.3z"/>
</g>
</svg>
