<?xml version="1.0" encoding="utf-8"?>
<!-- Generator: Adobe Illustrator 24.1.1, SVG Export Plug-In . SVG Version: 6.00 Build 0)  -->
<svg version="1.1" id="Layer_1" xmlns="http://www.w3.org/2000/svg" xmlns:xlink="http://www.w3.org/1999/xlink" x="0px" y="0px"
	 viewBox="0 0 164 164" style="enable-background:new 0 0 164 164;" xml:space="preserve">
<style type="text/css">
	.st0{fill:#BFBFFF;}
	.st1{fill:#0000FF;}
	.st2{fill:#8080FF;}
</style>
<g>
	<path class="st0" d="M90.3,94.5c-3.9-2.7-9-3.5-13.7-1.6c-7.5,3-11.1,11.5-8.1,18.9c3,7.5,11.5,11.1,18.9,8.1
		c4.7-1.9,7.9-6,8.8-10.6l14.3-7.6c-0.7-4.3-2.3-8.2-4.7-11.7L90.3,94.5z M82,112.9c-3.6,0-6.4-2.9-6.4-6.4c0-3.6,2.9-6.4,6.4-6.4
		c3.6,0,6.4,2.9,6.4,6.4C88.4,110,85.6,112.9,82,112.9"/>
	<path class="st1" d="M82,41.7c-35.8,0-64.8,29-64.8,64.8c0,5.5,0.7,10.8,1.9,15.8h38.5c-3-4.5-4.7-10-4.7-15.8c0-16,13-29,29-29
		c9.9,0,18.7,5,23.9,12.6l25.8-7.3l2.6,6.4l-23.7,12.6c0.3,1.5,0.4,3.1,0.4,4.7c0,5.8-1.7,11.3-4.7,15.8h38.5
		c1.3-5.1,1.9-10.4,1.9-15.8C146.8,70.7,117.8,41.7,82,41.7 M44.1,109.5H26.5v-6h17.6V109.5z M53.1,81.8L40.6,69.4l4.2-4.2
		l12.5,12.5L53.1,81.8z M85,68.6h-6V51h6V68.6z M110.9,81.8l-4.2-4.2l12.5-12.5l4.2,4.2L110.9,81.8z M137.5,109.5h-17.6v-6h17.6
		V109.5z"/>
	<path class="st2" d="M131.7,82.8l-25.8,7.3c2.4,3.4,4,7.4,4.7,11.7l23.7-12.6L131.7,82.8z"/>
</g>
</svg>
