<?xml version="1.0" encoding="utf-8"?>
<!-- Generator: Adobe Illustrator 24.1.1, SVG Export Plug-In . SVG Version: 6.00 Build 0)  -->
<svg version="1.1" id="Layer_1" xmlns="http://www.w3.org/2000/svg" xmlns:xlink="http://www.w3.org/1999/xlink" x="0px" y="0px"
	 viewBox="0 0 164 164" style="enable-background:new 0 0 164 164;" xml:space="preserve">
<style type="text/css">
	.st0{fill:#8080FF;}
	.st1{fill:#BFBFFF;}
	.st2{fill:#0000FF;}
	.st3{fill:#4040FF;}
</style>
<path class="st0" d="M48,99.4c-17.9,0-32.5-14.5-32.5-32.5S30,34.4,48,34.4S80.4,49,80.4,66.9l0,0C80.4,84.8,65.9,99.4,48,99.4z"/>
<path class="st1" d="M58.4,81.2H37.6c-2.2,0-3.9-1.7-3.9-3.9c0-2.2,1.7-3.9,3.9-3.9l0,0h20.8c2.2,0,3.9,1.7,3.9,3.9
	C62.3,79.5,60.5,81.2,58.4,81.2z"/>
<path class="st1" d="M59.7,60.4c-0.1,2.2-1.9,3.8-4,3.8c-2.2-0.1-3.8-1.9-3.8-4c0.1-2.2,1.9-3.8,4-3.8c0,0,0,0,0,0
	c2.1,0,3.9,1.7,3.9,3.8c0,0,0,0,0,0.1L59.7,60.4z"/>
<path class="st1" d="M44.1,60.4c-0.1,2.2-1.9,3.8-4,3.8c-2.2-0.1-3.8-1.9-3.8-4c0.1-2.1,1.8-3.8,3.9-3.8c2.1,0,3.9,1.7,3.9,3.8
	c0,0,0,0,0,0.1V60.4z"/>
<path class="st2" d="M97.3,149c-17.9,0-32.5-14.5-32.5-32.5s14.5-32.5,32.5-32.5s32.5,14.5,32.5,32.5
	C129.8,134.4,115.2,149,97.3,149z"/>
<path class="st1" d="M109,110c0,2.2-1.7,3.9-3.9,3.9s-3.9-1.7-3.9-3.9c0-2.2,1.7-3.9,3.9-3.9h0C107.3,106.1,109,107.8,109,110
	C109,110,109,110,109,110z"/>
<path class="st1" d="M93.4,110c0,2.2-1.7,3.9-3.9,3.9c-2.2,0-3.9-1.7-3.9-3.9c0-2.2,1.7-3.9,3.9-3.9h0
	C91.7,106.1,93.4,107.8,93.4,110C93.4,110,93.4,110,93.4,110z"/>
<path class="st1" d="M97.3,133.4c-4.9,0-9.7-2-13.1-5.5c-1.6-1.4-1.8-3.9-0.4-5.5c1.4-1.6,3.9-1.8,5.5-0.4c0.1,0.1,0.3,0.2,0.4,0.4
	c4.2,4.2,11.1,4.2,15.3,0c1.4-1.6,3.9-1.8,5.5-0.4c1.6,1.4,1.8,3.9,0.4,5.5c-0.1,0.1-0.2,0.3-0.4,0.4
	C107,131.5,102.3,133.4,97.3,133.4z"/>
<path class="st3" d="M116,80.9c-17.9,0-32.5-14.5-32.5-32.5S98.1,16,116,16s32.5,14.5,32.5,32.5C148.5,66.4,133.9,80.9,116,80.9z"/>
<path class="st1" d="M127.7,42c0,2.2-1.7,3.9-3.9,3.9c-2.2,0-3.9-1.7-3.9-3.9s1.7-3.9,3.9-3.9l0,0C126,38.1,127.7,39.8,127.7,42
	C127.7,41.9,127.7,42,127.7,42z"/>
<path class="st1" d="M112.1,42c0,2.2-1.7,3.9-3.9,3.9c-2.2,0-3.9-1.7-3.9-3.9s1.7-3.9,3.9-3.9l0,0C110.4,38.1,112.1,39.8,112.1,42
	C112.1,41.9,112.1,42,112.1,42z"/>
<path class="st1" d="M126.4,64.5c-1.1,0-2.1-0.4-2.9-1.1c-4.2-4.2-11.1-4.2-15.3,0c-1.6,1.4-4.1,1.2-5.5-0.4c-1.3-1.5-1.3-3.7,0-5.1
	c7.3-7.2,19-7.2,26.3,0c1.5,1.5,1.5,4,0,5.5c0,0,0,0,0,0c-0.8,0.8-1.8,1.2-2.9,1.1H126.4z"/>
</svg>
