<?xml version="1.0" encoding="utf-8"?>
<!-- Generator: Adobe Illustrator 24.1.1, SVG Export Plug-In . SVG Version: 6.00 Build 0)  -->
<svg version="1.1" id="Layer_1" xmlns="http://www.w3.org/2000/svg" xmlns:xlink="http://www.w3.org/1999/xlink" x="0px" y="0px"
	 viewBox="0 0 164 164" style="enable-background:new 0 0 164 164;" xml:space="preserve">
<style type="text/css">
	.st0{fill:#8080FF;}
	.st1{fill:#0000FF;}
	.st2{fill:#4040FF;}
	.st3{fill:#FFFFFF;}
	.st4{fill:#BFBFFF;}
	.st5{filter:url(#Adobe_OpacityMaskFilter);}
	.st6{clip-path:url(#SVGID_1_);}
	.st7{enable-background:new    ;}
	.st8{clip-path:url(#SVGID_4_);fill:url(#SVGID_5_);}
	.st9{clip-path:url(#SVGID_1_);mask:url(#SVGID_3_);}
	.st10{clip-path:url(#SVGID_6_);}
	.st11{clip-path:url(#SVGID_7_);fill:url(#SVGID_8_);}
</style>
<path class="st0" d="M141.3,33.8h-118c-2.4,0-4.4,1.9-4.4,4.3c0,0,0,0,0,0.1v84.7c0,2.4,1.9,4.4,4.3,4.4c0,0,0,0,0.1,0h118
	c2.4,0,4.4-1.9,4.4-4.3c0,0,0,0,0-0.1V38.2C145.8,35.8,143.8,33.8,141.3,33.8C141.4,33.8,141.4,33.8,141.3,33.8z"/>
<path class="st1" d="M145.5,124.5c-0.7,1.7-2.3,2.8-4.1,2.8h-118c-1.8,0-3.5-1.1-4.1-2.8c-0.7-1.7-0.2-3.7,1.2-4.9l59.1-51.8
	c1.7-1.5,4.2-1.5,5.8,0l58.8,51.8C145.6,120.8,146.1,122.7,145.5,124.5L145.5,124.5z"/>
<path class="st2" d="M144.2,41.5L85.4,93.3c-1.7,1.5-4.2,1.5-5.8,0L20.5,41.5c-1.3-1.2-1.8-3.1-1.2-4.8c0.6-1.7,2.3-2.9,4.1-2.8h118
	c2.4,0,4.4,2,4.4,4.4c0,1.3-0.5,2.4-1.5,3.3V41.5z"/>
<rect x="103.9" y="42.4" class="st3" width="20.9" height="77.6"/>
<g>
	<path class="st4" d="M89.9,128.8c9.5,7.8,19.2,11.4,19.6,11.6l4.9,1.8l4.9-1.8c0.4-0.2,10.1-3.8,19.6-11.6c0.6-0.5,1.2-1,1.7-1.5
		H88.2C88.8,127.8,89.3,128.3,89.9,128.8"/>
	<path class="st4" d="M145.7,48.2v74.1c9.1-9.9,13.9-21.7,13.9-34.5V48.2H145.7z"/>
	<path class="st2" d="M122.7,91h-16.7V57c-7,3.3-14.8,5.1-23,5.1V71v17c0,27.7,31.3,39.4,31.3,39.4s31.3-11.7,31.3-39.4V71v-8.8
		c-8.2,0-16-1.8-23-5.1V91z M122.7,117.7h-16.7V101h16.7V117.7z"/>
	<path class="st0" d="M145.7,48.2c-8.4,0-16.4-2.6-23.2-7.4l-8.1-5.8l-8.1,5.8c-6.8,4.9-14.8,7.4-23.2,7.4H69.2v39.7
		c0,15,6.6,28.6,19.1,39.4h52.4c1.8-1.6,3.5-3.2,5.1-4.9V48.2z M145.7,71v17c0,27.7-31.3,39.4-31.3,39.4s-31.3-11.7-31.3-39.4V71
		v-8.8c8.2,0,16-1.8,23-5.1V45h16.7v12c7,3.3,14.8,5.1,23,5.1V71z"/>
	<g>
		<defs>
			<path id="SVGID_12_" d="M140.6,127.3h5.1v-5C144.2,124.1,142.4,125.7,140.6,127.3"/>
		</defs>
		<clipPath id="SVGID_1_">
			<use xlink:href="#SVGID_12_"  style="overflow:visible;"/>
		</clipPath>
		<defs>
			<filter id="Adobe_OpacityMaskFilter" filterUnits="userSpaceOnUse" x="133.1" y="114.8" width="20.2" height="20.2">
				<feColorMatrix  type="matrix" values="1 0 0 0 0  0 1 0 0 0  0 0 1 0 0  0 0 0 1 0"/>
			</filter>
		</defs>
		<mask maskUnits="userSpaceOnUse" x="133.1" y="114.8" width="20.2" height="20.2" id="SVGID_3_">
			<g class="st5">
				<rect x="138.1" y="119.8" class="st6" width="10.1" height="10.1"/>
				<g class="st7">
					<g>
						<defs>
							
								<rect id="SVGID_2_" x="139.6" y="121.3" transform="matrix(0.707 -0.7072 0.7072 0.707 -46.3439 137.8319)" width="7.1" height="7.1"/>
						</defs>
						<clipPath id="SVGID_4_" class="st6">
							<use xlink:href="#SVGID_2_"  style="overflow:visible;"/>
						</clipPath>
						
							<linearGradient id="SVGID_5_" gradientUnits="userSpaceOnUse" x1="-939.0216" y1="650.2356" x2="-937.5065" y2="650.2356" gradientTransform="matrix(-88.3553 -88.3553 -88.3553 88.3553 -25370.0723 -140291.8594)">
							<stop  offset="0" style="stop-color:#1D1D1B"/>
							<stop  offset="1" style="stop-color:#FFFFFF"/>
						</linearGradient>
						<polygon class="st8" points="143.2,134.9 133.1,124.8 143.2,114.8 153.2,124.8 						"/>
					</g>
				</g>
			</g>
		</mask>
		<g class="st9">
			<g>
				<defs>
					<rect id="SVGID_18_" x="138.1" y="119.8" width="10.1" height="10.1"/>
				</defs>
				<clipPath id="SVGID_6_">
					<use xlink:href="#SVGID_18_"  style="overflow:visible;"/>
				</clipPath>
				<g class="st10">
					<defs>
						
							<rect id="SVGID_20_" x="139.6" y="121.3" transform="matrix(0.7071 -0.7071 0.7071 0.7071 -46.347 137.8012)" width="7.1" height="7.1"/>
					</defs>
					<clipPath id="SVGID_7_">
						<use xlink:href="#SVGID_20_"  style="overflow:visible;"/>
					</clipPath>
					
						<linearGradient id="SVGID_8_" gradientUnits="userSpaceOnUse" x1="-939.0216" y1="650.2357" x2="-937.5065" y2="650.2357" gradientTransform="matrix(-88.3553 -88.3553 -88.3553 88.3553 -25370.0723 -140291.8594)">
						<stop  offset="0" style="stop-color:#0000FF"/>
						<stop  offset="1" style="stop-color:#0000FF"/>
					</linearGradient>
					<polygon class="st11" points="143.2,134.9 133.1,124.8 143.2,114.8 153.2,124.8 					"/>
				</g>
			</g>
		</g>
	</g>
</g>
</svg>
