<?xml version="1.0" encoding="utf-8"?>
<!-- Generator: Adobe Illustrator 24.1.1, SVG Export Plug-In . SVG Version: 6.00 Build 0)  -->
<svg version="1.1" id="Layer_1" xmlns="http://www.w3.org/2000/svg" xmlns:xlink="http://www.w3.org/1999/xlink" x="0px" y="0px"
	 viewBox="0 0 164 164" style="enable-background:new 0 0 164 164;" xml:space="preserve">
<style type="text/css">
	.st0{fill:#4040FF;}
	.st1{fill:#0000FF;}
	.st2{fill:#8080FF;}
	.st3{fill:#FFFFFF;}
	.st4{fill:#BFBFFF;}
</style>
<g>
	<path class="st0" d="M82,137.9c-1.2,0-2.2-1-2.2-2.2l0,0v-14.9c0-1.2,1-2.2,2.2-2.2s2.2,1,2.2,2.2v14.9
		C84.2,136.9,83.2,137.9,82,137.9C82,137.9,82,137.9,82,137.9z"/>
	<path class="st0" d="M114.3,54c-0.6,0-1.1-0.2-1.5-0.6L86.9,27.6c-0.7-1-0.4-2.3,0.6-3c0.7-0.5,1.7-0.5,2.4,0l25.9,25.7
		c0.8,0.8,0.8,2.2,0,3C115.4,53.8,114.8,54,114.3,54L114.3,54z"/>
	<path class="st0" d="M49.7,54c-1.2,0-2.2-0.9-2.2-2.1c0-0.6,0.2-1.2,0.7-1.6L74,24.5c0.4-0.4,0.9-0.7,1.5-0.7
		c1.2,0,2.2,0.9,2.2,2.1c0,0,0,0,0,0.1c0,0.6-0.2,1.1-0.7,1.5L51.3,53.3C50.9,53.7,50.3,53.9,49.7,54L49.7,54z"/>
	<path class="st1" d="M36.8,60.5h90.3c1.2,0,2.2,1,2.2,2.2l0,0v58.1c0,1.2-1,2.2-2.2,2.2c0,0,0,0,0,0H36.8c-1.2,0-2.2-1-2.2-2.2l0,0
		V62.6C34.7,61.5,35.7,60.5,36.8,60.5z"/>
	<path class="st2" d="M90.6,26.1c0,4.8-3.9,8.6-8.6,8.6c-4.8,0-8.6-3.9-8.6-8.6s3.9-8.6,8.6-8.6C86.8,17.5,90.6,21.3,90.6,26.1
		L90.6,26.1z"/>
	<path class="st2" d="M30.4,49.7h103.2c1.2,0,2.2,1,2.2,2.2l0,0v10.8c0,1.2-1,2.2-2.2,2.2l0,0H30.4c-1.2,0-2.2-1-2.2-2.2V51.9
		C28.2,50.7,29.2,49.7,30.4,49.7z"/>
	<path class="st2" d="M56.2,110.1c-1.2,0-2.2-1-2.2-2.2l0,0V84.2c0-1.2,1-2.2,2.2-2.2c1.2,0,2.2,1,2.2,2.2l0,0v23.7
		c0,1.2-1,2.2-2.2,2.2l0,0L56.2,110.1z"/>
	<path class="st2" d="M64.8,110.1c-1.2,0-2.2-1-2.2-2.2l0,0V90.6c0-1.2,1-2.2,2.2-2.2c1.2,0,2.2,1,2.2,2.2v17.2c0,1.2-1,2.2-2.2,2.2
		l0,0L64.8,110.1z"/>
	<path class="st2" d="M73.4,110.1c-1.2,0-2.2-1-2.2-2.2l0,0V97.2c0-1.2,1-2.2,2.2-2.2c1.2,0,2.2,1,2.2,2.2v10.8
		C75.5,109.1,74.6,110.1,73.4,110.1C73.4,110.1,73.4,110.1,73.4,110.1z"/>
	<path class="st3" d="M89.6,79.8h10.7c0.6,0,1.1,0.5,1.1,1.1V83c0,0.6-0.5,1.1-1.1,1.1H89.6c-0.6,0-1.1-0.5-1.1-1.1V81
		C88.5,80.3,88.9,79.8,89.6,79.8z"/>
	<path class="st3" d="M106.8,79.8h10.7c0.6,0,1.1,0.5,1.1,1.1V83c0,0.6-0.5,1.1-1.1,1.1h-10.7c-0.6,0-1.1-0.5-1.1-1.1V81
		C105.7,80.3,106.1,79.8,106.8,79.8z"/>
	<path class="st3" d="M89.6,90.6h10.7c0.6,0,1.1,0.5,1.1,1.1v2.1c0,0.6-0.5,1.1-1.1,1.1H89.6c-0.6,0-1.1-0.5-1.1-1.1v-2.1
		C88.5,91.1,88.9,90.6,89.6,90.6z"/>
	<path class="st3" d="M106.8,90.6h10.7c0.6,0,1.1,0.5,1.1,1.1v2.1c0,0.6-0.5,1.1-1.1,1.1h-10.7c-0.6,0-1.1-0.5-1.1-1.1v-2.1
		C105.7,91.1,106.1,90.6,106.8,90.6z"/>
	<path class="st3" d="M89.6,101.4h10.7c0.6,0,1.1,0.5,1.1,1.1v2.1c0,0.6-0.5,1.1-1.1,1.1H89.6c-0.6,0-1.1-0.5-1.1-1.1v-2.1
		C88.5,101.8,88.9,101.4,89.6,101.4z"/>
	<path class="st3" d="M106.8,101.4h10.7c0.6,0,1.1,0.5,1.1,1.1v2.1c0,0.6-0.5,1.1-1.1,1.1h-10.7c-0.6,0-1.1-0.5-1.1-1.1v-2.1
		C105.7,101.8,106.1,101.4,106.8,101.4z"/>
	<path class="st4" d="M79.8,110.1H47.6c-1.2,0-2.2-1-2.2-2.2l0,0V75.5c0-1.2,1-2.2,2.2-2.2c1.2,0,2.2,1,2.2,2.2v30.1h30.1
		c1.2,0,2.2,1,2.2,2.1s-1,2.2-2.1,2.2c0,0,0,0,0,0V110.1z"/>
	<path class="st2" d="M88.5,139.9c0.1,3.6-2.8,6.5-6.3,6.6c-3.6,0.1-6.5-2.8-6.6-6.3c-0.1-3.6,2.8-6.5,6.3-6.6c0,0,0.1,0,0.1,0
		C85.5,133.6,88.4,136.4,88.5,139.9z"/>
</g>
</svg>
