<?xml version="1.0" encoding="utf-8"?>
<!-- Generator: Adobe Illustrator 24.1.0, SVG Export Plug-In . SVG Version: 6.00 Build 0)  -->
<!DOCTYPE svg PUBLIC "-//W3C//DTD SVG 1.1//EN" "http://www.w3.org/Graphics/SVG/1.1/DTD/svg11.dtd" [
	<!ENTITY st0 "fill:#8080FF;">
	<!ENTITY st1 "fill:#0000FF;">
	<!ENTITY st2 "fill:#BFBFFF;">
]>
<svg version="1.1" id="Layer_1" xmlns="http://www.w3.org/2000/svg" xmlns:xlink="http://www.w3.org/1999/xlink" x="0px" y="0px"
	 width="512px" height="512px" viewBox="0 0 512 512" style="enable-background:new 0 0 512 512;" xml:space="preserve">
<g id="_x35_1_Sim_Card">
	<g>
		<g>
			<path style="&st0;" d="M400,448H176c-35.3,0-64-28.7-64-64V64c0-35.3,28.7-64,64-64h160c17.1,0,33.2,6.7,45.2,18.7l64,64
				C457.3,94.8,464,110.9,464,128v256C464,419.3,435.3,448,400,448L400,448z"/>
		</g>
		<g>
			<path style="&st1;" d="M336,512H112c-35.3,0-64-28.7-64-64V128c0-35.3,28.7-64,64-64h160c17.1,0,33.2,6.7,45.2,18.7l64,64
				c12.1,12.1,18.7,28.2,18.7,45.2v256C400,483.3,371.3,512,336,512L336,512z"/>
		</g>
		<path style="&st2;" d="M315.7,306.5v138.8c0,7.7-6.2,13.9-13.9,13.9H130.2c-7.7,0-13.9-6.2-13.9-13.9V306.5
			c0-7.7,6.2-13.9,13.9-13.9h171.6C309.5,292.6,315.7,298.9,315.7,306.5z"/>
		<path style="&st0;" d="M301.8,288.3H130.2c-10,0-18.2,8.2-18.2,18.2v138.8c0,10,8.2,18.2,18.2,18.2h171.6c10,0,18.2-8.2,18.2-18.2
			V306.5C320,296.5,311.8,288.3,301.8,288.3L301.8,288.3z M211.7,413.7v41.2h-34.3v-41.2H211.7z M220.3,413.7h34.3v41.2h-34.3V413.7
			z M164.3,405c-5.2,0-9.4-4.2-9.4-9.4v-39.4c0-5.2,4.2-9.4,9.4-9.4h103.4c5.2,0,9.4,4.2,9.4,9.4v39.4c0,5.2-4.2,9.4-9.4,9.4H164.3z
			 M120.7,392.5v-33.2h25.6v33.2H120.7z M220.3,338.2V297h34.3v41.2H220.3z M211.7,338.2h-34.3V297h34.3V338.2z M285.7,359.4h25.6
			v33.2h-25.6V359.4z M311.3,306.5v44.2h-26.6c-2.3-7.2-9.1-12.5-17.1-12.5h-4.4V297h38.5C307.1,297,311.3,301.3,311.3,306.5
			L311.3,306.5z M130.2,297h38.5v41.2h-4.4c-8,0-14.8,5.3-17.1,12.5h-26.5v-44.2C120.7,301.3,124.9,297,130.2,297L130.2,297z
			 M120.7,445.4v-44.2h26.6c2.4,7.2,9.1,12.5,17.1,12.5h4.4v41.2h-38.5C124.9,454.9,120.7,450.6,120.7,445.4L120.7,445.4z
			 M301.8,454.9h-38.5v-41.2h4.4c8,0,14.7-5.3,17.1-12.5h26.6v44.2C311.3,450.6,307.1,454.9,301.8,454.9L301.8,454.9z"/>
	</g>
</g>
</svg>
