<?xml version="1.0" encoding="utf-8"?>
<!-- Generator: Adobe Illustrator 24.1.1, SVG Export Plug-In . SVG Version: 6.00 Build 0)  -->
<svg version="1.1" id="Layer_1" xmlns="http://www.w3.org/2000/svg" xmlns:xlink="http://www.w3.org/1999/xlink" x="0px" y="0px"
	 viewBox="0 0 480 480" style="enable-background:new 0 0 480 480;" xml:space="preserve">
<style type="text/css">
	.st0{fill:#0000FF;}
	.st1{fill:#BFBFFF;}
	.st2{fill:#8080FF;}
	.st3{fill:#6666FF;}
	.st4{fill:#7D7DFF;}
</style>
<path class="st0" d="M416,472H192c-13.3,0-24-10.7-24-24V128c0-13.3,10.7-24,24-24h176l72,72v272C440,461.3,429.3,472,416,472z"/>
<path class="st1" d="M208,272h192v160H208V272z"/>
<path class="st2" d="M352,272v88H208v16h40v56h16v-56h32v56h16v-56h40v56h16V272H352z"/>
<path class="st3" d="M208,360v16h40v16h16v-16h32v15.2c5.8-1.2,11.3-3.6,16-7.2v-8h8c3.6-4.7,6-10.2,7.2-16H208z"/>
<path class="st4" d="M208,376h40v16h-40V376z"/>
<g>
	<path class="st2" d="M464,264h16v152h-16V264z"/>
	<path class="st2" d="M464,432h16v16h-16V432z"/>
	<path class="st2" d="M0,40h16v232H0V40z"/>
</g>
<path class="st2" d="M168,376h40v16h-40V376z"/>
<path class="st4" d="M296,272h32v88h-32V272z"/>
<path class="st0" d="M288,376H64c-13.3,0-24-10.7-24-24V32C40,18.7,50.7,8,64,8h176l72,72v272C312,365.3,301.3,376,288,376z"/>
<path class="st1" d="M80,176h192v160H80V176z"/>
<path class="st2" d="M184,224v-48h-16v40H80v16h96C180.4,232,184,228.4,184,224z"/>
<path class="st2" d="M216,176v88H80v16h40v56h16v-56h32v56h16v-56h32v56h16V176H216z"/>
<path class="st2" d="M72,40h16v16H72V40z"/>
<path class="st2" d="M104,40h56v16h-56V40z"/>
<path class="st2" d="M72,72h112v16H72V72z"/>
<path class="st4" d="M264,376h32v16h-32V376z"/>
<path class="st2" d="M312,104h16v168h-16V104z"/>
</svg>
