<?xml version="1.0" encoding="utf-8"?>
<!-- Generator: Adobe Illustrator 24.1.1, SVG Export Plug-In . SVG Version: 6.00 Build 0)  -->
<svg version="1.1" id="Layer_1" xmlns="http://www.w3.org/2000/svg" xmlns:xlink="http://www.w3.org/1999/xlink" x="0px" y="0px"
	 viewBox="0 0 164 164" style="enable-background:new 0 0 164 164;" xml:space="preserve">
<style type="text/css">
	.st0{fill:#BFBFFF;}
	.st1{fill:#4040FF;}
	.st2{fill:#8080FF;}
	.st3{fill:#0000FF;}
	.st4{filter:url(#Adobe_OpacityMaskFilter);}
	.st5{clip-path:url(#SVGID_1_);}
	.st6{enable-background:new    ;}
	.st7{clip-path:url(#SVGID_4_);fill:url(#SVGID_5_);}
	.st8{clip-path:url(#SVGID_1_);mask:url(#SVGID_3_);}
	.st9{clip-path:url(#SVGID_6_);}
	.st10{clip-path:url(#SVGID_7_);fill:url(#SVGID_8_);}
</style>
<g>
	<path class="st0" d="M99.3,127.1c8.2,6.7,16.5,9.8,16.9,10l4.2,1.6l4.2-1.6c0.4-0.1,8.7-3.3,16.9-10c0.5-0.4,1-0.8,1.5-1.3H97.8
		C98.3,126.2,98.8,126.6,99.3,127.1"/>
	<path class="st0" d="M147.3,57.7v63.8c7.9-8.5,12-18.7,12-29.7V57.7H147.3z"/>
	<path class="st1" d="M127.6,94.5h-14.4V65.3c-6,2.8-12.7,4.4-19.8,4.4v7.6v14.6c0,23.9,27,33.9,27,33.9s27-10.1,27-33.9V77.3v-7.6
		c-7.1,0-13.8-1.6-19.8-4.4V94.5z M127.6,117.5h-14.4v-14.4h14.4V117.5z"/>
	<path class="st2" d="M147.3,57.7c-7.2,0-14.1-2.2-20-6.4l-7-5l-7,5c-5.9,4.2-12.8,6.4-20,6.4h-12v34.2c0,12.9,5.7,24.6,16.4,33.9
		h45.1c1.6-1.4,3.1-2.8,4.4-4.3V57.7z M147.3,77.2v14.6c0,23.9-27,33.9-27,33.9s-27-10.1-27-33.9V77.2v-7.6c7.1,0,13.8-1.6,19.8-4.4
		V54.9h14.4v10.3c6,2.8,12.7,4.4,19.8,4.4V77.2z"/>
	<path class="st3" d="M81.4,91.8V57.7h12c7.2,0,14.1-2.2,20-6.4l7-5l7,5c5.9,4.2,12.8,6.4,20,6.4V25.4H17.2v100.4h80.6
		C87.1,116.4,81.4,104.7,81.4,91.8 M27.2,39.3c-2.1,0-3.8-1.7-3.8-3.8c0-2.1,1.7-3.8,3.8-3.8c2.1,0,3.8,1.7,3.8,3.8
		C31.1,37.6,29.3,39.3,27.2,39.3 M41,39.3c-2.1,0-3.8-1.7-3.8-3.8c0-2.1,1.7-3.8,3.8-3.8c2.1,0,3.8,1.7,3.8,3.8
		C44.9,37.6,43.1,39.3,41,39.3 M54.8,39.3c-2.1,0-3.8-1.7-3.8-3.8c0-2.1,1.7-3.8,3.8-3.8c2.1,0,3.8,1.7,3.8,3.8
		C58.7,37.6,56.9,39.3,54.8,39.3"/>
	<g>
		<defs>
			<path id="SVGID_12_" d="M142.9,125.8h4.4v-4.3C146,123,144.5,124.4,142.9,125.8"/>
		</defs>
		<clipPath id="SVGID_1_">
			<use xlink:href="#SVGID_12_"  style="overflow:visible;"/>
		</clipPath>
		<defs>
			<filter id="Adobe_OpacityMaskFilter" filterUnits="userSpaceOnUse" x="136.5" y="115" width="17.3" height="17.3">
				<feColorMatrix  type="matrix" values="1 0 0 0 0  0 1 0 0 0  0 0 1 0 0  0 0 0 1 0"/>
			</filter>
		</defs>
		<mask maskUnits="userSpaceOnUse" x="136.5" y="115" width="17.3" height="17.3" id="SVGID_3_">
			<g class="st4">
				<rect x="140.8" y="119.3" class="st5" width="8.7" height="8.7"/>
				<g class="st6">
					<g>
						<defs>
							
								<rect id="SVGID_2_" x="142.1" y="120.6" transform="matrix(0.707 -0.7072 0.7072 0.707 -44.9201 138.8748)" width="6.1" height="6.1"/>
						</defs>
						<clipPath id="SVGID_4_" class="st5">
							<use xlink:href="#SVGID_2_"  style="overflow:visible;"/>
						</clipPath>
						
							<linearGradient id="SVGID_5_" gradientUnits="userSpaceOnUse" x1="-939.022" y1="650.2177" x2="-937.7175" y2="650.2177" gradientTransform="matrix(-88.3553 -88.3553 -88.3553 88.3553 -25370.0723 -140291.8594)">
							<stop  offset="0" style="stop-color:#1D1D1B"/>
							<stop  offset="1" style="stop-color:#FFFFFF"/>
						</linearGradient>
						<polygon class="st7" points="145.1,132.3 136.5,123.6 145.1,115 153.8,123.6 						"/>
					</g>
				</g>
			</g>
		</mask>
		<g class="st8">
			<g>
				<defs>
					<rect id="SVGID_18_" x="140.8" y="119.3" width="8.7" height="8.7"/>
				</defs>
				<clipPath id="SVGID_6_">
					<use xlink:href="#SVGID_18_"  style="overflow:visible;"/>
				</clipPath>
				<g class="st9">
					<defs>
						
							<rect id="SVGID_20_" x="142.1" y="120.6" transform="matrix(0.7071 -0.7071 0.7071 0.7071 -44.9234 138.8443)" width="6.1" height="6.1"/>
					</defs>
					<clipPath id="SVGID_7_">
						<use xlink:href="#SVGID_20_"  style="overflow:visible;"/>
					</clipPath>
					
						<linearGradient id="SVGID_8_" gradientUnits="userSpaceOnUse" x1="-939.022" y1="650.2177" x2="-937.7175" y2="650.2177" gradientTransform="matrix(-88.3553 -88.3553 -88.3553 88.3553 -25370.0723 -140291.8594)">
						<stop  offset="0" style="stop-color:#0000FF"/>
						<stop  offset="1" style="stop-color:#0000FF"/>
					</linearGradient>
					<polygon class="st10" points="145.1,132.3 136.5,123.7 145.1,115 153.8,123.7 					"/>
				</g>
			</g>
		</g>
	</g>
</g>
</svg>
