<?xml version="1.0" standalone="no"?>
<!DOCTYPE svg PUBLIC "-//W3C//DTD SVG 1.1//EN" "http://www.w3.org/Graphics/SVG/1.1/DTD/svg11.dtd" >
<svg xmlns="http://www.w3.org/2000/svg">
<metadata>Generated by IcoMoon</metadata>
<defs>
<font id="mutasil-service" horiz-adv-x="512">
<font-face units-per-em="512" ascent="435.2" descent="-76.8" />
<missing-glyph horiz-adv-x="512" />
<glyph unicode="&#x20;" horiz-adv-x="256" d="" />
<glyph unicode="&#xe900;" glyph-name="alert" d="M213.333-16c0-23.466 19.2-42.666 42.667-42.666s42.666 19.2 42.666 42.666h-85.334zM234.667 261.333h42.667v-85.333h-42.666v85.334zM234.667 133.334h42.667v-42.666h-42.666v42.666zM256 304c59.733 0 106.666-46.934 106.666-106.666v-149.334h-213.333v149.333c0 59.733 46.934 106.667 106.667 106.667zM405.334 69.334v128c0 70.4-51.2 132.267-117.334 145.066v57.6h-64v-57.6c-66.133-12.8-117.334-74.666-117.334-145.066v-128l-42.666-42.666v-21.334h384v21.334l-42.666 42.666z" />
<glyph unicode="&#xe901;" glyph-name="certificate" d="M128 389.333v-42.666h298.666v-128h-341.334v85.334h-42.666v-234.666h128v-106.666l85.334 42.666 85.334-42.666v106.666h128v320h-341.334zM426.666 112h-341.334v42.666h341.334v-42.666zM85.334 389.333h-42.666v-42.666h42.666z" />
<glyph unicode="&#xe902;" glyph-name="certificate2" d="M426.666 218.666c0 93.867-76.8 170.667-170.667 170.667s-170.667-76.8-170.667-170.667c0-42.666 17.067-83.2 42.666-113.066v-164.267l128 42.666 128-42.666v164.267c25.6 29.866 42.666 70.4 42.666 113.067zM256 346.666c70.4 0 128-57.6 128-128s-57.6-128-128-128-128 57.6-128 128 57.6 128 128 128zM256 26.666l-85.334-21.334v66.134c25.6-14.933 53.334-23.466 85.334-23.466s59.733 8.534 85.334 23.466v-66.134l-85.334 21.334zM341.334 257.066l-29.866 29.867-74.666-74.666-32 27.733-29.867-29.867 59.733-59.733 106.667 106.666z" />
<glyph unicode="&#xe903;" glyph-name="cloud" d="M412.8 217.813c-14.507 73.6-79.147 128.853-156.8 128.853-61.654 0-115.2-34.986-141.867-86.186-64.213-6.827-114.133-61.226-114.133-127.147 0-70.613 57.386-128 128-128h277.334c58.88 0 106.666 47.786 106.666 106.666 0 56.32-43.733 101.974-99.2 105.813zM405.334 48h-277.334c-47.147 0-85.334 38.187-85.334 85.334s38.187 85.334 85.334 85.334h15.147c14.080 49.28 59.094 85.333 112.853 85.333 64.853 0 117.334-52.48 117.334-117.333v-10.666h32c35.413 0 64-28.587 64-64s-28.587-64-64-64z" />
<glyph unicode="&#xe904;" glyph-name="cloud2" d="M21.334 368v-298.666h42.666v256h384v-298.666h-341.334v-42.666h384v384zM330.666 90.666c29.866 0 53.334 23.466 53.334 53.334s-23.466 53.334-53.334 53.334h-2.134c-4.267 36.267-36.267 64-72.534 64-29.867 0-55.466-17.067-68.267-42.666h-2.133c-32-4.267-57.6-29.867-57.6-64 0-36.267 27.733-64 64-64h138.666zM21.334-16h42.666v42.666h-42.666z" />
<glyph unicode="&#xe905;" glyph-name="complaint" d="M256 389.333l-170.667-64v-129.92c0-107.733 72.746-208.214 170.667-232.746 97.92 24.534 170.667 125.014 170.667 232.746v129.92l-170.667 64zM384 195.413c0-85.334-54.4-164.267-128-188.374-73.6 24.106-128 102.827-128 188.373v100.267l128 48 128-48v-100.267zM234.667 133.334h42.667v-42.666h-42.666v42.666zM234.667 282.666h42.667v-106.666h-42.666v106.666z" />
<glyph unicode="&#xe906;" glyph-name="coverage" d="M256 325.333c-83.2 0-149.333-66.133-149.333-149.333h42.667c0 59.733 46.934 106.666 106.666 106.666s106.666-46.934 106.666-106.666h42.666c0 83.2-66.134 149.333-149.333 149.333zM277.334 126.933h32v102.4h-106.666v-102.4h32v-70.4l-72.534-72.534 29.867-29.866 64 64 64-64 29.866 29.866-72.534 72.534v70.4zM256 410.666c-130.133 0-234.667-104.534-234.667-234.666h42.666c0 106.666 85.334 192 192 192s192-85.334 192-192h42.666c0 130.133-104.534 234.666-234.667 234.666z" />
<glyph unicode="&#xe907;" glyph-name="delivery" d="M426.666 261.333h-64v85.334h-256v-42.666h213.334v-192h-145.066c-12.8 12.8-27.733 21.334-46.934 21.334s-36.267-8.534-46.934-21.334h-17.067v149.333h-42.666v-192h42.666c0-36.267 27.734-64 64-64s64 27.733 64 64h128c0-36.267 27.733-64 64-64s64 27.733 64 64h42.666v106.666l-64 85.334zM128 48c-12.8 0-21.334 10.666-21.334 21.334s8.534 21.334 21.334 21.334 21.334-10.666 21.334-21.334-8.534-21.334-21.334-21.334zM384 48c-10.666 0-21.334 10.666-21.334 21.334s10.666 21.334 21.334 21.334 21.334-10.666 21.334-21.334-10.666-21.334-21.334-21.334zM362.666 176v53.334h53.334l42.666-53.334h-96zM64 346.666h-42.666v-42.666h42.666z" />
<glyph unicode="&#xe908;" glyph-name="devices" d="M248.166 243.767l27.152 27.153 27.152-27.153-27.152-27.152-27.153 27.152zM149.333 410.666v-106.666h42.667v42.666h213.333v-341.334h-213.333v42.666h-42.667v-106.666h298.666v469.334zM249.6 190.933l-27.733 27.733c-36.267-36.267-72.534-74.666-72.534-74.666l-53.334 53.334-27.734-27.733 81.066-78.933 100.267 100.267z" />
<glyph unicode="&#xe909;" glyph-name="domain" d="M255.786 389.333c-117.76 0-213.12-95.573-213.12-213.333s95.36-213.333 213.12-213.333c117.974 0 213.546 95.573 213.546 213.333s-95.573 213.334-213.547 213.334zM403.627 261.333h-62.933c-6.827 26.667-16.64 52.267-29.44 75.947 39.254-13.44 71.894-40.746 92.374-75.947zM256 345.813c17.707-25.6 31.574-53.974 40.746-84.48h-81.493c9.173 30.506 23.040 58.88 40.746 84.48zM90.88 133.334c-3.413 13.654-5.546 27.947-5.546 42.666s2.133 29.013 5.546 42.666h72.106c-1.707-14.080-2.987-28.16-2.987-42.666s1.28-28.587 2.987-42.666h-72.106zM108.374 90.666h62.934c6.827-26.666 16.64-52.267 29.44-75.947-39.254 13.44-71.894 40.534-92.374 75.947zM171.306 261.333h-62.934c20.48 35.413 53.12 62.507 92.374 75.947-12.8-23.68-22.613-49.28-29.44-75.947zM256 6.187c-17.707 25.6-31.573 53.974-40.746 84.48h81.494c-9.173-30.507-23.040-58.88-40.747-84.48zM305.92 133.334h-99.84c-1.92 14.080-3.413 28.16-3.413 42.666s1.494 28.8 3.413 42.666h99.84c1.92-13.867 3.413-28.16 3.413-42.666s-1.493-28.587-3.413-42.666zM311.253 14.72c12.8 23.68 22.613 49.28 29.44 75.947h62.933c-20.48-35.2-53.12-62.507-92.374-75.947zM349.014 133.334c1.707 14.080 2.986 28.16 2.986 42.666s-1.28 28.587-2.986 42.666h72.106c3.413-13.654 5.546-27.947 5.546-42.666s-2.134-29.014-5.546-42.666h-72.106z" />
<glyph unicode="&#xe90a;" glyph-name="mail" d="M460.8 114.134l-91.733-91.733-44.8 46.933-29.866-32 74.666-74.666 121.6 121.6zM128 48v-42.666h130.134c0 6.4-2.134 14.933-2.134 21.334s0 14.933 2.134 21.334h-130.133zM426.666 261.333v-87.466c14.933-2.134 29.866-6.4 42.666-12.8v185.6h-426.666v-256h42.666v170.666l170.667-106.666 170.667 106.666zM426.666 304l-170.667-106.666-170.667 106.666h341.334zM42.666 5.334h42.666v42.666h-42.666z" />
<glyph unicode="&#xe90b;" glyph-name="map" d="M320 323.2l-128 44.8-128-42.667v-260.266h42.666v228.267l64 21.334v-249.6l-21.334-8.534v-44.8l42.666 17.067 128-44.8 128 42.666v345.6l-128-49.067zM298.666 37.334l-85.334 29.866v247.466l85.334-29.867v-247.466zM405.334 58.666l-64-21.334v247.466l64 25.6v-251.733zM64-20.267h42.666v42.666h-42.666z" />
<glyph unicode="&#xe90c;" glyph-name="meter" d="M226.133 103.466c17.066-17.067 42.667-17.067 59.734 0 0 0 0 0 0 0l121.6 181.333-181.333-121.6c-17.066-17.067-17.066-42.666 0-59.733 0 0 0 0 0 0zM435.2 248.534v0 0zM332.8 286.933l40.534 25.6c-98.133 64-230.4 36.267-294.4-64-32-46.934-40.533-104.534-29.867-157.866h42.666c-19.2 72.534 10.666 151.466 78.933 189.866 49.066 29.867 110.933 32 162.134 6.4zM435.2 248.534l-25.6-40.534c25.6-51.2 23.466-113.067-4.267-162.134h-256v-42.666h277.334c53.334 74.666 57.6 170.666 8.534 245.333zM64 5.334h42.666v42.666h-42.666z" />
<glyph unicode="&#xe90d;" glyph-name="number" d="M234.667 261.333v-170.666h106.667v170.666h-106.666zM298.666 133.334h-21.334v85.334h21.334v-85.334zM42.666 346.666v-256h42.666v213.333h341.334v-256h-298.666v-42.666h341.334v341.334zM362.666 261.333h42.666v-170.666h-42.666v170.666zM213.333 90.666v170.666h-106.666v-170.666h106.666zM149.333 218.666h21.333v-85.333h-21.334v85.334zM42.666 5.334h42.666v42.666h-42.666z" />
<glyph unicode="&#xe90e;" glyph-name="phone" d="M256 389.333l-170.667-64v-130.133c0-106.666 72.534-209.066 170.667-232.534 98.134 23.466 170.667 125.867 170.667 232.534v130.133l-170.667 64zM384 195.2c0-85.334-55.466-164.267-128-187.733-72.534 23.466-128 102.4-128 187.733v100.267l128 49.066 128-49.066v-100.267zM243.2 133.334h34.133l32-42.666-42.666-42.666c-27.733 21.334-49.066 51.2-57.6 85.334-4.267 12.8-6.4 27.733-6.4 42.666s2.133 29.866 6.4 42.666c10.667 34.133 29.867 64 57.6 85.333l42.666-42.666-32-42.666h-34.133c-4.267-12.8-8.534-27.733-8.534-42.666s2.133-29.866 8.534-42.666z" />
<glyph unicode="&#xe90f;" glyph-name="postal" d="M405.334 133.334c-59.733 0-106.666-46.933-106.666-106.666s46.933-106.666 106.666-106.666 106.666 46.933 106.666 106.666-46.933 106.666-106.666 106.666zM416-37.334h-21.334v21.334h21.334v-21.334zM416 5.334h-21.334v85.334h21.334v-85.334zM426.666 261.333v-87.466c14.933-2.134 29.866-6.4 42.666-12.8v185.6h-426.666v-256h42.666v170.666l170.667-106.666 170.667 106.666zM426.666 304l-170.667-106.666-170.667 106.666h341.334zM128 48v-42.666h130.134c0 6.4-2.134 14.933-2.134 21.334s0 14.933 2.134 21.334h-130.133zM42.666 5.334h42.666v42.666h-42.666z" />
<glyph unicode="&#xe910;" glyph-name="report" d="M149.333 218.666h42.667v-149.333h-42.666v149.333zM149.333 368v-42.667h256v-298.666h-298.666v256h-42.666v-298.666h384v384zM320 154.666h42.666v-85.334h-42.666v85.334zM234.667 282.666h42.667v-213.333h-42.666v213.333zM106.666 368h-42.666v-42.667h42.666z" />
<glyph unicode="&#xe911;" glyph-name="shield" d="M386.56 101.334c0-13.196-10.697-23.894-23.894-23.894s-23.894 10.697-23.894 23.894c0 13.196 10.697 23.894 23.894 23.894s23.894-10.697 23.894-23.894zM362.666 58.666c-15.574 0-46.72-7.68-47.786-23.040 10.666-15.147 28.16-24.96 47.786-24.96s37.12 9.813 47.786 24.96c-1.067 15.36-32.214 23.040-47.786 23.040zM384 195.413v102.827l-160 69.76-160-69.76v-104.747c0-96.853 68.267-187.52 160-209.493 11.733 2.774 23.040 6.827 34.134 11.733 23.040-32.853 61.226-54.4 104.534-54.4 70.613 0 128 57.387 128 128 0 63.36-46.080 115.84-106.666 126.080zM234.667 69.334c0-11.947 1.707-23.68 4.906-34.56-5.12-2.346-10.24-4.693-15.573-6.4-67.626 21.334-117.334 90.454-117.334 165.12v76.8l117.334 51.2 117.334-51.2v-74.88c-60.587-10.24-106.666-62.72-106.666-126.080zM362.666-16c-47.147 0-85.334 38.187-85.334 85.334s38.187 85.334 85.334 85.334 85.334-38.187 85.334-85.334c0-47.147-38.187-85.334-85.334-85.334z" />
<glyph unicode="&#xe912;" glyph-name="sim" d="M320 69.334h42.666v-42.666h-42.666v42.666zM234.667 197.333h42.667v-42.666h-42.666v42.666zM384 5.334h-256v238.933l102.4 102.4h110.934v42.666h-128l-128-128v-298.666h341.334v341.334h-42.666zM320 197.333h42.666v-85.333h-42.666v85.334zM149.333 69.334h42.667v-42.666h-42.666v42.666zM149.333 197.333h42.667v-85.333h-42.666v85.334zM234.667 112h42.667v-85.334h-42.666v85.334zM405.334 389.333h-21.334v-42.666h42.666v42.666z" />
<glyph unicode="&#xe913;" glyph-name="warning" d="M256 304.213l160.64-277.546h-321.28l160.64 277.546zM256 389.333l-234.667-405.333h469.334l-234.667 405.334zM277.334 90.666h-42.666v-42.666h42.666v42.666zM277.334 218.666h-42.666v-85.333h42.666v85.334z" />
<glyph unicode="&#xe914;" glyph-name="wifi" d="M21.334 240l42.666-42.666c106.026 106.026 277.974 106.026 384 0l42.666 42.666c-129.493 129.493-339.627 129.493-469.334 0zM192 69.334l64-64 64 64c-35.2 35.413-92.587 35.413-128 0zM106.666 154.666l42.666-42.666c58.88 58.88 154.453 58.88 213.333 0l42.666 42.666c-82.346 82.346-216.107 82.346-298.666 0z" />
</font>
</defs>
</svg>
